<?xml version="1.0" encoding="utf-8"?>
<!-- Generator: Adobe Illustrator 13.0.1, SVG Export Plug-In . SVG Version: 6.00 Build 14948)  -->
<!DOCTYPE svg PUBLIC "-//W3C//DTD SVG 1.0//EN" "http://www.w3.org/TR/2001/REC-SVG-20010904/DTD/svg10.dtd">
<svg version="1.0" xmlns="http://www.w3.org/2000/svg" xmlns:xlink="http://www.w3.org/1999/xlink" x="0px" y="0px" width="60px"
	 height="600px" viewBox="0 0 60 600" enable-background="new 0 0 60 600" xml:space="preserve">
<g id="圖層_2" display="none">
	<rect display="inline" fill-rule="evenodd" clip-rule="evenodd" fill="#E9E8E8" width="60" height="100"/>
	<rect y="100" display="inline" fill-rule="evenodd" clip-rule="evenodd" fill="#B8BEBE" width="60" height="100"/>
	<rect y="400" display="inline" fill-rule="evenodd" clip-rule="evenodd" fill="#E9E8E8" width="60" height="100"/>
	<rect y="500" display="inline" fill-rule="evenodd" clip-rule="evenodd" fill="#B8BEBE" width="60" height="100"/>
	<rect y="200" display="inline" fill-rule="evenodd" clip-rule="evenodd" fill="#E9E8E8" width="60" height="100"/>
	<rect y="300" display="inline" fill-rule="evenodd" clip-rule="evenodd" fill="#B8BEBE" width="60" height="100"/>
</g>
<g id="分離模式">
	<g opacity="0.5">
		<path fill-rule="evenodd" clip-rule="evenodd" fill="#FFFFFF" d="M11.755,7.693L11.755,7.693c1.193-1.197,3.156-1.197,4.341,0
			l15.836,15.833c1.197,1.2,1.197,3.151,0,4.341l0,0c-1.187,1.195-3.138,1.195-4.335,0L11.755,12.032
			C10.569,10.839,10.569,8.89,11.755,7.693L11.755,7.693L11.755,7.693z M53.467,23.328H34.116c1.021,1.879,0.741,4.282-0.847,5.878
			c-1.93,1.929-5.071,1.929-7.007,0l-5.868-5.878H6.533C4.591,23.328,3,24.918,3,26.861l0,0c0,1.938,1.591,3.535,3.533,3.535H7.38
			l8.151,23.897h7.194h15.021h7.199l8.151-23.897h0.369c1.947,0,3.533-1.597,3.533-3.535l0,0C57,24.918,55.414,23.328,53.467,23.328
			L53.467,23.328L53.467,23.328z M15.841,32.62h28.522c0.992,0,1.803,0.816,1.803,1.815l0,0c0,1-0.811,1.816-1.803,1.816H15.841
			c-0.999,0-1.815-0.816-1.815-1.816l0,0C14.025,33.437,14.842,32.62,15.841,32.62L15.841,32.62L15.841,32.62z M19.825,47.008
			h20.729c0.994,0,1.811,0.821,1.811,1.82l0,0c0,0.999-0.816,1.815-1.811,1.815H19.825c-0.996,0-1.814-0.816-1.814-1.815l0,0
			C18.011,47.83,18.829,47.008,19.825,47.008L19.825,47.008L19.825,47.008z M17.837,39.926H42.73c0.999,0,1.815,0.821,1.815,1.831
			l0,0c0,0.992-0.816,1.804-1.815,1.804H17.837c-0.999,0-1.809-0.812-1.809-1.804l0,0C16.028,40.747,16.838,39.926,17.837,39.926
			L17.837,39.926z"/>
		<polygon fill-rule="evenodd" clip-rule="evenodd" fill="#FFFFFF" points="32.156,0 32.156,10.344 26.985,10.344 37.326,20.693 
			47.672,10.344 42.502,10.344 42.502,0 32.156,0 		"/>
	</g>
	<g opacity="0.5">
		<path fill-rule="evenodd" clip-rule="evenodd" fill="#FFFFFF" d="M51.988,119.878L30.28,108.932l7.3-8.932L59,111.426
			L51.988,119.878L51.988,119.878z M1,111.235L22.899,100l7.013,8.932L8.397,119.878L1,111.235L1,111.235z M29.897,130.188
			l-3.844,10.854L4.538,130.188l3.843-10.275L29.897,130.188L29.897,130.188z M26.486,142.7l3.243-8.454v19.592L7.036,143.322
			L7.108,132.9L26.486,142.7L26.486,142.7z M56.312,130.09l-22.284,10.854l-3.65-10.757l21.611-10.275L56.312,130.09L56.312,130.09z
			 M53.142,132.974v10.349L30.52,153.838v-19.592l3.008,8.474L53.142,132.974L53.142,132.974z"/>
	</g>
	<g opacity="0.5">
		<path fill-rule="evenodd" clip-rule="evenodd" fill="#FFFFFF" d="M54.693,255.21c-0.324,0.373-0.973,0.558-1.996,0.558
			l-16.207,0.004l-6.486-0.004l-6.484,0.004l-16.204-0.004c-1.096,0-1.746-0.153-2.039-0.492c-0.283-0.334-0.347-0.962-0.204-1.984
			c0.394-2.799,0.906-5.687,1.518-8.575c0.168-0.793,0.653-1.829,2-2.234c3.484-1.061,7.226-2.204,11.021-3.436
			c0.635-0.212,0.827-0.114,1.124,0.305c2.129,2.936,5.452,4.643,9.127,4.679c3.669,0.004,7.007-1.593,9.176-4.466
			c0.463-0.609,0.796-0.707,1.577-0.448c3.648,1.211,7.261,2.318,10.623,3.331c1.276,0.389,1.946,1.109,2.155,2.333
			c0.217,1.256,0.449,2.506,0.682,3.759c0.293,1.569,0.588,3.138,0.844,4.721C55.078,254.206,55.004,254.843,54.693,255.21
			L54.693,255.21z M14.206,221.631c4.283,0.526,9.757,0.841,15.792,0.841c6.044,0,11.52-0.319,15.81-0.844
			c0.053-0.301,0.109-0.672,0.149-0.673l0.041-0.561c0.098-1.484,0.194-2.876-0.632-4.067c-0.457-0.66-0.677-1.196-0.769-1.845
			c-0.547-3.953-2.427-7.315-5.553-9.985c-0.147-0.122-0.299-0.255-0.436-0.358c-0.026,0.158-0.067,0.355-0.107,0.549
			c-0.525,2.732-1.292,6.28-2.677,9.748l-1.092-0.143c-0.055-0.437-0.006-0.83,0.045-1.227c0.14-1.096,0.306-2.183,0.479-3.27
			c0.359-2.343,0.738-4.769,0.838-7.172c0.041-1.008-0.282-1.459-1.261-1.801c-2.401-0.835-4.893-1.04-7.403-0.597
			c-3.613,0.636-3.673,0.722-3.355,4.429c0.027,0.317,0.067,0.625,0.111,0.942l1.218,8.517l-1.086,0.303
			c-1.429-3.275-2.147-6.658-2.905-10.236c-3.408,2.753-5.371,6.132-5.985,10.301c-0.009,0.08-0.013,0.168-0.024,0.262
			c-0.023,0.36-0.058,0.815-0.372,1.119c-0.99,0.942-0.99,2.098-0.993,3.431c0,0.391,0,0.783-0.027,1.171
			c-0.021,0.341,0.043,0.421,0.043,0.423C14.06,220.892,14.097,221.295,14.206,221.631L14.206,221.631z M29.998,225.03
			c-4.871,0-9.403-0.215-13.226-0.565c-0.003,0.044,0.005,0.079-0.003,0.116l0.056,0.404c0.3,2.149,0.579,4.178,2.244,5.698
			c0.294,0.269,0.424,0.648,0.524,0.952c1.107,3.265,3.246,5.843,6.556,7.884c2.425,1.507,4.861,1.638,7.24,0.374
			c3.482-1.842,5.879-4.54,7.126-8.025l0.066-0.189c0.093-0.293,0.207-0.663,0.494-0.919c1.818-1.662,2.069-3.918,2.333-6.308
			c-0.667,0.062-1.356,0.117-2.064,0.171c-0.153,0.024-0.306,0.033-0.453,0.033C37.607,224.89,33.915,225.03,29.998,225.03
			L29.998,225.03z"/>
	</g>
	<g opacity="0.5">
		<path fill-rule="evenodd" clip-rule="evenodd" fill="#FFFFFF" d="M41.617,327.945c-0.869,0-1.572,0.702-1.572,1.57
			c0,0.866,0.703,1.569,1.572,1.569c0.865,0,1.568-0.703,1.568-1.569C43.186,328.647,42.482,327.945,41.617,327.945L41.617,327.945
			L41.617,327.945z M36.088,343.078c0,0.709,0.496,1.153,1.203,1.153s1.135-0.573,1.135-1.282l0.381-5.369
			c0.023-0.268,0.092-0.495,0.197-0.694l1.797-3.095l1.484,0.829c0.191,0.174,0.557,0.212,0.824,0.166l2.523-0.493
			c1.053-0.158,1.008-1.486-0.229-1.33l-2.301,0.196c-0.369-0.347-1.352-1.141-1.873-1.599c-0.502-0.438-1.004-0.84-1.723-0.749
			c-0.484,0.063-0.936,0.342-1.201,0.799l-1.9,3.745c-0.219,0.438-0.26,0.651-0.293,1.225
			C36.006,338.401,36.088,342.301,36.088,343.078L36.088,343.078L36.088,343.078z M44.533,331.073h2.486v1.171h0.705v-1.171h2.486
			v5.678h-5.678v-1.835l1.176-0.232c1.564-0.307,1.371-2.26-0.336-2.116l-0.84,0.07V331.073L44.533,331.073L44.533,331.073z"/>
		<path fill-rule="evenodd" clip-rule="evenodd" fill="#FFFFFF" d="M25.775,341.821H10.508v-7.888h15.267V341.821L25.775,341.821
			L25.775,341.821z M10.508,342.863h15.267v1.346h1.042v-21.435h-1.042v1.188H10.508v-1.188H9.466v21.435h1.042V342.863
			L10.508,342.863L10.508,342.863z M10.508,325.005h15.267v7.888H10.508V325.005L10.508,325.005L10.508,325.005z"/>
		<polygon fill-rule="evenodd" clip-rule="evenodd" fill="#FFFFFF" points="11.256,334.623 14.126,334.623 14.126,335.992 
			14.952,335.992 14.952,334.623 17.822,334.623 17.822,341.188 11.256,341.188 11.256,334.623 		"/>
		<polygon fill-rule="evenodd" clip-rule="evenodd" fill="#FFFFFF" points="43.664,337.645 46.533,337.645 46.533,339.016 
			47.359,339.016 47.359,337.645 50.229,337.645 50.229,344.209 43.664,344.209 43.664,337.645 		"/>
		<polygon fill-rule="evenodd" clip-rule="evenodd" fill="#FFFFFF" points="18.477,325.693 21.347,325.693 21.347,327.065 
			22.172,327.065 22.172,325.693 25.042,325.693 25.042,332.258 18.477,332.258 18.477,325.693 		"/>
		<path fill-rule="evenodd" clip-rule="evenodd" fill="#FFFFFF" d="M0.762,345.077h58.476v1.938H0.762V345.077L0.762,345.077
			L0.762,345.077z M0,319.801l29.998-17.152L60,319.798v-2.646L29.999,300L0,317.152V319.801L0,319.801L0,319.801z M56.5,344.209
			h-4.631v-22.732H8.121v22.732H3.5c0-8.332,0-16.666,0-24.998l26.499-15.149L56.5,319.211C56.5,327.543,56.5,335.877,56.5,344.209
			L56.5,344.209L56.5,344.209z"/>
	</g>
	<g opacity="0.5">
		<path fill-rule="evenodd" clip-rule="evenodd" fill="#FFFFFF" d="M14.908,400c4.704,0,8.519,3.814,8.519,8.519
			s-3.814,8.517-8.519,8.517s-8.519-3.813-8.519-8.517S10.204,400,14.908,400L14.908,400L14.908,400 M19.155,407.71v-3.261
			l-5.469,4.876l-3.025-2.707v3.262l3.025,2.707L19.155,407.71L19.155,407.71 M53.064,428.724c-0.312,0.019-0.675,0.026-1.088,0.026
			h-9.542c-0.243,0-0.484-0.121-0.727-0.363c-0.243-0.242-0.364-0.448-0.364-0.622v-0.051c-0.032-1.695-0.052-3.234-0.052-4.618
			v-4.719c0-0.38,0.157-0.734,0.469-1.063c0.31-0.329,0.689-0.493,1.14-0.493c0.034,0,0.295-0.017,0.777-0.051
			c0.485-0.035,1.082-0.01,1.79,0.077c0.709,0.087,1.46,0.276,2.256,0.57s1.538,0.77,2.23,1.426c1.071,1.107,1.832,2.447,2.282,4.02
			c0.449,1.573,0.863,3.206,1.244,4.901c0,0.068,0.009,0.121,0.025,0.155c0.018,0.034,0.026,0.087,0.026,0.156
			C53.532,428.491,53.376,428.706,53.064,428.724L53.064,428.724L53.064,428.724 M57.136,429.347
			c-0.259-1.953-0.718-3.951-1.374-5.99c-0.656-2.04-1.642-3.959-2.955-5.756c-0.728-1.004-1.626-1.868-2.698-2.594
			c-1.072-0.727-2.211-1.314-3.422-1.764s-2.438-0.769-3.684-0.959c-1.243-0.19-2.436-0.233-3.579-0.13
			c-0.379,0.034-0.698,0.303-0.958,0.804c-0.26,0.502-0.389,0.941-0.389,1.322v24.998c0,0.622,0.225,1.158,0.674,1.607
			c0.45,0.45,0.984,0.675,1.607,0.675h0.934c0-0.865,0.165-1.687,0.492-2.464c0.33-0.778,0.779-1.46,1.349-2.049
			c0.571-0.588,1.237-1.055,1.998-1.401c0.76-0.345,1.589-0.519,2.488-0.519s1.756,0.122,2.567,0.363
			c0.813,0.242,1.521,0.623,2.126,1.141c0.605,0.521,1.09,1.193,1.453,2.023s0.544,1.832,0.544,3.008h2.127
			c0.206,0,0.371-0.103,0.492-0.311c0.12-0.208,0.226-0.458,0.312-0.752c0.086-0.296,0.146-0.589,0.181-0.883
			s0.053-0.544,0.053-0.751c0-1.071,0.008-2.455,0.024-4.15C57.518,433.124,57.396,431.3,57.136,429.347L57.136,429.347
			L57.136,429.347L57.136,429.347 M47.878,438.396c0.899,0,1.679,0.329,2.335,0.985c0.656,0.657,0.984,1.435,0.984,2.335
			c0,0.932-0.328,1.728-0.984,2.385s-1.435,0.985-2.335,0.985c-0.933,0-1.719-0.328-2.358-0.985c-0.642-0.657-0.96-1.453-0.96-2.385
			c0-0.9,0.318-1.678,0.96-2.335C46.159,438.725,46.945,438.396,47.878,438.396L47.878,438.396L47.878,438.396 M12.198,438.344
			c-0.934,0-1.72,0.329-2.358,0.985c-0.642,0.656-0.961,1.452-0.961,2.387c0,0.897,0.319,1.675,0.961,2.333
			c0.639,0.656,1.425,0.985,2.358,0.985c0.933,0,1.721-0.329,2.359-0.985c0.641-0.658,0.959-1.434,0.959-2.333
			c0-0.935-0.318-1.73-0.959-2.387C13.919,438.673,13.131,438.344,12.198,438.344L12.198,438.344L12.198,438.344 M25.449,405.827
			c0.257,0.915,0.387,1.87,0.387,2.859c0,1.509-0.286,2.922-0.862,4.234c-0.575,1.313-1.354,2.462-2.339,3.446
			c-0.984,0.985-2.134,1.757-3.445,2.314c-1.314,0.558-2.71,0.838-4.187,0.838c-1.51,0-2.922-0.28-4.235-0.838
			c-1.312-0.558-2.46-1.329-3.445-2.314c-0.985-0.984-1.766-2.133-2.339-3.446c-0.575-1.313-0.862-2.724-0.862-4.234
			c0-0.165,0.005-0.329,0.011-0.491c-0.494,0.606-0.884,1.268-1.164,1.987c-0.313,0.797-0.468,1.608-0.468,2.438v26.969
			c0,0.657,0.19,1.157,0.57,1.504c0.381,0.346,0.865,0.519,1.453,0.519h1.192c0-2.213,0.562-3.863,1.686-4.952
			c1.122-1.09,2.74-1.635,4.849-1.635c2.213,0,3.838,0.589,4.876,1.765c1.037,1.175,1.555,2.783,1.555,4.822h14.158
			c0.555,0,1.028-0.19,1.426-0.571c0.398-0.381,0.598-0.863,0.598-1.451l-0.104-33.762H25.449L25.449,405.827 M25.449,405.827"/>
	</g>
	<g opacity="0.5">
		<rect x="3.5" y="500" fill="#FFFFFF" width="5.067" height="45.868"/>
		<rect x="51.434" y="500" fill="#FFFFFF" width="5.066" height="45.868"/>
		<rect x="7.176" y="515.786" fill="#FFFFFF" width="45.863" height="4.053"/>
		<rect x="7.176" y="537.576" fill="#FFFFFF" width="45.863" height="4.053"/>
		<polygon fill-rule="evenodd" clip-rule="evenodd" fill="#FFFFFF" points="12.413,523.152 17.313,523.152 17.313,525.492 
			18.728,525.492 18.728,523.152 23.626,523.152 23.626,534.362 12.413,534.362 12.413,523.152 		"/>
		<polygon fill-rule="evenodd" clip-rule="evenodd" fill="#FFFFFF" points="26.626,523.152 31.533,523.152 31.533,525.492 
			32.945,525.492 32.945,523.152 37.848,523.152 37.848,534.362 26.626,534.362 26.626,523.152 		"/>
		<polygon fill-rule="evenodd" clip-rule="evenodd" fill="#FFFFFF" points="37.31,502.321 42.21,502.321 42.21,504.661 
			43.625,504.661 43.625,502.321 48.526,502.321 48.526,513.536 37.31,513.536 37.31,502.321 		"/>
	</g>
</g>
</svg>
