<?xml version="1.0" encoding="utf-8"?>
<!-- Generator: Adobe Illustrator 13.0.1, SVG Export Plug-In . SVG Version: 6.00 Build 14948)  -->
<!DOCTYPE svg PUBLIC "-//W3C//DTD SVG 1.0//EN" "http://www.w3.org/TR/2001/REC-SVG-20010904/DTD/svg10.dtd">
<svg version="1.0" id="icons" xmlns="http://www.w3.org/2000/svg" xmlns:xlink="http://www.w3.org/1999/xlink" x="0px" y="0px"
	 width="60px" height="60px" viewBox="0 0 60 60" enable-background="new 0 0 60 60" xml:space="preserve">
<g>
	<path fill="#646464" d="M-271.589-274.262v1.958h3.914v-1.958H-271.589z M-259.848-274.262v1.958h1.956v-1.958H-259.848z
		 M-261.805-264.479h5.871v-5.87h-5.871V-264.479z M-259.848-268.391h1.956v1.956h-1.956V-268.391z M-265.718-264.479h1.956v-1.957
		h-1.956V-264.479z M-265.718-276.218h-1.957v1.956h1.957V-276.218z M-273.545-264.479h5.87v-5.87h-5.87V-264.479z
		 M-271.589-268.391h1.958v1.956h-1.958V-268.391z M-265.718-270.349v1.958h1.956v-3.914h1.957v-3.914h-1.957v1.956h-1.956v1.958
		h-1.957v1.956H-265.718z M-273.545-282.088v5.87h5.87v-5.87H-273.545z M-269.631-278.174h-1.958v-1.958h1.958V-278.174z
		 M-263.762-280.132h-1.956v3.914h1.956V-280.132z M-255.934-282.088h-5.871v5.87h5.871V-282.088z M-257.892-278.174h-1.956v-1.958
		h1.956V-278.174z"/>
	<path fill="#646464" d="M-249.063-286.284c-0.006-3.076-2.379-5.64-5.448-5.848c-3.113-0.21-6.536-0.323-10.134-0.316
		c-3.602,0.006-7.025,0.133-10.138,0.355c-3.066,0.218-5.431,2.789-5.426,5.864l0.047,30.259c1.621-1.294,2.978-4.236,4.236-6.498
		l-0.044-21.75c3.161-0.399,7.126-0.643,11.38-0.649c4.254-0.008,8.113,0.219,11.274,0.606l0.062,30.05
		c-3.154,0.545-7.02,0.875-11.273,0.883c-0.977,0.001-1.936-0.015-2.876-0.046c-0.907,2.79-2.081,6.25-3.295,9.478
		c1.972,0.104,4.022,0.162,6.143,0.159c3.659-0.007,7.132-0.185,10.28-0.495c2.999-0.296,5.27-2.837,5.266-5.852L-249.063-286.284z"
		/>
	<path fill="#646464" d="M-274.625-259.792c-1.378,2.342-2.86,5.824-4.67,7.2c-2.975,0.289-4.268-2.896-4.268-2.896v-16.095
		l-9.166,12.874c-0.834,1.261-1.279,2.74-1.279,4.252l3.833,18.687h13.25c3.257-5.985,8.081-21.678,8.309-22.66
		C-267.516-263.154-272.688-263.081-274.625-259.792z"/>
</g>
<path fill="#646464" d="M27.792-270.623l4.209-2.883l-0.061-0.266c-0.152-0.69-0.34-1.371-0.553-2.029
	c-0.215-0.658-0.463-1.32-0.745-1.967l-0.107-0.252l-5.102,0.141c-0.541-0.916-1.177-1.786-1.89-2.597l1.715-4.812l-0.206-0.18
	c-1.051-0.928-2.195-1.758-3.401-2.467l-0.236-0.138l-4.044,3.111c-0.976-0.42-2-0.752-3.051-0.99l-1.443-4.904l-0.273-0.028
	c-1.394-0.135-2.806-0.135-4.201,0.002l-0.272,0.026l-1.444,4.901c-0.528,0.117-1.048,0.26-1.549,0.424
	c-0.502,0.163-1.006,0.352-1.503,0.566l-4.046-3.117l-0.237,0.14c-1.207,0.707-2.351,1.537-3.399,2.468l-0.204,0.18l1.712,4.815
	c-0.711,0.81-1.344,1.68-1.888,2.594l-5.101-0.141l-0.109,0.249c-0.56,1.286-0.998,2.631-1.303,3.994l-0.059,0.269l4.211,2.889
	c-0.1,1.074-0.1,2.149-0.001,3.208l-4.211,2.883l0.06,0.269c0.152,0.688,0.339,1.369,0.554,2.03c0.213,0.658,0.464,1.32,0.744,1.966
	l0.108,0.252l5.101-0.144c0.542,0.917,1.177,1.79,1.89,2.597l-1.713,4.813l0.206,0.183c1.048,0.925,2.193,1.755,3.399,2.468
	l0.236,0.138l4.045-3.111c0.977,0.42,2,0.753,3.05,0.989l1.444,4.904l0.273,0.026c1.393,0.134,2.807,0.134,4.199,0l0.272-0.026
	l1.444-4.9c0.526-0.121,1.046-0.261,1.548-0.424c0.504-0.164,1.008-0.355,1.505-0.567l4.046,3.115l0.236-0.139
	c1.207-0.709,2.351-1.539,3.399-2.468l0.204-0.183l-1.713-4.814c0.713-0.811,1.344-1.681,1.889-2.594l5.102,0.144l0.108-0.252
	c0.56-1.283,0.998-2.628,1.302-3.994l0.061-0.269l-4.213-2.886C27.889-268.485,27.891-269.564,27.792-270.623z M10.501-256.639
	c-6.838,0-12.381-5.543-12.381-12.382c0-6.837,5.543-12.38,12.381-12.38s12.381,5.543,12.381,12.38
	C22.882-262.182,17.339-256.639,10.501-256.639z M10.501-279.104c-5.569,0-10.084,4.515-10.084,10.083
	c0,5.569,4.515,10.084,10.084,10.084s10.084-4.515,10.084-10.084C20.585-274.589,16.071-279.104,10.501-279.104z M10.501-262.773
	c-3.45,0-6.247-2.796-6.247-6.247c0-3.449,2.797-6.247,6.247-6.247c3.449,0,6.246,2.797,6.246,6.247
	C16.748-265.57,13.951-262.773,10.501-262.773z"/>
<g>
	<path fill="#646464" d="M145.023-282.149l5.84,19.83l-7.93,2.334l-5.837-19.824L145.023-282.149 M146.441-284.751l-2.012,0.594
		l-7.926,2.34l-2.01,0.592l0.592,2.01l5.839,19.824l0.591,2.008l2.012-0.59l7.927-2.336l2.009-0.592l-0.591-2.01l-5.84-19.83
		L146.441-284.751L146.441-284.751z"/>
	<path fill="#646464" d="M176.297-277.046c-0.069,1.322-0.824,2.459-1.908,3.096c0.053,0.291,0.073,0.582,0.053,0.889
		c-0.086,1.598-1.166,2.918-2.613,3.432c-0.036,0.344-0.112,0.709-0.258,1.1c-0.49,1.318-2.222,1.701-3.799,1.701
		c-0.479,0-0.943-0.037-1.353-0.09c-1.766-0.23-4.933-0.457-8.272-0.758c-1.125-0.102-2.105-0.145-2.957-0.145
		c-1.839,0-3.046,0.191-3.778,0.367l-4.28-14.531c2.813-2.244,7.535-7.426,9.074-10.26c0.953-3.102,0.646-6.789,0.566-7.51
		c-0.18-1.539,2.697-1.73,3.064-1.73c1.59,0,3.407,2.867,2.986,8.125c-0.063,0.73-0.215,1.559-0.324,2.414
		c-0.055,0.744-0.088,1.408-0.092,2.014c-0.049,1.99,7.104,2.168,9.631,2.168c0.545,0,0.874-0.008,0.874-0.008
		c2.528,0,4.583,2.053,4.583,4.586c0,1.346-0.592,2.537-1.518,3.381C176.213-278.272,176.338-277.677,176.297-277.046z"/>
</g>
<g>
	<path fill-rule="evenodd" clip-rule="evenodd" fill="#646464" d="M-75.012-276.467c-9.742-8.486-24.338-8.483-34.081,0
		c-0.766,0.671-1.917,0.631-2.637-0.09l-1.251-1.251c-0.397-0.391-0.587-0.877-0.57-1.433c0.022-0.556,0.24-1.025,0.659-1.391
		c11.882-10.438,29.802-10.444,41.685-0.002c0.414,0.366,0.637,0.838,0.653,1.394c0.023,0.553-0.172,1.039-0.564,1.431l-1.251,1.253
		C-73.09-275.833-74.246-275.796-75.012-276.467L-75.012-276.467z M-80.911-270.486c0.777,0.634,1.895,0.578,2.599-0.128
		l1.257-1.254c0.396-0.399,0.587-0.894,0.564-1.458c-0.028-0.562-0.263-1.039-0.693-1.4c-8.581-7.156-21.148-7.156-29.729,0
		c-0.437,0.361-0.67,0.835-0.699,1.4c-0.022,0.562,0.168,1.059,0.564,1.458l1.257,1.254c0.704,0.707,1.826,0.763,2.598,0.128
		C-96.735-275.785-87.366-275.785-80.911-270.486L-80.911-270.486z M-87.198-263.961c-2.911-1.995-6.794-1.998-9.705-0.003
		c-0.776,0.534-1.799,0.439-2.464-0.229l-1.263-1.263c-0.418-0.416-0.609-0.936-0.563-1.522c0.044-0.584,0.318-1.07,0.793-1.414
		c4.967-3.609,11.732-3.609,16.696,0c0.476,0.343,0.749,0.83,0.794,1.414c0.044,0.586-0.146,1.109-0.56,1.525l-1.269,1.263
		C-85.402-263.525-86.419-263.43-87.198-263.961z"/>
	<path fill-rule="evenodd" clip-rule="evenodd" fill="#646464" d="M-92.054-251.464c2.922,0,5.311-2.382,5.311-5.304
		c0-2.92-2.389-5.303-5.311-5.303c-2.916,0-5.302,2.383-5.302,5.303C-97.355-253.846-94.97-251.464-92.054-251.464z"/>
</g>
<path fill-rule="evenodd" clip-rule="evenodd" fill="#646464" d="M40.352,0h12.063C53.835,0,55,1.165,55,2.588v26.971
	c0,1.422-1.165,2.588-2.586,2.588H40.352c-1.424,0-2.59-1.166-2.59-2.588V2.588C37.762,1.165,38.928,0,40.352,0L40.352,0z M7.585,0
	H33.77c1.426,0,2.59,1.163,2.59,2.588v21.766c0,1.424-1.164,2.588-2.59,2.588H7.585C6.165,26.941,5,25.777,5,24.354V2.588
	C5,1.163,6.165,0,7.585,0L7.585,0z M32.424,4.128H8.936v18.631h23.488V4.128L32.424,4.128z M7.775,1.804
	c-0.644,0-1.167,0.519-1.167,1.161v20.957c0,0.642,0.523,1.162,1.167,1.162h25.809c0.645,0,1.162-0.521,1.162-1.162V2.965
	c0-0.643-0.518-1.161-1.162-1.161H7.775L7.775,1.804z M15.625,28.691h9.611c0,1.19,0,0.495,0,1.685h4.754
	c0.547,0,0.991,0.444,0.991,0.993v0.777H9.88v-0.777c0-0.549,0.444-0.993,0.989-0.993h4.756
	C15.625,29.187,15.625,29.882,15.625,28.691L15.625,28.691z M41.952,13.987v1.182h8.862v-1.182H41.952L41.952,13.987z
	 M41.952,20.525v1.182h8.862v-1.182H41.952L41.952,20.525z M41.952,17.256v1.182h8.862v-1.182H41.952L41.952,17.256z M41.781,4.086
	c-0.545,0-0.989,0.446-0.989,0.992v2.045c0,0.548,0.444,0.991,0.989,0.991h9.199c0.546,0,0.994-0.443,0.994-0.991V5.078
	c0-0.546-0.448-0.992-0.994-0.992H41.781L41.781,4.086z M46.383,25.375c-1.059,0-1.92,0.859-1.92,1.919
	c0,1.061,0.861,1.917,1.92,1.917c1.061,0,1.921-0.856,1.921-1.917C48.304,26.234,47.443,25.375,46.383,25.375z"/>
</svg>
