<?xml version="1.0" encoding="utf-8"?>
<!-- Generator: Adobe Illustrator 13.0.1, SVG Export Plug-In . SVG Version: 6.00 Build 14948)  -->
<!DOCTYPE svg PUBLIC "-//W3C//DTD SVG 1.0//EN" "http://www.w3.org/TR/2001/REC-SVG-20010904/DTD/svg10.dtd">
<svg version="1.0" xmlns="http://www.w3.org/2000/svg" xmlns:xlink="http://www.w3.org/1999/xlink" x="0px" y="0px" width="60px"
	 height="960px" viewBox="0 0 60 960" enable-background="new 0 0 60 960" xml:space="preserve">
<g id="圖層_2" display="none">
	<rect display="inline" fill-rule="evenodd" clip-rule="evenodd" fill="#C1C1C1" width="60" height="60"/>
	<rect y="60" display="inline" fill-rule="evenodd" clip-rule="evenodd" fill="#DD3C3C" width="60" height="60"/>
	<rect y="120" display="inline" fill-rule="evenodd" clip-rule="evenodd" fill="#C1C1C1" width="60" height="60"/>
	<rect y="180" display="inline" fill-rule="evenodd" clip-rule="evenodd" fill="#DD3C3C" width="60" height="60"/>
	<rect y="240" display="inline" fill-rule="evenodd" clip-rule="evenodd" fill="#C1C1C1" width="60" height="60"/>
	<rect y="300" display="inline" fill-rule="evenodd" clip-rule="evenodd" fill="#DD3C3C" width="60" height="60"/>
	<rect y="360" display="inline" fill-rule="evenodd" clip-rule="evenodd" fill="#C1C1C1" width="60" height="60"/>
	<rect y="420" display="inline" fill-rule="evenodd" clip-rule="evenodd" fill="#DD3C3C" width="60" height="60"/>
	<rect y="480" display="inline" fill-rule="evenodd" clip-rule="evenodd" fill="#C1C1C1" width="60" height="60"/>
	<rect y="540" display="inline" fill-rule="evenodd" clip-rule="evenodd" fill="#DD3C3C" width="60" height="60"/>
	<rect y="600" display="inline" fill-rule="evenodd" clip-rule="evenodd" fill="#C1C1C1" width="60" height="60"/>
	<rect y="660" display="inline" fill-rule="evenodd" clip-rule="evenodd" fill="#DD3C3C" width="60" height="60"/>
	<rect y="720" display="inline" fill-rule="evenodd" clip-rule="evenodd" fill="#C1C1C1" width="60" height="60"/>
	<rect y="780" display="inline" fill-rule="evenodd" clip-rule="evenodd" fill="#DD3C3C" width="60" height="60"/>
	<rect y="840" display="inline" fill-rule="evenodd" clip-rule="evenodd" fill="#C1C1C1" width="60" height="60"/>
	<rect y="900" display="inline" fill-rule="evenodd" clip-rule="evenodd" fill="#DD3C3C" width="60" height="60"/>
</g>
<g id="icons">
	<g>
		<path fill="#646464" d="M29.919,19.846v1.958h3.914v-1.958H29.919z M41.66,19.846v1.958h1.956v-1.958H41.66z M39.703,29.63h5.871
			v-5.87h-5.871V29.63z M41.66,25.717h1.956v1.956H41.66V25.717z M35.79,29.63h1.957v-1.957H35.79V29.63z M35.79,17.89h-1.957v1.956
			h1.957V17.89z M27.963,29.63h5.87v-5.87h-5.87V29.63z M29.919,25.717h1.957v1.956h-1.957V25.717z M35.79,23.76v1.958h1.957v-3.914
			h1.956V17.89h-1.956v1.956H35.79v1.958h-1.957v1.956H35.79z M27.963,12.021v5.87h5.87v-5.87H27.963z M31.876,15.934h-1.957v-1.958
			h1.957V15.934z M37.747,13.977H35.79v3.914h1.957V13.977z M45.574,12.021h-5.871v5.87h5.871V12.021z M43.616,15.934H41.66v-1.958
			h1.956V15.934z"/>
		<path fill="#646464" d="M52.445,7.824c-0.005-3.076-2.378-5.64-5.448-5.848c-3.113-0.21-6.536-0.323-10.134-0.316
			c-3.601,0.006-7.024,0.133-10.137,0.355C23.66,2.233,21.295,4.805,21.3,7.879l0.047,30.259c1.621-1.294,2.978-4.237,4.236-6.499
			L25.54,9.89c3.161-0.399,7.126-0.643,11.38-0.649c4.254-0.008,8.113,0.219,11.275,0.606l0.061,30.05
			c-3.153,0.544-7.019,0.875-11.272,0.882c-0.977,0.001-1.937-0.015-2.876-0.046c-0.907,2.79-2.081,6.25-3.295,9.478
			c1.972,0.104,4.022,0.163,6.143,0.159c3.659-0.007,7.132-0.185,10.28-0.495c2.999-0.296,5.27-2.837,5.266-5.852L52.445,7.824z"/>
		<path fill="#646464" d="M26.883,34.317c-1.378,2.341-2.86,5.824-4.67,7.2c-2.975,0.29-4.268-2.895-4.268-2.895V22.527
			L8.779,35.401C7.945,36.662,7.5,38.141,7.5,39.653l3.833,18.687h13.25c3.257-5.985,8.081-21.678,8.309-22.66
			C33.992,30.954,28.82,31.028,26.883,34.317z"/>
	</g>
	<path fill="#646464" d="M47.291,380.362l4.209-2.883l-0.06-0.266c-0.153-0.69-0.339-1.371-0.553-2.029
		c-0.214-0.658-0.463-1.32-0.745-1.967l-0.107-0.252l-5.102,0.141c-0.541-0.916-1.176-1.786-1.889-2.597l1.715-4.812l-0.207-0.18
		c-1.05-0.928-2.195-1.758-3.401-2.467l-0.236-0.138l-4.044,3.111c-0.975-0.42-2-0.752-3.05-0.99l-1.443-4.904l-0.273-0.028
		c-1.394-0.135-2.807-0.135-4.201,0.002l-0.272,0.026l-1.444,4.901c-0.528,0.117-1.048,0.26-1.549,0.424
		c-0.502,0.163-1.006,0.352-1.503,0.566l-4.046-3.117l-0.237,0.14c-1.207,0.707-2.351,1.537-3.399,2.468l-0.204,0.18l1.712,4.815
		c-0.711,0.81-1.344,1.68-1.888,2.594l-5.101-0.141l-0.109,0.249c-0.56,1.286-0.998,2.631-1.303,3.994l-0.059,0.269l4.211,2.889
		c-0.1,1.074-0.1,2.149-0.001,3.208L8.5,386.451l0.06,0.269c0.152,0.688,0.339,1.369,0.554,2.03c0.213,0.658,0.464,1.32,0.744,1.966
		l0.108,0.252l5.101-0.144c0.542,0.917,1.177,1.79,1.89,2.597l-1.713,4.812l0.206,0.183c1.048,0.925,2.193,1.755,3.399,2.468
		l0.236,0.138l4.045-3.112c0.977,0.42,2,0.753,3.05,0.99l1.444,4.904l0.273,0.026c1.393,0.134,2.807,0.134,4.199,0l0.272-0.026
		l1.445-4.901c0.526-0.121,1.046-0.261,1.548-0.424c0.504-0.164,1.008-0.355,1.504-0.567l4.046,3.115l0.236-0.138
		c1.207-0.709,2.35-1.54,3.399-2.468l0.205-0.183l-1.713-4.814c0.713-0.811,1.344-1.681,1.888-2.594l5.102,0.144l0.109-0.252
		c0.56-1.283,0.998-2.628,1.302-3.994l0.06-0.269l-4.212-2.886C47.388,382.5,47.39,381.421,47.291,380.362z M30,394.346
		c-6.838,0-12.381-5.543-12.381-12.381c0-6.837,5.543-12.38,12.381-12.38c6.837,0,12.38,5.543,12.38,12.38
		C42.38,388.803,36.837,394.346,30,394.346z M30,371.881c-5.569,0-10.084,4.515-10.084,10.083c0,5.569,4.515,10.084,10.084,10.084
		s10.083-4.515,10.083-10.084C40.083,376.396,35.569,371.881,30,371.881z M30,388.212c-3.45,0-6.247-2.796-6.247-6.247
		c0-3.449,2.797-6.247,6.247-6.247c3.45,0,6.247,2.797,6.247,6.247C36.247,385.416,33.45,388.212,30,388.212z"/>
	<g>
		<path fill="#646464" d="M19.029,559.336l5.84,19.83L16.94,581.5l-5.837-19.824L19.029,559.336 M20.447,556.734l-2.011,0.594
			l-7.926,2.34L8.5,560.26l0.591,2.01l5.839,19.824l0.591,2.008l2.011-0.59l7.927-2.336l2.009-0.592l-0.591-2.01l-5.84-19.83
			L20.447,556.734L20.447,556.734z"/>
		<path fill="#646464" d="M50.303,564.439c-0.07,1.322-0.825,2.459-1.909,3.096c0.053,0.291,0.074,0.582,0.053,0.889
			c-0.086,1.598-1.166,2.918-2.613,3.432c-0.037,0.344-0.113,0.709-0.258,1.1c-0.491,1.318-2.222,1.701-3.799,1.701
			c-0.479,0-0.943-0.037-1.353-0.09c-1.766-0.23-4.933-0.457-8.272-0.758c-1.125-0.102-2.105-0.145-2.957-0.145
			c-1.839,0-3.046,0.191-3.779,0.367l-4.28-14.531c2.813-2.244,7.535-7.426,9.074-10.26c0.953-3.102,0.646-6.789,0.566-7.51
			c-0.18-1.539,2.697-1.73,3.065-1.73c1.59,0,3.407,2.867,2.985,8.125c-0.062,0.73-0.215,1.559-0.323,2.414
			c-0.055,0.744-0.088,1.408-0.092,2.014c-0.049,1.99,7.104,2.168,9.631,2.168c0.544,0,0.874-0.008,0.874-0.008
			c2.529,0,4.583,2.053,4.583,4.586c0,1.346-0.591,2.537-1.518,3.381C50.219,563.213,50.344,563.809,50.303,564.439z"/>
	</g>
	<g>
		<path fill-rule="evenodd" clip-rule="evenodd" fill="#646464" d="M47.04,191.996c-9.743-8.486-24.338-8.483-34.081,0
			c-0.766,0.671-1.917,0.631-2.637-0.09l-1.251-1.251c-0.397-0.391-0.587-0.877-0.57-1.433c0.022-0.556,0.24-1.025,0.659-1.391
			c11.882-10.438,29.802-10.444,41.685-0.002c0.414,0.366,0.636,0.838,0.653,1.394c0.023,0.553-0.172,1.039-0.564,1.431
			l-1.251,1.253C48.962,192.63,47.806,192.667,47.04,191.996L47.04,191.996z M41.141,197.977c0.777,0.634,1.895,0.578,2.598-0.128
			l1.257-1.254c0.396-0.399,0.587-0.894,0.564-1.458c-0.028-0.562-0.262-1.039-0.693-1.4c-8.581-7.156-21.148-7.156-29.729,0
			c-0.437,0.361-0.67,0.835-0.699,1.4c-0.022,0.562,0.168,1.059,0.564,1.458l1.257,1.254c0.704,0.707,1.826,0.763,2.598,0.128
			C25.316,192.678,34.686,192.678,41.141,197.977L41.141,197.977z M34.853,204.502c-2.911-1.995-6.793-1.998-9.704-0.003
			c-0.776,0.534-1.799,0.439-2.464-0.229l-1.263-1.263c-0.418-0.416-0.609-0.936-0.563-1.522c0.044-0.584,0.318-1.07,0.793-1.414
			c4.967-3.609,11.731-3.609,16.695,0c0.476,0.343,0.749,0.83,0.794,1.414c0.044,0.586-0.146,1.109-0.559,1.525l-1.269,1.263
			C36.649,204.938,35.632,205.033,34.853,204.502z"/>
		<path fill-rule="evenodd" clip-rule="evenodd" fill="#646464" d="M29.998,216.999c2.922,0,5.311-2.382,5.311-5.304
			c0-2.919-2.389-5.302-5.311-5.302c-2.916,0-5.302,2.383-5.302,5.302C24.696,214.617,27.082,216.999,29.998,216.999z"/>
	</g>
	<path fill-rule="evenodd" clip-rule="evenodd" fill="#646464" d="M40.352,720h12.063c1.42,0,2.585,1.165,2.585,2.588v26.971
		c0,1.422-1.165,2.588-2.585,2.588H40.352c-1.424,0-2.59-1.166-2.59-2.588v-26.971C37.761,721.165,38.927,720,40.352,720L40.352,720
		z M7.585,720H33.77c1.425,0,2.59,1.163,2.59,2.588v21.766c0,1.424-1.165,2.588-2.59,2.588H7.585c-1.42,0-2.585-1.164-2.585-2.588
		v-21.766C5,721.163,6.165,720,7.585,720L7.585,720z M32.424,724.128H8.936v18.631h23.489V724.128L32.424,724.128z M7.775,721.804
		c-0.644,0-1.167,0.519-1.167,1.161v20.957c0,0.642,0.523,1.162,1.167,1.162h25.809c0.644,0,1.162-0.521,1.162-1.162v-20.957
		c0-0.643-0.518-1.161-1.162-1.161H7.775L7.775,721.804z M15.625,748.691h9.611c0,1.19,0,0.495,0,1.685h4.754
		c0.547,0,0.991,0.444,0.991,0.993v0.777H9.88v-0.777c0-0.549,0.444-0.993,0.989-0.993h4.756
		C15.625,749.187,15.625,749.882,15.625,748.691L15.625,748.691z M41.952,733.987v1.182h8.863v-1.182H41.952L41.952,733.987z
		 M41.952,740.525v1.182h8.863v-1.182H41.952L41.952,740.525z M41.952,737.256v1.182h8.863v-1.182H41.952L41.952,737.256z
		 M41.781,724.086c-0.545,0-0.989,0.446-0.989,0.992v2.045c0,0.548,0.444,0.991,0.989,0.991h9.2c0.545,0,0.994-0.443,0.994-0.991
		v-2.045c0-0.546-0.449-0.992-0.994-0.992H41.781L41.781,724.086z M46.383,745.375c-1.059,0-1.919,0.859-1.919,1.919
		c0,1.061,0.861,1.917,1.919,1.917c1.06,0,1.921-0.856,1.921-1.917C48.304,746.234,47.443,745.375,46.383,745.375z"/>
</g>
</svg>
