<?xml version="1.0" encoding="utf-8"?>
<!-- Generator: Adobe Illustrator 13.0.1, SVG Export Plug-In . SVG Version: 6.00 Build 14948)  -->
<!DOCTYPE svg PUBLIC "-//W3C//DTD SVG 1.0//EN" "http://www.w3.org/TR/2001/REC-SVG-20010904/DTD/svg10.dtd">
<svg version="1.0" id="圖層_1" xmlns="http://www.w3.org/2000/svg" xmlns:xlink="http://www.w3.org/1999/xlink" x="0px" y="0px"
	 width="30px" height="800px" viewBox="-5.5 -130.5 30 800" enable-background="new -5.5 -130.5 30 800" xml:space="preserve">
<g id="圖層_2" display="none">
	<rect x="0" y="180" display="inline" fill="#8C528E" width="20" height="30"/>
	<rect x="0" y="210" display="inline" fill="#BBA6BC" width="20" height="30"/>
	<rect x="0" y="240" display="inline" fill="#8C528E" width="20" height="30"/>
	<rect x="0" y="270" display="inline" fill="#BBA6BC" width="20" height="30"/>
	<rect x="0" y="300" display="inline" fill="#8C528E" width="20" height="30"/>
	<rect x="0" y="330" display="inline" fill="#BBA6BC" width="20" height="30"/>
</g>
<g>
	<g>
		<path fill="#FFFFFF" d="M17.8-20.994l-8.193-4.134l2.756-3.372l8.086,4.314L17.8-20.994L17.8-20.994z M-1.45-24.258L6.82-28.5
			l2.645,3.372l-8.12,4.134L-1.45-24.258L-1.45-24.258z M9.463-17.103l-1.451,4.097l-8.122-4.097l1.45-3.879L9.463-17.103
			L9.463-17.103z M8.174-12.379l1.223-3.19v7.396l-8.563-3.969l0.024-3.935L8.174-12.379L8.174-12.379z M19.435-17.139l-8.412,4.098
			l-1.38-4.061l8.157-3.879L19.435-17.139L19.435-17.139z M18.24-16.051v3.908L9.698-8.175v-7.396l1.136,3.198L18.24-16.051
			L18.24-16.051z"/>
	</g>
	<g>
		<path fill="#FFFFFF" d="M18.2,90.949c-0.113,0.133-0.345,0.197-0.703,0.197h-5.714H9.5H7.217H1.508
			c-0.386,0-0.613-0.055-0.719-0.174c-0.1-0.117-0.122-0.336-0.073-0.699c0.14-0.986,0.321-2.003,0.536-3.021
			c0.059-0.279,0.227-0.642,0.704-0.788c1.227-0.372,2.544-0.778,3.883-1.21c0.226-0.073,0.291-0.038,0.396,0.108
			c0.75,1.033,1.919,1.634,3.214,1.648c1.291,0,2.467-0.561,3.233-1.573c0.162-0.217,0.28-0.249,0.555-0.157
			c1.284,0.426,2.56,0.814,3.743,1.175c0.451,0.136,0.685,0.388,0.76,0.819c0.076,0.442,0.158,0.885,0.239,1.327
			c0.104,0.553,0.209,1.105,0.299,1.661C18.333,90.595,18.31,90.822,18.2,90.949L18.2,90.949z M3.936,79.119
			c1.508,0.186,3.437,0.296,5.563,0.296c2.128,0,4.058-0.113,5.567-0.296c0.021-0.106,0.04-0.234,0.053-0.237l0.015-0.198
			c0.034-0.521,0.068-1.012-0.224-1.432c-0.158-0.232-0.237-0.424-0.269-0.652c-0.195-1.393-0.854-2.576-1.956-3.515
			c-0.052-0.045-0.106-0.092-0.153-0.126c-0.012,0.056-0.026,0.125-0.04,0.193c-0.184,0.962-0.454,2.21-0.941,3.432l-0.385-0.049
			c-0.02-0.153-0.004-0.292,0.016-0.433c0.048-0.383,0.107-0.767,0.171-1.151c0.125-0.824,0.259-1.679,0.292-2.527
			c0.016-0.353-0.097-0.513-0.442-0.632c-0.845-0.294-1.722-0.368-2.605-0.21c-1.272,0.224-1.292,0.252-1.184,1.561
			c0.013,0.111,0.026,0.219,0.042,0.329l0.428,3.001l-0.384,0.109c-0.502-1.157-0.757-2.347-1.021-3.609
			c-1.201,0.97-1.893,2.162-2.109,3.628c-0.004,0.03-0.006,0.062-0.011,0.094c-0.007,0.127-0.02,0.287-0.129,0.394
			c-0.35,0.332-0.35,0.738-0.351,1.21c0,0.136,0,0.276-0.009,0.412c-0.009,0.12,0.016,0.146,0.016,0.148
			C3.884,78.857,3.898,79.002,3.936,79.119L3.936,79.119z M9.499,80.315c-1.715,0-3.313-0.074-4.659-0.199
			c0,0.018,0.002,0.028,0,0.043l0.02,0.14c0.105,0.757,0.204,1.475,0.79,2.009c0.104,0.094,0.149,0.227,0.185,0.334
			c0.388,1.149,1.144,2.058,2.31,2.78c0.854,0.53,1.712,0.575,2.552,0.13c1.223-0.647,2.067-1.599,2.508-2.828l0.022-0.069
			c0.032-0.101,0.074-0.23,0.173-0.323c0.644-0.585,0.732-1.38,0.824-2.222c-0.233,0.024-0.478,0.042-0.728,0.061
			c-0.054,0.008-0.108,0.012-0.16,0.012C12.179,80.268,10.877,80.315,9.499,80.315L9.499,80.315z"/>
	</g>
	<g>
		<path fill="#FFFFFF" d="M13.933,182.168c-0.328,0-0.6,0.268-0.6,0.598s0.271,0.6,0.6,0.6c0.332,0,0.6-0.27,0.6-0.6
			S14.265,182.168,13.933,182.168L13.933,182.168L13.933,182.168z M11.822,187.942c0,0.271,0.189,0.439,0.459,0.439
			c0.271,0,0.434-0.217,0.434-0.486l0.146-2.053c0.01-0.1,0.035-0.188,0.076-0.262l0.684-1.184l0.568,0.318
			c0.074,0.066,0.213,0.076,0.314,0.064l0.963-0.188c0.402-0.061,0.385-0.572-0.084-0.508l-0.881,0.074
			c-0.141-0.131-0.514-0.434-0.713-0.611c-0.193-0.166-0.383-0.322-0.658-0.283c-0.188,0.021-0.357,0.129-0.459,0.305L11.947,185
			c-0.084,0.164-0.1,0.248-0.115,0.465C11.791,186.159,11.822,187.647,11.822,187.942L11.822,187.942L11.822,187.942z
			 M15.048,183.36h0.945v0.449h0.27v-0.449h0.951v2.164h-2.166v-0.693l0.447-0.094c0.598-0.117,0.525-0.861-0.129-0.805
			l-0.318,0.025V183.36L15.048,183.36L15.048,183.36z"/>
		<path fill="#FFFFFF" d="M7.886,187.461H2.057v-3.01h5.829V187.461L7.886,187.461L7.886,187.461z M2.057,187.86h5.829v0.514h0.398
			v-8.18H7.886v0.451H2.057v-0.451H1.662v8.18h0.396V187.86L2.057,187.86L2.057,187.86z M2.057,181.045h5.829v3.01H2.057V181.045
			L2.057,181.045L2.057,181.045z"/>
		<polygon fill="#FFFFFF" points="2.343,184.713 3.441,184.713 3.441,185.235 3.754,185.235 3.754,184.713 4.849,184.713 
			4.849,187.221 2.343,187.221 		"/>
		<polygon fill="#FFFFFF" points="14.716,185.872 15.808,185.872 15.808,186.391 16.125,186.391 16.125,185.872 17.22,185.872 
			17.22,188.374 14.716,188.374 		"/>
		<polygon fill="#FFFFFF" points="5.1,181.307 6.195,181.307 6.195,181.829 6.51,181.829 6.51,181.307 7.607,181.307 7.607,183.813 
			5.1,183.813 		"/>
		<path fill="#FFFFFF" d="M-1.66,188.706H20.66v0.736H-1.66V188.706L-1.66,188.706L-1.66,188.706z M-1.952,179.055l11.45-6.545
			l11.452,6.545v-1.008L9.499,171.5l-11.45,6.547V179.055L-1.952,179.055L-1.952,179.055z M19.615,188.374h-1.77V179.7H1.147v8.674
			h-1.763c0-3.18,0-6.361,0-9.541l10.114-5.783l10.116,5.783C19.615,182.012,19.615,185.194,19.615,188.374L19.615,188.374
			L19.615,188.374z"/>
	</g>
	<g>
		<path fill="#FFFFFF" d="M3.023-125.767L3.023-125.767c0.426-0.426,1.12-0.426,1.537,0l5.626,5.622c0.421,0.424,0.421,1.117,0,1.54
			l0,0c-0.423,0.426-1.115,0.426-1.54,0l-5.623-5.621C2.601-124.651,2.601-125.343,3.023-125.767L3.023-125.767L3.023-125.767z
			 M17.829-120.217h-6.866c0.359,0.667,0.261,1.521-0.302,2.086c-0.686,0.684-1.8,0.684-2.487,0l-2.084-2.086H1.169
			c-0.687,0-1.255,0.565-1.255,1.253l0,0c0,0.69,0.568,1.256,1.255,1.256H1.47l2.893,8.483h2.555h5.333h2.556l2.894-8.483h0.129
			c0.691,0,1.257-0.566,1.257-1.256l0,0C19.086-119.652,18.522-120.217,17.829-120.217L17.829-120.217L17.829-120.217z
			 M4.473-116.919h10.125c0.354,0,0.64,0.29,0.64,0.644l0,0c0,0.355-0.285,0.645-0.64,0.645H4.473c-0.354,0-0.644-0.29-0.644-0.645
			l0,0C3.829-116.628,4.118-116.919,4.473-116.919L4.473-116.919L4.473-116.919z M5.888-111.81h7.359
			c0.353,0,0.644,0.291,0.644,0.646l0,0c0,0.354-0.291,0.644-0.644,0.644H5.888c-0.353,0-0.644-0.289-0.644-0.644l0,0
			C5.244-111.519,5.535-111.81,5.888-111.81L5.888-111.81L5.888-111.81z M5.181-114.323h8.837c0.355,0,0.645,0.292,0.645,0.647l0,0
			c0,0.354-0.289,0.642-0.645,0.642H5.181c-0.355,0-0.642-0.287-0.642-0.642l0,0C4.539-114.032,4.825-114.323,5.181-114.323
			L5.181-114.323z"/>
		<polygon fill="#FFFFFF" points="10.265,-128.5 10.265,-124.825 8.428,-124.825 12.098,-121.152 15.774,-124.825 13.941,-124.825 
			13.941,-128.5 		"/>
	</g>
	<g>
		<path fill="#FFFFFF" d="M3.214,271.5c1.961,0,3.547,1.584,3.547,3.543c0,1.961-1.586,3.551-3.547,3.551
			c-1.957,0-3.545-1.59-3.545-3.551C-0.331,273.084,1.257,271.5,3.214,271.5L3.214,271.5L3.214,271.5 M4.982,274.709v-1.357
			l-2.275,2.031l-1.26-1.129v1.361l1.26,1.125L4.982,274.709L4.982,274.709 M19.103,283.461c-0.127,0.006-0.28,0.008-0.455,0.008
			h-3.972c-0.102,0-0.2-0.049-0.301-0.148c-0.102-0.102-0.154-0.188-0.154-0.26v-0.023c-0.014-0.707-0.021-1.344-0.021-1.92v-1.969
			c0-0.158,0.066-0.307,0.196-0.441c0.126-0.137,0.285-0.203,0.473-0.203c0.013,0,0.126-0.01,0.327-0.023
			c0.2-0.016,0.447-0.006,0.743,0.033c0.294,0.037,0.608,0.113,0.939,0.236s0.641,0.32,0.929,0.592
			c0.444,0.463,0.762,1.021,0.948,1.676c0.188,0.654,0.361,1.334,0.519,2.041c0,0.029,0.006,0.049,0.012,0.066
			c0.007,0.012,0.011,0.033,0.011,0.064C19.297,283.364,19.232,283.452,19.103,283.461L19.103,283.461L19.103,283.461
			 M20.796,283.721c-0.106-0.814-0.298-1.646-0.571-2.496s-0.683-1.648-1.23-2.396c-0.304-0.416-0.678-0.775-1.12-1.078
			c-0.45-0.303-0.926-0.547-1.43-0.736c-0.502-0.186-1.014-0.32-1.532-0.396c-0.516-0.082-1.013-0.102-1.49-0.057
			c-0.158,0.016-0.29,0.125-0.399,0.336c-0.108,0.207-0.163,0.389-0.163,0.551v10.406c0,0.262,0.094,0.482,0.28,0.67
			c0.188,0.189,0.411,0.281,0.673,0.281h0.388c0-0.359,0.067-0.701,0.203-1.027c0.137-0.324,0.325-0.607,0.562-0.848
			c0.238-0.248,0.516-0.443,0.832-0.588c0.318-0.143,0.661-0.215,1.035-0.215s0.73,0.051,1.069,0.148
			c0.34,0.102,0.633,0.26,0.885,0.477c0.253,0.219,0.453,0.496,0.605,0.844c0.149,0.346,0.229,0.766,0.229,1.252h0.885
			c0.082,0,0.15-0.043,0.203-0.127c0.049-0.088,0.092-0.193,0.129-0.314c0.036-0.125,0.062-0.248,0.073-0.367
			c0.017-0.125,0.025-0.227,0.025-0.314c0-0.447,0.004-1.021,0.013-1.73C20.957,285.293,20.907,284.532,20.796,283.721
			L20.796,283.721L20.796,283.721L20.796,283.721 M16.944,287.489c0.374,0,0.697,0.135,0.973,0.41
			c0.273,0.271,0.41,0.596,0.41,0.973c0,0.387-0.137,0.719-0.41,0.99c-0.275,0.273-0.596,0.41-0.973,0.41
			c-0.391,0-0.716-0.137-0.981-0.41c-0.267-0.273-0.403-0.604-0.403-0.99c0-0.377,0.137-0.701,0.403-0.973
			C16.228,287.624,16.553,287.489,16.944,287.489L16.944,287.489L16.944,287.489 M2.088,287.465c-0.392,0-0.717,0.137-0.985,0.412
			c-0.266,0.275-0.399,0.604-0.399,0.994c0,0.371,0.134,0.695,0.399,0.969c0.269,0.273,0.594,0.41,0.985,0.41
			c0.388,0,0.715-0.137,0.98-0.41c0.265-0.273,0.4-0.598,0.4-0.969c0-0.391-0.136-0.723-0.4-0.994
			C2.803,287.602,2.476,287.465,2.088,287.465L2.088,287.465L2.088,287.465 M7.604,273.926c0.107,0.381,0.162,0.777,0.162,1.189
			c0,0.633-0.121,1.219-0.361,1.764c-0.237,0.547-0.563,1.027-0.972,1.434c-0.41,0.412-0.89,0.732-1.436,0.967
			c-0.549,0.229-1.127,0.348-1.742,0.348c-0.63,0-1.215-0.119-1.763-0.348c-0.552-0.232-1.027-0.555-1.437-0.967
			c-0.408-0.406-0.732-0.887-0.975-1.434c-0.238-0.545-0.357-1.131-0.357-1.764c0-0.068,0.002-0.137,0.004-0.203
			c-0.205,0.252-0.366,0.525-0.482,0.828c-0.13,0.33-0.195,0.67-0.195,1.018v11.229c0,0.271,0.08,0.477,0.239,0.625
			c0.156,0.143,0.357,0.213,0.602,0.213h0.497c0-0.918,0.232-1.607,0.702-2.061c0.466-0.453,1.138-0.68,2.019-0.68
			c0.919,0,1.599,0.246,2.031,0.734c0.429,0.49,0.646,1.16,0.646,2.006h5.893c0.23,0,0.429-0.074,0.593-0.234
			c0.167-0.158,0.252-0.363,0.252-0.604l-0.044-14.059H7.604V273.926"/>
	</g>
	<g>
		<path fill="#FFFFFF" d="M17.38,371.5v5.805H1.618V371.5h-1.862v16.865h1.862v-1.559H17.38v1.559h1.863V371.5H17.38z
			 M1.618,385.319v-6.525H17.38v6.525H1.618z"/>
		<polygon fill="#FFFFFF" points="3.032,380.014 4.833,380.014 4.833,380.874 5.355,380.874 5.355,380.014 7.155,380.014 
			7.155,384.135 3.032,384.135 		"/>
		<polygon fill="#FFFFFF" points="8.259,380.014 10.062,380.014 10.062,380.874 10.582,380.874 10.582,380.014 12.386,380.014 
			12.386,384.135 8.259,384.135 		"/>
		<polygon fill="#FFFFFF" points="12.185,372.352 13.988,372.352 13.988,373.213 14.509,373.213 14.509,372.352 16.31,372.352 
			16.31,376.479 12.185,376.479 		"/>
	</g>
</g>
<path fill="#808080" d="M9.5,471.5c-7.732,0-14,6.268-14,14c0,7.731,6.268,14,14,14c7.731,0,14-6.269,14-14
	C23.5,477.768,17.231,471.5,9.5,471.5z M3.879,485.375c-1.28,0-2.317-1.038-2.317-2.317s1.037-2.316,2.317-2.316
	s2.316,1.037,2.316,2.316S5.16,485.375,3.879,485.375z M5.725,492.46c0-1.39,1.689-2.517,3.774-2.517
	c2.084,0,3.774,1.127,3.774,2.517H5.725z M15.407,485.375c-1.279,0-2.316-1.038-2.316-2.317s1.037-2.316,2.316-2.316
	s2.315,1.037,2.315,2.316S16.686,485.375,15.407,485.375z"/>
<path fill="#FFAA00" d="M9.5,571.501c-7.732,0-14,6.268-14,14s6.268,14,14,14c7.731,0,14-6.268,14-14S17.231,571.501,9.5,571.501z
	 M3.879,585.375c-1.28,0-2.317-1.037-2.317-2.316s1.037-2.316,2.317-2.316s2.316,1.037,2.316,2.316S5.16,585.375,3.879,585.375z
	 M9.5,592.462c-2.084,0-3.774-1.127-3.774-2.518h7.549C13.274,591.335,11.584,592.462,9.5,592.462z M15.407,585.375
	c-1.279,0-2.316-1.037-2.316-2.316s1.037-2.316,2.316-2.316s2.315,1.037,2.315,2.316S16.686,585.375,15.407,585.375z"/>
</svg>
