<?xml version="1.0" encoding="utf-8"?>
<!-- Generator: Adobe Illustrator 13.0.1, SVG Export Plug-In . SVG Version: 6.00 Build 14948)  -->
<!DOCTYPE svg PUBLIC "-//W3C//DTD SVG 1.0//EN" "http://www.w3.org/TR/2001/REC-SVG-20010904/DTD/svg10.dtd">
<svg version="1.0" id="圖層_1" xmlns="http://www.w3.org/2000/svg" xmlns:xlink="http://www.w3.org/1999/xlink" x="0px" y="0px"
	 width="47px" height="50px" viewBox="0 0 47 50" enable-background="new 0 0 47 50" xml:space="preserve">
<g>
	<path fill="#FFFFFF" d="M23.5,0.355c-12.703,0-23,10.297-23,23c0,7.037,3.163,13.332,8.142,17.55l-0.011,8.739l7.701-4.435
		c2.256,0.74,4.664,1.146,7.168,1.146c12.703,0,23-10.298,23-23S36.203,0.355,23.5,0.355z"/>
	<g>
		<path fill="#78CCE0" d="M29.969,7.153v4.764H17.033V7.153h-1.53v13.841h1.53v-1.279h12.936v1.279h1.529V7.153H29.969z
			 M17.033,18.494v-5.355h12.936v5.355H17.033z"/>
		<polygon fill="#78CCE0" points="18.193,14.139 19.673,14.139 19.673,14.846 20.099,14.846 20.099,14.139 21.577,14.139 
			21.577,17.524 18.193,17.524 		"/>
		<polygon fill="#78CCE0" points="22.482,14.139 23.964,14.139 23.964,14.846 24.389,14.846 24.389,14.139 25.869,14.139 
			25.869,17.524 22.482,17.524 		"/>
		<polygon fill="#78CCE0" points="25.706,7.854 27.184,7.854 27.184,8.561 27.611,8.561 27.611,7.854 29.092,7.854 29.092,11.237 
			25.706,11.237 		"/>
	</g>
	<g>
		<path fill="#78CCE0" d="M10.689,22.975l2.233,0.312c-0.088,0.252-0.175,0.471-0.263,0.657h2.233v2.085
			c0.777-0.546,1.166-1.078,1.166-1.592v-1.018h5.009v1.461c0,0.296,0.125,0.443,0.377,0.443h1.199v1.444H20.33
			c-0.733,0-1.1-0.416-1.1-1.248v-0.641h-1.331c-0.087,0.854-0.651,1.621-1.691,2.299l-1.314-0.738v0.805h0.312v1.561h-0.312v2.381
			c0,0.92-0.553,1.381-1.659,1.381H11.79l-0.246-1.725c0.657,0.043,1.029,0.064,1.117,0.064c0.251,0,0.378-0.125,0.378-0.377v-1.725
			h-2.71c-0.077,1.532-0.46,2.873-1.15,4.022H21.2v3.416h1.626v1.758H7.257v-1.758h1.692v-3.416l-1.561-1.33
			c0.628-0.724,0.992-1.62,1.089-2.692H7.454v-1.562h1.067v-3.301h1.921C10.552,23.637,10.634,23.314,10.689,22.975z M10.344,27.244
			h1.462c-0.471-0.492-0.915-0.893-1.33-1.199l0.706-0.656h-0.838V27.244z M11.346,28.936c0.646,0.23,1.15,0.429,1.511,0.592
			l-1.002,1.199c-0.537-0.395-1.041-0.701-1.511-0.92L11.346,28.936z M11.001,36.244h1.379V34.52h-1.379V36.244z M12.151,27.244
			h0.887v-1.855h-1.495c0.558,0.372,0.996,0.707,1.314,1.001L12.151,27.244z M14.105,36.244h1.642V34.52h-1.642V36.244z
			 M15.551,27.293h6.75v1.199c-0.602,0.932-1.221,1.664-1.855,2.201c0.711,0.176,1.527,0.313,2.447,0.41l-0.903,1.725
			c-1.215-0.219-2.337-0.563-3.367-1.035c-0.865,0.395-1.785,0.674-2.759,0.838l-0.723-1.839c0.58,0,1.105-0.038,1.577-0.115
			c-0.417-0.329-0.805-0.688-1.166-1.084l1.313-0.657c0.515,0.438,1.073,0.801,1.675,1.084c0.503-0.283,1.002-0.688,1.495-1.215
			h-4.483L15.551,27.293L15.551,27.293z M17.439,36.244h1.708V34.52h-1.708V36.244z"/>
		<path fill="#78CCE0" d="M24.994,34.93l1.79,0.247c-0.11,1.226-0.351,2.327-0.724,3.302l-1.904-0.607
			C24.563,37.158,24.84,36.18,24.994,34.93z M24.682,23.418h7.883v6.454h-3.086v0.657h2.824v1.445h-2.824v0.771
			c1.115-0.065,2.185-0.153,3.201-0.263v1.725c-2.354,0.252-5.068,0.447-8.146,0.591l-0.329-1.854
			c1.227-0.021,2.393-0.055,3.498-0.1v-0.869h-2.709v-1.445h2.709v-0.657h-3.021V23.418L24.682,23.418z M27.885,26.652v-1.708
			h-1.512v0.87l0.92-0.295C27.534,25.914,27.73,26.292,27.885,26.652z M27.885,28.361v-0.937L26.916,27.9
			c-0.164-0.59-0.346-1.127-0.543-1.608v2.069H27.885z M28.477,35.045c0.252,0.996,0.389,1.982,0.41,2.957l-1.791,0.131
			c0-1.336-0.021-2.343-0.064-3.021L28.477,35.045z M30.332,34.93c0.251,0.778,0.471,1.721,0.656,2.826l-1.725,0.18
			c-0.021-0.896-0.147-1.86-0.377-2.891L30.332,34.93z M29.264,24.945v2.02c0.273-0.447,0.493-0.93,0.657-1.445l0.92,0.23v-0.805
			H29.264z M30.841,28.361v-1.823c-0.132,0.448-0.302,0.882-0.509,1.298l-1.068-0.51v1.035H30.841z M32.023,34.799
			c0.35,0.689,0.635,1.518,0.854,2.48l-1.576,0.213c-0.033-0.82-0.252-1.697-0.656-2.627L32.023,34.799z M34.832,23.04h2.053v2.479
			h2.76v1.906h-2.76v2.645h2.299v8.457h-1.889v-1.248h-2.381v1.248h-1.889V30.07h1.807V23.04z M34.914,35.456h2.381v-3.548h-2.381
			V35.456z"/>
	</g>
</g>
</svg>
