<?xml version="1.0" encoding="utf-8"?>
<!-- Generator: Adobe Illustrator 13.0.1, SVG Export Plug-In . SVG Version: 6.00 Build 14948)  -->
<!DOCTYPE svg PUBLIC "-//W3C//DTD SVG 1.0//EN" "http://www.w3.org/TR/2001/REC-SVG-20010904/DTD/svg10.dtd">
<svg version="1.0" id="圖層_1" xmlns="http://www.w3.org/2000/svg" xmlns:xlink="http://www.w3.org/1999/xlink" x="0px" y="0px"
	 width="360px" height="500px" viewBox="0 0 360 500" enable-background="new 0 0 360 500" xml:space="preserve">
<g id="圖層_1_1_">
	<g>
		<rect x="0.006" fill="#EAE9EA" width="360.021" height="500"/>
		<g>
			<rect x="19.563" fill="#78CCE0" width="320.644" height="158.015"/>
			<polygon fill="#1AA8CA" points="22.561,0 0,0 0,168.44 22.561,158.018 			"/>
			<polygon fill="#1AA8CA" points="337.461,0 360.02,0 360.02,168.44 337.461,158.018 			"/>
		</g>
		<g opacity="0.4">
			<g>
				<g>
					<g>
						<rect x="39.456" y="59.685" fill="#CCCCCC" width="214.562" height="4.5"/>
						<rect x="46.206" y="63.342" fill="#B3B3B3" width="207.812" height="1.125"/>
					</g>
					<g>
						<rect x="39.456" y="105.531" fill="#CCCCCC" width="214.562" height="4.5"/>
						<rect x="46.206" y="109.187" fill="#B3B3B3" width="207.812" height="1.126"/>
					</g>
					<g>
						<rect x="39.456" y="151.377" fill="#CCCCCC" width="214.562" height="4.5"/>
						<rect x="46.206" y="154.752" fill="#B3B3B3" width="207.812" height="1.125"/>
					</g>
					<g>
						<rect x="39.456" y="59.685" fill="#CCCCCC" width="6.75" height="101.255"/>
						<rect x="45.362" y="59.685" fill="#B3B3B3" width="1.125" height="101.255"/>
						<rect x="39.456" y="160.378" fill="#B3B3B3" width="6.75" height="0.562"/>
					</g>
					<g>
						<rect x="143.242" y="59.685" fill="#CCCCCC" width="6.75" height="101.255"/>
						<rect x="149.148" y="59.685" fill="#B3B3B3" width="1.125" height="101.255"/>
						<rect x="143.242" y="160.378" fill="#B3B3B3" width="6.75" height="0.562"/>
					</g>
					<g>
						<rect x="246.986" y="59.685" fill="#CCCCCC" width="6.752" height="101.255"/>
						<rect x="252.893" y="59.685" fill="#B3B3B3" width="1.125" height="101.255"/>
						<rect x="246.986" y="160.378" fill="#B3B3B3" width="6.752" height="0.562"/>
					</g>
				</g>
				<g>
					<g>
						<rect x="50.424" y="84.155" fill="#F5D9AA" width="21.376" height="21.375"/>
						<polygon fill="#D1B48D" points="71.801,105.531 50.424,105.531 71.801,84.155 						"/>
					</g>
					<g>
						<rect x="72.926" y="84.155" fill="#F5D9AA" width="21.376" height="21.375"/>
						<polygon fill="#D1B48D" points="94.302,105.531 72.926,105.531 94.302,84.155 						"/>
					</g>
					<g>
						<rect x="95.427" y="84.155" fill="#F5D9AA" width="21.376" height="21.375"/>
						<polygon fill="#D1B48D" points="116.803,105.531 95.427,105.531 116.803,84.155 						"/>
					</g>
					<g>
						<rect x="117.929" y="84.155" fill="#F5D9AA" width="21.375" height="21.375"/>
						<polygon fill="#D1B48D" points="139.304,105.531 117.929,105.531 139.304,84.155 						"/>
					</g>
				</g>
				<g>
					<g>
						<rect x="50.424" y="130.001" fill="#F5D9AA" width="21.376" height="21.375"/>
						<polygon fill="#D1B48D" points="71.801,151.377 50.424,151.377 71.801,130.001 						"/>
					</g>
					<g>
						<rect x="72.926" y="130.001" fill="#F5D9AA" width="21.376" height="21.375"/>
						<polygon fill="#D1B48D" points="94.302,151.377 72.926,151.377 94.302,130.001 						"/>
					</g>
					<g>
						<rect x="95.427" y="130.001" fill="#F5D9AA" width="21.376" height="21.375"/>
						<polygon fill="#D1B48D" points="116.803,151.377 95.427,151.377 116.803,130.001 						"/>
					</g>
					<g>
						<rect x="117.929" y="130.001" fill="#F5D9AA" width="21.375" height="21.375"/>
						<polygon fill="#D1B48D" points="139.304,151.377 117.929,151.377 139.304,130.001 						"/>
					</g>
				</g>
				<g>
					<g>
						<rect x="154.211" y="84.155" fill="#F5D9AA" width="21.345" height="21.375"/>
						<polygon fill="#D1B48D" points="175.556,105.531 154.211,105.531 175.556,84.155 						"/>
					</g>
					<g>
						<rect x="176.675" y="84.155" fill="#F5D9AA" width="21.372" height="21.375"/>
						<polygon fill="#D1B48D" points="198.047,105.531 176.675,105.531 198.047,84.155 						"/>
					</g>
					<g>
						<rect x="199.172" y="84.155" fill="#F5D9AA" width="21.375" height="21.375"/>
						<polygon fill="#D1B48D" points="220.547,105.531 199.172,105.531 220.547,84.155 						"/>
					</g>
					<g>
						<rect x="221.67" y="84.155" fill="#F5D9AA" width="21.379" height="21.375"/>
						<polygon fill="#D1B48D" points="243.049,105.531 221.67,105.531 243.049,84.155 						"/>
					</g>
				</g>
				<g>
					<g>
						<rect x="154.211" y="130.001" fill="#F5D9AA" width="21.345" height="21.375"/>
						<polygon fill="#D1B48D" points="175.556,151.377 154.211,151.377 175.556,130.001 						"/>
					</g>
					<g>
						<rect x="176.675" y="129.888" fill="#F5D9AA" width="21.372" height="21.376"/>
						<polygon fill="#D1B48D" points="198.047,151.264 176.675,151.264 198.047,129.888 						"/>
					</g>
					<g>
						<rect x="199.172" y="129.888" fill="#F5D9AA" width="21.375" height="21.376"/>
						<polygon fill="#D1B48D" points="220.547,151.264 199.172,151.264 220.547,129.888 						"/>
					</g>
					<g>
						<rect x="221.67" y="129.888" fill="#F5D9AA" width="21.379" height="21.376"/>
						<polygon fill="#D1B48D" points="243.049,151.264 221.67,151.264 243.049,129.888 						"/>
					</g>
				</g>
			</g>
		</g>
		<g>
			<g>
				<g>
					<rect x="29.425" y="68.985" fill="#CCCCCC" width="214.606" height="4.5"/>
					<rect x="36.176" y="72.641" fill="#B3B3B3" width="207.855" height="1.125"/>
				</g>
				<g>
					<rect x="29.425" y="114.831" fill="#CCCCCC" width="214.606" height="4.5"/>
					<rect x="36.176" y="118.487" fill="#B3B3B3" width="207.855" height="1.125"/>
				</g>
				<g>
					<rect x="29.425" y="160.677" fill="#CCCCCC" width="214.606" height="4.5"/>
					<rect x="36.176" y="164.052" fill="#B3B3B3" width="207.855" height="1.125"/>
				</g>
				<g>
					<rect x="29.425" y="68.985" fill="#CCCCCC" width="6.751" height="101.253"/>
					<rect x="29.425" y="169.677" fill="#B3B3B3" width="6.751" height="0.561"/>
					<rect x="32.519" y="68.985" fill="#9B9B9B" width="3.938" height="101.253"/>
				</g>
				<g>
					<rect x="133.212" y="68.985" fill="#CCCCCC" width="6.75" height="101.253"/>
					<line fill="none" x1="140.244" y1="170.238" x2="139.118" y2="170.238"/>
					<rect x="133.212" y="169.677" fill="#B3B3B3" width="6.75" height="0.561"/>
				</g>
				<g>
					<rect x="237" y="68.985" fill="#CCCCCC" width="6.75" height="101.253"/>
					<rect x="237" y="169.677" fill="#B3B3B3" width="6.75" height="0.561"/>
				</g>
				<rect x="136.306" y="68.985" fill="#9B9B9B" width="3.938" height="101.253"/>
				<rect x="240.094" y="68.985" fill="#9B9B9B" width="3.938" height="101.253"/>
			</g>
			<g>
				<g>
					<rect x="40.394" y="93.455" fill="#F5D9AA" width="21.377" height="21.376"/>
					<polygon fill="#D1B48D" points="61.771,114.831 40.394,114.831 61.771,93.455 					"/>
				</g>
				<g>
					<rect x="62.896" y="93.455" fill="#F5D9AA" width="21.376" height="21.376"/>
					<polygon fill="#D1B48D" points="84.272,114.831 62.896,114.831 84.272,93.455 					"/>
				</g>
				<g>
					<rect x="85.397" y="93.455" fill="#F5D9AA" width="21.375" height="21.376"/>
					<polygon fill="#D1B48D" points="106.773,114.831 85.397,114.831 106.773,93.455 					"/>
				</g>
				<g>
					<rect x="107.898" y="93.455" fill="#F5D9AA" width="21.375" height="21.376"/>
					<polygon fill="#D1B48D" points="129.274,114.831 107.898,114.831 129.274,93.455 					"/>
				</g>
			</g>
			<g>
				<g>
					<rect x="40.394" y="139.301" fill="#F5D9AA" width="21.377" height="21.376"/>
					<polygon fill="#D1B48D" points="61.771,160.677 40.394,160.677 61.771,139.301 					"/>
				</g>
				<g>
					<rect x="62.896" y="139.301" fill="#F5D9AA" width="21.376" height="21.376"/>
					<polygon fill="#D1B48D" points="84.272,160.677 62.896,160.677 84.272,139.301 					"/>
				</g>
				<g>
					<rect x="85.397" y="139.301" fill="#F5D9AA" width="21.375" height="21.376"/>
					<polygon fill="#D1B48D" points="106.773,160.677 85.397,160.677 106.773,139.301 					"/>
				</g>
				<g>
					<rect x="107.898" y="139.301" fill="#F5D9AA" width="21.375" height="21.376"/>
					<polygon fill="#D1B48D" points="129.274,160.677 107.898,160.677 129.274,139.301 					"/>
				</g>
			</g>
			<g>
				<g>
					<rect x="144.181" y="93.455" fill="#F5D9AA" width="21.375" height="21.376"/>
					<polygon fill="#D1B48D" points="165.557,114.831 144.181,114.831 165.557,93.455 					"/>
				</g>
				<g>
					<rect x="166.682" y="93.455" fill="#F5D9AA" width="21.378" height="21.376"/>
					<polygon fill="#D1B48D" points="188.061,114.831 166.682,114.831 188.061,93.455 					"/>
				</g>
				<g>
					<rect x="189.184" y="93.455" fill="#F5D9AA" width="21.377" height="21.376"/>
					<polygon fill="#D1B48D" points="210.561,114.831 189.184,114.831 210.561,93.455 					"/>
				</g>
				<g>
					<rect x="211.686" y="93.455" fill="#F5D9AA" width="21.375" height="21.376"/>
					<polygon fill="#D1B48D" points="233.061,114.831 211.686,114.831 233.061,93.455 					"/>
				</g>
			</g>
			<g>
				<g>
					<rect x="144.181" y="139.301" fill="#F5D9AA" width="21.375" height="21.376"/>
					<polygon fill="#D1B48D" points="165.557,160.677 144.181,160.677 165.557,139.301 					"/>
				</g>
				<g>
					<rect x="166.682" y="139.188" fill="#F5D9AA" width="21.378" height="21.375"/>
					<polygon fill="#D1B48D" points="188.061,160.564 166.682,160.564 188.061,139.188 					"/>
				</g>
				<g>
					<rect x="189.184" y="139.188" fill="#F5D9AA" width="21.377" height="21.375"/>
					<polygon fill="#D1B48D" points="210.561,160.564 189.184,160.564 210.561,139.188 					"/>
				</g>
				<g>
					<rect x="211.686" y="139.188" fill="#F5D9AA" width="21.375" height="21.375"/>
					<polygon fill="#D1B48D" points="233.061,160.564 211.686,160.564 233.061,139.188 					"/>
				</g>
			</g>
		</g>
		<ellipse fill="#CCCCCC" cx="71.586" cy="184.123" rx="56.806" ry="6.232"/>
		<g>
			<g>
				<g>
					<rect x="49.637" y="148.77" fill="#FFD580" width="21.376" height="21.377"/>
					<polygon fill="#C6830C" points="71.013,170.146 49.637,170.146 71.013,148.77 					"/>
				</g>
				<g>
					<rect x="71.013" y="148.77" fill="#FFD580" width="21.376" height="21.377"/>
					<polygon fill="#C6830C" points="92.389,170.146 71.013,170.146 92.389,148.77 					"/>
				</g>
				<g>
					<rect x="92.389" y="148.77" fill="#FFD580" width="21.375" height="21.377"/>
					<polygon fill="#C6830C" points="113.765,170.146 92.389,170.146 113.765,148.77 					"/>
				</g>
			</g>
			<g>
				<g>
					<rect x="60.325" y="127.169" fill="#FFD580" width="21.376" height="21.375"/>
					<polygon fill="#C6830C" points="81.701,148.544 60.325,148.544 81.701,127.169 					"/>
				</g>
				<g>
					<rect x="81.701" y="127.169" fill="#FFD580" width="21.376" height="21.375"/>
					<polygon fill="#C6830C" points="103.077,148.544 81.701,148.544 103.077,127.169 					"/>
				</g>
			</g>
			<g>
				<rect x="44.001" y="170.34" fill="#F8D974" width="75.401" height="3.012"/>
				<rect x="44.001" y="179.238" fill="#F8D974" width="75.401" height="3.014"/>
				<rect x="108.298" y="173.352" fill="#E5C368" width="11.104" height="5.887"/>
				<rect x="76.148" y="173.352" fill="#E5C368" width="11.105" height="5.887"/>
				<rect x="44.001" y="173.352" fill="#E5C368" width="11.104" height="5.887"/>
				<rect x="108.298" y="173.352" opacity="0.57" fill="#E6D3B6" enable-background="new    " width="11.104" height="2.379"/>
				<rect x="76.148" y="173.352" opacity="0.57" fill="#E6D3B6" enable-background="new    " width="11.105" height="2.379"/>
				<rect x="44.001" y="173.352" opacity="0.57" fill="#E6D3B6" enable-background="new    " width="11.104" height="2.379"/>
			</g>
		</g>
		<g>
			<polygon fill="#B3B3B3" points="29.731,179.766 29.731,183.225 42.059,183.225 42.059,181.688 36.843,179.766 			"/>
			<path fill="#C65E00" d="M39.07,128.569h-9.13c-0.927,0-1.679,0.755-1.679,1.684v22.06c0,0.734,0.472,1.352,1.127,1.581v25.872
				h7.493l2.612-25.831c0.72-0.189,1.253-0.84,1.253-1.622v-22.06C40.747,129.324,39.997,128.569,39.07,128.569z"/>
			<path fill="#F8E1A5" d="M54.861,133.66c0-1.661-1.344-2.999-3.001-2.999c-1.658,0-3.003,1.338-3.003,2.999
				c0,1.661,1.345,3.001,3.003,3.001C53.518,136.661,54.861,135.321,54.861,133.66z"/>
			<path fill="#F8E1A5" d="M37.318,111.601h-5.136c-2.167,0-3.922,1.756-3.922,3.92v6.746v1.938v6.07h9.267v-2.159
				c2.069-0.108,3.712-1.817,3.712-3.912v-8.684C41.24,113.356,39.484,111.601,37.318,111.601z"/>
			<path fill="#916F5D" d="M41.228,115.521c0-2.165-1.755-3.92-3.922-3.92h-5.322c-2.168,0-3.922,1.756-3.922,3.92v6.746
				l0.013-0.349v0.633h3.453v-2.316c0-1.229,0.998-2.235,2.238-2.235c0.812,0,1.524,0.441,1.917,1.089h1.145l0.757-1.766h3.643
				V115.521z"/>
			<polygon opacity="0.61" fill="#DEC89B" enable-background="new    " points="37.528,128.116 32.241,128.116 34.652,129.914 
				36.398,130.282 37.528,130.275 			"/>
			<path fill="#FF7F00" d="M36.544,130.313l-8.287-1.747h-2.522c-0.923,0-1.679,0.757-1.679,1.683v22.063
				c0,0.766,0.517,1.405,1.215,1.608v28.226h8.253l2.987-29.494c0.021-0.11,0.033-0.225,0.033-0.34V130.313z"/>
			<polygon fill="#E5E5E5" points="25.74,182.146 25.74,185.93 39.232,185.93 39.232,184.25 33.524,182.146 			"/>
			<path fill="#69525C" d="M39.769,120.379c0,0.383-0.314,0.7-0.699,0.7c-0.386,0-0.699-0.316-0.699-0.7
				c0-0.387,0.313-0.703,0.699-0.703C39.455,119.676,39.769,119.992,39.769,120.379z"/>
			<path opacity="0.61" fill="#ACB2B8" enable-background="new    " d="M40.747,140.616v3.725c-1.738,0.71-3.637-1.027-3.637-1.027
				l-0.569-0.412l-8.284-6.088v-0.283l8.284,3.484l1.479,0.622c0.416,0.173,0.859,0.262,1.303,0.262c0.334,0,0.666-0.047,0.991-0.15
				L40.747,140.616z"/>
			<g>
				<path fill="#F0F0F0" d="M52.472,137.006l-12.156,3.743c-0.326,0.103-0.658,0.15-0.992,0.15c-0.446,0-0.888-0.089-1.302-0.262
					l-10.393-4.372c-1.708-0.718-2.51-2.692-1.792-4.404c0.721-1.708,2.688-2.514,4.402-1.794l9.262,3.898l10.814-3.33
					L52.472,137.006z"/>
			</g>
		</g>
		<g>
			<polygon fill="#CCCCCC" points="106.603,260.648 106.603,264.992 122.081,264.992 122.081,263.064 115.533,260.648 			"/>
			<path fill="#C65E00" d="M118.328,196.363h-11.465c-1.163,0-2.108,0.949-2.108,2.113v27.701c0,0.922,0.593,1.697,1.415,1.986
				v32.483h9.41l3.281-32.434c0.904-0.238,1.573-1.057,1.573-2.037v-27.701C120.433,197.313,119.493,196.363,118.328,196.363z"/>
			<path fill="#F8E1A5" d="M138.155,202.756c0-2.084-1.686-3.766-3.769-3.766c-2.082,0-3.771,1.682-3.771,3.766
				c0,2.086,1.689,3.77,3.771,3.77C136.469,206.525,138.155,204.842,138.155,202.756z"/>
			<path fill="#F8E1A5" d="M116.13,175.057h-6.451c-2.723,0-4.924,2.205-4.924,4.924v8.471v2.432v7.623h11.637v-2.711
				c2.597-0.135,4.658-2.281,4.658-4.912V179.98C121.05,177.262,118.847,175.057,116.13,175.057z"/>
			<polygon opacity="0.61" fill="#DEC89B" enable-background="new    " points="116.392,195.795 109.752,195.795 112.779,198.053 
				114.972,198.514 116.392,198.506 			"/>
			<path fill="#FF7F00" d="M115.157,198.555l-10.406-2.193h-3.165c-1.16,0-2.112,0.951-2.112,2.113v27.703
				c0,0.961,0.65,1.764,1.528,2.02v35.438h10.363l3.75-37.031c0.027-0.139,0.042-0.281,0.042-0.428V198.555z"/>
			<polygon fill="#E5E5E5" points="101.588,263.637 101.588,268.389 118.533,268.389 118.533,266.279 111.365,263.637 			"/>
			<path fill="#69525C" d="M119.205,186.078c0,0.484-0.394,0.879-0.877,0.879c-0.487,0-0.878-0.395-0.878-0.879
				c0-0.482,0.392-0.881,0.878-0.881C118.811,185.197,119.205,185.596,119.205,186.078z"/>
			<path opacity="0.61" fill="#ACB2B8" enable-background="new    " d="M120.433,211.49v4.678c-2.184,0.891-4.566-1.289-4.566-1.289
				l-0.714-0.518l-10.404-7.643v-0.357l10.404,4.375l1.857,0.781c0.521,0.217,1.079,0.33,1.638,0.33
				c0.419,0,0.835-0.061,1.241-0.189L120.433,211.49z"/>
			<path fill="#916F5D" d="M121.622,180.156c0-2.816-2.283-5.1-5.099-5.1H109.6c-2.819,0-5.099,2.283-5.099,5.1v8.771l0.022-0.58
				v0.459h4.337v-2.908c0-1.543,1.25-2.807,2.808-2.807c1.017,0,1.913,0.553,2.408,1.369h1.438l0.841-1.963h5.267V180.156z"/>
			<g>
				<path fill="#F0F0F0" d="M135.155,206.959l-15.263,4.699c-0.409,0.129-0.824,0.189-1.246,0.189c-0.559,0-1.117-0.113-1.635-0.33
					l-13.049-5.49c-2.145-0.9-3.153-3.379-2.25-5.527c0.907-2.146,3.373-3.156,5.529-2.254l11.63,4.895l13.576-4.182
					L135.155,206.959z"/>
			</g>
		</g>
		<g>
			<polygon fill="#696969" points="132.424,219.566 132.424,172.848 152.539,172.848 152.539,207.98 152.539,272.678 
				132.424,272.678 115.937,272.678 115.937,229.064 			"/>
			<rect x="115.937" y="265.209" fill="#5D7999" width="36.602" height="7.469"/>
			<g>
				<g>
					<rect x="140.256" y="182.6" fill="#FDD48E" width="6.462" height="6.465"/>
				</g>
				<g>
					<path fill="#FC8C42" d="M141.39,183.734h4.194v4.191h-4.194V183.734L141.39,183.734z M139.12,181.465v8.734h8.734v-8.734
						H139.12L139.12,181.465z"/>
				</g>
			</g>
			<g>
				<g>
					<rect x="140.256" y="197.225" fill="#FDD48E" width="6.462" height="6.465"/>
				</g>
				<g>
					<path fill="#FC8C42" d="M141.39,198.361h4.194v4.191h-4.194V198.361L141.39,198.361z M139.12,196.09v8.736h8.734v-8.736H139.12
						L139.12,196.09z"/>
				</g>
			</g>
			<g>
				<g>
					<rect x="124.826" y="248.727" fill="#FDD48E" width="6.462" height="6.464"/>
				</g>
				<g>
					<path fill="#FC8C42" d="M125.959,249.863h4.194v4.192h-4.194V249.863L125.959,249.863z M123.689,247.592v8.736h8.735v-8.736
						H123.689L123.689,247.592z"/>
				</g>
			</g>
		</g>
		<g>
			<g>
				<rect x="169.156" y="276.668" fill="#D6D6D6" width="5.561" height="27.564"/>
				<rect x="171.935" y="276.668" fill="#666666" width="2.782" height="27.564"/>
				<rect x="166.374" y="304.988" fill="#333333" width="11.127" height="2.801"/>
				<rect x="171.935" y="304.988" opacity="0.75" enable-background="new    " width="5.566" height="2.801"/>
				<rect x="167.763" y="304.232" fill="#666666" width="8.348" height="0.756"/>
				<rect x="171.935" y="304.232" fill="#444444" width="4.176" height="0.756"/>
			</g>
			<g>
				<rect x="124.19" y="276.668" fill="#D6D6D6" width="5.564" height="27.564"/>
				<rect x="126.973" y="276.668" fill="#666666" width="2.782" height="27.564"/>
				<rect x="121.409" y="304.988" fill="#333333" width="11.128" height="2.801"/>
				<rect x="126.973" y="304.988" opacity="0.75" enable-background="new    " width="5.564" height="2.801"/>
				<rect x="122.799" y="304.232" fill="#666666" width="8.346" height="0.756"/>
				<rect x="126.973" y="304.232" fill="#444444" width="4.173" height="0.756"/>
			</g>
			<g>
				<rect x="84.785" y="276.668" fill="#D6D6D6" width="5.562" height="27.564"/>
				<rect x="87.566" y="276.668" fill="#666666" width="2.78" height="27.564"/>
				<rect x="82.003" y="304.988" fill="#333333" width="11.128" height="2.801"/>
				<rect x="87.566" y="304.988" opacity="0.75" enable-background="new    " width="5.564" height="2.801"/>
				<rect x="83.395" y="304.232" fill="#666666" width="8.345" height="0.756"/>
				<rect x="87.566" y="304.232" fill="#444444" width="4.173" height="0.756"/>
			</g>
			<g>
				<rect x="259.787" y="276.668" fill="#D6D6D6" width="5.564" height="27.564"/>
				<rect x="262.57" y="276.668" fill="#666666" width="2.781" height="27.564"/>
				<rect x="257.006" y="304.988" fill="#333333" width="11.127" height="2.801"/>
				<rect x="262.57" y="304.988" opacity="0.75" enable-background="new    " width="5.563" height="2.801"/>
				<rect x="258.396" y="304.232" fill="#666666" width="8.346" height="0.756"/>
				<rect x="262.57" y="304.232" fill="#444444" width="4.172" height="0.756"/>
			</g>
			<g>
				<rect x="215.26" y="276.668" fill="#D6D6D6" width="5.564" height="27.564"/>
				<rect x="218.043" y="276.668" fill="#666666" width="2.781" height="27.564"/>
				<rect x="212.48" y="304.988" fill="#333333" width="11.127" height="2.801"/>
				<rect x="218.043" y="304.988" opacity="0.75" enable-background="new    " width="5.564" height="2.801"/>
				<rect x="213.869" y="304.232" fill="#666666" width="8.348" height="0.756"/>
				<rect x="218.043" y="304.232" fill="#444444" width="4.174" height="0.756"/>
			</g>
			<g>
				<rect x="288.264" y="276.668" fill="#D6D6D6" width="5.564" height="27.564"/>
				<rect x="291.045" y="276.668" fill="#666666" width="2.783" height="27.564"/>
				<rect x="285.484" y="304.988" fill="#333333" width="11.125" height="2.801"/>
				<rect x="291.045" y="304.988" opacity="0.75" enable-background="new    " width="5.564" height="2.801"/>
				<rect x="286.873" y="304.232" fill="#666666" width="8.348" height="0.756"/>
				<rect x="291.045" y="304.232" fill="#444444" width="4.176" height="0.756"/>
			</g>
		</g>
		<path fill="#CCCCCC" d="M368.992,315.514c0,7.4-26.549,13.404-59.301,13.404s-59.299-6.004-59.299-13.404
			c0-7.397,26.547-13.404,59.299-13.404S368.992,308.115,368.992,315.514z"/>
		<g>
			<rect x="-0.023" y="273.984" fill="#4D4D4D" width="360.021" height="2.781"/>
			<rect x="-0.023" y="264.719" fill="#666666" width="360.021" height="10.605"/>
		</g>
		<g>
			<rect x="-0.023" y="238.461" fill="#CCCCCC" width="360.021" height="28.516"/>
			<rect x="-0.023" y="265.584" fill="#022E4C" width="360.021" height="1.393"/>
			<rect x="-0.023" y="243.678" fill="#009345" width="360.021" height="18.082"/>
		</g>
		<g>
			<polygon fill="#FFC35A" points="236.643,253.877 231.121,244.314 236.643,234.75 247.684,234.75 253.207,244.314 
				247.684,253.877 			"/>
			<polygon fill="#FF9D00" points="236.643,253.877 247.684,234.75 253.207,244.314 247.684,253.877 			"/>
		</g>
		<g>
			<polygon fill="#FFC35A" points="23.669,253.877 19.576,241.361 30.297,233.625 41.017,241.361 36.924,253.877 			"/>
			<g>
				<polygon fill="#FF9D00" points="36.041,237.77 23.647,253.809 23.669,253.877 36.924,253.877 41.017,241.361 				"/>
			</g>
		</g>
		<g>
			<polygon fill="#FFC35A" points="165.303,253.877 176.554,234.75 187.807,253.877 			"/>
			<g>
				<polygon fill="#FF9D00" points="165.409,253.697 165.303,253.877 187.807,253.877 182.064,244.113 				"/>
			</g>
		</g>
		<g>
			<polygon fill="#FFC35A" points="113.799,253.688 107.565,250.531 101.43,253.877 102.506,246.973 97.429,242.174 
				104.329,241.063 107.326,234.75 110.512,240.969 117.443,241.867 112.512,246.82 			"/>
			<g>
				<polygon fill="#FF9D00" points="117.443,241.879 110.789,241.014 101.449,253.877 107.565,250.541 113.799,253.699 
					112.512,246.83 				"/>
			</g>
		</g>
		<g>
			<rect x="-24.365" y="283.691" opacity="0.9" fill="#FFFFFF" enable-background="new    " width="180.11" height="107.567"/>
			<g>
				<g>
					<g>
						<rect x="-10.266" y="281.703" fill="#CCCCCC" width="172.091" height="4.965"/>
						<rect x="-2.824" y="285.736" fill="#B3B3B3" width="164.648" height="1.242"/>
					</g>
					<g>
						<rect x="-10.266" y="332.264" fill="#CCCCCC" width="172.091" height="4.961"/>
						<rect x="-2.824" y="336.295" fill="#B3B3B3" width="164.648" height="1.238"/>
					</g>
					<g>
						<rect x="-10.266" y="382.816" fill="#CCCCCC" width="172.091" height="4.963"/>
						<rect x="-2.824" y="386.541" fill="#B3B3B3" width="164.648" height="1.238"/>
					</g>
					<g>
						<rect x="39.622" y="281.703" fill="#CCCCCC" width="7.445" height="111.662"/>
						<rect x="39.622" y="392.744" fill="#B3B3B3" width="7.445" height="0.621"/>
					</g>
					<g>
						<rect x="154.07" y="281.703" fill="#CCCCCC" width="7.443" height="111.662"/>
						<rect x="154.07" y="392.744" fill="#B3B3B3" width="7.443" height="0.621"/>
					</g>
					<rect x="43.035" y="281.703" fill="#9B9B9B" width="4.342" height="111.662"/>
					<rect x="157.48" y="281.703" fill="#9B9B9B" width="4.344" height="111.662"/>
				</g>
				<g>
					<g>
						<rect x="-13.102" y="308.688" fill="#FFC35A" width="23.569" height="23.576"/>
						<polygon fill="#FF9D00" points="10.467,332.264 -13.102,332.264 10.467,308.688 						"/>
					</g>
					<g>
						<rect x="11.709" y="308.688" fill="#FFC35A" width="23.574" height="23.576"/>
						<polygon fill="#FF9D00" points="35.283,332.264 11.709,332.264 35.283,308.688 						"/>
					</g>
				</g>
				<g>
					<g>
						<rect x="-13.102" y="359.246" fill="#FFC35A" width="23.569" height="23.57"/>
						<polygon fill="#FF9D00" points="10.467,382.816 -13.102,382.816 10.467,359.246 						"/>
					</g>
					<g>
						<rect x="11.709" y="359.246" fill="#FFC35A" width="23.574" height="23.57"/>
						<polygon fill="#FF9D00" points="35.283,382.816 11.709,382.816 35.283,359.246 						"/>
					</g>
				</g>
				<g>
					<g>
						<rect x="51.719" y="308.688" fill="#FFC35A" width="23.574" height="23.576"/>
						<polygon fill="#FF9D00" points="75.293,332.264 51.719,332.264 75.293,308.688 						"/>
					</g>
					<g>
						<rect x="76.53" y="308.688" fill="#FFC35A" width="23.573" height="23.576"/>
						<polygon fill="#FF9D00" points="100.103,332.264 76.53,332.264 100.103,308.688 						"/>
					</g>
					<g>
						<rect x="101.344" y="308.688" fill="#FFC35A" width="23.571" height="23.576"/>
						<polygon fill="#FF9D00" points="124.916,332.264 101.344,332.264 124.916,308.688 						"/>
					</g>
					<g>
						<rect x="126.157" y="308.688" fill="#FFC35A" width="23.571" height="23.576"/>
						<polygon fill="#FF9D00" points="149.728,332.264 126.157,332.264 149.728,308.688 						"/>
					</g>
				</g>
				<g>
					<g>
						<rect x="51.719" y="359.246" fill="#FFC35A" width="23.574" height="23.57"/>
						<polygon fill="#FF9D00" points="75.293,382.816 51.719,382.816 75.293,359.246 						"/>
					</g>
					<g>
						<rect x="76.53" y="359.123" fill="#FFC35A" width="23.573" height="23.574"/>
						<polygon fill="#FF9D00" points="100.103,382.697 76.53,382.697 100.103,359.123 						"/>
					</g>
					<g>
						<rect x="101.344" y="359.123" fill="#FFC35A" width="23.571" height="23.574"/>
						<polygon fill="#FF9D00" points="124.916,382.697 101.344,382.697 124.916,359.123 						"/>
					</g>
					<g>
						<rect x="126.157" y="359.123" fill="#FFC35A" width="23.571" height="23.574"/>
						<polygon fill="#FF9D00" points="149.728,382.697 126.157,382.697 149.728,359.123 						"/>
					</g>
				</g>
			</g>
		</g>
		<g>
			<polygon fill="#CCCCCC" points="178.632,386.033 178.625,390.396 163.077,390.367 163.077,388.432 169.661,386.025 			"/>
			<path fill="#F8E1A5" d="M152.732,335.457c0.827,1.928-0.074,4.162-2.001,4.982c-1.923,0.819-4.154-0.082-4.978-2.002
				c-0.82-1.931,0.075-4.16,2.004-4.979C149.683,332.635,151.915,333.535,152.732,335.457z"/>
			<g>
				<path fill="#CCCCCC" d="M173.524,329.309l-7.058,9.24c-0.451,0.586-1.036,1.041-1.703,1.33
					c-0.429,0.178-0.888,0.291-1.358,0.318l-13.821,1.022l-0.807-8.452l12.104-0.892l5.908-7.722
					c1.42-1.864,4.077-2.217,5.942-0.793C174.592,324.781,174.948,327.447,173.524,329.309z"/>
			</g>
			<path fill="#C65E00" d="M178.485,321.451l-11.511-0.023c-1.171,0-2.124,0.949-2.125,2.119l-0.05,27.832
				c-0.004,0.986,0.668,1.807,1.577,2.049l3.241,32.598l9.451,0.015l0.057-32.638c0.826-0.289,1.424-1.065,1.43-1.989l0.047-27.836
				C180.604,322.408,179.66,321.451,178.485,321.451z"/>
			<path fill="#F8E1A5" d="M169.22,300.025l6.479,0.01c2.731,0.004,4.943,2.225,4.939,4.957l-0.018,8.514l-0.002,2.443l-0.02,7.66
				l-11.687-0.025l0.002-2.725c-2.609-0.139-4.678-2.295-4.672-4.941l0.02-10.951C164.268,302.232,166.488,300.021,169.22,300.025z"
				/>
			<polygon opacity="0.61" fill="#DEC89B" enable-background="new    " points="168.916,320.859 175.587,320.875 172.542,323.139 
				170.335,323.596 168.914,323.584 			"/>
			<path fill="#FF7F00" d="M183.793,321.457l-3.184-0.006l-10.457,2.186l-0.056,27.752c0,0.146,0.016,0.289,0.044,0.43l3.702,37.222
				l10.411,0.017l0.068-35.611c0.881-0.252,1.533-1.055,1.537-2.021l0.051-27.838C185.91,322.416,184.963,321.461,183.793,321.457z"
				/>
			<polygon fill="#E5E5E5" points="183.664,389.053 183.656,393.828 166.633,393.791 166.637,391.67 173.843,389.039 			"/>
			<path fill="#69525C" d="M167.811,310.664c-0.002,0.492-0.399,0.883-0.886,0.883c-0.484,0-0.881-0.4-0.876-0.883
				c0-0.486,0.395-0.883,0.881-0.883C167.42,309.787,167.811,310.178,167.811,310.664z"/>
			<path fill="#916F5D" d="M180.875,303.877c0-2.346-1.887-4.24-4.233-4.248l-8.61-0.012c-2.343-0.004-4.243,1.885-4.25,4.234
				c-0.002,0.557,0.112,1.102,0.307,1.588c3.471,0.27,4.688,1.774,5.075,2.492l0.657,1.539l1.446,0.006
				c0.497-0.82,1.391-1.371,2.419-1.367c1.56,0,2.821,1.272,2.814,2.824l-0.004,2.916l4.357,0.016l0.014-5.525l0.002-1.107
				L180.875,303.877L180.875,303.877z"/>
			<path opacity="0.61" fill="#ACB2B8" enable-background="new    " d="M182.195,331.523c-0.063,0.141-0.742,1.401-1.614,3.063
				c-1.727,3.297-4.276,8.125-4.597,8.731c-0.369,0.703-0.806,1.449-5.869,2.892c-1.394,0.396-3.126,0.84-5.313,1.353l0.006-2.498
				l2.601-0.58l2.708-0.609l1.669-0.377c0.42-0.102,0.813-0.246,1.182-0.459c0.486-0.275,0.913-0.654,1.266-1.104l6.351-8.316
				L182.195,331.523z"/>
			<g>
				<rect x="142.066" y="321.271" fill="#FFC35A" width="23.974" height="23.977"/>
				<polygon fill="#FF9D00" points="142.066,345.248 166.04,345.248 142.066,321.271 				"/>
			</g>
			<path fill="#F8E1A5" d="M158.709,340.84c1.04,1.818,0.407,4.137-1.408,5.176c-1.82,1.043-4.138,0.414-5.179-1.399
				c-1.04-1.824-0.411-4.14,1.409-5.181C155.347,338.393,157.664,339.023,158.709,340.84z"/>
			<g>
				<path fill="#E5E5E5" d="M182.867,330.637l-8.638,11.299c-0.347,0.455-0.775,0.824-1.259,1.104
					c-0.369,0.213-0.762,0.36-1.182,0.459l-15.425,3.474l-1.76-8.302l13.823-3.112l7.697-10.066
					c1.429-1.869,4.089-2.221,5.945-0.803C183.936,326.115,184.285,328.771,182.867,330.637z"/>
			</g>
		</g>
		<rect x="218.717" y="169.394" fill="#6A7286" width="1.688" height="19.768"/>
		<g>
			<g>
				<path fill="#FFFFFF" d="M42.539,94.225l-0.663-1.147c-0.156-0.279-0.459-0.542-0.862-0.545c-0.403,0-0.707,0.266-0.862,0.545
					l-1.3,2.252l-1.301-2.252c-0.156-0.281-0.459-0.542-0.861-0.545c-0.404,0-0.708,0.266-0.863,0.545l-1.334,2.314l-1.341-2.316
					c-0.154-0.279-0.458-0.543-0.861-0.545c-0.408,0.002-0.707,0.27-0.861,0.547l-1.334,2.313l-1.334-2.313l-0.518,0.297
					l0.516-0.299c-0.154-0.277-0.457-0.54-0.859-0.543c-0.405,0-0.709,0.266-0.863,0.545l-0.667,1.152V56.609
					c-0.404,0-0.805,0-1.198,0v39.848c0,0.273,0.183,0.507,0.444,0.578c0.262,0.072,0.536-0.043,0.672-0.277l1.61-2.783l1.629,2.825
					l-0.011,0.004c0.072,0.252,0.3,0.429,0.564,0.435c0.264,0.004,0.499-0.16,0.58-0.412l-0.008-0.018l1.636-2.835l1.617,2.797
					c0.001,0.006,0.003,0.012,0.005,0.019c0.065,0.26,0.293,0.442,0.562,0.451h0.019c0.258,0,0.489-0.167,0.568-0.415l-0.005-0.019
					l1.633-2.834l1.607,2.784c0.09,0.231,0.316,0.383,0.564,0.38c0.248-0.003,0.47-0.161,0.556-0.395l1.598-2.768l1.604,2.78
					c0.137,0.236,0.413,0.35,0.674,0.28c0.262-0.07,0.444-0.307,0.444-0.578V56.613h-1.198v37.612H42.539z M35.226,56.611
					c0.391,0,0.782,0,1.173,0v-0.66h-1.173V56.611z M58.079,41.523c0-0.087,0.006-0.175,0.006-0.26c0-5.011-4.099-9.071-9.159-9.071
					c-0.907,0-1.778,0.133-2.6,0.373c-1.432-4.736-5.865-8.193-11.114-8.193c-5.024,0-9.305,3.172-10.907,7.604
					c-0.893-0.321-1.851-0.498-2.851-0.498c-4.203,0-7.675,3.102-8.217,7.118c-4.517,0.543-8.015,4.352-8.015,8.968
					c0,4.994,4.093,9.041,9.132,9.041c0.31,0,4.844,0.001,10.818,0.002v-8.572c0-0.159,0.065-0.312,0.176-0.423
					c0.112-0.111,0.266-0.176,0.423-0.176h17.365c0.158,0,0.312,0.065,0.423,0.176c0.111,0.112,0.177,0.264,0.177,0.423v8.577
					c6.817,0.002,12.171,0.003,12.351,0.003c4.192,0,7.598-3.676,7.598-7.829C63.686,45.313,61.306,42.393,58.079,41.523z
					 M50.287,52.238c0,0.633-0.533,1.167-1.168,1.167h-4.463v-4.25h0.611c0.497,0,0.903-0.407,0.903-0.904v-1.922
					c0-0.496-0.409-0.903-0.903-0.903H23.641c-0.495,0-0.904,0.409-0.904,0.903v1.922c0,0.496,0.409,0.904,0.904,0.904h0.611v4.25
					h-4.463c-0.633,0-1.167-0.525-1.167-1.167V41.766c0-0.642,0.525-1.168,1.167-1.168h29.33c0.644,0,1.168,0.536,1.168,1.168
					V52.238z M37.571,53.608h1.173v-1.173h-1.173V53.608z M30.536,53.608h1.172v-1.173h-1.172V53.608z M30.536,55.952h1.172v0.659
					c0.39,0,0.78,0,1.173,0v-0.659h1.172v-2.343h1.172v1.172h1.173v-3.518h3.517v3.518h-3.517v1.171h2.346v0.661
					c1.29,0,2.563,0,3.795,0.001v-7.98H26.371v7.976c1.338,0,2.737,0,4.166,0.001L30.536,55.952L30.536,55.952z M34.054,51.263
					h1.172v1.172h-1.172V51.263z M29.364,51.263h3.518v3.518h-3.518V51.263z M36.398,57.125h2.346v-0.512c-0.777,0-1.56,0-2.346,0
					V57.125z M29.364,61.815h3.518v-3.519h-3.518V61.815z M30.536,59.47h1.172v1.172h-1.172V59.47z M35.226,58.297h1.173v-1.172
					h-1.173V58.297z M39.916,61.815v-3.519h-3.517v3.519H39.916z M37.571,59.47h1.173v1.172h-1.173V59.47z M34.054,60.643h1.172
					v-2.346h-1.172V60.643z M35.226,57.125v-0.513c-0.783,0-1.565,0-2.344,0v1.686h1.172v-1.172L35.226,57.125L35.226,57.125z
					 M30.536,57.125h1.172V56.61c-0.392,0-0.784,0-1.172,0V57.125z M32.881,71.985h-3.518v3.518h3.518V71.985z M31.708,74.331
					h-1.172v-1.172h1.172V74.331z M35.226,71.985h1.173v-1.172h-1.173V71.985z M34.054,70.813h1.172V69.64h1.173v-1.172h-1.173
					v-1.173h-1.172v2.345h-1.172v2.345h1.172V70.813z M34.054,74.331h1.172v-2.346h-1.172V74.331z M39.916,75.503v-3.518h-3.517
					v3.518H39.916z M37.571,73.159h1.173v1.172h-1.173V73.159z M32.881,64.95h-3.518v3.518h3.518V64.95z M31.708,67.295h-1.172
					v-1.173h1.172V67.295z M35.226,64.95h-1.172v1.172h1.172V64.95z M31.708,70.813V69.64h-1.172v1.173H31.708z M38.744,70.813
					V69.64h-2.346v1.173H38.744z M39.916,64.95h-3.517v3.518h3.517V64.95z M38.744,67.295h-1.173v-1.173h1.173V67.295z
					 M34.054,79.811h1.172v-1.172h-1.172V79.811z M31.708,84.502v-1.173h-1.172v1.173H31.708z M39.916,78.638h-3.517v3.519h3.517
					V78.638z M38.744,80.984h-1.173v-1.173h1.173V80.984z M32.881,85.674h-3.518v3.518h3.518V85.674z M31.708,88.019h-1.172v-1.172
					h1.172V88.019z M38.744,84.502v-1.173h-2.346v1.173H38.744z M34.054,88.019h1.172v-2.345h-1.172V88.019z M35.226,85.674h1.173
					v-1.172h-1.173V85.674z M34.054,84.502h1.172v-1.173h1.173v-1.172h-1.173v-1.173h-1.172v2.345h-1.172v2.345h1.172V84.502z
					 M39.916,89.191v-3.518h-3.517v3.518H39.916z M37.571,86.846h1.173v1.172h-1.173V86.846z M32.881,78.638h-3.518v3.519h3.518
					V78.638z M31.708,80.984h-1.172v-1.173h1.172V80.984z"/>
			</g>
		</g>
		<g>
			<ellipse fill="#CCCCCC" cx="225.684" cy="214.125" rx="15.697" ry="5.297"/>
			<g>
				<g>
					<polygon fill="#BCBCBC" points="228.443,210.861 228.449,213.863 239.146,213.842 239.146,212.508 234.617,210.855 					"/>
					<polygon fill="#B3B3B3" points="227.52,212.605 226.18,210.855 222.898,210.861 220.09,210.855 218.75,212.605 
						218.746,213.939 222.844,213.939 223.131,213.939 227.521,213.939 					"/>
					<path fill="#F8E1A5" d="M235.412,146.383c-0.375-0.226-0.877-0.144-1.352,0.157v-3.743c0-2.022-1.638-3.662-3.658-3.662h-6.019
						c-2.022,0-3.663,1.639-3.663,3.662v3.602c-0.394-0.18-0.787-0.203-1.097-0.017c-0.646,0.39-0.679,1.521-0.069,2.528
						c0.315,0.522,0.741,0.904,1.166,1.101v0.433c0,1.886,1.532,4.571,3.284,5.479v1.29h-0.549c-1.567,0-2.843,0.834-2.843,1.861
						v3.057c0,1.026,1.273,1.86,2.843,1.86h7.496c1.567,0,2.84-0.834,2.84-1.86v-3.057c0-1.026-1.271-1.861-2.84-1.861h-0.173v-1.31
						c1.718-0.988,3.279-3.574,3.279-5.458v-0.336c0.506-0.143,1.043-0.573,1.418-1.197
						C236.086,147.904,236.057,146.773,235.412,146.383z"/>
					<path fill="#69525C" d="M223.293,147.494c0.002,0.393,0.316,0.706,0.707,0.706c0.389,0,0.707-0.319,0.703-0.706
						c0-0.39-0.314-0.706-0.705-0.706C223.607,146.791,223.293,147.104,223.293,147.494z"/>
					<path fill="#69525C" d="M229.951,147.494c0.002,0.393,0.318,0.706,0.707,0.706c0.391,0,0.707-0.319,0.703-0.706
						c0-0.39-0.314-0.706-0.703-0.706C230.266,146.791,229.951,147.104,229.951,147.494z"/>
					<g opacity="0.61">
						<path fill="#DEC89B" d="M230.781,158.151c0-0.489,0-2.249,0-2.249c-0.127,0.072-0.252,0.158-0.379,0.212
							c-1.445,0.612-4.435,0.564-6.019,0c-0.129-0.045-0.254-0.103-0.379-0.167C224.006,155.947,226.533,158.381,230.781,158.151z"
							/>
					</g>
					<path fill="#916F5D" d="M227.27,137.864c-3.467,0-5.965,0.882-6.844,2.712c-0.703,1.459-1.033,6.911,0.088,8.984
						c0.197,0.366,0.902-0.468,1.053-1.287c0.297-1.615-0.618-4.798,0.779-5.662c1.201-0.742,2.564,1.256,4.924,1.256
						c2.156,0,3.679-1.998,4.84-1.256c1.336,0.852,0.769,3.771,1.062,5.328c0.111,0.593,0.603,1.879,0.953,1.739
						c0.586-1.739,0.996-7.142,0.319-8.615C233.627,139.278,230.734,137.864,227.27,137.864z"/>
					<g>
						<path fill="#FF7F00" d="M222.959,157.191c-0.957,0-4.477,0.38-4.477,1.3v22.907c0,0.406,0.158,0.773,0.408,1.063l0.817,28.416
							h6.687l0.801-27.813h0.197v-23.355c0.149,0.013,0.303,0.023,0.459,0.023C224.752,159.732,222.959,157.191,222.959,157.191z"/>
						<path fill="#C65E00" d="M236.303,158.492c0-0.92-3.52-1.3-4.475-1.3c0,0-1.021,2.541-3.977,2.541
							c-0.156,0-0.31-0.011-0.459-0.023v23.355h0.239l0.802,27.813h6.688l0.817-28.469c0.224-0.281,0.361-0.629,0.361-1.01v-22.907
							H236.303z"/>
					</g>
				</g>
				<path fill="#F0F0F0" d="M237.533,164.981c0,0,2.391,9.14,1.969,10.687s-4.924-1.125-4.924-1.125L237.533,164.981z"/>
				<path fill="#F0F0F0" d="M216.205,164.981c0,0-2.391,9.14-1.971,10.687c0.424,1.547,4.924-1.125,4.924-1.125L216.205,164.981z"/>
			</g>
			<g>
				<g>
					<rect x="216.182" y="154.196" fill="#FFD580" width="21.377" height="21.376"/>
					<polygon fill="#C6830C" points="237.559,175.572 216.182,175.572 237.559,154.196 					"/>
				</g>
			</g>
			<g>
				<path fill="#F8E1A5" d="M220.037,175.463c0-1.66-1.342-2.998-3.002-2.998c-1.656,0-3.002,1.338-3.002,2.998
					s1.346,3.002,3.002,3.002C218.695,178.465,220.037,177.123,220.037,175.463z"/>
				<path fill="#F8E1A5" d="M240.43,175.463c0-1.66-1.342-2.998-3.002-2.998c-1.656,0-3.002,1.338-3.002,2.998
					s1.346,3.002,3.002,3.002C239.088,178.465,240.43,177.123,240.43,175.463z"/>
			</g>
		</g>
		<g>
			<ellipse fill="#CCCCCC" cx="284.43" cy="219.645" rx="66.533" ry="6.232"/>
			<g>
				<g>
					<g>
						<rect x="252.365" y="184.801" fill="#FFD580" width="21.375" height="21.377"/>
						<polygon fill="#C6830C" points="273.74,206.178 252.365,206.178 273.74,184.801 						"/>
					</g>
					<g>
						<rect x="273.74" y="184.801" fill="#FFD580" width="21.377" height="21.377"/>
						<polygon fill="#C6830C" points="295.117,206.178 273.74,206.178 295.117,184.801 						"/>
					</g>
					<g>
						<rect x="295.117" y="184.801" fill="#FFD580" width="21.377" height="21.377"/>
						<polygon fill="#C6830C" points="316.494,206.178 295.117,206.178 316.494,184.801 						"/>
					</g>
				</g>
				<g>
					<g>
						<rect x="284.012" y="163.452" fill="#FFD580" width="21.377" height="21.376"/>
						<polygon fill="#C6830C" points="305.389,184.828 284.012,184.828 305.389,163.452 						"/>
					</g>
				</g>
			</g>
			<rect x="229.029" y="206.43" fill="#919CB8" width="110.799" height="9.467"/>
			<polygon fill="#6A7286" points="229.029,215.27 229.029,215.896 240.277,215.896 240.277,218.371 254.1,218.371 254.1,215.896 
				312.201,215.896 312.201,218.371 326.023,218.371 326.023,215.896 339.828,215.896 339.828,215.27 			"/>
			<rect x="229.029" y="186.727" fill="#919CB8" width="3.375" height="19.77"/>
			<rect x="336.453" y="166.774" fill="#919CB8" width="3.375" height="39.656"/>
			<rect x="338.141" y="166.774" fill="#6A7286" width="1.688" height="39.656"/>
			<rect x="231.715" y="209.875" opacity="0.31" fill="#B9A8A4" enable-background="new    " width="105.43" height="3.656"/>
			<g>
				<g>
					<g>
						<g>
							<path fill="#333333" d="M250.48,219.631c0,1.818-1.476,3.291-3.289,3.291c-1.816,0-3.293-1.473-3.293-3.291
								c0-1.816,1.477-3.289,3.293-3.289C249.006,216.342,250.48,217.814,250.48,219.631z"/>
							<path fill="#E5E5E5" d="M249.395,219.631c0,1.219-0.985,2.207-2.203,2.207c-1.221,0-2.207-0.988-2.207-2.207
								c0-1.217,0.986-2.203,2.207-2.203C248.408,217.428,249.395,218.414,249.395,219.631z"/>
							<path fill="#CCCCCC" d="M247.191,216.617c-1.666,0-3.019,1.35-3.019,3.014c0,1.666,1.353,3.018,3.019,3.018
								s3.016-1.352,3.016-3.018C250.207,217.967,248.857,216.617,247.191,216.617z M247.191,221.48
								c-1.021,0-1.849-0.828-1.849-1.85c0-1.02,0.828-1.846,1.849-1.846c1.02,0,1.85,0.826,1.85,1.846
								C249.041,220.652,248.211,221.48,247.191,221.48z"/>
							<circle fill="#4D4D4D" cx="247.188" cy="219.631" r="0.894"/>
						</g>
						<path fill="#969696" d="M249.029,219.426c-0.375-0.629-1.053-1.049-1.838-1.049s-1.467,0.422-1.836,1.051
							c0.096-0.928,0.883-1.65,1.836-1.65S248.928,218.5,249.029,219.426z"/>
					</g>
					<path fill="#838282" d="M243.152,218.715c0.006-0.025,0.008-0.051,0.014-0.074c0.031-0.152,0.072-0.301,0.121-0.447
						c0.012-0.029,0.02-0.059,0.031-0.088c0.104-0.291,0.236-0.564,0.397-0.82c0.017-0.023,0.027-0.045,0.043-0.066
						c0.168-0.256,0.363-0.488,0.582-0.699c0.021-0.02,0.041-0.037,0.062-0.057c0.221-0.201,0.461-0.383,0.723-0.533
						c0.029-0.018,0.057-0.033,0.088-0.049c0.131-0.072,0.264-0.139,0.4-0.197c0.002,0,0.004,0,0.008-0.002
						c0.02-0.01,0.041-0.016,0.063-0.023c0.088-0.035,0.178-0.068,0.271-0.096c0.051-0.016,0.104-0.029,0.153-0.043
						c0.066-0.02,0.136-0.037,0.201-0.051c0.06-0.014,0.115-0.023,0.174-0.033c0.064-0.012,0.132-0.021,0.197-0.029
						c0.06-0.01,0.119-0.014,0.18-0.02c0.025-0.002,0.05-0.006,0.072-0.008c0.086-0.006,0.17-0.008,0.258-0.008
						c0.002,0,0.002,0,0.002,0l0,0c0.086,0,0.173,0.002,0.259,0.008c0.022,0.002,0.045,0.006,0.071,0.008
						c0.062,0.006,0.121,0.01,0.177,0.02c0.069,0.008,0.135,0.018,0.2,0.029c0.058,0.01,0.115,0.02,0.172,0.033
						c0.07,0.014,0.138,0.031,0.201,0.051c0.054,0.014,0.103,0.027,0.156,0.043c0.09,0.027,0.18,0.061,0.268,0.096
						c0.023,0.008,0.046,0.014,0.064,0.023c0.002,0.002,0.004,0.002,0.006,0.002c0.14,0.059,0.271,0.125,0.4,0.197
						c0.031,0.016,0.059,0.031,0.088,0.049c0.262,0.15,0.504,0.332,0.723,0.533c0.021,0.02,0.039,0.037,0.062,0.057
						c0.221,0.211,0.412,0.443,0.582,0.699c0.017,0.021,0.028,0.043,0.043,0.066c0.162,0.256,0.297,0.529,0.399,0.82
						c0.013,0.029,0.021,0.059,0.031,0.088c0.045,0.146,0.092,0.295,0.119,0.447c0.008,0.023,0.01,0.049,0.016,0.074
						c0.047,0.25,0.074,0.506,0.074,0.77v1.299h-0.668v-1.299c0-0.291-0.035-0.574-0.104-0.844c-0.029-0.115-0.064-0.225-0.104-0.33
						c-0.011-0.025-0.021-0.049-0.029-0.072c-0.031-0.086-0.066-0.168-0.107-0.248c-0.012-0.025-0.023-0.051-0.033-0.076
						c-0.049-0.088-0.098-0.178-0.152-0.262c-0.004-0.01-0.012-0.02-0.016-0.029c-0.063-0.098-0.131-0.188-0.201-0.277
						c-0.014-0.018-0.024-0.033-0.041-0.049c-0.057-0.068-0.115-0.137-0.18-0.201c-0.02-0.023-0.041-0.045-0.064-0.066
						c-0.061-0.061-0.127-0.119-0.192-0.176c-0.021-0.018-0.037-0.033-0.058-0.049c-0.09-0.07-0.176-0.137-0.271-0.199
						c-0.015-0.008-0.028-0.016-0.039-0.025c-0.08-0.049-0.162-0.098-0.246-0.141c-0.028-0.018-0.059-0.031-0.09-0.047
						c-0.084-0.041-0.172-0.08-0.26-0.113c-0.023-0.01-0.05-0.02-0.076-0.031c-0.11-0.041-0.226-0.076-0.34-0.105
						c-0.025-0.004-0.05-0.01-0.072-0.014c-0.099-0.023-0.196-0.041-0.295-0.055c-0.033-0.004-0.065-0.008-0.101-0.014
						c-0.123-0.014-0.248-0.023-0.373-0.023c-0.129,0-0.254,0.01-0.377,0.023c-0.032,0.006-0.063,0.01-0.1,0.014
						c-0.098,0.014-0.195,0.031-0.293,0.055c-0.025,0.004-0.049,0.01-0.072,0.014c-0.115,0.029-0.229,0.064-0.344,0.105
						c-0.025,0.012-0.051,0.021-0.074,0.031c-0.09,0.033-0.176,0.072-0.26,0.113c-0.029,0.016-0.061,0.029-0.092,0.047
						c-0.08,0.043-0.162,0.092-0.24,0.141c-0.014,0.01-0.029,0.018-0.043,0.025c-0.092,0.063-0.184,0.129-0.271,0.199
						c-0.02,0.016-0.034,0.031-0.055,0.049c-0.068,0.057-0.131,0.115-0.193,0.176c-0.022,0.021-0.043,0.043-0.065,0.066
						c-0.063,0.064-0.121,0.133-0.18,0.201c-0.013,0.016-0.027,0.031-0.041,0.049c-0.07,0.09-0.138,0.18-0.201,0.277
						c-0.004,0.01-0.008,0.02-0.017,0.027c-0.055,0.086-0.102,0.174-0.146,0.264c-0.014,0.025-0.026,0.051-0.039,0.078
						c-0.039,0.078-0.073,0.16-0.106,0.246c-0.01,0.023-0.021,0.047-0.027,0.072c-0.039,0.105-0.076,0.215-0.105,0.33
						c-0.067,0.27-0.104,0.553-0.104,0.844v1.299h-0.666v-1.299C243.078,219.221,243.105,218.965,243.152,218.715z"/>
				</g>
				<g>
					<path fill="#B3B3B3" d="M248.611,215.908v3.545c0,0.721-0.584,1.305-1.301,1.305l0,0c-0.724,0-1.306-0.584-1.306-1.305v-3.545
						H248.611z"/>
					<path fill="#CCCCCC" d="M248.371,215.908v3.545c0,0.721-0.582,1.305-1.301,1.305l0,0c-0.721,0-1.303-0.584-1.303-1.305v-3.545
						H248.371z"/>
				</g>
				<circle fill="#838282" cx="247.191" cy="219.652" r="0.352"/>
			</g>
			<g>
				<g>
					<g>
						<g>
							<path fill="#333333" d="M322.406,219.631c0,1.818-1.476,3.291-3.289,3.291c-1.818,0-3.293-1.473-3.293-3.291
								c0-1.816,1.475-3.289,3.293-3.289C320.932,216.342,322.406,217.814,322.406,219.631z"/>
							<path fill="#E5E5E5" d="M321.32,219.631c0,1.219-0.986,2.207-2.203,2.207c-1.221,0-2.205-0.988-2.205-2.207
								c0-1.217,0.984-2.203,2.205-2.203C320.334,217.428,321.32,218.414,321.32,219.631z"/>
							<path fill="#CCCCCC" d="M319.117,216.617c-1.666,0-3.019,1.35-3.019,3.014c0,1.666,1.353,3.018,3.019,3.018
								c1.664,0,3.014-1.352,3.014-3.018C322.131,217.967,320.781,216.617,319.117,216.617z M319.117,221.48
								c-1.021,0-1.851-0.828-1.851-1.85c0-1.02,0.828-1.846,1.851-1.846c1.02,0,1.848,0.826,1.848,1.846
								C320.965,220.652,320.137,221.48,319.117,221.48z"/>
							<circle fill="#4D4D4D" cx="319.115" cy="219.631" r="0.893"/>
						</g>
						<path fill="#969696" d="M320.953,219.426c-0.375-0.629-1.053-1.049-1.836-1.049c-0.785,0-1.469,0.422-1.838,1.051
							c0.096-0.928,0.883-1.65,1.838-1.65C320.07,217.777,320.852,218.5,320.953,219.426z"/>
					</g>
					<path fill="#838282" d="M315.076,218.715c0.004-0.025,0.008-0.051,0.014-0.074c0.031-0.152,0.072-0.301,0.121-0.447
						c0.012-0.029,0.021-0.059,0.031-0.088c0.104-0.291,0.238-0.564,0.399-0.82c0.015-0.023,0.027-0.045,0.043-0.066
						c0.168-0.256,0.363-0.488,0.582-0.699c0.021-0.02,0.041-0.037,0.062-0.057c0.219-0.201,0.463-0.383,0.723-0.533
						c0.029-0.018,0.06-0.033,0.088-0.049c0.129-0.072,0.261-0.139,0.4-0.197c0.002,0,0.004,0,0.006-0.002
						c0.021-0.01,0.043-0.016,0.064-0.023c0.088-0.035,0.178-0.068,0.27-0.096c0.051-0.016,0.104-0.029,0.154-0.043
						c0.065-0.02,0.133-0.037,0.203-0.051c0.057-0.014,0.112-0.023,0.17-0.033c0.065-0.012,0.133-0.021,0.201-0.029
						c0.057-0.01,0.118-0.014,0.178-0.02c0.022-0.002,0.049-0.006,0.072-0.008c0.086-0.006,0.172-0.008,0.256-0.008
						c0.004,0,0.004,0,0.004,0l0,0c0.084,0,0.17,0.002,0.258,0.008c0.023,0.002,0.047,0.006,0.072,0.008
						c0.061,0.006,0.119,0.01,0.178,0.02c0.066,0.008,0.133,0.018,0.197,0.029c0.059,0.01,0.114,0.02,0.174,0.033
						c0.068,0.014,0.137,0.031,0.201,0.051c0.053,0.014,0.104,0.027,0.155,0.043c0.091,0.027,0.181,0.061,0.269,0.096
						c0.021,0.008,0.045,0.014,0.063,0.023c0.003,0.002,0.005,0.002,0.007,0.002c0.139,0.059,0.271,0.125,0.399,0.197
						c0.031,0.016,0.062,0.031,0.088,0.049c0.263,0.15,0.504,0.332,0.724,0.533c0.02,0.02,0.039,0.037,0.059,0.057
						c0.221,0.211,0.414,0.443,0.582,0.699c0.016,0.021,0.031,0.043,0.045,0.066c0.162,0.256,0.297,0.529,0.4,0.82
						c0.01,0.029,0.021,0.059,0.03,0.088c0.048,0.146,0.093,0.295,0.121,0.447c0.007,0.023,0.009,0.049,0.013,0.074
						c0.049,0.25,0.075,0.506,0.075,0.77v1.299h-0.67v-1.299c0-0.291-0.034-0.574-0.102-0.844c-0.029-0.115-0.064-0.225-0.104-0.33
						c-0.01-0.025-0.02-0.049-0.028-0.072c-0.033-0.086-0.068-0.168-0.107-0.248c-0.012-0.025-0.024-0.051-0.035-0.076
						c-0.049-0.088-0.096-0.178-0.151-0.262c-0.004-0.01-0.013-0.02-0.017-0.029c-0.061-0.098-0.129-0.188-0.198-0.277
						c-0.013-0.018-0.025-0.033-0.041-0.049c-0.058-0.068-0.115-0.137-0.181-0.201c-0.02-0.023-0.043-0.045-0.063-0.066
						c-0.063-0.061-0.127-0.119-0.193-0.176c-0.02-0.018-0.037-0.033-0.057-0.049c-0.088-0.07-0.176-0.137-0.271-0.199
						c-0.012-0.008-0.026-0.016-0.041-0.025c-0.078-0.049-0.16-0.098-0.244-0.141c-0.028-0.018-0.059-0.031-0.09-0.047
						c-0.084-0.041-0.172-0.08-0.258-0.113c-0.025-0.01-0.049-0.02-0.076-0.031c-0.11-0.041-0.227-0.076-0.344-0.105
						c-0.023-0.004-0.049-0.01-0.072-0.014c-0.098-0.023-0.194-0.041-0.295-0.055c-0.031-0.004-0.063-0.008-0.096-0.014
						c-0.125-0.014-0.25-0.023-0.375-0.023c-0.127,0-0.252,0.01-0.375,0.023c-0.033,0.006-0.066,0.01-0.101,0.014
						c-0.1,0.014-0.198,0.031-0.295,0.055c-0.022,0.004-0.049,0.01-0.071,0.014c-0.117,0.029-0.23,0.064-0.343,0.105
						c-0.026,0.012-0.053,0.021-0.075,0.031c-0.088,0.033-0.177,0.072-0.261,0.113c-0.028,0.016-0.063,0.029-0.092,0.047
						c-0.082,0.043-0.164,0.092-0.242,0.141c-0.012,0.01-0.026,0.018-0.041,0.025c-0.092,0.063-0.182,0.129-0.27,0.199
						c-0.021,0.016-0.037,0.031-0.06,0.049c-0.063,0.057-0.129,0.115-0.192,0.176c-0.021,0.021-0.041,0.043-0.066,0.066
						c-0.061,0.064-0.121,0.133-0.178,0.201c-0.014,0.016-0.027,0.031-0.041,0.049c-0.07,0.09-0.137,0.18-0.199,0.277
						c-0.004,0.01-0.01,0.02-0.016,0.027c-0.055,0.086-0.104,0.174-0.15,0.264c-0.012,0.025-0.024,0.051-0.037,0.078
						c-0.039,0.078-0.073,0.16-0.106,0.246c-0.012,0.023-0.021,0.047-0.029,0.072c-0.037,0.105-0.074,0.215-0.104,0.33
						c-0.068,0.27-0.104,0.553-0.104,0.844v1.299h-0.666v-1.299C315.004,219.221,315.031,218.965,315.076,218.715z"/>
				</g>
				<g>
					<path fill="#B3B3B3" d="M320.535,215.908v3.545c0,0.721-0.584,1.305-1.303,1.305l0,0c-0.722,0-1.304-0.584-1.304-1.305v-3.545
						H320.535z"/>
					<path fill="#CCCCCC" d="M320.297,215.908v3.545c0,0.721-0.586,1.305-1.303,1.305l0,0c-0.721,0-1.305-0.584-1.305-1.305v-3.545
						H320.297z"/>
				</g>
				<path fill="#838282" d="M319.467,219.652c0,0.195-0.156,0.354-0.354,0.354c-0.193,0-0.351-0.158-0.351-0.354
					c0-0.193,0.156-0.352,0.351-0.352C319.311,219.301,319.467,219.459,319.467,219.652z"/>
			</g>
		</g>
		<g>
			<ellipse fill="#CCCCCC" cx="254.184" cy="174.125" rx="15.697" ry="5.297"/>
			<g>
				<g>
					<g>
						<g>
							<path fill="#595959" d="M236.627,122.186c0.091,0.259-0.001,0.622-0.206,0.806l-0.928,0.833
								c-0.205,0.184-0.446,0.122-0.538-0.138l-2.268-6.461c-0.092-0.259,0-0.622,0.205-0.806l0.922-0.83
								c0.203-0.184,0.445-0.122,0.537,0.137L236.627,122.186z"/>
						</g>
					</g>
				</g>
				<g>
					<polygon fill="#B3B3B3" points="257.186,169.765 257.186,173.225 244.857,173.225 244.857,171.688 250.074,169.765 					"/>
					<path fill="#C65E00" d="M247.848,118.569h9.131c0.926,0,1.679,0.755,1.679,1.684v22.06c0,0.734-0.472,1.352-1.128,1.581v25.871
						h-7.493l-2.611-25.83c-0.721-0.189-1.254-0.84-1.254-1.622v-22.06C246.17,119.324,246.92,118.569,247.848,118.569z"/>
					<path fill="#F8E1A5" d="M232.057,123.66c0-1.661,1.344-2.999,3-2.999c1.658,0,3.004,1.338,3.004,2.999
						c0,1.661-1.346,3.001-3.004,3.001C233.4,126.661,232.057,125.321,232.057,123.66z"/>
					<path fill="#F8E1A5" d="M249.6,101.601h5.135c2.168,0,3.923,1.756,3.923,3.92v6.746v1.938v6.07h-9.269v-2.159
						c-2.068-0.108-3.711-1.817-3.711-3.912v-8.684C245.678,103.356,247.434,101.601,249.6,101.601z"/>
					<path fill="#916F5D" d="M245.689,105.521c0-2.165,1.754-3.92,3.922-3.92h5.322c2.168,0,3.922,1.756,3.922,3.92v6.746
						l-0.015-0.349v0.633h-3.452v-2.316c0-1.229-0.998-2.235-2.236-2.235c-0.813,0-1.525,0.441-1.918,1.089h-1.146l-0.758-1.766
						h-3.644v-1.802H245.689z"/>
					<polygon opacity="0.61" fill="#DEC89B" enable-background="new    " points="249.389,118.116 254.676,118.116 252.266,119.914 
						250.52,120.282 249.389,120.275 					"/>
					<path fill="#FF7F00" d="M250.373,120.313l8.287-1.747h2.521c0.922,0,1.68,0.757,1.68,1.683v22.063
						c0,0.766-0.519,1.405-1.215,1.608v28.226h-8.254l-2.986-29.494c-0.021-0.11-0.033-0.225-0.033-0.34V120.313z"/>
					<polygon fill="#E5E5E5" points="261.178,172.146 261.178,175.93 247.686,175.93 247.686,174.25 253.393,172.146 					"/>
					<path fill="#69525C" d="M247.148,110.379c0,0.383,0.313,0.7,0.699,0.7c0.387,0,0.698-0.316,0.698-0.7
						c0-0.387-0.313-0.703-0.698-0.703S247.148,109.992,247.148,110.379z"/>
					<path opacity="0.61" fill="#ACB2B8" enable-background="new    " d="M246.17,130.616v3.725c1.738,0.71,3.637-1.027,3.637-1.027
						l0.57-0.412l8.283-6.088v-0.283l-8.283,3.484l-1.479,0.622c-0.416,0.173-0.859,0.262-1.303,0.262
						c-0.334,0-0.666-0.047-0.992-0.15L246.17,130.616z"/>
					<g>
						<path fill="#F0F0F0" d="M234.445,127.006l12.156,3.743c0.323,0.103,0.655,0.15,0.989,0.15c0.447,0,0.89-0.089,1.304-0.262
							l10.393-4.372c1.707-0.718,2.51-2.692,1.791-4.404c-0.721-1.708-2.688-2.514-4.4-1.794l-9.264,3.898l-10.814-3.33
							L234.445,127.006z"/>
					</g>
				</g>
			</g>
		</g>
		<g>
			<ellipse fill="#CCCCCC" cx="24.027" cy="405.719" rx="21.345" ry="7.203"/>
			<g>
				<g>
					<g>
						<g>
							<path fill="#595959" d="M47.901,335.091c-0.125,0.353,0.001,0.847,0.28,1.097l1.261,1.133
								c0.278,0.25,0.607,0.164,0.731-0.188l3.084-8.784c0.124-0.354-0.002-0.848-0.28-1.098l-1.252-1.127
								c-0.278-0.25-0.607-0.166-0.731,0.188L47.901,335.091z"/>
						</g>
					</g>
				</g>
				<g>
					<polygon fill="#B3B3B3" points="19.944,399.791 19.944,404.494 36.708,404.494 36.708,402.406 29.615,399.791 					"/>
					<path fill="#C65E00" d="M32.643,330.174H20.227c-1.26,0-2.281,1.027-2.281,2.289v29.998c0,0.998,0.64,1.838,1.532,2.15v35.18
						h10.189l3.552-35.123c0.979-0.258,1.704-1.145,1.704-2.207v-29.998C34.923,331.201,33.903,330.174,32.643,330.174z"/>
					<path fill="#F8E1A5" d="M54.115,337.098c0-2.258-1.827-4.078-4.081-4.078c-2.255,0-4.083,1.82-4.083,4.078
						c0,2.256,1.829,4.08,4.083,4.08C52.288,341.178,54.115,339.354,54.115,337.098z"/>
					<path fill="#F8E1A5" d="M30.261,307.1h-6.982c-2.948,0-5.333,2.39-5.333,5.332v9.172v2.638v8.254h12.601v-2.937
						c2.814-0.147,5.047-2.471,5.047-5.317v-11.81C35.593,309.488,33.206,307.1,30.261,307.1z"/>
					<path fill="#916F5D" d="M35.578,312.432c0-2.942-2.386-5.332-5.333-5.332h-7.237c-2.948,0-5.333,2.39-5.333,5.332v9.172
						l0.019-0.475v0.861h4.694v-3.15c0-1.67,1.357-3.037,3.042-3.037c1.104,0,2.073,0.6,2.608,1.48h1.556l1.031-2.4h4.953V312.432z"
						/>
					<polygon opacity="0.61" fill="#DEC89B" enable-background="new    " points="30.546,329.559 23.358,329.559 26.635,332.004 
						29.01,332.502 30.546,332.494 					"/>
					<path fill="#FF7F00" d="M29.209,332.547L17.94,330.17h-3.429c-1.255,0-2.284,1.031-2.284,2.289v30.002
						c0,1.041,0.704,1.912,1.652,2.186v38.381h11.224l4.061-40.104c0.029-0.147,0.045-0.305,0.045-0.461V332.547z"/>
					<polygon fill="#E5E5E5" points="14.517,403.027 14.517,408.172 32.863,408.172 32.863,405.889 25.103,403.027 					"/>
					<path fill="#69525C" d="M33.594,319.037c0,0.52-0.428,0.951-0.951,0.951c-0.526,0-0.951-0.432-0.951-0.951
						c0-0.525,0.425-0.957,0.951-0.957C33.166,318.08,33.594,318.512,33.594,319.037z"/>
					<path opacity="0.61" fill="#ACB2B8" enable-background="new    " d="M34.923,346.555v5.066
						c-2.364,0.965-4.945-1.396-4.945-1.396l-0.774-0.561l-11.265-8.277v-0.385l11.265,4.736l2.01,0.846
						c0.566,0.236,1.168,0.355,1.771,0.355c0.454,0,0.906-0.064,1.349-0.203L34.923,346.555z"/>
					<g>
						<path fill="#F0F0F0" d="M50.867,341.646l-16.53,5.09c-0.442,0.139-0.894,0.203-1.348,0.203c-0.607,0-1.207-0.119-1.77-0.355
							l-14.132-5.943c-2.322-0.979-3.413-3.66-2.437-5.99c0.981-2.321,3.654-3.418,5.985-2.438l12.595,5.302l14.706-4.525
							L50.867,341.646z"/>
					</g>
				</g>
			</g>
		</g>
		<g>
			<rect x="322.67" y="287.441" fill="#355880" width="18.695" height="31.834"/>
			<g>
				<path fill="#2F3842" d="M275.652,238.463h-14.508v-4.154h14.508c2.311,0,4.188-1.875,4.188-4.184v-9.4
					c0-2.307-1.879-4.182-4.188-4.182h-14.508v-4.154h14.508c4.604,0,8.342,3.74,8.342,8.336v9.4
					C283.994,234.723,280.258,238.463,275.652,238.463z"/>
			</g>
			<rect x="275.541" y="220.305" fill="#355880" width="34.303" height="10.242"/>
			<path fill="#FC8C42" d="M335.824,253.777c-3.431,3.428-8.986,3.428-12.418,0l-22.326-22.331c-3.434-3.432-3.434-8.99,0-12.42l0,0
				c3.426-3.428,8.986-3.428,12.414,0l22.33,22.33C339.256,244.787,339.256,250.346,335.824,253.777L335.824,253.777z"/>
			<path fill="#FC8C42" d="M317.381,272.938c0,4.849-3.934,8.779-8.781,8.781l-14.016-0.002c-4.848,0-8.777-3.932-8.777-8.779l0,0
				c0-4.854,3.93-8.783,8.777-8.783h14.014C313.447,264.154,317.381,268.084,317.381,272.938L317.381,272.938z"/>
			
				<rect x="312.279" y="239.987" transform="matrix(-0.7071 -0.7071 0.7071 -0.7071 355.5332 666.4332)" fill="#355880" width="7.002" height="39.202"/>
			<path fill="#2F3842" d="M334.85,246.408c0,3.365-2.725,6.092-6.09,6.092c-3.362,0-6.09-2.727-6.09-6.092
				c0-3.361,2.728-6.09,6.09-6.09C332.125,240.318,334.85,243.047,334.85,246.408z"/>
			<path fill="#2F3842" d="M308.252,273.01c0,3.361-2.729,6.088-6.09,6.088c-3.365,0-6.092-2.727-6.092-6.088
				c0-3.363,2.727-6.09,6.092-6.09C305.521,266.92,308.252,269.646,308.252,273.01z"/>
			<g>
				<rect x="280.779" y="313.551" fill="#2F3842" width="20.944" height="5.725"/>
				<rect x="280.779" y="281.719" fill="#2F3842" width="20.944" height="5.723"/>
				<rect x="301.725" y="313.551" fill="#181C21" width="20.945" height="5.725"/>
				<rect x="301.725" y="281.719" fill="#181C21" width="20.945" height="5.723"/>
				<rect x="301.725" y="287.441" fill="#B05B13" width="20.945" height="26.108"/>
				<rect x="280.779" y="287.441" fill="#FC8C42" width="20.944" height="26.108"/>
			</g>
			<path fill="#FFFFFF" d="M303.947,273.01c0,0.986-0.799,1.791-1.785,1.791c-0.99,0-1.789-0.805-1.789-1.791
				s0.799-1.787,1.789-1.787C303.148,271.223,303.947,272.023,303.947,273.01z"/>
			<circle fill="#FFFFFF" cx="328.76" cy="246.41" r="1.789"/>
			<path fill="#2F3842" d="M313.869,225.426c0,3.363-2.73,6.09-6.094,6.09c-3.359,0-6.091-2.727-6.091-6.09
				c0-3.361,2.73-6.09,6.091-6.09C311.139,219.336,313.869,222.064,313.869,225.426z"/>
			<path fill="#FFFFFF" d="M309.566,225.43c0,0.986-0.802,1.787-1.789,1.787c-0.988,0-1.789-0.801-1.789-1.787
				c0-0.992,0.801-1.793,1.789-1.793C308.765,223.637,309.566,224.438,309.566,225.43z"/>
			<path fill="#FFFFFF" d="M283.994,225.43c0,0.986-0.801,1.787-1.789,1.787c-0.99,0-1.787-0.801-1.787-1.787
				c0-0.992,0.797-1.793,1.787-1.793C283.193,223.637,283.994,224.438,283.994,225.43z"/>
			<path fill="#FDD48E" d="M325.707,257.406h-7.258v0.014h-14.031c-2.309,0-4.188-1.877-4.188-4.184V230.5h-4.154v22.736
				c0,4.598,3.744,8.342,8.342,8.342h14.031v-0.018h7.258c2.307,0,4.186,1.877,4.186,4.184v53.531h4.154v-53.531
				C334.047,261.146,330.307,257.406,325.707,257.406z"/>
		</g>
		<g>
			<g>
				<g>
					<polygon fill="#CCCCCC" points="331.84,403.414 331.85,407.59 346.738,407.561 346.738,405.703 340.436,403.402 					"/>
					<polygon fill="#E5E5E5" points="328.801,403.414 328.795,407.59 313.902,407.561 313.904,405.703 320.207,403.402 					"/>
					<path fill="#F8E1A5" d="M341.539,313.645c-0.523-0.313-1.221-0.199-1.879,0.219v-5.211c0-2.817-2.283-5.1-5.098-5.1h-8.378
						c-2.815,0-5.098,2.281-5.098,5.1v5.017c-0.549-0.252-1.1-0.283-1.527-0.022c-0.899,0.543-0.94,2.117-0.098,3.52
						c0.439,0.729,1.031,1.26,1.625,1.533v0.602c0,2.625,2.131,6.367,4.57,7.627v1.795h-0.76c-2.187,0-3.957,1.16-3.957,2.59v4.258
						c0,1.429,1.771,2.586,3.957,2.586h10.432c2.186,0,3.957-1.157,3.957-2.586v-4.258c0-1.43-1.771-2.59-3.957-2.59h-0.24v-1.824
						c2.396-1.373,4.57-4.975,4.57-7.598v-0.467c0.703-0.199,1.447-0.799,1.973-1.668
						C342.48,315.762,342.439,314.188,341.539,313.645z"/>
					<path fill="#69525C" d="M324.668,315.189c0.004,0.549,0.439,0.983,0.984,0.983c0.539,0,0.983-0.444,0.979-0.983
						c0-0.543-0.438-0.98-0.981-0.98C325.105,314.211,324.668,314.646,324.668,315.189z"/>
					<path fill="#69525C" d="M333.938,315.189c0.003,0.549,0.441,0.983,0.984,0.983c0.541,0,0.984-0.444,0.98-0.983
						c0-0.543-0.441-0.98-0.982-0.98C334.375,314.211,333.938,314.646,333.938,315.189z"/>
					<g opacity="0.61">
						<path fill="#DEC89B" d="M335.09,330.027c0-0.685,0-3.131,0-3.131c-0.174,0.1-0.35,0.221-0.527,0.295
							c-2.01,0.852-6.168,0.785-8.377,0c-0.178-0.063-0.352-0.144-0.526-0.232C325.658,326.959,329.18,330.348,335.09,330.027z"/>
					</g>
					<path fill="#916F5D" d="M330.203,301.781c-4.826,0-8.303,1.229-9.527,3.775c-0.979,2.032-1.438,9.625,0.123,12.51
						c0.273,0.51,1.256-0.65,1.467-1.793c0.41-2.246-0.862-6.678,1.08-7.881c1.679-1.033,3.572,1.75,6.857,1.75
						c3.002,0,5.119-2.783,6.74-1.75c1.858,1.188,1.067,5.25,1.477,7.416c0.154,0.825,0.836,2.618,1.326,2.422
						c0.815-2.422,1.383-9.943,0.442-11.994C339.053,303.752,335.029,301.781,330.203,301.781z"/>
					<g>
						<path fill="#FF7F00" d="M324.201,328.691c-1.328,0-6.23,0.526-6.23,1.809v31.891c0,0.566,0.22,1.078,0.568,1.482l1.137,39.563
							h9.312l1.114-38.725h0.273v-32.514c0.209,0.016,0.422,0.031,0.637,0.031C326.699,332.229,324.201,328.691,324.201,328.691z"/>
						<path fill="#C65E00" d="M342.779,330.5c0-1.281-4.898-1.809-6.229-1.809c0,0-1.426,3.537-5.539,3.537
							c-0.215,0-0.428-0.017-0.637-0.031v32.514h0.336l1.115,38.725h9.309l1.144-39.637c0.311-0.391,0.502-0.875,0.502-1.408V330.5z
							"/>
					</g>
				</g>
				<path fill="#F0F0F0" d="M346.996,339.535c0,0,4.807,13.504,3.803,17.887c-0.498,2.178-7.914-4.576-7.914-4.576L346.996,339.535z
					"/>
				<path fill="#F0F0F0" d="M312.295,339.535c0,0-4.576,13.504-3.947,18.012c0.308,2.211,8.06-4.701,8.06-4.701L312.295,339.535z"/>
			</g>
			<g>
				<rect x="312.27" y="329.072" fill="#FFC35A" width="34.648" height="34.645"/>
				<polygon fill="#FF9D00" points="346.918,363.717 312.27,363.717 346.918,329.072 				"/>
			</g>
			<g>
				<path fill="#F8E1A5" d="M316.252,357.885c0-2.313-1.869-4.176-4.178-4.176c-2.31,0-4.183,1.863-4.183,4.176
					c0,2.313,1.873,4.18,4.183,4.18C314.383,362.064,316.252,360.197,316.252,357.885z"/>
				<path fill="#F8E1A5" d="M352.154,357.885c0-2.313-1.869-4.176-4.181-4.176c-2.309,0-4.18,1.863-4.18,4.176
					c0,2.313,1.871,4.18,4.18,4.18C350.285,362.064,352.154,360.197,352.154,357.885z"/>
			</g>
		</g>
		<g>
			<path fill="#CCCCCC" d="M348.371,430.635c0,4.945-31.064,8.967-69.389,8.967c-38.325,0-69.392-4.021-69.392-8.967
				c0-4.953,31.066-8.971,69.392-8.971C317.307,421.664,348.371,425.682,348.371,430.635z"/>
			<g>
				<g>
					<g>
						<rect x="237.572" y="380.357" fill="#FFC35A" width="31.205" height="31.209"/>
						<polygon fill="#FF9D00" points="268.777,411.566 237.572,411.566 268.777,380.357 						"/>
					</g>
					<g>
						<rect x="268.777" y="380.357" fill="#FFC35A" width="31.209" height="31.209"/>
						<polygon fill="#FF9D00" points="299.986,411.566 268.777,411.566 299.986,380.357 						"/>
					</g>
					<g>
						<rect x="299.986" y="380.357" fill="#FFC35A" width="31.209" height="31.209"/>
						<polygon fill="#FF9D00" points="331.195,411.566 299.986,411.566 331.195,380.357 						"/>
					</g>
				</g>
				<g>
					<g>
						<rect x="253.176" y="348.82" fill="#FFC35A" width="31.209" height="31.209"/>
						<polygon fill="#FF9D00" points="284.385,380.029 253.176,380.029 284.385,348.82 						"/>
					</g>
					<g>
						<rect x="284.385" y="348.82" fill="#FFC35A" width="31.207" height="31.209"/>
						<polygon fill="#FF9D00" points="315.592,380.029 284.385,380.029 315.592,348.82 						"/>
					</g>
				</g>
				<g>
					<rect x="229.342" y="411.85" fill="#F8D974" width="110.082" height="4.396"/>
					<rect x="229.342" y="424.84" fill="#F8D974" width="110.082" height="4.402"/>
					<rect x="323.215" y="416.246" fill="#E5C368" width="16.209" height="8.594"/>
					<rect x="276.275" y="416.246" fill="#E5C368" width="16.215" height="8.594"/>
					<rect x="229.342" y="416.246" fill="#E5C368" width="16.213" height="8.594"/>
					<rect x="323.215" y="416.246" opacity="0.57" fill="#E6D3B6" enable-background="new    " width="16.209" height="3.475"/>
					<rect x="276.275" y="416.246" opacity="0.57" fill="#E6D3B6" enable-background="new    " width="16.215" height="3.475"/>
					<rect x="229.342" y="416.246" opacity="0.57" fill="#E6D3B6" enable-background="new    " width="16.213" height="3.475"/>
				</g>
			</g>
		</g>
		<g>
			<g>
				<path fill="#CCCCCC" d="M280.619,484.398c0,4.35-48.436,7.872-108.189,7.872c-59.749,0-108.187-3.522-108.187-7.872
					c0-4.345,48.438-7.871,108.187-7.871C232.184,476.527,280.619,480.055,280.619,484.398z"/>
				<g>
					<rect x="135.561" y="447.508" fill="#181C21" width="129.667" height="24.822"/>
					<path fill="#B3B3B3" d="M93.603,379.721l-25.039,46.306v46.305h14.243l0,0c0-10.637,8.621-19.252,19.255-19.252
						c10.636,0,19.255,8.615,19.255,19.252l0,0h14.244v-92.608H93.603V379.721z"/>
					<path fill="#2F3842" d="M126.32,434.77c0,1.101-0.891,1.988-1.987,1.988h-10.656c-1.093,0-1.985-0.889-1.985-1.988l0,0
						c0-1.096,0.892-1.977,1.985-1.977h10.656C125.429,432.793,126.32,433.674,126.32,434.77L126.32,434.77z"/>
					<path fill="#181C21" d="M85.306,462.85H63.11v4.836c0,2.566,2.079,4.646,4.641,4.646h15.055l0,0
						C82.806,468.885,83.718,465.648,85.306,462.85z"/>
					<path fill="#181C21" d="M102.062,453.078c-7.188,0-13.45,3.936-16.756,9.771c-1.588,2.8-2.5,6.035-2.5,9.48l0,0h0.224h38.287
						l0,0C121.317,461.693,112.697,453.078,102.062,453.078z"/>
					<g>
						<path fill="#2F3842" d="M88.102,472.33c0,7.713,6.251,13.965,13.959,13.965c7.715,0,13.966-6.252,13.966-13.965
							c0-7.711-6.251-13.965-13.966-13.965C94.353,458.365,88.102,464.619,88.102,472.33z"/>
						<g>
							<path fill="#FFFFFF" d="M110.164,472.33c0,4.471-3.627,8.092-8.102,8.092v-16.186
								C106.537,464.236,110.164,467.859,110.164,472.33z"/>
							<path fill="#D5D8D8" d="M102.062,464.236v16.186c-4.465,0-8.09-3.621-8.09-8.092S97.596,464.236,102.062,464.236z"/>
						</g>
					</g>
					<path fill="#FC8C42" d="M74.023,452.146c0-2.559-2.079-4.639-4.643-4.639h-0.817v9.479h5.459L74.023,452.146L74.023,452.146z"
						/>
					<path fill="#FC8C42" d="M259.768,462.199c0-2.564,2.084-4.642,4.648-4.642h0.813v9.479h-5.461V462.199z"/>
					<g>
						<circle fill="#2F3842" cx="231.713" cy="472.33" r="13.963"/>
						<g>
							<path fill="#FFFFFF" d="M239.809,472.33c0,4.471-3.623,8.092-8.096,8.092v-16.186
								C236.186,464.236,239.809,467.859,239.809,472.33z"/>
							<path fill="#D5D8D8" d="M231.713,464.236v16.186c-4.465,0-8.098-3.621-8.098-8.092S227.248,464.236,231.713,464.236z"/>
						</g>
					</g>
					<g>
						<path fill="#999999" d="M197.41,460.426c0-2.438-1.973-4.414-4.412-4.414H154.66c-2.441,0-4.411,1.976-4.411,4.414v6.611
							h47.162L197.41,460.426L197.41,460.426z"/>
						<path fill="#666666" d="M150.249,467.037v6.615c0,2.438,1.97,4.407,4.411,4.407h38.338c2.439,0,4.412-1.969,4.412-4.407
							v-6.615H150.249z"/>
					</g>
					<polygon fill="#FAFEFF" points="197.41,465.494 186.453,465.494 186.453,456.012 183.365,456.012 183.365,465.494 
						164.29,465.494 164.29,456.012 161.206,456.012 161.206,465.494 150.249,465.494 150.249,468.58 161.206,468.58 
						161.206,478.061 164.29,478.061 164.29,468.58 183.365,468.58 183.365,478.061 186.453,478.061 186.453,468.58 197.41,468.58 
											"/>
					<g>
						<polygon fill="#D5D8D8" points="126.32,389.865 126.32,426.025 98.249,426.025 117.8,389.865 						"/>
						<polygon fill="#FFFFFF" points="99.388,389.865 117.8,389.865 98.249,426.025 90.157,426.025 79.837,426.025 						"/>
					</g>
					<polygon fill="#2F9BF4" points="277.34,365.609 277.34,408.703 277.34,453.139 135.561,453.139 135.561,408.703 
						135.561,365.609 					"/>
					<g opacity="0.42">
						<path fill="#E0F2FC" d="M135.561,382.912c13.115,20.99,26.195,33.479,51.191,24.199
							c28.834-10.699,42.621-18.201,60.416-14.486c7.742,1.617,18.129,4.332,30.172,10.215v9.664
							c-27.631-7.08-47.348-4.9-64.619,10.246c-11.389,9.984-21.697,22.496-35.242,28.957c-1.08,0.514-2.167,0.992-3.263,1.432
							h-38.655V382.912L135.561,382.912z"/>
						
							<radialGradient id="SVGID_1_" cx="160.75" cy="-313.6836" r="96.8876" gradientTransform="matrix(-1 0 0 -1 450.8516 103.04)" gradientUnits="userSpaceOnUse">
							<stop  offset="0" style="stop-color:#FFFFFF"/>
							<stop  offset="0.08" style="stop-color:#FFFFFF"/>
							<stop  offset="0.65" style="stop-color:#D9EFF5"/>
							<stop  offset="0.88" style="stop-color:#B7E3EF"/>
							<stop  offset="1" style="stop-color:#44C5E9"/>
						</radialGradient>
						<path fill="url(#SVGID_1_)" d="M135.561,395.338c13.854,27.197,30.93,46.418,72.805,18.178
							c15.12-10.19,34.271-18.131,55.586-11.225c4.782,1.557,9.184,3.777,13.389,6.4v3.449c-2.284-0.558-4.575-1.103-6.731-1.74
							c-28.402-8.438-48.582-1.457-64.254,14.819c-12.912,13.416-23.91,22.703-34.223,27.918h-36.571L135.561,395.338
							L135.561,395.338z"/>
					</g>
				</g>
			</g>
			<g>
				<path fill="#FFFFFF" d="M198.902,440.619c0.451,0.096,0.676,0.172,0.676,0.229c0,0.063-0.038,0.113-0.115,0.151
					c-0.053,0.051-0.083,0.12-0.089,0.208c-0.042,0.684-0.095,1.246-0.161,1.688c-0.047,0.24-0.101,0.487-0.16,0.74
					c-0.018,0.063-0.035,0.095-0.053,0.095c-0.202-0.069-0.375-0.117-0.518-0.142c-0.053-0.014-0.08-0.045-0.08-0.096
					c0.09-0.322,0.17-0.68,0.24-1.071c0.078-0.379,0.137-0.941,0.179-1.688C198.821,440.658,198.848,440.619,198.902,440.619z
					 M200.006,438.534c0.451,0,0.678,0.034,0.678,0.104c0,0.088-0.033,0.136-0.098,0.143c-0.061,0.006-0.09,0.075-0.09,0.208v8.296
					c0,0.082-0.045,0.123-0.133,0.123h-0.357c-0.101,0-0.15-0.041-0.15-0.123v-8.646
					C199.855,438.568,199.905,438.534,200.006,438.534z M201.28,440.619c0.06,0,0.099,0.01,0.116,0.029
					c0.207,0.442,0.395,0.913,0.561,1.412c0,0.089-0.018,0.139-0.053,0.152c-0.221,0.145-0.39,0.218-0.508,0.218
					c-0.179-0.606-0.348-1.109-0.508-1.507C200.889,440.848,201.02,440.746,201.28,440.619z M202.064,440.127h1.568v-1.526
					c0-0.069,0.014-0.104,0.044-0.104c0.522,0.07,0.784,0.117,0.784,0.143c0,0.063-0.027,0.098-0.08,0.104
					c-0.072,0.051-0.107,0.133-0.107,0.247v1.138h1.72c0.095,0,0.143,0.035,0.143,0.104v2.845h0.677
					c0.065,0,0.098,0.051,0.098,0.151v0.304c0,0.107-0.032,0.161-0.098,0.161h-2.485c0.202,0.537,0.389,0.971,0.562,1.299
					c0.189,0.367,0.395,0.67,0.614,0.91c0.202,0.24,0.415,0.442,0.642,0.607c0.201,0.164,0.424,0.313,0.668,0.445
					c0,0.044-0.026,0.078-0.08,0.104c-0.096,0.096-0.178,0.205-0.25,0.332c-0.023,0.038-0.068,0.057-0.133,0.057
					c-0.297-0.164-0.592-0.375-0.883-0.635c-0.236-0.24-0.46-0.506-0.668-0.797c-0.195-0.271-0.386-0.594-0.57-0.967
					c-0.082-0.184-0.168-0.385-0.258-0.606c-0.071,0.253-0.164,0.487-0.276,0.702c-0.226,0.461-0.525,0.878-0.899,1.251
					c-0.273,0.31-0.704,0.647-1.292,1.015c-0.036,0-0.068-0.029-0.099-0.086c-0.094-0.107-0.192-0.199-0.293-0.275
					c-0.048-0.031-0.072-0.063-0.072-0.094c0.654-0.411,1.1-0.752,1.337-1.024c0.279-0.29,0.511-0.612,0.694-0.967
					c0.179-0.329,0.315-0.752,0.41-1.271h-1.978c-0.071,0-0.106-0.054-0.106-0.161v-0.304c0-0.101,0.035-0.151,0.106-0.151h2.067
					c0.041-0.335,0.063-0.673,0.063-1.015v-1.336h-1.568c-0.071,0-0.107-0.048-0.107-0.143v-0.313
					C201.957,440.174,201.993,440.127,202.064,440.127z M204.273,440.725v1.336c0,0.316-0.018,0.654-0.053,1.015h1.265v-2.351
					H204.273z"/>
				<path fill="#FFFFFF" d="M207.882,443.189h1.604c0.089,0,0.134,0.041,0.134,0.123v2.228c0.006,0.222,0.035,0.386,0.089,0.493
					c0.048,0.12,0.118,0.209,0.214,0.266c0.119,0.082,0.262,0.139,0.428,0.17c0.226,0.045,0.469,0.066,0.73,0.066h2.021
					c0.791,0,1.723-0.092,2.798-0.274c0.048-0.019,0.093-0.028,0.134-0.028c0.047,0,0.071,0.012,0.071,0.037
					c-0.071,0.26-0.125,0.521-0.161,0.787c-0.012,0.102-0.064,0.152-0.16,0.152h-4.703c-0.202,0-0.398-0.016-0.588-0.048
					c-0.185-0.038-0.369-0.085-0.553-0.142c-0.16-0.063-0.309-0.155-0.445-0.275c-0.096-0.088-0.199-0.246-0.313-0.475l-0.018-0.037
					c-0.041,0-0.064,0.006-0.07,0.019c-0.588,0.544-0.909,0.907-0.963,1.091c-0.018,0.044-0.045,0.066-0.08,0.066
					s-0.151-0.165-0.348-0.493c-0.029-0.058-0.044-0.124-0.044-0.199c0.345-0.177,0.769-0.493,1.274-0.948
					c0.029-0.031,0.044-0.107,0.044-0.228v-1.735h-1.096c-0.077,0-0.116-0.053-0.116-0.16v-0.295
					C207.766,443.242,207.805,443.189,207.882,443.189z M208.193,440.648c0.339,0.202,0.615,0.389,0.828,0.559
					c0.25,0.215,0.461,0.412,0.633,0.588c0,0.007-0.015,0.032-0.045,0.076c-0.172,0.271-0.264,0.408-0.275,0.408
					c-0.273-0.271-0.564-0.521-0.873-0.75c-0.25-0.176-0.457-0.306-0.624-0.389c0-0.031,0.095-0.174,0.285-0.426
					C208.152,440.67,208.176,440.648,208.193,440.648z M208.479,438.601c0.309,0.183,0.564,0.351,0.766,0.503
					c0.232,0.195,0.432,0.373,0.598,0.53c0,0.007-0.016,0.032-0.045,0.075c-0.178,0.279-0.27,0.418-0.275,0.418
					c-0.256-0.246-0.526-0.475-0.812-0.683c-0.231-0.165-0.427-0.281-0.588-0.351c0-0.031,0.095-0.174,0.285-0.427
					C208.438,438.623,208.461,438.601,208.479,438.601z M210.438,439.368h2.316v-0.768c0-0.069,0.05-0.104,0.151-0.104
					c0.451,0,0.678,0.035,0.678,0.104c0,0.089-0.033,0.136-0.099,0.142c-0.06,0.014-0.089,0.082-0.089,0.209v0.417h2.423
					c0.077,0,0.116,0.048,0.116,0.143v0.304c0,0.101-0.039,0.151-0.116,0.151h-2.423v0.759h1.889c0.095,0,0.143,0.041,0.143,0.123
					v2.161c0,0.069-0.048,0.104-0.143,0.104h-1.613c0.125,0.209,0.256,0.398,0.393,0.568c0.226,0.271,0.451,0.487,0.677,0.645
					c0.31,0.26,0.681,0.471,1.114,0.636c0.053,0.013,0.08,0.032,0.08,0.057c0,0.038-0.018,0.076-0.054,0.114
					c-0.137,0.113-0.255,0.227-0.356,0.341c-0.029,0.044-0.063,0.066-0.098,0.066c-0.327-0.133-0.598-0.288-0.811-0.464
					c-0.303-0.215-0.582-0.478-0.838-0.787c-0.119-0.139-0.246-0.311-0.383-0.512v2.256c0,0.082-0.045,0.123-0.134,0.123h-0.356
					c-0.102,0-0.151-0.041-0.151-0.123v-2.285c-0.024,0.032-0.048,0.061-0.071,0.086c-0.208,0.277-0.419,0.524-0.633,0.739
					c-0.249,0.228-0.525,0.437-0.828,0.626c-0.369,0.227-0.579,0.341-0.633,0.341c-0.041,0-0.083-0.041-0.125-0.123
					c-0.089-0.114-0.189-0.23-0.303-0.351c-0.053-0.057-0.08-0.098-0.08-0.123c0.41-0.164,0.754-0.332,1.033-0.503
					c0.285-0.177,0.57-0.404,0.855-0.683c0.137-0.152,0.3-0.367,0.49-0.645h-1.515c-0.101,0-0.151-0.035-0.151-0.104v-2.161
					c0-0.082,0.051-0.123,0.151-0.123h1.809v-0.759h-2.316c-0.071,0-0.106-0.051-0.106-0.151v-0.304
					C210.332,439.416,210.367,439.368,210.438,439.368z M212.755,442.516v-1.176h-1.31v1.176H212.755z M214.795,442.516v-1.176
					h-1.398v1.176H214.795z"/>
				<path fill="#FFFFFF" d="M221.69,443.805h-1.462v-1.555h1.462V443.805z"/>
				<path fill="#FFFFFF" d="M226.402,440.345c0.315,0.151,0.57,0.288,0.767,0.407c0.231,0.165,0.431,0.307,0.597,0.428
					c0,0.012-0.015,0.037-0.044,0.075c-0.179,0.259-0.273,0.389-0.285,0.389c-0.249-0.202-0.511-0.389-0.784-0.56
					c-0.226-0.133-0.416-0.227-0.57-0.284c0-0.031,0.084-0.161,0.25-0.389C226.361,440.367,226.385,440.345,226.402,440.345z
					 M226.198,445.057h3.777v-0.616c0-0.075,0.044-0.114,0.134-0.114c0.457,0,0.686,0.039,0.686,0.114
					c0,0.089-0.029,0.14-0.089,0.151c-0.065,0.007-0.099,0.07-0.099,0.189v0.275h3.279c0.07,0,0.106,0.047,0.106,0.143v0.303
					c0,0.102-0.036,0.152-0.106,0.152h-3.279v1.754c0,0.069-0.047,0.104-0.143,0.104h-0.355c-0.09,0-0.134-0.034-0.134-0.104v-1.754
					h-3.777c-0.077,0-0.116-0.051-0.116-0.152v-0.303C226.082,445.104,226.121,445.057,226.198,445.057z M228.158,441.861
					c0.018,0,0.032,0.025,0.045,0.076c0.136,0.311,0.204,0.475,0.204,0.493c0,0.032-0.018,0.06-0.054,0.085
					c-0.314,0.437-0.614,0.81-0.899,1.119c-0.154,0.17-0.341,0.359-0.562,0.568c-0.041,0.051-0.063,0.117-0.063,0.199
					s-0.023,0.123-0.07,0.123c-0.036,0-0.205-0.184-0.508-0.549c-0.03-0.02-0.048-0.055-0.054-0.105c0-0.025,0.015-0.05,0.044-0.075
					c0.185-0.114,0.365-0.253,0.544-0.417c0.255-0.229,0.505-0.486,0.748-0.777c0.214-0.247,0.401-0.478,0.562-0.692
					C228.113,441.877,228.135,441.861,228.158,441.861z M227.08,438.715c0.285,0.15,0.52,0.287,0.703,0.407
					c0.215,0.164,0.396,0.307,0.544,0.427c0,0.012-0.015,0.037-0.044,0.076c-0.173,0.252-0.262,0.379-0.268,0.379
					c-0.232-0.196-0.476-0.379-0.73-0.551c-0.208-0.133-0.383-0.227-0.525-0.283c0-0.032,0.086-0.162,0.258-0.389
					C227.041,438.736,227.063,438.715,227.08,438.715z M229.859,438.373c0.428,0.234,0.642,0.373,0.642,0.417
					c0,0.063-0.015,0.095-0.044,0.095c-0.084,0.006-0.137,0.041-0.161,0.104c-0.118,0.259-0.229,0.487-0.329,0.683h1.434
					c0.078-0.12,0.137-0.219,0.179-0.294c0.095-0.202,0.185-0.448,0.267-0.739c0.012-0.045,0.03-0.066,0.055-0.066
					c0.498,0.227,0.748,0.354,0.748,0.379s-0.039,0.047-0.116,0.066c-0.071,0.013-0.125,0.057-0.161,0.133
					c-0.07,0.17-0.154,0.344-0.248,0.521h1.701c0.041,0,0.063,0.037,0.063,0.113v0.304c0,0.075-0.021,0.114-0.063,0.114h-1.826
					v0.682h1.604c0.047,0,0.07,0.039,0.07,0.114v0.304c0,0.094-0.023,0.143-0.07,0.143h-1.604v0.653h1.604
					c0.047,0,0.07,0.038,0.07,0.114v0.303c0,0.096-0.023,0.143-0.07,0.143h-1.604v0.691h1.995c0.048,0,0.071,0.035,0.071,0.105
					v0.313c0,0.095-0.023,0.143-0.071,0.143h-4.241v0.379c0,0.076-0.044,0.113-0.133,0.113h-0.294c-0.089,0-0.134-0.037-0.134-0.113
					v-3.546c-0.16,0.183-0.365,0.396-0.615,0.636c-0.053,0-0.104-0.029-0.15-0.086c-0.084-0.076-0.167-0.152-0.25-0.228
					c-0.035-0.032-0.053-0.066-0.053-0.104c0.201-0.202,0.403-0.414,0.605-0.635c0.273-0.285,0.504-0.604,0.694-0.958
					c0.179-0.31,0.312-0.612,0.401-0.91C229.83,438.401,229.842,438.373,229.859,438.373z M231.356,440.885v-0.682h-1.604v0.682
					H231.356z M231.356,442.099v-0.653h-1.604v0.653H231.356z M229.752,443.35h1.604v-0.691h-1.604V443.35z"/>
				<path fill="#FFFFFF" d="M235.4,439.254h2.441c0.077,0,0.115,0.051,0.115,0.152v0.303c0,0.096-0.038,0.143-0.115,0.143h-0.993
					c-0.171,0.689-0.313,1.229-0.426,1.621c-0.054,0.165-0.106,0.32-0.159,0.465h1.543c0.101,0,0.15,0.041,0.15,0.123v4.275
					c0,0.076-0.049,0.114-0.148,0.114h-0.352c-0.07,0-0.105-0.038-0.105-0.114v-0.482h-0.891v1.137c0,0.07-0.05,0.105-0.149,0.105
					h-0.351c-0.07,0-0.105-0.035-0.105-0.105V443c-0.143,0.309-0.285,0.578-0.428,0.805c-0.065,0-0.116-0.021-0.152-0.066
					c-0.118-0.119-0.234-0.23-0.347-0.331c-0.019-0.044-0.026-0.076-0.026-0.095c0.166-0.246,0.309-0.484,0.428-0.711
					c0.16-0.311,0.326-0.73,0.498-1.262c0.095-0.303,0.23-0.799,0.408-1.488H235.4c-0.07,0-0.106-0.047-0.106-0.143v-0.303
					C235.294,439.305,235.33,439.254,235.4,439.254z M236.461,445.236h0.891v-2.683h-0.891V445.236z M238.377,439.549h1.553
					c0.006-0.02,0.009-0.031,0.009-0.038c0.077-0.272,0.118-0.565,0.125-0.882c0-0.038,0.018-0.057,0.054-0.057
					c0.5,0.102,0.75,0.161,0.75,0.18c0,0.107-0.036,0.161-0.107,0.161c-0.102,0.007-0.152,0.058-0.152,0.151
					c-0.029,0.172-0.063,0.332-0.098,0.484h2.499c0.095,0,0.143,0.041,0.143,0.123v1.593c0,0.075-0.048,0.114-0.145,0.114h-0.362
					c-0.066,0-0.1-0.039-0.1-0.114v-1.138h-2.164c-0.023,0.088-0.048,0.174-0.071,0.256c-0.161,0.506-0.384,0.998-0.668,1.479h1.202
					c0.102-0.164,0.182-0.318,0.24-0.465c0.09-0.258,0.164-0.498,0.223-0.72c0.013-0.038,0.036-0.058,0.072-0.058l0.558,0.313
					c0.047,0.038,0.07,0.069,0.07,0.095c0,0.045-0.023,0.07-0.07,0.076c-0.071,0.006-0.112,0.035-0.124,0.085
					c-0.07,0.202-0.168,0.427-0.291,0.673h1.309c0.048,0,0.072,0.038,0.072,0.114v0.304c0,0.101-0.024,0.151-0.072,0.151h-1.282
					v0.958h1.212c0.053,0,0.08,0.034,0.08,0.104v0.313c0,0.096-0.027,0.143-0.08,0.143h-1.212v0.996h1.212
					c0.053,0,0.08,0.037,0.08,0.113v0.303c0,0.096-0.027,0.143-0.08,0.143h-1.212v0.91h1.567c0.048,0,0.072,0.041,0.072,0.123v0.295
					c0,0.107-0.024,0.16-0.072,0.16h-3.456v0.295c0,0.082-0.046,0.123-0.136,0.123h-0.361c-0.072,0-0.109-0.041-0.109-0.123v-4.58
					c-0.09,0.114-0.186,0.219-0.285,0.313c-0.082,0.063-0.142,0.095-0.178,0.095c-0.083,0-0.139-0.021-0.169-0.066
					c-0.119-0.076-0.229-0.146-0.329-0.209c-0.042-0.025-0.063-0.06-0.063-0.104c0-0.02,0.014-0.041,0.044-0.066
					c0.273-0.184,0.499-0.377,0.677-0.578c0.279-0.354,0.523-0.756,0.73-1.205c0.107-0.233,0.199-0.486,0.277-0.758h-0.883v1.138
					c0,0.075-0.045,0.114-0.135,0.114h-0.362c-0.072,0-0.108-0.039-0.108-0.114v-1.593
					C238.27,439.59,238.305,439.549,238.377,439.549z M240.941,443.389v-0.958h-1.282v0.958H240.941z M240.941,444.943v-0.996
					h-1.282v0.996H240.941z M239.659,446.412h1.282v-0.91h-1.282V446.412z"/>
				<path fill="#FFFFFF" d="M249.059,443.805h-1.462v-1.555h1.462V443.805z"/>
				<path fill="#FFFFFF" d="M254.52,440.924l0.508,0.397c0.047,0.051,0.07,0.092,0.07,0.124c0,0.031-0.018,0.05-0.053,0.057
					c-0.06,0.012-0.104,0.041-0.134,0.085c-0.131,0.29-0.276,0.56-0.437,0.806c-0.185,0.278-0.419,0.557-0.704,0.834
					c-0.071,0-0.118-0.025-0.143-0.076c-0.124-0.094-0.231-0.183-0.32-0.265c-0.042-0.019-0.063-0.044-0.063-0.076
					c0-0.019,0.006-0.038,0.018-0.057c0.137-0.075,0.249-0.167,0.339-0.274c0.189-0.209,0.354-0.439,0.49-0.692
					c0.118-0.215,0.249-0.48,0.392-0.796C254.495,440.945,254.507,440.924,254.52,440.924z M256.203,442.279
					c0.521,0.195,0.783,0.322,0.783,0.379c0,0.051-0.038,0.088-0.115,0.113c-0.09,0-0.152,0.051-0.188,0.152
					c-0.154,0.537-0.326,1.023-0.517,1.46c0.143,0.215,0.276,0.433,0.401,0.653c0.219,0.361,0.41,0.734,0.57,1.119
					c0.012,0.038,0.018,0.076,0.018,0.113c0,0.032-0.143,0.146-0.428,0.342c-0.023,0-0.048-0.02-0.071-0.057
					c-0.255-0.575-0.526-1.081-0.812-1.518c-0.189,0.348-0.385,0.661-0.588,0.939c-0.373,0.474-0.831,0.91-1.371,1.309
					c-0.054,0.031-0.104,0.047-0.152,0.047c-0.064,0-0.118-0.038-0.16-0.113c-0.064-0.102-0.139-0.188-0.223-0.256
					c-0.053-0.032-0.08-0.076-0.08-0.133c0-0.025,0.023-0.048,0.072-0.066c0.201-0.082,0.4-0.215,0.596-0.398
					c0.333-0.26,0.627-0.566,0.883-0.92c0.225-0.277,0.428-0.613,0.605-1.005c-0.065-0.082-0.128-0.161-0.188-0.237
					c-0.273-0.297-0.559-0.594-0.855-0.891c-0.023-0.038-0.035-0.066-0.035-0.086c0-0.019,0.098-0.154,0.294-0.407
					c0.036-0.032,0.08-0.048,0.134-0.048c0.244,0.222,0.502,0.493,0.775,0.816c0.053,0.068,0.101,0.132,0.143,0.189
					c0.166-0.43,0.293-0.895,0.383-1.395C256.096,442.313,256.137,442.279,256.203,442.279z M255.419,438.572
					c0.445,0,0.668,0.035,0.668,0.104c0,0.089-0.03,0.14-0.089,0.152c-0.054,0.006-0.08,0.069-0.08,0.189v0.91h1.666
					c0.076,0,0.115,0.054,0.115,0.161v0.294c0,0.107-0.039,0.161-0.115,0.161h-4.17c-0.07,0-0.106-0.054-0.106-0.161v-0.294
					c0-0.107,0.036-0.161,0.106-0.161h1.854v-1.252C255.268,438.607,255.318,438.572,255.419,438.572z M256.443,440.885
					c0.297,0.322,0.537,0.62,0.722,0.892c0.22,0.341,0.409,0.647,0.569,0.919c0,0.014-0.014,0.042-0.044,0.086
					c-0.179,0.271-0.271,0.408-0.276,0.408c-0.243-0.43-0.502-0.828-0.775-1.195c-0.219-0.291-0.403-0.496-0.552-0.615
					c0-0.039,0.095-0.181,0.285-0.428C256.402,440.907,256.426,440.885,256.443,440.885z M258.875,438.601l0.605,0.256
					c0.072,0.051,0.107,0.095,0.107,0.133c0,0.051-0.026,0.085-0.08,0.104c-0.065,0-0.107,0.041-0.125,0.123
					c-0.089,0.348-0.172,0.639-0.249,0.872h2.378c0.072,0,0.107,0.048,0.107,0.142v0.313c0,0.095-0.035,0.142-0.107,0.142h-0.516
					c-0.036,1.258-0.119,2.182-0.25,2.77c-0.166,0.771-0.393,1.418-0.677,1.943c0.214,0.328,0.437,0.597,0.668,0.805
					c0.291,0.279,0.63,0.5,1.016,0.664c0,0.063-0.03,0.111-0.089,0.143c-0.113,0.127-0.221,0.252-0.32,0.379
					c-0.061,0.063-0.099,0.096-0.117,0.096c-0.533-0.348-0.879-0.613-1.033-0.797c-0.207-0.189-0.389-0.42-0.543-0.692
					c-0.189,0.228-0.395,0.43-0.615,0.606c-0.338,0.304-0.783,0.585-1.336,0.844c-0.166-0.184-0.309-0.348-0.428-0.492
					c0.285-0.107,0.627-0.313,1.025-0.617c0.403-0.297,0.732-0.622,0.988-0.977c-0.113-0.215-0.211-0.438-0.294-0.672
					c-0.161-0.398-0.291-0.889-0.392-1.471c-0.072-0.479-0.11-1.029-0.116-1.648c-0.125,0.208-0.255,0.397-0.392,0.568
					c-0.084,0-0.152-0.013-0.205-0.038c-0.113-0.05-0.229-0.098-0.348-0.142c-0.041-0.02-0.063-0.039-0.063-0.058
					c0-0.031,0.012-0.057,0.035-0.075c0.262-0.311,0.494-0.689,0.695-1.139c0.119-0.258,0.226-0.533,0.32-0.824
					c0.096-0.303,0.19-0.698,0.285-1.186C258.83,438.626,258.852,438.601,258.875,438.601z M258.537,441.482h0.543
					c0.006,0.601,0.051,1.135,0.134,1.603c0.083,0.448,0.19,0.868,0.321,1.261c0.047,0.113,0.092,0.218,0.133,0.313
					c0.196-0.423,0.342-0.869,0.438-1.336c0.136-0.595,0.223-1.473,0.258-2.637h-1.452c-0.113,0.266-0.229,0.52-0.348,0.76
					C258.558,441.463,258.549,441.477,258.537,441.482z"/>
				<path fill="#FFFFFF" d="M262.617,445.019h3.59v-0.616c0-0.076,0.048-0.113,0.143-0.113c0.451,0,0.678,0.037,0.678,0.113
					c0,0.089-0.027,0.139-0.08,0.152c-0.061,0.006-0.09,0.069-0.09,0.189v0.274h3.662c0.076,0,0.115,0.048,0.115,0.143v0.313
					c0,0.095-0.039,0.143-0.115,0.143h-3.662v1.716c0,0.076-0.051,0.113-0.151,0.113h-0.356c-0.095,0-0.143-0.037-0.143-0.113
					v-1.716h-3.59c-0.078,0-0.116-0.048-0.116-0.143v-0.313C262.501,445.066,262.539,445.019,262.617,445.019z M264.577,442.393
					c0.023,0,0.038,0.025,0.044,0.076c0.131,0.31,0.196,0.477,0.196,0.502s-0.015,0.048-0.044,0.066
					c-0.303,0.386-0.588,0.715-0.855,0.986c-0.148,0.158-0.327,0.328-0.535,0.512c-0.041,0.045-0.063,0.102-0.063,0.171
					c0,0.075-0.023,0.114-0.07,0.114c-0.036,0-0.205-0.181-0.508-0.541c-0.03-0.02-0.048-0.051-0.054-0.095
					c0-0.032,0.012-0.058,0.036-0.076c0.178-0.101,0.355-0.224,0.533-0.37c0.244-0.201,0.484-0.432,0.723-0.691
					c0.207-0.221,0.386-0.427,0.534-0.616C264.532,442.405,264.553,442.393,264.577,442.393z M266.43,438.639
					c0.445,0,0.668,0.037,0.668,0.113c0,0.089-0.029,0.139-0.088,0.152c-0.055,0.006-0.081,0.069-0.081,0.189v0.492h3.313
					c0.072,0,0.107,0.055,0.107,0.162v0.303c0,0.102-0.035,0.152-0.107,0.152h-7.35c-0.07,0-0.106-0.051-0.106-0.152v-0.303
					c0-0.107,0.036-0.162,0.106-0.162h3.386v-0.834C266.278,438.676,266.329,438.639,266.43,438.639z M263.285,440.383
					c0.285,0.184,0.52,0.354,0.703,0.512c0.215,0.189,0.398,0.363,0.553,0.521c0,0.006-0.015,0.031-0.045,0.076
					c-0.178,0.271-0.27,0.407-0.275,0.407c-0.238-0.246-0.487-0.468-0.748-0.663c-0.215-0.171-0.396-0.287-0.544-0.352
					c0-0.037,0.095-0.18,0.285-0.426C263.244,440.408,263.268,440.383,263.285,440.383z M266.35,440.23l0.678,0.389
					c0.023,0.064,0.035,0.099,0.035,0.105c0,0.057-0.045,0.085-0.134,0.085c-0.13,0-0.217,0.038-0.259,0.114
					c-0.243,0.379-0.478,0.723-0.703,1.033c0.16,0.158,0.317,0.322,0.473,0.492c0.082-0.101,0.156-0.189,0.223-0.266
					c0.361-0.416,0.664-0.789,0.908-1.118c0.422,0.366,0.633,0.572,0.633,0.616c0,0.031-0.036,0.047-0.107,0.047
					c-0.148,0-0.24,0.02-0.275,0.058c-0.523,0.594-1.043,1.144-1.56,1.649c0.421-0.038,0.911-0.082,1.47-0.133
					c-0.089-0.184-0.193-0.36-0.312-0.531c0-0.037,0.154-0.135,0.464-0.293c0.225,0.354,0.409,0.679,0.552,0.977
					c0.13,0.271,0.246,0.563,0.347,0.871c0,0.025-0.192,0.092-0.578,0.199c-0.036-0.201-0.116-0.448-0.24-0.739
					c-0.013-0.031-0.024-0.057-0.036-0.075l-2.86,0.615c-0.143,0.184-0.225,0.275-0.249,0.275s-0.08-0.303-0.169-0.91
					c0-0.044,0.264-0.098,0.793-0.161c0.273-0.29,0.51-0.546,0.713-0.769c-0.279-0.252-0.494-0.43-0.643-0.53
					c-0.225-0.151-0.469-0.284-0.73-0.397c0-0.058,0.119-0.215,0.357-0.475c0.023-0.038,0.047-0.057,0.07-0.057
					c0.125,0.088,0.244,0.18,0.357,0.274c0.136-0.189,0.255-0.376,0.355-0.56C266.124,440.67,266.267,440.408,266.35,440.23z
					 M269.566,440.383l0.534,0.236c0.095,0.045,0.142,0.092,0.142,0.143c0,0.031-0.038,0.061-0.115,0.086
					c-0.089,0-0.146,0.025-0.169,0.076c-0.255,0.404-0.508,0.717-0.757,0.938c-0.061,0.051-0.104,0.076-0.135,0.076
					c-0.047,0-0.101-0.02-0.16-0.057c-0.119-0.057-0.234-0.111-0.348-0.161c-0.047-0.019-0.07-0.032-0.07-0.038
					c0-0.02,0.014-0.041,0.044-0.066c0.237-0.202,0.419-0.383,0.544-0.541c0.178-0.201,0.309-0.4,0.392-0.597
					C269.498,440.414,269.53,440.383,269.566,440.383z M269.236,442.516c0.291,0.373,0.528,0.721,0.713,1.043
					c0.172,0.285,0.314,0.594,0.428,0.93c0,0.019-0.202,0.078-0.606,0.18c-0.048-0.209-0.154-0.465-0.32-0.768
					c-0.179-0.348-0.413-0.695-0.704-1.043C268.746,442.807,268.91,442.693,269.236,442.516z"/>
			</g>
		</g>
	</g>
</g>
</svg>
