<svg data-name="圖層 1" xmlns="http://www.w3.org/2000/svg" viewBox="0 0 238.41 269.48"><defs><clipPath id="a"><path fill="none" d="M0 0h238.41v269.48H0z"/></clipPath></defs><path d="M122 117.73l-.14 1.26H124v.45h-2.18l-.16 1.27h-7.41l.2-1.27h-2.19V119h2.25l.2-1.26zm-5 8.32l.29.42a40.29 40.29 0 01-4.76 1l-.27-.47a36.2 36.2 0 004.74-.95zm.8-10.6a3.49 3.49 0 01.73 1.16h5v1.73H123v-1.22h-9.7v1.31h-.56v-1.82h5.23a4.1 4.1 0 00-.56-.82zm-3.65 5.82H122v4.48h-7.81zm.56 1.29h6.69v-.78h-6.69zm0 1.35h6.69V123h-6.69zm0 1.34h6.69v-.88h-6.69zm3-5.81H115l-.14.83h2.82zm-2.55-1.25l-.15.8h2.75l.12-.8zm6 1.25h-2.86l-.1.83h2.89zm-2.76-1.25l-.11.8h2.93l.1-.8zm.93 7.86a46.4 46.4 0 014.69 1.06l-.37.46a47.12 47.12 0 00-4.61-1.1zm6.67-9.25h4.37v.51h-1.87v2.9h1.63v.5h-1.63v3.47c.69-.25 1.31-.51 1.87-.77l.11.5a28.55 28.55 0 01-4.38 1.73l-.25-.61q1.13-.32 2.1-.66v-3.66h-1.65v-.5h1.63v-2.9h-2zm4.93-.61h5.55v7.06h-1.63v2.9a.88.88 0 00.08.43c.09.13.61.19 1.55.19.32 0 .5-.08.56-.24a7 7 0 00.15-1.6l.59.37c-.06 1.06-.16 1.62-.3 1.7s-.4.27-1 .27a5.12 5.12 0 01-1.89-.18c-.2-.09-.3-.31-.3-.68v-3.16H133a4 4 0 01-.48 1.88 4.94 4.94 0 01-1.36 1.4 11.42 11.42 0 01-2.15 1.19l-.42-.45a10.76 10.76 0 002.05-1.08 4.72 4.72 0 001.29-1.27 3.44 3.44 0 00.46-1.67h-1.46zm.56 2.15h4.43v-1.61h-4.43zm0 2.22h4.43v-1.71h-4.43zm0 2.19h4.43v-1.68h-4.43zm-32.71 14.74h11.44v.45h-4.53v.77h3.42v4.42h-.59v-.66h-8v.7H100v-4.46h3.3v-.77h-4.52zm6.06-5.78v.45h-5v4.32h5v.29a8 8 0 002.15-.67 5.09 5.09 0 01-1.39-1.51h-.47v-.41h4.18v.31a4.4 4.4 0 01-1.44 1.61 9.82 9.82 0 002.29.72l-.24.51a7.84 7.84 0 01-2.52-1 8.57 8.57 0 01-2.67.92l-.16-.34h-5.28v-5.23zm-3.57.6l.47.09a2.93 2.93 0 01-.28.56h2.61v.37h-1.41a6.31 6.31 0 01-.08.85h1.85v.36h-1.91a8.29 8.29 0 011.65 1.48l-.24.34a11.21 11.21 0 00-1.54-1.42 1.67 1.67 0 01-.2.38 3.13 3.13 0 01-1.56 1l-.32-.39a3.09 3.09 0 001.47-.93 1.37 1.37 0 00.25-.5h-1.77v-.36h1.86a5.12 5.12 0 00.08-.85h-1a4.26 4.26 0 01-.59.7l-.37-.34a3.66 3.66 0 00.62-.68 2.15 2.15 0 00.41-.66zm-.75 8.59h8v-.71H106c-.51 0-.77-.21-.77-.63v-.39h-1.53a1.27 1.27 0 01-.54.65 4.38 4.38 0 01-2.08.57l-.16-.47a4.47 4.47 0 001.83-.41 1 1 0 00.39-.34h-2.62zm0 1.16h8v-.76h-8zm4.66-3.35v-.77h-1.41v.77zm1-7h2.5V133a.48.48 0 000 .24.66.66 0 00.41.08 6.29 6.29 0 001.21-.1v.46a7 7 0 01-1.21.1 1.6 1.6 0 01-.84-.13.42.42 0 01-.13-.33v-1.22h-1.72a2.51 2.51 0 01-.38 1.3 1.77 1.77 0 01-1.13.62l-.21-.51a1.43 1.43 0 00.86-.41 1.94 1.94 0 00.37-1.4zm-.46 7.46v.39c0 .15.09.22.27.22h2.56v-.61zm.38-4.58a3.75 3.75 0 001.31 1.25 4.26 4.26 0 001.31-1.25zm6.28 4.41h5.13a4.65 4.65 0 00.31-1.22h.62a5.73 5.73 0 01-.25 1.22h5.57v.5h-4.66a6.6 6.6 0 001.88 1.84 9.43 9.43 0 003 1.17l-.27.61a8.39 8.39 0 01-3.12-1.28 7.19 7.19 0 01-2.21-2.34H118a5.29 5.29 0 01-1.08 1.58 8.29 8.29 0 01-4.55 2.08l-.2-.56a8 8 0 004.24-1.85 4.73 4.73 0 00.86-1.25h-4.9zm3.2-7.72a10.62 10.62 0 011.62 1.94h1.87a10.13 10.13 0 001.49-1.94l.62.26a10.62 10.62 0 01-1.34 1.68h3.58v.51h-5V135h3.91v.5h-3.91v1.43h5.22v.49H112.6v-.49h5.22v-1.43h-4v-.5h4v-1.27h-4.93v-.51h3.54a11.57 11.57 0 00-1.35-1.63zm12.75.72h2.19v10c0 .54-.33.8-1 .8a10.63 10.63 0 01-1.38-.1v-.61a7 7 0 001.38.16q.36 0 .36-.45v-3.52h-2.37a15.25 15.25 0 01-.29 2.06 14.08 14.08 0 01-1 2.78l-.51-.32a15.16 15.16 0 001-2.92 19.73 19.73 0 00.25-3.06V132zm-.75 5.84h2.33v-2.48h-2.3v1.51c0 .28-.01.6-.03.92zm0-3h2.3v-2.29h-2.3zm5.48-2.85h3.42a10 10 0 01-.4 3.31.88.88 0 01-.77.3 9.13 9.13 0 01-1.52-.15v-.61a10 10 0 001.57.16.37.37 0 00.36-.23 11 11 0 00.2-2.22h-3.66v4.07h4.61a11.33 11.33 0 01-1.47 3.76l-.09.11a16.84 16.84 0 002.34 2.16l-.46.47a14.35 14.35 0 01-2.24-2.12 10 10 0 01-2.18 2.17l-.27-.52a9.23 9.23 0 002.07-2.11l-.34-.45a9.47 9.47 0 01-1.35-3h-.62v6.08h-.56V132zm.33 5.14a7.3 7.3 0 001.36 2.73c0 .06.09.11.13.16a10.88 10.88 0 001.23-2.89zm6.7-5.02h4.37v.45a9.31 9.31 0 01-1.73 2.31c.2.27.39.55.56.83h1.94a5.38 5.38 0 01-1.38 2.51l-.36-.37a4 4 0 001-1.63h-1.6V142c0 .68-.35 1-1.06 1h-1.17l-.05-.62a7.1 7.1 0 001.22.11c.34 0 .5-.2.5-.61v-4.33a13.91 13.91 0 01-2.59 4l-.39-.37a13.45 13.45 0 002.9-4.88h-2.66v-.51h3.09a12.56 12.56 0 00-1.46-1.91l.42-.27a11.3 11.3 0 01.78.93 8.53 8.53 0 001.4-1.83h-3.72zm4.42 6.39h2.55c.08-.46.15-.95.19-1.46h.56a13.54 13.54 0 01-.18 1.46h2.72a14.77 14.77 0 01-.38 3.68.85.85 0 01-.4.58 1.54 1.54 0 01-.75.17 5.61 5.61 0 01-1.57-.27l-.05-.56a6.44 6.44 0 001.62.27.64.64 0 00.4-.11.83.83 0 00.24-.47 15.1 15.1 0 00.29-2.78h-2.21a5.38 5.38 0 01-.86 2.17 6.41 6.41 0 01-2.78 1.9l-.46-.37a6.61 6.61 0 002.68-1.76A4.82 4.82 0 00147 139h-2.45zm2.23-7.26l.51.15a7.82 7.82 0 01-.6 1.47h4.57v.53h-1.13a5 5 0 01-.8 1.71 5.67 5.67 0 01-.68.79 8.53 8.53 0 002.8 1.45l-.35.51a8.87 8.87 0 01-2.87-1.6 4.09 4.09 0 01-.66.5 8.9 8.9 0 01-2.46 1.05l-.3-.51a8 8 0 002.3-.94 5.24 5.24 0 00.69-.48 6.75 6.75 0 01-1.53-2.29 10.26 10.26 0 01-1.16 1.58l-.4-.34a8.06 8.06 0 001.26-1.75 7.91 7.91 0 00.81-1.83zm0 2.15a5.86 5.86 0 001.43 2.11 6.31 6.31 0 00.56-.61 4.54 4.54 0 00.73-1.5zm-31.86 13.5l.55.05a23.18 23.18 0 01-1.07 3.17v8.71h-.55v-7.46c-.37.75-.77 1.49-1.21 2.23l-.51-.25a24.72 24.72 0 002.79-6.45zm3.39 10l.32.41a14.9 14.9 0 01-3.57 1.48l-.19-.52a14.53 14.53 0 003.44-1.42zm-2.79-9.39h8.6v.5H121v.93h2.45v2.23h-7.79v-2.23H118V148h-2.5zm.66 3.16H118v-1.22h-1.84zm0 1.25h6.5v4.73h-6.5zm.56 1.39h5.38v-.88h-5.38zm0 1.41h5.38v-.9h-5.38zm0 1.42h5.38v-.92h-5.38zm3.76-7.2V148h-2v.93zm-2 .51v1.22h2v-1.22zm2 7.56a26.56 26.56 0 013.52 1.26l-.22.56a22.33 22.33 0 00-3.5-1.36zm.46-7.56v1.22h1.94v-1.22zm7.62-2.64l.54.14a30.09 30.09 0 01-1.07 3.15v8.68h-.55v-7.41a19.22 19.22 0 01-1.26 2.34l-.41-.31a22.41 22.41 0 001.55-3 25.51 25.51 0 001.2-3.59zm.5 1.31h3.79l.16-1.27h.56l-.17 1.27h4v.5h-4l-.19 1.48h3v7.72h1.59v.5h-9.19v-.5h1.52v-7.72h2.51l.19-1.48H129zm1.58 3.8h5v-1.29h-5zm0 2h5v-1.44h-5zm0 2h5v-1.48h-5zm0 2h5v-1.46h-5z" fill="#323332"/><g clip-path="url(#a)"><path d="M130.36 62.28l-6.85-6.85v6.68c-1.27 0-2.54.09-3.79.18a72.15 72.15 0 00-65.82 61.29l12.52-12.52 13.34 13.34a46.5 46.5 0 0140-36.38c1.25-.14 2.51-.24 3.79-.29v8l7.68-7.68 12.5-12.5z" fill="#e9938e"/><path d="M184.51 158.24l-14.07-14.07a46.51 46.51 0 01-39.23 35.93c-1.25.17-2.51.29-3.79.35v-6.93l-6.77 6.77-13.41 13.41 12.19 12.19 8 8v-7.8c1.27 0 2.54-.11 3.79-.22a72.15 72.15 0 0064.84-59.16z" fill="#a2c3e7"/><path d="M116 179.6a46.52 46.52 0 01-36.81-39.2c-.17-1.25-.3-2.52-.37-3.79h7.8L79 129l-12.6-12.6-13.13 13.17-7 7h6.93c0 1.27.13 2.53.24 3.79a72.14 72.14 0 0059.91 64.74l-11.47-11.4z" fill="#f8b73d"/><path d="M197.14 132.7c0-1.27-.08-2.54-.17-3.8A72.15 72.15 0 00136.42 63l12.63 12.6-13.32 13.33a46.49 46.49 0 0135.52 40c.14 1.25.23 2.52.27 3.8h-7.19l6.89 6.88 13.29 13.3 12.36-12.36 7.82-7.82z" fill="#acc175"/></g><path d="M79.39 89v5.79h-.61v-.89H75.7v.92h-.63V89zm-3.69 4.34h3.08v-3.75H75.7zm1.35-9.8h6.36v4.21h-6.36zm.61 3.67h5.15V84.1h-5.15zM85.28 89v5.79h-.61v-.89h-3.25v.92h-.61V89zm-3.86 4.31h3.25v-3.72h-3.25zm7.47-10.06h.56V87h1.41v-3.91h.56V87h1v.51h-2.97v1.72h2.13v5.49H91v-5h-1.64c-.06.74-.14 1.42-.24 2.06a13.92 13.92 0 01-.74 3l-.46-.37a16.85 16.85 0 00.73-3.31 27.71 27.71 0 00.24-3.7zM92 91.48h4.17v-1.73h.56v1.73h3.06V92H96.7v2.83h-.56V92H92zm3.71-8.69l.56.19a4.72 4.72 0 01-.57 1.22h3.26v5.14h-3.5a1.72 1.72 0 01-.24.33 5.69 5.69 0 01-2.69 1.71l-.34-.46a5.85 5.85 0 002.53-1.58h-1.83V84.2H95a3.92 3.92 0 00.68-1.41zm-2.23 3.66h2.12v-1.71h-2.15zm0 2.39h1.63a4.31 4.31 0 00.5-1.88h-2.16zM96.15 87a4.56 4.56 0 01-.42 1.88h2.64V87zm0-2.25v1.74h2.19v-1.78zM165.65 96l.61.19c-.38 1.25-.75 2.32-1.12 3.21v8.57h-.61v-7.21a21.82 21.82 0 01-1.31 2.34l-.45-.36a24.27 24.27 0 001.64-3.11 25.59 25.59 0 001.24-3.63zm.37 1.92h8.78v.51H166zm1 1.84h6.85v.51H167zm0 2h6.85v.51H167zm6.66 2v4.16h-.61V107h-5.15v.91h-.6v-4.16zm-5.76 2.74h5.15v-2.23h-5.15zm1.85-10.6a6.67 6.67 0 011.35 1.52l-.5.35a7.47 7.47 0 00-1.31-1.58zm8.51 4.38l.61.29a14.52 14.52 0 01-1.81 4.77l-.56-.34a15.78 15.78 0 001.76-4.72zM180 99h.67v7c0 .38.07.59.19.63a8.1 8.1 0 002.61.2c.72 0 1.19-.16 1.38-.48a8.17 8.17 0 00.48-2.87l.61.24a7.3 7.3 0 01-.61 3.06c-.22.43-.84.65-1.86.65a9 9 0 01-3.1-.27.81.81 0 01-.37-.8zm1.18-3a18.82 18.82 0 013.25 3.3l-.46.56a21.34 21.34 0 00-3.2-3.39zm5.32 4.23a25.64 25.64 0 012 4.77l-.7.29a23 23 0 00-1.84-4.71zm-39.92 84.62H155v-.8h.56v.8h3.09v.51h-3.09V187a1 1 0 01-1.17 1.18 6.81 6.81 0 01-1.72-.21l-.05-.61a6.07 6.07 0 001.77.26c.4 0 .61-.22.61-.67v-1.57h-8.37zm.41-7.45h5.32v-1h.56v1h5.33v.5h-5.33v.86h3.92v3.7h-3.92v1.06l2.85-.13a6.29 6.29 0 00-.67-.37l.3-.41a13.74 13.74 0 012.45 1.48l-.35.47c-.35-.27-.7-.52-1-.74q-3.42.24-8.57.27l-.09-.51c1.64 0 3.16 0 4.56-.05v-1.07h-3.95v-3.7h3.91v-.86H147zm2 2.93h3.35v-1.07H149zm0 1.62h3.35v-1.11H149zm1.06 3.67a10.3 10.3 0 012.13 1.43l-.35.44a13 13 0 00-2.07-1.46zm2.85-6.36v1.07h3.36v-1.07zm0 1.58V182h3.36v-1.11zm11.19-1.31a9 9 0 011.28 1.51h1.77a10.21 10.21 0 001.22-1.51l.56.19a9 9 0 01-1.07 1.32h3.71v.51h-5v1h4v.51h-4v1.12h5.38v.51H167a18.09 18.09 0 005.39 2.55l-.46.56a17.7 17.7 0 01-5.38-2.88v3.47h-.61V185a13.32 13.32 0 01-2 1.31 19.82 19.82 0 01-3.46 1.44l-.24-.56a18.67 18.67 0 003.16-1.2 13.2 13.2 0 002.14-1.3h-5v-.51h5.34v-1.12H162v-.51h3.91v-1h-5V181h3.73a8.32 8.32 0 00-1-1.22zm.7-3.1h.56v2.49h1.79v-2.49h.56v2.49h4.3v.5h-11.53v-.5h4.32zm-2.59.29a8.45 8.45 0 011.69 1.69l-.51.35a7.5 7.5 0 00-1.63-1.73zm8 0l.51.31a7.68 7.68 0 01-1.57 1.67l-.51-.4a6.51 6.51 0 001.54-1.58zM67.27 159.61v3.25h-4.13V171h-.56v-11.39zm-4.13 1.32h3.57v-.79h-3.57zm0 1.42h3.57v-.91h-3.57zm2.5.66l.46.22a6.33 6.33 0 01-.72.87 6.51 6.51 0 01-.68.63c.59 0 1.14-.08 1.64-.14a9.06 9.06 0 00.77-1l.46.22a9.33 9.33 0 01-1.36 1.47 9.89 9.89 0 01-1.25 1c.64 0 1.27-.1 1.9-.18a5.47 5.47 0 00-.42-.61l.36-.24a7.69 7.69 0 011.06 1.78l-.45.14a7.24 7.24 0 00-.31-.68 34.06 34.06 0 01-3.4.32l-.15-.44h.75a15.41 15.41 0 001.47-1.23L66 165a13 13 0 01-2.22.16v-.39h.41a9.82 9.82 0 00.8-.77 8.48 8.48 0 00.65-1zm-1.22 4.27h.51v1.06h1.77v-1.19h.51v1a1.87 1.87 0 01-.77 1.64 5 5 0 01-2.59.79l-.16-.46a5.34 5.34 0 002.31-.62 1.35 1.35 0 00.55-.7h-2.13zm5.07-4.28l.47.22a6.93 6.93 0 01-1.3 1.53c.56 0 1.08-.07 1.55-.12a10.34 10.34 0 00.76-1l.46.22a8.55 8.55 0 01-1.29 1.44 10.38 10.38 0 01-1.21 1c.7-.05 1.39-.13 2.06-.23a7.98 7.98 0 00-.44-.52l.37-.24a8.17 8.17 0 011.22 1.7l-.47.14a5.31 5.31 0 00-.43-.74 27.11 27.11 0 01-3.33.38l-.14-.44h.52a12.07 12.07 0 001.4-1.21l.17-.15a13.75 13.75 0 01-2.29.16l-.06-.39h.53a7.18 7.18 0 00.78-.78 6.4 6.4 0 00.67-.97zm-1.26 4.13h.51v1.41h1.87v-1.22h.5V169h-2.37v1.74h-.51zm1.63-7.48h3.08v10.27c0 .53-.3.8-.9.8-.35 0-.75 0-1.22-.05V170a7.61 7.61 0 001.22.1c.23 0 .34-.15.34-.44v-6.82h-4.1v-3.25zm-1 1.38h3.54v-.85h-3.56zm3.54 1.36v-.85h-3.56v.85zm3.83-.89l.46.1a9.53 9.53 0 01-.85 3.35l-.46-.26a9.6 9.6 0 00.85-3.19zm.88-2.45h.56V171h-.56zm1.42 2.39a15 15 0 01.61 2.4l-.56.14a12.43 12.43 0 00-.56-2.33zm4.52 4.72l.35.47a3.31 3.31 0 01-.3.25 7 7 0 001 1.22 11 11 0 001.9-1.57l.51.24a12.63 12.63 0 01-2 1.71c.11.11.23.21.35.31a13.06 13.06 0 002.65 1.55l-.4.5a11.47 11.47 0 01-2.6-1.6 8.12 8.12 0 01-1.78-2 9 9 0 01-1.25.74v1.79c.8-.23 1.54-.47 2.23-.73v.51a22.84 22.84 0 01-4 1.33l-.22-.61c.48-.11 1-.23 1.39-.35v-1.65a16 16 0 01-2.4.94l-.24-.51a14.79 14.79 0 002.66-1.08 9.08 9.08 0 002.15-1.46zm-.42-7.35a7.36 7.36 0 01.76 1.27h3.87v.51H79v-.51h3.75a6 6 0 00-.5-1zm-3.39 5.43h3v.51h-3zm0 1.31h2.93v.53h-2.93zm.46-4.21h6.84v2.18H79.7zm.56 1.67h1.46v-1.17h-1.46zm2-1.17V163h1.58v-1.17zm.51 1.95h.56V166h-.56zm1.12.45h3v.51h-3zm0 1.31h3v.53h-3zm.51-3.71V163H86v-1.17z" fill="#fff"/><g clip-path="url(#a)"><path d="M99.17 108.3a1 1 0 01-1.42 0l-6.64-6.65a1 1 0 111.41-1.41l6.65 6.65a1 1 0 010 1.41M159 168.17a1 1 0 01-1.42 0l-6.58-6.65a1 1 0 011.41-1.41l6.65 6.65a1 1 0 010 1.41m-59.89-8.06a1 1 0 010 1.41l-6.65 6.65a1 1 0 01-1.41 0 1 1 0 010-1.42l6.64-6.64a1 1 0 011.42 0M159 100.24a1 1 0 010 1.41l-6.65 6.65a1 1 0 01-1.41-1.41l6.64-6.65a1 1 0 011.42 0" fill="#9fa0a0"/><path fill="#acc175" d="M164.46 0h73.96v15.41h-73.96z"/></g><path d="M176.78 5.47l.35.11a4.39 4.39 0 01-.44.71H180v.35a5.43 5.43 0 01-1.62 1.54l.24.13a18.84 18.84 0 003.38 1.2l-.32.39a17.35 17.35 0 01-3.3-1.24l-.44-.24-.19.12a16.74 16.74 0 01-4 1.36l-.16-.39a16.19 16.19 0 003.93-1.31A8.25 8.25 0 01176 7a6.75 6.75 0 01-1.55 1.12l-.24-.28a9.38 9.38 0 001.58-1.13 5.5 5.5 0 00.99-1.24zm.46-1.4a2.73 2.73 0 01.78 1h3.48v1.74h-.42V5.43h-6.55v1.38h-.42V5.05h3.46a2.77 2.77 0 00-.64-.74zm2.82 5.59v2.77h-.39v-.55H176v.55h-.39V9.66zM176 11.53h3.66V10H176zm.32-4.82A7.31 7.31 0 00178 8a4.31 4.31 0 001.5-1.33h-3.09a.19.19 0 00-.08.04zM184.69 9v.13a4.61 4.61 0 01-.33 1.72 4.75 4.75 0 01-1 1.52l-.31-.29a4.7 4.7 0 00.86-1.31 4.24 4.24 0 00.32-1.64V5a22.51 22.51 0 006-.84l.25.39a24.31 24.31 0 01-5.81.83v1.1h5.69V9zm0-2.15v1.79h5.23V6.88zm14.69-1.23l-.1.87h1.47v.32h-1.51l-.11.87H194l.14-.87h-1.51v-.32h1.55l.14-.87zm-3.44 5.76l.2.29a27.48 27.48 0 01-3.3.7l-.18-.33a23.52 23.52 0 003.28-.66zm.55-7.38a2.31 2.31 0 01.51.81h3.44V6h-.39v-.8h-6.71v.9H193V4.85h3.62a2.46 2.46 0 00-.39-.58zm-2.52 4h5.41v3.1H194zm.39.89H199v-.47h-4.63zm0 .94H199v-.55h-4.63zm0 .92H199v-.6h-4.63zm2.08-4h-1.93l-.09.57h2zm-1.77-.87l-.1.55h1.9l.08-.55zm4.18.87h-2l-.07.57h2zm-1.91-.87l-.08.55h2l.07-.55zm.64 5.44a32.31 32.31 0 013.25.73l-.26.32a32.38 32.38 0 00-3.19-.76zm4.42-5.7h2.89V6H202zm.39 1.26h2.15v.35h-2.15zm0 1.31h2.15v.35h-2.15zm2.11 1.32v2.71h-.38v-.42h-1.28v.57h-.38V9.51zm-1.4-5.37a5.64 5.64 0 01.77 1.15l-.36.26a5.06 5.06 0 00-.74-1.2zm-.26 7.31h1.28V9.86h-1.28zM205 4.63h2.18a7.33 7.33 0 01-.81 2.19A6.07 6.07 0 01205 8.46l-.19-.31a5.46 5.46 0 001.3-1.5l.06-.11a5.92 5.92 0 00-1.08-.82l.22-.25a5.88 5.88 0 011 .75 5.65 5.65 0 00.45-1.22H205zm1.25 5.74a6.47 6.47 0 01.77 1.3h.72a5.84 5.84 0 00.35-.57 4.4 4.4 0 00.34-.78l.39.15a4.43 4.43 0 01-.32.72c-.1.17-.19.33-.29.48h1.81V12h-5.24v-.35h1.78a8.79 8.79 0 00-.58-1.1zm-.62-2.22h3.48v1.9h-3.48zm.39 1.55h2.7V8.5h-2.7zm.2-2.64h2.18v.35h-2.18zm1.55-2.82a6.27 6.27 0 00.21.88 5.44 5.44 0 001.26-.81l.22.25a5.47 5.47 0 01-1.38.87 7.31 7.31 0 00.42.89 6.28 6.28 0 001.35-.85l.2.28a5.48 5.48 0 01-1.35.9 4.39 4.39 0 001.56 1.42l-.24.35a4.83 4.83 0 01-1.66-1.59 6.89 6.89 0 01-1-2.52zm5.3 6.16l.32.17a7.88 7.88 0 01-1.39 1.86l-.32-.25a6.56 6.56 0 001.39-1.78zm-1-5.59h2.35V9.7h-2.32zm.41 2.19h1.59V5.16h-1.59zm0 2.36h1.59v-2h-1.59zm2.32 1.16a11.18 11.18 0 01.24 1.64l-.39.11a11.79 11.79 0 00-.2-1.66zm.1-5.88h4.22a8.43 8.43 0 01-.23 2.16.51.51 0 01-.26.35 1 1 0 01-.45.09 5.22 5.22 0 01-1-.1v-.46a4.75 4.75 0 001 .14.33.33 0 00.21-.06c.06 0 .11-.11.15-.25A8.05 8.05 0 00218.7 5h-1.77a3.34 3.34 0 01-.54 1.59 2.69 2.69 0 01-1.62 1.11l-.15-.35a2.39 2.39 0 001.45-1 3.42 3.42 0 00.47-1.35h-1.64zm.49 3.13h3.53v2.16h-3.53zm.39 1.82h2.75V8.12h-2.75zm.57.86a9 9 0 01.84 1.67l-.39.15a6.7 6.7 0 00-.74-1.62zm1.83-.07a13.83 13.83 0 011.48 1.78l-.29.28a13.2 13.2 0 00-1.48-1.83zm4.69-5.75h.42v2.21h2.92v-2.6h.46v2.6h2.14v.39h-5.52v1.66h3.88v3.48h-.46V9.28h-3.45a4.84 4.84 0 01-.46 1.6 4.46 4.46 0 01-1.15 1.52l-.35-.25a4.82 4.82 0 001.21-1.67 5.05 5.05 0 00.36-1.87z" fill="#fff"/><g clip-path="url(#a)"><path fill="#acc175" d="M164.46 18.49h73.96V33.9h-73.96z"/></g><path d="M178.45 24.15h2.93v.35h-2.93zm.26 1.22H181v.35h-2.32zm0 1.31H181V27h-2.32zm2.29 1.26v2.6h-.39v-.42h-1.35v.64h-.38v-2.82zm-1.42-5.3a5 5 0 01.71 1.12l-.35.25a5.32 5.32 0 00-.68-1.17zm-.32 7.13h1.35v-1.48h-1.35zm4-4.4v.35a11.06 11.06 0 01-1.8 1.13l-.17-.36a7.88 7.88 0 001.92-1.12zM181.69 23a7.6 7.6 0 011.2 1.12l-.29.28a7.48 7.48 0 00-1.16-1.16zm2.57 1.61h.39a5.55 5.55 0 01-.2.87 6.15 6.15 0 001 1.21 5.21 5.21 0 001.29.9l-.17.36a5.13 5.13 0 01-2.23-2.07 2.93 2.93 0 01-.41.69 4.34 4.34 0 01-1.93 1.27l-.21-.29a4.07 4.07 0 001.74-1.16 3.66 3.66 0 00.73-1.79zm1.48 3.34v3h-.41v-.61h-2.73v.63h-.39v-3zm-3.14 2h2.73v-1.66h-2.73zm1.19-7.24l.39.1a6.2 6.2 0 01-.3.89h2.52a5.52 5.52 0 01-.56 1.61l-.38-.21a3.76 3.76 0 00.41-1.05h-2.16a.08.08 0 010 .06 5.49 5.49 0 01-.77 1.1l-.25-.29a5 5 0 00.69-1 4.3 4.3 0 00.41-1.22zm4.08 1.4h3.2v.35h-3.2zm.32 1.16h2.5v.35h-2.5zm0 1.22h2.53v.36h-2.53zm2.45 1.28v2.91h-.38v-.59h-1.52v.67h-.38v-3zm-1.58-5.13a5 5 0 01.89 1.12l-.35.25a4.89 4.89 0 00-.86-1.17zm-.32 7.1h1.52v-1.62h-1.52zm3.38-7.1l.39.09a7.37 7.37 0 01-.37 1.23h3.54a30.12 30.12 0 01-.32 6.19.77.77 0 01-.77.64 8.17 8.17 0 01-1.31-.11v-.42a11.78 11.78 0 001.35.11c.23 0 .38-.22.44-.66a41.09 41.09 0 00.19-5.35H192a8 8 0 01-1 1.64l-.24-.26a9.32 9.32 0 00.78-1.33 9 9 0 00.58-1.77zm2 2.76v4.12h-.39v-.59h-1.9v.74h-.38V25.4zm-2.29 1.52h1.9v-1.16h-1.9zm0 1.66h1.9v-1.31h-1.9zm5.42-.12h5.8v-.55h.38v.55h2.15v.35h-2.15v1.13a.72.72 0 01-.81.82 4.49 4.49 0 01-1.18-.15v-.42a4.34 4.34 0 001.22.18c.29 0 .43-.15.43-.47v-1.09h-5.8zm.29-5.16h3.68v-.66h.38v.66h3.7v.36h-3.7v.58h2.72v2.57h-2.72v.73q1.05 0 2-.09a5.2 5.2 0 00-.46-.25l.21-.28a9.14 9.14 0 011.69 1l-.24.32a8 8 0 00-.72-.51q-2.37.16-5.94.19l-.06-.36h3.16v-.74h-2.71v-2.58h2.71v-.58h-3.68zm1.36 2h2.32v-.7h-2.32zm0 1.13h2.32v-.77h-2.32zm.74 2.54a7.1 7.1 0 011.47 1l-.24.31a9.14 9.14 0 00-1.44-1zm2-4.4v.73h2.33v-.7zm0 1.09v.77h2.33v-.77zm7.74-.88a6.52 6.52 0 01.88 1h1.23a6.91 6.91 0 00.84-1l.39.13a6 6 0 01-.74.92h2.56v.35h-3.49v.7h2.79v.35h-2.79V28h3.73v.35h-3.41a12.38 12.38 0 003.73 1.76l-.32.39a12.4 12.4 0 01-3.73-2v2.4h-.42v-2.32a9 9 0 01-1.37.9 14.07 14.07 0 01-2.39 1l-.17-.39a12.44 12.44 0 002.19-.83 8.33 8.33 0 001.48-.9h-3.43V28h3.69v-.78h-2.7v-.35h2.7v-.7h-3.44v-.35h2.58a5.16 5.16 0 00-.72-.85zm.48-2.14h.39v1.72h1.24v-1.72h.38v1.72h3v.34h-8v-.34h3zm-1.79.2a5.89 5.89 0 011.17 1.16l-.36.23a5.37 5.37 0 00-1.12-1.19zm5.52 0l.35.21a5.38 5.38 0 01-1.09 1.16l-.35-.28a4.69 4.69 0 001.09-1.09zm6.71-.2a5.58 5.58 0 01.65 1h3.32V24h-6.79v2.8a10.18 10.18 0 01-.26 2.29 8.79 8.79 0 01-.71 1.81l-.32-.22a8.39 8.39 0 00.71-1.9 10.22 10.22 0 00.19-2v-3.12h3.37a4.51 4.51 0 00-.48-.82zm-2 5h4.92v.22a3.74 3.74 0 01-1.06 1.35 4.43 4.43 0 01-.65.49 9.22 9.22 0 002.94.83l-.1.39a8.37 8.37 0 01-3.22-1 8.2 8.2 0 01-.79.36 11.22 11.22 0 01-2.89.64l-.11-.39a9.84 9.84 0 002.73-.57 6 6 0 00.68-.27 5.57 5.57 0 01-1.51-1.7h-.94zm-.5-2.53h1.69v-.81h.39v.81h2.29v-.81h.38v.81h1.68v.35h-1.68v1.44h-3.06v-1.46h-1.69zm1.87 2.89a5.35 5.35 0 001.47 1.49 5.45 5.45 0 00.66-.45 3.41 3.41 0 00.9-1zm.21-2.53v1.09h2.29v-1.12z" fill="#fff"/><g clip-path="url(#a)"><path fill="#acc175" d="M164.46 36.98h73.96v15.41h-73.96z"/></g><path d="M180.15 41.64h1.51v7c0 .37-.22.55-.67.55a7.21 7.21 0 01-1-.07v-.42a4.79 4.79 0 001 .11c.16 0 .25-.1.25-.31V46h-1.64a13.12 13.12 0 01-.2 1.42 9.51 9.51 0 01-.66 1.92l-.35-.22a10.92 10.92 0 00.66-2 12.63 12.63 0 00.17-2.12v-3.36zm-.52 4h1.61V44h-1.59v1c0 .24-.01.47-.02.68zm0-2.06h1.59V42h-1.59zm3.79-2h2.37a6.81 6.81 0 01-.28 2.29.58.58 0 01-.53.22 6.46 6.46 0 01-1.06-.11v-.42a6.66 6.66 0 001.09.1.23.23 0 00.24-.15 6.93 6.93 0 00.14-1.54h-2.53v2.82H186a7.66 7.66 0 01-1 2.6.16.16 0 01-.06.08 12.81 12.81 0 001.64 1.53l-.32.33a9.91 9.91 0 01-1.54-1.47 7.15 7.15 0 01-1.51 1.5L183 49a6.21 6.21 0 001.43-1.46l-.23-.31a6.55 6.55 0 01-.94-2h-.43v4.21h-.38v-7.8zm.23 3.56a4.94 4.94 0 00.94 1.89l.09.11a7.14 7.14 0 00.85-2zm4.64-3.38h3v.3a6.12 6.12 0 01-1.19 1.6c.14.19.26.38.38.58h1.35a3.73 3.73 0 01-1 1.73l-.25-.25a2.74 2.74 0 00.69-1.13h-1.11v4c0 .46-.25.7-.74.7a7.09 7.09 0 01-.81 0v-.43a4 4 0 00.84.08c.24 0 .35-.14.35-.42v-3a9.51 9.51 0 01-1.8 2.7l-.27-.25a9.11 9.11 0 002-3.38h-1.83v-.35h2.13a8 8 0 00-1-1.32l.29-.19c.19.21.38.42.55.64a5.82 5.82 0 001-1.26h-2.57zm3.06 4.42h1.76c.06-.32.1-.66.13-1h.39c0 .37-.07.71-.12 1h1.88a10.77 10.77 0 01-.26 2.55.6.6 0 01-.28.4 1 1 0 01-.52.11 4 4 0 01-1.09-.18v-.39a4.26 4.26 0 001.12.19.43.43 0 00.28-.08.55.55 0 00.16-.33 10.35 10.35 0 00.21-1.92h-1.53a3.81 3.81 0 01-.6 1.5 4.37 4.37 0 01-1.93 1.32l-.31-.26a4.48 4.48 0 001.85-1.22 3.23 3.23 0 00.58-1.34h-1.69zm1.54-5l.35.1a5.06 5.06 0 01-.41 1H196v.37h-.79a3.35 3.35 0 01-.55 1.18 3.57 3.57 0 01-.48.55 6 6 0 001.95 1l-.25.35a6.3 6.3 0 01-2-1.11 3 3 0 01-.45.34 6 6 0 01-1.71.73l-.2-.35a5.7 5.7 0 001.59-.65 3.66 3.66 0 00.48-.33 4.56 4.56 0 01-1.06-1.59 6.57 6.57 0 01-.81 1.09l-.27-.23a6 6 0 00.87-1.21 5.49 5.49 0 00.57-1.27zm0 1.49a4 4 0 001 1.46 4.81 4.81 0 00.38-.42 3.15 3.15 0 00.51-1zm4.57 1.61h1.37v-3.13h.38v3.13h1.2v.38h-1.2v4.75h-.38v-3.76a5.05 5.05 0 01-.41 1 6 6 0 01-.81 1.25l-.32-.29a7 7 0 001-1.47 5.84 5.84 0 00.51-1.45h-1.32zm.38-2.32a9.16 9.16 0 01.74 1.8l-.39.13a8.34 8.34 0 00-.62-1.71zm1.73 3.24a13.19 13.19 0 011 1.51l-.28.28a9.91 9.91 0 00-1-1.55zm.52-3.24l.39.1a8.31 8.31 0 01-.69 1.91l-.36-.18a8.48 8.48 0 00.66-1.79zm.64-.1h2v-.71h.39v.71h2.11v.35h-2.11V43h1.69v.35h-1.69V44h2.43v.35h-5V44h2.14v-.7h-1.62V43h1.62v-.74h-2zm4.11 3.19v3.62c0 .43-.2.64-.6.64a3.24 3.24 0 01-.81-.11v-.39a2.81 2.81 0 00.81.15c.14 0 .21-.11.21-.35v-.84h-3v1.64H201v-4.36zm-3.44 1.21h3v-.86h-3zm0 1.19h3v-.89h-3zm5.82-.68l.39.11a16.17 16.17 0 01-.52 2.36l-.35-.18a14.89 14.89 0 00.48-2.29zm1.06-5.59l.38.14a7.34 7.34 0 01-.53 1.31 7.6 7.6 0 01-.57 1c.36 0 .71 0 1.05-.1.16-.31.29-.62.41-.92l.38.13a10.54 10.54 0 01-.88 1.79 11 11 0 01-1 1.4c.52-.07 1-.15 1.36-.23a4.58 4.58 0 00-.27-.59l.29-.22a9.74 9.74 0 01.64 1.54l-.4.14c-.05-.18-.1-.36-.15-.52-.66.14-1.38.26-2.17.36l-.02-.41h.25a12.49 12.49 0 001.1-1.59c.1-.17.19-.35.28-.53-.5.07-1 .12-1.52.15l-.11-.36h.28a8.84 8.84 0 00.65-1.12 9.68 9.68 0 00.55-1.37zm0 5.59a9.56 9.56 0 01.22 2.09h-.38a10.69 10.69 0 00-.19-2.08zm.78-.13a5.08 5.08 0 01.57 1.51l-.39.11a4.77 4.77 0 00-.54-1.51zm.25-4.85h2.92v.35h-1.44a11 11 0 01-.32 1.18c-.13.41-.25.76-.37 1 .46-.07.9-.15 1.31-.25a5.87 5.87 0 00-.49-.93l.29-.2a7.81 7.81 0 01.83 1.6l-.38.15c0-.1-.07-.19-.11-.29a13.6 13.6 0 01-2.31.4l-.11-.39h.56a16.443 16.443 0 00.71-2.28h-1.09zm.28 4.15h.94v-1.09h.47v1.09h1v.35h-1v1.65a11.81 11.81 0 001.19-.49v.35a15.75 15.75 0 01-2.78 1.13l-.13-.42 1.29-.42v-1.8h-.94zm3.41-4.76l.39.11a18 18 0 01-.41 1.86h2v.35h-.61a9.1 9.1 0 01-.8 3.49.14.14 0 000 .06A6.28 6.28 0 00215 49l-.29.35a7 7 0 01-1.36-1.91 5.55 5.55 0 01-1.91 1.94l-.17-.32a5.38 5.38 0 001.89-2.06 13.14 13.14 0 01-.63-2.33 8.82 8.82 0 01-.42 1l-.32-.28a12 12 0 00.75-2.06 15.17 15.17 0 00.46-2.15zm-.29 2.87a12.56 12.56 0 00.63 2.5 8.64 8.64 0 00.63-3h-1.09v.16c0 .04-.1.22-.14.34zm7.59-2.93a6.36 6.36 0 01.65 1h3.32v.35h-6.79v2.8a10.09 10.09 0 01-.26 2.28 8.57 8.57 0 01-.71 1.81l-.32-.22a8.33 8.33 0 00.71-1.89 10.22 10.22 0 00.19-2v-3.11h3.37a5.3 5.3 0 00-.48-.82zm-2 5h4.92v.22a3.74 3.74 0 01-1.06 1.35 5.26 5.26 0 01-.65.49 9.49 9.49 0 002.94.83l-.1.38a8.2 8.2 0 01-3.22-1 5.15 5.15 0 01-.79.36 10.44 10.44 0 01-2.89.64l-.11-.38a9.84 9.84 0 002.73-.57c.24-.09.47-.18.68-.28a5.53 5.53 0 01-1.51-1.69h-.94zm-.5-2.54h1.69v-.8h.39v.8h2.29v-.8h.38v.8h1.68v.36h-1.68v1.44h-3.06v-1.45h-1.69zm1.87 2.89a5.31 5.31 0 001.47 1.48 3.84 3.84 0 00.66-.45 3.27 3.27 0 00.9-1zm.21-2.53V45h2.29v-1.07z" fill="#fff"/><g clip-path="url(#a)"><path fill="#acc175" d="M164.46 55.47h73.96v15.41h-73.96z"/></g><path d="M173.72 60.45h2.75v.35h-1.16v2.05h.92v.34h-.92v2.2c.42-.15.79-.3 1.12-.44l.08.31a19 19 0 01-2.68 1l-.14-.38 1.23-.38v-2.31H174v-.34h.94V60.8h-1.2zm3.34 2.95h3.84v1.65h-1.55a3.05 3.05 0 00.64 1 5.56 5.56 0 001.29-.76l.35.19a5.13 5.13 0 01-1.35.85 8.61 8.61 0 001.72 1.29l-.32.32a8.47 8.47 0 01-1.86-1.49 3.69 3.69 0 01-.85-1.4h-.23a4.44 4.44 0 01-.71.62v1.38a14.07 14.07 0 001.4-.56v.32a14.09 14.09 0 01-2.75 1.06l-.09-.38 1-.31v-1.25l-.12.07a9.23 9.23 0 01-1.83.85l-.16-.39a8.36 8.36 0 001.62-.69 5.82 5.82 0 001.07-.72h-1.16zm-.73-.94h5.52v.34h-5.52zm.38-2.5h4.57v1.93h-4.57zm.39 1.58h1v-1.22h-1zm.35 3.17h3.06v-.94h-3.06zm1-4.39v1.22h1v-1.22zm1.41 0v1.22h1v-1.22zm3.31 1.82h1.09v-2.08h.39v2.08h1v.36h-1v2.61a9.83 9.83 0 001.23-.65l.08.39a17.33 17.33 0 01-2.64 1.22l-.21-.38c.42-.14.8-.28 1.15-.43V62.5h-1.09zm3.34.81h4v2.68h-1.2v1.22c0 .23 0 .36.08.37s.46.14 1.16.14a.37.37 0 00.38-.2 4.23 4.23 0 00.13-1.11l.39.18a3 3 0 01-.23 1.24c-.07.18-.3.27-.67.27a3.18 3.18 0 01-1.45-.17c-.12-.08-.18-.24-.18-.5v-1.44H188a2.17 2.17 0 01-.72 1.32 4.22 4.22 0 01-2.24 1l-.13-.35a4 4 0 002-.81 2 2 0 00.65-1.12h-1.09zm1.7-3.41a2.36 2.36 0 01.59.87h2.2v.35h-1l.18.07a5.29 5.29 0 01-.4.72 4.54 4.54 0 01-.34.44h1.94v.36h-5.56V62h1.74a11.54 11.54 0 00-.68-1.09l.19-.14h-1.11v-.35h2.45a2.4 2.4 0 00-.48-.63zm-1.31 4.54h3.16v-.78h-3.16zm0 1.18h3.16v-.83h-3.16zM188 62h.93a4.36 4.36 0 00.41-.55 4.55 4.55 0 00.37-.68h-2.5A7.62 7.62 0 01188 62zm7-2.36l.35.1c-.1.19-.19.36-.28.51a12 12 0 011.83 1.61l-.21.32a10.54 10.54 0 00-1.81-1.64 9.55 9.55 0 01-2.09 2.26l-.28-.23a9.35 9.35 0 002.49-2.93zm-1.33 2.47h2.49v.35h-1.05v1.08H197v.35h-1.86v1.16h1.36v2.53h-.38v-.42h-2.42v.64h-.39v-2.75h1.44v-1.16h-1.9v-.35h1.9v-1.08h-1.05zm0 4.7h2.42V65.4h-2.42zm2.84-3.8h4.22a4 4 0 01-.8 1.71l-.25-.25a2.94 2.94 0 00.54-1.09h-1.45v3.73c0 .47-.17.7-.51.7a4.76 4.76 0 01-1-.11v-.42a3.93 3.93 0 001.06.15c.07 0 .1-.14.1-.43v-3.62h-1.85zm.18-2.8h3.75v.31a7.31 7.31 0 01-1.65 1.68 4.06 4.06 0 01.36.46l-.28.22a6.81 6.81 0 00-1.41-1.51l.29-.22a8.45 8.45 0 01.81.77 6.78 6.78 0 001.44-1.37h-3.28zm5.39 1.58h2.15A9.71 9.71 0 01203 64h1.33a8.34 8.34 0 01-.72 2.18 5.46 5.46 0 001.67.78 10.53 10.53 0 002.85.27q1.35 0 2.19-.06l-.07.37c-.57 0-1.27.07-2.12.07a11 11 0 01-3-.28 7.12 7.12 0 01-1.72-.81 4.59 4.59 0 01-1.17 1.41l-.21-.32a4.63 4.63 0 001.11-1.4 7.94 7.94 0 00.69-1.87h-1.13l-.3.36-.29-.17a10.69 10.69 0 001.56-2.36h-1.59zm.77-2a7.09 7.09 0 01.89 1.48l-.36.26a6.34 6.34 0 00-.85-1.52zm4-.1a5.74 5.74 0 01.53.84h2.69v.35h-1.44a4.47 4.47 0 01-.32.49l-.35.44h1.69v4.46c0 .42-.24.63-.7.63a5 5 0 01-.7-.07v-.39a2.8 2.8 0 00.7.1c.21 0 .31-.11.31-.35v-4h-4.16v4.5h-.39v-4.93h1.56a7.16 7.16 0 00-.62-.93h-1.42v-.35h2.71a4.33 4.33 0 00-.36-.62zm-1.4 3.31H207v-.73h.39V63h1.55v.33h-1.55v.8h1V66H208v-.35h-1.59v.49H206v-2h1v-.8h-1.51zm1.28-1.25h.83c.12-.14.24-.3.38-.48a3.26 3.26 0 00.28-.45h-2.11a7.16 7.16 0 01.62.94zm-.36 3.61H208v-.91h-1.59zm5.3-2.21h2.77a13.24 13.24 0 00.72-1.78l.38.11a14.9 14.9 0 01-.67 1.67h4.71v.39h-2a4.14 4.14 0 01-1.14 2.36 21 21 0 013 1.65l-.24.39a20.64 20.64 0 00-3.1-1.71 8.49 8.49 0 01-4.19 1.67l-.13-.39a8.26 8.26 0 003.89-1.51c-.63-.27-1.29-.53-2-.78-.15.22-.3.42-.44.61l-.32-.28a13.43 13.43 0 001.31-2.05h-2.58zm3.56-3.54a3.12 3.12 0 01.6 1h3.44v1.62h-.42V61h-6.52v1.29h-.42v-1.66h3.48a2.78 2.78 0 00-.49-.77zm.77 6.09a4.27 4.27 0 001.13-2.16h-2.43a14.4 14.4 0 01-.76 1.35c.73.26 1.43.53 2.06.81zm6.35-5.84h2.81a10 10 0 004 3.41l-.24.46a10.91 10.91 0 01-3.86-3.24 11.31 11.31 0 01-1.83 1.83 14.56 14.56 0 01-2.15 1.41l-.21-.46a11 11 0 002.28-1.46 10.12 10.12 0 001.51-1.56h-2.35zm.49 3h4.4v.38h-2v1.66h2.6v.37h-2.6v1.83h3.65v.39h-7.73v-.39h3.65v-1.84h-2.6v-.37h2.6v-1.66h-2z" fill="#fff"/><g clip-path="url(#a)"><path fill="#e9938e" d="M8.52 0h73.96v15.41H8.52z"/></g><path d="M18 6.6a9.7 9.7 0 011.71 1.16l-.24.31a10.57 10.57 0 00-1.69-1.19zm1.65 2.25l.31.21a13.45 13.45 0 01-1.76 3.24l-.38-.3a11.55 11.55 0 001.8-3.15zm-1.1-4.19a8.54 8.54 0 011.65 1.21l-.24.3a9.69 9.69 0 00-1.61-1.23zm2.19-.17a7.93 7.93 0 011.13 1.61l-.36.26a6.52 6.52 0 00-1.13-1.66zm2-.32h.39v2.5h2.12v4.93c0 .46-.25.7-.74.7a4.26 4.26 0 01-1-.15v-.42a3.85 3.85 0 001.06.18c.23 0 .35-.13.35-.38v-1.24H21v2.14h-.38V6.67h2.08zM21 8.29h3.8V7H21zm0 1.64h3.8V8.64H21zm4.15-5.47l.35.17a6.81 6.81 0 01-1.31 1.73l-.31-.29a6.54 6.54 0 001.29-1.61zm2.41.39H30v-.68h.35v.68h1.67v-.71h.35v.71h2.14V6.1h-2.1v.64h2.66a3.25 3.25 0 01-.14.94c0 .13-.19.19-.41.19a2.82 2.82 0 01-1-.26V7.3a3.81 3.81 0 001 .24c.1 0 .17 0 .18-.06a2.24 2.24 0 00.07-.42h-2.36v.77h1.47V11h-5.23V8.17a6 6 0 01-1.28.53l-.14-.28a5 5 0 001.61-.78 3.31 3.31 0 00.6-.58h-1.67l.38-1.27h1.79c0-.2 0-.4.08-.63h-2.46zm3 6.29l.2.27a13 13 0 01-3 1.06l-.14-.36a14.59 14.59 0 002.89-.97zm-.87-4.4l.09-.16a2.72 2.72 0 00.15-.48h-1.52l-.21.64zm-.64 2h4.53v-.59H29zm0 1h4.53v-.65H29zm0 1h4.53v-.66H29zm.15-2.88h2.91v-.8h-2.23a3 3 0 01-.73.77zm2.91-1.09V6.1h-1.86a4.19 4.19 0 01-.19.64zm-1.7-1.58c0 .24 0 .44-.06.63h1.76v-.66zm1.72 6.05a24.44 24.44 0 013 .87l-.13.39a20.22 20.22 0 00-3-.94zm.33-6.05v.63h1.74v-.66zm7.39 6.12l.24.32a18.59 18.59 0 01-3.27.8l-.14-.43a19.78 19.78 0 003.17-.69zM39 6.17l.25.28a13.68 13.68 0 01-2.28 1.27l-.22-.27A12.63 12.63 0 0039 6.17zm-1.71-1.78a7.57 7.57 0 011.78.9l-.2.33a7.2 7.2 0 00-1.73-.92zm.81 3.19h5.37v3.48H38.1zm.38 1.09h4.6v-.74h-4.6zm0 1h4.6V9h-4.6zm0 1h4.6V10h-4.6zm2.18-6.54l.39.1a3.66 3.66 0 01-.37.67h3.88a3.82 3.82 0 01-.87 1.42l-.43-.22a2.7 2.7 0 00.74-.83h-1.9a2.69 2.69 0 01-.32.81 21.45 21.45 0 013 1.4l-.28.32a15.28 15.28 0 00-3-1.43 2.7 2.7 0 01-.84.62 5.83 5.83 0 01-1.79.49l-.11-.35a5.28 5.28 0 001.63-.42 2.46 2.46 0 00.92-.71 1.92 1.92 0 00.35-.75h-1.23v.05a4.67 4.67 0 01-1 .89l-.23-.27a5.88 5.88 0 00.94-.82 3.42 3.42 0 00.52-.93zm1 7.14a21.85 21.85 0 013.18.73l-.15.39a18.79 18.79 0 00-3.13-.76zm4.44-5.65h3.27V6H46.1zm.38 1.16H49v.35h-2.52zm0 1.22H49v.35h-2.52zM49 9.28v2.9h-.38v-.58H47v.58h-.39v-2.9zm-1.67-5.14a5.41 5.41 0 01.88 1.15l-.35.26a5 5 0 00-.86-1.2zm-.33 7.1h1.56V9.63H47zm2.26-6.5H53a38.45 38.45 0 00.35 6.37c.09.46.2.69.32.69s.18-.2.22-.61L54 10l.36.15a7.33 7.33 0 01-.1 1.27 1 1 0 01-.23.67.41.41 0 01-.31.16c-.29 0-.5-.22-.62-.66a26.43 26.43 0 01-.47-6.43H51V7.8h1.4v.35H51v4.28h-.4V8.15h-1.29V7.8h1.27V5.13h-1.31zm10.15.69l.35.15a4.86 4.86 0 01-.52.81h3.31v3H60v2.07a.35.35 0 00.11.3 9.35 9.35 0 002.24.13c.43 0 .68-.06.75-.16a2.47 2.47 0 00.2-1.08l.43.25c-.08.72-.19 1.1-.32 1.15s-.43.18-1.06.18A11.93 11.93 0 0160 12.1a.45.45 0 01-.37-.47V9.38h-.79a3.45 3.45 0 01-.76 1.79 4.14 4.14 0 01-2.36 1.23l-.14-.4a3.76 3.76 0 002.17-1 3.34 3.34 0 00.7-1.57h-1.84v-3h2.18a4.91 4.91 0 00.62-1zm-3.64-.49h2.13v-.77h.39v.77h1.16v.35h-1.16V6h-.39v-.71h-2.13zM57 7.65h2.38v-.91H57zM57 9h2.38V8H57zm2.76-2.29v.91h2.4v-.88zm0 1.26V9h2.4V8zm.12-3.06H61v-.74h.39v.77h2.17v.35h-2.17V6H61v-.71h-1.12zm1.43 4.61l.32.11A7.7 7.7 0 0161 11c.38 0 .79-.11 1.23-.2a3.09 3.09 0 00-.33-.39l.28-.22a5.62 5.62 0 01.82 1.15l-.29.22a2.87 2.87 0 00-.28-.48 10.08 10.08 0 01-2.06.3l-.03-.38h.28a9 9 0 00.69-1.45zm5.45-5.35l.39.1c-.11.3-.22.59-.35.86h2.41a5.72 5.72 0 00-.38-.74l.31-.22a5.53 5.53 0 01.57 1h2.81v.34h-3v.74h2.68v.35h-2.73v.77h2.73v.35h-2.73v.74h3.3v.35h-6.39V5.92a8.16 8.16 0 01-1.08 1.41l-.3-.27a7.6 7.6 0 001.09-1.4 6.38 6.38 0 00.67-1.49zm-1.62 5.34h3.76v-.62h.39v.62h3.76v.35h-3.39a11.68 11.68 0 003.63 1.83l-.31.39A11.35 11.35 0 0169.29 10v2.46h-.39V9.94A7.38 7.38 0 0167.42 11a11.66 11.66 0 01-2.28 1l-.14-.31a11.58 11.58 0 002.11-.86 6.94 6.94 0 001.43-1h-3.4zm3.94-3.3v-.74h-2.32v.74zm0 1.12v-.77h-2.32v.77zm0 1.09v-.74h-2.32v.74z" fill="#fff"/><g clip-path="url(#a)"><path fill="#e9938e" d="M8.52 18.49h73.96V33.9H8.52z"/></g><path d="M15.84 28.23l.39.09a12.72 12.72 0 01-.67 2.36l-.35-.17a14 14 0 00.63-2.28zm1.08-5.53l.39.14a7.84 7.84 0 01-.6 1.31 7.23 7.23 0 01-.62 1c.42 0 .83-.08 1.22-.14a8.64 8.64 0 00.39-.82l.39.13a9.82 9.82 0 01-.92 1.68 9.43 9.43 0 01-1 1.32c.59-.05 1.1-.11 1.52-.17a6 6 0 00-.4-.71l.28-.2a8.39 8.39 0 01.89 1.68l-.39.14a5.19 5.19 0 00-.23-.57c-.74.11-1.56.21-2.45.29l-.07-.38h.35a10.28 10.28 0 001.1-1.5 5.45 5.45 0 00.33-.56c-.55.09-1.12.15-1.71.19l-.1-.35h.3a9.56 9.56 0 00.73-1.18 8.25 8.25 0 00.6-1.3zm.08 5.59a21.38 21.38 0 01.1 2.15h-.36q0-1.23-.06-2.16zm.84-.1a8 8 0 01.53 1.81l-.36.07a7.19 7.19 0 00-.45-1.8zm5.17-5.11v7c0 .47-.22.71-.67.71a4 4 0 01-.71-.08v-.42a3.16 3.16 0 00.74.11c.21 0 .32-.13.32-.39v-6.57h-3.62v7.42h-.35v-7.78zM20.73 26a5.47 5.47 0 01.59 1h1.16v.3h-2.1v1.59c0 .1.05.14.16.14h1.59v.32h-1.59c-.34 0-.51-.15-.51-.46V27.3h-.71V27h1.58a8.66 8.66 0 00-.45-.86zm-1.31-.46h3v.31h-3zm.58-1.65a5.85 5.85 0 01.77 1.24l-.28.2a5.53 5.53 0 00-.77-1.22zm1.82-.07l.35.11a4.94 4.94 0 01-.74 1.44l-.3-.17a5.23 5.23 0 00.68-1.38zm3.39-.67h2.51v2.54h-.92v1.38h1.05v.35H26.8v2.26c.41-.14.8-.29 1.16-.43v.3a18.13 18.13 0 01-3.21 1.13l-.09-.39.51-.13v-3.52h.39v3.41l.82-.25v-4.11h-1.17zm.39 2.18h1.73v-1.82H25.6zm4-2.67l.36.11a5.58 5.58 0 01-.43 1h2.68a6.77 6.77 0 01-1.58 2.4 9.39 9.39 0 002.25 1.26l-.18.38a7.2 7.2 0 01-2.33-1.34A7.86 7.86 0 0127.89 28l-.24-.35a8.49 8.49 0 002.44-1.47 5.61 5.61 0 01-1-1.55 5.46 5.46 0 01-.95 1.06l-.25-.29A6.66 6.66 0 0029 24.1a6.32 6.32 0 00.64-1.44zm2.25 5.07v3.19h-.38v-.55h-2.38v.55h-.39v-3.19zM29.09 30h2.42v-1.92h-2.42zm.19-5.77a5.57 5.57 0 001.09 1.65 6.39 6.39 0 001.32-1.79h-2.32a.56.56 0 01-.09.16zm12.32-.89v7.42h-.5v-.67h-5.77v.67h-.48v-7.42zm-6.27 6.29h5.77v-5.84h-5.77zm8.36-6.22h2.89v.35h-1.26a18 18 0 01-.6 2.22h1.68v4.21H46v-.49h-1.11v.78h-.39v-3.92a10.66 10.66 0 01-.66 1.44l-.28-.24a13.93 13.93 0 001.36-4h-1.23zm1.2 5.94H46v-3h-1.11zM49 22.6l.38.13a5.23 5.23 0 01-.44.85h2.24v3.56h-2.37a1.71 1.71 0 01-.11.14 3.93 3.93 0 01-1.8 1.15l-.25-.31a3.83 3.83 0 001.63-1H47.1v-3.54h1.4a6.24 6.24 0 00.5-.98zm-2.32 6h2.6v-1.18h.42v1.19h2.14V29h-2.1v1.92h-.42V29h-2.6zm.77-3.48H49v-1.2h-1.51zm0 1.65h1.06a2.69 2.69 0 00.38-1.3h-1.4zm1.84-1.3a3.15 3.15 0 01-.32 1.3h1.82v-1.3zm0-1.55v1.2h1.49v-1.2zm7.53-1.28l-3.5 8.28h-.54l3.51-8.28zM58 24.11h3.3v.35H58zm.39 1.22H61v.36h-2.59zm0 1.23H61v.36h-2.59zm2.5 1.28v2.77h-.38v-.42H59v.57h-.39v-2.92zm-1.93 2h1.55v-1.65H59zm.39-7.19a4.7 4.7 0 01.73 1.12l-.35.25a5 5 0 00-.7-1.17zm2 .55H66v.35h-2.18v3.65h2.37v.35h-2.37v3.31h-.38v-3.31h-2.32v-.35h2.32v-3.66h-2.11zm.59 1a12.06 12.06 0 01.89 2.23l-.35.24a12.11 12.11 0 00-.84-2.25zm3.36-.2l.39.11a11.23 11.23 0 01-.88 2.46l-.35-.19A11.54 11.54 0 0065.3 24zm4.04-1.3h.38a15.8 15.8 0 01-.74 2.2v6h-.38v-5.11c-.26.52-.53 1-.84 1.55l-.35-.18a17 17 0 001.93-4.46zm2.35 6.89l.22.28a10.35 10.35 0 01-2.47 1l-.13-.36a10.37 10.37 0 002.38-.92zm-1.93-6.51h5.95v.36h-2.16v.64h1.7v1.54h-5.39v-1.54h1.63v-.64h-1.73zm.45 2.19h1.28v-.84h-1.28zm0 .87h4.5v3.27h-4.5zm.39 1h3.73v-.61H70.6zm0 1h3.73v-.63H70.6zm0 1h3.73v-.63H70.6zm2.6-5v-.64h-1.36v.64zm-1.36.35v.84h1.36v-.84zm1.4 5.24a17.39 17.39 0 012.43.87l-.15.38A16.09 16.09 0 0073.1 30zm.31-5.24v.84h1.35v-.84z" fill="#fff"/><g clip-path="url(#a)"><path fill="#e9938e" d="M8.52 36.98h73.96v15.41H8.52z"/></g><path d="M30.71 45.4v4h-.42v-.63h-2.14v.63h-.43v-4zm-2.56 3h2.14v-2.6h-2.14zm1-6.78h4.4v2.91H29.1zm.42 2.54h3.56V42h-3.61zm5.27 1.25v4h-.42v-.63h-2.3v.63h-.42v-4zm-2.67 3h2.25v-2.6h-2.3zm5.12-7.01h.38V44h1v-2.71H39V44h.67v.35h-2v1.19h1.48v3.8h-.39V45.9h-1.15c0 .51-.09 1-.16 1.43a9.69 9.69 0 01-.51 2.05l-.32-.25a11.38 11.38 0 00.5-2.29 19.31 19.31 0 00.17-2.56zm2.13 5.7h2.89v-1.2h.38v1.2h2.12v.35h-2.12v2h-.38v-2h-2.89zm2.57-6l.39.13a3.26 3.26 0 01-.4.84h2.26v3.56h-2.4a1.7 1.7 0 01-.17.23A4 4 0 0139.81 47l-.24-.32a4 4 0 001.75-1.09h-1.26v-3.53h1.47a2.77 2.77 0 00.47-.97zm-1.55 2.53h1.5v-1.19h-1.5zm0 1.65h1.14a3 3 0 00.34-1.3h-1.48zM42.32 44a3.41 3.41 0 01-.29 1.3h1.82V44zm0-1.56v1.21h1.52v-1.24zm4.42 4.37l.35.07a6.88 6.88 0 01-.7 2.36l-.39-.18a7.68 7.68 0 00.74-2.25zm1-5.59l.39.15A8.23 8.23 0 0147 43.76c.43 0 .85 0 1.25-.09a9.63 9.63 0 00.56-1.11l.39.14a11.36 11.36 0 01-1 1.82 10.91 10.91 0 01-1.07 1.36l1.64-.21a5.65 5.65 0 00-.39-.69l.29-.2a9.55 9.55 0 01.94 1.83l-.39.14a6.55 6.55 0 00-.27-.71c-.83.14-1.74.26-2.72.36l-.1-.4h.45a12.14 12.14 0 001.22-1.56c.08-.12.16-.24.23-.36-.57.07-1.16.11-1.76.14l-.1-.36h.37a6.92 6.92 0 001.25-2.64zm.11 5.55a11.29 11.29 0 01.2 2.12h-.39a12.13 12.13 0 00-.16-2.12zm.83-.13a6.23 6.23 0 01.65 1.75l-.36.08a5.49 5.49 0 00-.6-1.72zm1-.11h4.15v.35h-1.89v1.83h2.39v.35h-5.24v-.35h2.42v-1.83h-1.78zm.59-4l.38.14a8.13 8.13 0 01-1 1.63 9.78 9.78 0 011.09 1.56l-.38.22a8.51 8.51 0 00-1.16-1.76 9.83 9.83 0 001.12-1.83zm-.94-.77H54v.34h-4.62zm2.52.77l.39.14a8.67 8.67 0 01-1.06 1.63 10.08 10.08 0 011.13 1.56L52 46a8 8 0 00-1.21-1.76 9.48 9.48 0 001.11-1.75zm1.59 0l.39.14a8.83 8.83 0 01-1.1 1.64 10 10 0 011.13 1.55l-.39.22a7.9 7.9 0 00-1.19-1.76 10.76 10.76 0 001.21-1.83zm9.98 1.62v1.44H63V44.5h-6.74v1.09h-.39v-1.44zm-5.45-3h.4a6.56 6.56 0 01-.12 1 3.89 3.89 0 001-.59l.25.25a6.05 6.05 0 01-1.39.76c0 .08-.06.16-.09.22a9.49 9.49 0 011.48.8l-.25.32a9.13 9.13 0 00-1.41-.81v.06a2.71 2.71 0 01-1.43.93l-.24-.32a2.63 2.63 0 001.32-.82 3 3 0 00.51-1.83zm-1.12.42l.39.1a4.79 4.79 0 01-.7 1.31l-.35-.18a4.66 4.66 0 00.66-1.26zm.46 3.56H62v1.54h-2.19a5 5 0 01-.27.66h3.05v2.11h-.39V49h-5.11v.41h-.38V47.3h2.41a3.81 3.81 0 00.27-.66h-2.08zm-.22 3.55h5.11v-1h-5.11zm.61-2.36h3.93v-.85H57.7zm2.6-4.65l.39.12A4.84 4.84 0 0160 43l-.35-.17a5.22 5.22 0 00.65-1.19zm1.09-.52h.39a7 7 0 01-.12 1 4.28 4.28 0 001.16-.69l.29.29a6.35 6.35 0 01-1.58.87l-.06.14a11.42 11.42 0 012 .92l-.25.32a11.24 11.24 0 00-1.91-.93v.06a2.67 2.67 0 01-1.32.94l-.25-.32a2.47 2.47 0 001.23-.84 3.28 3.28 0 00.42-1.79z" fill="#fff"/><g clip-path="url(#a)"><path fill="#e9938e" d="M8.52 55.47h73.96v15.41H8.52z"/></g><path d="M29.77 61.54l.32.25a9.45 9.45 0 01-1 1.42v4.69h-.42v-4.25a16.53 16.53 0 01-1.28 1.1l-.24-.36A10.7 10.7 0 0028.66 63a7.87 7.87 0 001.11-1.46zm-.25-1.93l.31.25a6.8 6.8 0 01-1 1.24 10.53 10.53 0 01-1.39 1.11l-.25-.35a8.61 8.61 0 001.35-1.08 6.79 6.79 0 00.98-1.17zm.71 2.77h5.17v.39h-1.81v4.11c0 .59-.26.89-.79.89a4.82 4.82 0 01-1.23-.15v-.46a4.19 4.19 0 001.26.19c.26 0 .39-.17.39-.5v-4.08h-3zm.52-2.28h4.15v.38h-4.15zm7.83-.46l.35.17q-.12.25-.24.48a10.46 10.46 0 011.55 1.63l-.24.33a11 11 0 00-1.49-1.64A17.46 17.46 0 0136.9 63l-.28-.29a15.37 15.37 0 001.96-3.07zm-1 2.5h2v.36h-.88v1.19H40V64h-1.24v2.7c.56-.14 1.07-.27 1.55-.41v.35a23.61 23.61 0 01-3.38.87l-.15-.41c.55-.09 1.07-.2 1.56-.32V64H37v-.35h1.41V62.5h-.81zm-.21 2.42a9.52 9.52 0 01.6 1.66l-.39.14a8.64 8.64 0 00-.5-1.58zm2.28-.13l.35.17a4.72 4.72 0 01-.67 1.69l-.33-.22a5.57 5.57 0 00.67-1.64zm1-4.33a6.92 6.92 0 011 1.62l-.35.24a7.71 7.71 0 00-.94-1.64zm1.51-.49h.39v2.57h1.65V67c0 .47-.31.7-.91.7a4.26 4.26 0 01-1-.15v-.42a3.44 3.44 0 001 .19c.35 0 .52-.13.52-.39v-1.14h-2.87v2.08h-.39v-5.69h1.62zm-1.23 4.18h2.88v-1.26h-2.87zm0 1.65h2.88v-1.3h-2.87zM44.14 60l.36.17a7 7 0 01-1 1.79l-.32-.28a6.53 6.53 0 00.96-1.68zm2.13 2.11A8.41 8.41 0 0148 63.34l-.24.32a10.23 10.23 0 00-1.72-1.28zM48 64.43l.33.2a12.76 12.76 0 01-1.8 3.14l-.35-.26A10.61 10.61 0 0048 64.43zM46.81 60a8 8 0 011.64 1.16l-.24.32a8.64 8.64 0 00-1.62-1.19zm6.56 0l.22.39a13.48 13.48 0 01-2.22.49v1.62h2.93v.35h-2.93v1.65h2v3.37H53v-.64h-3.53v.64h-.38V64.5H51v-1.65h-2.86v-.35H51v-1.6c-.68.09-1.41.15-2.18.19l-.09-.39a15.17 15.17 0 004.64-.7zm-3.9 6.92H53v-2h-3.53zm10.33-7.18l.22.32c-.57.14-1.17.26-1.8.37v.76h2.25v.35h-2.25v.64H60v2.64h-1.78v.7h1.9v.35h-1.9v.84c.74-.1 1.4-.2 2-.32l.05.36c-1.4.26-3 .49-4.65.67l-.07-.42c.82-.08 1.58-.17 2.28-.26v-.9h-2.06v-.35h2.06v-.7h-1.76v-2.61h1.76v-.64h-2.21v-.35h2.21v-.7c-.61.11-1.24.2-1.9.27l-.16-.35a35.28 35.28 0 004.03-.67zm-3.34 3.56h1.37v-.77h-1.37zm0 1.16h1.37v-.8h-1.37zm1.76-1.93v.77h1.38v-.77zm0 1.13v.8h1.38v-.8zm2.08-1.8h1.29v-2.22H62v2.22h1.47a31.47 31.47 0 01-.3 4.77 1.28 1.28 0 01-.34.76.85.85 0 01-.58.19 4.07 4.07 0 01-1.06-.16v-.39a4.85 4.85 0 001.1.17.37.37 0 00.33-.15 1.37 1.37 0 00.22-.69 35.74 35.74 0 00.25-4.15H62a10.33 10.33 0 01-.59 3.59 5.09 5.09 0 01-1.54 2.1l-.25-.32a4.86 4.86 0 001.42-2 10.32 10.32 0 00.53-3.36H60.3z" fill="#fff"/><g clip-path="url(#a)"><path fill="#a2c3e7" d="M164.46 198.6h73.96v15.41h-73.96z"/></g><path d="M173.69 204.22h3.37v.35h-3.37zm.39 1.26h2.63v.35h-2.63zm0 1.34h2.63v.35h-2.63zm2.54 1.29V211h-.39v-.54h-1.58v.5h-.39v-2.82zm-2 2h1.58v-1.63h-1.58zm.34-7.35a5.27 5.27 0 01.85 1.15l-.35.26a5.33 5.33 0 00-.81-1.21zm4.19.06l.35.11a3.89 3.89 0 01-.18.41 11.85 11.85 0 001.31 1.69 7.67 7.67 0 001.29 1.17l-.21.39a9.89 9.89 0 01-1.31-1.23 13.21 13.21 0 01-1.25-1.67 7.69 7.69 0 01-.76 1.19 8.94 8.94 0 01-1.73 1.64l-.22-.25a10.73 10.73 0 001.68-1.6 6.67 6.67 0 001.06-1.87zm2 4.93l.35.18a5.1 5.1 0 01-1.68 2 8.66 8.66 0 01-2.69 1.16l-.16-.35a7.52 7.52 0 002.59-1.1 5.21 5.21 0 001.59-1.91zm-1-1.3l.35.17a5.76 5.76 0 01-1.32 1.64 7.7 7.7 0 01-1.84 1l-.22-.32a6.68 6.68 0 001.81-1 5.1 5.1 0 001.23-1.51zm-.85-1.09l.26.21a5.18 5.18 0 01-.9 1 8.53 8.53 0 01-1.22.94l-.21-.28a8.51 8.51 0 001.2-.9 5.13 5.13 0 00.88-.99zm5.92-2.59a7.84 7.84 0 011.36 1.34h1.26a7.54 7.54 0 001.29-1.37l.41.17a6.89 6.89 0 01-1.16 1.2h3v.36h-8.17v-.36h2.88a10.51 10.51 0 00-1.18-1.12zm2.17 2.54v4.93c0 .42-.23.63-.7.63a5.26 5.26 0 01-.91-.08v-.38a4.84 4.84 0 00.91.11c.19 0 .28-.12.28-.35v-1.41h-2.6V211H184v-5.73zm-3 1.51H187v-1.16h-2.6zm0 1.57H187v-1.22h-2.6zm4.15-2.62h.42v3.72h-.42zm1.66-.92h.42v5.35c0 .46-.27.7-.81.7a3.12 3.12 0 01-.88-.12v-.42a3 3 0 00.92.15q.39 0 .39-.42zm2.43-.6h2.92v.36h-2.92zm.25 1.23h2.32v.35h-2.32zm0 1.31h2.32v.35h-2.32zm2.25 1.25v2.6h-.39v-.41h-1.34v.63h-.4V208zm-1.42-5.3a5.06 5.06 0 01.72 1.13l-.35.24a5.32 5.32 0 00-.68-1.17zm-.31 7.14h1.34v-1.49h-1.34zm4-4.4v.35a11 11 0 01-1.81 1.12l-.16-.35a7.8 7.8 0 001.95-1.12zm-1.51-2.39a8.06 8.06 0 011.19 1.13l-.29.28a6.37 6.37 0 00-1.16-1.16zm2.56 1.61h.39a6.27 6.27 0 01-.19.87 5.89 5.89 0 001 1.22 6.09 6.09 0 001.3.9l-.17.35a4.66 4.66 0 01-1.2-.8 5 5 0 01-1-1.26 3.54 3.54 0 01-.42.68 4.38 4.38 0 01-1.85 1.29l-.22-.29a4.16 4.16 0 001.74-1.16 3.74 3.74 0 00.6-1.8zm1.48 3.34v3h-.4v-.6h-2.74v.56h-.38v-3zm-3.14 2h2.74v-1.66h-2.74zm1.2-7.25l.39.11a6.2 6.2 0 01-.3.89h2.51a5.59 5.59 0 01-.55 1.61l-.39-.22a3.7 3.7 0 00.41-1h-2.15v.06a5.37 5.37 0 01-.77 1.1l-.25-.29a5.35 5.35 0 00.7-1 4.72 4.72 0 00.41-1.25zm4.01 1.43h3.21v.35H202zm.33 1.16h2.49v.35h-2.49zm0 1.22h2.53v.4h-2.53zm2.45 1.28v2.9h-.39v-.58h-1.51v.66h-.39v-3zm-1.58-5.14a5.06 5.06 0 01.88 1.13l-.35.24a4.84 4.84 0 00-.85-1.17zm-.32 7.1h1.51v-1.61h-1.51zm3.37-7.1l.39.1a7 7 0 01-.37 1.23h3.54a30.66 30.66 0 01-.31 6.19.8.8 0 01-.78.64 7.26 7.26 0 01-1.31-.12v-.42a10 10 0 001.34.12c.24 0 .38-.22.44-.66a40.4 40.4 0 00.2-5.35h-3.25a8.15 8.15 0 01-.94 1.57l-.23-.25a8.55 8.55 0 00.77-1.34 8.18 8.18 0 00.55-1.71zm2.05 2.77v4.11h-.3V209h-1.9v.73h-.39v-4.26zm-2.24 1.49H208v-1.16h-1.9zm0 1.66H208v-1.31h-1.9zm5.43-4.44h3.21v.35h-3.21zm.39 1.16h2.5v.35h-2.5zm0 1.22h2.47v.4h-2.47zm2.32 1.28v2.9h-.38v-.58h-1.48v.66H212v-3zm-1.86 2h1.48v-1.61h-1.48zm.39-7.1a5.27 5.27 0 01.85 1.15l-.35.26a5.33 5.33 0 00-.81-1.21zm2.08 1.9h4.56v.32h-2.14v1.51h1.79v.36h-1.79v1.57h2.49v.35h-2.49V211h-.39v-2.25h-2.32v-.35h2.32v-1.57h-1.75v-.36h1.75V205h-2zm.74-1.9a7.23 7.23 0 011 1.44l-.35.24a6.54 6.54 0 00-1-1.48zm2.8 0l.35.17a5.63 5.63 0 01-1.09 1.53l-.31-.29a5.51 5.51 0 001.08-1.42zm9.59 5.75v1.76h1.23v.35h-8.23v-.35h1.27v-1.76zm-5.66-5.12h2.56v-.67h.35v.67h2.53v1h1.35v.35h-1.35v1.06h-2.53v.67h3.62v.36h-7.51v-.36h3.54v-.67h-2.56v-.35h2.56v-.71H221v-.35h3.83v-.66h-2.56zm.17 3.61l.33.19a6.9 6.9 0 01-1.27 1.47l-.32-.25a5.17 5.17 0 001.26-1.43zm.14 3.27h1.35v-1.4h-1.35zm1.37-3.15a3.22 3.22 0 01.57 1.12l-.38.11a3.1 3.1 0 00-.54-1.13zm.35 3.15h1.42v-1.4h-1.42zm.88-6.53v.66h2.15v-.66zm0 1v.71h2.15v-.71zm.54 2.25a6.06 6.06 0 01.77 1.21l-.38.14a5.06 5.06 0 00-.68-1.13zm.39 3.27h1.44v-1.4h-1.44zm1.47-3.3a12.37 12.37 0 011.22 1.4l-.28.29a8.34 8.34 0 00-1.22-1.44z" fill="#fff"/><g clip-path="url(#a)"><path fill="#a2c3e7" d="M164.46 217.09h73.96v15.41h-73.96z"/></g><path d="M173.87 225.6h7.91v.3h-3.13v.54H181v3.06h-.4v-.5h-5.54v.48h-.39v-3.08H177v-.54h-3.1zm4.19-4v.31h-3.49v3H178v.2a5.46 5.46 0 001.49-.46 3.4 3.4 0 01-1-1h-.33v-.28h2.9v.21a3 3 0 01-1 1.12 6.48 6.48 0 001.59.5l-.17.35a5.49 5.49 0 01-1.74-.67 5.91 5.91 0 01-1.86.64l-.1-.24h-3.62v-3.62zm-2.47.42l.32.06a2 2 0 01-.19.39h1.8v.25h-1a4.32 4.32 0 01-.06.59h1.29v.25h-1.33a5.32 5.32 0 011.14 1l-.17.23a7.37 7.37 0 00-1.06-1 1.26 1.26 0 01-.14.26 2.1 2.1 0 01-1.08.72l-.22-.27a2.19 2.19 0 001-.64 1.27 1.27 0 00.18-.35h-1.24v-.25h1.3a4.83 4.83 0 000-.59h-.68a2.59 2.59 0 01-.41.49l-.26-.24a2.45 2.45 0 00.44-.47 2 2 0 00.37-.45zm-.52 5.94h5.54v-.49h-1.78c-.36 0-.54-.15-.54-.43v-.27h-1a.93.93 0 01-.37.44 3 3 0 01-1.44.4l-.12-.33a3.09 3.09 0 001.27-.28.69.69 0 00.27-.23h-1.81zm0 .81h5.54v-.53h-5.54zm3.22-2.32v-.54h-1v.54zm.67-4.85h1.73v.9a.35.35 0 000 .17.58.58 0 00.28.05 4.19 4.19 0 00.84-.07v.35a4.19 4.19 0 01-.84.07 1.14 1.14 0 01-.58-.09.3.3 0 01-.09-.23v-.84h-1.2a1.78 1.78 0 01-.26.9 1.3 1.3 0 01-.79.43l-.15-.36a.93.93 0 00.6-.28 1.34 1.34 0 00.26-1zm-.31 5.17v.23q0 .15.18.15h1.78v-.42zm.26-3.18a2.62 2.62 0 00.91.87 3 3 0 00.9-.87zm6.2-2.33l.39.14a4.68 4.68 0 01-.51 1.13h1.31V225h-2.2v1h2.32v3.16H186v-.56h-1.9v.74h-.39v-6.86h.83a3.86 3.86 0 00.57-1.22zm-1 3.38h1.82v-1.76h-1.83zm0 3.66H186v-1.9h-1.9zm2.49-6.47h4.75v.35h-2.19v1.4h1.73v3.8c0 .47-.18.7-.53.7a3.61 3.61 0 01-.74-.09v-.43a2.8 2.8 0 00.78.14c.07 0 .11-.13.11-.39v-3.38h-1.31v5.59h-.4v-5.59h-1.24v4.41h-.42v-4.76h1.66v-1.4h-2.16zm5.99.88H196v.35h-3.37zM193 224h2.63v.35H193zm0 1.34h2.63v.36H193zm2.54 1.3v2.85h-.39v-.53h-1.58v.5h-.39v-2.82zm-2 2h1.58V227h-1.58zm.34-7.34a5 5 0 01.85 1.15l-.35.25a5.07 5.07 0 00-.81-1.2zm4.19.06l.35.1a4.08 4.08 0 01-.18.42 11.75 11.75 0 001.31 1.68 7.67 7.67 0 001.29 1.17l-.21.39a9.27 9.27 0 01-1.31-1.23 13.1 13.1 0 01-1.25-1.66 7.61 7.61 0 01-.76 1.18 9 9 0 01-1.73 1.65l-.22-.26a10.29 10.29 0 001.68-1.6 6.62 6.62 0 001.04-1.9zm2 4.92l.35.18a5.1 5.1 0 01-1.68 2 8.47 8.47 0 01-2.68 1.16l-.17-.35a7.52 7.52 0 002.59-1.1 5.12 5.12 0 001.57-1.95zm-1-1.29l.35.16a5.47 5.47 0 01-1.32 1.64 7.7 7.7 0 01-1.84 1l-.21-.32a6.61 6.61 0 001.8-1 5.37 5.37 0 001.21-1.54zm-.85-1.09l.26.2a5.22 5.22 0 01-.9 1 9.33 9.33 0 01-1.22.94l-.21-.28a9.51 9.51 0 001.2-.91 5.41 5.41 0 00.86-1.01zm8.07-2.66a5 5 0 01.82.83h3.13v.35h-6.55V225a9.83 9.83 0 01-.33 2.83 4.83 4.83 0 01-.93 1.68l-.25-.31a4.32 4.32 0 00.84-1.61 8 8 0 00.25-1.48 6.5 6.5 0 01-1.09.87l-.14-.35a7.58 7.58 0 001.26-1v-3.53h3.29a7.23 7.23 0 00-.61-.63zM202.4 223a12.15 12.15 0 01.77 1.9l-.38.13a9.21 9.21 0 00-.68-1.82zm3.19 4.42l.21.29a7.19 7.19 0 01-2 1.19l-.15-.35a7.12 7.12 0 001.94-1.14zm-1.47-4.14h2.3c.14-.24.28-.5.41-.78l.35.15a6.16 6.16 0 01-.32.63H210v.35h-2.36a6.45 6.45 0 00.88.84 3.35 3.35 0 00.7-.62l.33.16a4.23 4.23 0 01-.71.69 12.21 12.21 0 001.58.94l-.32.35a13.21 13.21 0 01-1.3-.82v2h-1.61v1.54q0 .81-.57.81a2.46 2.46 0 01-.94-.18v-.42a2.52 2.52 0 001 .22c.12 0 .18-.16.18-.46v-1.51h-1.76v-2a6.79 6.79 0 01-1.13.64l-.16-.32a7 7 0 001.32-.78 4.58 4.58 0 00-.7-.58l.22-.25a4.06 4.06 0 01.75.62l.17-.16a4.73 4.73 0 00.61-.71h-2.06zm1.37 2.49h2.92v-.63h-2.92zm0 1h2.92v-.67h-2.92zm.12-2h2.7a6.32 6.32 0 01-1.11-1.16h-.56a5.37 5.37 0 01-.82 1 1.8 1.8 0 01-.21.17zm2.66 2.63a11.23 11.23 0 011.94 1.28l-.21.32a10.91 10.91 0 00-1.9-1.31zm3.29-4.17h1.31v-2h.42v2h1.33v.39h-1.33v1.78c.43-.19.83-.38 1.2-.59v.4c-.38.23-.78.45-1.22.66v2.78c0 .52-.22.78-.67.78a1.69 1.69 0 01-.8-.19v-.45a1.88 1.88 0 00.84.22c.17 0 .25-.16.25-.47v-2.48c-.4.17-.81.32-1.24.48l-.14-.45c.49-.17.95-.33 1.38-.5v-2h-1.31zm3.06-.74h2.21v-1.25h.43v1.25h2.25v.39h-2.25v1.86h1.89v.26a6.37 6.37 0 01-1.71 2.69 6.79 6.79 0 002.31 1.3l-.24.45a6.38 6.38 0 01-2.4-1.46 8.17 8.17 0 01-3 1.5l-.26-.46a7.36 7.36 0 002.95-1.39 7.24 7.24 0 01-1.46-2.52h-.46v-.39h2v-1.86h-2.21zm1.12 2.64a6.08 6.08 0 001.35 2.24 5.75 5.75 0 001.53-2.24zm7.13-1.58l.35.1a9.51 9.51 0 01-.77 1.45v4.36h-.39v-3.8a9.08 9.08 0 01-.87 1l-.28-.24a8.56 8.56 0 001.96-2.87zm-.13-2.11l.35.11a8.23 8.23 0 01-1.73 2.64l-.28-.26a7.5 7.5 0 001.66-2.49zm1 2.85l.38.07a13.68 13.68 0 01-.27 2.17 11.73 11.73 0 01-.5 1.66l-.31-.27a11.67 11.67 0 00.47-1.66 16.4 16.4 0 00.21-1.97zm-.39-1.09h1.31v-2h.34v2h1.57v.35H225v6h-.39v-6h-1.31zm2.14-1.55a7.38 7.38 0 011 1.12l-.28.29a6.23 6.23 0 00-1-1.16zm.19 2.67h.32v2.89c0 .11.06.17.18.17h.8v.35h-.8a.46.46 0 01-.53-.52zm.88-.17h2.66v.36h-1v4c0 .54-.29.82-.87.82a4.34 4.34 0 01-1-.12v-.42a3.93 3.93 0 001.06.15.42.42 0 00.48-.47v-4h-1.25zm.17-2.08H229v.35h-2.25z" fill="#fff"/><g clip-path="url(#a)"><path fill="#a2c3e7" d="M164.46 235.58h73.96v15.41h-73.96z"/></g><path d="M173.87 244.08h7.91v.31h-3.13v.53H181V248h-.4v-.45h-5.54v.45h-.39v-3.09H177v-.53h-3.1zm4.19-4v.32h-3.49v3H178v.2a5.45 5.45 0 001.49-.47 3.37 3.37 0 01-1-1h-.33v-.28h2.9v.15a2.91 2.91 0 01-1 1.11 6.48 6.48 0 001.59.5l-.17.36a5.49 5.49 0 01-1.74-.67 6.17 6.17 0 01-1.86.63l-.1-.24h-3.62v-3.62zm-2.47.42l.32.07a1.93 1.93 0 01-.19.38h1.8v.26h-1a4.5 4.5 0 01-.06.59h1.29v.2h-1.33a5.9 5.9 0 011.14 1l-.17.24a8.09 8.09 0 00-1.06-1 1.13 1.13 0 01-.14.27 2.23 2.23 0 01-1.08.72l-.22-.27a2.2 2.2 0 001-.65 1 1 0 00.18-.35h-1.24v-.24h1.3a4.83 4.83 0 000-.59h-.68a2.85 2.85 0 01-.41.48l-.26-.24a2.4 2.4 0 00.44-.46 1.85 1.85 0 00.37-.42zm-.52 5.95h5.54v-.5h-1.78c-.36 0-.54-.14-.54-.43v-.27h-1a.91.91 0 01-.37.45 3.13 3.13 0 01-1.44.39l-.12-.32a3.27 3.27 0 001.27-.28.8.8 0 00.27-.24h-1.81zm0 .8h5.54v-.52h-5.54zm3.22-2.32v-.53h-1v.53zm.67-4.85h1.73v.92a.31.31 0 000 .16.46.46 0 00.28.06 5.08 5.08 0 00.84-.07v.31a4.19 4.19 0 01-.84.07 1.32 1.32 0 01-.58-.08.32.32 0 01-.09-.23v-.85h-1.2a1.75 1.75 0 01-.26.9 1.25 1.25 0 01-.79.43l-.15-.35a1 1 0 00.6-.28 1.37 1.37 0 00.26-1zm-.31 5.17v.27q0 .15.18.15h1.78v-.42zm.26-3.17a2.82 2.82 0 00.91.87 3 3 0 00.9-.87zm4.34-.53h1.69v-1.8h.39v1.8h1.47v.35h-1.47v6.1h-.39v-5a9.18 9.18 0 01-1.58 3l-.32-.28a8.21 8.21 0 001.18-1.87 8.13 8.13 0 00.65-1.93h-1.62zm2.5 1.12a11.07 11.07 0 011.22 1.48l-.31.32a10.21 10.21 0 00-1.24-1.56zm1.54-1.12h2.43v-1.8h.39v1.8h1.29v.35h-1.29v5.27a.64.64 0 01-.74.71 3.19 3.19 0 01-1.16-.22v-.42a3 3 0 001.2.25c.24 0 .35-.14.35-.42v-4.37a12.83 12.83 0 01-1.37 2 10.1 10.1 0 01-1.69 1.6l-.24-.39a10.21 10.21 0 001.76-1.71 15.75 15.75 0 001.53-2.29h-2.42zm5.3-.35h3.35v.35h-3.35zm.39 1.22h2.57v.35H193zm0 1.23h2.54v.35H193zm2.47 1.27v2.64h-.39v-.29h-1.59v.57h-.39v-2.92zm-2 2h1.59v-1.64h-1.59zm.42-7.23a5.06 5.06 0 01.82 1.16l-.35.24a5.24 5.24 0 00-.78-1.2zm2.15 4.18H200a7.56 7.56 0 01-1.51 2.53 4.44 4.44 0 00.38.27 8.3 8.3 0 002 .93l-.25.38a8.1 8.1 0 01-2-1 3.38 3.38 0 01-.36-.27 6.16 6.16 0 01-2.55 1.29l-.14-.32a6 6 0 002.42-1.22 4.43 4.43 0 01-.6-.71 4.86 4.86 0 01-.68-1.51H196zm1.06-3.74h2.24v2.33a.59.59 0 000 .3.79.79 0 00.34.05 6.26 6.26 0 001-.09v.38a4.14 4.14 0 01-1 .1c-.43 0-.67 0-.71-.17a.53.53 0 01-.08-.35v-2.18h-1.63a6.16 6.16 0 01-.37 2.24 1.86 1.86 0 01-1.1 1l-.15-.39a1.48 1.48 0 00.87-.7 5.61 5.61 0 00.37-2.52zm-.12 4.09a4.24 4.24 0 00.65 1.35 3.61 3.61 0 00.53.58 7 7 0 001.24-1.93zm6.78-4.5l.38.1c-.23.81-.45 1.52-.66 2.12V248h-.39v-5.12a14.65 14.65 0 01-.85 1.68l-.28-.22a14.83 14.83 0 001-2.13 18.35 18.35 0 00.8-2.49zm.44 1.06h1.4v-.93h.42v.93h1.93v-1h.39v1h1.51v.35h-1.51v1.09h1.9v.35h-4.64c-.07.23-.15.47-.24.73h4.27v3.94c0 .43-.2.64-.59.64a4.22 4.22 0 01-.92-.12v-.38a3.43 3.43 0 00.92.15c.13 0 .2-.12.2-.36v-.95h-1.76v1.51h-.38v-1.51h-1.58V248h-.39v-4.16l-.24.55a11.55 11.55 0 01-1.05 1.75l-.26-.25a9.08 9.08 0 001-1.75 10.75 10.75 0 00.6-1.58h-1.41v-.35h1.81v-1.09h-1.4zm1.31 3.76h1.58v-.85h-1.58zm0 1.32h1.58v-1h-1.58zm.5-3.64h1.93v-1.09H206zm1.46 1.47v.85h1.76v-.85zm0 1.2v1h1.76v-1zm5.07-2.37h2.87v-.58h.39v.58h2.92v.36h-2.92v1h3.69v.35h-2v.87h2.19v.35h-2.16V247c0 .59-.27.89-.82.89a6.53 6.53 0 01-1-.08v-.46a4.72 4.72 0 001.06.12q.42 0 .42-.51v-1.51h-5.5v-.35h5.5v-.87h-5.32v-.35h3.61v-1h-2.87zm.81-2.83l.38.09a4.17 4.17 0 01-.36.81h2.43v.35h-1.68a7.14 7.14 0 01.67.89l-.32.24a9.43 9.43 0 00-.84-1.13h-.48l-.1.17a7.24 7.24 0 01-1.15 1.25l-.25-.26a7.06 7.06 0 001-1 5.31 5.31 0 00.7-1.41zm.31 6a7.87 7.87 0 011.65 1l-.25.3a9.29 9.29 0 00-1.62-1zm3.12-6l.36.1a4.13 4.13 0 01-.35.77h2.81v.35h-1.91a6.94 6.94 0 01.75.89l-.31.24a10.49 10.49 0 00-.93-1.13h-.62a3.87 3.87 0 01-.74.85l-.24-.28a5.6 5.6 0 00.73-.85 3.85 3.85 0 00.45-.91zm4.86 5.66l.35.06a7.35 7.35 0 01-.71 2.43l-.35-.18a7.76 7.76 0 00.71-2.31zm1.19-5.5l.38.15a9.64 9.64 0 01-1.29 2.29l1.34-.1c.2-.34.37-.67.52-1l.39.13a11.67 11.67 0 01-1 1.76 11 11 0 01-1.09 1.35 13.52 13.52 0 001.72-.17c-.14-.25-.28-.49-.44-.73l.32-.2a6.77 6.77 0 01.81 1.48l-.36.24a3.66 3.66 0 00-.18-.46 16.05 16.05 0 01-2.88.25l-.07-.38h.59a12 12 0 001.2-1.5l.28-.44c-.64.08-1.29.13-2 .15l-.11-.35h.44a10.26 10.26 0 001.4-2.46zm.06 5.46a10.7 10.7 0 01.19 2.07h-.39a12.49 12.49 0 00-.15-2.06zm.85-.18a7.42 7.42 0 01.53 1.59l-.38.1a6.32 6.32 0 00-.5-1.54zm.46-4.71h4l-.76 2.22h1.39a8.22 8.22 0 01-1.26 3.27.61.61 0 01-.12.16 8.74 8.74 0 001.84 1.53l-.27.4a8.56 8.56 0 01-1.82-1.57 8.14 8.14 0 01-2.32 1.63l-.22-.35a7 7 0 002.27-1.59l-.16-.25a7.89 7.89 0 01-1.06-2.27 7.58 7.58 0 01-.54 2.5 4.55 4.55 0 01-1.46 1.86l-.21-.31a4.43 4.43 0 001.33-1.79 8.84 8.84 0 00.54-3.26v-1.77h-1.2zm1.58 2a9.54 9.54 0 001.24 3 1.61 1.61 0 00.21.3 7 7 0 001.12-2.75H227l.75-2.21h-1.94z" fill="#fff"/><g clip-path="url(#a)"><path fill="#a2c3e7" d="M164.46 254.07h73.96v15.41h-73.96z"/></g><path d="M173.69 259.69h3.37v.31h-3.37zm.39 1.26h2.63v.35h-2.63zm0 1.34h2.63v.35h-2.63zm2.54 1.29v2.86h-.39v-.54h-1.58v.5h-.39v-2.82zm-2 2h1.58v-1.63h-1.58zm.34-7.35a5.27 5.27 0 01.85 1.15l-.35.26a5.33 5.33 0 00-.81-1.21zm4.19.06l.35.11a3.89 3.89 0 01-.18.41 11.85 11.85 0 001.31 1.69 7.67 7.67 0 001.29 1.17l-.21.39a9.89 9.89 0 01-1.31-1.23 13.21 13.21 0 01-1.25-1.67 7.69 7.69 0 01-.76 1.19 8.94 8.94 0 01-1.73 1.64l-.22-.25a10.73 10.73 0 001.68-1.6 6.67 6.67 0 001.06-1.87zm2 4.93l.35.18a5.18 5.18 0 01-1.68 2 8.66 8.66 0 01-2.69 1.16l-.16-.35a7.52 7.52 0 002.59-1.1 5.21 5.21 0 001.59-1.91zm-1-1.3l.35.17a5.76 5.76 0 01-1.32 1.64 7.7 7.7 0 01-1.84 1l-.22-.32a6.68 6.68 0 001.81-1 5.1 5.1 0 001.23-1.51zm-.85-1.09l.26.21a5.18 5.18 0 01-.9 1 8.53 8.53 0 01-1.22.94l-.21-.28a8.51 8.51 0 001.2-.9 5.13 5.13 0 00.88-.99zm5.88-2.52l.28.22a7.09 7.09 0 01-.89 1.4 9.36 9.36 0 01-1.21 1.27l-.25-.32a9.42 9.42 0 001.19-1.23 6.69 6.69 0 00.88-1.34zm.18 1.8l.28.21a7.15 7.15 0 01-.85 1.44v4.74h-.38v-4.22a12.2 12.2 0 01-1 1.14l-.25-.32a11.06 11.06 0 001.3-1.43 8.26 8.26 0 00.9-1.56zm2.7-1.9l.42.17a6.31 6.31 0 01-.82 1.05 7 7 0 01-.8.74c.65 0 1.29-.07 1.91-.12a9.31 9.31 0 001.12-1.17l.46.17a10.61 10.61 0 01-1.69 1.61 15.09 15.09 0 01-1.8 1.23 27.45 27.45 0 003.13-.26c-.25-.26-.52-.51-.8-.75l.32-.22a8.69 8.69 0 011.61 1.73l-.42.18a6.86 6.86 0 00-.46-.64 23 23 0 01-2.54.29 3.48 3.48 0 01-.35.66h2.79v.35a5 5 0 01-1.36 1.63h.06a12.67 12.67 0 002.6 1.25l-.32.39a11.85 11.85 0 01-2.54-1.29l-.18-.13h-.05a11.89 11.89 0 01-3.13 1.38l-.18-.39a11.07 11.07 0 003-1.28 7.21 7.21 0 01-1.25-1.28 8.15 8.15 0 01-1.46 1.3l-.25-.25a8.51 8.51 0 001.32-1.15 4.86 4.86 0 00.82-1.24h-1.57l-.07-.39h.67a16.7 16.7 0 002-1.38l.11-.1c-.79.07-1.61.12-2.44.15l-.11-.35h.52a8.67 8.67 0 00.92-.89 6.53 6.53 0 00.81-1zm-1 5a6.67 6.67 0 001.35 1.36 4.19 4.19 0 001.21-1.38h-2.55zm7.46-5l.43.13c-.28.91-.55 1.67-.81 2.3v5.86h-.43v-4.94a13.59 13.59 0 01-.87 1.54l-.31-.26a15.49 15.49 0 001.13-2.13 16.14 16.14 0 00.86-2.5zm1.09.45h4.12v2.74h-1.89v1.06h2.84v.38h-2.48a8.37 8.37 0 002.55 2.61l-.31.38a8.92 8.92 0 01-2.6-2.78v3.45h-.42V263a7.81 7.81 0 01-1.06 1.48 8.19 8.19 0 01-1.62 1.37l-.18-.35a6.64 6.64 0 001.45-1.23 6.37 6.37 0 001-1.41h-2.39v-.38h2.79v-1.08h-1.81zM196 261h3.28v-2H196zm8.65-2.76a6 6 0 01.82.91h1.41a2.84 2.84 0 00.79-1l.42.13a3 3 0 01-.71.84h2.29v.35h-3.34v.53h2.88v.35h-2.88v.65h3.8v.35h-2.54a8.26 8.26 0 002.71 1.61l-.31.36a13.14 13.14 0 01-1.48-.81v2h-2.12a4.29 4.29 0 001 .72c.34-.1.64-.21.92-.32a5.49 5.49 0 00.84-.51l.24.28a4.09 4.09 0 01-.85.52 6.37 6.37 0 01-.7.27 9.86 9.86 0 002.41.65l-.18.41a8.28 8.28 0 01-2.45-.74 4.85 4.85 0 01-1.69-1.29h-1.69v1.3a20.4 20.4 0 002.1-.56v.35q-1.92.56-3.42.84l-.16-.35c.37-.06.72-.13 1.05-.2v-3.38a7 7 0 01-1.62.76l-.18-.32a6.49 6.49 0 001.71-.8 3.68 3.68 0 00.88-.81h-2.41V261h3.72v-.56h-2.81V260h2.84v-.54h-3.26v-.35H205a5.88 5.88 0 00-.64-.69zm-.53 4.05h2.08a5.59 5.59 0 00-.61-.68l.28-.21a5.13 5.13 0 01.78.89h1.61a6.08 6.08 0 01-1.11-1h-2.08a3.42 3.42 0 01-.95 1zm.11.87h3.89v-.55h-3.89zm0 1h3.89v-.64h-3.89zm7.33-4.02h1.31v-1.9h.39v1.9h1.12v.35h-1.12v1.81c.41-.26.8-.52 1.16-.78v.31a11 11 0 01-1.19.87v3c0 .46-.25.7-.74.7a1.85 1.85 0 01-.67-.12v-.42a1.73 1.73 0 00.7.15c.23 0 .35-.14.35-.42v-2.62c-.4.23-.81.44-1.24.64l-.1-.38c.47-.22.92-.45 1.34-.68v-2h-1.31zm2.67 2.15h5.35v.35h-2.46v1.29H219v.36h-1.89v1.41a9.17 9.17 0 001.73.13h.88l-.07.42h-.81a5.68 5.68 0 01-2.62-.44 3.22 3.22 0 01-1.15-1.08l-.14.29a6.41 6.41 0 01-1.06 1.42l-.31-.29a5.27 5.27 0 001.59-3l.38.06a5 5 0 01-.31 1.2 3 3 0 001.07 1.05 1.81 1.81 0 00.44.19v-3h-2.51zm.78-3.63h3.91v2.89H215zm.43 1.23h3.06V259h-3.06zm0 1.31h3.06v-1h-3.06zm5.47-2.5h3.9v.35h-1.3v1.23h1v6.09h-.36v-.61h-2.41v.64h-.36v-6.12h.95v-1.23h-1.37zm.78 5.3h2.41v-1.09h-.42c-.34 0-.52-.18-.52-.55v-1.77h-.52v.58a5.65 5.65 0 01-.19 1.48 3.2 3.2 0 01-.41 1l-.29-.2a3.37 3.37 0 00.4-1.09 5.23 5.23 0 00.13-1.19v-.58h-.59zm0 1.41h2.41v-1.05h-2.41zm1.47-5.13v-1.23h-.52v1.23zm.35.31v1.77a.15.15 0 00.17.17h.42v-1.94zm2 1.38l.35.1a4.79 4.79 0 01-.23.81h1.22v-1.05h.39v1.05h1.64v.35h-1.64v1h1.48v.37h-1.48v1.18h1.93v.35h-4.47v-.35h2.15v-1.18h-1.47v-.37h1.47v-1h-1.37a.39.39 0 010 .13 4.55 4.55 0 01-.59 1l-.24-.28a5 5 0 00.56-1 6.22 6.22 0 00.3-1.08zm-.32-3.34h3.46v2.92h-3.46zm.39 1.26h2.68V259h-2.68zm0 1.31h2.68v-1h-2.68z" fill="#fff"/><g clip-path="url(#a)"><path fill="#f8b73d" d="M8.52 198.6h73.96v15.41H8.52z"/></g><path d="M19.68 205.05l.35.11a9.51 9.51 0 01-.77 1.45V211h-.39v-3.81a9.19 9.19 0 01-.87 1l-.28-.24a8.75 8.75 0 001.96-2.9zm-.13-2.11l.35.12a8.46 8.46 0 01-1.73 2.64l-.28-.26a7.59 7.59 0 001.66-2.5zm1 2.85l.39.07a16.26 16.26 0 01-.27 2.17 11.34 11.34 0 01-.5 1.66l-.31-.27a11.88 11.88 0 00.46-1.65 14.55 14.55 0 00.2-1.98zm-.38-1.09h1.31v-2h.38v2h1.58v.35h-1.61v6h-.38v-6h-1.31zm2.14-1.54a7.36 7.36 0 011 1.12l-.28.29a6.25 6.25 0 00-.95-1.16zm.19 2.67h.35v2.89a.15.15 0 00.17.17h.8v.35H23a.46.46 0 01-.52-.52zm.87-.17H26v.34h-1v4q0 .81-.87.81a4.23 4.23 0 01-1-.11v-.42a4 4 0 001.07.15.42.42 0 00.48-.47v-4h-1.34zm.17-2.08h2.25v.35h-2.28zm5.7-.74l.28.22a8 8 0 01-.89 1.41 10.58 10.58 0 01-1.21 1.26l-.25-.32a9.43 9.43 0 001.19-1.23 7.16 7.16 0 00.88-1.34zm.18 1.8l.28.21a7.65 7.65 0 01-.85 1.44V211h-.39v-4.22a11 11 0 01-1 1.14l-.25-.32a10.36 10.36 0 001.29-1.43 7.84 7.84 0 00.92-1.53zm2.7-1.9l.42.17a5.92 5.92 0 01-.83 1.05 6.21 6.21 0 01-.8.74q1 0 1.92-.12a10.09 10.09 0 001.17-1.17l.45.17a10.09 10.09 0 01-1.68 1.61 14.43 14.43 0 01-1.81 1.23 27.25 27.25 0 003.13-.26 8.22 8.22 0 00-.8-.75l.33-.22a9 9 0 011.61 1.73l-.43.18a5.31 5.31 0 00-.45-.64 23.27 23.27 0 01-2.54.29 4.17 4.17 0 01-.35.66h2.74v.35a5 5 0 01-1.36 1.63h.06a12.81 12.81 0 002.59 1.25l-.31.39a11.62 11.62 0 01-2.54-1.29.83.83 0 01-.18-.13h-.05a12 12 0 01-3.13 1.38l-.19-.39a11 11 0 003-1.28 6.88 6.88 0 01-1.25-1.28 8.5 8.5 0 01-1.46 1.3l-.25-.25a8.43 8.43 0 001.35-1.09 4.89 4.89 0 00.83-1.24h-1.57l-.07-.39h.66a16.27 16.27 0 002-1.39l.12-.1c-.79.07-1.61.12-2.45.15l-.1-.35h.52a9.74 9.74 0 00.92-.89 7.14 7.14 0 00.78-1.05zm-1 5a6.38 6.38 0 001.34 1.36 3.93 3.93 0 001.22-1.38h-2.51zm6.13-4.48h.39v2.22H39v-2.68h.42v8.2H39v-3.51h-1.26a11.25 11.25 0 01-.26 2.34 2.73 2.73 0 01-.61 1.14l-.32-.29a2.75 2.75 0 00.54-1.05 10.24 10.24 0 00.22-2.14h-.66v-.35H39v-1.34h-1.75zm2.39 1.93h2a1.34 1.34 0 000-.2v-2.25h.43v2.45h2.6v.36h-2a9.54 9.54 0 00.7 2.93 7.21 7.21 0 001.53 2.2l-.28.42a8 8 0 01-1.62-2.35 10.69 10.69 0 01-.75-3.2h-.17a9.77 9.77 0 01-.64 3.4 5.09 5.09 0 01-1.64 2.12l-.24-.32a5 5 0 001.51-2 9.19 9.19 0 00.58-3.17h-2zm3.36-2.13a8.19 8.19 0 011.26 1.36l-.27.32a7.42 7.42 0 00-1.24-1.4zm3.2 1.94a7.44 7.44 0 011.51 1.15l-.23.33a9.5 9.5 0 00-1.48-1.2zm1.86 2l.32.22a15.24 15.24 0 01-2 3.76l-.35-.25a13 13 0 002.03-3.73zm-1.32-4a7.3 7.3 0 011.47 1.19l-.24.32a8.69 8.69 0 00-1.45-1.24zm2.21.24h4.61v3.37h-1.42v3.21c0 .22 0 .34.09.37a3 3 0 001.14.11.34.34 0 00.37-.23 7.6 7.6 0 00.13-1.45l.43.17a4.87 4.87 0 01-.24 1.57q-.12.33-.69.33a3.19 3.19 0 01-1.44-.17c-.12-.08-.17-.25-.17-.5v-3.42h-1.17a5.66 5.66 0 01-.76 2.61 4.91 4.91 0 01-2.08 1.79l-.17-.35a4.77 4.77 0 001.89-1.65 5 5 0 00.7-2.39H49zm.39 3h3.83v-2.67h-3.83zm6.28-1.39h2.15a11 11 0 01-1.18 2.25H58a7.69 7.69 0 01-.84 2.3 3.83 3.83 0 001.25.65 14.36 14.36 0 003.31.24c.8 0 1.51 0 2.12-.06l-.06.41c-.59.05-1.28.07-2.06.07a14.91 14.91 0 01-3.39-.25 4 4 0 01-1.37-.73 4.59 4.59 0 01-1.21 1.3l-.2-.32a4.71 4.71 0 001.21-1.39 6.55 6.55 0 00.75-1.83h-1.2l-.27.35-.32-.21a11.57 11.57 0 001.45-2.39h-1.55zm.64-2a6.47 6.47 0 01.94 1.38l-.35.25a6.09 6.09 0 00-.92-1.41zm4.17-.13l.42.13a3.89 3.89 0 01-.41 1h2.28v2.27h-3.8v.88H63v2.79h-.42v-.64h-3.7v.6h-.38v-5.9H60a3.53 3.53 0 00.43-1.11zm-1.51 3h3.41v-1.57h-3.41zm0 3h3.7v-1.41h-3.7zm6.57-5.46h2.08v2.53h-.7V207h.87v.35h-.87v2.28c.41-.17.79-.34 1.12-.51l.06.31a20.43 20.43 0 01-3 1.33l-.14-.39.56-.18v-3.32h.38V210l.68-.25v-4h-1zm.39 2.18h1.3v-1.83h-1.3zm3.37-.8l.39.1a15.46 15.46 0 01-.7 1.65V211h-.4v-4a10 10 0 01-.63.92l-.29-.22a9.22 9.22 0 00.92-1.44 9.05 9.05 0 00.71-1.62zm-.2-1.77l.38.12a9.27 9.27 0 01-.67 1.43 8.31 8.31 0 01-.77 1.13l-.29-.21a6.85 6.85 0 00.76-1.14 8 8 0 00.59-1.33zm2.1 3.38h.39v1.34h1.37v.41h-1.37v2.17a3.66 3.66 0 001.12.15h.6l-.06.45h-.54a2.51 2.51 0 01-1.78-.5 3.24 3.24 0 01-.71-1l-.09.31a4.28 4.28 0 01-.72 1.52l-.28-.25a4.85 4.85 0 00.67-1.43 10.32 10.32 0 00.27-2.4h.39a10 10 0 01-.13 1.72 2.74 2.74 0 00.7 1.14.75.75 0 00.17.14zm-.63-3.41l.39.1c-.12.5-.24.94-.34 1.32a3.93 3.93 0 01.8.83l-.26.35a3.79 3.79 0 00-.66-.78 1 1 0 00-.07.15 11.71 11.71 0 01-.59 1.44l-.29-.2a13.35 13.35 0 00.58-1.48c.18-.57.33-1.17.44-1.73zm1.52 0l.38.07a8.41 8.41 0 01-.26 1.44 5.22 5.22 0 011 1.32l-.25.35a5.36 5.36 0 00-.87-1.25 6.5 6.5 0 01-.65 1.35l-.31-.29a6.33 6.33 0 00.63-1.35 7.56 7.56 0 00.29-1.68z" fill="#fff"/><g clip-path="url(#a)"><path fill="#f8b73d" d="M8.52 217.09h73.96v15.41H8.52z"/></g><path d="M18.91 224h5.95v.39h-2.71v1.62h2.92v.39h-2.92v2.06a17.16 17.16 0 002.23.12 15.55 15.55 0 001.6-.08l-.07.47c-.58 0-1.09.07-1.53.07a12.14 12.14 0 01-3-.28 2.7 2.7 0 01-1.26-.61 2.45 2.45 0 01-.55-.8 2.85 2.85 0 01-.17.35 8.15 8.15 0 01-1.32 1.78l-.33-.28a6.46 6.46 0 002-3.89l.38.06a6.81 6.81 0 01-.4 1.57 2.67 2.67 0 00.6.89 2.17 2.17 0 001 .51 3 3 0 00.32.06v-4h-2.74zm2.67-2.87a3.52 3.52 0 01.56 1.19h3.38V224h-.42v-1.22h-6.54V224h-.43v-1.61h3.58a4.21 4.21 0 00-.45-1zm8.32.98v5.94h-.38v-.64H28v.89h-.39v-6.19zm-1.9 2.43h1.48v-2.08H28zm0 2.52h1.48v-2.17H28zm2.18-1.36h3.52v-1h.39v1h1.34v.35h-1.34v2.53q0 .81-.78.81a2.36 2.36 0 01-.84-.15v-.42a2.28 2.28 0 00.87.19c.26 0 .39-.16.39-.47v-2.49h-3.51zm.49-3.14h1.83v-1.26h.39v1.26h1.83v.35h-1.79v1.28h2.43v.35h-5v-.35h2.21v-1.28h-1.86zm.89 4a6.24 6.24 0 011.13 1.34l-.36.24a5.48 5.48 0 00-1.09-1.36zm8.82-4.91v2.25h-2.85v5.62h-.39v-7.87zm-2.85.91H40V222h-2.47zm0 1H40v-.64h-2.47zm1.73.45l.31.15a4.08 4.08 0 01-.5.61 4.52 4.52 0 01-.46.43c.41 0 .78-.05 1.13-.1a6.27 6.27 0 00.54-.66l.31.15a6.53 6.53 0 01-.94 1 8.19 8.19 0 01-.87.71c.45 0 .89-.07 1.32-.13a4.43 4.43 0 00-.29-.42l.25-.16a5 5 0 01.73 1.23l-.31.09c-.07-.17-.14-.32-.21-.46-.77.11-1.56.18-2.36.22l-.1-.31h.52a9.63 9.63 0 001-.85l.15-.12a9.74 9.74 0 01-1.54.11v-.27h.28a7.27 7.27 0 00.56-.54 4.4 4.4 0 00.48-.69zm-.85 3h.35v.74H40v-.84h.35v.7a1.31 1.31 0 01-.53 1.14 3.42 3.42 0 01-1.79.54l-.12-.31a3.72 3.72 0 001.62-.43 1 1 0 00.39-.49h-1.51zm3.51-3l.33.15a4.06 4.06 0 01-.47.62 3.6 3.6 0 01-.43.44c.39 0 .74 0 1.07-.09a6.13 6.13 0 00.53-.66l.31.15a5.93 5.93 0 01-.89 1 6.11 6.11 0 01-.84.7c.49 0 1-.09 1.43-.16l-.3-.36.25-.16a5.7 5.7 0 01.85 1.19l-.33.1a4.27 4.27 0 00-.3-.51 18.8 18.8 0 01-2.3.26l-.1-.31h.36a9 9 0 001-.84l.11-.1a10 10 0 01-1.58.11v-.27h.37a3.85 3.85 0 00.53-.54 3.61 3.61 0 00.4-.73zm-.87 2.86h.35v1h1.29V227H43v1.19h-1.6v1.21h-.35zm1.12-5.18h2.14v7.11c0 .37-.21.55-.62.55h-.85v-.42a6.48 6.48 0 00.85.07c.15 0 .23-.11.23-.31v-4.79h-2.84v-2.25zm-.7 1h2.45V222h-2.45zm2.45.94V223h-2.45v.59zm3.37.59l.42.21a10 10 0 01-1.25 3.3l-.39-.24a10.78 10.78 0 001.22-3.27zm1.2-.87H49v4.84c0 .26 0 .41.13.43a5.67 5.67 0 001.81.14c.5 0 .82-.11 1-.33a5.54 5.54 0 00.34-2l.42.17a5.14 5.14 0 01-.42 2.11q-.23.45-1.29.45a6.48 6.48 0 01-2.15-.18c-.17-.09-.25-.27-.25-.56zm.81-2a12.79 12.79 0 012.25 2.28l-.31.39a15.23 15.23 0 00-2.24-2.4zm3.7 2.87a18.65 18.65 0 011.37 3.31l-.48.2a16.17 16.17 0 00-1.28-3.26zm2.62-2.57h3.21v.35h-.67v7.42h-.39v-2.06a15.7 15.7 0 01-2.15.54l-.07-.38.64-.13V222h-.57zm1 1.8h1.19V222h-1.23zm0 1.83h1.19v-1.48h-1.23zm0 2.05a11.15 11.15 0 001.19-.32v-1.38h-1.23zm3.26-6.07l.38.14a5.83 5.83 0 01-.54 1 5.17 5.17 0 01-.53.75c.32 0 .62 0 .91-.06a7.3 7.3 0 00.56-1.07l.38.15a9.77 9.77 0 01-.9 1.6 9.43 9.43 0 01-1 1.21 9.22 9.22 0 001.24-.11 6.16 6.16 0 00-.37-.63l.28-.17a6.81 6.81 0 01.74 1.33l-.35.15a3.28 3.28 0 00-.15-.36 11.94 11.94 0 01-2.22.21l-.07-.39h.42a10.5 10.5 0 001-1.36l.14-.2c-.47 0-.94.07-1.42.09l-.12-.35h.35a7.74 7.74 0 00.62-.88 6.11 6.11 0 00.61-1.05zM58.71 226h.35v1.29h1.15v-1.53h.41v1.47a2.17 2.17 0 01-.47 1.53 2.51 2.51 0 01-1.58.73l-.13-.35a2.28 2.28 0 001.39-.61 1.52 1.52 0 00.37-.87h-1.49zm3.46-4.72l.38.14a6.81 6.81 0 01-.47 1 6.34 6.34 0 01-.49.79l1-.07a8.79 8.79 0 00.56-1.1l.38.15a9.77 9.77 0 01-.83 1.53 9 9 0 01-.88 1.16 11.13 11.13 0 001.26-.13 6.5 6.5 0 00-.32-.59l.28-.19a8.62 8.62 0 01.81 1.67l-.35.13a6.55 6.55 0 00-.27-.71 11.93 11.93 0 01-2.18.19l-.08-.35h.37a12.07 12.07 0 001-1.31l.06-.11c-.5.05-1 .09-1.55.11l-.1-.35h.36a7.29 7.29 0 00.56-.92 6.52 6.52 0 00.5-1.06zm-.78 4.41h.39v1.64h1.29V226h.35v1.64h-1.64v1.86h-.39zm3.78-4.07h1.91v-.36h.34v.36h2v.28h-2v.36h1.52V224h-1.52v.35h2.15v.29h-2.15v.74h1.17v-.49h.35v.77h-.1l.17.13a5.93 5.93 0 01-.84.38l-.4.13c.75 0 1.45 0 2.09-.08.37-.18.71-.37 1-.56l.35.31a15.56 15.56 0 01-2 .87c-.49.18-1 .35-1.64.51 1.42 0 2.7-.09 3.86-.19a7 7 0 00-.64-.37l.2-.29a9.37 9.37 0 011.77 1.13l-.25.32-.61-.48c-.87.07-1.76.13-2.66.17v1.08q0 .81-.63.81a3.86 3.86 0 01-1-.14v-.43a3.41 3.41 0 001.09.18c.16 0 .24-.15.24-.46v-1c-1.12 0-2.28.06-3.48.07v-.36h1.35c.55-.15 1.16-.34 1.83-.58l.59-.24q-1.29.09-3.09.09v-.32h1l.64-.25c.28-.14.53-.27.74-.4H65.6v-.77h.4v.49h1.13v-.74H65v-.29h2V224h-1.43v-1.71h1.51v-.36h-1.91zm2.25 6.23l.25.27a4.84 4.84 0 01-1 .7 6.84 6.84 0 01-1.14.49l-.13-.34a6.33 6.33 0 001.17-.5 5.58 5.58 0 00.85-.62zM65.91 223h1.17v-.46h-1.17zm0 .7h1.17v-.42h-1.17zm1.51-1.16v.46h1.17v-.46zm0 .74v.42h1.17v-.42zm3.42-1.68h1.23v1a.36.36 0 000 .19.52.52 0 00.28 0 3.38 3.38 0 00.74-.07v.35a3.26 3.26 0 01-.74.07 1.19 1.19 0 01-.59-.09.38.38 0 01-.08-.26v-.94h-1.2a1.75 1.75 0 01-.31 1 1.62 1.62 0 01-.92.47l-.14-.35a1.42 1.42 0 00.72-.32 1.57 1.57 0 00.3-1.12zm-1.34 1.83h3.06a4.55 4.55 0 01-1.1 1.48 5.6 5.6 0 001.74.65l-.19.35a5.12 5.12 0 01-1.82-.8 4.85 4.85 0 01-1.83.73l-.14-.35a4.72 4.72 0 001.67-.61 3.58 3.58 0 01-.92-1.1h-.47zm1 4.46a10.43 10.43 0 012.41 1.11l-.21.3a11.34 11.34 0 00-2.39-1.12zm-.12-4.11a3.05 3.05 0 00.82.9 3.72 3.72 0 00.82-.9z" fill="#fff"/><g clip-path="url(#a)"><path fill="#f8b73d" d="M8.52 235.58h73.96v15.41H8.52z"/></g><path d="M18.56 240.56l.38.1a12.28 12.28 0 01-.23 1.31h.77v-2.15h.38V242H21v.35h-1.14v1.89c.41-.2.78-.4 1.13-.6l.07.36c-.39.24-.79.47-1.2.68V248h-.38v-3.15c-.48.24-1 .45-1.48.65l-.18-.42c.59-.23 1.15-.46 1.66-.69v-2.08h-.86a.61.61 0 000 .11 12.39 12.39 0 01-.48 1.54l-.33-.28a10.94 10.94 0 00.48-1.52 13.57 13.57 0 00.27-1.6zm2.21 3.69h3.48v-1h.39v1H26v.37h-1.36V247c0 .55-.23.82-.7.82a3.87 3.87 0 01-.92-.11v-.43a3.09 3.09 0 001 .15c.21 0 .31-.15.31-.46v-2.38h-3.56zm.42-3.27h1.87v-1.2h.38V241h1.9v.35h-1.9v1.34h2.36v.31h-5v-.36h2.25v-1.34h-1.86zm.81 4.11a6.9 6.9 0 011.35 1.35l-.36.23a6.11 6.11 0 00-1.3-1.36zm6.36-2.57h6v.39H31.6v1.63h2.92v.38H31.6V247a17.39 17.39 0 002.23.11 13.16 13.16 0 001.6-.08l-.07.47c-.58 0-1.09.07-1.53.07a12.24 12.24 0 01-3-.27 2.76 2.76 0 01-1.26-.62 2.35 2.35 0 01-.55-.8 3 3 0 01-.17.36 8.39 8.39 0 01-1.29 1.76l-.33-.28a7.51 7.51 0 001.34-1.72 7.07 7.07 0 00.67-2.13l.38.07a7 7 0 01-.4 1.57 2.67 2.67 0 00.6.89 2.36 2.36 0 001 .51l.32.06v-4h-2.78zm2.64-2.87a3.67 3.67 0 01.56 1.2H35v1.6h-.43v-1.22H28v1.22h-.43v-1.6h3.58a4.21 4.21 0 00-.45-1zm7.54.07l.39.1c-.25.84-.5 1.56-.74 2.17v6h-.38v-5.13c-.3.62-.61 1.19-.94 1.73l-.29-.22a14.68 14.68 0 001.11-2.16 15.17 15.17 0 00.85-2.49zm2.05 5.41l.39.11a1.59 1.59 0 01-.18.27h2.57v.32a3.85 3.85 0 01-1.31 1.1 5.6 5.6 0 00.94.38 8.17 8.17 0 001.88.29l-.1.38a7.42 7.42 0 01-2-.3 6.77 6.77 0 01-1.18-.53 13.89 13.89 0 01-2.88.89l-.18-.38a13.53 13.53 0 002.68-.77 4.15 4.15 0 01-.9-.87l-.13.12A6.47 6.47 0 0139 247l-.24-.24a6.81 6.81 0 001.07-.7 3.1 3.1 0 00.76-.93zm-1.62-5h5.62v.31h-2.8l-.19.43h2.22v2.21h.77v1.16h-.38v-.81h-5.14v.78h-.38v-1.13h.88v-2.21h1.62l.18-.43H39zm.6 3.69l.32.13a3.79 3.79 0 01-.63 1.35l-.29-.19a3.79 3.79 0 00.6-1.31zm.39-2.18h3.47v-.42H40zm0 .74h3.47v-.42H40zm0 .7h3.47v-.39H40zm.24.59h.35v.63c0 .2 0 .31.13.35a6.4 6.4 0 001.46.07c.24 0 .38 0 .41-.07a1.87 1.87 0 00.11-.7l.38.26c0 .46-.12.72-.22.77a1.29 1.29 0 01-.68.1 5.27 5.27 0 01-1.69-.13c-.17 0-.25-.24-.25-.58zm.49 2.18a3.82 3.82 0 00.94.86 3.64 3.64 0 001.19-.88zm.56-2.32a4.87 4.87 0 011 .64l-.22.27a5.33 5.33 0 00-.94-.66zm2.18.18a5.15 5.15 0 01.85 1.13L44 245a4.81 4.81 0 00-.85-1.12zm2.96-3.15h3.54v-.84h.39v.84H54v.35h-3.68v.53H53V244h-2.7v.77c.75 0 1.45-.06 2.12-.11l-.39-.28.2-.27a8.07 8.07 0 011.55 1.23l-.24.32c-.24-.25-.48-.47-.72-.68-1.94.16-4 .24-6.29.26v-.39c1.22 0 2.35 0 3.41-.06V244h-2.58v-2.53h2.57v-.53h-3.54zm.77 5.3l.39.12a6.92 6.92 0 01-.68 1.62l-.35-.19a6.62 6.62 0 00.64-1.55zm.59-3.34h2.18v-.73h-2.18zm0 1.09h2.18v-.73h-2.18zm.57 1.94h.39v1.27c0 .21.07.33.21.37a16.8 16.8 0 002.45.08c.26 0 .4 0 .44-.1a3.07 3.07 0 00.13-.95l.42.28c-.06.62-.14 1-.25 1s-.3.13-.74.13a12.23 12.23 0 01-2.65-.14c-.27-.06-.4-.27-.4-.64zm1.51-.2a6.27 6.27 0 011.26 1l-.24.31a8.2 8.2 0 00-1.24-1zm.49-3.56v.73h2.32v-.73zm0 1.09v.73h2.32v-.73zm2.5 2.78a11.63 11.63 0 011.44 1.51l-.31.32a11.73 11.73 0 00-1.45-1.59zm2.8-3.76h2.32a9.52 9.52 0 01-1.4 2.18H58a7.71 7.71 0 01-.79 2.19 5.69 5.69 0 001.65.77 10.32 10.32 0 002.82.27c.89 0 1.61 0 2.16-.07l-.06.38c-.56 0-1.26.07-2.1.07a10.78 10.78 0 01-2.95-.28 6.37 6.37 0 01-1.69-.82 4.82 4.82 0 01-1.32 1.41l-.2-.32a4.76 4.76 0 001.21-1.4 6.66 6.66 0 00.75-1.87h-1.25l-.26.28-.32-.2a10.74 10.74 0 001.7-2.25h-1.73zm.77-2.05a6.85 6.85 0 01.89 1.41l-.35.25a6.31 6.31 0 00-.86-1.44zm1.93.28h4.62v.29a8.33 8.33 0 01-1.84 1.23.92.92 0 01.14.14h2V246c0 .37-.22.56-.66.56a7.87 7.87 0 01-.89-.07v-.35a4.47 4.47 0 00.89.1c.18 0 .28-.1.28-.31v-1H61v1.44h-.39V245h-1.69v1.64h-.38v-4.81h2.19a7.67 7.67 0 00-1-.77l.32-.2a8.13 8.13 0 01.82.59 7.13 7.13 0 001.46-.91h-4zm.6 3h1.73v-1h-1.73zm0 1.45h1.73v-1.1h-1.73zm2.08-1.42h1.83v-1H61zm0 1.45h1.83v-1.1H61zm5.48-4.86l.39.1a8.86 8.86 0 01-.43 1.38h2.71v.39h-1.38c0 .78-.1 1.48-.18 2.07h1.94v.39h-2c-.05.31-.1.58-.16.82a9.28 9.28 0 012.12 2l-.25.35a9.43 9.43 0 00-2-2 3.19 3.19 0 01-.24.75 4.88 4.88 0 01-1.75 2l-.31-.25a5.08 5.08 0 001.72-2 6.72 6.72 0 00.47-1.7h-2.06v-.39h2.12c.09-.61.15-1.3.19-2.07h-1.11v.06a8.3 8.3 0 01-.86 1.58l-.31-.27a10.28 10.28 0 001.41-3.24zm6.22 1v7h-.43V247h-2v.78h-.42v-7.09zm-2.46 5.93h2v-5.55h-2z" fill="#fff"/><g clip-path="url(#a)"><path fill="#f8b73d" d="M8.52 254.07h73.96v15.41H8.52z"/></g><path d="M21.89 258.21l.22.35a16.13 16.13 0 01-3.37.42v.49h3.37v1.41h-3.37v2.28a5.14 5.14 0 00.51-.86 5.29 5.29 0 00.4-1.1l.36.1a6.57 6.57 0 01-.22.67h1a3.4 3.4 0 00-.42-.71l.32-.2a3.29 3.29 0 01.48.73l-.26.18h1.42v.36h-1.21v.7h1v.35h-1v.81h1v.35h-1v.87h1.38v.35h-2.82v.49h-.39V263a3.35 3.35 0 01-.42.62l-.16-.13a10.24 10.24 0 01-.16 1.27 7.26 7.26 0 01-.51 1.72l-.29-.26a7.9 7.9 0 00.44-1.53 10.44 10.44 0 00.16-1.88v-4.14a16.05 16.05 0 003.54-.46zm-3.15 2.31h3v-.7h-3zm2 2.51v-.7h-1.06v.7zm0 1.16v-.81h-1.06v.81zm-1.09 1.22h1.09v-.87h-1.06zm3.87-.45l.31.2a4.72 4.72 0 01-.75.8 5.35 5.35 0 01-.83.54l-.2-.35a3.92 3.92 0 00.76-.49 4.28 4.28 0 00.74-.66zm-1.3-6.33H26v.37h-1.68l-.26.94h1.46v4.81H22.7v-4.81h1l.25-.94h-1.7zm.84 2.74h2.05v-1.09h-2.02zm0 1.47h2.05v-1.12h-2.02zm0 1.55h2.05v-1.19h-2.02zm1.48.6a8.59 8.59 0 011.46 1.19l-.28.32a6.93 6.93 0 00-1.4-1.22zm5.75-5.45l.35.11a3.85 3.85 0 01-.45.71h3.31v.35a5.47 5.47 0 01-1.63 1.54l.25.13a18.69 18.69 0 003.37 1.2l-.31.39a17.72 17.72 0 01-3.31-1.24l-.43-.24-.19.12A16.74 16.74 0 0127.3 264l-.17-.39a16 16 0 003.93-1.31 9 9 0 01-1.52-1.19 7.06 7.06 0 01-1.54 1.11l-.25-.28a9.1 9.1 0 001.59-1.13 5.5 5.5 0 00.95-1.27zm.46-1.4a2.75 2.75 0 01.78 1H35v1.76h-.42v-1.4H28v1.38h-.42v-1.76h3.45a2.56 2.56 0 00-.63-.74zm2.82 5.59v2.77h-.39v-.5h-3.66v.55h-.39v-2.77zm-4.05 1.87h3.66v-1.52h-3.66zm.31-4.82a7.45 7.45 0 001.66 1.22 4.51 4.51 0 001.5-1.33h-3.1zm9.32 1.71a5.19 5.19 0 01.7.89h1.74a4.93 4.93 0 00.65-.89l.39.15a5 5 0 01-.54.74h2.79v.35h-8.2v-.35h2.71a5.7 5.7 0 00-.52-.67zM37 258.85h3.54v-.64h.39v.64h3.62v.35h-3.61v.69h2.88v.35h-6.15v-.35h2.88v-.69H37zm6.56 5.44v2.21h-.38v-.5h-4.84v.49h-.4v-2.18zM38 260.81h5.4v1.58H38zm.31 4.82h4.85v-1h-4.82zm.07-3.59H43v-.87h-4.59zm9.33-3.83l.43.06c-.09.67-.2 1.32-.33 1.94h1.56a10.5 10.5 0 01-.45 2.66 9.21 9.21 0 01-.41 1 8.79 8.79 0 011.18 1l-.25.38a8.57 8.57 0 00-1.12-.94 6.5 6.5 0 01-.44.7 4.57 4.57 0 01-1.56 1.4l-.25-.31a5.51 5.51 0 001.44-1.3 5 5 0 00.47-.72 13.4 13.4 0 00-1.17-.7 5.69 5.69 0 01-.26.56l-.38-.13a17.09 17.09 0 001.1-3.21h-1.14v-.38h1.23a18.55 18.55 0 00.35-2.01zm.46 5.44c.11-.26.21-.53.31-.82a10.85 10.85 0 00.46-2.24h-1.23A15.74 15.74 0 0147 263a12.5 12.5 0 011.17.65zm1.41-5h4.26v.35a9.9 9.9 0 01-2 2.56c0 .14.08.28.11.42h2.4v.39H52a.17.17 0 000 .07 18.09 18.09 0 01.17 2.31 2.63 2.63 0 01-.22 1.38.66.66 0 01-.55.25 3.64 3.64 0 01-1.2-.22v-.45a3.32 3.32 0 001.12.25.38.38 0 00.32-.13 2.32 2.32 0 00.13-1.08 14.78 14.78 0 00-.16-2.33.07.07 0 000-.05h-2.27V262h2.22a8.14 8.14 0 00-.36-1.38l.31-.16c.09.22.16.45.23.68a9.06 9.06 0 001.59-2.1h-3.75zm8.47.01l.46.15a8.25 8.25 0 01-1 2 10.84 10.84 0 01-1.67 1.88l-.32-.32a10.82 10.82 0 001.48-1.62 7.47 7.47 0 001.05-2.09zm-.92 2.95h5q-.12 3.67-.48 4.23a1 1 0 01-.93.38 6 6 0 01-1.27-.17v-.42a6.44 6.44 0 001.31.17.63.63 0 00.62-.34 13.47 13.47 0 00.32-3.42h-2.28a5 5 0 01-3.35 4.33l-.27-.37a5.51 5.51 0 002.29-1.66A5 5 0 0059 262h-1.87zm2.15-3h2.15a4.9 4.9 0 00.85 2.27 6.07 6.07 0 001.5 1.49l-.39.32a6.71 6.71 0 01-1.46-1.55A7 7 0 0161 259h-1.72zm5.79 1.6h1.58v-2H67v2h1.44v.35H67v5.94h-.39v-4.76a11.11 11.11 0 01-.48 1.38 8.85 8.85 0 01-.92 1.66l-.32-.27a9.5 9.5 0 001.11-1.94 9.16 9.16 0 00.57-2h-1.5zm2.35 1.09a7.72 7.72 0 01.92 1.73l-.35.24a8 8 0 00-.88-1.75zm5.32-2.89l.24.4a12.8 12.8 0 01-3.51.62v1.74h3.79v.35h-1.54v5h-.39v-5h-1.86v.48a7.57 7.57 0 01-.38 2.36 7 7 0 01-1.09 2.08l-.29-.26a7 7 0 001-1.88 7.11 7.11 0 00.38-2.3v-2.95a11.25 11.25 0 003.65-.64z" fill="#fff"/><g clip-path="url(#a)"><path d="M235.72 99.29a1 1 0 01-1.46 0l-7.83-8.52a1 1 0 01.16-1.47l1.41-1.24a1 1 0 011.47 0l7.83 8.52a1.06 1.06 0 01-.16 1.47zm-32.965 7.687l3.058-3.423a1.11 1.11 0 011.567-.089l1.164 1.04a1.1 1.1 0 01.087 1.552l-3.03 3.394a1.11 1.11 0 01-1.568.088l-1.163-1.039a1.11 1.11 0 01-.115-1.523zm3.381 3.259l3.029-3.382a1.11 1.11 0 011.567-.086l1.162 1.04a1.1 1.1 0 01.086 1.554l-3.036 3.389a1.11 1.11 0 01-1.567.086l-1.177-1.054a1.11 1.11 0 01-.064-1.547zm3.384 3.246l3.032-3.392a1.11 1.11 0 011.568-.088l1.163 1.04a1.11 1.11 0 01.087 1.567l-3.032 3.392a1.1 1.1 0 01-1.554.087l-1.163-1.04a1.11 1.11 0 01-.087-1.567zm3.553 3.372l3.037-3.389a1.11 1.11 0 011.567-.085l1.162 1.04a1.1 1.1 0 01.085 1.554l-3.036 3.389a1.1 1.1 0 01-1.553.085l-1.162-1.041a1.11 1.11 0 01-.086-1.568zM224.69 91.54c-.76-.76-6.14-1.46-7.41-1.46a5.21 5.21 0 00-4.58 3.32c-1.56 3.24-3.12 6.43-3.41 7s3.21 3.22 4.48 1.47 2-3.9 2.63-4.59 1.37-1.26 2.83.1 6.72 6.72 7.61 7.6c1.45 1.47 6.53-4.09 5.84-5.26s-6.43-6.63-8-8.19" fill="#9fa0a0"/><path d="M203.47 103c-.67-.4-6-5.1-6.56-5.63l-.29-.26 7.14-8.26 4.73 4.2c1.3 0 2.61-.26 2.74-.52l.74.25c-.32 1-2.64 1-3.63 1h-.14L203.83 90l-6.12 7c2.34 2.08 5.72 5 6.16 5.29zm-7.28-7.12a1.11 1.11 0 01-1.56.12l-1.18-1a1.11 1.11 0 01-.13-1.56l6.49-7.62a1.11 1.11 0 011.56-.12l1.19 1a1.11 1.11 0 01.12 1.56zm31.17 14.84a1.19 1.19 0 01-.77-.25c-.65-.52-2.93-2.26-2.93-2.26l.47-.62 3 2.27c.31.25 1-.06 1.35-.49.14-.16.58-.71.18-1.11a35.56 35.56 0 00-2.94-2.3l.45-.63a33 33 0 013 2.38 1.51 1.51 0 01-.15 2.18 2.34 2.34 0 01-1.65.83m-2.74 2.93a1.22 1.22 0 01-.77-.26c-.63-.51-2.75-2.08-2.78-2.1l.47-.62c.09.06 2.15 1.59 2.8 2.11.31.25 1 0 1.35-.48.14-.16.58-.72.17-1.12a33.53 33.53 0 00-2.93-2.29l.45-.64a37 37 0 013 2.38 1.52 1.52 0 01-.15 2.19 2.4 2.4 0 01-1.65.83m-2.69 2.92a1.22 1.22 0 01-.77-.26c-.63-.5-2.74-1.91-2.76-1.92l.43-.65c.09.06 2.16 1.44 2.82 2 .31.25 1-.06 1.35-.49.14-.16.58-.71.18-1.11a23.92 23.92 0 00-2.62-2l.43-.65a23.16 23.16 0 012.74 2.08 1.51 1.51 0 01-.15 2.18 2.34 2.34 0 01-1.65.83" fill="#acc175"/><path d="M223 154.25a6.45 6.45 0 11-6.45-6.44 6.45 6.45 0 016.45 6.44m-1 6.94a18 18 0 01-3.49.67 2.49 2.49 0 01-1.14 1.52 3.27 3.27 0 011.19 2.71c0 1.65-.93 4.6-2.07 4.6s-2.06-2.95-2.06-4.6a3.27 3.27 0 011.19-2.71 2.51 2.51 0 01-1.15-1.52 17.9 17.9 0 01-3.48-.67c-5.24 1-8.93 3.27-8.93 5.95 0 3.56 6.46 6.44 14.43 6.44s14.43-2.88 14.43-6.44c0-2.68-3.69-5-8.92-5.95" fill="#9fa0a0"/><path d="M216.58 176.49h-.15c-6.83 0-12.52-2.15-14-5a3.19 3.19 0 00-.37 1.46c0 3.56 6.46 6.44 14.42 6.44s14.43-2.88 14.43-6.44a3.19 3.19 0 00-.37-1.46c-1.46 2.85-7.16 5-14 5m-6.36 4.1h12.65v12.44h-12.65z" fill="#a2c3e7"/><path d="M41.41 172.85a5 5 0 10-5-5 5 5 0 005 5m5.13 5.67c-.13-2.14-2.25-5-5-5s-5 3.26-5.82 5.76c-2.13 6.63 1.25 9.63 5.82 9.53 5.49-.12 5.49-2.58 5-10.26M41.18 176a1.56 1.56 0 01-1.19.76 3.28 3.28 0 01-.19 2.58c-.55 1.34-2.09 3.65-2.72 3.39s-.09-3 .46-4.32a3.25 3.25 0 011.68-2 1.55 1.55 0 01-.31-1.38c.17-.4.81-.52 1.43-.27s1 .8.84 1.2M14 172.85a5 5 0 115-5 5 5 0 01-5 5m-.12 15.93c4.57.1 8-2.9 5.82-9.53-.81-2.5-3.05-5.76-5.82-5.76s-4.89 2.89-5 5c-.47 7.68-.47 10.14 5 10.26m1.17-14c.62-.25 1.27-.13 1.43.27a1.55 1.55 0 01-.31 1.38 3.29 3.29 0 011.69 2c.55 1.34 1.08 4.07.45 4.32s-2.17-2.05-2.72-3.39a3.27 3.27 0 01-.18-2.58 1.54 1.54 0 01-1.19-.76c-.17-.4.2-.94.83-1.2" fill="#9fa0a0"/><path d="M34.13 188a42.2 42.2 0 01-6.69.52 43.11 43.11 0 01-6.24-.52 7.49 7.49 0 01-2.75 2.23 51.87 51.87 0 0018.37-.06 7.52 7.52 0 01-2.69-2.17m-6.69-22.88a41.74 41.74 0 016.84.55 7.55 7.55 0 011.3-2.48 51.85 51.85 0 00-8.14-.64 52.52 52.52 0 00-7.68.57 7.39 7.39 0 011.33 2.47 43.19 43.19 0 016.35-.47m27.44 11.69c0-3.37-2.26-6.47-6-8.91a7.44 7.44 0 01-1.12 3.85 7.49 7.49 0 012.21 5.06 6.77 6.77 0 01-.88 3.24 27.87 27.87 0 01-.09 5.58c3.7-2.42 5.91-5.49 5.91-8.82M6.3 180.82a6.92 6.92 0 01-1.36-4 7.7 7.7 0 012.53-5.39 7.38 7.38 0 01-.93-3.59v-.26c-4.07 2.48-6.54 5.7-6.54 9.23s2.44 6.71 6.48 9.2a22.36 22.36 0 01-.18-5.19" fill="#f8b73d"/><path d="M45.26 104.89a5.71 5.71 0 11-5.71-5.71 5.71 5.71 0 015.71 5.71m-16.33 17.77a10.62 10.62 0 0121.24 0z" fill="#9fa0a0"/><path d="M51.1 92.74H28.57A1.62 1.62 0 0027 94.35v16.46a1.62 1.62 0 001.61 1.61h3.82a12.26 12.26 0 012.44-1.33h-6.3a.28.28 0 01-.27-.28V94.35a.28.28 0 01.27-.28H51.1a.28.28 0 01.28.28v16.46a.28.28 0 01-.28.28h-6.83a12.26 12.26 0 012.44 1.33h4.39a1.61 1.61 0 001.61-1.61V94.35a1.61 1.61 0 00-1.61-1.61m-19.55 20.31h-4.48a2 2 0 00-1.5 1l-3.39 5.77c-.31.52-.14.94.39.94h4.64a12.48 12.48 0 014.34-7.66" fill="#e9938e"/><path d="M19.44 95.45a3.37 3.37 0 10-3.37-3.36 3.36 3.36 0 003.37 3.36m3.43 3.79a3.76 3.76 0 00-3.36-3.36c-1.86 0-3.36 2.18-3.9 3.85-1.43 4.44.84 6.45 3.9 6.39 3.67-.09 3.67-1.73 3.36-6.88m-3.59-1.69a1 1 0 01-.79.51 2.2 2.2 0 01-.13 1.73c-.37.9-1.4 2.44-1.82 2.27s-.06-2 .31-2.89A2.19 2.19 0 0118 97.85a1 1 0 01-.21-.92c.11-.27.54-.35 1-.18s.66.53.55.8m-15.28.67a3.37 3.37 0 113.37-3.36 3.37 3.37 0 01-3.37 3.36M4 108.88c3.06.07 5.33-1.94 3.9-6.38-.54-1.67-2-3.85-3.9-3.85A3.74 3.74 0 00.63 102c-.31 5.16-.31 6.8 3.37 6.88m.78-9.36c.42-.17.85-.09 1 .18a1 1 0 01-.21.92 2.19 2.19 0 011.13 1.32c.37.89.73 2.72.31 2.89s-1.46-1.37-1.82-2.27a2.2 2.2 0 01-.19-1.73 1 1 0 01-.79-.51c-.12-.27.13-.63.55-.8" fill="#9fa0a0"/><path d="M16.16 88.78l-1.93-.47h-3.81a1 1 0 01-1-1v-1.78a1 1 0 011-1h3.72a1 1 0 011 1v1.39zm-1.91-1h.06l.82.2-.5-.93v-1.52a.49.49 0 00-.49-.49h-3.72a.48.48 0 00-.48.49v1.76a.48.48 0 00.48.49h3.83z" fill="#e9938e"/><path fill="#e9938e" d="M10.87 86.26h2.66v.53h-2.66zm-2.14 6.35v-1.39a1 1 0 011-1h3.72a1 1 0 011 1V93a1 1 0 01-1 1H9.66l-1.93.47zm1 .86h3.77A.49.49 0 0014 93v-1.78a.49.49 0 00-.49-.49H9.75a.48.48 0 00-.48.49v1.52l-.5.93.81-.2h.12z"/><path fill="#e9938e" d="M10.37 91.95h2.66v.53h-2.66z"/></g></svg>