<svg data-name="圖層 1" xmlns="http://www.w3.org/2000/svg" viewBox="0 0 286.44 133.56"><path fill="#f8b73d" fill-rule="evenodd" d="M213.76 0v69.17h-69.57v35.71H76.73V0h137.03z"/><path fill="#dcdddd" fill-rule="evenodd" d="M151.21 44.6l.22-1.12.62-.92.92-.61 1.12-.23h51.73l1.12.23.92.61.61.92.23 1.12v11.51l-.23 1.12-.61.92-.92.62-1.12.22h-51.73l-1.12-.22-.92-.62-.62-.92-.22-1.12V44.6z"/><path d="M165.03 46.82v2.25h-2.86v5.63h-.39v-7.88zm-2.86.92h2.47v-.54h-2.47zm0 1h2.47v-.63h-2.47zm1.73.46l.32.15a4.08 4.08 0 01-.5.61 4.69 4.69 0 01-.47.43c.41 0 .79 0 1.14-.1a6.21 6.21 0 00.53-.67l.32.15a6.53 6.53 0 01-.94 1 6.3 6.3 0 01-.87.71l1.32-.12c-.1-.15-.19-.29-.29-.42l.24-.17a5.43 5.43 0 01.74 1.23l-.32.1a2.9 2.9 0 00-.21-.47 22.28 22.28 0 01-2.35.22l-.11-.31h.52a10 10 0 001-.85l.14-.13a8.52 8.52 0 01-1.54.12v-.28h.28a5.57 5.57 0 00.55-.53 5 5 0 00.49-.67zm-.84 3h.35v.74h1.22a.53.53 0 000-.13v-.7h.35v.7a1.26 1.26 0 01-.53 1.13 3.47 3.47 0 01-1.79.55l-.11-.32a3.53 3.53 0 001.61-.43.91.91 0 00.39-.48h-1.52zm3.51-3l.32.15a3.94 3.94 0 01-.47.63 4.49 4.49 0 01-.43.44q.58 0 1.08-.09a6.07 6.07 0 00.52-.67l.32.15a9.36 9.36 0 01-1.73 1.71c.49 0 1-.09 1.42-.16q-.15-.19-.3-.36l.26-.17a5.62 5.62 0 01.84 1.2l-.32.09a4.27 4.27 0 00-.3-.51 17.21 17.21 0 01-2.3.27l-.1-.31h.36a10.23 10.23 0 001-.83l.11-.11a9 9 0 01-1.58.12v-.28h.37a4.59 4.59 0 00.54-.54 4.69 4.69 0 00.38-.79zm-.87 2.86h.35v1h1.29v-.85h.35v1.2h-1.66v1.2h-.35zm1.12-5.18h2.14v7.11c0 .37-.21.56-.63.56h-.84v-.42a5.09 5.09 0 00.84.07c.16 0 .24-.1.24-.31v-4.72h-2.84v-2.25zm-.7 1h2.45v-.68h-2.45zm2.45.94v-.59h-2.45v.59zm2.75-.69l.32.07a6.64 6.64 0 01-.59 2.32l-.32-.18a6.6 6.6 0 00.59-2.21zm.61-1.69h.39v8.26h-.39zm1 1.65a10.28 10.28 0 01.43 1.66l-.39.1a8.83 8.83 0 00-.39-1.61zm3.13 3.27l.25.32a1.68 1.68 0 01-.21.18 4.53 4.53 0 00.66.84 7.19 7.19 0 001.33-1.09l.35.17a8.5 8.5 0 01-1.41 1.19l.25.21a8.67 8.67 0 001.83 1.07l-.28.35a8.1 8.1 0 01-1.8-1.1 5.8 5.8 0 01-1.23-1.42 5.57 5.57 0 01-.86.51v1.24c.55-.16 1.06-.33 1.54-.5v.35a15 15 0 01-2.77.92l-.15-.42c.34-.08.66-.16 1-.25v-1.14a9.4 9.4 0 01-1.66.65l-.17-.35a9.93 9.93 0 001.85-.75 6.31 6.31 0 001.45-.98zm-.29-5.09a5 5 0 01.53.88h2.68v.35h-5.74v-.3h2.59a3.93 3.93 0 00-.34-.68zm-2.34 3.76h2.06v.35h-2.06zm0 .91h2v.37h-2zm.31-2.92h4.74v1.51h-4.74zm.39 1.16h1v-.81h-1zm1.4-.81v.83h1.09v-.81zm.35 1.35h.38v1.54h-.38zm.77.31h2.08v.35h-2.08zm0 .91h2.11v.37h-2.11zm.35-2.57v.83h1.03v-.81zm5.11-1.44h1.51v7c0 .37-.22.55-.66.55a7.21 7.21 0 01-1-.07v-.42a4.79 4.79 0 001 .11c.16 0 .24-.11.24-.31v-2.44h-1.63a10.94 10.94 0 01-.21 1.43 10.11 10.11 0 01-.65 1.92l-.36-.22a9.6 9.6 0 00.66-2 12.64 12.64 0 00.18-2.12v-3.38zm-.52 4h1.61v-1.71h-1.59v1c0 .31-.01.54-.02.75zm0-2.06h1.59v-1.59h-1.59zm3.8-2h2.36a7 7 0 01-.27 2.29.62.62 0 01-.54.21 6.14 6.14 0 01-1-.1v-.42a6.86 6.86 0 001.09.1.25.25 0 00.25-.16 6.71 6.71 0 00.14-1.53h-2.53v2.82h3.14a8.1 8.1 0 01-1 2.6l-.06.08a11.56 11.56 0 001.62 1.49l-.32.33a10 10 0 01-1.55-1.47 6.93 6.93 0 01-1.51 1.5l-.18-.36a6.21 6.21 0 001.43-1.46l-.24-.31a6.42 6.42 0 01-.93-2h-.43v4.21h-.39v-7.77zm.23 3.56a4.94 4.94 0 00.94 1.89l.08.11a7.63 7.63 0 00.86-2zm4.73-3.39h3v.31a6.12 6.12 0 01-1.19 1.6c.14.19.27.38.39.58h1.34a3.69 3.69 0 01-1 1.73l-.24-.25a2.83 2.83 0 00.68-1.13h-1.11v4a.64.64 0 01-.73.71 6.86 6.86 0 01-.81 0v-.43a4.8 4.8 0 00.85.08c.23 0 .35-.14.35-.42v-3a9.54 9.54 0 01-1.8 2.75l-.27-.25a9.27 9.27 0 002-3.38h-1.78v-.35h2.14a8.55 8.55 0 00-1-1.33l.29-.18a6.64 6.64 0 01.55.64 5.86 5.86 0 001-1.26h-2.58zm3.06 4.43h1.77a10.12 10.12 0 00.13-1h.38q0 .57-.12 1h1.88a9.67 9.67 0 01-.26 2.54.63.63 0 01-.27.41 1.17 1.17 0 01-.52.11 4 4 0 01-1.09-.18v-.39a4.72 4.72 0 001.13.19.41.41 0 00.27-.08c.07 0 .12-.15.17-.33a10.38 10.38 0 00.2-1.92h-1.53a3.81 3.81 0 01-.6 1.5 4.41 4.41 0 01-1.92 1.32l-.32-.26a4.53 4.53 0 001.86-1.22 3.43 3.43 0 00.58-1.34h-1.7zm1.55-5l.35.1a6.39 6.39 0 01-.41 1h3.13v.37h-.78a3.37 3.37 0 01-.56 1.18 4.13 4.13 0 01-.47.55 6 6 0 001.94 1l-.25.35a6.14 6.14 0 01-2-1.11 3 3 0 01-.46.34 6 6 0 01-1.7.73l-.21-.35a5.46 5.46 0 001.59-.65 5 5 0 00.48-.33 4.8 4.8 0 01-1.06-1.59 6 6 0 01-.8 1.09l-.28-.23a7.16 7.16 0 001.44-2.48zm0 1.49a4 4 0 001 1.46 3.74 3.74 0 00.39-.42 3.15 3.15 0 00.51-1z" fill="#3e3a39"/><path fill="#fff" fill-rule="evenodd" d="M153.6 50.37l-7.14 6.56v-3.28h-12.15v-6.57h12.15V43.8l7.14 6.57z"/><path fill="#a2c3e7" fill-rule="evenodd" d="M0 .01h74.39v107.32h139.55v26.23H0V.01z"/><path fill="#acc175" d="M216.26 28.44h70.18v104.61h-70.18z"/><path fill="#acc175" fill-rule="evenodd" d="M286.44 0v104.61H146.21V70.9h69.82V0h70.41z"/><path fill="#dcdddd" fill-rule="evenodd" d="M81.64 44.6l.23-1.12.62-.92.92-.61 1.11-.23h51.74l1.12.23.92.61.61.92.23 1.12v11.51l-.23 1.12-.61.92-.92.62-1.12.22H84.52l-1.11-.22-.92-.62-.62-.92-.23-1.12V44.6z"/><path fill="#f8b73d" fill-rule="evenodd" d="M81.64 85.88l.23-1.12.62-.92.92-.62 1.11-.22h51.74l1.12.22.92.62.61.92.23 1.12v11.51l-.23 1.12-.61.92-.92.62-1.12.22H84.52l-1.11-.22-.92-.62-.62-.92-.23-1.12V85.88z"/><path fill="none" stroke="#fff" stroke-miterlimit="10" stroke-width=".5" d="M81.64 85.88l.23-1.12.62-.92.92-.62 1.11-.22h51.74l1.12.22.92.62.61.92.23 1.12v11.51l-.23 1.12-.61.92-.92.62-1.12.22H84.52l-1.11-.22-.92-.62-.62-.92-.23-1.12V85.88z"/><path fill="#f8b73d" fill-rule="evenodd" d="M151.21 85.88l.22-1.12.62-.92.92-.62 1.12-.22h51.73l1.12.22.92.62.61.92.23 1.12v11.51l-.23 1.12-.61.92-.92.62-1.12.22h-51.73l-1.12-.22-.92-.62-.62-.92-.22-1.12V85.88z"/><path fill="none" stroke="#fff" stroke-miterlimit="10" stroke-width=".5" d="M151.21 85.88l.22-1.12.62-.92.92-.62 1.12-.22h51.73l1.12.22.92.62.61.92.23 1.12v11.51l-.23 1.12-.61.92-.92.62-1.12.22h-51.73l-1.12-.22-.92-.62-.62-.92-.22-1.12V85.88z"/><path fill="#dcdddd" fill-rule="evenodd" d="M222.93 20.93l.22-1.12.62-.91.92-.62 1.12-.23h51.73l1.12.23.92.62.61.91.23 1.12v11.52l-.23 1.12-.61.91-.92.62-1.12.23h-51.73l-1.12-.23-.92-.62-.62-.91-.22-1.12V20.93z"/><path d="M98.57 90.29c0 1.19-.79 1.78-2.36 1.78h-1.27v2.68h-.51v-6.24h1.74c1.6 0 2.4.6 2.4 1.78zm-.5 0a1.18 1.18 0 00-.51-1 2.13 2.13 0 00-1.19-.32h-1.43v2.68h1.43a2.09 2.09 0 001.19-.31 1.19 1.19 0 00.47-1.05zm5.75 4.46h-.52l-.7-1.7h-3.15l-.69 1.7h-.54l2.53-6.24h.54zm-1.4-2.14l-1.4-3.55-1.4 3.55z" fill="#fff"/><path d="M108.48 91.64a3 3 0 01-.89 2.31 3.48 3.48 0 01-2.42.8h-1.6v-6.24h1.58a3.48 3.48 0 012.44.79 3 3 0 01.89 2.34zm-.51 0a2.52 2.52 0 00-.79-2 3.16 3.16 0 00-2.13-.67h-1v5.36h1a3.1 3.1 0 002.09-.66 2.55 2.55 0 00.83-2.03z" fill="#fff"/><path d="M108.43 89.67h2.32a9.66 9.66 0 01-1.41 2.18h1.45a8 8 0 01-.8 2.21 5.56 5.56 0 001.66.76 10.87 10.87 0 002.81.25q1.35 0 2.16-.06l-.06.38c-.56 0-1.25.07-2.1.07a10.69 10.69 0 01-2.94-.28 6.51 6.51 0 01-1.71-.8 4.76 4.76 0 01-1.27 1.39l-.21-.31a4.7 4.7 0 001.22-1.41 7.4 7.4 0 00.75-1.86h-1.27l-.27.28-.28-.17a10.73 10.73 0 001.73-2.28h-1.77zm.78-2.05a6.67 6.67 0 01.92 1.44l-.35.25a6.63 6.63 0 00-.89-1.47zm1.76.74h2.42v-.87h.39v.87h2.46v.35h-2.46v.77h2v2.92h-2v.8h2.71v.35h-2.71v1.31h-.39v-1.31h-2.56v-.35h2.56v-.77h-1.9v-2.92h1.9v-.77h-2.42zm.91 2.4h1.51v-.93h-1.51zm0 1.29h1.51v-.94h-1.51zm1.9-2.22v.93h1.66v-.93zm0 1.28v.94h1.66v-.94zm4.56 1.93l.32.07a8.56 8.56 0 01-.56 2.42l-.31-.14a9.75 9.75 0 00.55-2.35zm1.17-5.39l.39.15a10.25 10.25 0 01-.58 1.3 7.78 7.78 0 01-.56 1c.42 0 .82-.06 1.21-.11q.22-.45.42-.9l.38.15a10.6 10.6 0 01-1 1.76 10.13 10.13 0 01-1 1.37 7.52 7.52 0 001.47-.24c-.09-.18-.19-.34-.28-.5l.28-.22a6.79 6.79 0 01.66 1.44l-.27.22a5.53 5.53 0 00-.24-.61 10.06 10.06 0 01-2.51.33l-.07-.39h.47a11.74 11.74 0 001.13-1.52l.29-.49c-.56.08-1.15.13-1.75.16l-.11-.39h.39a10.21 10.21 0 00.67-1.11 11 11 0 00.61-1.4zm0 5.43a13.21 13.21 0 01.14 2h-.36a20.19 20.19 0 00-.09-2zm.85-.19a7.16 7.16 0 01.38 1.31l-.32.1a5.28 5.28 0 00-.35-1.29zm.67-.74h1.82a4.51 4.51 0 01-.81 1.7 5 5 0 01-1.44 1.26l-.18-.36a4.24 4.24 0 001.27-1.09 3.34 3.34 0 00.65-1.16h-1.31zm2-4.64l.38.14a2.54 2.54 0 01-.27.51l-.18.27h2.25v3h-1.73v.61c.2.35.39.67.58.94a6 6 0 001.32-1.2l.22.32a6.57 6.57 0 01-1.31 1.19 3.16 3.16 0 00.32.37 6.09 6.09 0 001.43 1.11l-.16.35a5.56 5.56 0 01-1.32-1 6.57 6.57 0 01-1.08-1.44v2.3c0 .47-.23.7-.67.7a2.5 2.5 0 01-.74-.11v-.42a2.07 2.07 0 00.77.15c.19 0 .28-.15.28-.43v-3.45h-1.68v-3h1.08a2.6 2.6 0 00.25-.36 3.74 3.74 0 00.26-.55zm-1.23 2.19h3v-.92h-3zm0 1.33h3v-1h-3zM19.17 7.53h1.56V5.2h.47v2.29h1.38v.43H21.2v7.38h-.47V9.4c-.14.55-.29 1.05-.45 1.49a11 11 0 01-.92 1.93l-.39-.35a11.71 11.71 0 001.08-2.24 12.29 12.29 0 00.61-2.31h-1.49zm2.51 1.53a10 10 0 011 2l-.43.29a9.53 9.53 0 00-1-2zm2.23 3.45l.39.21a9.07 9.07 0 01-1.77 2l-.38-.3a7.94 7.94 0 001.76-1.91zm-1.42-6.8h6.22v.49h-2.09v1h1.7v2.36h-5.5V7.2h1.65v-1h-2zm0 5.94h6.31v.43h-3v2.12c0 .66-.31 1-.94 1a3.77 3.77 0 01-1-.14v-.52a3.4 3.4 0 001.08.18c.31 0 .47-.19.47-.57v-2.07h-2.88zm.76-1.25h4.65v.43h-4.65zm.09-1.24h1.13V7.65h-1.13zm2.8-1.94V6.2h-1.2v1zm-1.2.43V9.2h1.2V7.65zm1.68 0V9.2h1.19V7.65zm.37 4.86a9.55 9.55 0 011.64 1.81l-.31.38a10.43 10.43 0 00-1.57-1.84zm3.53.16h4.72v-.94h.48v.94h4.78v.43h-4.78v2.24h-.48V13.1h-4.72zm2.27-3.38l.4.25a10.19 10.19 0 01-2.12 2.5l-.42-.31a8.65 8.65 0 002.14-2.44zM30.95 7.2a9 9 0 011.68 1.17l-.31.39a8.33 8.33 0 00-1.63-1.2zm.87-1.66a9.68 9.68 0 011.76 1.11l-.31.39a10.05 10.05 0 00-1.72-1.17zm3.38-.14l.47.14a12.8 12.8 0 01-.62 1.28h5v.38h-2.44v1h2v.43h-2v1h2v.43h-2v1h2.57v.43h-5.71V7.67a10.25 10.25 0 01-1 1.31l-.34-.25a11.25 11.25 0 001.16-1.56 8.83 8.83 0 00.91-1.8zm2 2.79V7.2h-2.17v1zm0 1.38v-1h-2.17v1zm0 1.41v-1h-2.17v1zm-.1-5.71a5.67 5.67 0 01.86 1.21l-.43.29a4.89 4.89 0 00-.8-1.23zm5.76.28h.46v3h1.46V5.2h.47v3.31h1.26v.43h-3.19v1.76h2v4.1h-.48v-3.6h-1.5a9.1 9.1 0 01-.31 2.48 5.48 5.48 0 01-.71 1.68l-.39-.3a5.92 5.92 0 00.71-1.83 8.54 8.54 0 00.24-2zm8.93.16v.49h-4.34v2.4h4a15.2 15.2 0 01-1.53 4.14 8.51 8.51 0 002.09 2.14l-.35.44a8.77 8.77 0 01-2-2.13 6 6 0 01-2.61 2.13l-.16-.44a5.6 5.6 0 002.39-2l.07-.12a.56.56 0 000-.08 9.69 9.69 0 01-1.32-3.61h-.5v.46a13.32 13.32 0 01-.4 3.61 6.4 6.4 0 01-1.09 2.17l-.34-.39a6.18 6.18 0 001-2.08 12.88 12.88 0 00.35-3.33v-3.8zm-3.37 3.31a9.06 9.06 0 001.17 3.2 14.51 14.51 0 001.2-3.2zm74.37-1.15h2.67a12.21 12.21 0 01-1.62 2.67h1.7a9.48 9.48 0 01-1 2.85 5.08 5.08 0 001.55.8 18.74 18.74 0 004.13.29h2.61l-.08.47h-2.53a18.55 18.55 0 01-4.2-.31 4.89 4.89 0 01-1.67-.89 6.1 6.1 0 01-1.41 1.56l-.24-.4a5.91 5.91 0 001.4-1.7 8.53 8.53 0 00.87-2.26h-1.46c-.1.13-.21.24-.31.35l-.34-.21a13.56 13.56 0 002-2.79h-2zm.86-2.54a8.89 8.89 0 011 1.8l-.34.27a8.06 8.06 0 00-1-1.81zm2.45 4.82h1.52v-.74h.47v.79h2v-.74h.47v.74h1.64v.43h-1.64v1.19h2.12v.38h-7.11v-.43h2.08v-1.19h-1.52zm2.08 2.32l.24.34a10 10 0 01-2.52 1.2l-.17-.43a10.34 10.34 0 002.45-1.11zm-1.78-4.93v.5c0 .34.08.52.22.54a4.32 4.32 0 001.59.12c.22 0 .35 0 .37-.12a3.71 3.71 0 00.07-.84l.47.3c0 .59-.08.91-.17 1s-.29.11-.74.11q-2 0-2-.18c-.17-.08-.26-.38-.26-.9V5.68h2.64v1.86zm1.38-1.43h-1.38v1h1.78v-1zm.31 5.66h2v-1.19h-2zm1.67-4.23v.5c0 .34.06.52.2.54a3.91 3.91 0 001.51.12c.23 0 .35 0 .38-.12a3.2 3.2 0 000-.84l.48.3c0 .59-.08.91-.16 1s-.29.11-.75.11c-1.24 0-1.88-.06-1.9-.18s-.24-.38-.24-.9V5.68h2.62v1.86zm.09 5a15.26 15.26 0 012.45 1.25l-.17.47a12.91 12.91 0 00-2.46-1.33zm1.32-6.4h-1.41v1h1.76v-1zm4.18 6.62l.42.23a9.5 9.5 0 01-1.28 2.32l-.38-.36a9 9 0 001.24-2.19zm-.57-7h2.59v6.63h-2.59zm.48 2.07h1.64V6.2h-1.64zm0 2h1.64V8.3h-1.64zm0 2.08h1.64v-1.56h-1.64zm1.33.72a9.6 9.6 0 011.17 2l-.43.29a9.16 9.16 0 00-1.13-2zm1.33-6.45h1.5V5.2h.48v1h1.85v-1h.48v1h1.71v.43h-1.71v.74h1.37v.43h-1.37v.9h1.93v.5h-3.13v.72h2.24v2.84h1v.44h-1v1.2c0 .52-.23.78-.7.78h-.94v-.47a6.1 6.1 0 00.94.09c.15 0 .23-.15.23-.43V13.2h-4v2.15h-.48V13.2h-.86v-.43h.86V9.92h2.2V9.2h-3v-.43h1.79v-.9h-1.23v-.43h1.23V6.7h-1.5zm.95 5h1.72v-.95h-1.72zm0 1.46h1.72v-1h-1.72zm2.88-5.32V6.7h-1.85v.74zm-1.85 1.33h1.85v-.9h-1.85zm1.16 1.58v.95h1.77v-.95zm0 2.41h1.77v-1h-1.8zm4.72-5.11h1.6V5.2h.48v2.29h1.33v.43h-1.33v7.38h-.48V9.4a11.8 11.8 0 01-.46 1.51 10.94 10.94 0 01-1 2l-.39-.34a11.17 11.17 0 001.11-2.27 12.31 12.31 0 00.62-2.33h-1.53zm2.55 1.72a8.89 8.89 0 011 1.89l-.44.3a8.75 8.75 0 00-.94-1.95zm1.29-1.17h5.2v3.18h-2.54a7.74 7.74 0 01-.2.94h3.51v.43h-3.12a3.68 3.68 0 001.12 1.33 5.69 5.69 0 002.13.95l-.27.47a5.89 5.89 0 01-2.14-1.06 4.57 4.57 0 01-1.32-1.69 1.52 1.52 0 01-.15.34 4.1 4.1 0 01-1.23 1.47 5.64 5.64 0 01-2.19.87l-.13-.44a4.89 4.89 0 002-.78 3.66 3.66 0 001.11-1.32s0-.1.07-.14h-2.73v-.43h2.89a5.38 5.38 0 00.21-.94h-2.15zm-1-1.72h1.86V5.28h.47v1.08h1v.43h-1v1.08h-.47V6.79h-1.86zm1.47 3.09h4.25v-.94h-4.25zm0 1.38h4.25v-.95h-4.25zm2.28-4.47h1V5.28h.47v1.08h1.85v.43h-1.85v1.08h-.47V6.79h-1zm5.54 5.84l.43.09a8.63 8.63 0 01-.81 2.84l-.43-.22a8.83 8.83 0 00.81-2.71zm1.42-6.87l.47.18a11.46 11.46 0 01-.77 1.69 8.09 8.09 0 01-.74 1.25c.52 0 1-.07 1.55-.13a15.23 15.23 0 00.7-1.4l.47.18a13.5 13.5 0 01-1.24 2.25 14.69 14.69 0 01-1.33 1.74c.72-.07 1.42-.16 2.12-.27a8 8 0 00-.51-.81l.35-.25a9.8 9.8 0 011.12 2l-.47.18c-.09-.25-.19-.49-.29-.71a31.14 31.14 0 01-3.54.41l-.13-.47h.74a16.15 16.15 0 001.48-2l.27-.43c-.76.09-1.53.16-2.32.19l-.13-.44h.57a10.73 10.73 0 00.86-1.42 13.69 13.69 0 00.77-1.74zm.16 6.83a20.69 20.69 0 01.13 2.4h-.47c0-.91 0-1.71-.09-2.41zm1.09-.16a7.47 7.47 0 01.84 1.93l-.43.12a5.89 5.89 0 00-.8-1.89zm5.5-6.29v8.77h1.07v.47h-6.57v-.47h1.45V5.71zm-3.57 2.88h3.07V6.2h-3.07zm0 3h3.07V9.02h-3.07zm0 2.91h3.07V12h-3.07z" fill="#fff"/><path d="M93.3 52.67l.32.17a8.09 8.09 0 01-1.44 1.86l-.32-.25a6.56 6.56 0 001.44-1.78zm-1-5.59h2.35v4.89H92.3zm.38 2.18h1.59v-1.83h-1.59zm0 2.35h1.59v-2h-1.59zM95 52.77a11.31 11.31 0 01.24 1.65l-.39.11a11.61 11.61 0 00-.2-1.66zm.1-5.88h4.22a8.46 8.46 0 01-.23 2.17.53.53 0 01-.26.35 1 1 0 01-.45.09 6.26 6.26 0 01-1-.1v-.46a4.63 4.63 0 001 .13.33.33 0 00.21-.05c.06 0 .11-.11.15-.25a8.05 8.05 0 00.16-1.52h-1.77a3.34 3.34 0 01-.54 1.59 2.69 2.69 0 01-1.62 1.11l-.15-.35a2.39 2.39 0 001.45-1 3.42 3.42 0 00.47-1.38H95.1zm.49 3.14h3.53v2.17h-3.53zm.39 1.82h2.75v-1.47h-2.7zm.57.85a8.79 8.79 0 01.84 1.68l-.39.15a6.7 6.7 0 00-.74-1.62zm1.83-.07a14.69 14.69 0 011.48 1.79l-.29.28a12.12 12.12 0 00-1.48-1.83zm4.82-5.74h.42v2.22h2.92v-2.6h.46v2.6h2.14v.39h-5.52v1.7h3.88v3.48h-.47v-3.1h-3.44a4.71 4.71 0 01-.46 1.6 4.6 4.6 0 01-1.15 1.53l-.35-.25a4.92 4.92 0 001.21-1.67 5.09 5.09 0 00.36-1.87zm8.29-.13h3.86v2.44h-2a2.67 2.67 0 01.38.61h2.41v.35h-5.31v-.35h2.46a2.29 2.29 0 00-.34-.46l.17-.15h-1.62zm.67 5.72l.31.19a6.9 6.9 0 01-1.33 1.51l-.32-.25a5.84 5.84 0 001.34-1.45zm-.5-1.82h3.56v1.54h-1.58v1.56c0 .54-.24.81-.71.81a3.48 3.48 0 01-.93-.12v-.42a3.2 3.2 0 001 .15c.2 0 .31-.15.31-.46V52.2h-1.58zm.22-2.88h3.09v-.67h-3.09zm0 1h3.09v-.7h-3.09zm.17 3h2.78v-.84h-2.8zm2.4.67a8.63 8.63 0 011.26 1.16l-.29.32a5.54 5.54 0 00-1.23-1.19zm4.31-1.16l.29.22a8.49 8.49 0 01-1.45 1.64 13.1 13.1 0 01-2 1.48l-.25-.32a12.78 12.78 0 002-1.44 8.06 8.06 0 001.41-1.51zm-.9-4.92l.28.22a7.58 7.58 0 01-.94 1.36 10.41 10.41 0 01-1.28 1.24l-.24-.32a9.77 9.77 0 001.25-1.2 6.86 6.86 0 00.93-1.23zm.48 2.39l.29.22a7.47 7.47 0 01-1.1 1.42 10.92 10.92 0 01-1.5 1.28l-.25-.32a10.92 10.92 0 001.48-1.24 7.82 7.82 0 001.08-1.29zm3.96-2.35l.39.1c-.27.84-.52 1.56-.78 2.16v6h-.38v-5.19a15.12 15.12 0 01-1 1.72l-.27-.22a14.57 14.57 0 001.15-2.12 15.44 15.44 0 00.89-2.45zm2.25 0l.42.1a4.56 4.56 0 01-.41.7h2.14a4.68 4.68 0 01-.63 1.16h1.86v1.66h-2.6a2.61 2.61 0 01-.3.27 3.06 3.06 0 01.72 1 7.47 7.47 0 001.79-1l.22.28a10.76 10.76 0 01-1.12.7 4.6 4.6 0 00.73 1.23 5 5 0 001.16 1l-.29.36a5.19 5.19 0 01-1.14-1.06 5.5 5.5 0 01-.79-1.4c-.15.07-.3.14-.44.19a5.28 5.28 0 01.19 1.47 1.85 1.85 0 01-.27 1.15.76.76 0 01-.6.29 2.23 2.23 0 01-1-.26v-.41a2.2 2.2 0 001 .28.44.44 0 00.36-.21 1.59 1.59 0 00.16-.84 6.18 6.18 0 000-.77 8.3 8.3 0 01-1.44.88 13 13 0 01-1.74.66l-.19-.33a8.47 8.47 0 001.79-.67 8.57 8.57 0 001.51-1 3.49 3.49 0 00-.1-.38 1.33 1.33 0 00-.1-.24 9.94 9.94 0 01-2.78 1.41l-.13-.35a9.14 9.14 0 002.71-1.39 3.23 3.23 0 00-.41-.49l-.5.34a7.38 7.38 0 01-1.67.76l-.25-.35a7.32 7.32 0 001.49-.61 4.83 4.83 0 00.93-.62h-1.8v-1.3a4.81 4.81 0 01-.66.45l-.28-.27a8.78 8.78 0 001.44-1.09 4.72 4.72 0 001.02-1.3zm-1.16 3.27h1.86v-1h-1.86zm.07-1.31h2.17a2.91 2.91 0 00.53-.81h-1.87l-.29.33zm2.18.35v1h1.9v-1z" fill="#3e3a39"/><path fill="#fff" fill-rule="evenodd" d="M85.52 50.37l-7.15 6.56v-3.28H59.69v-6.57h18.68V43.8l7.15 6.57zm75.27 30.19l-9.69-.41 2.32-2.32-15.33-15.33 4.65-4.65 15.32 15.33 2.32-2.32.41 9.7zM63.73 57.85l9.7.41-2.32 2.32 15.33 15.33-4.65 4.65-15.32-15.33-2.33 2.32-.41-9.7z"/><path d="M167.51 94.75h-3.9v-6.24h3.76v.44h-3.24v2.37h3.11v.44h-3.11v2.55h3.38zm5.33 0h-.56a4.43 4.43 0 01-.21-1c0-.35-.07-.69-.11-1q-.11-.81-1.2-.81h-1.68v2.81h-.52v-6.24h2.1a2.36 2.36 0 011.44.42 1.53 1.53 0 01.65 1.31 1.45 1.45 0 01-.31.91 1.43 1.43 0 01-.78.55 1.21 1.21 0 01.82 1.17c0 .33.06.65.09 1a3 3 0 00.27.88zm-.6-4.52a1.11 1.11 0 00-.51-1 2.06 2.06 0 00-1.15-.29h-1.5v2.55h1.5a2 2 0 001.15-.3 1.1 1.1 0 00.51-.99zm5.4.06c0 1.19-.78 1.78-2.35 1.78h-1.26v2.68h-.5v-6.24h1.74c1.58 0 2.37.6 2.37 1.78zm-.49 0a1.16 1.16 0 00-.52-1 2.08 2.08 0 00-1.18-.32h-1.42v2.68h1.44a2 2 0 001.18-.31 1.18 1.18 0 00.5-1.05zm1.3-2.09h2.08v-.66h.39v.66h2v.32h-2v.62h1.53v1.45h-1.53v.14a12.8 12.8 0 011.4.81l-.22.28a8.69 8.69 0 00-1.18-.67v1.2h-.39v-1.62a6.3 6.3 0 01-.77.88 7 7 0 01-1.31.91l-.14-.32a5.54 5.54 0 001.13-.77 4.44 4.44 0 00.76-.84h-1.29v-1.45h1.62v-.62h-2.08zm.57 4.39h6.91v.35h-3.19v.85h2.49v.36h-2.49v.91h3.77v.35h-8.2v-.35h1.83v-1.55h.39v1.55h1.83v-2.12h-3.33zm.28-2.32h1.23v-.81h-1.23zm1.62-.81v.74h1.11v-.81zm2.91-2l.36.1a9.76 9.76 0 01-.39 1.19h2.56v.35h-.65a3.82 3.82 0 01-.87 1.88 6.63 6.63 0 001.78 1l-.2.29a6.73 6.73 0 01-1.83-1.06 5.45 5.45 0 01-1.93 1.06l-.25-.31a5.39 5.39 0 001.88-1 5 5 0 01-.87-1.36 6.4 6.4 0 01-.59 1l-.29-.24a7.44 7.44 0 00.8-1.39 7.53 7.53 0 00.49-1.52zm.7 3.26a3.29 3.29 0 00.75-1.62h-1.64a.17.17 0 000 .07 4.41 4.41 0 00.89 1.54zm7.35-3.21l.31.26-.16.2a16.84 16.84 0 004 3.17l-.25.35a17.75 17.75 0 01-4-3.21 14.46 14.46 0 01-1.62 1.6 17.78 17.78 0 01-2.3 1.65l-.2-.39a11.81 11.81 0 002.24-1.56 13.62 13.62 0 001.98-2.07zm2.56 4.68v3.58h-.41v-.7h-4.23v.7h-.46V92.2zm-4.68 2.46h4.27v-2h-4.23zm0-4.21h4.08v.42h-4.08zm42-84.42h2.55V5.2h.47v.81h2.48v.39h-2.48v.8h1.88v1.77h-1.88v.17a14.31 14.31 0 011.72 1l-.27.33a10 10 0 00-1.45-.82v1.47h-.47v-2a6.81 6.81 0 01-1 1.08 7.75 7.75 0 01-1.6 1.11l-.17-.39a6.43 6.43 0 001.39-.94 6 6 0 00.92-1h-1.57V7.2h2v-.76h-2.55zm.7 5.36h8.45v.43h-3.88v1h3v.43h-3v1.16h4.59v.43h-10v-.43h2.25v-1.89h.47v1.89h2.23v-2.59h-4.08zm.35-2.83h1.5v-1h-1.5zm2-1v1h1.41v-1zm3.57-2.4l.43.12a11.36 11.36 0 01-.47 1.46h3.12v.47h-.79a4.73 4.73 0 01-1.06 2.29 8 8 0 002.18 1.25l-.24.35a8.21 8.21 0 01-2.24-1.3 6.56 6.56 0 01-2.36 1.3l-.3-.38a6.44 6.44 0 002.3-1.26 5.73 5.73 0 01-1.07-1.66 8.35 8.35 0 01-.73 1.19l-.34-.29a9.29 9.29 0 001-1.71 9.05 9.05 0 00.54-1.78zm.85 4a4 4 0 00.92-2h-2a.31.31 0 000 .09 5.5 5.5 0 001.05 1.96zm8.87-3.95l.39.31a2.52 2.52 0 01-.21.25 21 21 0 004.85 3.88l-.31.43a21.82 21.82 0 01-4.79-3.87 16.71 16.71 0 01-2 2 20.2 20.2 0 01-2.81 2l-.24-.47a15.14 15.14 0 002.74-1.92 16.17 16.17 0 002.38-2.61zm3.14 5.71v4.39h-.56v-.86h-5.17v.86h-.56v-4.35zm-5.73 3h5.17v-2.43h-5.17zm0-5.14h5v.51h-5zm14.06 5.32h-4.76V6.46h4.58V7h-3.95v2.89h3.8v.54h-3.8v3.12h4.13zm6.46 0h-.68a4.93 4.93 0 01-.26-1.2c0-.42-.09-.84-.14-1.25-.09-.66-.57-1-1.46-1h-2v3.44h-.64V6.46h2.56a2.89 2.89 0 011.76.51 1.88 1.88 0 01.8 1.6 1.85 1.85 0 01-.38 1.12 1.8 1.8 0 01-1 .67 1.47 1.47 0 011 1.43l.12 1.18a3.81 3.81 0 00.32 1.12zm-.74-5.53a1.33 1.33 0 00-.62-1.2 2.45 2.45 0 00-1.41-.36h-1.82v3.12h1.83a2.41 2.41 0 001.4-.37 1.33 1.33 0 00.63-1.19zm6.58.07q0 2.19-2.88 2.19h-1.56v3.27h-.61V6.46h2.13c1.94 0 2.92.74 2.92 2.17zm-.6 0a1.41 1.41 0 00-.64-1.24 2.53 2.53 0 00-1.45-.39h-1.75v3.28h1.75a2.46 2.46 0 001.45-.39 1.42 1.42 0 00.64-1.26z" fill="#fff"/><path d="M233.03 24.32h1.34v-1.9h.39v1.9h.9v.35h-.9v2c.34-.15.67-.3 1-.46v.32a8.74 8.74 0 01-1 .52v2.72c0 .47-.29.7-.86.7a1.5 1.5 0 01-.55-.11v-.42a1.28 1.28 0 00.58.15c.32 0 .47-.15.47-.43V27.2c-.4.17-.83.33-1.27.47l-.11-.39q.73-.23 1.38-.48v-2.13h-1.37zm4.64 4.89l.21.31a11.55 11.55 0 01-2.5 1.07l-.16-.36a11.81 11.81 0 002.46-1.03zm-1.64-4.15h4.57v4h-4.57zm.35-2.35h3.83v1.73h-3.83zm0 3.51h3.79v-.81h-3.79zm0 1.2h3.79v-.85h-3.79zm0 1.23h3.79v-.88h-3.79zm.35-4.57h3.06v-1h-3.06zm2 5.13a12.8 12.8 0 012.35 1l-.18.41a13.29 13.29 0 00-2.29-1zm6.71-4.01l.39.21a9.25 9.25 0 01-1.72 1.41h5.23v3h1.26v.35h-7.91v-.35h1.34v-3a12 12 0 01-1.1.63l-.25-.35a9.37 9.37 0 002.76-1.9zm-2.32-.66h7.06v.35h-7.06zm.94-2a8.51 8.51 0 011.84 1.59l-.35.24a8 8 0 00-1.8-1.62zm.36 7.25h1.19v-2.65h-1.19zm1.58 0h1.27v-2.65h-1.24zm3-7.36l.35.22a8.28 8.28 0 01-1.71 1.68l-.35-.27a6.88 6.88 0 001.74-1.64zm-1.36 2.71a18.71 18.71 0 012.94 2l-.34.35a17 17 0 00-2.88-2.12zm0 4.65h1.29v-2.65h-1.29zm6.96-7.02l.46.15a8.08 8.08 0 01-1 2 10.84 10.84 0 01-1.67 1.88l-.32-.32a10.19 10.19 0 001.47-1.6 7.4 7.4 0 001.06-2.11zm-.92 3h5c-.07 2.45-.23 3.86-.48 4.22a1 1 0 01-.92.38 5.94 5.94 0 01-1.25-.17v-.43a5.73 5.73 0 001.31.17.63.63 0 00.61-.33 14 14 0 00.33-3.43h-2.25a5.73 5.73 0 01-.94 2.54 5.56 5.56 0 01-2.41 1.79l-.28-.35a5.36 5.36 0 002.29-1.66 5.1 5.1 0 00.88-2.32h-1.84zm2.15-3h2.2a5 5 0 00.85 2.27 6.07 6.07 0 001.5 1.49l-.38.32a6.36 6.36 0 01-1.47-1.55 7.24 7.24 0 01-.91-2.11h-1.74zm5.89 1.55h1.58v-2h.39v2h1.44v.35h-1.44v5.94h-.39v-4.76a9.69 9.69 0 01-.48 1.38 8.54 8.54 0 01-.92 1.66l-.31-.27a9.33 9.33 0 001.64-4h-1.51zm2.35 1.09a8.18 8.18 0 01.93 1.73l-.35.24a9.25 9.25 0 00-.88-1.75zm5.32-2.88l.24.39a12.8 12.8 0 01-3.51.62v1.74h3.79v.35h-1.54v5h-.34v-5h-1.87v.48a7.25 7.25 0 01-.38 2.36 6.74 6.74 0 01-1.13 2.08l-.29-.25a6.85 6.85 0 001-1.88 6.92 6.92 0 00.39-2.31V23.2a11.52 11.52 0 003.64-.67z" fill="#3e3a39"/><path d="M73.88 116.26h-.71v-.71h.71zm5.27-3.06l-2.71 2.71 2.71 2.7-.29.27-2.7-2.7-2.67 2.69-.29-.27 2.69-2.69-2.69-2.7.26-.26 2.7 2.68 2.7-2.7zm-2.63.42h-.71v-.71h.71zm0 5.28h-.71v-.7h.71zm2.64-2.64h-.71v-.71h.71zm5.05-2.06h1v-1.5h.3v1.5h.88v.27h-.88v1.41a9.39 9.39 0 00.9-.61v.25a7.85 7.85 0 01-.93.67v2.31q0 .54-.57.54a1.46 1.46 0 01-.52-.09v-.32a1.54 1.54 0 00.55.11q.27 0 .27-.33v-2c-.31.18-.63.34-1 .5l-.08-.3c.37-.17.71-.35 1-.53v-1.58h-1zm2.08 1.67h4.16v.28h-1.92v1h1.5v.27h-1.48v1.1a7.2 7.2 0 001.35.11h.68v.33h-.63a4.38 4.38 0 01-2-.34 2.48 2.48 0 01-.89-.84 2.26 2.26 0 01-.11.22 5.32 5.32 0 01-.82 1.11l-.24-.23a4.62 4.62 0 00.81-1.08 4.07 4.07 0 00.42-1.29l.3.05a4.53 4.53 0 01-.24.93 2.32 2.32 0 00.83.82 2.27 2.27 0 00.34.15v-2.3h-2zm.6-2.82h3v2.25h-3zm.34 1h2.38v-.69h-2.38zm0 1h2.38v-.74h-2.38zm5.71-2.4l.32.11c-.18.6-.37 1.12-.55 1.56v4.81h-.33v-4.08a9.8 9.8 0 01-.65 1.15l-.24-.19a13.52 13.52 0 00.82-1.55 11.84 11.84 0 00.63-1.81zm.32 1.58h1.1v-1.53h.33v1.5h1.42v-1.5h.33v1.5h1.19v.3h-1.19v2h1.49v.33h-5v-.33h1.42v-2h-1.1zm1.4 3l.3.15a7.22 7.22 0 01-1.65 1.77l-.27-.25a6.74 6.74 0 001.62-1.7zm0-.68h1.42v-2h-1.42zm1.39.68a12.16 12.16 0 011.69 1.67l-.27.27a10.61 10.61 0 00-1.64-1.72zm4.61-4.42l.25.17a8.84 8.84 0 01-.63 1.14l.06.12a6.43 6.43 0 01.35 2.43 5.34 5.34 0 01-.22 2 .71.71 0 01-.65.32 1.9 1.9 0 01-.58-.09v-.33a2 2 0 00.61.12.41.41 0 00.41-.24 5.31 5.31 0 00.16-1.79v-.83a4.79 4.79 0 01-.46.79 5.3 5.3 0 01-.87 1l-.22-.2a5.51 5.51 0 00.94-1.07 5 5 0 00.56-1.06 3.44 3.44 0 00-.23-.9l-.07.11a7.19 7.19 0 01-1 1.1l-.17-.28a5.28 5.28 0 00.93-1l.15-.19a2.49 2.49 0 00-1-1l.14-.19a2.86 2.86 0 011 .88 8.27 8.27 0 00.54-1.01zm.42.19h3.71v1.56h-2.53a4.94 4.94 0 01-.26.57h3a15 15 0 01-.21 3.55.53.53 0 01-.55.37 2.67 2.67 0 01-.82-.14v-.3a3.78 3.78 0 00.85.14c.18 0 .29-.12.33-.37a17.8 17.8 0 00.14-3h-2.84a5.77 5.77 0 01-.86 1.07l-.21-.2a4.71 4.71 0 001.17-1.72h-.87zm.3 3.13h1.11v-.55h.28v.55h1.26v1.27h-1.21v.68l.8-.16a1.54 1.54 0 00-.17-.19l.19-.16a6.47 6.47 0 01.77.85l-.2.19a4 4 0 00-.37-.47 12.47 12.47 0 01-2.66.39v-.28a9.25 9.25 0 001.41-.12v-.73h-1.11zm0-1.84h.85v-1h-.85zm.3 2.87h.81v-.79h-.81zm.85-3.87v1h.83v-1zm.24 3.08v.83h.91v-.79zm.91-3.08v1h.81v-1zm2.53 5.02h6.38v.32h-6.38zm.3-4.26h5.8v.3h-5.8zm1.13.73a19.4 19.4 0 011.15 3.1l-.33.13a16.58 16.58 0 00-1.08-3.06zm1.39-2.1a5.38 5.38 0 01.71 1.09l-.31.22a4.44 4.44 0 00-.67-1.12zm2 2.07l.33.11a13.67 13.67 0 01-1.29 3.29l-.3-.17a14.31 14.31 0 001.31-3.23zm3-1.55h2.66a4.68 4.68 0 01-1 1.76 6.36 6.36 0 01-1.84 1.3l-.14-.28a5.84 5.84 0 001.55-1 7.11 7.11 0 00-.83-.92l.21-.19a7.19 7.19 0 01.83.89 3.81 3.81 0 00.84-1.25h-2.28zm1.66 4.38a5.43 5.43 0 01.6 1h.87a3.39 3.39 0 00.33-.42 3 3 0 00.34-.56l.33.13a2.79 2.79 0 01-.33.52q-.13.18-.27.33h2.24v.29h-6v-.29h2.07c-.14-.28-.29-.56-.46-.83zm-.65-1.75h3.42v1.53h-3.43zm.3 1.25h2.82v-1h-2.82zm.41-2.19h2.19v.3h-2.19zm1.26-2.13a6.69 6.69 0 00.56 1.06 3.71 3.71 0 001.08-.84l.24.16a3.47 3.47 0 01-.61.6 5.37 5.37 0 01-.53.35c.15.2.3.39.47.58l.08.07a3.76 3.76 0 00.52-.31 4.76 4.76 0 00.57-.52l.28.19a3.5 3.5 0 01-.63.58 3.66 3.66 0 01-.49.31 7.7 7.7 0 001.39 1l-.23.28a7.69 7.69 0 01-1.68-1.37 7.06 7.06 0 01-1.26-2zm6.91.57h-1.73V113h2.2a11.05 11.05 0 001 3.45 6.55 6.55 0 002 2.33l-.24.33a6.37 6.37 0 01-2-2.4 10.7 10.7 0 01-.92-2.71 8.37 8.37 0 01-.83 2.44 8.27 8.27 0 01-2.28 2.69l-.22-.3a8.36 8.36 0 002.13-2.63 8.12 8.12 0 00.89-2.87zm6.77.77v1.88h.67v-3h2.86v.27h-2.56v.68h2.26v.27h-2.26v.75h2.29v.25h-2.29v.76h2.95v.28h-2a4.2 4.2 0 00.47 1.16 2.65 2.65 0 00.48-.3 4.36 4.36 0 00.54-.48l.25.19a3.84 3.84 0 01-.58.54c-.19.14-.36.25-.51.34l.07.11a3.16 3.16 0 001.32 1l-.17.3a3.42 3.42 0 01-1.32-1.09 5.1 5.1 0 01-.85-1.8h-.81v2.21a10.88 10.88 0 001.23-.46v.27a18.22 18.22 0 01-2.24.77l-.14-.27.82-.22v-2.3h-.52v.79c0 .33-.13.5-.4.5h-.38v-.3a1.42 1.42 0 00.38.06c.07 0 .1-.09.1-.27v-2.62h-.63v4.75h-.3v-4.75h-.57v3.25h-.3v-3.52h.87v-1.29h.3v1.29zm6.7.28h.3v1.57l.6-.31a10 10 0 002-1.48l.2.22a10.16 10.16 0 01-2 1.5 7.26 7.26 0 01-.74.36.12.12 0 00.1.06 7.89 7.89 0 001.86.1c.21 0 .34-.06.4-.17a3.46 3.46 0 00.15-1l.3.13a2.63 2.63 0 01-.22 1.06c-.07.15-.28.23-.63.23a8 8 0 01-2.06-.13.36.36 0 01-.2-.15c-.52.22-1.07.43-1.65.61l-.17-.25a17.46 17.46 0 001.78-.66zm-.55.3l.24.13a5.68 5.68 0 01-1.14 1.29l-.25-.19a5 5 0 001.15-1.23zm1.69-2a2.07 2.07 0 01.51.78h2.65v1.15h-.31v-.88h-5.17v.88h-.3v-1.15h2.79a2.21 2.21 0 00-.41-.6zm-2 4.55h.3v1.24h1.8v-1.56h.3v1.56h1.82v-1.27h.3v2h-.3v-.43h-3.92v.43h-.3zm1.65-3.3a7.66 7.66 0 011 .85l-.21.22a7 7 0 00-1-.88zm2.59.95a5.9 5.9 0 011.23 1.27l-.28.18a5.86 5.86 0 00-1.19-1.28zm2.19-1.02h3.68c0-.36-.06-.74-.07-1.13h.33c0 .4 0 .77.06 1.13h2.29v.3h-2.22a12.18 12.18 0 00.39 2.28l.06.21a9.66 9.66 0 001.1-1.9l.27.14a9.87 9.87 0 01-1.24 2.11 6.88 6.88 0 00.52 1.16c.24.33.4.5.5.5s.15-.09.22-.29a5.16 5.16 0 00.25-1.24l.3.17a3.67 3.67 0 01-.35 1.42.49.49 0 01-.39.28.91.91 0 01-.67-.47 5 5 0 01-.64-1.22l-.2.22a8.66 8.66 0 01-2.32 1.6l-.13-.28a7.82 7.82 0 002.24-1.55l.3-.33a2.91 2.91 0 01-.12-.35 12.25 12.25 0 01-.42-2.46H143zm3.53 3.17v.3a21.93 21.93 0 01-3.38 1l-.06-.33a18.87 18.87 0 003.44-.97zm-2.85-2.17h2.24v1.89h-2.24zm.3 1.62h1.64v-1.35h-1.64zm3.56-3.75a5.93 5.93 0 011 .74l-.22.24a5 5 0 00-1-.76zm2.92.47h1.61v-.52h.3v.52h1.58v.25h-1.58v.48h1.19v1.12h-1.19v.15a9.28 9.28 0 011.09.64l-.17.21a7.69 7.69 0 00-.92-.52v.94h-.3v-1.27a4.78 4.78 0 01-.6.69 5.13 5.13 0 01-1 .71l-.11-.25a3.83 3.83 0 00.88-.6 3.51 3.51 0 00.59-.66h-1v-1.12h1.24v-.48h-1.62zm.44 3.41h5.38v.27h-2.48v.67h1.94v.27h-1.94v.71h2.93v.27h-6.38v-.27h1.43v-1.2h.3v1.2h1.42v-1.65h-2.6zm.22-1.8h1v-.61h-1zm1.26-.63v.63h.89v-.61zm2.27-1.53l.27.08a6.33 6.33 0 01-.3.93h2v.27h-.55a3 3 0 01-.67 1.46 5.37 5.37 0 001.39.79l-.16.23a5.53 5.53 0 01-1.42-.83 4.29 4.29 0 01-1.5.83l-.19-.25a4.21 4.21 0 001.46-.8 3.65 3.65 0 01-.68-1.06 4.93 4.93 0 01-.46.76l-.22-.19a5.33 5.33 0 00.61-1.08 5.8 5.8 0 00.42-1.14zm.54 2.54a2.64 2.64 0 00.59-1.26h-1.28a.09.09 0 000 .06 3.54 3.54 0 00.69 1.21zm5.71-2.49l.25.2a1.83 1.83 0 01-.13.16 13 13 0 003.08 2.46l-.19.28a14 14 0 01-3.08-2.5 11.56 11.56 0 01-1.27 1.24 12.31 12.31 0 01-1.78 1.28l-.16-.3a9.77 9.77 0 001.75-1.21 10.4 10.4 0 001.53-1.61zm2 3.64v2.79h-.36v-.55h-3.28v.55h-.36v-2.79zm-3.64 1.91h3.28v-1.58h-3.28zm0-3.27h3.18v.32h-3.18zm9.96 3.35h-.41l-.54-1.32h-2.46l-.53 1.32h-.42l2-4.85h.42zm-1.1-1.66l-1.05-2.77-1.09 2.77z" fill="#fff"/><path d="M172.8 115.91a2.29 2.29 0 01-.69 1.79 2.69 2.69 0 01-1.88.63h-1.2v-4.85h1.23a2.75 2.75 0 011.9.61 2.34 2.34 0 01.64 1.82zm-.39 0a2 2 0 00-.62-1.57 2.43 2.43 0 00-1.66-.52h-.75v4.17h.77a2.37 2.37 0 001.62-.52 2 2 0 00.64-1.56zm.68.89l.25.11a6.34 6.34 0 01-.41 1.57l-.22-.15a6.35 6.35 0 00.38-1.53zm2.38-3.82v.27h-1v.82h.89v.28h-.89v.73h.89v.27h-.89v.72h1.06a9.78 9.78 0 01-.32 2.65.59.59 0 01-.55.28 2.2 2.2 0 01-.64-.12v-.27a2.32 2.32 0 00.64.11.31.31 0 00.32-.2 11.39 11.39 0 00.25-2.18h-2.11v-3.36zm-1.31 1.09v-.82h-.77v.82zm0 1v-.73h-.77v.73zm0 1v-.72h-.77v.72zm-.38.76v1.48h-.24v-1.45zm.43 0a11.44 11.44 0 01.17 1.31l-.24.06a11.47 11.47 0 00-.15-1.29zm.47-.08a6.92 6.92 0 01.22 1.15l-.24.08a10.48 10.48 0 00-.2-1.15zm2.57-4l.22.19-.07.1a6.28 6.28 0 00.86.85 6.57 6.57 0 00.87.61l-.16.3a6.37 6.37 0 01-.89-.66 8.57 8.57 0 01-.83-.88 7.75 7.75 0 01-.73.83 8.1 8.1 0 01-1.08.9l-.15-.27a5.71 5.71 0 001-.85 6.73 6.73 0 00.96-1.19zm-.93 4.27l.27.05a3.75 3.75 0 01-.14.6 4.51 4.51 0 01.74.71l-.18.24a5.3 5.3 0 00-.67-.67 2.92 2.92 0 01-.14.31 3.93 3.93 0 01-.7.92l-.21-.2a3.84 3.84 0 00.68-.89 3.28 3.28 0 00.35-1.14zm-.6-1.87h1.31v1.67h-1.34zm.3 1.4h.74v-1.13h-.73zm.32-2.25h1.84v.28h-1.84zm1.6 2.72l.27.05a4.24 4.24 0 01-.16.68 6.82 6.82 0 011 1.12l-.2.25a7.23 7.23 0 00-.92-1.09 1.63 1.63 0 01-.11.23 3.81 3.81 0 01-.67.92l-.21-.2a3.66 3.66 0 00.65-.89 3.52 3.52 0 00.35-1.14zm-.53-1.87h1.35v1.67h-1.35zm.3 1.4h.75v-1.13h-.75zm2.32-2.72h2.25v.27h-2.25zm.3 1h1.7v.27h-1.67zm0 1h1.7v.28h-1.67zm1.65 1v2.1h-.3v-.33h-1v.45h-.3v-2.22zm-1.1-4.18a3.92 3.92 0 01.6.9l-.28.19a4 4 0 00-.57-.93zm-.2 5.68h1v-1.23h-1zm1.68-5.3h1.69a5.62 5.62 0 01-.62 1.7 4.68 4.68 0 01-1.13 1.28l-.14-.24a4 4 0 001-1.17v-.08a5 5 0 00-.83-.65l.17-.19a6 6 0 01.79.58 4.22 4.22 0 00.36-1h-1.34zm1 4.46a5.71 5.71 0 01.59 1h.56a3 3 0 00.28-.44 3.89 3.89 0 00.26-.6l.3.11a3 3 0 01-.25.56c-.07.13-.15.26-.22.37h1.4v.27h-4.07v-.27h1.39c-.14-.3-.29-.58-.45-.85zm-.49-1.72h2.71v1.47h-2.71zm.3 1.2h2.11v-.93h-2.11zm.16-2.05h1.7v.28h-1.69zm1.2-2.19a5.2 5.2 0 00.17.68 4.32 4.32 0 001-.63l.17.19a4.08 4.08 0 01-1.07.68 5 5 0 00.32.7 4.8 4.8 0 001.05-.67l.16.22a4.47 4.47 0 01-1 .7 3.43 3.43 0 001.21 1.11l-.19.27a3.78 3.78 0 01-1.28-1.24 5.35 5.35 0 01-.77-2zM73.88 126.92h-.71v-.72h.71zm5.27-3.06l-2.71 2.71 2.71 2.7-.29.27-2.7-2.7-2.67 2.69-.29-.27 2.69-2.69-2.69-2.7.26-.26 2.7 2.68 2.7-2.7zm-2.63.42h-.71v-.71h.71zm0 5.28h-.71v-.71h.71zm2.64-2.64h-.71v-.72h.71zm5.03-3.15h6.39v.34h-1v5q0 .6-.72.6a3.58 3.58 0 01-1.14-.17v-.34a4 4 0 001.17.19.32.32 0 00.36-.37v-4.88h-5zm3.67 1.45v3h-.37v-.52h-1.9v.73h-.36v-3.23zm-2.27 2.11h1.9v-1.77h-1.9zm7.44-3.99l.33.1c-.22.71-.43 1.3-.63 1.79v4.56h-.33v-3.83a12.51 12.51 0 01-.7 1.26l-.25-.19a12.06 12.06 0 00.9-1.7 13.8 13.8 0 00.68-1.99zm.25 1.28h4.48v.3h-2a8.69 8.69 0 00.45 2.05 4.43 4.43 0 00.58-.48 5.27 5.27 0 00.66-.8l.25.19a4.8 4.8 0 01-.71.84 4.35 4.35 0 01-.65.56c0 .08.07.15.1.22a6.56 6.56 0 001.53 1.94l-.22.33a7.33 7.33 0 01-1.59-2.06 8.38 8.38 0 01-.74-2.79h-.05a6.88 6.88 0 01-.72 1.35 1.47 1.47 0 01-.1.13v2.52a11.86 11.86 0 001.45-.6l.06.32a19.21 19.21 0 01-2.57 1l-.17-.32.91-.27v-2.21a6.57 6.57 0 01-1 1l-.22-.25a6.75 6.75 0 001.34-1.39 6.25 6.25 0 00.7-1.26h-1.71zm1.8-1.26a4.14 4.14 0 01.75.93l-.31.23a3.73 3.73 0 00-.71-1zm5.01 4.84l.24.13a6.07 6.07 0 01-1.12 1.45l-.24-.19a5.48 5.48 0 001.12-1.39zm-.76-4.35h1.83v3.8h-1.83zm.3 1.7h1.23v-1.43h-1.23zm0 1.83h1.23v-1.57h-1.23zm1.81.9a9.17 9.17 0 01.18 1.28l-.3.09a9.47 9.47 0 00-.16-1.29zm.07-4.57h3.28a6 6 0 01-.18 1.68.38.38 0 01-.2.27.73.73 0 01-.35.07 4.25 4.25 0 01-.74-.07v-.36a3.6 3.6 0 00.77.1.24.24 0 00.16 0s.09-.09.12-.2a5.48 5.48 0 00.12-1.18h-1.37a2.69 2.69 0 01-.42 1.24 2.17 2.17 0 01-1.26.87l-.12-.28a1.82 1.82 0 001.13-.76 2.61 2.61 0 00.36-1.07h-1.27zm.38 2.44h2.74v1.69h-2.74zm.3 1.41h2.14v-1.14h-2.14zm.45.67a7.17 7.17 0 01.65 1.3l-.3.12a5.11 5.11 0 00-.58-1.27zm1.39-.03a11.19 11.19 0 011.15 1.39l-.23.22a8.63 8.63 0 00-1.15-1.42zm5.19-4.86a5 5 0 01.68.82h2.6v.3h-5.34v2.15a8.4 8.4 0 01-.18 1.76 6.89 6.89 0 01-.49 1.4l-.28-.17a8.25 8.25 0 00.5-1.47 9.87 9.87 0 00.13-1.53v-2.4h2.64a5.56 5.56 0 00-.54-.66zm.27 1.4h.33v1h2.57v.3h-2.57v1.16h2v2.55h-.32v-.49h-3.36v.49h-.34v-2.55h1.7zm-1.36 4.25h3.36v-1.44h-3.36zm5.95-5.16h2.88v2.08h-1.67c0 .29 0 .56-.06.82h1.8a8.92 8.92 0 01-.3 2.46.61.61 0 01-.58.41 3 3 0 01-.87-.22v-.32a2.79 2.79 0 00.83.21.37.37 0 00.35-.29 7.8 7.8 0 00.22-1.95h-1.52a4.87 4.87 0 01-.37 1.24 4.11 4.11 0 01-1 1.5l-.24-.2a4.71 4.71 0 001-1.44 7.14 7.14 0 00.41-2.22h-.87zm.33 1.78h2.22v-1.48h-2.22zm3.45-1.37h.33v4h-.33zm1.36-.8h.33v5.67c0 .37-.22.55-.66.55a2.63 2.63 0 01-.7-.09v-.33a2.28 2.28 0 00.73.12.3.3 0 00.33-.34zm7.32 3.33h-2.23v2.12h-.39v-2.12h-2.23v-.4h2.23v-2.17h.39v2.13h2.23zm3.97-3.43l.3.08c-.09.16-.2.33-.31.5h2.58a5.11 5.11 0 01-1.17 1.09h1.93v4.19a.4.4 0 01-.46.45 5.09 5.09 0 01-1.18-.15v-.33a5.94 5.94 0 001.18.16c.1 0 .16-.08.16-.24v-1.27h-4.07a3.47 3.47 0 01-.22.91 3 3 0 01-.71 1.07l-.2-.26a2.54 2.54 0 00.66-1 5.31 5.31 0 00.22-1.65v-1.69a5.79 5.79 0 01-.58.43l-.24-.23a6.37 6.37 0 001.28-1 4.5 4.5 0 00.83-1.06zm-1 1.67h2a5 5 0 00.95-.79h-2.11a4.27 4.27 0 01-.36.38zm0 2.48h1.79v-.95h-1.77v.38c-.01.21-.02.4-.03.57zm0-1.22h1.77v-1h-1.77zm2.11-1v1h1.91v-1zm0 1.23v.95h1.91v-.95zm6.07-3.16l.32.08a2.92 2.92 0 01-.25.54h2.36a4.7 4.7 0 01-.81 1.29h1.93v2.08h-4.37v1.39c0 .21.05.35.17.41a1.6 1.6 0 00.5.08c.44 0 1.54.06 3.32.06a1.45 1.45 0 00.54-.06s.05-.06.07-.14 0-.39.07-.83l.33.13a8.57 8.57 0 01-.11.88.38.38 0 01-.11.23 1.76 1.76 0 01-.79.09q-2.85 0-3.48-.06a1.15 1.15 0 01-.6-.18.66.66 0 01-.24-.61v-3.21a5.9 5.9 0 01-.73.61l-.22-.21a8 8 0 001.21-1.12 5 5 0 00.89-1.45zm-.89 1.91h2.14a4.13 4.13 0 00.69-1h-2a5.28 5.28 0 01-.42.58 4 4 0 01-.41.42zm.07.69v1.09h1.86v-1.47h-1.86zm2.22-.38v1.47h1.82v-1.47zm3.87-1.07h2.6v.27h-2.6zm.3 1h2v.27h-2zm0 1h2v.27h-2zm1.92 1v2.05h-.3v-.34h-1.24v.45h-.3v-2.27zm-1.54 1.55h1.24v-1.28h-1.24zm.33-5.63a4.25 4.25 0 01.64.91l-.28.19a4.14 4.14 0 00-.6-.94zm1.67 3.26h3a6.05 6.05 0 01-1.17 2l.3.21a6.19 6.19 0 001.53.72l-.2.3a6.36 6.36 0 01-1.58-.8 1.57 1.57 0 01-.28-.21 4.87 4.87 0 01-2 1l-.11-.26a4.67 4.67 0 001.89-.94 3.5 3.5 0 01-.48-.55 4.1 4.1 0 01-.52-1.18h-.43zm.83-2.91h1.74v1.81a.45.45 0 000 .24.83.83 0 00.26 0 4.58 4.58 0 00.77-.08v.3a3.37 3.37 0 01-.77.08c-.34 0-.52 0-.55-.13a.5.5 0 01-.07-.28v-1.69h-1.26a4.65 4.65 0 01-.29 1.74 1.42 1.42 0 01-.85.78l-.12-.31a1.2 1.2 0 00.68-.54 4.47 4.47 0 00.28-2zm-.1 3.18a3.21 3.21 0 00.51 1.05 4.36 4.36 0 00.41.46 5.53 5.53 0 001-1.51zm4.84-1.42h4.63v.3h-2.11v1.27h2.3v.3h-2.27v1.6a13.86 13.86 0 001.74.09 11.84 11.84 0 001.24-.06v.36c-.45 0-.85.06-1.19.06a9.51 9.51 0 01-2.31-.21 2.19 2.19 0 01-1-.48 1.84 1.84 0 01-.43-.62 1.71 1.71 0 01-.14.27 6.15 6.15 0 01-1 1.39l-.25-.22a5.76 5.76 0 001-1.38 5.13 5.13 0 00.52-1.65h.31a5.59 5.59 0 01-.32 1.22 1.94 1.94 0 00.47.69 1.71 1.71 0 00.81.4l.25.05v-3.13h-2.2zm2.08-2.23a2.66 2.66 0 01.44.93h2.63v1.25h-.33v-1h-5.09v1h-.33v-1.27h2.78a2.86 2.86 0 00-.35-.75zm6.23.07l.33.11a14.48 14.48 0 01-.82 1.73v4.58h-.33v-4c-.27.41-.57.8-.87 1.17l-.25-.19a9.35 9.35 0 001.09-1.56 9.46 9.46 0 00.85-1.84zm1.3 0l.33.08a8.13 8.13 0 01-.36 1.12h3.29v.31h-2.62v1.17h2.22v.3h-2.22v1.23h2.38v.3h-2.38v1.92h-.31v-4.92h-.49a1.54 1.54 0 00-.08.19 8.25 8.25 0 01-.94 1.51l-.23-.23a6.93 6.93 0 00.82-1.29 7.8 7.8 0 00.59-1.69zm6.21 1.65a5.45 5.45 0 01.69.81h1a5.08 5.08 0 00.66-.81l.3.1a4.39 4.39 0 01-.58.71h2v.28h-2.72v.54h2.17v.28h-2.17v.6h2.9v.27h-2.65a9.93 9.93 0 002.9 1.38l-.25.3a9.54 9.54 0 01-2.9-1.56v1.88h-.35v-1.83a7.63 7.63 0 01-1.07.71 10.68 10.68 0 01-1.86.77l-.13-.3a10.57 10.57 0 001.7-.64 7.5 7.5 0 001.15-.71h-2.66v-.27h2.87v-.6h-2.11v-.28h2.11v-.54h-2.68v-.28h2a4.83 4.83 0 00-.56-.65zm.37-1.67h.31v1.34h1v-1.34h.3v1.34h2.32v.27h-6.21v-.27h2.32zm-1.39.16a4.61 4.61 0 01.91.91l-.27.18a4.46 4.46 0 00-.88-.93zm4.29 0l.28.16a4 4 0 01-.85.9l-.27-.21a3.74 3.74 0 00.85-.85zm2.17 1.39h1v-1.55h.3v1.55h.73v.31h-.73v4.62h-.3v-3.77a9.94 9.94 0 01-.91 2.3l-.19-.28a7.91 7.91 0 00.61-1.36 9.52 9.52 0 00.46-1.51h-1zm1.62.91a5.16 5.16 0 01.52 1l-.28.18a4.25 4.25 0 00-.5-1zm1.19.36l.29.08-.2.38h1.32a3.7 3.7 0 00-.42-.46l.22-.17a3.81 3.81 0 01.56.63h1.57v.27h-1.71v.57h1.5v.28h-1.5v.55h1.5v.27h-1.5v.55h1.85v.27h-3.55v.41h-.3v-2.48a5.08 5.08 0 01-.63.68l-.22-.2a4.75 4.75 0 001.22-1.59zm-1-2.24h1.3v-.58h.3v.58h.6v.28h-.6v.46h-.3v-.46h-1.3zm.45.84h1.61v1.25h-1.61zm.29 1h1v-.7h-1zm1.62 1.72v-.57h-1.39v.57zm0 .83v-.55h-1.39v.55zm-1.39.82h1.39v-.55h-1.39zm1.48-5.19h.57v-.58h.3v.58h1.15v.26h-1.15v.43h-.3v-.43h-.57zm0 .84h1.62v1.25h-1.62zm.3 1h1v-.7h-1zm5.14-2.12l-.88 2a3.09 3.09 0 01.59.91 2.48 2.48 0 01.21.95c0 .48-.22.72-.65.72a2.21 2.21 0 01-.58-.11v-.33a1.9 1.9 0 00.63.14c.21 0 .31-.14.32-.42a2.37 2.37 0 00-.17-.83 3.4 3.4 0 00-.62-1l.76-1.77h-1.25v5.84h-.33v-6.13zm3.2.08v2.66h-1.34a4.58 4.58 0 00.36 1.1 3.23 3.23 0 00.6-.32 3.68 3.68 0 00.67-.51l.25.19a5 5 0 01-.71.58q-.37.22-.66.36c.08.14.17.28.26.41a4.76 4.76 0 001.38 1.3l-.22.28a5.3 5.3 0 01-1.46-1.45 4.84 4.84 0 01-.8-1.94h-.79v2.58a9.18 9.18 0 001.28-.59l.05.3a17 17 0 01-2.26 1l-.17-.3.77-.26v-5.36zm-2.51 1.15h2.17v-.87h-2.18zm0 1.23h2.17v-.92h-2.18zm5.39-61.24h-.61v-.61h.61zm4.52-2.63l-2.32 2.32 2.31 2.32-.24.23-2.31-2.31-2.3 2.3-.24-.23 2.31-2.31-2.31-2.31.23-.23 2.31 2.31 2.31-2.32zm-2.26.37h-.6v-.61h.6zm0 4.52h-.6v-.61h.6zm2.27-2.26h-.61v-.61h.61zm5.31-3.06l.26.07a2.17 2.17 0 01-.19.41h1.71v.23h-1.14l.31.47-.22.16a5.75 5.75 0 00-.42-.63h-.37l-.12.17a3.76 3.76 0 01-.61.69l-.22-.18a3.58 3.58 0 00.62-.67 3 3 0 00.39-.72zm1.48 1.42v1.52h-1.78v2.55h-.25V63.2zm-1.78.65h1.52v-.45h-1.52zm0 .66h1.52v-.45h-1.52zm3 .58v1.78h-.26v-.21h-1.5v.36h-.26v-1.93zm-1.74.68h1.48v-.47h-1.5zm0 .68h1.48v-.46h-1.5zm1.4-4.67l.26.07a2.9 2.9 0 01-.16.41h2v.23h-1.35q.2.23.36.45l-.21.16a5.34 5.34 0 00-.48-.61h-.39a.59.59 0 010 .08 3.91 3.91 0 01-.45.63l-.21-.19a2.59 2.59 0 00.44-.59 3.12 3.12 0 00.15-.64zm.19 1.42h1.39v3.65c0 .23-.14.35-.43.35a4 4 0 01-.72-.07v-.26a2.76 2.76 0 00.72.1c.11 0 .17-.07.17-.21v-2h-1.74v-1.6zm-.32.65h1.52v-.45h-1.52zm1.52.66v-.45h-1.52v.45zm1.42-1.76h2.18v.24h-2.18zm.26.77h1.69v.24h-1.69zm0 .82h1.69v.23h-1.69zm1.64.85v1.97h-.25v-.39h-1v.39h-.26v-2zm-1.08-3.42a3.61 3.61 0 01.59.76l-.23.17a3.47 3.47 0 00-.57-.8zm-.21 4.73h1v-1.08h-1zm1.5-4.34h2.51a25 25 0 00.23 4.25c.06.31.13.46.21.46s.12-.13.15-.4v-.82l.24.1a4.89 4.89 0 01-.07.84.8.8 0 01-.15.46.29.29 0 01-.21.1c-.19 0-.33-.15-.41-.44a17.32 17.32 0 01-.32-4.29h-1.07v1.74h.94v.24h-.94v2.85h-.27v-2.85h-.85v-.24h.85v-1.78h-.88z" fill="#fff"/><path fill="#a2c3e7" fill-rule="evenodd" d="M5.54 115.26l.22-1.12.62-.91.91-.62 1.12-.22h51.74l1.12.22.92.62.61.91.23 1.12v11.52l-.23 1.12-.61.92-.92.61-1.12.23H8.41l-1.12-.23-.91-.61-.62-.92-.22-1.12v-11.52z"/><path fill="none" stroke="#fff" stroke-miterlimit="10" stroke-width=".5" d="M5.54 115.26l.22-1.12.62-.91.91-.62 1.12-.22h51.74l1.12.22.92.62.61.91.23 1.12v11.52l-.23 1.12-.61.92-.92.61-1.12.23H8.41l-1.12-.23-.91-.61-.62-.92-.22-1.12v-11.52z"/><path d="M18.26 122.2l.24.35a8.87 8.87 0 01-2.21 1.83l-.21-.39a8.23 8.23 0 002.18-1.79zm4.74-5.37l.28.35a17.73 17.73 0 01-2.87.63l-.58.07a11.56 11.56 0 01-1.62 1.68l2.45-.07a12.85 12.85 0 001.37-1.29l.42.35a13.34 13.34 0 01-2 1.69 16.38 16.38 0 01-2.08 1.21c1.21-.05 2.53-.14 4-.27a10.84 10.84 0 00-.94-.8l.26-.27a10.81 10.81 0 012.06 1.89l-.28.36a10.12 10.12 0 00-.74-.83c-.8.09-1.64.17-2.52.23v2.44q0 .78-1 .78a3 3 0 01-.87-.12v-.45a2.88 2.88 0 00.9.15c.36 0 .54-.16.54-.47v-2.36c-1.11.07-2.28.12-3.52.14l-.07-.42h1.45c.72-.38 1.48-.84 2.28-1.37l.29-.22c-.85.07-1.89.1-3.11.1l-.07-.39h.68a10.84 10.84 0 001.58-1.61c-.92.1-1.83.17-2.72.21l-.2-.39c1.6-.1 2.93-.22 4-.37a17 17 0 002.66-.55zm-1.55 5.44a11.73 11.73 0 012.32 1.72l-.27.36a14.07 14.07 0 00-2.28-1.8zm4.4.31l.35.07a6.47 6.47 0 01-.67 2.29l-.35-.18a7.1 7.1 0 00.67-2.18zm1.13-5.62l.38.15a9.84 9.84 0 01-.57 1.35 6.19 6.19 0 01-.57 1c.41 0 .81 0 1.19-.08a8.74 8.74 0 00.47-1l.39.15a9.94 9.94 0 01-.93 1.74 10.13 10.13 0 01-1 1.32 13.77 13.77 0 001.63-.18 5.35 5.35 0 00-.44-.74l.29-.2a8.13 8.13 0 01.91 1.64l-.39.14-.2-.51a25.87 25.87 0 01-2.82.31l-.11-.39h.64a14.61 14.61 0 001.12-1.5c.09-.14.17-.29.25-.43-.57.07-1.16.11-1.76.13l-.11-.36h.38a9.65 9.65 0 00.68-1.17 14.55 14.55 0 00.62-1.37zm.13 5.59a10.54 10.54 0 01.18 2h-.38a11.53 11.53 0 00-.15-2zm.84-.17a8.05 8.05 0 01.67 1.55l-.35.13a6.89 6.89 0 00-.59-1.51zm2.4-5.55a7.86 7.86 0 01.78 1.25h2.13v.35h-2.52l-1.1 1.94c.77 0 1.62-.1 2.55-.19a9.67 9.67 0 00-.78-.79l.3-.22a8 8 0 011.55 1.77l-.34.24a6.08 6.08 0 00-.47-.66l-.9.09v3.59a1 1 0 000 .3c.06.09.36.14.91.14.22 0 .35-.06.39-.17a5.08 5.08 0 00.11-1.14l.38.25a2.91 2.91 0 01-.2 1.21c-.05.13-.28.19-.68.19a3 3 0 01-1.16-.12c-.11-.06-.17-.22-.17-.47v-3.7l-1 .07a8.89 8.89 0 01-.26 2.45 2.84 2.84 0 01-.72 1.14 4.48 4.48 0 01-1.31.84l-.13-.28a3.81 3.81 0 001.18-.79 3 3 0 00.66-1.08 8.64 8.64 0 00.23-2.26l-1.45.05-.07-.39h.87l1.12-2h-2v-.35h2.31a9.32 9.32 0 00-.62-1zm5.96.03l.35.1a4.31 4.31 0 01-.33.64h2.58v.35h-1.73a6.92 6.92 0 01.64.84l-.27.22a9.87 9.87 0 00-.83-1.06h-.63l-.17.21a6.89 6.89 0 01-1 1l-.28-.24a6 6 0 001-1 3.84 3.84 0 00.67-1.06zm2 1.64a2.92 2.92 0 01.74.93h3.41v1.54h-.43v-1.19h-6.58v1.19h-.39v-1.54h3.5a3.07 3.07 0 00-.57-.71zm2.8 1.9v1.7h-4.35v.7h4.74v2.4h-.39v-.55h-4.35v.55h-.38v-4.8zm-4.35 1.35h4v-1h-4zm0 2.49h4.35v-1.04h-4.35zm3.13-7.38l.35.1a5 5 0 01-.26.64h2.83v.35h-2a11.17 11.17 0 01.94.84l-.32.25a8.31 8.31 0 00-1.12-1.09h-.49v.06a5.07 5.07 0 01-.67.92l-.28-.24a4.36 4.36 0 00.66-.9 4.21 4.21 0 00.34-.93zm4.29.91h2.85v.35h-1.2v2h1v.34h-1v2.38c.42-.15.81-.29 1.16-.44l.07.35a20.84 20.84 0 01-2.82 1.05l-.17-.42c.49-.14 1-.28 1.37-.42v-2.5h-1.17v-.34h1.17v-2h-1.27zm3.24-.43h4.21v4.15h-2v1.2h2v.35h-2v1.37h2.64v.35h-6v-.35h3v-1.37h-2v-.35h2v-1.2H47.4zm.39 1.94h1.48v-1.58h-1.48zm0 1.86h1.48v-1.51h-1.48zm1.86-3.44v1.58h1.58v-1.58zm0 1.93v1.51h1.58v-1.51z" fill="#fff"/><path fill="#dcdddd" fill-rule="evenodd" d="M222.93 95.26l.22-1.12.62-.91.92-.62 1.12-.22h51.73l1.12.22.92.62.61.91.23 1.12v11.52l-.23 1.12-.61.92-.92.61-1.12.23h-51.73l-1.12-.23-.92-.61-.62-.92-.22-1.12V95.26zm0 19.67l.22-1.12.62-.91.92-.62 1.12-.23h51.73l1.12.23.92.62.61.91.23 1.12v11.52l-.23 1.12-.61.91-.92.62-1.12.23h-51.73l-1.12-.23-.92-.62-.62-.91-.22-1.12v-11.52z"/><path d="M233.36 117.35h1.76v-.88h.39v.88h3.26v-.88h.38v.88h1.7v.35h-1.7v3.14h2v.36h-2.53a8.15 8.15 0 002.66 1.82l-.32.35a8.18 8.18 0 01-2.78-2.17h-2.15a6.08 6.08 0 01-1.21 1.15 11.06 11.06 0 01-1.72 1l-.16-.32a8.29 8.29 0 001.61-.93 5.13 5.13 0 001-.89h-2.52v-.35h2.08v-3.16h-1.76zm1.68 5.13h1.86v-.9h.39v.9h1.94v.37h-1.94v1.21h3.3v.36h-7v-.36h3.26v-1.21h-1.82zm.47-4h3.26v-.74h-3.26zm0 1.16h3.26v-.81h-3.26zm0 1.24h3.26v-.89h-3.26zm7.22-2.83h3.69v-1.61h.42v1.61h3.73v.42h-3.45a12.76 12.76 0 003.67 4.34l-.33.38a13.57 13.57 0 01-3.62-4.34V122h2v.42h-2v2.31h-.42v-2.31h-1.94V122h1.94v-3.08a13.23 13.23 0 01-1.42 2.11 10.94 10.94 0 01-2.31 2.09l-.17-.38a10 10 0 002.11-1.95 10.16 10.16 0 001.52-2.32h-3.42zm12.58 5.56l.23.32a18.7 18.7 0 01-3.26.8l-.15-.38a21 21 0 003.18-.74zm-.89-5.14l.25.29a14.41 14.41 0 01-2.28 1.26l-.22-.27a12 12 0 002.25-1.28zm-1.68-1.78a7.48 7.48 0 011.79.91l-.21.32a7.2 7.2 0 00-1.73-.92zm.81 3.19h5.37v3.48h-5.37zm.39 1.09h4.59v-.77h-4.59zm0 1h4.59v-.7h-4.59zm0 1h4.59v-.69h-4.59zm2.18-6.54l.38.11a3.94 3.94 0 01-.37.66h3.9a3.74 3.74 0 01-.87 1.42l-.42-.22a2.8 2.8 0 00.68-.87h-1.9a2.49 2.49 0 01-.32.81 21.45 21.45 0 013 1.4l-.28.32a15.28 15.28 0 00-3-1.43 2.78 2.78 0 01-.83.62 5.9 5.9 0 01-1.8.49l-.1-.35a5.28 5.28 0 001.62-.42 2.46 2.46 0 00.93-.69 2 2 0 00.35-.75h-1.23a4.85 4.85 0 01-1 .89l-.24-.27a6 6 0 001-.82 4 4 0 00.5-.86zm1 7.14a20.52 20.52 0 013.17.74l-.15.38a18.56 18.56 0 00-3.13-.76zm4.6-3.97h1.62v-3.06h.39v3.06h1.55v.35h-1.55v4.78h-.39v-3.85a5.65 5.65 0 01-.5 1 5.92 5.92 0 01-.94 1.23l-.31-.29a7.38 7.38 0 001.11-1.45 5.66 5.66 0 00.59-1.47h-1.57zm.39-2.29a9.39 9.39 0 01.88 1.83l-.35.26a8.53 8.53 0 00-.85-1.87zm2 3.25a5.69 5.69 0 011 1.37l-.35.24a5.61 5.61 0 00-.9-1.41zm.82-3.28l.42.15a7.23 7.23 0 01-1 1.93l-.39-.22a6.89 6.89 0 00.93-1.86zm5 4.15v.35c-.45.12-.92.24-1.41.35v2.6h-.49v-2.53c-1 .21-2 .4-3.19.58l-.15-.42c1.19-.18 2.3-.37 3.34-.58v-5.34h.42v5.26q.74-.1 1.4-.27zm-4-2a8.62 8.62 0 011.65 1.44l-.27.35a9.52 9.52 0 00-1.63-1.51zm.29-2a7.75 7.75 0 011.57 1.23l-.28.35a9.37 9.37 0 00-1.55-1.31zm-31.29-20.64l.36.17-.25.48a10.07 10.07 0 011.56 1.63l-.25.33a11 11 0 00-1.49-1.65 17.48 17.48 0 01-1.6 2.39l-.28-.29a15.77 15.77 0 001.95-3.06zm-1 2.5h2v.35h-.88v1.2h1.23v.36h-1.23v2.66c.55-.14 1.07-.27 1.55-.41v.35a23.46 23.46 0 01-3.37.87l-.15-.41c.54-.09 1.06-.2 1.55-.32v-2.74h-1.4v-.35h1.4v-1.2h-.77zm-.21 2.42a11.49 11.49 0 01.6 1.66l-.39.14a9.49 9.49 0 00-.5-1.58zm2.27-.13l.36.16a5.08 5.08 0 01-.67 1.7l-.32-.22a5.07 5.07 0 00.67-1.64zm1-4.34a7.17 7.17 0 011 1.63l-.35.24a7.37 7.37 0 00-.94-1.65zm1.51-.48h.39v2.57h1.64v4.87c0 .47-.3.7-.9.7a4.19 4.19 0 01-1-.15v-.42a3.84 3.84 0 001.06.19q.51 0 .51-.39v-1.17h-2.88v2.08h-.39v-5.69h1.63zm-1.24 4.18h2.88v-1.26h-2.88zm0 1.65h2.88v-1.3h-2.88zm3.21-5.48l.35.17a6.7 6.7 0 01-1 1.79l-.32-.28a6.73 6.73 0 001-1.68zm4.23-.32l.39.1a11.43 11.43 0 01-.56 1h2.7a4.78 4.78 0 00-.85-1l.32-.2a4.76 4.76 0 011 1.05l-.21.13h2.81v.37h-2.92V99h2.53v.37h-2.53v.83h2.53v.35h-2.53v.84h3.19v.35h-6.54v-3.12a10.17 10.17 0 01-1.2 1.36l-.29-.22a8.93 8.93 0 001.21-1.38 7.79 7.79 0 00.95-1.59zm5.09 5.69v2.57h-.38v-.55h-5.13v.55h-.38v-2.57zm-5.51 1.66h5.13v-1.31h-5.13zm2.67-5.1v-.76h-2.5v.76zm0 1.16v-.79h-2.5v.79zm0 1.19v-.84h-2.5v.84zm5.79-3.37h.39v4.5q.86-.31 1.59-.63v-4.93h.4v8h-.4v-2.73a14.26 14.26 0 01-2.55 1l-.13-.42.7-.21zm4.47-1.16l.38.1a10.29 10.29 0 01-.57 1.7h3.24v.35h-.82a8.75 8.75 0 01-1.08 3.52.83.83 0 01-.12.17 7.84 7.84 0 002.16 2l-.29.36a8.66 8.66 0 01-2.11-2 6.77 6.77 0 01-2.39 1.91l-.23-.31a6.57 6.57 0 002.37-2 10 10 0 01-1.19-3 11 11 0 01-1 1.6l-.32-.29a10.08 10.08 0 001.19-2 11.14 11.14 0 00.78-2.11zm-.42 2.31a10.21 10.21 0 001.21 3.15 8.18 8.18 0 001-3.31h-2.14a.8.8 0 01-.07.19zm8.73-1.57h-2.22v-.4h2.82a14.48 14.48 0 001.25 4.44 8.3 8.3 0 002.54 3l-.32.42a8.25 8.25 0 01-2.55-3.07 14.2 14.2 0 01-1.17-3.49 10.7 10.7 0 01-1.08 3.14 10.48 10.48 0 01-2.92 3.45l-.28-.39a10.74 10.74 0 002.8-3.34 10.38 10.38 0 001.13-3.76z" fill="#3e3a39"/><path fill="#dcdddd" fill-rule="evenodd" d="M5.54 44.6l.22-1.12.62-.92.91-.61 1.12-.23h51.74l1.12.23.92.61.61.92.23 1.12v11.51l-.23 1.12-.61.92-.92.62-1.12.22H8.41l-1.12-.22-.91-.62-.62-.92-.22-1.12V44.6z"/><path d="M10.84 47.89h3.2v.31h-3.2zm.32 1.25h2.57v.36h-2.57zm.06 1.31h2.51v.36h-2.51zm2.32 1.26v2.74h-.38V54h-1.37v.57h-.38v-2.86zm-1.75 1.93h1.37v-1.58h-1.37zm.39-7.26a5.47 5.47 0 01.74 1.18l-.35.26a5.3 5.3 0 00-.71-1.24zm2.17.42h4v3.4h-1.79v.88h2.36v.35h-2.18a7.39 7.39 0 002.35 2.25l-.28.32a8.18 8.18 0 01-2.25-2.21v2.91h-.39v-2.85a7.89 7.89 0 01-.78 1 7.36 7.36 0 01-1.51 1.18l-.13-.32a6.62 6.62 0 002.26-2.25h-2.26v-.35h2.42v-.91h-1.83zm.39 1.51h1.44V47.2h-1.44zm0 1.54h1.44v-1.19h-1.44zm1.83-2.7v1.16h1.4V47.2zm0 1.51v1.19h1.4v-1.19zm8.07-2.25a5.93 5.93 0 01.82.84h3.12v.35h-6.55v2.6a9.36 9.36 0 01-.34 2.83 5 5 0 01-.93 1.69l-.24-.32a4.31 4.31 0 00.84-1.61 7 7 0 00.24-1.47 6.43 6.43 0 01-1.08.87l-.15-.35a6.51 6.51 0 001.26-1.05v-3.52h3.3c-.19-.22-.4-.43-.62-.64zm-3.9 1.76a10.92 10.92 0 01.77 1.9l-.38.13a9.55 9.55 0 00-.68-1.83zm3.2 4.42l.21.28a7.79 7.79 0 01-2 1.2l-.15-.35a7.53 7.53 0 001.94-1.13zm-1.47-4.15h2.29c.14-.24.28-.5.41-.77l.36.15c-.11.23-.22.43-.33.62h3.13v.35h-2.36a5.94 5.94 0 00.88.85 3.18 3.18 0 00.71-.63l.32.17a4.24 4.24 0 01-.71.69 13.46 13.46 0 001.58.94l-.31.35a13.43 13.43 0 01-1.31-.83v2h-1.6v1.55c0 .54-.19.81-.58.81a2.32 2.32 0 01-.94-.19v-.42a2.31 2.31 0 001 .22c.13 0 .19-.15.19-.46v-1.51h-1.7v-1.94a6.66 6.66 0 01-1.12.63l-.17-.31a7.2 7.2 0 001.32-.79 4.62 4.62 0 00-.69-.58l.21-.24a3.71 3.71 0 01.75.61l.18-.15a4.77 4.77 0 00.6-.72h-2zm1.36 2.5h2.93v-.64h-2.93zm0 1h2.93v-.67h-2.93zm.12-2h2.7a6 6 0 01-1.11-1.16h-.51a4.49 4.49 0 01-.82 1zm2.67 2.64a11.1 11.1 0 011.93 1.27l-.26.32a10.83 10.83 0 00-1.89-1.31zm6.48-6.04l.15.32a10.43 10.43 0 01-1.23.41v1.59h1.29v.34h-1.28v5.48h-.39V50.2a8.06 8.06 0 01-.47 1.18 7.77 7.77 0 01-.9 1.44l-.33-.29a7.44 7.44 0 001.08-1.66 6.63 6.63 0 00.56-1.64h-1.42v-.36h1.48V47.4c-.42.1-.84.2-1.27.28l-.1-.35a13.59 13.59 0 002.83-.79zm-.74 3.34a7.36 7.36 0 01.89 1.48l-.29.22a6.75 6.75 0 00-.87-1.48zm5.07.07l.17.35a11.57 11.57 0 01-1.94.43v1.33h2v.37h-2v1.53h2.51v.35h-5.63v-.35h2.7v-1.53h-2.1v-.37h2.1V50.8c-.56.07-1.16.11-1.79.14l-.11-.35a13.48 13.48 0 004.09-.64zm-3.87-3h3.87v2.49h-3.87zm.39 2.14h3.08V47.3h-3.09zm7.19-2.68l.35.1a3.59 3.59 0 01-.34.64h2.59v.35h-1.71a8.24 8.24 0 01.65.84l-.28.22a9.74 9.74 0 00-.82-1.06h-.64a1.2 1.2 0 01-.17.21 6.09 6.09 0 01-1 1l-.28-.24a6.4 6.4 0 001-1 4.08 4.08 0 00.65-1.06zm2 1.64a2.79 2.79 0 01.74.93h3.41v1.54h-.39v-1.19h-6.58v1.19h-.38v-1.54h3.49a3.07 3.07 0 00-.57-.71zm2.81 1.9v1.7H41.6v.7h4.73v2.35h-.38v-.5H41.6v.55h-.39V50zM41.6 51.3h4v-1h-4zm0 2.49h4.35V52.7H41.6zm3.12-7.38l.36.1a4 4 0 01-.27.64h2.83v.35h-2a9.79 9.79 0 01.94.84l-.31.25a9.06 9.06 0 00-1.13-1.09h-.49v.06a5 5 0 01-.66.92l-.29-.24a4.36 4.36 0 00.66-.9 3.8 3.8 0 00.33-.93zm4.38.91h2.86v.35h-1.2v2h1v.34h-1v2.38c.42-.15.81-.29 1.16-.44l.07.35a19.58 19.58 0 01-2.82 1l-.17-.42c.5-.14 1-.28 1.38-.42v-2.5h-1.17v-.34h1.17v-2H49.1zm3.24-.43h4.22v4.15h-2v1.16h2v.35h-2v1.37h2.64v.35h-6v-.35h3v-1.37h-2v-.35h2V51h-1.87zm.39 1.94h1.48v-1.58h-1.48zm0 1.86h1.48V49.2h-1.48zm1.86-3.44v1.58h1.58v-1.58zm0 1.93v1.51h1.58V49.2z" fill="#3e3a39"/><path fill="#fff" fill-rule="evenodd" d="M34.5 45.99l-7.15-6.57h3.58v-6.57h7.14v6.57h3.58l-7.15 6.57zm0 9.11l7.15 6.57h-3.58v6.57h-7.14v-6.57h-3.58l7.15-6.57zm217-21.75l7.15 6.57h-3.58v6.57h-7.14v-6.57h-3.58l7.15-6.57z"/><path fill="#dcdddd" fill-rule="evenodd" d="M5.54 20.93l.22-1.12.62-.91.91-.62 1.12-.23h51.74l1.12.23.92.62.61.91.23 1.12v11.52l-.23 1.12-.61.91-.92.62-1.12.23H8.41l-1.12-.23-.91-.62-.62-.91-.22-1.12V20.93z"/><path d="M15.61 23.8h3.7v.4h-3.7zm.39 1.22h3v.36h-3zm0 1.28h3v.34h-3zm2.89 1.23v2.85h-.39v-.52h-1.93v.6h-.39v-2.93zm-2.32 2h1.93v-1.65h-1.93zm.59-7.2a4.78 4.78 0 01.77 1.16l-.35.25a4.8 4.8 0 00-.74-1.21zm2 .67h4.7v.39h-1.83v6.32c0 .47-.3.7-.9.7a5.62 5.62 0 01-.85-.07v-.42a3.86 3.86 0 00.89.1c.33 0 .49-.14.49-.42v-6.25h-2.43zm7.38 2.2h5.49v2.91h-2.6v.81h3.95v.28h-3.95v1.37h-.4V29.2h-3.87v-.35h3.87v-.81h-2.49zM26 22.77h2.75v1.84h-2.72zm.39 1.48h2v-1.14h-2zm.54 2.18h2.1v-.88h-2.1zm0 1.33h2.1v-1h-2.1zm2.48-2.21v.88h2.22v-.88zm0 1.24v1h2.22v-1zm.32-4h2.79v1.84h-2.79zm.39 1.48h2v-1.16h-2zm5.23 3.78l.35.07a6.75 6.75 0 01-.67 2.33l-.35-.19a7.27 7.27 0 00.67-2.21zm1.16-5.63l.39.15a10.32 10.32 0 01-.6 1.36 6.88 6.88 0 01-.62 1c.43 0 .84 0 1.24-.08a10.1 10.1 0 00.57-1.14l.38.13a11.45 11.45 0 01-1 1.84 11.21 11.21 0 01-1.08 1.42c.57 0 1.12-.11 1.67-.19a6 6 0 00-.43-.71l.28-.2a8.74 8.74 0 01.92 1.71l-.39.15a6 6 0 00-.23-.61 23.12 23.12 0 01-2.79.29l-.11-.38h.58a13.71 13.71 0 001.19-1.59l.21-.34c-.61.06-1.23.11-1.87.13l-.11-.36h.46a10.46 10.46 0 001.31-2.56zm.1 5.59c.07.71.1 1.44.1 2.19h-.39c0-.82 0-1.55-.07-2.18zm.92-.09a8.54 8.54 0 01.59 1.89l-.39.1a7 7 0 00-.55-1.86zm.55-4.08h2.16v-1.49h.38v1.49h2.32v.36h-2.32v1.57h1.9v.35h-4.18v-.35h1.9V24.2h-2.16zm4.15 3.36v3.43h-.39v-.7h-2.81v.7h-.39V27.2zm-3.2 2.36h2.84v-2h-2.84zm8.36-5.36v2.42h.85v-3.91h3.68v.35h-3.29v.87h2.9v.36h-2.9v1h3v.36h-3v1h3.79V27h-2.56a5.89 5.89 0 00.61 1.51 6 6 0 00.62-.39 5.36 5.36 0 00.69-.62l.33.24a5.75 5.75 0 01-.75.7c-.25.18-.47.32-.66.43a1.3 1.3 0 00.1.15 4.07 4.07 0 001.69 1.32l-.22.39a4.4 4.4 0 01-1.7-1.41A6.67 6.67 0 0149.48 27h-1v2.85a11 11 0 001.55-.65v.35a25.78 25.78 0 01-2.88 1l-.12-.35c.38-.1.73-.19 1-.29v-3h-.66v1c0 .42-.18.63-.52.63h-.49v-.34a1.56 1.56 0 00.49.08c.09 0 .13-.11.13-.35v-3.42h-.81v6.1h-.39v-6.1h-.75v4.18h-.39V24.2h1.12v-1.71h.39v1.71z" fill="#3e3a39"/><path fill="#fff" fill-rule="evenodd" d="M59.71 26.28l7.15-6.57V23h18.67v6.57H66.86v3.28l-7.15-6.57z"/><path fill="#dcdddd" fill-rule="evenodd" d="M81.64 20.93l.23-1.12.62-.91.92-.62 1.11-.23h51.74l1.12.23.92.62.61.91.23 1.12v11.52l-.23 1.12-.61.91-.92.62-1.12.23H84.52l-1.11-.23-.92-.62-.62-.91-.23-1.12V20.93z"/><path d="M92.03 22.74h3a6.56 6.56 0 01-1.34 1.85 2.62 2.62 0 01.4.58h1.22a7.15 7.15 0 01-.74 1.72l-.25-.17a7.71 7.71 0 00.51-1.2h-1.11v4.22c0 .47-.26.71-.77.71a2.64 2.64 0 01-.81-.12v-.42a2.5 2.5 0 00.85.15c.25 0 .38-.14.38-.43v-4.11h-1.58v-.32h1.93a4.88 4.88 0 00-1.19-1.16l.29-.2a6.22 6.22 0 01.67.52 6.81 6.81 0 001-1.22h-2.46zm5 6.43l.21.29a8.25 8.25 0 01-2.18 1.13l-.15-.36a8.1 8.1 0 002.06-1.03zm-1.55-6.43h4.47v.37h-2.22l-.36 1h1.93V29h-3.5v-4.88h1.15l.37-1h-1.84zm.7 2.89h2.74v-1.16h-2.74zm0 1.51h2.74v-1.16h-2.74zm0 1.51h2.74v-1.16h-2.74zm1.85.55a7.83 7.83 0 011.92 1l-.24.36a8 8 0 00-1.87-1zm4-1.22l.35.07a6.67 6.67 0 01-.74 2.35l-.36-.17a7.27 7.27 0 00.75-2.25zm1.18-5.63l.32.26a10.11 10.11 0 01-.65 1.35 9.22 9.22 0 01-.64.95c.47 0 .93-.06 1.39-.11l.58-1 .38.13a17.15 17.15 0 01-2.27 3.17 17.93 17.93 0 001.89-.23c-.15-.22-.32-.44-.5-.66l.31-.2a7.75 7.75 0 011.16 1.72l-.35.24a4.51 4.51 0 00-.4-.75 21.41 21.41 0 01-3.05.3l-.07-.38h.49a17.79 17.79 0 001.58-2c-.64.08-1.29.13-2 .16l-.11-.39h.41a11 11 0 00.75-1.08 9.29 9.29 0 00.77-1.48zm.15 5.66a14.28 14.28 0 01.17 2.19h-.38a15.55 15.55 0 00-.14-2.18zm1-.16a9.74 9.74 0 01.81 1.82l-.36.24a8.81 8.81 0 00-.77-1.86zm1.47-5.5l.39.11a14.89 14.89 0 01-.32 1.47h3.13q0 5.16-.37 5.93a.92.92 0 01-.94.62 2.67 2.67 0 01-1.16-.28v-.42a3.49 3.49 0 001.18.28c.32 0 .52-.21.61-.63a30.23 30.23 0 00.24-5.11h-2.8q0 .15-.09.27a6.14 6.14 0 01-.84 1.52l-.34-.31a5.88 5.88 0 00.83-1.47 8.54 8.54 0 00.45-1.98zm.26 3.35a10.11 10.11 0 011.41 2.15l-.36.23a9.23 9.23 0 00-1.37-2.18zm4.76-.99h1.23v-2.07h.39v2.07h1.06v.35h-1.06v2.52a9 9 0 001-.51l.07.39a18.45 18.45 0 01-2.54 1.16l-.2-.39q.72-.24 1.29-.48v-2.69h-1.23zm2.44 1.27h5.79v.35h-4a4.23 4.23 0 01-.44.7h3.84a8 8 0 01-.32 3.15.89.89 0 01-.81.34 3.86 3.86 0 01-1.2-.19v-.42a6 6 0 001.24.19.45.45 0 00.48-.3 9.17 9.17 0 00.18-2.42h-.73a5.07 5.07 0 01-1.09 1.74 6.85 6.85 0 01-1.79 1.36l-.15-.28a6 6 0 001.7-1.35 5 5 0 00.94-1.47h-1.05a3.86 3.86 0 01-.91 1.23 5.55 5.55 0 01-1.52 1l-.14-.27a4.38 4.38 0 001.41-1 3.29 3.29 0 00.76-1h-1.06a7.09 7.09 0 01-1.46 1.24l-.25-.28a6.7 6.7 0 001.34-1.09 4.52 4.52 0 00.67-.92h-1.44zm.88-3.21h4v2.61h-4zm.38 1.09h3.19v-.73h-3.19zm0 1.16h3.19v-.82h-3.19zm5.92-.7h1.35v-2h.38v2h.95v.39h-.95v1.77a11.72 11.72 0 001.06-.58v.32a10.89 10.89 0 01-1.09.66v2.86a.7.7 0 01-.8.78 1.81 1.81 0 01-.74-.15v-.46a1.86 1.86 0 00.78.19c.28 0 .42-.16.42-.47v-2.55c-.41.19-.84.38-1.28.55l-.1-.39c.49-.18.95-.37 1.38-.56v-2h-1.35zm3.25 3.28h4.14v.35h-1.83v1.86h2.64v.39h-5.72v-.36h2.7v-1.89h-1.89zm1.25-3.09l.35.16a5.82 5.82 0 01-.85 1.53 4.4 4.4 0 01-1.18.94l-.18-.35a4.2 4.2 0 001.08-.87 5.23 5.23 0 00.78-1.41zm3.25-.78v1.55h-.39v-1.2h-4.09v1.2h-.38v-1.55zm-2.86-1.38a5 5 0 01.81 1l-.39.27a4.12 4.12 0 00-.77-1zm.85 2.09h.42v1.65c0 .11.07.16.21.16h1.66v.39h-1.66c-.42 0-.63-.18-.63-.55z" fill="#3e3a39"/><path fill="#fff" fill-rule="evenodd" d="M136.37 26.28l7.14-6.57V23h12.15v6.57h-12.15v3.28l-7.14-6.57z"/><path fill="#dcdddd" fill-rule="evenodd" d="M151.21 20.93l.22-1.12.62-.91.92-.62 1.12-.23h51.73l1.12.23.92.62.61.91.23 1.12v11.52l-.23 1.12-.61.91-.92.62-1.12.23h-51.73l-1.12-.23-.92-.62-.62-.91-.22-1.12V20.93z"/><path d="M161.35 24.51h2.32a9.28 9.28 0 01-1.4 2.18h1.44a7.84 7.84 0 01-.79 2.18 5.51 5.51 0 001.65.78 10.76 10.76 0 002.81.26q1.35 0 2.16-.06l-.06.38c-.56 0-1.25.07-2.1.07a11.11 11.11 0 01-2.94-.28 6.42 6.42 0 01-1.7-.82 4.74 4.74 0 01-1.28 1.41l-.21-.31a4.7 4.7 0 001.22-1.41 7.4 7.4 0 00.75-1.86h-1.25l-.27.28-.31-.2a11.2 11.2 0 001.69-2.25h-1.73zm.78-2a6.74 6.74 0 01.88 1.4l-.35.26a6.06 6.06 0 00-.85-1.44zm1.93.28h4.61v.29a8.23 8.23 0 01-1.83 1.22l.14.14h2v4.23c0 .37-.22.55-.67.55a6.18 6.18 0 01-.89-.07v-.35a4.66 4.66 0 00.89.11c.19 0 .28-.11.28-.31v-1h-1.83v1.45h-.38v-1.49h-1.73v1.64h-.38v-4.81h2.19a8.77 8.77 0 00-1-.77l.32-.2a8.66 8.66 0 01.82.6 7.77 7.77 0 001.46-.91h-4zm.6 3h1.73v-1h-1.73zm0 1.45h1.73v-1.1h-1.73zm2.11-1.45h1.83v-1h-1.83zm0 1.45h1.83v-1.1h-1.83zm4.55-4.4h2.51v2.54h-.92v1.38h1v.35h-1v2.26c.41-.14.79-.29 1.16-.43v.3a18.13 18.13 0 01-3.21 1.13l-.1-.39c.19 0 .36-.08.52-.13v-3.52h.39v3.41l.82-.25v-4.11h-1.21zm.39 2.18h1.73V23.2h-1.73zm4-2.67l.35.11a4.91 4.91 0 01-.42 1h2.67a6.61 6.61 0 01-1.57 2.4 9.39 9.39 0 002.25 1.26l-.18.38a7.2 7.2 0 01-2.33-1.34 7.8 7.8 0 01-2.5 1.54l-.23-.35a8.49 8.49 0 002.44-1.47 5.4 5.4 0 01-1-1.55 5.77 5.77 0 01-1 1.06l-.25-.29a6.41 6.41 0 001.1-1.28 6.06 6.06 0 00.71-1.47zm2.25 5.07v3.19h-.38v-.55h-2.42v.55h-.39v-3.19zm-2.8 2.29h2.42v-1.94h-2.42zm.19-5.77a5.57 5.57 0 001.09 1.65 6.39 6.39 0 001.32-1.79h-2.32zm7.6 4.49l.25.32a9.37 9.37 0 01-2.6 1.48l-.15-.38a8.91 8.91 0 002.5-1.42zm-2.43-.7h8v.39h-3.65v1.62a.72.72 0 01-.81.81 6.24 6.24 0 01-1-.07v-.42a4.9 4.9 0 001 .11c.26 0 .39-.16.39-.46v-1.59h-3.88zm.18-5h7.62v.39h-2.63v.8h2v2h-6.48v-2h2v-.8h-2.57zm1 2.81h1.59v-1.29h-1.59zm.08 1.09h5.51v.38h-5.51zm3.54-2.71v-.8h-1.64v.8zm-1.64.35v1.27h1.64v-1.29zm2 0v1.27h1.62v-1.29zm.29 4.25a15.17 15.17 0 012.6 1.48l-.29.35a15 15 0 00-2.57-1.54zm5.06-4.08h2.66a12.3 12.3 0 00.68-2l.38.1a12.92 12.92 0 01-.61 1.95h3.73v.34h-3.84a5.88 5.88 0 01-.55.92h5v.39h-2.45a8.66 8.66 0 002.53 1.44l-.35.42a8 8 0 01-2.7-1.86h-2.39a9.48 9.48 0 01-2.68 2.06l-.21-.27a9.64 9.64 0 002.34-1.79h-2.31v-.44h2.65a5.89 5.89 0 00.56-.89h-2.44zm1.09 2.74h4.5a8 8 0 01-.43 3 1.08 1.08 0 01-.84.27 5.21 5.21 0 01-1.24-.18v-.45a5.94 5.94 0 001.27.17.62.62 0 00.53-.22 7.77 7.77 0 00.28-2.24h-2a3.31 3.31 0 01-.86 1.72 5.49 5.49 0 01-2.29 1.27l-.25-.32a5.3 5.3 0 002.16-1.14 3 3 0 00.82-1.53h-1.6zm-.29-4.5a6 6 0 011.12 1.32l-.35.25a5.71 5.71 0 00-1.09-1.37zm4.92 0l.35.2a6.69 6.69 0 01-1.29 1.45l-.35-.29a5.3 5.3 0 001.29-1.4z" fill="#3e3a39"/><path fill="#dcdddd" fill-rule="evenodd" d="M5.54 68.6l.22-1.12.62-.92.91-.61 1.12-.23h51.74l1.12.23.92.61.61.92.23 1.12v11.51l-.23 1.12-.61.92-.92.62-1.12.22H8.41l-1.12-.22-.91-.62-.62-.92-.22-1.12V68.6z"/><path d="M15.97 70.58h1.76v-.88h.38v.88h3.27v-.88h.38v.88h1.7v.35h-1.7v3.14h2v.35h-2.53a8.15 8.15 0 002.66 1.82l-.32.35a8.18 8.18 0 01-2.78-2.17h-2.13a5.88 5.88 0 01-1.22 1.15 9.78 9.78 0 01-1.71 1l-.17-.31a8.41 8.41 0 001.62-.93 5.44 5.44 0 001-.89h-2.56v-.35h2.08v-3.14h-1.76zm1.68 5.13h1.86v-.9h.39v.9h1.94v.37H19.9v1.21h3.3v.35h-7v-.35h3.26v-1.21H17.6zm.46-4h3.27v-.74h-3.27zm0 1.16h3.27v-.81h-3.27zm0 1.24h3.27v-.91h-3.27zm7.22-2.83h3.7v-1.61h.42v1.61h3.72v.42h-3.44a12.83 12.83 0 003.66 4.34l-.32.38a13.57 13.57 0 01-3.62-4.34v3.12h2v.42h-2v2.31h-.42v-2.31h-1.94v-.42h1.94v-3a13.23 13.23 0 01-1.42 2.11 11.22 11.22 0 01-2.31 2.09l-.17-.38a10.22 10.22 0 002.11-2 10.39 10.39 0 001.52-2.32h-3.43zm12.59 5.56l.23.32a18.59 18.59 0 01-3.27.8l-.14-.39a20.17 20.17 0 003.18-.73zm-.89-5.14l.25.28A13.68 13.68 0 0135 73.25l-.22-.27a12.63 12.63 0 002.25-1.28zm-1.68-1.78a7.57 7.57 0 011.78.9l-.2.33a7.2 7.2 0 00-1.73-.92zm.81 3.19h5.37v3.48h-5.37zm.39 1.09h4.59v-.74h-4.59zm0 1h4.59v-.71h-4.59zm0 1h4.59v-.7h-4.59zm2.18-6.54l.38.1a3.66 3.66 0 01-.37.67h3.88a3.74 3.74 0 01-.87 1.42l-.42-.22a2.8 2.8 0 00.68-.87h-1.9a2.69 2.69 0 01-.32.81 21.45 21.45 0 013 1.4l-.28.32a15.28 15.28 0 00-3-1.43 2.78 2.78 0 01-.83.62 6 6 0 01-1.8.49l-.1-.35a5.28 5.28 0 001.62-.42 2.57 2.57 0 00.93-.69 2.07 2.07 0 00.35-.75h-1.23v.05a4.67 4.67 0 01-1 .89l-.23-.27a6 6 0 00.95-.82 4 4 0 00.56-.91zm1 7.14a21.72 21.72 0 013.17.73l-.15.39a18.56 18.56 0 00-3.13-.76zm4.6-3.97h1.62v-3.06h.39v3.06h1.55v.37h-1.55v4.78h-.39v-3.85a5.65 5.65 0 01-.5 1.05 5.92 5.92 0 01-.94 1.23l-.31-.29a7.38 7.38 0 001.11-1.45 5.66 5.66 0 00.59-1.47h-1.57zm.38-2.29a8.63 8.63 0 01.89 1.83l-.35.26a9 9 0 00-.85-1.87zm2 3.25a5.69 5.69 0 01.95 1.37l-.35.23a5.74 5.74 0 00-.9-1.4zm.82-3.28l.42.15a7.38 7.38 0 01-1 1.93l-.39-.22a6.89 6.89 0 00.94-1.86zm5 4.15v.35c-.45.12-.92.24-1.41.35v2.6h-.42v-2.5c-1 .21-2.05.4-3.19.58l-.15-.43c1.18-.17 2.3-.36 3.34-.57V69.7h.42v5.26q.68-.13 1.34-.3zm-4-2a8.62 8.62 0 011.65 1.44l-.27.35a9.52 9.52 0 00-1.63-1.51zm.29-2a8 8 0 011.57 1.23l-.28.35a9.8 9.8 0 00-1.55-1.31z" fill="#3e3a39"/><path d="M223.34 128.89c-2.39 0-5.32.65-5.32-6.41 0-3.48.46-24.3-.08-26.78s-2.16-4.21-6.4-4.21c4.24 0 5.84-1.65 6.4-4.21s.08-5.81.08-9.29c0-7.06 2.93-6.41 5.32-6.41" fill="none" stroke="#fff" stroke-miterlimit="10" stroke-width=".5"/><path fill="#fff" fill-rule="evenodd" d="M34.5 80.1l7.15 6.57h-3.58v6.57h-7.14v-6.57h-3.58l7.15-6.57zm75.25-18l7.15 6.57h-3.58v11.57h-7.14V68.67h-3.58l7.15-6.57z"/><path fill="#a2c3e7" fill-rule="evenodd" d="M5.54 94.26l.22-1.12.62-.91.91-.62 1.12-.22h51.74l1.12.22.92.62.61.91.23 1.12v11.52l-.23 1.12-.61.92-.92.61-1.12.23H8.41l-1.12-.23-.91-.61-.62-.92-.22-1.12V94.26z"/><path fill="none" stroke="#fff" stroke-miterlimit="10" stroke-width=".5" d="M5.54 94.26l.22-1.12.62-.91.91-.62 1.12-.22h51.74l1.12.22.92.62.61.91.23 1.12v11.52l-.23 1.12-.61.92-.92.61-1.12.23H8.41l-1.12-.23-.91-.61-.62-.92-.22-1.12V94.26z"/><path d="M18.82 101.99l.38.26a13.74 13.74 0 01-3.08 2.35l-.39-.32a11.38 11.38 0 003.09-2.29zm-2.49-3.65h1.78v-2h.43v2h2.63v-2h.43v2h1.82v.38H21.6v2.48h2.29v.42h-8v-.42h2.21v-2.44h-1.78zm2.21 2.82h2.63v-2.44h-2.63zm2.33.9a20.85 20.85 0 013.12 2.22l-.36.35a16.72 16.72 0 00-3-2.28zm7.5-5.27h4.16v7c0 .42-.22.63-.67.63a5.34 5.34 0 01-1.16-.15v-.44a4.71 4.71 0 001.19.16c.16 0 .24-.11.24-.34v-2.14h-2.56v2.69h-.43v-2.67h-2.49c0 .39-.13.79-.22 1.18a8.19 8.19 0 01-.77 2l-.35-.2a9.18 9.18 0 00.77-2.08 10.65 10.65 0 00.22-2.17V96.8zm-1.71 4.33h2.45v-1.86h-2.42v1c0 .28-.01.58-.03.86zm0-2.25h2.42V97.2h-2.42zm2.85-1.69v1.69h2.56V97.2zm0 2.08v1.86h2.56v-1.86zm6.85-.96l.3.15a4.21 4.21 0 01-.48.75 4.51 4.51 0 01-.4.47 13.71 13.71 0 001.6-.27 4.43 4.43 0 00-.37-.39l.29-.21a4.17 4.17 0 01.63.76 5.26 5.26 0 00.88-1l.42.09a4.6 4.6 0 01-.47.62l.55.45h.27a4.21 4.21 0 00.39-.58 4.75 4.75 0 00.38-.79l.39.15a4.63 4.63 0 01-.37.74 2.12 2.12 0 01-.3.44 14.38 14.38 0 001.59-.2c-.17-.16-.35-.32-.53-.46l.31-.21a5.54 5.54 0 011.16 1.16l-.35.24c-.1-.15-.21-.29-.32-.43a13.53 13.53 0 01-2.17.27 14.34 14.34 0 003.1 1.67l-.11.39a15 15 0 01-4.25-2.56 7.42 7.42 0 01-1 .84 13.4 13.4 0 01-2.65 1.45l-.28-.32a14.9 14.9 0 002.6-1.38c.16-.12.32-.23.46-.35a.22.22 0 00-.05-.08 13.33 13.33 0 01-2.66.37l-.07-.35h.46a4 4 0 00.51-.61 5.29 5.29 0 00.54-.82zm2.42 2.22l.32.25a6.78 6.78 0 01-1.41.86 17.25 17.25 0 01-1.91.79l-.24-.36a13.82 13.82 0 001.87-.73 8.39 8.39 0 001.37-.81zm2.38 1.51l.25.29a12.37 12.37 0 01-2.41 1.34 20.42 20.42 0 01-3.22 1l-.21-.32a21.2 21.2 0 003.19-1 12 12 0 002.4-1.31zm-1.32-.8l.23.28a8.51 8.51 0 01-1.81 1.14 14 14 0 01-2.41.86l-.2-.32a13.48 13.48 0 002.38-.84 9.48 9.48 0 001.81-1.15zm-1.94-4.86l.46.18a4.29 4.29 0 01-.66.74 5.66 5.66 0 01-.54.47c1 0 2.06-.11 3.23-.2a5.68 5.68 0 00-.7-.51l.31-.22a7.34 7.34 0 011.63 1.34l-.35.24c-.16-.18-.33-.36-.51-.53-1.43.15-3.09.25-5 .29l-.06-.39h.87a5.37 5.37 0 00.65-.6 4.7 4.7 0 00.67-.81zm6.18 5.56h1.62a4.87 4.87 0 00.21-.53l.39.11a4.09 4.09 0 01-.16.42h3v.35h-1.07a3.29 3.29 0 01-.66 1.14c.37.13.75.28 1.13.45l-.18.37c-.45-.2-.88-.38-1.29-.52a5.25 5.25 0 01-2.9.88l-.1-.36a5 5 0 002.56-.68 12.16 12.16 0 00-1.2-.34c-.1.16-.22.32-.33.47l-.32-.28a6.74 6.74 0 00.72-1.13h-1.46zm.78-5h1.64v-.6h.39v.6h1.72v1h.71v.35h-.71v1h-1.72v.59h1.79v1.4h-4v-1.4h1.82v-.59h-1.64v-1h-.75v-.35h.75zm.21 4h1.43v-.73h-1.47zm.16-3h1.27v-.67h-1.27zm0 1h1.27v-.64h-1.27zm1.81 4.33a2.69 2.69 0 00.64-1h-1.65a5.57 5.57 0 01-.32.6c.41.13.87.26 1.32.41zm-.15-6v.67h1.34v-.67zm0 1v.64h1.34v-.64zm0 1.94v.7h1.4v-.7zm3.06-3.84l.39.11a18 18 0 01-.39 1.86h2.21v.35h-.44a9.93 9.93 0 01-.84 3.49l-.12.22a6.51 6.51 0 001.51 1.85l-.29.35a7.15 7.15 0 01-1.45-1.82 5.76 5.76 0 01-1.82 1.79l-.23-.32a5.29 5.29 0 001.83-1.9 12.43 12.43 0 01-.78-2.64 9.73 9.73 0 01-.43 1.1l-.32-.29a12.22 12.22 0 00.71-2 16 16 0 00.46-2.11zm-.22 2.69a12.9 12.9 0 00.8 2.88 9.64 9.64 0 00.77-3.25h-1.46v.11a2 2 0 01-.11.3z" fill="#fff"/><path fill="#dcdddd" fill-rule="evenodd" d="M222.93 48.6l.22-1.12.62-.92.92-.61 1.12-.23h51.73l1.12.23.92.61.61.92.23 1.12v11.51l-.23 1.12-.61.92-.92.62-1.12.22h-51.73l-1.12-.22-.92-.62-.62-.92-.22-1.12V48.6z"/><path d="M233.03 52.07h2.32a9.4 9.4 0 01-1.4 2.18h1.44a7.88 7.88 0 01-.82 2.24 6 6 0 001.67.71 11.58 11.58 0 002.81.24c.9 0 1.63 0 2.17-.06l-.06.41c-.56 0-1.26.07-2.11.07a12 12 0 01-3-.26 7.2 7.2 0 01-1.72-.76 4.69 4.69 0 01-1.23 1.34l-.2-.32a4.83 4.83 0 001.21-1.41 6.89 6.89 0 00.74-1.86h-1.24l-.27.28-.31-.2a11.2 11.2 0 001.69-2.25h-1.69zm.77-2.05a6.45 6.45 0 01.89 1.41l-.35.25a6.26 6.26 0 00-.85-1.44zm3-.07l.38.1c-.17.5-.34.93-.51 1.31v.1h4.14v.39h-2v1.16h1.71v.35h-1.71v1.16h1.71v.35h-1.71V56h2.25v.38h-4.36v.5h-.39v-4.75a10.9 10.9 0 01-.81 1.23l-.29-.2a10.53 10.53 0 00.91-1.48 10.2 10.2 0 00.75-1.73zm1.59 3.06v-1.16h-1.72v1.16zm0 1.51v-1.16h-1.72v1.16zM236.67 56h1.72v-1.13h-1.72zm1.6-6a5.11 5.11 0 01.78 1.12l-.35.26a4.65 4.65 0 00-.67-1.18zm6.99-.09l.29.22a5.81 5.81 0 01-.78.8v1.91h-.38V51.2a10.74 10.74 0 01-1.45.92l-.25-.31a10.42 10.42 0 001.49-.92 6 6 0 001.08-.98zm.53 6.86l.24.32a13.14 13.14 0 01-2.91 1.09l-.15-.39a12.31 12.31 0 002.82-1.02zm-1.86-3.65h5.51v3.54h-5.51zm.39 1.13h4.71v-.78h-4.73zm0 1h4.71v-.74h-4.73zm0 1h4.71v-.7h-4.73zm2.45-6.42h.39v1.37a16 16 0 002.87-1l.21.32a19.29 19.29 0 01-3.1 1.14v.25c0 .19.06.3.2.35a14.83 14.83 0 002.23.07c.35 0 .55 0 .6-.14a3.14 3.14 0 00.17-1.15l.43.28c-.07.74-.17 1.14-.3 1.21s-.37.16-.9.16a10.71 10.71 0 01-2.44-.13c-.25 0-.38-.24-.38-.58zm.67 6.91a24.39 24.39 0 012.92 1l-.15.39a19.51 19.51 0 00-2.9-1.06zm12.75-5.31v.42h-3a17.78 17.78 0 00.51 2.88c0 .13.07.25.11.36a11.06 11.06 0 001.38-2.12l.39.22a11.83 11.83 0 01-1.59 2.39 7.94 7.94 0 00.64 1.4c.31.45.53.68.66.68s.18-.13.27-.4a8.6 8.6 0 00.3-1.69l.35.19a6.11 6.11 0 01-.41 1.91c-.14.25-.3.37-.48.37s-.59-.2-.89-.61a6.69 6.69 0 01-.79-1.47 3.07 3.07 0 01-.25.26 11.11 11.11 0 01-3 1.86l-.2-.39a10.79 10.79 0 002.87-1.79c.15-.14.28-.28.4-.41-.06-.18-.12-.36-.17-.56a16.44 16.44 0 01-.56-3.08h-3.25v1.44h2.25a8.07 8.07 0 01-.34 2.89.89.89 0 01-.75.32 2 2 0 01-.84-.21v-.46a1.74 1.74 0 00.84.24c.24 0 .37-.06.4-.19a12 12 0 00.31-2.2h-1.87v.73a7.7 7.7 0 01-.29 2.09 6.93 6.93 0 01-.8 1.65l-.35-.22a7.36 7.36 0 00.79-1.75 7.17 7.17 0 00.23-1.83v-2.92h3.63c0-.5-.07-1-.09-1.58h.46c0 .57 0 1.09.09 1.58zm-2.21-1.48a7.76 7.76 0 011.36 1.06l-.27.32a6.33 6.33 0 00-1.35-1.09zm3.84 1.55h3.7v-1.61h.42v1.61h3.72v.42h-3.44a12.8 12.8 0 003.66 4.33l-.32.39a13.78 13.78 0 01-3.62-4.34v3.14h2v.42h-2v2.34h-.42v-2.32h-1.94v-.42h1.94v-3.07a13.23 13.23 0 01-1.42 2.11 11.52 11.52 0 01-2.31 2.09l-.17-.39a10.14 10.14 0 002.11-1.94 10.62 10.62 0 001.52-2.32h-3.43z" fill="#3e3a39"/><path fill="#fff" fill-rule="evenodd" d="M251.5 60.35l7.15 6.57h-3.58v6.57h-7.14v-6.57h-3.58l7.15-6.57z"/><path fill="#dcdddd" fill-rule="evenodd" d="M222.93 74.93l.22-1.12.62-.91.92-.62 1.12-.23h51.73l1.12.23.92.62.61.91.23 1.12v11.52l-.23 1.12-.61.91-.92.62-1.12.23h-51.73l-1.12-.23-.92-.62-.62-.91-.22-1.12V74.93z"/><path d="M236.9 77.12a4.8 4.8 0 01.87.81h3.26v.35h-6.92v2.92a11.88 11.88 0 01-.23 2.33 9.22 9.22 0 01-.61 1.84l-.31-.22a10.13 10.13 0 00.6-1.93 12.39 12.39 0 00.17-2v-3.23h3.48a5.54 5.54 0 00-.68-.59zm-2.1 2h2.7v-.7h.39v.7h2.82v.35h-2.82v.7h2.32v2.79h-2.32v.77h3.31v.35h-3.31v1.26h-.39v-1.26h-3.08v-.35h3.08v-.77h-2.21V80.2h2.21v-.7h-2.7zm.87 2.25h1.83v-.85h-1.83zm0 1.24h1.83v-.89h-1.83zm2.22-2.09v.85h1.93v-.85zm0 1.2v.89h1.93v-.89zm4.73-3.47h2.82a8.41 8.41 0 00.42-1.19l.43.1c-.12.37-.24.74-.39 1.09h4.78v.39h-5a10.94 10.94 0 01-.81 1.5 4.38 4.38 0 01-.28.42v4.79h-.38V81.1a11.9 11.9 0 01-1.44 1.55l-.29-.31a14.29 14.29 0 002.06-2.47 10.69 10.69 0 00.69-1.23h-2.65zm3 1.41h4.53v.32a8 8 0 01-2 1.77c0 .17.09.35.12.51h2.47v.39h-2.4a8.8 8.8 0 01.15 1.55c0 .45-.08.74-.23.86a.81.81 0 01-.54.16 3.41 3.41 0 01-1-.15v-.42a2.75 2.75 0 00.89.18.53.53 0 00.31-.07c.1-.05.15-.24.15-.56a9 9 0 00-.13-1.55h-2.91v-.39h2.87a4.33 4.33 0 00-.35-1.12l.32-.18c.06.12.11.25.17.38a6.69 6.69 0 001.58-1.33h-4zm8.13-2.6l.35.1a3.23 3.23 0 01-.33.64h2.58v.4h-1.73a7.79 7.79 0 01.64.84l-.27.22a8.74 8.74 0 00-.83-1.06h-.63l-.17.21a6.47 6.47 0 01-1 1.05l-.33-.26a6 6 0 001-1 3.84 3.84 0 00.72-1.14zm2 1.65a2.79 2.79 0 01.74.92h3.41v1.57h-.39V80h-6.58v1.2h-.39v-1.55h3.5a2.83 2.83 0 00-.57-.7zm2.8 1.89v1.7h-4.35v.7h4.74v2.35h-.39v-.55h-4.35v.55h-.38V80.6zm-4.35 1.35h4v-1h-4zm0 2.49h4.35v-1.09h-4.35zm3.13-7.38l.35.1a4.51 4.51 0 01-.26.64h2.83v.4h-2c.34.28.66.56.94.84l-.32.25a8.31 8.31 0 00-1.12-1.09h-.49v.06a5.07 5.07 0 01-.67.92l-.28-.24a4.36 4.36 0 00.66-.9 4.21 4.21 0 00.34-.98zm4.39.91h2.85v.35h-1.19v2h1v.34h-1v2.38c.42-.15.81-.29 1.16-.44l.07.35a19.58 19.58 0 01-2.82 1.05l-.17-.42c.49-.14 1-.28 1.37-.42v-2.5h-1.17v-.34h1.21v-2h-1.27zm3.24-.42h4.21v4.14h-2v1.2h2v.31h-2v1.37h2.64v.35h-6v-.35h3V83.2h-2v-.35h2v-1.2h-1.86zm.39 1.93h1.47V77.9h-1.47zm0 1.86h1.47v-1.51h-1.47zm1.86-3.44v1.58h1.57V77.9zm0 1.93v1.51h1.57v-1.51z" fill="#3e3a39"/></svg>