<svg xmlns="http://www.w3.org/2000/svg" viewBox="0 0 14 14"><title>title-icon-w</title><g id="feb990b1-68e9-41db-92d7-40264bdd2da9" data-name="圖層 2"><g id="aa1072f2-5216-4cb1-bcb7-dcb7d381ef88" data-name="Capa 1"><path d="M12.82,7.51V1.16A1.15,1.15,0,0,0,11.66,0H2.33A1.17,1.17,0,0,0,1.16,1.16V7.5L0,11.58l0,1.26A1.17,1.17,0,0,0,1.16,14H12.82A1.19,1.19,0,0,0,14,12.84v-1.1Zm-1,.65.84,3H1.36l.84-3Zm-.14-7V7H2.33V1.16ZM1.16,12.84v-.53H12.82v.53Z" style="fill:#fff"/><polygon points="8.45 9.33 5.55 9.33 5.25 10.49 8.75 10.49 8.45 9.33" style="fill:#fff"/><path d="M10.49,6.12h-7a.29.29,0,0,1-.3-.28V2.33A.29.29,0,0,1,3.51,2a.29.29,0,0,1,.28.29v3.2h6.7a.31.31,0,0,1,.3.31A.29.29,0,0,1,10.49,6.12Z" style="fill:#fff"/><path d="M3.51,6.12l-.13,0a.3.3,0,0,1-.14-.4L4.41,3.38a.29.29,0,0,1,.39-.14l1,.49,1-1a.29.29,0,0,1,.34,0l1,.52,2.2-1.1a.29.29,0,0,1,.39.12.28.28,0,0,1-.13.39L8.29,3.75a.3.3,0,0,1-.26,0l-1-.48-1,1a.27.27,0,0,1-.33,0l-.9-.45L3.75,6A.26.26,0,0,1,3.51,6.12Z" style="fill:#fff"/></g></g></svg>