<?xml version="1.0" encoding="utf-8"?>
<!-- Generator: Adobe Illustrator 22.1.0, SVG Export Plug-In . SVG Version: 6.00 Build 0)  -->
<svg version="1.1" xmlns="http://www.w3.org/2000/svg" xmlns:xlink="http://www.w3.org/1999/xlink" x="0px" y="0px"
	 viewBox="0 0 86 86" style="enable-background:new 0 0 86 86;" xml:space="preserve">
<style type="text/css">
	.st0{display:none;}
	.st1{display:inline;stroke:#FFFFFF;stroke-miterlimit:10;}
	.st2{display:inline;stroke:#FFFFFF;}
	.st3{display:inline;}
	.st4{stroke:#FFFFFF;}
	.st5{fill:none;stroke:#FFFFFF;stroke-width:2;}
	.st6{fill:#FFFFFF;}
	.st7{fill:none;stroke:#FFFFFF;stroke-width:1.1;stroke-linecap:round;stroke-linejoin:round;stroke-miterlimit:10;}
	.st8{fill:none;stroke:#FFFFFF;stroke-width:1.1;stroke-linecap:round;stroke-miterlimit:10;}
</style>
<g id="圖層_2" class="st0">
	<rect x="-8.5" y="-14.5" class="st1" width="155" height="156"/>
</g>
<g id="圖層_1" class="st0">
	<g id="圖層_2_3_">
	</g>
	<g id="圖層_1_1_">
		<circle class="st2" cx="59.5" cy="59.5" r="60"/>
		<g id="圖層_2_2_" class="st3">
			<rect x="-0.5" y="0.5" class="st4" width="121" height="119"/>
			<circle class="st5" cx="58.5" cy="60.5" r="59"/>
		</g>
	</g>
	<g class="st3">
		<polygon class="st6" points="26.3,59.5 26.3,21.6 57.5,21.6 57.5,46.7 56.5,46.7 56.5,22.7 27.4,22.7 27.4,58.4 45.4,58.4 
			45.4,59.5 26.3,59.5 		"/>
		<polygon class="st6" points="26.8,28 26.8,27 57,27 57,28 26.8,28 		"/>
		<polygon class="st6" points="38.6,27.5 38.6,25.1 29.8,25.1 29.8,27.5 28.7,27.5 28.7,24 39.7,24 39.7,27.5 38.6,27.5 		"/>
		<polygon class="st6" points="54.2,27.5 54.2,25.1 52.1,25.1 52.1,27.5 51,27.5 51,24 55.3,24 55.3,27.5 54.2,27.5 		"/>
		<polygon class="st6" points="49,27.5 49,25.1 46.9,25.1 46.9,27.5 45.8,27.5 45.8,24 50.1,24 50.1,27.5 49,27.5 		"/>
		<polygon class="st6" points="43.2,27.5 43.2,22.1 44.3,22.1 44.3,27.5 43.2,27.5 		"/>
		<path class="st6" d="M29.3,35.4v-5.9h5.9v5.4v0.5H29.3L29.3,35.4z M34.7,34.9v-0.5V34.9L34.7,34.9z M30.4,34.3h3.8l0-3.8h-3.8
			V34.3L30.4,34.3z"/>
		<path class="st6" d="M36.4,35.4v-5.9h5.9v5.4v0.5H36.4L36.4,35.4z M41.8,34.9v-0.5V34.9L41.8,34.9z M37.5,34.3h3.8v-3.8h-3.8V34.3
			L37.5,34.3z"/>
		<path class="st6" d="M43.5,35.4v-5.9h5.9v5.4v0.5H43.5L43.5,35.4z M48.9,34.9v-0.5V34.9L48.9,34.9z M44.6,34.3h3.8v-3.8h-3.8V34.3
			L44.6,34.3z"/>
		<polygon class="st6" points="29.4,38.8 29.4,37.7 38.2,37.7 38.2,38.8 29.4,38.8 		"/>
		<polygon class="st6" points="29.4,42.1 29.4,41 52.4,41 52.4,42.1 29.4,42.1 		"/>
		<polygon class="st6" points="29.4,45.5 29.4,44.4 52.4,44.4 52.4,45.5 29.4,45.5 		"/>
		<path class="st6" d="M45.8,55.4c0-4.4,3.6-8,8-8l0,0c2,0,3.9,0.8,5.3,2l0,0l-0.7,0.8c-1.2-1.1-2.8-1.7-4.5-1.7l0,0
			c-3.8,0-6.9,3.1-6.9,6.9l0,0c0,3.8,3.1,6.9,6.9,6.9l0,0c3.8,0,6.9-3.1,6.9-6.9l0,0c0-1.1-0.3-2.1-0.7-3.1l0,0l1-0.5
			c0.5,1.1,0.8,2.3,0.8,3.5l0,0c0,4.4-3.6,8-8,8l0,0C49.3,63.3,45.8,59.8,45.8,55.4L45.8,55.4z"/>
		<polygon class="st6" points="50.3,54.5 51.1,53.7 53.6,56.3 60.9,49 61.6,49.8 53.6,57.8 50.3,54.5 		"/>
		<path class="st6" d="M29.2,52.7v-5.4h14.1v4.8v0.5H29.2L29.2,52.7z M42.7,52.2v-0.5V52.2L42.7,52.2z M30.3,51.6h11.9v-3.2H30.3
			V51.6L30.3,51.6z"/>
		<path class="st6" d="M39,50.6v-1.1h1.3v1.1H39L39,50.6z M36.5,50.6v-1.1h1.3v1.1H36.5L36.5,50.6z M34,50.6v-1.1h1.3v1.1H34
			L34,50.6z M32.2,50.6v-1.1h0.6v1.1H32.2L32.2,50.6z"/>
	</g>
	<g class="st3">
		<path class="st6" d="M35.2,28.1c0-4.4,3.5-7.9,7.9-7.9l0,0c4.4,0,7.9,3.5,7.9,7.9l0,0c0,4.4-3.5,7.9-7.9,7.9l0,0
			C38.7,35.9,35.2,32.4,35.2,28.1L35.2,28.1z M36.3,28.1c0,3.7,3,6.7,6.7,6.7l0,0c3.7,0,6.7-3,6.7-6.7l0,0c0-3.7-3-6.7-6.7-6.7l0,0
			C39.3,21.3,36.3,24.3,36.3,28.1L36.3,28.1z"/>
		<path class="st6" d="M24.5,53.7c0-4.4,3.5-7.9,7.9-7.9l0,0c4.4,0,7.9,3.5,7.9,7.9l0,0c0,4.4-3.5,7.9-7.9,7.9l0,0
			C28.1,61.6,24.5,58,24.5,53.7L24.5,53.7z M25.7,53.7c0,3.7,3,6.7,6.7,6.7l0,0c3.7,0,6.7-3,6.7-6.7l0,0c0-3.7-3-6.7-6.7-6.7l0,0
			C28.7,46.9,25.7,50,25.7,53.7L25.7,53.7z"/>
		<path class="st6" d="M45.8,53.7c0-4.4,3.5-7.9,7.9-7.9l0,0c4.4,0,7.9,3.5,7.9,7.9l0,0c0,4.4-3.5,7.9-7.9,7.9l0,0
			C49.3,61.6,45.8,58,45.8,53.7L45.8,53.7z M46.9,53.7c0,3.7,3,6.7,6.7,6.7l0,0c3.7,0,6.7-3,6.7-6.7l0,0c0-3.7-3-6.7-6.7-6.7l0,0
			C50,46.9,46.9,50,46.9,53.7L46.9,53.7z"/>
		<polygon class="st6" points="42.5,40.3 42.5,35.4 43.6,35.4 43.6,40.3 42.5,40.3 		"/>
		<path class="st6" d="M40.1,43.1c0-1.6,1.3-3,3-3l0,0c1.6,0,3,1.3,3,3l0,0c0,1.6-1.3,3-3,3l0,0C41.4,46,40.1,44.7,40.1,43.1
			L40.1,43.1z M41.2,43.1c0,1,0.8,1.8,1.8,1.8l0,0c1,0,1.8-0.8,1.8-1.8l0,0c0-1-0.8-1.8-1.8-1.8l0,0C42,41.2,41.2,42,41.2,43.1
			L41.2,43.1L41.2,43.1z"/>
		<polygon class="st6" points="37.2,48.1 40.9,44.4 41.8,45.2 38,48.9 37.2,48.1 		"/>
		<polygon class="st6" points="44.3,45.2 45.2,44.4 48.9,48.1 48.1,48.9 44.3,45.2 		"/>
		<path class="st6" d="M37,43.1c0-3.3,2.7-6,6-6l0,0c3.3,0,6,2.7,6,6l0,0c0,0.6-0.1,1.2-0.3,1.8l0,0l-1.1-0.3
			c0.1-0.5,0.2-0.9,0.2-1.5l0,0c0-2.7-2.2-4.9-4.9-4.9l0,0c-2.7,0-4.9,2.2-4.9,4.9l0,0c0,0.6,0.1,1.2,0.3,1.7l0,0l-1.1,0.4
			C37.1,44.5,37,43.8,37,43.1L37,43.1z"/>
		<g>
			<path class="st6" d="M40.1,27.2c0-1.6,1.3-3,3-3l0,0c1.6,0,3,1.3,3,3l0,0c0,1.6-1.3,3-3,3l0,0C41.4,30.2,40.1,28.9,40.1,27.2
				L40.1,27.2z M41.3,27.2c0,1,0.8,1.8,1.8,1.8l0,0c1,0,1.8-0.8,1.8-1.8l0,0c0-1-0.8-1.8-1.8-1.8l0,0C42.1,25.4,41.3,26.2,41.3,27.2
				L41.3,27.2L41.3,27.2z"/>
			<polygon class="st6" points="39.3,34.4 39.3,30 40.9,28.4 41.7,29.2 40.4,30.5 40.4,34.4 39.3,34.4 			"/>
			<polygon class="st6" points="45.8,34.4 45.8,30.5 44.5,29.2 44.5,29.2 45.4,28.4 47,30 47,34.4 45.8,34.4 			"/>
		</g>
		<g>
			<path class="st6" d="M29.5,53c0-1.6,1.3-3,3-3l0,0c1.6,0,3,1.3,3,3l0,0c0,1.6-1.3,3-3,3l0,0C30.8,56,29.5,54.7,29.5,53L29.5,53z
				 M30.6,53c0,1,0.8,1.8,1.8,1.8l0,0c1,0,1.8-0.8,1.8-1.8l0,0c0-1-0.8-1.8-1.8-1.8l0,0C31.5,51.2,30.6,52,30.6,53L30.6,53L30.6,53z
				"/>
			<polygon class="st6" points="28.7,60.2 28.7,55.8 30.3,54.2 31.1,55 29.8,56.3 29.8,60.2 28.7,60.2 			"/>
			<path class="st6" d="M35.2,60.2v-3.9L33.9,55l0.8-0.8l1.6,1.6l0,4.4H35.2L35.2,60.2z M33.9,55L33.9,55L33.9,55L33.9,55L33.9,55z"
				/>
		</g>
		<g>
			<path class="st6" d="M50.5,53c0-1.6,1.3-3,3-3l0,0c1.6,0,3,1.3,3,3l0,0c0,1.6-1.3,3-3,3l0,0C51.8,56,50.5,54.7,50.5,53L50.5,53z
				 M51.6,53c0,1,0.8,1.8,1.8,1.8l0,0c1,0,1.8-0.8,1.8-1.8l0,0c0-1-0.8-1.8-1.8-1.8l0,0C52.4,51.2,51.6,52,51.6,53L51.6,53L51.6,53z
				"/>
			<polygon class="st6" points="49.6,60.2 49.6,55.8 51.2,54.2 51.2,54.2 52,55 50.8,56.3 50.8,60.2 49.6,60.2 			"/>
			<polygon class="st6" points="56.2,60.2 56.2,56.3 54.9,55 54.9,55 55.7,54.2 57.3,55.8 57.3,60.2 56.2,60.2 			"/>
		</g>
	</g>
</g>
<g id="圖層_3">
	<path class="st7" d="M49.9,29.2h-0.2h-0.8V35c0,0.4-0.4,0.8-0.8,0.8h-2.5h-7.1h-2.5c-0.4,0-0.8-0.4-0.8-0.8v-5.1v-0.7h-3.5
		c-0.2,0-0.4,0.2-0.4,0.4v20.5c0,0.2,0.2,0.4,0.4,0.4h3.5v-9.4c0-0.3,0.2-0.5,0.5-0.5h12.6c0.3,0,0.5,0.2,0.5,0.5v9.4h3.5
		c0.2,0,0.4-0.2,0.4-0.4V32L49.9,29.2z"/>
	<g>
		<g>
			<line class="st7" x1="56.4" y1="39.9" x2="52.7" y2="39.9"/>
			<g>
				<polyline class="st7" points="56.4,47.8 54.1,47.8 52.7,46.4 				"/>
				<polyline class="st7" points="56.4,44.3 54.1,44.3 52.7,42.9 				"/>
				<polyline class="st7" points="56.4,31.9 54.1,31.9 52.7,33.3 				"/>
				<polyline class="st7" points="56.4,35.5 54.1,35.5 52.7,36.8 				"/>
			</g>
		</g>
	</g>
	<g>
		<g>
			<line class="st7" x1="27.8" y1="39.9" x2="31.4" y2="39.9"/>
			<g>
				<polyline class="st7" points="27.7,31.9 30,31.9 31.4,33.3 				"/>
				<polyline class="st7" points="27.7,35.5 30,35.5 31.4,36.8 				"/>
				<polyline class="st7" points="27.7,47.8 30,47.8 31.4,46.4 				"/>
				<polyline class="st7" points="27.7,44.3 30,44.3 31.4,42.9 				"/>
			</g>
		</g>
	</g>
	<g>
		<g>
			<line class="st7" x1="42.1" y1="54.1" x2="42.1" y2="50.5"/>
			<g>
				<polyline class="st7" points="34.1,54.2 34.1,51.9 35.5,50.5 				"/>
				<polyline class="st7" points="37.7,54.2 37.7,51.9 39.1,50.5 				"/>
				<polyline class="st7" points="50,54.2 50,51.9 48.6,50.5 				"/>
				<polyline class="st7" points="46.5,54.2 46.5,51.9 45.1,50.5 				"/>
			</g>
		</g>
	</g>
	<g>
		<g>
			<line class="st7" x1="42.1" y1="25.6" x2="42.1" y2="29.2"/>
			<g>
				<polyline class="st7" points="50,25.5 50,27.8 48.6,29.2 				"/>
				<polyline class="st7" points="46.5,25.5 46.5,27.8 45.1,29.2 				"/>
				<polyline class="st7" points="34.1,25.5 34.1,27.8 35.5,29.2 				"/>
				<polyline class="st7" points="37.7,25.5 37.7,27.8 39.1,29.2 				"/>
			</g>
		</g>
	</g>
	<path class="st8" d="M35.4,24.2c0,0.7-0.6,1.2-1.2,1.2c-0.7,0-1.2-0.6-1.2-1.2c0-0.7,0.6-1.2,1.2-1.2C34.8,23,35.4,23.6,35.4,24.2z
		"/>
	<circle class="st8" cx="26.5" cy="44.3" r="1.2"/>
	<path class="st8" d="M47.7,24.2c0,0.7-0.6,1.2-1.2,1.2c-0.7,0-1.2-0.6-1.2-1.2c0-0.7,0.6-1.2,1.2-1.2C47.2,23,47.7,23.6,47.7,24.2z
		"/>
	<circle class="st8" cx="26.5" cy="35.5" r="1.2"/>
	<circle class="st8" cx="34.1" cy="55.5" r="1.2"/>
	<circle class="st8" cx="57.8" cy="31.9" r="1.2"/>
	<circle class="st8" cx="57.7" cy="39.9" r="1.2"/>
	<circle class="st8" cx="46.5" cy="55.5" r="1.2"/>
	<circle class="st8" cx="57.7" cy="47.8" r="1.2"/>
</g>
</svg>
