<svg xmlns="http://www.w3.org/2000/svg" viewBox="0 0 327 617"><title>section6-illust1</title><g id="a936f8f6-fc44-4d42-b16e-f93fb43c1bdf" data-name="圖層 6"><rect x="0.5" y="0.5" width="326" height="616" rx="10" style="fill:#eaf6fa;stroke:#d3d3d3"/><circle cx="163.79" cy="102.48" r="64.69" style="fill:#164070"/><circle cx="163.72" cy="102.42" r="71.62" style="fill:none;stroke:#266baa;stroke-miterlimit:10;stroke-width:2px"/><circle cx="163.15" cy="102.85" r="80.65" style="fill:none;stroke:#91c8eb;stroke-miterlimit:10;stroke-width:4px"/><path d="M663.63,880.25h-15v3.44a8.62,8.62,0,0,1-1.94,6l-1.48-1.32a5.06,5.06,0,0,0,1.14-1.9,12.34,12.34,0,0,0,.48-4v-3.86h16.81Zm-.52-6H660a10.11,10.11,0,0,1-1.84,1.52,40.55,40.55,0,0,1,4.51,1.22l-.7,1.28a46.51,46.51,0,0,0-5.62-1.46,20.67,20.67,0,0,1-8,1.37l-.55-1.43a25.49,25.49,0,0,0,5.24-.48,36.83,36.83,0,0,0-4.13-.52l.84-1.24c2,.18,4.07.48,6.29.88a10.17,10.17,0,0,0,1.64-1.14H645.86v-1.69h7.81c-.19-.34-.39-.69-.61-1.06l1.91-.4c.29.46.56,1,.82,1.46h7.32Zm.56,14.91H648.58v-1.55h6.73v-1.38h-4.25v-1.52h4.25v-1.21h-3.7a9.67,9.67,0,0,1-1.7,2L648.75,884a7.93,7.93,0,0,0,2.33-3.34l1.74.52a3.15,3.15,0,0,1-.3.76h2.79v-1.26h1.91V882h5.51v1.56h-5.51v1.21h5v1.52h-5v1.38h6.45Z" transform="translate(-523.5 -787.5)" style="fill:#fff"/><path d="M674.23,875l-1.18,1.4a20.7,20.7,0,0,0-2.74-2.72,22.67,22.67,0,0,1-1.72,2.48h3.83v1.7h-1.49v1.57h2.61v1.7h-2.61v5.41c.88-.21,1.67-.44,2.37-.68l.13,1.66a61.82,61.82,0,0,1-6.69,1.89l-.48-1.69c1.21-.23,2.17-.44,2.88-.64v-6h-2.52v-1.7h2.52v-1.57h-1.3V877c-.24.2-.47.38-.7.54L666.08,876a12.88,12.88,0,0,0,3.57-4.85l1.74.48a1.47,1.47,0,0,1-.27.58A25,25,0,0,1,674.23,875Zm-5.58,11-1.55.36a30,30,0,0,0-.66-4.24l1.52-.37A23.91,23.91,0,0,1,668.65,886Zm4.87-4a20.18,20.18,0,0,1-.56,3.65l-1.48-.37a15.57,15.57,0,0,0,.52-3.64Zm10.69,5.88a1.76,1.76,0,0,1-.42,1.15,1.73,1.73,0,0,1-1.26.55q-.84.06-1.32.06a9.24,9.24,0,0,1-.93,0l-.54-1.78c.25,0,.54,0,.85,0a4.71,4.71,0,0,0,1.54-.14.49.49,0,0,0,.26-.47v-2.52c-1.76.7-3.57,1.32-5.41,1.85l-.61-1.37a9.76,9.76,0,0,1-1.68,4.73l-1.53-1.34a7.52,7.52,0,0,0,1.47-4.83v-6.24h3.8v-6.21h1.89v6.21h3.89Zm-6.68-11.8-1.58.84a23.1,23.1,0,0,0-2.19-4.1l1.63-.82A20.1,20.1,0,0,1,677.53,876.07Zm4.86,6.95v-3.78h-5.94v1.07a29,29,0,0,1,4.84.92l-.53,1.64a23.8,23.8,0,0,0-4.27-1c0,1.39-.06,2.42-.1,3.07A38,38,0,0,0,682.39,883Zm2.41-10.37a25.47,25.47,0,0,1-2,4.28l-1.62-.91a22.41,22.41,0,0,0,1.88-4Z" transform="translate(-523.5 -787.5)" style="fill:#fff"/><path d="M695.37,880.42h-3a15.15,15.15,0,0,1-3.41,9.24l-1.52-1.4a12.58,12.58,0,0,0,3.08-7.84h-3.11v-1.68h3.2v-3h-2.78V874h2.78v-2.83h1.83V874H695v1.74h-2.51v3h2.93Zm.18,5.48-1.43,1.24a19.39,19.39,0,0,0-1.92-3.38l1.32-1.21A16,16,0,0,1,695.55,885.9Zm10.31-.52a12.12,12.12,0,0,1-.25,2.67,1.52,1.52,0,0,1-.76,1.12,8.16,8.16,0,0,1-2.41.22c-1.08,0-1.62-.57-1.62-1.69v-4.32h-1.26a7.38,7.38,0,0,1-3.67,6.34l-1.35-1.46a6.12,6.12,0,0,0,2.35-2.09,4.84,4.84,0,0,0,.84-2.79H696V871.69h8.93v11.69h-2.25v3.7c0,.33.21.49.64.49a.73.73,0,0,0,.62-.22,3.13,3.13,0,0,0,.2-1.34,11,11,0,0,0,0-1.31ZM703,875v-1.63h-5.17V875Zm0,3.24v-1.6h-5.17v1.6Zm0,3.37v-1.71h-5.17v1.71Z" transform="translate(-523.5 -787.5)" style="fill:#fff"/><path d="M720.79,875.42h-1.33v2h-4.09v.85h4.43v1.2h-4.43v1h4.87v1.22H708.58v-1.22h5v-1h-4.41v-1.24h4.41v-.81h-4v-1.12h4v-.86h-5.21V874.2h5.21v-.84h-4v-1.15h4v-1h1.77v1h4.09v2h1.33Zm-.29,13.86H708.39V888H720.5Zm-1-2.2H709.39v-4.59h10.13Zm-5.88-2.86v-.67h-2.47v.67Zm0,1.78v-.71h-2.45V886Zm4.17-1.78v-.67h-2.44v.67Zm0,1.78v-.71h-2.44V886Zm-.09-11.8v-.84h-2.33v.84Zm0,2.08v-.86h-2.33v.86Zm5.39,9.45h-1.77v-13h1.77Zm3.29,2.14a1.52,1.52,0,0,1-.59,1.33,8.27,8.27,0,0,1-3.46.41l-.38-1.87q.81.06,1.56.06a2,2,0,0,0,.91-.12.47.47,0,0,0,.18-.42v-16h1.78Z" transform="translate(-523.5 -787.5)" style="fill:#fff"/><path d="M675.15,913.18a1.61,1.61,0,0,1-.3,1,1.45,1.45,0,0,1-.7.52,4.61,4.61,0,0,1-1.4.14l-1.25,0-.45-1.74c.34,0,.71,0,1.12,0a2.93,2.93,0,0,0,1-.09.31.31,0,0,0,.15-.28v-2.27c-2.45,1.07-3.74,1.6-3.85,1.59l-.48-.88a10.9,10.9,0,0,1-1.22,3.74l-1.49-1.26a11.62,11.62,0,0,0,1-5.65v-4.53h7.84Zm1.32-11.56-1.51,1a11,11,0,0,0-.73-1.12q-3.39.59-7.36.92l-.45-1.44a14.11,14.11,0,0,0,3.45-4.65l1.81.58a16,16,0,0,1-2.65,3.65,39.38,39.38,0,0,0,4.07-.52,12.1,12.1,0,0,0-1.5-1.6l1.54-1.05A22.1,22.1,0,0,1,676.47,901.62Zm-3.15,7v-3.45h-4.09v1.14a19.4,19.4,0,0,1,3.63.76l-.63,1.55a20.24,20.24,0,0,0-3-.65c0,.75,0,1.55-.1,2.39A28,28,0,0,0,673.32,908.64Zm11.42,2.48a5.66,5.66,0,0,1-.45,2.59,2.68,2.68,0,0,1-.78.74,10.22,10.22,0,0,1-3.11.24,9.1,9.1,0,0,1-2.58-.21,1.51,1.51,0,0,1-.75-.68,2.17,2.17,0,0,1-.26-1v-7.37h1.83v2.7h5.47v1.67h-5.47v2.78a.38.38,0,0,0,.44.43h3.09a.62.62,0,0,0,.57-.36,7.19,7.19,0,0,0,.25-2Zm-.25-6.41h-5.83a1.69,1.69,0,0,1-1.31-.53,1.9,1.9,0,0,1-.5-1.36v-6.27h1.83v2.33h5.45v1.66h-5.45v2.12a.36.36,0,0,0,.15.25.44.44,0,0,0,.29.13h5.37Z" transform="translate(-523.5 -787.5)" style="fill:#fff"/><path d="M704.73,900c0,3.75-.1,6.77-.25,9.05a14.57,14.57,0,0,1-.66,4.24,2.48,2.48,0,0,1-1.11,1.15,8.65,8.65,0,0,1-3.1.34c-.48,0-.94,0-1.39,0l-.72-1.95c.69,0,1.85.06,3.49.06a1.22,1.22,0,0,0,1.15-.75,15.29,15.29,0,0,0,.29-2.37c.12-1.36.2-2.71.25-4.06l.11-3.88H696.7a16.58,16.58,0,0,1-2.12,7.86,15.93,15.93,0,0,1-5.83,5.13l-1.26-1.55a14.55,14.55,0,0,0,5-3.86c1.34-1.63,2.12-4.16,2.36-7.58h-6.66V900h6.76c.08-1.1.11-2.31.09-3.62h1.93c0,1,0,2.24-.12,3.62Z" transform="translate(-523.5 -787.5)" style="fill:#fff"/><circle cx="64.89" cy="243.01" r="37.86" style="fill:none;stroke:#205986;stroke-miterlimit:10"/><path d="M576.92,1027.23H575.5v3.08c.3-.08.73-.22,1.28-.42l0,1.62-1.31.46v5.93h-1.61v-5.43c-1.28.33-2.25.56-2.89.68l-.24-1.56c.93-.18,2-.43,3.13-.76v-3.6h-1a22,22,0,0,1-.7,2.58l-1.39-.64a23.43,23.43,0,0,0,1.06-5.63l1.46.2c0,.43-.08,1.07-.18,1.91h.75v-3.44h1.61v3.44h1.42Zm9.68,4.81h-1.67v4.35a1.48,1.48,0,0,1-.29,1,1.43,1.43,0,0,1-.67.44,6.79,6.79,0,0,1-1.36.09l-1.5,0-.42-1.59c.59,0,1.1.07,1.53.07a2.56,2.56,0,0,0,1-.1.33.33,0,0,0,.14-.29V1032h-6v-1.5h6v-1.18h1.61v1.18h1.67Zm-.07-6.56h-3.75v1.84h3.35l0,1.48h-8.35v-1.48h3.44v-1.84h-3.82V1024h3.82v-1.79h1.58V1024h3.75Zm-4.85,9.48-1.44.89a11.21,11.21,0,0,0-2.26-2.52l1.46-.88A14.56,14.56,0,0,1,581.68,1035Z" transform="translate(-523.5 -787.5)" style="fill:#1a4582"/><path d="M596.93,1035.29a71.2,71.2,0,0,1-7.74,2.4l-.5-1.51c.68-.15,1.08-.25,1.21-.29v-13.26h6.24V1034a3.34,3.34,0,0,0,.69-.22Zm-2.37-8.76v-2.38h-3.11v2.38Zm0,4.12V1028h-3.11v2.61Zm0,3.83v-2.34h-3.11v3.3C592.77,1035.08,593.8,1034.76,594.56,1034.48Zm9.59-9q0,4-.14,7.29a20,20,0,0,1-.36,3.89,1.82,1.82,0,0,1-.7.9,3,3,0,0,1-1.58.31c-.32,0-.76,0-1.31,0l-.55-1.64c.12,0,.89,0,2.28,0a.45.45,0,0,0,.37-.23,13.51,13.51,0,0,0,.28-3c.09-1.84.13-3.83.13-6h-1.82a23.9,23.9,0,0,1-1,6.68,15.31,15.31,0,0,1-2.54,4.36L596,1037a12.32,12.32,0,0,0,2.28-3.78,19.31,19.31,0,0,0,.91-6.19h-2.33v-1.57h2.35c.05-.92.06-2,0-3.31h1.56c0,1,0,2.08,0,3.31Z" transform="translate(-523.5 -787.5)" style="fill:#1a4582"/><circle cx="161.56" cy="243.14" r="44.99" style="fill:#205986"/><path d="M676.17,1024.62H664.43V1023h11.74Zm-.73,16.73h-1.87v-1h-6.5v1h-1.88v-9.76h10.25Zm-.53-10.93h-9.18v-4.71h9.18Zm-5.5,4.7v-1.8h-2.34v1.8Zm0,3.48v-1.84h-2.34v1.84Zm3.58-9.82v-1.46H667.7v1.46Zm.58,6.34v-1.8h-2.32v1.8Zm0,3.48v-1.84h-2.32v1.84Zm9.23,1a1.55,1.55,0,0,1-.41,1.05,2,2,0,0,1-.85.63,6.86,6.86,0,0,1-1.71.14c-.83,0-1.56,0-2.21-.09l-.52-2c1.1.08,2.22.13,3.34.13a.46.46,0,0,0,.31-.14.42.42,0,0,0,.15-.32v-16.59h1.9Zm-3.82-2.16h-1.77v-13.53H679Z" transform="translate(-523.5 -787.5)" style="fill:#fff"/><path d="M688.74,1036.46a21.91,21.91,0,0,1-1.06,4.89l-1.65-.78a19.67,19.67,0,0,0,1.06-4.64Zm4.92-1.65-1.57.69c-.07-.38-.15-.72-.23-1a49.31,49.31,0,0,1-5.29,1.08l-.48-1.5a17.6,17.6,0,0,0,3.45-4.46,29.43,29.43,0,0,1-2.95.42l-.23-1.71a18.37,18.37,0,0,0,3.14-6l1.7.79a16.4,16.4,0,0,1-2.59,4.78,14.36,14.36,0,0,0,2-.3c.21-.4.62-1.24,1.22-2.54l1.75.8a30.77,30.77,0,0,1-4.85,7.6,20.57,20.57,0,0,0,2.62-.62,7.5,7.5,0,0,0-.41-1.15l1.47-.63A20.24,20.24,0,0,1,693.66,1034.81Zm-2.34,5.56-1.67.33a23.18,23.18,0,0,0-.44-4.22l1.57-.34A30.17,30.17,0,0,1,691.32,1040.37Zm2.14-1.68-1.41.5a21.8,21.8,0,0,0-.6-3l1.34-.35A11.68,11.68,0,0,1,693.46,1038.69Zm2.58-3a16.34,16.34,0,0,1-1.35,5.17l-1.53-.85a18,18,0,0,0,1.3-5Zm8-1.59h-10v-10.18h2.64a8.53,8.53,0,0,0,.73-1.57l2,.37a7,7,0,0,1-.55,1.2h5.19Zm-1.89-1.66v-6.89H696v6.89Zm-.18-1.71-1,1.16c-.52-.54-.91-.94-1.18-1.2a13.07,13.07,0,0,1-1.41,1.57l-1.1-1a10,10,0,0,0,1.39-1.6c-.23-.23-.39-.39-.5-.48q-.36.46-1.11,1.26l-1-1a11.22,11.22,0,0,0,1-1.08q-.33-.25-.87-.63l1-1.16a7,7,0,0,1,.73.52c.17-.31.35-.71.56-1.2l1.28.68-.71,1.36c.27.21.45.36.52.43a8.52,8.52,0,0,0,1-1.84l1.26.67a14,14,0,0,1-1.09,2.15Zm.62,7.56a6.84,6.84,0,0,1-.38,2,1.55,1.55,0,0,1-.75.8,5.57,5.57,0,0,1-2,.23c-.62,0-1.12,0-1.51,0a1.66,1.66,0,0,1-1-.47,1.51,1.51,0,0,1-.44-1.11V1035h1.85v4a.43.43,0,0,0,.22.44,3.9,3.9,0,0,0,1.22.11.79.79,0,0,0,1-.78,6.08,6.08,0,0,0,.09-1.13Zm-1.24-1.3-1.56.71a14.32,14.32,0,0,0-1-2.57l1.54-.59A15,15,0,0,1,701.37,1036.94Zm3.88,2.38-1.52.93a21.5,21.5,0,0,0-1.6-4.29l1.51-.91A20.93,20.93,0,0,1,705.25,1039.32Z" transform="translate(-523.5 -787.5)" style="fill:#fff"/><circle cx="259.56" cy="243.01" r="37.86" style="fill:none;stroke:#205986;stroke-miterlimit:10"/><path d="M779.92,1030.49h-1.6v-1.39h-12v1.39h-1.54v-2.72h15.18Zm-7.89-6.92a14.69,14.69,0,0,1-2.84,1.16l-.06.15a18.34,18.34,0,0,1,2.88,1.39l-.81,1.12a16.68,16.68,0,0,0-2.68-1.35,5.84,5.84,0,0,1-2.8,1.52l-.83-1.32a4.45,4.45,0,0,0,2.5-1.12,4.58,4.58,0,0,0,.7-2.95h1.48c0,.46-.06.84-.1,1.13a8.34,8.34,0,0,0,1.79-.81Zm-4.59.89-1.23.64a8,8,0,0,0-1.25-2l1.22-.66A8.64,8.64,0,0,1,767.44,1024.46Zm11.64,13.48h-1.57v-.56h-10.4v.56h-1.58v-4.21h5.26a4.1,4.1,0,0,0,.41-.78h-4.09v-3.07h10.22V1033h-4.27a5.3,5.3,0,0,1-.41.78h6.43Zm-1.57-1.76V1035h-10.4v1.22Zm-1.68-4.4v-.72h-7.21v.72Zm4.19-5.3-.85,1.13a20.84,20.84,0,0,0-3.19-1.46,5.47,5.47,0,0,1-3,1.41l-.64-1.32a4.35,4.35,0,0,0,2.54-1,4.76,4.76,0,0,0,.65-3l1.46,0a7.25,7.25,0,0,1-.05,1.15,9,9,0,0,0,2-1l.81,1.06a13.21,13.21,0,0,1-3,1.34l-.09.16A20.06,20.06,0,0,1,780,1026.48Zm-5.14-1.88-1.26.57a7.84,7.84,0,0,0-1.08-2l1.26-.55A7.53,7.53,0,0,1,774.88,1024.6Z" transform="translate(-523.5 -787.5)" style="fill:#1a4582"/><path d="M798.25,1033.6h-7.07v4.32h-1.6v-4.32h-7v-1.35h7v-.91h-6.19V1030h6.19v-.88h-6.65v-1.35H787a4.85,4.85,0,0,0-.62-.77l1.2-.67H782.5V1025H788v-2.68h1.56V1025h1.62v-2.68h1.58V1025h5.43v1.35h-5l1.07.56a8,8,0,0,1-.6.88h4.14v1.35h-6.67v.88h6.24v1.36h-6.24v.91h7.07Zm-10,1.51a24.51,24.51,0,0,1-4.67,2.72l-1.05-1.26a20,20,0,0,0,4.47-2.5ZM786.71,1024l-1.2.87a12,12,0,0,0-1.6-1.59l1.2-.93A10.26,10.26,0,0,1,786.71,1024Zm6,2.34H788a12.09,12.09,0,0,1,1,1.44h2.72A9.14,9.14,0,0,0,792.7,1026.31Zm5.87,10.18-.87,1.29a33.88,33.88,0,0,0-5.16-2.45l.93-1.3A35.69,35.69,0,0,1,798.57,1036.49ZM796.84,1023a10.12,10.12,0,0,1-1.55,1.67l-1.42-.85a10.67,10.67,0,0,0,1.57-1.58Z" transform="translate(-523.5 -787.5)" style="fill:#1a4582"/><path d="M578.54,1255.88h-1.8v2.9a10.45,10.45,0,0,0,1.28-.67l.17,1.76c-.42.25-.9.53-1.45.82v6.09a2.62,2.62,0,0,1-.48,1.64,2.37,2.37,0,0,1-1.93.62,10.14,10.14,0,0,1-1.1-.06l-.57-1.78.93,0a2.83,2.83,0,0,0,1.15-.14.49.49,0,0,0,.21-.44v-5.05a21.94,21.94,0,0,1-2.16,1l-.51-1.66q1.56-.62,2.67-1.17v-3.83h-2.5v-1.8H575v-3.37h1.79v3.37h1.8Zm12.39,11.22-.61,1.78a30.32,30.32,0,0,1-6.68-.38,5.78,5.78,0,0,1-3-1.86,13.25,13.25,0,0,1-1.41,2.54l-1.6-1a11.64,11.64,0,0,0,2.31-6.09l1.8.34a21,21,0,0,1-.5,2.42,5.1,5.1,0,0,0,2.59,1.89v-5.42H578.7v-1.7h12v1.7h-5v1.77h4.1v1.68h-4.1V1267c.8.06,1.83.09,3.08.09Zm-1.45-8.78h-9.86V1251h9.86Zm-1.83-4.47v-1.2h-6.2v1.2Zm0,2.83v-1.3h-6.2v1.3Z" transform="translate(-523.5 -787.5)" style="fill:#3e3e3e"/><path d="M611.7,1259.85h-4.39v9.22h-1.89v-9.22h-5.2q-.22,5.55-5.57,9.29l-1.41-1.44a11.27,11.27,0,0,0,3.65-3.38,9.67,9.67,0,0,0,1.39-4.47h-4.83V1258h4.92c0-.87.07-1.69.07-2.45,0-.45,0-.89,0-1.32-1.75.49-3,.81-3.71.94l-.82-1.72a27.55,27.55,0,0,0,8.48-2.86l1.37,1.38a25.1,25.1,0,0,1-3.39,1.6c0,.58,0,1.19,0,1.83s0,1.66-.06,2.6h5.09v-7.28h1.89V1258h4.39Z" transform="translate(-523.5 -787.5)" style="fill:#3e3e3e"/><path d="M632.74,1259.71h-15v3.44a8.69,8.69,0,0,1-1.94,6l-1.49-1.32a5.06,5.06,0,0,0,1.14-1.9,12.43,12.43,0,0,0,.48-4V1258h16.81Zm-.52-6h-3.13a10.05,10.05,0,0,1-1.84,1.51,44.7,44.7,0,0,1,4.51,1.22l-.7,1.29a46.83,46.83,0,0,0-5.61-1.46,20.71,20.71,0,0,1-8.05,1.36l-.55-1.42a25.43,25.43,0,0,0,5.24-.48,36.7,36.7,0,0,0-4.13-.53l.84-1.24c2,.19,4.07.48,6.3.89a10.52,10.52,0,0,0,1.63-1.14H615V1252h7.8c-.19-.34-.39-.69-.61-1l1.91-.4c.29.46.56.94.82,1.45h7.32Zm.57,14.91H617.7v-1.55h6.72v-1.39h-4.25v-1.51h4.25V1263h-3.7a9.63,9.63,0,0,1-1.7,2l-1.16-1.47a8,8,0,0,0,2.33-3.34l1.75.52a3.3,3.3,0,0,1-.31.76h2.79v-1.26h1.91v1.26h5.51V1263h-5.51v1.21h5v1.51h-5v1.39h6.46Z" transform="translate(-523.5 -787.5)" style="fill:#3e3e3e"/><path d="M643.34,1254.46l-1.18,1.4a21.34,21.34,0,0,0-2.73-2.73,22.27,22.27,0,0,1-1.73,2.48h3.83v1.71H640v1.56h2.61v1.71H640V1266a21.49,21.49,0,0,0,2.37-.69l.13,1.66a61.82,61.82,0,0,1-6.69,1.89l-.48-1.68c1.21-.23,2.18-.45,2.89-.65v-5.94h-2.53v-1.71h2.53v-1.56H637v-.89l-.69.55-1.07-1.56a13,13,0,0,0,3.57-4.85l1.74.48a1.62,1.62,0,0,1-.27.58A24.23,24.23,0,0,1,643.34,1254.46Zm-5.58,11-1.55.36a30,30,0,0,0-.65-4.25l1.52-.37A24.76,24.76,0,0,1,637.76,1265.5Zm4.87-4a20.36,20.36,0,0,1-.55,3.65l-1.49-.37a15.66,15.66,0,0,0,.52-3.64Zm10.7,5.87a1.75,1.75,0,0,1-.43,1.15,1.7,1.7,0,0,1-1.26.56q-.84.06-1.32.06c-.32,0-.63,0-.93,0l-.54-1.79a7.35,7.35,0,0,0,.85,0,4.42,4.42,0,0,0,1.54-.14.48.48,0,0,0,.26-.46v-2.52a54.63,54.63,0,0,1-5.41,1.84l-.61-1.36a9.69,9.69,0,0,1-1.68,4.72l-1.53-1.34a7.48,7.48,0,0,0,1.47-4.83V1257h3.81v-6.22h1.89V1257h3.89Zm-6.69-11.8-1.58.84a22.35,22.35,0,0,0-2.18-4.09l1.62-.82A19.3,19.3,0,0,1,646.64,1255.52Zm4.86,7v-3.77h-5.93v1.07a27.88,27.88,0,0,1,4.83.92l-.52,1.64a22.37,22.37,0,0,0-4.27-1c0,1.39-.07,2.41-.11,3.06A37,37,0,0,0,651.5,1262.47Zm2.41-10.36a24.64,24.64,0,0,1-2,4.27l-1.62-.9a22.78,22.78,0,0,0,1.89-4Z" transform="translate(-523.5 -787.5)" style="fill:#3e3e3e"/><path d="M664.48,1259.88h-3a15.22,15.22,0,0,1-3.42,9.24l-1.52-1.41a12.55,12.55,0,0,0,3.08-7.83h-3.11v-1.68h3.2v-3h-2.78v-1.74h2.78v-2.83h1.83v2.83h2.51v1.74h-2.51v3h2.93Zm.18,5.47-1.43,1.25a18.85,18.85,0,0,0-1.92-3.39l1.33-1.21A16.58,16.58,0,0,1,664.66,1265.35Zm10.32-.52a12.1,12.1,0,0,1-.26,2.68,1.54,1.54,0,0,1-.76,1.12,8.25,8.25,0,0,1-2.4.21q-1.62,0-1.62-1.68v-4.33h-1.27a7.37,7.37,0,0,1-3.67,6.35l-1.35-1.47a6,6,0,0,0,2.35-2.09,4.89,4.89,0,0,0,.85-2.79h-1.77v-11.69H674v11.69h-2.25v3.7c0,.33.21.5.64.5a.73.73,0,0,0,.62-.22,3.3,3.3,0,0,0,.21-1.35,12.51,12.51,0,0,0,0-1.31Zm-2.84-10.33v-1.63H667v1.63Zm0,3.24v-1.6H667v1.6Zm0,3.37v-1.71H667v1.71Z" transform="translate(-523.5 -787.5)" style="fill:#3e3e3e"/><path d="M689.9,1254.88h-1.32v2h-4.1v.86h4.44v1.19h-4.44v1h4.88v1.22H677.7v-1.22h5v-1H678.3v-1.24h4.41v-.81h-4v-1.11h4v-.86H677.5v-1.23h5.21v-.84h-4v-1.14h4v-1h1.77v1h4.1v2h1.32Zm-.29,13.86H677.5v-1.32h12.11Zm-1-2.21H678.51V1262h10.12Zm-5.87-2.86V1263h-2.48v.66Zm0,1.79v-.71h-2.46v.71Zm4.16-1.79V1263h-2.44v.66Zm0,1.79v-.71h-2.44v.71Zm-.09-11.81v-.84h-2.33v.84Zm0,2.09v-.86h-2.33v.86Zm5.39,9.45h-1.77v-13h1.77Zm3.29,2.13a1.5,1.5,0,0,1-.59,1.33c-.4.28-1.55.42-3.46.42l-.38-1.87c.54,0,1.06,0,1.56,0a2,2,0,0,0,.91-.12.45.45,0,0,0,.18-.41v-16h1.78Z" transform="translate(-523.5 -787.5)" style="fill:#3e3e3e"/><path d="M707.33,1267.44a1.58,1.58,0,0,1-.3,1,1.48,1.48,0,0,1-.7.53,5,5,0,0,1-1.4.14l-1.25,0-.45-1.75c.34,0,.71,0,1.12,0a2.93,2.93,0,0,0,1-.09.29.29,0,0,0,.15-.27v-2.27c-2.45,1.06-3.74,1.6-3.85,1.59l-.48-.88a10.69,10.69,0,0,1-1.22,3.74l-1.49-1.26q1-1.73,1-5.65v-4.53h7.84Zm1.32-11.56-1.5,1a9.61,9.61,0,0,0-.74-1.11c-2.26.39-4.71.69-7.36.92l-.45-1.45a14.17,14.17,0,0,0,3.45-4.64l1.81.57a15.74,15.74,0,0,1-2.65,3.65,36.8,36.8,0,0,0,4.07-.52,12.76,12.76,0,0,0-1.5-1.6l1.54-1A21.8,21.8,0,0,1,708.65,1255.88Zm-3.15,7v-3.44h-4.09v1.14a17.92,17.92,0,0,1,3.63.76l-.62,1.54a22.59,22.59,0,0,0-3-.64c0,.75,0,1.55-.1,2.39A28.38,28.38,0,0,0,705.5,1262.89Zm11.42,2.49a5.7,5.7,0,0,1-.45,2.59,2.82,2.82,0,0,1-.78.74,10.78,10.78,0,0,1-3.11.23,9.1,9.1,0,0,1-2.58-.21,1.46,1.46,0,0,1-.75-.68,2.13,2.13,0,0,1-.26-1v-7.38h1.83v2.71h5.47V1264h-5.47v2.79c0,.28.15.42.44.42h3.09a.62.62,0,0,0,.57-.36,6.75,6.75,0,0,0,.25-2Zm-.25-6.41h-5.83a1.72,1.72,0,0,1-1.31-.53,1.92,1.92,0,0,1-.5-1.36v-6.28h1.83v2.33h5.45v1.66h-5.45v2.13a.36.36,0,0,0,.15.24.44.44,0,0,0,.29.13h5.37Z" transform="translate(-523.5 -787.5)" style="fill:#3e3e3e"/><path d="M736.91,1254.29c0,3.75-.1,6.77-.25,9a14.5,14.5,0,0,1-.66,4.24,2.51,2.51,0,0,1-1.11,1.16,8.85,8.85,0,0,1-3.1.34c-.48,0-.94,0-1.39,0l-.72-2c.69,0,1.85.06,3.49.06a1.19,1.19,0,0,0,.71-.22,1.1,1.1,0,0,0,.44-.54,16.06,16.06,0,0,0,.3-2.36c.11-1.36.19-2.72.24-4.07l.11-3.87h-6.09a16.58,16.58,0,0,1-2.12,7.86,16.11,16.11,0,0,1-5.83,5.13l-1.26-1.55a14.46,14.46,0,0,0,5-3.87c1.34-1.62,2.13-4.15,2.36-7.57h-6.66v-1.81h6.76c.08-1.09.11-2.3.09-3.62h1.93c0,1,0,2.25-.12,3.62Z" transform="translate(-523.5 -787.5)" style="fill:#3e3e3e"/><path d="M580.07,1275.73a6.6,6.6,0,0,1,4.9,2.07,6.73,6.73,0,0,1,2,4.83,6.86,6.86,0,0,1-2,5,7,7,0,0,1-9.91,0,6.83,6.83,0,0,1-2-4.95,6.7,6.7,0,0,1,2-4.91A6.81,6.81,0,0,1,580.07,1275.73Z" transform="translate(-523.5 -787.5)" style="fill:#3e3e3e"/><path d="M605.94,1282.18H592.7V1284c0,3-.62,5.27-1.86,6.64l-.65-.65a6.72,6.72,0,0,0,1.17-2.28,8.76,8.76,0,0,0,.41-2.62v-3.77h14.17Zm-.45-5h-2.75a9.08,9.08,0,0,1-1.94,1.73,34.76,34.76,0,0,1,3.85,1.2l-.51.74a32.39,32.39,0,0,0-4.46-1.37,17.5,17.5,0,0,1-6.39,1.26L593,1280a25.84,25.84,0,0,0,5.26-.79c-1.41-.32-2.81-.59-4.22-.81l.41-.74c1.87.29,3.59.64,5.14,1a7.6,7.6,0,0,0,1.93-1.42H591.18v-.88h6.76a5.11,5.11,0,0,0-.77-1.25l.84-.38a8.11,8.11,0,0,1,1,1.63h6.53Zm.29,12.86H592.84v-.86H599v-1.69h-4.4v-.88H599v-1.59h-3.86a8.68,8.68,0,0,1-1.4,1.5l-.56-.76a9.78,9.78,0,0,0,2.35-3.09l.88.28a12.36,12.36,0,0,1-.67,1.21H599v-1.47h.9v1.47h4.95v.86h-4.95v1.59h4.57v.88h-4.57v1.69h5.84Z" transform="translate(-523.5 -787.5)" style="fill:#3e3e3e"/><path d="M614.69,1278.06l-.74.61a14.56,14.56,0,0,0-2.35-2.41,22.93,22.93,0,0,1-2.07,2.9h4.27v.84H612v2h2.32v.85H612v5.58c.21,0,.89-.24,2-.6l0,.91c-2.25.7-4.1,1.21-5.55,1.51l-.31-.89c.77-.14,1.74-.37,2.9-.69v-5.82h-2.47V1282h2.47v-2H609.4v-.67q-.25.26-.63.57l-.61-.69a17.63,17.63,0,0,0,3.28-4.55l.77.45a1.72,1.72,0,0,1-.2.39A20.61,20.61,0,0,1,614.69,1278.06Zm-4.42,9.58-.91.25a15.29,15.29,0,0,0-.72-3.56l.81-.31A25.75,25.75,0,0,1,610.27,1287.64Zm4-3.4a18.43,18.43,0,0,1-.75,3.09l-.87-.27a12.65,12.65,0,0,0,.78-3.06Zm8.84,5.07a1,1,0,0,1-.4.91,3.27,3.27,0,0,1-1.64.28c-.31,0-.68,0-1.09,0l-.3-.93c.53,0,1.06,0,1.6,0a1.91,1.91,0,0,0,.76-.08.24.24,0,0,0,.14-.23v-3.92q-2.49,1.28-5.67,2.64l-.49-.65a9.43,9.43,0,0,1-1.33,3.18l-.78-.57a10.65,10.65,0,0,0,1.5-6.06v-3.73h3.33v-5.39h.93v5.39h3.44Zm-5.81-10.51-.83.41a15.63,15.63,0,0,0-1.67-3.54l.83-.47A16.9,16.9,0,0,1,617.29,1278.8Zm4.88,5.58v-3.33h-5.83v1.49a22.28,22.28,0,0,1,4.88.63l-.31.9a21.52,21.52,0,0,0-4.57-.64,25.46,25.46,0,0,1-.29,3.72A52,52,0,0,0,622.17,1284.38Zm1.65-8.75a20.44,20.44,0,0,1-2,3.55l-.83-.51a18.17,18.17,0,0,0,2.06-3.53Z" transform="translate(-523.5 -787.5)" style="fill:#3e3e3e"/><path d="M631.9,1282.73l-.7.59a21.59,21.59,0,0,0-1.35-2.14v9.38h-.92v-8.88a21.09,21.09,0,0,1-2.1,3.92l-.64-.7a21.21,21.21,0,0,0,2.72-5.52h-2.44v-.89h2.46v-3.73h.92v3.73h1.81v.89h-1.81v.39A21.92,21.92,0,0,1,631.9,1282.73Zm9.9,4.08h-5.17q-.76,2.87-4.9,3.75l-.53-.84q3.66-.66,4.49-2.91h-4.3v-.87h4.5a9.06,9.06,0,0,0,.18-1.56h-3.28v-5.56h8v5.56H637a15.31,15.31,0,0,1-.17,1.56h5Zm-5.41-9.7H635.2v1h-1v-1H631.6v-.85h2.64v-1.5h1v1.5h1.19Zm3.46,4v-1.45h-6.18v1.45Zm0,2.42V1282h-6.18v1.59Zm2-6.43h-2.58v1h-.89v-1h-1.34v-.85h1.34v-1.5h.89v1.5h2.58Zm.14,12.67-.57.73a25.37,25.37,0,0,0-4.24-2.4l.6-.73A27.48,27.48,0,0,1,642,1289.78Z" transform="translate(-523.5 -787.5)" style="fill:#3e3e3e"/><path d="M660,1290.12H644.28v-.9h7.41v-2.54h-6.24v-.88h6.24v-1.89h.94v1.89h6.11v.88h-6.11v2.54H660Zm-6.08-10.1H651.3v4.07h-.93V1280H648a6.2,6.2,0,0,1-2.58,4.54l-.75-.63a5.67,5.67,0,0,0,2.42-3.91H644.4v-.91h2.7q.09-1.62.09-2.94h-2.25v-.88h8.7v.88H651.3v2.94h2.57Zm-3.5-.91v-2.94h-2.25c0,.71,0,1.69-.11,2.94Zm5.64,2.57h-.91v-6H656Zm3.13,1.48a1.24,1.24,0,0,1-.29.84,1.29,1.29,0,0,1-.66.42,6.6,6.6,0,0,1-1.35.09l-1.31,0-.4-1c.61,0,1.17.08,1.69.08a5.45,5.45,0,0,0,.94,0,.48.48,0,0,0,.32-.28,1,1,0,0,0,.13-.52v-7.85h.93Z" transform="translate(-523.5 -787.5)" style="fill:#3e3e3e"/><path d="M668.67,1275.14a16.91,16.91,0,0,1-5.75,7.42l-.65-.74a15.2,15.2,0,0,0,5.44-7Zm6.54,6.32a46.3,46.3,0,0,1-.34,5.2,11.5,11.5,0,0,1-.59,2.85,1.72,1.72,0,0,1-.81.79,4.66,4.66,0,0,1-1.79.24c-.37,0-.84,0-1.43,0l-.21-1c.65.06,1.26.09,1.82.09a3.07,3.07,0,0,0,1-.11,1.21,1.21,0,0,0,.41-.3,3.58,3.58,0,0,0,.38-1.18,21.32,21.32,0,0,0,.34-2.42c.08-1,.14-2,.17-3.19h-4.63q-.6,5.3-6,8.33L663,1290q5-2.79,5.5-7.58h-3.4v-1Zm2.91.24-.64.81a13.11,13.11,0,0,1-4.94-6.63h-1.35v-1h2A11.76,11.76,0,0,0,678.12,1281.7Z" transform="translate(-523.5 -787.5)" style="fill:#3e3e3e"/><path d="M688.07,1279.31H685v3.56h-.91v-3.56h-3.62v-.82h3.62v-3.71H685v3.71h3.07Zm0,6.4h-3.17a3.65,3.65,0,0,1-.18.83,12.84,12.84,0,0,1,2.75,2.08l-.6.67a13,13,0,0,0-2.41-1.91,7.6,7.6,0,0,1-3.13,3.2l-.74-.64q3.15-1.71,3.37-4.23h-3.45v-.85H684c0-.55.07-1,.07-1.47H685c0,.17,0,.34,0,.53a6.93,6.93,0,0,1,0,.94h3.13Zm-4.74-5.22a9.21,9.21,0,0,1-1.93,2.9l-.72-.56a12.9,12.9,0,0,0,1.91-2.73Zm-.21-3-.79.42a13,13,0,0,0-1.27-2.27l.79-.46A13.59,13.59,0,0,1,683.14,1277.45Zm4.14,6.57-.7.39a11.61,11.61,0,0,0-1-1l.71-.47A6.47,6.47,0,0,1,687.28,1284Zm.72-1.5-.75.49a15.38,15.38,0,0,0-1.5-2.39l.76-.47A14.86,14.86,0,0,1,688,1282.52Zm-.16-6.92a8.94,8.94,0,0,1-1.24,2.15l-.8-.45a8.28,8.28,0,0,0,1.21-2.13Zm8.25.43h-3.37a21.5,21.5,0,0,1-.55,2.16h3.09v8.69h-4.14l.58.61a11.78,11.78,0,0,1-3.07,3l-.63-.64a9.82,9.82,0,0,0,3-2.94h-2v-8.69h2.2a15.5,15.5,0,0,0,.58-2.16h-3.57v-.83h7.87Zm-1.72,4.68V1279h-4.46v1.69Zm0,2.57v-1.72h-4.46v1.72Zm0,2.75v-1.89h-4.46V1286Zm1.72,3.82-.61.68a11.43,11.43,0,0,0-2.88-2.37l.52-.65A10.27,10.27,0,0,1,696.09,1289.85Z" transform="translate(-523.5 -787.5)" style="fill:#3e3e3e"/><path d="M707.77,1287.68a6.42,6.42,0,0,1-4.89,2.14,5,5,0,0,1-3.35-1,3.54,3.54,0,0,1-1.23-2.85q0-2.82,3.15-4.19a3.45,3.45,0,0,1-1.57-2.85,2.91,2.91,0,0,1,1-2.27,3.68,3.68,0,0,1,2.54-.85,3.51,3.51,0,0,1,2.38.79,2.61,2.61,0,0,1,.92,2.09c0,1.42-.87,2.48-2.62,3.18a8.51,8.51,0,0,1,3.83,3.56,8.72,8.72,0,0,0,1.55-5.11,5.42,5.42,0,0,0-.17-1.31h1.45a5.6,5.6,0,0,1,.12,1.26,11.12,11.12,0,0,1-2.2,6.35,6.57,6.57,0,0,0,1.3,1.49,1.87,1.87,0,0,0,1.16.37,4.07,4.07,0,0,0,1.15-.26v1.39a4,4,0,0,1-1.4.26,2.67,2.67,0,0,1-1.51-.42A6.84,6.84,0,0,1,707.77,1287.68Zm-.71-1.1a13.61,13.61,0,0,0-2.18-2.79,7.37,7.37,0,0,0-2.29-1.32,5,5,0,0,0-2.16,1.4,3.08,3.08,0,0,0-.64,2,2.37,2.37,0,0,0,.86,2,3.38,3.38,0,0,0,2.22.71A5.31,5.31,0,0,0,707.06,1286.58Zm-4.19-5.39a5.15,5.15,0,0,0,1.83-1,1.9,1.9,0,0,0,.59-1.42,1.69,1.69,0,0,0-.55-1.33,2,2,0,0,0-1.36-.49,2.19,2.19,0,0,0-1.54.52,1.84,1.84,0,0,0-.56,1.4A2.61,2.61,0,0,0,702.87,1281.19Z" transform="translate(-523.5 -787.5)" style="fill:#3e3e3e"/><path d="M729.55,1290h-15.7v-.88h7.34v-2.66h-6.54v-.92h6.54v-2.17h-5.91v-8.23h12.81v8.23h-6v2.17h6.58v.92h-6.58v2.66h7.41Zm-8.36-11.25v-2.72h-4.93v2.72Zm0,3.71v-2.79h-4.93v2.79Zm5.95-3.71v-2.72h-5v2.72Zm0,3.71v-2.79h-5v2.79Z" transform="translate(-523.5 -787.5)" style="fill:#3e3e3e"/><path d="M738,1283.71l-.65.72a12,12,0,0,0-1.55-2.25v8.33h-.94v-8.36a25.34,25.34,0,0,1-2.42,4.44l-.64-.73a24.79,24.79,0,0,0,3-5.76h-2.92v-.91h3v-2.66l-2.2.41-.48-.89a19.45,19.45,0,0,0,5.21-1.24l.55.82c-.88.3-1.59.53-2.14.69v2.87H738v.91h-2.14v.74A15.63,15.63,0,0,1,738,1283.71Zm9.55,6.37H737.43v-.88h4.62v-2.75h-4v-.9h4v-2.61c-1.92.12-3.11.19-3.56.2l-.43-.92a40.89,40.89,0,0,0,8.58-1l.61.81c-1.21.28-2.62.53-4.24.75v2.72h3.87v.9H743v2.75h4.56Zm-1.15-9.86h-7.74v-4.91h7.74Zm-1-.91v-3.1h-5.82v3.1Z" transform="translate(-523.5 -787.5)" style="fill:#3e3e3e"/><path d="M755.75,1276.7h-2.4a21.74,21.74,0,0,1-1.13,4h2.95v8.55h-.93v-.81h-1.89v1.21l-.94,0v-7.13a12.65,12.65,0,0,1-.94,1.5l-.58-.76a17.44,17.44,0,0,0,2.51-6.58h-2.29v-.91h5.64Zm-1.51,10.87v-5.94h-1.89v5.94Zm11.3-.49H763v3.43h-.9v-3.43h-6.13v-.92h1.42l-.44-.59a4.83,4.83,0,0,0,2.73-2.09h-3v-7H759a6.31,6.31,0,0,0,1.26-1.8l.88.3a5.68,5.68,0,0,1-1,1.5h4.76v7H763v2.68h2.58Zm-5.21-7.6v-2.12h-2.79v2.12Zm-.05.88h-2.74v2.2H760A9.79,9.79,0,0,0,760.28,1280.36Zm1.78,5.8v-2.68h-1.35a6,6,0,0,1-3,2.68Zm1.91-3.6v-2.2h-2.76a12.3,12.3,0,0,1-.25,2.2Zm0-3.08v-2.12h-2.7v2.12Z" transform="translate(-523.5 -787.5)" style="fill:#3e3e3e"/><path d="M777.73,1281.39h-4.42v2.13h3.83v5c0,.75-.42,1.12-1.26,1.12h-1.31l-.35-.93h1.6a.4.4,0,0,0,.31-.15.55.55,0,0,0,.12-.35v-3.85h-2.94v6h-.91v-6h-2.86v5.37h-.91v-6.26h3.77v-2.13h-4.59v-.9h4.59v-2.43h-2.92a9.72,9.72,0,0,1-1,1.64l-.81-.44a12.94,12.94,0,0,0,2-4.24l.91.17a18.25,18.25,0,0,1-.72,2h2.51v-2.41h.91v2.41h4v.9h-4v2.43h4.42Zm2.17,5.94H779v-11.21h.94Zm3.17,1.87a1.12,1.12,0,0,1-.37.86,1.38,1.38,0,0,1-1,.35h-2.3l-.33-1h2.6a.39.39,0,0,0,.29-.17.58.58,0,0,0,.14-.34v-14.2h.92Z" transform="translate(-523.5 -787.5)" style="fill:#3e3e3e"/><path d="M793,1277.83h-7v-.89h3.23a9.49,9.49,0,0,0-.84-1.89l.88-.29a11.47,11.47,0,0,1,1,2.18H793Zm-.87,2.59h-5.29v-.88h5.29Zm0,2.54h-5.29v-.88h5.29Zm0,7.34h-.91v-.92h-3.46v1.12h-.91v-5.83h5.28Zm-.91-1.82v-2.91h-3.46v2.91Zm10.42-12.36h-3v13.12a1.14,1.14,0,0,1-.3.7,1.16,1.16,0,0,1-.7.44,14.72,14.72,0,0,1-2,.08c-.31,0-.63,0-.94,0l-.25-1c.36,0,.75,0,1.16,0a6.92,6.92,0,0,0,1.84-.12.41.41,0,0,0,.21-.38v-12.9h-4.38v-.92h8.34Z" transform="translate(-523.5 -787.5)" style="fill:#3e3e3e"/><path d="M580.07,1297.33a6.57,6.57,0,0,1,4.9,2.08,6.69,6.69,0,0,1,2,4.82,6.9,6.9,0,0,1-2,5,6.72,6.72,0,0,1-5,2,6.63,6.63,0,0,1-4.93-2.07,6.83,6.83,0,0,1-2-5,6.7,6.7,0,0,1,2-4.91A6.81,6.81,0,0,1,580.07,1297.33Z" transform="translate(-523.5 -787.5)" style="fill:#3e3e3e"/><path d="M593.94,1302a6.82,6.82,0,0,1,1.52,3.84,1.87,1.87,0,0,1-2.08,2.15c-.25,0-.55,0-.9,0l-.28-.92c.39,0,.73,0,1,0,.87,0,1.31-.34,1.31-1a6,6,0,0,0-1.59-3.88,45.38,45.38,0,0,0,1.33-4.45h-2.45v14.42h-.93v-15.31h4.38v.89C595,1298.68,594.55,1300.1,593.94,1302Zm6.61.25a36.79,36.79,0,0,1-3.91,1.46l-.45-.76a.7.7,0,0,0,.29-.56v-6h.88v2h3v.89h-3v3.18a29.92,29.92,0,0,0,3.06-1.14Zm4.15,9.9h-1v-1h-6.09v1h-.94v-7.34h2.42a10.56,10.56,0,0,0,.67-1.6l.9.23a10,10,0,0,1-.54,1.37h4.54Zm-1-4.64v-1.81h-6.09v1.81Zm0,2.75v-1.88h-6.09v1.88Zm2.2-9.25a3.72,3.72,0,0,1-.3,1.54,1.33,1.33,0,0,1-.67.6,6.19,6.19,0,0,1-1.64.14,10.26,10.26,0,0,1-1.24,0,1.28,1.28,0,0,1-.62-.32,1.09,1.09,0,0,1-.31-.85v-5.66h.93v2h3.18v.89h-3.18v2.63c0,.18,0,.3.16.35a2.62,2.62,0,0,0,.89.08,4.86,4.86,0,0,0,1.44-.11.78.78,0,0,0,.36-.58,4.05,4.05,0,0,0,.1-.92Z" transform="translate(-523.5 -787.5)" style="fill:#3e3e3e"/><path d="M615.35,1307.35c-1.19.33-2.81.69-4.87,1.06v3.69h-.92v-3.51a9.41,9.41,0,0,1-1.13.14l-.2-.91c.68-.07,1.12-.13,1.33-.16v-10a23.12,23.12,0,0,0,5.25-1.28l.45.85a29,29,0,0,1-4.78,1.2v2.13h4v.86h-4v2.34h4v.86h-4v2.87c1.35-.21,3-.55,4.87-1Zm8.71,4-.62.81a17.42,17.42,0,0,1-4-2.35,15.46,15.46,0,0,1-5.09,2.33l-.46-.89a13.45,13.45,0,0,0,4.85-2.07,12.84,12.84,0,0,1-2.6-4.22h-.62V1304h7.38a10.77,10.77,0,0,1-2.74,5.15A15.06,15.06,0,0,0,624.06,1311.32Zm-.1-8.76H622.1c-.81,0-1.22-.43-1.22-1.29v-3.64h-3.12c0,2.54-.73,4.39-2.33,5.53l-.82-.65a4.1,4.1,0,0,0,1.68-1.82,7.64,7.64,0,0,0,.53-3.13v-.79h5v4.42c0,.32.17.47.51.47H624Zm-2.29,2.37h-4.52a10.08,10.08,0,0,0,2.34,3.61A9.53,9.53,0,0,0,621.67,1304.93Z" transform="translate(-523.5 -787.5)" style="fill:#3e3e3e"/><path d="M628.91,1304.42a19.67,19.67,0,0,1-1.67,5.07l-.91-.4a18.91,18.91,0,0,0,1.74-4.95Zm4.67-1.31H630.8v9h-.93v-9h-3.33v-.86h3.33v-5.94h.93v5.94h2.78Zm-4.77-2.3-.9.36a14.16,14.16,0,0,0-1.32-3.21l.81-.37A14.84,14.84,0,0,1,628.81,1300.81Zm4.86,6.39-.94.31a11.87,11.87,0,0,0-1.12-3.08l.84-.29A17.9,17.9,0,0,1,633.67,1307.2Zm.14-9.28a17.32,17.32,0,0,1-1.31,3.37l-.86-.43a13.53,13.53,0,0,0,1.35-3.27Zm8.22,9.28-1.85.36v4.57h-.92v-4.38l-5.59,1-.12-.9,5.71-1.08v-10.45h.92v10.27l1.73-.33ZM638,1305l-.71.72a14.74,14.74,0,0,0-2.94-3l.67-.66A19.33,19.33,0,0,1,638,1305Zm.31-4.85-.71.7a15.74,15.74,0,0,0-2.89-2.46l.62-.67A17.3,17.3,0,0,1,638.27,1300.15Z" transform="translate(-523.5 -787.5)" style="fill:#3e3e3e"/><path d="M654.19,1306.15h-3.85V1310h-1.22v-3.83h-3.83v-1.23h3.83v-3.84h1.22v3.84h3.85Z" transform="translate(-523.5 -787.5)" style="fill:#3e3e3e"/><path d="M658.17,1311.2v-13.61H662a4.15,4.15,0,0,1,2.73.85,2.76,2.76,0,0,1,1,2.26,3.29,3.29,0,0,1-2.34,3.24v0a3.28,3.28,0,0,1,2.2,1,3.23,3.23,0,0,1,.83,2.3,3.55,3.55,0,0,1-1.25,2.81,4.57,4.57,0,0,1-3.14,1.09Zm1.49-12.23v4.48h1.66a3.17,3.17,0,0,0,2.11-.65,2.25,2.25,0,0,0,.76-1.8c0-1.35-.88-2-2.64-2Zm0,5.86v5h2.21a3.32,3.32,0,0,0,2.21-.67,2.31,2.31,0,0,0,.79-1.86c0-1.63-1.12-2.45-3.36-2.45Z" transform="translate(-523.5 -787.5)" style="fill:#3e3e3e"/><path d="M668.34,1304.56a7.46,7.46,0,0,1,1.78-5.24,6.18,6.18,0,0,1,4.82-2,5.8,5.8,0,0,1,4.53,1.91,7.11,7.11,0,0,1,1.72,4.94,7.68,7.68,0,0,1-1.73,5.24,6,6,0,0,1-4.75,2,5.91,5.91,0,0,1-4.62-1.93A7,7,0,0,1,668.34,1304.56Zm1.57-.14a6.21,6.21,0,0,0,1.31,4,4.25,4.25,0,0,0,3.48,1.61,4.54,4.54,0,0,0,3.63-1.52,6.09,6.09,0,0,0,1.3-4.12,6.38,6.38,0,0,0-1.26-4.2,4.34,4.34,0,0,0-3.55-1.51,4.41,4.41,0,0,0-3.57,1.61A6.19,6.19,0,0,0,669.91,1304.42Z" transform="translate(-523.5 -787.5)" style="fill:#3e3e3e"/><path d="M696.2,1311.2V1302c0-.7,0-1.58.14-2.63h-.05a8,8,0,0,1-.4,1.28l-4.75,10.54h-.67l-4.74-10.47a6.9,6.9,0,0,1-.4-1.35h0c.05.48.07,1.35.07,2.6v9.22H683.9v-13.61h2l4.27,9.58a15.94,15.94,0,0,1,.63,1.61h.06q.27-.71.66-1.65l4.36-9.54h1.85v13.61Z" transform="translate(-523.5 -787.5)" style="fill:#3e3e3e"/><path d="M716.43,1311.65H700.74v-.92h7.62v-4.86h-5.77v-.95h5.77v-4.11h-4.88a13.33,13.33,0,0,1-2.25,3.12l-.76-.65A14.66,14.66,0,0,0,704,1297l.94.24a19.47,19.47,0,0,1-.94,2.64h4.4v-3.53h1v3.53h6.85v1h-6.85v4.11h6v.95h-6v4.86h7.1Z" transform="translate(-523.5 -787.5)" style="fill:#3e3e3e"/><path d="M734.4,1308.59a8.48,8.48,0,0,1-.58,2.59c-.3.69-.66,1-1.09,1s-1-.39-1.64-1.16a7.92,7.92,0,0,1-1.38-2.4,25.7,25.7,0,0,1-4.28,3.52l-.71-.74a20.5,20.5,0,0,0,4.59-3.83,35.5,35.5,0,0,1-1.11-7.32h-6.66v2.45h4.81c0,1.48-.09,2.81-.22,4a6.92,6.92,0,0,1-.42,2.15,1.67,1.67,0,0,1-.65.64,3.69,3.69,0,0,1-1.6.23l-.89,0-.29-1a8.48,8.48,0,0,0,1.22.1,2.7,2.7,0,0,0,1-.12,1.24,1.24,0,0,0,.4-.3,5.94,5.94,0,0,0,.34-1.7,23.7,23.7,0,0,0,.19-3h-3.89a19.22,19.22,0,0,1-2.11,8.57l-.74-.67a18.08,18.08,0,0,0,1.93-8.86v-3.35h7.5c0-1.31-.07-2.32-.07-3H729c0,.92,0,1.92.09,3h5v.92h-4.94a30.78,30.78,0,0,0,.9,6.46,17.13,17.13,0,0,0,2.44-5l.95.31a22.47,22.47,0,0,1-3,5.81,7.83,7.83,0,0,0,1.25,2.32c.5.62.84.93,1,.93s.37-.34.55-1a7.44,7.44,0,0,0,.28-2Zm-1-10-.81.58a11.67,11.67,0,0,0-2.06-1.89l.75-.61A9.11,9.11,0,0,1,733.42,1298.54Z" transform="translate(-523.5 -787.5)" style="fill:#3e3e3e"/><path d="M741.64,1303.9l-.7.59a19.54,19.54,0,0,0-1.12-1.81v9.43h-.93v-8.93a26.77,26.77,0,0,1-1.75,4.15l-.52-1a23.82,23.82,0,0,0,2.25-5.85h-2.11v-.9h2.13v-3.3h.93v3.3h1.34v.9h-1.34v1A30.07,30.07,0,0,1,741.64,1303.9Zm10.94,5.38a7.68,7.68,0,0,1-.56,2.27,1.15,1.15,0,0,1-1,.77c-.78,0-1.64-.82-2.57-2.46a15.26,15.26,0,0,1-3.48,2.17l-.63-.72a11.44,11.44,0,0,0,3.71-2.2,12.33,12.33,0,0,1-1.08-3.24h-3.29l-.12,1.09a11.89,11.89,0,0,1,2.55,1.75l-.52.76a10.55,10.55,0,0,0-2.15-1.64,9.08,9.08,0,0,1-2.25,4.4l-.83-.58a7.75,7.75,0,0,0,2.36-5.78h-1.6v-.9h5.67a83.77,83.77,0,0,1-.58-8.68l.92,0a61.76,61.76,0,0,0,.61,8.64h1.82c0-.11-.19-.39-.43-.84l.74-.31a4,4,0,0,1,.63,1.15h1.93v.9h-4.52a9.91,9.91,0,0,0,.84,2.54,9.87,9.87,0,0,0,1.57-2.14l.7.45a11.91,11.91,0,0,1-1.92,2.5,6.58,6.58,0,0,0,.95,1.45c.38.47.68.7.89.7s.33-.16.47-.47a10.21,10.21,0,0,0,.41-2.06Zm-6.42-5.33-.81.23a4.91,4.91,0,0,0-.14-.83q-1.92.18-3.3.36l-.14-.65a28,28,0,0,0,1.91-2.49l-1.87.28-.24-.78a22.22,22.22,0,0,0,1.84-3.64l.81.37a29.2,29.2,0,0,1-1.6,3.06,12.8,12.8,0,0,0,1.72-.27,14.58,14.58,0,0,0,.86-1.46l.77.43a30.35,30.35,0,0,1-3,4.18c.59,0,1.26-.1,2-.2a4.94,4.94,0,0,0-.38-1.2l.8-.22A12,12,0,0,1,746.16,1304Zm6.24,0-.81.24a6.69,6.69,0,0,0-.2-.84c-1,.11-2,.25-3.24.43l-.24-.77c.76-.9,1.38-1.7,1.86-2.39-.5,0-1.1.15-1.82.28l-.27-.78a22.57,22.57,0,0,0,1.8-3.52l.81.36c-.5,1-1,2-1.57,2.95.37,0,.94-.14,1.72-.27.22-.33.49-.75.79-1.27l.78.39a38.46,38.46,0,0,1-2.84,4l2-.23a4.89,4.89,0,0,0-.32-1l.79-.24A15.75,15.75,0,0,1,752.4,1303.9Z" transform="translate(-523.5 -787.5)" style="fill:#3e3e3e"/><path d="M764.58,1303h-4.43v2.13H764v5.05c0,.75-.42,1.12-1.27,1.12h-1.31l-.34-.93h1.6a.37.37,0,0,0,.3-.15.51.51,0,0,0,.13-.35V1306h-3v6h-.9v-6h-2.86v5.37h-.91v-6.26h3.77V1303h-4.6v-.9h4.6v-2.43h-2.92a11.24,11.24,0,0,1-1,1.64l-.81-.44a13.14,13.14,0,0,0,2-4.24l.91.17a18.25,18.25,0,0,1-.72,2h2.51v-2.41h.9v2.41h4.05v.9h-4.05v2.43h4.43Zm2.16,5.94h-.93v-11.21h.93Zm3.18,1.87a1.13,1.13,0,0,1-.38.86,1.33,1.33,0,0,1-.94.35h-2.31l-.32-1h2.59a.39.39,0,0,0,.3-.17.58.58,0,0,0,.14-.34v-14.2h.92Z" transform="translate(-523.5 -787.5)" style="fill:#3e3e3e"/><path d="M580.07,1318.93A6.6,6.6,0,0,1,585,1321a6.73,6.73,0,0,1,2,4.83,6.86,6.86,0,0,1-2,5,7,7,0,0,1-9.91,0,6.83,6.83,0,0,1-2-5,6.7,6.7,0,0,1,2-4.91A6.81,6.81,0,0,1,580.07,1318.93Z" transform="translate(-523.5 -787.5)" style="fill:#3e3e3e"/><path d="M594.16,1318.06l-1,3.33v12.32h-.93v-10.09a21.31,21.31,0,0,1-1.48,2.63l-.65-.74a24.81,24.81,0,0,0,3.17-7.77Zm11.73,5.24h-8a13.14,13.14,0,0,1-.92,1.46h7.82v7.59a1.41,1.41,0,0,1-.23.78,1,1,0,0,1-.61.51,5,5,0,0,1-1.55.09l-.38-.9,1,0c.58,0,.87-.2.87-.61v-1.84h-3v3.11h-.91v-3.11h-3.33a8.23,8.23,0,0,1-1.89,3.4l-.65-.61a8,8,0,0,0,2.07-5.6v-1.95a14.52,14.52,0,0,1-2.12,2.24l-.62-.65a17.44,17.44,0,0,0,3.41-3.94h-3v-.89h3.39v-1.77h-3v-.91h3V1318h.92v1.75h3.44V1318h.94v1.75h2.85v.91h-2.85v1.77h3.23Zm-5.81,6.22V1328h-2.93a8.18,8.18,0,0,1-.19,1.53Zm0-2.41v-1.49h-2.9v1.49Zm1.64-4.7v-1.77h-3.44v1.77Zm2.22,4.7v-1.49h-3v1.49Zm0,2.41V1328h-3v1.53Z" transform="translate(-523.5 -787.5)" style="fill:#3e3e3e"/><path d="M610.89,1326a19.62,19.62,0,0,1-1.67,5.08l-.91-.4a18.91,18.91,0,0,0,1.74-5Zm4.67-1.3h-2.78v9h-.93v-9h-3.33v-.86h3.33v-5.94h.93v5.94h2.78Zm-4.77-2.3-.9.36a14.4,14.4,0,0,0-1.32-3.22l.81-.36A14.84,14.84,0,0,1,610.79,1322.41Zm4.86,6.39-.94.31a11.87,11.87,0,0,0-1.12-3.08l.84-.29A17.9,17.9,0,0,1,615.65,1328.8Zm.14-9.28a17.32,17.32,0,0,1-1.31,3.37l-.86-.43a13.53,13.53,0,0,0,1.35-3.27Zm8.22,9.28-1.85.36v4.57h-.92v-4.38l-5.59,1-.12-.9,5.71-1.08V1318h.92v10.27l1.73-.33Zm-4.07-2.2-.71.72a14.74,14.74,0,0,0-2.94-3l.67-.66A19.33,19.33,0,0,1,619.94,1326.6Zm.31-4.85-.71.7a15.74,15.74,0,0,0-2.89-2.46l.62-.67A17.3,17.3,0,0,1,620.25,1321.75Z" transform="translate(-523.5 -787.5)" style="fill:#3e3e3e"/><path d="M633.17,1324.13a10.18,10.18,0,0,1-1.44,4.08l-.81-.56a6.89,6.89,0,0,0,1.12-2.59h-2v7.4a1.22,1.22,0,0,1-.41.89c-.28.27-1.13.37-2.55.31l-.27-.91c1.15,0,1.78,0,1.9,0a.53.53,0,0,0,.32-.2.52.52,0,0,0,.14-.33v-7.14H626.3v-.93h3.93a20,20,0,0,0-3.3-2.78l.5-.7c.41.26,1,.69,1.79,1.31a16.78,16.78,0,0,0,2.13-2.46h-4.62v-.89h5.77v.89a29.45,29.45,0,0,1-2.56,3.06,9.1,9.1,0,0,1,1.17,1.19l-.31.38Zm8.81-4.81h-4a14.27,14.27,0,0,1-.58,2h3.72v8.77h-4.71l.56.57a14.55,14.55,0,0,1-3.76,3.15l-.62-.81a12.66,12.66,0,0,0,3.64-2.91h-2.3v-8.77h2.5a11.93,11.93,0,0,0,.6-2h-3.74v-.92H642Zm-1.79,4.59v-1.64h-5.35v1.64Zm0,2.61v-1.74h-5.35v1.74Zm0,2.71v-1.86h-5.35v1.86Zm1.74,3.79-.6.74a17.94,17.94,0,0,0-3.41-2.4l.58-.7A21.37,21.37,0,0,1,641.93,1333Z" transform="translate(-523.5 -787.5)" style="fill:#3e3e3e"/><path d="M647.57,1324.92l-.67.65a14.6,14.6,0,0,0-2.69-2.49l.62-.72A16.68,16.68,0,0,1,647.57,1324.92Zm.1,3a31.46,31.46,0,0,1-2.68,5.82l-.71-.6a26.55,26.55,0,0,0,2.56-5.67Zm.51-7.61-.65.69a13.74,13.74,0,0,0-2.74-2.27l.52-.67A10.86,10.86,0,0,1,648.18,1320.28Zm5.75,9.5h-3.59l.53.36a14.21,14.21,0,0,1-2.55,3.65l-.74-.61a12.16,12.16,0,0,0,2.43-3.4h-1.26v-11.39h5.18Zm-.88-8v-2.49h-3.39v2.49Zm0,3.51v-2.61h-3.39v2.61Zm0,3.62v-2.74h-3.39v2.74Zm1.34,4-.77.47a10.65,10.65,0,0,0-1.77-2.83l.74-.5A11.55,11.55,0,0,1,654.39,1332.87Zm2.12-2.39h-.91v-11.3h.91Zm2.89,2a1.08,1.08,0,0,1-.46,1,3.82,3.82,0,0,1-1.68.26c-.44,0-.89,0-1.34,0l-.22-.9a19.52,19.52,0,0,0,2.53-.08c.18,0,.27-.24.27-.55V1318h.9Z" transform="translate(-523.5 -787.5)" style="fill:#3e3e3e"/><path d="M667.2,1325.5l-.7.58a18.61,18.61,0,0,0-1.12-1.8v9.43h-.93v-8.93a26.77,26.77,0,0,1-1.75,4.15l-.52-1a23,23,0,0,0,2.25-5.85h-2.11v-.9h2.13v-3.3h.93v3.3h1.34v.9h-1.34v1A30.07,30.07,0,0,1,667.2,1325.5Zm10.94,5.38a7.46,7.46,0,0,1-.56,2.27,1.14,1.14,0,0,1-1,.77q-1.18,0-2.58-2.46a15.26,15.26,0,0,1-3.48,2.17l-.63-.72a11.44,11.44,0,0,0,3.71-2.2,12.33,12.33,0,0,1-1.08-3.24h-3.29l-.11,1.08a12.48,12.48,0,0,1,2.54,1.76l-.52.76a10.27,10.27,0,0,0-2.15-1.64,9.08,9.08,0,0,1-2.25,4.4l-.83-.58a7.72,7.72,0,0,0,2.36-5.78h-1.6v-.9h5.68a83.78,83.78,0,0,1-.59-8.68l.93,0a60.24,60.24,0,0,0,.61,8.64h1.82c-.05-.11-.19-.39-.43-.85l.73-.3a4.24,4.24,0,0,1,.64,1.15H678v.9h-4.53a9.59,9.59,0,0,0,.85,2.54,9.84,9.84,0,0,0,1.56-2.14l.71.45a12.29,12.29,0,0,1-1.93,2.5,7,7,0,0,0,1,1.45c.39.47.69.7.9.7s.32-.16.46-.47a9.53,9.53,0,0,0,.41-2.06Zm-6.41-5.33-.81.23a8.41,8.41,0,0,0-.14-.83q-1.92.18-3.3.36l-.14-.65c.76-.91,1.4-1.74,1.91-2.49l-1.88.28-.24-.78A22.22,22.22,0,0,0,669,1318l.81.37a27.4,27.4,0,0,1-1.6,3.06,12.94,12.94,0,0,0,1.73-.27,14.75,14.75,0,0,0,.85-1.46l.77.43a28.75,28.75,0,0,1-3,4.18c.59,0,1.27-.1,2-.2a6,6,0,0,0-.38-1.2l.79-.22A12,12,0,0,1,671.73,1325.55Zm6.24,0-.81.24a7.16,7.16,0,0,0-.21-.84c-1,.11-2.05.25-3.23.43l-.24-.77c.75-.9,1.37-1.7,1.85-2.39-.49,0-1.1.15-1.82.28l-.27-.78a21,21,0,0,0,1.8-3.52l.81.36c-.5,1-1,2-1.56,3,.36,0,.93-.14,1.71-.27.23-.33.49-.75.79-1.27l.78.39a39.7,39.7,0,0,1-2.83,4l2-.23a4.82,4.82,0,0,0-.33-1l.79-.24A16.75,16.75,0,0,1,678,1325.5Z" transform="translate(-523.5 -787.5)" style="fill:#3e3e3e"/><path d="M690.14,1324.59h-4.42v2.13h3.83v5c0,.75-.42,1.12-1.26,1.12H687l-.35-.93h1.6a.4.4,0,0,0,.31-.15.55.55,0,0,0,.12-.35v-3.85h-2.94v6h-.91v-6H682V1333H681v-6.26h3.77v-2.13h-4.59v-.9h4.59v-2.43h-2.92a9.72,9.72,0,0,1-1,1.64l-.81-.44a12.94,12.94,0,0,0,2-4.24l.91.17a18.25,18.25,0,0,1-.72,2h2.51V1318h.91v2.41h4v.9h-4v2.43h4.42Zm2.17,5.94h-.94v-11.21h.94Zm3.17,1.87a1.1,1.1,0,0,1-.38.86,1.33,1.33,0,0,1-.94.35h-2.3l-.33-.95h2.6a.39.39,0,0,0,.29-.17.58.58,0,0,0,.14-.34V1318h.92Z" transform="translate(-523.5 -787.5)" style="fill:#3e3e3e"/><path d="M580.07,1340.53a6.57,6.57,0,0,1,4.9,2.08,6.69,6.69,0,0,1,2,4.82,6.9,6.9,0,0,1-2,5,6.72,6.72,0,0,1-5,2,6.63,6.63,0,0,1-4.93-2.07,6.83,6.83,0,0,1-2-5,6.71,6.71,0,0,1,2-4.91A6.81,6.81,0,0,1,580.07,1340.53Z" transform="translate(-523.5 -787.5)" style="fill:#3e3e3e"/><path d="M606.11,1348.25l-.64.84a20,20,0,0,1-3.3-1.17v.78H594v-.85a20.23,20.23,0,0,1-3.32,1.21l-.59-.83a16.81,16.81,0,0,0,8-4.31l1,.4a1.19,1.19,0,0,1-.26.32A16.64,16.64,0,0,0,606.11,1348.25Zm-8.19-6h-4.76a14.33,14.33,0,0,1-2.21,2.13l-.67-.7a9.67,9.67,0,0,0,3.45-4.16l.89.33a7.1,7.1,0,0,1-.81,1.51h4.11Zm5.91,13h-.93v-.91h-9.61v.91h-1v-4.86h11.51Zm-.93-1.77v-2.22h-9.61v2.22Zm-7-8.93-.9.43a5.28,5.28,0,0,0-1-1.66l.91-.4A6.13,6.13,0,0,1,595.92,1344.56Zm6,3.25a18.17,18.17,0,0,1-3.89-2.52,16.43,16.43,0,0,1-3.91,2.52Zm3.75-5.59h-5.51a8,8,0,0,1-1.29,1.41l-.74-.6a8.77,8.77,0,0,0,2.51-3.62l.9.34a15.08,15.08,0,0,1-.77,1.6h4.9Zm-2.22,2.51-.92.4a7.81,7.81,0,0,0-1.37-1.82l.93-.43A7.12,7.12,0,0,1,603.45,1344.73Z" transform="translate(-523.5 -787.5)" style="fill:#3e3e3e"/><path d="M623.92,1354.51l-.46.92a21.15,21.15,0,0,1-7.36-3.31,21.08,21.08,0,0,1-7.31,3.31l-.55-.94a19.12,19.12,0,0,0,7.14-3,18,18,0,0,1-3.06-4.24l.88-.43a17.08,17.08,0,0,0,2.92,4,21.58,21.58,0,0,0,3.11-4l.89.44a24.27,24.27,0,0,1-3.24,4.2A19.22,19.22,0,0,0,623.92,1354.51Zm-9.67-10.59a25,25,0,0,1-5.13,4.85l-.67-.76a23.57,23.57,0,0,0,5.06-4.66Zm9.53-1.38H608.5v-.94h7.44a5.77,5.77,0,0,0-.87-1.78l.94-.36a11.06,11.06,0,0,1,1,2.14h6.8Zm-.06,5.59-.74.67a27.72,27.72,0,0,0-5-4.77l.68-.68A28,28,0,0,1,623.72,1348.13Z" transform="translate(-523.5 -787.5)" style="fill:#3e3e3e"/><path d="M631.17,1347.1l-.71.59a17.61,17.61,0,0,0-1.12-1.81v9.43h-.93v-8.93a26.77,26.77,0,0,1-1.75,4.15l-.52-1a23,23,0,0,0,2.25-5.85h-2.11v-.9h2.13v-3.3h.93v3.3h1.34v.9h-1.34v1Q630.3,1345.81,631.17,1347.1Zm10.93,5.38a7.38,7.38,0,0,1-.56,2.27,1.14,1.14,0,0,1-1,.77q-1.18,0-2.58-2.46a15.26,15.26,0,0,1-3.48,2.17l-.63-.72a11.44,11.44,0,0,0,3.71-2.2,12.33,12.33,0,0,1-1.08-3.24h-3.29l-.11,1.09a12.07,12.07,0,0,1,2.54,1.75l-.52.76a10.27,10.27,0,0,0-2.15-1.64,9.08,9.08,0,0,1-2.25,4.4l-.83-.58a7.72,7.72,0,0,0,2.36-5.78h-1.6v-.9h5.68a81.09,81.09,0,0,1-.58-8.68l.92,0a61.76,61.76,0,0,0,.61,8.64h1.82c0-.11-.19-.39-.43-.84l.74-.31a4.53,4.53,0,0,1,.63,1.15h1.93v.9H637.4a9.59,9.59,0,0,0,.85,2.54,9.84,9.84,0,0,0,1.56-2.14l.71.45a12,12,0,0,1-1.93,2.5,7,7,0,0,0,.95,1.45c.39.47.69.7.9.7s.32-.16.46-.47a8.93,8.93,0,0,0,.41-2.06Zm-6.41-5.33-.81.23a8.41,8.41,0,0,0-.14-.83q-1.92.18-3.3.36l-.14-.65a30,30,0,0,0,1.91-2.49l-1.88.28-.24-.78a22.22,22.22,0,0,0,1.84-3.64l.81.37a25.81,25.81,0,0,1-1.6,3.06,12.94,12.94,0,0,0,1.73-.27,14.75,14.75,0,0,0,.85-1.46l.77.43a28.75,28.75,0,0,1-3,4.18c.6,0,1.27-.1,2-.2a5.41,5.41,0,0,0-.38-1.2l.79-.22A12,12,0,0,1,635.69,1347.15Zm6.24-.05-.81.24a7.16,7.16,0,0,0-.21-.84c-1,.11-2,.25-3.23.43l-.24-.77c.76-.9,1.37-1.7,1.86-2.39-.5,0-1.11.15-1.83.28l-.27-.78a21,21,0,0,0,1.8-3.52l.81.36c-.49,1-1,2-1.56,3,.36,0,.93-.14,1.71-.27.23-.33.49-.75.8-1.27l.77.39a39.7,39.7,0,0,1-2.83,4l2-.23a4.82,4.82,0,0,0-.33-1l.79-.24A16.75,16.75,0,0,1,641.93,1347.1Z" transform="translate(-523.5 -787.5)" style="fill:#3e3e3e"/><path d="M654.1,1346.19h-4.42v2.13h3.83v5c0,.75-.42,1.12-1.26,1.12h-1.31l-.35-.93h1.6a.4.4,0,0,0,.31-.15.56.56,0,0,0,.13-.35v-3.85h-3v6h-.91v-6h-2.86v5.37H645v-6.26h3.76v-2.13h-4.59v-.9h4.59v-2.43h-2.92a9.72,9.72,0,0,1-1,1.64l-.8-.44a13.13,13.13,0,0,0,2-4.24l.92.17a20.67,20.67,0,0,1-.73,2h2.51v-2.41h.91V1342h4.05v.9h-4.05v2.43h4.42Zm2.17,5.94h-.94v-11.21h.94Zm3.17,1.87a1.12,1.12,0,0,1-.37.86,1.38,1.38,0,0,1-1,.35h-2.3l-.33-1h2.6a.39.39,0,0,0,.29-.17.58.58,0,0,0,.14-.34v-14.2h.92Z" transform="translate(-523.5 -787.5)" style="fill:#3e3e3e"/><path d="M580.07,1362.13a6.57,6.57,0,0,1,4.9,2.08,6.69,6.69,0,0,1,2,4.82,6.9,6.9,0,0,1-2,5,6.72,6.72,0,0,1-5,2,6.63,6.63,0,0,1-4.93-2.07,6.83,6.83,0,0,1-2-5,6.7,6.7,0,0,1,2-4.91A6.81,6.81,0,0,1,580.07,1362.13Z" transform="translate(-523.5 -787.5)" style="fill:#3e3e3e"/><path d="M605.94,1368.58H592.7v1.79c0,3.05-.62,5.27-1.86,6.64l-.65-.65a6.63,6.63,0,0,0,1.17-2.28,8.76,8.76,0,0,0,.41-2.62v-3.77h14.17Zm-.45-5h-2.75a9.08,9.08,0,0,1-1.94,1.73,34.76,34.76,0,0,1,3.85,1.2l-.51.74a32.39,32.39,0,0,0-4.46-1.37,17.5,17.5,0,0,1-6.39,1.26l-.32-.83a25.84,25.84,0,0,0,5.26-.79c-1.41-.32-2.81-.59-4.22-.81l.41-.74c1.87.29,3.59.64,5.14,1a7.6,7.6,0,0,0,1.93-1.42H591.18v-.88h6.76a5.11,5.11,0,0,0-.77-1.25l.84-.38a8.11,8.11,0,0,1,1,1.63h6.53Zm.29,12.86H592.84v-.86H599v-1.69h-4.4v-.88H599v-1.59h-3.86a8.68,8.68,0,0,1-1.4,1.5l-.56-.76a9.78,9.78,0,0,0,2.35-3.09l.88.28a12.36,12.36,0,0,1-.67,1.21H599v-1.47h.9v1.47h4.95v.86h-4.95v1.59h4.57v.88h-4.57v1.69h5.84Z" transform="translate(-523.5 -787.5)" style="fill:#3e3e3e"/><path d="M614.69,1364.46l-.74.62a14.21,14.21,0,0,0-2.35-2.42,22.93,22.93,0,0,1-2.07,2.9h4.27v.84H612v1.95h2.32v.85H612v5.58c.21,0,.89-.24,2-.6l0,.91c-2.25.7-4.1,1.21-5.55,1.51l-.31-.89c.77-.14,1.74-.37,2.9-.69v-5.82h-2.47v-.85h2.47v-1.95H609.4v-.67q-.25.26-.63.57l-.61-.69a17.63,17.63,0,0,0,3.28-4.55l.77.45a1.72,1.72,0,0,1-.2.39A20.61,20.61,0,0,1,614.69,1364.46Zm-4.42,9.58-.91.25a15.29,15.29,0,0,0-.72-3.56l.81-.31A25.75,25.75,0,0,1,610.27,1374Zm4-3.4a18.43,18.43,0,0,1-.75,3.09l-.87-.27a12.65,12.65,0,0,0,.78-3.06Zm8.84,5.07a1,1,0,0,1-.4.91,3.27,3.27,0,0,1-1.64.28c-.31,0-.68,0-1.09,0l-.3-.93c.53,0,1.06,0,1.6,0a1.91,1.91,0,0,0,.76-.08.24.24,0,0,0,.14-.23v-3.92q-2.49,1.27-5.67,2.64l-.49-.65a9.43,9.43,0,0,1-1.33,3.18l-.78-.57a10.65,10.65,0,0,0,1.5-6.06v-3.73h3.33v-5.39h.93v5.39h3.44Zm-5.81-10.51-.83.41a15.63,15.63,0,0,0-1.67-3.54l.83-.47A16.9,16.9,0,0,1,617.29,1365.2Zm4.88,5.58v-3.33h-5.83v1.49a21.65,21.65,0,0,1,4.88.64l-.31.89a21.52,21.52,0,0,0-4.57-.64,25.46,25.46,0,0,1-.29,3.72A52,52,0,0,0,622.17,1370.78Zm1.65-8.75a20.44,20.44,0,0,1-2,3.55l-.83-.5a18.58,18.58,0,0,0,2.06-3.54Z" transform="translate(-523.5 -787.5)" style="fill:#3e3e3e"/><path d="M631,1366.48h-1.85v10.36h-.93v-10.36h-2.08v-.92h2.08v-4.38h.93v4.38H631Zm4.77,3q-.13,5.51-.54,6.42a1.43,1.43,0,0,1-1.4.92h-1.17l-.23-.95c.55,0,1,0,1.38,0s.56-.21.68-.64a38.58,38.58,0,0,0,.35-4.94H633a9.74,9.74,0,0,1-2.81,6.58l-.75-.55a8.75,8.75,0,0,0,2.65-6h-1.82v-.86h1.87c.05-.83.07-1.32.07-1.46h.88a10.44,10.44,0,0,1-.07,1.46Zm5.59-6.7a14.22,14.22,0,0,1-.43,3.46,1.89,1.89,0,0,1-.82,1.12,3.79,3.79,0,0,1-1.58.25c-.47,0-1,0-1.53,0l-.36-1c.78,0,1.38.05,1.8.05a2.73,2.73,0,0,0,1.28-.19,1.18,1.18,0,0,0,.43-.75,14.44,14.44,0,0,0,.22-2.08h-3.69a6.36,6.36,0,0,1-4.68,4l-.58-.77a5.55,5.55,0,0,0,4.25-3.23H631.3v-.86h4.55c0-.16.09-.7.18-1.61h.91c0,.56-.08,1.09-.15,1.61Zm.39,6.73c0,.52-.06,1.66-.18,3.43a12.61,12.61,0,0,1-.38,3,2.22,2.22,0,0,1-.57.62,2.79,2.79,0,0,1-1.56.28,3.24,3.24,0,0,1-.46,0l-.34-1c.51.05.95.07,1.32.07.57,0,.89-.33,1-1s.17-2.18.27-4.55H639a12.56,12.56,0,0,1-.73,3.3,14.68,14.68,0,0,1-1.9,3.3l-.77-.62a10.3,10.3,0,0,0,2.49-6h-1.69v-.86h1.74c0-.19,0-.68.07-1.49h.88l0,1.49Z" transform="translate(-523.5 -787.5)" style="fill:#3e3e3e"/><path d="M650,1363.91h-5.64v-.83h2.61a9.8,9.8,0,0,0-.75-1.57l.85-.4a11.94,11.94,0,0,1,.91,2h2Zm-.5,2.57h-4.74v-.85h4.74Zm0,2.68h-4.74v-.82h4.74Zm-.26,7.42h-.88v-1h-2.45V1377H645v-6h4.25Zm-.89-1.85v-2.87h-2.44v2.87Zm11.24.86a1.11,1.11,0,0,1-.48,1,2.78,2.78,0,0,1-1.46.29h-1l-.34-.89,1.92,0a.38.38,0,0,0,.28-.13.4.4,0,0,0,.14-.28v-6.92h-6.85c.08,3.63-.32,6.38-1.22,8.24l-.79-.48a17.77,17.77,0,0,0,1.1-6.58v-8.23h8.68Zm-4.83-10.88v-2.23h-2.94v2.23Zm0,3.08v-2.21h-2.94v2.21Zm2.63,6.87H653v-4.57h4.4Zm-.88-.89V1371h-2.63v2.81Zm2.16-9.06v-2.23h-3v2.23Zm0,3.08v-2.21h-3v2.21Z" transform="translate(-523.5 -787.5)" style="fill:#3e3e3e"/><path d="M667.2,1368.7l-.7.59a17.61,17.61,0,0,0-1.12-1.81v9.43h-.93V1368a26.77,26.77,0,0,1-1.75,4.15l-.52-1a23,23,0,0,0,2.25-5.85h-2.11v-.9h2.13v-3.3h.93v3.3h1.34v.9h-1.34v1A30.07,30.07,0,0,1,667.2,1368.7Zm10.94,5.38a7.46,7.46,0,0,1-.56,2.27,1.14,1.14,0,0,1-1,.77q-1.18,0-2.58-2.46a15.26,15.26,0,0,1-3.48,2.17l-.63-.72a11.44,11.44,0,0,0,3.71-2.2,12.33,12.33,0,0,1-1.08-3.24h-3.29l-.11,1.08a12.48,12.48,0,0,1,2.54,1.76l-.52.76a10.27,10.27,0,0,0-2.15-1.64,9.08,9.08,0,0,1-2.25,4.4l-.83-.58a7.72,7.72,0,0,0,2.36-5.78h-1.6v-.9h5.68a83.78,83.78,0,0,1-.59-8.68l.93,0a60.24,60.24,0,0,0,.61,8.64h1.82c-.05-.11-.19-.39-.43-.85l.73-.3a4.24,4.24,0,0,1,.64,1.15H678v.9h-4.53a9.59,9.59,0,0,0,.85,2.54,9.84,9.84,0,0,0,1.56-2.14l.71.45a12.29,12.29,0,0,1-1.93,2.5,7,7,0,0,0,1,1.45c.39.47.69.7.9.7s.32-.16.46-.47a9.53,9.53,0,0,0,.41-2.06Zm-6.41-5.33-.81.23a8.41,8.41,0,0,0-.14-.83q-1.92.18-3.3.36l-.14-.65c.76-.91,1.4-1.74,1.91-2.49l-1.88.28-.24-.78a22.22,22.22,0,0,0,1.84-3.64l.81.37a27.4,27.4,0,0,1-1.6,3.06,12.94,12.94,0,0,0,1.73-.27,14.75,14.75,0,0,0,.85-1.46l.77.43a28.75,28.75,0,0,1-3,4.18c.59,0,1.27-.1,2-.2a6,6,0,0,0-.38-1.2l.79-.22A12,12,0,0,1,671.73,1368.75Zm6.24,0-.81.24a7.16,7.16,0,0,0-.21-.84c-1,.11-2.05.25-3.23.43l-.24-.77c.75-.9,1.37-1.7,1.85-2.39-.49.05-1.1.15-1.82.28l-.27-.78a21,21,0,0,0,1.8-3.52l.81.36c-.5,1-1,2-1.56,3,.36,0,.93-.14,1.71-.27.23-.33.49-.75.79-1.27l.78.39a39.7,39.7,0,0,1-2.83,4l2-.23a4.82,4.82,0,0,0-.33-1l.79-.24A16.75,16.75,0,0,1,678,1368.7Z" transform="translate(-523.5 -787.5)" style="fill:#3e3e3e"/><path d="M690.14,1367.79h-4.42v2.13h3.83v5c0,.75-.42,1.12-1.26,1.12H687l-.35-.93h1.6a.4.4,0,0,0,.31-.15.55.55,0,0,0,.12-.35v-3.85h-2.94v6h-.91v-6H682v5.37H681v-6.26h3.77v-2.13h-4.59v-.9h4.59v-2.43h-2.92a9.72,9.72,0,0,1-1,1.64l-.81-.44a12.94,12.94,0,0,0,2-4.24l.91.17a18.25,18.25,0,0,1-.72,2h2.51v-2.41h.91v2.41h4v.9h-4v2.43h4.42Zm2.17,5.94h-.94v-11.21h.94Zm3.17,1.87a1.1,1.1,0,0,1-.38.86,1.33,1.33,0,0,1-.94.35h-2.3l-.33-1h2.6a.39.39,0,0,0,.29-.17.58.58,0,0,0,.14-.34v-14.2h.92Z" transform="translate(-523.5 -787.5)" style="fill:#3e3e3e"/><rect x="23.5" y="309.5" width="279" height="131" rx="10" style="fill:#205986"/><polygon points="150.8 285.17 161.49 312.5 172.18 283.98 150.8 285.17" style="fill:#205986"/></g><g id="b62336ea-3325-4f4e-ac2b-52bb11df0e9d" data-name="圖層 2"><path d="M584.81,1141.45c-1.92,1.09-3.68,2-5.26,2.82l-.4-.79,2.46-1.24v-5h-2.13v-.84h2.13v-4.09h-2.32v-.88h5.41v.88h-2.18v4.09h1.91v.84h-1.91v4.49c.67-.35,1.36-.73,2.08-1.14Zm10.16,1.34a5.46,5.46,0,0,1-.38,1.86,1.66,1.66,0,0,1-.69.85,3.73,3.73,0,0,1-1.54.22q-.6,0-1.05,0a1,1,0,0,1-.71-.32,1.41,1.41,0,0,1-.26-.93v-4.21h-1.66a6.24,6.24,0,0,1-4.9,5.77l-.57-.76q4.23-1.11,4.56-5h-1.86v-9.55h7.8v9.55h-2.45v4.21a.34.34,0,0,0,.17.31,2.82,2.82,0,0,0,1.06.11,1.82,1.82,0,0,0,1-.18,1.9,1.9,0,0,0,.39-.91,5.48,5.48,0,0,0,.19-1.41Zm-2.18-9.31v-1.94h-6v1.94Zm0,2.9v-2h-6v2Zm0,3v-2.11h-6v2.11Z" transform="translate(-523.5 -787.5)" style="fill:#fff"/><path d="M612.94,1145.33H601.18v.61h-1v-7.87a22.31,22.31,0,0,1-2.36,2.22l-.7-.74a19.74,19.74,0,0,0,5-5.64h-4.47V1133h4.94a19,19,0,0,0,1.18-2.88l1,.2c-.33.93-.68,1.82-1.07,2.68h9v.93h-9.45a22.41,22.41,0,0,1-2,3v7.52h5.19v-5.07h-4v-.94h4v-3.33h1v3.33h4.35v.94h-4.35v5.07h5.61Z" transform="translate(-523.5 -787.5)" style="fill:#fff"/><path d="M631,1145.33H619.19v.61h-1v-7.87a22.31,22.31,0,0,1-2.36,2.22l-.7-.74a19.74,19.74,0,0,0,5-5.64h-4.47V1133h4.94a19,19,0,0,0,1.18-2.88l1,.2c-.33.93-.68,1.82-1.07,2.68h9v.93h-9.46a20.6,20.6,0,0,1-2,3v7.52h5.2v-5.07h-3.95v-.94h3.95v-3.33h1v3.33h4.35v.94h-4.35v5.07H631Z" transform="translate(-523.5 -787.5)" style="fill:#fff"/><path d="M649,1137.6H635.74v1.79q0,4.59-1.86,6.64l-.65-.65a6.67,6.67,0,0,0,1.17-2.27,9.2,9.2,0,0,0,.41-2.62v-3.78H649Zm-.45-5h-2.75a9,9,0,0,1-1.94,1.73,35.46,35.46,0,0,1,3.85,1.2l-.52.74a33.22,33.22,0,0,0-4.45-1.37,17.5,17.5,0,0,1-6.39,1.26l-.32-.83a25.84,25.84,0,0,0,5.26-.79c-1.41-.32-2.81-.59-4.22-.81l.41-.74q2.81.45,5.14,1a7.54,7.54,0,0,0,1.93-1.42H634.22v-.88H641a5.3,5.3,0,0,0-.77-1.25l.84-.38a8.11,8.11,0,0,1,1,1.63h6.53Zm.29,12.87H635.88v-.87h6.2V1143h-4.4v-.88h4.4v-1.58h-3.86a9,9,0,0,1-1.4,1.49l-.56-.75a9.72,9.72,0,0,0,2.35-3.1l.87.28a11.87,11.87,0,0,1-.66,1.22h3.26v-1.48h.9v1.48h4.95v.86H643v1.58h4.57v.88H643v1.69h5.84Z" transform="translate(-523.5 -787.5)" style="fill:#fff"/><path d="M657.73,1133.48l-.74.62a14.21,14.21,0,0,0-2.35-2.42,22.93,22.93,0,0,1-2.07,2.9h4.27v.84H655v2h2.33v.84H655v5.58a21.22,21.22,0,0,0,2.06-.6l0,.91q-3.37,1.07-5.55,1.51l-.31-.89c.77-.14,1.73-.37,2.9-.68v-5.83h-2.47v-.84h2.47v-2h-1.71v-.67q-.26.26-.63.57l-.61-.69a17.69,17.69,0,0,0,3.28-4.55l.77.45a1.72,1.72,0,0,1-.2.39A21.3,21.3,0,0,1,657.73,1133.48Zm-4.42,9.58-.91.25a15.39,15.39,0,0,0-.72-3.56l.81-.31A26.08,26.08,0,0,1,653.31,1143.06Zm4-3.4a18.36,18.36,0,0,1-.76,3.09l-.86-.27a12.65,12.65,0,0,0,.78-3.06Zm8.84,5.07a1,1,0,0,1-.4.91,3.18,3.18,0,0,1-1.64.28c-.31,0-.68,0-1.09,0l-.3-.93c.52,0,1.06,0,1.6,0a2.14,2.14,0,0,0,.76-.08.27.27,0,0,0,.14-.24v-3.92c-1.66.85-3.56,1.73-5.67,2.65l-.49-.66a9.78,9.78,0,0,1-1.33,3.19l-.78-.57a10.71,10.71,0,0,0,1.5-6.07v-3.73h3.33v-5.38h.93v5.38h3.44Zm-5.81-10.51-.83.41a15.63,15.63,0,0,0-1.67-3.54l.83-.46A17.13,17.13,0,0,1,660.33,1134.22Zm4.88,5.58v-3.33h-5.83V1138a21.65,21.65,0,0,1,4.88.64l-.31.89a22.18,22.18,0,0,0-4.57-.64,25.36,25.36,0,0,1-.29,3.72A52,52,0,0,0,665.21,1139.8Zm1.65-8.74a21,21,0,0,1-2,3.54l-.83-.5a18.28,18.28,0,0,0,2.06-3.54Z" transform="translate(-523.5 -787.5)" style="fill:#fff"/><path d="M685.16,1133.72l-.4.86a22.17,22.17,0,0,1-4.7-1.6v.7h-5.82V1133a25.21,25.21,0,0,1-4.54,1.75l-.49-.82a18.21,18.21,0,0,0,7.77-3.87l1,.31-.28.27A18.39,18.39,0,0,0,685.16,1133.72Zm-1.78,5.47H670.87v-4.42h12.51Zm-.79,6.73h-.91v-.76h-9v.76h-.95v-5.69h10.9Zm-5.93-7.59v-2.7h-4.87v2.7Zm5,3.94v-1.17h-9v1.17Zm0,2v-1.2h-9v1.2Zm-6.52-6.89-.67.5a12.76,12.76,0,0,0-1.35-1.53l.69-.45A6.81,6.81,0,0,1,675.16,1137.41Zm4.47-4.6a18.86,18.86,0,0,1-2.58-1.6,19,19,0,0,1-2.41,1.6Zm2.83,5.52v-2.7h-4.85v2.7Zm-1.37-2a7.84,7.84,0,0,1-1.35,1.58l-.71-.5a6.22,6.22,0,0,0,1.31-1.39Z" transform="translate(-523.5 -787.5)" style="fill:#fff"/><path d="M692.36,1132.88h-5V1132h2.35a13.61,13.61,0,0,0-.72-1.59l.75-.32a14.52,14.52,0,0,1,.88,1.91h1.74Zm-.26,2.54h-4.33v-.84h4.33Zm0,2.68h-4.33v-.86h4.33Zm-.16,7.48h-.85v-1h-2.27v1.29H688v-5.89h4Zm-.85-1.91v-2.84h-2.27v2.84Zm12,.08a5.43,5.43,0,0,1-.65,1.65,1.2,1.2,0,0,1-1.08.6c-.6,0-1.19-.54-1.75-1.63a17.82,17.82,0,0,1-2.51,1.43l-.55-.76a11,11,0,0,0,2.74-1.46,11.9,11.9,0,0,1-.49-3.16H696V1142a17.67,17.67,0,0,0,1.86-.59l.1.82c-1,.32-1.62.54-2,.64v1.76a1.42,1.42,0,0,1-.29.91c-.2.25-.67.38-1.41.38l-.71,0-.27-.83,1.5,0a.29.29,0,0,0,.22-.11.34.34,0,0,0,.1-.23v-1.58a11.77,11.77,0,0,1-2.25.54l-.24-.81q1.68-.35,2.49-.57v-1.82H692.8v-.78h2.36v-1.19a16.59,16.59,0,0,1-2,.22l-.36-.85a14,14,0,0,0,4.66-.7l.42.65a8,8,0,0,1-1.81.52v1.35h2.73q0-1.28,0-2.25h.88a13.56,13.56,0,0,0,.07,2.25H703v.78h-3.35a11,11,0,0,0,.39,2.53,10.4,10.4,0,0,0,1.6-1.93l.71.51a14.51,14.51,0,0,1-2,2.29c.43.84.78,1.26,1.08,1.26s.64-.59.9-1.77Zm-.16-7H692.82V1136h4.56v-1.2h-3.8V1134h3.8v-1.1h-4.21V1132h9.51v.85h-4.44v1.1h3.88v.78h-3.88v1.2H703Zm-6.17-5.4-.83.4a7.15,7.15,0,0,0-1.24-1.21l.81-.4A8,8,0,0,1,696.78,1131.36Zm4.29-.72a9.08,9.08,0,0,1-1.46,1.14l-.79-.53a7.33,7.33,0,0,0,1.5-1.12Zm1.25,8.13-.69.43a8.28,8.28,0,0,0-1-1.39l.67-.42A6.1,6.1,0,0,1,702.32,1138.77Z" transform="translate(-523.5 -787.5)" style="fill:#fff"/><path d="M721,1145.49H705.4v-.93h6.72V1130.2h1v5.65h7.17v1h-7.17v7.76h8Z" transform="translate(-523.5 -787.5)" style="fill:#fff"/><path d="M739,1131.54h-7.08a21.77,21.77,0,0,1-1.12,2.34h7v12h-.94v-1.08H725.58v1.08h-1v-12h5.09a9.43,9.43,0,0,0,1.17-2.34h-7.51v-.9H739Zm-10.88,12.31v-9h-2.56v9Zm5.23-6.8v-2.23h-4.25v2.23Zm0,3.33V1138h-4.25v2.42Zm0,3.47v-2.59h-4.25v2.59Zm3.49,0v-9H734.3v9Z" transform="translate(-523.5 -787.5)" style="fill:#fff"/><path d="M749,1139.73a1,1,0,0,1-.65-.87.87.87,0,0,1,.22-.52.77.77,0,0,1,.63-.27q.84,0,.84,1.11a2.33,2.33,0,0,1-1.06,1.75l-.38-.29A1.62,1.62,0,0,0,749,1139.73Z" transform="translate(-523.5 -787.5)" style="fill:#fff"/><path d="M775.17,1142.25a13.59,13.59,0,0,1-.68,2.27,2.9,2.9,0,0,1-.83,1.35,1.67,1.67,0,0,1-.77.2c-.46,0-1-.35-1.54-1a9.66,9.66,0,0,1-1.41-2.47,15.35,15.35,0,0,1-3.78,2.24l-.65-.8a13.28,13.28,0,0,0,4.09-2.37,27.69,27.69,0,0,1-.76-5.6h-4.28v3.17a20.8,20.8,0,0,0,3.44-.85v1c-1.15.32-2.3.59-3.44.82v4.61a1.08,1.08,0,0,1-.35.8,1.38,1.38,0,0,1-1,.35h-2.38l-.27-1c.75,0,1.61,0,2.56,0,.32,0,.49-.14.49-.44v-4.18c-1.55.3-2.86.52-3.91.66l-.24-1a37.57,37.57,0,0,0,4.15-.65V1136h-4.25v-.93h4.25v-2.81c-1.88.3-3.08.46-3.59.5l-.34-.9a34.44,34.44,0,0,0,7.79-1.53l.28.85a31.28,31.28,0,0,1-3.2.86v3h4.25c0-.52,0-1.1,0-1.75,0-1.18,0-2.24.05-3.19h.94c0,.84-.07,1.81-.07,2.93,0,.72,0,1.39,0,2h5.37v.93H769.8a24.88,24.88,0,0,0,.57,4.76,14.62,14.62,0,0,0,2.48-3.75l.8.5a19.72,19.72,0,0,1-2.95,4.31,8.14,8.14,0,0,0,1.16,2.3c.49.66.85,1,1.07,1a.43.43,0,0,0,.34-.22,9.41,9.41,0,0,0,.5-1.18,10.57,10.57,0,0,0,.55-2Zm-.93-8.48-.78.56a12.28,12.28,0,0,0-2.33-2.9l.72-.58A13.32,13.32,0,0,1,774.24,1133.77Z" transform="translate(-523.5 -787.5)" style="fill:#fff"/><path d="M781.49,1130.3a16.15,16.15,0,0,1-.62,2.15l-.46,1.29v12.16h-.95V1136a21.63,21.63,0,0,1-1.61,2.7l-.54-.94a23.74,23.74,0,0,0,3.3-7.63Zm5.37,7.75h-3.53v7.89h-1v-15.3h4.49Zm-1-4.22v-2.27h-2.58v2.27Zm0,3.29v-2.39h-2.58v2.39Zm6.71,7.52c0,.92-.6,1.38-1.78,1.38l-1.69,0-.38-1c.82,0,1.59.07,2.31.07a.58.58,0,0,0,.59-.59v-6.45H788v-7.41h4.61Zm-1-10.81v-2.27H789v2.27Zm0,3.33v-2.43H789v2.43Z" transform="translate(-523.5 -787.5)" style="fill:#fff"/><path d="M588.65,1153.76a18.62,18.62,0,0,1-2.34,3.4h2.2v.91h-3.1a16.29,16.29,0,0,1-2.61,2.13h4.61v7.32h-.95v-1.12H582v1.12h-.92v-6.28c-.31.17-.78.4-1.43.68l-.5-.77a18.71,18.71,0,0,0,5-3.08h-4.81v-.91H583v-2.31h-2.93v-.9H583v-2.1h.89v2.1h2.63v.9h-2.63v2.31h1.21a18.1,18.1,0,0,0,2.79-3.84Zm-2.19,9v-1.68H582v1.68Zm0,2.75v-1.81H582v1.81Zm6.48-6.85a6.75,6.75,0,0,1,1.92,4.41,2.17,2.17,0,0,1-.72,1.89,4.23,4.23,0,0,1-2.57.43l-.29-1a6.85,6.85,0,0,0,1,.06,2.25,2.25,0,0,0,1.39-.31,1.47,1.47,0,0,0,.34-1.11,6.09,6.09,0,0,0-2-4.2,57.68,57.68,0,0,0,1.7-5.58h-3.44v14.22h-.89V1152.4h5.23v.9Q593.57,1156.83,592.94,1158.67Z" transform="translate(-523.5 -787.5)" style="fill:#fff"/><path d="M613.06,1166.37l-.31.89h-6a9.87,9.87,0,0,1-3.76-.61,6.88,6.88,0,0,1-2.62-2,14,14,0,0,1-2.6,2.81l-.7-.69a10.48,10.48,0,0,0,3.85-5.48l.93.23a9.27,9.27,0,0,1-1,2.31,5.79,5.79,0,0,0,4,2.4v-5.72h-7.63v-.9h15.7v.9H605.8v2.31H612v.89H605.8v2.59c.54,0,1.13.06,1.79.06Zm-2.39-8.17H599.59v-6h11.08Zm-1-3.49v-1.6h-9.11v1.6Zm0,2.6v-1.67h-9.11v1.67Z" transform="translate(-523.5 -787.5)" style="fill:#fff"/><path d="M630.94,1165.65h-5.81v1.93h-1v-8h-2v4.43a2.9,2.9,0,0,1-1.19,2.66,5.86,5.86,0,0,1-2.92.83l-.36-.83c2.06-.2,3.19-.77,3.4-1.72-2.43.19-4.35.32-5.74.39l-.19-.87q4-.15,6.06-.36a5.56,5.56,0,0,0,0-.81H616v-.79h5.24v-1h-5.58v-.81h5.58v-1.17h-4.12v-3h12v3h-4v1.17h5.36v.81h-5.36v1.19h5v.79h-5v1.22h5.81Zm0-9.85H615.26V1155h7.45v-1.19h-4.89a11.73,11.73,0,0,1-1.31.81l-.67-.74a5.69,5.69,0,0,0,2.79-2.21l.85.39a4.2,4.2,0,0,1-.7,1h3.93v-1.3h.95v1.3h6.09v.79h-6.09V1155h7.28Zm-2.81,3v-1.39h-10v1.39Z" transform="translate(-523.5 -787.5)" style="fill:#fff"/><path d="M641,1166.62h-7.16V1153h6.86v1.37h-5.36V1159h4.95v1.37h-4.95v4.87H641Z" transform="translate(-523.5 -787.5)" style="fill:#fff"/><path d="M653.33,1166.62h-1.8l-2.29-3.83a4.73,4.73,0,0,0-1.33-1.61,2.5,2.5,0,0,0-1.4-.39h-1.34v5.83h-1.5V1153h4a4.41,4.41,0,0,1,3,1,3.34,3.34,0,0,1,1.11,2.66q0,2.82-3,3.66v0a2.85,2.85,0,0,1,.93.64,11.67,11.67,0,0,1,1.09,1.57Zm-8.16-12.22v5h2.22a2.84,2.84,0,0,0,2-.73,2.51,2.51,0,0,0,.78-1.93,2.2,2.2,0,0,0-.71-1.73,3.11,3.11,0,0,0-2.08-.62Z" transform="translate(-523.5 -787.5)" style="fill:#fff"/><path d="M656.74,1161.46v5.16h-1.5V1153h3.68a4.85,4.85,0,0,1,3.34,1.06,3.77,3.77,0,0,1,1.21,3,4,4,0,0,1-1.42,3.23,4.86,4.86,0,0,1-3.49,1.17Zm0-7.07v5.67h1.71a3.85,3.85,0,0,0,2.56-.76,2.71,2.71,0,0,0,.89-2.17c0-1.83-1.08-2.74-3.24-2.74Z" transform="translate(-523.5 -787.5)" style="fill:#fff"/><path d="M671.73,1167.18h-.9v-1.55h-3.89v1.91H666v-12.76h1.67a17.06,17.06,0,0,0,1.29-3.1l.9.19c-.22.63-.62,1.6-1.23,2.91h3.08Zm-.9-7.63v-3.87h-3.89v3.87Zm0,5.16v-4.26h-3.89v4.26Zm9.93-9.92c-.07,2.7-.2,5.2-.39,7.52a18.75,18.75,0,0,1-.58,4.08,1.88,1.88,0,0,1-.74.88,3.91,3.91,0,0,1-1.72.26l-1.45,0-.29-.91c.49,0,1,0,1.59,0h1a.9.9,0,0,0,.47-.23,1.17,1.17,0,0,0,.36-.48,15,15,0,0,0,.28-2.07c.11-1.2.21-2.51.29-4s.13-2.84.17-4.19h-4.7a24.46,24.46,0,0,1-2.19,3.56l-.73-.52a19.35,19.35,0,0,0,3.35-6.92l.91.24c-.29,1-.62,1.88-1,2.75Zm-3.32,8.07-.75.54a19.17,19.17,0,0,0-2.62-4.19l.78-.51A17.68,17.68,0,0,1,677.44,1162.86Z" transform="translate(-523.5 -787.5)" style="fill:#fff"/><path d="M689.21,1163.65a16.47,16.47,0,0,1-5.13,2.81l-.6-.8a15.77,15.77,0,0,0,5-2.62Zm9.52-1.39-.81.55a15.51,15.51,0,0,0-1.07-1.41c-2.33.25-4,.41-4.85.48v4.57a.93.93,0,0,1-.26.67,1.19,1.19,0,0,1-.59.34,7.59,7.59,0,0,1-1.21.07c-.32,0-.63,0-.91,0l-.4-1q.51,0,1,0a10.62,10.62,0,0,0,1.14,0q.21,0,.21-.42V1162c-2.64.17-4.63.27-6,.32l-.28-.79a50.31,50.31,0,0,0,6.48-2.89c-2.08.12-3.93.2-5.56.24l-.24-.66a19.42,19.42,0,0,0,6.53-3.72l.89.51a20.48,20.48,0,0,1-4.48,2.9l1.68-.07,1.58-.1a8.11,8.11,0,0,0,1.65-.22c.77-.49,1.52-1,2.24-1.57l.84.58a44.56,44.56,0,0,1-8.7,4.8q4.37-.15,8.44-.68a15.46,15.46,0,0,0-1.37-1.31l.81-.55A20.65,20.65,0,0,1,698.73,1162.26Zm-5.5-10a18.11,18.11,0,0,1-7.57,3.59l-.72-.83a16.23,16.23,0,0,0,7.48-3.29Zm5.94,13.5-.61.77a20.91,20.91,0,0,0-4.54-2.81l.61-.76A22.55,22.55,0,0,1,699.17,1165.73Z" transform="translate(-523.5 -787.5)" style="fill:#fff"/><path d="M703.48,1163.26a18.26,18.26,0,0,1-1.09,4.22l-.86-.3a16.67,16.67,0,0,0,1.07-4.14Zm4.34-1.12-.82.29a9.46,9.46,0,0,0-.29-1,47.6,47.6,0,0,1-4.76,1.24l-.27-.82a27.63,27.63,0,0,0,3.55-4.45c-1,.2-2,.37-3.19.53l-.23-.85a18.91,18.91,0,0,0,3-5.3l.84.31a18.16,18.16,0,0,1-2.63,4.83,23.21,23.21,0,0,0,2.84-.52,10.6,10.6,0,0,0,.72-1.36l.83.37a28,28,0,0,1-4.13,6.06,22.27,22.27,0,0,0,3.17-.9q-.2-.52-.45-1.11l.81-.35A16.19,16.19,0,0,1,707.82,1162.14Zm-2.13,4.59-.91.18a13.69,13.69,0,0,0-.58-3.67l.9-.14A22.27,22.27,0,0,1,705.69,1166.73Zm2.06-1.43-.84.28a15.84,15.84,0,0,0-.72-2.56l.82-.25A15.69,15.69,0,0,1,707.75,1165.3Zm9.43-10.58h-5.52a22.39,22.39,0,0,1-2.41,4,47.47,47.47,0,0,0,5.64-.59,14.19,14.19,0,0,0-1.34-1.67l.79-.5a22.88,22.88,0,0,1,2.65,3.76l-.75.55a10.18,10.18,0,0,0-.83-1.34l-1.67.26V1166c0,.26.13.39.41.39h1.28a.54.54,0,0,0,.41-.16,2.63,2.63,0,0,0,.27-1.1c.07-.62.11-1.33.13-2.12l.9.32a12.11,12.11,0,0,1-.27,2.77,1.56,1.56,0,0,1-.67,1,3.63,3.63,0,0,1-1.5.22,2.94,2.94,0,0,1-1.47-.25,1.05,1.05,0,0,1-.4-1v-6.69q-1.5.18-1.86.18c0,3.61-1.11,6.28-3.35,8l-.62-.65a7.81,7.81,0,0,0,2.25-2.83,10.51,10.51,0,0,0,.81-4.44c-.3,0-1,.08-2,.11l-.2-.82a15,15,0,0,0,2.79-4.19h-3v-.88h3.47c.2-.46.48-1.17.84-2.12l.88.27c-.3.83-.56,1.45-.75,1.85h5.12Z" transform="translate(-523.5 -787.5)" style="fill:#fff"/><path d="M727.13,1161.33a1,1,0,0,1-.65-.87.81.81,0,0,1,.22-.52.74.74,0,0,1,.62-.27c.56,0,.85.37.85,1.11a2.34,2.34,0,0,1-1.07,1.75l-.38-.29A1.65,1.65,0,0,0,727.13,1161.33Z" transform="translate(-523.5 -787.5)" style="fill:#fff"/><path d="M753.23,1167.11H737.55v-.85h2.8v-10h3.73a12.39,12.39,0,0,0,.7-1.71h-6.92v-.84h7.23c.28-.87.46-1.51.56-1.92l.9.21c-.22.84-.38,1.41-.47,1.71H753v.84h-7.19c-.13.36-.35.93-.67,1.71h5.32v10h2.79Zm-3.76-8.3v-1.69H741.3v1.69Zm0,2.47v-1.68H741.3v1.68Zm0,2.5v-1.69H741.3v1.69Zm0,2.48v-1.69H741.3v1.69Z" transform="translate(-523.5 -787.5)" style="fill:#fff"/><path d="M760.68,1156h-1.75v3.61a10.85,10.85,0,0,0,1.58-.65l.13.95c-.2.1-.78.33-1.71.7v5.74a1.17,1.17,0,0,1-1.33,1.3c-.38,0-.84,0-1.38,0l-.3-1c.42,0,.77,0,1,0a1.88,1.88,0,0,0,.88-.12.39.39,0,0,0,.17-.35v-5.2l-2.2.72-.2-.91q1.07-.3,2.4-.81v-4h-2.37V1155H758v-3.21h.92V1155h1.75Zm10.61,5.71h-2.4a8.15,8.15,0,0,1-1.89,3,36.11,36.11,0,0,1,4.18,2.27l-.54.76a26.26,26.26,0,0,0-4.36-2.36,14.91,14.91,0,0,1-5.66,2.22l-.56-.84a14.14,14.14,0,0,0,5.16-1.79c-.66-.3-1.65-.68-3-1.13.35-.51.79-1.24,1.32-2.18h-2.66v-.89h3.14a18.32,18.32,0,0,0,.92-1.89l.89.25a13.44,13.44,0,0,1-.76,1.64h3.1a7.77,7.77,0,0,0,.29-1l.9.16a7.8,7.8,0,0,1-.22.86h2.11Zm0-3.16H761v-.89h2.91a14.6,14.6,0,0,0-.9-2.82h-1.71v-.88h4.41a6.84,6.84,0,0,0-.7-1.76l.83-.42a11.09,11.09,0,0,1,.9,2.18h4.18v.88h-1.56q-.47,1.55-1,2.82h2.88Zm-3.37,3.16h-3.24c-.39.71-.72,1.28-1,1.72.67.23,1.49.55,2.48,1A7.73,7.73,0,0,0,767.88,1161.66Zm.45-6.87H764a23.05,23.05,0,0,1,.86,2.82h2.58A25.91,25.91,0,0,0,768.33,1154.79Z" transform="translate(-523.5 -787.5)" style="fill:#fff"/><path d="M789.25,1159.91l-.48.81a39.77,39.77,0,0,0-6.92-3.32v2.76h3.21a20.56,20.56,0,0,1-.38,2.29h2.61a13.44,13.44,0,0,1-.31,2.49,6.27,6.27,0,0,1-.47,1.63,1.79,1.79,0,0,1-.56.57,2,2,0,0,1-.73.3,10.69,10.69,0,0,1-1.62.07c-.47,0-.85,0-1.16,0l-.36-.89,2.81,0a1,1,0,0,0,.75-.41,6.74,6.74,0,0,0,.62-2.77h-2.77a13,13,0,0,0,.43-2.29h-4q-.23,4.67-5.81,6.54l-.67-.83q5.34-1.59,5.55-5.71h-2.83v-.93h4.77v-3.55a16.86,16.86,0,0,1-7,4.27l-.54-.85a16,16,0,0,0,6.47-3.61h-6.21v-.94h7.25v-1.84c-1.93.16-3.73.24-5.39.24l-.43-1q7.75.11,11.86-1.16l.59.81a33.85,33.85,0,0,1-5.69,1v1.93h7.33v.94h-7.33v.07A48.67,48.67,0,0,1,789.25,1159.91Z" transform="translate(-523.5 -787.5)" style="fill:#fff"/><path d="M593.93,1189.15h-1v-.84H580.27v-6h.94v5.12h5.44v-6.92H581v-5.91h1v5h4.65v-6.13h.91v6.13h4.59v-5h1v5.91h-5.49v6.92H593v-5.13h1Z" transform="translate(-523.5 -787.5)" style="fill:#fff"/><path d="M613.12,1187.34l-.54.85a16.54,16.54,0,0,1-7.12-6.08v7l-.91,0v-6.92a24.78,24.78,0,0,1-6.89,6l-.58-.76q5.43-3.35,7.47-6.9v-4.43h-7.09v-.91h7.09v-1.84h.91v1.84h7.3v.91h-7.3v4.42a15.83,15.83,0,0,0,3.26,4A14.89,14.89,0,0,0,613.12,1187.34Zm-10.18-5.78-.66.74a9.8,9.8,0,0,0-1.9-2.12A11.17,11.17,0,0,1,598,1183l-.72-.67a9.8,9.8,0,0,0,3.39-5.36l.89.22a9.47,9.47,0,0,1-.76,2.12A15,15,0,0,1,602.94,1181.56Zm9.33.6-.47.86a22.41,22.41,0,0,0-2.64-2.73,8.77,8.77,0,0,1-1.38,2.18l-.72-.6a11.61,11.61,0,0,0,2.17-4.79l.88.18a17,17,0,0,1-.61,2.12A20.5,20.5,0,0,1,612.27,1182.16Z" transform="translate(-523.5 -787.5)" style="fill:#fff"/><path d="M628.69,1189.15h-1V1188h-9.36v1.2h-1v-15.31h11.3Zm-1-10.9v-3.49h-9.36v3.49Zm0,4.3v-3.33h-9.36v3.33Zm0,4.47v-3.47h-9.36V1187Z" transform="translate(-523.5 -787.5)" style="fill:#fff"/><path d="M640.73,1188a1.2,1.2,0,0,1-.31.83,1.17,1.17,0,0,1-.86.35l-1.15,0q-.49,0-.93,0l-.34-1c.47,0,1.22.07,2.26.07a.33.33,0,0,0,.27-.14.45.45,0,0,0,.12-.31v-2.61H635.7a9.6,9.6,0,0,1-1.73,4.11l-.72-.65q1.71-2.25,1.71-6.5v-4h5.77Zm8.18-11.37H633.26v-.9h15.65Zm-9.12,7.7v-2.21H635.9c0,.46,0,1.2-.11,2.21Zm0-3.15v-2.07H635.9v2.07Zm0-6.1-.9.38a10.7,10.7,0,0,0-1.81-1.66l1-.4A11.38,11.38,0,0,1,639.79,1175Zm5.51-1.24a8.1,8.1,0,0,1-1.76,1.6l-1-.49a10.21,10.21,0,0,0,1.89-1.55ZM644,1186.13h-.9v-7.72h.9Zm3.57,1.7a1.35,1.35,0,0,1-.24.82,1.06,1.06,0,0,1-.6.41,8.05,8.05,0,0,1-1.39.08c-.39,0-.81,0-1.27,0l-.34-1,2.47.09c.3,0,.45-.16.45-.52V1178h.92Z" transform="translate(-523.5 -787.5)" style="fill:#fff"/><path d="M657.54,1188.78h-.91v-1.55h-3.89v1.91h-.91v-12.76h1.67a17.81,17.81,0,0,0,1.29-3.1l.89.19c-.21.63-.62,1.6-1.22,2.91h3.08Zm-.91-7.63v-3.87h-3.89v3.87Zm0,5.17v-4.27h-3.89v4.27Zm9.94-9.93c-.07,2.7-.2,5.2-.39,7.52a19.46,19.46,0,0,1-.58,4.08,1.88,1.88,0,0,1-.74.88,3.94,3.94,0,0,1-1.72.26l-1.46,0-.29-.91c.5,0,1,0,1.6,0h1a.9.9,0,0,0,.47-.23,1.15,1.15,0,0,0,.35-.48,14.25,14.25,0,0,0,.29-2.07c.11-1.2.21-2.51.29-4s.13-2.84.16-4.19h-4.7a24.07,24.07,0,0,1-2.18,3.56l-.74-.52a19.21,19.21,0,0,0,3.36-6.92l.91.24a26.94,26.94,0,0,1-1,2.75Zm-3.32,8.07-.76.54a19,19,0,0,0-2.61-4.2l.77-.5A17.72,17.72,0,0,1,663.25,1184.46Z" transform="translate(-523.5 -787.5)" style="fill:#fff"/><path d="M677,1181.8l0,.91h-1.68v6.39h-1v-6.39h-2.31c0,2.84-.69,5-2.09,6.51l-.7-.72a7.91,7.91,0,0,0,1.87-5.79h-1.77v-.91h1.8v-3.68h-1.47v-.93h7.06v.93h-1.44v3.68Zm-4.51-5.71-.75.47a14.72,14.72,0,0,0-1.83-2.77l.69-.54A12.72,12.72,0,0,1,672.53,1176.09Zm1.86,5.71v-3.68h-2.25v3.68Zm2.16-8.09a16.67,16.67,0,0,1-1.8,2.88l-.79-.46a13.67,13.67,0,0,0,1.72-2.78Zm8.5,12.4a6.36,6.36,0,0,1-.62,2.45,1.93,1.93,0,0,1-1.43.37c-.93,0-1.36-.4-1.3-1.21l.76-9.15H679.1l-.22,2.29.53-.42a24.46,24.46,0,0,1,1.91,3.41l-.81.45a22.28,22.28,0,0,0-1.67-3.08l-.67,6.42c.67-.18,1.59-.5,2.77-1v1c-1.23.46-2.66.94-4.26,1.42l-.29-.9.82-.29,1.39-13.19h-1.47v-.92h7.65v.92H679.5l-.28,2.93h4.23l-.83,9.94c0,.25.15.38.56.38a1,1,0,0,0,.49-.14c.15-.09.27-.4.35-.93a8.63,8.63,0,0,0,.12-1.13Z" transform="translate(-523.5 -787.5)" style="fill:#fff"/><path d="M694.8,1187c-2.4.71-4.8,1.29-7.19,1.76l-.34-.84c1-.2,2.13-.47,3.46-.79v-3.53h-3v-.87h7v.87h-3v3.29c1-.22,2-.5,3.13-.84Zm-4.88-5.27-.86.38a24.39,24.39,0,0,0-1.75-3.3,20.65,20.65,0,0,0,1.75-3.31l.82.32a17.67,17.67,0,0,1-1.53,3A33,33,0,0,1,689.92,1181.71Zm5-7h-7.42v-.88h7.42Zm-2.34,7-.78.38a21,21,0,0,0-1.84-3.3,21.57,21.57,0,0,0,1.63-3.27l.83.34a15.49,15.49,0,0,1-1.41,2.9A26.66,26.66,0,0,1,692.57,1181.69Zm2.64-.08-.79.4a18.13,18.13,0,0,0-1.8-3.25,19.26,19.26,0,0,0,1.64-3.25l.83.36a26.49,26.49,0,0,1-1.42,2.87A17.52,17.52,0,0,1,695.21,1181.61Zm7.76-6.85h-3.23c-.31,1-.56,1.77-.76,2.27h3.34v8.55h-4.44l.56.61a12.86,12.86,0,0,1-3.57,2.93l-.64-.7a11.47,11.47,0,0,0,3.44-2.84H696V1177h2a14,14,0,0,0,.74-2.27h-3.12v-.88H703Zm-1.59,4.7v-1.59H697v1.59Zm0,2.63v-1.75H697v1.75Zm0,2.64v-1.8H697v1.8Zm1.73,3.67-.54.75a14.8,14.8,0,0,0-3.33-2.26l.61-.72A14.58,14.58,0,0,1,703.11,1188.4Z" transform="translate(-523.5 -787.5)" style="fill:#fff"/><path d="M721.18,1188l-.32.89h-5.94a9.87,9.87,0,0,1-3.76-.61,6.88,6.88,0,0,1-2.62-2,14,14,0,0,1-2.6,2.81l-.7-.69a10.53,10.53,0,0,0,3.85-5.48l.92.23a9.24,9.24,0,0,1-1,2.31,5.79,5.79,0,0,0,4,2.4v-5.72h-7.63v-.9h15.7v.9h-7.14v2.31h6.14v.89h-6.14v2.6c.53,0,1.13,0,1.79,0Zm-2.39-8.17H707.71v-6h11.08Zm-1-3.5v-1.59h-9.11v1.59Zm0,2.62v-1.67h-9.11v1.67Z" transform="translate(-523.5 -787.5)" style="fill:#fff"/><path d="M728.55,1173.71c-.31.72-.67,1.46-1.06,2.23l-.59,1.09v12.17h-1v-10.59a16.27,16.27,0,0,1-2.18,2.63l-.55-.85a24.24,24.24,0,0,0,4.49-7.07Zm10.54,6h-5v9.46h-1v-9.46h-5v-1h5v-5.38h1v5.38h5Z" transform="translate(-523.5 -787.5)" style="fill:#fff"/><path d="M757.13,1175.53h-13.6v5.26c0,3.77-.54,6.54-1.6,8.31l-.74-.62q1.45-2.61,1.46-7.69v-6.1h6.5c-.19-.35-.4-.69-.63-1l.81-.38a8.4,8.4,0,0,1,.87,1.41h6.93Zm-8.07,7.44a18.52,18.52,0,0,1-4.85,4.46l-.56-.72a17.6,17.6,0,0,0,4.62-4.24Zm.78-5h-2.22v4.47h-.85V1178h-2.71v-.87h2.71v-1h.85v1h2.22Zm-3.87.7a8.94,8.94,0,0,1-1.11,3.31l-.72-.43a8.47,8.47,0,0,0,1-3.06Zm10.93,9.9-.68.63c-.39-.56-.76-1-1.1-1.47q-4.67.79-8.44,1.22l-.28-.72a20.89,20.89,0,0,0,5.36-5.21l.85.47a25.18,25.18,0,0,1-4.25,4.38q2.64-.26,6-.93a15.51,15.51,0,0,0-1.55-1.5l.65-.63A20.36,20.36,0,0,1,756.9,1188.6Zm-6.76-7h-.92c-.49,0-.74-.23-.74-.69v-2.35h.83v2c0,.14.08.21.25.21h.58Zm6.61-3.63h-2.88v4.5H753V1178h-2.34v-.87H753v-1h.92v1h2.88Zm-4.54.63a10.06,10.06,0,0,1-.77,3.33l-.76-.36a8.25,8.25,0,0,0,.71-3Zm4.74,3.19h-1.37c-.53,0-.79-.24-.79-.73v-2.5h.81v2.13c0,.18.1.27.31.27h1Z" transform="translate(-523.5 -787.5)" style="fill:#fff"/><path d="M767.43,1184.39h-1.34v-.74a3.39,3.39,0,0,1,.32-1.51,5,5,0,0,1,1.38-1.48,5.42,5.42,0,0,0,1.4-1.46,3,3,0,0,0,.36-1.45,2,2,0,0,0-.65-1.52,2.49,2.49,0,0,0-1.77-.59,4.11,4.11,0,0,0-2.93,1.24v-1.56a6,6,0,0,1,3.16-.92,3.83,3.83,0,0,1,2.65.89,3,3,0,0,1,1,2.33,3.66,3.66,0,0,1-.45,1.79,7,7,0,0,1-1.64,1.86,6.27,6.27,0,0,0-1.17,1.17,2.22,2.22,0,0,0-.3,1.25Zm-.67,2a1,1,0,0,1,.7.29,1,1,0,0,1,0,1.45.92.92,0,0,1-.71.31,1,1,0,1,1,0-2Z" transform="translate(-523.5 -787.5)" style="fill:#fff"/></g></svg>