<svg id="ef700144-aa54-4251-b1fb-9af398b1b41b" data-name="圖層 6" xmlns="http://www.w3.org/2000/svg" viewBox="0 0 327 617"><title>section6-illust3</title><rect x="0.5" y="0.5" width="326" height="616" rx="10" style="fill:#eaf6fa;stroke:#d3d3d3"/><circle cx="161.15" cy="102.85" r="80.65" style="fill:none;stroke:#91c8eb;stroke-miterlimit:10;stroke-width:4px"/><circle cx="161.72" cy="102.42" r="71.62" style="fill:none;stroke:#266baa;stroke-miterlimit:10;stroke-width:2px"/><circle cx="161.79" cy="102.48" r="64.69" style="fill:#1476a4"/><path d="M1363.62,889.07h-18.23v-1.85h8.48v-4.58h-6.38v-1.85h6.38v-4h-4.72a17.38,17.38,0,0,1-2.56,3.45l-1.43-1.37a14.74,14.74,0,0,0,3.84-7.2l1.88.44c-.24.89-.53,1.84-.86,2.84h3.85v-3.68h1.92v3.68h7.55v1.84h-7.55v4h6.69v1.85h-6.69v4.58h7.83Z" transform="translate(-1223.5 -787.5)" style="fill:#fff"/><path d="M1384.7,880.25h-15v3.44a8.62,8.62,0,0,1-1.94,6l-1.48-1.32a5.06,5.06,0,0,0,1.14-1.9,12.34,12.34,0,0,0,.48-4v-3.86h16.81Zm-.52-6h-3.13a10.11,10.11,0,0,1-1.84,1.52,41.16,41.16,0,0,1,4.51,1.22l-.7,1.28a46.51,46.51,0,0,0-5.62-1.46,20.67,20.67,0,0,1-8,1.37l-.55-1.43a25.49,25.49,0,0,0,5.24-.48,36.83,36.83,0,0,0-4.13-.52l.84-1.24c2,.18,4.07.48,6.29.88a10.17,10.17,0,0,0,1.64-1.14h-11.76v-1.69h7.8c-.18-.34-.38-.69-.6-1.06l1.91-.4c.29.46.56,1,.82,1.46h7.32Zm.56,14.91h-15.09v-1.55h6.73v-1.38h-4.25v-1.52h4.25v-1.21h-3.7a9.67,9.67,0,0,1-1.7,2l-1.16-1.47a7.93,7.93,0,0,0,2.33-3.34l1.74.52a2.77,2.77,0,0,1-.31.76h2.8v-1.26h1.91V882h5.51v1.56h-5.51v1.21h5v1.52h-5v1.38h6.45Z" transform="translate(-1223.5 -787.5)" style="fill:#fff"/><path d="M1405.81,887.41l-.51,1.85c-1.3.06-2.62.09-4,.09a39.53,39.53,0,0,1-7.39-.43,7.18,7.18,0,0,1-3.2-1.66,16.52,16.52,0,0,1-1.92,2.5l-1.43-1.09a14.85,14.85,0,0,0,3.47-6h-3.11v-1.78a22.79,22.79,0,0,0,2.69-3.58h-3v-1.77h5.16v1.77a33.27,33.27,0,0,1-2.51,3.58h2.61v1.78a14.93,14.93,0,0,1-1.11,3,5.41,5.41,0,0,0,2.87,1.53,37.93,37.93,0,0,0,6.18.33C1402.48,887.57,1404.18,887.52,1405.81,887.41Zm-13.08-13.86-1.28,1.26a19.86,19.86,0,0,0-3.56-2.37l1.2-1.39A15.83,15.83,0,0,1,1392.73,873.55ZM1404.94,886h-10.69V873.17h3.21a8.63,8.63,0,0,0,1.16-2.1l1.93.42c-.2.46-.49,1-.84,1.68h4.81v5.38h-8.47v1.7h8.89Zm-2.24-9.07v-2.12h-6.65v2.12Zm.42,7.43v-2.43h-7.07v2.43Z" transform="translate(-1223.5 -787.5)" style="fill:#fff"/><path d="M1415.17,887.08a48.5,48.5,0,0,1-6.36,2.55l-.5-1.71.82-.32v-8.15h1.53v7.65a3,3,0,0,0,.78-.28V878H1409v-6.27h5.28V878h-1.12v2.15h1.14v1.74h-1.14v4.15a19.29,19.29,0,0,0,1.8-.79Zm-2.63-10.78v-2.81h-1.78v2.81Zm6,1.85-1,2.22v9.24h-1.7V883.4a8.45,8.45,0,0,1-1,1.09l-.84-1.76a15.91,15.91,0,0,0,2.92-5.33Zm.73-6.44a17.53,17.53,0,0,1-3.74,5.16l-.86-1.66a16.17,16.17,0,0,0,3-4.14Zm3,3.08-.9,1.45a7,7,0,0,0-.8-.9,16.35,16.35,0,0,1-1.62,2.54l-1.24-1.18a15.32,15.32,0,0,0,2.6-5.53l1.69.28a14.29,14.29,0,0,1-.78,2.37A13.64,13.64,0,0,1,1422.33,874.79ZM1427,887.6l-.59,1.83c-3.24.11-5.28-.9-6.14-3a18.43,18.43,0,0,1-.88,3.24l-1.49-1.16a26.1,26.1,0,0,0,1.16-9h1.73a20.82,20.82,0,0,1,0,2.26l-.07,1.31a6.22,6.22,0,0,0,.38,1.43,5.8,5.8,0,0,0,1.16,2v-7.81H1424v2.84h2.35v1.7H1424v4.22A11,11,0,0,0,1427,887.6Zm-.06-10.76-1.14,1.44a13.6,13.6,0,0,0-1.66-2.42,15.71,15.71,0,0,1-1.32,2.27l-1.39-1a17.76,17.76,0,0,0,2.57-6l1.68.28a27.12,27.12,0,0,1-.86,2.77A23.26,23.26,0,0,1,1427,876.84Z" transform="translate(-1223.5 -787.5)" style="fill:#fff"/><path d="M1351.48,905.87c-.46.24-1.1.54-1.91.9V913a1.89,1.89,0,0,1-.27,1.06,1.42,1.42,0,0,1-.69.56,5.13,5.13,0,0,1-1.53.15c-.38,0-.74,0-1.08,0l-.46-1.91c.74.07,1.31.1,1.72.1a.42.42,0,0,0,.34-.18.57.57,0,0,0,.15-.38v-4.85c-.79.31-1.5.56-2.15.75l-.36-1.77a17,17,0,0,0,2.51-.88v-4h-2.28v-1.78h2.28v-3.34h1.82v3.34h1.62v1.78h-1.62v3.3c.76-.32,1.4-.61,1.91-.86Zm12.22,8.57h-12.32v-1.76h5.3V909h-4.56v-1.83h11.1V909h-4.63v3.64h5.11Zm-.14-8.75h-3.69a1.35,1.35,0,0,1-1-.49,1.69,1.69,0,0,1-.44-1.16v-3.66H1357a6.4,6.4,0,0,1-1,3.52,6.81,6.81,0,0,1-2.79,2.53l-1.24-1.34a5.45,5.45,0,0,0,2.42-2,4.71,4.71,0,0,0,.92-2.76h-1.58v2h-1.89v-3.75h4.86a6.52,6.52,0,0,0-1-1.83l1.89-.61a19.31,19.31,0,0,1,1.24,2.44h4.65v3.82h-1.9v-2.11h-1.44v3.16c0,.31.14.46.42.46h3Z" transform="translate(-1223.5 -787.5)" style="fill:#fff"/><path d="M1378.1,904.49h-4.83v2.12h4.11v6c0,.87-.59,1.31-1.78,1.31a8.74,8.74,0,0,1-1.09-.07l-.58-1.81c.09,0,.51,0,1.25,0a.39.39,0,0,0,.24-.12.31.31,0,0,0,.14-.24v-3.35h-2.29v6.46h-1.89v-6.46H1369v5.5h-1.81v-7.24h4.17v-2.12h-5v-1.73h5V900.6h-2.68a16.49,16.49,0,0,1-.88,1.62l-1.53-1.08a16.21,16.21,0,0,0,2-4.53l1.72.48a14.09,14.09,0,0,1-.56,1.77h2v-2.4h1.89v2.4h4.39v1.74h-4.39v2.16h4.83Zm2.65,6.45H1379v-13h1.77Zm3.47,2.4a1.22,1.22,0,0,1-.62,1c-.41.29-1.56.43-3.46.43l-.74-1.85c.62,0,1.12.06,1.51.06a4.35,4.35,0,0,0,1.24-.1.42.42,0,0,0,.18-.4v-16h1.89Z" transform="translate(-1223.5 -787.5)" style="fill:#fff"/><path d="M1396.22,913.18a1.61,1.61,0,0,1-.3,1,1.45,1.45,0,0,1-.7.52,4.61,4.61,0,0,1-1.4.14l-1.26,0-.44-1.74c.34,0,.71,0,1.12,0a2.93,2.93,0,0,0,1-.09.31.31,0,0,0,.15-.28v-2.27c-2.46,1.07-3.74,1.6-3.85,1.59l-.48-.88a10.9,10.9,0,0,1-1.22,3.74l-1.49-1.26a11.62,11.62,0,0,0,1-5.65v-4.53h7.84Zm1.32-11.56-1.51,1a9.44,9.44,0,0,0-.74-1.12q-3.37.59-7.36.92l-.44-1.44a14.11,14.11,0,0,0,3.45-4.65l1.81.58a16,16,0,0,1-2.65,3.65,39.72,39.72,0,0,0,4.07-.52,12.1,12.1,0,0,0-1.5-1.6l1.54-1.05A22.1,22.1,0,0,1,1397.54,901.62Zm-3.15,7v-3.45h-4.09v1.14a19.4,19.4,0,0,1,3.63.76l-.63,1.55a20.16,20.16,0,0,0-3-.65c0,.75,0,1.55-.09,2.39A28,28,0,0,0,1394.39,908.64Zm11.42,2.48a5.66,5.66,0,0,1-.45,2.59,2.68,2.68,0,0,1-.78.74,10.26,10.26,0,0,1-3.12.24,9,9,0,0,1-2.57-.21,1.51,1.51,0,0,1-.75-.68,2.17,2.17,0,0,1-.26-1v-7.37h1.83v2.7h5.47v1.67h-5.47v2.78a.38.38,0,0,0,.44.43h3.09a.59.59,0,0,0,.56-.36,6.68,6.68,0,0,0,.26-2Zm-.25-6.41h-5.83a1.69,1.69,0,0,1-1.31-.53,1.9,1.9,0,0,1-.5-1.36v-6.27h1.83v2.33h5.45v1.66h-5.45v2.12a.36.36,0,0,0,.15.25.44.44,0,0,0,.29.13h5.37Z" transform="translate(-1223.5 -787.5)" style="fill:#fff"/><path d="M1425.8,900c0,3.75-.1,6.77-.25,9.05a14.57,14.57,0,0,1-.66,4.24,2.48,2.48,0,0,1-1.11,1.15,8.65,8.65,0,0,1-3.1.34c-.48,0-.94,0-1.4,0l-.71-1.95c.69,0,1.85.06,3.49.06a1.22,1.22,0,0,0,1.15-.75,15.29,15.29,0,0,0,.29-2.37c.12-1.36.2-2.71.25-4.06l.11-3.88h-6.09a16.58,16.58,0,0,1-2.12,7.86,15.93,15.93,0,0,1-5.83,5.13l-1.26-1.55a14.55,14.55,0,0,0,5-3.86c1.34-1.63,2.12-4.16,2.36-7.58h-6.67V900H1416c.08-1.1.11-2.31.09-3.62H1418c0,1,0,2.24-.12,3.62Z" transform="translate(-1223.5 -787.5)" style="fill:#fff"/><circle cx="65.89" cy="243.01" r="37.86" style="fill:none;stroke:#2f95b5;stroke-miterlimit:10"/><path d="M1287.25,1030.49h-1.6v-1.39h-12v1.39h-1.55v-2.72h15.18Zm-7.89-6.92a14.43,14.43,0,0,1-2.84,1.16l0,.15a18.66,18.66,0,0,1,2.87,1.39l-.8,1.12a16.82,16.82,0,0,0-2.69-1.35,5.79,5.79,0,0,1-2.8,1.52l-.82-1.32a4.45,4.45,0,0,0,2.49-1.12,4.52,4.52,0,0,0,.7-2.95h1.48c0,.46-.06.84-.1,1.13a8.34,8.34,0,0,0,1.79-.81Zm-4.59.89-1.22.64a8.67,8.67,0,0,0-1.25-2l1.21-.66A8,8,0,0,1,1274.77,1024.46Zm11.64,13.48h-1.57v-.56h-10.4v.56h-1.58v-4.21h5.26a4.12,4.12,0,0,0,.42-.78h-4.1v-3.07h10.22V1033h-4.27a5.3,5.3,0,0,1-.41.78h6.43Zm-1.57-1.76V1035h-10.4v1.22Zm-1.68-4.4v-.72H1276v.72Zm4.19-5.3-.85,1.13a20,20,0,0,0-3.19-1.46,5.47,5.47,0,0,1-3,1.41l-.63-1.32a4.31,4.31,0,0,0,2.53-1,4.7,4.7,0,0,0,.65-3l1.46,0a7.25,7.25,0,0,1,0,1.15,9.1,9.1,0,0,0,2-1l.81,1.06a13.4,13.4,0,0,1-3,1.34l-.1.16A19.72,19.72,0,0,1,1287.35,1026.48Zm-5.14-1.88-1.25.57a8.2,8.2,0,0,0-1.09-2l1.26-.55A7,7,0,0,1,1282.21,1024.6Z" transform="translate(-1223.5 -787.5)" style="fill:#2f95b5"/><path d="M1305.58,1033.6h-7.06v4.32h-1.6v-4.32h-7.05v-1.35h7.05v-.91h-6.2V1030h6.2v-.88h-6.66v-1.35h4.11a4.85,4.85,0,0,0-.62-.77l1.2-.67h-5.12V1025h5.52v-2.68h1.57V1025h1.62v-2.68h1.57V1025h5.44v1.35h-5l1.06.56a5.89,5.89,0,0,1-.6.88h4.15v1.35h-6.67v.88h6.24v1.36h-6.24v.91h7.06Zm-10,1.51a24.87,24.87,0,0,1-4.68,2.72l-1-1.26a20.2,20.2,0,0,0,4.47-2.5Zm-1.56-11.14-1.21.87a11.41,11.41,0,0,0-1.6-1.59l1.21-.93A10.7,10.7,0,0,1,1294.05,1024Zm6,2.34h-4.73a12.07,12.07,0,0,1,1,1.44H1299A9.07,9.07,0,0,0,1300,1026.31Zm5.88,10.18-.88,1.29a33.44,33.44,0,0,0-5.16-2.45l.93-1.3A35.27,35.27,0,0,1,1305.91,1036.49Zm-1.74-13.45a10.44,10.44,0,0,1-1.54,1.67l-1.43-.85a10.72,10.72,0,0,0,1.58-1.58Z" transform="translate(-1223.5 -787.5)" style="fill:#2f95b5"/><circle cx="163.57" cy="245" r="45.5" style="fill:#2f95b5"/><path d="M1385.53,1040.54h-18.79v-1.9h8.74v-4.72h-6.57V1032h6.57v-4.14h-4.86a17.08,17.08,0,0,1-2.64,3.55l-1.47-1.4a15.33,15.33,0,0,0,4-7.43l1.93.45c-.25.93-.54,1.9-.89,2.93h4v-3.79h2V1026h7.77v1.9h-7.77V1032h6.89v1.9h-6.89v4.72h8.06Z" transform="translate(-1223.5 -787.5)" style="fill:#fff"/><path d="M1397.69,1025.05H1392a15.83,15.83,0,0,1-2.4,2.23l-1.26-1.56a8.27,8.27,0,0,0,3.29-3.68l2,.52a4.92,4.92,0,0,1-.43.86h4.57Zm9.11,6.43h-1.9v-2.09h-14.06v2.09h-1.91v-3.68h7.8a5.29,5.29,0,0,0-.53-1l2.22-.35a9.41,9.41,0,0,1,.69,1.32h7.69Zm-2,8.71h-11.51v.87h-1.89v-10.58h12.68v4.13h-10.79v1.16h11.51Zm-9.15-13.28-2.12.39a10.91,10.91,0,0,0-.91-1.52l2-.42A9.28,9.28,0,0,1,1395.69,1026.91Zm6.5,6.3V1032h-8.86v1.26Zm.71,5.52v-1.52h-9.57v1.52Zm4.44-13.68h-6.67a10.31,10.31,0,0,1-1.23,1.53l-1.75-.93a12.32,12.32,0,0,0,2.52-3.67l2,.56c-.18.37-.34.67-.47.88h5.64Zm-2.89,2-2.09.33a8.91,8.91,0,0,0-.82-1.7l2.1-.23A12.51,12.51,0,0,1,1404.45,1027Z" transform="translate(-1223.5 -787.5)" style="fill:#fff"/><circle cx="260.56" cy="243.01" r="37.86" style="fill:none;stroke:#2f95b5;stroke-miterlimit:10"/><path d="M1481.28,1032.86h-7.91a11.87,11.87,0,0,1-2.36,1.64v1.84c1.07-.17,2.2-.41,3.41-.71l0,1.41a39.57,39.57,0,0,1-5.18,1l-.31-1.34a.59.59,0,0,0,.43-.55v-.84a22.05,22.05,0,0,1-3.16,1.12l-.9-1.4a17.82,17.82,0,0,0,5.66-2.13h-5.48v-1.35h7.11a3.21,3.21,0,0,0-.39-.7l1.73-.25c.18.3.36.62.52,1h6.79Zm-5.44-6.46h-4.38v.76H1475v2a1.09,1.09,0,0,1-.36.86,4.22,4.22,0,0,1-2.26.25l-.34-1.16,1.31,0c.14,0,.21-.09.21-.26v-.53h-2.12v2.46H1470v-2.46h-2.17v2h-1.45v-3.15H1470v-.76h-4.51v-1.23H1470v-.8h-2.6c-.1.13-.29.36-.57.68l-1.23-.81a12.22,12.22,0,0,0,1.49-2l1.43.44a4.68,4.68,0,0,1-.31.53H1470v-1h1.47v1h3.77v1.21h-3.77v.8h4.38Zm5.59,10.31-.83,1.38q-5.11-.87-6.7-4.57l1.57-.28a6.76,6.76,0,0,0,1.42,1.79,10.42,10.42,0,0,0,2.48-1.79l1.32.92a10.75,10.75,0,0,1-2.33,1.75A14.42,14.42,0,0,0,1481.43,1036.71Zm-3.39-8.55h-1.49V1023H1478Zm2.78,1.08a1.32,1.32,0,0,1-.27.82,1.28,1.28,0,0,1-.61.49,5.54,5.54,0,0,1-1.59.14c-.31,0-.6,0-.89,0l-.45-1.46.73,0a5.86,5.86,0,0,0,1.33-.08.29.29,0,0,0,.2-.28v-6.66h1.55Z" transform="translate(-1223.5 -787.5)" style="fill:#2f95b5"/><path d="M1499.35,1036.16l-.46,1.51-2.41,0c-1.89,0-3.51,0-4.87-.06a10.27,10.27,0,0,1-3.3-.55,5.51,5.51,0,0,1-2-1.3,15.21,15.21,0,0,1-1.77,2.27l-1.19-1a10.42,10.42,0,0,0,2.94-5.11h-2.56v-1.38a19.1,19.1,0,0,0,2.39-3.19h-2.54v-1.41h4.38v1.41a27.7,27.7,0,0,1-2.27,3.15h2.26v1.42a13.32,13.32,0,0,1-1,2.67,4.35,4.35,0,0,0,2.33,1.33,36.17,36.17,0,0,0,6.13.31C1496.68,1036.22,1498,1036.2,1499.35,1036.16Zm-11.56-11.85-1.06,1.12a12.73,12.73,0,0,0-2.76-2.25l1.06-1.12A13.77,13.77,0,0,1,1487.79,1024.31Zm11.35,4.83h-10.69v-1.41h4.69v-2.06h-2.34a8.79,8.79,0,0,1-1.13,1.68l-1.29-.86a16.13,16.13,0,0,0,2.2-4.08l1.43.32a9.39,9.39,0,0,1-.53,1.53h1.66v-2.07h1.59v2.07h3.8v1.41h-3.8v2.06h4.41Zm-1.18,5.94h-8.28v-4.9H1498Zm-1.6-1.37v-2.12h-5.09v2.12Z" transform="translate(-1223.5 -787.5)" style="fill:#2f95b5"/><rect x="23.5" y="309.5" width="279" height="131" rx="10" style="fill:#2f95b5"/><path d="M1282.68,1125.12h-3.59v1.15H1282v3h-2.94v.38a17.49,17.49,0,0,1,2.65,1.34l-.4.81a18.59,18.59,0,0,0-2.25-1.24v1.84h-.88v-2.2a17.31,17.31,0,0,1-3.39,2.27l-.61-.76a13.54,13.54,0,0,0,3.71-2.44h-2.81v-3h3.1v-1.15h-3.85v-.87h3.85v-1h.88v1h3.59Zm7.24,13.55h-15.68v-.85h3.16V1135h.9v2.84h3.42V1134h-7v-.84h14.89v.84h-6.88v1.39h6.21v.81h-6.21v1.6h7.24Zm-11.71-10.28v-1.29H1276v1.29Zm2.92,0v-1.29h-2v1.29Zm8.88,3.19-.49.84a9,9,0,0,1-3.18-1.61,17.57,17.57,0,0,1-3.47,1.65l-.64-.77a12.73,12.73,0,0,0,3.48-1.55,7.35,7.35,0,0,1-1.25-2.08l.81-.39a6,6,0,0,0,1.16,1.89,5.57,5.57,0,0,0,1.58-3.46h-2.9a10.14,10.14,0,0,1-2,2.44l-.65-.6a10,10,0,0,0,3.08-4.74l.8.35a7.92,7.92,0,0,1-.69,1.69h4.25v.86h-1a6.45,6.45,0,0,1-1.84,4.09A7.85,7.85,0,0,0,1290,1131.58Z" transform="translate(-1223.5 -787.5)" style="fill:#fdfefe"/><path d="M1297.76,1137.66a1.41,1.41,0,0,1-.3.92,1.25,1.25,0,0,1-1,.37h-.68l-.26-.86h1.15a.3.3,0,0,0,.19-.09.28.28,0,0,0,.1-.18v-2.48a20.41,20.41,0,0,1-2.43,1.19l-.25-.45a8.36,8.36,0,0,1-1.18,2.84l-.71-.41a8.87,8.87,0,0,0,1.28-4.56v-3.57h4.14Zm1.2-7.56h-.86v-1h-4.81v1h-.88v-1.87h.93v-4.59h5v4.59h.63Zm-1.49-4.26v-1.35h-3.28v3.74h1.1v-2.39Zm-.56,8.47v-3.11h-2.47v1a22.24,22.24,0,0,1,2.17.81l-.4.77c-.39-.18-1-.42-1.77-.7a22.79,22.79,0,0,1-.16,2.59A18.18,18.18,0,0,0,1296.91,1134.31Zm.54-6.08v-1.58h-1.31v1.58Zm10.42,10.35h-9v-.85h2.76a8.51,8.51,0,0,0-.67-1.89h-.9v-3h6.85v3h-1.07c-.29.76-.55,1.39-.77,1.89h2.83Zm-.11-6.75h-8.54V1131h8.54Zm-.39-2h-7.6v-5.12H1302v-1.48h.8v1.48h1.49v-1.48h.8v1.48h2.24Zm-5.33-3v-1.36h-1.47v1.36Zm0,2.2v-1.44h-1.47V1129Zm3.94,6v-1.35h-5V1135Zm-1.16.81h-2.93l.66,1.89h1.52A16,16,0,0,0,1304.82,1135.84Zm-.49-9v-1.36h-1.49v1.36Zm0,2.2v-1.44h-1.49V1129Zm2.22-2.2v-1.36h-1.42v1.36Zm0,2.2v-1.44h-1.42V1129Z" transform="translate(-1223.5 -787.5)" style="fill:#fdfefe"/><path d="M1326,1135.68h-3.8v1.76c0,1-.56,1.51-1.68,1.51l-1.67,0-.43-.9q.57,0,1.41,0a3.76,3.76,0,0,0,1.23-.1.36.36,0,0,0,.18-.36v-1.91h-10.9v-.84h10.9v-.9h1v.9h3.8Zm-.24-10.51h-7.09v1.24h5.69v4.9h-.94a13.41,13.41,0,0,1,2.2,2.41l-.76.52a6.62,6.62,0,0,0-.86-1.08q-7.26.55-13.06.58l-.24-.83c2.19,0,4.53,0,7-.14v-1.46H1312v-4.9h5.73v-1.24h-7.15v-.82h7.15v-1.12h.94v1.12h7.09Zm-8,3.25v-1.2h-4.8v1.2Zm0,2.08v-1.28h-4.8v1.28Zm-1.17,7.23-.6.72a13.37,13.37,0,0,0-2.65-1.78l.6-.7A13,13,0,0,1,1316.52,1137.73Zm6.88-9.31v-1.2h-4.77v1.2Zm0,2.08v-1.28h-4.77v1.28Zm-.21,1.89a8.15,8.15,0,0,0-.67-.63l.59-.45h-4.48v1.4C1320.52,1132.61,1322,1132.51,1323.19,1132.39Z" transform="translate(-1223.5 -787.5)" style="fill:#fdfefe"/><path d="M1344,1134.23h-7.36v4.69h-.91v-4.69h-7.36v-.91h7.36V1132h.91v1.33H1344Zm-9.84,1.34a19.53,19.53,0,0,1-5,3l-.65-.74a17.73,17.73,0,0,0,4.83-2.86Zm9.28-7.36h-4.18a10.84,10.84,0,0,1-1.76,2c1.83.46,3.71,1,5.62,1.7l-.55.79a57.4,57.4,0,0,0-5.93-1.82q-2.38,1.52-7.56,1.58l-.47-.87c3.11,0,5.36-.34,6.72-1q-2.25-.55-4.23-.93a20,20,0,0,0,1.42-1.48h-3.62v-.86h4.38c.47-.56.93-1.14,1.37-1.75l.82.36a11.75,11.75,0,0,1-1,1.39h4.32a6.37,6.37,0,0,0,.5-.92l.91.18a4.27,4.27,0,0,1-.33.74h3.62Zm-.16-1.69h-1v-1.14h-12.26v1.14h-1v-2h6.76a11.83,11.83,0,0,0-.57-1.08l.89-.29c.17.27.44.73.8,1.37h6.29Zm-5.18,1.69h-4.4c-.23.29-.51.6-.82.94.74.15,1.93.42,3.55.8A6.82,6.82,0,0,0,1338.08,1128.21Zm5.76,9.64-.69.69a27.85,27.85,0,0,0-5.05-2.73l.67-.76A29.06,29.06,0,0,1,1343.84,1137.85Z" transform="translate(-1223.5 -787.5)" style="fill:#fdfefe"/><path d="M1351.28,1138.06h-.94v-1.43h-2.51v1.82h-.93v-14.16h4.38Zm-.94-8.11v-4.72h-2.51V1130Zm0,5.75v-4.84h-2.51v4.84Zm11.28-9.61h-4.2v2.61h3.72v.9h-8.44v-.9h3.78v-2.61h-4.41v-.95h4.41v-2h.94v2h4.2Zm.41,6.64h-2v4.66a1.29,1.29,0,0,1-.5,1.2,4.12,4.12,0,0,1-1.91.29h-1l-.38-1q.87.06,1.53.06a2.66,2.66,0,0,0,1.13-.14.5.5,0,0,0,.23-.47v-4.62h-7v-.92h7v-1.67h.93v1.67h2Zm-5.42,3.64-.81.48a14.86,14.86,0,0,0-2.33-2.75l.79-.54A18,18,0,0,1,1356.61,1136.37Z" transform="translate(-1223.5 -787.5)" style="fill:#fdfefe"/><path d="M1371.4,1129.42H1366v9.48h-1v-15.31h6.32Zm-.93-3.42v-1.51H1366V1126Zm0,2.54v-1.64H1366v1.64Zm5.21,8.73h-7v-6.39h7Zm-.92-3.71v-1.8h-5.21v1.8Zm0,2.83v-1.94h-5.21v1.94Zm4.52,1.08a1.39,1.39,0,0,1-.4,1.06,2.06,2.06,0,0,1-1.45.39h-1l-.34-.93q.42,0,1.62,0a.54.54,0,0,0,.42-.18.61.61,0,0,0,.18-.43v-8H1373v-5.83h6.24Zm-.93-11.47v-1.51H1374V1126Zm0,2.54v-1.64H1374v1.64Z" transform="translate(-1223.5 -787.5)" style="fill:#fdfefe"/><path d="M1388.53,1136.2a16.26,16.26,0,0,1-5.61,2.94l-.58-.83a16.33,16.33,0,0,0,5.46-2.71Zm9.54-1.32h-15.68V1134h2.85v-7.9h-2.66v-.9h2.66v-1.87h1v1.87h8v-1.87h1v1.87h2.58v.9h-2.58v7.9h2.9Zm-3.87-6.92v-1.89h-8V1128Zm0,3v-2.16h-8V1131Zm0,3v-2.12h-8V1134Zm3.89,4.38-.57.79a30.12,30.12,0,0,0-5.62-2.72l.44-.77A28,28,0,0,1,1398.09,1138.35Z" transform="translate(-1223.5 -787.5)" style="fill:#fdfefe"/><path d="M1416.07,1128.37h-2.86l-.16,1.82H1403l.17-1.82h-2.77v-.68h2.86l.19-1.74h10l-.17,1.74h2.78Zm-2.28,8.16h-7.3l.4.56a16.75,16.75,0,0,1-5.83,1.91l-.53-.84a16.55,16.55,0,0,0,5.65-1.63h-3.47v-5.42h11.08Zm1.62-9.85h-.92V1125H1402v1.62h-.93v-2.4h6.67a4.23,4.23,0,0,0-.46-.77l.86-.31q.22.34.63,1.08h6.65Zm-2.54,6v-.83h-9.3v.83Zm0,1.56v-.84h-9.3v.84Zm0,1.57V1135h-9.3v.85Zm-5.17-7.44h-3.61l-.11,1.08h3.63Zm.17-1.7h-3.61l-.12,1h3.65Zm4.4,1.7h-3.64l-.09,1.08h3.65Zm.21-1.7h-3.66l-.09,1h3.65Zm3.36,11.53-.36.78a28,28,0,0,0-6-1.34l.38-.72A29.54,29.54,0,0,1,1415.84,1138.2Z" transform="translate(-1223.5 -787.5)" style="fill:#fdfefe"/><path d="M1434.06,1136.48h-7.31v1a1.67,1.67,0,0,1-.23.9,1,1,0,0,1-.67.46,7.34,7.34,0,0,1-1.49.1h-1l-.34-1c.84,0,1.64,0,2.39,0,.28,0,.42-.13.42-.4v-1.11h-7.38v-.88h7.38v-1.22h-6.38v-.84h6.38v-1.15c-.91,0-2.71,0-5.41,0l-.32-.86,1.76,0a84.71,84.71,0,0,0,10-.53l.39.84c-1.56.18-3.39.32-5.5.43v1.22h6.3v.84h-6.3v1.22h7.31Zm-.52-7.3h-.92v-2.91h-12.76v2.91h-.92v-3.78h6.83v-2.23h.93v2.23h6.84Zm-10.26-4.69-.72.59a9.25,9.25,0,0,0-1.93-1.28l.76-.63A8.46,8.46,0,0,1,1423.28,1124.49Zm7.59,5.85h-9.23v-3h9.23Zm-.92-.85v-1.29h-7.37v1.29Zm1.89-5.71a8.17,8.17,0,0,1-1.94,1.16l-.81-.64a9.39,9.39,0,0,0,1.94-1.1Z" transform="translate(-1223.5 -787.5)" style="fill:#fdfefe"/><path d="M1441.71,1131c-.81.36-1.47.64-2,.85v5.6a1.4,1.4,0,0,1-.39,1.14,2.59,2.59,0,0,1-1.58.32h-.81l-.3-1,1,0a2,2,0,0,0,.91-.13.51.51,0,0,0,.19-.45v-5.14c-.58.24-1.31.51-2.16.81l-.31-.94c.78-.25,1.61-.55,2.47-.9v-4h-2.36v-.89h2.36v-3.19h.94v3.19h1.71v.89h-1.71v3.62c.75-.3,1.36-.56,1.83-.79Zm10.37,7.58H1441.4v-.89h5.07v-4.14h-4.28v-.93h9.63v.93h-4.42v4.14h4.68Zm0-7.58h-2.77a1.19,1.19,0,0,1-1.37-1.33v-3.62h-1.75a6.62,6.62,0,0,1-3.28,5.61l-.67-.72a5.52,5.52,0,0,0,3-4.89H1443v2.12h-.93v-3h4.42a13.09,13.09,0,0,0-.9-1.66l.85-.36a9.84,9.84,0,0,1,1,2h4.32v3.08h-.89v-2.16h-2.12v3.51c0,.35.2.52.58.52h2.67Z" transform="translate(-1223.5 -787.5)" style="fill:#fdfefe"/><path d="M1460.66,1138.58h-.91V1137h-3.89v1.91H1455v-12.77h1.67a16.68,16.68,0,0,0,1.28-3.09l.9.19c-.21.63-.62,1.6-1.22,2.9h3.08Zm-.91-7.63v-3.87h-3.89V1131Zm0,5.17v-4.27h-3.89v4.27Zm9.93-9.93c-.07,2.7-.2,5.2-.39,7.52a19.06,19.06,0,0,1-.57,4.08,1.9,1.9,0,0,1-.75.88,3.88,3.88,0,0,1-1.72.26l-1.45,0-.29-.91,1.59,0h1a.93.93,0,0,0,.47-.23,1.24,1.24,0,0,0,.35-.48,13.46,13.46,0,0,0,.28-2.07c.12-1.2.22-2.51.29-4s.13-2.84.17-4.19H1464a25,25,0,0,1-2.18,3.56l-.74-.52a19,19,0,0,0,3.35-6.92l.92.24c-.3,1-.62,1.88-1,2.75Zm-3.31,8.07-.76.54a19,19,0,0,0-2.61-4.2l.77-.5A17.72,17.72,0,0,1,1466.37,1134.26Z" transform="translate(-1223.5 -787.5)" style="fill:#fdfefe"/><path d="M1488.28,1126.72l-.4.86a22.17,22.17,0,0,1-4.7-1.6v.7h-5.82V1126a25.51,25.51,0,0,1-4.54,1.75l-.49-.82a18.21,18.21,0,0,0,7.77-3.87l1,.31-.28.27A18.39,18.39,0,0,0,1488.28,1126.72Zm-1.78,5.47H1474v-4.42h12.51Zm-.79,6.73h-.91v-.76h-9v.76h-1v-5.69h10.91Zm-5.93-7.59v-2.7h-4.87v2.7Zm5,3.94v-1.17h-9v1.17Zm0,2v-1.2h-9v1.2Zm-6.52-6.89-.67.5a13.7,13.7,0,0,0-1.35-1.53l.68-.45A6.6,6.6,0,0,1,1478.28,1130.41Zm4.47-4.6a18.27,18.27,0,0,1-2.58-1.6,18.4,18.4,0,0,1-2.42,1.6Zm2.82,5.52v-2.7h-4.84v2.7Zm-1.36-2a8.54,8.54,0,0,1-1.35,1.58l-.71-.5a6.18,6.18,0,0,0,1.3-1.39Z" transform="translate(-1223.5 -787.5)" style="fill:#fdfefe"/><path d="M1497.81,1136.39q-3.6,1.66-6.34,2.61l-.43-1a.72.72,0,0,0,.27-.53v-14.23h1v5.3h5.26v1h-5.26v8.22a42.72,42.72,0,0,0,5.26-2.23Zm8.34-2.74a16.69,16.69,0,0,1-.17,2.36,5.85,5.85,0,0,1-.36,1.64,1.87,1.87,0,0,1-.59.68,3.35,3.35,0,0,1-1.77.35l-1.73,0c-.77,0-1.31,0-1.63,0a1.2,1.2,0,0,1-.82-.44,1.38,1.38,0,0,1-.33-.94v-14.09h1v5.3h5.83v1h-5.83v7.77a.45.45,0,0,0,.21.42,6.72,6.72,0,0,0,1.81.12c1.15,0,2,0,2.41-.08s.74-.47.86-1.26a21.1,21.1,0,0,0,.18-3.06Z" transform="translate(-1223.5 -787.5)" style="fill:#fdfefe"/><path d="M1290,1159.31l-.37,1H1283a5.18,5.18,0,0,1-4.29-1.68,40.05,40.05,0,0,1-3.79,2l-.6-.84a35.25,35.25,0,0,0,8.05-4.82,27.55,27.55,0,0,0,5.35-6.23h-12.51v-1h6.88a10.21,10.21,0,0,0-1.4-2.54l1-.38a15.49,15.49,0,0,1,1.46,2.92h5.73v1a27.32,27.32,0,0,1-9.35,9.43,4.41,4.41,0,0,0,3.48,1.22Z" transform="translate(-1223.5 -787.5)" style="fill:#fdfefe"/><path d="M1299.69,1159.35a1.2,1.2,0,0,1-.31.83,1.17,1.17,0,0,1-.85.35h-1.16c-.33,0-.64,0-.93,0l-.33-1c.46,0,1.21.07,2.25.07a.33.33,0,0,0,.27-.14.45.45,0,0,0,.12-.31v-2.61h-4.09a9.6,9.6,0,0,1-1.73,4.11l-.72-.65q1.71-2.25,1.71-6.5v-4h5.77Zm8.18-11.37h-15.65v-.9h15.65Zm-9.12,7.7v-2.21h-3.89c0,.46,0,1.2-.11,2.21Zm0-3.15v-2.07h-3.89v2.07Zm0-6.1-.9.38a10.3,10.3,0,0,0-1.81-1.66l1-.4A10.93,10.93,0,0,1,1298.75,1146.43Zm5.51-1.24a7.85,7.85,0,0,1-1.76,1.6l-1-.49a10.21,10.21,0,0,0,1.89-1.55Zm-1.34,12.34H1302v-7.72h.91Zm3.56,1.7a1.37,1.37,0,0,1-.24.82,1,1,0,0,1-.6.41,8.05,8.05,0,0,1-1.39.08c-.39,0-.81,0-1.26,0l-.35-1,2.48.09c.29,0,.44-.16.44-.52v-9.71h.92Z" transform="translate(-1223.5 -787.5)" style="fill:#fdfefe"/><path d="M1317.36,1148.75c-.33.09-.69.17-1.1.24a17.69,17.69,0,0,1-1.51,7.18,31.36,31.36,0,0,1,2.49,2.23l-.74.72a20.63,20.63,0,0,0-2.22-2.11,16.85,16.85,0,0,1-3.31,3.49l-.71-.68a13.48,13.48,0,0,0,3.25-3.36,21.62,21.62,0,0,0-2.67-1.82c.45-1.84.79-3.49,1-5-.77.07-1.29.1-1.54.1v-.9a12.46,12.46,0,0,0,1.68-.15c.18-1.1.34-2.39.49-3.86h1c-.07.92-.22,2.17-.45,3.76a21.17,21.17,0,0,0,2.34-.38q0-.86,0-1.68h1c0,.64,0,1.13,0,1.48a7.86,7.86,0,0,0,1-.25Zm-2,.45a22.4,22.4,0,0,1-2.42.34c-.32,1.87-.64,3.41-1,4.62a22.33,22.33,0,0,1,2,1.43A15.92,15.92,0,0,0,1315.31,1149.2Zm10.68,3.87h-3.9V1159c0,.65-.17,1.07-.52,1.27a4.29,4.29,0,0,1-2,.3c-.43,0-.84,0-1.24,0l-.33-1a17.92,17.92,0,0,0,1.84.1,3.07,3.07,0,0,0,1-.1.37.37,0,0,0,.23-.36v-6.07h-4.31v-.94h4.31V1150a26.09,26.09,0,0,0,3.15-3.89h-7.11v-.93h8.22v1a27.32,27.32,0,0,1-3.25,4.17v1.73h3.9Z" transform="translate(-1223.5 -787.5)" style="fill:#fdfefe"/><path d="M1333.66,1148.89a23.81,23.81,0,0,1-1.79,2.66v9h-.94v-7.89a25.28,25.28,0,0,1-2.3,2.14l-.44-.9a18.72,18.72,0,0,0,4.67-5.47Zm-.44-3.59a16.08,16.08,0,0,1-4.45,3.92l-.56-.79a13.59,13.59,0,0,0,4.27-3.71Zm9.28,7.09h-6.85v7c1.3-.37,2.41-.71,3.34-1l.14.9c-1,.4-2.5.86-4.43,1.39l-.4-1a.86.86,0,0,0,.43-.83V1145.3h7.77Zm-.93-4.05v-2.11h-5.92v2.11Zm0,3.14v-2.26h-5.92v2.26Zm2.43,8.28-.49.91a9.5,9.5,0,0,1-5.35-7l.88-.25a11.48,11.48,0,0,0,.88,2.53,14.23,14.23,0,0,0,2.8-2.68l.76.58a14,14,0,0,1-3.13,2.89A8.41,8.41,0,0,0,1344,1159.76Z" transform="translate(-1223.5 -787.5)" style="fill:#fdfefe"/><path d="M1359.8,1147.05q-4.18,4.92-13.14,6.36l-.43-1a25.63,25.63,0,0,0,6.9-1.77,23.4,23.4,0,0,0-3.1-2.59,20.71,20.71,0,0,1-2.9,1.35l-.57-.82a15.78,15.78,0,0,0,6.39-3.93l1,.36a6.13,6.13,0,0,1-1.16,1.22h7Zm2,6.47a5.18,5.18,0,0,1-1,1.6,10.93,10.93,0,0,1-1.2,1.34,11.35,11.35,0,0,1-1.4,1.16,14.53,14.53,0,0,1-1.8,1.06,15.49,15.49,0,0,1-2.56,1,21.79,21.79,0,0,1-3.11.67,21.38,21.38,0,0,1-3,.22l-.45-1a20.67,20.67,0,0,0,8.26-1.48,18.75,18.75,0,0,0-3.16-2.88,16.8,16.8,0,0,1-4.07,1.42l-.52-.89a14.43,14.43,0,0,0,8.87-4.9l.89.38a16.21,16.21,0,0,1-1.33,1.43h5.59Zm-3.43-6.32h-6.85a4,4,0,0,1-.62.42,26,26,0,0,1,3.12,2.64A15.42,15.42,0,0,0,1358.39,1147.2Zm2.32,6.39h-5.56a14.7,14.7,0,0,1-1.82,1.19,26.79,26.79,0,0,1,3.13,2.85A10.27,10.27,0,0,0,1360.71,1153.59Z" transform="translate(-1223.5 -787.5)" style="fill:#fdfefe"/><path d="M1289.88,1178.38a9.46,9.46,0,0,1-.21,1.79,2.37,2.37,0,0,1-.52,1.15,1.64,1.64,0,0,1-.69.46,25.24,25.24,0,0,1-2.89.15c-1.69,0-3.2.06-4.51.06s-2.13,0-2.65,0a1.58,1.58,0,0,1-1.18-.53,2,2,0,0,1-.39-1.3v-7.37l-2.58.67v-1l2.58-.66V1168h1v3.51l4.08-1v-4.05h1v3.82l5.78-1.47a51.21,51.21,0,0,1-1.7,8.49l-.92-.2a38.38,38.38,0,0,0,1.42-7l-4.58,1.17v7.41h-1v-7.18l-4.08,1.07v7.78a1.41,1.41,0,0,0,.13.44.59.59,0,0,0,.56.32c.29,0,1.5,0,3.62,0a43.6,43.6,0,0,0,6.19-.2c.34-.14.55-1.1.66-2.9Z" transform="translate(-1223.5 -787.5)" style="fill:#fdfefe"/><path d="M1308.08,1169.92l-.4.86a22.05,22.05,0,0,1-4.69-1.6v.7h-5.83v-.68a24.92,24.92,0,0,1-4.54,1.75l-.48-.82a18.32,18.32,0,0,0,7.77-3.87l1,.31a3.05,3.05,0,0,1-.28.27A18.39,18.39,0,0,0,1308.08,1169.92Zm-1.78,5.47h-12.51V1171h12.51Zm-.79,6.73h-.91v-.76h-9v.76h-1v-5.69h10.9Zm-5.93-7.59v-2.7h-4.87v2.7Zm5,3.94v-1.17h-9v1.17Zm0,2v-1.2h-9v1.2Zm-6.52-6.89-.66.5a12.86,12.86,0,0,0-1.36-1.53l.69-.45A6.56,6.56,0,0,1,1298.08,1173.61Zm4.47-4.6a19.07,19.07,0,0,1-2.57-1.59,21,21,0,0,1-2.42,1.59Zm2.83,5.52v-2.7h-4.85v2.7Zm-1.36-2a8.21,8.21,0,0,1-1.36,1.58l-.7-.5a6.6,6.6,0,0,0,1.3-1.38Z" transform="translate(-1223.5 -787.5)" style="fill:#fdfefe"/><path d="M1318.65,1174.83h-3.45a10,10,0,0,1-.21,1.43,23.58,23.58,0,0,1,3.39,3.47l-.66.75a21.71,21.71,0,0,0-3-3.24,9.91,9.91,0,0,1-3.73,5l-.7-.69a8.67,8.67,0,0,0,4-6.68h-4v-.91h4.09c.09-1.16.14-2.51.17-4.05h-1.79a20.2,20.2,0,0,1-1.6,2.37l-.79-.55a18.74,18.74,0,0,0,3-5.36l.9.38a9.55,9.55,0,0,1-.94,2.23h4.92v.93h-2.74l-.14,4.05h3.34Zm6.66,7h-.93v-1.63h-3.82v1.63h-1v-13.7h5.71Zm-.93-2.56v-10.22h-3.82v10.22Z" transform="translate(-1223.5 -787.5)" style="fill:#fdfefe"/><path d="M1344.08,1181l-.24.9h-7.09c-2.62,0-4.56-.66-5.82-2a12.74,12.74,0,0,1-2,2.33l-.71-.55a10.16,10.16,0,0,0,3.37-6h-3v-.85q1.71-2.14,2.78-3.78h-3.09v-.8h4.14v.8c-.93,1.39-1.84,2.64-2.72,3.77h2.78v.86a16.71,16.71,0,0,1-1.14,3.36q1.59,1.93,5,1.93Zm-12.1-11.88-.74.59a12.36,12.36,0,0,0-2.48-2.64l.64-.71A13.09,13.09,0,0,1,1332,1169.09Zm12,.47h-5.3c-.21.57-.42,1.1-.65,1.6h4.74v8.28H1334v-8.28h3a12.44,12.44,0,0,0,.67-1.6h-4.86v-.86h11.14Zm-6.83-1.68-.83.49a13.67,13.67,0,0,0-1.72-1.54l.83-.51A18.54,18.54,0,0,1,1337.1,1167.88Zm4.73,5.71v-1.54h-6.91v1.54Zm0,2.52v-1.67h-6.91v1.67Zm0,2.5V1177h-6.91v1.65Zm.58-11.78a13.21,13.21,0,0,1-2,1.6l-.86-.57a8.69,8.69,0,0,0,2-1.53Z" transform="translate(-1223.5 -787.5)" style="fill:#fdfefe"/><path d="M1352.21,1169.23h-5.86l0-.91H1349a11.59,11.59,0,0,0-.74-1.71l.9-.28a16.07,16.07,0,0,1,.86,2h2.16Zm-.46,2.61h-5v-.94h5Zm0,2.47h-5v-.92h5Zm-.17,7.4h-.95v-.94h-2.78v1.37h-1v-6h4.7Zm-.95-1.88v-2.75h-2.78v2.75Zm11.37-1.67a7.31,7.31,0,0,1-.49,3.12,1.39,1.39,0,0,1-1.26.63h-1.48a1,1,0,0,1-.73-.34,1.07,1.07,0,0,1-.33-.78v-5.47h-1.66a7.71,7.71,0,0,1-3.34,7l-.73-.68a6.14,6.14,0,0,0,2.39-2.64,7.75,7.75,0,0,0,.78-3.68h-1.78v-4.79h7.3v4.79h-2v5.35a.28.28,0,0,0,.13.19.37.37,0,0,0,.23.11h1.19c.34,0,.55-.21.62-.64a23.34,23.34,0,0,0,.22-2.42Zm-5.78-11.21a15,15,0,0,1-3.35,3.52l-.78-.7a12.72,12.72,0,0,0,3.37-3.34Zm3.47,7.36v-2.77h-5.35v2.77Zm2.33-4.61-.74.7a18.12,18.12,0,0,0-3.48-3.27l.65-.7A29.63,29.63,0,0,1,1362,1169.7Z" transform="translate(-1223.5 -787.5)" style="fill:#fdfefe"/><path d="M1379.35,1172.69h-1v-3.24H1366v3.22h-1v-4.21h6.78a10.92,10.92,0,0,0-.79-1.78l1-.29a11.25,11.25,0,0,1,.83,2.07h6.5Zm-.47,4.65c-.12,2.25-.39,3.58-.81,4a2.17,2.17,0,0,1-1.56.61h-7.63a1.07,1.07,0,0,1-.81-.41,1.33,1.33,0,0,1-.36-.91V1171h1v4.6a22,22,0,0,0,8.19-2.92l.7.76a27.71,27.71,0,0,1-8.89,3.12v3.83c0,.35.19.52.56.52h7.39a.9.9,0,0,0,.9-.67,13.72,13.72,0,0,0,.34-3.27Z" transform="translate(-1223.5 -787.5)" style="fill:#fdfefe"/><path d="M1398.11,1181.42l-.65.81a16.44,16.44,0,0,1-4.64-4.29,17.32,17.32,0,0,1-2.59-6q-1.08,6.31-7.36,10.28l-.62-.82a19.52,19.52,0,0,0,3.07-2.42,15.31,15.31,0,0,0,2.45-3,13,13,0,0,0,1.49-4.31h-6.68v-.93h6.86a38.41,38.41,0,0,0,.31-4.38h1c-.06,1.57-.17,3-.34,4.38h7.38v.93h-6.68a16.29,16.29,0,0,0,2.66,6A15.37,15.37,0,0,0,1398.11,1181.42Z" transform="translate(-1223.5 -787.5)" style="fill:#fdfefe"/><path d="M1405.43,1174l-.64.65a12.66,12.66,0,0,0-1.24-2v9.53h-.92v-8.86a23.5,23.5,0,0,1-1.65,3.94l-.64-.79a23.29,23.29,0,0,0,2.24-6h-2.12v-.88h2.17v-3.15h.92v3.15H1405v.88h-1.45v.84A13.76,13.76,0,0,1,1405.43,1174Zm5.17,4.88-.76.45c-.13-.35-.23-.6-.3-.74a28,28,0,0,1-3.61,1.78l-.41-.79a.81.81,0,0,0,.32-.66v-11.91h4.08v7.78h-3.18v4.25a16.22,16.22,0,0,0,2.4-1.21,12.6,12.6,0,0,0-.79-1.42l.73-.47A20.85,20.85,0,0,1,1410.6,1178.92Zm-1.57-8.48V1168h-2.29v2.48Zm0,3.5v-2.6h-2.29v2.6Zm7-.24h-2.14c-.17.79-.36,1.53-.56,2.21h.49v4.81q0,.36.54.36c.49,0,.74-.22.74-.67l.07-2.73.85.32a9.78,9.78,0,0,1-.32,3.35,1.37,1.37,0,0,1-1.33.58c-1,0-1.45-.42-1.45-1.26v-3.55a21.09,21.09,0,0,1-3.35,5.1l-.62-.69a16.59,16.59,0,0,0,4-7.83h-2.18l.65-6h-.79v-.88h5.13v.88h-1.1c-.14,1.86-.34,3.55-.61,5.08h2Zm-2.3-6h-1.39l-.52,5.08h1.31A42,42,0,0,0,1413.77,1167.72Z" transform="translate(-1223.5 -787.5)" style="fill:#fdfefe"/><path d="M1423.55,1166.71c-.31.72-.67,1.46-1.06,2.23l-.59,1.09v12.17h-1v-10.59a16.27,16.27,0,0,1-2.18,2.63l-.55-.85a24.24,24.24,0,0,0,4.49-7.07Zm10.54,6h-5v9.46h-1v-9.46h-5v-1h5v-5.38h1v5.38h5Z" transform="translate(-1223.5 -787.5)" style="fill:#fdfefe"/><path d="M1452.13,1168.53h-13.6v5.26c0,3.77-.54,6.54-1.6,8.31l-.74-.62q1.45-2.61,1.46-7.69v-6.1h6.5c-.19-.35-.4-.69-.63-1l.81-.38a8.4,8.4,0,0,1,.87,1.41h6.93Zm-8.07,7.44a18.52,18.52,0,0,1-4.85,4.46l-.56-.72a17.6,17.6,0,0,0,4.62-4.24Zm.78-5h-2.22v4.47h-.84V1171h-2.72v-.87h2.72v-1h.84v1h2.22Zm-3.87.7a8.94,8.94,0,0,1-1.11,3.31l-.72-.43a8.47,8.47,0,0,0,1-3.06Zm10.93,9.9-.68.63c-.39-.56-.76-1-1.1-1.47q-4.66.79-8.44,1.22l-.28-.72a20.89,20.89,0,0,0,5.36-5.21l.85.47a25.18,25.18,0,0,1-4.25,4.38q2.64-.26,6.05-.93a15.51,15.51,0,0,0-1.55-1.5l.65-.63A20.36,20.36,0,0,1,1451.9,1181.6Zm-6.76-7h-.92c-.49,0-.74-.23-.74-.69v-2.35h.83v2c0,.14.08.21.25.21h.58Zm6.61-3.63h-2.88v4.5H1448V1171h-2.34v-.87H1448v-1h.92v1h2.88Zm-4.54.63a10.06,10.06,0,0,1-.77,3.33l-.76-.36a8.07,8.07,0,0,0,.7-3Zm4.75,3.19h-1.38c-.53,0-.79-.24-.79-.73v-2.5h.81v2.13c0,.18.1.27.31.27h1Z" transform="translate(-1223.5 -787.5)" style="fill:#fdfefe"/><path d="M1459.4,1181.26h-.94v-1.43H1456v1.82H1455v-14.16h4.38Zm-.94-8.11v-4.72H1456v4.72Zm0,5.75v-4.84H1456v4.84Zm11.28-9.61h-4.2v2.61h3.71v.9h-8.44v-.9h3.79v-2.61h-4.41v-1h4.41v-2h.94v2h4.2Zm.41,6.64h-2v4.66a1.29,1.29,0,0,1-.49,1.2,4.12,4.12,0,0,1-1.91.29h-1l-.38-1c.59,0,1.1.06,1.54.06a2.85,2.85,0,0,0,1.12-.13.51.51,0,0,0,.24-.48v-4.62h-7V1175h7v-1.67h.92V1175h2Zm-5.42,3.64-.81.48a14.86,14.86,0,0,0-2.33-2.75l.79-.54A18.59,18.59,0,0,1,1464.73,1179.57Z" transform="translate(-1223.5 -787.5)" style="fill:#fdfefe"/><path d="M1479.52,1172.62h-5.37v9.48h-1v-15.31h6.33Zm-.93-3.42v-1.51h-4.44v1.51Zm0,2.54v-1.64h-4.44v1.64Zm5.21,8.73h-7v-6.39h7Zm-.93-3.71V1175h-5.21v1.8Zm0,2.83v-1.94h-5.21v1.94Zm4.53,1.08a1.43,1.43,0,0,1-.4,1.06,2.06,2.06,0,0,1-1.45.39h-1l-.34-.93q.42,0,1.62,0a.54.54,0,0,0,.42-.18.59.59,0,0,0,.17-.43v-8h-5.3v-5.83h6.24Zm-.94-11.47v-1.51h-4.38v1.51Zm0,2.54v-1.64h-4.38v1.64Z" transform="translate(-1223.5 -787.5)" style="fill:#fdfefe"/><path d="M1492.35,1178.65a16.83,16.83,0,0,1-1.15,3.47l-.83-.38a16.25,16.25,0,0,0,1.17-3.36Zm6-.74h-7.87v-.86H1494v-1.75h-3v-.84h3v-1.52h-2.92v-6.11h6.73v6.11h-2.91v1.52h2.95v.84h-2.95v1.75h3.45Zm-4.35-5.81v-4.43h-2v4.43Zm-.36-1-.73.31a21.21,21.21,0,0,0-.61-2.61l.67-.31A20.15,20.15,0,0,1,1493.62,1171.07Zm.5,10.77-.9.14c0-.24,0-.48,0-.74a16.07,16.07,0,0,0-.22-2.59l.9-.09A27.89,27.89,0,0,1,1494.12,1181.84Zm2.11-.34-.85.21a14,14,0,0,0-.58-3.17l.85-.15A16.75,16.75,0,0,1,1496.23,1181.5Zm.66-9.4v-4.43h-2v4.43Zm-.26-3.37a14.15,14.15,0,0,1-.74,2.7l-.71-.29a12,12,0,0,0,.69-2.68Zm1.74,12.32-.81.26a13.12,13.12,0,0,0-.9-2.82l.86-.2A11.88,11.88,0,0,1,1498.37,1181.05Zm7.78-10.66h-3.8v3.47h3v8.26h-.93v-1.38H1500v1.38h-1v-8.26h2.32v-7.43h1v3.08h3.8Zm-1.7,9.43v-5.06H1500v5.06Z" transform="translate(-1223.5 -787.5)" style="fill:#fdfefe"/><path d="M1290,1202.57l-.31.89h-6a9.91,9.91,0,0,1-3.76-.61,7,7,0,0,1-2.62-2,14,14,0,0,1-2.6,2.81l-.7-.69a10.48,10.48,0,0,0,3.85-5.48l.93.22a9.18,9.18,0,0,1-1,2.32,5.79,5.79,0,0,0,3.95,2.4v-5.72h-7.63v-.9h15.7v.9h-7.14V1199h6.15v.89h-6.15v2.59c.54,0,1.13.06,1.79.06Zm-2.39-8.17h-11.08v-6h11.08Zm-1-3.5v-1.6h-9.12v1.6Zm0,2.61v-1.67h-9.12v1.67Z" transform="translate(-1223.5 -787.5)" style="fill:#fdfefe"/><path d="M1307.9,1189.27h-2v13.23a1,1,0,0,1-.42.89,1.62,1.62,0,0,1-1,.31c-1.6,0-2.67,0-3.21,0l-.34-1c.74.06,1.91.09,3.48.09.39,0,.57-.18.57-.55v-13h-12.74v-.91h15.68Zm-6.1,10.29h-7.61v-7.28h7.61Zm-.94-.93v-5.41h-5.73v5.41Z" transform="translate(-1223.5 -787.5)" style="fill:#fdfefe"/><path d="M1318.07,1198.27a56,56,0,0,1-7.57,4.71l-.38-.86,1.69-.91v-13.06h1v12.48a56.21,56.21,0,0,0,5.19-3.39Zm1.6-4.21-.86.45a24.83,24.83,0,0,0-3.43-5l.92-.44A25.79,25.79,0,0,1,1319.67,1194.06Zm6.17,9.09-.73.65a30.57,30.57,0,0,0-3.55-4.31,18.63,18.63,0,0,1-5.1,4.38l-.7-.78a16.52,16.52,0,0,0,4.27-3.27,10,10,0,0,0,2.42-4.59,36,36,0,0,0,.74-7.31h1q-.2,7.85-2.1,10.76A43.78,43.78,0,0,1,1325.84,1203.15Z" transform="translate(-1223.5 -787.5)" style="fill:#fdfefe"/><path d="M1343,1203.75h-1v-.84h-12.69v-6.05h.94V1202h5.44v-6.92h-5.62v-5.91h1v5h4.65V1188h.91v6.13h4.59v-5h1v5.91h-5.49V1202H1342v-5.13h1Z" transform="translate(-1223.5 -787.5)" style="fill:#fdfefe"/><path d="M1352.16,1188.46a10.34,10.34,0,0,1-2.06,1.76v3h-.91v-2.45c-.87.45-1.7.83-2.49,1.15l-.54-.81a12.92,12.92,0,0,0,5.17-3.23Zm7.3,12.31h-7.37l.55.54a20.44,20.44,0,0,1-5.81,2.49l-.58-.85a19.5,19.5,0,0,0,5.46-2.18h-2.52V1194h10.27Zm-.94-4.8v-1.15h-8.38V1196Zm0,2v-1.15h-8.38v1.15Zm0,2v-1.15h-8.38v1.15Zm3.15-8.85a2.56,2.56,0,0,1-.34,1.44,1.21,1.21,0,0,1-1,.53c-.46,0-1.22,0-2.3,0-2.29,0-3.56,0-3.82-.07a1,1,0,0,1-.63-.41,1.27,1.27,0,0,1-.25-.78V1188h.91v1.16h6.13v.81h-6.13v1.62c0,.4.28.6.83.6h5a.54.54,0,0,0,.57-.33,3.77,3.77,0,0,0,.12-1.15ZM1362,1203l-.49.86a25.77,25.77,0,0,0-5.08-1.81l.56-.84A31.77,31.77,0,0,1,1362,1203Z" transform="translate(-1223.5 -787.5)" style="fill:#fdfefe"/><path d="M1370.56,1203.38h-.91v-1.55h-3.89v1.91h-.91V1191h1.67a16.68,16.68,0,0,0,1.28-3.09l.9.19c-.21.63-.62,1.6-1.22,2.9h3.08Zm-.91-7.63v-3.87h-3.89v3.87Zm0,5.17v-4.27h-3.89v4.27Zm9.94-9.93c-.07,2.7-.21,5.2-.39,7.52a19.46,19.46,0,0,1-.58,4.08,2,2,0,0,1-.74.88,4,4,0,0,1-1.73.26l-1.45,0-.29-.91,1.6,0h1a.9.9,0,0,0,.47-.23,1.15,1.15,0,0,0,.35-.48,13.46,13.46,0,0,0,.28-2.07c.12-1.2.22-2.51.29-4s.14-2.84.17-4.19h-4.7a24.07,24.07,0,0,1-2.18,3.56l-.74-.52a19,19,0,0,0,3.35-6.92l.92.24a26.94,26.94,0,0,1-1,2.75Zm-3.32,8.07-.76.54a19,19,0,0,0-2.61-4.2l.77-.5A17.72,17.72,0,0,1,1376.27,1199.06Z" transform="translate(-1223.5 -787.5)" style="fill:#fdfefe"/><path d="M1279.54,1255.88h-1.8v2.9a10.45,10.45,0,0,0,1.28-.67l.17,1.76c-.42.25-.9.53-1.45.82v6.09a2.62,2.62,0,0,1-.48,1.64,2.37,2.37,0,0,1-1.93.62,10.14,10.14,0,0,1-1.1-.06l-.57-1.78.93,0a2.83,2.83,0,0,0,1.15-.14.49.49,0,0,0,.21-.44v-5.05a21.94,21.94,0,0,1-2.16,1l-.51-1.66q1.56-.62,2.67-1.17v-3.83h-2.5v-1.8h2.5v-3.37h1.79v3.37h1.8Zm12.39,11.22-.61,1.78a30.32,30.32,0,0,1-6.68-.38,5.78,5.78,0,0,1-3-1.86,13.25,13.25,0,0,1-1.41,2.54l-1.6-1a11.64,11.64,0,0,0,2.31-6.09l1.8.34a21,21,0,0,1-.5,2.42,5.1,5.1,0,0,0,2.59,1.89v-5.42h-5.14v-1.7h12v1.7h-5v1.77h4.1v1.68h-4.1V1267c.8.06,1.83.09,3.08.09Zm-1.45-8.78h-9.86V1251h9.86Zm-1.83-4.47v-1.2h-6.2v1.2Zm0,2.83v-1.3h-6.2v1.3Z" transform="translate(-1223.5 -787.5)" style="fill:#3e3e3e"/><path d="M1312.7,1259.85h-4.39v9.22h-1.89v-9.22h-5.2q-.23,5.55-5.57,9.29l-1.41-1.44a11.27,11.27,0,0,0,3.65-3.38,9.79,9.79,0,0,0,1.4-4.47h-4.84V1258h4.92c0-.87.07-1.69.07-2.45,0-.45,0-.89,0-1.32-1.75.49-3,.81-3.71.94l-.82-1.72a27.55,27.55,0,0,0,8.48-2.86l1.37,1.38a25.1,25.1,0,0,1-3.39,1.6c0,.58,0,1.19,0,1.83s0,1.66-.06,2.6h5.09v-7.28h1.89V1258h4.39Z" transform="translate(-1223.5 -787.5)" style="fill:#3e3e3e"/><path d="M1333.68,1268.52h-18.23v-1.84h8.48v-4.59h-6.37v-1.84h6.37v-4h-4.71a16.68,16.68,0,0,1-2.57,3.44l-1.42-1.36a14.77,14.77,0,0,0,3.84-7.21l1.87.44c-.23.9-.52,1.85-.86,2.84h3.85v-3.68h1.93v3.68h7.55v1.85h-7.55v4h6.68v1.84h-6.68v4.59h7.82Z" transform="translate(-1223.5 -787.5)" style="fill:#3e3e3e"/><path d="M1354.77,1259.71h-15v3.44a8.69,8.69,0,0,1-1.94,6l-1.49-1.32a4.94,4.94,0,0,0,1.15-1.9,12.77,12.77,0,0,0,.47-4V1258h16.82Zm-.53-6h-3.13a10.34,10.34,0,0,1-1.83,1.51,45.21,45.21,0,0,1,4.5,1.22l-.7,1.29a46.35,46.35,0,0,0-5.61-1.46,20.71,20.71,0,0,1-8,1.36l-.54-1.42a25.39,25.39,0,0,0,5.23-.48,36.5,36.5,0,0,0-4.12-.53l.84-1.24c2,.19,4.07.48,6.29.89a10.06,10.06,0,0,0,1.63-1.14H1337V1252h7.8c-.18-.34-.39-.69-.61-1l1.91-.4a15.57,15.57,0,0,1,.82,1.45h7.32Zm.57,14.91h-15.09v-1.55h6.72v-1.39h-4.25v-1.51h4.25V1263h-3.69a9.65,9.65,0,0,1-1.71,2l-1.16-1.47a7.9,7.9,0,0,0,2.33-3.34l1.75.52a2.91,2.91,0,0,1-.31.76h2.79v-1.26h1.91v1.26h5.51V1263h-5.51v1.21h5v1.51h-5v1.39h6.46Z" transform="translate(-1223.5 -787.5)" style="fill:#3e3e3e"/><path d="M1375.87,1266.86l-.5,1.86c-1.31.06-2.62.09-3.95.09a38.3,38.3,0,0,1-7.39-.44,7.35,7.35,0,0,1-3.21-1.65,15.9,15.9,0,0,1-1.92,2.5l-1.42-1.1a14.87,14.87,0,0,0,3.47-5.95h-3.11v-1.79a23,23,0,0,0,2.69-3.58h-3V1255h5.15v1.76a32.23,32.23,0,0,1-2.5,3.58h2.61v1.79a16.26,16.26,0,0,1-1.11,3,5.47,5.47,0,0,0,2.87,1.52,36.47,36.47,0,0,0,6.18.34C1372.55,1267,1374.25,1267,1375.87,1266.86ZM1362.79,1253l-1.28,1.26a19.81,19.81,0,0,0-3.55-2.38l1.2-1.38A15.56,15.56,0,0,1,1362.79,1253Zm12.22,12.43h-10.7v-12.81h3.22a9.4,9.4,0,0,0,1.16-2.1l1.93.42q-.31.69-.84,1.68h4.81V1258h-8.47v1.71H1375Zm-2.25-9.08v-2.11h-6.64v2.11Zm.42,7.44v-2.43h-7.06v2.43Z" transform="translate(-1223.5 -787.5)" style="fill:#3e3e3e"/><path d="M1385.23,1266.53a49.33,49.33,0,0,1-6.35,2.56l-.5-1.71.82-.32v-8.16h1.53v7.65a3.16,3.16,0,0,0,.78-.27v-8.8h-2.41v-6.28h5.27v6.28h-1.12v2.14h1.14v1.75h-1.14v4.15c.9-.36,1.5-.63,1.81-.79Zm-2.62-10.77V1253h-1.78v2.81Zm6,1.84-1,2.23v9.24h-1.71v-6.22a9.68,9.68,0,0,1-1,1.1l-.84-1.76a16.14,16.14,0,0,0,2.92-5.34Zm.74-6.44a17.71,17.71,0,0,1-3.75,5.16l-.86-1.65a16.56,16.56,0,0,0,3-4.14Zm3.05,3.09-.9,1.45a8.77,8.77,0,0,0-.8-.91,16.76,16.76,0,0,1-1.63,2.55l-1.24-1.18a15.4,15.4,0,0,0,2.61-5.53l1.68.28a13.14,13.14,0,0,1-.78,2.37A11.63,11.63,0,0,1,1392.4,1254.25Zm4.71,12.81-.59,1.82q-4.86.16-6.14-3a18.45,18.45,0,0,1-.89,3.24L1388,1268a26.41,26.41,0,0,0,1.16-9.06h1.73c0,.54,0,1.29-.05,2.26l-.07,1.31a6,6,0,0,0,.37,1.44,5.83,5.83,0,0,0,1.17,2v-7.81H1394V1261h2.35v1.7H1394v4.21A11,11,0,0,0,1397.11,1267.06Zm-.06-10.76-1.14,1.44a14.15,14.15,0,0,0-1.66-2.42,14.68,14.68,0,0,1-1.33,2.26l-1.38-.94a17.92,17.92,0,0,0,2.56-6l1.69.28a24.18,24.18,0,0,1-.87,2.76A21.63,21.63,0,0,1,1397.05,1256.3Z" transform="translate(-1223.5 -787.5)" style="fill:#3e3e3e"/><path d="M1405.64,1260.13c-.46.23-1.1.54-1.91.9v6.21a1.93,1.93,0,0,1-.27,1.07,1.48,1.48,0,0,1-.69.56,5.22,5.22,0,0,1-1.53.15,9.25,9.25,0,0,1-1.08-.06l-.46-1.9c.74.07,1.31.1,1.72.1a.42.42,0,0,0,.34-.18.58.58,0,0,0,.14-.38v-4.85c-.78.3-1.5.55-2.14.74l-.36-1.76a17.61,17.61,0,0,0,2.5-.88v-4h-2.27V1254h2.27v-3.34h1.83V1254h1.61v1.79h-1.61v3.3c.76-.33,1.4-.62,1.91-.86Zm12.22,8.57h-12.32v-1.77h5.29v-3.64h-4.55v-1.82h11.09v1.82h-4.63v3.64h5.12Zm-.15-8.76H1414a1.32,1.32,0,0,1-1-.49,1.67,1.67,0,0,1-.44-1.15v-3.66h-1.41a6.33,6.33,0,0,1-1,3.52,6.88,6.88,0,0,1-2.79,2.53l-1.25-1.34a5.43,5.43,0,0,0,2.43-1.95,4.78,4.78,0,0,0,.92-2.76h-1.58v2H1406v-3.75h4.85a6.4,6.4,0,0,0-1-1.84l1.89-.6a19.31,19.31,0,0,1,1.24,2.44h4.65v3.81h-1.9v-2.1h-1.45v3.16c0,.31.15.46.43.46h3Z" transform="translate(-1223.5 -787.5)" style="fill:#3e3e3e"/><path d="M1432.26,1258.74h-4.84v2.12h4.12v6c0,.88-.6,1.31-1.79,1.31a8.71,8.71,0,0,1-1.08-.07l-.58-1.8c.09,0,.5,0,1.24,0a.39.39,0,0,0,.25-.12.32.32,0,0,0,.13-.24v-3.35h-2.29v6.46h-1.88v-6.46h-2.37v5.49h-1.8v-7.24h4.17v-2.12h-5V1257h5v-2.17h-2.68a13.33,13.33,0,0,1-.89,1.62l-1.53-1.07a16.21,16.21,0,0,0,2-4.53l1.73.48a12.62,12.62,0,0,1-.57,1.76h2v-2.4h1.88v2.4h4.4v1.74h-4.4V1257h4.84Zm2.65,6.45h-1.77v-13h1.77Zm3.47,2.41a1.22,1.22,0,0,1-.62,1,8,8,0,0,1-3.46.43l-.74-1.85c.62,0,1.12,0,1.51,0a3.85,3.85,0,0,0,1.23-.1.38.38,0,0,0,.19-.39v-16h1.89Z" transform="translate(-1223.5 -787.5)" style="fill:#3e3e3e"/><path d="M1450.38,1267.44a1.58,1.58,0,0,1-.3,1,1.48,1.48,0,0,1-.7.53,5,5,0,0,1-1.41.14l-1.25,0-.44-1.75c.34,0,.71,0,1.12,0a2.93,2.93,0,0,0,1-.09.29.29,0,0,0,.15-.27v-2.27c-2.46,1.06-3.74,1.6-3.85,1.59l-.48-.88a11.12,11.12,0,0,1-1.22,3.74l-1.49-1.26q1-1.73,1-5.65v-4.53h7.85Zm1.32-11.56-1.51,1a8.47,8.47,0,0,0-.74-1.11c-2.25.39-4.7.69-7.36.92l-.44-1.45a14.17,14.17,0,0,0,3.45-4.64l1.81.57a16,16,0,0,1-2.65,3.65,36.66,36.66,0,0,0,4.06-.52,11.44,11.44,0,0,0-1.5-1.6l1.54-1A21.49,21.49,0,0,1,1451.7,1255.88Zm-3.15,7v-3.44h-4.1v1.14a17.88,17.88,0,0,1,3.64.76l-.63,1.54a22.24,22.24,0,0,0-3-.64c0,.75,0,1.55-.09,2.39A28.83,28.83,0,0,0,1448.55,1262.89Zm11.41,2.49a5.6,5.6,0,0,1-.44,2.59,2.82,2.82,0,0,1-.78.74,10.82,10.82,0,0,1-3.12.23,9,9,0,0,1-2.57-.21,1.46,1.46,0,0,1-.75-.68,2.13,2.13,0,0,1-.26-1v-7.38h1.83v2.71h5.47V1264h-5.47v2.79c0,.28.14.42.44.42h3.09a.59.59,0,0,0,.56-.36,6.62,6.62,0,0,0,.26-2Zm-.24-6.41h-5.83a1.72,1.72,0,0,1-1.31-.53,1.92,1.92,0,0,1-.5-1.36v-6.28h1.83v2.33h5.45v1.66h-5.45v2.13a.36.36,0,0,0,.15.24.42.42,0,0,0,.29.13h5.37Z" transform="translate(-1223.5 -787.5)" style="fill:#3e3e3e"/><path d="M1480,1254.29q0,5.63-.26,9a14.28,14.28,0,0,1-.65,4.24,2.52,2.52,0,0,1-1.12,1.16,8.78,8.78,0,0,1-3.09.34c-.48,0-.95,0-1.4,0l-.72-2c.69,0,1.86.06,3.49.06a1.2,1.2,0,0,0,.72-.22,1.08,1.08,0,0,0,.43-.54,14.66,14.66,0,0,0,.3-2.36c.12-1.36.2-2.72.25-4.07l.11-3.87h-6.1a16.47,16.47,0,0,1-2.12,7.86,16,16,0,0,1-5.82,5.13l-1.27-1.55a14.4,14.4,0,0,0,5-3.87c1.34-1.62,2.12-4.15,2.35-7.57h-6.66v-1.81h6.77c.08-1.09.11-2.3.09-3.62h1.93c0,1,0,2.25-.12,3.62Z" transform="translate(-1223.5 -787.5)" style="fill:#3e3e3e"/><path d="M1281.07,1275.73a6.6,6.6,0,0,1,4.9,2.07,6.73,6.73,0,0,1,2,4.83,6.86,6.86,0,0,1-2,5,6.71,6.71,0,0,1-5,2.06,6.63,6.63,0,0,1-4.93-2.07,6.83,6.83,0,0,1-2-4.95,6.7,6.7,0,0,1,2-4.91A6.81,6.81,0,0,1,1281.07,1275.73Z" transform="translate(-1223.5 -787.5)" style="fill:#3e3e3e"/><path d="M1296.26,1275q-.57,1.29-1.08,2.34l-.5,1v12.25h-1V1280a30.49,30.49,0,0,1-2.09,2.76l-.52-.9a25.59,25.59,0,0,0,4.25-7.22Zm10.66,3.18h-5.71v3.14h4.92v.91h-4.92v3.37h5.26v.94h-5.26v4h-1v-12.4h-1.67a20,20,0,0,1-2.56,4.22l-.63-.77a20.27,20.27,0,0,0,3.5-7l.84.36q-.15.6-.75,2.25h7.94Z" transform="translate(-1223.5 -787.5)" style="fill:#3e3e3e"/><path d="M1325,1286h-7.31v4.58h-1V1286h-7.41v-.9h7.41v-1.48h-6.62v-.84h6.62v-1.41h-7v-.88h4.71a7.26,7.26,0,0,0-1-1.4l.68-.43h-4.79v-.91h6v-2.91h.92v2.91h2v-2.91h.9v2.91h5.84v.91h-4.69l.65.45a6,6,0,0,1-.89,1.38h4.55v.88h-6.89v1.41h6.46v.84h-6.46v1.48H1325Zm-9.87,1.37a19.41,19.41,0,0,1-5.16,2.75l-.6-.79a17.36,17.36,0,0,0,5.07-2.58Zm-1.7-10.48-.79.47a11.43,11.43,0,0,0-1.77-1.81l.82-.57A14.14,14.14,0,0,1,1313.39,1276.89Zm6.62,1.77h-5.72a14.14,14.14,0,0,1,1.19,1.83h3.39A7.87,7.87,0,0,0,1320,1278.66Zm5,10.89-.54.74a33.7,33.7,0,0,0-5.26-2.85l.53-.72A31.81,31.81,0,0,1,1325,1289.55Zm-1.46-14.12a8.53,8.53,0,0,1-1.83,1.87l-.82-.46a12.57,12.57,0,0,0,1.8-1.82Z" transform="translate(-1223.5 -787.5)" style="fill:#3e3e3e"/><path d="M1334.33,1278.66h-1.41l.72.57a76.21,76.21,0,0,1-1.47,8.36c.4-.11,1-.3,1.78-.57v1q-4,1.24-6.6,1.87l-.1-1c.31-.06.91-.21,1.8-.46a62.74,62.74,0,0,0-.88-9.31l.78-.5h-1.48v-.93h3.18a9.23,9.23,0,0,0-1-2.71l.94-.34a14.81,14.81,0,0,1,1,3h2.68Zm-1.62,0h-3.59q.68,4.54,1,9.53c.47-.12.81-.22,1-.29A56.17,56.17,0,0,0,1332.71,1278.66Zm10.2.29h-4.67v4.14h3.89v7.47h-.94v-1.3h-5.64v1.3h-.93v-7.47h2.68v-8.23h.94V1278h4.67Zm-1.72,9.38V1284h-5.64v4.33Z" transform="translate(-1223.5 -787.5)" style="fill:#3e3e3e"/><path d="M1353,1276.86h-5a15.81,15.81,0,0,1-2,2l-.72-.58a11.44,11.44,0,0,0,3-3.67l.88.36a10.67,10.67,0,0,1-.59,1H1353Zm7.53,6h-.91v-2.5h-12.93v2.49h-.92v-3.35h6.8a4.59,4.59,0,0,0-.43-1l.8-.3a5,5,0,0,1,.58,1.29h7Zm-1.64,6.84h-10.12v.74h-1v-8.73h10.54v3.1h-9.59v1.42h10.12Zm-1.46-5.75v-1.39h-8.66V1284Zm.54,4.89v-1.75h-9.2v1.75Zm-6.85-10.22-.82.36a8.66,8.66,0,0,0-1-1.49l.81-.33A7.72,7.72,0,0,1,1351.14,1278.64Zm9.84-1.77h-5.76a12.89,12.89,0,0,1-1.37,1.41l-.74-.53a11.07,11.07,0,0,0,2.47-3.07l.88.34a9.12,9.12,0,0,1-.6,1H1361Zm-2.63,1.88-.79.3a11.06,11.06,0,0,0-.93-1.56l.86-.31A8.77,8.77,0,0,1,1358.35,1278.75Z" transform="translate(-1223.5 -787.5)" style="fill:#3e3e3e"/><path d="M1373.12,1281.39h-4.42v2.13h3.83v5c0,.75-.42,1.12-1.26,1.12H1370l-.35-.93h1.6a.4.4,0,0,0,.31-.15.55.55,0,0,0,.12-.35v-3.85h-2.94v6h-.91v-6h-2.86v5.37h-.9v-6.26h3.76v-2.13h-4.59v-.9h4.59v-2.43h-2.92a9.72,9.72,0,0,1-1,1.64l-.81-.44a12.94,12.94,0,0,0,2-4.24l.91.17a18.25,18.25,0,0,1-.72,2h2.51v-2.41h.91v2.41h4v.9h-4v2.43h4.42Zm2.17,5.94h-.94v-11.21h.94Zm3.17,1.87a1.12,1.12,0,0,1-.37.86,1.38,1.38,0,0,1-.95.35h-2.3l-.33-1h2.6a.39.39,0,0,0,.29-.17.58.58,0,0,0,.14-.34v-14.2h.92Z" transform="translate(-1223.5 -787.5)" style="fill:#3e3e3e"/><path d="M1388.13,1282.69h-2.77a11.52,11.52,0,0,1-3.13,7.11l-.79-.58a10.18,10.18,0,0,0,3-6.53h-3v-.94h3.09c.06-1.21.09-2.29.09-3.26h-2.78v-.88h2.8v-2.75h.89v2.75h2.37v.88h-2.37c0,1.14,0,2.23-.08,3.26h2.73Zm0,4.69-.72.66a16.17,16.17,0,0,0-1.83-3.23l.69-.59A21.18,21.18,0,0,1,1388.15,1287.38Zm8.9-.51a5.7,5.7,0,0,1-.45,2.9,1.94,1.94,0,0,1-1.63.59c-.87,0-1.42-.15-1.63-.44a1.31,1.31,0,0,1-.32-.8v-4.35h-1.73q-.09,4.2-4.34,5.76l-.59-.75q4.1-1.48,4-5h-1.64v-9.55h7.41v9.55h-2.15V1289a.53.53,0,0,0,.15.37c.1.11.39.17.87.17a1.07,1.07,0,0,0,.9-.33,3.79,3.79,0,0,0,.25-1.78c0-.24,0-.49,0-.75Zm-1.9-8.74v-2.05h-5.54v2.05Zm0,2.85v-2h-5.54v2Zm0,3v-2.11h-5.54V1284Z" transform="translate(-1223.5 -787.5)" style="fill:#3e3e3e"/><path d="M1407.16,1277h-5.43a9.69,9.69,0,0,1-1.81,1.73l-.56-.67a11.41,11.41,0,0,0,3-3.48l.81.29a12.57,12.57,0,0,1-.85,1.34h4.83Zm1,11.44h-3.73v2h-.91v-2h-4.14v-.8h4.14v-1.25h-3.22v-4.79h3.22v-1.27h-3.88v-.74h3.88v-.8h.91v.8H1408v.74h-3.62v1.27h3.2v4.79h-3.2v1.25h3.73Zm-4.64-4.83v-1.24h-2.3v1.24Zm0,2v-1.25h-2.3v1.25Zm2.35-7.06-.8.39a5.39,5.39,0,0,0-.91-1.26l.74-.42A6.2,6.2,0,0,1,1405.85,1278.59Zm.87,5.05v-1.24h-2.31v1.24Zm0,2v-1.25h-2.31v1.25Zm7.85-8.62h-5.39a10.69,10.69,0,0,1-1.43,1.72l-.71-.6a12.48,12.48,0,0,0,2.5-3.47l.85.27a9,9,0,0,1-.7,1.29h4.88Zm.49,10a9.2,9.2,0,0,1-.36,2.17,1.41,1.41,0,0,1-.75.93,6.3,6.3,0,0,1-1.88.19,5.24,5.24,0,0,1-2.58-.36,1.32,1.32,0,0,1-.43-1.08v-9.36h5.1c0,1.46-.07,2.69-.14,3.68a7.09,7.09,0,0,1-.29,1.86,1.26,1.26,0,0,1-.55.59,3.27,3.27,0,0,1-1.48.23,4.54,4.54,0,0,1-.65,0l-.26-.95a8.06,8.06,0,0,0,1,.07c.6,0,1-.12,1.12-.38a20.84,20.84,0,0,0,.34-4.25h-3.35v8.43a.53.53,0,0,0,.27.52,6.3,6.3,0,0,0,1.82.14c1,0,1.57-.07,1.68-.2a3.26,3.26,0,0,0,.32-1.17c.11-.64.17-1.1.19-1.36Zm-2.63-8.26-.81.38a7.45,7.45,0,0,0-1-1.28l.82-.34A6.63,6.63,0,0,1,1412.43,1278.8Z" transform="translate(-1223.5 -787.5)" style="fill:#3e3e3e"/><path d="M1281.07,1297.33a6.57,6.57,0,0,1,4.9,2.08,6.69,6.69,0,0,1,2,4.82,6.9,6.9,0,0,1-2,5,6.74,6.74,0,0,1-5,2,6.63,6.63,0,0,1-4.93-2.07,6.83,6.83,0,0,1-2-5,6.7,6.7,0,0,1,2-4.91A6.81,6.81,0,0,1,1281.07,1297.33Z" transform="translate(-1223.5 -787.5)" style="fill:#3e3e3e"/><path d="M1306.94,1308.86h-3.8v1.76c0,1-.56,1.51-1.68,1.51l-1.67,0-.43-.9q.57,0,1.41,0a4.1,4.1,0,0,0,1.23-.1.36.36,0,0,0,.18-.36v-1.91h-10.9V1308h10.9v-.91h1v.91h3.8Zm-.24-10.51h-7.09v1.24h5.69v4.9h-.94a13.41,13.41,0,0,1,2.2,2.41l-.76.52a6.62,6.62,0,0,0-.86-1.08q-7.26.56-13.06.58l-.24-.84c2.19,0,4.53,0,7-.14v-1.45h-5.73v-4.9h5.73v-1.24h-7.15v-.83h7.15v-1.11h.94v1.11h7.09Zm-8,3.25v-1.2h-4.8v1.2Zm0,2.08v-1.28h-4.8v1.28Zm-1.17,7.23-.6.72a13,13,0,0,0-2.65-1.78l.6-.7A13,13,0,0,1,1297.5,1310.91Zm6.88-9.31v-1.2h-4.77v1.2Zm0,2.08v-1.28h-4.77v1.28Zm-.21,1.89c-.34-.34-.56-.55-.67-.64l.59-.44h-4.48v1.4C1301.5,1305.79,1303,1305.68,1304.17,1305.57Z" transform="translate(-1223.5 -787.5)" style="fill:#3e3e3e"/><path d="M1325,1307.4h-7.36v4.7h-.91v-4.7h-7.36v-.9h7.36v-1.33h.91v1.33H1325Zm-9.84,1.35a19.53,19.53,0,0,1-5,3l-.65-.74a17.5,17.5,0,0,0,4.83-2.87Zm9.28-7.36h-4.18a10.84,10.84,0,0,1-1.76,2c1.83.46,3.71,1,5.62,1.7l-.55.79a55,55,0,0,0-5.93-1.82q-2.38,1.52-7.56,1.58l-.47-.88c3.11,0,5.36-.33,6.72-1q-2.25-.55-4.23-.93a18.15,18.15,0,0,0,1.42-1.48h-3.62v-.86h4.38c.47-.56.93-1.15,1.37-1.75l.82.36a11.75,11.75,0,0,1-1,1.39h4.32a6.37,6.37,0,0,0,.5-.92l.91.18a4.27,4.27,0,0,1-.33.74h3.62Zm-.16-1.69h-1v-1.14H1311v1.14h-1v-2h6.76c-.14-.31-.33-.67-.57-1.09l.89-.29c.17.28.44.74.8,1.38h6.29Zm-5.18,1.69h-4.4c-.23.29-.51.6-.82.93.74.16,1.93.43,3.55.81A6.82,6.82,0,0,0,1319.06,1301.39Zm5.76,9.63-.69.7a26.67,26.67,0,0,0-5.05-2.73l.67-.76A29.1,29.1,0,0,1,1324.82,1311Z" transform="translate(-1223.5 -787.5)" style="fill:#3e3e3e"/><path d="M1343.08,1310.91l-.21.92q-3.52,0-6.39,0a14.4,14.4,0,0,1-4.3-.6,6.23,6.23,0,0,1-2.37-1.51,11.61,11.61,0,0,1-2,2.44l-.7-.58a11.92,11.92,0,0,0,3.42-5.74h-2.8v-.89a38.37,38.37,0,0,0,2.7-3.75h-3.09v-.87h4.2v.87c-.67,1-1.54,2.3-2.59,3.75h2.53v.89a11.74,11.74,0,0,1-1.22,3.13,5.24,5.24,0,0,0,1.44,1,7.56,7.56,0,0,0,1.6.61,17.55,17.55,0,0,0,2.71.27c1.29.07,2.81.1,4.56.1C1341.44,1311,1342.28,1310.93,1343.08,1310.91ZM1331,1298.85l-.65.65a15.24,15.24,0,0,0-2.5-2.52l.59-.67A13.37,13.37,0,0,1,1331,1298.85Zm11.73,10.21h-9.37v-7.69a13.3,13.3,0,0,1-1.19,1.52l-.61-.74a17.05,17.05,0,0,0,3.21-5.93l.89.24c-.3.88-.63,1.73-1,2.56h3.18a13.06,13.06,0,0,0-.8-2.25l.9-.29c.41,1,.72,1.89.92,2.54h3.71v.88h-4.06v2h3.66v.87h-3.66v2.14h3.66v.88h-3.66v2.39h4.22Zm-5.15-7.15v-2h-3.28v2Zm0,3v-2.14h-3.28v2.14Zm0,3.27v-2.39h-3.28v2.39Z" transform="translate(-1223.5 -787.5)" style="fill:#3e3e3e"/><path d="M1360.8,1298.76h-13v5a15.11,15.11,0,0,1-2,8.09l-.82-.6q1.89-2.94,1.89-8.4v-5h6.66a10.13,10.13,0,0,0-.88-1.35l1-.25a17.22,17.22,0,0,1,.94,1.6h6.16Zm.42,12.56-.58.87a23.26,23.26,0,0,1-6.06-1.71,21.8,21.8,0,0,1-6.68,1.63l-.47-.93a19.44,19.44,0,0,0,6-1.24,8.88,8.88,0,0,1-3.22-3.31h-.68v-.94h9.11v.94a8,8,0,0,1-3.11,3.28A23.18,23.18,0,0,0,1361.22,1311.32Zm-.42-9.67h-3.1v2.92h-6.47v-2.92h-2.73v-.89h2.73v-1.48h.94v1.48h4.6v-1.48h.93v1.48h3.1Zm-3.24,5h-6.19a7.35,7.35,0,0,0,3.14,2.8A7.59,7.59,0,0,0,1357.56,1306.63Zm-.79-3v-2h-4.6v2Z" transform="translate(-1223.5 -787.5)" style="fill:#3e3e3e"/><path d="M1379,1309.65h-7.31v1a1.67,1.67,0,0,1-.23.9,1,1,0,0,1-.67.46,8.18,8.18,0,0,1-1.49.1h-1l-.34-.95c.84,0,1.64,0,2.4,0a.36.36,0,0,0,.41-.4v-1.12h-7.37v-.88h7.37v-1.21h-6.38v-.84h6.38v-1.15q-1.35,0-5.4,0l-.33-.86,1.76,0a84.71,84.71,0,0,0,10-.53l.4.84c-1.56.18-3.4.32-5.51.43v1.22h6.3v.84h-6.3v1.21H1379Zm-.52-7.29h-.92v-2.91H1364.8v2.91h-.92v-3.78h6.83v-2.23h.93v2.23h6.84Zm-10.26-4.69-.72.58a9.22,9.22,0,0,0-1.93-1.27l.76-.63A8.46,8.46,0,0,1,1368.22,1297.67Zm7.6,5.85h-9.23v-3h9.23Zm-.93-.85v-1.3h-7.37v1.3Zm1.89-5.71a7.93,7.93,0,0,1-1.94,1.15l-.81-.63a9.89,9.89,0,0,0,1.94-1.1Z" transform="translate(-1223.5 -787.5)" style="fill:#3e3e3e"/><path d="M1386.66,1304.21c-.81.37-1.48.65-2,.86v5.59a1.46,1.46,0,0,1-.38,1.15,2.71,2.71,0,0,1-1.58.32c-.26,0-.53,0-.81,0l-.31-.94,1.05,0a1.94,1.94,0,0,0,.9-.13.51.51,0,0,0,.19-.45v-5.14q-.87.36-2.16.81l-.31-.94c.78-.26,1.61-.55,2.47-.9v-4h-2.36v-.9h2.36v-3.19h.94v3.19h1.71v.9h-1.71v3.62c.75-.3,1.36-.57,1.84-.79Zm10.36,7.59h-10.68v-.89h5.08v-4.14h-4.29v-.93h9.63v.93h-4.42v4.14H1397Zm0-7.59h-2.77a1.19,1.19,0,0,1-1.37-1.32v-3.63h-1.75a6.61,6.61,0,0,1-3.28,5.62l-.66-.72a5.55,5.55,0,0,0,3-4.9H1388v2.13H1387v-3h4.42a12.44,12.44,0,0,0-.9-1.66l.85-.36a9.37,9.37,0,0,1,1,2h4.32v3.08h-.89v-2.17h-2.11v3.52c0,.35.19.52.58.52H1397Z" transform="translate(-1223.5 -787.5)" style="fill:#3e3e3e"/><path d="M1281.07,1318.93a6.6,6.6,0,0,1,4.9,2.07,6.73,6.73,0,0,1,2,4.83,6.86,6.86,0,0,1-2,5,6.71,6.71,0,0,1-5,2.06,6.63,6.63,0,0,1-4.93-2.07,6.83,6.83,0,0,1-2-5,6.7,6.7,0,0,1,2-4.91A6.81,6.81,0,0,1,1281.07,1318.93Z" transform="translate(-1223.5 -787.5)" style="fill:#3e3e3e"/><path d="M1306.94,1325.38H1293.7v1.79c0,3-.62,5.27-1.86,6.64l-.65-.65a6.72,6.72,0,0,0,1.17-2.28,8.76,8.76,0,0,0,.41-2.62v-3.77h14.17Zm-.45-5h-2.75a9.08,9.08,0,0,1-1.94,1.73,34.76,34.76,0,0,1,3.85,1.2l-.51.74a32.39,32.39,0,0,0-4.46-1.37,17.5,17.5,0,0,1-6.39,1.26l-.32-.83a25.84,25.84,0,0,0,5.26-.79c-1.41-.32-2.81-.59-4.22-.81l.41-.74c1.87.29,3.59.64,5.14,1a7.78,7.78,0,0,0,1.93-1.42h-10.31v-.88h6.76a5.11,5.11,0,0,0-.77-1.25l.84-.38a8.11,8.11,0,0,1,1,1.63h6.53Zm.29,12.86h-12.94v-.86h6.2v-1.69h-4.4v-.88h4.4v-1.59h-3.86a8.68,8.68,0,0,1-1.4,1.5l-.56-.76a9.78,9.78,0,0,0,2.35-3.09l.88.28a12.36,12.36,0,0,1-.67,1.21H1300v-1.47h.9v1.47h5v.86h-5v1.59h4.57v.88h-4.57v1.69h5.84Z" transform="translate(-1223.5 -787.5)" style="fill:#3e3e3e"/><path d="M1317.72,1322.67l-.74.59a9.66,9.66,0,0,0-.69-1.08c-2.17.31-4.41.53-6.72.64l-.34-.77a10.38,10.38,0,0,0,2.9-4.07l.93.24a15,15,0,0,1-2.35,3.67c1.88-.15,3.54-.32,5-.52a13.61,13.61,0,0,0-1.51-1.69l.82-.52A14,14,0,0,1,1317.72,1322.67Zm-1.17,10a1,1,0,0,1-.33.75,1.25,1.25,0,0,1-.73.35c-.27,0-.84,0-1.72,0l-.38-.9.84,0a6.43,6.43,0,0,0,1.13-.06.31.31,0,0,0,.25-.33v-2.92c-1.73.78-3.15,1.36-4.25,1.74l-.42-.61a10.34,10.34,0,0,1-.85,3l-.83-.48a11.82,11.82,0,0,0,.83-4.3v-4.84h6.46Zm-.94-4.07v-3.55h-4.56v1.28a25.23,25.23,0,0,1,3.91,1.06l-.44.81a29.56,29.56,0,0,0-3.47-1V1329a14.25,14.25,0,0,1-.07,1.48A40.59,40.59,0,0,0,1315.61,1328.61Zm9.37,2.05a6.15,6.15,0,0,1-.38,2,1.62,1.62,0,0,1-.68.81,4,4,0,0,1-1.47.18l-2.7,0a1.4,1.4,0,0,1-1-.35,1.23,1.23,0,0,1-.37-.93v-6.76h.92v2.61h5.17v.86h-5.17v3.21c0,.34.22.51.65.51,1.83,0,2.87,0,3.13,0a.85.85,0,0,0,.62-.36,5.26,5.26,0,0,0,.36-1.93Zm-.2-5.83h-5.24a1.05,1.05,0,0,1-.81-.35,1.28,1.28,0,0,1-.31-.84V1318h.9v2.25h5.15v.86h-5.15v2.36c0,.29.16.43.48.43h5Z" transform="translate(-1223.5 -787.5)" style="fill:#3e3e3e"/><path d="M1340.8,1330.37h-8l.56.63a20.69,20.69,0,0,1-5.51,2.73l-.63-.84a18.86,18.86,0,0,0,5.29-2.52h-3V1322a17.2,17.2,0,0,1-1.65,1.08l-.58-.82a20.51,20.51,0,0,0,5.62-4.4l1,.4-.79.87h6.13v.68a21.38,21.38,0,0,1-1.48,1.66h3.08Zm-3.1-10.33h-5.59c-.65.55-1.26,1-1.84,1.46h6.07C1336.6,1321.24,1337.05,1320.75,1337.7,1320Zm2.15,4.09v-1.74h-9.43v1.74Zm0,2.68V1325h-9.43v1.77Zm0,2.66v-1.75h-9.43v1.75Zm3.09,3.33-.43.86a32.24,32.24,0,0,0-5.64-2l.47-.88A28.86,28.86,0,0,1,1342.94,1332.8Z" transform="translate(-1223.5 -787.5)" style="fill:#3e3e3e"/><path d="M1349.5,1322.75a21.72,21.72,0,0,1-1.21,2.37v8.59h-.91v-7.12a10.76,10.76,0,0,1-1.7,1.73l-.55-.81a12.69,12.69,0,0,0,3.44-5Zm3.21-2.26h-2.2v1.61h-1v-1.61h-4.29v-.88h4.29V1318h1v1.65h2.2ZM1361,1324h-1.73v8.35a1.1,1.1,0,0,1-.48,1.07,4.93,4.93,0,0,1-2,.26l-1,0-.39-1c.53,0,1.06.06,1.58.06a3.79,3.79,0,0,0,1.19-.1.36.36,0,0,0,.2-.34V1324h-8.29v-.91H1361Zm-4.85,6.71h-5.45v-4.79h5.45Zm-1-.92v-3h-3.52v3Zm5.82-9.32h-4.3v1.66h-1v-1.66h-2.2v-.88h2.2V1318h1v1.65h4.3Z" transform="translate(-1223.5 -787.5)" style="fill:#3e3e3e"/><path d="M1370.11,1325.89h-2.77a11.52,11.52,0,0,1-3.13,7.11l-.79-.58a10.18,10.18,0,0,0,3-6.53h-3V1325h3.09c.06-1.21.09-2.29.09-3.26h-2.78v-.88h2.8v-2.75h.89v2.75h2.37v.88h-2.37c0,1.14,0,2.23-.08,3.26h2.73Zm0,4.69-.72.66a16.17,16.17,0,0,0-1.83-3.23l.7-.59A22,22,0,0,1,1370.13,1330.58Zm8.91-.51a5.67,5.67,0,0,1-.46,2.9,1.94,1.94,0,0,1-1.63.59c-.87,0-1.42-.15-1.63-.43a1.35,1.35,0,0,1-.32-.81V1328h-1.73q-.09,4.2-4.34,5.76l-.59-.75q4.1-1.49,4-5h-1.64v-9.55h7.41V1328h-2.15v4.18a.51.51,0,0,0,.15.37c.1.11.39.17.87.17a1.06,1.06,0,0,0,.9-.33,3.79,3.79,0,0,0,.25-1.78c0-.24,0-.49,0-.75Zm-1.91-8.74v-2h-5.54v2Zm0,2.85v-2h-5.54v2Zm0,3V1325h-5.54v2.11Z" transform="translate(-1223.5 -787.5)" style="fill:#3e3e3e"/><path d="M1391.92,1321.64h-1.31v1.87h-3.56v1.08h4v.69h-4v1.08h4.42v.72h-9.86v-.72h4.56v-1.08h-4.11v-.69h4.11v-1.08h-3.75v-.7h3.75v-1.17h-4.78V1321h4.78v-1.18h-3.76v-.69h3.76V1318h.88v1.07h3.56V1321h1.31Zm-.23,11.74h-10.25v-.76h10.25Zm-1-1.66h-8.11V1328h8.11Zm-4.5-2.16v-.81h-2.74v.81Zm0,1.47v-.81h-2.72v.81Zm3.54-10.08v-1.18h-2.63V1321Zm0,1.84v-1.15h-2.63v1.15Zm.06,6.77v-.81h-2.69v.81Zm0,1.47v-.81h-2.69v.81Zm3.82-.64h-.9v-11.16h.9Zm3,2.12a1.13,1.13,0,0,1-.35.9,2.68,2.68,0,0,1-1.58.3l-1.44,0-.31-.88a13.18,13.18,0,0,0,2.45,0,.47.47,0,0,0,.36-.5V1318h.87Z" transform="translate(-1223.5 -787.5)" style="fill:#3e3e3e"/><polygon points="152.8 283.17 163.49 310.5 174.18 281.98 152.8 283.17" style="fill:#2f95b5"/></svg>