<svg id="a0bbdd4c-649d-4059-9682-44128442c6d9" data-name="圖層 6" xmlns="http://www.w3.org/2000/svg" viewBox="0 0 327 617"><title>section6-illust2</title><rect x="0.5" y="0.5" width="326" height="616" rx="10" style="fill:#eaf6fa;stroke:#d3d3d3"/><circle cx="162.15" cy="102.85" r="80.65" style="fill:none;stroke:#91c8eb;stroke-miterlimit:10;stroke-width:4px"/><circle cx="161.72" cy="102.42" r="71.62" style="fill:none;stroke:#266baa;stroke-miterlimit:10;stroke-width:2px"/><circle cx="161.79" cy="102.48" r="64.69" style="fill:#175c9c"/><path d="M998.74,871.59l-1.26,4.33v13.76h-1.83v-9.81c-.32.53-.65,1-1,1.58l-.92-2a25.66,25.66,0,0,0,3.19-8.28Zm13.62,6.35h-9a13.43,13.43,0,0,1-.68,1.32h8.89v8.91a1.44,1.44,0,0,1-.39,1,1.4,1.4,0,0,1-.82.46,19.48,19.48,0,0,1-2,.06l-.42-1.6,1.48,0c.08,0,.17-.06.28-.18a.53.53,0,0,0,.16-.36v-1.22h-2.78v3.31h-1.81v-3.31h-3a7,7,0,0,1-2.27,3.47l-1.38-1.23a6.6,6.6,0,0,0,2.29-5.47v-1.46c-.62.64-1.32,1.29-2.11,2l-1.06-1.54a12.23,12.23,0,0,0,3.67-4.11h-3.15v-1.68h3.37V874.7H998.8v-1.63h2.91v-1.7h1.82v1.7h3.68v-1.7h1.88v1.7h2.81v1.63h-2.81v1.56h3.27Zm-7,6.89v-1.28h-2.61l-.08,1.28Zm0-2.82v-1.18h-2.59V882Zm1.87-5.75V874.7h-3.68v1.56Zm2.72,5.75v-1.18h-2.78V882Zm0,2.82v-1.28h-2.78v1.28Z" transform="translate(-873.5 -787.5)" style="fill:#fff"/><path d="M1018.2,880.65a31.14,31.14,0,0,1-1.55,6.13L1015,886a31,31,0,0,0,1.48-5.81Zm-.1-4.14-1.73.59a22.74,22.74,0,0,0-1.15-4.12l1.66-.63A27.59,27.59,0,0,1,1018.1,876.51Zm5.45,3h-2.86v10h-1.83v-10h-3.55v-1.78h3.55v-6.48h1.83v6.48h2.86Zm.54,5.93-1.68.44a28.51,28.51,0,0,0-1-5.27l1.59-.5A22.66,22.66,0,0,1,1024.09,885.48Zm.17-12.64a21.38,21.38,0,0,1-1.21,4.32l-1.65-.76a20.35,20.35,0,0,0,1.13-4.13Zm4.57,7.77-1.27,1.3a21.6,21.6,0,0,0-3.49-3.61l1.2-1.41A22.42,22.42,0,0,1,1028.83,880.61Zm.26-5.07-1.32,1.3a18.67,18.67,0,0,0-3.11-3.52l1.2-1.35A21.46,21.46,0,0,1,1029.09,875.54Zm4.31,8.66-1.8.29v5.1h-1.87v-4.76l-4.92.83-.13-1.82,5-.84V871.29h1.87v11.36l1.68-.26Z" transform="translate(-873.5 -787.5)" style="fill:#fff"/><path d="M1040.72,871.41q-.17.93-.63,2.58l-.49,1.55v14.09h-1.8v-10c-.43.74-.78,1.31-1.07,1.71l-.84-2.17a24.74,24.74,0,0,0,3.11-8.09Zm13.92,16.67-.65,1.6a33.58,33.58,0,0,1-6.48-1.34,26.08,26.08,0,0,1-6.52,1.47l-.71-1.56a25,25,0,0,0,5.28-.84c-.82-.48-1.35-.82-1.6-1a24.68,24.68,0,0,1-2.27,1.18l-1-1.28a17.38,17.38,0,0,0,1.91-.9,4.36,4.36,0,0,1-.56-.51l1.24-.92c.17.15.41.35.73.59a12.58,12.58,0,0,0,1.22-1,1.3,1.3,0,0,1-.8-1.28v-1.56h1.68V882a.39.39,0,0,0,.44.44l2.07-.06a.56.56,0,0,0,.34-.12,1.82,1.82,0,0,0,.3-.86l1.36.66a1.65,1.65,0,0,1-.69,1.33,6.15,6.15,0,0,1-2.74.29,2.38,2.38,0,0,1-.52.59h5.16v1.24a14,14,0,0,1-2.33,1.82A22.22,22.22,0,0,0,1054.64,888.08Zm-.42-15.1h-5.93a3.61,3.61,0,0,1-.32.8h4.47v5.11h1.67v2.64h-1.55a13.5,13.5,0,0,1,1.22,1.83l-1.32.86a16.13,16.13,0,0,0-2-2.87l1.21-.84c.13.13.33.35.62.68v-1h-9.83v1.34q.4-.63.48-.78l1.26.64a10.73,10.73,0,0,1-2,2.81l-1.13-1a8.36,8.36,0,0,0,1.37-1.66h-1.77v-2.7h1.68V873.8H1046a5.39,5.39,0,0,0,.32-.82h-5.26v-1.43h13.14Zm-3.6,2.58v-.68h-6.41v.68Zm0,1.62v-.69h-6.41v.69Zm0,1.71v-.74h-6.41v.74Zm-1.07,6.59h-4.21a11.68,11.68,0,0,0,2.24,1.2A19,19,0,0,0,1049.55,885.48Zm-.65-4.43-.61,1.07a7.8,7.8,0,0,0-1.68-.73l.53-1A7,7,0,0,1,1048.9,881.05Z" transform="translate(-873.5 -787.5)" style="fill:#fff"/><path d="M1063.09,871.49l-.52,1.44c-.19.5-.37,1-.55,1.35l-.57,1.22v14.09h-1.93V879.05c-.45.58-1,1.21-1.54,1.88l-1-1.94a21.78,21.78,0,0,0,4.12-7.88Zm12.34,13.21a13.19,13.19,0,0,1-.34,2.91,2.53,2.53,0,0,1-.65,1.11,2.43,2.43,0,0,1-.91.52,17.31,17.31,0,0,1-3.15.16,21.53,21.53,0,0,1-3.92-.19,1.42,1.42,0,0,1-.86-.73,2.94,2.94,0,0,1-.28-1.36V871.31h1.91v6.23h8v1.87h-8V887a.44.44,0,0,0,.34.43,14.46,14.46,0,0,0,2.79.13,9.93,9.93,0,0,0,2.65-.2c.32-.14.49-1.27.51-3.4Z" transform="translate(-873.5 -787.5)" style="fill:#fff"/><path d="M1023.82,913.18a1.61,1.61,0,0,1-.3,1,1.45,1.45,0,0,1-.7.52,4.68,4.68,0,0,1-1.41.14l-1.25,0-.44-1.74c.34,0,.71,0,1.12,0a2.93,2.93,0,0,0,1-.09.31.31,0,0,0,.15-.28v-2.27c-2.46,1.07-3.74,1.6-3.85,1.59l-.48-.88a11.12,11.12,0,0,1-1.22,3.74l-1.49-1.26q1-1.73,1-5.65v-4.53h7.85Zm1.32-11.56-1.51,1a9.44,9.44,0,0,0-.74-1.12q-3.37.59-7.36.92l-.44-1.44a14.11,14.11,0,0,0,3.45-4.65l1.81.58a16.26,16.26,0,0,1-2.65,3.65,39.24,39.24,0,0,0,4.06-.52,10.91,10.91,0,0,0-1.5-1.6l1.54-1.05A21.78,21.78,0,0,1,1025.14,901.62Zm-3.15,7v-3.45h-4.1v1.14a19.34,19.34,0,0,1,3.64.76l-.63,1.55a20.45,20.45,0,0,0-3-.65c0,.75,0,1.55-.09,2.39A28,28,0,0,0,1022,908.64Zm11.41,2.48a5.57,5.57,0,0,1-.44,2.59,2.68,2.68,0,0,1-.78.74,10.26,10.26,0,0,1-3.12.24,9,9,0,0,1-2.57-.21,1.51,1.51,0,0,1-.75-.68,2.17,2.17,0,0,1-.26-1v-7.37h1.83v2.7h5.47v1.67h-5.47v2.78c0,.29.14.43.44.43h3.09a.59.59,0,0,0,.56-.36,6.68,6.68,0,0,0,.26-2Zm-.24-6.41h-5.83a1.69,1.69,0,0,1-1.31-.53,1.9,1.9,0,0,1-.5-1.36v-6.27h1.83v2.33h5.45v1.66h-5.45v2.12a.36.36,0,0,0,.15.25.42.42,0,0,0,.29.13h5.37Z" transform="translate(-873.5 -787.5)" style="fill:#fff"/><path d="M1053.4,900q0,5.63-.26,9.05a14.35,14.35,0,0,1-.65,4.24,2.5,2.5,0,0,1-1.12,1.15,8.54,8.54,0,0,1-3.09.34c-.48,0-1,0-1.4,0l-.72-1.95c.69,0,1.86.06,3.49.06a1.27,1.27,0,0,0,.72-.21,1.17,1.17,0,0,0,.43-.54,14.67,14.67,0,0,0,.3-2.37c.12-1.36.2-2.71.25-4.06l.11-3.88h-6.1a16.47,16.47,0,0,1-2.12,7.86,15.81,15.81,0,0,1-5.82,5.13l-1.26-1.55a14.55,14.55,0,0,0,5-3.86q2-2.45,2.35-7.58h-6.66V900h6.77c.08-1.1.11-2.31.09-3.62h1.93c0,1,0,2.24-.12,3.62Z" transform="translate(-873.5 -787.5)" style="fill:#fff"/><circle cx="115.56" cy="243.01" r="37.86" style="fill:none;stroke:#4589bd;stroke-miterlimit:10"/><path d="M987.12,1037.45H971.5v-1.58h7.27v-3.93H973.3v-1.58h5.47v-3.44h-4a15.09,15.09,0,0,1-2.2,3l-1.23-1.17a12.72,12.72,0,0,0,3.3-6.18l1.61.38c-.21.76-.46,1.58-.74,2.43h3.3v-3.15h1.65v3.15h6.47v1.58h-6.47v3.44h5.73v1.58h-5.73v3.93h6.7Z" transform="translate(-873.5 -787.5)" style="fill:#4589bd"/><path d="M997.23,1024.57h-4.76a14.41,14.41,0,0,1-2,1.85l-1.05-1.3a6.85,6.85,0,0,0,2.74-3.06l1.62.43a3.45,3.45,0,0,1-.36.72h3.8Zm7.59,5.34h-1.59v-1.73H991.54v1.73H990v-3.06h6.49a5,5,0,0,0-.44-.81l1.84-.29a7.94,7.94,0,0,1,.58,1.1h6.4Zm-1.64,7.25h-9.57v.72H992v-8.79h10.54v3.43h-9v1h9.57Zm-7.61-11.05-1.76.33a9.51,9.51,0,0,0-.76-1.27l1.71-.35A8.83,8.83,0,0,1,995.57,1026.11Zm5.41,5.24v-1h-7.37v1Zm.59,4.59v-1.26h-8v1.26Zm3.7-11.37h-5.56a8.6,8.6,0,0,1-1,1.27l-1.46-.77a10.22,10.22,0,0,0,2.11-3.06l1.62.47c-.15.31-.28.55-.39.73h4.7Zm-2.41,1.65-1.74.27a7.67,7.67,0,0,0-.68-1.4l1.75-.2A10.28,10.28,0,0,1,1002.86,1026.22Z" transform="translate(-873.5 -787.5)" style="fill:#4589bd"/><circle cx="216.96" cy="239.61" r="44.46" style="fill:#4589bd"/><path d="M1075.09,1022.49h-1.9v2.79c.76-.4,1.28-.7,1.56-.89l.19,1.94c-.31.2-.89.53-1.75,1v6.92a1.81,1.81,0,0,1-.32,1.13,1.45,1.45,0,0,1-.74.54,5.76,5.76,0,0,1-1.61.14c-.37,0-.69,0-1,0l-.5-1.82a6.92,6.92,0,0,0,1.91,0,.46.46,0,0,0,.28-.46v-5.42c-.43.24-1.13.58-2.08,1l-.5-1.8q1.23-.51,2.58-1.2v-3.82h-2.36v-1.82h2.36v-3.45h1.93v3.45h1.9Zm12.83,11.36-1.09,1.69a23.26,23.26,0,0,1-4.5-5.53v6.09h-1.91v-6.18a24.32,24.32,0,0,1-5.29,5.54l-1.14-1.58a20.62,20.62,0,0,0,5.44-5.46h-4.18v-1.8h5.17v-1.51h1.91v1.51h5.33v1.8h-4.45A20.26,20.26,0,0,0,1087.92,1033.85Zm-1-15.08a64.85,64.85,0,0,1-10.75,1.54l-.74-1.8a54.65,54.65,0,0,0,10.58-1.41Zm-7.89,6.26-1.8.56a23.09,23.09,0,0,0-1.72-3.94l1.76-.69A18.16,18.16,0,0,1,1079.06,1025Zm3.72-1-1.8.52a21.21,21.21,0,0,0-1.3-3.72l1.87-.57A33.07,33.07,0,0,1,1082.78,1024Zm4.79-3.38a28.68,28.68,0,0,1-2.08,5.14l-1.8-.74a25.88,25.88,0,0,0,2.06-5Z" transform="translate(-873.5 -787.5)" style="fill:#fff"/><path d="M1096.38,1030.91h-3.91l1.21.77a17.16,17.16,0,0,1-1.91,4.48l-1.57-1.11a16.66,16.66,0,0,0,1.82-4.14H1091v-13.15h5.43Zm-1.79-9.31v-2h-1.84v2Zm0,3.73v-2.06h-1.84v2.06Zm0,3.81V1027h-1.84v2.12Zm2.66,5.72-1.7.7a14.2,14.2,0,0,0-1.57-3.63l1.57-.71A16.54,16.54,0,0,1,1097.25,1034.86Zm12.09-2.15H1108v1.41a2.2,2.2,0,0,1-.47,1.56,2.52,2.52,0,0,1-1.8.48c-.36,0-.81,0-1.35-.08l-.64-1.82a10.39,10.39,0,0,0,1.15.06,2.87,2.87,0,0,0,1.09-.11.42.42,0,0,0,.16-.38v-1.12H1100v3.41h-1.88v-3.41h-1.28v-1.53h1.28v-5h4.07V1025h-5.3v-1.54h2.86v-1.06h-1.8V1021h1.8v-1h-2.3v-1.48h2.3v-1.23h1.86v1.23h3.12v-1.23h1.86v1.23h2.58V1020h-2.58v1h1.76v1.41h-1.76v1.06h2.77V1025h-5.25v1.16H1108v5h1.36Zm-7.17-4v-1H1100v1Zm0,2.43v-1H1100v1Zm2.54-10.2v-1h-3.12v1Zm0,2.51v-1.06h-3.12v1.06Zm1.41,5.26v-1h-2v1Zm0,2.43v-1h-2v1Z" transform="translate(-873.5 -787.5)" style="fill:#fff"/><rect x="22.5" y="309.5" width="279" height="131" rx="10" style="fill:#4589bd"/><path d="M912.81,1131.45c-1.92,1.09-3.68,2-5.26,2.82l-.4-.79,2.46-1.24v-5h-2.13v-.84h2.13v-4.09h-2.32v-.88h5.41v.88h-2.18v4.09h1.91v.84h-1.91v4.49c.67-.35,1.36-.73,2.08-1.14Zm10.16,1.34a5.46,5.46,0,0,1-.38,1.86,1.66,1.66,0,0,1-.69.85,3.73,3.73,0,0,1-1.54.22q-.6,0-1.05,0a1,1,0,0,1-.71-.32,1.41,1.41,0,0,1-.26-.93v-4.21h-1.66a6.24,6.24,0,0,1-4.9,5.77l-.57-.76q4.23-1.11,4.56-5h-1.86v-9.55h7.8v9.55h-2.45v4.21a.34.34,0,0,0,.17.31,2.82,2.82,0,0,0,1.06.11,1.82,1.82,0,0,0,1-.18,1.9,1.9,0,0,0,.39-.91,5.48,5.48,0,0,0,.19-1.41Zm-2.18-9.31v-1.94h-6v1.94Zm0,2.9v-2h-6v2Zm0,3v-2.11h-6v2.11Z" transform="translate(-873.5 -787.5)" style="fill:#fff"/><path d="M940.94,1135.33H929.18v.61h-1v-7.87a22.31,22.31,0,0,1-2.36,2.22l-.7-.74a19.74,19.74,0,0,0,5-5.64h-4.47V1123h4.94a19,19,0,0,0,1.18-2.88l1,.2c-.33.93-.68,1.82-1.07,2.68h9v.93h-9.45a22.41,22.41,0,0,1-2,3v7.52h5.19v-5.07h-4v-.94h4v-3.33h1v3.33h4.35v.94h-4.35v5.07h5.61Z" transform="translate(-873.5 -787.5)" style="fill:#fff"/><path d="M959,1135.47h-15.7v-.91h7.63v-4.86h-5.77v-1h5.77v-4.11H946a13.33,13.33,0,0,1-2.25,3.12l-.75-.65a14.77,14.77,0,0,0,3.49-6.32l.93.24a21.54,21.54,0,0,1-.93,2.65h4.4v-3.54h1v3.54h6.84v1h-6.84v4.11h6v1h-6v4.86H959Z" transform="translate(-873.5 -787.5)" style="fill:#fff"/><path d="M969,1122.28h-5a15.19,15.19,0,0,1-2,2l-.72-.57a11.58,11.58,0,0,0,3-3.68l.88.36a10.67,10.67,0,0,1-.59,1H969Zm7.53,6h-.91v-2.51H962.69v2.49h-.92v-3.35h6.8a4.81,4.81,0,0,0-.43-1l.81-.3a5.38,5.38,0,0,1,.57,1.29h7Zm-1.64,6.84H964.77v.73h-.95v-8.72h10.55v3.09h-9.6v1.42h10.12Zm-1.46-5.76V1128h-8.66v1.39Zm.54,4.89v-1.74h-9.2v1.74Zm-6.85-10.22-.82.36a9.13,9.13,0,0,0-1-1.49l.8-.33A7.72,7.72,0,0,1,967.12,1124.06Zm9.84-1.76H971.2a13.79,13.79,0,0,1-1.37,1.4l-.74-.53a10.93,10.93,0,0,0,2.47-3.07l.88.34a8.29,8.29,0,0,1-.6,1H977Zm-2.63,1.87-.79.31a11.35,11.35,0,0,0-.93-1.57l.86-.31A9.12,9.12,0,0,1,974.33,1124.17Z" transform="translate(-873.5 -787.5)" style="fill:#fff"/><path d="M995,1133.39h-7.36v2.49h-.93v-2.49h-7.36v-.87h7.36v-1.46h-5.5v-5.69h11.95v5.69h-5.52v1.46H995Zm-8.62-9.24h-5.74v-3.54h5.74Zm-.91-.91v-1.75h-3.88v1.75Zm1.24,4.45v-1.45h-4.56v1.45Zm0,2.49v-1.62h-4.56v1.62Zm5.52-2.49v-1.45h-4.59v1.45Zm0,2.49v-1.62h-4.59v1.62Zm1.54-6h-5.72v-3.54h5.72Zm-.94-.88v-1.77H989v1.77Z" transform="translate(-873.5 -787.5)" style="fill:#fff"/><path d="M1002.1,1120.55c-.23.54-.54,1.2-.93,2l-.59,1.13v12.29h-1v-10.55a23.74,23.74,0,0,1-2,2.72l-.6-.88a25.08,25.08,0,0,0,4.11-7Zm10.94,15h-11.59v-.94h3.64a55.82,55.82,0,0,0-2-9.66l.62-.35h-2v-.93H1007a16.24,16.24,0,0,0-1.08-3.17l.91-.31a25.52,25.52,0,0,1,1.19,3.48h4.69v.93h-1.81l.57.22a61.67,61.67,0,0,1-2.12,9.79H1013Zm-2.51-11H1004a77.93,77.93,0,0,1,2.05,10h2.33A53.32,53.32,0,0,0,1010.53,1124.56Z" transform="translate(-873.5 -787.5)" style="fill:#fff"/><path d="M1024.76,1122.16a17.67,17.67,0,0,1-2.34,3.4h2.2v.91h-3.09a15.91,15.91,0,0,1-2.62,2.13h4.61v7.32h-.95v-1.12h-4.45v1.12h-.92v-6.28c-.31.17-.78.4-1.43.68l-.5-.77a18.71,18.71,0,0,0,5-3.08h-4.81v-.91h3.67v-2.31h-2.93v-.9h2.93v-2.1h.89v2.1h2.63v.9H1020v2.31h1.21a17.73,17.73,0,0,0,2.78-3.84Zm-2.19,9v-1.68h-4.45v1.68Zm0,2.75v-1.82h-4.45v1.82Zm6.49-6.85a6.75,6.75,0,0,1,1.92,4.41,2.17,2.17,0,0,1-.73,1.89,4.21,4.21,0,0,1-2.57.43l-.29-1a7.06,7.06,0,0,0,1,.06,2.23,2.23,0,0,0,1.39-.31,1.43,1.43,0,0,0,.35-1.11,6.14,6.14,0,0,0-2-4.2c.68-1.9,1.24-3.76,1.7-5.58h-3.44v14.22h-.89V1120.8h5.22v.9Q1029.69,1125.22,1029.06,1127.07Z" transform="translate(-873.5 -787.5)" style="fill:#fff"/><path d="M1049.2,1123.72l-.4.86a22.17,22.17,0,0,1-4.7-1.6v.7h-5.82V1123a25.21,25.21,0,0,1-4.54,1.75l-.49-.82a18.21,18.21,0,0,0,7.77-3.87l1,.31-.28.27A18.39,18.39,0,0,0,1049.2,1123.72Zm-1.78,5.47h-12.51v-4.42h12.51Zm-.79,6.73h-.91v-.76h-9v.76h-1v-5.69h10.9Zm-5.93-7.59v-2.7h-4.87v2.7Zm5,3.94v-1.17h-9v1.17Zm0,2v-1.2h-9v1.2Zm-6.52-6.89-.67.5a13.7,13.7,0,0,0-1.35-1.53l.68-.45A6.6,6.6,0,0,1,1039.2,1127.41Zm4.47-4.6a18.86,18.86,0,0,1-2.58-1.6,18.4,18.4,0,0,1-2.42,1.6Zm2.83,5.52v-2.7h-4.85v2.7Zm-1.37-2a8.17,8.17,0,0,1-1.35,1.58l-.71-.5a6.45,6.45,0,0,0,1.31-1.39Z" transform="translate(-873.5 -787.5)" style="fill:#fff"/><path d="M1056.38,1124.24h-1.81v4.09a10.9,10.9,0,0,0,1.48-.61l0,.93-1.53.69v5.52a1,1,0,0,1-.36.75,1.38,1.38,0,0,1-.92.3h-1.38l-.31-.93.84,0a3,3,0,0,0,1-.1.35.35,0,0,0,.18-.32v-4.89a21.23,21.23,0,0,1-2.33.73l-.17-.9a19.51,19.51,0,0,0,2.5-.77v-4.52h-2.26v-.86h2.26v-3.18h.9v3.18h1.81ZM1067,1128h-2.42a11.47,11.47,0,0,1-2.14,4.52,30.65,30.65,0,0,1,4.39,2.66l-.59.72a33.68,33.68,0,0,0-4.4-2.66,13.15,13.15,0,0,1-5.45,2.76l-.49-.89a10.45,10.45,0,0,0,5.05-2.32c-1.28-.61-2.39-1.09-3.34-1.46a30.76,30.76,0,0,0,1.62-3.33h-2.54v-.9h2.87c.3-.77.63-1.82,1-3.15l.86.22c-.21.85-.5,1.82-.88,2.93h3.27l.19-.92.9.18c0,.22-.07.47-.13.74H1067Zm-.51-2.39h-1v-2.47h-7.56v2.47h-1v-3.37h4.18a7.45,7.45,0,0,0-1-1.77l.87-.41a15.37,15.37,0,0,1,1.21,2.18h4.25Zm-2.89,2.39h-3.37a20.44,20.44,0,0,1-1.32,2.86c.62.27,1.51.68,2.66,1.22A8.92,8.92,0,0,0,1063.57,1128Z" transform="translate(-873.5 -787.5)" style="fill:#fff"/><path d="M1074.38,1135.06h-.94v-1.43h-2.51v1.82H1070v-14.16h4.38Zm-.94-8.11v-4.72h-2.51V1127Zm0,5.75v-4.84h-2.51v4.84Zm11.28-9.61h-4.2v2.61h3.71v.9h-8.43v-.9h3.78v-2.61h-4.41v-.95h4.41v-2h.94v2h4.2Zm.41,6.64h-2v4.66a1.29,1.29,0,0,1-.49,1.2,4.12,4.12,0,0,1-1.91.29h-1l-.38-1c.59,0,1.1.06,1.54.06a2.61,2.61,0,0,0,1.12-.14.49.49,0,0,0,.24-.47v-4.62h-7v-.92h7v-1.67h.92v1.67h2Zm-5.42,3.64-.81.48a14.86,14.86,0,0,0-2.33-2.75l.79-.54A18.59,18.59,0,0,1,1079.71,1133.37Z" transform="translate(-873.5 -787.5)" style="fill:#fff"/><path d="M1093.71,1133.46h-2.41v2.42h-.89v-2.42h-3v-.91h3v-1.67h-2.22v-6.75h2.22v-1.47h-2.7v-.85h2.7v-1.58h.89v1.58h2.39v.85h-2.39v1.47h2.25v6.75h-2.25v1.67h2.41Zm-3.3-6.46v-2h-1.33v2Zm0,3v-2.16h-1.33V1130Zm2.22-3v-2h-1.33v2Zm0,3v-2.16h-1.33V1130Zm10.38.34-.67.56a3.78,3.78,0,0,0-.47-.73q-3.48.35-7.32.51l-.24-.83,3.65-.12v-1.3h-3.15v-5H1098v-1.22h-3.53v-.85H1098v-1.2h.94v1.2h3.71v.85h-3.71v1.22h3.17v5h-.61A11.31,11.31,0,0,1,1103,1130.38Zm.07,2.08H1101v2.24a1.17,1.17,0,0,1-.3.84.9.9,0,0,1-.57.35q-.27,0-1.68,0l-.27-.84c.86,0,1.35,0,1.47,0a.53.53,0,0,0,.33-.17.42.42,0,0,0,.14-.3v-2.13h-5.76v-.84h5.76v-.68h.88v.68h2.08Zm-5.8,2.33-.76.49a7.55,7.55,0,0,0-1.44-1.79l.68-.48A7.25,7.25,0,0,1,1097.28,1134.79Zm.68-9.29v-1.17h-2.25v1.17Zm0,2.12v-1.33h-2.25v1.33Zm3.21-2.12v-1.17h-2.27v1.17Zm0,2.12v-1.33h-2.27v1.33Zm.12.85h-2.39v1.21c.77,0,1.55-.13,2.34-.22-.25-.29-.42-.47-.5-.55Z" transform="translate(-873.5 -787.5)" style="fill:#fff"/><path d="M1120.14,1136h-1v-.84h-12.69v-6h1v5.12h5.43v-6.92h-5.62v-5.91h1v5h4.64v-6.13h.92v6.13h4.58v-5h1v5.91h-5.49v6.92h5.35v-5.13h1Z" transform="translate(-873.5 -787.5)" style="fill:#fff"/><path d="M1128.6,1124.33h-1.93v3.49a12.47,12.47,0,0,0,1.71-.87l.2,1c-.72.38-1.36.69-1.91.92v5.66c0,.58-.17,1-.52,1.14a2.9,2.9,0,0,1-1.34.27H1124l-.34-.88,1.64,0c.3,0,.45-.16.45-.47v-5.27a10.47,10.47,0,0,1-2,.75l-.27-.81c.7-.26,1.46-.57,2.27-.92v-3.94h-2.35v-.9h2.35v-3.28h.92v3.28h1.93Zm10.72,10-.61.82a17,17,0,0,1-4.54-5.05V1136h-1v-5.75a15.94,15.94,0,0,1-4.83,4.91l-.65-.76a13.57,13.57,0,0,0,4.89-4.94h-3.92v-.88h4.51v-1.75h1v1.75h5v.88h-4.29A14.11,14.11,0,0,0,1139.32,1134.34Zm-1.08-13.49a27.73,27.73,0,0,1-9,1.63l-.41-.87a27.94,27.94,0,0,0,8.88-1.55Zm-6.76,5.73-.82.4a18.62,18.62,0,0,0-1.45-3l.78-.49A16.27,16.27,0,0,1,1131.48,1126.58Zm3.19-.76-.88.29a15.81,15.81,0,0,0-1-2.92l.82-.35A15.09,15.09,0,0,1,1134.67,1125.82Zm4.14-2.8a17.3,17.3,0,0,1-1.84,3.92l-.86-.32a19.52,19.52,0,0,0,1.8-3.91Z" transform="translate(-873.5 -787.5)" style="fill:#fff"/><path d="M912.09,1153.08h-2.74l.5.41a16.33,16.33,0,0,1-2,4.11l-.66-.58a22.59,22.59,0,0,0,1.85-3.94h-1.13v-10.64h4.16Zm-.88-7.44v-2.38h-2.38v2.38Zm0,3.22v-2.35h-2.38v2.35Zm0,3.37v-2.48h-2.38v2.48Zm1.26,4.25-.78.36a17.25,17.25,0,0,0-1.2-2.74l.79-.36A18.21,18.21,0,0,1,912.47,1156.48Zm10.49-2h-1.23v1.8a1.27,1.27,0,0,1-.22.8,1,1,0,0,1-.55.39,6.25,6.25,0,0,1-1.32.09c-.33,0-.64,0-.92,0l-.34-.91h2c.32,0,.48-.16.48-.5v-1.66h-6v3.12H914v-3.12h-1.46v-.79H914v-4.25h3.35v-1.35h-4.59v-.77h2.66v-1.39H913.5v-.79h1.92v-1.21H912.9v-.79h2.52v-1.32h.88v1.32h3v-1.32h.89v1.32h2.48v.79h-2.48v1.21h1.89v.79h-1.89v1.39h2.75v.77h-4.66v1.35h3.47v4.25H923Zm-5.61-2.89v-1.32h-2.48v1.32Zm0,2.1v-1.28h-2.48v1.28Zm1.93-8.55v-1.21h-3v1.21Zm0,2.18v-1.39h-3v1.39Zm1.59,4.27v-1.32h-2.61v1.32Zm0,2.1v-1.28h-2.61v1.28Z" transform="translate(-873.5 -787.5)" style="fill:#fff"/><path d="M940.94,1155h-7.36v2.49h-.93V1155H925.3v-.87h7.35v-1.46h-5.5V1147h12v5.69h-5.52v1.46h7.36Zm-8.61-9.24h-5.75v-3.54h5.75Zm-.92-.91v-1.75h-3.88v1.75Zm1.24,4.45v-1.45h-4.56v1.45Zm0,2.49v-1.62h-4.56v1.62Zm5.52-2.49v-1.45h-4.59v1.45Zm0,2.49v-1.62h-4.59v1.62Zm1.55-6H934v-3.54h5.73Zm-1-.88v-1.76H934.9v1.76Z" transform="translate(-873.5 -787.5)" style="fill:#fff"/><path d="M948.11,1149.91c-.46.24-1.05.52-1.77.82v5.57a1,1,0,0,1-.4,1,3.61,3.61,0,0,1-1.62.24,3.1,3.1,0,0,1-.49,0l-.3-.91,1.14,0a1.11,1.11,0,0,0,.63-.12.39.39,0,0,0,.14-.34v-5a21.57,21.57,0,0,1-2,.74l-.31-.9q1.51-.48,2.34-.84v-4.31h-2.18V1145h2.18v-3.19h.9V1145H948v.84h-1.65v4c.42-.18.92-.42,1.5-.71Zm10.47-5.47a12.55,12.55,0,0,1-.76,2.73L957,1147a16.76,16.76,0,0,0,.55-1.67H953.2v.93l3.08-.18,0,.77-3.11.18v.53a.47.47,0,0,0,.11.3.34.34,0,0,0,.28.14h4.25v.85h-4.5c-.7,0-1.05-.38-1.05-1.15v-.59l-2.07.14-.09-.77,2.16-.14v-1h-2.67v3a28,28,0,0,1-.47,6,10.2,10.2,0,0,1-1.18,3.15l-.81-.49a9.85,9.85,0,0,0,1.11-2.85,23.43,23.43,0,0,0,.44-5.22v-4.47h4v-2.67h.94v.87h4.19v.84h-4.19v1Zm.45,12.08-.57.66a16.48,16.48,0,0,1-2.63-2.36,4.25,4.25,0,0,1-.28,2c-.22.45-.78.68-1.65.68a7,7,0,0,1-.82,0l-.23-.84c.41,0,.77.06,1.1.06a.9.9,0,0,0,.82-.34,3.23,3.23,0,0,0,.17-1.57,17.2,17.2,0,0,1-5,2.48l-.48-.75a15.84,15.84,0,0,0,5.3-2.56,2.48,2.48,0,0,0-.28-.91,14.48,14.48,0,0,1-4.32,2.11l-.47-.72a14.12,14.12,0,0,0,4.42-2.1,7.06,7.06,0,0,0-.49-.54,14.08,14.08,0,0,1-3.31,1.25l-.49-.75a12.38,12.38,0,0,0,4.42-1.78h-4v-.87h8.44v.87h-3.22a8.84,8.84,0,0,1-1.1.86,5,5,0,0,1,.88,1.28,13.34,13.34,0,0,0,2.82-1.35l.52.69a18,18,0,0,1-3,1.4A14.19,14.19,0,0,0,959,1156.52Z" transform="translate(-873.5 -787.5)" style="fill:#fff"/><path d="M968.86,1151.33a1,1,0,0,1-.65-.87.81.81,0,0,1,.22-.52.74.74,0,0,1,.62-.27c.56,0,.85.37.85,1.11a2.34,2.34,0,0,1-1.07,1.75l-.38-.29A1.65,1.65,0,0,0,968.86,1151.33Z" transform="translate(-873.5 -787.5)" style="fill:#fff"/><path d="M995,1149.63h-4.27a12.86,12.86,0,0,1-2.54,4.4,69.06,69.06,0,0,1,6.48,2.81l-.57.81a67.41,67.41,0,0,0-6.69-2.9,17.5,17.5,0,0,1-7.44,2.87l-.52-.93a17.57,17.57,0,0,0,6.85-2.33c-1.39-.56-3.09-1.15-5.11-1.75a20.63,20.63,0,0,0,2.37-3h-4.28v-.93h4.87a35.07,35.07,0,0,0,1.84-3.34l.92.34c-.43.89-1,1.9-1.63,3H990a12.27,12.27,0,0,0,.45-1.51l.91.29-.33,1.22h4Zm-.65-2.54h-1v-2.46H980.91v2.46h-1v-3.39h6.82a12,12,0,0,0-.86-1.57l.86-.41a13.73,13.73,0,0,1,1,2h6.59Zm-4.7,2.54h-4.92a26.61,26.61,0,0,1-1.82,2.51c1.11.32,2.54.82,4.28,1.48A10.44,10.44,0,0,0,989.65,1149.63Z" transform="translate(-873.5 -787.5)" style="fill:#fff"/><path d="M1012.93,1147.23l-.51.84q-5.16-2.27-7.33-5-2.15,2.93-7.43,5l-.48-.9a15.15,15.15,0,0,0,6.72-4.12h-1.75v-.92h3.42Q1007.57,1145,1012.93,1147.23Zm-.43,9.91H997.63v-.9h7v-3.45h-5v-.91h5v-3.33h-4.94v-.87h10.79v.87h-4.92v3.33h4.9v.91h-4.9v3.45h7Z" transform="translate(-873.5 -787.5)" style="fill:#fff"/><path d="M1031,1144.27h-13.06V1147q0,6.9-1.91,10.63l-.85-.6a12.59,12.59,0,0,0,1.27-3.43,30.63,30.63,0,0,0,.54-6.72v-3.44h6.81c-.13-.3-.36-.79-.69-1.46l.81-.34a12.62,12.62,0,0,1,.88,1.8h6.2Zm0,11.22h-5.89v2h-.92v-2h-5.94v-.81h5.94v-1.27h-4.77v-5.29h4.77v-1.36h-5.51V1146h5.51v-1.1h.92v1.1h5.48v.79h-5.48v1.36h4.67v5.29h-4.67v1.27h5.89Zm-6.81-5.13v-1.45h-3.85v1.45Zm0,2.26v-1.47h-3.85v1.47Zm4.71-2.26v-1.45h-3.79v1.45Zm0,2.26v-1.47h-3.79v1.47Z" transform="translate(-873.5 -787.5)" style="fill:#fff"/><path d="M1049.06,1144.74h-9.36a20.55,20.55,0,0,1-2.46,3.8v9.06h-1v-7.87a14.27,14.27,0,0,1-2.57,2.15l-.33-.91a18.38,18.38,0,0,0,5.24-6.23h-5.22v-.93h5.72a17.25,17.25,0,0,0,1-2.06l1,.31c-.32.73-.6,1.32-.84,1.75h8.89Zm0,7.9h-4.47v3.57a1.32,1.32,0,0,1-.24.79,1.25,1.25,0,0,1-.65.47,6.08,6.08,0,0,1-1.61.14c-.48,0-.95,0-1.43-.06l-.38-1c.44,0,.92.06,1.45.06a5.43,5.43,0,0,0,1.66-.13.4.4,0,0,0,.25-.36v-3.52h-5.43v-.91h5.43v-1.37a23.12,23.12,0,0,0,2.86-2.34h-7v-.93h8.38v.93a24,24,0,0,1-3.24,2.77v.94h4.47Z" transform="translate(-873.5 -787.5)" style="fill:#fff"/><path d="M1067,1157.11h-15.61v-.73h7.34v-1.18h-6.25v-.7h6.25v-1.16H1053v-4.17h12.44v4.17h-5.77v1.16H1066v.7h-6.27v1.18H1067Zm-.14-9h-15.26v-.72h15.26Zm-1.39-1.74H1053v-4.14h12.45Zm-6.74,4.54v-1h-4.83v1Zm0,1.72v-1h-4.83v1Zm5.78-8.66v-1h-10.59v1Zm0,1.7v-1h-10.59v1Zm0,5.24v-1h-4.84v1Zm0,1.72v-1h-4.84v1Z" transform="translate(-873.5 -787.5)" style="fill:#fff"/><path d="M1075.64,1157.18h-.91v-1.55h-3.89v1.91h-.91v-12.76h1.67a17.11,17.11,0,0,0,1.28-3.1l.9.19c-.21.63-.62,1.6-1.22,2.91h3.08Zm-.91-7.63v-3.87h-3.89v3.87Zm0,5.16v-4.26h-3.89v4.26Zm9.93-9.92c-.07,2.7-.2,5.2-.39,7.52a19.06,19.06,0,0,1-.57,4.08,1.9,1.9,0,0,1-.75.88,3.88,3.88,0,0,1-1.72.26l-1.45,0-.29-.91c.49,0,1,0,1.59,0h1a.9.9,0,0,0,.47-.23,1.24,1.24,0,0,0,.35-.48,13.46,13.46,0,0,0,.28-2.07c.12-1.2.22-2.51.29-4s.13-2.84.17-4.19H1079a24.4,24.4,0,0,1-2.18,3.56l-.74-.52a19,19,0,0,0,3.35-6.92l.92.24c-.3,1-.62,1.88-1,2.75Zm-3.31,8.07-.76.54a18.72,18.72,0,0,0-2.61-4.19l.77-.51A17.72,17.72,0,0,1,1081.35,1152.86Z" transform="translate(-873.5 -787.5)" style="fill:#fff"/><path d="M1103.1,1156l-.54.85a16.38,16.38,0,0,1-6.84-4.64v5.23h-.91v-5.22a18.43,18.43,0,0,1-7,4.74l-.5-.84a17.48,17.48,0,0,0,6.6-4.36h-4.88v-6h5.76v-1.48h-7.17v-.91h7.17v-1.59h.91v1.59h7.2v.91h-7.2v1.48h5.71v6h-4.89A15.23,15.23,0,0,0,1103.1,1156Zm-8.29-7.71v-1.7H1090v1.7Zm0,2.59v-1.7H1090v1.7Zm5.67-2.59v-1.7h-4.76v1.7Zm0,2.59v-1.7h-4.76v1.7Z" transform="translate(-873.5 -787.5)" style="fill:#fff"/><path d="M1121.1,1143.12h-5.71v3.23h4.49v11.2h-.94v-1.41H1107.6v1.41h-.91v-11.2h4v-3.23h-5.29v-.89h15.66Zm-2.16,12.11v-8h-3.55v3.87c0,.32.13.47.38.47h2.41v.9h-2.54a1.12,1.12,0,0,1-.86-.36,1.23,1.23,0,0,1-.33-.88v-4h-2.83q0,4.38-2.43,6.34l-.78-.65a5.58,5.58,0,0,0,1.73-2.12,9.76,9.76,0,0,0,.58-3.57h-3.12v8Zm-4.49-8.88v-3.23h-2.79v3.23Z" transform="translate(-873.5 -787.5)" style="fill:#fff"/><path d="M1139.12,1153.78a9.42,9.42,0,0,1-.22,1.79,2.37,2.37,0,0,1-.52,1.15,1.52,1.52,0,0,1-.69.46,24.86,24.86,0,0,1-2.89.15c-1.69,0-3.19.06-4.51.06s-2.12,0-2.64-.05a1.55,1.55,0,0,1-1.18-.53,2,2,0,0,1-.4-1.3v-7.37l-2.58.67v-1l2.58-.66v-3.78h1v3.51l4.07-1v-4h1v3.82l5.77-1.47a50.2,50.2,0,0,1-1.7,8.49l-.91-.2a39.24,39.24,0,0,0,1.41-7l-4.57,1.17V1154h-1v-7.18l-4.07,1.07v7.78a1.32,1.32,0,0,0,.12.44.6.6,0,0,0,.57.32c.29,0,1.49,0,3.61,0a43.8,43.8,0,0,0,6.2-.2c.33-.14.55-1.1.65-2.9Z" transform="translate(-873.5 -787.5)" style="fill:#fff"/><path d="M923,1178l-.31.89h-6a9.91,9.91,0,0,1-3.76-.61,7,7,0,0,1-2.62-2,13.72,13.72,0,0,1-2.6,2.81l-.7-.69a10.48,10.48,0,0,0,3.85-5.48l.93.23a9.27,9.27,0,0,1-1,2.31,5.79,5.79,0,0,0,4,2.4v-5.72h-7.63v-.9h15.7v.9h-7.14v2.31h6.15v.89h-6.15v2.6c.54,0,1.13,0,1.79,0Zm-2.39-8.17H909.57v-6h11.08Zm-1-3.5v-1.59h-9.12v1.59Zm0,2.62v-1.67h-9.12v1.67Z" transform="translate(-873.5 -787.5)" style="fill:#fff"/><path d="M941.08,1166.92l-.4.86a22.05,22.05,0,0,1-4.69-1.6v.7h-5.83v-.68a25.21,25.21,0,0,1-4.54,1.75l-.48-.82a18.32,18.32,0,0,0,7.77-3.87l1,.31a3.05,3.05,0,0,1-.28.27A18.39,18.39,0,0,0,941.08,1166.92Zm-1.78,5.47H926.79V1168H939.3Zm-.79,6.73h-.91v-.76h-9v.76h-.95v-5.69h10.9Zm-5.93-7.59v-2.7h-4.87v2.7Zm5,3.94v-1.17h-9v1.17Zm0,2v-1.2h-9v1.2Zm-6.52-6.89-.66.5a12.86,12.86,0,0,0-1.36-1.53l.69-.45A6.56,6.56,0,0,1,931.08,1170.61Zm4.47-4.6a19.07,19.07,0,0,1-2.57-1.59,21,21,0,0,1-2.42,1.59Zm2.83,5.52v-2.7h-4.85v2.7Zm-1.36-2a8.21,8.21,0,0,1-1.36,1.58l-.7-.5a6.6,6.6,0,0,0,1.3-1.38Z" transform="translate(-873.5 -787.5)" style="fill:#fff"/><path d="M958.94,1177.84l-.22.94c-1.14,0-2,0-2.67,0a26.25,26.25,0,0,1-4.5-.3,8.08,8.08,0,0,1-2.92-1.15,6.25,6.25,0,0,1-2-2.1,16.43,16.43,0,0,1-2.8,3.87l-.74-.7a14.27,14.27,0,0,0,3.89-7.27l1,.1a26,26,0,0,1-.87,2.92,5.75,5.75,0,0,0,3.88,3.19v-7.78h-5.43v-1h11.25v1H952v3h5.8v.93H952v4.06c1.73.17,3.49.26,5.28.26Zm-.55-8.91h-.94v-2.75H944.87v2.74h-1v-3.66h6.75a8.4,8.4,0,0,0-.7-1.72l1-.21a9.39,9.39,0,0,1,.72,1.93h6.76Z" transform="translate(-873.5 -787.5)" style="fill:#fff"/><path d="M966.26,1178.26h-.94v-1.43h-2.51v1.82h-.93v-14.16h4.38Zm-.94-8.11v-4.72h-2.51v4.72Zm0,5.75v-4.84h-2.51v4.84Zm11.28-9.61h-4.2v2.61h3.72v.9h-8.44v-.9h3.78v-2.61h-4.41v-1h4.41v-2h.94v2h4.2Zm.41,6.64h-2v4.66a1.29,1.29,0,0,1-.5,1.2,4.12,4.12,0,0,1-1.91.29h-1l-.38-1q.87.06,1.53.06a2.81,2.81,0,0,0,1.12-.13.51.51,0,0,0,.24-.48v-4.62h-7V1172h7v-1.67H975V1172h2Zm-5.42,3.64-.81.48a14.86,14.86,0,0,0-2.33-2.75l.79-.54A18,18,0,0,1,971.59,1176.57Z" transform="translate(-873.5 -787.5)" style="fill:#fff"/><path d="M984.68,1175.49a38.76,38.76,0,0,1-5.11,2.25l-.25-.91a22.29,22.29,0,0,0,2.25-.89v-7.11H979.5v-.93h2.07v-4.28h.94v4.28h2v.93h-2v6.71c1-.5,1.68-.84,2-1Zm10.35.21a5,5,0,0,1-.53,2.44,1.45,1.45,0,0,1-.88.71c-.28,0-1.24.07-2.86.07-2.21,0-3.51,0-3.92-.06a1.15,1.15,0,0,1-.89-.44,1.59,1.59,0,0,1-.29-.94v-7.33l-1.6.55-.14-.92,1.74-.59v-3.75h.89v3.46l2.84-1v-4.48h.93v4.16l3.92-1.36a36.62,36.62,0,0,1-1,7.6l-.91-.27a34.72,34.72,0,0,0,.91-6l-3,1v7h-.93v-6.7l-2.84,1v7.68a.34.34,0,0,0,.12.2.58.58,0,0,0,.2.17,6.45,6.45,0,0,0,1.07.07c.66,0,1.32,0,2,0a18,18,0,0,0,3.54-.17c.33-.11.54-.92.66-2.42Z" transform="translate(-873.5 -787.5)" style="fill:#fff"/><path d="M1002.7,1167.39h-2v3.27a17.74,17.74,0,0,0,1.63-1l.19.94c-.67.47-1.27.86-1.82,1.17V1178a1,1,0,0,1-.23.67,1.12,1.12,0,0,1-.5.36,4.33,4.33,0,0,1-1.13.09q-.44,0-.81,0l-.29-.95c.16,0,.69,0,1.61,0a.41.41,0,0,0,.3-.16.51.51,0,0,0,.15-.32v-5.39a13.51,13.51,0,0,1-2.21,1.22l-.35-.84a24.85,24.85,0,0,0,2.56-1.46v-3.81h-2.34v-.9h2.34v-3.1h.9v3.1h2ZM1013,1178l-.31,1h-2.38a13.76,13.76,0,0,1-3.72-.41,4.31,4.31,0,0,1-2.42-2.11,9.18,9.18,0,0,1-1.68,2.74l-.77-.58a8.33,8.33,0,0,0,2.12-5.4l.9.09a13.4,13.4,0,0,1-.25,2,4,4,0,0,0,2.52,2.4v-5.53h-4.64v-.92h10.14v.92H1008v2.1h4v.89h-4v2.71a11.47,11.47,0,0,0,2.16.16Zm-1.55-8.16h-7.81v-6h7.81Zm-.9-3.55v-1.58h-6v1.58Zm0,2.64v-1.76h-6v1.76Z" transform="translate(-873.5 -787.5)" style="fill:#fff"/><path d="M1030,1179.15h-1v-.84h-12.68v-6h.94v5.12h5.44v-6.92h-5.63v-5.91h1v5h4.65v-6.13h.91v6.13h4.59v-5h1v5.91h-5.49v6.92h5.34v-5.13h1Z" transform="translate(-873.5 -787.5)" style="fill:#fff"/><path d="M1049.06,1172.18h-7.46a13.92,13.92,0,0,1-.74,1.63h7v4c0,.84-.63,1.25-1.88,1.25a9.5,9.5,0,0,1-1,0l-.27-.88a9.51,9.51,0,0,0,1,.06,2.5,2.5,0,0,0,1-.11.43.43,0,0,0,.16-.38v-3.07h-3.22v4.22h-.88v-4.22h-3.19v4.21h-.88v-4.21h-3.26v4.55h-.88v-5.39h5.26a16.83,16.83,0,0,0,.72-1.63h-7.21v-.83h15.66Zm-.38-2.36h-.9v-3h-6.1v4h-.89v-4h-6.08v3h-.9V1166h7v-1.35h-6.4v-.81H1048v.81h-6.35V1166h7Zm-8.58,0a20.1,20.1,0,0,1-4.23.73l-.43-.81a18.5,18.5,0,0,0,4.3-.65Zm0-1.84-.36.79a21.54,21.54,0,0,0-4-.6l.32-.77A24.93,24.93,0,0,1,1040.05,1168Zm7,.19a19.9,19.9,0,0,1-4.22.56l-.36-.82a19.34,19.34,0,0,0,4.18-.49Zm.14,1.68-.4.77a25.84,25.84,0,0,0-4.25-.73l.45-.78C1044.7,1169.39,1046.1,1169.63,1047.2,1169.89Z" transform="translate(-873.5 -787.5)" style="fill:#fff"/><path d="M1057.65,1173.29a30.4,30.4,0,0,1-5.78,4.45l-.54-.81a29.8,29.8,0,0,0,5.76-4.48Zm9.37,3.61-.56.82a13.11,13.11,0,0,1-6.7-5.6v5.62a1.1,1.1,0,0,1-.53,1.06,4.81,4.81,0,0,1-2,.29l-1,0-.41-1q.75,0,2.49,0a.44.44,0,0,0,.36-.17.58.58,0,0,0,.16-.35v-10.26h-7.33v-.93h7.33v-3h1v3H1067v.93h-7.19V1170a10,10,0,0,0,1,1.89,19.74,19.74,0,0,0,4.38-3.33l.76.65a22.13,22.13,0,0,1-4.61,3.45Q1062.73,1175,1067,1176.9Zm-10.76-5.44-.67.72a16.37,16.37,0,0,0-3.2-2.94l.65-.7A17.38,17.38,0,0,1,1056.26,1171.46Zm8.73-6.2-.65.72a14.48,14.48,0,0,0-2.42-1.78l.58-.72A15.35,15.35,0,0,1,1065,1165.26Z" transform="translate(-873.5 -787.5)" style="fill:#fff"/><path d="M1077,1172.93a1,1,0,0,1-.65-.87.87.87,0,0,1,.22-.52.77.77,0,0,1,.63-.27q.84,0,.84,1.11a2.33,2.33,0,0,1-1.06,1.75l-.38-.29A1.62,1.62,0,0,0,1077,1172.93Z" transform="translate(-873.5 -787.5)" style="fill:#fff"/><path d="M1102.86,1165.77h-12.12a15.34,15.34,0,0,1-2.83,2.66l-.67-.7a13.93,13.93,0,0,0,4.06-4.5l.91.36a12,12,0,0,1-.77,1.27h11.42Zm.18,6.92h-1.89l-.29,3.44H1103v.94h-2.2a2,2,0,0,1-2.18,2.08H1097l-.41-.91h2.18c.58,0,.92-.39,1-1.17H1088.9c.24-1,.49-2.49.75-4.38h-2.37v-.89h2.49c.14-.93.29-2.34.46-4.25h11c0,.7,0,2.12-.09,4.25H1103Zm-2.86,0h-9.59c-.12,1.14-.31,2.28-.54,3.44h9.86Zm.15-4.21h-9.23c-.06.91-.18,2-.36,3.32h9.49C1100.29,1170.55,1100.33,1169.45,1100.33,1168.48Zm-3.16,6.45-.54.81a16.52,16.52,0,0,0-3.47-1.66l.57-.82A21.49,21.49,0,0,1,1097.17,1174.93Zm-.07-4.42-.52.8a13.91,13.91,0,0,0-3.28-1.45l.55-.81A16.82,16.82,0,0,1,1097.1,1170.51Z" transform="translate(-873.5 -787.5)" style="fill:#fff"/><path d="M1121.21,1178.46l-.61.81a15.89,15.89,0,0,1-4.78-3.49,13.25,13.25,0,0,1-2.51-4.84q-1.14,5.08-7.24,8.35l-.72-.78q6.18-3,7.14-8.37h-6.66v-.92h6.8c.15-1.15.27-2.63.34-4.44h-6.25v-.94h13.19v.94h-6q-.06,2.61-.27,4.44h7.12v.92h-6.66a11.64,11.64,0,0,0,2.34,4.88A14.32,14.32,0,0,0,1121.21,1178.46Z" transform="translate(-873.5 -787.5)" style="fill:#fff"/><path d="M1139.21,1175h-7.41v4.17h-1V1175h-7.36v-.94h7.36v-2.7h-5.57v-7.56h12.09v7.56h-5.57v2.7h7.41Zm-2.79-7.93v-2.36h-10.18v2.36Zm0,3.33V1168h-10.18v2.37Z" transform="translate(-873.5 -787.5)" style="fill:#fff"/><path d="M922.9,1200.29H907.26v-.93H914V1185h1v5.65h7.17v.95h-7.17v7.76h8Z" transform="translate(-873.5 -787.5)" style="fill:#fff"/><path d="M933.5,1187.94h-8.26v-.88H929a8.68,8.68,0,0,0-.8-1.84l.85-.34a15.93,15.93,0,0,1,.94,2.18h3.46Zm-5.75,7.14a16,16,0,0,1-1.65,4.65l-.8-.43a17,17,0,0,0,1.61-4.44Zm4.7-1.34h-2.52v5.77a1.15,1.15,0,0,1-.4,1,2.89,2.89,0,0,1-1.74.24l-.28-.86a3.55,3.55,0,0,0,1.26-.06.36.36,0,0,0,.22-.36v-5.7h-2.72v-4.24h6.18Zm-.93-.89v-2.42h-4.29v2.42Zm1.58,5-.83.43a12.64,12.64,0,0,0-1.11-3l.75-.41A12.38,12.38,0,0,1,933.1,1197.81Zm7.8-7.51h-4.12a17.48,17.48,0,0,1-3.84,10.55l-.76-.6a16,16,0,0,0,3.66-10h-2.47v-.94h2.53c.11-1.39.17-2.83.19-4.33l.94,0c0,1.43-.11,2.87-.2,4.31h4.07Zm.07,6.1a17.41,17.41,0,0,1-.16,2.32,3.64,3.64,0,0,1-.33,1.39,3.7,3.7,0,0,1-.41.34,3.09,3.09,0,0,1-1.34.17,1.52,1.52,0,0,1-1.22-.39,1.89,1.89,0,0,1-.32-1.2v-6.28h.92v6.4q0,.6.93.6a1.26,1.26,0,0,0,.62-.15c.18-.1.3-.54.36-1.33s.09-1.53.09-2.21Zm-.66-8.29-.73.59a13.35,13.35,0,0,0-1.83-2.2l.65-.61A10.85,10.85,0,0,1,940.31,1188.11Z" transform="translate(-873.5 -787.5)" style="fill:#fff"/><path d="M959.08,1199.57l-.31.89h-5.95a9.87,9.87,0,0,1-3.76-.61,6.88,6.88,0,0,1-2.62-2,14.28,14.28,0,0,1-2.6,2.81l-.7-.69a10.48,10.48,0,0,0,3.85-5.48l.93.22a9.18,9.18,0,0,1-1,2.32,5.79,5.79,0,0,0,3.95,2.4v-5.72h-7.63v-.9H959v.9h-7.14V1196H958v.89h-6.14v2.59c.54,0,1.13.06,1.79.06Zm-2.39-8.17H945.61v-6h11.08Zm-1-3.5v-1.6h-9.11v1.6Zm0,2.61v-1.67h-9.11v1.67Z" transform="translate(-873.5 -787.5)" style="fill:#fff"/><path d="M977.12,1188.52l-.4.86a22.37,22.37,0,0,1-4.7-1.6v.7H966.2v-.68a25.21,25.21,0,0,1-4.54,1.75l-.48-.82a18.32,18.32,0,0,0,7.77-3.87l1,.31-.28.27A18.39,18.39,0,0,0,977.12,1188.52Zm-1.78,5.47H962.83v-4.42h12.51Zm-.79,6.73h-.91V1200h-9v.76h-1V1195h10.9Zm-5.93-7.59v-2.7h-4.87v2.7Zm5,3.94v-1.17h-9v1.17Zm0,2v-1.2h-9v1.2Zm-6.52-6.89-.66.5a13.8,13.8,0,0,0-1.36-1.53l.69-.45A6.56,6.56,0,0,1,967.12,1192.21Zm4.47-4.6A18.16,18.16,0,0,1,969,1186a19.82,19.82,0,0,1-2.42,1.6Zm2.83,5.52v-2.7h-4.85v2.7Zm-1.37-2a8.12,8.12,0,0,1-1.35,1.58l-.7-.5a6.42,6.42,0,0,0,1.3-1.39Z" transform="translate(-873.5 -787.5)" style="fill:#fff"/><path d="M994.93,1193.45h-8.19a22.18,22.18,0,0,1-4.83,5.92,70.55,70.55,0,0,0,10-1.42c-.74-.8-1.68-1.71-2.83-2.75l.75-.62a28.71,28.71,0,0,1,5,5.6l-.83.5a15.39,15.39,0,0,0-1.4-1.92,91.57,91.57,0,0,1-12.14,1.66l-.19-1a17.24,17.24,0,0,0,5.37-6h-6.36v-1h7.28v-3.56h-6.06v-1h6.06v-3.07h1V1188h6.14v1h-6.14v3.56h7.38Z" transform="translate(-873.5 -787.5)" style="fill:#fff"/><path d="M1003.7,1198.58c-2.62.93-4.66,1.59-6.12,2l-.24-.9a4.75,4.75,0,0,0,.83-.27v-7h.9v6.78c.14,0,.64-.16,1.51-.41V1191h-2.39v-5.38h5V1191h-1.66v2.47h2v.88h-2v4.09c.48-.14,1.2-.39,2.14-.76Zm-1.43-8.51v-3.57h-3.16v3.57Zm10-2.34c0,1.47,0,3-.08,4.47s-.09,2.58-.13,3.21a2,2,0,0,1-.56,1.39,1.76,1.76,0,0,1-1.2.45l-1.53,0-.34-.93q.45,0,1.86,0a.83.83,0,0,0,.69-.34,9.75,9.75,0,0,0,.32-3.26c0-1.93,0-3.31,0-4.12h-5.77a17.39,17.39,0,0,1-1.48,1.83l-.61-.75a14.6,14.6,0,0,0,3-4.83l.85.36a20.21,20.21,0,0,1-1.22,2.51ZM1013,1198a6.08,6.08,0,0,1-.3,1.28,2,2,0,0,1-.56.91,1.6,1.6,0,0,1-.87.32c-.36,0-1,0-2,0-1.94,0-3.08,0-3.41-.08a1.33,1.33,0,0,1-.8-.46,1.55,1.55,0,0,1-.32-1v-8.66h4.58v5.06h-3.68v3.51c0,.36.11.57.33.64a14.15,14.15,0,0,0,2.45.11c1.62,0,2.62,0,3-.06s.61-.69.75-1.94Zm-4.65-3.52v-3.24h-2.74v3.24Z" transform="translate(-873.5 -787.5)" style="fill:#fff"/><path d="M1022.82,1197.28h-3.15v3.47h-.92v-3.47h-3.41v-.91h3.41v-2h-3v-.9h1.65a15.89,15.89,0,0,0-.76-2.71h-1.21v-.89h3.3V1188h-2.86v-.87h2.86v-2h.9v2h2.72v.87h-2.72v1.86h3v.89h-1c-.2.89-.44,1.8-.74,2.71h1.51v.9h-2.7v2h3.15Zm-2.18-6.56h-3c.28.91.51,1.82.69,2.71H1020A21.06,21.06,0,0,0,1020.64,1190.72Zm10.38,9.36-.52.72a13,13,0,0,1-2.58-2.27,11.48,11.48,0,0,1-2.38,2.25h-.07l-.61-.65a10.27,10.27,0,0,0,2.5-2.27,14.93,14.93,0,0,1-2.27-5.92h-.74v8.81h-.9V1185.5h6.71a16.81,16.81,0,0,1-.13,3,1.45,1.45,0,0,1-.69,1.11,5.89,5.89,0,0,1-2.41.22l-.27-.84a12.28,12.28,0,0,0,2.16-.09c.14-.07.26-.3.34-.7a8.81,8.81,0,0,0,.09-1.8h-4.9V1191h5.82a15.85,15.85,0,0,1-1.71,6.77A9.86,9.86,0,0,0,1031,1200.08Zm-1.84-8.14H1026a13.58,13.58,0,0,0,1.91,5.08A13.51,13.51,0,0,0,1029.18,1191.94Z" transform="translate(-873.5 -787.5)" style="fill:#fff"/><path d="M1049,1193.14h-8.34a11.62,11.62,0,0,1-1.73,1.93v4.53a20.25,20.25,0,0,0,4.14-1.25l.2.89a32.71,32.71,0,0,1-5.14,1.5l-.5-.79a.54.54,0,0,0,.35-.52v-3.57a23.63,23.63,0,0,1-4,2.36l-.6-.77a16.76,16.76,0,0,0,6.15-4.31h-6.13v-.86h7.46v-2h-6.25v-.91h6.25v-1.92h-7.07v-.88h7.07v-1.51h.92v1.51h6.94v.88h-6.94v1.92h6v.91h-6v2H1049Zm.12,6.82-.51.84a13.44,13.44,0,0,1-4.13-2.36,11.11,11.11,0,0,1-2.76-4l.8-.48a11.06,11.06,0,0,0,1.77,3,16.12,16.12,0,0,0,3.16-2.68l.74.6a20.82,20.82,0,0,1-3.24,2.75A11.61,11.61,0,0,0,1049.14,1200Z" transform="translate(-873.5 -787.5)" style="fill:#fff"/><path d="M1059,1194.53a1,1,0,0,1-.66-.87.87.87,0,0,1,.22-.52.77.77,0,0,1,.63-.27q.84,0,.84,1.11a2.33,2.33,0,0,1-1.06,1.75l-.38-.29A1.65,1.65,0,0,0,1059,1194.53Z" transform="translate(-873.5 -787.5)" style="fill:#fff"/><path d="M1077.39,1186.61a10.87,10.87,0,0,1-2.72,6.1,12.75,12.75,0,0,1-4.84,3l-.47-.83a10.52,10.52,0,0,0,5.4-3.76,16.09,16.09,0,0,0-2.53-2.14,11.34,11.34,0,0,1-2.29,2.23l-.66-.67a12.75,12.75,0,0,0,4.18-5.6l.86.29a9.38,9.38,0,0,1-.65,1.39Zm-4.66,10.17a17.08,17.08,0,0,1-2.68,3.92l-.7-.66a16,16,0,0,0,2.57-3.76Zm.57-5a24,24,0,0,1-2.87,1l-.26-.84a23.72,23.72,0,0,0,2.92-1.08Zm3-4.31h-3a6.14,6.14,0,0,1-.47.77,21.24,21.24,0,0,1,2.51,2A8.77,8.77,0,0,0,1076.25,1187.49Zm-.15,13-.95.25a19.6,19.6,0,0,0-.58-4l.92-.27A18.05,18.05,0,0,1,1076.1,1200.49Zm8.6-10.41h-3.94c-.35,2.73-2,4.61-5.09,5.66l-.56-.78c2.91-1,4.47-2.58,4.67-4.88h-2.3v-.87h2.39c.08-.94.14-2.35.18-4.24h.9c0,1.42-.07,2.83-.14,4.24h3.89Zm-4.16,10.32-.93.35a17.23,17.23,0,0,0-1.4-4l.9-.34A22.22,22.22,0,0,1,1080.54,1200.4Zm4.54-5.37-.71.71a19.42,19.42,0,0,0-3.31-3.73l.75-.57A24.09,24.09,0,0,1,1085.08,1195Zm-.81-7.25-.83.47A8.35,8.35,0,0,0,1082,1186l.83-.46A8.73,8.73,0,0,1,1084.27,1187.78Zm.74,12.58-.86.47a21.84,21.84,0,0,0-2.15-4l.84-.43A24.69,24.69,0,0,1,1085,1200.36Z" transform="translate(-873.5 -787.5)" style="fill:#fff"/><path d="M1092.52,1189a23.85,23.85,0,0,1-1.73,2.66v9.07h-1v-7.8a26.5,26.5,0,0,1-1.95,1.92l-.65-.75a20.48,20.48,0,0,0,4.45-5.44Zm-.54-3.66a17.21,17.21,0,0,1-4,4l-.62-.71a13.25,13.25,0,0,0,3.71-3.65Zm11.22,14.55-.36.92a21,21,0,0,1-5.36-2,20.72,20.72,0,0,1-5.66,2l-.49-.86a18.4,18.4,0,0,0,5.25-1.68,14.9,14.9,0,0,1-2.31-2.18,16.28,16.28,0,0,1-1.85,1.25l-.67-.68a11.2,11.2,0,0,0,1.91-1.26c-.28-.34-.53-.66-.74-.95l.72-.58a7.68,7.68,0,0,0,.72.9,5.9,5.9,0,0,0,1.44-2l-3,.14-.22-.94a18.61,18.61,0,0,0,4.64-2.46l-4,.22-.17-.93a13.14,13.14,0,0,0,4.66-3.91l.89.34a13.35,13.35,0,0,1-3.73,3.51c.91,0,2.14-.1,3.7-.25.83-.66,1.6-1.33,2.3-2l.93.42a30,30,0,0,1-6.89,5c1.48,0,3.49-.18,6-.48a14,14,0,0,0-1.13-1.5l.79-.49a19.46,19.46,0,0,1,2.58,3.82l-.8.47a9.27,9.27,0,0,0-.86-1.49c-1.41.17-3,.31-4.69.43a9.83,9.83,0,0,1-.93,1.68h5.59v.89a16.84,16.84,0,0,1-3.13,3A19,19,0,0,0,1103.2,1199.86Zm-3-4.61h-5.1a.86.86,0,0,1-.14.18,12.56,12.56,0,0,0,2.47,2.25A13.88,13.88,0,0,0,1100.23,1195.25Z" transform="translate(-873.5 -787.5)" style="fill:#fff"/><path d="M1105.27,1199a1,1,0,0,1,1.74-.73,1,1,0,0,1,.3.73,1,1,0,0,1-1,1,1,1,0,0,1-1-1Z" transform="translate(-873.5 -787.5)" style="fill:#fff"/><path d="M1109.42,1199a1,1,0,0,1,.31-.73,1,1,0,0,1,1.44,0,1,1,0,0,1,.29.73,1,1,0,0,1-1.73.74A1,1,0,0,1,1109.42,1199Z" transform="translate(-873.5 -787.5)" style="fill:#fff"/><path d="M1113.58,1199a1,1,0,0,1,.3-.73,1,1,0,0,1,.72-.3,1,1,0,0,1,.72.3,1,1,0,0,1,.3.73,1,1,0,0,1-.31.73,1,1,0,0,1-.71.3,1,1,0,0,1-1-1Z" transform="translate(-873.5 -787.5)" style="fill:#fff"/><path d="M1117.73,1199a1,1,0,0,1,1.74-.73,1,1,0,0,1,.3.73,1,1,0,0,1-1,1,1,1,0,0,1-1-1Z" transform="translate(-873.5 -787.5)" style="fill:#fff"/><path d="M1121.88,1199a1,1,0,0,1,.31-.73,1,1,0,0,1,.71-.3,1,1,0,0,1,.72.3,1,1,0,0,1,.3.73,1,1,0,0,1-1.73.74A1,1,0,0,1,1121.88,1199Z" transform="translate(-873.5 -787.5)" style="fill:#fff"/><path d="M1126,1199a1,1,0,0,1,1-1,1,1,0,0,1,.72.3,1,1,0,0,1,.3.73,1,1,0,0,1-.31.73,1,1,0,0,1-.71.3,1,1,0,0,1-1-1Z" transform="translate(-873.5 -787.5)" style="fill:#fff"/><path d="M1130.19,1199a1,1,0,0,1,1.74-.73,1,1,0,0,1,.3.73,1,1,0,0,1-.3.73,1,1,0,0,1-.72.3,1,1,0,0,1-1-1Z" transform="translate(-873.5 -787.5)" style="fill:#fff"/><path d="M1134.34,1199a1,1,0,0,1,1.74-.73,1,1,0,0,1,.3.73,1,1,0,0,1-1,1,1,1,0,0,1-1-1Z" transform="translate(-873.5 -787.5)" style="fill:#fff"/><path d="M1138.49,1199a1,1,0,0,1,.31-.73,1,1,0,0,1,.71-.3,1,1,0,0,1,.73.3,1,1,0,0,1,.3.73,1,1,0,0,1-.31.73,1,1,0,0,1-1.43,0A1,1,0,0,1,1138.49,1199Z" transform="translate(-873.5 -787.5)" style="fill:#fff"/><path d="M1142.65,1199a1,1,0,0,1,.3-.73,1,1,0,0,1,.72-.3,1,1,0,0,1,.72.3,1,1,0,0,1,.3.73,1,1,0,0,1-.31.73,1,1,0,0,1-.71.3,1,1,0,0,1-1-1Z" transform="translate(-873.5 -787.5)" style="fill:#fff"/><path d="M1146.8,1199a1,1,0,0,1,1.74-.73,1,1,0,0,1,.3.73,1,1,0,0,1-1,1,1,1,0,0,1-1-1Z" transform="translate(-873.5 -787.5)" style="fill:#fff"/><path d="M928.54,1255.88h-1.8v2.9a10.45,10.45,0,0,0,1.28-.67l.17,1.76c-.42.25-.9.53-1.45.82v6.09a2.62,2.62,0,0,1-.48,1.64,2.37,2.37,0,0,1-1.93.62,10.14,10.14,0,0,1-1.1-.06l-.57-1.78.93,0a2.83,2.83,0,0,0,1.15-.14.49.49,0,0,0,.21-.44v-5.05a21.94,21.94,0,0,1-2.16,1l-.51-1.66q1.56-.62,2.67-1.17v-3.83h-2.5v-1.8H925v-3.37h1.79v3.37h1.8Zm12.39,11.22-.61,1.78a30.32,30.32,0,0,1-6.68-.38,5.78,5.78,0,0,1-3-1.86,13.25,13.25,0,0,1-1.41,2.54l-1.6-1a11.64,11.64,0,0,0,2.31-6.09l1.8.34a21,21,0,0,1-.5,2.42,5.1,5.1,0,0,0,2.59,1.89v-5.42H928.7v-1.7h12v1.7h-5v1.77h4.1v1.68h-4.1V1267c.8.06,1.83.09,3.08.09Zm-1.45-8.78h-9.86V1251h9.86Zm-1.83-4.47v-1.2h-6.2v1.2Zm0,2.83v-1.3h-6.2v1.3Z" transform="translate(-873.5 -787.5)" style="fill:#3e3e3e"/><path d="M961.7,1259.85h-4.39v9.22h-1.89v-9.22h-5.2q-.22,5.55-5.57,9.29l-1.41-1.44a11.27,11.27,0,0,0,3.65-3.38,9.67,9.67,0,0,0,1.39-4.47h-4.83V1258h4.92c0-.87.07-1.69.07-2.45,0-.45,0-.89,0-1.32-1.75.49-3,.81-3.71.94l-.82-1.72a27.55,27.55,0,0,0,8.48-2.86l1.37,1.38a25.1,25.1,0,0,1-3.39,1.6c0,.58,0,1.19,0,1.83s0,1.66-.06,2.6h5.09v-7.28h1.89V1258h4.39Z" transform="translate(-873.5 -787.5)" style="fill:#3e3e3e"/><path d="M969.18,1251.05l-1.26,4.33v13.76h-1.83v-9.81c-.31.52-.65,1.05-1,1.57l-.93-2a25.76,25.76,0,0,0,3.2-8.28Zm13.63,6.35h-9a13.51,13.51,0,0,1-.67,1.32h8.89v8.9a1.42,1.42,0,0,1-.39,1,1.45,1.45,0,0,1-.83.47,19.34,19.34,0,0,1-2,.06l-.42-1.6,1.48,0a.4.4,0,0,0,.28-.19.53.53,0,0,0,.16-.35v-1.22h-2.78v3.31h-1.81v-3.31h-3a7.09,7.09,0,0,1-2.27,3.46l-1.39-1.22a6.59,6.59,0,0,0,2.29-5.48v-1.45c-.61.63-1.31,1.29-2.1,2l-1.07-1.54a12.46,12.46,0,0,0,3.68-4.11h-3.16v-1.68h3.37v-1.56h-2.9v-1.63h2.9v-1.71H974v1.71h3.67v-1.71h1.88v1.71h2.81v1.63h-2.81v1.56h3.28Zm-7,6.89V1263h-2.6l-.08,1.28Zm0-2.82v-1.18H973.2v1.18Zm1.87-5.75v-1.56H974v1.56Zm2.72,5.75v-1.18h-2.78v1.18Zm0,2.82V1263h-2.78v1.28Z" transform="translate(-873.5 -787.5)" style="fill:#3e3e3e"/><path d="M988.65,1260.1a32,32,0,0,1-1.55,6.14l-1.65-.78a30.37,30.37,0,0,0,1.48-5.82Zm-.11-4.14-1.72.6a23.69,23.69,0,0,0-1.15-4.13l1.65-.62A25.62,25.62,0,0,1,988.54,1256Zm5.46,3h-2.87v10H989.3v-10h-3.55v-1.79h3.55v-6.48h1.83v6.48H994Zm.54,5.92-1.68.45a30.39,30.39,0,0,0-1.05-5.28l1.59-.5A23.71,23.71,0,0,1,994.54,1264.93Zm.16-12.64a20.66,20.66,0,0,1-1.21,4.33l-1.64-.76a21.21,21.21,0,0,0,1.13-4.13Zm4.57,7.77-1.26,1.31a22,22,0,0,0-3.49-3.61l1.2-1.42A21.92,21.92,0,0,1,999.27,1260.06Zm.27-5.06-1.33,1.3a18.37,18.37,0,0,0-3.11-3.53l1.2-1.34A22,22,0,0,1,999.54,1255Zm4.31,8.65-1.81.3v5.1h-1.87v-4.76l-4.91.83-.14-1.83,5-.84v-11.71H1002v11.36l1.69-.25Z" transform="translate(-873.5 -787.5)" style="fill:#3e3e3e"/><path d="M1011.17,1250.87a26.14,26.14,0,0,1-.64,2.58l-.48,1.55v14.09h-1.81v-10a19.78,19.78,0,0,1-1.06,1.7l-.85-2.16a24.52,24.52,0,0,0,3.11-8.09Zm13.92,16.67-.66,1.6a34.67,34.67,0,0,1-6.48-1.35,25.45,25.45,0,0,1-6.51,1.47l-.71-1.56a23.73,23.73,0,0,0,5.27-.84c-.81-.48-1.34-.81-1.6-1-.93.53-1.68.92-2.27,1.18l-1-1.29a18.3,18.3,0,0,0,1.91-.9,4.64,4.64,0,0,1-.57-.5l1.25-.92c.17.15.41.34.72.58a12.81,12.81,0,0,0,1.23-1,1.29,1.29,0,0,1-.8-1.29v-1.55h1.68v1.28a.39.39,0,0,0,.44.44l2.06-.06a.52.52,0,0,0,.34-.12,1.84,1.84,0,0,0,.31-.87l1.36.67a1.63,1.63,0,0,1-.7,1.32,6,6,0,0,1-2.73.3,2.48,2.48,0,0,1-.53.58h5.17v1.24a14.07,14.07,0,0,1-2.33,1.83A22.13,22.13,0,0,0,1025.09,1267.54Zm-.42-15.11h-5.94a3,3,0,0,1-.31.8h4.46v5.11h1.67V1261H1023a12.76,12.76,0,0,1,1.23,1.82l-1.33.86a16.12,16.12,0,0,0-2-2.87l1.2-.84q.2.19.63.69v-1h-9.84V1261l.49-.78,1.26.63a10.64,10.64,0,0,1-2,2.81l-1.13-.94a8.62,8.62,0,0,0,1.36-1.66h-1.76v-2.71h1.68v-5.09h3.68a4.85,4.85,0,0,0,.31-.82h-5.25V1251h13.14Zm-3.61,2.59v-.69h-6.4v.69Zm0,1.62v-.7h-6.4v.7Zm0,1.7v-.74h-6.4v.74Zm-1.06,6.59h-4.21a10.43,10.43,0,0,0,2.24,1.2A19.37,19.37,0,0,0,1020,1264.93Zm-.65-4.43-.62,1.07a9,9,0,0,0-1.68-.73l.53-1A7,7,0,0,1,1019.35,1260.5Z" transform="translate(-873.5 -787.5)" style="fill:#3e3e3e"/><path d="M1033.54,1251l-.53,1.43c-.18.51-.36,1-.54,1.36l-.58,1.22v14.09H1030V1258.5c-.44.59-1,1.21-1.54,1.88l-1-1.94a21.88,21.88,0,0,0,4.12-7.87Zm12.33,13.2a12.59,12.59,0,0,1-.34,2.91,2.53,2.53,0,0,1-.65,1.12,2.21,2.21,0,0,1-.91.51,16.29,16.29,0,0,1-3.15.16,22.09,22.09,0,0,1-3.92-.18,1.41,1.41,0,0,1-.85-.74,2.88,2.88,0,0,1-.29-1.36v-15.81h1.91V1257h8v1.86h-8v7.6a.46.46,0,0,0,.35.44,15.29,15.29,0,0,0,2.78.13,9.42,9.42,0,0,0,2.66-.21c.32-.14.48-1.27.51-3.39Z" transform="translate(-873.5 -787.5)" style="fill:#3e3e3e"/><path d="M1057.33,1267.44a1.58,1.58,0,0,1-.3,1,1.48,1.48,0,0,1-.7.53,5,5,0,0,1-1.4.14l-1.25,0-.45-1.75c.34,0,.71,0,1.12,0a2.93,2.93,0,0,0,1-.09.29.29,0,0,0,.15-.27v-2.27c-2.45,1.06-3.74,1.6-3.85,1.59l-.48-.88a10.69,10.69,0,0,1-1.22,3.74l-1.49-1.26q1-1.73,1-5.65v-4.53h7.84Zm1.32-11.56-1.5,1a9.61,9.61,0,0,0-.74-1.11c-2.26.39-4.71.69-7.36.92l-.45-1.45a14.17,14.17,0,0,0,3.45-4.64l1.81.57a15.74,15.74,0,0,1-2.65,3.65,36.8,36.8,0,0,0,4.07-.52,12.76,12.76,0,0,0-1.5-1.6l1.54-1A21.8,21.8,0,0,1,1058.65,1255.88Zm-3.15,7v-3.44h-4.09v1.14a17.92,17.92,0,0,1,3.63.76l-.62,1.54a22.59,22.59,0,0,0-3.05-.64c0,.75,0,1.55-.1,2.39A28.38,28.38,0,0,0,1055.5,1262.89Zm11.42,2.49a5.7,5.7,0,0,1-.45,2.59,2.82,2.82,0,0,1-.78.74,10.78,10.78,0,0,1-3.11.23,9.1,9.1,0,0,1-2.58-.21,1.46,1.46,0,0,1-.75-.68,2.13,2.13,0,0,1-.26-1v-7.38h1.83v2.71h5.47V1264h-5.47v2.79c0,.28.15.42.44.42h3.09a.62.62,0,0,0,.57-.36,6.75,6.75,0,0,0,.25-2Zm-.25-6.41h-5.83a1.72,1.72,0,0,1-1.31-.53,1.92,1.92,0,0,1-.5-1.36v-6.28h1.83v2.33h5.45v1.66h-5.45v2.13a.36.36,0,0,0,.15.24.44.44,0,0,0,.29.13h5.37Z" transform="translate(-873.5 -787.5)" style="fill:#3e3e3e"/><path d="M1086.91,1254.29c0,3.75-.1,6.77-.25,9a14.5,14.5,0,0,1-.66,4.24,2.51,2.51,0,0,1-1.11,1.16,8.85,8.85,0,0,1-3.1.34c-.48,0-.94,0-1.39,0l-.72-2c.69,0,1.85.06,3.49.06a1.19,1.19,0,0,0,.71-.22,1.1,1.1,0,0,0,.44-.54,16.06,16.06,0,0,0,.3-2.36c.11-1.36.19-2.72.24-4.07l.11-3.87h-6.09a16.58,16.58,0,0,1-2.12,7.86,16.11,16.11,0,0,1-5.83,5.13l-1.26-1.55a14.46,14.46,0,0,0,5-3.87c1.34-1.62,2.13-4.15,2.36-7.57h-6.66v-1.81h6.76c.08-1.09.11-2.3.09-3.62h1.93c0,1,0,2.25-.12,3.62Z" transform="translate(-873.5 -787.5)" style="fill:#3e3e3e"/><path d="M930.07,1275.73a6.6,6.6,0,0,1,4.9,2.07,6.73,6.73,0,0,1,2,4.83,6.86,6.86,0,0,1-2,5,7,7,0,0,1-9.91,0,6.83,6.83,0,0,1-2-4.95,6.7,6.7,0,0,1,2-4.91A6.81,6.81,0,0,1,930.07,1275.73Z" transform="translate(-873.5 -787.5)" style="fill:#3e3e3e"/><path d="M955.94,1277.72h-9.35a21.06,21.06,0,0,1-2.47,3.79v9.07h-1v-7.87a14.74,14.74,0,0,1-2.58,2.15l-.33-.91a18.5,18.5,0,0,0,5.25-6.23h-5.23v-.93H946a19.72,19.72,0,0,0,1-2.06l.94.31c-.32.73-.6,1.31-.84,1.75h8.89Zm0,7.9h-4.47v3.57a1.34,1.34,0,0,1-.24.79,1.27,1.27,0,0,1-.64.47,6.36,6.36,0,0,1-1.62.13c-.47,0-1,0-1.42,0l-.38-1a12.62,12.62,0,0,0,1.44.07,5.81,5.81,0,0,0,1.66-.13.4.4,0,0,0,.25-.37v-3.51h-5.43v-.92h5.43v-1.37a22.09,22.09,0,0,0,2.86-2.33h-7v-.94h8.39v.94a24.54,24.54,0,0,1-3.25,2.76v.94h4.47Z" transform="translate(-873.5 -787.5)" style="fill:#3e3e3e"/><path d="M964.12,1275.24a10.34,10.34,0,0,1-2.06,1.76v3h-.91v-2.46a27.18,27.18,0,0,1-2.49,1.16l-.54-.81a12.92,12.92,0,0,0,5.17-3.23Zm7.3,12.31h-7.37l.56.54a20.94,20.94,0,0,1-5.82,2.49l-.58-.86a19.22,19.22,0,0,0,5.46-2.17h-2.52v-6.81h10.27Zm-.94-4.81v-1.15H962.1v1.15Zm0,2v-1.15H962.1v1.15Zm0,2v-1.15H962.1v1.15Zm3.15-8.85a2.56,2.56,0,0,1-.34,1.44,1.19,1.19,0,0,1-1,.53c-.47,0-1.23,0-2.31,0-2.29,0-3.56,0-3.81-.07a1,1,0,0,1-.64-.41,1.27,1.27,0,0,1-.25-.78v-3.79h.91v1.16h6.13v.81h-6.13v1.62c0,.4.28.6.83.59h5c.3,0,.49-.1.57-.33a3.69,3.69,0,0,0,.12-1.14Zm.35,11.91-.49.85a26.53,26.53,0,0,0-5.08-1.8l.56-.84A31.42,31.42,0,0,1,974,1289.74Z" transform="translate(-873.5 -787.5)" style="fill:#3e3e3e"/><path d="M982.63,1275.14a16.91,16.91,0,0,1-5.75,7.42l-.65-.74a15.29,15.29,0,0,0,5.45-7Zm6.54,6.32a46.3,46.3,0,0,1-.34,5.2,11.5,11.5,0,0,1-.59,2.85,1.68,1.68,0,0,1-.81.79,4.66,4.66,0,0,1-1.79.24c-.37,0-.84,0-1.43,0l-.21-1c.66.06,1.26.09,1.82.09a3.07,3.07,0,0,0,1-.11,1.21,1.21,0,0,0,.41-.3,3.58,3.58,0,0,0,.38-1.18,21.32,21.32,0,0,0,.34-2.42c.08-1,.14-2,.17-3.19h-4.63q-.6,5.3-5.95,8.33L977,1290q5-2.79,5.5-7.58h-3.4v-1Zm2.91.24-.64.81a13.11,13.11,0,0,1-4.94-6.63h-1.35v-1h2A11.76,11.76,0,0,0,992.08,1281.7Z" transform="translate(-873.5 -787.5)" style="fill:#3e3e3e"/><path d="M1002,1279.31H999v3.56h-.91v-3.56h-3.62v-.82h3.62v-3.71H999v3.71H1002Zm0,6.4h-3.17a3.65,3.65,0,0,1-.18.83,13.15,13.15,0,0,1,2.76,2.08l-.61.67a13.26,13.26,0,0,0-2.4-1.91,7.68,7.68,0,0,1-3.14,3.2l-.74-.64q3.15-1.71,3.37-4.23h-3.45v-.85H998c0-.55.07-1,.07-1.47H999c0,.17,0,.34,0,.53a6.93,6.93,0,0,1-.05.94h3.13Zm-4.74-5.22a9.21,9.21,0,0,1-1.93,2.9l-.72-.56a12.55,12.55,0,0,0,1.91-2.73Zm-.21-3-.79.42a13,13,0,0,0-1.27-2.27l.79-.46A12.93,12.93,0,0,1,997.1,1277.45Zm4.14,6.57-.7.39a10.23,10.23,0,0,0-1-1l.71-.47A6.47,6.47,0,0,1,1001.24,1284Zm.73-1.5-.76.49a15.38,15.38,0,0,0-1.5-2.39l.76-.47A14.91,14.91,0,0,1,1002,1282.52Zm-.17-6.92a8.94,8.94,0,0,1-1.24,2.15l-.79-.45a8.52,8.52,0,0,0,1.2-2.13Zm8.25.43h-3.37a19.08,19.08,0,0,1-.55,2.16h3.09v8.69h-4.14l.58.61a11.78,11.78,0,0,1-3.07,3l-.62-.64a9.9,9.9,0,0,0,3-2.94h-2v-8.69h2.2a15.5,15.5,0,0,0,.58-2.16h-3.57v-.83h7.87Zm-1.72,4.68V1279h-4.46v1.69Zm0,2.57v-1.72h-4.46v1.72Zm0,2.75v-1.89h-4.46V1286Zm1.72,3.82-.61.68a11.26,11.26,0,0,0-2.88-2.37l.52-.65A10.27,10.27,0,0,1,1010.05,1289.85Z" transform="translate(-873.5 -787.5)" style="fill:#3e3e3e"/><path d="M1019.11,1282.69h-2.77a11.52,11.52,0,0,1-3.13,7.11l-.79-.58a10.18,10.18,0,0,0,3-6.53h-3v-.94h3.09c.06-1.21.09-2.29.09-3.26h-2.78v-.88h2.8v-2.75h.9v2.75h2.36v.88h-2.36c0,1.14-.05,2.23-.09,3.26h2.73Zm0,4.69-.72.66a16.17,16.17,0,0,0-1.83-3.23l.69-.59A21.18,21.18,0,0,1,1019.13,1287.38Zm8.91-.51a5.67,5.67,0,0,1-.46,2.9,1.94,1.94,0,0,1-1.63.59c-.87,0-1.42-.15-1.63-.44a1.31,1.31,0,0,1-.32-.8v-4.35h-1.73q-.09,4.2-4.34,5.76l-.59-.75q4.1-1.48,4-5h-1.64v-9.55h7.41v9.55h-2.15V1289a.53.53,0,0,0,.15.37c.1.11.39.17.87.17a1.06,1.06,0,0,0,.9-.33,3.79,3.79,0,0,0,.25-1.78c0-.24,0-.49,0-.75Zm-1.91-8.74v-2.05h-5.54v2.05Zm0,2.85v-2h-5.54v2Zm0,3v-2.11h-5.54V1284Z" transform="translate(-873.5 -787.5)" style="fill:#3e3e3e"/><path d="M1038.15,1277h-5.44a9.69,9.69,0,0,1-1.81,1.73l-.56-.67a11.41,11.41,0,0,0,3-3.48l.81.29a12.57,12.57,0,0,1-.85,1.34h4.84Zm1,11.44h-3.73v2h-.91v-2h-4.14v-.8h4.14v-1.25h-3.22v-4.79h3.22v-1.27h-3.88v-.74h3.88v-.8h.91v.8H1039v.74h-3.62v1.27h3.2v4.79h-3.2v1.25h3.73Zm-4.64-4.83v-1.24h-2.3v1.24Zm0,2v-1.25h-2.3v1.25Zm2.35-7.06-.8.39a5.39,5.39,0,0,0-.91-1.26l.74-.42A6.2,6.2,0,0,1,1036.83,1278.59Zm.87,5.05v-1.24h-2.31v1.24Zm0,2v-1.25h-2.31v1.25Zm7.85-8.62h-5.39a10.69,10.69,0,0,1-1.43,1.72l-.71-.6a12.48,12.48,0,0,0,2.5-3.47l.85.27a8.12,8.12,0,0,1-.7,1.29h4.88Zm.49,10a9.2,9.2,0,0,1-.36,2.17,1.41,1.41,0,0,1-.75.93,6.3,6.3,0,0,1-1.88.19,5.24,5.24,0,0,1-2.58-.36,1.32,1.32,0,0,1-.43-1.08v-9.36h5.1c0,1.46-.06,2.69-.14,3.68a7.09,7.09,0,0,1-.29,1.86,1.26,1.26,0,0,1-.55.59,3.27,3.27,0,0,1-1.48.23,4.54,4.54,0,0,1-.65,0l-.26-.95a8.06,8.06,0,0,0,1,.07c.6,0,1-.12,1.12-.38a20.84,20.84,0,0,0,.34-4.25h-3.35v8.43a.53.53,0,0,0,.27.52,6.35,6.35,0,0,0,1.82.14c1,0,1.57-.07,1.68-.2a3.26,3.26,0,0,0,.32-1.17c.11-.64.17-1.1.19-1.36Zm-2.63-8.26-.81.38a7.45,7.45,0,0,0-1-1.28l.83-.34A7,7,0,0,1,1043.41,1278.8Z" transform="translate(-873.5 -787.5)" style="fill:#3e3e3e"/><path d="M930.07,1297.33a6.57,6.57,0,0,1,4.9,2.08,6.69,6.69,0,0,1,2,4.82,6.9,6.9,0,0,1-2,5,6.72,6.72,0,0,1-5,2,6.63,6.63,0,0,1-4.93-2.07,6.83,6.83,0,0,1-2-5,6.7,6.7,0,0,1,2-4.91A6.81,6.81,0,0,1,930.07,1297.33Z" transform="translate(-873.5 -787.5)" style="fill:#3e3e3e"/><path d="M944.16,1296.46l-1,3.33v12.32h-.93V1302a21.31,21.31,0,0,1-1.48,2.63l-.65-.74a24.81,24.81,0,0,0,3.17-7.77Zm11.73,5.24h-8a13.14,13.14,0,0,1-.92,1.46h7.82v7.59a1.41,1.41,0,0,1-.23.78,1,1,0,0,1-.61.51,5,5,0,0,1-1.55.09l-.38-.89,1,0c.58,0,.87-.2.87-.61v-1.84h-3v3.11h-.91v-3.11h-3.33a8.23,8.23,0,0,1-1.89,3.4l-.65-.61a8,8,0,0,0,2.07-5.6v-2a14.08,14.08,0,0,1-2.12,2.24l-.62-.65a17.44,17.44,0,0,0,3.41-3.94h-3v-.89h3.39V1299h-3v-.91h3v-1.75h.92v1.75h3.44v-1.75h.94v1.75h2.85v.91h-2.85v1.77h3.23Zm-5.81,6.22v-1.53h-2.93a8.18,8.18,0,0,1-.19,1.53Zm0-2.41V1304h-2.9v1.49Zm1.64-4.7V1299h-3.44v1.77Zm2.22,4.7V1304h-3v1.49Zm0,2.41v-1.53h-3v1.53Z" transform="translate(-873.5 -787.5)" style="fill:#3e3e3e"/><path d="M960.89,1304.42a19.67,19.67,0,0,1-1.67,5.07l-.91-.4a18.91,18.91,0,0,0,1.74-4.95Zm4.67-1.31h-2.78v9h-.93v-9h-3.33v-.86h3.33v-5.94h.93v5.94h2.78Zm-4.77-2.3-.9.36a14.16,14.16,0,0,0-1.32-3.21l.81-.37A14.84,14.84,0,0,1,960.79,1300.81Zm4.86,6.39-.94.31a11.87,11.87,0,0,0-1.12-3.08l.84-.29A17.9,17.9,0,0,1,965.65,1307.2Zm.14-9.28a17.32,17.32,0,0,1-1.31,3.37l-.86-.43a13.53,13.53,0,0,0,1.35-3.27Zm8.22,9.28-1.85.36v4.57h-.92v-4.38l-5.59,1-.12-.9,5.71-1.08v-10.45h.92v10.27l1.73-.33Zm-4.07-2.2-.71.72a14.74,14.74,0,0,0-2.94-3l.67-.66A19.33,19.33,0,0,1,969.94,1305Zm.31-4.85-.71.7a15.74,15.74,0,0,0-2.89-2.46l.62-.67A17.3,17.3,0,0,1,970.25,1300.15Z" transform="translate(-873.5 -787.5)" style="fill:#3e3e3e"/><path d="M984.34,1308.37q-4.4,1.83-7.71,2.94l-.37-.88a7.11,7.11,0,0,0,1.1-.4v-8.86h.95v8.54c.31-.1.88-.31,1.72-.62v-11H976.5v-.94h7.6v.94H981v4.53h2.47v.91H981v5.16c.81-.29,1.87-.7,3.2-1.26Zm7.81,3-.57.82a12.48,12.48,0,0,1-4-3.16,18.16,18.16,0,0,1-4.27,3.17l-.62-.73a15.31,15.31,0,0,0,4.33-3.18,15.56,15.56,0,0,1-1.77-4.23l.88-.32a13.38,13.38,0,0,0,1.49,3.78,14.67,14.67,0,0,0,2-7.32h-3.35a21.34,21.34,0,0,1-1.66,4l-.74-.64a19.67,19.67,0,0,0,2.25-7.21l1,.19c-.17,1-.36,1.92-.58,2.76h5.17v.93h-1.13c-.24,3.69-1,6.42-2.36,8.16A11.19,11.19,0,0,0,992.15,1311.36Z" transform="translate(-873.5 -787.5)" style="fill:#3e3e3e"/><path d="M1002,1299h-4.87a11.16,11.16,0,0,1-2.16,2l-.74-.66a10.45,10.45,0,0,0,3.54-4l.91.33c-.11.23-.4.7-.86,1.42H1002Zm8.07,11.77-.56.8a19.07,19.07,0,0,1-6.9-4.21v4.81h-.94v-4.85a18.81,18.81,0,0,1-6.81,4.25l-.58-.8a17.81,17.81,0,0,0,7.39-4.75v-1.08h-4.54V1308h-.94v-4h5.48v-1.37h-7.12v-.88h7.12v-1h.94v1h7.19v.88h-7.19V1304h5.55v2.72a1.43,1.43,0,0,1-.3,1,1.85,1.85,0,0,1-1.34.33,5.15,5.15,0,0,1-.56,0l-.4-.94,1.3,0c.26,0,.38-.12.38-.37v-1.84h-4.63V1306A17.62,17.62,0,0,0,1010.09,1310.73Zm-9.79-9.79-1,.35a6.69,6.69,0,0,0-1.33-1.54l.94-.38A8.43,8.43,0,0,1,1000.3,1300.94Zm9.43-2h-5.66a6.34,6.34,0,0,1-1.21,1.33l-.7-.61a9,9,0,0,0,2.34-3.35l.87.32a11.37,11.37,0,0,1-.69,1.41h5.05Zm-2.26,1.92-.89.36a9.16,9.16,0,0,0-1.25-1.43l.87-.36A5.46,5.46,0,0,1,1007.47,1300.88Z" transform="translate(-873.5 -787.5)" style="fill:#3e3e3e"/><path d="M1021.74,1309.28a6.45,6.45,0,0,1-4.9,2.14,5,5,0,0,1-3.35-1.05,3.54,3.54,0,0,1-1.23-2.85q0-2.82,3.15-4.19a3.48,3.48,0,0,1-1.57-2.85,2.91,2.91,0,0,1,1-2.27,3.68,3.68,0,0,1,2.54-.85,3.53,3.53,0,0,1,2.39.79,2.64,2.64,0,0,1,.91,2.09c0,1.42-.87,2.48-2.62,3.18a8.51,8.51,0,0,1,3.83,3.56,8.72,8.72,0,0,0,1.55-5.11,5.42,5.42,0,0,0-.17-1.31h1.45a5.6,5.6,0,0,1,.12,1.26,11.12,11.12,0,0,1-2.2,6.35,6.83,6.83,0,0,0,1.3,1.49,1.87,1.87,0,0,0,1.16.37,4.07,4.07,0,0,0,1.15-.26v1.4a4.25,4.25,0,0,1-1.39.25,2.68,2.68,0,0,1-1.52-.42A6.66,6.66,0,0,1,1021.74,1309.28Zm-.72-1.1a13.22,13.22,0,0,0-2.18-2.78,7.08,7.08,0,0,0-2.29-1.33,5,5,0,0,0-2.16,1.4,3.08,3.08,0,0,0-.64,2,2.37,2.37,0,0,0,.86,2,3.4,3.4,0,0,0,2.22.71A5.31,5.31,0,0,0,1021,1308.18Zm-4.19-5.39a5.15,5.15,0,0,0,1.83-1,1.86,1.86,0,0,0,.59-1.42,1.69,1.69,0,0,0-.55-1.33,2,2,0,0,0-1.36-.49,2.16,2.16,0,0,0-1.54.53,1.81,1.81,0,0,0-.56,1.39A2.6,2.6,0,0,0,1016.83,1302.79Z" transform="translate(-873.5 -787.5)" style="fill:#3e3e3e"/><path d="M1043.77,1310.8l-.33,1-6.58,0q-4.45,0-6.4-2.15a16.65,16.65,0,0,1-2.08,2.43l-.71-.64a11,11,0,0,0,3.52-5.67h-3v-.87c1.09-1.36,2-2.61,2.85-3.78h-3.2v-.88h4.38v.88l-2.81,3.71h2.76v.94a13.28,13.28,0,0,1-1.25,3.15,6,6,0,0,0,2.31,1.44,12.15,12.15,0,0,0,4,.52Q1039.54,1310.88,1043.77,1310.8ZM1031.63,1299l-.72.57a17.13,17.13,0,0,0-2.53-2.52l.66-.63A14.35,14.35,0,0,1,1031.63,1299Zm11.16,9.82h-9v-10.69h3a10,10,0,0,0,.91-1.8l.94.3c-.24.53-.5,1-.77,1.5h4.52v4.23h-7.65v1.95h8.08Zm-1.37-7.34v-2.45h-6.71v2.45Zm.42,6.44v-2.75h-7.13v2.75Z" transform="translate(-873.5 -787.5)" style="fill:#3e3e3e"/><path d="M1051.23,1310.32q-2.45.93-5.17,1.69l-.35-.84.88-.24v-7.08h.93v6.8a6.39,6.39,0,0,0,1.22-.41v-7.86h-2V1297h4.17v5.35h-1.24v2.29H1051v.88h-1.31v4.39c.49-.16,1-.35,1.54-.56Zm-1.27-8.82v-3.56h-2.3v3.56Zm4.11.7c-.13.43-.28.86-.45,1.27l-.25.55v8.06h-.95v-6.29a9.64,9.64,0,0,1-.83,1l-.56-.67a15.65,15.65,0,0,0,2.28-4.36Zm.69-5.58a13.07,13.07,0,0,1-3,4.23l-.51-.78a12.94,12.94,0,0,0,2.71-3.76Zm6.86,14.2-.33,1a7.36,7.36,0,0,1-3.8-.65,4.47,4.47,0,0,1-1.69-2.49,10,10,0,0,1-1.32,3.39l-.73-.57c1.07-1.6,1.57-4.31,1.47-8.13l.89,0c0,.37,0,1.07,0,2.1l-.06,1.39a6.41,6.41,0,0,0,.51,1.65,4,4,0,0,0,1.4,1.9v-7.71h.94v2.63h2.22v.9h-2.22v4.5a9,9,0,0,0,1.7.14C1061,1310.87,1061.29,1310.85,1061.62,1310.82Zm-3.82-11.09-.55.76a6.52,6.52,0,0,0-1-1.09,10.64,10.64,0,0,1-1.48,2.48l-.71-.64a11.29,11.29,0,0,0,2.2-4.93l.87.22a11,11,0,0,1-.56,2A15.17,15.17,0,0,1,1057.8,1299.73Zm3.53,1.68-.7.7a10.88,10.88,0,0,0-1.55-2,8.39,8.39,0,0,1-1.45,2.16l-.67-.59a11.26,11.26,0,0,0,2.41-5.33l.85.2a14.37,14.37,0,0,1-.78,2.77A12.11,12.11,0,0,1,1061.33,1301.41Z" transform="translate(-873.5 -787.5)" style="fill:#3e3e3e"/><path d="M1068.76,1303.9l-.71.59a17.61,17.61,0,0,0-1.12-1.81v9.43H1066v-8.93a26.77,26.77,0,0,1-1.75,4.15l-.52-1a23,23,0,0,0,2.25-5.85h-2.11v-.9H1066v-3.3h.93v3.3h1.34v.9h-1.34v1Q1067.89,1302.61,1068.76,1303.9Zm10.93,5.38a7.38,7.38,0,0,1-.56,2.27,1.14,1.14,0,0,1-1,.77q-1.18,0-2.58-2.46a15.4,15.4,0,0,1-3.47,2.17l-.64-.72a11.44,11.44,0,0,0,3.71-2.2,12.33,12.33,0,0,1-1.08-3.24h-3.29l-.11,1.09a12.07,12.07,0,0,1,2.54,1.75l-.52.76a10.27,10.27,0,0,0-2.15-1.64,9.08,9.08,0,0,1-2.25,4.4l-.83-.58a7.72,7.72,0,0,0,2.36-5.78h-1.6v-.9h5.68a81.09,81.09,0,0,1-.58-8.68l.92,0a61.76,61.76,0,0,0,.61,8.64h1.82c-.05-.11-.19-.39-.43-.84l.74-.31a4.53,4.53,0,0,1,.63,1.15h1.93v.9H1075a9.59,9.59,0,0,0,.85,2.54,9.84,9.84,0,0,0,1.56-2.14l.71.45a12,12,0,0,1-1.93,2.5,7,7,0,0,0,1,1.45c.39.47.69.7.9.7s.32-.16.46-.47a8.93,8.93,0,0,0,.41-2.06Zm-6.41-5.33-.81.23a8.41,8.41,0,0,0-.14-.83q-1.92.18-3.3.36l-.14-.65a30,30,0,0,0,1.91-2.49l-1.88.28-.23-.78a22.91,22.91,0,0,0,1.83-3.64l.81.37a25.81,25.81,0,0,1-1.6,3.06,12.94,12.94,0,0,0,1.73-.27,14.75,14.75,0,0,0,.85-1.46l.77.43a28.75,28.75,0,0,1-3,4.18c.6,0,1.27-.1,2-.2a5.41,5.41,0,0,0-.38-1.2l.79-.22A12,12,0,0,1,1073.28,1304Zm6.24,0-.81.24a7.16,7.16,0,0,0-.21-.84c-1,.11-2,.25-3.23.43l-.24-.77c.76-.9,1.37-1.7,1.86-2.39-.5,0-1.11.15-1.83.28l-.27-.78a21.82,21.82,0,0,0,1.81-3.52l.8.36c-.49,1-1,2-1.56,2.95.36,0,.93-.14,1.71-.27.23-.33.49-.75.8-1.27l.77.39a38.14,38.14,0,0,1-2.83,4l2-.23a4.82,4.82,0,0,0-.33-1l.79-.24A15.74,15.74,0,0,1,1079.52,1303.9Z" transform="translate(-873.5 -787.5)" style="fill:#3e3e3e"/><path d="M1091.69,1303h-4.42v2.13h3.83v5.05c0,.75-.42,1.12-1.26,1.12h-1.31l-.35-.93h1.6a.4.4,0,0,0,.31-.15.56.56,0,0,0,.13-.35V1306h-3v6h-.91v-6h-2.86v5.37h-.9v-6.26h3.76V1303h-4.59v-.9h4.59v-2.43h-2.92a10.43,10.43,0,0,1-1,1.64l-.81-.44a13.13,13.13,0,0,0,2-4.24l.92.17a20.67,20.67,0,0,1-.73,2h2.51v-2.41h.91v2.41h4v.9h-4v2.43h4.42Zm2.17,5.94h-.93v-11.21h.93Zm3.17,1.87a1.12,1.12,0,0,1-.37.86,1.38,1.38,0,0,1-1,.35h-2.3l-.33-1h2.6a.38.38,0,0,0,.29-.17.58.58,0,0,0,.14-.34v-14.2h.92Z" transform="translate(-873.5 -787.5)" style="fill:#3e3e3e"/><path d="M930.07,1318.93A6.6,6.6,0,0,1,935,1321a6.73,6.73,0,0,1,2,4.83,6.86,6.86,0,0,1-2,5,7,7,0,0,1-9.91,0,6.83,6.83,0,0,1-2-5,6.7,6.7,0,0,1,2-4.91A6.81,6.81,0,0,1,930.07,1318.93Z" transform="translate(-873.5 -787.5)" style="fill:#3e3e3e"/><path d="M954.29,1333.71h-1v-1.25H942.89v1.25h-1V1320h5a8.34,8.34,0,0,0,1-2.16l.95.22a11,11,0,0,1-.88,1.94h6.37Zm-1-10V1321H942.89v2.65Zm0,3.8v-2.83H942.89v2.83Zm0,4.07v-3.12H942.89v3.12Z" transform="translate(-873.5 -787.5)" style="fill:#3e3e3e"/><path d="M967,1318.76a21,21,0,0,1-3.64.66v1.41h3.58v.86h-3.58V1323h3.29v5.24h-3.29v1.27h3.29v.85h-3.29v1.81c1.05-.08,2.15-.22,3.29-.41v.89q-4.85.63-8.19,1l-.22-.91c1.32-.1,2.73-.24,4.23-.41v-2h-3.33v-.85h3.33v-1.27h-3.3V1323h3.3v-1.32h-3.94v-.86h3.94v-1.28c-1,.09-2.11.13-3.33.13l-.3-.83a29.63,29.63,0,0,0,7.67-.84Zm-4.53,6.39v-1.24H960v1.24Zm0,2.24V1326H960v1.38Zm3.29-2.24v-1.24h-2.4v1.24Zm0,2.24V1326h-2.4v1.38Zm7.46-5.84c0,2.65,0,5.06-.13,7.23a24.27,24.27,0,0,1-.31,3.8,1.55,1.55,0,0,1-.65.85,3.78,3.78,0,0,1-1.78.29l-.64,0-.31-.94c.67,0,1.25,0,1.74,0a.91.91,0,0,0,.62-.26,1.12,1.12,0,0,0,.3-.8l.17-3.47q.12-2.91.12-5.82h-1.89a23.33,23.33,0,0,1-2.74,11.38l-.81-.4a22.16,22.16,0,0,0,2.66-11H967.6v-.89l2,0,.06-3.52h.9c0,1.46,0,2.64-.09,3.52Z" transform="translate(-873.5 -787.5)" style="fill:#3e3e3e"/><path d="M984,1320h-5a14.91,14.91,0,0,1-2,2l-.74-.68a10.14,10.14,0,0,0,3.07-3.53l.82.36a6.15,6.15,0,0,1-.53,1H984Zm8,10.8h-4.56v2.84h-.93v-2.84h-4.52q-.55,2.21-4.12,2.88l-.45-.88c2.1-.3,3.29-1,3.59-2h-4.75V1330h4.87a6.64,6.64,0,0,0,0-1.08H982c0,.34,0,.7,0,1.08h4.45v-1.08h.93V1330h4.56Zm-1.84-2.41H978.17v-6.21h11.92Zm-1-4.32V1323h-10v1.08Zm0,1.74v-1h-10v1Zm0,1.78v-1.08h-10v1.08Zm-7.22-6.22-.78.43a4.3,4.3,0,0,0-.88-1.13l.76-.46A5.11,5.11,0,0,1,981.89,1321.39ZM992,1320h-5.81c-.56.61-1.09,1.15-1.6,1.62l-.77-.58a9.63,9.63,0,0,0,2.72-3.24l.85.41a9.9,9.9,0,0,1-.62,1H992Zm-2.77,1.44-.77.43a14,14,0,0,0-.84-1.17l.79-.36A4.39,4.39,0,0,1,989.19,1321.48Z" transform="translate(-873.5 -787.5)" style="fill:#3e3e3e"/><path d="M996.93,1326a19.62,19.62,0,0,1-1.67,5.08l-.91-.4a18.91,18.91,0,0,0,1.74-5Zm4.67-1.3h-2.78v9h-.93v-9h-3.33v-.86h3.33v-5.94h.93v5.94h2.78Zm-4.77-2.3-.9.36a14.4,14.4,0,0,0-1.32-3.22l.81-.36A14.84,14.84,0,0,1,996.83,1322.41Zm4.86,6.39-.94.31a11.87,11.87,0,0,0-1.12-3.08l.84-.29A17.9,17.9,0,0,1,1001.69,1328.8Zm.14-9.28a17.32,17.32,0,0,1-1.31,3.37l-.86-.43a13.53,13.53,0,0,0,1.35-3.27Zm8.22,9.28-1.86.36v4.57h-.91v-4.38l-5.59,1-.12-.9,5.71-1.08V1318h.91v10.27l1.74-.33Zm-4.07-2.2-.71.72a14.74,14.74,0,0,0-2.94-3l.67-.66A19.33,19.33,0,0,1,1006,1326.6Zm.31-4.85-.71.7a15.74,15.74,0,0,0-2.89-2.46l.62-.67A17.3,17.3,0,0,1,1006.29,1321.75Z" transform="translate(-873.5 -787.5)" style="fill:#3e3e3e"/><path d="M1016.36,1325l-.6.75a19.22,19.22,0,0,0-3.47-2.52l.54-.83A18.53,18.53,0,0,1,1016.36,1325Zm.41,2.81a27.51,27.51,0,0,1-3.82,5.86l-.66-.72a26,26,0,0,0,3.73-5.76Zm.28-7.18-.64.77a17.82,17.82,0,0,0-3.46-2.72l.56-.76A15.52,15.52,0,0,1,1017.05,1320.62Zm10.86,6h-5.84q-.29,4.67-5.26,7.09l-.76-.72c3.18-1.38,4.87-3.5,5.09-6.37h-4.4v-.9h4.49c0-1.85.08-3.19.08-4h-3.54v-.91h3.56c0-1,0-2,0-2.83h.9c0,1.34,0,2.29,0,2.83h4.34v4.91h1.33Zm-2.29-.9v-4h-3.35l-.13,4Zm2.13,7.4-.78.62a23.8,23.8,0,0,0-4.35-5.07l.66-.65A27.71,27.71,0,0,1,1027.75,1333.09Z" transform="translate(-873.5 -787.5)" style="fill:#3e3e3e"/><path d="M1038.06,1320.56h-4.87a11.16,11.16,0,0,1-2.16,2l-.74-.66a10.35,10.35,0,0,0,3.53-4l.92.33c-.11.22-.4.7-.86,1.42h4.18Zm8.07,11.77-.56.8a19.11,19.11,0,0,1-6.91-4.21v4.81h-.93v-4.85a18.81,18.81,0,0,1-6.81,4.25l-.58-.8a17.81,17.81,0,0,0,7.39-4.75v-1.08h-4.54v3.14h-.94v-4h5.48v-1.37h-7.12v-.88h7.12v-1h.93v1h7.2v.88h-7.2v1.37h5.56v2.71a1.44,1.44,0,0,1-.3,1,1.87,1.87,0,0,1-1.34.33,5.15,5.15,0,0,1-.56,0l-.4-.94,1.3,0a.33.33,0,0,0,.38-.38v-1.83h-4.64v1.06A17.72,17.72,0,0,0,1046.13,1332.33Zm-9.79-9.79-1,.35a6.69,6.69,0,0,0-1.33-1.54l.94-.38A8.43,8.43,0,0,1,1036.34,1322.54Zm9.42-2h-5.65a6.34,6.34,0,0,1-1.21,1.33l-.7-.61a9,9,0,0,0,2.34-3.35l.87.32a11.37,11.37,0,0,1-.69,1.41h5Zm-2.25,1.92-.9.36a8.45,8.45,0,0,0-1.24-1.43l.87-.36A5.64,5.64,0,0,1,1043.51,1322.48Z" transform="translate(-873.5 -787.5)" style="fill:#3e3e3e"/><path d="M1053.24,1325.5l-.7.58a18.61,18.61,0,0,0-1.12-1.8v9.43h-.93v-8.93a26.77,26.77,0,0,1-1.75,4.15l-.52-1a23.42,23.42,0,0,0,2.25-5.85h-2.11v-.9h2.13v-3.3h.93v3.3h1.34v.9h-1.34v1A30.07,30.07,0,0,1,1053.24,1325.5Zm10.94,5.38a7.46,7.46,0,0,1-.56,2.27,1.14,1.14,0,0,1-1,.77q-1.18,0-2.58-2.46a15.26,15.26,0,0,1-3.48,2.17l-.63-.72a11.44,11.44,0,0,0,3.71-2.2,12.33,12.33,0,0,1-1.08-3.24h-3.29l-.11,1.08a12.48,12.48,0,0,1,2.54,1.76l-.52.76a10.27,10.27,0,0,0-2.15-1.64,9.08,9.08,0,0,1-2.25,4.4l-.83-.58a7.72,7.72,0,0,0,2.36-5.78h-1.6v-.9h5.67a83.77,83.77,0,0,1-.58-8.68l.93,0a62.12,62.12,0,0,0,.6,8.64h1.83c-.05-.11-.19-.39-.44-.85l.74-.3a4.24,4.24,0,0,1,.64,1.15H1064v.9h-4.52a9.59,9.59,0,0,0,.85,2.54,9.84,9.84,0,0,0,1.56-2.14l.71.45a12.29,12.29,0,0,1-1.93,2.5,7,7,0,0,0,.95,1.45c.39.47.69.7.9.7s.32-.16.46-.47a9.53,9.53,0,0,0,.41-2.06Zm-6.41-5.33-.81.23a8.41,8.41,0,0,0-.14-.83q-1.92.18-3.3.36l-.14-.65a29.71,29.71,0,0,0,1.9-2.49l-1.87.28-.24-.78A22.22,22.22,0,0,0,1055,1318l.81.37a27.4,27.4,0,0,1-1.6,3.06,2,2,0,0,0,2.58-1.73l.77.43a29.53,29.53,0,0,1-3,4.18c.59,0,1.26-.1,2-.2a6,6,0,0,0-.38-1.2l.79-.22A12,12,0,0,1,1057.77,1325.55Zm6.23,0-.81.24a5.27,5.27,0,0,0-.2-.84c-1,.11-2,.25-3.24.43l-.23-.77c.75-.9,1.37-1.7,1.85-2.39-.49,0-1.1.15-1.82.28l-.27-.78a21.73,21.73,0,0,0,1.8-3.52l.81.36c-.5,1-1,2-1.56,3,.36,0,.93-.14,1.71-.27.23-.33.49-.75.79-1.27l.78.39a38.46,38.46,0,0,1-2.84,4l2-.23a4.82,4.82,0,0,0-.33-1l.79-.24A15.75,15.75,0,0,1,1064,1325.5Z" transform="translate(-873.5 -787.5)" style="fill:#3e3e3e"/><path d="M1076.18,1324.59h-4.42v2.13h3.83v5c0,.75-.42,1.12-1.26,1.12H1073l-.34-.93h1.6a.4.4,0,0,0,.31-.15.55.55,0,0,0,.12-.35v-3.85h-2.94v6h-.91v-6H1068V1333h-.91v-6.26h3.77v-2.13h-4.59v-.9h4.59v-2.43h-2.92a9.72,9.72,0,0,1-1,1.64l-.81-.44a12.94,12.94,0,0,0,2-4.24l.91.17a18.25,18.25,0,0,1-.72,2h2.51V1318h.91v2.41h4v.9h-4v2.43h4.42Zm2.17,5.94h-.94v-11.21h.94Zm3.17,1.87a1.1,1.1,0,0,1-.38.86,1.33,1.33,0,0,1-.94.35h-2.3l-.33-.95h2.6a.39.39,0,0,0,.29-.17.58.58,0,0,0,.14-.34V1318h.92Z" transform="translate(-873.5 -787.5)" style="fill:#3e3e3e"/><path d="M930.07,1340.53a6.57,6.57,0,0,1,4.9,2.08,6.69,6.69,0,0,1,2,4.82,6.9,6.9,0,0,1-2,5,6.72,6.72,0,0,1-5,2,6.63,6.63,0,0,1-4.93-2.07,6.83,6.83,0,0,1-2-5,6.71,6.71,0,0,1,2-4.91A6.81,6.81,0,0,1,930.07,1340.53Z" transform="translate(-873.5 -787.5)" style="fill:#3e3e3e"/><path d="M948.12,1342.29q0,3.89-.16,7.61a39.38,39.38,0,0,1-.35,4.22,1.57,1.57,0,0,1-.61.85,2.89,2.89,0,0,1-1.69.35c-.32,0-.71,0-1.19,0l-.23-1c.59,0,1.08.05,1.48.05a1.8,1.8,0,0,0,1-.2,1,1,0,0,0,.35-.58c.07-.26.16-1.64.27-4.16s.16-4.59.13-6.22h-3a21.44,21.44,0,0,1-3.33,12.14l-.72-.72a20.73,20.73,0,0,0,3.11-11.42h-2.84v-.93h2.88c.06-1,.09-1.88.11-2.71h1l-.09,2.71Zm7.37,13h-1v-1.41h-3.73v1.41h-1v-14.12h5.69Zm-1-2.39v-10.78h-3.73v10.78Z" transform="translate(-873.5 -787.5)" style="fill:#3e3e3e"/><path d="M974,1354.49H958.28v-.93h7.37V1341.3H959v-1H973.2v1h-6.57v12.26H974Z" transform="translate(-873.5 -787.5)" style="fill:#3e3e3e"/><path d="M992,1354.18l-.34.92h-6.07a13.8,13.8,0,0,1-4.16-.5,6.11,6.11,0,0,1-2.56-1.64,8.05,8.05,0,0,1-2,2.45l-.65-.58a10,10,0,0,0,3.11-5.79h-2.65v-.91a27.84,27.84,0,0,0,2.42-3.64H976.3v-.93h3.84v.91a38.79,38.79,0,0,1-2.31,3.66h2.42v.89a11.78,11.78,0,0,1-1,3.06q1.69,2.1,5.93,2.1ZM980,1342.27l-.69.61a23.68,23.68,0,0,0-2.44-2.46l.59-.69A18.48,18.48,0,0,1,980,1342.27Zm11.8,8.37H980.65v-.88h3v-1.41h-2.51v-.9h2.51v-1.14h.92v1.14h3.3v-1.14h.91v1.14h2.62v.9h-2.62v1.41h3Zm-6.9,1a17,17,0,0,1-3.2,1.58l-.62-.75a17.51,17.51,0,0,0,3.17-1.51Zm1-6.37c-1.08.26-2.55.59-4.4,1l-.36-.8a.76.76,0,0,0,.33-.52V1340h4v3.38h-3.1v1.74c1.13-.22,2.27-.48,3.43-.79Zm-1.32-2.72v-1.64h-2.23v1.64Zm3.25,7.22v-1.41h-3.3v1.41Zm3.69-4h-3.73a.94.94,0,0,1-.59-.31.89.89,0,0,1-.33-.61V1340H991v3.38h-3.2v1.17a.29.29,0,0,0,.1.21.29.29,0,0,0,.2.12h3.46Zm-.22,6.7-.45.74a21.44,21.44,0,0,0-3.4-1.44l.48-.76A19,19,0,0,1,991.29,1352.44Zm-1.24-9.9v-1.64h-2.3v1.64Z" transform="translate(-873.5 -787.5)" style="fill:#3e3e3e"/><path d="M1001.76,1348.64l-.67.78a19.2,19.2,0,0,0-2.41-3.28v9.12h-.89v-9.21a19.37,19.37,0,0,1-2.94,5l-.65-.77a19,19,0,0,0,3.45-6.3h-3.13v-.9h3.27v-3.57h.89v3.57h2.78v.9h-2.78v1A25.16,25.16,0,0,1,1001.76,1348.64ZM1010,1344h-2v9.51a1.63,1.63,0,0,1-.53,1.45,4.13,4.13,0,0,1-2,.34c-.33,0-.64,0-.95,0l-.36-.93c.48,0,.95.05,1.39.05a3.13,3.13,0,0,0,1.32-.16.65.65,0,0,0,.24-.56v-8.55a18.83,18.83,0,0,1-6,7.47l-.65-.74a17,17,0,0,0,6.15-7.85h-4.33v-.89H1007v-3.55h.91v3.55h2Z" transform="translate(-873.5 -787.5)" style="fill:#3e3e3e"/><path d="M1019.11,1347.49h-2.77a11.52,11.52,0,0,1-3.13,7.11l-.79-.58a10.18,10.18,0,0,0,3-6.53h-3v-.94h3.09c.06-1.21.09-2.29.09-3.26h-2.78v-.88h2.8v-2.75h.9v2.75h2.36v.88h-2.36c0,1.14-.05,2.23-.09,3.26h2.73Zm0,4.7-.72.65a16.17,16.17,0,0,0-1.83-3.23l.69-.59A21.26,21.26,0,0,1,1019.13,1352.19Zm8.91-.52a5.67,5.67,0,0,1-.46,2.9,1.94,1.94,0,0,1-1.63.59c-.87,0-1.42-.15-1.63-.43a1.35,1.35,0,0,1-.32-.81v-4.34h-1.73q-.09,4.18-4.34,5.75l-.59-.75q4.1-1.49,4-5h-1.64V1340h7.41v9.56h-2.15v4.17a.51.51,0,0,0,.15.37c.1.11.39.17.87.17a1.06,1.06,0,0,0,.9-.33,3.79,3.79,0,0,0,.25-1.78c0-.24,0-.49,0-.75Zm-1.91-8.74v-2h-5.54v2Zm0,2.85v-2h-5.54v2Zm0,3v-2.11h-5.54v2.11Z" transform="translate(-873.5 -787.5)" style="fill:#3e3e3e"/><path d="M1038.15,1341.83h-5.44a9.69,9.69,0,0,1-1.81,1.73l-.56-.66a11.58,11.58,0,0,0,3-3.49l.81.29a11.55,11.55,0,0,1-.85,1.34h4.84Zm1,11.44h-3.73v2h-.91v-2h-4.14v-.79h4.14v-1.26h-3.22v-4.79h3.22v-1.27h-3.88v-.74h3.88v-.8h.91v.8H1039v.74h-3.62v1.27h3.2v4.79h-3.2v1.26h3.73Zm-4.64-4.83v-1.24h-2.3v1.24Zm0,2v-1.25h-2.3v1.25Zm2.35-7.06-.8.39a5.39,5.39,0,0,0-.91-1.26l.74-.42A6.2,6.2,0,0,1,1036.83,1343.39Zm.87,5v-1.24h-2.31v1.24Zm0,2v-1.25h-2.31v1.25Zm7.85-8.62h-5.39a10.69,10.69,0,0,1-1.43,1.72l-.71-.6a12.48,12.48,0,0,0,2.5-3.47l.85.27a7.7,7.7,0,0,1-.7,1.29h4.88Zm.49,10a9.2,9.2,0,0,1-.36,2.17,1.41,1.41,0,0,1-.75.93,6.3,6.3,0,0,1-1.88.19,5.24,5.24,0,0,1-2.58-.36,1.31,1.31,0,0,1-.43-1.08v-9.36h5.1c0,1.46-.06,2.69-.14,3.68a6.91,6.91,0,0,1-.29,1.86,1.26,1.26,0,0,1-.55.59,3.27,3.27,0,0,1-1.48.23,4.54,4.54,0,0,1-.65,0l-.26-1a8.06,8.06,0,0,0,1,.07c.6,0,1-.12,1.12-.38a20.74,20.74,0,0,0,.34-4.25h-3.35v8.43a.53.53,0,0,0,.27.52,6.35,6.35,0,0,0,1.82.14c1,0,1.57-.06,1.68-.2a3.26,3.26,0,0,0,.32-1.17c.11-.64.17-1.1.19-1.36Zm-2.63-8.26-.81.38a7.45,7.45,0,0,0-1-1.28l.83-.34A7,7,0,0,1,1043.41,1343.6Z" transform="translate(-873.5 -787.5)" style="fill:#3e3e3e"/><polygon points="206.8 283.17 217.49 310.5 228.18 281.98 206.8 283.17" style="fill:#4589bd"/></svg>