<svg data-name="圖層 1" xmlns="http://www.w3.org/2000/svg" viewBox="0 0 1087 531">
  <circle cx="544.81" cy="232.2" r="230.7" fill="#eaeaea" stroke="#b7b7b7" stroke-miterlimit="8" stroke-width="3"/>
  <text transform="matrix(1.01 0 0 1 453.65 326.62)" font-size="35.043">
    線下到線上
  </text>
  <text transform="matrix(1.01 0 0 1 453.65 375.48)" font-size="35.043">
    分散到融合
  </text>
  <text transform="matrix(1.01 0 0 1 456.04 167.31)" font-size="84.699" fill="#666">
    鼎新
  </text>
  <text transform="matrix(1.01 0 0 1 413.06 255.11)" font-size="84.699" fill="#d10000">
    新零售
  </text>
  <text transform="matrix(1.01 0 0 1 119.35 354.2)" font-size="34.569" fill="#2da092">
    便捷支付
  </text>
  <text transform="matrix(1.01 0 0 1 827.17 354.2)" font-size="34.569" fill="#809914">
    精準物流
  </text>
  <text transform="matrix(1.01 0 0 1 119.35 77.91)" font-size="34.569" fill="#f95346">
    提升效率
  </text>
  <text transform="matrix(1.01 0 0 1 827.17 77.91)" font-size="34.569" fill="#d89500">
    會員營銷
  </text>
  <circle cx="357.19" cy="370.18" r="73.74" fill="#6cd8ce" stroke="#999" stroke-miterlimit="8" stroke-width="3.003"/>
  <path d="M374.9 412.01a4.78 4.78 0 0 1-4.77 4.77h-29.51a5.53 5.53 0 0 1-5.52-5.54v-56.71a5.35 5.35 0 0 1 5.34-5.35h29.11a5.36 5.36 0 0 1 5.35 5.35z" fill="none" stroke="#344154" stroke-linecap="round" stroke-miterlimit="10" stroke-width="2"/>
  <path d="M345.67 349.18v2.61a2.89 2.89 0 0 0 2.89 2.9h12.87a2.9 2.9 0 0 0 2.9-2.9v-2.61M350.18 388.66a5.92 5.92 0 1 0 11.83 0c0-3.27-2.42-4.77-5.91-5.91-3.11-1-5.92-2.65-5.92-5.92a5.92 5.92 0 0 1 11.83 0M356.1 367.62v3.33M356.1 394.57v3.34" fill="none" stroke="#344154" stroke-linecap="round" stroke-miterlimit="10" stroke-width="2"/>
  <circle cx="357.19" cy="95.68" r="73.74" fill="#f95346" stroke="#999" stroke-miterlimit="8" stroke-width="3.003"/>
  <path d="M355 402.46a33.38 33.38 0 0 1-15.26-3.74v12.52a.88.88 0 0 0 .88.89h29.51a.13.13 0 0 0 .13-.13v-13.28a33.29 33.29 0 0 1-15.26 3.74z" fill="#ffc524"/>
  <path d="M342.08 322.02a26.9 26.9 0 0 1 25.41 0M348.43 328.24a13.42 13.42 0 0 1 12.71 0M355.48 334.85a.7.7 0 1 1-.7-.67.68.68 0 0 1 .7.67z" fill="none" stroke="#344154" stroke-linecap="round" stroke-linejoin="round" stroke-width="2"/>
  <circle cx="731.96" cy="370.18" r="73.74" fill="#bfd66e" stroke="#999" stroke-miterlimit="8" stroke-width="3.003"/>
  <circle cx="731.96" cy="89.84" r="73.74" fill="#f4b414" stroke="#999" stroke-miterlimit="8" stroke-width="3.003"/>
  <path d="M743.23 367.1c0-12.06-9.3-24.08-26.26-24.08s-26.27 12-26.27 24.08M685.74 370.83h62.46M690.7 370.83a8.08 8.08 0 0 0 8.08 8.08h36.37a8.08 8.08 0 0 0 8.08-8.08M716.97 343.02v-6.28" fill="none" stroke="#344154" stroke-linecap="round" stroke-miterlimit="10" stroke-width="2"/>
  <path d="M750.55 340.65a3.29 3.29 0 1 0 6.58 0c0-1.81-1.35-2.65-3.29-3.28-1.72-.57-3.29-1.47-3.29-3.29a3.29 3.29 0 0 1 6.58 0M753.84 328.96v1.85M753.84 343.94v1.85" fill="none" stroke="#344154" stroke-linecap="round" stroke-linejoin="round" stroke-width="2"/>
  <circle cx="753.84" cy="336.13" r="12.49" transform="rotate(-45 755.333 336.741)" fill="none" stroke="#344154" stroke-linecap="round" stroke-linejoin="round" stroke-width="2"/>
  <path fill="none" stroke="#344154" stroke-linecap="round" stroke-miterlimit="10" stroke-width="2" d="M760.9 384.65h11.78"/>
  <path d="M731.05 399.52a5.86 5.86 0 1 0-5.86 5.85 5.86 5.86 0 0 0 5.86-5.85z" fill="none" stroke="#344154" stroke-miterlimit="10" stroke-width="2"/>
  <path d="M725.2 401.46a1.95 1.95 0 1 1 1.94-1.94 1.94 1.94 0 0 1-1.94 1.94z" fill="#ffc524"/>
  <path d="M717 395.3a5.86 5.86 0 1 0 0 8.43M703.44 396.7h-8.28a4.14 4.14 0 0 1-4.14-4.15v-6.21h58.4a4.41 4.41 0 0 0 4.42-4.41v-18.84h7.06a8.82 8.82 0 0 1 8.26 5.6 74.88 74.88 0 0 1 3.88 23.8v4.21h-7" fill="none" stroke="#344154" stroke-linecap="round" stroke-miterlimit="10" stroke-width="2"/>
  <path d="M766.79 399.52a5.86 5.86 0 1 0-5.86 5.85 5.86 5.86 0 0 0 5.86-5.85z" fill="none" stroke="#344154" stroke-miterlimit="10" stroke-width="2"/>
  <path d="M760.93 401.46a1.95 1.95 0 1 1 1.94-1.94 2 2 0 0 1-1.94 1.94z" fill="#ffc524"/>
  <path fill="none" stroke="#344154" stroke-linecap="round" stroke-miterlimit="10" stroke-width="2" d="M734.67 396.7h16.7M753.84 363.09V357M681.87 94.35a.29.29 0 0 1-.57 0 .29.29 0 0 1 .57 0zM681.87 97.7a.29.29 0 1 1-.28-.28.28.28 0 0 1 .28.28zM733.28 116.24a.29.29 0 0 1-.28.28.28.28 0 0 1-.28-.28.27.27 0 0 1 .28-.28.28.28 0 0 1 .28.28zM733.28 119.61a.28.28 0 0 1-.28.28.27.27 0 0 1-.28-.28.28.28 0 0 1 .28-.28.29.29 0 0 1 .28.28z"/>
  <path d="M741 102.31s7.86 4.26 10.92 6.72a8.19 8.19 0 0 1 1.84 2.09 9.26 9.26 0 0 1 1.35 4.93v7.13h-44.18v-7.13a9.26 9.26 0 0 1 1.35-4.93 8.19 8.19 0 0 1 1.84-2.09c3-2.46 10.91-6.72 10.91-6.72" fill="none" stroke="#344154" stroke-linecap="round" stroke-miterlimit="10" stroke-width="2"/>
  <ellipse cx="732.96" cy="92.67" rx="11.09" ry="13.78" fill="none" stroke="#344154" stroke-linecap="round" stroke-miterlimit="10" stroke-width="2"/>
  <path d="M733 81.05a7.18 7.18 0 0 0-1.85.25c4 1.11 7.1 5.79 7.1 11.37s-3.05 10.27-7.1 11.38a7.18 7.18 0 0 0 1.85.25c4.93 0 8.94-5.22 8.94-11.63s-4.05-11.62-8.94-11.62z" fill="#35b4cf"/>
  <path d="M770 96.12a.29.29 0 1 1-.28-.28.29.29 0 0 1 .28.28zM770 99.48a.29.29 0 0 1-.57 0 .29.29 0 0 1 .57 0z" fill="none" stroke="#344154" stroke-linecap="round" stroke-miterlimit="10" stroke-width="2"/>
  <path d="M777.68 82.17s7.86 4.27 10.92 6.72a8.5 8.5 0 0 1 1.83 2.09 9.29 9.29 0 0 1 1.35 4.93v7.13h-44.13v-7.13a9.29 9.29 0 0 1 1.35-4.93 8.5 8.5 0 0 1 1.83-2.09c3.06-2.45 10.92-6.72 10.92-6.72" fill="none" stroke="#344154" stroke-linecap="round" stroke-miterlimit="10" stroke-width="2"/>
  <ellipse cx="769.68" cy="72.54" rx="11.09" ry="13.78" fill="none" stroke="#344154" stroke-linecap="round" stroke-miterlimit="10" stroke-width="2"/>
  <path d="M769.68 60.91a7.12 7.12 0 0 0-1.85.25c4 1.11 7.1 5.79 7.1 11.38s-3 10.26-7.1 11.37a6.72 6.72 0 0 0 1.85.25c4.93 0 8.94-5.21 8.94-11.62s-4.01-11.63-8.94-11.63z" fill="#35b4cf"/>
  <path d="M702.85 80.4s7.86 4.26 10.92 6.72a8.31 8.31 0 0 1 1.84 2.12 9.3 9.3 0 0 1 1.39 4.9v7.1h-44.18v-7.1a9.3 9.3 0 0 1 1.35-4.9 8.31 8.31 0 0 1 1.83-2.12c3-2.46 10.91-6.72 10.91-6.72" fill="none" stroke="#344154" stroke-linecap="round" stroke-miterlimit="10" stroke-width="2"/>
  <ellipse cx="694.85" cy="70.76" rx="11.09" ry="13.78" fill="none" stroke="#344154" stroke-linecap="round" stroke-miterlimit="10" stroke-width="2"/>
  <path d="M694.85 59.14a6.77 6.77 0 0 0-1.85.25c4 1.11 7.1 5.78 7.1 11.37s-3.05 10.27-7.1 11.38a7.18 7.18 0 0 0 1.85.25c4.93 0 8.94-5.22 8.94-11.63s-4.01-11.62-8.94-11.62z" fill="#35b4cf"/>
  <path d="M405 106.91V79.37h-8.79v27.54h-6.06V84.69h-8.79v22.22h-6.06V91.53h-8.79v15.38h-3.09v2.2h44.67v-2.2zm-31.9 0h-4.39V93.74h4.39zm14.85 0h-4.39v-20H388zm14.85 0h-4.39V81.57h4.39zM377.1 80.88h9.84L399.5 67.9v3.86h2.21v-7.68h-7.69v2.2h3.99l-12 12.4h-9.82l-8.31 8.31 1.56 1.56 7.66-7.67z" fill="#444"/>
  <path d="M353.34 116.96l-.67-23h4.73v-23.5a9.53 9.53 0 0 0-9.53-9.52h-.66L343 68.77h-1.09l-4.21-7.83h-.7a9.54 9.54 0 0 0-9.53 9.52v23.49h4.74l-.68 23c-9.19 1.17-18.66 4.18-18.66 9.27 0 6.46 15.22 9.94 29.55 9.94s29.58-3.47 29.58-9.92c0-5.1-9.47-8.11-18.66-9.28zm-23.62-25.21V70.46a7.33 7.33 0 0 1 6.68-7.29l4.19 7.81h3.73l4.2-7.81a7.34 7.34 0 0 1 6.68 7.29v21.29h-2.59l-.38-12.87-2.23.06 1.36 46.3h-4.13l-3.63-29.82-1.14.14-1.14-.14-3.66 29.82h-4.12l1.35-46.3-2.2-.06-.38 12.87zm12.74 42.22c-16.12 0-27.35-4.08-27.35-7.74 0-2.47 5.64-5.62 16.4-7l-.24 8.25h8.35l2.84-23.24 2.84 23.19h8.35l-.24-8.25c10.76 1.41 16.39 4.56 16.39 7 0 3.71-11.23 7.79-27.34 7.79z" fill="#444"/>
  <circle cx="349.62" cy="51.51" r="7.38" fill="#ffc524"/>
  <path d="M342.46 59.63a6.43 6.43 0 1 0-6.46-6.39 6.43 6.43 0 0 0 6.46 6.39zm0-10.66a4.23 4.23 0 1 1-4.23 4.27 4.24 4.24 0 0 1 4.23-4.27z" fill="#444"/>
  <text transform="matrix(1.01 0 0 1 826.39 115.93)" font-size="20.442">
    <tspan letter-spacing=".045em">推動更多的通路、增加更多</tspan><tspan x="0" y="24.53" letter-spacing=".15em">的來客、精準營銷達到</tspan><tspan x="235" y="24.53">吸</tspan><tspan x="0" y="49.06" letter-spacing=".016em">粉、聚粉、活粉，完善360</tspan><tspan x="244.23" y="49.06">∘</tspan><tspan x="0" y="73.59">全方位會員營銷。</tspan>
  </text>
  <text transform="matrix(1.01 0 0 1 826.39 396.86)" font-size="20.442">
    <tspan letter-spacing=".052em">到貨精準、降低缺貨，減</tspan><tspan x="236.64" y="0">少</tspan><tspan x="0" y="24.53">報廢，達到存貨有效控管。</tspan>
  </text>
  <text transform="matrix(1.01 0 0 1 0 115.93)" font-size="20.442">
    <tspan letter-spacing=".045em">完善門市服務、達成供應</tspan><tspan x="235" y="0">鏈</tspan><tspan x="0" y="24.53" letter-spacing=".045em">精準，不僅是做到、更需</tspan><tspan x="235" y="24.53">要</tspan><tspan x="0" y="49.06">有效率的方法。</tspan>
  </text>
  <text transform="matrix(1.01 0 0 1 0 396.86)" font-size="20.442">
    <tspan letter-spacing=".045em">應用多元支付便利性，引</tspan><tspan x="235" y="0">動</tspan><tspan x="0" y="24.53" letter-spacing=".045em">會員儲值，藉以打通線上</tspan><tspan x="235" y="24.53">、</tspan><tspan x="0" y="49.06">線下、增加回購與忠誠度。</tspan>
  </text>
</svg>
