<?xml version="1.0" encoding="utf-8"?>
<!-- Generator: Adobe Illustrator 13.0.1, SVG Export Plug-In . SVG Version: 6.00 Build 14948)  -->
<!DOCTYPE svg PUBLIC "-//W3C//DTD SVG 1.0//EN" "http://www.w3.org/TR/2001/REC-SVG-20010904/DTD/svg10.dtd">
<svg version="1.0" xmlns="http://www.w3.org/2000/svg" xmlns:xlink="http://www.w3.org/1999/xlink" x="0px" y="0px" width="120px"
	 height="120px" viewBox="0 0 120 120" enable-background="new 0 0 120 120" xml:space="preserve">
<g id="圖層_2" display="none">
	<rect x="-0.5" y="-0.5" display="inline" width="121" height="121"/>
</g>
<g id="圖層_1" display="none">
	<g id="圖層_2_3_">
	</g>
	<g id="圖層_1_1_">
		<circle display="inline" stroke="#FFFFFF" cx="59.5" cy="59.5" r="60"/>
		<g id="圖層_2_2_" display="inline">
			<rect x="-0.5" y="0.5" stroke="#FFFFFF" width="121" height="119"/>
			<circle fill="none" stroke="#FFFFFF" stroke-width="2" cx="58.5" cy="60.5" r="59"/>
		</g>
	</g>
	<g id="圖層_3_1_" display="inline">
		<g>
			<g>
				<path fill="#FFFFFF" d="M85.5,87.43h-52c-1.103,0-2-0.897-2-2v-29h2v29h52v-29h2v29C87.5,86.531,86.604,87.43,85.5,87.43z"/>
			</g>
			<g>
				<polygon fill="#FFFFFF" points="77.914,61.43 65.5,61.43 65.5,59.429 77.086,59.429 81.086,55.429 91.5,55.429 91.5,57.429 
					81.914,57.429 				"/>
			</g>
			<g>
				<polygon fill="#FFFFFF" points="52.5,61.43 41.086,61.43 37.086,57.429 27.5,57.429 27.5,55.429 37.914,55.429 41.914,59.429 
					52.5,59.429 				"/>
			</g>
			<g>
				<rect x="32.5" y="81.43" fill="#FFFFFF" width="54" height="2"/>
			</g>
			<g>
				<path fill="#FFFFFF" d="M59.5,61.43c-0.256,0-0.512-0.099-0.707-0.294l-6-6l1.414-1.414l5.293,5.293l5.293-5.293l1.414,1.414
					l-6,6C60.012,61.331,59.756,61.43,59.5,61.43z"/>
			</g>
			<g>
				<rect x="58.5" y="35.429" fill="#FFFFFF" width="2" height="25"/>
			</g>
			<g>
				<path fill="#FFFFFF" d="M47.5,53.429c-0.256,0-0.512-0.098-0.707-0.293l-6-6l1.414-1.414l5.293,5.293l5.293-5.293l1.414,1.414
					l-6,6C48.012,53.331,47.756,53.429,47.5,53.429z"/>
			</g>
			<g>
				<path fill="#FFFFFF" d="M71.5,53.429c-0.256,0-0.512-0.098-0.707-0.293l-6-6l1.414-1.414l5.293,5.293l5.293-5.293l1.414,1.414
					l-6,6C72.012,53.331,71.756,53.429,71.5,53.429z"/>
			</g>
			<g>
				<path fill="#FFFFFF" d="M48.5,52.429h-2v-11c0-2.206-1.794-4-4-4h-3v-2h3c3.309,0,6,2.691,6,6V52.429z"/>
			</g>
			<g>
				<path fill="#FFFFFF" d="M72.5,52.429h-2v-11c0-3.309,2.691-6,6-6h3v2h-3c-2.206,0-4,1.794-4,4V52.429z"/>
			</g>
			<g>
				<path fill="#FFFFFF" d="M81.5,65.43h-44c-1.103,0-2-0.897-2-2v-2h2v2h44v-2h2v2C83.5,64.531,82.604,65.43,81.5,65.43z"/>
			</g>
			<g>
				<rect x="31.5" y="35.429" fill="#FFFFFF" width="2" height="2"/>
			</g>
			<g>
				<rect x="27.5" y="35.429" fill="#FFFFFF" width="2" height="2"/>
			</g>
			<g>
				<rect x="35.5" y="35.429" fill="#FFFFFF" width="2" height="2"/>
			</g>
			<g>
				<rect x="85.5" y="35.429" fill="#FFFFFF" width="2" height="2"/>
			</g>
			<g>
				<rect x="81.5" y="35.429" fill="#FFFFFF" width="2" height="2"/>
			</g>
			<g>
				<rect x="89.5" y="35.429" fill="#FFFFFF" width="2" height="2"/>
			</g>
			<g>
				<path fill="#FFFFFF" d="M59.5,78.43c-2.206,0-4-1.795-4-4c0-2.207,1.794-4,4-4s4,1.793,4,4C63.5,76.635,61.706,78.43,59.5,78.43
					z M59.5,72.43c-1.103,0-2,0.896-2,2c0,1.103,0.897,2,2,2c1.104,0,2-0.897,2-2C61.5,73.326,60.604,72.43,59.5,72.43z"/>
			</g>
			<g>
				<rect x="58.5" y="23.429" fill="#FFFFFF" width="2" height="2"/>
			</g>
			<g>
				<rect x="58.5" y="27.429" fill="#FFFFFF" width="2" height="2"/>
			</g>
			<g>
				<rect x="58.5" y="31.429" fill="#FFFFFF" width="2" height="2"/>
			</g>
		</g>
	</g>
</g>
<g id="圖層_3" display="none">
	<g display="inline">
		<rect x="32.153" y="32.252" fill="none" stroke="#FFFFFF" stroke-width="2" width="58.026" height="13.091"/>
		<polyline fill="none" stroke="#FFFFFF" stroke-width="2" points="38.845,76.226 38.845,70.32 83.488,70.32 83.488,76.226 		"/>
		<rect x="32.153" y="51.461" fill="none" stroke="#FFFFFF" stroke-width="2" width="37.859" height="13.094"/>
		<rect x="77.089" y="51.461" fill="none" stroke="#FFFFFF" stroke-width="2" width="13.091" height="13.094"/>
		<rect x="54.621" y="76.567" fill="none" stroke="#FFFFFF" stroke-width="2" width="13.091" height="13.091"/>
		<rect x="77.089" y="76.567" fill="none" stroke="#FFFFFF" stroke-width="2" width="13.091" height="13.091"/>
		<rect x="32.153" y="76.567" fill="none" stroke="#FFFFFF" stroke-width="2" width="13.092" height="13.091"/>
		<line fill="none" stroke="#FFFFFF" stroke-width="2" x1="61.13" y1="45.244" x2="61.13" y2="51.589"/>
		<line fill="none" stroke="#FFFFFF" stroke-width="2" x1="83.488" y1="45.244" x2="83.488" y2="51.589"/>
		<line fill="none" stroke="#FFFFFF" stroke-width="2" x1="61.13" y1="64.883" x2="61.13" y2="76.364"/>
	</g>
</g>
<g id="圖層_4">
	<path fill="none" stroke="#FFFFFF" stroke-width="2" stroke-miterlimit="10" d="M59.723,85.116v13.051
		c21.646,0,39.165-17.515,39.165-39.161H85.832C85.832,73.439,74.154,85.116,59.723,85.116z"/>
	<g>
		<path fill="none" stroke="#FFFFFF" stroke-width="2" stroke-miterlimit="10" d="M33.614,59.006H20.561
			c0,21.646,17.515,39.161,39.162,39.161V85.116C45.291,85.116,33.614,73.439,33.614,59.006z"/>
	</g>
	<path fill="none" stroke="#FFFFFF" stroke-width="2" stroke-miterlimit="10" d="M85.832,59.006h13.056
		c0-21.645-17.519-39.163-39.165-39.163v13.056C74.154,32.899,85.832,44.576,85.832,59.006z"/>
	<g>
		<path fill="#FFFFFF" d="M40.989,52.868V51.19h9.203v1.357c-0.905,0.963-1.802,2.244-2.691,3.84s-1.576,3.239-2.061,4.927
			c-0.349,1.189-0.572,2.491-0.669,3.907h-1.794c0.019-1.118,0.239-2.469,0.659-4.053c0.42-1.584,1.023-3.112,1.809-4.583
			s1.621-2.71,2.507-3.719H40.989z"/>
		<path fill="#FFFFFF" d="M51.917,61.498l1.833-0.155c0.136,0.893,0.451,1.563,0.945,2.013s1.091,0.674,1.789,0.674
			c0.84,0,1.552-0.317,2.133-0.95c0.582-0.634,0.873-1.475,0.873-2.521c0-0.996-0.279-1.781-0.838-2.356
			c-0.56-0.576-1.292-0.863-2.197-0.863c-0.562,0-1.07,0.128-1.522,0.383c-0.452,0.255-0.808,0.586-1.066,0.994l-1.639-0.213
			l1.377-7.302h7.069v1.668h-5.673l-0.766,3.82c0.853-0.594,1.749-0.892,2.686-0.892c1.241,0,2.289,0.43,3.142,1.29
			s1.28,1.965,1.28,3.316c0,1.287-0.375,2.398-1.125,3.336c-0.912,1.15-2.156,1.726-3.733,1.726c-1.293,0-2.348-0.361-3.166-1.086
			C52.501,63.654,52.034,62.694,51.917,61.498z"/>
		<path fill="#FFFFFF" d="M63.292,54.419c0-1.015,0.255-1.878,0.766-2.589s1.251-1.067,2.222-1.067c0.892,0,1.63,0.318,2.216,0.955
			c0.585,0.637,0.877,1.573,0.877,2.808c0,1.202-0.296,2.128-0.887,2.778c-0.592,0.649-1.321,0.974-2.188,0.974
			c-0.859,0-1.575-0.32-2.147-0.96C63.578,56.679,63.292,55.712,63.292,54.419z M66.327,51.966c-0.433,0-0.794,0.188-1.081,0.563
			c-0.288,0.375-0.432,1.063-0.432,2.065c0,0.912,0.146,1.553,0.437,1.925s0.649,0.558,1.076,0.558c0.439,0,0.804-0.188,1.091-0.563
			c0.288-0.375,0.432-1.06,0.432-2.056c0-0.918-0.146-1.563-0.437-1.935S66.761,51.966,66.327,51.966z M66.337,65.745l7.777-14.982
			h1.416l-7.748,14.982H66.337z M72.485,61.886c0-1.021,0.255-1.886,0.766-2.594s1.254-1.062,2.23-1.062
			c0.893,0,1.631,0.318,2.216,0.955c0.585,0.637,0.878,1.573,0.878,2.808c0,1.202-0.296,2.128-0.888,2.777
			c-0.592,0.65-1.323,0.975-2.196,0.975c-0.86,0-1.576-0.321-2.148-0.965C72.771,64.138,72.485,63.173,72.485,61.886z M75.53,59.433
			c-0.44,0-0.804,0.188-1.091,0.563c-0.288,0.375-0.432,1.063-0.432,2.065c0,0.905,0.146,1.545,0.436,1.92
			c0.291,0.375,0.65,0.563,1.077,0.563c0.445,0,0.813-0.188,1.101-0.563c0.287-0.375,0.432-1.06,0.432-2.056
			c0-0.918-0.146-1.563-0.437-1.935S75.963,59.433,75.53,59.433z"/>
	</g>
</g>
<g id="圖層_5" display="none">
	
		<path display="inline" fill-rule="evenodd" clip-rule="evenodd" fill="none" stroke="#FFFFFF" stroke-width="2" stroke-linecap="round" stroke-linejoin="round" stroke-miterlimit="22.9256" d="
		M32.661,26.244h53.875h2.728l0.569,2.68l9.177,42.778l-3.297,9.491H67.172v6.271h9.298v5.487H43.798v-5.487h9.541v-6.271H24.796
		l-3.313-9.4l7.866-42.777l0.51-2.772H32.661L32.661,26.244z M68.178,36.907c0.127,1.675,0.254,3.394,0.389,5.155
		c0.138,1.816,0.277,3.691,0.424,5.614c2.145,0,4.294,0,6.433,0c2.155-0.002,4.299-0.002,6.453-0.002
		c-0.335-1.926-0.66-3.798-0.976-5.614c-0.305-1.759-0.609-3.478-0.899-5.153c-1.977,0-3.947,0-5.919,0
		C72.12,36.907,70.149,36.907,68.178,36.907L68.178,36.907z M69.229,50.864c0.157,2.089,0.32,4.243,0.487,6.458
		c0.173,2.297,0.352,4.665,0.534,7.108c2.429,0,4.847-0.005,7.266-0.005c2.429,0,4.853,0,7.286,0
		c-0.426-2.448-0.844-4.817-1.239-7.108c-0.387-2.216-0.763-4.369-1.128-6.455c-2.21,0-4.411,0.002-6.606,0.002
		C73.629,50.864,71.43,50.864,69.229,50.864L69.229,50.864z M53.479,50.869c-0.087,2.086-0.18,4.243-0.274,6.461
		c-0.096,2.294-0.198,4.667-0.306,7.11c2.424,0,4.849-0.005,7.274-0.005c2.423,0,4.847,0,7.276,0
		c-0.139-2.448-0.271-4.816-0.402-7.11c-0.121-2.216-0.246-4.372-0.36-6.458c-2.205,0.002-4.408,0.002-6.608,0.002
		C57.881,50.872,55.681,50.872,53.479,50.869L53.479,50.869z M37.714,50.874c-0.335,2.089-0.681,4.245-1.039,6.466
		c-0.368,2.294-0.746,4.667-1.14,7.111c2.416,0,4.847-0.006,7.268-0.006c2.431,0,4.855,0,7.284,0c0.152-2.448,0.3-4.816,0.439-7.113
		c0.137-2.22,0.27-4.374,0.398-6.463c-2.202,0.003-4.402,0.003-6.608,0.003C42.117,50.872,39.912,50.872,37.714,50.874
		L37.714,50.874z M54.07,36.907c-0.071,1.675-0.145,3.392-0.219,5.158c-0.078,1.816-0.157,3.688-0.241,5.616
		c2.146,0,4.296-0.002,6.442-0.002c2.149,0,4.296-0.003,6.448-0.003c-0.106-1.923-0.213-3.798-0.315-5.614
		c-0.099-1.763-0.195-3.48-0.289-5.155c-1.975,0-3.945,0-5.914,0C58.011,36.907,56.042,36.907,54.07,36.907L54.07,36.907z
		 M39.959,36.907c-0.266,1.675-0.545,3.394-0.83,5.158c-0.291,1.818-0.592,3.691-0.899,5.619c2.142-0.003,4.293-0.003,6.442-0.003
		c2.146-0.002,4.299,0,6.45,0c0.12-1.928,0.234-3.8,0.348-5.616c0.11-1.766,0.216-3.483,0.315-5.158c-1.977,0-3.948,0-5.914,0
		C43.9,36.907,41.927,36.907,39.959,36.907L39.959,36.907z M83.808,33.005H35.467L28.846,69.02h62.689L83.808,33.005z"/>
</g>
</svg>
