<?xml version="1.0" encoding="utf-8"?>
<!-- Generator: Adobe Illustrator 13.0.1, SVG Export Plug-In . SVG Version: 6.00 Build 14948)  -->
<!DOCTYPE svg PUBLIC "-//W3C//DTD SVG 1.0//EN" "http://www.w3.org/TR/2001/REC-SVG-20010904/DTD/svg10.dtd">
<svg version="1.0" id="圖層_1" xmlns="http://www.w3.org/2000/svg" xmlns:xlink="http://www.w3.org/1999/xlink" x="0px" y="0px"
	 width="100px" height="100px" viewBox="0 0 100 100" enable-background="new 0 0 100 100" xml:space="preserve">
<g>
	<g>
		
			<rect x="70.375" y="55.337" transform="matrix(0.9531 0.3026 -0.3026 0.9531 22.2352 -20.2775)" fill="#FFC426" width="12.381" height="12.582"/>
	</g>
	<path fill="#FFFFFF" d="M27.09,35.868l-4.236,13.344l1.906,0.604l4.234-13.344L27.09,35.868z M30.885,37.073L26.65,50.415
		l1.906,0.605l4.234-13.344L30.885,37.073z M34.684,38.276l-4.234,13.346l1.906,0.605l4.236-13.346L34.684,38.276z M38.48,39.483
		l-4.234,13.344l1.906,0.605l4.238-13.346L38.48,39.483z M42.635,40.819l-4.246,13.385l40.752,12.938l0.268-0.838l3.98-12.549
		L42.635,40.819z M40.594,53.062l3.182-10.037l25.982,8.246l-3.186,10.037L40.594,53.062z M78,64.935l-9.52-3.021l3.184-10.037
		l9.52,3.021L78,64.935z M27.809,31.696c1.059-0.004,2.752-0.123,4.322-0.959c1.58-0.811,2.957-2.564,2.922-5.207
		c0-0.729-0.088-1.527-0.287-2.402c-0.322-1.436-0.453-2.665-0.453-3.715c0.004-2.421,0.674-3.884,1.297-4.765
		c0.313-0.439,0.617-0.732,0.836-0.91c0.107-0.088,0.193-0.148,0.246-0.182c0.047-0.031,0.047-0.029,0.047-0.031l-0.93-1.77
		c-0.195,0.064-3.518,2.021-3.496,7.658c0.002,1.215,0.15,2.594,0.504,4.157c0.168,0.748,0.238,1.396,0.238,1.961
		c-0.035,2.004-0.811,2.834-1.873,3.445c-1.068,0.586-2.494,0.727-3.373,0.721c-0.352,0-0.613-0.02-0.742-0.027l-0.162,1.992
		c0.154,0.014,0.455,0.035,0.852,0.035H27.809z M35.063,32.204l-0.176,1.992c0.168,0.016,0.488,0.037,0.912,0.037
		c1.057-0.006,2.756-0.125,4.324-0.963c1.578-0.811,2.955-2.563,2.922-5.205c-0.002-0.732-0.094-1.529-0.291-2.402
		c-0.324-1.434-0.453-2.666-0.453-3.715c0.004-2.422,0.674-3.883,1.295-4.766c0.314-0.438,0.619-0.732,0.836-0.91
		c0.109-0.088,0.197-0.146,0.25-0.184c0.045-0.029,0.047-0.025,0.045-0.029l-0.928-1.768c-0.197,0.063-3.521,2.02-3.498,7.656
		c0,1.215,0.15,2.594,0.504,4.156c0.168,0.748,0.24,1.398,0.24,1.961c-0.033,2.004-0.813,2.836-1.871,3.447
		c-1.068,0.584-2.494,0.725-3.375,0.721C35.445,32.233,35.18,32.214,35.063,32.204z"/>
</g>
</svg>
