<?xml version="1.0" encoding="utf-8"?>
<!-- Generator: Adobe Illustrator 13.0.1, SVG Export Plug-In . SVG Version: 6.00 Build 14948)  -->
<!DOCTYPE svg PUBLIC "-//W3C//DTD SVG 1.0//EN" "http://www.w3.org/TR/2001/REC-SVG-20010904/DTD/svg10.dtd">
<svg version="1.0" id="圖層_1" xmlns="http://www.w3.org/2000/svg" xmlns:xlink="http://www.w3.org/1999/xlink" x="0px" y="0px"
	 width="100px" height="50px" viewBox="0 0 100 50" enable-background="new 0 0 100 50" xml:space="preserve">
<g>
	<rect x="16.791" y="36.547" fill="#FFC426" width="72.041" height="6.598"/>
	<path fill="#FFFFFF" d="M83.267,27.834c-1.664,0-3.023,1.346-3.023,3.013c0,1.67,1.359,3.014,3.023,3.014
		c1.657,0,3.01-1.344,3.01-3.014C86.276,29.18,84.924,27.834,83.267,27.834z M83.267,32.22c-0.76,0-1.38-0.617-1.38-1.373
		c0-0.759,0.62-1.376,1.38-1.376c0.759,0,1.373,0.617,1.373,1.376C84.64,31.603,84.025,32.22,83.267,32.22z M41.541,24.104
		c-1.815,0-3.281,1.473-3.281,3.284c0,1.815,1.466,3.281,3.281,3.281s3.28-1.466,3.28-3.281
		C44.821,25.576,43.35,24.104,41.541,24.104z M41.541,29.028c-0.904-0.004-1.637-0.736-1.644-1.641
		c0.007-0.907,0.739-1.64,1.644-1.64s1.638,0.732,1.638,1.64C43.179,28.292,42.445,29.024,41.541,29.028z M60.208,7.522h24.147
		V5.875H60.208V7.522z M68.255,33.134h8.054V31.49h-8.054V33.134z M24.708,32.306h9.023v-1.637h-9.023V32.306z M16.919,24.104
		c-1.815,0-3.281,1.47-3.281,3.284c0,1.815,1.466,3.281,3.281,3.281s3.281-1.466,3.281-3.281
		C20.2,25.573,18.734,24.104,16.919,24.104z M16.919,29.028c-0.904-0.004-1.638-0.736-1.638-1.641c0-0.907,0.733-1.64,1.638-1.64
		s1.637,0.732,1.637,1.64C18.556,28.292,17.816,29.024,16.919,29.028z M61.312,27.834c-1.664,0-3.018,1.346-3.018,3.013
		c0,1.67,1.354,3.014,3.018,3.014c1.662,0,3.009-1.344,3.016-3.014C64.32,29.18,62.974,27.834,61.312,27.834z M61.312,32.22
		c-0.753,0-1.374-0.617-1.38-1.373c0.006-0.759,0.627-1.376,1.38-1.376c0.759,0,1.373,0.617,1.373,1.376
		C62.685,31.603,62.07,32.22,61.312,32.22z M86.831,38.9v-2.046h2.641V2H55.106v34.854h2.626V38.9H45.448v-2.416h2.951V21.203
		h-3.466l-3.28-10.701H16.807l-3.288,10.701h-3.465v15.281h2.957V38.9H9.75v1.999h80.5V38.9H86.831z M18.015,12.143h22.424
		l2.785,9.061H15.242L18.015,12.143z M37.633,38.9H20.82v-2.416h16.813V38.9z M43.799,38.26h-4.528v-3.416H19.183v3.416h-4.528
		v-3.416h-2.957V22.84h35.059v12.004h-2.957V38.26z M56.75,3.641h31.078v6.409H56.75V3.641z M56.75,11.69h31.078v12.826H56.75V11.69
		z M79.694,38.9H64.882v-2.046h14.813V38.9z M85.2,38.26h-3.861v-3.046H63.238v3.046h-3.861v-3.046H56.75v-9.061h31.078v9.061H85.2
		V38.26z"/>
</g>
</svg>
