<?xml version="1.0" encoding="utf-8"?>
<!-- Generator: Adobe Illustrator 13.0.1, SVG Export Plug-In . SVG Version: 6.00 Build 14948)  -->
<!DOCTYPE svg PUBLIC "-//W3C//DTD SVG 1.0//EN" "http://www.w3.org/TR/2001/REC-SVG-20010904/DTD/svg10.dtd">
<svg version="1.0" id="圖層_1" xmlns="http://www.w3.org/2000/svg" xmlns:xlink="http://www.w3.org/1999/xlink" x="0px" y="0px"
	 width="100px" height="100px" viewBox="0 0 100 100" enable-background="new 0 0 100 100" xml:space="preserve">
<g>
	<ellipse fill="#FFC426" cx="71.566" cy="36.154" rx="16.561" ry="13.013"/>
	<path fill="#FFFFFF" d="M61.49,71.628c-0.996-4.158-2.396-8.892-4.49-11.615c-2.852-4.696-8.094-5.155-10.229-5.16
		c-0.475,0-0.811,0.025-0.957,0.039h-6.021c0.035,0.002-0.018,0-0.105,0c-0.893,0.008-6.277,0.151-9.596,4.869
		c-1.783,2.602-3.156,7.404-4.193,11.671c-1.018,4.253-1.627,7.903-1.631,7.918c-0.008,0.047-0.043,0.276-0.043,0.625
		c0.006,0.611,0.096,1.63,0.771,2.591c0.674,0.972,1.986,1.698,3.834,1.677h0.145l28.816,0.003l0.027-0.003
		c0.322-0.006,1.443-0.038,2.635-0.595c1.244-0.545,2.572-1.934,2.537-4.133v-0.073l-0.01-0.068
		C62.979,79.354,62.477,75.807,61.49,71.628z M59.598,81.84c-0.773,0.375-1.709,0.409-1.816,0.404H28.992
		c-0.049-0.002-0.109,0-0.162,0c-1.402-0.021-1.893-0.43-2.207-0.843c-0.314-0.424-0.4-1.04-0.396-1.427
		c0-0.214,0.021-0.302,0.016-0.302c0-0.002,0.6-3.597,1.602-7.775c0.986-4.159,2.443-8.949,3.891-10.994
		c2.621-3.828,7.285-4.022,7.953-4.012c0.049-0.002,0.049,0,0.049,0l6.162,0.002l0.063-0.009c0.002,0,0.279-0.031,0.811-0.031
		c1.914-0.005,6.35,0.477,8.537,4.225l0.031,0.059l0.043,0.053c1.715,2.131,3.213,6.829,4.162,10.898
		c0.879,3.723,1.361,6.94,1.443,7.484C60.939,80.967,60.357,81.435,59.598,81.84z M42.951,52.968c7.5,0,13.578-6.075,13.578-13.577
		c0-7.499-6.078-13.576-13.578-13.578c-7.496,0.002-13.574,6.079-13.576,13.578C29.377,46.893,35.455,52.968,42.951,52.968z
		 M42.951,27.814c6.395,0.011,11.568,5.184,11.58,11.576c-0.012,6.397-5.186,11.566-11.58,11.577
		c-6.391-0.011-11.564-5.18-11.574-11.577C31.387,32.998,36.561,27.825,42.951,27.814z M67.572,15.755
		c-7.756,0.005-14.488,3.687-17.684,9.171l-0.508,0.876l0.883,0.499c4.59,2.575,7.697,7.472,7.695,13.091
		c0,1.766-0.322,3.458-0.893,5.042l-0.305,0.845l0.809,0.394c1.416,0.689,2.943,1.237,4.555,1.62l-3.914,4.718l1.266,1.508
		l9.967-5.677c9.813-0.754,17.695-7.481,17.729-16.002C87.129,22.783,78.248,15.771,67.572,15.755z M69.076,45.862l-0.227,0.015
		l-5.6,3.189l2.605-3.143l-1.73-0.275c-1.736-0.274-3.377-0.758-4.887-1.411c0.463-1.534,0.721-3.159,0.719-4.846
		c0-5.993-3.117-11.266-7.813-14.294c2.951-4.317,8.725-7.347,15.428-7.343c4.918-0.002,9.35,1.62,12.521,4.195
		c3.174,2.579,5.076,6.066,5.076,9.889C85.203,39.053,78.232,45.235,69.076,45.862z M64.104,30.932c-0.83,0-1.5,0.672-1.5,1.5
		s0.67,1.5,1.5,1.5c0.828,0,1.5-0.672,1.5-1.5S64.932,30.932,64.104,30.932z M77.252,30.932c-0.828,0-1.5,0.672-1.5,1.5
		s0.672,1.5,1.5,1.5c0.83,0,1.5-0.672,1.5-1.5S78.082,30.932,77.252,30.932z M70.678,30.932c-0.83,0-1.5,0.672-1.5,1.5
		s0.67,1.5,1.5,1.5c0.828,0,1.5-0.672,1.5-1.5S71.506,30.932,70.678,30.932z"/>
</g>
</svg>
