<?xml version="1.0" encoding="utf-8"?>
<!-- Generator: Adobe Illustrator 13.0.1, SVG Export Plug-In . SVG Version: 6.00 Build 14948)  -->
<!DOCTYPE svg PUBLIC "-//W3C//DTD SVG 1.0//EN" "http://www.w3.org/TR/2001/REC-SVG-20010904/DTD/svg10.dtd">
<svg version="1.0" id="圖層_1" xmlns="http://www.w3.org/2000/svg" xmlns:xlink="http://www.w3.org/1999/xlink" x="0px" y="0px"
	 width="100px" height="100px" viewBox="0 0 100 100" enable-background="new 0 0 100 100" xml:space="preserve">
<g>
	<path fill="#FFC426" d="M66.229,66.686c0.842,2.295-0.174,4.773-2.266,5.539l-16.672,6.109c-2.094,0.766-4.471-0.469-5.313-2.763
		L33.16,51.497c-0.844-2.292,0.176-4.772,2.268-5.538l16.672-6.11c2.092-0.767,4.469,0.469,5.307,2.761L66.229,66.686z"/>
	<path fill="#FFFFFF" d="M71.66,61.386l-9.832-25.551c-0.416-1.077-1.164-1.924-2.076-2.485l1.479-0.569
		c1.637-0.639,2.563-2.262,2.557-3.949c0-0.581-0.104-1.178-0.328-1.758c-0.695-1.802-2.328-2.989-4.111-2.998
		c-0.459,0-0.926,0.086-1.371,0.258l-4.902,1.886c-1.617-3.021-4.936-4.732-8.5-4.726c-0.117,0-0.236,0.002-0.354,0.006
		c0.215-0.945,0.387-1.891,0.393-2.78c-0.002-0.515-0.059-1.017-0.24-1.502c-0.828-2.147-2.873-3.465-5.041-3.462
		c-0.643,0-1.301,0.114-1.938,0.363c-2.143,0.824-3.461,2.868-3.459,5.037c0,0.641,0.115,1.3,0.363,1.938
		c0.543,1.268,1.676,2.135,2.887,2.948c-2.484,1.958-3.988,4.792-3.994,7.725c0,0.667,0.088,1.34,0.254,2.004l-4.889,1.881
		c-1.641,0.633-2.563,2.265-2.557,3.952c-0.002,0.581,0.107,1.178,0.33,1.757c0.693,1.796,2.322,2.986,4.107,2.993h0.018
		c0.451,0,0.91-0.081,1.354-0.254l1.473-0.567c-0.133,0.457-0.207,0.933-0.207,1.417c-0.002,0.604,0.109,1.223,0.34,1.821
		l9.832,25.549c0.773,2.007,2.688,3.245,4.723,3.245c0.604,0,1.219-0.109,1.818-0.338l18.971-7.3C70.762,67.15,72,65.24,72,63.207
		C72,62.6,71.891,61.984,71.66,61.386z M39.48,24.888l1.381-0.821l-1.348-0.877c-1.637-1.02-3.174-2.179-3.352-2.819
		c-0.156-0.402-0.227-0.809-0.227-1.215c0.002-1.366,0.828-2.653,2.18-3.173c0.4-0.155,0.809-0.228,1.217-0.228
		c1.363,0.002,2.654,0.827,3.172,2.179c0.063,0.157,0.111,0.432,0.109,0.785c0.006,0.919-0.318,2.296-0.666,3.664l-0.371,1.475
		l1.502-0.244c0.498-0.081,0.998-0.119,1.496-0.119c2.869,0.007,5.375,1.295,6.635,3.443l-15.873,6.107
		c-0.088-0.423-0.143-0.849-0.143-1.277C35.186,29.182,36.779,26.491,39.48,24.888z M31.09,42.235
		c-0.211,0.08-0.428,0.119-0.652,0.121c-0.852,0.006-1.826-0.624-2.24-1.715c-0.137-0.35-0.197-0.703-0.199-1.037
		c0.008-1,0.523-1.803,1.275-2.084l29.424-11.322c0.217-0.083,0.432-0.121,0.65-0.121c0.855-0.009,1.828,0.619,2.246,1.715
		c0.133,0.347,0.193,0.7,0.193,1.039c-0.004,0.993-0.521,1.796-1.277,2.086L31.09,42.235z M68.035,66.063L49.07,73.361
		c-0.363,0.139-0.734,0.203-1.102,0.203c-1.229,0-2.393-0.748-2.857-1.963l-9.832-25.549c-0.139-0.367-0.205-0.739-0.205-1.103
		c0.002-1.231,0.744-2.391,1.963-2.856l-0.002-0.004l18.971-7.299c0.363-0.139,0.732-0.204,1.098-0.204
		c1.227,0.002,2.389,0.744,2.857,1.967l9.832,25.551c0.141,0.365,0.205,0.735,0.205,1.103C69.998,64.431,69.25,65.594,68.035,66.063
		z M56.006,34.793v-0.003c-0.002,0.001-0.002,0.001-0.002,0.001L56.006,34.793z M56.789,40.738
		c-0.197-0.516-0.775-0.773-1.291-0.575l-14.486,5.575c-0.512,0.198-0.771,0.775-0.572,1.291c0.152,0.398,0.531,0.643,0.934,0.643
		c0.119,0,0.24-0.021,0.357-0.067l14.486-5.574C56.732,41.832,56.988,41.253,56.789,40.738z M59.383,47.469
		c-0.199-0.517-0.777-0.772-1.293-0.574l-14.488,5.577c-0.518,0.195-0.773,0.775-0.574,1.29c0.152,0.398,0.533,0.642,0.936,0.642
		c0.119,0,0.238-0.021,0.357-0.065l14.488-5.576C59.324,48.563,59.58,47.986,59.383,47.469z M61.973,54.202
		c-0.197-0.515-0.775-0.772-1.291-0.574l-14.488,5.573c-0.516,0.198-0.773,0.777-0.574,1.291c0.152,0.398,0.531,0.642,0.932,0.642
		c0.119,0,0.242-0.021,0.359-0.067l14.488-5.573C61.916,55.297,62.172,54.719,61.973,54.202z M63.271,60.357l-14.486,5.578
		c-0.516,0.198-0.771,0.777-0.574,1.292c0.152,0.398,0.531,0.642,0.932,0.642c0.119,0,0.242-0.021,0.359-0.066l14.488-5.578
		c0.518-0.198,0.773-0.777,0.574-1.292C64.365,60.417,63.787,60.159,63.271,60.357z"/>
</g>
</svg>
