<?xml version="1.0" encoding="utf-8"?>
<!-- Generator: Adobe Illustrator 13.0.1, SVG Export Plug-In . SVG Version: 6.00 Build 14948)  -->
<!DOCTYPE svg PUBLIC "-//W3C//DTD SVG 1.0//EN" "http://www.w3.org/TR/2001/REC-SVG-20010904/DTD/svg10.dtd">
<svg version="1.0" id="圖層_1" xmlns="http://www.w3.org/2000/svg" xmlns:xlink="http://www.w3.org/1999/xlink" x="0px" y="0px"
	 width="100px" height="50px" viewBox="0 0 100 50" enable-background="new 0 0 100 50" xml:space="preserve">
<g>
	<circle fill="#FFC426" cx="53.821" cy="30.419" r="15"/>
	<path fill="#FFFFFF" d="M50.543,3.907c-10.826,0-19.6,8.77-19.6,19.594c0,10.825,8.773,19.593,19.6,19.593
		c10.827,0,19.59-8.768,19.59-19.593C70.133,12.677,61.37,3.907,50.543,3.907z M50.543,40.985
		c-9.658-0.026-17.466-7.838-17.489-17.484c0.023-9.658,7.831-17.463,17.489-17.473c9.647,0.01,17.452,7.814,17.47,17.473
		C67.995,33.147,60.19,40.959,50.543,40.985z M26.439,16.053c0,1.45-0.469,2.743-1.166,3.638c-0.444,0.529-0.913,0.92-1.447,1.139
		V4.257h-2.113v16.572c-0.524-0.219-1.009-0.609-1.447-1.139c-0.677-0.895-1.152-2.188-1.152-3.638V4.257H17v1.06v10.736
		c0.011,3.338,1.899,6.328,4.713,6.97V44.26h2.113V23.022c2.821-0.642,4.712-3.632,4.723-6.97V4.257h-2.109V16.053z M77.634,3.546
		L75.883,2v41.202h2.123v-11.68c3.082-2.99,4.983-8.066,4.994-13.821C82.989,11.729,80.936,6.484,77.634,3.546z M78.006,7.161
		c1.737,2.579,2.894,6.346,2.881,10.54c0.013,4.192-1.144,7.953-2.881,10.542V7.161z"/>
</g>
</svg>
