<?xml version="1.0" encoding="utf-8"?>
<!-- Generator: Adobe Illustrator 13.0.1, SVG Export Plug-In . SVG Version: 6.00 Build 14948)  -->
<!DOCTYPE svg PUBLIC "-//W3C//DTD SVG 1.0//EN" "http://www.w3.org/TR/2001/REC-SVG-20010904/DTD/svg10.dtd">
<svg version="1.0" xmlns="http://www.w3.org/2000/svg" xmlns:xlink="http://www.w3.org/1999/xlink" x="0px" y="0px" width="120px"
	 height="120px" viewBox="0 0 120 120" enable-background="new 0 0 120 120" xml:space="preserve">
<g id="圖層_2" display="none">
	<circle display="inline" stroke="#FFFFFF" cx="60.416" cy="60.416" r="61.059"/>
</g>
<g id="圖層_8">
	<g>
		<g>
			<g>
				<path fill="#FFFFFF" d="M80.238,91.348h-43c-0.553,0-1-0.447-1-1v-62c0-0.553,0.447-1,1-1h38c0.266,0,0.52,0.105,0.707,0.293
					l8,8c0.188,0.188,0.293,0.441,0.293,0.707v51c0,0.404-0.242,0.77-0.617,0.924c-0.373,0.156-0.803,0.07-1.09-0.217l-8.707-8.707
					h-1.586v1.586l8.707,8.707c0.287,0.287,0.373,0.717,0.217,1.09C81.008,91.105,80.643,91.348,80.238,91.348z M38.239,89.348
					h39.585l-7.293-7.293c-0.188-0.188-0.293-0.441-0.293-0.707v-3c0-0.553,0.447-1,1-1h3c0.266,0,0.52,0.105,0.707,0.293
					l7.293,7.293V36.762l-7.414-7.414H38.239V89.348z"/>
			</g>
		</g>
		<g>
			
				<rect x="68.824" y="76.348" transform="matrix(0.7071 0.7071 -0.7071 0.7071 75.2654 -27.0114)" fill="#FFFFFF" width="2.828" height="2"/>
		</g>
		<g>
			<path fill="#FFFFFF" d="M60.239,81.348c-7.72,0-14-6.279-14-14c0-7.719,6.28-14,14-14v2c-6.617,0-12,5.382-12,12s5.383,12,12,12
				c6.617,0,12-5.383,12-12h2C74.238,75.068,67.959,81.348,60.239,81.348z"/>
		</g>
		<g>
			<polygon fill="#FFFFFF" points="83.238,37.348 74.238,37.348 74.238,28.348 76.238,28.348 76.238,35.348 83.238,35.348 			"/>
		</g>
		<g>
			<path fill="#FFFFFF" d="M60.239,76.348c-4.963,0-9-4.037-9-9s4.037-9,9-9v2c-3.859,0-7,3.141-7,7s3.141,7,7,7
				c3.859,0,7-3.141,7-7h2C69.238,72.311,65.201,76.348,60.239,76.348z"/>
		</g>
		<g>
			<rect x="42.239" y="31.348" fill="#FFFFFF" width="2" height="2"/>
		</g>
		<g>
			<rect x="46.239" y="31.348" fill="#FFFFFF" width="2" height="2"/>
		</g>
		<g>
			<rect x="50.239" y="31.348" fill="#FFFFFF" width="2" height="2"/>
		</g>
		<g>
			<rect x="42.239" y="41.348" fill="#FFFFFF" width="36" height="2"/>
		</g>
		<g>
			<rect x="67.238" y="45.348" fill="#FFFFFF" width="11" height="2"/>
		</g>
		<g>
			<rect x="58.239" y="45.348" fill="#FFFFFF" width="7" height="2"/>
		</g>
		<g>
			<rect x="42.239" y="45.348" fill="#FFFFFF" width="14" height="2"/>
		</g>
		<g>
			<rect x="42.239" y="49.348" fill="#FFFFFF" width="10" height="2"/>
		</g>
		<g>
			<rect x="42.239" y="35.348" fill="#FFFFFF" width="28" height="2"/>
		</g>
		<g>
			<path fill="#FFFFFF" d="M74.238,65.348h-12v-12h1c6.066,0,11,4.935,11,11V65.348z M64.238,63.348h7.945
				c-0.463-4.164-3.779-7.482-7.945-7.944V63.348z"/>
		</g>
		<g>
			<polygon fill="#FFFFFF" points="65.531,74.055 59.825,68.348 52.239,68.348 52.239,66.348 60.652,66.348 66.945,72.641 			"/>
		</g>
	</g>
</g>
<g id="圖層_3" display="none">
	<g display="inline">
		<path fill="#FFFFFF" d="M87.85,48.772c-7.179,0.002-12.998,5.819-13,13.001c0.002,7.178,5.819,12.998,13,13
			c7.18-0.002,13-5.822,13.002-13C100.85,54.592,95.027,48.774,87.85,48.772z M87.85,72.771c-6.074-0.01-10.988-4.924-11-10.998
			c0.012-6.077,4.926-10.989,11-11.002c6.075,0.013,10.988,4.926,11,11.002C98.838,67.848,93.922,72.762,87.85,72.771z
			 M94.741,44.469l-0.003-8.824c0-3.829-3.102-6.933-6.932-6.933H27.001c-3.828,0-6.932,3.104-6.932,6.933v42.02
			c0,3.825,3.104,6.931,6.932,6.931h21.49c0.006,0.61,0.016,1.25,0.016,1.881c0.002,0.992-0.037,1.946-0.146,2.487
			c-0.134,0.707-0.257,0.959-0.277,0.97c0.002,0.012-0.071,0.078-0.509,0.313c-0.281,0.158-0.781,0.391-1.273,0.609h-1.997v1.998
			h2.324l0.016,0.037c0.027-0.013,0.057-0.023,0.085-0.037h21.25c0.035,0.016,0.07,0.031,0.104,0.047l0.021-0.047h2.402v-1.998H68.4
			c-0.489-0.219-0.987-0.453-1.276-0.611c-0.425-0.23-0.456-0.279-0.456-0.281c-0.018-0.008-0.141-0.283-0.273-1
			c-0.11-0.543-0.15-1.49-0.146-2.475c-0.002-0.633,0.009-1.277,0.016-1.893H82.85v11.428h10V79.709
			c7.86-2.188,13.637-9.379,13.637-17.938C106.486,53.916,101.618,47.21,94.741,44.469z M22.069,35.645
			c0.004-2.724,2.209-4.929,4.932-4.933h60.806c2.726,0.004,4.928,2.209,4.935,4.933v8.163c-0.699-0.189-1.413-0.337-2.144-0.445
			l-7.92-5.471l-0.025,0.039c-0.133-2.09-1.853-3.746-3.975-3.748c-2.21,0.002-3.998,1.79-4,4c0,0.434,0.088,0.844,0.215,1.235
			l-12.098,7.009c-0.615-0.386-1.338-0.619-2.117-0.619c-2.21,0.002-4,1.791-4,4.001c0,0.682,0.188,1.314,0.488,1.877l-0.079-0.078
			l-5.242,5.363c-0.708-0.639-1.637-1.037-2.666-1.039c-1.098,0.002-2.09,0.445-2.813,1.16l-5.324-5.219
			c0.241-0.516,0.387-1.084,0.387-1.689c-0.002-2.211-1.791-4-4-4.002c-2.211,0.002-4,1.791-4,4.002c0,0.945,0.342,1.801,0.89,2.486
			L26.25,63.588l1.607,1.189L35.91,53.88c0.468,0.192,0.979,0.303,1.518,0.304c0.874,0,1.677-0.289,2.335-0.765l5.571,5.464
			c-0.092,0.337-0.156,0.684-0.157,1.05c0,2.209,1.792,3.999,4.001,4c2.209-0.002,3.998-1.791,3.998-4
			c0-0.498-0.102-0.97-0.268-1.409l0.109,0.107l5.401-5.524c0.644,0.44,1.42,0.701,2.258,0.702c2.209-0.002,4-1.791,4.002-4h-0.002
			c0-0.683-0.188-1.315-0.488-1.878l11.775-6.824c0.715,0.662,1.663,1.076,2.713,1.076c1.551,0,2.879-0.889,3.543-2.178l4.61,3.185
			c-9.815,0.532-17.615,8.635-17.615,18.582c0,3.748,1.106,7.234,3.015,10.152h-50.16V35.645z M80.678,38.183
			c-0.003,1.105-0.896,1.998-2,2c-1.104-0.002-1.998-0.895-2-2c0.002-1.104,0.897-1.998,2-2
			C79.779,36.185,80.675,37.079,80.678,38.183z M62.678,49.809c-0.002,1.104-0.896,1.997-2,1.999c-1.104-0.002-1.998-0.896-2-1.999
			c0.002-1.104,0.896-1.998,2-2C61.779,47.811,62.676,48.704,62.678,49.809z M51.177,59.933c-0.002,1.104-0.896,1.997-1.999,1.999
			c-1.104-0.002-1.999-0.895-2.001-1.999c0.002-1.103,0.896-1.997,2.001-2.001C50.28,57.936,51.175,58.83,51.177,59.933z
			 M39.427,50.184c-0.002,1.104-0.896,1.997-1.999,1.999c-1.105-0.002-1.999-0.896-2.001-1.999c0.002-1.104,0.897-1.999,2.001-2.001
			C38.531,48.185,39.425,49.078,39.427,50.184z M49.851,90.854c0.229-0.416,0.342-0.871,0.472-1.504
			c0.158-0.824,0.183-1.832,0.185-2.875c0-0.643-0.012-1.289-0.018-1.881h13.771c-0.006,0.6-0.016,1.238-0.016,1.893
			c0.002,1.035,0.025,2.037,0.188,2.867c0.133,0.637,0.234,1.082,0.455,1.5H49.851z M82.85,82.594H27.001
			c-2.723-0.004-4.928-2.209-4.932-4.93v-3.74H73.75c2.368,2.738,5.512,4.787,9.1,5.785V82.594z M90.852,94.023H84.85V80.145
			c0.979,0.158,1.978,0.265,3,0.265c1.024,0,2.021-0.104,3.002-0.265V94.023z M87.85,78.408
			c-9.188-0.018-16.617-7.447-16.634-16.637c0.017-9.187,7.445-16.619,16.634-16.635c9.188,0.017,16.621,7.449,16.637,16.635
			C104.471,70.961,97.037,78.391,87.85,78.408z"/>
	</g>
</g>
</svg>
