<?xml version="1.0" encoding="utf-8"?>
<!-- Generator: Adobe Illustrator 13.0.1, SVG Export Plug-In . SVG Version: 6.00 Build 14948)  -->
<!DOCTYPE svg PUBLIC "-//W3C//DTD SVG 1.0//EN" "http://www.w3.org/TR/2001/REC-SVG-20010904/DTD/svg10.dtd">
<svg version="1.0" xmlns="http://www.w3.org/2000/svg" xmlns:xlink="http://www.w3.org/1999/xlink" x="0px" y="0px" width="150px"
	 height="122px" viewBox="0 0 150 122" enable-background="new 0 0 150 122" xml:space="preserve">
<g id="圖層_2_1_" display="none">
	<rect x="-0.5" y="-0.5" display="inline" width="149" height="123"/>
</g>
<g id="圖層_4">
	<path fill="none" stroke="#FFFFFF" stroke-width="2" d="M95.563,37.709c-0.811,11.946-9.961,21.365-21.131,21.365l0,0
		c-10.455,0-19.146-8.256-20.878-19.114"/>
	<path fill="none" stroke="#FFFFFF" stroke-width="2" d="M82.119,57.38l0.292,5.021c4.373,0.303,7.244,0.848,10.256,1.428
		c9.164,1.785,13.262,4.595,14.641,15.119c1.311,9.985,4.033,29.968,4.612,40.033l0,0h37.513"/>
	<path fill="none" stroke="#FFFFFF" stroke-width="2" d="M-0.567,118.98h37.49h0.009c0.578-10.065,3.239-30.062,4.626-40.033
		c1.344-9.705,5.344-13.532,14.639-15.119c2.973-0.502,5.885-1.057,10.238-1.385l0.307-5.034"/>
	<g>
		<line fill="none" stroke="#FFFFFF" stroke-width="2" x1="32.735" y1="67.301" x2="34.314" y2="67.301"/>
		<line fill="none" stroke="#FFFFFF" stroke-width="2" x1="35.892" y1="67.301" x2="46.357" y2="67.301"/>
		<line fill="none" stroke="#FFFFFF" stroke-width="2" x1="25.345" y1="72.498" x2="26.926" y2="72.498"/>
		<line fill="none" stroke="#FFFFFF" stroke-width="2" x1="28.503" y1="72.498" x2="38.962" y2="72.498"/>
	</g>
	<path fill="none" stroke="#FFFFFF" stroke-width="2" stroke-linecap="round" stroke-linejoin="round" stroke-miterlimit="8" d="
		M68.822,24.475c-0.664,2.264,8.761,8.727,8.761,8.727c3.193-1.257,5.996-4.042,6.938-8.047c2.38,7.262,9.133,11.77,8.204,17.807
		c0,0,4.785-3.92,3.389-16.728"/>
	<path fill="none" stroke="#FFFFFF" stroke-width="2" stroke-miterlimit="8" d="M73.149,28.608"/>
	<path fill="none" stroke="#FFFFFF" stroke-width="2" stroke-linecap="round" stroke-linejoin="round" stroke-miterlimit="8" d="
		M52.337,26.817c-1.048,12.108,5.58,18.897,5.58,18.897s0.221-9.926,10.918-21.287"/>
	<path fill="none" stroke="#FFFFFF" stroke-width="2" stroke-miterlimit="8" d="M48.38,33.133
		c-0.56,11.213-0.353,26.719,3.813,29.648"/>
	<path fill="none" stroke="#FFFFFF" stroke-width="2" stroke-miterlimit="8" d="M99.241,32.829c0.067-3.635,0.254-4.733,0.254-6.749
		c0-16.35-11.326-25.007-25.294-25.007c-13.97,0-25.144,9.04-25.294,25.007c-0.02,2.103,0.152,3.583,0.354,6.675"/>
	<path fill="none" stroke="#FFFFFF" stroke-width="2" stroke-miterlimit="8" d="M102.491,67.911
		c-2.832-5.75-3.213-21.374-3.16-31.774"/>
	<line fill="none" stroke="#FFFFFF" stroke-width="2" x1="109.095" y1="72.406" x2="110.676" y2="72.406"/>
	<line fill="none" stroke="#FFFFFF" stroke-width="2" x1="112.253" y1="72.406" x2="122.712" y2="72.406"/>
	<line fill="none" stroke="#FFFFFF" stroke-width="2" x1="116.54" y1="77.6" x2="118.117" y2="77.6"/>
	<line fill="none" stroke="#FFFFFF" stroke-width="2" x1="119.694" y1="77.6" x2="130.158" y2="77.6"/>
	<path fill="none" stroke="#FFFFFF" stroke-width="2" d="M53.55,41.04c-1.357-0.223-2.793-1.331-3.738-3.052
		c-1.417-2.59-1.186-5.584,0.521-6.694c0.433-0.283,0.919-0.417,1.431-0.415"/>
	<path fill="none" stroke="#FFFFFF" stroke-width="2" d="M95.038,41.049c1.361-0.223,2.58-1.34,3.521-3.062
		c1.418-2.59,1.186-5.584-0.516-6.694c-0.385-0.25-0.808-0.384-1.25-0.41"/>
	<path fill="none" stroke="#FFFFFF" stroke-width="2" d="M84.229,71.442c-3.17,5.274-8.729,5.354-9.92,5.354
		c-1.206,0-6.678,0.023-9.943-5.325"/>
	<path fill="none" stroke="#FFFFFF" stroke-width="2" d="M83.812,62.872c0,0,3.02,28.434-9.767,38.573
		C60.694,90.268,65.21,62.353,65.21,62.353"/>
	<path fill="none" stroke="#FFFFFF" stroke-width="2" d="M59.655,63.015c-1.066,1.712-3.49,11.04-2.83,15.946l4.813,1.133
		l-4.34,2.547c0,0,3.82,15.974,16.747,18.805"/>
	<path fill="none" stroke="#FFFFFF" stroke-width="2" d="M88.601,63.015c1.067,1.712,3.491,11.04,2.83,15.946l-4.812,1.133
		l4.341,2.547c0,0-3.822,15.974-16.749,18.805"/>
	<g>
		<g>
			<g>
				<polygon fill="#FFFFFF" points="14.724,112.291 0.931,112.291 0.931,80.459 34.885,80.459 34.885,101.68 33.823,101.68 
					33.823,81.52 1.992,81.52 1.992,111.229 14.724,111.229 				"/>
			</g>
			<g>
				<rect x="1.461" y="84.703" fill="#FFFFFF" width="32.895" height="1.061"/>
			</g>
			<g>
				<rect x="3.053" y="82.58" fill="#FFFFFF" width="1.061" height="1.062"/>
			</g>
			<g>
				<rect x="5.175" y="82.58" fill="#FFFFFF" width="1.062" height="1.062"/>
			</g>
			<g>
				<rect x="7.297" y="82.58" fill="#FFFFFF" width="1.061" height="1.062"/>
			</g>
			<g>
				<rect x="9.419" y="80.989" fill="#FFFFFF" width="1.062" height="4.243"/>
			</g>
			<g>
				<rect x="11.541" y="82.58" fill="#FFFFFF" width="21.222" height="1.062"/>
			</g>
			<g>
				<polygon fill="#FFFFFF" points="14.724,110.168 3.053,110.168 3.053,86.825 32.763,86.825 32.763,101.68 31.702,101.68 
					31.702,87.886 4.113,87.886 4.113,109.107 14.724,109.107 				"/>
			</g>
			<g>
				<path fill="#FFFFFF" d="M20.029,112.291h-2.122v-7.428H19.5c1.169,0,2.121,0.951,2.121,2.122c0,0.519-0.188,0.995-0.499,1.364
					c0.617,0.372,1.03,1.049,1.03,1.818C22.152,111.338,21.2,112.291,20.029,112.291z M18.969,111.229h1.061
					c0.586,0,1.063-0.477,1.063-1.062c0-0.584-0.477-1.061-1.063-1.061h-1.061V111.229z M18.969,108.047H19.5
					c0.585,0,1.06-0.477,1.06-1.062s-0.475-1.061-1.06-1.061h-0.531V108.047z"/>
			</g>
			<g>
				<path fill="#FFFFFF" d="M25.336,112.291c-1.171,0-2.123-0.953-2.123-2.123v-5.305h1.062v5.305c0,0.585,0.476,1.062,1.062,1.062
					c0.585,0,1.061-0.477,1.061-1.062v-5.305h1.062v5.305C27.458,111.338,26.506,112.291,25.336,112.291z"/>
			</g>
			<g>
				<rect x="30.11" y="109.107" fill="#FFFFFF" width="1.061" height="3.184"/>
			</g>
			<g>
				<polygon fill="#FFFFFF" points="30.641,109.857 28.519,107.735 28.519,104.863 29.579,104.863 29.579,107.296 30.641,108.357 
					31.702,107.296 31.702,104.863 32.763,104.863 32.763,107.735 				"/>
			</g>
			<g>
				<path fill="#FFFFFF" d="M33.823,114.412H16.848c-0.586,0-1.063-0.476-1.063-1.061v-9.55c0-0.585,0.477-1.062,1.063-1.062h16.976
					c0.586,0,1.062,0.477,1.062,1.062v9.55C34.885,113.937,34.409,114.412,33.823,114.412z M16.848,103.802v9.55h16.977l-0.001-9.55
					H16.848z"/>
			</g>
			<g>
				<path fill="#FFFFFF" d="M14.724,105.925H7.828v-9.021c0-0.292-0.239-0.529-0.531-0.529H6.236v-5.306h4.774v0.53
					c0,0.877,0.714,1.592,1.592,1.592s1.592-0.715,1.592-1.592v-0.53h4.774v5.306h-1.062c-0.292,0-0.53,0.237-0.53,0.529v4.775
					h-1.062v-4.775c0-0.877,0.714-1.591,1.592-1.591v-3.183h-2.705c-0.247,1.209-1.319,2.121-2.6,2.121s-2.353-0.912-2.6-2.121
					H7.297v3.183c0.878,0,1.592,0.714,1.592,1.591v7.959h5.835V105.925z"/>
			</g>
			<g>
				<rect x="21.092" y="91.069" fill="#FFFFFF" width="5.305" height="1.062"/>
			</g>
			<g>
				<rect x="24.274" y="93.191" fill="#FFFFFF" width="5.305" height="1.061"/>
			</g>
			<g>
				<rect x="21.092" y="98.496" fill="#FFFFFF" width="4.244" height="1.062"/>
			</g>
			<g>
				<rect x="26.396" y="98.496" fill="#FFFFFF" width="3.183" height="1.062"/>
			</g>
			<g>
				<rect x="21.092" y="96.375" fill="#FFFFFF" width="1.061" height="1.061"/>
			</g>
			<g>
				<rect x="23.213" y="96.375" fill="#FFFFFF" width="1.062" height="1.061"/>
			</g>
			<g>
				<rect x="25.336" y="96.375" fill="#FFFFFF" width="1.061" height="1.061"/>
			</g>
			<g>
				<rect x="8.357" y="102.74" fill="#FFFFFF" width="6.366" height="1.062"/>
			</g>
			<g>
				<rect x="21.092" y="93.191" fill="#FFFFFF" width="2.121" height="1.061"/>
			</g>
			<g>
				<rect x="27.458" y="91.069" fill="#FFFFFF" width="2.121" height="1.062"/>
			</g>
			<g>
				<path fill="#FFFFFF" d="M12.603,100.619c-1.17,0-2.122-0.952-2.122-2.123c0-1.17,0.952-2.121,2.122-2.121
					c1.169,0,2.121,0.951,2.121,2.121C14.724,99.667,13.771,100.619,12.603,100.619z M12.603,97.436
					c-0.585,0-1.062,0.477-1.062,1.061c0,0.585,0.477,1.062,1.062,1.062s1.061-0.477,1.061-1.062
					C13.663,97.912,13.188,97.436,12.603,97.436z"/>
			</g>
		</g>
	</g>
	<g>
		<g>
			<rect x="124.864" y="112.522" fill="#FFFFFF" width="10.775" height="1.136"/>
		</g>
		<g>
			<rect x="123.73" y="110.254" fill="#FFFFFF" width="13.045" height="1.135"/>
		</g>
		<g>
			<path fill="#FFFFFF" d="M118.057,113.658c-3.126,0-5.672-2.545-5.672-5.674c0-3.127,2.546-5.672,5.672-5.672h24.391
				c0.314,0,0.568,0.255,0.568,0.568c0,1.563-1.273,2.836-2.837,2.836h-22.122c-1.251,0-2.27,1.018-2.27,2.268
				c0,1.252,1.019,2.27,2.27,2.27h1.134v1.135h-1.134c-1.876,0-3.402-1.527-3.402-3.404s1.526-3.402,3.402-3.402h22.122
				c0.74,0,1.37-0.475,1.605-1.135h-23.728c-2.501,0-4.536,2.036-4.536,4.537c0,2.502,2.035,4.538,4.536,4.538V113.658z"/>
		</g>
		<g>
			<g>
				<path fill="#FFFFFF" d="M139.044,117.061c-2.188,0-3.971-1.781-3.971-3.97c0-2.19,1.783-3.972,3.971-3.972
					c2.189,0,3.972,1.781,3.972,3.972C143.016,115.279,141.233,117.061,139.044,117.061z M139.044,110.254
					c-1.563,0-2.836,1.272-2.836,2.837c0,1.563,1.272,2.835,2.836,2.835s2.836-1.271,2.836-2.835
					C141.88,111.526,140.607,110.254,139.044,110.254z"/>
			</g>
		</g>
		<g>
			<g>
				<path fill="#FFFFFF" d="M121.461,117.061c-2.189,0-3.971-1.781-3.971-3.97c0-2.19,1.781-3.972,3.971-3.972
					c2.188,0,3.97,1.781,3.97,3.972C125.431,115.279,123.649,117.061,121.461,117.061z M121.461,110.254
					c-1.563,0-2.837,1.272-2.837,2.837c0,1.563,1.273,2.835,2.837,2.835s2.836-1.271,2.836-2.835
					C124.297,111.526,123.024,110.254,121.461,110.254z"/>
			</g>
		</g>
		<g>
			<path fill="#FFFFFF" d="M142.447,103.447h-24.391c-0.313,0-0.566-0.254-0.566-0.566V90.401h1.134v11.911h23.427l4.124-11.344
				h-26.416v-1.134h27.227c0.185,0,0.358,0.09,0.464,0.241c0.106,0.151,0.133,0.346,0.068,0.52l-4.536,12.479
				C142.899,103.298,142.688,103.447,142.447,103.447z"/>
		</g>
		<g>
			<path fill="#FFFFFF" d="M116.355,103.447h-1.135v-18.15c0-0.627-0.509-1.135-1.134-1.135v-1.134c1.251,0,2.269,1.018,2.269,2.269
				V103.447z"/>
		</g>
		<g>
			<path fill="#FFFFFF" d="M118.624,90.401h-1.134v-5.104c0-0.627-0.51-1.135-1.135-1.135v-1.134c1.252,0,2.269,1.018,2.269,2.269
				V90.401z"/>
		</g>
		<g>
			<rect x="111.251" y="83.028" fill="#FFFFFF" width="5.104" height="1.134"/>
		</g>
		<g>
			<path fill="#FFFFFF" d="M140.746,95.507c-0.844,0-1.25-0.431-1.547-0.745c-0.244-0.26-0.368-0.39-0.722-0.39
				c-0.354,0-0.479,0.13-0.722,0.39c-0.297,0.314-0.704,0.745-1.548,0.745s-1.25-0.431-1.547-0.745
				c-0.245-0.26-0.367-0.39-0.722-0.39s-0.477,0.13-0.722,0.39c-0.297,0.314-0.704,0.745-1.548,0.745
				c-0.841,0-1.249-0.431-1.545-0.745c-0.246-0.26-0.369-0.39-0.723-0.39s-0.478,0.13-0.724,0.39
				c-0.297,0.314-0.703,0.745-1.545,0.745c-0.844,0-1.25-0.431-1.548-0.745c-0.245-0.26-0.366-0.39-0.722-0.39
				c-0.354,0-0.477,0.13-0.723,0.39c-0.296,0.314-0.703,0.745-1.547,0.745c-0.842,0-1.248-0.431-1.546-0.745
				c-0.246-0.26-0.369-0.39-0.723-0.39v-1.135c0.844,0,1.249,0.431,1.547,0.745c0.245,0.26,0.368,0.39,0.722,0.39
				c0.355,0,0.478-0.13,0.724-0.39c0.296-0.314,0.702-0.745,1.546-0.745c0.843,0,1.25,0.431,1.547,0.745
				c0.244,0.26,0.368,0.39,0.723,0.39c0.354,0,0.476-0.13,0.722-0.39c0.297-0.314,0.703-0.745,1.547-0.745
				c0.842,0,1.249,0.431,1.546,0.745c0.246,0.26,0.368,0.39,0.722,0.39c0.354,0,0.478-0.13,0.722-0.39
				c0.298-0.314,0.705-0.745,1.548-0.745c0.842,0,1.251,0.431,1.546,0.745c0.245,0.26,0.368,0.39,0.723,0.39s0.478-0.13,0.723-0.39
				c0.297-0.314,0.702-0.745,1.547-0.745c0.843,0,1.249,0.431,1.547,0.745c0.244,0.26,0.367,0.39,0.722,0.39
				c0.354,0,0.477-0.13,0.723-0.39c0.297-0.314,0.702-0.745,1.547-0.745v1.135c-0.355,0-0.479,0.13-0.724,0.39
				C141.996,95.076,141.589,95.507,140.746,95.507z"/>
		</g>
		<g>
			<path fill="#FFFFFF" d="M140.746,100.045c-0.844,0-1.25-0.432-1.547-0.746c-0.244-0.259-0.368-0.389-0.722-0.389
				c-0.354,0-0.479,0.13-0.722,0.389c-0.297,0.314-0.704,0.746-1.548,0.746s-1.25-0.432-1.547-0.746
				c-0.245-0.259-0.367-0.389-0.722-0.389s-0.477,0.13-0.722,0.389c-0.297,0.315-0.704,0.746-1.548,0.746
				c-0.841,0-1.249-0.431-1.545-0.746c-0.246-0.259-0.369-0.389-0.723-0.389s-0.478,0.13-0.724,0.389
				c-0.297,0.315-0.703,0.746-1.545,0.746c-0.844,0-1.25-0.431-1.548-0.746c-0.245-0.259-0.366-0.389-0.722-0.389
				c-0.354,0-0.477,0.13-0.723,0.389c-0.296,0.315-0.703,0.746-1.547,0.746c-0.842,0-1.248-0.431-1.546-0.746
				c-0.246-0.259-0.369-0.389-0.723-0.389v-1.135c0.844,0,1.249,0.43,1.547,0.744c0.245,0.26,0.368,0.391,0.722,0.391
				c0.355,0,0.478-0.131,0.724-0.391c0.296-0.314,0.702-0.744,1.546-0.744c0.843,0,1.25,0.431,1.547,0.745
				c0.244,0.259,0.368,0.39,0.723,0.39c0.354,0,0.476-0.131,0.722-0.391c0.297-0.314,0.703-0.744,1.547-0.744
				c0.842,0,1.249,0.43,1.546,0.744c0.246,0.26,0.368,0.391,0.722,0.391c0.354,0,0.478-0.131,0.722-0.391
				c0.298-0.314,0.705-0.744,1.548-0.744c0.842,0,1.251,0.431,1.546,0.745c0.245,0.259,0.368,0.39,0.723,0.39
				s0.478-0.131,0.723-0.39c0.297-0.314,0.702-0.745,1.547-0.745c0.843,0,1.249,0.431,1.547,0.745
				c0.244,0.259,0.367,0.39,0.722,0.39V100.045z"/>
		</g>
		<g>
			<circle fill="#FFFFFF" cx="121.461" cy="113.09" r="1.135"/>
		</g>
		<g>
			<circle fill="#FFFFFF" cx="139.044" cy="113.09" r="1.135"/>
		</g>
		<g>
			<path fill="#FFFFFF" d="M137.91,88.7h-1.135v-2.27h-13.613v2.27h-1.134v-2.837c0-0.313,0.253-0.566,0.566-0.566h14.748
				c0.314,0,0.567,0.254,0.567,0.566V88.7z"/>
		</g>
		<g>
			<path fill="#FFFFFF" d="M141.88,88.7h-1.134v-6.807h-9.076v2.269h-1.134v-2.836c0-0.313,0.254-0.567,0.567-0.567h10.21
				c0.313,0,0.566,0.254,0.566,0.567V88.7z"/>
		</g>
		<g>
			<path fill="#FFFFFF" d="M137.343,84.162h-2.27c-0.313,0-0.566-0.254-0.566-0.567v-2.269c0-0.313,0.253-0.567,0.566-0.567h2.27
				c0.314,0,0.567,0.254,0.567,0.567v2.269C137.91,83.908,137.657,84.162,137.343,84.162z M135.64,83.028h1.136v-1.135h-1.136
				V83.028z"/>
		</g>
	</g>
</g>
</svg>
