<svg xmlns="http://www.w3.org/2000/svg" xmlns:xlink="http://www.w3.org/1999/xlink" viewBox="0 0 157.09 118.31"><defs><style>.cls-1,.cls-2,.cls-3,.cls-4,.cls-5{fill:none;}.cls-2,.cls-3,.cls-4,.cls-5{stroke:#fff;stroke-width:2px;}.cls-2{stroke-miterlimit:8;}.cls-4{stroke-linecap:round;}.cls-5{stroke-miterlimit:10;}.cls-6{clip-path:url(#clip-path);}.cls-7{fill:#fff;}</style><clipPath id="clip-path"><polygon class="cls-1" points="106.77 69.92 112.49 115.71 170.18 115.87 167.33 74.55 129.57 63.51 106.77 69.92"/></clipPath></defs><title>hoverBox-icon2</title><g id="圖層_2" data-name="圖層 2"><g id="圖層_1-2" data-name="圖層 1"><path class="cls-2" d="M64.49,3.18c-7.24,3.38-12.2,10.57-12.2,20.92S54,36.32,54,36.32A55.81,55.81,0,0,0,70.41,17.45"/><path class="cls-3" d="M96.13,34.43c-.81,12-10,21.37-21.13,21.37h0c-10.46,0-19.15-8.26-20.88-19.11"/><path class="cls-3" d="M54.12,37.77a5.71,5.71,0,0,1-3.74-3.06C49,32.12,49.19,29.13,50.9,28a2.52,2.52,0,0,1,1.43-.42"/><path class="cls-3" d="M95.61,37.77c1.36-.22,2.58-1.34,3.52-3.06,1.41-2.59,1.18-5.58-.52-6.69a2.48,2.48,0,0,0-1.25-.41"/><line class="cls-3" x1="67" y1="59.17" x2="67.31" y2="54.13"/><line class="cls-3" x1="82.69" y1="54.1" x2="82.98" y2="59.13"/><path class="cls-3" d="M83.12,59.13c-2.55,7.58-7,7.7-8,7.7s-5.37,0-8-7.66"/><path class="cls-3" d="M75.13,66.83s-4.61,0-6.83,7.36c0,0-9.23-2.86-4-14.62"/><path class="cls-3" d="M75.13,66.83s3.42-1.82,5.64,5.58c0,0,10.42-1.08,5.19-12.84"/><path class="cls-3" d="M83,59.13a76.74,76.74,0,0,1,10.26,1.42c9.16,1.79,13.26,4.6,14.63,15.12,1.32,10,4,30,4.62,40H150"/><path class="cls-3" d="M0,115.71H37.5c.58-10.07,3.24-30.07,4.62-40,1.35-9.7,5.35-13.53,14.64-15.12A100.37,100.37,0,0,1,67,59.17"/><line class="cls-3" x1="28.61" y1="68.21" x2="30.19" y2="68.21"/><line class="cls-3" x1="31.76" y1="68.21" x2="42.23" y2="68.21"/><line class="cls-3" x1="21.22" y1="73.4" x2="22.8" y2="73.4"/><line class="cls-3" x1="24.38" y1="73.4" x2="34.84" y2="73.4"/><line class="cls-3" x1="94.11" y1="57.13" x2="95.69" y2="57.13"/><line class="cls-3" x1="97.26" y1="57.13" x2="107.72" y2="57.13"/><line class="cls-3" x1="101.55" y1="62.32" x2="103.13" y2="62.32"/><line class="cls-3" x1="104.7" y1="62.32" x2="115.17" y2="62.32"/><path class="cls-2" d="M95.77,34.61C69.85,31.74,64.34,1.66,64.34,1.66a24.41,24.41,0,0,1,5-.06A46.9,46.9,0,0,1,74.79,1C87.21,1,97.28,9,97.28,24.1c0,8-1.15,11.41-1.15,11.41"/><path class="cls-3" d="M38,107.5,22.4,112.29a1.44,1.44,0,0,1-1.86-.76l-7.07-23a1.45,1.45,0,0,1,1.12-1.68l26.68-8.19"/><line class="cls-4" x1="20.17" y1="81.67" x2="21.94" y2="87.43"/><line class="cls-4" x1="34.12" y1="77.39" x2="35.89" y2="83.15"/><line class="cls-3" x1="15.21" y1="93.16" x2="40.94" y2="85.26"/><line class="cls-3" x1="25.03" y1="94.19" x2="23.46" y2="94.67"/><line class="cls-3" x1="29.26" y1="92.89" x2="27.7" y2="93.37"/><line class="cls-3" x1="33.49" y1="91.59" x2="31.93" y2="92.07"/><line class="cls-3" x1="37.73" y1="90.29" x2="36.17" y2="90.77"/><line class="cls-3" x1="38.83" y1="93.87" x2="37.27" y2="94.35"/><line class="cls-3" x1="39.33" y1="97.64" x2="38.37" y2="97.93"/><line class="cls-3" x1="34.59" y1="95.17" x2="33.03" y2="95.65"/><line class="cls-3" x1="35.69" y1="98.75" x2="34.13" y2="99.23"/><line class="cls-3" x1="36.79" y1="102.33" x2="35.23" y2="102.81"/><line class="cls-3" x1="30.36" y1="96.47" x2="28.8" y2="96.95"/><line class="cls-3" x1="31.46" y1="100.05" x2="29.9" y2="100.53"/><line class="cls-3" x1="32.56" y1="103.63" x2="31" y2="104.11"/><line class="cls-3" x1="26.13" y1="97.77" x2="24.56" y2="98.25"/><line class="cls-3" x1="27.23" y1="101.35" x2="25.66" y2="101.83"/><line class="cls-3" x1="28.33" y1="104.93" x2="26.76" y2="105.41"/><line class="cls-3" x1="22.22" y1="98.97" x2="20.65" y2="99.45"/><line class="cls-3" x1="23.32" y1="102.55" x2="21.75" y2="103.03"/><line class="cls-3" x1="24.42" y1="106.13" x2="22.85" y2="106.61"/><line class="cls-5" x1="128.34" y1="104.41" x2="128.34" y2="106.38"/><line class="cls-5" x1="124.77" y1="106.64" x2="126.47" y2="107.62"/><line class="cls-5" x1="124.91" y1="110.85" x2="126.61" y2="109.87"/><line class="cls-5" x1="128.62" y1="112.84" x2="128.62" y2="110.87"/><line class="cls-5" x1="132.2" y1="110.61" x2="130.5" y2="109.63"/><line class="cls-5" x1="132.06" y1="106.4" x2="130.36" y2="107.38"/><polyline class="cls-5" points="56.54 60.66 52.98 116.94 97.87 117.3 95.37 61.73"/><polyline class="cls-5" points="71.5 69.21 70.79 81.67 79.7 81.32 79.7 69.92"/><line class="cls-5" x1="96.44" y1="89.16" x2="55.12" y2="88.8"/><g class="cls-6"><polygon class="cls-7" points="138.64 107.43 121.87 107.43 121.87 105.75 136.96 105.75 136.96 74.72 105.09 74.72 105.09 105.75 108.45 105.75 108.45 107.43 103.42 107.43 103.42 73.05 138.64 73.05 138.64 107.43"/><rect class="cls-7" x="110.13" y="95.69" width="25.16" height="1.68"/><rect class="cls-7" x="121.87" y="99.04" width="13.42" height="1.68"/><path class="cls-7" d="M125.22,91.49a.8.8,0,0,1-.37-.08.85.85,0,0,1-.47-.75V88.14H104.26V86.46h21a.85.85,0,0,1,.84.84v1.64l5.34-4.15-5.34-4.16v1.64a.85.85,0,0,1-.84.84h-21V81.43h20.12V78.92a.84.84,0,0,1,1.36-.67l7.54,5.87a.84.84,0,0,1,0,1.33l-7.54,5.87A.9.9,0,0,1,125.22,91.49Z"/><path class="cls-7" d="M108.45,102.4h-5V95.69h5Zm-3.36-1.68h1.68V97.36h-1.68Z"/><path class="cls-7" d="M157.09,104.07h-5V99h5Zm-3.36-1.67h1.68v-1.68h-1.68Z"/><path class="cls-7" d="M115.16,116.65a5.87,5.87,0,1,1,5.87-5.87A5.87,5.87,0,0,1,115.16,116.65Zm0-10.06a4.19,4.19,0,1,0,4.19,4.19A4.2,4.2,0,0,0,115.16,106.59Z"/><path class="cls-7" d="M115.16,112.46a1.68,1.68,0,1,1,1.67-1.68A1.68,1.68,0,0,1,115.16,112.46Z"/><path class="cls-7" d="M147,116.65a5.87,5.87,0,1,1,5.87-5.87A5.88,5.88,0,0,1,147,116.65Zm0-10.06a4.19,4.19,0,1,0,4.2,4.19A4.2,4.2,0,0,0,147,106.59Z"/><path class="cls-7" d="M147,112.46a1.68,1.68,0,1,1,1.68-1.68A1.68,1.68,0,0,1,147,112.46Z"/><polygon class="cls-7" points="157.09 107.43 153.73 107.43 153.73 105.75 155.41 105.75 155.41 96.77 148.24 85.62 138.64 85.62 138.64 105.75 140.31 105.75 140.31 107.43 136.96 107.43 136.96 83.95 149.16 83.95 157.09 96.28 157.09 107.43"/><rect class="cls-7" x="141.15" y="95.69" width="15.09" height="1.68"/><polygon class="cls-7" points="141.99 104.07 140.31 104.07 140.31 87.3 150.38 87.3 150.38 88.98 141.99 88.98 141.99 104.07"/><rect class="cls-7" x="143.67" y="99.04" width="1.68" height="1.68"/><rect class="cls-7" x="103.42" y="114.97" width="53.67" height="1.68"/><rect class="cls-7" x="119.35" y="89.82" width="1.68" height="1.68"/><rect class="cls-7" x="116" y="89.82" width="1.68" height="1.68"/><rect class="cls-7" x="112.64" y="89.82" width="1.68" height="1.68"/></g></g></g></svg>