<svg xmlns="http://www.w3.org/2000/svg" xmlns:xlink="http://www.w3.org/1999/xlink" viewBox="0 0 154.18 119.91"><defs><style>.cls-1,.cls-2,.cls-3,.cls-4{fill:none;}.cls-2,.cls-3,.cls-4{stroke:#fff;stroke-width:2px;}.cls-3{stroke-miterlimit:8;}.cls-4{stroke-linecap:round;stroke-linejoin:round;}.cls-5{clip-path:url(#clip-path);}.cls-6{fill:#fff;}</style><clipPath id="clip-path"><polygon class="cls-1" points="106.98 72.25 113.69 116.61 155.42 116.85 158.3 71.77 106.98 72.25"/></clipPath></defs><title>hoverBox-icon3</title><g id="圖層_2" data-name="圖層 2"><g id="圖層_1-2" data-name="圖層 1"><path class="cls-2" d="M96.13,37.64C95.32,49.58,86.17,59,75,59h0c-10.46,0-19.15-8.25-20.88-19.11"/><path class="cls-2" d="M82.69,57.31l.29,5a74.56,74.56,0,0,1,10.25,1.43c9.17,1.78,13.27,4.59,14.65,15.11,1.31,10,4,30,4.61,40H150"/><path class="cls-2" d="M0,118.91H37.5c.58-10.07,3.24-30.06,4.63-40,1.34-9.7,5.34-13.53,14.63-15.11A97.31,97.31,0,0,1,67,62.37l.31-5"/><line class="cls-2" x1="33.3" y1="67.23" x2="34.88" y2="67.23"/><line class="cls-2" x1="36.46" y1="67.23" x2="46.92" y2="67.23"/><line class="cls-2" x1="25.91" y1="72.42" x2="27.49" y2="72.42"/><line class="cls-2" x1="29.07" y1="72.42" x2="39.53" y2="72.42"/><path class="cls-3" d="M52.9,26.74c-1,12.11,5.58,18.9,5.58,18.9s.23-9.93,10.92-21.29C66,30.64,66,31.19,64.11,34.61c4.31-.51,8.17-5.34,9.61-6.08a23.34,23.34,0,0,0-.89,5c2.66-1,8.58-8.65,8.58-8.65-.66,2.27-3.26,8.27-3.26,8.27a11.4,11.4,0,0,0,6.94-8.05c2.38,7.26,9.13,11.77,8.2,17.81,0,0,4.79-3.92,3.39-16.73"/><path class="cls-3" d="M99.81,32.76c.07-3.64.25-4.74.25-6.75,0-16.35-11.32-25-25.29-25s-25.14,9-25.3,25c0,2.1.16,3.58.36,6.67"/><line class="cls-2" x1="109.66" y1="72.33" x2="111.24" y2="72.33"/><line class="cls-2" x1="112.82" y1="72.33" x2="123.28" y2="72.33"/><line class="cls-2" x1="123.14" y1="66.01" x2="133.6" y2="66.01"/><path class="cls-2" d="M54.12,41a5.68,5.68,0,0,1-3.74-3.06c-1.42-2.59-1.19-5.58.52-6.69a2.51,2.51,0,0,1,1.43-.41"/><path class="cls-2" d="M95.61,41c1.36-.23,2.58-1.34,3.52-3.07,1.41-2.59,1.18-5.58-.52-6.69a2.58,2.58,0,0,0-1.25-.41"/><path class="cls-2" d="M84.8,71.37a11.34,11.34,0,0,1-9.92,5.35,11.21,11.21,0,0,1-9.95-5.32"/><path class="cls-2" d="M84.38,62.8s3,28.43-9.77,38.57c-13.35-11.18-8.83-39.09-8.83-39.09"/><path class="cls-2" d="M60.22,62.94c-1.06,1.71-3.49,11-2.83,16L62.21,80l-4.34,2.55s3.82,16,16.74,18.8"/><path class="cls-2" d="M89.17,62.94c1.07,1.71,3.49,11,2.83,16L87.19,80l4.34,2.55s-3.82,16-16.75,18.8"/><path class="cls-2" d="M38.28,111.68,22.6,116.57a.39.39,0,0,1-.5-.26L12.2,84.62a.4.4,0,0,1,.26-.5l23.35-7.29a.41.41,0,0,1,.51.26l4.17,13.36"/><polyline class="cls-2" points="24.44 112.13 18.98 94.67 36.45 89.21"/><rect class="cls-2" x="16.84" y="83.92" width="18.34" height="5.09" transform="translate(-24.59 11.68) rotate(-17.34)"/><polyline class="cls-2" points="38.37 107.78 24.44 112.13 18.98 94.67 36.45 89.21 39.5 98.99"/><line class="cls-2" x1="27.76" y1="91.93" x2="33.18" y2="109.3"/><line class="cls-2" x1="39.16" y1="97.9" x2="21.78" y2="103.33"/><line class="cls-2" x1="26.88" y1="97.03" x2="22.36" y2="98.44"/><line class="cls-2" x1="25.32" y1="99.99" x2="23.91" y2="95.48"/><line class="cls-2" x1="35.79" y1="94.25" x2="31.28" y2="95.66"/><line class="cls-2" x1="29.46" y1="107.64" x2="25.27" y2="105.44"/><line class="cls-2" x1="26.27" y1="108.63" x2="28.46" y2="104.44"/><line class="cls-2" x1="38.86" y1="104.06" x2="34.34" y2="105.47"/><line class="cls-2" x1="38.22" y1="102.03" x2="33.71" y2="103.44"/><path class="cls-4" d="M49.18,28.12s-11.27,21.11-5,24.94S54.46,54.5,54.7,50.67s-3.36-1.92-3.36-1.92l3.12-5.52"/><path class="cls-4" d="M100.79,28.12s11.28,21.11,5,24.94S95.52,54.5,95.28,50.67s3.36-1.92,3.36-1.92l-3.12-5.52"/><g class="cls-5"><rect class="cls-6" x="103.1" y="89.89" width="26.45" height="1.32" transform="matrix(0.29, -0.96, 0.96, 0.29, -3.75, 176.07)"/><rect class="cls-6" x="132.24" y="98.62" width="26.45" height="1.32" transform="translate(8.63 210.14) rotate(-73.32)"/><path class="cls-6" d="M143.39,113.15l-3.8-1.14.37-1.26,3.81,1.13a2.64,2.64,0,0,0,3.29-1.77l5.69-19A2.64,2.64,0,0,0,151,87.81l-3.8-1.14.38-1.27,3.8,1.14A4,4,0,0,1,154,91.48l-5.69,19A4,4,0,0,1,143.39,113.15Z"/><path class="cls-6" d="M114.24,104.43l-3.8-1.14a4,4,0,0,1-2.66-4.94l5.69-19a4,4,0,0,1,4.94-2.66l3.8,1.14-.38,1.26L118,78a2.66,2.66,0,0,0-3.3,1.77l-5.68,19a2.64,2.64,0,0,0,1.77,3.29l3.8,1.14Z"/><rect class="cls-6" x="109.82" y="89.13" width="7.94" height="1.32" transform="matrix(0.29, -0.96, 0.96, 0.29, -4.83, 173.1)"/><rect class="cls-6" x="146.68" y="99.37" width="2.64" height="1.32" transform="translate(9.71 213.11) rotate(-73.32)"/><path class="cls-6" d="M152.11,84l-1.27-.38a2,2,0,1,0-3.8-1.14l-1.27-.38a3.31,3.31,0,1,1,6.34,1.9Z"/><path class="cls-6" d="M125.5,76l-1.27-.38a3.32,3.32,0,0,1,4.12-2.22L128,74.71A2,2,0,0,0,125.5,76Z"/><rect class="cls-6" x="138.27" y="66.06" width="1.32" height="22.49" transform="translate(25.04 188.23) rotate(-73.34)"/><rect class="cls-6" x="150.63" y="83.79" width="1.32" height="1.32" transform="translate(27.05 205.22) rotate(-73.36)"/><path class="cls-6" d="M134.71,116.77a.68.68,0,0,1-.39-.32l-1-1.89-1.89,1a.66.66,0,0,1-.89-.27l-1-1.89-1.89,1a.66.66,0,0,1-.89-.27l-1-1.89-1.89,1a.64.64,0,0,1-.89-.27l-1-1.88-1.89,1a.66.66,0,0,1-.9-.26l-1-1.89-1.89,1a.67.67,0,0,1-.9-.27l-.89-1.65a.67.67,0,0,1,0-.5l9.86-32.95,1.27.38-9.78,32.69.44.82,1.89-1a.66.66,0,0,1,.89.27l1,1.89,1.89-1a.66.66,0,0,1,.9.27l1,1.88,1.89-1a.66.66,0,0,1,.9.26l1,1.89,1.88-1a.67.67,0,0,1,.9.27l1,1.89,1.88-1a.67.67,0,0,1,.9.27l1,1.89.82-.45,9.78-32.68,1.27.38-9.86,33a.68.68,0,0,1-.32.39l-1.65.89A.67.67,0,0,1,134.71,116.77Z"/><path class="cls-6" d="M129.57,99.35a2.65,2.65,0,0,1-1.78-3.29l1.27.38a1.32,1.32,0,0,0,2.53.76c.13-.42-.59-1.32-1.13-1.78-.32-.29-1.94-1.77-1.53-3.16A2.65,2.65,0,0,1,134,93.77l-1.27-.38a1.32,1.32,0,1,0-2.53-.75c-.12.41.59,1.31,1.13,1.77.33.29,1.95,1.78,1.53,3.16A2.64,2.64,0,0,1,129.57,99.35Z"/><rect class="cls-6" x="131.33" y="89.5" width="1.98" height="1.32" transform="translate(7.98 191.05) rotate(-73.32)"/><rect class="cls-6" x="128.48" y="99.01" width="1.98" height="1.32" transform="translate(-3.12 195.15) rotate(-73.35)"/><rect class="cls-6" x="134.67" y="95.58" width="1.32" height="1.32" transform="translate(4.32 198.29) rotate(-73.33)"/><rect class="cls-6" x="125.8" y="92.93" width="1.32" height="1.32" transform="translate(0.52 187.88) rotate(-73.32)"/><rect class="cls-6" x="133.27" y="76.84" width="1.32" height="15.87" transform="translate(14.31 188.78) rotate(-73.34)"/><rect class="cls-6" x="134.03" y="81.58" width="1.32" height="1.32" transform="translate(17.28 187.7) rotate(-73.34)"/><rect class="cls-6" x="131.49" y="80.82" width="1.32" height="1.32" transform="translate(16.15 184.67) rotate(-73.31)"/><rect class="cls-6" x="136.56" y="82.34" width="1.32" height="1.32" transform="translate(18.38 190.68) rotate(-73.35)"/><rect class="cls-6" x="127.2" y="97.12" width="1.32" height="15.87" transform="translate(-9.44 197.42) rotate(-73.34)"/><rect class="cls-6" x="126.44" y="106.93" width="1.32" height="1.32" transform="translate(-12.43 198.47) rotate(-73.32)"/><rect class="cls-6" x="123.91" y="106.17" width="1.32" height="1.32" transform="translate(-13.46 195.59) rotate(-73.36)"/><rect class="cls-6" x="128.98" y="107.68" width="1.32" height="1.32" transform="translate(-11.32 201.49) rotate(-73.35)"/></g></g></g></svg>