<svg xmlns="http://www.w3.org/2000/svg" viewBox="0 0 152.04 119.91"><defs><style>.cls-1,.cls-2,.cls-3{fill:none;stroke:#fff;stroke-width:2px;}.cls-2{stroke-linecap:round;stroke-linejoin:round;}.cls-3{stroke-miterlimit:8;}.cls-4{fill:#fff;}</style></defs><title>icon4</title><g id="圖層_2" data-name="圖層 2"><g id="圖層_1-2" data-name="圖層 1"><path class="cls-1" d="M96.23,37.64C95.42,49.58,86.27,59,75.1,59h0C64.64,59,56,50.75,54.22,39.89"/><path class="cls-1" d="M82.79,57.31l.29,5a74.56,74.56,0,0,1,10.25,1.43c9.17,1.78,13.26,4.59,14.64,15.11,1.31,10,4,30,4.62,40H150.1"/><path class="cls-1" d="M.1,118.91H37.6c.58-10.07,3.24-30.06,4.62-40,1.35-9.7,5.35-13.53,14.64-15.11A96.94,96.94,0,0,1,67.1,62.37l.31-5"/><line class="cls-1" x1="33.4" y1="67.23" x2="34.98" y2="67.23"/><line class="cls-1" x1="36.56" y1="67.23" x2="47.02" y2="67.23"/><line class="cls-1" x1="26.01" y1="72.42" x2="27.59" y2="72.42"/><line class="cls-1" x1="29.17" y1="72.42" x2="39.63" y2="72.42"/><path class="cls-2" d="M69.49,24.4c-.67,2.27,8.76,8.73,8.76,8.73a11.4,11.4,0,0,0,6.94-8.05c2.38,7.26,9.13,11.77,8.2,17.81,0,0,4.79-3.92,3.39-16.73"/><path class="cls-2" d="M53,26.74c-1,12.11,5.58,18.9,5.58,18.9s.22-9.93,10.92-21.29"/><path class="cls-3" d="M49.05,33.06c-.56,11.21-.36,26.72,3.81,29.65"/><path class="cls-3" d="M99.91,32.76c.06-3.64.25-4.74.25-6.75,0-16.35-11.33-25-25.29-25s-25.15,9-25.3,25c0,2.1.16,3.58.36,6.67"/><path class="cls-3" d="M103.16,67.84c-2.83-5.75-3.22-21.38-3.16-31.78"/><line class="cls-1" x1="109.76" y1="72.33" x2="111.34" y2="72.33"/><line class="cls-1" x1="112.92" y1="72.33" x2="123.38" y2="72.33"/><line class="cls-1" x1="117.21" y1="77.53" x2="118.78" y2="77.53"/><line class="cls-1" x1="120.36" y1="77.53" x2="130.82" y2="77.53"/><path class="cls-1" d="M54.22,41a5.68,5.68,0,0,1-3.74-3.06c-1.42-2.59-1.19-5.58.52-6.69a2.51,2.51,0,0,1,1.43-.41"/><path class="cls-1" d="M95.7,41c1.37-.23,2.58-1.34,3.53-3.07,1.41-2.59,1.18-5.58-.52-6.69a2.58,2.58,0,0,0-1.25-.41"/><path class="cls-1" d="M84.9,71.37A11.34,11.34,0,0,1,75,76.72,11.21,11.21,0,0,1,65,71.4"/><path class="cls-1" d="M84.48,62.8s3,28.43-9.77,38.57c-13.35-11.18-8.83-39.09-8.83-39.09"/><path class="cls-1" d="M60.32,62.94c-1.07,1.71-3.49,11-2.83,16L62.3,80,58,82.57s3.82,16,16.75,18.8"/><path class="cls-1" d="M89.27,62.94c1.06,1.71,3.49,11,2.83,16L87.29,80l4.34,2.55s-3.83,16-16.75,18.8"/><polygon class="cls-4" points="13.79 112.22 0 112.22 0 80.39 33.95 80.39 33.95 101.61 32.89 101.61 32.89 81.45 1.06 81.45 1.06 111.16 13.79 111.16 13.79 112.22"/><rect class="cls-4" x="0.53" y="84.63" width="32.89" height="1.06"/><rect class="cls-4" x="2.12" y="82.51" width="1.06" height="1.06"/><rect class="cls-4" x="4.24" y="82.51" width="1.06" height="1.06"/><rect class="cls-4" x="6.37" y="82.51" width="1.06" height="1.06"/><rect class="cls-4" x="8.49" y="80.92" width="1.06" height="4.24"/><rect class="cls-4" x="10.61" y="82.51" width="21.22" height="1.06"/><polygon class="cls-4" points="13.79 110.09 2.12 110.09 2.12 86.75 31.83 86.75 31.83 101.61 30.77 101.61 30.77 87.81 3.18 87.81 3.18 109.03 13.79 109.03 13.79 110.09"/><path class="cls-4" d="M19.1,112.22H17v-7.43h1.59a2.12,2.12,0,0,1,1.62,3.49,2.12,2.12,0,0,1-1.09,3.94ZM18,111.16H19.1a1.07,1.07,0,0,0,0-2.13H18ZM18,108h.53a1.06,1.06,0,0,0,0-2.12H18Z"/><path class="cls-4" d="M24.41,112.22a2.12,2.12,0,0,1-2.13-2.12v-5.31h1.06v5.31a1.07,1.07,0,0,0,2.13,0v-5.31h1.06v5.31A2.12,2.12,0,0,1,24.41,112.22Z"/><rect class="cls-4" x="29.18" y="109.03" width="1.06" height="3.18"/><polygon class="cls-4" points="29.71 109.78 27.59 107.66 27.59 104.79 28.65 104.79 28.65 107.22 29.71 108.28 30.77 107.22 30.77 104.79 31.83 104.79 31.83 107.66 29.71 109.78"/><path class="cls-4" d="M32.89,114.34h-17a1.07,1.07,0,0,1-1.07-1.06v-9.55a1.06,1.06,0,0,1,1.07-1.06h17A1.05,1.05,0,0,1,34,103.73v9.55A1.06,1.06,0,0,1,32.89,114.34Zm-17-10.61v9.55h17v-9.55Z"/><path class="cls-4" d="M13.79,105.85H6.9v-9a.53.53,0,0,0-.53-.53H5.31V91h4.77v.53a1.59,1.59,0,0,0,3.18,0V91H18v5.3H17a.53.53,0,0,0-.53.53v4.78H15.38V96.83A1.6,1.6,0,0,1,17,95.24V92.06H14.27a2.65,2.65,0,0,1-5.2,0H6.37v3.18A1.59,1.59,0,0,1,8,96.83v8h5.83Z"/><rect class="cls-4" x="20.16" y="91" width="5.3" height="1.06"/><rect class="cls-4" x="23.34" y="93.12" width="5.3" height="1.06"/><rect class="cls-4" x="20.16" y="98.42" width="4.24" height="1.06"/><rect class="cls-4" x="25.47" y="98.42" width="3.18" height="1.06"/><rect class="cls-4" x="20.16" y="96.3" width="1.06" height="1.06"/><rect class="cls-4" x="22.28" y="96.3" width="1.06" height="1.06"/><rect class="cls-4" x="24.41" y="96.3" width="1.06" height="1.06"/><rect class="cls-4" x="7.43" y="102.67" width="6.37" height="1.06"/><rect class="cls-4" x="20.16" y="93.12" width="2.12" height="1.06"/><rect class="cls-4" x="26.53" y="91" width="2.12" height="1.06"/><path class="cls-4" d="M11.67,100.55a2.13,2.13,0,1,1,2.12-2.13A2.13,2.13,0,0,1,11.67,100.55Zm0-3.19a1.06,1.06,0,1,0,0,2.12,1.06,1.06,0,0,0,0-2.12Z"/><rect class="cls-4" x="129.35" y="112.45" width="10.78" height="1.14"/><rect class="cls-4" x="128.22" y="110.18" width="13.04" height="1.13"/><path class="cls-4" d="M122.54,113.58a5.67,5.67,0,0,1,0-11.34h24.39a.56.56,0,0,1,.57.57,2.84,2.84,0,0,1-2.84,2.83H122.54a2.27,2.27,0,1,0,0,4.54h1.14v1.14h-1.14a3.41,3.41,0,0,1,0-6.81h22.12a1.72,1.72,0,0,0,1.61-1.14H122.54a4.54,4.54,0,0,0,0,9.08Z"/><path class="cls-4" d="M143.53,117a4,4,0,1,1,4-4A4,4,0,0,1,143.53,117Zm0-6.81a2.84,2.84,0,1,0,2.84,2.84A2.84,2.84,0,0,0,143.53,110.18Z"/><path class="cls-4" d="M126,117a4,4,0,1,1,4-4A4,4,0,0,1,126,117Zm0-6.81a2.84,2.84,0,1,0,2.83,2.84A2.84,2.84,0,0,0,126,110.18Z"/><path class="cls-4" d="M146.93,103.37H122.54a.56.56,0,0,1-.56-.56V90.33h1.13v11.91h23.43l4.12-11.34H124.24V89.76h27.23a.55.55,0,0,1,.46.24.54.54,0,0,1,.07.52L147.47,103A.59.59,0,0,1,146.93,103.37Z"/><path class="cls-4" d="M120.84,103.37h-1.13V85.22a1.14,1.14,0,0,0-1.14-1.13V83a2.27,2.27,0,0,1,2.27,2.27Z"/><path class="cls-4" d="M123.11,90.33H122V85.22a1.14,1.14,0,0,0-1.14-1.13V83a2.27,2.27,0,0,1,2.27,2.27Z"/><rect class="cls-4" x="115.74" y="82.95" width="5.1" height="1.13"/><path class="cls-4" d="M145.23,95.43a2,2,0,0,1-1.55-.74c-.24-.26-.36-.39-.72-.39s-.48.13-.72.39a2,2,0,0,1-1.55.74,1.93,1.93,0,0,1-1.54-.74c-.25-.26-.37-.39-.73-.39s-.47.13-.72.39a1.93,1.93,0,0,1-1.54.74,2,2,0,0,1-1.55-.74c-.25-.26-.37-.39-.72-.39s-.48.13-.73.39a1.93,1.93,0,0,1-1.54.74,2,2,0,0,1-1.55-.74c-.24-.26-.36-.39-.72-.39s-.48.13-.72.39a2,2,0,0,1-3.1,0c-.24-.26-.37-.39-.72-.39V93.16a1.93,1.93,0,0,1,1.55.75c.24.26.37.39.72.39s.48-.13.72-.39a2,2,0,0,1,3.1,0c.24.26.36.39.72.39s.47-.13.72-.39a1.93,1.93,0,0,1,1.55-.75,1.91,1.91,0,0,1,1.54.75c.25.26.37.39.73.39s.47-.13.72-.39a2,2,0,0,1,3.09,0c.25.26.37.39.72.39s.48-.13.73-.39a1.91,1.91,0,0,1,1.54-.75,1.93,1.93,0,0,1,1.55.75c.24.26.37.39.72.39s.48-.13.72-.39a2,2,0,0,1,1.55-.75V94.3c-.35,0-.48.13-.72.39A2,2,0,0,1,145.23,95.43Z"/><path class="cls-4" d="M145.23,100a2,2,0,0,1-1.55-.74c-.24-.26-.36-.39-.72-.39s-.48.13-.72.39a2,2,0,0,1-1.55.74,1.93,1.93,0,0,1-1.54-.74c-.25-.26-.37-.39-.73-.39s-.47.13-.72.39a1.93,1.93,0,0,1-1.54.74,2,2,0,0,1-1.55-.74c-.25-.26-.37-.39-.72-.39s-.48.13-.73.39a1.93,1.93,0,0,1-1.54.74,2,2,0,0,1-1.55-.74c-.24-.26-.36-.39-.72-.39s-.48.13-.72.39a2,2,0,0,1-3.1,0c-.24-.26-.37-.39-.72-.39V97.7a1.93,1.93,0,0,1,1.55.75c.24.26.37.39.72.39s.48-.13.72-.39a2,2,0,0,1,3.1,0c.24.26.36.39.72.39s.47-.13.72-.39a1.93,1.93,0,0,1,1.55-.75,1.91,1.91,0,0,1,1.54.75c.25.26.37.39.73.39s.47-.13.72-.39a2,2,0,0,1,3.09,0c.25.26.37.39.72.39s.48-.13.73-.39A1.91,1.91,0,0,1,143,97.7a1.93,1.93,0,0,1,1.55.75c.24.26.37.39.72.39Z"/><path class="cls-4" d="M126,114.15a1.14,1.14,0,1,1,1.13-1.13A1.14,1.14,0,0,1,126,114.15Z"/><path class="cls-4" d="M143.53,114.15a1.14,1.14,0,1,1,1.13-1.13A1.14,1.14,0,0,1,143.53,114.15Z"/><path class="cls-4" d="M142.4,88.63h-1.14V86.36H127.65v2.27h-1.14V85.79a.58.58,0,0,1,.57-.57h14.75a.58.58,0,0,1,.57.57Z"/><path class="cls-4" d="M146.37,88.63h-1.14V81.82h-9.07v2.27H135V81.25a.57.57,0,0,1,.57-.56H145.8a.57.57,0,0,1,.57.56Z"/><path class="cls-4" d="M141.83,84.09h-2.27a.58.58,0,0,1-.57-.57V81.25a.57.57,0,0,1,.57-.56h2.27a.57.57,0,0,1,.57.56v2.27A.58.58,0,0,1,141.83,84.09ZM140.13,83h1.13V81.82h-1.13Z"/></g></g></svg>