<svg xmlns="http://www.w3.org/2000/svg" viewBox="0 0 150 119.91"><defs><style>.cls-1,.cls-2{fill:none;stroke:#fff;stroke-width:2px;}.cls-2{stroke-miterlimit:8;}</style></defs><title>hoverBox-icon1</title><g id="圖層_2" data-name="圖層 2"><g id="圖層_1-2" data-name="圖層 1"><path class="cls-1" d="M96.13,37.64C95.32,49.58,86.17,59,75,59h0c-10.46,0-19.15-8.25-20.88-19.11"/><path class="cls-1" d="M82.69,57.31l.29,5a74.56,74.56,0,0,1,10.25,1.43c9.17,1.78,13.27,4.59,14.65,15.11,1.31,10,4,30,4.61,40H150"/><path class="cls-1" d="M0,118.91H37.5c.58-10.07,3.24-30.06,4.63-40,1.34-9.7,5.34-13.53,14.63-15.11A97.31,97.31,0,0,1,67,62.37l.31-5"/><line class="cls-1" x1="33.3" y1="67.23" x2="34.88" y2="67.23"/><line class="cls-1" x1="36.46" y1="67.23" x2="46.92" y2="67.23"/><line class="cls-1" x1="25.91" y1="72.42" x2="27.49" y2="72.42"/><line class="cls-1" x1="29.07" y1="72.42" x2="39.53" y2="72.42"/><path class="cls-2" d="M52.9,26.74c-1,12.11,5.58,18.9,5.58,18.9s.23-9.93,10.92-21.29C66,30.64,66,31.19,64.11,34.61c4.31-.51,8.17-5.34,9.61-6.08a23.34,23.34,0,0,0-.89,5c2.66-1,8.58-8.65,8.58-8.65-.66,2.27-3.26,8.27-3.26,8.27a11.4,11.4,0,0,0,6.94-8.05c2.38,7.26,9.13,11.77,8.2,17.81,0,0,4.79-3.92,3.39-16.73"/><path class="cls-2" d="M50.48,38.19c.56,11.21.35,26.72-3.81,29.65"/><path class="cls-2" d="M99.81,32.76c.07-3.64.25-4.74.25-6.75,0-16.35-11.32-25-25.29-25s-25.14,9-25.3,25c0,2.1.16,3.58.36,6.67"/><path class="cls-2" d="M103.06,67.84c-2.83-5.75-3.21-21.38-3.16-31.78"/><line class="cls-1" x1="109.66" y1="72.33" x2="111.24" y2="72.33"/><line class="cls-1" x1="112.82" y1="72.33" x2="123.28" y2="72.33"/><line class="cls-1" x1="117.11" y1="77.53" x2="118.68" y2="77.53"/><line class="cls-1" x1="120.26" y1="77.53" x2="130.73" y2="77.53"/><path class="cls-1" d="M54.12,41a5.68,5.68,0,0,1-3.74-3.06c-1.42-2.59-1.19-5.58.52-6.69a2.51,2.51,0,0,1,1.43-.41"/><path class="cls-1" d="M95.61,41c1.36-.23,2.58-1.34,3.52-3.07,1.41-2.59,1.18-5.58-.52-6.69a2.58,2.58,0,0,0-1.25-.41"/><path class="cls-1" d="M84.8,71.37a11.34,11.34,0,0,1-9.92,5.35,11.21,11.21,0,0,1-9.95-5.32"/><path class="cls-1" d="M84.38,62.8s3,28.43-9.77,38.57c-13.35-11.18-8.83-39.09-8.83-39.09"/><path class="cls-1" d="M60.22,62.94c-1.06,1.71-3.49,11-2.83,16L62.21,80l-4.34,2.55s3.82,16,16.74,18.8"/><path class="cls-1" d="M89.17,62.94c1.07,1.71,3.49,11,2.83,16L87.19,80l4.34,2.55s-3.82,16-16.75,18.8"/><path class="cls-1" d="M38.28,111.68,22.6,116.57a.39.39,0,0,1-.5-.26L12.2,84.62a.4.4,0,0,1,.26-.5l23.35-7.29a.41.41,0,0,1,.51.26l4.17,13.36"/><polyline class="cls-1" points="24.44 112.13 18.98 94.67 36.45 89.21"/><rect class="cls-1" x="16.84" y="83.92" width="18.34" height="5.09" transform="translate(-24.59 11.68) rotate(-17.34)"/><polyline class="cls-1" points="38.37 107.78 24.44 112.13 18.98 94.67 36.45 89.21 39.5 98.99"/><line class="cls-1" x1="27.76" y1="91.93" x2="33.18" y2="109.3"/><line class="cls-1" x1="39.16" y1="97.9" x2="21.78" y2="103.33"/><line class="cls-1" x1="26.88" y1="97.03" x2="22.36" y2="98.44"/><line class="cls-1" x1="25.32" y1="99.99" x2="23.91" y2="95.48"/><line class="cls-1" x1="35.79" y1="94.25" x2="31.28" y2="95.66"/><line class="cls-1" x1="29.46" y1="107.64" x2="25.27" y2="105.44"/><line class="cls-1" x1="26.27" y1="108.63" x2="28.46" y2="104.44"/><line class="cls-1" x1="38.86" y1="104.06" x2="34.34" y2="105.47"/><line class="cls-1" x1="38.22" y1="102.03" x2="33.71" y2="103.44"/><rect class="cls-1" x="112.84" y="99.38" width="14.21" height="3.22" transform="translate(-9.38 189.66) rotate(-74.53)"/><rect class="cls-1" x="117.76" y="99.07" width="18.61" height="3.22" transform="matrix(0.27, -0.96, 0.96, 0.27, -3.86, 196.28)"/><rect class="cls-1" x="127.71" y="105.38" width="9.25" height="3.22" transform="translate(-6.06 206.02) rotate(-74.54)"/><rect class="cls-1" x="133.03" y="105.59" width="12.56" height="3.22" transform="translate(-1.17 212.87) rotate(-74.53)"/><polyline class="cls-1" points="119.25 80.49 112.14 106.2 142.47 114.59"/><path class="cls-1" d="M123.71,90a.68.68,0,1,1-.48-.84A.68.68,0,0,1,123.71,90Z"/><path class="cls-1" d="M131.94,85.6a.68.68,0,1,1-.47-.84A.68.68,0,0,1,131.94,85.6Z"/><path class="cls-1" d="M135.6,97.21a.68.68,0,0,1-.84.48.69.69,0,1,1,.84-.48Z"/><path class="cls-1" d="M143.7,94.18a.68.68,0,1,1-.47-.84A.68.68,0,0,1,143.7,94.18Z"/><polyline class="cls-1" points="123.05 89.78 131.6 85.51 134.94 97.03 143.04 94"/></g></g></svg>