<svg id="b74e9bc3-c4aa-4c3c-a240-c0d38bdec155" data-name="圖層 2"
	xmlns="http://www.w3.org/2000/svg" xmlns:xlink="http://www.w3.org/1999/xlink" viewBox="0 0 768 1000">
	<text transform="translate(335.56 456.59)" style="font-size:36.2377815246582px;fill:#a51313;font-family:DFNMing-W9-WIN-BF, DFNMingXBold-B5;letter-spacing:-0.011989144714969393em">線
		<tspan x="35.8" y="0" style="letter-spacing:-0.000013486102041585369em">下</tspan>
	</text>
	<text transform="translate(335.56 503.35)" style="font-size:36.2377815246582px;font-family:DFNMing-W9-WIN-BF, DFNMingXBold-B5;letter-spacing:-0.011989144714969393em">帶
		<tspan x="35.8" y="0" style="letter-spacing:-0.000013486102041585369em">動</tspan>
	</text>
	<text transform="translate(335.56 548.77)" style="font-size:36.2377815246582px;fill:#cc561b;font-family:DFNMing-W9-WIN-BF, DFNMingXBold-B5;letter-spacing:-0.011989144714969393em">線
		<tspan x="35.8" y="0" style="letter-spacing:-0.000013486102041585369em">上</tspan>
	</text>
    <a xlink:href="#section7" class="js-nav">
        <g id="ae9f30e7-b177-46a3-9d89-1b1cedd604d1" data-name="g3">
            <path d="M249.88,355.45a106.48,106.48,0,0,0-69.09,25c-2.43-2.38-4.85-2.38-7.28-2.38a10.76,10.76,0,0,0-10.91,10.69c0,2.38,1.22,4.76,2.43,7.13a102.42,102.42,0,0,0-23,65.35,1.18,1.18,0,0,0,1.21,1.19c1.21,0,2.42,0,2.42-1.19,0-23.76,7.28-46.34,21.82-63,1.21,1.19,3.64,1.19,6.06,1.19,6.06,0,12.13-4.76,12.13-10.7a9,9,0,0,0-2.43-5.94c18.18-15.44,41.22-24.95,66.67-24.95,1.21,0,1.21,0,1.21-1.19s0-1.19-1.21-1.19ZM173.51,397a8.32,8.32,0,1,1,8.49-8.32,8.2,8.2,0,0,1-8.49,8.32" transform="translate(-44.69 124.17)" style="fill:#f49d03;fill-rule:evenodd"/>
            <path d="M168.92,388.44c-.33-2.4,1.84-4.54,4.53-4.54a4.77,4.77,0,1,1,0,9.54,4.42,4.42,0,0,1-4.53-5" transform="translate(-44.69 124.17)" style="fill:#f5c201;fill-rule:evenodd"/>
            <path d="M531,474.13H346.82c-3.63,0-7.27,0-10.9,2.37-3.64,1.19-4.85,3.57-7.27,7.13a78.84,78.84,0,0,0-3.64,9.5c-14.54,30.89-49.68,52.27-84.82,48.7-3.64-1.19-7.27-1.19-12.12-2.37-29.08-8.32-53.31-32.07-60.58-61.77-6.06-30.88,8.48-65.33,33.93-83.15,23-16.63,54.52-19,81.18-8.31-3.64,7.12-8.48,14.25-12.12,21.38,8.48,3.56,15.76,8.31,21.81,15.44,4.85-7.13,8.49-14.25,13.33-21.38,9.7,8.31,17,20.19,21.81,32.07,1.22,4.75,2.43,10.69,7.27,13.07,2.43,1.18,4.85,1.18,8.49,1.18H531a94.57,94.57,0,0,0,0,26.14" transform="translate(-44.69 124.17)" style="fill:#f48603;fill-rule:evenodd"/>
            <path d="M304.42,443.31l-99.35,57,23,39.19c4.85,1.18,8.48,1.18,12.12,2.37h7.27c32.71,0,64.21-20.19,77.54-48.69a81.26,81.26,0,0,1,3.64-9.5l-24.24-40.38" transform="translate(-44.69 124.17)" style="fill:#d6681e;fill-rule:evenodd"/>
            <path d="M308,462.31c0,32.05-26.67,57-59.41,57s-59.41-24.93-59.41-57,26.68-58.16,59.41-58.16a57.77,57.77,0,0,1,20.61,3.56c9.7,3.56,17,8.31,23,15.43C302,433.83,308,446.88,308,462.31" transform="translate(-44.69 124.17)" style="fill:#fff;fill-rule:evenodd"/>
            <path d="M267.43,480.1c4.21,0,7.56,3,7.56,4.88l-.05,3a2,2,0,0,1-2,1.91H262a2,2,0,0,1-2-1.94V485c0-1.83,3.19-4.88,7.38-4.88Zm-19.93,0c4.2,0,7.56,3,7.56,4.88l-.05,3a2,2,0,0,1-2,1.91h-11a2,2,0,0,1-2-1.94V485c0-1.83,3.19-4.88,7.4-4.88Zm-19.94,0c4.2,0,7.56,3,7.56,4.88l-.06,3a2,2,0,0,1-2,1.91h-11a2,2,0,0,1-2-1.94V485c0-1.83,3.2-4.88,7.4-4.88Zm40-12.22a4.89,4.89,0,1,1-5,4.89,4.94,4.94,0,0,1,5-4.89Zm-19.94,0a4.89,4.89,0,1,1-5,4.89,4.94,4.94,0,0,1,5-4.89Zm-19.93,0a4.89,4.89,0,1,1-5,4.89,4.94,4.94,0,0,1,5-4.89ZM255,439h.63a1.13,1.13,0,0,1,.52.09.84.84,0,0,1,.3.25.88.88,0,0,1,.15.31,1.81,1.81,0,0,1,0,.29,1.58,1.58,0,0,1-.08.52.78.78,0,0,1-.21.33,1.11,1.11,0,0,1-.27.17,1.06,1.06,0,0,1-.31,0H255v-2Zm-6.48-.45v.57h1.54v4.51h.85v-4.51h1.56v-.57Zm-5.33,0v.57h1.54v4.51h.85v-4.51h1.55v-.57Zm-5,0v5.08h.86v-2.29h2.24v2.29h.84v-5.08h-.84v2.22h-2.24v-2.22Zm15.93-.18v5.07H255v-1.83h.62a2.51,2.51,0,0,0,.75-.11,1.69,1.69,0,0,0,.57-.34,1.59,1.59,0,0,0,.37-.52,1.64,1.64,0,0,0,.13-.71,1.41,1.41,0,0,0-.15-.65,1.44,1.44,0,0,0-.42-.5,1.62,1.62,0,0,0-.58-.31,2,2,0,0,0-.65-.1Zm-16.55-7.15h19.94a9.78,9.78,0,1,1,0,19.55h-7.48v2.44h17.45a2.47,2.47,0,0,1,2.5,2.44v4.89a2.5,2.5,0,0,1-5,0v-2.44h-15v2.44a2.49,2.49,0,0,1-5,0v-2.44H230.22v2.44a2.5,2.5,0,0,1-5,0v-4.89a2.46,2.46,0,0,1,2.5-2.44h17.36v-2.44h-7.48a9.78,9.78,0,1,1,0-19.55" transform="translate(-44.69 124.17)" style="fill:#f48c03;fill-rule:evenodd"/>
            <text transform="translate(0 744.27)" style="font-size:36.26948928833008px;fill:#ed7d31;font-family:MicrosoftJhengHeiBold, Microsoft JhengHei">3.</text>
            <text transform="translate(30.8 744.27)" style="font-size:36.26948928833008px;fill:#ed7d31;font-family:MicrosoftJhengHeiBold, Microsoft JhengHei">統一全通路接單模式</text>
            <text transform="translate(32.33 785.32)" style="font-size:27.17833709716797px;font-family:MicrosoftJhengHeiRegular, Microsoft JhengHei;letter-spacing:0.049998891171733915em">因應前端經營模式改變，
                <tspan x="0" y="31.71">以全通路模式規劃統一訂</tspan>
                <tspan x="0" y="63.42">單中心，同步網路與門店</tspan>
                <tspan x="0" y="95.12">商品資訊，解決庫存落</tspan>
                <tspan x="0" y="126.83">差，提升接單效率</tspan>
            </text>
        </g>
    </a>
    <a xlink:href="#section5" class="js-nav">
        <g id="bd4240c8-728c-482b-b536-5fecc61a6e4c" data-name="g1">
            <path d="M292.2,423.06c-6.06-7.12-13.34-11.87-23-15.44L355.25,266.3c3.63-5.94-1.22-10.69-1.22-10.69L348,248.48c-23-26.13-25.46-66.5-4.85-97.38,25.46-36.82,77.6-47.51,115.18-21.38,25.46,15.44,37.59,42.75,37.59,70.07,0,4.75-1.22,10.69-2.43,16.63-2.42,8.31-6.06,17.81-12.12,26.12a87,87,0,0,1-66.69,36.82,73.35,73.35,0,0,1-17-2.37L388,275.8c-6.06,0-8.49,2.37-9.7,5.94L292.2,423.06" transform="translate(-44.69 124.17)" style="fill:#bf1b1b;fill-rule:evenodd"/>
            <path d="M494.64,128.54a9,9,0,0,0,2.42-5.94c0-5.94-4.85-11.88-10.91-11.88-2.42,0-6.06,1.19-7.27,3.57C460.69,100,437.66,91.71,412.2,91.71c-1.21,0-1.21,0-1.21,1.19s0,1.19,1.21,1.19c24.25,0,46.07,8.31,64.25,22.57A9,9,0,0,0,474,122.6c0,5.94,6.06,10.7,12.12,10.7,2.42,0,4.85,0,6.06-2.38,15.76,17.82,24.24,41.59,24.24,66.54a4.29,4.29,0,0,0,2.43,1.19l1.21-1.19c0-26.14-9.7-49.91-25.45-68.92Zm-8.49,2.38a8.32,8.32,0,1,1,0-16.63c3.64,0,7.27,3.56,7.27,8.31,0,3.57-3.63,8.32-7.27,8.32" transform="translate(-44.69 124.17)" style="fill:#bf1b1b;fill-rule:evenodd"/>
            <path d="M481.47,122.09c-.07-2.14,2.06-4.27,4.7-4.27a4.77,4.77,0,0,1,0,9.54c-2.64,0-4.77-2.14-4.7-5.27" transform="translate(-44.69 124.17)" style="fill:#bf1b1b;fill-rule:evenodd"/>
            <path d="M460.76,166.52,365,228.26l32.74,48.67c4.85,1.19,9.7,2.38,14.55,2.38h2.42c9.7-1.19,19.4-2.38,27.89-5.94L428,250.81l24.25-13.06,14.55,21.38a207.66,207.66,0,0,0,14.55-16.63c6.07-8.31,9.7-17.81,12.13-26.12l-32.74-49.86" transform="translate(-44.69 124.17)" style="fill:#a50c0c;fill-rule:evenodd"/>
            <path d="M452.27,237.87C445,243.8,437.73,248.55,428,250.93c-1.21,1.19-3.63,1.19-4.85,1.19-31.5,5.94-61.79-14.25-67.85-44-6.06-30.88,14.54-60.57,46-66.51s61.8,14.25,67.86,45.13c3.63,19-3.64,38-17,51.08" transform="translate(-44.69 124.17)" style="fill:#fff;fill-rule:evenodd"/>
            <path d="M434.44,210a5.26,5.26,0,1,1-5.36,5.25,5.31,5.31,0,0,1,5.36-5.25Z" transform="translate(-44.69 124.17)" style="fill:#bf1b1b;fill-rule:evenodd"/>
            <path d="M434,191.63a5.26,5.26,0,1,1-5.36,5.26,5.31,5.31,0,0,1,5.36-5.26Z" transform="translate(-44.69 124.17)" style="fill:#bf1b1b;fill-rule:evenodd"/>
            <path d="M411.17,176.55H421.5a1.69,1.69,0,1,1,0,3.38h-8.61V195.2h8.61a1.69,1.69,0,1,1,0,3.37h-8.61v18.11h8.61a1.69,1.69,0,1,1,0,3.37H411.17a1.7,1.7,0,0,1-1.72-1.68V178.24a1.71,1.71,0,0,1,1.72-1.69Z" transform="translate(-44.69 124.17)" style="fill:#bf1b1b;fill-rule:evenodd"/>
            <path d="M433.53,173.26a5.26,5.26,0,1,1-5.35,5.26,5.31,5.31,0,0,1,5.35-5.26" transform="translate(-44.69 124.17)" style="fill:#bf1b1b;fill-rule:evenodd"/>
            <text transform="translate(182.93 32.28)" style="font-size:36.26948928833008px;fill:#bf1b1b;font-family:MicrosoftJhengHeiBold, Microsoft JhengHei">1.</text>
            <text transform="translate(213.73 32.28)" style="font-size:36.26948928833008px;fill:#bf1b1b;font-family:MicrosoftJhengHeiBold, Microsoft JhengHei">建立全通路會員管道</text>
            <text x="-44.69" y="124.17"/>
            <path d="M401.19,203.51a34.44,34.44,0,0,0-10.7-3.07c.12-.87.25-1.75.37-2.63a3,3,0,0,0,1.46-1.94c.1-.81.19-1.63.29-2.44a.69.69,0,0,0,.44.22.71.71,0,0,0,.78-.63l.38-3.76a.69.69,0,0,0-.63-.77.65.65,0,0,0-.41.08c.09-.71.17-1.43.25-2.14.07-1,.55-3.59-1.34-5.28-2.72-2.67-8.73-2.67-11.45,0-1.89,1.69-1.41,4.3-1.34,5.28.08.71.17,1.43.25,2.14a.65.65,0,0,0-.41-.08.7.7,0,0,0-.63.77l.39,3.76a.7.7,0,0,0,1.21.41c.1.81.19,1.63.29,2.44a3,3,0,0,0,1.46,1.94c.13.88.25,1.75.37,2.63a34.44,34.44,0,0,0-10.7,3.07,3.58,3.58,0,0,0-1.74,3.21l.39,4a3,3,0,0,0,2.2,2.5,88.07,88.07,0,0,0,28,0,3,3,0,0,0,2.2-2.5l.39-4A3.59,3.59,0,0,0,401.19,203.51Z" transform="translate(-44.69 124.17)" style="fill:#bf1b1b"/>
            <text transform="translate(214.21 77.92)" style="font-size:27.17833709716797px;font-family:MicrosoftJhengHeiRegular, Microsoft JhengHei;letter-spacing:0.049998891171733915em">引流潛在的年輕客群，有效
                <tspan x="0" y="31.71">運用會員資料蒐集與消費紀</tspan>
                <tspan x="0" y="63.42">錄分析，提供更適合會員與</tspan>
                <tspan x="0" y="95.12">專業貼心的服務</tspan>
            </text>
        </g>
    </a>
    <a xlink:href="#section6" class="js-nav">
        <g id="b7032356-caa0-4eb3-a744-69f25fa8b354" data-name="g2">
            <path d="M452.27,237.81c31.51,46.33,63,91.47,93.31,136.62,2.42,2.37,3.63,5.94,6.06,7.12,6.06,3.57,12.11,1.19,18.17,0,30.3-5.94,64.23,5.94,83.61,29.7,15.76,20.2,20.6,47.52,14.54,72.47-12.11,40.39-57,66.53-99.36,57-24.23-5.94-46-22.58-57-45.15-12.12-27.32-8.48-63,12.12-85.53,1.21-3.57,3.63-5.94,4.84-9.51,0-3.56-2.42-5.94-4.84-9.5L428,250.87l24.23-13.06" transform="translate(-44.69 124.17)" style="fill:#526db0;fill-rule:evenodd"/>
            <path d="M697,459.9l-1.22-1.19a4.25,4.25,0,0,0-2.42,1.19c0,23.76-7.27,46.34-21.82,63-1.21-1.19-3.64-1.19-6.06-1.19a10.77,10.77,0,0,0-10.91,10.7c0,2.37,0,4.75,1.21,7.13-18.18,14.25-41.21,23.76-66.67,23.76-1.21,0-1.21,0-1.21,1.19s0,1.19,1.21,1.19c26.67,0,50.91-8.32,69.1-25,2.42,2.38,4.84,2.38,7.27,2.38a10.76,10.76,0,0,0,10.91-10.69c0-2.38-1.21-4.76-2.43-7.13a102.45,102.45,0,0,0,23-65.35Zm-31.52,80.79a8.32,8.32,0,1,1,8.48-8.31,8.2,8.2,0,0,1-8.48,8.31" transform="translate(-44.69 124.17)" style="fill:#526db0;fill-rule:evenodd"/>
            <path d="M660.4,532.39a5.34,5.34,0,0,1,5.19-4.73,4.77,4.77,0,1,1,0,9.54,5.35,5.35,0,0,1-5.19-4.81" transform="translate(-44.69 124.17)" style="fill:#526db0;fill-rule:evenodd"/>
            <path d="M635.2,430.31c-41.15,23.73-93.2,54.59-98,57,2.42,4.75-1.21-1.18,31.47,53.41,6,1.19,12.1,2.37,18.15,2.37a87,87,0,0,0,60.53-24.92c6.05-7.12,12.1-14.24,15.73-23.74a41.45,41.45,0,0,0,4.85-10.68v-1.18c-35.11-55.78-29-47.48-32.69-52.22" transform="translate(-44.69 124.17)" style="fill:#3d5185;fill-rule:evenodd"/>
            <path d="M644.87,461.14C644.87,492,619.44,517,588,517c-27.86,0-49.66-17.82-55.72-42.75a36.48,36.48,0,0,1,0-26.13c6.06-24.93,27.86-42.75,55.72-42.75,31.49,0,56.92,24.94,56.92,55.82" transform="translate(-44.69 124.17)" style="fill:#fff;fill-rule:evenodd"/>
            <path d="M586.36,466.14h3.37v4.57h17.16a2.94,2.94,0,0,1,3,2.91V478a5.89,5.89,0,1,1-3.37.06V474H589.72v4a5.88,5.88,0,1,1-3.36,0v-4H569.69v4a5.89,5.89,0,1,1-3.38,0v-4.41a2.9,2.9,0,0,1,3-2.88h17.07v-4.57Zm1.2-40.79a7.2,7.2,0,0,1,4.31.89,5.24,5.24,0,0,1,2.08,1.91s3.48.24,2.31,7.16c0,.21-.1.43-.16.64.66,0,1.33.51.61,3-.57,2-1.09,2.51-1.49,2.54a8.32,8.32,0,0,1-1,2.79v3.48a.31.31,0,0,0,.18.3,58.83,58.83,0,0,1,10.74,6.75,3.54,3.54,0,0,1,1.31,2.75v3.24a1.83,1.83,0,0,1-1.86,1.81H590.2l-1.28-5.73c3.09-4.22-.24-4.43-.81-4.43s-3.9.21-.82,4.43L586,462.62H571.66a1.82,1.82,0,0,1-1.85-1.81v-3.24a3.56,3.56,0,0,1,1.34-2.78,59.43,59.43,0,0,1,10.7-6.72.29.29,0,0,0,.17-.29V444.3a8.38,8.38,0,0,1-1-2.79c-.4,0-.93-.58-1.49-2.54-.71-2.47-.07-3,.59-3a5,5,0,0,1-.16-.64,7.9,7.9,0,0,1,0-3.52,7.66,7.66,0,0,1,2.11-3.6,10.41,10.41,0,0,1,2-1.57,7.07,7.07,0,0,1,1.88-.95,6.17,6.17,0,0,1,1.72-.33" transform="translate(-44.69 124.17)" style="fill:#526db0;fill-rule:evenodd"/>
            <text transform="translate(409.95 741.5)" style="font-size:36.26948928833008px;fill:#526db0;font-family:MicrosoftJhengHeiBold, Microsoft JhengHei">2.</text>
            <text transform="translate(440.75 741.5)" style="font-size:36.26948928833008px;fill:#526db0;font-family:MicrosoftJhengHeiBold, Microsoft JhengHei">擴大全</text>
            <text transform="translate(549.46 741.5)" style="font-size:36.26948928833008px;fill:#526db0;font-family:MicrosoftJhengHeiBold, Microsoft JhengHei">通路行銷效果</text>
            <text transform="translate(443 780.25)" style="font-size:27.17833709716797px;font-family:MicrosoftJhengHeiRegular, Microsoft JhengHei;letter-spacing:0.05001685699680461em">整合線上線下消費數據，
                <tspan x="0" y="31.71">擴大行銷效果並精確分析</tspan>
                <tspan x="0" y="63.42">成效</tspan>
            </text>
        </g>
    </a>
</svg>