<svg id="bbd15823-2914-4400-9b0b-ea5cb93ae543" data-name="圖層 2"
	xmlns="http://www.w3.org/2000/svg" xmlns:xlink="http://www.w3.org/1999/xlink" viewBox="0 0 1180 620">
	<path d="M382.73,285.7l3.23,1.16c1,.38,1.54.8,1.54,1.27q0,.31-.81.42a1.84,1.84,0,0,0-.88.24,42.39,42.39,0,0,1-5.85,6.78c1.52-.07,3-.18,4.35-.32a15.13,15.13,0,0,0-1-2.63l.24-.28a12.55,12.55,0,0,1,3.23,2.25,4,4,0,0,1,1.12,2.38,2.72,2.72,0,0,1-.45,1.62,1.93,1.93,0,0,1-1.33.6,1.28,1.28,0,0,1-1-.32c-.19-.14-.36-.78-.53-1.93,0-.21-.06-.43-.1-.67-.52.33-1,.62-1.51.88v9.94c0,2.22,0,4,.14,5.3,0,.42-.6.72-1.79.91a10.53,10.53,0,0,1-1.16.11c-.58,0-.88-.34-.88-1,.1-1.22.14-3,.14-5.3v-3.23l-.35.07c-.51.09-.8.21-.87.35a27,27,0,0,1-1.51,4.25,23.12,23.12,0,0,1-2.18,3.47l-.38-.42c.32-1.66.58-3.21.77-4.63s.35-3.28.49-5.34c1.05.28,2.07.56,3.05.84a6.16,6.16,0,0,1,1,.42v-4.18a15.51,15.51,0,0,1-1.5.5c-.31,0-.46.11-.46.28a2.18,2.18,0,0,0-.1.52c-.1.31-.24.46-.43.46-.46,0-1-.81-1.64-2.42-.19-.45-.5-1.18-.92-2.22l3.62-.14A41.53,41.53,0,0,0,382.73,285.7Zm-3.93-4.63,3.23,1.16q1.5.56,1.5,1.26c0,.21-.25.35-.77.42s-.83.15-.87.25a25.07,25.07,0,0,1-3.69,4.14,7.21,7.21,0,0,1,.77.53,2.87,2.87,0,0,1,1.09,2.24,2.15,2.15,0,0,1-.7,1.48,1.48,1.48,0,0,1-1.12.46c-.52,0-.95-.5-1.3-1.48a12,12,0,0,0-2.53-4.14l.28-.42a19.63,19.63,0,0,1,2.32.77A38.78,38.78,0,0,0,378.8,281.07Zm4.73,20.4a12.16,12.16,0,0,1,3.23,2.21,3.76,3.76,0,0,1,1.12,2.28,2.71,2.71,0,0,1-.49,1.72,2,2,0,0,1-1.43.63A1.28,1.28,0,0,1,385,308c-.19-.14-.36-.77-.53-1.9a11.92,11.92,0,0,0-1.33-4.25Zm10.39-20.54c1.42.23,2.58.45,3.47.66,1.26.26,1.9.55,1.9.88s-.32.41-1,.6-.82.23-.91.42a12.18,12.18,0,0,1-3.09,2.07h4.81c.51-.56,1-1.06,1.5-1.51a1.59,1.59,0,0,1,1-.56,6.62,6.62,0,0,1,2.07,1q1.89,1.3,1.89,1.83c0,.3-.26.62-.77.95a1.34,1.34,0,0,0-.49,1v4.07c0,1.1,0,2.6.1,4.49,0,.45-.58.78-1.75,1a10.11,10.11,0,0,1-1.19.1c-.66,0-1-.36-1-1.09v-.14h-2a22.66,22.66,0,0,0,1.86,5.23,1.61,1.61,0,0,0,.24.36,5.45,5.45,0,0,0,.32-.57,16.9,16.9,0,0,0,1.4-3l3.2,2c.95.68,1.43,1.17,1.43,1.48a.52.52,0,0,1-.59.59l-2-.31a19,19,0,0,1-2.91,1.26,11.63,11.63,0,0,0,1.72,1.93,18.21,18.21,0,0,0,4.28,2.7l-.14.6a3.78,3.78,0,0,0-2.1,2.07c-.45.85-.77,1.27-1,1.27s-.76-.45-1.51-1.34a17.88,17.88,0,0,1-2.35-3.61A36.46,36.46,0,0,1,399,303c-.26-1-.48-2.12-.67-3.34v10.22c0,1.76-.56,2.9-1.68,3.44a5.88,5.88,0,0,1-2.42.77c-.26,0-.48-.37-.67-1.12q-.45-1.57-3.37-2.63l.15-.6c1.35.09,2.52.14,3.5.14.45,0,.67-.32.67-.95v-5.69a2.28,2.28,0,0,0-.81.46,25,25,0,0,1-4,5.2,22.26,22.26,0,0,1-4.63,3.51l-.25-.25a27.08,27.08,0,0,0,3.19-4.67,38.11,38.11,0,0,0,2.43-5.48,31.84,31.84,0,0,0-4.07.15l-.57-1.41a6.6,6.6,0,0,0,2.14.32h2.21c.36-.42.61-.72.78-.88.51-.56.91-.84,1.19-.84s1.1.44,2.1,1.33l.25.18v-4.15H392v.56c0,.45-.57.78-1.72,1a7.55,7.55,0,0,1-1.09.14c-.77,0-1.16-.34-1.16-1a14.67,14.67,0,0,0,.15-2.21v-8a18.46,18.46,0,0,0-.29-2.95,31.7,31.7,0,0,1,4.11,1.4h1.26A17.07,17.07,0,0,0,393.92,280.93ZM392,290.79h8.52v-4.21H392Zm0,4.92h8.52v-4H392Z" transform="translate(145.81 -69.24)" style="fill:#a51313"/>
	<path d="M410.05,283.63a37.52,37.52,0,0,0,4.91.25h20.91a12.58,12.58,0,0,0,1.22-1.51c.89-1.13,1.42-1.69,1.58-1.69.5,0,1.25.54,2.28,1.62s1.55,1.76,1.55,2c0,.4-.25.6-.74.6H427v7.37a37.65,37.65,0,0,1,7.68,2.6q4.56,2.13,4.56,4.46a2.43,2.43,0,0,1-.63,1.79A2.3,2.3,0,0,1,437,302a3,3,0,0,1-2.21-1.47,34.86,34.86,0,0,0-4-4.35,31.17,31.17,0,0,0-3.75-2.78v12.43c0,2.67.05,4.81.17,6.43,0,.54-.75.92-2.24,1.16a12.3,12.3,0,0,1-1.44.14c-.75,0-1.12-.44-1.12-1.3a49.31,49.31,0,0,0,.31-6.43V284.9H415c-2,0-3.49,0-4.35.14Z" transform="translate(145.81 -69.24)" style="fill:#a51313"/>
	<path d="M378.8,340.56l.8.11V342h21.65c.44-.42.83-.76,1.16-1,.47-.44.82-.67,1-.67s1.12.51,2.32,1.51,1.61,1.49,1.61,1.86-.28.46-.84.53a2.26,2.26,0,0,0-1.09.14,29.64,29.64,0,0,1-4.1,1.41l-.53-.29a20.89,20.89,0,0,0,.95-2.49H379.57a16.55,16.55,0,0,1-.25,2.6,3.37,3.37,0,0,1-1.08,2,1.84,1.84,0,0,1-1,.32,2.73,2.73,0,0,1-2-.74,2,2,0,0,1-.74-1.69c0-.3.39-.67,1.16-1.12a6.11,6.11,0,0,0,1.93-1.47A5.74,5.74,0,0,0,378.8,340.56Zm-4-8.32a29.32,29.32,0,0,0,4.95.32h.28v-.32c0-1.66-.05-3.05-.14-4.18q1.57.21,3.12.57c1.45.25,2.18.53,2.18.84s-.21.49-.63.7-.78.43-.78.67a12.64,12.64,0,0,1-.21,1.72h2.07v-2.39a12.69,12.69,0,0,0-.31-3c1,.14,2.28.32,3.75.56s2,.41,2,.73-.36.68-1.09.92a.9.9,0,0,0-.7.88v2.28h2.39v-2.28a12.51,12.51,0,0,0-.32-2.95c1,.14,2.28.32,3.76.56a4.83,4.83,0,0,1,1.79.45l-.07-.28c1.05.07,2.35.23,3.89.46,1.07.16,1.61.37,1.61.63,0,.42-.31.75-.94,1a.84.84,0,0,0-.6.87v1.55h.42c.07-.05.43-.47,1.09-1.27s1.27-1.4,1.44-1.4c.39,0,1,.46,1.89,1.37S407,332.77,407,333s-.19.53-.59.53h-5.58v1.26c0,.82.15,1.32.46,1.51a2,2,0,0,0,1.26.32,1.93,1.93,0,0,0,.91-.14,1,1,0,0,0,.35-.71c.09-.44.22-1,.39-1.79h.8c.12.92.2,1.56.25,1.93a1.57,1.57,0,0,0,.67,1c.72.28,1.08.52,1.08.73a1.53,1.53,0,0,1-.56,1.23,3.58,3.58,0,0,1-1.47.71,10.05,10.05,0,0,1-2.42.28,17.28,17.28,0,0,1-3.05-.21,2.36,2.36,0,0,1-1.37-.6c-.56-.42-.84-1.32-.84-2.71v-2.8h-1.93v5.89c0,.43-.54.73-1.62.92a8.92,8.92,0,0,1-1.08.1c-.75,0-1.13-.24-1.13-.73a9.7,9.7,0,0,0,.18-1.09h-2.39v1.23c0,.42-.54.71-1.61.87a9.91,9.91,0,0,1-1.09.11c-.75,0-1.12-.22-1.12-.67a8.54,8.54,0,0,0,.17-1.4v-5.23h-2.21a10.21,10.21,0,0,1-.94,3.16,7.77,7.77,0,0,1-2.56,2.84,13.93,13.93,0,0,1-4.11,1.86l-.28-.56A10.86,10.86,0,0,0,378,338.7a7.55,7.55,0,0,0,1.5-2.81,10.15,10.15,0,0,0,.46-2.38h-.21a43.4,43.4,0,0,0-4.35.14Zm5.09,13.49a28.12,28.12,0,0,1,4,1.4h4.8v-.42a13.17,13.17,0,0,0-.31-3.06c1.09.12,2.43.3,4,.53s2.21.41,2.21.74-.4.73-1.2,1c-.54.16-.8.46-.8.91v.28h4.49l.84-.77c.68-.61,1.16-.92,1.44-.92a5.85,5.85,0,0,1,2.24,1.23c1.1.85,1.65,1.42,1.65,1.72s-.26.59-.77,1c-.7.44-1.05.87-1.05,1.3v3.37a2.87,2.87,0,0,1-1.9,2.63,6.3,6.3,0,0,1-2.59.7c-.19,0-.38-.43-.57-1.3-.25-1-1.18-1.89-2.77-2.6l.14-.73a16,16,0,0,0,3.2.42c.49,0,.73-.36.73-1.09v-3.93h-5.08v10.78c0,.47-.6.81-1.79,1a8.36,8.36,0,0,1-1.16.14c-.75,0-1.12-.25-1.12-.74a10.63,10.63,0,0,0,.17-1.55v-9.65H384v8.71c0,.44-.58.77-1.72,1a6.28,6.28,0,0,1-1.06.14c-.74,0-1.12-.33-1.12-1a17.48,17.48,0,0,0,.14-2.29v-6A18.3,18.3,0,0,0,379.92,345.73Zm9.4-8.12h2.39v-4.1h-2.39Zm8-5.05a28.79,28.79,0,0,0-.25-3.62,1.8,1.8,0,0,1-1,.63.84.84,0,0,0-.7.85v2.14Z" transform="translate(145.81 -69.24)"/>
	<path d="M425.94,330.42c-1.4.11-2.95.21-4.63.28V334h2c.07-.07.43-.51,1.09-1.33.79-1,1.27-1.48,1.44-1.48.4,0,1.06.48,2,1.44s1.37,1.58,1.37,1.79-.2.53-.6.53h-7.26v2.7h1.4a17.67,17.67,0,0,1,1.33-1.37,1.4,1.4,0,0,1,.88-.45,5.63,5.63,0,0,1,1.83.84c1.12.73,1.68,1.23,1.68,1.51a1.35,1.35,0,0,1-.56,1,1.44,1.44,0,0,0-.39,1v3.09c0,1,0,2.33.14,4,0,.47-.57.81-1.72,1a8.92,8.92,0,0,1-1.08.1c-.68,0-1-.31-1-.94h-2.49v3.37h2.49a13.22,13.22,0,0,0,.88-1c.6-.75,1-1.13,1.12-1.13.33,0,.85.39,1.58,1.16s1.05,1.21,1.05,1.37c0,.38-.14.56-.42.56h-6.7v2.88q3.57-.31,6.77-.73a.85.85,0,0,0,.1-.18,22.31,22.31,0,0,0,2.21-7.09,70.5,70.5,0,0,0,.53-9.76,16,16,0,0,0-2.77.31l-.53-1.68a21.24,21.24,0,0,0,3.3.38c0-1.05,0-2.16,0-3.33a48.32,48.32,0,0,0-.39-5.48c1.24.19,2.48.41,3.72.67,1.63.3,2.45.63,2.45,1s-.32.59-1,.84c-.51.19-.79.42-.84.71,0,2.13,0,4,0,5.65h1.86a6.48,6.48,0,0,1,.95-1.2c.54-.63,1-.94,1.26-.94a4.9,4.9,0,0,1,2.18,1.26q1.65,1.31,1.65,1.83c0,.21-.21.47-.63.77a1.6,1.6,0,0,0-.67,1.09q-.14,5.82-.67,11.76a26.48,26.48,0,0,1-1.12,5.86,4.33,4.33,0,0,1-2.35,2.74,7.43,7.43,0,0,1-2.56.71c-.3,0-.53-.41-.67-1.23q-.27-1.8-2.87-3.27l.14-.6a23.94,23.94,0,0,0,3.54.6,1.29,1.29,0,0,0,1.23-.91c.32-.66.62-3,.87-6.95q.39-5.52.39-10.57h-2.53a65.4,65.4,0,0,1-.45,7.83,21.36,21.36,0,0,1-1.58,6.49,17.9,17.9,0,0,1-3.12,4.78,20,20,0,0,1-5.48,4.11l-.31-.57a25.1,25.1,0,0,0,3.65-4.77,72.67,72.67,0,0,1-14,3.72c-.56,0-.84.15-.84.32s-.09.25-.14.42-.23.46-.42.46q-.63,0-1.47-2.25c-.17-.4-.44-1.06-.81-2q4-.18,7.72-.45v-3.24h-2.07a35.51,35.51,0,0,0-4.35.18l-.6-1.4a34,34,0,0,0,4.95.28h2.07v-3.37H415.3v.7c0,.44-.58.78-1.73,1a8.53,8.53,0,0,1-1.1.1,1,1,0,0,1-1.13-1.12c.07-1.22.11-2.44.11-3.65v-3.69a47.93,47.93,0,0,0-.25-5,29.26,29.26,0,0,1,4.94,1.82h1.52v-2.7h-2.81c-2,0-3.48,0-4.35.14l-.56-1.4a29.14,29.14,0,0,0,4.91.31h2.81v-3.12q-3,.14-6.42.17l-.28-.73a67.67,67.67,0,0,0,8.05-1.23,28.22,28.22,0,0,0,5.39-1.86c1,.7,1.75,1.21,2.24,1.54,1,.7,1.51,1.22,1.51,1.55s-.22.42-.67.42Zm-10.67,11.41h2.39V338.6h-2.39Zm0,4.63h2.39v-3.68h-2.39Zm6-7.86v3.23h2.52V338.6Zm0,4.18v3.68h2.52v-3.68Z" transform="translate(145.81 -69.24)"/>
	<path d="M382.73,377.17l3.23,1.16c1,.37,1.54.8,1.54,1.26,0,.21-.27.36-.81.43a1.84,1.84,0,0,0-.88.24A42.39,42.39,0,0,1,380,387c1.52-.07,3-.18,4.35-.32a15.13,15.13,0,0,0-1-2.63l.24-.28a12.57,12.57,0,0,1,3.23,2.24,4,4,0,0,1,1.12,2.39,2.72,2.72,0,0,1-.45,1.62,1.91,1.91,0,0,1-1.33.59,1.28,1.28,0,0,1-1-.31,4.16,4.16,0,0,1-.53-1.93c0-.21-.06-.44-.1-.67-.52.33-1,.62-1.51.88v9.93c0,2.23,0,4,.14,5.31,0,.42-.6.72-1.79.91a10.53,10.53,0,0,1-1.16.11c-.58,0-.88-.34-.88-1,.1-1.22.14-3,.14-5.31v-3.23l-.35.08c-.51.09-.8.21-.87.35a26.82,26.82,0,0,1-1.51,4.24,22.69,22.69,0,0,1-2.18,3.48l-.38-.42c.32-1.66.58-3.21.77-4.64s.35-3.27.49-5.33c1.05.28,2.07.56,3.05.84a4.71,4.71,0,0,1,1,.42v-4.18a15.46,15.46,0,0,1-1.5.49c-.31,0-.46.12-.46.29a2.18,2.18,0,0,0-.1.52c-.1.31-.24.46-.43.46-.46,0-1-.81-1.64-2.42-.19-.45-.5-1.19-.92-2.22l3.62-.14A41.53,41.53,0,0,0,382.73,377.17Zm-3.93-4.63L382,373.7q1.5.56,1.5,1.26c0,.21-.25.35-.77.42s-.83.15-.87.25a25.07,25.07,0,0,1-3.69,4.14,7.21,7.21,0,0,1,.77.53,2.87,2.87,0,0,1,1.09,2.24,2.15,2.15,0,0,1-.7,1.48,1.47,1.47,0,0,1-1.12.45c-.52,0-.95-.49-1.3-1.47a12,12,0,0,0-2.53-4.14l.28-.42a19.63,19.63,0,0,1,2.32.77A39,39,0,0,0,378.8,372.54Zm4.73,20.4a12.16,12.16,0,0,1,3.23,2.21,3.76,3.76,0,0,1,1.12,2.28,2.71,2.71,0,0,1-.49,1.72,2,2,0,0,1-1.43.63,1.28,1.28,0,0,1-.95-.31c-.19-.14-.36-.77-.53-1.9a11.86,11.86,0,0,0-1.33-4.25Zm10.39-20.54c1.42.23,2.58.45,3.47.66,1.26.26,1.9.55,1.9.88s-.32.41-1,.6-.82.23-.91.42a12.18,12.18,0,0,1-3.09,2.07h4.81c.51-.56,1-1.06,1.5-1.51a1.59,1.59,0,0,1,1-.56,6.62,6.62,0,0,1,2.07,1q1.89,1.31,1.89,1.83c0,.3-.26.62-.77,1a1.34,1.34,0,0,0-.49,1v4.08c0,1.1,0,2.6.1,4.49,0,.45-.58.77-1.75,1a10.11,10.11,0,0,1-1.19.1c-.66,0-1-.36-1-1.09v-.14h-2a22.66,22.66,0,0,0,1.86,5.23,1.35,1.35,0,0,0,.24.35,4.48,4.48,0,0,0,.32-.56,16.9,16.9,0,0,0,1.4-3.05l3.2,2c.95.68,1.43,1.17,1.43,1.47a.52.52,0,0,1-.59.6l-2-.32a18,18,0,0,1-2.91,1.27,11.63,11.63,0,0,0,1.72,1.93,18.54,18.54,0,0,0,4.28,2.7l-.14.6a3.78,3.78,0,0,0-2.1,2.07c-.45.84-.77,1.27-1,1.27s-.76-.45-1.51-1.34a17.88,17.88,0,0,1-2.35-3.61,37.09,37.09,0,0,1-1.51-4.32c-.26-1-.48-2.12-.67-3.34v10.22c0,1.75-.56,2.9-1.68,3.44a6,6,0,0,1-2.42.77c-.26,0-.48-.37-.67-1.12q-.45-1.57-3.37-2.63l.15-.6c1.35.09,2.52.14,3.5.14.45,0,.67-.32.67-.95v-5.69a2.28,2.28,0,0,0-.81.46,25,25,0,0,1-4,5.2,22.26,22.26,0,0,1-4.63,3.51l-.25-.25a27.08,27.08,0,0,0,3.19-4.67,38.11,38.11,0,0,0,2.43-5.48,34.88,34.88,0,0,0-4.07.14l-.57-1.4a6.6,6.6,0,0,0,2.14.32h2.21c.36-.43.61-.72.78-.88.51-.56.91-.85,1.19-.85s1.1.45,2.1,1.34l.25.17v-4.14H392v.56c0,.45-.57.78-1.72,1a7.55,7.55,0,0,1-1.09.14c-.77,0-1.16-.34-1.16-1a14.77,14.77,0,0,0,.15-2.21v-8a18.46,18.46,0,0,0-.29-2.95A31.7,31.7,0,0,1,392,377h1.26A17.07,17.07,0,0,0,393.92,372.4ZM392,382.26h8.52v-4.21H392Zm0,4.92h8.52v-4H392Z" transform="translate(145.81 -69.24)" style="fill:#cc561b"/>
	<path d="M410.05,401.79a45.88,45.88,0,0,0,5.89.42H423V376.08a14.75,14.75,0,0,0-.45-3.54c1.75.18,3.45.43,5.08.73,1,.05,1.55.32,1.55.81,0,.19-.31.42-.92.7s-.91.61-.91,1v9.72h4.18a8,8,0,0,0,1.22-1.33c1-1.27,1.71-1.9,2-1.9s1.19.68,2.67,2c.91.84,1.36,1.37,1.36,1.58,0,.37-.27.56-.8.56H427.34v15.77h8a16.92,16.92,0,0,0,1.4-1.65c1-1.24,1.63-1.86,1.79-1.86.54,0,1.35.58,2.42,1.75s1.69,1.88,1.69,2.14-.25.6-.74.6H415.41a33.77,33.77,0,0,0-4.8.28Z" transform="translate(145.81 -69.24)" style="fill:#cc561b"/>
	<a xlink:href="#section7" class="js-nav">
        <g id="ef6faceb-2c20-4434-a5a9-2cf346822f00" data-name="g3">
            <path d="M243.55,330.93A105.64,105.64,0,0,0,175,355.69c-2.41-2.36-4.81-2.36-7.22-2.36A10.68,10.68,0,0,0,157,363.94c0,2.36,1.21,4.72,2.41,7.07a101.69,101.69,0,0,0-22.85,64.84,1.17,1.17,0,0,0,1.2,1.18c1.2,0,2.41,0,2.41-1.18,0-23.57,7.21-46,21.65-62.48,1.2,1.18,3.6,1.18,6,1.18,6,0,12-4.72,12-10.61a8.89,8.89,0,0,0-2.41-5.89c18-15.33,40.9-24.76,66.15-24.76,1.21,0,1.21,0,1.21-1.18s0-1.18-1.21-1.18Zm-75.77,41.26a8.25,8.25,0,1,1,8.42-8.25,8.14,8.14,0,0,1-8.42,8.25" transform="translate(145.81 -69.24)" style="fill:#f49d03;fill-rule:evenodd"/>
            <path d="M522.48,448.68H339.74c-3.61,0-7.22,0-10.82,2.36-3.61,1.17-4.81,3.53-7.22,7.07a79.55,79.55,0,0,0-3.6,9.43c-14.43,30.64-49.3,51.85-84.16,48.32-3.61-1.18-7.22-1.18-12-2.36-28.85-8.25-52.9-31.82-60.11-61.29-6-30.64,8.42-64.82,33.66-82.5,22.85-16.5,54.11-18.85,80.56-8.25-3.61,7.07-8.42,14.15-12,21.22,8.42,3.53,15.63,8.25,21.65,15.32,4.8-7.07,8.41-14.14,13.22-21.22,9.62,8.25,16.83,20,21.64,31.83,1.2,4.71,2.41,10.6,7.21,13,2.41,1.18,4.81,1.18,8.42,1.18H522.48a93.83,93.83,0,0,0,0,25.93" transform="translate(145.81 -69.24)" style="fill:#f48603;fill-rule:evenodd"/>
            <path d="M297.67,418.1l-98.58,56.56,22.84,38.89c4.81,1.18,8.42,1.18,12,2.36h7.22c32.46,0,63.71-20,76.94-48.32a78.16,78.16,0,0,1,3.61-9.42L297.67,418.1" transform="translate(145.81 -69.24)" style="fill:#d6681e;fill-rule:evenodd"/>
            <path d="M301.25,437c0,31.8-26.47,56.53-58.95,56.53S183.36,468.76,183.36,437s26.46-57.71,58.94-57.71a57.36,57.36,0,0,1,20.45,3.53c9.63,3.54,16.85,8.25,22.86,15.31,9.62,10.6,15.64,23.56,15.64,38.87" transform="translate(145.81 -69.24)" style="fill:#fff;fill-rule:evenodd"/>
            <path d="M261,454.6c4.17,0,7.5,3,7.5,4.85l-.06,3a1.93,1.93,0,0,1-2,1.89H255.6a1.94,1.94,0,0,1-2-1.93v-2.92c0-1.82,3.16-4.85,7.33-4.85Zm-19.78,0c4.16,0,7.5,3,7.5,4.85l-.05,3a1.94,1.94,0,0,1-2,1.89H235.81a1.94,1.94,0,0,1-2-1.93v-2.92c0-1.82,3.17-4.85,7.34-4.85Zm-19.79,0c4.17,0,7.5,3,7.5,4.85l-.05,3a1.94,1.94,0,0,1-1.95,1.89H216a2,2,0,0,1-2-1.93v-2.92c0-1.82,3.18-4.85,7.34-4.85Zm39.65-12.12a4.85,4.85,0,1,1-4.94,4.85,4.9,4.9,0,0,1,4.94-4.85Zm-19.78,0a4.85,4.85,0,1,1-4.94,4.85,4.89,4.89,0,0,1,4.94-4.85Zm-19.78,0a4.85,4.85,0,1,1-5,4.85,4.9,4.9,0,0,1,5-4.85Zm27.14-28.65h.63a1.08,1.08,0,0,1,.51.1.75.75,0,0,1,.3.25.77.77,0,0,1,.15.3,1.86,1.86,0,0,1,0,.28,1.49,1.49,0,0,1-.08.52.78.78,0,0,1-.21.33,1,1,0,0,1-.27.17,1,1,0,0,1-.3.05h-.77v-2Zm-6.43-.44V414h1.53v4.47h.85V414h1.54v-.56Zm-5.29,0V414h1.53v4.47h.84V414h1.54v-.56Zm-4.92,0v5h.85v-2.26h2.23v2.26h.83v-5h-.83v2.21h-2.23v-2.21Zm15.81-.18v5h.83v-1.82h.62a2.17,2.17,0,0,0,.74-.11,1.78,1.78,0,0,0,.57-.33,1.59,1.59,0,0,0,.37-.52,1.75,1.75,0,0,0,.13-.7,1.42,1.42,0,0,0-.16-.65,1.49,1.49,0,0,0-.41-.49,1.66,1.66,0,0,0-.57-.31,2.07,2.07,0,0,0-.66-.1Zm-16.42-7.09h19.78a9.7,9.7,0,1,1,0,19.39h-7.42v2.42h17.31a2.45,2.45,0,0,1,2.48,2.42v4.85a2.48,2.48,0,0,1-4.95,0v-2.42H243.74v2.42a2.47,2.47,0,0,1-4.94,0v-2.42H224v2.42a2.47,2.47,0,0,1-4.94,0v-4.85a2.45,2.45,0,0,1,2.47-2.42H238.8v-2.42h-7.42a9.7,9.7,0,1,1,0-19.39" transform="translate(145.81 -69.24)" style="fill:#f48c03;fill-rule:evenodd"/>
            <path d="M163.22,363.66c-.33-2.38,1.83-4.5,4.49-4.5a4.73,4.73,0,1,1,0,9.46,4.39,4.39,0,0,1-4.49-5" transform="translate(145.81 -69.24)" style="fill:#f5c201;fill-rule:evenodd"/>
            <text transform="translate(0 113.78)" style="font-size:35.9869499206543px;fill:#ed7d31;font-family:MicrosoftJhengHeiBold, Microsoft JhengHei">3.</text>
            <text transform="translate(30.56 113.78)" style="font-size:35.9869499206543px;fill:#ed7d31;font-family:MicrosoftJhengHeiBold, Microsoft JhengHei">統一全通路接單模式</text>
            <text transform="translate(32.07 154.51)" style="font-size:26.96661949157715px;font-family:MicrosoftJhengHeiRegular, Microsoft JhengHei;letter-spacing:0.04999308614381882em">因應前端經營模式改變，
                <tspan x="0" y="31.46">以全通路模式規劃統一訂</tspan>
                <tspan x="0" y="62.92">單中心，同步網路與門店</tspan>
                <tspan x="0" y="94.38">商品資訊，解決庫存落</tspan>
                <tspan x="0" y="125.84">差，提升接單效率</tspan>
            </text>
        </g>
    </a>
	<a xlink:href="#section5" class="js-nav">
        <g id="a8d782ba-f3c9-477a-9062-88bb0d145a42" data-name="g1">
            <path d="M285.54,398c-6-7.07-13.23-11.78-22.85-15.32L348.1,242.47c3.61-5.89-1.21-10.61-1.21-10.61l-6-7.07c-22.86-25.92-25.26-66-4.81-96.62C361.33,91.64,413.06,81,450.35,107c25.26,15.32,37.29,42.43,37.29,69.53,0,4.71-1.2,10.6-2.41,16.5-2.4,8.24-6,17.67-12,25.92A86.31,86.31,0,0,1,407,255.43a72.3,72.3,0,0,1-16.84-2.36l-9.62-1.18c-6,0-8.42,2.36-9.63,5.9L285.54,398" transform="translate(145.81 -69.24)" style="fill:#bf1b1b;fill-rule:evenodd"/>
            <path d="M486.4,105.79a8.94,8.94,0,0,0,2.41-5.9C488.81,94,484,88.1,478,88.1c-2.4,0-6,1.18-7.22,3.54-18-14.15-40.89-22.4-66.15-22.4-1.2,0-1.2,0-1.2,1.18s0,1.18,1.2,1.18c24.06,0,45.71,8.25,63.75,22.4A8.94,8.94,0,0,0,466,99.89c0,5.9,6,10.61,12,10.61,2.41,0,4.81,0,6-2.35,15.64,17.68,24.06,41.26,24.06,66a4.23,4.23,0,0,0,2.41,1.17l1.2-1.17c0-25.94-9.62-49.52-25.26-68.38ZM478,108.15a8.26,8.26,0,1,1,0-16.51c3.61,0,7.22,3.54,7.22,8.25,0,3.54-3.61,8.26-7.22,8.26" transform="translate(145.81 -69.24)" style="fill:#bf1b1b;fill-rule:evenodd"/>
            <path d="M473.34,99.38c-.08-2.12,2-4.24,4.66-4.24a4.74,4.74,0,1,1,0,9.47c-2.62,0-4.74-2.12-4.66-5.23" transform="translate(145.81 -69.24)" style="fill:#bf1b1b;fill-rule:evenodd"/>
            <path d="M452.79,143.46l-95.05,61.26L390.23,253c4.81,1.18,9.62,2.36,14.43,2.36h2.41c9.62-1.18,19.25-2.36,27.67-5.89L420.3,227.11l24.07-13,14.43,21.2a204,204,0,0,0,14.44-16.49c6-8.25,9.63-17.67,12-25.92l-32.48-49.48" transform="translate(145.81 -69.24)" style="fill:#a50c0c;fill-rule:evenodd"/>
            <path d="M444.37,214.26c-7.21,5.89-14.43,10.6-24.05,13-1.2,1.18-3.6,1.18-4.8,1.18-31.26,5.89-61.32-14.14-67.33-43.6-6-30.64,14.43-60.1,45.69-66s61.31,14.14,67.32,44.78c3.61,18.86-3.61,37.71-16.83,50.68" transform="translate(145.81 -69.24)" style="fill:#fff;fill-rule:evenodd"/>
            <path d="M426.22,168.39a5.21,5.21,0,1,1-5.32,5.21,5.26,5.26,0,0,1,5.32-5.21Z" transform="translate(145.81 -69.24)" style="fill:#bf1b1b;fill-rule:evenodd"/>
            <path d="M403.59,153.42h10.25a1.68,1.68,0,1,1,0,3.35h-8.55v15.15h8.55a1.68,1.68,0,1,1,0,3.35h-8.55v18h8.55a1.67,1.67,0,1,1,0,3.34H403.59a1.68,1.68,0,0,1-1.71-1.67V155.1a1.69,1.69,0,0,1,1.71-1.68Z" transform="translate(145.81 -69.24)" style="fill:#bf1b1b;fill-rule:evenodd"/>
            <path d="M425.78,150.16a5.21,5.21,0,1,1-5.32,5.21,5.26,5.26,0,0,1,5.32-5.21" transform="translate(145.81 -69.24)" style="fill:#bf1b1b;fill-rule:evenodd"/>
            <path d="M393.68,180.17a34.12,34.12,0,0,0-10.62-3c.13-.86.25-1.74.37-2.6a2.94,2.94,0,0,0,1.45-1.93c.1-.81.19-1.61.29-2.42a.69.69,0,0,0,.43.22.71.71,0,0,0,.78-.63l.38-3.73a.69.69,0,0,0-.62-.76.64.64,0,0,0-.41.08l.24-2.13c.07-1,.55-3.56-1.32-5.23-2.71-2.66-8.66-2.66-11.37,0-1.87,1.67-1.39,4.26-1.33,5.23.09.71.17,1.42.25,2.13a.64.64,0,0,0-.41-.08.69.69,0,0,0-.62.76l.38,3.73a.7.7,0,0,0,.77.63.69.69,0,0,0,.44-.22c.09.81.19,1.61.28,2.42a3,3,0,0,0,1.46,1.93l.36,2.6a34.28,34.28,0,0,0-10.62,3,3.54,3.54,0,0,0-1.72,3.19c.12,1.3.25,2.61.39,3.92a2.94,2.94,0,0,0,2.18,2.48,87.27,87.27,0,0,0,27.75,0,3,3,0,0,0,2.18-2.48l.39-3.92A3.55,3.55,0,0,0,393.68,180.17Z" transform="translate(145.81 -69.24)" style="fill:#bf1b1b"/>
            <path d="M426.68,186.62a5.21,5.21,0,1,1-5.32,5.21,5.26,5.26,0,0,1,5.32-5.21Z" transform="translate(145.81 -69.24)" style="fill:#bf1b1b;fill-rule:evenodd"/>
            <text transform="translate(678.89 36.56)" style="font-size:35.9869499206543px;fill:#bf1b1b;font-family:MicrosoftJhengHeiBold, Microsoft JhengHei">1.</text>
            <text transform="translate(709.45 36.56)" style="font-size:35.9869499206543px;fill:#bf1b1b;font-family:MicrosoftJhengHeiBold, Microsoft JhengHei">建立全通路會員管道</text>
            <text x="145.81" y="-69.24"/>
            <text transform="translate(709.93 81.84)" style="font-size:26.96661949157715px;font-family:MicrosoftJhengHeiRegular, Microsoft JhengHei;letter-spacing:0.050011193020364934em">引流潛在的年輕客群，有效
                <tspan x="0" y="31.46">運用會員資料蒐集與消費紀</tspan>
                <tspan x="0" y="62.92">錄分析，提供更適合會員與</tspan>
                <tspan x="0" y="94.38">專業貼心的服務</tspan>
            </text>
        </g>
    </a>
    <a xlink:href="#section6" class="js-nav">
        <g id="a32f7831-5d96-4e9f-a01b-0a2d24e8ca2a" data-name="g2">
            <path d="M444.37,214.2c31.26,46,62.52,90.76,92.58,135.55,2.4,2.36,3.6,5.9,6,7.08,6,3.53,12,1.18,18,0,30.06-5.9,63.73,5.89,83,29.47,15.63,20,20.44,47.15,14.43,71.9-12,40.08-56.51,66-98.59,56.58-24-5.9-45.69-22.4-56.51-44.79-12-27.11-8.41-62.48,12-84.87,1.2-3.54,3.6-5.9,4.8-9.43,0-3.54-2.4-5.9-4.8-9.43l-95-139.09,24.05-13" transform="translate(145.81 -69.24)" style="fill:#526db0;fill-rule:evenodd"/>
            <path d="M687.22,434.56l-1.2-1.18a4.21,4.21,0,0,0-2.4,1.18c0,23.58-7.22,46-21.65,62.48-1.21-1.18-3.61-1.18-6-1.18a10.68,10.68,0,0,0-10.82,10.61c0,2.36,0,4.72,1.2,7.08-18,14.15-40.89,23.58-66.15,23.58-1.2,0-1.2,0-1.2,1.18s0,1.17,1.2,1.17c26.46,0,50.51-8.25,68.56-24.75,2.4,2.35,4.81,2.35,7.21,2.35a10.67,10.67,0,0,0,10.83-10.61c0-2.35-1.2-4.71-2.41-7.07a101.59,101.59,0,0,0,22.85-64.84ZM656,514.73a8.26,8.26,0,1,1,8.42-8.26,8.15,8.15,0,0,1-8.42,8.26" transform="translate(145.81 -69.24)" style="fill:#526db0;fill-rule:evenodd"/>
            <path d="M650.87,506.48a5.31,5.31,0,0,1,5.15-4.69,4.74,4.74,0,1,1,0,9.47,5.32,5.32,0,0,1-5.15-4.78" transform="translate(145.81 -69.24)" style="fill:#526db0;fill-rule:evenodd"/>
            <path d="M625.87,405.2c-40.83,23.55-92.48,54.17-97.28,56.52,2.4,4.71-1.2-1.18,31.23,53,6,1.18,12,2.36,18,2.36a86.34,86.34,0,0,0,60-24.73c6-7.07,12-14.13,15.62-23.55a41.6,41.6,0,0,0,4.8-10.6V457c-34.83-55.34-28.82-47.1-32.43-51.81" transform="translate(145.81 -69.24)" style="fill:#3d5185;fill-rule:evenodd"/>
            <path d="M635.47,435.79c0,30.63-25.24,55.37-56.49,55.37-27.64,0-49.27-17.67-55.28-42.41a36.19,36.19,0,0,1,0-25.92c6-24.74,27.64-42.42,55.28-42.42,31.25,0,56.49,24.74,56.49,55.38" transform="translate(145.81 -69.24)" style="fill:#fff;fill-rule:evenodd"/>
            <path d="M577.41,440.75h3.34v4.54h17a2.91,2.91,0,0,1,2.94,2.88v4.36a5.84,5.84,0,1,1-3.35.06v-4H580.74v4a5.84,5.84,0,1,1-3.33,0v-4H560.87v4a5.84,5.84,0,1,1-3.36,0v-4.38a2.89,2.89,0,0,1,3-2.85h16.93v-4.54Zm1.19-40.47a7.14,7.14,0,0,1,4.27.88,5.26,5.26,0,0,1,2.08,1.9s3.44.24,2.28,7.1c0,.21-.09.43-.15.64.65,0,1.31.5.6,3-.56,1.94-1.08,2.48-1.48,2.51a7.91,7.91,0,0,1-1,2.77v3.46a.33.33,0,0,0,.18.3A57.81,57.81,0,0,1,596,429.52a3.51,3.51,0,0,1,1.3,2.73v3.21a1.81,1.81,0,0,1-1.84,1.8H581.22L580,431.58c3.06-4.2-.24-4.4-.8-4.4s-3.88.2-.81,4.4l-1.27,5.68H562.83a1.81,1.81,0,0,1-1.84-1.8v-3.21a3.55,3.55,0,0,1,1.33-2.76,58,58,0,0,1,10.62-6.66.32.32,0,0,0,.16-.29v-3.46a8.39,8.39,0,0,1-1-2.77c-.39,0-.92-.57-1.47-2.51-.71-2.46-.07-3,.58-3a5,5,0,0,1-.16-.64,7.91,7.91,0,0,1,0-3.49,7.75,7.75,0,0,1,2.09-3.58,10.65,10.65,0,0,1,1.94-1.55,6.84,6.84,0,0,1,1.87-.94,6,6,0,0,1,1.7-.33" transform="translate(145.81 -69.24)" style="fill:#526db0;fill-rule:evenodd"/>
            <text transform="translate(824.74 460.1)" style="font-size:35.9869499206543px;fill:#526db0;font-family:MicrosoftJhengHeiBold, Microsoft JhengHei">2.</text>
            <text transform="translate(855.3 460.1)" style="font-size:35.9869499206543px;fill:#526db0;font-family:MicrosoftJhengHeiBold, Microsoft JhengHei">擴大全</text>
            <text transform="translate(963.17 460.1)" style="font-size:35.9869499206543px;fill:#526db0;font-family:MicrosoftJhengHeiBold, Microsoft JhengHei">通路行銷效果</text>
            <text transform="translate(857.54 498.54)" style="font-size:26.96661949157715px;font-family:MicrosoftJhengHeiRegular, Microsoft JhengHei;letter-spacing:0.050011193020364934em">整合線上線下消費數據，
                <tspan x="0" y="31.46">擴大行銷效果並精確分析</tspan>
                <tspan x="0" y="62.92">成效</tspan>
            </text>
        </g>
    </a>
</svg>