<svg id="e86cd601-06b5-42e8-a7d4-a1c865209107" data-name="圖層 1" xmlns="http://www.w3.org/2000/svg" viewBox="0 0 960 468.92"><g id="a3b173be-7b2a-4fea-9abd-a8df6aae2983" data-name="g1"><polygon points="163.03 6.64 168.24 6.64 168.24 468.92 163.03 468.92 163.03 6.64 163.03 6.64" style="fill:#f4c3c3;fill-rule:evenodd"/><path d="M112.59,171a8,8,0,0,1,8-7.62,7.73,7.73,0,1,1,0,15.45,8.08,8.08,0,0,1-8-7.83" transform="translate(45.58 -95.56)" style="fill:#7a7a7a;fill-rule:evenodd"/><path d="M112.76,171.06a7.87,7.87,0,1,1,7.87,7.73,7.8,7.8,0,0,1-7.87-7.73" transform="translate(45.58 -95.56)" style="fill:none;stroke:#fff;stroke-linecap:round;stroke-linejoin:round;stroke-width:1.50131237506866px"/><path d="M112.59,332.89a8,8,0,0,1,8-7.39,7.73,7.73,0,1,1,0,15.46,8.12,8.12,0,0,1-8-8.07" transform="translate(45.58 -95.56)" style="fill:#7a7a7a;fill-rule:evenodd"/><path d="M112.76,333.23a7.87,7.87,0,1,1,7.87,7.73,7.8,7.8,0,0,1-7.87-7.73" transform="translate(45.58 -95.56)" style="fill:none;stroke:#fff;stroke-linecap:round;stroke-linejoin:round;stroke-width:1.50131237506866px"/><path d="M112.59,495.73a8.12,8.12,0,0,1,8-8.07,7.73,7.73,0,1,1,0,15.46,8,8,0,0,1-8-7.39" transform="translate(45.58 -95.56)" style="fill:#7a7a7a;fill-rule:evenodd"/><path d="M112.76,495.39a7.87,7.87,0,1,1,7.87,7.73,7.8,7.8,0,0,1-7.87-7.73" transform="translate(45.58 -95.56)" style="fill:none;stroke:#fff;stroke-linecap:round;stroke-linejoin:round;stroke-width:1.50131237506866px"/></g><g id="b02fddfe-4380-40f1-92e5-7f7b1f3d760c" data-name="g2"><polygon points="0 55.49 73.21 55.49 94 75.4 73.21 96.2 0 96.2 0 55.49 0 55.49 0 55.49" style="fill:#7a7a7a;fill-rule:evenodd"/><text transform="translate(24.76 80.36)" style="font-size:17.188440322875977px;fill:#fff;font-family:Calibri"><tspan style="letter-spacing:-0.007989468577277267em">201</tspan><tspan x="25.72" y="0">7</tspan></text><path d="M149.76,174.8A55.92,55.92,0,0,1,206,119.51c30.9,0,55.94,24.59,55.94,54.93s-25,54.94-55.94,54.94S150,204.78,149.76,174.8" transform="translate(45.58 -95.56)" style="fill:#ffb8b8;fill-rule:evenodd"/><polygon points="0 45.54 113.89 45.54 145.52 77.21 113.89 108.87 0 108.87 0 45.54 0 45.54 0 45.54" style="fill:#7f7f7f;fill-rule:evenodd"/><path d="M-1.35,180.84H-18.61a10.92,10.92,0,0,1,1.8-4.82,24.64,24.64,0,0,1,5.65-5.32,16.8,16.8,0,0,0,3.23-2.85A3.22,3.22,0,0,0-7.22,166a2.16,2.16,0,0,0-.7-1.61,2.45,2.45,0,0,0-1.76-.68,2.44,2.44,0,0,0-1.8.7,4.19,4.19,0,0,0-.94,2.44l-5.76-.46a9.12,9.12,0,0,1,1.24-3.8,5.7,5.7,0,0,1,2.55-2.09,11.42,11.42,0,0,1,4.55-.73,12.91,12.91,0,0,1,4.73.69,5.71,5.71,0,0,1,2.65,2.13,5.6,5.6,0,0,1,1,3.22,6.54,6.54,0,0,1-1.11,3.61,15.09,15.09,0,0,1-4,3.79c-1.16.8-1.93,1.36-2.32,1.68s-.85.75-1.38,1.26h9Z" transform="translate(45.58 -95.56)" style="fill:#fff"/><path d="M1.11,170.39q0-5.91,2.12-8.27t6.48-2.36a9.52,9.52,0,0,1,3.43.52,6.21,6.21,0,0,1,2.19,1.34,7.12,7.12,0,0,1,1.34,1.74,9.37,9.37,0,0,1,.78,2.12,20.24,20.24,0,0,1,.58,4.84q0,5.64-1.91,8.25t-6.57,2.62a9.26,9.26,0,0,1-4.22-.83,7,7,0,0,1-2.64-2.45,9,9,0,0,1-1.16-3.13A21.25,21.25,0,0,1,1.11,170.39Zm5.7,0a14.18,14.18,0,0,0,.7,5.41,2.17,2.17,0,0,0,3.55.84,3.83,3.83,0,0,0,.94-2,19.64,19.64,0,0,0,.31-4.14q0-4.12-.7-5.55a2.24,2.24,0,0,0-2.1-1.42A2.13,2.13,0,0,0,7.45,165,15.25,15.25,0,0,0,6.81,170.4Z" transform="translate(45.58 -95.56)" style="fill:#fff"/><path d="M33.44,159.76v21.08H27.62V167a17.37,17.37,0,0,1-2.74,1.73A20.92,20.92,0,0,1,21.57,170v-4.72A14,14,0,0,0,26.13,163a9.36,9.36,0,0,0,2.55-3.28Z" transform="translate(45.58 -95.56)" style="fill:#fff"/><path d="M39.79,160.11H56.58V164a20.8,20.8,0,0,0-3.65,4.28,24.6,24.6,0,0,0-2.81,6.24A29.23,29.23,0,0,0,49,180.84H43.28a33.18,33.18,0,0,1,2.13-8.51A31.84,31.84,0,0,1,50,165H39.79Z" transform="translate(45.58 -95.56)" style="fill:#fff"/><text transform="translate(332.55 62.86)" style="font-size:16.872129440307617px;font-family:MicrosoftJhengHeiRegular, Microsoft JhengHei;letter-spacing:0.050008506809121334em">線下：展示中心開放1對1預約服務<tspan x="0" y="25.31">線上：新官網商城成立、經營網路社群</tspan><tspan x="0" y="50.62">會員數成長33%（增加約7,000人）</tspan></text><path d="M193.87,149.9a2.39,2.39,0,1,1-2.38,2.38,2.39,2.39,0,0,1,2.38-2.38Zm37.32,16.4V195h-1.87V167.65L230.8,166l.39.29Zm-3.85,3.54V195h-1.87V171.91l1.87-2.07Zm-3.86,4.26V195h-1.86V176.16l1.86-2.06Zm-3.85,4.25V195h-1.86V180.41l1.86-2.06Zm-3.85,2.06V195h-1.86V179.1l1.86,1.31Zm-3.85-2.51V195h-1.86V179.35l1.86-1.45Zm-3.85,3V195h-1.87V182.35l1.87-1.45Zm-3.85,3V195h-1.87v-9.65l1.87-1.45Zm-3.85,3V195h-1.87v-6.66l1.87-1.45ZM196.53,189v6h-1.87v-7.29l1.87,1.29Zm-3.85-2.66V195h-1.87v-9.95l1.87,1.29Zm-3.85-1.64V195H187v-9.2l1.87-1.1ZM185,187v8h-1.87v-6.95L185,187Zm-7.7,4.52V195h-1.87v-5.34l1.27,2.16.6-.34Zm-3-11.28,3.77,6.42,11.75-6.9,5,3.42,2.26,1.55,2.15-1.67,12.81-10,1.79,1.27,2.68,1.89,2.22-2.45,11.72-12.95,2.77,2.18,1-7.05,1-7.05-6.62,2.64L222,154.16l2.57,2-9.17,10.14-1.36-1-2.25-1.6-2.18,1.7-12.84,10-4.65-3.2-1.95-1.34-2.05,1.19-13.8,8.1Zm6.86,9V195h-1.87v-4.69l1.87-1.09Zm4.65-28.17.87-3,4.14-2.8,5.76,0,1.14,4.07,3.13,0,.05.89-4.34.64-1.2-1.7-.8,3.82,3.06,3.77.14,5.62-1.45,0-1.12-4.87-2.62-2.07a25.61,25.61,0,0,0-1.7,3.8l-5.3.89-.17-.89,3.78-1.47.82-5.33.67-4.37-2.24.71-1.61,2.78Z" transform="translate(45.58 -95.56)" style="fill:#040000;fill-rule:evenodd"/><text transform="translate(317.64 64.84)" style="font-size:14.474479675292969px;font-family:Wingdings-Regular, Wingdings"></text><text transform="translate(317.64 87.4)" style="font-size:14.474479675292969px;font-family:Wingdings-Regular, Wingdings"></text><text transform="translate(317.64 109.96)" style="font-size:14.474479675292969px;font-family:Wingdings-Regular, Wingdings"></text></g><g id="a3673b45-6b3f-4a00-9d37-b38d54247289" data-name="g3"><polygon points="0 217.43 73.21 217.43 94 237.33 73.21 258.14 0 258.14 0 217.43 0 217.43 0 217.43" style="fill:#7a7a7a;fill-rule:evenodd"/><text transform="translate(24.76 242.51)" style="font-size:17.188440322875977px;fill:#fff;font-family:Calibri"><tspan style="letter-spacing:-0.007989468577277267em">201</tspan><tspan x="25.72" y="0">8</tspan></text><path d="M149.76,331.33c.27-29.93,25.32-54.52,56.22-54.52s55.94,24.59,55.94,54.93-25,54.94-55.94,54.94a55.94,55.94,0,0,1-56.22-55.35" transform="translate(45.58 -95.56)" style="fill:#ff7878;fill-rule:evenodd"/><text transform="translate(317.64 236.88)" style="font-size:14.474479675292969px;font-family:Wingdings-Regular, Wingdings"></text><polygon points="0 207.48 113.89 207.48 145.52 239.14 113.89 270.8 0 270.8 0 207.48 0 207.48 0 207.48" style="fill:#4f4f4f;fill-rule:evenodd"/><path d="M-1.35,343H-18.61a10.92,10.92,0,0,1,1.8-4.82,24.64,24.64,0,0,1,5.65-5.32A16.8,16.8,0,0,0-7.93,330a3.22,3.22,0,0,0,.71-1.85,2.16,2.16,0,0,0-.7-1.62,2.45,2.45,0,0,0-1.76-.67,2.43,2.43,0,0,0-1.8.69,4.22,4.22,0,0,0-.94,2.44l-5.76-.46a9.17,9.17,0,0,1,1.24-3.8,5.7,5.7,0,0,1,2.55-2.09,11.42,11.42,0,0,1,4.55-.73,12.91,12.91,0,0,1,4.73.69,5.83,5.83,0,0,1,2.65,2.13,5.6,5.6,0,0,1,1,3.22,6.6,6.6,0,0,1-1.11,3.62,15.08,15.08,0,0,1-4,3.78c-1.16.81-1.93,1.37-2.32,1.69s-.85.74-1.38,1.25h9Z" transform="translate(45.58 -95.56)" style="fill:#fff"/><path d="M1.11,332.5c0-3.94.71-6.69,2.12-8.27s3.58-2.36,6.48-2.36a9.52,9.52,0,0,1,3.43.52,6.21,6.21,0,0,1,2.19,1.34,7.12,7.12,0,0,1,1.34,1.74,9.46,9.46,0,0,1,.78,2.13,20.09,20.09,0,0,1,.58,4.83q0,5.64-1.91,8.26T9.55,343.3a9.26,9.26,0,0,1-4.22-.83A6.88,6.88,0,0,1,2.69,340a9,9,0,0,1-1.16-3.13A21.25,21.25,0,0,1,1.11,332.5Zm5.7,0a14.16,14.16,0,0,0,.7,5.4,2.19,2.19,0,0,0,2,1.45,2.13,2.13,0,0,0,1.52-.61,3.79,3.79,0,0,0,.94-1.95,19.64,19.64,0,0,0,.31-4.14q0-4.12-.7-5.55a2.26,2.26,0,0,0-2.1-1.42,2.14,2.14,0,0,0-2.06,1.45A15.31,15.31,0,0,0,6.81,332.52Z" transform="translate(45.58 -95.56)" style="fill:#fff"/><path d="M33.44,321.87V343H27.62V329.14a18.23,18.23,0,0,1-2.74,1.74,22,22,0,0,1-3.31,1.27v-4.72a13.82,13.82,0,0,0,4.56-2.28,9.27,9.27,0,0,0,2.55-3.28Z" transform="translate(45.58 -95.56)" style="fill:#fff"/><path d="M43.15,331.81a5.49,5.49,0,0,1-2-1.61,4.75,4.75,0,0,1-.85-2.8,5,5,0,0,1,2.44-4.26,9,9,0,0,1,5-1.27q4.15,0,6.14,1.58a4.91,4.91,0,0,1,2,4,4.71,4.71,0,0,1-.79,2.62,6.46,6.46,0,0,1-1.86,1.75,5.92,5.92,0,0,1,2.51,2.13,5.48,5.48,0,0,1,.82,2.94,6.2,6.2,0,0,1-.71,2.91,5.87,5.87,0,0,1-1.75,2.08A7.13,7.13,0,0,1,51.56,343a14.5,14.5,0,0,1-3.29.35,12.71,12.71,0,0,1-5-.78,5.66,5.66,0,0,1-2.64-2.29,6.37,6.37,0,0,1-.91-3.38,5.44,5.44,0,0,1,.85-3.08A5.35,5.35,0,0,1,43.15,331.81Zm2.28,4.85a3.09,3.09,0,0,0,.83,2.24,2.58,2.58,0,0,0,1.91.87,2.49,2.49,0,0,0,1.85-.89,3.19,3.19,0,0,0,.82-2.24A3.13,3.13,0,0,0,50,334.4a2.54,2.54,0,0,0-1.91-.88,2.5,2.5,0,0,0-1.88.85A3.2,3.2,0,0,0,45.43,336.66Zm.31-8.92a2.31,2.31,0,0,0,.67,1.73,2.42,2.42,0,0,0,1.78.66,2.19,2.19,0,0,0,1.63-.65,2.34,2.34,0,0,0,.63-1.69,2.38,2.38,0,0,0-.66-1.74,2.27,2.27,0,0,0-1.69-.67,2.23,2.23,0,0,0-2.36,2.36Z" transform="translate(45.58 -95.56)" style="fill:#fff"/><text transform="translate(336.2 238.34)" style="font-size:16.872129440307617px;font-family:MicrosoftJhengHeiRegular, Microsoft JhengHei;letter-spacing:0.050008506809121334em">線下：參與8場婦幼展</text><path d="M209.14,320.6h3.46l-1.48,1.16,3.46,3.93,3.47-3.93-1.49-1.16h3.59l6,9.94h0l5.05,4.24H239l3.75,3.83-.49,2L239,338.85v.56l2.83,4.89H239v4a1.5,1.5,0,0,1-1.5,1.49h0a1.49,1.49,0,0,1-1.49-1.49v-3.9h-2.7v3.9a1.5,1.5,0,0,1-1.5,1.49h0a1.5,1.5,0,0,1-1.5-1.49v-4h-2.81l2.81-4.87v-.19l-5.55-6.91-5.34-5.77a24.84,24.84,0,0,1-1,3.45c2.44,3.36,4.43,7.48,4.65,11.47h-4l-1.31,8.28h-2l-1.11-5.17-.79,5.17h-2.35l-1.31-8.28H205.8c.07-3.86,2.6-8.87,4.92-11.5a29.94,29.94,0,0,1-1-3.66l-3.92,3-2,1.46-3.26-3.37v11.54h-1.24v10.85h-3.29l-1.56-4.64-1.34,4.64h-3.83V338.91h-1.05V328.18l-2.15,3.19-4.62,8.11v8.68a1.61,1.61,0,0,1-1.61,1.6h0a1.6,1.6,0,0,1-1.61-1.6V344h-2.9v4.19a1.6,1.6,0,0,1-1.61,1.6h0a1.6,1.6,0,0,1-1.61-1.6v-9.29l-3.47,1.72-.61-2.12,4.08-4.81h3.14v2.26h2.82v-2.26h3.38l2.55-3.65,4.22-10.1h2.8c.09,4.43,6.77,4.43,6.87,0h2.64l3.91,7,4.61-6.33Zm-32.23,1.11a5.32,5.32,0,1,0,5.32,5.32,5.32,5.32,0,0,0-5.32-5.32Zm62.43,5.76a4.95,4.95,0,0,0-9.44-.61h0c-.05.12-.09.25-.13.38l-1.54,4.66h2.61a5,5,0,0,0,7.38,0h2.6l-1.48-4.44Zm-18.8-14.79a5.9,5.9,0,0,0-11.69-.08h0l-1.24,5.12h3a6,6,0,0,0,2.51,1.39v1.4l0,.09.27.9,1.11,3.74,1.12-3.74.25-.83,0-.07h0v-1.43a5.88,5.88,0,0,0,2.77-1.45h3l-1.22-5Zm-24.41,5.41a5.88,5.88,0,1,0-3.32,0v2.38h3.32Z" transform="translate(45.58 -95.56)" style="fill:#040000;fill-rule:evenodd"/></g><g id="e98627d3-d566-477c-a461-840f705b0a9d" data-name="g4"><polygon points="0 379.36 73.21 379.36 94 400.17 73.21 420.07 0 420.07 0 379.36 0 379.36 0 379.36" style="fill:#7a7a7a;fill-rule:evenodd"/><text transform="translate(24.76 404.68)" style="font-size:17.188440322875977px;fill:#fff;font-family:Calibri"><tspan style="letter-spacing:-0.007989468577277267em">201</tspan><tspan x="25.72" y="0">9</tspan></text><path d="M149.76,498A55.94,55.94,0,0,1,206,442.68c30.9,0,55.94,24.6,55.94,54.94s-25,54.93-55.94,54.93S150,528,149.76,498" transform="translate(45.58 -95.56)" style="fill:#ff4a4a;fill-rule:evenodd"/><text transform="translate(317.64 406.61)" style="font-size:14.474479675292969px;font-family:Wingdings-Regular, Wingdings"></text><polygon points="0 369.41 113.89 369.41 145.52 401.07 113.89 432.74 0 432.74 0 369.41 0 369.41 0 369.41" style="fill:#af0b0b;fill-rule:evenodd"/><path d="M-1.35,505.1H-18.61a10.92,10.92,0,0,1,1.8-4.82A24.64,24.64,0,0,1-11.16,495a16.8,16.8,0,0,0,3.23-2.85,3.22,3.22,0,0,0,.71-1.86,2.16,2.16,0,0,0-.7-1.61A2.45,2.45,0,0,0-9.68,488a2.44,2.44,0,0,0-1.8.7,4.19,4.19,0,0,0-.94,2.44l-5.76-.46a9.17,9.17,0,0,1,1.24-3.8,5.7,5.7,0,0,1,2.55-2.09A11.42,11.42,0,0,1-9.84,484a12.91,12.91,0,0,1,4.73.69,5.77,5.77,0,0,1,2.65,2.13,5.6,5.6,0,0,1,1,3.22,6.6,6.6,0,0,1-1.11,3.62,15.08,15.08,0,0,1-4,3.78c-1.16.8-1.93,1.37-2.32,1.69s-.85.74-1.38,1.25h9Z" transform="translate(45.58 -95.56)" style="fill:#fff"/><path d="M1.11,494.65c0-3.94.71-6.69,2.12-8.27S6.81,484,9.71,484a9.52,9.52,0,0,1,3.43.52,6.21,6.21,0,0,1,2.19,1.34,7.12,7.12,0,0,1,1.34,1.74,9.46,9.46,0,0,1,.78,2.13,20.09,20.09,0,0,1,.58,4.83q0,5.64-1.91,8.25t-6.57,2.62a9.26,9.26,0,0,1-4.22-.83,6.88,6.88,0,0,1-2.64-2.45A9,9,0,0,1,1.53,499,21.25,21.25,0,0,1,1.11,494.65Zm5.7,0a14.16,14.16,0,0,0,.7,5.4,2.19,2.19,0,0,0,2,1.45,2.13,2.13,0,0,0,1.52-.61,3.79,3.79,0,0,0,.94-2,19.64,19.64,0,0,0,.31-4.14q0-4.12-.7-5.55a2.26,2.26,0,0,0-2.1-1.42,2.13,2.13,0,0,0-2.06,1.45A15.27,15.27,0,0,0,6.81,494.67Z" transform="translate(45.58 -95.56)" style="fill:#fff"/><path d="M33.44,484V505.1H27.62V491.29A18.23,18.23,0,0,1,24.88,493a22,22,0,0,1-3.31,1.27v-4.72a13.82,13.82,0,0,0,4.56-2.28A9.27,9.27,0,0,0,28.68,484Z" transform="translate(45.58 -95.56)" style="fill:#fff"/><path d="M40,500.45l5.72-.72a3,3,0,0,0,.76,1.69,1.86,1.86,0,0,0,1.31.5,2.37,2.37,0,0,0,2.16-1.4,13.06,13.06,0,0,0,.85-4.37,7,7,0,0,1-2.12,1.55,6,6,0,0,1-2.51.5,6.28,6.28,0,0,1-4.7-2,6.93,6.93,0,0,1-1.91-5,7.39,7.39,0,0,1,1-3.76,6.41,6.41,0,0,1,2.69-2.57,9.42,9.42,0,0,1,4.29-.87,10.12,10.12,0,0,1,5,1.07,7.49,7.49,0,0,1,3,3.39,14.21,14.21,0,0,1,1.12,6.14q0,5.61-2.36,8.22a8.36,8.36,0,0,1-6.54,2.61,10.82,10.82,0,0,1-3.9-.57,6,6,0,0,1-2.37-1.68A7.57,7.57,0,0,1,40,500.45Zm10.59-9.25a3.78,3.78,0,0,0-.85-2.63,2.64,2.64,0,0,0-2.06-1,2.43,2.43,0,0,0-1.9.86,3.87,3.87,0,0,0-.76,2.59,4,4,0,0,0,.79,2.66,2.46,2.46,0,0,0,2,.92,2.61,2.61,0,0,0,2-.89A3.68,3.68,0,0,0,50.54,491.2Z" transform="translate(45.58 -95.56)" style="fill:#fff"/><path d="M224.23,518.49c0,3.84-8.29,7-18.51,7s-18.5-3.12-18.5-7c0-2.77,4.36-5.15,10.61-6.26v1.91c-1.75.72-2.85,1.66-2.85,2.7,0,2.21,4.76,4,10.63,4a26.14,26.14,0,0,0,4.6-.41h.19a3.39,3.39,0,0,0,.73-.18c3.05-.7,5.11-2,5.11-3.4,0-.93-.89-1.79-2.33-2.47v-2.09c6.09,1.14,10.32,3.48,10.32,6.21ZM200.07,475.8a5.65,5.65,0,1,1,5.65,5.86,5.76,5.76,0,0,1-5.65-5.86Zm26.77,2.82a18.91,18.91,0,0,1-15.23,8.69c-.4,0-.8,0-1.19-.05.12,1.49.68,8.32.83,12.62a3.5,3.5,0,0,1,.07.45l1.38,22.1c.09,1.49-5.09,1.78-5.19.35l-1.15-18.61c-.2,0-.38-.06-.57-.06a2.21,2.21,0,0,0-.54.1L204,522.63c-.1,1.42-5.29,1.11-5.19-.38l1.6-23.39a2.68,2.68,0,0,1,0-.3c.23-5.56.5-10.93.52-11.32-.45,0-.89.07-1.33.07a18.9,18.9,0,0,1-15.24-8.69,2.12,2.12,0,0,1,.66-2.86,1.94,1.94,0,0,1,2.75.68c2.55,4.28,9.24,7.83,14.36,6.35a10.35,10.35,0,0,1,3-.55l-1.82,15.92,2.4,2.56,2.11-2.56-1.46-15.88a10.76,10.76,0,0,1,2.84.56c5.1,1.36,11.66-2.17,14.17-6.4a2,2,0,0,1,2.75-.69,2.13,2.13,0,0,1,.66,2.87Zm-2.58,13.71h-.09l.37,4.09-.54.67-.62-.67.46-4.09c-1.11-.08-2.13-.56-4.4-2.77a.61.61,0,0,0-.88,0,.67.67,0,0,0,0,.92c1.81,1.77,3,2.62,4.2,2.95,0,0,0,0,0,.06l-.26,5.07-.64,6.19a.8.8,0,0,0,.69.9h.08a.8.8,0,0,0,.78-.72l.67-6.4,1,6.44a.79.79,0,0,0,.77.69H226a.83.83,0,0,0,.65-.94l-1-6.37s0,0,0,0l-.38-4.83v-.06a11.45,11.45,0,0,0,4.79-2.95.67.67,0,0,0,0-.92.61.61,0,0,0-.88,0,9.1,9.1,0,0,1-4.91,2.76l-.06,0Zm-.28-.21a1.53,1.53,0,1,0-1.46-1.53,1.5,1.5,0,0,0,1.46,1.53Zm3.68,11.21c.68.3,1.1.68,1.1,1.1,0,.61-.86,1.13-2.16,1.43a1.08,1.08,0,0,1-.31.07h-.08a10.73,10.73,0,0,1-2,.17c-2.49,0-4.51-.75-4.51-1.68,0-.45.5-.86,1.29-1.16l.06-.8c-2.73.46-4.64,1.47-4.64,2.65,0,1.62,3.51,2.93,7.85,2.93s7.84-1.31,7.84-2.93c0-1.18-1.89-2.18-4.59-2.64l.1.85Zm-40.47-11a9.12,9.12,0,0,1-4.9-2.76.61.61,0,0,0-.88,0,.67.67,0,0,0,0,.92,11.45,11.45,0,0,0,4.79,2.95v.06l-.38,4.83s0,0,0,0l-1,6.37a.81.81,0,0,0,.63.94h.13a.78.78,0,0,0,.77-.68l1-6.44.67,6.4a.79.79,0,0,0,.77.72h.09a.8.8,0,0,0,.69-.9l-.65-6.19-.25-5.07s0,0,0-.06c1.21-.33,2.39-1.18,4.21-2.95a.68.68,0,0,0,0-.92.6.6,0,0,0-.88,0c-2.27,2.21-3.29,2.69-4.41,2.77l.47,4.09-.62.67-.54-.67.37-4.09h-.08l-.08,0Zm1.81-1.72a1.46,1.46,0,1,0-1.46,1.53,1.5,1.5,0,0,0,1.46-1.53Zm-5,11.89c-2.7.46-4.6,1.46-4.6,2.64,0,1.62,3.52,2.93,7.86,2.93s7.84-1.31,7.84-2.93c0-1.18-1.91-2.19-4.64-2.65l.05.8c.8.3,1.3.71,1.3,1.16,0,.93-2,1.68-4.51,1.68a10.81,10.81,0,0,1-1.95-.17h-.08a1.08,1.08,0,0,1-.31-.07c-1.29-.3-2.16-.82-2.16-1.43,0-.42.41-.8,1.1-1.1l.1-.85Z" transform="translate(45.58 -95.56)" style="fill-rule:evenodd"/><text transform="translate(336.2 405.74)" style="font-size:16.872129440307617px;font-family:MicrosoftJhengHeiRegular, Microsoft JhengHei;letter-spacing:0.050008506809121334em">線下：主辦2場華山特展</text></g><path id="eb70bb3f-5d95-4aff-bb1d-80db8b082453" data-name="g5" d="M337.4,537.07a6,6,0,1,1,8-2.82,6,6,0,0,1-8,2.82Zm5.22-410.69a6,6,0,1,1,2.82-8,6,6,0,0,1-2.82,8Zm-2.16,404.3,5.9,2.84h0l3,1.36h0l3,1.32h0l3,1.28h0l3.06,1.23h0l3.08,1.19h0l3.09,1.14h0l3.12,1.11h0l3.14,1.07h0l3.16,1h0l3.18,1h0l3.2.93h0l3.22.89h0l3.24.85h0l3.26.8h0l3.27.75h0l3.29.71h0l3.31.66h0l3.33.62h0l3.35.57h0l3.36.52h0l3.37.47h0l3.39.42h0l1.7.19h0l1.7.18h0l1.71.17h0l1.71.16h0l1.71.14h0l1.72.14h0l1.72.13h0l1.72.11h0l1.73.1h0l1.73.08h0l1.74.07h0l1.74.06h0l1.74,0h0l1.74,0h0l1.75,0H444l3,0h0l3-.06h0l3-.09h0l3-.13h0l3-.17h0l2.94-.21h0l2.94-.24h0l2.93-.27h0l2.91-.31h0l2.9-.35h0l2.9-.38h0l2.88-.41h0l2.87-.46h0l2.86-.49h0l2.84-.52h0l2.83-.55h0l2.82-.59h0l2.81-.62h0l2.79-.66h0l2.79-.69h0l2.77-.72h0l2.76-.76h0l2.75-.79h0l2.73-.82h0l2.71-.85h0l2.7-.88h0l2.68-.92h0l2.67-1h0l2.65-1h0l2.64-1h0l2.62-1.05h0l2.61-1.07h0l2.6-1.1h0l2.58-1.13h0l2.56-1.16h0l2.54-1.19h0l2.53-1.23h0l2.5-1.25h0l2.49-1.28h0l2.47-1.31h0l2.45-1.34h0l2.44-1.37h0l2.42-1.4h0l2.4-1.43h0l2.38-1.45h0l2.36-1.48h0l2.34-1.5h0l2.32-1.54h0l2.3-1.56h0l2.29-1.59h0l2.26-1.62h0l2.24-1.64h0l2.22-1.67h0l2.2-1.69h0l2.18-1.72h0l2.15-1.74h0l2.14-1.77h0l2.11-1.79h0l2.09-1.82h0l2.06-1.84h0l2-1.87h0l2-1.89h0l2-1.91h0l2-1.94h0l1.95-2h0l1.93-2h0l1.9-2h0l1.89-2h0l1.86-2.05h0L618.4,476h0l1.81-2.09h0l1.79-2.12h0l1.76-2.13h0l1.73-2.16h0l1.71-2.18h0l1.69-2.2h0l1.65-2.22h0l1.62-2.24h0l1.6-2.26h0l1.58-2.28h0l1.55-2.3h0l1.52-2.32v0l1.49-2.34h0l1.47-2.36h0l1.44-2.37h0l1.41-2.4h0l1.38-2.41h0l1.35-2.43h0l1.32-2.45h0l1.3-2.46h0l1.27-2.48h0l1.24-2.5h0l1.21-2.52h0l1.18-2.53h0l1.15-2.55h0l1.12-2.57h0l1.09-2.58h0l1.06-2.6v0l1-2.62h0l1-2.63h0l1-2.64h0l.93-2.66h0l.9-2.67h0l.87-2.69h0l.83-2.7h0l.8-2.71h0l.77-2.73h0l.73-2.74h0l.7-2.76h0l.67-2.77h0l.63-2.78h0l.6-2.79h0l.56-2.81h0l.52-2.82h0l.49-2.83h0l.46-2.84h0l.42-2.86v0l.38-2.87h0l.35-2.88v0l.31-2.89h0l.28-2.9h0L674,344h0l.21-2.92v0l.17-2.94v0l.14-2.94h0l.09-3h0l.06-3v0l0-3h0l0-3h0l-.06-3h0l-.09-3h0l-.14-2.95v0l-.17-2.94v0l-.21-2.93h0l-.24-2.91h0l-.28-2.9h0l-.31-2.89h0l-.35-2.88h0l-.38-2.87h0L672,291.5v0l-.46-2.85h0l-.49-2.84v0l-.52-2.83v0l-.56-2.82v0l-.6-2.8h0l-.63-2.79v0l-.67-2.78h0l-.7-2.76v0l-.73-2.75h0l-.77-2.73h0l-.79-2.72h0l-.83-2.71v0l-.86-2.69h0l-.9-2.68h0l-.93-2.66h0l-1-2.65v0l-1-2.64v0l-1-2.62h0l-1.06-2.6h0l-1.09-2.58h0l-1.12-2.57h0l-1.15-2.55h0l-1.18-2.54h0l-1.21-2.52v0l-1.24-2.51h0l-1.27-2.48h0l-1.3-2.47h0l-1.32-2.45h0l-1.35-2.43h0l-1.38-2.41h0l-1.41-2.4h0l-1.44-2.37h0l-1.47-2.36h0L638.31,203h0l-1.52-2.32h0l-1.55-2.3h0l-1.58-2.28h0l-1.6-2.27v0l-1.62-2.25h0l-1.65-2.22h0l-1.69-2.2h0l-1.71-2.18h0L623.72,183h0L622,180.83h0l-1.79-2.11h0l-1.81-2.1h0l-1.83-2.07h0l-1.86-2.05h0l-1.89-2h0l-1.91-2h0l-1.93-2h0l-1.95-2h0l-2-1.94h0l-2-1.91h0l-2-1.89h0L599.06,157h0L597,155.2h0l-2.09-1.82h0l-2.11-1.79h0l-2.14-1.76h0l-2.15-1.74h0l-2.18-1.72h0l-2.2-1.69h0L582,143.06h0l-2.24-1.64h0l-2.26-1.62h0l-2.29-1.59h0l-2.3-1.56h0l-2.32-1.54h0l-2.34-1.51h0l-2.36-1.48h0l-2.38-1.46h0l-2.4-1.42h0l-2.42-1.39h0l-2.44-1.36h0l-2.45-1.34h0l-2.47-1.31h0L549,122.66h0l-2.5-1.26h0L544,120.2h0L541.43,119h0l-2.56-1.16h0l-2.58-1.13h0l-2.6-1.11h0l-2.61-1.08h0l-2.62-1h0l-2.64-1h0l-2.65-1h0l-2.67-1h0l-2.68-.92h0l-2.7-.89h0l-2.71-.85h0l-2.73-.82h0l-2.75-.78h0l-2.76-.76h0l-2.77-.73h0l-2.78-.69h0l-2.79-.66h0l-2.81-.62h0l-2.82-.59h0l-2.83-.55h0l-2.84-.52h0l-2.86-.49h0l-2.87-.45h0l-2.88-.41h0l-2.9-.38h0l-2.9-.35h0l-2.91-.31h0l-2.93-.27h0l-2.94-.24h0l-2.94-.21h0l-3-.17h0l-3-.13h0l-3-.09h0l-3-.06h0l-3,0h-1.73l-1.75,0h0l-1.74,0h0l-1.74,0h0l-1.74.06h0l-1.74.07h0l-1.73.08h0l-1.73.1h0l-1.72.1h0l-1.72.12h0l-1.72.14h0l-1.71.14h0l-1.71.16h0l-1.71.17h0l-1.7.18h0l-1.7.19h0l-3.39.42h0l-3.37.47h0l-3.36.52h0l-3.35.57h0l-3.33.62h0l-3.31.67h0l-3.29.71h0l-3.27.75h0l-3.26.8h0l-3.24.85h0l-3.22.89h0l-3.2.93h0l-3.18,1h0l-3.16,1h0l-3.14,1.07h0l-3.12,1.11h0l-3.09,1.15h0l-3.08,1.19h0l-3.06,1.23h0l-3,1.28h0l-3,1.32h0l-3,1.36h0l-5.9,2.83h0l-.91-1.9h0l5.91-2.84,3-1.36,3-1.32,3-1.29,3.06-1.23,3.1-1.2,3.11-1.16,3.13-1.11,3.16-1.07,3.17-1,3.2-1,3.22-.93,3.23-.9,3.26-.84,3.27-.81,3.29-.75,3.31-.71,3.32-.67,3.34-.61,3.36-.57,3.38-.53,3.39-.47,3.4-.43,1.71-.19,1.71-.18,1.72-.17,1.71-.16,1.73-.15,1.72-.13,1.73-.12L430,96l1.74-.1,1.73-.08,1.75-.07,1.74-.06,1.75,0,1.75,0,1.75,0H444l3,0,3,.06,3,.09,3,.13,3,.17,3,.2,2.95.24,2.94.28,2.93.31,2.92.35,2.91.39,2.89.42,2.89.45,2.87.49,2.86.52,2.85.56,2.83.6,2.82.62,2.81.66,2.8.7,2.78.72,2.77.76,2.76.8,2.74.82,2.72.86,2.71.89,2.7.92,2.68,1,2.67,1,2.65,1,2.64,1,2.61,1.08,2.61,1.11,2.58,1.14,2.57,1.16,2.56,1.2,2.53,1.23,2.52,1.26,2.5,1.29,2.48,1.32,2.47,1.34,2.45,1.38,2.42,1.4,2.41,1.43,2.39,1.46,2.38,1.48,2.35,1.52,2.33,1.54,2.31,1.57,2.29,1.59,2.28,1.62,2.25,1.65,2.23,1.67,2.21,1.7,2.19,1.73,2.16,1.75,2.15,1.77,2.12,1.8,2.1,1.83,2.08,1.85,2.06,1.87,2,1.9,2,1.92,2,1.94,2,2,1.94,2,1.91,2,1.89,2,1.87,2.06,1.84,2.08,1.82,2.1,1.79,2.13,1.77,2.15,1.74,2.16,1.72,2.19,1.68,2.22,1.67,2.23,1.63,2.25,1.61,2.27,1.59,2.29,1.55,2.32,1.53,2.33,1.5,2.35,1.47,2.37L644.5,209l1.41,2.4,1.39,2.43,1.36,2.44,1.33,2.47,1.3,2.48,1.27,2.49,1.24,2.52,1.21,2.53,1.18,2.55,1.15,2.56,1.12,2.58,1.09,2.6,1.06,2.62,1,2.62,1,2.65,1,2.66.93,2.67.9,2.69.87,2.71.83,2.72.8,2.73.77,2.75.73,2.76.7,2.77.67,2.79.63,2.8.6,2.81.57,2.83.53,2.84.49,2.85.46,2.86.43,2.87.38,2.89.36,2.89.31,2.91.28,2.92.25,2.93.2,2.94.17,2.94.13,3,.1,3,.06,3v6l-.06,3-.1,3-.13,3-.17,2.94-.2,2.94-.25,2.92-.28,2.92-.31,2.9-.36,2.89-.38,2.89-.43,2.87-.46,2.86-.49,2.84-.53,2.84-.57,2.82-.6,2.81-.63,2.8-.67,2.78-.7,2.77-.73,2.76-.77,2.74-.8,2.74L666.3,395l-.87,2.7-.9,2.69-.93,2.67-1,2.66-1,2.64-1,2.63-1.06,2.61-1.09,2.6-1.12,2.58-1.15,2.56L655,423.88l-1.21,2.53-1.24,2.51-1.27,2.49-1.3,2.48-1.33,2.46-1.36,2.44-1.39,2.43-1.41,2.4L643.05,446l-1.47,2.37-1.5,2.35-1.53,2.33L637,455.37l-1.59,2.29-1.61,2.27-1.63,2.25-1.67,2.23-1.68,2.21-1.72,2.19L625.36,471l-1.77,2.14-1.79,2.13-1.82,2.1-1.84,2.08-1.87,2.06-1.89,2-1.91,2-1.94,2-2,2-2,1.94-2,1.92-2,1.9-2.06,1.87L598.4,499l-2.1,1.82-2.12,1.8L592,504.38l-2.16,1.75-2.19,1.72-2.21,1.7-2.23,1.67L581,512.87l-2.28,1.62-2.29,1.59-2.31,1.57-2.33,1.54-2.35,1.51-2.38,1.49-2.39,1.46-2.41,1.43-2.42,1.4-2.45,1.37-2.47,1.35-2.48,1.31-2.5,1.29-2.52,1.26-2.53,1.23-2.56,1.2-2.57,1.17-2.58,1.14-2.61,1.11L532,540l-2.64,1-2.65,1L524,543l-2.68,1-2.7.92-2.71.89-2.72.86-2.74.82-2.76.8-2.77.76-2.78.72-2.8.7-2.81.66-2.82.62-2.83.6-2.85.56-2.86.52-2.87.49-2.89.45-2.89.42-2.91.39-2.92.35-2.93.31-2.94.28-2.95.24-3,.2-3,.17-3,.13-3,.09-3,.06-3,0H442.2l-1.75,0-1.75,0-1.75,0-1.74-.06-1.75-.07-1.73-.08-1.74-.1-1.73-.11-1.73-.12-1.72-.13-1.73-.15-1.71-.16-1.72-.17-1.71-.18-1.71-.19-3.4-.43-3.39-.47-3.38-.53-3.36-.57-3.34-.61-3.32-.67-3.31-.71-3.29-.75-3.27-.81-3.26-.84-3.23-.9-3.22-.94-3.2-1-3.17-1-3.16-1.07L363.8,543l-3.11-1.16-3.1-1.2-3.06-1.24-3-1.28-3-1.32-3-1.36-5.91-2.84h0l.91-1.91Z" transform="translate(45.58 -95.56)" style="fill:#bfbfbf"/><g id="ef343f07-9871-4e67-b32a-dd10f5eba2c0" data-name="g6"><line x1="643.02" y1="54.33" x2="894.01" y2="54.33" style="fill:none;stroke:#d1282e;stroke-miterlimit:8;stroke-width:0.750656187534332px"/><path d="M583.5,149.84a6.72,6.72,0,0,1,6.86-7.1,7.11,7.11,0,1,1,0,14.22,6.72,6.72,0,0,1-6.86-7.12" transform="translate(45.58 -95.56)" style="fill:#d1282e;fill-rule:evenodd"/><path d="M583.22,149.85a7.14,7.14,0,1,1,7.14,7.11,7.13,7.13,0,0,1-7.14-7.11" transform="translate(45.58 -95.56)" style="fill:none;stroke:#fff;stroke-miterlimit:8;stroke-width:1.50131237506866px"/><path d="M706.9,130.84c-.29-5.07,3.28-9.28,7.69-9H906c4.52-.24,8.1,4,8.46,9v38c-.36,4.93-3.94,9.14-8.46,9H714.59c-4.41.1-8-4.11-7.69-9v-38Z" transform="translate(45.58 -95.56)" style="fill:red;fill-rule:evenodd"/><text transform="translate(774.9 63.21)" style="font-size:25.308189392089844px;fill:#fff;font-family:MicrosoftJhengHeiBold, Microsoft JhengHei;letter-spacing:0.05901199783813737em">線下引流線<tspan x="134.01" y="0" style="letter-spacing:0.049974820158736756em">上</tspan></text></g><g id="eac0ca17-f319-41f9-8cf6-1a695d59f050" data-name="g7"><line x1="719.89" y1="171.95" x2="894.81" y2="171.95" style="fill:none;stroke:#d1282e;stroke-miterlimit:8;stroke-width:0.750656187534332px"/><path d="M660.33,267.44a6.77,6.77,0,0,1,6.9-6.94,7,7,0,1,1,0,14,6.8,6.8,0,0,1-6.9-7.08" transform="translate(45.58 -95.56)" style="fill:#d1282e;fill-rule:evenodd"/><path d="M660.15,267.51a7.08,7.08,0,1,1,7.08,7,7,7,0,0,1-7.08-7" transform="translate(45.58 -95.56)" style="fill:none;stroke:#fff;stroke-miterlimit:8;stroke-width:1.50131237506866px"/><path d="M706.9,248.45c-.29-5,3.28-9.25,7.69-9H906c4.52-.2,8.1,4,8.46,9v38c-.36,5-3.94,9.17-8.46,9.05H714.59c-4.41.12-8-4.09-7.69-9.05v-38Z" transform="translate(45.58 -95.56)" style="fill:red;fill-rule:evenodd"/><text transform="translate(774.9 182.05)" style="font-size:25.308189392089844px;fill:#fff;font-family:MicrosoftJhengHeiBold, Microsoft JhengHei;letter-spacing:0.05901199783813737em">吸引新客上<tspan x="134.01" y="0" style="letter-spacing:0.049974820158736756em">門</tspan></text></g><g id="ade4cd2b-5752-4034-a6f6-39b6e670ba5b" data-name="g8"><line x1="719.89" y1="289.57" x2="894.81" y2="289.57" style="fill:none;stroke:#d1282e;stroke-miterlimit:8;stroke-width:0.750656187534332px"/><path d="M660.33,385.05a6.76,6.76,0,0,1,6.9-6.92,7,7,0,1,1,0,14,6.8,6.8,0,0,1-6.9-7.09" transform="translate(45.58 -95.56)" style="fill:#d1282e;fill-rule:evenodd"/><path d="M660.15,385.14a7.08,7.08,0,1,1,7.08,7,7,7,0,0,1-7.08-7" transform="translate(45.58 -95.56)" style="fill:none;stroke:#fff;stroke-miterlimit:8;stroke-width:1.50131237506866px"/><path d="M706.9,359.72c-.29-5,3.28-9.16,7.69-9.05H906c4.52-.11,8.1,4.1,8.46,9.05v38c-.36,5-3.94,9.25-8.46,9H714.59c-4.41.21-8-4-7.69-9v-38Z" transform="translate(45.58 -95.56)" style="fill:red;fill-rule:evenodd"/><text transform="translate(774.9 293.41)" style="font-size:25.308189392089844px;fill:#fff;font-family:MicrosoftJhengHeiBold, Microsoft JhengHei;letter-spacing:0.05901199783813737em">刺激舊客回<tspan x="134.01" y="0" style="letter-spacing:0.049974820158736756em">購</tspan></text></g><g id="b514d566-8821-4bc2-9040-d50417666535" data-name="g9"><line x1="643.02" y1="407.2" x2="894.01" y2="407.2" style="fill:none;stroke:#d1282e;stroke-miterlimit:8;stroke-width:0.750656187534332px"/><path d="M583.5,502.66a6.69,6.69,0,0,1,6.86-7,7.11,7.11,0,1,1,0,14.22,6.75,6.75,0,0,1-6.86-7.24" transform="translate(45.58 -95.56)" style="fill:#d1282e;fill-rule:evenodd"/><path d="M583.22,502.79a7.14,7.14,0,1,1,7.14,7.11,7.13,7.13,0,0,1-7.14-7.11" transform="translate(45.58 -95.56)" style="fill:none;stroke:#fff;stroke-miterlimit:8;stroke-width:1.50131237506866px"/><path d="M706.9,483.66c-.29-5,3.28-9.24,7.69-9.05H906c4.52-.19,8.1,4,8.46,9.05v38c-.36,5-3.94,9.18-8.46,9.05H714.59c-4.41.13-8-4.08-7.69-9.05v-38Z" transform="translate(45.58 -95.56)" style="fill:red;fill-rule:evenodd"/><text transform="translate(774.9 417.28)" style="font-size:25.308189392089844px;fill:#fff;font-family:MicrosoftJhengHeiBold, Microsoft JhengHei;letter-spacing:0.05901199783813737em">降低獲客成<tspan x="134.01" y="0" style="letter-spacing:0.049974820158736756em">本</tspan></text></g></svg>