<?xml version="1.0" encoding="utf-8"?>
<!-- Generator: Adobe Illustrator 13.0.1, SVG Export Plug-In . SVG Version: 6.00 Build 14948)  -->
<!DOCTYPE svg PUBLIC "-//W3C//DTD SVG 1.0//EN" "http://www.w3.org/TR/2001/REC-SVG-20010904/DTD/svg10.dtd">
<svg version="1.0" xmlns="http://www.w3.org/2000/svg" xmlns:xlink="http://www.w3.org/1999/xlink" x="0px" y="0px" width="120px"
	 height="120px" viewBox="0 0 120 120" enable-background="new 0 0 120 120" xml:space="preserve">
<g id="圖層_2_3_" display="none">
	<rect x="-0.5" y="0.5" display="inline" stroke="#FFFFFF" width="120" height="120"/>
</g>
<g id="圖層_1" display="none">
	<g id="圖層_2_2_">
		<rect x="-0.5" y="0.5" display="inline" stroke="#FFFFFF" width="121" height="119"/>
		<circle display="inline" fill="none" stroke="#FFFFFF" stroke-width="2" cx="58.5" cy="60.5" r="59"/>
	</g>
	<g id="圖層_1_3_" display="inline">
		<g id="圖層_2_1_" display="none">
			<circle display="inline" fill="#231F20" cx="59.5" cy="59.5" r="60"/>
		</g>
		<g id="圖層_1_2_" display="none">
			<g id="圖層_2" display="inline">
				<circle stroke="#FFFFFF" cx="60.416" cy="60.416" r="61.059"/>
			</g>
			<g id="圖層_1_1_" display="inline">
				<g>
					<g>
						<rect x="52.817" y="81.457" fill="#FFFFFF" width="19" height="2"/>
					</g>
					<g>
						<rect x="50.817" y="77.457" fill="#FFFFFF" width="23" height="2"/>
					</g>
					<g>
						<path fill="#FFFFFF" d="M40.817,83.457c-5.514,0-10-4.486-10-10s4.486-10,10-10h43c0.556,0,1,0.447,1,1c0,2.757-2.24,5-5,5
							h-39c-2.206,0-4,1.795-4,4s1.794,4,4,4h2v2h-2c-3.309,0-6-2.691-6-6s2.691-6,6-6h39c1.307,0,2.416-0.836,2.83-2h-41.83
							c-4.411,0-8,3.589-8,8s3.589,8,8,8V83.457z"/>
					</g>
					<g>
						<g>
							<path fill="#FFFFFF" d="M77.816,89.457c-3.858,0-7-3.141-7-7s3.142-7,7-7c3.857,0,7,3.141,7,7S81.677,89.457,77.816,89.457z
								 M77.816,77.457c-2.756,0-5,2.243-5,5s2.244,5,5,5c2.758,0,5-2.243,5-5S80.574,77.457,77.816,77.457z"/>
						</g>
					</g>
					<g>
						<g>
							<path fill="#FFFFFF" d="M46.817,89.457c-3.859,0-7-3.141-7-7s3.141-7,7-7s7,3.141,7,7S50.677,89.457,46.817,89.457z
								 M46.817,77.457c-2.757,0-5,2.243-5,5s2.243,5,5,5c2.757,0,5-2.243,5-5S49.574,77.457,46.817,77.457z"/>
						</g>
					</g>
					<g>
						<path fill="#FFFFFF" d="M83.816,65.457h-43c-0.553,0-1-0.447-1-1v-22h2v21h41.3l7.271-20h-46.57v-2h48
							c0.326,0,0.635,0.159,0.82,0.426c0.188,0.268,0.231,0.609,0.119,0.916l-8,22C84.613,65.193,84.238,65.457,83.816,65.457z"/>
					</g>
					<g>
						<path fill="#FFFFFF" d="M37.817,65.457h-2v-32c0-1.103-0.897-2-2-2v-2c2.206,0,4,1.794,4,4V65.457z"/>
					</g>
					<g>
						<path fill="#FFFFFF" d="M41.817,42.457h-2v-9c0-1.103-0.897-2-2-2v-2c2.206,0,4,1.794,4,4V42.457z"/>
					</g>
					<g>
						<rect x="28.817" y="29.457" fill="#FFFFFF" width="9" height="2"/>
					</g>
					<g>
						<rect x="28.817" y="87.457" fill="#FFFFFF" width="64" height="2"/>
					</g>
					<g>
						<path fill="#FFFFFF" d="M80.816,51.457c-1.487,0-2.203-0.76-2.729-1.314c-0.431-0.456-0.646-0.686-1.271-0.686
							s-0.842,0.229-1.271,0.686c-0.523,0.555-1.238,1.314-2.729,1.314c-1.485,0-2.203-0.76-2.729-1.313
							c-0.433-0.457-0.646-0.687-1.271-0.687c-0.623,0-0.84,0.229-1.272,0.688c-0.522,0.554-1.239,1.313-2.728,1.313
							c-1.484,0-2.203-0.759-2.729-1.313c-0.433-0.458-0.646-0.688-1.271-0.688c-0.625,0-0.84,0.229-1.272,0.688
							c-0.523,0.554-1.24,1.313-2.727,1.313s-2.203-0.759-2.727-1.313c-0.432-0.458-0.648-0.688-1.273-0.688
							c-0.624,0-0.841,0.229-1.273,0.688c-0.523,0.554-1.24,1.313-2.727,1.313c-1.485,0-2.203-0.759-2.727-1.313
							c-0.433-0.458-0.649-0.688-1.273-0.688v-2c1.485,0,2.203,0.759,2.727,1.313c0.433,0.458,0.649,0.688,1.273,0.688
							s0.841-0.229,1.273-0.688c0.523-0.554,1.24-1.313,2.727-1.313s2.204,0.76,2.728,1.313c0.432,0.457,0.648,0.687,1.272,0.687
							s0.841-0.229,1.273-0.688c0.523-0.554,1.24-1.313,2.727-1.313c1.485,0,2.203,0.759,2.729,1.313
							c0.435,0.458,0.647,0.688,1.271,0.688c0.625,0,0.844-0.229,1.273-0.688c0.523-0.554,1.24-1.313,2.727-1.313
							c1.488,0,2.205,0.76,2.729,1.313c0.435,0.457,0.646,0.687,1.271,0.687s0.845-0.229,1.272-0.686
							c0.522-0.555,1.239-1.314,2.728-1.314c1.49,0,2.205,0.76,2.729,1.314c0.433,0.456,0.646,0.686,1.271,0.686
							s0.844-0.229,1.273-0.688c0.523-0.554,1.24-1.313,2.727-1.313v2c-0.623,0-0.84,0.229-1.271,0.688
							C83.021,50.698,82.305,51.457,80.816,51.457z"/>
					</g>
					<g>
						<path fill="#FFFFFF" d="M80.816,59.457c-1.487,0-2.203-0.76-2.729-1.314c-0.431-0.456-0.646-0.686-1.271-0.686
							s-0.842,0.229-1.271,0.686c-0.523,0.555-1.238,1.314-2.729,1.314c-1.485,0-2.203-0.76-2.729-1.313
							c-0.433-0.457-0.646-0.687-1.271-0.687c-0.623,0-0.84,0.229-1.272,0.688c-0.522,0.554-1.239,1.313-2.728,1.313
							c-1.484,0-2.203-0.759-2.729-1.313c-0.433-0.458-0.646-0.688-1.271-0.688c-0.625,0-0.84,0.229-1.272,0.688
							c-0.523,0.554-1.24,1.313-2.727,1.313s-2.203-0.759-2.727-1.313c-0.432-0.458-0.648-0.688-1.273-0.688
							c-0.624,0-0.841,0.229-1.273,0.688c-0.523,0.554-1.24,1.313-2.727,1.313c-1.485,0-2.203-0.759-2.727-1.313
							c-0.433-0.458-0.649-0.688-1.273-0.688v-2c1.485,0,2.203,0.759,2.727,1.313c0.433,0.458,0.649,0.688,1.273,0.688
							s0.841-0.229,1.273-0.688c0.523-0.554,1.24-1.313,2.727-1.313s2.204,0.76,2.728,1.313c0.432,0.457,0.648,0.687,1.272,0.687
							s0.841-0.229,1.273-0.688c0.523-0.554,1.24-1.313,2.727-1.313c1.485,0,2.203,0.759,2.729,1.313
							c0.435,0.458,0.647,0.688,1.271,0.688c0.625,0,0.844-0.229,1.273-0.688c0.523-0.554,1.24-1.313,2.727-1.313
							c1.488,0,2.205,0.76,2.729,1.313c0.435,0.457,0.646,0.687,1.271,0.687s0.845-0.229,1.272-0.686
							c0.522-0.555,1.239-1.314,2.728-1.314c1.49,0,2.205,0.76,2.729,1.314c0.433,0.456,0.646,0.686,1.271,0.686V59.457
							L80.816,59.457z"/>
					</g>
				</g>
				<g>
					<circle fill="#FFFFFF" cx="43.765" cy="86.668" r="2"/>
				</g>
				<g>
					<circle fill="#FFFFFF" cx="74.766" cy="86.668" r="2"/>
				</g>
				<g>
					<path fill="#FFFFFF" d="M72.766,43.668h-2v-4h-24v4h-2v-5c0-0.552,0.447-1,1-1h26c0.553,0,1,0.448,1,1V43.668z"/>
				</g>
				<g>
					<path fill="#FFFFFF" d="M79.766,43.668h-2v-12h-16v4h-2v-5c0-0.552,0.447-1,1-1h18c0.553,0,1,0.448,1,1V43.668z"/>
				</g>
				<g>
					<path fill="#FFFFFF" d="M71.766,35.668h-4c-0.554,0-1-0.448-1-1v-4c0-0.552,0.446-1,1-1h4c0.553,0,1,0.448,1,1v4
						C72.766,35.22,72.316,35.668,71.766,35.668z M68.766,33.668h2v-2h-2V33.668z"/>
				</g>
			</g>
			<g id="圖層_3" display="inline">
				<g>
					<path fill="#FFFFFF" d="M87.85,48.772c-7.179,0.002-12.998,5.819-13,13.001c0.002,7.178,5.819,12.998,13,13
						c7.181-0.002,13-5.822,13.002-13C100.85,54.592,95.027,48.774,87.85,48.772z M87.85,72.771
						c-6.074-0.011-10.987-4.924-11-10.998c0.013-6.08,4.926-10.989,11-11.002c6.075,0.013,10.988,4.926,11,11.002
						C98.838,67.848,93.922,72.762,87.85,72.771z M94.741,44.469l-0.003-8.824c0-3.829-3.103-6.933-6.932-6.933H27.001
						c-3.828,0-6.932,3.104-6.932,6.933v42.02c0,3.825,3.104,6.931,6.932,6.931h21.49c0.006,0.61,0.016,1.25,0.016,1.881
						c0.002,0.992-0.037,1.946-0.146,2.487c-0.134,0.707-0.257,0.959-0.277,0.97c0.002,0.012-0.071,0.078-0.509,0.313
						c-0.281,0.157-0.781,0.392-1.273,0.608h-1.997v1.998h2.324l0.016,0.037c0.027-0.015,0.057-0.022,0.085-0.037h21.25
						c0.035,0.017,0.067,0.03,0.104,0.047l0.021-0.047h2.399v-1.998H68.4c-0.489-0.22-0.987-0.453-1.276-0.61
						c-0.425-0.229-0.456-0.279-0.456-0.281c-0.018-0.008-0.141-0.282-0.273-1c-0.107-0.543-0.147-1.489-0.146-2.476
						c-0.002-0.633,0.009-1.276,0.017-1.893H82.85v11.428h10V79.709c7.86-2.188,13.638-9.379,13.638-17.938
						C106.486,53.916,101.618,47.21,94.741,44.469z M22.069,35.645c0.004-2.724,2.209-4.929,4.932-4.933h60.806
						c2.729,0.004,4.928,2.209,4.938,4.933v8.163c-0.699-0.189-1.413-0.337-2.146-0.445l-7.92-5.471l-0.025,0.039
						c-0.133-2.09-1.853-3.746-3.975-3.748c-2.21,0.002-3.998,1.79-4,4c0,0.434,0.088,0.844,0.215,1.235l-12.098,7.009
						c-0.615-0.386-1.338-0.619-2.117-0.619c-2.21,0.002-4,1.791-4,4.001c0,0.682,0.188,1.314,0.488,1.877l-0.079-0.078
						l-5.242,5.363c-0.708-0.639-1.637-1.037-2.666-1.039c-1.098,0.002-2.09,0.445-2.813,1.16l-5.324-5.219
						c0.241-0.516,0.387-1.084,0.387-1.689c-0.002-2.211-1.791-4-4-4.002c-2.211,0.002-4,1.791-4,4.002
						c0,0.945,0.342,1.801,0.89,2.486L26.25,63.588l1.607,1.189L35.91,53.88c0.468,0.192,0.979,0.303,1.518,0.304
						c0.874,0,1.677-0.289,2.335-0.765l5.571,5.464c-0.092,0.337-0.156,0.684-0.157,1.05c0,2.209,1.792,3.999,4.001,4
						c2.209-0.002,3.998-1.791,3.998-4c0-0.498-0.102-0.97-0.268-1.409l0.109,0.107l5.401-5.524c0.644,0.44,1.42,0.701,2.258,0.702
						c2.209-0.002,4-1.791,4.002-4h-0.002c0-0.683-0.188-1.315-0.488-1.878l11.775-6.824c0.715,0.662,1.663,1.076,2.713,1.076
						c1.551,0,2.879-0.889,3.543-2.178l4.61,3.185c-9.815,0.532-17.615,8.635-17.615,18.582c0,3.748,1.106,7.234,3.015,10.152
						h-50.16V35.645z M80.678,38.183c-0.003,1.105-0.896,1.998-2,2c-1.104-0.002-1.998-0.895-2-2c0.002-1.104,0.897-1.998,2-2
						C79.779,36.185,80.675,37.079,80.678,38.183z M62.678,49.809c-0.002,1.104-0.896,1.997-2,1.999
						c-1.104-0.002-1.998-0.896-2-1.999c0.002-1.104,0.896-1.998,2-2C61.779,47.811,62.676,48.704,62.678,49.809z M51.177,59.933
						c-0.002,1.104-0.896,1.997-1.999,1.999c-1.104-0.002-1.999-0.895-2.001-1.999c0.002-1.103,0.896-1.997,2.001-2.001
						C50.28,57.936,51.175,58.83,51.177,59.933z M39.427,50.184c-0.002,1.104-0.896,1.997-1.999,1.999
						c-1.104-0.002-1.999-0.896-2.001-1.999c0.002-1.104,0.897-1.999,2.001-2.001C38.531,48.185,39.425,49.078,39.427,50.184z
						 M49.851,90.854c0.229-0.416,0.342-0.871,0.472-1.504c0.158-0.824,0.183-1.832,0.185-2.875c0-0.643-0.012-1.289-0.018-1.881
						h13.771c-0.008,0.6-0.018,1.238-0.018,1.893c0.002,1.035,0.022,2.037,0.188,2.867c0.133,0.638,0.232,1.082,0.454,1.5H49.851z
						 M82.85,82.594H27.001c-2.723-0.004-4.928-2.209-4.932-4.93v-3.74H73.75c2.368,2.738,5.512,4.787,9.1,5.785V82.594z
						 M90.852,94.023H84.85V80.145c0.979,0.158,1.979,0.268,3,0.268c1.024,0,2.021-0.104,3.002-0.268V94.023z M87.85,78.408
						c-9.188-0.018-16.617-7.447-16.634-16.637c0.017-9.188,7.445-16.622,16.634-16.636c9.188,0.017,16.621,7.449,16.638,16.636
						C104.471,70.961,97.037,78.391,87.85,78.408z"/>
				</g>
			</g>
		</g>
		<g id="圖層_4" display="none">
			<g display="inline">
				<path fill="none" stroke="#FFFFFF" stroke-width="2" d="M30.746,60.583v16.606v0.994V82.5c0,1.102,0.888,1.988,1.985,1.988h4.32
					h0.547h43.05h0.549h4.315c1.099,0,1.985-0.889,1.985-1.988v-4.314v-0.996V60.583"/>
				<line fill="none" stroke="#FFFFFF" stroke-width="2" x1="72.859" y1="46.852" x2="45.418" y2="46.852"/>
				<path fill="none" stroke="#FFFFFF" stroke-width="2" d="M38.355,46.852h-9.503c-1.097,0-1.986,0.889-1.986,1.987v6.047
					c0,1.1,0.889,1.988,1.986,1.988h60.539c1.101,0,1.985-0.888,1.985-1.988v-6.047c0-1.099-0.888-1.987-1.985-1.987h-8.973"/>
				<g>
					<path fill="none" stroke="#FFFFFF" stroke-width="2" d="M39.883,52.277c-0.555,0-1.113-0.176-1.595-0.53
						c-1.186-0.882-1.421-2.554-0.542-3.739l15.092-20.217c0.882-1.182,2.559-1.423,3.741-0.544c1.181,0.88,1.422,2.556,0.544,3.738
						L42.026,51.2C41.504,51.904,40.698,52.277,39.883,52.277L39.883,52.277z"/>
				</g>
				<g>
					<path fill="none" stroke="#FFFFFF" stroke-width="2" d="M78.355,52.277c0.56,0,1.114-0.176,1.594-0.53
						c1.188-0.882,1.426-2.554,0.542-3.739L65.402,27.791c-0.881-1.182-2.561-1.423-3.737-0.544
						c-1.182,0.88-1.425,2.556-0.548,3.738L76.216,51.2C76.738,51.904,77.543,52.277,78.355,52.277L78.355,52.277z"/>
				</g>
				<line fill="none" stroke="#FFFFFF" stroke-width="2" x1="36.734" y1="79.859" x2="36.734" y2="60.801"/>
				<line fill="none" stroke="#FFFFFF" stroke-width="2" x1="43.088" y1="79.859" x2="43.088" y2="60.801"/>
				<line fill="none" stroke="#FFFFFF" stroke-width="2" x1="49.44" y1="79.859" x2="49.44" y2="60.801"/>
				<line fill="none" stroke="#FFFFFF" stroke-width="2" x1="55.794" y1="79.859" x2="55.794" y2="60.801"/>
				<line fill="none" stroke="#FFFFFF" stroke-width="2" x1="62.146" y1="79.859" x2="62.146" y2="60.801"/>
				<line fill="none" stroke="#FFFFFF" stroke-width="2" x1="68.499" y1="79.859" x2="68.499" y2="60.801"/>
				<line fill="none" stroke="#FFFFFF" stroke-width="2" x1="74.854" y1="79.859" x2="74.854" y2="60.801"/>
				<line fill="none" stroke="#FFFFFF" stroke-width="2" x1="81.206" y1="79.859" x2="81.206" y2="60.801"/>
			</g>
		</g>
		<g id="圖層_5" display="none">
			<g display="inline">
				<g>
					<g>
						<rect x="30.5" y="56.275" fill="#FFFFFF" width="2" height="7"/>
					</g>
					<g>
						<polygon fill="#FFFFFF" points="86.5,85.275 44.5,85.275 44.5,83.275 84.5,83.275 84.5,56.275 86.5,56.275 						"/>
					</g>
					<g>
						<path fill="#FFFFFF" d="M31.5,57.275c-2.205,0-4-1.795-4-4v-12h6v2h-4v10c0,1.104,0.896,2,2,2s2-0.896,2-2v-5h2v5
							C35.5,55.48,33.705,57.275,31.5,57.275z"/>
					</g>
					<g>
						<path fill="#FFFFFF" d="M37.5,57.275c-2.205,0-4-1.795-4-4h2c0,1.104,0.896,2,2,2s2-0.896,2-2v-5h2v5
							C41.5,55.48,39.705,57.275,37.5,57.275z"/>
					</g>
					<g>
						<path fill="#FFFFFF" d="M43.5,57.275c-2.205,0-4-1.795-4-4h2c0,1.104,0.896,2,2,2s2-0.896,2-2v-5h2v5
							C47.5,55.48,45.705,57.275,43.5,57.275z"/>
					</g>
					<g>
						<path fill="#FFFFFF" d="M43.5,57.275c-2.205,0-4-1.795-4-4h2c0,1.104,0.896,2,2,2s2-0.896,2-2v-5h2v5
							C47.5,55.48,45.705,57.275,43.5,57.275z"/>
					</g>
					<g>
						<path fill="#FFFFFF" d="M49.5,57.275c-2.205,0-4-1.795-4-4h2c0,1.104,0.896,2,2,2s2-0.896,2-2v-5h2v5
							C53.5,55.48,51.705,57.275,49.5,57.275z"/>
					</g>
					<g>
						<path fill="#FFFFFF" d="M49.5,57.275c-2.205,0-4-1.795-4-4h2c0,1.104,0.896,2,2,2s2-0.896,2-2v-5h2v5
							C53.5,55.48,51.705,57.275,49.5,57.275z"/>
					</g>
					<g>
						<path fill="#FFFFFF" d="M55.5,57.275c-2.205,0-4-1.795-4-4h2c0,1.104,0.896,2,2,2s2-0.896,2-2v-5h2v5
							C59.5,55.48,57.705,57.275,55.5,57.275z"/>
					</g>
					<g>
						<path fill="#FFFFFF" d="M55.5,57.275c-2.205,0-4-1.795-4-4h2c0,1.104,0.896,2,2,2s2-0.896,2-2v-5h2v5
							C59.5,55.48,57.705,57.275,55.5,57.275z"/>
					</g>
					<g>
						<path fill="#FFFFFF" d="M61.5,57.275c-2.205,0-4-1.795-4-4h2c0,1.104,0.896,2,2,2c1.104,0,2-0.896,2-2v-5h2v5
							C65.5,55.48,63.705,57.275,61.5,57.275z"/>
					</g>
					<g>
						<path fill="#FFFFFF" d="M61.5,57.275c-2.205,0-4-1.795-4-4h2c0,1.104,0.896,2,2,2c1.104,0,2-0.896,2-2v-5h2v5
							C65.5,55.48,63.705,57.275,61.5,57.275z"/>
					</g>
					<g>
						<path fill="#FFFFFF" d="M67.5,57.275c-2.205,0-4-1.795-4-4h2c0,1.104,0.896,2,2,2s2-0.896,2-2v-5h2v5
							C71.5,55.48,69.705,57.275,67.5,57.275z"/>
					</g>
					<g>
						<path fill="#FFFFFF" d="M67.5,57.275c-2.205,0-4-1.795-4-4h2c0,1.104,0.896,2,2,2s2-0.896,2-2v-5h2v5
							C71.5,55.48,69.705,57.275,67.5,57.275z"/>
					</g>
					<g>
						<path fill="#FFFFFF" d="M73.5,57.275c-2.205,0-4-1.795-4-4h2c0,1.104,0.896,2,2,2s2-0.896,2-2v-5h2v5
							C77.5,55.48,75.705,57.275,73.5,57.275z"/>
					</g>
					<g>
						<path fill="#FFFFFF" d="M73.5,57.275c-2.205,0-4-1.795-4-4h2c0,1.104,0.896,2,2,2s2-0.896,2-2v-5h2v5
							C77.5,55.48,75.705,57.275,73.5,57.275z"/>
					</g>
					<g>
						<path fill="#FFFFFF" d="M79.5,57.275c-2.205,0-4-1.795-4-4h2c0,1.104,0.896,2,2,2s2-0.896,2-2v-5h2v5
							C83.5,55.48,81.705,57.275,79.5,57.275z"/>
					</g>
					<g>
						<path fill="#FFFFFF" d="M79.5,57.275c-2.205,0-4-1.795-4-4h2c0,1.104,0.896,2,2,2s2-0.896,2-2v-5h2v5
							C83.5,55.48,81.705,57.275,79.5,57.275z"/>
					</g>
					<g>
						<polygon fill="#FFFFFF" points="80.5,84.275 78.5,84.275 78.5,65.275 68.5,65.275 68.5,84.275 66.5,84.275 66.5,63.275 
							80.5,63.275 						"/>
					</g>
					<g>
						<rect x="48.5" y="64.275" fill="#FFFFFF" width="2" height="14"/>
					</g>
					<g>
						<rect x="67.5" y="73.275" fill="#FFFFFF" width="3" height="2"/>
					</g>
					<g>
						<polygon fill="#FFFFFF" points="60.5,79.275 46.5,79.275 46.5,77.275 58.5,77.275 58.5,65.275 40.5,65.275 40.5,63.275 
							60.5,63.275 						"/>
					</g>
					<g>
						<g>
							<path fill="#FFFFFF" d="M63.5,42.275c-2.205,0-4-1.795-4-4v-5c0-2.205,1.795-4,4-4s4,1.795,4,4v5
								C67.5,40.48,65.705,42.275,63.5,42.275z M63.5,31.275c-1.104,0-2,0.896-2,2v5c0,1.104,0.896,2,2,2s2-0.896,2-2v-5
								C65.5,32.172,64.604,31.275,63.5,31.275z"/>
						</g>
						<g>
							<path fill="#FFFFFF" d="M43.5,42.275c-2.205,0-4-1.795-4-4h2c0,1.104,0.896,2,2,2c1.224,0,2-0.703,2-1v-1
								c-0.072-0.205-0.791-0.775-1.449-1.106l-1.998-0.999c-0.599-0.299-2.553-1.393-2.553-2.895v-1c0-1.626,1.832-3,4-3
								c2.205,0,4,1.795,4,4h-2c0-1.104-0.896-2-2-2c-1.224,0-2,0.703-2,1v1c0.072,0.205,0.791,0.775,1.449,1.106l1.998,0.999
								c0.599,0.299,2.553,1.393,2.553,2.895v1C47.5,40.901,45.668,42.275,43.5,42.275z"/>
						</g>
						<g>
							<rect x="49.5" y="29.275" fill="#FFFFFF" width="2" height="13"/>
						</g>
						<g>
							<rect x="55.5" y="29.275" fill="#FFFFFF" width="2" height="13"/>
						</g>
						<g>
							<rect x="50.5" y="35.275" fill="#FFFFFF" width="6" height="2"/>
						</g>
						<g>
							<path fill="#FFFFFF" d="M71.5,42.275h-2v-13h5c1.654,0,3,1.346,3,3v2c0,1.654-1.346,3-3,3h-3V42.275z M71.5,35.275h3
								c0.551,0,1-0.449,1-1v-2c0-0.551-0.449-1-1-1h-3V35.275z"/>
						</g>
					</g>
					<g>
						<path fill="#FFFFFF" d="M78.5,46.275h-40c-1.654,0-3-1.346-3-3v-15c0-1.654,1.346-3,3-3h40c1.654,0,3,1.346,3,3v15
							C81.5,44.93,80.154,46.275,78.5,46.275z M38.5,27.275c-0.551,0-1,0.449-1,1v15c0,0.551,0.449,1,1,1h40c0.551,0,1-0.449,1-1
							v-15c0-0.551-0.449-1-1-1H38.5z"/>
					</g>
					<g>
						<path fill="#FFFFFF" d="M85.5,57.275c-2.205,0-4-1.795-4-4h2c0,1.104,0.896,2,2,2s2-0.896,2-2v-10h-4v-2h6v12
							C89.5,55.48,87.705,57.275,85.5,57.275z"/>
					</g>
					<g>
						<g>
							<rect x="34.5" y="76.275" fill="#FFFFFF" width="2" height="12"/>
						</g>
						<g>
							<path fill="#FFFFFF" d="M35.5,85.275c-5.72,0-9-2.551-9-7c0-4.646,7.39-13.633,8.232-14.642c0.38-0.454,1.155-0.454,1.535,0
								c0.843,1.009,8.232,9.993,8.232,14.642C44.5,82.725,41.22,85.275,35.5,85.275z M35.5,65.861c-2.488,3.135-7,9.433-7,12.414
								c0,3.317,2.355,5,7,5s7-1.683,7-5C42.5,75.291,37.988,68.994,35.5,65.861z"/>
						</g>
					</g>
					<g>
						<rect x="26.5" y="87.275" fill="#FFFFFF" width="64" height="2"/>
					</g>
				</g>
			</g>
		</g>
		<g id="圖層_6" display="none">
			<g display="inline">
				<g>
					<polyline fill="none" stroke="#FFFFFF" stroke-width="2" stroke-linecap="round" stroke-linejoin="round" points="
						61.939,79.295 26.377,79.295 26.377,39.023 92.877,39.023 92.877,79.295 88.948,79.295 					"/>
					
						<rect x="26.377" y="31.259" fill="none" stroke="#FFFFFF" stroke-width="2" stroke-linecap="round" stroke-linejoin="round" width="66.5" height="7.764"/>
					
						<line fill="none" stroke="#FFFFFF" stroke-width="2" stroke-linecap="round" stroke-linejoin="round" x1="29.415" y1="35.085" x2="31.939" y2="35.085"/>
					
						<line fill="none" stroke="#FFFFFF" stroke-width="2" stroke-linecap="round" stroke-linejoin="round" x1="33.785" y1="35.085" x2="36.309" y2="35.085"/>
					
						<line fill="none" stroke="#FFFFFF" stroke-width="2" stroke-linecap="round" stroke-linejoin="round" x1="38.153" y1="35.085" x2="40.679" y2="35.085"/>
					<g>
						<g>
							<g>
								<path fill="none" stroke="#FFFFFF" stroke-width="2" stroke-linecap="round" stroke-linejoin="round" d="M48.655,46.95
									c-0.008-1.396-1.115-2.269-2.475-1.949c-1.334,0.313-2.41,1.659-2.438,3.03H43.74l0.016,2.598l2.531-0.593v-0.004
									C47.61,49.683,48.666,48.321,48.655,46.95z"/>
								<path fill="none" stroke="#FFFFFF" stroke-width="2" stroke-linecap="round" stroke-linejoin="round" d="M38.873,46.95
									c0.011-1.396,1.12-2.269,2.478-1.949c1.333,0.313,2.411,1.659,2.437,3.03h0.005l-0.018,2.598l-2.529-0.593v-0.004
									C39.92,49.683,38.865,48.321,38.873,46.95z"/>
							</g>
							
								<rect x="32.218" y="50.731" fill="none" stroke="#FFFFFF" stroke-width="2" stroke-linecap="round" stroke-linejoin="round" width="23.094" height="4.545"/>
							
								<rect x="34.15" y="55.276" fill="none" stroke="#FFFFFF" stroke-width="2" stroke-linecap="round" stroke-linejoin="round" width="19.23" height="14.332"/>
						</g>
						<g>
							
								<line fill="none" stroke="#FFFFFF" stroke-width="2" stroke-linecap="round" stroke-linejoin="round" x1="61.631" y1="53.806" x2="86.014" y2="53.806"/>
							
								<line fill="none" stroke="#FFFFFF" stroke-width="2" stroke-linecap="round" stroke-linejoin="round" x1="61.631" y1="58.696" x2="82.779" y2="58.696"/>
						</g>
						
							<rect x="63.366" y="64.5" fill="none" stroke="#FFFFFF" stroke-width="2" stroke-linecap="round" stroke-linejoin="round" width="11.927" height="4.275"/>
						
							<line fill="none" stroke="#FFFFFF" stroke-width="2" stroke-linecap="round" stroke-linejoin="round" x1="61.631" y1="47.847" x2="87.398" y2="47.847"/>
					</g>
					<polygon fill="none" stroke="#FFFFFF" stroke-width="2" stroke-linecap="round" stroke-linejoin="round" points="
						83.102,81.141 73.532,77.893 63.961,74.646 67.208,84.219 70.453,93.787 72.764,87.752 79.229,94.221 83.533,89.916 
						77.064,83.447 					"/>
				</g>
				
					<line fill="none" stroke="#FFFFFF" stroke-width="2" stroke-linecap="round" stroke-linejoin="round" x1="43.755" y1="50.629" x2="43.755" y2="69.539"/>
			</g>
		</g>
		<g id="圖層_7" display="none">
			
				<path display="inline" fill="none" stroke="#FFFFFF" stroke-width="2" stroke-linecap="round" stroke-linejoin="round" stroke-miterlimit="22.9256" d="
				M38.588,44.223h3.25h3.25c0.582,0,1.164,0,1.742,0c0.857,5.813,1.734,8.412,1.912,13.93L35.738,68.209
				c-0.085-8.743-0.271-14.613,1.111-23.986C37.428,44.223,38.006,44.223,38.588,44.223z"/>
			
				<path display="inline" fill="none" stroke="#FFFFFF" stroke-width="2" stroke-linecap="round" stroke-linejoin="round" stroke-miterlimit="10" d="
				M85.025,87.559H33.675V70.254l19.462-15.045v12.324L69.08,55.209v12.324l15.945-12.324V87.559L85.025,87.559z"/>
			
				<path display="inline" fill="none" stroke="#FFFFFF" stroke-width="2" stroke-linecap="round" stroke-linejoin="round" stroke-miterlimit="22.9256" d="
				M41.413,36.414c1.208,0,2.187,0.982,2.187,2.19c0,0.408-0.114,0.792-0.307,1.116h-3.755c-0.198-0.323-0.311-0.708-0.311-1.116
				C39.227,37.396,40.205,36.414,41.413,36.414L41.413,36.414z"/>
			
				<path display="inline" fill="none" stroke="#FFFFFF" stroke-width="2" stroke-linecap="round" stroke-linejoin="round" stroke-miterlimit="22.9256" d="
				M49.34,28.148c1.794,0,3.25,1.451,3.25,3.246s-1.455,3.246-3.25,3.246s-3.242-1.451-3.242-3.246S47.545,28.148,49.34,28.148
				L49.34,28.148z"/>
			
				<path display="inline" fill="none" stroke="#FFFFFF" stroke-width="2" stroke-linecap="round" stroke-linejoin="round" stroke-miterlimit="22.9256" d="
				M62.832,22.946c2.963,0,5.363,2.405,5.363,5.368c0,2.967-2.4,5.364-5.363,5.364c-2.967,0-5.368-2.396-5.368-5.364
				C57.464,25.351,59.865,22.946,62.832,22.946z"/>
			
				<rect x="41.312" y="74.639" display="inline" fill="none" stroke="#FFFFFF" stroke-width="2" stroke-linecap="round" stroke-linejoin="round" stroke-miterlimit="10" width="7.264" height="5.644"/>
			
				<rect x="55.483" y="74.639" display="inline" fill="none" stroke="#FFFFFF" stroke-width="2" stroke-linecap="round" stroke-linejoin="round" stroke-miterlimit="10" width="7.268" height="5.644"/>
			
				<rect x="69.663" y="74.639" display="inline" fill="none" stroke="#FFFFFF" stroke-width="2" stroke-linecap="round" stroke-linejoin="round" stroke-miterlimit="10" width="7.26" height="5.644"/>
		</g>
		<polygon fill="none" stroke="#FFFFFF" stroke-width="2" stroke-miterlimit="10" points="81.487,88.738 81.487,56.427 
			81.487,40.229 69.879,28.62 37.5,28.62 37.5,40.612 37.5,56.427 37.5,88.738 		"/>
		<g>
			<polygon fill="none" stroke="#FFFFFF" stroke-width="2" stroke-linejoin="bevel" points="69.879,40.229 81.487,40.229 
				69.879,28.62 			"/>
		</g>
		
			<rect x="43.486" y="35.487" fill="none" stroke="#FFFFFF" stroke-width="2" stroke-miterlimit="10" width="17.698" height="4.164"/>
		<rect x="68.752" y="47.815" fill="none" stroke="#FFFFFF" stroke-width="2" width="6.528" height="4.596"/>
		<rect x="55.166" y="47.815" fill="none" stroke="#FFFFFF" stroke-width="2" width="13.586" height="4.596"/>
		<rect x="43.486" y="47.815" fill="none" stroke="#FFFFFF" stroke-width="2" width="12.073" height="4.596"/>
		
			<rect x="43.486" y="47.815" fill="none" stroke="#FFFFFF" stroke-width="2" stroke-miterlimit="10" width="31.755" height="24.279"/>
		<line fill="none" stroke="#FFFFFF" stroke-width="2" stroke-miterlimit="10" x1="43.337" y1="52.498" x2="75.348" y2="52.498"/>
		<line fill="none" stroke="#FFFFFF" stroke-width="2" stroke-miterlimit="10" x1="68.643" y1="47.74" x2="68.643" y2="72.396"/>
		<line fill="none" stroke="#FFFFFF" stroke-width="2" stroke-miterlimit="10" x1="55.449" y1="47.74" x2="55.449" y2="72.396"/>
		<line fill="none" stroke="#FFFFFF" stroke-width="2" stroke-miterlimit="10" x1="75.779" y1="78.02" x2="63.668" y2="78.02"/>
	</g>
</g>
<g id="圖層_3_1_" display="none">
	<g display="inline">
		<g>
			
				<polyline fill="none" stroke="#FFFFFF" stroke-width="1.4217" stroke-linecap="round" stroke-linejoin="round" stroke-miterlimit="10" points="
				40.08,62.742 54.839,42.609 46.382,42.609 32.626,61.375 			"/>
			
				<line fill="none" stroke="#FFFFFF" stroke-width="1.4217" stroke-linecap="round" stroke-linejoin="round" stroke-miterlimit="10" x1="65.18" y1="57.259" x2="54.158" y2="42.41"/>
			
				<line fill="none" stroke="#FFFFFF" stroke-width="1.4217" stroke-linecap="round" stroke-linejoin="round" stroke-miterlimit="10" x1="50.332" y1="48.497" x2="61.11" y2="63.273"/>
			
				<polygon fill="none" stroke="#FFFFFF" stroke-width="1.4217" stroke-linecap="round" stroke-linejoin="round" stroke-miterlimit="10" points="
				94.407,19.587 74.575,36.589 80.265,36.589 60.846,63.273 69.304,63.273 88.722,36.589 94.204,36.589 			"/>
		</g>
		<g>
			
				<rect x="51.673" y="83.398" fill="none" stroke="#FFFFFF" stroke-width="1.4217" stroke-linecap="round" stroke-linejoin="round" stroke-miterlimit="10" width="29.843" height="4.975"/>
			
				<line fill="none" stroke="#FFFFFF" stroke-width="1.4217" stroke-linecap="round" stroke-linejoin="round" stroke-miterlimit="10" x1="75.08" y1="83.398" x2="75.08" y2="87.787"/>
			
				<line fill="none" stroke="#FFFFFF" stroke-width="1.4217" stroke-linecap="round" stroke-linejoin="round" stroke-miterlimit="10" x1="78.592" y1="83.398" x2="78.592" y2="87.787"/>
		</g>
		<g>
			
				<rect x="53.43" y="78.316" fill="none" stroke="#FFFFFF" stroke-width="1.4217" stroke-linecap="round" stroke-linejoin="round" stroke-miterlimit="10" width="29.843" height="4.975"/>
			
				<line fill="none" stroke="#FFFFFF" stroke-width="1.4217" stroke-linecap="round" stroke-linejoin="round" stroke-miterlimit="10" x1="76.835" y1="78.316" x2="76.835" y2="82.705"/>
			
				<line fill="none" stroke="#FFFFFF" stroke-width="1.4217" stroke-linecap="round" stroke-linejoin="round" stroke-miterlimit="10" x1="80.201" y1="78.316" x2="80.201" y2="82.705"/>
			
				<line fill="none" stroke="#FFFFFF" stroke-width="1.4217" stroke-linecap="round" stroke-linejoin="round" stroke-miterlimit="10" x1="56.208" y1="78.316" x2="56.208" y2="82.705"/>
		</g>
		<g>
			
				<rect x="52.809" y="73.277" fill="none" stroke="#FFFFFF" stroke-width="1.4217" stroke-linecap="round" stroke-linejoin="round" stroke-miterlimit="10" width="29.843" height="4.973"/>
			
				<line fill="none" stroke="#FFFFFF" stroke-width="1.4217" stroke-linecap="round" stroke-linejoin="round" stroke-miterlimit="10" x1="76.216" y1="73.277" x2="76.216" y2="77.664"/>
			
				<line fill="none" stroke="#FFFFFF" stroke-width="1.4217" stroke-linecap="round" stroke-linejoin="round" stroke-miterlimit="10" x1="79.726" y1="73.277" x2="79.726" y2="77.664"/>
			
				<line fill="none" stroke="#FFFFFF" stroke-width="1.4217" stroke-linecap="round" stroke-linejoin="round" stroke-miterlimit="10" x1="55.588" y1="73.277" x2="55.588" y2="77.664"/>
		</g>
		<g>
			
				<rect x="55.294" y="68.26" fill="none" stroke="#FFFFFF" stroke-width="1.4217" stroke-linecap="round" stroke-linejoin="round" stroke-miterlimit="10" width="29.844" height="4.975"/>
			
				<line fill="none" stroke="#FFFFFF" stroke-width="1.4217" stroke-linecap="round" stroke-linejoin="round" stroke-miterlimit="10" x1="81.878" y1="68.26" x2="81.878" y2="72.648"/>
			
				<line fill="none" stroke="#FFFFFF" stroke-width="1.4217" stroke-linecap="round" stroke-linejoin="round" stroke-miterlimit="10" x1="78.825" y1="68.26" x2="78.825" y2="72.648"/>
			
				<line fill="none" stroke="#FFFFFF" stroke-width="1.4217" stroke-linecap="round" stroke-linejoin="round" stroke-miterlimit="10" x1="58.457" y1="68.26" x2="58.457" y2="72.648"/>
			
				<line fill="none" stroke="#FFFFFF" stroke-width="1.4217" stroke-linecap="round" stroke-linejoin="round" stroke-miterlimit="10" x1="62.679" y1="68.26" x2="62.679" y2="72.648"/>
		</g>
		<g>
			
				<rect x="54.272" y="63.355" fill="none" stroke="#FFFFFF" stroke-width="1.4217" stroke-linecap="round" stroke-linejoin="round" stroke-miterlimit="10" width="29.842" height="4.973"/>
			
				<line fill="none" stroke="#FFFFFF" stroke-width="1.4217" stroke-linecap="round" stroke-linejoin="round" stroke-miterlimit="10" x1="77.678" y1="63.355" x2="77.678" y2="67.746"/>
			
				<line fill="none" stroke="#FFFFFF" stroke-width="1.4217" stroke-linecap="round" stroke-linejoin="round" stroke-miterlimit="10" x1="81.189" y1="63.355" x2="81.189" y2="67.746"/>
			
				<line fill="none" stroke="#FFFFFF" stroke-width="1.4217" stroke-linecap="round" stroke-linejoin="round" stroke-miterlimit="10" x1="57.05" y1="63.355" x2="57.05" y2="67.746"/>
		</g>
		<g>
			
				<path fill="none" stroke="#FFFFFF" stroke-width="1.4217" stroke-linecap="round" stroke-linejoin="round" stroke-miterlimit="10" d="
				M48.907,75.307c0,7.693-6.239,13.936-13.938,13.936c-7.697,0-13.934-6.242-13.934-13.936s6.237-13.934,13.934-13.934
				C42.668,61.373,48.907,67.613,48.907,75.307z"/>
			
				<circle fill="none" stroke="#FFFFFF" stroke-width="1.4217" stroke-linecap="round" stroke-linejoin="round" stroke-miterlimit="10" cx="34.969" cy="75.307" r="9.477"/>
			<g>
				
					<polyline fill="none" stroke="#FFFFFF" stroke-width="1.4217" stroke-linecap="round" stroke-linejoin="round" stroke-miterlimit="10" points="
					34.951,79.881 34.951,69.383 31.343,73.127 				"/>
				
					<line fill="none" stroke="#FFFFFF" stroke-width="1.4217" stroke-linecap="round" stroke-linejoin="round" stroke-miterlimit="10" x1="33.223" y1="79.844" x2="36.623" y2="79.844"/>
			</g>
		</g>
	</g>
</g>
<g id="圖層_4_1_">
	<g>
		<g>
			<g>
				<path fill="#FFFFFF" d="M65.408,32.553H55.097c-1.419,0-2.575-1.139-2.59-2.561l0,0c0-0.007,0-0.014,0-0.021l0,0
					c-0.002-0.026-0.004-0.061,0-0.105l0,0l-0.001-6.61c0.005-1.426,1.154-2.592,2.592-2.593l0,0l10.311,0.003
					c1.279,0.001,2.346,0.928,2.557,2.15l0,0l0.038,0.051l0.003,7.095l-1.178,0.001l1.178,0.004
					c-0.003,1.427-1.164,2.585-2.594,2.585l0,0C65.41,32.553,65.408,32.553,65.408,32.553L65.408,32.553z M55.097,30.198h10.311
					c0.14,0,0.242-0.105,0.244-0.24l0,0l-0.004-6.63c-0.006-0.05-0.008-0.093-0.008-0.126l0,0c-0.021-0.104-0.111-0.18-0.232-0.182
					l0,0l-10.311-0.003c-0.122,0-0.237,0.105-0.237,0.242l0,0l0.003,6.732C54.875,30.104,54.977,30.198,55.097,30.198L55.097,30.198
					z"/>
			</g>
		</g>
		<g>
			<g>
				<g>
					<polygon fill="#FFFFFF" points="39.867,33.083 41.906,31.907 44.314,36.079 42.273,37.256 39.867,33.083 					"/>
				</g>
				<g>
					<g>
						<path fill="#FFFFFF" d="M36.229,35.172l-2.086-3.613c-0.187-0.319-0.278-0.682-0.278-1.031l0,0
							c-0.001-0.709,0.371-1.408,1.032-1.785l0,0l5.557-3.207c0.318-0.184,0.673-0.279,1.028-0.279l0,0
							c0.707-0.003,1.402,0.372,1.79,1.032l0,0l2.085,3.612l0,0c0.187,0.323,0.274,0.685,0.273,1.026l0,0
							c0,0.715-0.371,1.398-1.029,1.789l0,0l-5.565,3.214c-0.322,0.182-0.676,0.269-1.022,0.269l0,0
							C37.302,36.2,36.61,35.832,36.229,35.172L36.229,35.172z M38.122,33.738l5.048-2.914l-1.792-3.102l-5.048,2.915L38.122,33.738
							L38.122,33.738z M43.317,31.08l1.02-0.588L43.317,31.08L43.317,31.08z"/>
					</g>
				</g>
			</g>
		</g>
		<g>
			<g>
				<g>
					<polygon fill="#FFFFFF" points="76.637,35.296 78.018,32.895 80.061,34.067 78.682,36.469 76.637,35.296 					"/>
				</g>
				<g>
					<path fill="#FFFFFF" d="M81.127,35.926l-5.57-3.213c-0.65-0.382-1.025-1.074-1.023-1.783l0,0c0-0.355,0.096-0.716,0.281-1.035
						l0,0v0.001l2.08-3.602c0.383-0.667,1.082-1.04,1.789-1.037l0,0c0.354,0,0.711,0.094,1.027,0.277l0,0l5.559,3.209
						c0.658,0.382,1.029,1.076,1.027,1.785l0,0c0,0.341-0.084,0.698-0.273,1.03l0,0l-2.092,3.621
						c-0.385,0.65-1.068,1.021-1.779,1.021l0,0C81.803,36.2,81.445,36.11,81.127,35.926L81.127,35.926z M82.045,33.736l1.789-3.1
						l-5.043-2.914L77,30.825L82.045,33.736L82.045,33.736z M76.848,31.086l-0.266-0.156h0.01l-0.762-0.439L76.848,31.086
						L76.848,31.086z"/>
				</g>
			</g>
		</g>
		<g>
			<path fill="#FFFFFF" d="M26.4,64.566c0.002-18.696,15.157-33.852,33.854-33.853l0,0c18.697,0,33.855,15.157,33.855,33.853l0,0
				c0,18.696-15.158,33.853-33.855,33.854l0,0C41.557,98.419,26.403,83.263,26.4,64.566L26.4,64.566z M37.981,42.294
				c-5.701,5.704-9.225,13.572-9.225,22.272l0,0c0,8.702,3.524,16.567,9.225,22.272l0,0c5.704,5.7,13.572,9.224,22.273,9.224l0,0
				c8.703,0,16.568-3.523,22.273-9.224l0,0c5.701-5.705,9.227-13.57,9.227-22.272l0,0c0-8.7-3.525-16.568-9.227-22.272l0,0
				c-5.705-5.701-13.57-9.225-22.273-9.225l0,0C51.553,33.069,43.685,36.593,37.981,42.294L37.981,42.294z"/>
		</g>
		<g>
			<path fill="#FFFFFF" d="M60.254,37.926c14.709,0,26.645,11.928,26.645,26.64c0,14.713-11.936,26.642-26.645,26.646
				c-14.712-0.004-26.642-11.933-26.642-26.646C33.612,49.854,45.542,37.926,60.254,37.926 M60.254,35.571
				c-15.988,0-28.998,13.007-28.998,28.996c0,15.986,13.008,28.997,28.998,29.001c15.992-0.004,29-13.015,29-29.001
				C89.254,48.578,76.244,35.571,60.254,35.571L60.254,35.571z"/>
		</g>
		<g>
			<polygon fill="#FFFFFF" points="58.845,44.336 58.845,40.246 61.2,40.246 61.2,44.336 58.845,44.336 			"/>
		</g>
		<g>
			<polygon fill="#FFFFFF" points="46.873,44.208 48.913,43.031 50.958,46.574 48.916,47.75 46.873,44.208 			"/>
		</g>
		<g>
			<polygon fill="#FFFFFF" points="38.486,53.628 39.665,51.587 43.208,53.634 42.029,55.674 38.486,53.628 			"/>
		</g>
		<g>
			<polygon fill="#FFFFFF" points="35.932,65.977 35.934,63.62 40.024,63.622 40.022,65.978 35.932,65.977 			"/>
		</g>
		<g>
			<polygon fill="#FFFFFF" points="38.719,75.907 42.262,73.863 43.44,75.904 39.896,77.948 38.719,75.907 			"/>
		</g>
		<g>
			<polygon fill="#FFFFFF" points="47.273,85.158 49.321,81.615 51.36,82.793 49.313,86.336 47.273,85.158 			"/>
		</g>
		<g>
			<polygon fill="#FFFFFF" points="59.308,88.888 59.31,84.798 61.665,84.799 61.664,88.889 59.308,88.888 			"/>
		</g>
		<g>
			<polygon fill="#FFFFFF" points="69.553,82.56 71.594,81.384 73.637,84.928 71.594,86.104 69.553,82.56 			"/>
		</g>
		<g>
			<polygon fill="#FFFFFF" points="77.305,75.501 78.482,73.463 82.023,75.509 80.844,77.549 77.305,75.501 			"/>
		</g>
		<g>
			<polygon fill="#FFFFFF" points="80.484,65.513 80.486,63.157 84.578,63.159 84.574,65.515 80.484,65.513 			"/>
		</g>
		<g>
			<polygon fill="#FFFFFF" points="77.07,53.23 80.613,51.188 81.791,53.229 78.248,55.271 77.07,53.23 			"/>
		</g>
		<g>
			<polygon fill="#FFFFFF" points="69.15,46.341 71.195,42.801 73.236,43.979 71.188,47.521 69.15,46.341 			"/>
		</g>
		<g>
			<g>
				<path fill="#FFFFFF" d="M55.819,63.467l-0.1-0.063c-1.316-0.844-2.629-2.058-2.662-3.91l0,0v-2.547
					c0-2.719,2.203-4.917,4.917-4.917l0,0h3.006c2.712,0,4.912,2.198,4.912,4.917l0,0v1.191h0.002h-2.355v-1.191
					c-0.004-1.417-1.148-2.56-2.559-2.563l0,0h-3.006c-1.414,0.003-2.56,1.146-2.563,2.563l0,0l0.001,2.547
					c-0.033,0.493,0.452,1.196,1.472,1.861l0,0l5.587,2.138l-0.842,2.199L55.819,63.467L55.819,63.467z"/>
			</g>
			<g>
				<path fill="#FFFFFF" d="M57.975,75.231c-2.714,0-4.917-2.198-4.917-4.915l0,0v-1.191h2.354v1.191
					c0.003,1.412,1.149,2.558,2.563,2.561l0,0h3.006c1.41-0.003,2.555-1.146,2.559-2.561l0,0v-2.549
					c0.046-0.462-0.514-1.263-1.533-1.922l0,0l-5.332-2.052l0.847-2.199l5.543,2.135l0.105,0.065
					c1.324,0.862,2.678,2.089,2.723,3.973l0,0v2.549c0,2.716-2.2,4.915-4.912,4.915l0,0H57.975L57.975,75.231z"/>
			</g>
			<g>
				<polygon fill="#FFFFFF" points="58.524,76.492 58.524,50.912 60.881,50.912 60.881,76.492 58.524,76.492 				"/>
			</g>
		</g>
	</g>
</g>
</svg>
