<svg xmlns="http://www.w3.org/2000/svg" viewBox="0 0 22.71 22.99"><defs><style>.cls-1,.cls-2{fill:#00d2ff;}.cls-2{font-size:7.99px;font-family:DFLiHei-W7-WINP-BF, DFPLiHei-Bd;}</style></defs><title>calendar-icon</title><g id="圖層_2" data-name="圖層 2"><g id="Layer_1" data-name="Layer 1"><path class="cls-1" d="M13.56,4.37h0a.74.74,0,0,0,.81-.61V.61C14.38.27,14,0,13.57,0h0a.71.71,0,0,0-.73.61V3.76A.71.71,0,0,0,13.56,4.37Z"/><path class="cls-1" d="M9.09,4.37h0a.74.74,0,0,0,.81-.61V.61C9.91.27,9.55,0,9.1,0h0a.71.71,0,0,0-.73.61V3.76A.71.71,0,0,0,9.09,4.37Z"/><path class="cls-1" d="M18,4.37h0c.44,0,.81-.28.81-.61V.61C18.85.27,18.48,0,18,0h0a.71.71,0,0,0-.73.61V3.76A.71.71,0,0,0,18,4.37Z"/><path class="cls-1" d="M19.16,1.46v1.7a1.29,1.29,0,0,1,.24.75,1.33,1.33,0,1,1-2.65,0,1.3,1.3,0,0,1,.3-.83V1.46H14.69V3.16a1.29,1.29,0,0,1,.24.75,1.33,1.33,0,1,1-2.65,0,1.3,1.3,0,0,1,.3-.83V1.45H10.22V3.16a1.29,1.29,0,0,1,.24.75,1.33,1.33,0,1,1-2.65,0,1.36,1.36,0,0,1,.3-.83V1.44H5.75V3.16A1.29,1.29,0,0,1,6,3.91a1.33,1.33,0,1,1-2.65,0,1.36,1.36,0,0,1,.3-.83V1.44h0A3.58,3.58,0,0,0,0,5V19.38A3.58,3.58,0,0,0,3.57,23l15.54,0a3.58,3.58,0,0,0,3.58-3.57L22.71,5A3.59,3.59,0,0,0,19.16,1.46Zm1.14,18a1.19,1.19,0,0,1-1.19,1.19l-15.53,0a1.18,1.18,0,0,1-1.19-1.19V9A1.2,1.2,0,0,1,3.59,7.8l15.54,0A1.2,1.2,0,0,1,20.32,9Z"/><path class="cls-1" d="M4.62,4.37h0a.74.74,0,0,0,.81-.61V.61C5.44.27,5.08,0,4.63,0h0a.71.71,0,0,0-.73.61V3.76A.71.71,0,0,0,4.62,4.37Z"/><text class="cls-2" transform="translate(3.27 15.8)">date</text></g></g></svg>