<svg data-name="圖層 1 拷貝" xmlns="http://www.w3.org/2000/svg" viewBox="0 0 1094 619">
  <path d="M10.24 415.09l-7.67-60.94 1083.66-136.43 7.67 60.94zm2.85-52.77l5.32 42.24 1065-134.07-5.31-42.24z" fill="#484848"/>
  <path fill="#484848" d="M137.56 339.24l-4.69-32.88-62.32 8.32-1.25-9.34 71.58-9.55 6.01 42.11-9.33 1.34zM919.52 242.71l-5-42.98 70.64-9.55 1.26 9.34-61.47 8.31 3.93 33.79-9.36 1.09z"/>
  <path d="M80.67 342.71v-.09a1.75 1.75 0 0 1 1.65-1.23h.09l.18-2.07 5.7.48-.47 5.36-.12 1.39-.19 2.12a.9.9 0 0 1-1 .81 1.09 1.09 0 0 1-.36-.12.86.86 0 0 1-.88.57.84.84 0 0 1-.67-.44.88.88 0 0 1-1.65-.5v-.24a.87.87 0 0 1-1.66-.45l.2-2.13a.75.75 0 0 1 0-.16l.16-1.06a2 2 0 0 1-.29-.16l-.54 2.21a.702.702 0 1 1-1.34-.42zm2.67 3.66v.16a.88.88 0 0 1 .12-.15z" fill="#fff"/>
  <path d="M64.01 431.56c2.34 2 20.72-41.55 4.58-87.39l11.46-61.84c.22-2.28-1.67-7.39-5.27-11.78a14.54 14.54 0 0 0-7-4.67l-12.16-3.69c-4.58-1-10.64 5-14.1 6.6s-7 6.94-8 10.6l-19.44 66 2.07.66C-4.22 378.66-5.68 378 13.83 433.09l-3.75 2.17-.66 1.37 14.53-.93.74-4.33 2.4-.65c-11.7-57.31-8.42-51.67 12.25-75.23.44.63.86 1.25 1.25 1.83 12.1 17.86 13.34 23.24 14.44 25.6.13 2.35 1.88 3.53-.91 31.78-.49 4.69-.89 8.59-1.17 11.32-.14 1.49-.25 2.64-.33 3.44 0 .29 0 .55-.06.77s0 .58 0 .79v.64h1.75l-.12 4.05 14.48 2.73-.44-1.47-6.28-3.4-.43-2.12 2.35-.06a.4.4 0 0 1 .14.17z" fill="#0f2a51"/>
  <path d="M62.72 264c-.12 0 .66.19 1.41.45s1.94.69 3.31 1.26c38.84 16.27 35.49 39.88 22 75.93l-8.11-2.12c9.5-45.32.21-46.36-24-52.07z" fill="#0f2a51"/>
  <path d="M14.62 349.16v-.09a1.75 1.75 0 0 0-1.67-1.25h-.09l-.19-2.07-5.72.47.47 5.37.12 1.39.19 2.12a.9.9 0 0 0 1 .81.92.92 0 0 0 .36-.13.87.87 0 0 0 .89.58.85.85 0 0 0 .67-.44.88.88 0 0 0 1.65-.5v-.24a.85.85 0 0 0 .86.49.87.87 0 0 0 .81-.94l-.2-2.14a.88.88 0 0 0-.05-.15l-.17-1.06a1.78 1.78 0 0 0 .3-.17l.69 2.23a.72.72 0 0 0 .89.47.71.71 0 0 0 .46-.89zm-2.67 3.66v.16a.88.88 0 0 0-.12-.15z" fill="#fff"/>
  <path d="M55.95 285.28c-32.78-1.77-39.69 29.72-41.66 62.15l-7.46.22c-5.29-45.32 3.12-81.65 48.48-86.4z" fill="#0f2a51"/>
  <path fill="#fabe00" d="M50.39 314.48h-.02.02z"/>
  <path d="M59.7 279.76a3.5 3.5 0 0 0 2.65-2.94c.37-1.92-.55-3.72-2.07-4s-3 1-3.42 2.95a3.71 3.71 0 0 0 .88 3.34c-1.82 4.78-12.54 38.25-13.94 43.55-1.65 6.23 1.4 13.63 1.49 13.73a33.59 33.59 0 0 0 7.35-10.85c1.99-5.11 7.07-40.38 7.06-45.78z" fill="#c4d700"/>
  <path d="M85.25 257.74l-6.3-18.48-14.44.42a6.91 6.91 0 0 0-6.65 6l-2.34 17.07c9.26 5.29 15.61 6.92 25.33 3.23l.18-7.6z" fill="#fff"/>
  <path d="M77.24 249.48c0 .58.28 1.05.56 1s.48-.51.45-1.1-.28-1.06-.56-1-.48.5-.45 1.1zM69.8 254h-1.53c-.18-3.12-1.58-5.55-3.27-5.53s-3.23 2.8-3.2 6.22l-5.3.78 1.35-9.83a6.91 6.91 0 0 1 6.65-6l14.45-.37 1 3-7.54 3.12z" fill="#0f2a51"/>
  <path d="M55.51 262.71l-.16 5.45c5.2 3.32 5.83 3.28 14.21 4.68l2.21-7.6z" fill="#fff"/>
  <path d="M1050.35 309.57c30.16-63.25 21-65.5 9-82.41l2.7-.54-12.3-67.62c-.69-3.76-3.61-9.41-6.87-11.39s-8.66-8.59-13.32-8.06l-12.48 2.38a14.52 14.52 0 0 0-7.46 3.91c-4 4-6.46 8.86-6.49 11.15l4.82 62.21c-20.33 40.35-12.2 48.7-4.25 90.37a.36.36 0 0 1 .12-.15l2 .26-.39 1.23-6.51 2.69-.6 1.41 14.68-1.18.25-3.19 1.89.25.06-.65v-.8-.81-3.51c-.14-21.18-.58-30.57 2.1-45.44 4.28-8.16 11.75-17.85 18.69-25.9 7.22 9.83 14 18.32 15.54 27.7v-.19c-.06 15.91-3.48 17.13-13 46.74l2.35.91.46 5.11 14.72.38-.52-1.44z" fill="#0f2a51"/>
  <path d="M996.3 227.6v-.09a1.76 1.76 0 0 0-1.6-1.3h-.09l-.08-2.08-5.75.23.24 5.38.06 1.39.1 2.12a.89.89 0 0 0 .92.85.94.94 0 0 0 .37-.11.85.85 0 0 0 .86.61.82.82 0 0 0 .69-.4.89.89 0 0 0 .84.49.86.86 0 0 0 .83-.92v-.24a.88.88 0 0 0 1.69-.38l-.11-2.14a1.16 1.16 0 0 0 0-.18l-.12-1c.11 0 .2-.1.31-.15l.59 2.25a.703.703 0 1 0 1.36-.36zm-2.94 3.54h.1v.16a.58.58 0 0 0-.1-.16z" fill="#fff"/>
  <path d="M1025.15 164.49c-22.94 2.84-31.43 6.59-29.3 60.52l-8.29 1.25c-8.85-42.19-9.29-65.65 18.5-79.93a67.27 67.27 0 0 1 11.37-4.52c1.43-.42 2.58-.71 3.42-.9s1.57-.31 1.45-.3z" fill="#0f2a51"/>
  <path d="M1068.04 233.52l1-5.29-5.64-1.08-.4 2h-.09a1.78 1.78 0 0 0-1.78 1.05v.09l-1.6 3.72a.7.7 0 0 0 .36.93.72.72 0 0 0 .94-.36l.92-2.14a2.61 2.61 0 0 0 .27.19l-.27 1a.69.69 0 0 0-.07.15l-.42 2.1a.88.88 0 0 0 1.61.63l-.05.23a.88.88 0 0 0 1.59.67.84.84 0 0 0 .63.51.85.85 0 0 0 .94-.48.76.76 0 0 0 .34.16.88.88 0 0 0 1-.7l.42-2.08.26-1.37zm-4.55.77a.86.86 0 0 0-.14.13v-.15z" fill="#fff"/>
  <path d="M1029.95 138.62a55.23 55.23 0 0 1 18 6.72c12.16 7.12 19.92 18.88 23.75 32.32a71.56 71.56 0 0 1 2.13 9.94c.1.92.2 1.84.31 2.75s.1 1.71.15 2.55v4.9a117.16 117.16 0 0 1-2.06 16.57c-1.18 6.24-2.28 11-3.26 15.3l-7.4-1c.87-19.36 3.62-64.2-34.81-66.21z" fill="#0f2a51"/>
  <path fill="#fabe00" d="M1029.22 192.07h.02-.02zM1023.64 156.56a3.5 3.5 0 0 1-2.32-3.2c-.17-2 .94-3.64 2.48-3.77s2.92 1.34 3.08 3.29a3.68 3.68 0 0 1-1.22 3.23c1.3 4.95 8.42 39.36 9.25 44.78 1 6.38-2.84 13.41-2.94 13.5a33.6 33.6 0 0 1-6.16-11.57c-1.44-5.28-2.76-40.89-2.17-46.26z"/>
  <path d="M1000.56 132l8.24-17.71 14.31 2a6.89 6.89 0 0 1 6 6.64l.52 17.22c-9.77 4.28-16.25 5.23-25.53.52l.62-7.57z" fill="#fff"/>
  <path d="M1009.4 124.59c-.09.58-.39 1-.66 1s-.42-.56-.34-1.14.4-1 .67-1 .43.55.33 1.14zM1016.33 129.84l1.52.15c.51-3.07 2.16-5.35 3.84-5.15s2.91 3.13 2.52 6.53l5.18 1.34-.29-9.92a6.93 6.93 0 0 0-6-6.64l-14.31-1.94-1.34 2.87 7.17 3.91z" fill="#0f2a51"/>
  <path d="M1029.61 140.05l-.42 5.44c-5.52 2.75-6.14 2.64-14.62 3.14l-1.4-7.78z" fill="#fff"/>
  <path fill="#ff7f00" d="M525.18 441.23l-21.43 44.63h49.99l-28.56-44.63z"/>
  
  <!-- 箭頭*2 -->
  <g class="js-arrow-down" data-name="arrow-down">
    <path fill="#3a9494" d="M273.77 222.52l-22.31-22.31v43.74l53.55 52.67 52.67-52.67v-41.96l-19.64 19.64V90.41h-66.05l1.78 132.11z"/>
    <path d="M301.79 144a47.35 47.35 0 0 1-7.32 3.2l-.52-2.2c.65-.21 1.51-.54 2.58-1v-8.86h-2.27v-2.24h2.27v-6.42h2.28v6.42h2v2.23h-2v7.78a27.52 27.52 0 0 0 2.76-1.36zm13.94-6.21h-13.92v-8.17h13.92zm-1 11h-2.25v-.89h-7.22v.89h-2.23v-9.6h11.7zm-7.2-20.47l-1.79 1.08a13.78 13.78 0 0 0-2.35-2.15l1.82-1a10.59 10.59 0 0 1 2.3 1.99zm.21 7.52v-4.25h-3.79v4.25zm-.77-1.12l-1.61.66a12.19 12.19 0 0 0-.94-2.63l1.53-.75a12.13 12.13 0 0 1 1 2.64zm5.51 7.83v-1.38h-7.22v1.38zm0 3.35v-1.49h-7.22v1.49zm1.17-10.06v-4.25h-3.81v4.25zm.74-8.44a15.09 15.09 0 0 1-2.69 2l-1.73-1.2a14.2 14.2 0 0 0 2.56-1.93zm-1.23 5.32a9 9 0 0 1-1.24 2.69l-1.54-.69a12.11 12.11 0 0 0 1.25-2.64zM305.47 155.54c0 3.71-.11 7.33-.27 10.87a39.06 39.06 0 0 1-.54 6.13 2.48 2.48 0 0 1-1 1.3 4.55 4.55 0 0 1-2.35.47c-.54 0-1.07 0-1.6-.06l-.66-2.25c.69.05 1.26.07 1.7.07 1.07 0 1.7-.32 1.87-1s.35-5.1.54-13.37h-3q-.37 10.83-4.44 16.7l-1.94-1.37q4-6 4.09-15.33h-3.48v-2.2h3.56l.1-3.66h2.28l-.1 3.66zm10.34 18.78h-2.25v-1.78h-4.18v1.76h-2.22v-20.39h8.65zm-2.25-4.06v-14.1h-4.18v14.1zM303.75 199.69h-2.2V198h-4.6v1.94h-2.26v-18.62h2.26a16.81 16.81 0 0 0 1.5-3.9l2.36.39a15 15 0 0 1-1.2 3.51h4.14zm-2.2-11.41v-4.74h-4.6v4.74zm0 7.52v-5.37h-4.6v5.37zm14.57-14.36q0 3.67-.26 9.53c-.16 3.9-.4 6.21-.7 6.9a3.1 3.1 0 0 1-1.41 1.55 12.91 12.91 0 0 1-4.59.52l-.85-2.25h3.42a1.73 1.73 0 0 0 1-.41c.37-.27.64-2.13.82-5.56s.27-6.11.27-8h-5.14a25 25 0 0 1-2.71 5.2l-1.75-1.57a30.26 30.26 0 0 0 3.87-9.93l2.25.49c-.16.87-.46 2.06-.9 3.58zm-3.71 11.44l-2 1.28a27.58 27.58 0 0 0-3.54-5.51l2-1.25a25.6 25.6 0 0 1 3.54 5.48zM316.49 220.59q-.62 5.07-3 5.07t-4.11-4.66a35.3 35.3 0 0 1-5.71 4.83l-1.58-1.68a28.28 28.28 0 0 0 6.49-5.48 48.86 48.86 0 0 1-1.47-9.29h-8.71v2.78h6.76c-.08 2.1-.18 3.75-.29 4.93s-.21 2.09-.3 2.7a3.32 3.32 0 0 1-.64 1.61 2.18 2.18 0 0 1-1.27.87 9.22 9.22 0 0 1-1.94.17c-.39 0-.81 0-1.24-.06l-.64-2.12h1.32c1.21 0 1.89-.14 2.05-.41a8 8 0 0 0 .41-2.29c.13-1.26.2-2.32.22-3.2h-4.51q-.19 7.34-2.74 11.38l-1.76-1.66q2.3-3.84 2.3-11.47v-5.45h10.82c-.06-1.36-.08-2.72-.05-4.07h2.31v1.34c0 .81 0 1.72.11 2.73h6.63v2.18h-6.57a39.1 39.1 0 0 0 1 7 26.62 26.62 0 0 0 2.71-5.7l2.05.74a28.41 28.41 0 0 1-4 7.57 12.78 12.78 0 0 0 1.09 2.7 6.23 6.23 0 0 0 .83 1.32.64.64 0 0 0 .37.11.44.44 0 0 0 .36-.14 4.19 4.19 0 0 0 .37-1.25 14.25 14.25 0 0 0 .3-2.18zm-1.22-15.33l-1.32 1.65a15.88 15.88 0 0 0-3.66-1.9l1.28-1.71a14.86 14.86 0 0 1 3.7 1.96zM316.49 245.54l-1.61 1.64a25.81 25.81 0 0 1-8.47-10.75v8.4h5.1v2.22h-5.1v4.06h-2.32v-4.06h-5.14v-2.22h5.15v-8.45a25.1 25.1 0 0 1-8.7 10.7l-1.51-1.74a26.44 26.44 0 0 0 8.59-10.49h-7.78v-2.25h9.4v-3.81h2.32v3.81h9.45v2.25h-8a24.74 24.74 0 0 0 8.62 10.69z" fill="#fff"/>
  </g>
  <g class="js-arrow-up" data-name="arrow-up">
    <path fill="#764c4c" d="M844.18 404.63l22.32 22.31V383.2l-53.56-52.66-52.67 52.66v41.96l19.64-19.64v131.22h66.06l-1.79-132.11z"/>
    <path d="M823.66 384.07l-1.24 2q-7.77-3.4-10.13-8.78-2.16 5.87-10.11 8.78l-1.25-2q7.29-2.42 9.21-7.6h-9v-2.22h9.57a27.18 27.18 0 0 0 .54-4.44h-5.94a13.36 13.36 0 0 1-2.46 3.41l-1.94-1.31a23 23 0 0 0 4.76-8.26l2.08.71a27.29 27.29 0 0 1-1.27 3.2h4.82v-2-2.06h2.31v4.04h8.33v2.25h-8.39a26.91 26.91 0 0 1-.4 4.44h10.2v2.22h-9.09q2.25 4.69 9.4 7.62zM823.4 401.75h-11.45a25.32 25.32 0 0 1-5.5 7.06c4.48-.37 8.41-.82 11.76-1.37a34.11 34.11 0 0 0-3.32-3.54l1.81-1.37a42.36 42.36 0 0 1 6.64 7.82l-2 1.33a20.89 20.89 0 0 0-1.59-2.33q-8.29 1.23-17.14 1.92l-.44-2q3.78-1.94 6.94-7.55h-7.94v-2.22h9.91v-4.12h-8.42v-2.23h8.42v-4h2.4v4h8.47v2.23h-8.52v4.12h10zM810.78 436.83h-2.2v-1.68h-4.63v1.94h-2.27v-18.62h2.27a16.81 16.81 0 0 0 1.5-3.9l2.36.39a15 15 0 0 1-1.2 3.51h4.14zm-2.2-11.4v-4.74h-4.63v4.74zm0 7.52v-5.37h-4.63V433zm14.57-14.36q0 3.68-.26 9.53c-.16 3.9-.4 6.2-.7 6.9a3.1 3.1 0 0 1-1.41 1.55 12.91 12.91 0 0 1-4.59.52l-.85-2.25h3.42a1.79 1.79 0 0 0 1-.41q.55-.42.82-5.56c.19-3.43.27-6.11.27-8h-5.1a25 25 0 0 1-2.71 5.2l-1.75-1.57a30.26 30.26 0 0 0 3.87-9.93l2.25.49c-.17.86-.46 2.06-.9 3.58zM819.44 430l-2 1.28a27.3 27.3 0 0 0-3.49-5.48l2-1.25a25.6 25.6 0 0 1 3.49 5.45zM807.02 449.71l-1.4 1.87a24.3 24.3 0 0 0-4.59-3.15l1.39-1.87a25.26 25.26 0 0 1 4.6 3.15zm.36 4.53a40 40 0 0 1-4.22 8.57l-2-1.33a38.44 38.44 0 0 0 4.24-8.5zm0-10.35l-1.59 1.76a21.1 21.1 0 0 0-4.52-3.72l1.66-1.72a26.78 26.78 0 0 1 4.45 3.68zm15.25 16c0 1.16-.25 1.9-.76 2.22a5.58 5.58 0 0 1-2.81.49c-.5 0-1 0-1.35-.05l-.84-2.12h2.84c.49 0 .73-.21.73-.55v-3c-2.77.74-5.68 1.41-8.74 2l-.76-1.43a9.93 9.93 0 0 1-2.46 5.12l-1.81-1.46a7.42 7.42 0 0 0 1.6-2.72 16.18 16.18 0 0 0 .64-5.26v-5.3h5.72v-7.52h2.32v7.52h5.73zm-9.49-13.84l-2 1.12a27.45 27.45 0 0 0-3.29-5.09l2-1.2a27.62 27.62 0 0 1 3.29 5.17zm7.3 8.68v-4.81h-9.28v1.5c2.67.21 5.3.46 7.89.77l-.59 2.18q-3.22-.57-7.3-.88a26.55 26.55 0 0 1-.12 3.3 79.46 79.46 0 0 0 9.4-2.06zm3-13a27.24 27.24 0 0 1-2.86 5.51l-2.13-1a27.48 27.48 0 0 0 2.89-5.38zM823.09 472.58c0 2-.24 3.13-.58 3.48a2 2 0 0 1-1.16.62l-1 .15v8.5h-11l1.07 1.1a28.57 28.57 0 0 1-8.42 1.92l-1-1.8a32.78 32.78 0 0 0 6.88-1.22h-3.61v-7.47c-.84.2-1.66.35-2.45.46l-.9-2q4.17-.39 6-2.18h-4.97l.81-4.27h5.53v-1.23h-6.66v-1.51h6.66v-1.23h2.2v1.23h3.61v-1.23h2.2v1.23h5.91v4.27h-5.91v1.2zm-14.95-1.2h-3.45l-.17 1.2h3.32a8.76 8.76 0 0 0 .3-1.2zm9.91 7.21v-1h-11.57v1zm0 2.59v-1.13h-11.57v1.13zm0 2.56v-1.1h-11.57v1.1zm2.76-9.62h-4.5v1.25h-2.2v-1.25h-4.63a8.42 8.42 0 0 1-1.66 1.86h11.45l-.37-1a3.79 3.79 0 0 0 1.62-.12c.2-.09.29-.35.29-.74zm-6.7-1.54v-1.2h-3.68a6.93 6.93 0 0 1-.26 1.2zm0-2.73v-1.2h-3.61v1.2zm9.44 16.92l-1 1.71a41.49 41.49 0 0 0-7.79-1.18l.88-1.72a40.9 40.9 0 0 1 7.91 1.19zM820 469.85v-1.2h-3.69v1.2zM823.37 500.61h-8a31.65 31.65 0 0 1-3.25 2.32h8.67v10.92h-2.32v-1.09h-9.93v1.09h-2.35v-8.05c-1.32.54-2.69 1.05-4.12 1.53l-1.1-2.05q7.23-2.16 10.77-4.67h-10.6v-2.15h9.32v-2.56h-7v-2.07h7v-2.39h2.35v2.36h4.71v1.89a24.31 24.31 0 0 0 2.93-3.58l1.78 1.43a36.78 36.78 0 0 1-4.32 4.92h5.47zm-4.91 6.13V505h-9.93v1.76zm0 3.92v-1.89h-9.93v1.89zm-1.17-14.73h-4.49v2.53h1.8c1.06-.92 1.95-1.76 2.69-2.53z" fill="#fff"/>
  </g>

  <!-- 錨點*4 -->
  <a xlink:href="#section4" class="js-nav" data-name="section4">
    <circle class="js-bg" cx="693.67" cy="106.48" r="46.86" fill="#ea3e27"/>
    <circle cx="693.67" cy="106.48" r="46.86" fill="#ea3e27"/>
    <path d="M677.72 90.11a25.42 25.42 0 0 1-2.83 1.18v7.43a2.62 2.62 0 0 1-.44 1.5c-.29.43-.94.64-2 .64-.43 0-.86 0-1.27-.06l-.41-1.24h2a.8.8 0 0 0 .5-.23.67.67 0 0 0 .26-.48V91.8c-1 .43-2 .82-3 1.16l-.48-1.26c1.42-.47 2.59-.89 3.52-1.26v-5.88h-3.22v-1.32h3.22v-4.65h1.3v4.65h2.48v1.32h-2.48v5.32c.81-.32 1.64-.67 2.48-1.06zm5.76-.49a15.53 15.53 0 0 1-1.3 6.82 12.93 12.93 0 0 1-3.72 4.59l-1-.94a11.51 11.51 0 0 0 4.56-9 31.34 31.34 0 0 1-4.24 3.44l-.83-1.13a40.13 40.13 0 0 0 5.27-4.24V78.62h1.27zm-2.33-2.86l-1.3.61a29 29 0 0 0-2.33-5.17l1.27-.64a30.09 30.09 0 0 1 2.36 5.2zm11.25 9.37a6.08 6.08 0 0 1-.88 3.47 2.58 2.58 0 0 1-2.09.9 7.37 7.37 0 0 1-3-.41c-.51-.28-.77-.88-.77-1.82V78.62h1.29v6.77a23.68 23.68 0 0 0 4-3.47l1 1.08a42.78 42.78 0 0 1-5 4.13v2.12a31.52 31.52 0 0 1 5.2 3.87l-.86 1.08a29.9 29.9 0 0 0-4.34-3.44v7.59c0 .55.63.83 1.9.83a2.08 2.08 0 0 0 1.68-.56 6.85 6.85 0 0 0 .58-3zM708.17 97.23h-5.32v3.62h-1.28v-3.62h-5.88V96h5.88v-2h-4.7v-8.37h10.64v8.44h-4.66v2h5.32zm-6.75-13.1h-5.14v-4.9h5.14zM700.21 83v-2.52h-2.69V83zm1.36 6.18v-2.32h-3.42v2.28zm0 3.7v-2.49h-3.42v2.45zm4.64-3.7v-2.32h-3.36v2.28zm0 3.7v-2.49h-3.36v2.45zm1.93-8.71h-5.12v-4.9h5.12zM706.95 83v-2.5h-2.68V83zm10.91 13.36a12.14 12.14 0 0 1-1.14 3.51 1.81 1.81 0 0 1-1.57 1q-1.75 0-2.93-4.47a27.79 27.79 0 0 1-4.27 3.82l-1-.91a26.32 26.32 0 0 0 4.91-4.46 53.24 53.24 0 0 1-.71-7.55c-.48 0-1.3.12-2.48.2l-.1-1.26a22.07 22.07 0 0 0 2.5-.24l-.08-7.28h1.3v7.16c1.06-.06 2.76-.21 5.11-.46l.12 1.27-5.1.45a49.25 49.25 0 0 0 .48 6.26 23.35 23.35 0 0 0 2.94-5.4l1.13.6a32.29 32.29 0 0 1-3.79 6.5 17.35 17.35 0 0 0 .66 2.38 5.74 5.74 0 0 0 .73 1.53c.23.29.42.43.57.43a.56.56 0 0 0 .31-.09 4.43 4.43 0 0 0 .56-1.23 14.37 14.37 0 0 0 .67-2.7zm-.88-13l-1.1.69a17 17 0 0 0-2.3-3.48l1-.65a16.9 16.9 0 0 1 2.37 3.44zM702.61 137.61h-16.16v-2.77h6.5v-22.61l-6.7 2v-3l9.8-3.06v26.64h6.52z" fill="#fff"/>
  </a>
  <a xlink:href="#section5" class="js-nav" data-name="section5">
    <circle class="js-bg" cx="845.42" cy="106.48" r="46.86" fill="#f8840f"/>
    <circle cx="845.42" cy="106.48" r="46.86" fill="#f8840f"/>
    <path d="M829.47 90.11a25.42 25.42 0 0 1-2.83 1.18v7.43a2.62 2.62 0 0 1-.44 1.5c-.29.43-.94.64-2 .64-.44 0-.87 0-1.28-.06l-.41-1.24h2a.8.8 0 0 0 .5-.23.67.67 0 0 0 .26-.48V91.8c-1 .43-2 .82-3 1.16l-.49-1.26c1.42-.47 2.59-.89 3.52-1.26v-5.88h-3.22v-1.32h3.22v-4.65h1.3v4.65h2.48v1.32h-2.48v5.32c.81-.32 1.64-.67 2.48-1.06zm5.76-.49a15.53 15.53 0 0 1-1.3 6.82 12.93 12.93 0 0 1-3.72 4.59l-1-.94a11.53 11.53 0 0 0 4.55-9 31.34 31.34 0 0 1-4.24 3.44l-.85-1.11a40.13 40.13 0 0 0 5.28-4.26V78.62h1.27zm-2.28-2.86l-1.3.61a29 29 0 0 0-2.33-5.17l1.27-.64a30.09 30.09 0 0 1 2.36 5.2zm11.25 9.37a6.08 6.08 0 0 1-.88 3.47 2.58 2.58 0 0 1-2.09.9 7.37 7.37 0 0 1-3-.41c-.51-.28-.76-.88-.76-1.82V78.62h1.3v6.77a24 24 0 0 0 4-3.47l1 1.09a43.47 43.47 0 0 1-5 4.13v2.12a31.42 31.42 0 0 1 5.18 3.87l-.86 1.08a30.36 30.36 0 0 0-4.33-3.45v7.59c0 .55.63.83 1.89.83a2.08 2.08 0 0 0 1.68-.56 6.7 6.7 0 0 0 .58-3zM859.95 97.23h-5.32v3.62h-1.28v-3.62h-5.88V96h5.88v-2h-4.7v-8.37h10.64v8.44h-4.66v2h5.32zm-6.75-13.1h-5.14v-4.9h5.14zM851.95 83v-2.52h-2.68V83zm1.36 6.18v-2.32h-3.36v2.28zm0 3.7v-2.49h-3.36v2.45zm4.64-3.7v-2.32h-3.36v2.28zm0 3.7v-2.49h-3.36v2.45zm1.93-8.71h-5.12v-4.9h5.12zM858.66 83v-2.5h-2.71V83zm10.91 13.36a12.14 12.14 0 0 1-1.14 3.51 1.81 1.81 0 0 1-1.57 1q-1.75 0-2.93-4.47a27.33 27.33 0 0 1-4.27 3.82l-1-.91a26.32 26.32 0 0 0 4.91-4.46 53.24 53.24 0 0 1-.71-7.55c-.47 0-1.3.12-2.48.2l-.1-1.26a22.07 22.07 0 0 0 2.5-.24l-.08-7.28h1.3v7.16c1.06-.06 2.76-.21 5.11-.46l.12 1.27-5.1.45a49.25 49.25 0 0 0 .48 6.26 23 23 0 0 0 2.98-5.4l1.13.6a32.29 32.29 0 0 1-3.79 6.5 17.35 17.35 0 0 0 .66 2.38 6.07 6.07 0 0 0 .73 1.53c.23.29.42.43.57.43a.56.56 0 0 0 .31-.09 4.43 4.43 0 0 0 .56-1.23 15.13 15.13 0 0 0 .68-2.7zm-.87-13l-1.11.69a17 17 0 0 0-2.3-3.48l1-.65a17.31 17.31 0 0 1 2.41 3.44zM853.8 137.61h-17.21v-2.8l8.37-8.43a31.19 31.19 0 0 0 5.12-6.08 8.7 8.7 0 0 0 1-4 5.15 5.15 0 0 0-1.44-3.92 5.74 5.74 0 0 0-4.13-1.38 10.73 10.73 0 0 0-7.39 3.33V111a12.1 12.1 0 0 1 7.8-2.65 8.43 8.43 0 0 1 5.94 2.06 7.2 7.2 0 0 1 2.24 5.59 10.84 10.84 0 0 1-1.47 5.34 34.91 34.91 0 0 1-5.58 6.72l-6.71 6.63v.08h13.5z" fill="#fff"/>
  </a>
  <a xlink:href="#section6" class="js-nav" data-name="section6">
    <circle class="js-bg" cx="188.42" cy="508.17" r="46.86" fill="#1ea41b"/>
    <circle cx="188.42" cy="508.17" r="46.86" fill="#1ea41b"/>
    <path d="M172.48 491.8a25.72 25.72 0 0 1-2.84 1.19v7.43a2.61 2.61 0 0 1-.43 1.49c-.29.43-.95.65-2 .65-.44 0-.86 0-1.27-.06l-.41-1.24h2a.78.78 0 0 0 .49-.23.62.62 0 0 0 .26-.47v-7.06c-1 .42-2 .81-3 1.16l-.48-1.26c1.42-.47 2.59-.89 3.51-1.27v-5.88h-3.22v-1.32h3.22v-4.64h1.3v4.64h2.49v1.32h-2.49v5.33a43.4 43.4 0 0 0 2.49-1.07zm5.75-.48a15.71 15.71 0 0 1-1.29 6.82 13 13 0 0 1-3.72 4.59l-1-.94a11.5 11.5 0 0 0 4.55-9 32.08 32.08 0 0 1-4.23 3.45l-.85-1.12a41.38 41.38 0 0 0 5.27-4.23v-10.58h1.26zm-2.28-2.86l-1.3.61a29.08 29.08 0 0 0-2.33-5.18l1.26-.63a29.86 29.86 0 0 1 2.37 5.2zm11.25 9.37a6.2 6.2 0 0 1-.88 3.46 2.6 2.6 0 0 1-2.09.91 7.12 7.12 0 0 1-3-.42c-.51-.27-.77-.88-.77-1.81v-19.66h1.3v6.77a24 24 0 0 0 4-3.46l1 1.09a42.61 42.61 0 0 1-5 4.12V491a31.5 31.5 0 0 1 5.2 3.86l-.87 1.09a29.81 29.81 0 0 0-4.33-3.45v7.5c0 .56.63.83 1.89.83a2.05 2.05 0 0 0 1.68-.55 6.84 6.84 0 0 0 .59-3zM202.95 498.93h-5.32v3.61h-1.27v-3.61h-5.91v-1.2h5.88v-2h-4.71v-8.44h10.65v8.44h-4.67v2h5.35zm-6.74-13.11h-5.15v-4.9h5.15zm-1.26-1.16v-2.49h-2.69v2.49zm1.36 6.17v-2.27h-3.36v2.27zm0 3.71v-2.45h-3.36v2.45zm4.64-3.71v-2.27h-3.37v2.27zm0 3.71v-2.45h-3.37v2.45zm1.93-8.72h-5.12v-4.9h5.19zm-1.24-1.16v-2.46h-2.69v2.46zM212.58 498a12.29 12.29 0 0 1-1.15 3.51 1.8 1.8 0 0 1-1.56 1q-1.75 0-2.94-4.47a27.44 27.44 0 0 1-4.27 3.83l-1-.92a26.35 26.35 0 0 0 4.92-4.45 50.56 50.56 0 0 1-.63-7.5c-.48 0-1.31.11-2.49.19l-.1-1.26a21.89 21.89 0 0 0 2.5-.23l-.07-7.28h1.3v7.15c1-.05 2.76-.21 5.11-.46l.11 1.28-5.1.45a47 47 0 0 0 .49 6.26 23.6 23.6 0 0 0 2.93-5.35l1.13.61a32.2 32.2 0 0 1-3.79 6.49 19.12 19.12 0 0 0 .65 2.39 5.8 5.8 0 0 0 .73 1.52c.23.29.42.44.57.44a.53.53 0 0 0 .32-.1 4.62 4.62 0 0 0 .56-1.22 15.19 15.19 0 0 0 .67-2.7zm-.88-13l-1.1.7a17.42 17.42 0 0 0-2.3-3.48l1-.66a16.9 16.9 0 0 1 2.4 3.49zM180.28 534.81a10.44 10.44 0 0 0 6.65 2.34 7.5 7.5 0 0 0 4.84-1.5 5 5 0 0 0 1.86-4.14q0-5.76-8.11-5.76h-2.38v-2.65h2.27q7.2 0 7.2-5.39 0-5-5.49-5a9.07 9.07 0 0 0-5.72 2.1v-3.1a12.27 12.27 0 0 1 6.5-1.66 8.51 8.51 0 0 1 5.65 1.88 6.17 6.17 0 0 1 2.24 5q0 5.65-5.78 7.32v.07a7.6 7.6 0 0 1 4.93 2.16 6.45 6.45 0 0 1 1.87 4.71 7.74 7.74 0 0 1-2.83 6.28 11 11 0 0 1-7.23 2.34 12 12 0 0 1-6.47-1.54z" fill="#fff"/>
  </a>
  <a xlink:href="#section7" class="js-nav" data-name="section7">
    <circle class="js-bg" cx="340.18" cy="508.17" r="46.86" fill="#127291"/>
    <circle cx="340.18" cy="508.17" r="46.86" fill="#127291"/>
    <path d="M324.23 491.8a25.72 25.72 0 0 1-2.84 1.19v7.43a2.61 2.61 0 0 1-.43 1.49c-.29.43-.94.65-2 .65-.43 0-.86 0-1.27-.06l-.41-1.24h2a.76.76 0 0 0 .49-.23.62.62 0 0 0 .26-.47v-7.06c-1 .42-2 .81-3 1.16l-.48-1.26c1.42-.47 2.59-.89 3.51-1.27v-5.88h-3.21v-1.32h3.21v-4.64h1.3v4.64h2.49v1.32h-2.49v5.33a43.4 43.4 0 0 0 2.49-1.07zm5.75-.48a15.71 15.71 0 0 1-1.29 6.82 13 13 0 0 1-3.72 4.59l-1-.94a11.54 11.54 0 0 0 4.56-9 32.18 32.18 0 0 1-4.24 3.45l-.85-1.12a40.69 40.69 0 0 0 5.27-4.23v-10.58h1.24zm-2.32-2.86l-1.3.61a29.08 29.08 0 0 0-2.33-5.18l1.26-.63a29.13 29.13 0 0 1 2.37 5.2zm11.29 9.37a6.12 6.12 0 0 1-.88 3.46 2.58 2.58 0 0 1-2.09.91 7.12 7.12 0 0 1-3-.42c-.51-.27-.77-.88-.77-1.81v-19.66h1.3v6.77a24 24 0 0 0 4-3.46l1 1.09a43.65 43.65 0 0 1-5 4.12V491a31.5 31.5 0 0 1 5.2 3.86l-.87 1.09a29.81 29.81 0 0 0-4.33-3.45v7.5c0 .56.63.83 1.9.83a2 2 0 0 0 1.67-.55 6.69 6.69 0 0 0 .59-3zM354.68 498.93h-5.33v3.61h-1.27v-3.61h-5.88v-1.2h5.88v-2h-4.7v-8.44h10.64v8.44h-4.67v2h5.33zm-6.73-13.11h-5.15v-4.9h5.15zm-1.21-1.16v-2.49h-2.69v2.49zm1.36 6.17v-2.27h-3.42v2.27zm0 3.71v-2.45h-3.42v2.45zm4.64-3.71v-2.27h-3.39v2.27zm0 3.71v-2.45h-3.39v2.45zm1.93-8.72h-5.12v-4.9h5.12zm-1.24-1.16v-2.46h-2.67v2.46zm10.9 13.34a12 12 0 0 1-1.15 3.51 1.79 1.79 0 0 1-1.56 1q-1.76 0-2.93-4.47a27.9 27.9 0 0 1-4.27 3.83l-1-.92a26.35 26.35 0 0 0 4.92-4.45 51.93 51.93 0 0 1-.71-7.55c-.48 0-1.31.11-2.49.19l-.1-1.26a22.28 22.28 0 0 0 2.51-.23l-.08-7.28h1.3v7.15c1.06-.05 2.76-.21 5.11-.46l.11 1.28-5.1.45a47 47 0 0 0 .49 6.26 23.6 23.6 0 0 0 2.93-5.35l1.13.61a32.2 32.2 0 0 1-3.79 6.49 19.12 19.12 0 0 0 .65 2.39 5.46 5.46 0 0 0 .74 1.52c.23.29.42.44.56.44a.53.53 0 0 0 .32-.1 4.28 4.28 0 0 0 .56-1.22 15.19 15.19 0 0 0 .67-2.7zm-.88-13l-1.1.7a17 17 0 0 0-2.3-3.48l1-.66a16.9 16.9 0 0 1 2.4 3.49zM350.06 531.58h-3.71v7.72h-3.08v-7.72h-13.59v-2l12.84-19h3.83V529h3.71zm-6.79-2.58v-12.64c0-.88 0-1.88.07-3h-.07c-.1.27-.47 1-1.1 2.21l-9 13.44z" fill="#fff"/>
  </a>

  <path d="M642.31 5.54q-.3 11.45-4.13 18.85t-12.82 12.83l-2.75-2.91q8.3-4.71 11.86-10.86a59.29 59.29 0 0 0-6.73-6.45 30.56 30.56 0 0 1-2.7 3.83L622.33 18A41.19 41.19 0 0 0 630 0l3.63.88a34.72 34.72 0 0 1-.95 4.66zm-3.89 3.73h-6.89a44.25 44.25 0 0 1-2 4.54 87.43 87.43 0 0 1 6.56 6 41.81 41.81 0 0 0 2.33-10.54zm21.13 12.86L657 25.28a62.81 62.81 0 0 0-7.84-8.84v20.44h-3.77V.37h3.77v11.26a75.72 75.72 0 0 1 10.39 10.5zM672.61 26.67q-3 6.78-5.69 9.76l-2.79-2.55a29.37 29.37 0 0 0 5.05-8.64zm25.81-3.26h-14v1.67h-3.7v-1.67h-14v-9.48h14v-2.42h-12.54V2.67h12.56V.37h3.7v2.3h12.51v8.84h-12.51v2.42h14zm-17.68-3.1v-3.24h-10.27v3.24zm0-11.92V5.77h-8.79v2.62zm12.38 22.23a8.92 8.92 0 0 1-1 3.71 3.52 3.52 0 0 1-2.09 1.78 33.1 33.1 0 0 1-6.44.36c-3.18 0-5.24 0-6.2-.11a3.2 3.2 0 0 1-2.26-1.09 4 4 0 0 1-.83-2.71v-7.28h3.65v6.85a.79.79 0 0 0 .57.86 33.5 33.5 0 0 0 5 .18 38.72 38.72 0 0 0 4.32-.13 1.86 1.86 0 0 0 1.09-.73 8 8 0 0 0 .76-3.14zm-6.17-.49l-3 1.79a29.34 29.34 0 0 0-3.93-4.42l3.06-1.71a23.49 23.49 0 0 1 3.87 4.34zm6.29-21.74V5.77h-8.84v2.62zm1.47 11.92v-3.24h-10.27v3.24zm6.26 13.53l-3.12 2.08a38.79 38.79 0 0 0-5.52-9.25l3.3-1.79a45.19 45.19 0 0 1 5.38 8.96z" fill="#ff6c00"/>
  <path d="M729.4 19.17h-24.2v-2.46h24.2zM736.08 19.39a38.78 38.78 0 0 1-1.13 7.51l-2-1.11a34 34 0 0 0 1-6.79zm0-6l-2 .75a39.48 39.48 0 0 0-1.09-5.34l2-.73a36.06 36.06 0 0 1 1.12 5.37zm6 4.06h-2.83v13.17h-2.39V17.5h-3.79V15h3.79V6.39h2.39V15h2.81zm.5-8.52a38.49 38.49 0 0 1-.87 5.21l-1.91-.64a31 31 0 0 0 .8-5.12zm0 16.38l-2.15.7a50.55 50.55 0 0 0-.5-6.59l2-.5c.36 2.78.59 4.91.66 6.44zm13.51 2.87a2.46 2.46 0 0 1-.75 1.83c-.49.5-1.72.7-3.68.59l-.85-2.34h2.42c.29 0 .44-.13.44-.4v-1.49h-7.72a12.56 12.56 0 0 1-1.9 4.51l-1.8-1.78a10.19 10.19 0 0 0 1.59-6.1v-5.15h12.26zm1.22-11.76h-14.5v-2h6v-1.35h-5.16v-1.78h5.16V10h-5.66V8h5.66V6.46h2.43V8h5.71v2h-5.69v1.27h5.26v1.78h-5.26v1.42h6.11zm-3.64 8.09v-1.43h-7.48v1.48zm0-3.34v-1.28h-7.45v1.33zM770.7 19.28c-1.61.67-2.74 1.11-3.39 1.3v7.23a3.49 3.49 0 0 1-.59 2c-.4.56-1.42.85-3.07.85-.57 0-1.16 0-1.76-.09l-.86-2.57q1 .06 1.65.06c.53 0 1 0 1.46-.06s.67-.23.67-.55v-6a24.53 24.53 0 0 1-3.56 1.1l-.53-2.36a30.17 30.17 0 0 0 4.09-1.36v-5.04h-3.67v-2.41h3.67V6.49h2.5v4.89h3.31v2.41h-3.31V18a26.71 26.71 0 0 0 3.2-1.25zm14.3-9.6h-4.37V27.4a3.12 3.12 0 0 1-.91 2.65 6.39 6.39 0 0 1-3.5.67c-.71 0-1.43 0-2.18-.07l-.88-2.65h4.27c.43 0 .65-.27.65-.66V9.68h-7.13v-2.5h14.07zM792.15 24.45a23.13 23.13 0 0 1-1.58 6.37l-2.09-1.05a28 28 0 0 0 1.51-5.9zm7.08-12.94a50.12 50.12 0 0 1-6.28 8.91 28.33 28.33 0 0 0 2.8-.76 4.29 4.29 0 0 0-.38-1l2-.87a15.14 15.14 0 0 1 1.58 4.27l-2.12.81a6.42 6.42 0 0 0-.33-1.17c-2.88.8-5.22 1.36-7 1.67l-.79-1.86a31.88 31.88 0 0 0 5.17-5.88c-1.53.3-3 .54-4.41.73l-.52-1.93a26.05 26.05 0 0 0 4.89-8.26l2.46.87a30 30 0 0 1-3.9 6.73 23.63 23.63 0 0 0 2.92-.53 25.49 25.49 0 0 0 1.73-2.9zm-3.55 18.09l-2.24.72a26 26 0 0 0-.68-5.59l2-.61a24.51 24.51 0 0 1 .92 5.48zm3.71-1.21l-2.2.74a23 23 0 0 0-1.17-5l2.06-.72a21.46 21.46 0 0 1 1.31 4.98zm12.9 2.34h-2.34v-1.44h-7.7v1.48h-2.3V7h12.37zm-7.4-13.79V9.38h-2.61v7.56zm0 10v-7.66h-2.61V27zm5-10V9.38h-2.64v7.56zm0 10v-7.66h-2.64V27zM828.32 10h-7.21a17.29 17.29 0 0 1-3.4 3.14l-1.49-1.89a17.66 17.66 0 0 0 4.72-5l2.42.56q-.58.93-.72 1.17h5.68zm12.43 16.82h-6.37v3.88h-2.5v-3.88h-6.21a4.53 4.53 0 0 1-1.72 2.41 13.41 13.41 0 0 1-4.65 1.7l-1.59-2.09c2.94-.5 4.69-1.18 5.23-2h-6.42v-2.09h6.9V23.4h2.53v1.35h6V23.4h2.5v1.35h6.37zm-2.64-4.12h-19v-10h19zm-2.46-7.13v-1H821.5v1zm0 2.68v-1.06H821.5v1.06zm0 2.7v-1.14H821.5V21zm-10.09-9l-2.44.45-1.09-1.67 2.53-.42a12.54 12.54 0 0 1 1 1.69zm15.08-2h-8.69a16.27 16.27 0 0 1-1.84 2.11L827.82 11a15.81 15.81 0 0 0 3.61-4.78l2.44.47-.64 1.2h7.41zM837 11.87l-2.51.47a13 13 0 0 0-1-1.61l2.56-.42a7.13 7.13 0 0 1 .95 1.57zM854.79 30.46h-2.39v-1.84h-5v2.11h-2.45V10.49h2.49a18.13 18.13 0 0 0 1.63-4.23l2.57.42a17 17 0 0 1-1.31 3.81h4.5zm-2.39-12.4v-5.15h-5v5.15zm0 8.17v-5.84h-5v5.84zm15.84-15.6q0 4-.29 10.35c-.17 4.25-.43 6.75-.76 7.51a3.4 3.4 0 0 1-1.53 1.68c-.68.35-2.35.54-5 .56l-.92-2.45h3.72a1.88 1.88 0 0 0 1.12-.45q.6-.45.9-6t.29-8.72h-5.59a26.84 26.84 0 0 1-2.94 5.65L855.35 17a33 33 0 0 0 4.21-10.8l2.44.53c-.18.94-.51 2.24-1 3.9zm-4 12.43l-2.17 1.39a30 30 0 0 0-3.84-6l2.17-1.36a27.69 27.69 0 0 1 3.8 5.97zM878.52 16.63l-1.52 2a25.69 25.69 0 0 0-5-3.42l1.51-2a28.64 28.64 0 0 1 5.01 3.42zm.39 4.93a42.83 42.83 0 0 1-4.59 9.32l-2.17-1.45a42.06 42.06 0 0 0 4.62-9.24zm0-11.24l-1.72 1.9a23.46 23.46 0 0 0-4.92-4l1.81-1.87a28.66 28.66 0 0 1 4.87 3.97zM895.5 27.7c0 1.26-.28 2.07-.84 2.42a6.14 6.14 0 0 1-3.05.53q-.81 0-1.47-.06l-.91-2.31h3.08c.53 0 .79-.23.79-.6v-3.23c-3 .81-6.17 1.53-9.49 2.16l-.83-1.54a10.8 10.8 0 0 1-2.67 5.55l-2-1.57a8.24 8.24 0 0 0 1.74-3 17.41 17.41 0 0 0 .7-5.71v-5.73h6.21V6.43h2.47v8.18h6.24zm-10.33-15l-2.14 1.22a29.93 29.93 0 0 0-3.59-5.52l2.17-1.4a29.81 29.81 0 0 1 3.56 5.65zm7.93 9.44v-5.28h-10.07v1.63q4.33.35 8.57.84l-.65 2.37q-3.51-.61-7.93-.95a31.39 31.39 0 0 1-.14 3.58 85.42 85.42 0 0 0 10.22-2.24zM896.38 8a29.45 29.45 0 0 1-3.11 6l-2.32-1.12A29.46 29.46 0 0 0 894.09 7zM923.8 13.68c-.05 2.14-.25 3.4-.62 3.78a2.25 2.25 0 0 1-1.27.68l-1.11.16v9.24h-12l1.15 1.19a31.15 31.15 0 0 1-9.16 2.09l-1.05-1.95a36.38 36.38 0 0 0 7.48-1.33h-3.92v-8.12c-.92.21-1.81.38-2.67.5l-1-2.2q4.53-.42 6.54-2.36h-5.37l.89-4.65h6V9.38h-7.24V7.74h7.24V6.39h2.39v1.35h3.93V6.39h2.39v1.35h6.42v4.64h-6.42v1.3zm-16.24-1.3h-3.75l-.19 1.3h3.61a13.07 13.07 0 0 0 .33-1.3zm10.77 7.84v-1.14h-12.58v1.14zm0 2.81v-1.22h-12.58V23zm0 2.78v-1.19h-12.58v1.19zm3-10.45h-4.89v1.35h-2.39v-1.35h-5a9.33 9.33 0 0 1-1.81 2h12.46l-.41-1.07a4.25 4.25 0 0 0 1.77-.13.9.9 0 0 0 .27-.8zm-7.28-1.68v-1.3h-4a6.82 6.82 0 0 1-.28 1.3zm0-3V9.41h-3.93v1.3zM924.3 29.1l-1 1.86a46.32 46.32 0 0 0-8.46-1.28l.95-1.87a44.18 44.18 0 0 1 8.51 1.29zm-3.85-18.39v-1.3h-4v1.3zM951.95 16.33h-8.71a34.91 34.91 0 0 1-3.53 2.53h9.43v11.87h-2.53v-1.19h-10.8v1.19h-2.55V22c-1.43.59-2.93 1.14-4.48 1.67l-1.2-2.23q7.88-2.34 11.71-5.08h-11.54V14h10.14v-2.79h-7.62V9h7.62V6.36h2.55v2.57h5.12V11a27.05 27.05 0 0 0 3.18-3.88l1.94 1.55a40.48 40.48 0 0 1-4.73 5.33h6zM946.59 23v-1.91h-10.8V23zm0 4.25V25.2h-10.8v2.05zm-1.27-16h-4.88V14h2c1.1-1 2.08-1.92 2.88-2.76z"/>
  <path d="M160.26 438.25a4.5 4.5 0 0 1-1 2.83q-1 1.26-4.91 1.26c-1.07 0-2.15 0-3.24-.14l-1.36-3.95c2.1.05 3.81.08 5.13.08a1.72 1.72 0 0 0 1.18-.43 1.38 1.38 0 0 0 .49-1.08v-20.17H147q1.51 7.92 8.79 14.8l-2.25 2.91a31.37 31.37 0 0 1-9.39-14.09q-2.36 7.32-9.46 14.13l-2.24-2.87q7.81-7.81 9.79-14.88H131.5v25.55h-3.72v-29.13h14.8c-.14-1.22-.24-2.39-.29-3.5h-4v-3.71h7.37q0 1.75.63 7.21h14zM204.15 439.41l-1.2 2.87c-1.46 0-2.92-.06-4.36-.15s-2.9-.19-4.36-.34-2.88-.35-4.26-.59l-4.19-.8-4.07.84c-1.38.26-2.76.47-4.17.64s-2.82.3-4.26.4-2.89.15-4.34.18l-1.38-2.89a62.18 62.18 0 0 0 13.55-1.12 31.41 31.41 0 0 1-4.45-2.34 45.35 45.35 0 0 1-6.47 1.89l-1.8-2.54a33.1 33.1 0 0 0 5.13-1.34 4.47 4.47 0 0 1-.87-.76l2.26-1.83c.4.31 1 .75 1.91 1.3a26.84 26.84 0 0 0 3.83-2.22 2.67 2.67 0 0 1-2.55-3v-3.41h-6.21v3.16h-3.74v-5.78h4.42v-10.77h10a15.16 15.16 0 0 0 .69-1.55h-15.75v-2.79h36.44v2.79h-16.68l-.71 1.55h12.33v10.77h4.42v5.53h-3.62v-2.91h-13.25a23.78 23.78 0 0 1 3 1.45l-1.65 2.05a19.84 19.84 0 0 0-4.33-1.7l1.36-1.8h-3v3.12c0 .55.23.83.69.83h7.67c.75 0 1.23-.87 1.43-2.62l3.21 1.22a4.62 4.62 0 0 1-1.14 3.07 5.08 5.08 0 0 1-3.27.79l-4.6.09a13.65 13.65 0 0 1-2.08 1.62h13.72v2.51a39.6 39.6 0 0 1-6.76 3.74 74.36 74.36 0 0 0 13.46.84zm-26.85-12.58a27.84 27.84 0 0 1-5.5 5.49l-2.54-2.32a20.58 20.58 0 0 0 5.45-4.86zm17.93-12.36v-1.28H176.3v1.28zm0 3.42v-1.32H176.3v1.32zm0 3.69V420H176.3v1.55zm-3.38 13.25h-11.78a29.6 29.6 0 0 0 5.53 2.5 37.47 37.47 0 0 0 6.25-2.5zm10.3-4.13l-2.62 1.87a26.41 26.41 0 0 0-4.34-5.37l2.42-2a25.64 25.64 0 0 1 4.54 5.5z" fill="#ff6c00"/>
  <path d="M232.51 424.59h-24.18v-2.46h24.18zM239.38 429.79a36.61 36.61 0 0 1-1.36 6.42l-2.06-1a35.25 35.25 0 0 0 1.33-5.92zm6.39-13.55a38 38 0 0 1-6.12 9.52 21.27 21.27 0 0 0 3.15-.74 5.39 5.39 0 0 0-.47-1.35l1.91-.75a18.66 18.66 0 0 1 1.37 4.75l-1.93.69c-.07-.39-.15-.78-.24-1.19-2.44.61-4.7 1.08-6.76 1.41l-.58-2a24.8 24.8 0 0 0 4.61-5.84c-1.34.27-2.65.49-3.92.64l-.59-2.14a21.75 21.75 0 0 0 4.13-7.59l2.33.87a24.51 24.51 0 0 1-3.41 6.21 18.15 18.15 0 0 0 2.94-.61 29.32 29.32 0 0 0 1.44-2.89zm-3.11 18.54l-2.14.53a35.18 35.18 0 0 0-.56-5.5l2-.47a26 26 0 0 1 .7 5.44zm2.83-2.39l-1.89.48a26.09 26.09 0 0 0-.72-3.42l1.86-.48a19.34 19.34 0 0 1 .75 3.42zm5.08-7.45l-2.1.95a49.74 49.74 0 0 0-3.31-5.45 31.19 31.19 0 0 0 3-4.94l2.26.85a24.08 24.08 0 0 1-2.47 4.14 43.9 43.9 0 0 1 2.62 4.45zm9.79 10.61h-14.85v-2.36h6.23v-4.3h-5.41v-2.33h13.23v2.33h-5.31v4.3h6.11zm-.41-20.92h-14v-2.36h14zm-4.6 10.37l-2.18 1a36.25 36.25 0 0 0-3.32-5.57 23.79 23.79 0 0 0 3-4.91l2.28.88a43.68 43.68 0 0 1-2.41 4 49.06 49.06 0 0 1 2.63 4.6zm4.74-.05l-2.2 1a39.57 39.57 0 0 0-3.23-5.42 36.54 36.54 0 0 0 3-5l2.12.93a24.46 24.46 0 0 1-2.28 4.1 43.62 43.62 0 0 1 2.59 4.36zM287.67 424.64h-2.47v-2.14h-18.56v2.14h-2.39v-4.2h23.42zM275.5 414a21.94 21.94 0 0 1-4.38 1.78l-.08.23a28.51 28.51 0 0 1 4.43 2.16l-1.24 1.73a24.9 24.9 0 0 0-4.14-2.08 9 9 0 0 1-4.32 2.33l-1.27-2a6.88 6.88 0 0 0 3.84-1.73q1.08-1.2 1.08-4.56h2.28c0 .72-.09 1.3-.15 1.76a13.39 13.39 0 0 0 2.76-1.25zm-7.08 1.38l-1.89 1a12.71 12.71 0 0 0-1.92-3l1.87-1a12.76 12.76 0 0 1 1.94 2.96zm17.95 20.8h-2.42v-.86h-16v.86h-2.45v-6.5h8.12a7.14 7.14 0 0 0 .64-1.2h-6.31v-4.75h15.75v4.75h-6.58a7.72 7.72 0 0 1-.64 1.2h9.92zm-2.42-2.76v-1.88h-16v1.88zm-2.59-6.78v-1.11h-11.11v1.11zm6.46-8.2l-1.32 1.75a30.9 30.9 0 0 0-4.91-2.25 8.29 8.29 0 0 1-4.69 2.17l-1-2c1.95-.32 3.25-.86 3.92-1.62s1-2.29 1-4.57l2.26.05a11.25 11.25 0 0 1-.09 1.78 13.54 13.54 0 0 0 3.07-1.51l1.25 1.65a21 21 0 0 1-4.64 2.06l-.15.24a31 31 0 0 1 5.3 2.25zm-7.87-2.89l-1.94.88a11.89 11.89 0 0 0-1.67-3.13l1.94-.85a11.39 11.39 0 0 1 1.67 3.1zM316.05 430.78c-.45 3.67-1.53 5.51-3.22 5.51s-3.22-1.7-4.5-5.09a38.56 38.56 0 0 1-6.21 5.25l-1.72-1.83a30.84 30.84 0 0 0 7.06-5.94 52.23 52.23 0 0 1-1.6-10.1h-9.46v3h7.34c-.09 2.28-.2 4.07-.32 5.36s-.23 2.26-.32 2.93a3.66 3.66 0 0 1-.7 1.75 2.37 2.37 0 0 1-1.37.94 10.16 10.16 0 0 1-2.11.18c-.43 0-.88 0-1.35-.05l-.7-2.31h1.44c1.31 0 2.05-.15 2.22-.44a8.77 8.77 0 0 0 .46-2.49c.13-1.37.21-2.53.23-3.48h-4.9q-.21 8-3 12.37l-1.92-1.81q2.5-4.17 2.5-12.46v-5.91h11.75c-.06-1.49-.08-3-.05-4.43h2.51v1.46q0 1.31.12 3h7.27v2.36h-7.15a43.08 43.08 0 0 0 1 7.61 28.4 28.4 0 0 0 2.95-6.19l2.22.8a30.65 30.65 0 0 1-4.36 8.23 14.22 14.22 0 0 0 1.18 2.93 7.39 7.39 0 0 0 .9 1.43.71.71 0 0 0 .41.13.5.5 0 0 0 .39-.16 4.83 4.83 0 0 0 .4-1.36 15.33 15.33 0 0 0 .32-2.36zm-1.33-16.65l-1.39 1.79a17.14 17.14 0 0 0-4-2.06l1.38-1.86a16.05 16.05 0 0 1 4.01 2.13zM343.84 430.09l-1.75 1.77a27.93 27.93 0 0 1-9.2-11.67v9.12h5.54v2.42h-5.54v4.41h-2.53v-4.41h-5.59v-2.42h5.59v-9.17a27.28 27.28 0 0 1-9.41 11.62l-1.64-1.89a28.77 28.77 0 0 0 9.33-11.4h-8.45V416h10.2v-4.14h2.53V416h10.23v2.44h-8.65a26.88 26.88 0 0 0 9.34 11.65zM357.79 435.87h-2.39V434h-5v2.1h-2.45v-20.18h2.49a18.47 18.47 0 0 0 1.62-4.24l2.57.43a17.5 17.5 0 0 1-1.3 3.81h4.49zm-2.39-12.39v-5.15h-5v5.15zm0 8.17v-5.84h-5v5.84zm15.82-15.59c0 2.65-.11 6.1-.29 10.34s-.42 6.74-.75 7.5a3.34 3.34 0 0 1-1.53 1.67c-.68.36-2.35.55-5 .57l-.92-2.45h3.72a1.88 1.88 0 0 0 1.12-.45q.6-.45.9-6c.2-3.72.29-6.63.29-8.71h-5.58a26.84 26.84 0 0 1-2.95 5.65l-1.9-1.7a32.84 32.84 0 0 0 4.21-10.79l2.44.53c-.18.94-.5 2.24-1 3.9zm-4 12.41l-2.17 1.4a29.21 29.21 0 0 0-3.84-6l2.17-1.35a27.28 27.28 0 0 1 3.81 5.95zM383.45 430.91a50 50 0 0 1-7.95 3.48l-.55-2.39c.7-.24 1.64-.6 2.81-1.08v-9.62h-2.47v-2.41h2.47v-7h2.46v7h2.15v2.41h-2.15v8.46a32.59 32.59 0 0 0 3-1.48zm15.14-6.74h-15.12v-8.87h15.12zm-1.11 11.91h-2.44v-1h-7.85v1h-2.41v-10.42h12.7zm-7.82-22.22l-1.94 1.14a15.76 15.76 0 0 0-2.55-2.33l2-1.14a11 11 0 0 1 2.49 2.33zm.23 8.16v-4.61h-4.14V422zm-.84-1.22l-1.75.72a12.57 12.57 0 0 0-1-2.86l1.73-.77a13.24 13.24 0 0 1 1.02 2.91zm6 8.51v-1.5h-7.85v1.5zm0 3.64v-1.62h-7.85V433zm1.26-10.95v-4.61h-4.14V422zm.8-9.17a16.2 16.2 0 0 1-2.92 2.12l-1.88-1.3a15 15 0 0 0 2.78-2.09zm-1.33 5.78a9.71 9.71 0 0 1-1.35 2.92l-1.67-.75a13 13 0 0 0 1.35-2.86zM415.24 415.71q0 6-.3 11.8a41.55 41.55 0 0 1-.58 6.66 2.68 2.68 0 0 1-1.11 1.41 4.81 4.81 0 0 1-2.55.52c-.58 0-1.16 0-1.74-.07l-.69-2.44c.75.05 1.36.08 1.84.08 1.17 0 1.85-.35 2-1.05s.38-5.53.59-14.52h-3.24q-.39 11.76-4.82 18.13l-2.1-1.48q4.39-6.48 4.44-16.65h-3.78v-2.39h3.84l.11-4h2.47l-.11 4zm11.22 20.4h-2.44v-1.94h-4.53v1.91h-2.42v-22.14h9.39zm-2.44-4.41v-15.32h-4.53v15.32z"/>
  <path d="M641.51 177.77a32.31 32.31 0 0 1-3.85 6.25l-.79-.68a32.64 32.64 0 0 0 3.77-6.17zm-.42-2.82l-.63.83a23.89 23.89 0 0 0-3.46-2.47l.6-.85a23.29 23.29 0 0 1 3.49 2.54zm1-5.14l-.64.83a20.41 20.41 0 0 0-3.67-2.57l.64-.83a21 21 0 0 1 3.62 2.57zm10.84 12.53c0 .79-.23 1.3-.67 1.52a4.33 4.33 0 0 1-1.89.33h-1.21l-.44-1h1.58a3.46 3.46 0 0 0 1.37-.15c.16-.09.23-.28.23-.57v-3.56q-4.42 1.5-7.71 2.42l-.45-.61a8.8 8.8 0 0 1-1.77 3.49l-.83-.63a8.94 8.94 0 0 0 2-6v-4.48h4.47v-5.79h1v5.79h4.36zm-7-10.67l-.81.55a22.7 22.7 0 0 0-2.67-3.55l.86-.59a19.06 19.06 0 0 1 2.56 3.59zm6 6.18v-3.8h-7.79v1.58a42.84 42.84 0 0 1 6.43 1.06l-.34 1a42.4 42.4 0 0 0-6.09-1 18.81 18.81 0 0 1-.29 3.77 82.2 82.2 0 0 0 8-2.61zm1.76-9.26a19 19 0 0 1-2.53 3.6l-.93-.48a17.73 17.73 0 0 0 2.57-3.66zM672.95 172.48a8 8 0 0 1-.15 1.73 1.6 1.6 0 0 1-.39.87 1 1 0 0 1-.53.25h-1.36v6.43h-7.93l.54.66a22.79 22.79 0 0 1-5.73 1.75l-.52-1a18.56 18.56 0 0 0 5.34-1.41h-3.27v-5.71a12.33 12.33 0 0 1-2.18.6l-.48-.87c2.4-.5 4-1.33 4.9-2.49h-3.89l.53-2.89h4.49a8.31 8.31 0 0 0 .1-1.23h-5.67v-.83h5.68a4.07 4.07 0 0 0 0-.5 3.68 3.68 0 0 0 0-.49h1a5.76 5.76 0 0 1 0 1h3.18v-1h1v1h4.56v2.91h-4.62v1.21zm-10.77-1.21h-3.49l-.21 1.21h3.28a3.38 3.38 0 0 0 .37-1.21zm7.35 5.69v-1.16h-9.59v1.2zm0 2v-1.18h-9.59v1.18zm0 2.06v-1.32h-9.59v1.3zm2.32-7.68h-4.3v1.16h-1v-1.16h-4.17a6.51 6.51 0 0 1-1.4 1.64h9.07l-.16-.48h1.44a.39.39 0 0 0 .35-.17 2.76 2.76 0 0 0 .12-1.02zm-5.23-.83v-1.21h-3.4a9.67 9.67 0 0 1-.32 1.21zm0-2.06v-1.23h-3.18a6.65 6.65 0 0 1-.06 1.23zm6.21 12.87l-.45.9a40.19 40.19 0 0 0-5.57-1l.42-.94a43.79 43.79 0 0 1 5.55 1.01zm-1.68-12.87v-1.23h-3.6v1.23zM692.34 174h-6.39a25.85 25.85 0 0 1-3.29 2.26h7.47v7.94h-1v-1h-8.65v1h-1v-6.4a30.63 30.63 0 0 1-3.33 1.22l-.57-.9a28.75 28.75 0 0 0 8.72-4.11h-8.66v-1h7.19v-2.76h-5.39v-1h5.39v-2h1v2h3.9v1h-3.9v2.76h1.74a40.09 40.09 0 0 0 4.78-4.91l.75.6a37.94 37.94 0 0 1-4 4.31h5.25zm-3.22 5.26v-2h-8.36l-.29.11v1.93zm0 2.95v-2h-8.65v2zM711.63 168.73h-2.16v14.17a1.12 1.12 0 0 1-.45 1 1.77 1.77 0 0 1-1.07.33h-3.44l-.37-1.07c.8.06 2 .09 3.73.09.41 0 .61-.19.61-.58v-13.94h-13.64v-1h16.79zm-6.54 11h-8.14V172h8.15zm-1-1V173h-6.14v5.79zM731.01 183l-.37 1h-6.5a14.48 14.48 0 0 1-4.45-.54 6.45 6.45 0 0 1-2.74-1.76 8.61 8.61 0 0 1-2.14 2.63l-.7-.62a10.75 10.75 0 0 0 3.34-6.21h-2.84v-1a29.45 29.45 0 0 0 2.59-3.91h-3v-1h4.11v1a42 42 0 0 1-2.47 3.92h2.59v.95a13.11 13.11 0 0 1-1 3.28q1.82 2.25 6.35 2.25zm-12.92-12.76l-.74.65a25.18 25.18 0 0 0-2.62-2.64l.63-.73a20.05 20.05 0 0 1 2.73 2.73zm12.62 9h-11.89v-.94h3.13v-1.51h-2.68v-1h2.68v-1.22h1v1.22h3.54v-1.22h1v1.22h2.79v1h-2.79v1.51h3.23zm-7.38 1.06a19.63 19.63 0 0 1-3.38 1.7l-.66-.81a18.36 18.36 0 0 0 3.4-1.62zm1.1-6.83c-1.16.29-2.73.64-4.7 1.06l-.39-.87a.81.81 0 0 0 .35-.55v-5.23h4.26v3.62h-3.32v1.87c1.21-.24 2.44-.52 3.67-.85zm-1.41-2.92v-1.75h-2.39v1.75zm3.48 7.75v-1.51h-3.55v1.51zm4-4.31h-4a1 1 0 0 1-.63-.34.92.92 0 0 1-.36-.65v-5.12h4.38v3.62h-3.43v1.26a.35.35 0 0 0 .11.22.31.31 0 0 0 .22.13h3.7zm-.23 7.18l-.48.79a24.14 24.14 0 0 0-3.65-1.55l.52-.81a20.57 20.57 0 0 1 3.56 1.55zm-1.33-10.62v-1.75h-2.47v1.75zM738.38 171.79h-1.65V176c.62-.26 1.12-.49 1.49-.68l.08 1a16.85 16.85 0 0 1-1.57.68v6a1.16 1.16 0 0 1-.36.85 1.79 1.79 0 0 1-1.26.36h-.86l-.28-1q.69.06 1.38.06c.31 0 .46-.16.46-.48v-5.41c-.81.32-1.55.6-2.23.83l-.24-1c.68-.2 1.5-.48 2.47-.85v-4.59h-2.33v-.95h2.33v-3.51h.92v3.51h1.65zm11.88 9.93h-5.31v2.51h-1v-2.51h-5.27v-.92h5.27v-1.55h-4.52v-.94h2.58a12.67 12.67 0 0 0-.78-2h-2.28v-.92h5.06v-1.49h-4.23v-.9h4.23v-1.36h-4.85v-3.84h10.63v3.82h-4.84V173h4.13v.92h-4.13v1.45h5v.92h-2.35c-.28.69-.58 1.37-.91 2h2.7v.94h-4.44v1.55h5.27zm-7.91-11v-2h-2.23v2zm4.19 5.56h-4.19a18 18 0 0 1 .71 2h2.56a14.76 14.76 0 0 0 .92-2.01zm-.9-5.56v-2h-2.3v2zm3.18 0v-2h-2.24v2zM634.03 209.56h-1v-1.66h-4.08v2h-1v-13.63h1.79a18.34 18.34 0 0 0 1.37-3.32l1 .2c-.23.68-.67 1.72-1.31 3.12h3.29zm-1-8.18v-4.14h-4.08v4.14zm0 5.54v-4.57h-4.08v4.57zm10.63-10.63q-.11 4.34-.41 8.05a20.21 20.21 0 0 1-.62 4.38 2 2 0 0 1-.8.94 4.2 4.2 0 0 1-1.84.27h-1.55l-.31-1h2.8a1 1 0 0 0 .5-.24 1.27 1.27 0 0 0 .38-.52 15.33 15.33 0 0 0 .3-2.22c.13-1.28.23-2.69.31-4.23s.14-3 .18-4.49h-5a26.41 26.41 0 0 1-2.33 3.81l-.8-.55a20.59 20.59 0 0 0 3.59-7.41l1 .25a31 31 0 0 1-1.05 2.95zm-3.54 8.64l-.81.58a20.8 20.8 0 0 0-2.8-4.49l.83-.54a19.32 19.32 0 0 1 2.81 4.45zM663.72 208.62l-.31.94-7.68.05a8.6 8.6 0 0 1-6.11-2.15 14.27 14.27 0 0 1-2.22 2.61l-.79-.68a12.61 12.61 0 0 0 3.78-6.21h-3.24v-.89q1.44-1.78 3-4h-3.4v-1h4.67v1l-2.93 3.95h3v1a15.85 15.85 0 0 1-1.37 3.43 5.28 5.28 0 0 0 2 1.32 9.08 9.08 0 0 0 2.21.56c.74.1 3.05.14 6.91.14zM650.75 196l-.71.69a14.24 14.24 0 0 0-2.83-2.88l.71-.72a15.56 15.56 0 0 1 2.83 2.91zm12 10.18q0 1.17-1.8 1.17h-.82l-.29-1h1.47a.47.47 0 0 0 .31-.13.4.4 0 0 0 .15-.29v-1.91h-3.44v3.26h-1v-3.26h-3.43v3.43h-1v-10h4.27a25.91 25.91 0 0 0-3.06-1.8l.67-.7a22.68 22.68 0 0 1 2.59 1.45 24.24 24.24 0 0 0 3.39-2h-8.36v-.94h10v.94a26.24 26.24 0 0 1-4.16 2.54 3.24 3.24 0 0 0 .52.48h4zm-5.43-6v-1.82h-3.43v1.82zm0 2.92v-2h-3.43v2zm4.45-2.92v-1.82h-3.44v1.82zm0 2.92v-2h-3.44v2zM672.8 207.64a64 64 0 0 1-6.65 2.19l-.27-1a7.26 7.26 0 0 0 1-.29v-7.85h1v7.56a14.9 14.9 0 0 0 1.6-.46v-8.54h-2.78v-5.48h5.52v5.48h-1.76v3h2.13v1h-2.13v4.24a21.45 21.45 0 0 0 2.36-.9zm-1.6-9.36v-3.56h-3.51v3.56zm11.63 3.12l-.61.91a22.31 22.31 0 0 1-4.4-2.2 15.68 15.68 0 0 1-4.73 2.26l-.66-.93a16.62 16.62 0 0 0 4.54-1.93 10.36 10.36 0 0 1-2.17-2.62 13.8 13.8 0 0 1-1.56 1.18l-.79-.76a9.64 9.64 0 0 0 4.11-4.32l1 .31a8.75 8.75 0 0 1-.77 1.45h4.88v.91a13.64 13.64 0 0 1-3 3.77 18.37 18.37 0 0 0 4.16 1.97zm-1.39 8.6h-1v-.89h-5.32v.89h-1v-7.08h7.34zm-1-1.85v-4.25h-5.32v4.25zm0-12.42h-4.38a2.64 2.64 0 0 1-.23.28 2.53 2.53 0 0 1-.22.25 7.25 7.25 0 0 0 2.27 2.63 10.92 10.92 0 0 0 2.52-3.21zM702.1 208.69l-.25 1h-1.84a56.4 56.4 0 0 1-8.15-.47 7.4 7.4 0 0 1-4.84-2.7 15 15 0 0 1-1 3.38l-.81-.52a22.18 22.18 0 0 0 1.27-7.89l1 .14c0 1.19-.1 2.35-.23 3.48a4.68 4.68 0 0 0 1.7 1.89v-6.81h-3.57v-1h3.57v-2.57h-3v-1h3v-2.63h1v2.63h2.6v1h-2.6v2.57h2.85v1h-2.85v2.28h2.6v1h-2.6v4.14a9.65 9.65 0 0 0 3.63.9q2.4.23 6.29.23c.74-.01 1.5-.02 2.23-.05zm-.12-5.1c-.18 2.26-.72 3.39-1.59 3.39-.6 0-1.17-.57-1.7-1.7a8.08 8.08 0 0 1-2.21 2.2l-.7-.62a9.19 9.19 0 0 0 2.54-2.72 32.3 32.3 0 0 1-1.25-7.19h-2.57v7.41a21.36 21.36 0 0 0 2.2-1.3l.15 1.05a33 33 0 0 1-3.28 1.77l-.46-.79a.79.79 0 0 0 .43-.69V196h3.41c0-1-.08-2-.08-2.9h.89c0 .63.06 1.6.13 2.9h3.84v1h-3.76a28.54 28.54 0 0 0 .94 6 19.71 19.71 0 0 0 1.55-4.71l.93.36a24.53 24.53 0 0 1-2.15 5.72 4.25 4.25 0 0 0 .66 1.26c.22.26.37.4.45.4s.23-.26.4-.78a8.44 8.44 0 0 0 .29-2.12zm-.81-8.74l-.71.61a16.41 16.41 0 0 0-1.35-1.52l.68-.6a7.76 7.76 0 0 1 1.38 1.51zM721.51 208l-.59.91a17.73 17.73 0 0 1-7.62-6.52v7.5h-1v-7.42a26.49 26.49 0 0 1-7.37 6.44l-.61-.81q5.8-3.58 8-7.39V196h-7.58v-1h7.58v-2h1v2h7.82v1h-7.82v4.74a17 17 0 0 0 3.49 4.32 16 16 0 0 0 4.7 2.94zm-10.91-6.19l-.71.79a10.42 10.42 0 0 0-2-2.27 11.92 11.92 0 0 1-2.52 3l-.77-.72a10.46 10.46 0 0 0 3.63-5.74l1 .23a10.29 10.29 0 0 1-.81 2.27 15.92 15.92 0 0 1 2.18 2.46zm10 .64l-.5.92a24.91 24.91 0 0 0-2.83-2.93 9.14 9.14 0 0 1-1.47 2.34l-.77-.64a12.28 12.28 0 0 0 2.31-5.14l1 .2a21 21 0 0 1-.66 2.27 21.56 21.56 0 0 1 2.91 3zM740.67 208.69l-.24 1h-1.85a56.49 56.49 0 0 1-8.15-.47 7.44 7.44 0 0 1-4.84-2.7 15.1 15.1 0 0 1-1 3.38l-.81-.52a22.18 22.18 0 0 0 1.27-7.89l1 .14a32.77 32.77 0 0 1-.24 3.48 4.83 4.83 0 0 0 1.74 1.88v-6.81h-3.6v-1h3.56v-2.57h-3.05v-1h3.05v-2.63h1v2.63h2.59v1h-2.59v2.57h2.85v1h-2.85v2.28h2.59v1h-2.59v4.14a9.54 9.54 0 0 0 3.63.9q2.4.23 6.28.23c.77 0 1.53-.01 2.25-.04zm-.11-5.1q-.28 3.41-1.61 3.41c-.61 0-1.17-.57-1.71-1.7a7.92 7.92 0 0 1-2.2 2.2l-.71-.62a9.1 9.1 0 0 0 2.55-2.72 32.84 32.84 0 0 1-1.26-7.19h-2.57v7.41a21.57 21.57 0 0 0 2.21-1.3l.15 1.05a33 33 0 0 1-3.28 1.77l-.46-.79a.8.8 0 0 0 .42-.69V196h3.46c-.06-1-.09-2-.09-2.9h.9c0 .63.05 1.6.13 2.9h3.83v1h-3.75a27.91 27.91 0 0 0 .94 6 19.72 19.72 0 0 0 1.54-4.71l.93.36a24.55 24.55 0 0 1-2.14 5.72 4.52 4.52 0 0 0 .65 1.26c.22.26.38.4.46.4s.23-.26.39-.78a8 8 0 0 0 .29-2.12zm-.81-8.74l-.72.61a16.23 16.23 0 0 0-1.34-1.52l.67-.6a7.49 7.49 0 0 1 1.39 1.51zM757.53 195.5q-4.49 5.26-14.06 6.81l-.46-1a27.88 27.88 0 0 0 7.38-1.89 24 24 0 0 0-3.31-2.78 25.21 25.21 0 0 1-3.11 1.45l-.61-.89a16.79 16.79 0 0 0 6.84-4.21l1 .39a6.74 6.74 0 0 1-1.24 1.31h7.54zm2.17 6.93a5.76 5.76 0 0 1-1.07 1.71 11.68 11.68 0 0 1-1.27 1.44 15.33 15.33 0 0 1-1.51 1.24 17.3 17.3 0 0 1-1.9 1.18 16.68 16.68 0 0 1-2.74 1 23.82 23.82 0 0 1-6.55 1l-.48-1a22.27 22.27 0 0 0 8.83-1.58 19.82 19.82 0 0 0-3.38-3.09 18 18 0 0 1-4.35 1.52l-.57-1a15.4 15.4 0 0 0 9.5-5.24l1 .4a18.76 18.76 0 0 1-1.43 1.54h6zm-3.68-6.77h-7.33a4.61 4.61 0 0 1-.66.44 27.8 27.8 0 0 1 3.33 2.84 16.93 16.93 0 0 0 4.66-3.28zm2.48 6.84h-5.94a16.89 16.89 0 0 1-2 1.28 27.91 27.91 0 0 1 3.35 3.05 11 11 0 0 0 4.59-4.33zM787.64 183.52l-.65 1a18.64 18.64 0 0 1-7.85-10.09 15.5 15.5 0 0 1-2.78 5.48 23.2 23.2 0 0 1 3.22 3.57l-.81.67a17.67 17.67 0 0 0-3-3.43 22.07 22.07 0 0 1-4.31 3.63l-.78-.83q6.79-4.19 7.73-10.71h-7.46v-1h7.58c.14-1.49.23-2.95.26-4.39h1.05c-.05 1.57-.14 3-.28 4.39h7.74v1h-7.56a15.65 15.65 0 0 0 2.81 6.1 17 17 0 0 0 5.09 4.61zM804.43 169.78q-4.48 5.22-14.06 6.81l-.47-1a27.85 27.85 0 0 0 7.39-1.89 24.88 24.88 0 0 0-3.34-2.8 23.11 23.11 0 0 1-3.1 1.45l-.62-.88a17 17 0 0 0 6.85-4.21l1 .38a6.24 6.24 0 0 1-1.25 1.31h7.55zm2.16 6.93a5.59 5.59 0 0 1-1.06 1.72 12.44 12.44 0 0 1-1.28 1.43 13 13 0 0 1-1.5 1.24 17.3 17.3 0 0 1-1.93 1.14 16.62 16.62 0 0 1-2.74 1 23.82 23.82 0 0 1-6.56 1l-.47-1a22.27 22.27 0 0 0 8.83-1.58 20.24 20.24 0 0 0-3.38-3.09 18 18 0 0 1-4.35 1.52l-.57-1a15.4 15.4 0 0 0 9.5-5.24l1 .4a17.15 17.15 0 0 1-1.42 1.54h6zm-3.64-6.77h-7.33a3.66 3.66 0 0 1-.67.44 28 28 0 0 1 3.34 2.84 16.72 16.72 0 0 0 4.66-3.28zm2.48 6.85h-5.94a17 17 0 0 1-2 1.27 28.85 28.85 0 0 1 3.36 3.05 10.92 10.92 0 0 0 4.55-4.32zM826.12 183l-.36 1h-6.5a14.6 14.6 0 0 1-4.46-.54 6.57 6.57 0 0 1-2.74-1.76 8.46 8.46 0 0 1-2.13 2.63l-.7-.62a10.68 10.68 0 0 0 3.33-6.21h-2.83v-1a30.47 30.47 0 0 0 2.59-3.91h-3v-1h4.11v1a44.25 44.25 0 0 1-2.47 3.92h2.58v.95a12.68 12.68 0 0 1-1 3.28q1.82 2.25 6.35 2.25zm-12.92-12.76l-.73.65a26.19 26.19 0 0 0-2.62-2.64l.63-.73a20 20 0 0 1 2.72 2.73zm12.63 9h-11.88v-.94h3.16v-1.51h-2.68v-1h2.68v-1.22h1v1.22h3.53v-1.22h1v1.22h2.8v1h-2.8v1.51h3.24zm-7.38 1.06a19.63 19.63 0 0 1-3.43 1.7l-.66-.81a18 18 0 0 0 3.39-1.62zm1.1-6.83c-1.16.29-2.73.64-4.71 1.06l-.38-.87a.79.79 0 0 0 .34-.55v-5.23h4.27v3.62h-3.32v1.87c1.21-.24 2.43-.52 3.67-.85zm-1.41-2.92v-1.75h-2.39v1.75zm3.47 7.75v-1.51h-3.53v1.51zm4-4.31h-4a1 1 0 0 1-.63-.34.92.92 0 0 1-.36-.65v-5.12h4.33v3.62h-3.43v1.26a.35.35 0 0 0 .11.22.31.31 0 0 0 .22.13h3.7zm-.24 7.18l-.48.79a24 24 0 0 0-3.64-1.55l.52-.81a20.17 20.17 0 0 1 3.56 1.55zm-1.32-10.62v-1.75h-2.47v1.75zM833.5 171.79h-1.65V176c.62-.26 1.11-.49 1.49-.68l.08 1a16.85 16.85 0 0 1-1.57.68v6a1.13 1.13 0 0 1-.37.85 1.76 1.76 0 0 1-1.26.36h-.85l-.29-1c.46 0 .92.06 1.39.06.31 0 .46-.16.46-.48v-5.41c-.81.32-1.56.6-2.23.83l-.24-1c.67-.2 1.5-.48 2.47-.85v-4.59h-2.34v-.95h2.36v-3.51h.92v3.51h1.65zm11.88 9.93h-5.27v2.51h-1v-2.51h-5.27v-.92h5.27v-1.55h-4.52v-.94h2.57a12.55 12.55 0 0 0-.77-2h-2.32v-.92h5.06v-1.49h-4.18v-.9h4.23v-1.36h-4.84v-3.84h10.61v3.82h-4.8V173h4.13v.92h-4.13v1.45h5v.92h-2.34c-.28.69-.58 1.37-.91 2h2.7v.94h-4.42v1.55h5.27zm-7.91-11v-2h-2.24v2zm4.19 5.56h-4.19a20.2 20.2 0 0 1 .71 2h2.55a13.68 13.68 0 0 0 .93-2.01zm-.91-5.56v-2h-2.3v2zm3.19 0v-2h-2.25v2zM852.61 167.74c-.14.42-.4 1.08-.77 2l-.58 1.34v13.25h-1V173a20 20 0 0 1-2 3l-.56-.93a27.72 27.72 0 0 0 4-7.7zm12.05 2.64h-5.71v2.28h4.75v5h-4.84a8.56 8.56 0 0 1-1 3.72 18.15 18.15 0 0 0 6.73 2l-.38 1a17.63 17.63 0 0 1-6.94-2.13 7.41 7.41 0 0 1-4.84 2.19l-.41-.91a7.3 7.3 0 0 0 4.4-1.85 11.57 11.57 0 0 1-2.76-2.74l.85-.48a11.17 11.17 0 0 0 2.47 2.43 6.88 6.88 0 0 0 .84-3.17h-4.76v-5h4.89v-2.28h-5.45v-.94h5.45v-1.95h1v1.95h5.69zm-6.71 3.24h-3.8v3h3.72c.08-1.06.08-2.08.08-3zm4.8 3v-3h-3.8v3zM871.64 177.77a31.83 31.83 0 0 1-3.85 6.25l-.79-.68a32.65 32.65 0 0 0 3.78-6.17zm-.42-2.82l-.63.83a23.89 23.89 0 0 0-3.46-2.47l.6-.85a23.29 23.29 0 0 1 3.49 2.54zm1-5.14l-.64.83a20.68 20.68 0 0 0-3.66-2.57l.64-.83a21.31 21.31 0 0 1 3.61 2.57zm10.84 12.53c0 .79-.22 1.3-.66 1.52a4.41 4.41 0 0 1-1.9.33h-1.21l-.44-1h1.58a3.49 3.49 0 0 0 1.38-.15c.15-.09.22-.28.22-.57v-3.56q-4.42 1.5-7.71 2.42l-.44-.61a9.06 9.06 0 0 1-1.77 3.49l-.84-.63a8.94 8.94 0 0 0 2-6v-4.48h4.47v-5.79h1v5.79h4.36zm-7-10.67l-.81.55a22.09 22.09 0 0 0-2.67-3.55l.86-.59a18.63 18.63 0 0 1 2.56 3.59zm6 6.18v-3.8h-7.78v1.58a42.48 42.48 0 0 1 6.42 1.06l-.33 1a42.4 42.4 0 0 0-6.09-1 18.77 18.77 0 0 1-.3 3.77 81.37 81.37 0 0 0 7.97-2.61zm1.76-9.26a19 19 0 0 1-2.53 3.6l-.92-.48a18.11 18.11 0 0 0 2.56-3.66zM903.03 172.48a8 8 0 0 1-.15 1.73 1.68 1.68 0 0 1-.38.87 1 1 0 0 1-.54.25h-1.36v6.43h-7.93l.54.66a22.66 22.66 0 0 1-5.73 1.75l-.51-1a18.58 18.58 0 0 0 5.33-1.41h-3.24v-5.71a12.33 12.33 0 0 1-2.18.6l-.48-.87c2.4-.5 4-1.33 4.9-2.49h-3.89l.53-2.89h4.5a9.75 9.75 0 0 0 .09-1.23h-5.65v-.83h5.68a4.07 4.07 0 0 0 0-.5 3.68 3.68 0 0 0 0-.49h1a5.76 5.76 0 0 1 0 1h3.18v-1h1v1h4.56v2.91h-4.56v1.21zm-10.76-1.21h-3.5l-.21 1.21h3.28a3.59 3.59 0 0 0 .43-1.21zm7.34 5.69v-1.16h-9.58v1.2zm0 2v-1.18h-9.58v1.18zm0 2.06v-1.32h-9.58v1.3zm2.32-7.68h-4.25v1.16h-1v-1.16h-4.17a6.51 6.51 0 0 1-1.4 1.64h9.07l-.16-.48h1.45a.38.38 0 0 0 .34-.17 2.52 2.52 0 0 0 .14-1.02zm-5.23-.83v-1.21h-3.4a8.21 8.21 0 0 1-.32 1.21zm0-2.06v-1.23h-3.18a6.65 6.65 0 0 1-.06 1.23zm6.25 12.84l-.44.9a40.57 40.57 0 0 0-5.58-1l.43-.94a44 44 0 0 1 5.59 1.04zm-1.68-12.87v-1.23h-3.55v1.23zM922.47 174h-6.4a26.73 26.73 0 0 1-3.3 2.26h7.48v7.94h-1v-1h-8.65v1h-1v-6.4a30.91 30.91 0 0 1-3.34 1.22l-.56-.9a28.75 28.75 0 0 0 8.72-4.11h-8.67v-1h7.2v-2.76h-5.4v-1h5.4v-2h1v2h3.9v1h-3.9v2.76h1.73a39.38 39.38 0 0 0 4.78-4.91l.76.6a38.87 38.87 0 0 1-4 4.31h5.24zm-3.22 5.26v-2h-8.3l-.3.11v1.93zm0 2.95v-2h-8.65v2zM806.3 209.56h-1v-1.66h-4.16v2h-1v-13.63h1.81a18.34 18.34 0 0 0 1.4-3.27l1 .2a33.25 33.25 0 0 1-1.3 3.12h3.29zm-1-8.18v-4.14h-4.16v4.14zm0 5.54v-4.57h-4.16v4.57zm10.65-10.63q-.1 4.34-.42 8.05a19.82 19.82 0 0 1-.61 4.38 2.1 2.1 0 0 1-.8.94 4.2 4.2 0 0 1-1.84.27h-1.55l-.31-1h2.8a1 1 0 0 0 .5-.24 1.27 1.27 0 0 0 .38-.52 17.1 17.1 0 0 0 .3-2.22c.12-1.28.23-2.69.31-4.23s.14-3 .18-4.49h-5a25.61 25.61 0 0 1-2.34 3.81l-.79-.55a20.59 20.59 0 0 0 3.59-7.41l1 .25c-.31 1-.67 2-1.05 2.95zm-3.55 8.64l-.81.58a20.35 20.35 0 0 0-2.79-4.49l.82-.54a18.67 18.67 0 0 1 2.79 4.45zM834.87 210h-1.09v-1.66h-13V210h-1.05v-16.53h15.11zm-1.09-2.7v-12.8h-13v12.75zm-2.85-3h-7.33v-6.93h7.35zm-1-1v-4.9h-5.29v4.9zM843.41 205.17h-2.93l.53.44a17.78 17.78 0 0 1-2.06 4.39l-.72-.62a23.67 23.67 0 0 0 2-4.22h-1.28v-11.4h4.46zm-.94-8v-2.55h-2.52v2.55zm0 3.45v-2.52h-2.52v2.52zm0 3.61v-2.63h-2.52v2.66zm1.34 4.55l-.83.39a18.37 18.37 0 0 0-1.29-2.94l.85-.38a18.56 18.56 0 0 1 1.27 2.96zm11.23-2.16h-1.31v1.93a1.39 1.39 0 0 1-.24.86 1.12 1.12 0 0 1-.59.41 6.15 6.15 0 0 1-1.41.1h-1l-.37-1h2.16q.51 0 .51-.54v-1.78h-6.43v3.4h-.93v-3.34h-1.56v-.85h1.56v-4.55h3.59v-1.46h-4.92v-.8h2.85v-1.49h-2v-.84h2v-1.29h-2.71v-.85h2.71v-1.41h1v1.41h3.18v-1.41h1v1.41h2.66v.85h-2.74v1.29h2v.84h-2V199H855v.83h-5v1.45h3.72v4.55h1.31zm-6-3.1v-1.41h-2.66v1.41zm0 2.25v-1.36h-2.66v1.36zm2.06-9.16v-1.29h-3.15v1.29zm0 2.33v-1.49h-3.15V199zm1.71 4.58v-1.41h-2.8v1.41zm0 2.25v-1.36h-2.8v1.36zM874.27 206.21h-7.83V210h-1v-3.74h-7.91v-.93h7.91v-1.82h1v1.82h7.83zm-12.09-4.88a27.53 27.53 0 0 1-3.81 2.48l-.5-.88a22 22 0 0 0 3.85-2.56zm11.55-5.54h-8l.69.44a10.75 10.75 0 0 1-2.35 2.54 24.4 24.4 0 0 0 2.82-.26 14.09 14.09 0 0 0 1.07-1.29l.85.5a18.32 18.32 0 0 1-4.59 4.3 37.56 37.56 0 0 0 3.87-.42 7.26 7.26 0 0 0-.8-1.12l.81-.5a12.54 12.54 0 0 1 1.91 3.08l-.83.51-.58-1.14c-1.91.3-3.88.51-5.88.63l-.21-.89a19.86 19.86 0 0 0 3.35-2.63l-3.16.21-.19-.85a10.59 10.59 0 0 0 3-3.11h-7.31v-.94h7.31a9.34 9.34 0 0 0-.89-1.58l1-.35a16.85 16.85 0 0 1 1 1.93h7.15zm-12 3l-.74.7a12.75 12.75 0 0 0-2.52-2.23l.74-.7a13.14 13.14 0 0 1 2.49 2.21zm11.54-1.51a14.82 14.82 0 0 1-2.89 2.33l-.77-.73a12.54 12.54 0 0 0 2.9-2.2zm.68 5.72l-.68.77a17.79 17.79 0 0 0-3.54-2.6l.65-.75a18.56 18.56 0 0 1 3.57 2.58zM881.95 193.3c-.26.61-.57 1.32-1 2.11l-.56 1.15v13.33h-1v-11.44a19 19 0 0 1-2.24 3.09l-.6-1a27.3 27.3 0 0 0 4.4-7.54zm11.72 11.46a9.45 9.45 0 0 1-.38 2.3 3.21 3.21 0 0 1-.63 1.34 1 1 0 0 1-.68.27c-.78 0-1.53-.93-2.27-2.8a22.47 22.47 0 0 1-1.42-6.24h-4.41v6.17c.93-.3 2.19-.77 3.75-1.42l.13 1.05a39.73 39.73 0 0 1-4.58 1.62l-.56-1a3.19 3.19 0 0 0 .27-1.15v-10a48.43 48.43 0 0 0 9.3-1.9l.63.93a40.74 40.74 0 0 1-4 1c.05 1.15.15 2.37.27 3.68h4.44v1h-4.28a20.47 20.47 0 0 0 1.21 5.53c.6 1.56 1.08 2.34 1.43 2.34s.67-1.09.84-3.26zm-3.6 4.69h-7.12v-1h7.08zm-1.94-10.83l-.3-3.46c-1.48.26-2.8.46-4 .59v2.87zM132.95 578.62q-4.48 5.26-14.06 6.81l-.46-1a27.88 27.88 0 0 0 7.38-1.89 24 24 0 0 0-3.31-2.78 25.21 25.21 0 0 1-3.11 1.45l-.61-.89a16.79 16.79 0 0 0 6.84-4.21l1 .39a6.74 6.74 0 0 1-1.24 1.31h7.57zm2.17 6.93a5.76 5.76 0 0 1-1.07 1.71 11.68 11.68 0 0 1-1.27 1.44 15.33 15.33 0 0 1-1.51 1.24 17.3 17.3 0 0 1-1.93 1.14 16.68 16.68 0 0 1-2.74 1 23.82 23.82 0 0 1-6.55 1l-.48-1a22.27 22.27 0 0 0 8.83-1.58 19.82 19.82 0 0 0-3.38-3.09 18 18 0 0 1-4.35 1.52l-.57-1a15.37 15.37 0 0 0 9.5-5.25l1 .41a17.16 17.16 0 0 1-1.43 1.53h6zm-3.68-6.77h-7.29a4.61 4.61 0 0 1-.66.44 27.8 27.8 0 0 1 3.33 2.84 17.15 17.15 0 0 0 4.66-3.28zm2.48 6.84h-5.94a16.89 16.89 0 0 1-1.95 1.28 27.91 27.91 0 0 1 3.35 3.05 11 11 0 0 0 4.57-4.33zM154.58 588a15 15 0 0 1-.32 2.69 2.66 2.66 0 0 1-.91 1.77 5.62 5.62 0 0 1-2.5.37c-.87 0-1.5 0-1.9-.06a1.36 1.36 0 0 1-.93-.45 1.44 1.44 0 0 1-.35-1v-8h-3.55a14.44 14.44 0 0 1-1.34 6 9.55 9.55 0 0 1-4.27 3.87l-.7-.89a9.41 9.41 0 0 0 3.65-2.85c1-1.26 1.52-3.3 1.58-6.14h-4.88v-1h16.2v1h-5.63v7.94a.49.49 0 0 0 .35.49 4.36 4.36 0 0 0 1.32.13 10.24 10.24 0 0 0 2.1-.1 1.33 1.33 0 0 0 .46-.32 3.34 3.34 0 0 0 .41-1.43 16.12 16.12 0 0 0 .18-2.39zm-1.72-10.38h-13.25v-1h13.25zM163.8 592.68h-1V591h-4.16v2h-1v-13.61h1.79a18.29 18.29 0 0 0 1.38-3.32l1 .2c-.23.68-.66 1.72-1.31 3.12h3.3zm-1-8.18v-4.14h-4.16v4.14zm0 5.54v-4.57h-4.16V590zm10.64-10.63q-.12 4.33-.42 8.05a20.21 20.21 0 0 1-.62 4.38 2.09 2.09 0 0 1-.79.94 4.29 4.29 0 0 1-1.85.27h-1.55l-.31-1h2.8a1.07 1.07 0 0 0 .51-.24 1.25 1.25 0 0 0 .37-.52 13.89 13.89 0 0 0 .3-2.22c.13-1.28.23-2.69.31-4.23s.15-3 .18-4.49h-5a26.41 26.41 0 0 1-2.33 3.81l-.79-.55a20.75 20.75 0 0 0 3.59-7.41l1 .25c-.32 1-.67 2-1.06 2.95zm-3.49 8.64l-.81.58a21.09 21.09 0 0 0-2.8-4.5l.83-.53a19.32 19.32 0 0 1 2.78 4.45zM193.48 591.74l-.31.94h-7.67a8.6 8.6 0 0 1-6.12-2.14 13.89 13.89 0 0 1-2.22 2.61l-.79-.68a12.61 12.61 0 0 0 3.78-6.21h-3.2v-.89q1.46-1.78 3-4h-3.4v-1h4.67v1l-2.93 4h3v.95a15.36 15.36 0 0 1-1.37 3.43 5.36 5.36 0 0 0 2 1.32 9.08 9.08 0 0 0 2.21.56c.75.1 3 .14 6.91.14zm-13-12.59l-.7.69a14.62 14.62 0 0 0-2.83-2.84l.71-.72a15.56 15.56 0 0 1 2.85 2.87zm12 10.17c0 .79-.6 1.18-1.8 1.18h-.82l-.29-1h1.47a.45.45 0 0 0 .31-.13.41.41 0 0 0 .15-.29v-1.91h-3.44v3.25h-1v-3.25h-3.42v3.42h-1v-10h4.31a28.46 28.46 0 0 0-3.07-1.81l.67-.69a21.85 21.85 0 0 1 2.59 1.45 23.91 23.91 0 0 0 3.4-2h-8.37v-.94h10v.94a26.53 26.53 0 0 1-4.16 2.54 4.52 4.52 0 0 0 .52.48h4zm-5.43-6v-1.82h-3.42v1.82zm0 2.92v-2h-3.42v2zm4.45-2.92v-1.82h-3.44v1.82zm0 2.92v-2h-3.44v2zM202.56 590.76a64 64 0 0 1-6.61 2.24l-.27-1a7.26 7.26 0 0 0 1-.29v-7.85h1v7.56a14.9 14.9 0 0 0 1.6-.46v-8.54h-2.83v-5.48h5.5v5.48h-1.77v3h2.13v1h-2.13v4.24a21.45 21.45 0 0 0 2.36-.9zm-1.6-9.37v-3.55h-3.51v3.55zm11.63 3.13l-.61.91a22.87 22.87 0 0 1-4.4-2.2 15.92 15.92 0 0 1-4.73 2.26l-.66-.93a16.62 16.62 0 0 0 4.54-1.93 10.5 10.5 0 0 1-2.16-2.62 12.91 12.91 0 0 1-1.57 1.18l-.79-.76a9.72 9.72 0 0 0 4.12-4.32l1 .31a9.62 9.62 0 0 1-.78 1.45h4.88v.91a13.64 13.64 0 0 1-3 3.77 18.37 18.37 0 0 0 4.16 1.97zm-1.39 8.54h-1v-.88h-5.32v.88h-1V586h7.34zm-1-1.84V587h-5.32v4.25zm0-12.42h-4.38a2.4 2.4 0 0 1-.23.28l-.21.25a7.22 7.22 0 0 0 2.26 2.63 10.76 10.76 0 0 0 2.52-3.16zM221.87 579.72l-.79.66a15.2 15.2 0 0 0-2.53-2.59 24.46 24.46 0 0 1-2.21 3.11h4.61v.9h-2v2.09h2.48v.9h-2.48v6c.22 0 1-.25 2.2-.65v1q-3.62 1.14-5.94 1.62l-.33-1c.82-.15 1.85-.39 3.1-.73v-6.25h-2.64v-.9h2.64v-2.08h-1.83v-.72a8.78 8.78 0 0 1-.67.61l-.66-.74a18.59 18.59 0 0 0 3.51-4.88l.83.48a1.86 1.86 0 0 1-.22.43 21.7 21.7 0 0 1 2.93 2.74zM217.13 590l-1 .27a17 17 0 0 0-.77-3.82l.86-.33a26.37 26.37 0 0 1 .91 3.88zm4.27-3.64a19.56 19.56 0 0 1-.81 3.31l-.92-.29a13.69 13.69 0 0 0 .83-3.27zm9.46 5.43a1.09 1.09 0 0 1-.43 1 3.39 3.39 0 0 1-1.74.29h-1.17l-.32-1h1.7a2.12 2.12 0 0 0 .82-.09.27.27 0 0 0 .15-.25v-4.2c-1.78.91-3.81 1.85-6.07 2.83l-.52-.7a10.4 10.4 0 0 1-1.43 3.41l-.83-.61a11.45 11.45 0 0 0 1.6-6.5v-4h3.57v-5.77h1v5.8h3.68zm-6.21-11.26l-.89.44a16.73 16.73 0 0 0-1.79-3.79l.89-.5a18.26 18.26 0 0 1 1.79 3.83zm5.22 6v-3.57h-6.24v1.6a24 24 0 0 1 5.23.68l-.34 1a23.71 23.71 0 0 0-4.89-.69 27.88 27.88 0 0 1-.31 4 57.26 57.26 0 0 0 6.55-3.06zm1.76-9.37a22.36 22.36 0 0 1-2.18 3.79l-.89-.53a19.65 19.65 0 0 0 2.21-3.79zM251.03 586.22h-14.08v-5.79a20.29 20.29 0 0 1-2 2.09l-.77-.65a19.66 19.66 0 0 0 4.37-5.81l1 .31-1 1.69h4.69a12.15 12.15 0 0 0-.89-1.64l1-.29a10.19 10.19 0 0 1 1 1.93h6.54v1h-6.56v1.37h5.62v.92h-5.71v1.51h5.71v.9h-5.73v1.56h6.79zm-1.45 6.78h-1v-1h-10.91v1h-1v-5.36h12.92zm-1-2v-2.41h-10.91V591zm-5.32-10.62V579h-5.31v1.37zm0 2.39v-1.47h-5.31v1.47zm0 2.5v-1.56h-5.31v1.56zM142.17 616.07h-7.66l.48.63a25.6 25.6 0 0 1-6.32 2.2l-.5-.91a20.59 20.59 0 0 0 5.88-1.92h-3V609h11.11zm-8.47-8.89h-5.39v-1h5.39zm-.15-3.48h-4.86v-.92h4.86zm7.62 7.31v-1.1h-9.09V611zm0 2.06v-1.19h-9.09v1.19zm0 2.09v-1.22h-9.09v1.22zm3.89-7.37l-.42.94a11.51 11.51 0 0 1-5.77-2.25 8.94 8.94 0 0 1-4.41 2.2l-.52-.93q3.56-.54 4.9-2.89l1.05.19a2.44 2.44 0 0 1-.44.75 10.43 10.43 0 0 0 5.61 1.99zm-.4-3.53a16.14 16.14 0 0 1-1.81 2.18l-.74-.69a15 15 0 0 0 1.41-1.64h-7.06a9.6 9.6 0 0 1-1.76 1.73l-.67-.67a9.93 9.93 0 0 0 2.8-3.4l.94.33-.61 1.07h7.5zm.29 13.74l-.46.88a37.58 37.58 0 0 0-5.6-1.62l.48-.86a34.09 34.09 0 0 1 5.58 1.6zM153.82 604.84h-6.4v-1h3a11 11 0 0 0-.84-1.73l.88-.42a14.59 14.59 0 0 1 1 2.15h2.37zm-.55 2.82h-5.39v-.95h5.39zm-.06 2.76h-5.33v-.92h5.33zm0 8.06h-1v-1.16h-3.12v1.46h-1v-6.46h5.17zm-1-2.09v-3.12h-3.12v3.12zm12.61-2a10.77 10.77 0 0 1-.72 3.05c-.34.8-.73 1.21-1.16 1.21-.67 0-1.13-.68-1.38-2a19.88 19.88 0 0 1-.36-3.36v-9.94h-3.86v6.06h3v.92h-3v8.48h-1v-8.48h-2.23v-.92h2.23v-6.06h-2.08v-.92h7.93v10.18a18.06 18.06 0 0 0 .29 3.74c.2.84.34 1.25.43 1.25s.25-.41.49-1.22a13.35 13.35 0 0 0 .48-2.52zM175.81 604h-3.86v1.23h3.14v3.2h-3.14v.41a19.34 19.34 0 0 1 2.83 1.44l-.42.87a19.29 19.29 0 0 0-2.41-1.35v2h-.94v-2.35a18.86 18.86 0 0 1-3.63 2.43l-.66-.81a14.52 14.52 0 0 0 4-2.62h-3v-3.2h3.32V604h-4.09v-1h4.13v-1h.87v1h3.84zm7.75 14.52h-16.78v-.91h3.38v-3.05h1v3.05h3.66v-4.07h-7.54v-.91h15.94v.91h-7.37V615h6.65v.87h-6.65v1.72h7.75zm-12.53-11v-1.39h-2.32v1.39zm3.12 0v-1.39h-2.2v1.39zm9.51 3.42l-.52.9a9.5 9.5 0 0 1-3.41-1.73 18.33 18.33 0 0 1-3.71 1.77l-.69-.83a13.34 13.34 0 0 0 3.72-1.66 7.85 7.85 0 0 1-1.33-2.22l.87-.42a6.43 6.43 0 0 0 1.23 2 6 6 0 0 0 1.7-3.7h-3.11a10.73 10.73 0 0 1-2.19 2.61l-.7-.64a10.65 10.65 0 0 0 3.29-5.08l.87.37a9 9 0 0 1-.74 1.82h4.55v.87h-1a6.91 6.91 0 0 1-2 4.38 8.51 8.51 0 0 0 3.17 1.52zM202.95 607.48l-.65.85a23 23 0 0 1-7.86-5.15 28.77 28.77 0 0 1-7.8 5.17l-.65-.87a23.22 23.22 0 0 0 8.43-5.76l1 .38a1.1 1.1 0 0 1-.28.43 23 23 0 0 0 7.81 4.95zm-2.43 11.35h-1v-1.28h-10.13v1.28h-1v-7.67h12.15zm-1-2.3v-4.34h-10.13v4.34zm0-8h-10v-1h10zM212.84 609.08h-5.7v9.66h-1v-16.37h6.71zm-1-3.87v-1.87h-4.69v1.87zm0 2.91v-2h-4.69v2zm5.35 8h-7.06v-5.33h7.06zm-1-1v-3.33h-5.08v3.33zm5 2.2a1.45 1.45 0 0 1-.47 1.18 2.84 2.84 0 0 1-1.77.39h-.93l-.39-1h1.11a3.68 3.68 0 0 0 1.2-.12.54.54 0 0 0 .26-.53v-8.13h-5.64v-6.71h6.63zm-1-12.07v-1.87h-4.65v1.87zm0 2.91v-2h-4.65v2zM241.46 617.51l-.24 1h-4a45 45 0 0 1-5.16-.21 11.44 11.44 0 0 1-3.09-.81 8.33 8.33 0 0 1-2.59-1.66 16.77 16.77 0 0 1-1 2.84l-.82-.47a20.27 20.27 0 0 0 1.54-6.73l.94.12a29.44 29.44 0 0 1-.46 3.16 6.94 6.94 0 0 0 2.06 1.58v-6h-4.08v-.9h8.57v.9h-3.5v2.52h2.87v1h-2.87v2.95a11.38 11.38 0 0 0 3.4.68c1.3.09 3 .13 5.18.13 1.2-.02 2.27-.04 3.25-.1zm-9-9.39h-7v-5.78h7zm-1-3.42v-1.48h-5v1.48zm0 2.5v-1.6h-5v1.6zm9.67-3.92h-3.61a10 10 0 0 1-.59 1.85h3.55v8.25h-4.63l.59.68a20.76 20.76 0 0 1-3.17 2.82l-.73-.7a14.47 14.47 0 0 0 3.2-2.8h-1.79v-8.25h2a9.81 9.81 0 0 0 .6-1.85h-3.22v-.91h7.81zm-1.63 4.32v-1.52h-4.65v1.52zm0 2.45v-1.58h-4.65v1.58zm0 2.45v-1.56h-4.65v1.56zm1.61 3.74l-.6.75a15 15 0 0 0-2.79-2.12l.5-.79a19.18 19.18 0 0 1 2.88 2.16zM287.66 583.49a12.78 12.78 0 0 1-1.35 2.06c.22.22.58.64 1.1 1.25l-.62.73a12.08 12.08 0 0 0-2.21-2.25V593h-1v-7.31a17.31 17.31 0 0 1-1.81 1.75l-.65-.81a11.92 11.92 0 0 0 4.56-6.57h-4.27v-.94h5.28v.94a12.26 12.26 0 0 1-1.91 4.16l.83.72a8.76 8.76 0 0 0 1.27-1.95zm-2.5-5.43l-.8.54a9.75 9.75 0 0 0-1.71-1.9l.83-.59a8.6 8.6 0 0 1 1.68 1.95zm12.79 14.14l-.43.86a20.87 20.87 0 0 1-4.69-1.71 20.19 20.19 0 0 1-5.55 1.7l-.58-.91a17.52 17.52 0 0 0 5.17-1.38 13.34 13.34 0 0 1-2.45-2.21 13.25 13.25 0 0 1-2.14 1.28l-.69-.75a11.68 11.68 0 0 0 2.23-1.3c-.29-.41-.49-.7-.59-.88l.79-.5c.23.35.4.61.52.75a6.47 6.47 0 0 0 1.43-1.68h-1.8V580h7.64v5.48h-4.75a10.59 10.59 0 0 1-1 1.44h5.71V588a9.24 9.24 0 0 1-2.95 2.83 16.85 16.85 0 0 0 4.13 1.37zm-.33-13.7h-7.89a14.9 14.9 0 0 1-1.83 2.41l-.76-.63a12.28 12.28 0 0 0 2.73-4.22l.88.42-.53 1.1h7.4zm-1.75 3.73v-1.33h-5.71v1.33zm0 2.35v-1.44h-5.71v1.44zm-.15 3.24h-5.41l-.13.14a9.24 9.24 0 0 0 2.65 2.27 9.58 9.58 0 0 0 2.85-2.41zM308.95 586.82h-3.63v.83a23.66 23.66 0 0 1 3.4 2.6l-.62.84a17.13 17.13 0 0 0-2.78-2.36v4.32h-1v-4.71a20.11 20.11 0 0 1-3.39 3.21l-.62-.77a14.33 14.33 0 0 0 3.91-4h-3.8v-.94h3.9v-1.22h1v1.22h3.63zm-4.53-4.51l-.54.79a6.49 6.49 0 0 0-1.05-1 10.43 10.43 0 0 1-1.5 2.24l-.75-.54a11 11 0 0 0 2.29-4.46l.9.3a11.33 11.33 0 0 1-.55 1.6 11 11 0 0 1 1.21 1.07zm4.53-3.53h-8.24v-.91h3.78c-.12-.28-.37-.74-.72-1.37l.86-.43a10.78 10.78 0 0 1 .87 1.8h3.45zm-.56 4.43l-.64.78a13.32 13.32 0 0 0-1.48-1.84 12.67 12.67 0 0 1-1.2 2l-.79-.48a14.29 14.29 0 0 0 2.08-4.29l.87.28c-.15.47-.35 1-.59 1.67a13.27 13.27 0 0 1 1.76 1.88zm8.84 9h-6.28v.83h-.94v-10.85a10.35 10.35 0 0 1-.72 1.16l-.65-.78a19.49 19.49 0 0 0 2.62-6.51l.91.33a27.86 27.86 0 0 1-.94 3.16h2.85a29.15 29.15 0 0 0-1-2.82l.92-.36c.35.91.68 2 1 3.18h1.95v.92h-2.41v2.84h2.41v.9h-2.35v3h2.35v.9h-2.35v3.13h2.67zm-3.63-8.91v-2.84h-2.65v2.84zm0 3.92v-3h-2.65v3zm0 4v-3.13h-2.65v3.13zM329.84 585.47l-.72.69a22.27 22.27 0 0 0-4.21-4.42 20.84 20.84 0 0 1-2.78 3.48h5.92v7.58h-1v-1.1h-4.3v1.3h-1v-7.44a14.73 14.73 0 0 1-1.38 1.19l-.75-.69a18.4 18.4 0 0 0 5.17-6.26l1 .29a2.67 2.67 0 0 1-.38.8 21.71 21.71 0 0 1 4.43 4.58zm-5.37-8.72a19.68 19.68 0 0 1-3.8 4l-.75-.78a16.58 16.58 0 0 0 3.66-3.72zm2.6 14v-4.48h-4.32v4.48zm2.58-10.89l-.69.8a18.66 18.66 0 0 0-3.53-3.84l.68-.66a16.4 16.4 0 0 1 3.54 3.65zm6.43 9.77a1.19 1.19 0 0 1-.55 1.12 6.17 6.17 0 0 1-2.71.26l-.43-1h2.07a.63.63 0 0 0 .46-.19.65.65 0 0 0 .2-.47v-11.64h-3.81V593h-1v-16.3h5.73zM346.55 581.74h-5.69v11.32h-1V576.7h6.67zm-1-3v-1.14h-4.73v1.14zm0 2.1v-1.2h-4.73v1.2zm1.6 6.16l-.79.39-.27-.54-4 .52-.26-.79a14.14 14.14 0 0 0 2.41-1.81l-2.19.3-.26-.76a10.1 10.1 0 0 0 2.54-2.3l.92.42a14.13 14.13 0 0 1-1.8 1.68l1.73-.25a6.28 6.28 0 0 0 .94-.93l.88.41a37 37 0 0 1-3.44 3.07l2.11-.29a3.71 3.71 0 0 0-.38-.6l.79-.35a11.7 11.7 0 0 1 1.07 1.83zm-.62 1.76a4.12 4.12 0 0 1-.77 2.78 4.61 4.61 0 0 1-2.52 1.29l-.62-.83c1.69-.34 2.65-1 2.87-2h-3v-2.28h.93v1.42h2.11a3.14 3.14 0 0 0 .05-.68v-.87h.94zm6.81-1.81l-.75.48c-.2-.31-.33-.51-.41-.62l-4.53.41-.19-.75a11.55 11.55 0 0 0 2.26-1.66l-2.21.21-.22-.71a7.52 7.52 0 0 0 2.45-2.26l.9.4a12.68 12.68 0 0 1-1.64 1.64l1.68-.17c.15-.13.43-.39.83-.79l.81.39a26.74 26.74 0 0 1-3.07 2.75l2.36-.21a2.59 2.59 0 0 0-.53-.64l.79-.44a13.46 13.46 0 0 1 1.47 1.92zm-1.31 3.1h-3.14v2.66h-.94v-5.07h.94v1.55h2.23v-1.42h.91zm2.95 1.93a1.05 1.05 0 0 1-.34.84 1.07 1.07 0 0 1-.76.31h-1.83l-.42-1c.41 0 .82.05 1.23.05a3.14 3.14 0 0 0 1-.08.36.36 0 0 0 .16-.34v-9.94h-5.74v-5h6.67zm-1-13.19v-1.19h-4.71v1.14zm0 2.1v-1.2h-4.71v1.2zM364.72 579.88l-.7.54a16.84 16.84 0 0 0-2.19-2.63 26.92 26.92 0 0 1-2.09 3.09h4.13v.88h-1.86V584h2.17v.89h-2.17V591a20.09 20.09 0 0 0 2.1-.59v.91q-2.33.76-5.48 1.5l-.22-.91c.68-.12 1.59-.34 2.72-.65v-6.31h-2.56V584h2.56v-2.26h-1.46V581a8.45 8.45 0 0 1-.81.85l-.6-.75a19.09 19.09 0 0 0 3.42-5l.83.41a1 1 0 0 1-.18.42 15.51 15.51 0 0 1 2.39 2.95zm-4.22 10.18l-.91.21a17 17 0 0 0-.89-3.85l.89-.22a17.56 17.56 0 0 1 .91 3.86zm3.61-3.72a21 21 0 0 1-.72 3.41l-.85-.26a22.06 22.06 0 0 0 .67-3.5zm11 5.41l-.31 1a22.15 22.15 0 0 1-5.67-.43 5.71 5.71 0 0 1-2.91-1.92 13.1 13.1 0 0 1-1.85 2.76l-.75-.62a10.32 10.32 0 0 0 2-3.09 11.84 11.84 0 0 1-1.06-4.07l.9-.13a9.79 9.79 0 0 0 .62 2.91 18.72 18.72 0 0 0 .73-4.53h-2.06v-.89a43.56 43.56 0 0 0 1.9-5h-2.24v-.9h3.18v.9a46.57 46.57 0 0 1-1.79 5h2a20.52 20.52 0 0 1-1.12 6.75 5.07 5.07 0 0 0 2.24 1.79 10.7 10.7 0 0 0 4 .59c.59-.03 1.34-.06 2.21-.12zm-.05-2.77h-3.48v1.89h-1V589h-2.63v-.81h2.68v-1.68h-2.26v-.88h2.26v-1.55h-2.2v-.85h2.2v-1.85h-2.64v-.89h2.64v-1.81h-2.2v-.82h2.2v-1.6h1v1.6h2.43v2.63h1v.89h-1v2.7h-2.43v1.55h2.9v.88h-2.9v1.68h3.48zm-2-8.51v-1.81h-1.49v1.81zm0 2.74v-1.85h-1.49v1.85zM384.28 592.68h-1V591h-4.13v2h-1v-13.61h1.8a18.34 18.34 0 0 0 1.37-3.32l1 .2a31.34 31.34 0 0 1-1.31 3.12h3.3zm-1-8.18v-4.14h-4.13v4.14zm0 5.54v-4.57h-4.13V590zm10.67-10.63q-.11 4.33-.42 8.05a20.51 20.51 0 0 1-.61 4.38 2.1 2.1 0 0 1-.8.94 4.2 4.2 0 0 1-1.84.28h-1.55l-.31-1h2.8a1 1 0 0 0 .5-.24 1.27 1.27 0 0 0 .38-.52 17.1 17.1 0 0 0 .3-2.22c.12-1.28.23-2.69.31-4.23s.14-3 .18-4.49h-5a25.61 25.61 0 0 1-2.34 3.81l-.79-.55a20.59 20.59 0 0 0 3.59-7.41l1 .25a31 31 0 0 1-1.06 2.95zm-3.55 8.64l-.81.58a20.62 20.62 0 0 0-2.79-4.5l.82-.53a18.67 18.67 0 0 1 2.77 4.45zM276.46 602.18a19.72 19.72 0 0 1-.94 2.15l-.64 1.29v13.1h-1v-11.41c-.61.93-1.29 1.86-2 2.8l-.52-1a26.08 26.08 0 0 0 4.2-7.2zm4.34 11.61a20.92 20.92 0 0 1-4.22 5.09l-.78-.67a21.84 21.84 0 0 0 4.13-4.88zm7.41-1.56h-12.35v-1h3.28v-4.46h-3v-1h3V602h1v3.83h3.71V602h1.1v3.83h2.82v1h-2.82v4.46h3.28zm-4.34-1v-4.46h-3.71v4.46zm4.39 7l-.82.59a30.79 30.79 0 0 0-4.4-4.95l.84-.58a26.82 26.82 0 0 1 4.38 4.92zM307.37 604.24h-14.23v5.56a24.92 24.92 0 0 1-1.52 9.08l-.83-.69a23.39 23.39 0 0 0 1.39-8.37v-6.48h7.22c-.25-.42-.51-.83-.78-1.24l1-.23a6.49 6.49 0 0 1 .87 1.47h6.88zm-10.95 10.38a13.61 13.61 0 0 1-2.27 3.7l-.75-.65a11.54 11.54 0 0 0 2.1-3.46zm1.08-9.7a12.76 12.76 0 0 1-1.19 2.6v6h-1v-4.66a12.59 12.59 0 0 1-1.2 1.39l-.64-.76a13.43 13.43 0 0 0 3.13-4.95zm9.67 8.47h-8.56v-4.82c-.32.4-.76.91-1.32 1.54l-.58-.81a17.6 17.6 0 0 0 3.21-4.71l.84.33a10.21 10.21 0 0 1-.67 1.38h2.86a9.59 9.59 0 0 0-.74-1.31l.94-.27a8 8 0 0 1 .85 1.58h3.07v.9h-3.55v1.11h3.28v.89h-3.28v1.22h3.28v.88h-3.28v1.2h3.61zm-2.51 2.92a3.72 3.72 0 0 1-.34 1.49 1.37 1.37 0 0 1-.85.67 14 14 0 0 1-2.83.16 11.41 11.41 0 0 1-2-.11 1.15 1.15 0 0 1-.7-.48 1.89 1.89 0 0 1-.25-1v-2.78h1v2.84c0 .31.09.49.27.56a10.33 10.33 0 0 0 2 .1 13.38 13.38 0 0 0 2.14-.09.83.83 0 0 0 .51-.41 3.11 3.11 0 0 0 .17-1.26zm-2-8v-1.11h-3v1.11zm0 2.11v-1.22h-3.05v1.22zm0 2.08v-1.2h-3.05v1.2zm-.2 3.45l-.85.54a11.86 11.86 0 0 0-1.67-2l.84-.56a12.68 12.68 0 0 1 1.66 2.07zm5.23 1.7l-.83.5a18.84 18.84 0 0 0-2.34-3.42l.85-.52a19.42 19.42 0 0 1 2.3 3.44zM316.35 605.44l-.7.65a16.27 16.27 0 0 0-1.95-2.57 20.45 20.45 0 0 1-2.17 3.15h3.89v.92h-1.47v2.06h2v.9h-2v5.74c.63-.17 1.33-.39 2.1-.64v.92c-1.4.5-3.28 1.09-5.65 1.75l-.23-.94c1.05-.25 2-.5 2.91-.77v-6.06h-2.62v-.9h2.49v-2.06h-1.56v-.78a10.36 10.36 0 0 1-.93 1l-.42-.94a15.86 15.86 0 0 0 3.41-5.06l.85.41a2 2 0 0 1-.23.51 19.83 19.83 0 0 1 2.28 2.71zm-4.19 10.19l-.89.32a26.83 26.83 0 0 0-.86-3.84l.88-.32a19.14 19.14 0 0 1 .87 3.84zm4-3.69a14 14 0 0 1-.65 3.36l-.85-.29a24.24 24.24 0 0 0 .65-3.19zm10.9 5.48l-.25.94c-.88 0-1.7.06-2.47.06a17.81 17.81 0 0 1-4.15-.37 4.72 4.72 0 0 1-2.35-1.39 20.8 20.8 0 0 1-1.73 2.17l-.81-.51a12 12 0 0 0 3.35-6.44h-2.12v-.69a37.68 37.68 0 0 0 1.76-4.17h-2.14v-.89h3.15v.87c-.47 1.23-1 2.55-1.68 4h1.91v.89a14.26 14.26 0 0 1-1.29 4 3.8 3.8 0 0 0 1.39 1 6.17 6.17 0 0 0 1.64.45c.56.06 1.74.09 3.53.09.74.01 1.49.01 2.23-.01zm-8-12.93l-.75.58a25.47 25.47 0 0 0-1.84-2.62l.66-.57a15 15 0 0 1 1.82 2.61zm7.83 10h-3.22v2h-.87v-2h-3v-.91h3V612h-2.43v-6.2h2.43v-1.65h-3v-.87h3V602h.87v1.27h3.13v.87h-3.13v1.65h2.51V612h-2.51v1.6h3.22zm-4.09-6.12v-1.72h-1.65v1.72zm0 2.72v-1.81h-1.65v1.81zm2.49-2.72v-1.72h-1.62v1.72zm0 2.72v-1.81h-1.62v1.81zM346.42 617.47l-.31.93h-7.27c-3 0-5.18-.72-6.58-2.14a14.05 14.05 0 0 1-2.18 2.62l-.79-.65a10.77 10.77 0 0 0 3.61-6.37h-3.19v-.77q1.58-2 2.95-4.17h-3.29V606h4.49v.9c-.89 1.36-1.83 2.68-2.84 4h2.93v1a16.15 16.15 0 0 1-1.21 3.53 5.45 5.45 0 0 0 2.31 1.56 12.31 12.31 0 0 0 4.05.52zm-13.12-12.9l-.68.71a25.77 25.77 0 0 0-2.62-2.74l.6-.73a19.64 19.64 0 0 1 2.7 2.76zM345.95 615h-5.28v1.75h-1V615h-5.12v-.87h5.19v-1.45h-4.22v-5.22h4.22v-1.53h-3.26v-.79h3.26v-1.18h1v1.18h3.31v.79h-3.31v1.53h4.21v5.22h-4.21v1.45h5.21zm-.44-9.46h-1v-2.24h-8.7v2.19h-1v-3.11h10.62zm-5.8 4.12v-1.46h-3.24v1.41zm0 2.21v-1.4h-3.24v1.4zm4.25-2.21v-1.46h-3.29v1.41zm0 2.21v-1.4h-3.29v1.4zM354.04 602.1c-.41.93-.79 1.76-1.15 2.51l-.54 1.06v13.13h-1v-11.28a34.22 34.22 0 0 1-2.24 3l-.56-1a27.26 27.26 0 0 0 4.55-7.73zm11.41 3.41h-6.11v3.36h5.27v1h-5.27v3.61h5.61v1h-5.63v4.33h-1v-13.3h-1.79a20.75 20.75 0 0 1-2.74 4.52l-.67-.83a22 22 0 0 0 3.75-7.48l.9.38c-.11.43-.39 1.23-.81 2.41h8.5zM373.19 610l-.76.63a20 20 0 0 0-1.19-1.93v10.1h-1v-9.6a28.4 28.4 0 0 1-1.88 4.46l-.55-1.06a25.34 25.34 0 0 0 2.41-6.28h-2.27v-1h2.28v-3.53h1v3.53h1.43v1h-1.43v1c.72.86 1.34 1.74 1.96 2.68zm11.7 5.76a7.91 7.91 0 0 1-.6 2.43 1.22 1.22 0 0 1-1.09.83c-.84 0-1.76-.88-2.76-2.63a16.22 16.22 0 0 1-3.72 2.32l-.68-.78a12 12 0 0 0 4-2.35 13.32 13.32 0 0 1-1.15-3.47h-3.53l-.12 1.16a12.42 12.42 0 0 1 2.72 1.89l-.55.81a10.92 10.92 0 0 0-2.3-1.75 9.75 9.75 0 0 1-2.41 4.7l-.89-.62a8.31 8.31 0 0 0 2.53-6.19h-1.72v-1h6.08a87.65 87.65 0 0 1-.62-9.3h1a66.57 66.57 0 0 0 .64 9.26h2c-.06-.12-.21-.42-.47-.91l.79-.33a4.93 4.93 0 0 1 .68 1.24h2.06v1h-4.84a10.52 10.52 0 0 0 .91 2.73 10.72 10.72 0 0 0 1.67-2.3l.76.48a13.12 13.12 0 0 1-2.06 2.68 7.82 7.82 0 0 0 1 1.56c.42.49.74.74 1 .74s.35-.17.5-.5a10.81 10.81 0 0 0 .44-2.2zm-6.86-5.76l-.87.25a7.46 7.46 0 0 0-.15-.89c-1.37.13-2.55.26-3.53.39l-.15-.7a33.1 33.1 0 0 0 2-2.67l-2 .3-.26-.83a24.67 24.67 0 0 0 2-3.91l.87.41a29.87 29.87 0 0 1-1.72 3.27 13.16 13.16 0 0 0 1.85-.29 13.59 13.59 0 0 0 .91-1.56l.83.46a32.28 32.28 0 0 1-3.2 4.47c.63 0 1.35-.1 2.15-.2a5.39 5.39 0 0 0-.4-1.29l.85-.24a12.83 12.83 0 0 1 .82 3.03zm6.67 0l-.86.26a6.25 6.25 0 0 0-.22-.9c-1 .12-2.2.27-3.46.46l-.21-.82c.81-1 1.47-1.82 2-2.56-.54.06-1.18.16-1.95.3l-.29-.83a24.14 24.14 0 0 0 1.93-3.78l.86.39c-.53 1.12-1.09 2.17-1.67 3.16.39 0 1-.14 1.83-.29.24-.35.53-.81.85-1.36l.83.42a41.79 41.79 0 0 1-3 4.31l2.11-.24a6.08 6.08 0 0 0-.35-1l.85-.26a16.81 16.81 0 0 1 .75 2.74zM397.74 609H393v2.27h4.11v5.42c0 .8-.46 1.2-1.36 1.2h-1.4l-.37-1h1.71a.41.41 0 0 0 .33-.16.57.57 0 0 0 .14-.37v-4.12H393v6.46h-1v-6.46h-3.05V618h-1v-6.71h4V609h-4.92v-1h4.92v-2.61h-3a11.2 11.2 0 0 1-1.05 1.76l-.87-.47a14 14 0 0 0 2.16-4.55l1 .18a20.94 20.94 0 0 1-.77 2.11h2.68v-2.59h1v2.59h4.33v1h-4.33v2.61h4.74zm2.31 6.36h-1v-12h1zm3.4 2a1.21 1.21 0 0 1-.4.92 1.48 1.48 0 0 1-1 .37h-2.47l-.34-1h2.77a.41.41 0 0 0 .32-.18.59.59 0 0 0 .15-.37v-15.22h1z" fill="#053542"/>
  <path fill="#484848" d="M679.68 520.92H445.12l65.17-125.6 8.36 4.33-58.02 111.85h202.84l-65.62-115.26 8.19-4.66 73.64 129.34z"/>
  <circle cx="555.98" cy="311.34" r="109.35" fill="#ff7f00"/>
  <path d="M555.95 425.41a114.07 114.07 0 1 1 114.09-114.07 114.2 114.2 0 0 1-114.09 114.07zm0-218.71a104.64 104.64 0 1 0 104.66 104.64A104.76 104.76 0 0 0 555.95 206.7z" fill="#484848"/>
  <path d="M498.51 266.78h-8.41v-2.23h3.19a9.15 9.15 0 0 0-1-2.07l2.45-.6a13.89 13.89 0 0 1 1.06 2.67h2.67zm-.24 3.92h-7.57v-2.1h7.57zm0 3.89h-7.57v-2.1h7.57zm.05 10.6h-2.31v-1h-2.88v1.59h-2.35v-9.35h7.54zm-2.31-3.12v-3.48h-2.88v3.48zm17.73-15.39h-7a19.74 19.74 0 0 1-3.84 4.86 40.56 40.56 0 0 0 4.54-.49 25.09 25.09 0 0 0 1.66-3l2.1 1a23.77 23.77 0 0 1-10.86 11.31l-1.33-2a21.07 21.07 0 0 0 6.69-4.94 48.42 48.42 0 0 1-5.65.55l-.57-2.07a15 15 0 0 0 4.46-5.22h-4.57v-2.21h5.6a12 12 0 0 0-1.23-1.88l2.51-.73a17.1 17.1 0 0 1 1.55 2.61h5.9zm.24 17.49l-1.77 1.83a23.78 23.78 0 0 0-4.49-4.49 29.65 29.65 0 0 1-7.29 4.38l-1.38-2a23.92 23.92 0 0 0 7.77-4.75 22 22 0 0 0 4.53-6.48l2 1.19a22.8 22.8 0 0 1-3.94 6 35.25 35.25 0 0 1 4.54 4.32zM529.7 268.81l-1.5.18q-.62 6.3-2.63 9.7c1.25 1 2.44 2 3.59 3.13l-1.88 1.83a28.78 28.78 0 0 0-3.1-2.86 25.34 25.34 0 0 1-5.41 5l-1.66-2.06a18.37 18.37 0 0 0 5-4.49 47 47 0 0 0-4.27-2.8c.69-2.05 1.33-4.33 1.94-6.83l-2.43.08-.08-2.33a30 30 0 0 0 3-.16 44.06 44.06 0 0 0 .92-5.34l2.48.38c-.26 1.7-.55 3.3-.85 4.81 1.08-.05 2.11-.13 3.08-.24a17.58 17.58 0 0 0 .13-2.12h2.45c0 .29-.05.91-.13 1.86l1.27-.15zm-4 .47l-3.29.23q-.6 2.7-1.54 6l2.65 1.77a23.12 23.12 0 0 0 2.18-8zm14.3 15.88h-2.31v-2.41h-4.91v2.41h-2.38v-20.94h9.6zm-2.31-4.86v-13.68h-4.91v13.68zM551.37 262.27a32.57 32.57 0 0 1-1 3.16l-.7 1.87v18.43h-2.39v-13.52a15.54 15.54 0 0 1-1.66 2.33l-1.36-2.48a32.2 32.2 0 0 0 4.81-10.34zm16.84 3h-1.74V283a2.8 2.8 0 0 1-.49 1.68 2.46 2.46 0 0 1-1.33.94 13.37 13.37 0 0 1-3.24.25h-1.74l-.78-2.36a22.91 22.91 0 0 0 4.62-.11.83.83 0 0 0 .54-.86v-17.28h-12.4v-2.34h16.56zm-7 14.3h-8.71v-11.46h8.71zm-2.34-2.37v-6.74h-4v6.74zM574.95 279.62a35.8 35.8 0 0 1-1.32 6.29l-2-1a35.25 35.25 0 0 0 1.3-5.79zm6.26-13.25a37.51 37.51 0 0 1-6 9.31 21.93 21.93 0 0 0 3.08-.72 4.82 4.82 0 0 0-.47-1.32l1.88-.73a18.2 18.2 0 0 1 1.34 4.64l-1.89.68q-.1-.57-.24-1.17-3.58.9-6.61 1.38l-.57-2a24.12 24.12 0 0 0 4.52-5.71q-2 .4-3.84.63l-.57-2.1a21.44 21.44 0 0 0 4-7.42l2.29.85a24.65 24.65 0 0 1-3.35 6.08 18.12 18.12 0 0 0 2.88-.6 27.06 27.06 0 0 0 1.41-2.83zm-3 18.14l-2.1.52a35.76 35.76 0 0 0-.55-5.38l2-.46a26.25 26.25 0 0 1 .56 5.32zm2.76-2.34l-1.85.47a27.32 27.32 0 0 0-.7-3.35l1.82-.46a18.46 18.46 0 0 1 .64 3.34zm5-7.29l-2.06.93a50.22 50.22 0 0 0-3.24-5.34 30 30 0 0 0 2.91-4.83l2.2.84a23.58 23.58 0 0 1-2.41 4 45 45 0 0 1 2.49 4.4zm9.57 10.39h-14.59V283h6.1v-4.21h-5.3v-2.29h13v2.29h-5.19V283h6zm-.38-20.48h-13.87v-2.31h13.76zm-4.52 10.12l-2.14 1a33.92 33.92 0 0 0-3.24-5.45 23.36 23.36 0 0 0 2.89-4.81l2.23.87a44.39 44.39 0 0 1-2.43 3.88 46 46 0 0 1 2.58 4.51zm4.64-.05l-2.15 1a39.27 39.27 0 0 0-3.16-5.3 34.78 34.78 0 0 0 2.9-4.93l2.08.92a25.12 25.12 0 0 1-2.24 4 40.79 40.79 0 0 1 2.46 4.31zM622.16 274.59h-2.41v-2.1h-18.17v2.1h-2.34v-4.12h22.92zm-11.91-10.45a21.63 21.63 0 0 1-4.29 1.74l-.08.23a27 27 0 0 1 4.35 2.11L609 269.9a25.41 25.41 0 0 0-4-2 8.83 8.83 0 0 1-4.22 2.29l-1.25-2a6.7 6.7 0 0 0 3.77-1.69c.7-.78 1.05-2.27 1.05-4.45h2.23c0 .7-.08 1.27-.14 1.71a13 13 0 0 0 2.69-1.22zm-6.93 1.34l-1.84 1a12.39 12.39 0 0 0-1.89-3l1.83-1a12.71 12.71 0 0 1 1.9 3zm17.57 20.36h-2.36V285h-15.7v.84h-2.39v-6.36h7.94a5.9 5.9 0 0 0 .62-1.17h-6.17v-4.65h15.42v4.65h-6.44a7.38 7.38 0 0 1-.63 1.17h9.71zm-2.36-2.66v-1.84h-15.7v1.84zm-2.58-6.64v-1.09h-10.84v1.09zm6.32-8l-1.29 1.72a30.43 30.43 0 0 0-4.81-2.21 8.14 8.14 0 0 1-4.59 2.13l-1-2c1.91-.31 3.18-.83 3.84-1.58s1-2.24 1-4.47l2.2.05a11.48 11.48 0 0 1-.07 1.74 13.51 13.51 0 0 0 3-1.47l1.22 1.6a20.42 20.42 0 0 1-4.54 2l-.15.24a31.2 31.2 0 0 1 5.23 2.23zm-7.75-2.83l-1.9.87a11.58 11.58 0 0 0-1.64-3.07l1.9-.84a11.38 11.38 0 0 1 1.68 3.02zM527.47 309.61h-7.45v14.29a2.45 2.45 0 0 1-.59 1.71 2.62 2.62 0 0 1-1.29.82 15.21 15.21 0 0 1-2.81.16h-2.57l-.76-2.41c1.37.07 2.94.1 4.7.1.51 0 .77-.27.77-.81v-12.63a27.71 27.71 0 0 1-5.28 7.6 26.19 26.19 0 0 1-7.35 5.48l-1.38-2.17a24.6 24.6 0 0 0 7.07-5.07 23.91 23.91 0 0 0 4.95-7.07h-11.4v-2.36h13.39v-4.37h2.55v4.37h7.45zM542.26 324.5a2.07 2.07 0 0 1-.38 1.28 1.93 1.93 0 0 1-.91.69 6.34 6.34 0 0 1-1.82.18h-1.62l-.57-2.26h1.45a3.72 3.72 0 0 0 1.3-.12.41.41 0 0 0 .19-.36V321q-4.77 2.07-5 2.06l-.63-1.14a14 14 0 0 1-1.58 4.84l-1.92-1.63c.88-1.49 1.33-3.93 1.33-7.32v-5.87h10.14zm1.72-15l-2 1.31a11.58 11.58 0 0 0-1-1.44c-2.92.5-6.09.9-9.53 1.19l-.57-1.87a18.51 18.51 0 0 0 4.47-6l2.33.74a20.36 20.36 0 0 1-3.42 4.72 49 49 0 0 0 5.26-.67 16 16 0 0 0-1.94-2.07l2-1.36a28.72 28.72 0 0 1 4.37 5.48zm-4.03 9.11v-4.46h-5.3v1.47a24.33 24.33 0 0 1 4.7 1l-.81 2a28.48 28.48 0 0 0-3.94-.83q0 1.46-.12 3.09a36 36 0 0 0 5.47-2.27zm14.76 3.22a7.46 7.46 0 0 1-.57 3.36 3.55 3.55 0 0 1-1 .95 13.17 13.17 0 0 1-4 .31 11.76 11.76 0 0 1-3.33-.27 2 2 0 0 1-1-.89 2.74 2.74 0 0 1-.33-1.34v-9.55h2.37v3.51h7.07v2.15h-7.07v3.61a.5.5 0 0 0 .57.55h4a.77.77 0 0 0 .73-.47 8.66 8.66 0 0 0 .34-2.63zm-.31-8.3h-7.55a2.2 2.2 0 0 1-1.69-.69 2.44 2.44 0 0 1-.64-1.76V303h2.36v3h7v2.15h-7v2.75a.46.46 0 0 0 .19.32.61.61 0 0 0 .38.17h6.95zM582.02 325.09l-1.69 1.72a28.88 28.88 0 0 1-4.59-4.75 29.63 29.63 0 0 1-4.73 4.72l-1.74-1.69a28.06 28.06 0 0 0 5.14-5.06q-2.91-4.72-3.59-12.45h-.54v-1.77h-1.39v20.77h-2.34v-4.49a61.69 61.69 0 0 1-7.81 2.05l-.79-2.34c.64-.07 1.34-.18 2.09-.33v-15.66h-1.74v-2.28h12.35v1.66h10.3q-.37 9.94-3.69 14.9a25.87 25.87 0 0 0 4.76 5zm-15.47-16v-3.29h-4.18v3.29zm0 5.57v-3.28h-4.18v3.28zm0 5v-2.72h-4.18v4a32.79 32.79 0 0 0 4.18-1.29zm11.83-12.07h-5.19a27.47 27.47 0 0 0 2.7 10.06 29.69 29.69 0 0 0 2.49-10.07zM592.86 303.93a23.81 23.81 0 0 1-6.56 6.14l-1.2-2.15a19.75 19.75 0 0 0 5.76-5.24zm.21 5.39a25.2 25.2 0 0 1-2 3.42v13.79h-2.42V316a22.71 22.71 0 0 1-2.23 2l-1.17-2.21a26 26 0 0 0 5.85-7.42zm16 9.73h-3.12v5c0 1.66-1.1 2.48-3.3 2.48-.58 0-1.21 0-1.87-.06l-.69-2.21c.77.05 1.43.07 2 .07a2.28 2.28 0 0 0 1.26-.23.81.81 0 0 0 .3-.7v-4.33h-11.48v-2.18h11.46v-1.6h-10.87v-2.14h15.65v2.14h-2.46v1.6h3.14zm-1.79-7.29H593.8v-8.51h13.49zm-7.45 10.82l-1.71 1.69a19.85 19.85 0 0 0-3.84-3.23l1.55-1.66a18.32 18.32 0 0 1 4.01 3.2zm5.12-16.09v-1.17h-8.76v1.17zm0 3.15v-1.2h-8.76v1.2zM547.13 369.06h-15.87v12.73h-3.71v-12.73h-15.91v-3.61h15.91v-14.64H512.7v-3.58h33.58v3.58h-15v14.64h15.87zm-23.82-6.73l-3.46 1.59a51.49 51.49 0 0 0-5.26-9.6l3.42-1.71a55.16 55.16 0 0 1 5.3 9.72zm21.3-8a45.37 45.37 0 0 1-5.8 9.68l-3.35-1.67a46.06 46.06 0 0 0 5.8-9.68zM561.57 358.24a24.81 24.81 0 0 1-2.28 4.33v19.16h-3.27v-14.84l-2.23 2.21-1.36-3.65a26.41 26.41 0 0 0 6.16-8.8zm.62-11.21q-2.07 5.52-8.08 10.24l-1.52-3.27a24.61 24.61 0 0 0 6.53-8.21zm15.62 21.69h-14.6v-12.35c-.39.33-.78.7-1.2 1.1l-2.06-2.77a31.37 31.37 0 0 0 7.67-8.95l3.51.78a17.09 17.09 0 0 1-1.1 2h6.57v3.11a25 25 0 0 1-2 2.65h3.23zm1.63 5.8h-7.63q-1.83 5.28-8.94 7.63l-1.79-2.85q5.24-1.44 7-4.78h-7v-3.15h7.67a12.4 12.4 0 0 0 .08-1.45h3.42a6.51 6.51 0 0 1 0 1.42h7.23zm-7-22.89h-4.66c-.5.64-1.28 1.52-2.33 2.65h4.94a18.21 18.21 0 0 0 2-2.65zM569 360v-2.69h-2.48V360zm0 5.71v-2.94h-2.48v2.94zm9.43 12.51l-1.79 2.53a33.11 33.11 0 0 0-5.25-2.73l1.82-2.69a26 26 0 0 1 5.22 2.93zM574.58 360v-2.69h-2.57V360zm0 5.71v-2.94h-2.57v2.94zm13.59-5.63h-2.45v17.82a3.53 3.53 0 0 1-1 3 4.74 4.74 0 0 1-2.92.79q-.54 0-1.53-.06l-.94-3.51a14.06 14.06 0 0 0 1.84.16c.93 0 1.39-.32 1.39-1v-17.16h-3.35v-3.47h9zm-.74-9.62h-8.07v-3.43h8.07zM594.95 368.52a6.12 6.12 0 0 1-.32-2 4.16 4.16 0 0 1 .5-2 8.67 8.67 0 0 1 1.82-2.18 9.51 9.51 0 0 0 2-2.21 3.31 3.31 0 0 0 .4-1.55 2.32 2.32 0 0 0-.83-1.87 3.2 3.2 0 0 0-2.12-.69 6 6 0 0 0-4.35 1.9v-3.14a8.85 8.85 0 0 1 4.75-1.37 6.35 6.35 0 0 1 4.1 1.25 4.27 4.27 0 0 1 1.54 3.51 5.2 5.2 0 0 1-.6 2.46 10 10 0 0 1-2.21 2.55 8.94 8.94 0 0 0-1.91 2.09 3.12 3.12 0 0 0-.36 1.43 4.23 4.23 0 0 0 .44 1.83zm-.4 4.23a1.76 1.76 0 0 1 .58-1.33 1.94 1.94 0 0 1 1.38-.55 2 2 0 0 1 1.37.53 1.75 1.75 0 0 1 .59 1.35 1.71 1.71 0 0 1-.57 1.3 1.83 1.83 0 0 1-1.32.54 2 2 0 0 1-1.46-.55 1.75 1.75 0 0 1-.53-1.29z" fill="#fff"/>
</svg>
