<svg data-name="layer1" xmlns="http://www.w3.org/2000/svg" viewBox="0 0 907 565.22">
  <g class="js-group js-group1" data-name="g1">
    <path fill="none" stroke="#f2f2f2" stroke-miterlimit="8" stroke-width="8.882" d="M397.59 270.6l86.65-26.41 21.72-83.47-64.52-57.18-86.65 26.41-21.92 83.53 64.72 57.12z"/>
    <path d="M414.16 264.81c-2.54-7.22-11.09-11.45-19.28-8.95s-12.94 10.77-10.6 18.49 10.9 11.95 19.1 9.45a15.66 15.66 0 0 0 10.78-19" fill="#d9d9d9" fill-rule="evenodd"/>
    <path d="M414 265.3c-2.35-7.71-10.9-11.94-19.09-9.44s-12.94 10.77-10.6 18.49 10.9 11.95 19.1 9.45 12.94-10.78 10.59-18.5" fill="none" stroke="#fff" stroke-linejoin="round" stroke-width=".751"/>
    <path fill="none" stroke="#f2f2f2" stroke-miterlimit="8" stroke-width="8.882" d="M489.73 550.93l86.65-26.41 21.73-83.47-64.52-57.19-86.65 26.41-21.93 83.54 64.72 57.12z"/>
    <path d="M596.05 516.79c-2.89-9.52-14.13-15-24.93-11.7s-17.08 14.1-14 24.15 14.29 15.52 25.09 12.23 17.08-14.1 13.86-24.68M505.71 545.72c-1.94-7.81-10.49-12-18.69-9.54s-12.94 10.78-10.59 18.5 10.89 11.94 19.09 9.44 12.94-10.77 10.19-18.4" fill="#d9d9d9" fill-rule="evenodd"/>
    <path d="M506.11 545.63c-2.34-7.72-10.89-12-19.09-9.45s-12.94 10.78-10.59 18.5 10.89 11.94 19.09 9.44 12.94-10.77 10.59-18.49" fill="none" stroke="#fff" stroke-linejoin="round" stroke-width=".751"/>
    <path fill="none" stroke="#f2f2f2" stroke-miterlimit="8" stroke-width="8.882" d="M289.16 379.44l86.63-26.4 21.71-83.47-64.51-57.2-86.63 26.4-21.91 83.54 64.71 57.13zM441.82 411.95l86.63-26.4L550.36 302l-64.78-57.33-86.62 26.4-21.65 83.68 64.51 57.2z"/>
    <path fill="none" stroke="#f2f2f2" stroke-miterlimit="8" stroke-width="8.882" d="M335.43 520.51l86.62-26.4 21.71-83.48-64.51-57.2-86.62 26.41-21.92 83.53 64.72 57.14zM396.8 269.79l-62.93-56.89M289.14 377.44l-63.2-57.78M595.84 445.21l-63.29-57.53"/>
    <path d="M396.09 352.82c-3.61-11.25-15.63-17.15-27.18-13.63s-18.25 15.13-15 25.93 15.31 16.71 26.86 13.19 18.25-15.13 15.28-25.49M417.77 264.81c-3.17-10.4-14.4-15.87-25.19-12.58s-17.08 14.09-14 24.13 14.28 15.51 25.08 12.22 17.07-14.09 14.13-23.77" fill="#d9d9d9" fill-rule="evenodd"/>
    <path d="M417.65 264.45c-3-10-14.28-15.51-25.07-12.22s-17.08 14.09-14 24.13 14.28 15.51 25.08 12.22 17.07-14.09 14-24.13" fill="none" stroke="#fff" stroke-linejoin="round" stroke-width=".751"/>
    <path d="M310.56 373.32c-3.38-10-14.58-15.53-25.31-12.26s-16.95 14.11-13.88 24.2 14.27 15.63 25 12.36 16.95-14.11 14.19-24.3" fill="#bfbfbf" fill-rule="evenodd"/>
    <path d="M441.86 486.65c-3.05-9.83-14.28-15.3-25.07-12s-17.07 14.1-14 24.14 14.28 15.51 25.08 12.22 17.07-14.1 14-24.35M254 310.62c-5-14.54-21.29-22.55-37-17.77s-24.74 20.52-20.29 35.17 20.77 22.65 36.44 17.88 24.78-20.52 20.85-35.28M459.93 403.46c-2.62-7.42-11-11.53-19-9.08s-12.68 10.51-10.4 18 10.65 11.61 18.67 9.16 12.68-10.51 10.73-18.1M351.52 515.58c-2.08-8.1-10.62-12.33-18.81-9.83s-12.92 10.77-10.58 18.49 10.89 11.95 19.08 9.45 12.92-10.77 10.31-18.11" fill="#d9d9d9" fill-rule="evenodd"/>
    <path d="M351.79 515.2c-2.35-7.72-10.89-11.95-19.08-9.45s-12.92 10.77-10.58 18.49 10.89 11.95 19.08 9.45 12.92-10.77 10.58-18.49" fill="none" stroke="#fff" stroke-linejoin="round" stroke-width=".751"/>
    <path fill="none" stroke="#f2f2f2" stroke-miterlimit="8" stroke-width="8.882" d="M542.35 302.33l86.63-26.4 21.72-83.46-64.51-57.19-86.64 26.41-21.92 83.53 64.72 57.11z"/>
    <path d="M667.12 185.24a15.66 15.66 0 0 0-19.24-9c-8 2.45-12.69 10.52-10.4 18s10.64 11.61 18.67 9.16a15.68 15.68 0 0 0 11-18.18M558.71 297.36c-2.34-8-10.88-12.27-19.08-9.77s-12.94 10.78-10.63 18.49 10.9 11.95 19.09 9.45 12.94-10.78 10.58-18.17" fill="#d9d9d9" fill-rule="evenodd"/>
    <path d="M558.72 297.04c-2.35-7.72-10.89-11.95-19.09-9.45s-12.94 10.78-10.63 18.49 10.9 11.95 19.09 9.45 12.94-10.78 10.59-18.49" fill="none" stroke="#fff" stroke-linejoin="round" stroke-width=".751"/>
    <path fill="none" stroke="#f2f2f2" stroke-miterlimit="8" stroke-width="8.882" d="M591.21 442.31l86.65-26.41 21.72-83.48-64.52-57.19-86.65 26.41-21.93 83.54 64.73 57.13z"/>
    <path d="M565.93 294.92c-2.93-9.78-14.16-15.31-24.93-12s-17 14.12-13.89 24.22 14.27 15.63 25 12.36 17-14.12 13.77-24.51M697.23 408.28c-2.6-9.63-13.84-15.1-24.64-11.81s-17.07 14.11-14 24.15 14.29 15.53 25.1 12.24 17.07-14.11 13.56-24.58M715.3 325.09c-2.14-7.25-10.51-11.35-18.54-8.91s-12.69 10.52-10.4 18 10.64 11.65 18.64 9.2 12.69-10.52 10.26-18.29M608.1 437.21a15.8 15.8 0 0 0-19.61-9.64c-8.19 2.49-12.94 10.78-10.59 18.49s10.9 11.95 19.1 9.45 12.94-10.78 11.1-18.3" fill="#d9d9d9" fill-rule="evenodd"/>
    <path d="M607.59 437.02c-2.35-7.72-10.9-12-19.1-9.45s-12.94 10.78-10.59 18.49 10.9 11.95 19.1 9.45 12.94-10.78 10.59-18.49" fill="none" stroke="#fff" stroke-linejoin="round" stroke-width=".751"/>
    <path d="M544.25 381.75c-1.79-7.59-10.32-11.78-18.51-9.28s-12.94 10.73-10.6 18.39 10.85 11.84 19 9.34 12.94-10.72 10.07-18.45M497.27 241.92c-2.1-8.18-10.64-12.41-18.83-9.91s-12.92 10.77-10.57 18.49 10.89 11.94 19.07 9.45 12.93-10.78 10.33-18M261.17 229.84c-2.49-7.9-10.84-12-18.87-9.55s-12.68 10.51-10.4 18 10.64 11.6 18.67 9.16 12.68-10.52 10.6-17.63M366 122.54c-2.73-7.33-11.09-11.44-19.11-9s-12.68 10.51-10.4 18 10.64 11.61 18.67 9.16A15.49 15.49 0 0 0 366 122.54M521.36 153.92c-1.82-7.75-10.18-11.85-18.22-9.4s-12.69 10.52-10.4 18 10.65 11.61 18.68 9.16 12.69-10.52 9.94-17.79" fill="#d9d9d9" fill-rule="evenodd"/>
  </g>
  <g class="js-group js-group2" data-name="g2">
    <rect x="355.15" width="186.24" height="79.12" rx="2.83" fill="#ff5b00"/>
    <path d="M445.69 37.09l-1 1.75a31.64 31.64 0 0 1-3.37-1.66v1.26h-4.6v2.21h7.58v1.93h-7.58v5.24h8.11v1.91h-18.15v-1.91h8v-5.24h-7.44v-1.93h7.44v-2.21H430v-1.21a29.64 29.64 0 0 1-3 1.57l-1.27-1.71q6.86-3 9.55-6.59l2 .58a1.3 1.3 0 0 1-.3.43q2.56 2.91 8.71 5.58zm-12.56 9.69l-1.89.65a22.26 22.26 0 0 0-2.52-3.5l1.91-.79a18.74 18.74 0 0 1 2.5 3.64zm7.14-10.23a24.83 24.83 0 0 1-4.59-3.48 26.88 26.88 0 0 1-4.48 3.48zm2.53 7.29a17.82 17.82 0 0 1-2.42 3.55l-1.95-.86a17 17 0 0 0 2.44-3.39zM453.23 39.04L452 40.71a22.36 22.36 0 0 0-3.84-3l1.2-1.67a18.27 18.27 0 0 1 3.87 3zm-.09 3.6a33.23 33.23 0 0 1-3.23 7.81l-1.71-1.2a35 35 0 0 0 3.17-7.59zm.16-9l-1.39 1.55a18.34 18.34 0 0 0-3.41-3.27l1.41-1.55a19.37 19.37 0 0 1 3.39 3.3zm3.86 7.17v1a14.08 14.08 0 0 1-.87 5.52 7.43 7.43 0 0 1-2.61 3.17l-1.44-1.42q2.89-1.66 2.9-7v-1.29zM468 39.66l-1.85.94a13.37 13.37 0 0 0-.94-1.35c-4.73.4-8.41.61-11 .65l-.37-1.66a12 12 0 0 0 3.57-3.6h-3.61V32.8h4.83q.45-.78 1.17-2.28l2.11.43a17.67 17.67 0 0 1-.92 1.85h6.83v1.84h-7.93a16.72 16.72 0 0 1-2.97 3.28 68.47 68.47 0 0 0 6.87-.43 16.58 16.58 0 0 0-1.42-1.49l1.87-.9a26.44 26.44 0 0 1 3.76 4.56zm-6.83 10.68h-1.97v-9.5h1.94zm6.74-.21h-3a1.54 1.54 0 0 1-1.67-1.66v-7.65h1.95v7a.48.48 0 0 0 .13.33.4.4 0 0 0 .28.14h2.29z" fill="#fff"/>
  </g>
  <path class="js-group js-group2" data-name="g2" d="M535.16 150.3c-4.32-15.38-21.16-23.69-37.33-18.76s-25.54 21.18-20.94 36.3 21.44 23.38 37.6 18.45 25.55-21.18 20.67-36" fill="#ff5b00" fill-rule="evenodd"/>
  <g class="js-group js-group3" data-name="g3">
    <rect x="720.76" y="208.15" width="186.24" height="79.12" rx="2.83" fill="gray"/>
    <path d="M788.12 224.63h-6l1.5.81a9.2 9.2 0 0 1-1.05 1.8h4.65v11.85a1.9 1.9 0 0 1-.36 1.15 1.93 1.93 0 0 1-.83.67 4.39 4.39 0 0 1-1.54.19q-.57 0-1.38-.06l-.63-1.86h1a6 6 0 0 0 1.54-.1.4.4 0 0 0 .22-.4v-9.67h-3.71v1.49a.39.39 0 0 0 .12.23.35.35 0 0 0 .22.13h2.64v1.68H781a1.52 1.52 0 0 1-1.39-1.4v-2.13h-2.57q0 3.6-4.2 4.45l-1-1.68c2.17-.34 3.26-1.27 3.28-2.77h-3.7v12h-2v-13.77h4.71a16.8 16.8 0 0 0-1.25-1.84l1.46-.77h-5.82v-1.71h8.72c-.1-.27-.28-.66-.52-1.17l2.07-.45a13.5 13.5 0 0 1 .59 1.62h8.64zm-4.87 14h-9.68v-4.9h9.68zm-1.56-14h-6.75a16 16 0 0 1 1.57 2.61h3.73a17.1 17.1 0 0 0 1.45-2.61zm-.37 12.29v-1.48h-5.8v1.48zM799.83 241.04h-2v-1.12h-4.16v1.14h-1.95v-10.14h8.11zm-2-3v-5.28h-4.16v5.28zm9.88-9.12h-13.8v-7.12h13.8zm-2-1.78v-3.49H796v3.49zm4.18 13.86h-2v-1.08h-4.2v1.14h-2v-10.14h8.14zm-2-2.94v-5.3h-4.2v5.3zM821.42 232.8c-.6.24-1.37.52-2.3.83v7.41h-2v-6.76c-.75.24-1.88.56-3.39 1l-.43-1.93c1.2-.3 2.47-.65 3.82-1.06v-4.43h-1.55c-.13.88-.35 1.93-.65 3.13l-1.73-.5a35.56 35.56 0 0 0 1.1-7.33l1.78.32c-.08 1-.16 1.82-.25 2.51h1.3v-4.45h2v4.45h1.82v1.87h-1.85v3.77c1.32-.47 2-.73 2.14-.78zm11.32-8.48q-.06 3.84-.24 8.35t-.34 5.76a3.59 3.59 0 0 1-.59 1.79 2.27 2.27 0 0 1-1 .74 11.79 11.79 0 0 1-2.7.18h-1.3l-.57-1.92c.85 0 1.56.07 2.13.07a3.8 3.8 0 0 0 1.69-.21 1.18 1.18 0 0 0 .41-.68 39.71 39.71 0 0 0 .29-4q.16-3.54.24-8.15h-.6a26.26 26.26 0 0 1-2.09 7.93 24 24 0 0 1-4.56 6.43l-1.67-1.29a22.46 22.46 0 0 0 4.45-5.92 21.25 21.25 0 0 0 2-7.15h-1a19 19 0 0 1-5.1 10l-1.62-1.24a16 16 0 0 0 4.81-8.74h-.94a17.92 17.92 0 0 1-2.18 3.93l-1.69-1a19.36 19.36 0 0 0 3.4-7.76l1.93.34a21.76 21.76 0 0 1-.77 2.59zM840.81 229.85l-1.22 1.66a21.61 21.61 0 0 0-3.84-3l1.25-1.59a18.54 18.54 0 0 1 3.81 2.93zm-.1 3.6a33.3 33.3 0 0 1-3.22 7.8l-1.71-1.19a35.3 35.3 0 0 0 3.17-7.6zm.17-9l-1.4 1.54a18 18 0 0 0-3.41-3.26l1.42-1.54a19.71 19.71 0 0 1 3.39 3.29zm3.86 7.17v1a14.06 14.06 0 0 1-.87 5.51 7.37 7.37 0 0 1-2.61 3.17l-1.41-1.38q2.89-1.67 2.89-7v-1.28zm10.8-1.19l-1.84.94a15.22 15.22 0 0 0-.94-1.35c-4.74.4-8.41.62-11 .65l-.36-1.66a12.21 12.21 0 0 0 3.57-3.6h-3.61v-1.84h4.82c.3-.52.69-1.28 1.18-2.27l2.1.42a14.46 14.46 0 0 1-.92 1.85h6.84v1.84h-7.94a16.66 16.66 0 0 1-2.91 3.31 65.28 65.28 0 0 0 6.86-.43 14 14 0 0 0-1.41-1.48l1.86-.9a25.55 25.55 0 0 1 3.7 4.55zm-6.82 10.68h-1.94v-9.49h1.94zm6.74-.21h-3a1.55 1.55 0 0 1-1.67-1.65v-7.63h2v7a.48.48 0 0 0 .13.33.38.38 0 0 0 .27.15h2.3zM774.47 251.99c-.25.85-.61 1.86-1.07 3l-.69 1.66v14.68h-2v-10.86c-.33.47-.74 1-1.24 1.59l-1.14-2.14a23.38 23.38 0 0 0 4.12-8.28zm5.34 14.33a22.6 22.6 0 0 1-4.58 5.19l-1.55-1.41a21.78 21.78 0 0 0 4.36-4.72zm8.27-1.49h-14.34v-1.91h3v-5.09h-2.53v-1.91h2.53v-4.1h2v4.1h4.11v-4.1H785v4.1h2.59v1.93H785v5.07h3.11zm-5.17-1.91v-5.09h-4.11v5.09zm5.32 7.4l-1.68 1.24a30.27 30.27 0 0 0-4.43-4.91l1.56-1.21a23.79 23.79 0 0 1 4.55 4.88zM810.59 254.72h-16.27v4.7a13.72 13.72 0 0 0 3-4.42l1.84.41a30.76 30.76 0 0 1-1.5 2.83v7h-1.87v-4.64l-.83.82-.68-1.85v4.75a14.8 14.8 0 0 1-1.72 7.18l-1.56-1.25a14.67 14.67 0 0 0 1.4-6.84v-10.34h7.89a9.83 9.83 0 0 0-.65-1.08l2.19-.38a9.18 9.18 0 0 1 .79 1.46h8zm-12.69 11.93a15.21 15.21 0 0 1-2.3 4.32l-1.6-1.05a12.66 12.66 0 0 0 2.09-3.86zm12.51-1.39h-11v-4.56q-.24.23-.63.54l-.83-1.8a15 15 0 0 0 3.05-4.46l1.8.47c-.17.4-.35.78-.54 1.13h2.31a8.26 8.26 0 0 0-.64-1.13l2-.31a12 12 0 0 1 .73 1.44h3.6v1.55h-4v.9h3.73v1.4h-3.73v.92h3.73v1.41h-3.73v1h4.2zm-3.17 3.32c-.13 1.74-.87 2.62-2.22 2.62h-4.55c-1.2 0-1.81-.57-1.81-1.69v-3.44h2v2.88a.4.4 0 0 0 .25.4 7.09 7.09 0 0 0 1.69.11 8.19 8.19 0 0 0 2.4-.16 1.06 1.06 0 0 0 .31-.59 3.46 3.46 0 0 0 .11-.84zm-2.87-9.55v-.9h-3.06l-.11.15v.75zm0 2.32v-.92h-3.17v.92zm0 2.38v-1h-3.17v1zm.56 4.16l-1.71.79a16.32 16.32 0 0 0-1.68-2.36l1.72-.81a15.12 15.12 0 0 1 1.67 2.41zm5.79 1.69l-1.68.91a18.54 18.54 0 0 0-2.61-3.67l1.67-.88a21 21 0 0 1 2.62 3.64zM833.31 269.31l-.57 1.84h-8.38q-4.67 0-7.25-2.34a22.8 22.8 0 0 1-2.14 2.84l-1.59-1.27a13.54 13.54 0 0 0 3.62-6.46h-3.2v-1.8a24.47 24.47 0 0 0 2.75-3.9h-3.11v-1.82h5.35v1.76a24.91 24.91 0 0 1-2.56 4H819v1.76a24.05 24.05 0 0 1-1 3.28 9 9 0 0 0 6.37 2.07zm-14.57-14.85l-1.38 1.46a21.22 21.22 0 0 0-3.24-2.85l1.32-1.42a16.19 16.19 0 0 1 3.3 2.81zm14.07 13.11h-11.53v-8.26a17.73 17.73 0 0 1-1.19 1.54l-1.1-1.78a27 27 0 0 0 3.78-7.46l1.93.43a29 29 0 0 1-1.12 2.83h3.07a25.83 25.83 0 0 0-1.19-2.66l1.85-.6a22.81 22.81 0 0 1 1.35 3.26h3.88v1.76h-4.2v1.86h3.86v1.68h-3.86v1.89h3.88v1.71h-3.88v2h4.47zm-6.4-9.08v-1.86h-3.19v1.86zm0 3.57v-1.89h-3.19v1.89zm0 3.71v-2h-3.19v2zM855.52 255.02h-15.65v7.38a16.36 16.36 0 0 1-2.32 9.09l-1.69-1.13a14.29 14.29 0 0 0 2-8v-9.14h7.37a11.77 11.77 0 0 0-.85-1.18l2.18-.47c.29.5.61 1.05.94 1.65h8zm.13 14.51l-.6 1.91a23.73 23.73 0 0 1-7.57-1.68 26.69 26.69 0 0 1-6.88 1.73l-.92-1.91a18.65 18.65 0 0 0 5.62-1 8.08 8.08 0 0 1-3-3.33h-1v-1.77h11.8v1.77a11.79 11.79 0 0 1-3.49 3.33 19.49 19.49 0 0 0 6.04.95zm-.35-10.61H852v3.3h-8.68v-3.3h-2.7v-1.8h2.7v-1.33h1.93v1.33H850v-1.33h2v1.33h3.3zm-4.75 6.35h-5.94a8.14 8.14 0 0 0 2.78 2.49 11.2 11.2 0 0 0 3.16-2.53zm-.51-4.78v-1.57h-4.79v1.57z" fill="#fff"/>
  </g>
  <path class="js-group js-group3" data-name="g3" d="M653.87 269.63c-3.38-13.51-17.8-20.59-31.65-16.37s-21.89 18.14-18 31.1 18.37 20 32.22 15.81 21.88-18.14 17.38-30.54" fill="#ff5b00" fill-rule="evenodd"/>
  <g class="js-group js-group4" data-name="g4">
    <rect x="720.76" y="422.39" width="186.24" height="79.12" rx="2.83" fill="#ff5b00"/>
    <path d="M787.91 442.32l-1.23 1.65a21.07 21.07 0 0 0-4-2.77l1.22-1.64a23.2 23.2 0 0 1 4.01 2.76zm.32 4a35.7 35.7 0 0 1-3.71 7.53l-1.76-1.17a33.31 33.31 0 0 0 3.73-7.47zm0-9.09l-1.4 1.54a18.42 18.42 0 0 0-4-3.26l1.46-1.52a23.05 23.05 0 0 1 3.94 3.23zm13.39 14.05c0 1-.22 1.67-.67 2a5.07 5.07 0 0 1-2.47.42h-1.18l-.74-1.87h2.49c.43 0 .64-.19.64-.48v-2.6q-3.65 1-7.67 1.74l-.67-1.25a8.69 8.69 0 0 1-2.16 4.49l-1.59-1.27a6.72 6.72 0 0 0 1.41-2.39 14.21 14.21 0 0 0 .56-4.63v-4.65h5v-6.61h2v6.61h5zm-8.34-12.16l-1.73 1a24.39 24.39 0 0 0-2.9-4.46l1.76-1.06a24 24 0 0 1 2.87 4.51zm6.41 7.63v-4.23h-8.14v1.32q3.51.27 6.92.68l-.47 1.9q-2.84-.5-6.41-.77a26.18 26.18 0 0 1-.11 2.9 71.34 71.34 0 0 0 8.21-1.81zm2.64-11.39a22.93 22.93 0 0 1-2.51 4.84l-1.86-.9a23.72 23.72 0 0 0 2.53-4.72zM824.48 439.92c0 1.73-.2 2.75-.5 3.05a1.78 1.78 0 0 1-1 .55l-.9.14v7.46h-9.7l.94 1a25.45 25.45 0 0 1-7.39 1.69l-.86-1.58a29.14 29.14 0 0 0 6.05-1.08h-3.17v-6.57a20.21 20.21 0 0 1-2.15.41l-.79-1.78q3.64-.33 5.27-1.91h-4.33l.71-3.75h4.86v-1.08h-5.84v-1.33h5.84v-1.08h1.93v1.08h3.17v-1.08h1.93v1.08h5.19v3.78h-5.19v1zm-13.12-1h-3l-.15 1h2.92a10 10 0 0 0 .23-1zm8.7 6.33v-.92H809.9v.92zm0 2.28v-1H809.9v1zm0 2.25v-1H809.9v1zm2.42-8.46h-4v1.1h-1.88v-1.1h-4.07a7.39 7.39 0 0 1-1.45 1.64h10l-.32-.87a3.37 3.37 0 0 0 1.42-.1c.22-.13.3-.35.3-.7zm-5.88-1.4v-1h-3.23a5.61 5.61 0 0 1-.23 1zm0-2.4v-1.06h-3.17v1.06zm8.29 14.86l-.89 1.54a36.18 36.18 0 0 0-6.83-1l.77-1.52a36.19 36.19 0 0 1 6.95 1zm-3.12-14.86v-1.06h-3.24v1.06zM847.2 442.08h-7a32.57 32.57 0 0 1-2.85 2h7.61v9.59h-2v-1h-8.72v1h-2.06v-7.08q-1.74.7-3.63 1.35l-1-1.8a33.52 33.52 0 0 0 9.46-4.11h-9.31v-1.89h8.19v-2.22h-6.19v-1.8h6.16v-2.1h2.06v2.08h4.13v1.66a21.54 21.54 0 0 0 2.57-3.14l1.57 1.25a31.87 31.87 0 0 1-3.79 4.32h4.8zm-4.31 5.39v-1.55h-8.72v1.54zm0 3.44v-1.66h-8.72v1.67zm-1-12.94h-3.94v2.22h1.58c.9-.8 1.68-1.54 2.33-2.22zM788.83 475.2H772v-5.75a14.06 14.06 0 0 1-1.57 1.7l-1.31-1.52a24.88 24.88 0 0 0 4.61-6.59l1.89.49c-.24.51-.54 1.06-.88 1.67h4.69a9.43 9.43 0 0 0-.9-1.56l2-.62a17.92 17.92 0 0 1 1.21 2.18h6.89v1.72h-7.33v1.13h6.37v1.5h-6.37v1.22h6.37v1.46h-6.37v1.3h7.56zm-1.52 7.72h-2V482h-11.82v.92h-2v-6.54h15.8zm-2-2.71v-2.09h-11.82v2.06zm-6-12.12v-1.17H774v1.13zm0 2.66v-1.16H774v1.16zm0 2.82v-1.3H774v1.3zM798.4 468.55c-.52.89-1.24 2-2.15 3.28v11.09h-2v-8.83a15.69 15.69 0 0 1-1.64 1.51l-1-1.87a19.18 19.18 0 0 0 5.16-6zm-.82-4.57a21.26 21.26 0 0 1-4.84 5.15l-1-1.73a15.61 15.61 0 0 0 4.11-4.3zm14.08 17.27l-.85 1.8a24.48 24.48 0 0 1-6.61-2.07 30.75 30.75 0 0 1-6.54 2l-.83-1.76a25.22 25.22 0 0 0 5.51-1.46 15.69 15.69 0 0 1-2.1-2 24.8 24.8 0 0 1-2 1.52l-1.27-1.4a20.66 20.66 0 0 0 2.12-1.56l-.81-1.25 1.5-1a6.74 6.74 0 0 0 .66.9 11.6 11.6 0 0 0 1.33-1.71l-3.49.09-.41-1.8a20.12 20.12 0 0 0 5.17-2.47c-.87.06-2.21.12-4 .17l-.34-1.59a17.26 17.26 0 0 0 5.14-4.57l1.93.84a14.1 14.1 0 0 1-4.27 3.58c1.24-.07 2.61-.17 4.12-.32 1.31-1.24 2.1-2 2.38-2.27l1.89.9a25.74 25.74 0 0 1-8.68 5.89q2.29-.12 6.34-.66c-.24-.32-.56-.7-.94-1.14l1.63-.94a23.85 23.85 0 0 1 3.1 4.16l-1.71.89a8.81 8.81 0 0 0-.9-1.38c-1.61.17-3.2.32-4.76.44-.14.27-.47.81-1 1.64h6.61v1.85a15.55 15.55 0 0 1-3.48 3.28 24.75 24.75 0 0 0 5.56 1.4zm-4.47-4.67h-5.53a10.67 10.67 0 0 0 2.52 2.27 17.38 17.38 0 0 0 3.01-2.27zM822 481.28a1.58 1.58 0 0 1-.51 1.17c-.34.33-1.34.48-3 .44l-.67-2a10.76 10.76 0 0 0 1.28.09 1.51 1.51 0 0 0 .75-.11.38.38 0 0 0 .17-.36v-4.79h-2.48a21.33 21.33 0 0 1-1.61 7.27l-1.73-1.07a20.39 20.39 0 0 0 1.39-8.16v-10H822zm-2-12.62v-2.94h-2.45v2.94zm0 5.13v-3.2h-2.45v3.2zm14.05 7.6l-1.22 1.62a18 18 0 0 1-3-2.25 16.52 16.52 0 0 1-2.5 2.15l-1.33-1.48a13.08 13.08 0 0 0 2.52-2.17 16.72 16.72 0 0 1-2.65-6.31h-.24v10h-2v-19.28h9.82a19.39 19.39 0 0 1-.3 3.44 5 5 0 0 1-.67 2.08 2.78 2.78 0 0 1-.94.67 10 10 0 0 1-2.9.24l-.79-1.89c1.85 0 2.85-.07 3-.33a7.28 7.28 0 0 0 .45-2.3h-5.66v5.46h7.61a17.66 17.66 0 0 1-2.23 8.07 16.08 16.08 0 0 0 3.07 2.28zm-3-8.44h-3.19a13.63 13.63 0 0 0 1.78 4.53 14.08 14.08 0 0 0 1.47-4.56zM845.6 470.19a19.72 19.72 0 0 1-1.2 5.19l-1.58-.45a16.34 16.34 0 0 0 .83-2.92h-1.22v8.91a1.75 1.75 0 0 1-.37 1.14 1.94 1.94 0 0 1-.82.64 4.76 4.76 0 0 1-1.51.17h-1.14l-.59-1.95c.42 0 1.1.05 2 .05.35 0 .53-.23.53-.67v-5.18a16.74 16.74 0 0 1-2.87 5l-1.1-1.89a19.44 19.44 0 0 0 3.48-6.18h-3.28v-1.82h4.37a15.89 15.89 0 0 0-3.06-2.54l1.34-1.28a11.57 11.57 0 0 1 1.74 1.19 17.42 17.42 0 0 0 1.61-2h-5.3v-1.84h7.68v1.71a21.34 21.34 0 0 1-2.51 3.37 4.33 4.33 0 0 1 .51.6l-.92.8zm9.8 5.06a34.07 34.07 0 0 1-.68 6.14 2.66 2.66 0 0 1-.9 1.07 3.86 3.86 0 0 1-2.16.43h-1.07l-.65-1.85c.39 0 .84.05 1.35.05a2.91 2.91 0 0 0 1.31-.19 1.68 1.68 0 0 0 .48-1 16.52 16.52 0 0 0 .28-2.79h-3a7.1 7.1 0 0 1-2 3.48 10.34 10.34 0 0 1-3.78 2.42l-1.24-1.6q4.13-1.56 5-4.3h-2.9v-1.86h3.31a17.34 17.34 0 0 0 .19-1.76l1.92.1c0 .26 0 .81-.14 1.66zm1.17-2.88l-.9 1.71a13.68 13.68 0 0 1-5-2.2 18.43 18.43 0 0 1-4 2.08l-1.06-1.7a12.88 12.88 0 0 0 3.56-1.65 15.19 15.19 0 0 1-1.58-1.82l1.51-1a16.27 16.27 0 0 0 1.53 1.69 10.79 10.79 0 0 0 1.82-2.59h-3.89a25.52 25.52 0 0 1-2.48 2.68l-1.34-1.31a21.73 21.73 0 0 0 4.22-5.23l1.78.64a13.49 13.49 0 0 1-.86 1.4h6.19v1.82h-1.69a10.34 10.34 0 0 1-2.3 3.71 11.29 11.29 0 0 0 4.49 1.77z" fill="#fff"/>
  </g>
  <path class="js-group js-group4" data-name="g4" d="M620 435.21c-4.28-14.81-20.65-22.8-36.37-18s-24.86 20.55-20.4 35.2 20.82 22.65 36.54 17.85 24.86-20.55 20.23-35" fill="#ff5b00" fill-rule="evenodd"/>
  <g class="js-group js-group5" data-name="g5">
    <rect y="422.39" width="186.24" height="79.12" rx="2.83" fill="#ff5b00"/>
    <path d="M64.44 438.92q-5.46 5.75-15.9 7.77l-.95-1.77a34.31 34.31 0 0 0 7.95-2.06 16.24 16.24 0 0 0-3.09-2.66 30 30 0 0 1-3.45 1.63l-1.2-1.51a22.68 22.68 0 0 0 7.81-4.9l1.89.72a11.14 11.14 0 0 1-1 1h7.93zm2.56 8a5.86 5.86 0 0 1-1.38 2 15 15 0 0 1-2.93 2.68 19.88 19.88 0 0 1-3.62 1.92 22.86 22.86 0 0 1-4.56 1.31 29.73 29.73 0 0 1-5.27.5l-.81-1.87a23.06 23.06 0 0 0 9.79-1.69 17.49 17.49 0 0 0-3.12-2.85 26.94 26.94 0 0 1-4.7 1.82l-1.25-1.6a23.1 23.1 0 0 0 10.62-5.93l1.91.69a13.61 13.61 0 0 1-1.19 1.26H67zm-5.26-8h-7.29a3.64 3.64 0 0 1-.39.26 25.08 25.08 0 0 1 3.33 2.74 20 20 0 0 0 4.31-3zm3.1 8h-6.51c-.16.14-.67.48-1.52 1a22.44 22.44 0 0 1 3.25 3 13.45 13.45 0 0 0 4.74-4zM89.65 449.47a15.79 15.79 0 0 1-.44 3.7 2.36 2.36 0 0 1-1.16 1.57 7.23 7.23 0 0 1-2.91.4c-1 0-1.7 0-2.24-.07a2 2 0 0 1-1.28-.51 1.61 1.61 0 0 1-.48-1.25v-9h-3.46a15 15 0 0 1-1.66 7 11.36 11.36 0 0 1-4.77 4.06l-1.46-1.66a9.27 9.27 0 0 0 4.35-3.27 12 12 0 0 0 1.45-6.11h-5.24v-2h18.92v2h-6v8.26a.47.47 0 0 0 .23.46 7.74 7.74 0 0 0 1.83.11 4.79 4.79 0 0 0 1.57-.15.76.76 0 0 0 .42-.46 8.5 8.5 0 0 0 .22-1.32c.08-.67.13-1.55.16-2.65zm-1.73-11.38H71.75v-2h16.17zM97.32 441.04l-1 1.6a15 15 0 0 0-3.87-2.05l.9-1.68a17.2 17.2 0 0 1 3.97 2.13zm2.51 10.38a30 30 0 0 1-6.2 3.47l-1.19-1.67a23.63 23.63 0 0 0 5.84-3.09zm12.24-1.86h-8.81v5.64h-2v-5.66h-8.8v-1.75h8.85v-1.24h2v1.24h8.81zm-13-6a45 45 0 0 1-5.71 3.22l-.81-1.75a36.92 36.92 0 0 0 5.74-3.15zm-.67-5.82l-1 1.59a17.29 17.29 0 0 0-4-2.4l1-1.57a17.64 17.64 0 0 1 3.95 2.35zm13.52 8.34H98.41v-1.66H100v-6.88h-1.3v-1.62h12.9v1.64h-9.66v1.25h8.61v4.3h-8.61v1.33h9.93zm-3.3-4.48v-1.2h-6.63v1.2zm3.52 11.63l-1 1.69a31.88 31.88 0 0 0-6.52-3.08l1-1.64a29 29 0 0 1 6.47 3zM134.65 453.16l-.61 1.89h-3.29a51.9 51.9 0 0 1-8.54-.45 7.4 7.4 0 0 1-3.8-2 19.75 19.75 0 0 1-2.18 2.7l-1.46-1.22a15.77 15.77 0 0 0 3.77-6.27h-3.32v-1.89a28.53 28.53 0 0 0 3-3.9H115v-1.91h5.48v1.91a36.5 36.5 0 0 1-2.63 3.9h2.76v1.91a20.37 20.37 0 0 1-1.27 3.21 5.42 5.42 0 0 0 3 1.81 51 51 0 0 0 8.14.38c1.52 0 2.94-.02 4.17-.07zm-14.31-14.93l-1.41 1.35a18.91 18.91 0 0 0-3.47-2.88l1.46-1.35a17.27 17.27 0 0 1 3.42 2.88zm14.24 1.8h-6.31c-.3.64-.5 1.05-.61 1.24h5.83v10.88H122v-10.88h3.41c.14-.24.36-.65.66-1.24h-5v-1.83h13.59zm-8.13-3.11l-1.66 1.13a25.42 25.42 0 0 0-2.38-1.6l1.75-1.1a15.88 15.88 0 0 1 2.29 1.57zm5 7.4v-1.4H124v1.41zm0 3v-1.37H124v1.37zm0 3.08V449H124v1.4zm1.39-14.14a14.62 14.62 0 0 1-2.27 1.75l-1.84-1a17.41 17.41 0 0 0 2.21-1.6zM80.18 471.64l-1 1.8a14.68 14.68 0 0 1-2-.56v8.45H67.8l1 1.12a29 29 0 0 1-7.48 2.17l-1-1.8a26 26 0 0 0 6.13-1.49h-3.3v-8.49h4.25l-.86-1.25a10.27 10.27 0 0 0 5.87-3.5l2 .45a3.37 3.37 0 0 1-.49.76 18.21 18.21 0 0 0 6.26 2.34zM67 471.01h-6.5v-1.84H67zm-.19-3.58h-6.02v-1.8h6.05zm8.42 7.79v-.79h-10v.79zm0 2.29v-.83h-10v.83zm0 2.34v-.88h-10v.88zm4.52-12.16a26.36 26.36 0 0 1-2 2.51l-1.7-1q.28-.33 1.2-1.5h-7a17.4 17.4 0 0 1-2 2l-1.52-1.3a13.72 13.72 0 0 0 3.35-3.82l1.84.62a2.14 2.14 0 0 1-.43.79h8.27zm-2.72 5.15a17.75 17.75 0 0 1-4.39-2.17 11.92 11.92 0 0 1-3.64 2.17zm3 10.13L79 484.7a36 36 0 0 0-6.58-1.37l1-1.69a29 29 0 0 1 6.58 1.33zM90.18 468.51H82.9v-1.81h2.87a7.62 7.62 0 0 0-.71-1.4l2-.74a17.47 17.47 0 0 1 1 2.14h2.16zm-.49 3.34h-6.25v-1.8h6.25zm0 3.28h-6.25v-1.78h6.25zm0 8.76h-2v-1h-2.31v1.55h-1.94v-7.79h6.27zm-2-2.85v-2.54h-2.31v2.54zm15-1.87a15.15 15.15 0 0 1-.61 3.2 4.33 4.33 0 0 1-.88 1.82 1.44 1.44 0 0 1-1 .36 1.53 1.53 0 0 1-1.15-.51 7.19 7.19 0 0 1-.94-3 26.63 26.63 0 0 1-.44-4.51v-9.37h-3v6.06h2.43v1.94h-2.41v9.3h-1.93v-9.3h-2.09v-1.94h2.09v-6.06h-1.82v-1.89h8.72v11.71a17.78 17.78 0 0 0 .72 5.06 19.1 19.1 0 0 0 .54-4zM110.22 473.19l-1.22 1.67a21.89 21.89 0 0 0-3.84-3l1.2-1.67a18.54 18.54 0 0 1 3.86 3zm-.1 3.6a32.87 32.87 0 0 1-3.22 7.8l-1.71-1.19a35.09 35.09 0 0 0 3.17-7.6zm.17-9l-1.39 1.55a18.13 18.13 0 0 0-3.42-3.26l1.42-1.55a19 19 0 0 1 3.39 3.29zm3.86 7.17v1a14.27 14.27 0 0 1-.86 5.51 7.26 7.26 0 0 1-2.62 3.17l-1.43-1.41q2.89-1.68 2.89-7v-1.28zM125 473.8l-1.85.95a12.77 12.77 0 0 0-.94-1.35c-4.73.39-8.41.61-11 .64l-.36-1.65a12.28 12.28 0 0 0 3.57-3.61h-3.61v-1.86h4.82c.3-.52.7-1.28 1.18-2.27l2.11.43a15.89 15.89 0 0 1-.93 1.84h6.84v1.84h-7.93a16.76 16.76 0 0 1-2.92 3.31 63 63 0 0 0 6.87-.43 16.65 16.65 0 0 0-1.42-1.48l1.87-.9a26.45 26.45 0 0 1 3.7 4.54zm-6.83 10.68h-1.94v-9.49h1.94zm6.74-.2h-3a1.54 1.54 0 0 1-1.66-1.66v-7.65h2v6.95a.47.47 0 0 0 .13.32.38.38 0 0 0 .27.15h2.3z" fill="#fff"/>
  </g>
  <path class="js-group js-group5" data-name="g5" d="M302.13 451.68c-4.76-13.64-20.39-21.31-35.4-16.74s-23.73 19.67-19.45 33.71 19.91 21.71 34.92 17.14 23.72-19.67 19.93-34.11" fill="#ff5b00" fill-rule="evenodd"/>
  <g class="js-group js-group6" data-name="g6">
    <rect y="208.15" width="186.24" height="79.12" rx="2.83" fill="gray"/>
    <path d="M66 229.78l-1.23 1.64a20.58 20.58 0 0 0-4-2.76l1.22-1.65a22.71 22.71 0 0 1 4.01 2.77zm.32 4a35.46 35.46 0 0 1-3.71 7.53l-1.76-1.17a33.74 33.74 0 0 0 3.73-7.47zm0-9.09l-1.4 1.54a18.42 18.42 0 0 0-4-3.26l1.46-1.52a23.05 23.05 0 0 1 3.9 3.22zm13.35 14.03c0 1-.22 1.67-.67 2a5 5 0 0 1-2.47.43c-.44 0-.83 0-1.18-.05l-.74-1.86h2.49c.43 0 .64-.19.64-.48v-2.6q-3.64 1-7.67 1.74l-.67-1.25a8.69 8.69 0 0 1-2.16 4.49l-1.59-1.27a6.72 6.72 0 0 0 1.41-2.39 14.17 14.17 0 0 0 .57-4.63v-4.65h5v-6.61h2v6.61h5zm-8.34-12.16l-1.73 1a24.15 24.15 0 0 0-2.9-4.47l1.76-1.06a24.3 24.3 0 0 1 2.87 4.53zm6.41 7.63v-4.27H69.6v1.32q3.51.27 6.92.68l-.52 2q-2.83-.49-6.41-.77a24 24 0 0 1-.11 2.9 69.31 69.31 0 0 0 8.26-1.86zm2.64-11.39a23.23 23.23 0 0 1-2.51 4.85l-1.87-.91a23.72 23.72 0 0 0 2.53-4.72zM102.53 227.39c0 1.73-.2 2.75-.5 3.06a1.77 1.77 0 0 1-1 .54l-.9.14v7.46h-9.7l.94 1a25.45 25.45 0 0 1-7.37 1.66l-.86-1.58a29 29 0 0 0 6.05-1.08H86v-6.56c-.74.17-1.46.31-2.15.4l-.85-1.78q3.64-.33 5.27-1.91H84l.71-3.75h4.86v-1.07h-5.86v-1.33h5.84v-1.08h1.93v1.08h3.17v-1.08h1.94v1.08h5.18v3.76h-5.18v1.05zm-13.12-1.05h-3l-.15 1.05h2.92a10 10 0 0 0 .23-1.05zm8.7 6.33v-.92H88v.92zm0 2.28v-1H88v1zm0 2.25v-1H88v1zm2.42-8.46h-3.94v1.1h-1.94v-1.1h-4.06a7.53 7.53 0 0 1-1.46 1.64h10.06l-.33-.87a3.2 3.2 0 0 0 1.42-.1c.17-.1.25-.32.25-.67zm-5.88-1.35v-1.05h-3.23a5.61 5.61 0 0 1-.23 1.05zm0-2.4v-1.07h-3.17v1.06zm8.29 14.86l-.85 1.51a36.18 36.18 0 0 0-6.83-1l.77-1.52a36.19 36.19 0 0 1 6.91 1.01zm-3.12-14.86v-1.07h-3.23v1.06zM125.25 229.53h-7a32.57 32.57 0 0 1-2.85 2h7.6v9.59h-2v-1h-8.72v1h-2.07v-7.08c-1.15.48-2.36.93-3.62 1.35l-1-1.8a33.23 33.23 0 0 0 9.46-4.11h-9.31v-1.88h8.19v-2.26h-6.16v-1.82h6.16v-2.1H116v2.08h4.13v1.66a21.54 21.54 0 0 0 2.57-3.14l1.57 1.25a31.94 31.94 0 0 1-3.8 4.33h4.81zm-4.31 5.39v-1.54h-8.72v1.54zm0 3.44v-1.66h-8.72v1.66zm-1-12.94H116v2.23h1.58c.9-.81 1.68-1.55 2.33-2.23zM66.21 255.74l-.79 1.78a39.84 39.84 0 0 1-5.57-1.84v.83h-7.34v-.88a37.26 37.26 0 0 1-5.51 1.93l-1-1.64q6.63-1.71 9.79-4.38l2.2.54a2.75 2.75 0 0 1-.41.42 27.7 27.7 0 0 0 8.63 3.24zm-2 7.49h-16v-5.81h16zm-1 8.18h-2v-.8H51.16v.8h-2v-7.19h14.03zm-8.06-9.75v-2.64h-5.08v2.64zm-1-1.11l-1.41.9a15.28 15.28 0 0 0-1.87-1.33l1.4-.94a12.84 12.84 0 0 1 1.87 1.37zm7.08 6.12v-.93H51.16v.93zm0 2.38v-1H51.16v1zm-2.95-14.13c-1.21-.67-1.94-1.09-2.21-1.25a11.77 11.77 0 0 1-2.07 1.25zm3.91 6.71v-2.61h-5.08v2.64zm-.86-1.58a14.25 14.25 0 0 1-1.89 1.3l-1.39-.94c.88-.56 1.49-1 1.84-1.22zM86.32 267.86H75.86l.75.65a22.79 22.79 0 0 1-6.78 3.11l-1.11-1.61a23 23 0 0 0 5.4-2.15h-3.24v-9.82h15.44zm-.49-11.11H71.38v-4.36h14.45zm-1.49 4.1v-1.27H72.9v1.27zm0 2.72v-1.29H72.9v1.29zm0 2.77v-1.31H72.9v1.31zm-.5-11.09v-1.33h-10.4v1.29zm4.67 14.76l-1 1.67a32.06 32.06 0 0 0-6.51-1.82l.92-1.67a29 29 0 0 1 6.59 1.82zM100.83 254.78H94.9a17.59 17.59 0 0 1-2.49 2.31l-1.31-1.62a8.59 8.59 0 0 0 3.41-3.82l2 .53a4.71 4.71 0 0 1-.45.9h4.74zm9.46 6.67h-2v-2.16H93.73v2.16h-2v-3.82h8.09a7.17 7.17 0 0 0-.54-1l2.29-.36a10 10 0 0 1 .72 1.37h8zm-2 9.06H96.31v.9h-2v-11h13.19v4.29H96.31v1.22h11.94zm-9.49-13.8l-2.2.4a11.24 11.24 0 0 0-.94-1.58l2.13-.44a9.84 9.84 0 0 1 .97 1.62zm6.74 6.54v-1.33h-9.23v1.31zm.74 5.73v-1.57h-9.97v1.57zm4.61-14.2h-6.93a11.47 11.47 0 0 1-1.27 1.59l-1.82-1a12.75 12.75 0 0 0 2.62-3.82l2 .58a10 10 0 0 1-.49.92h5.86zm-3 2.06l-2.16.34a9.06 9.06 0 0 0-.86-1.76l2.19-.24a12.21 12.21 0 0 1 .78 1.66zM120.49 266.64a53.2 53.2 0 0 1-6.25 3.24l-.69-1.91c.54-.21 1.43-.62 2.67-1.22v-5.6h-2.16v-1.86h2.16v-4.45h-2.5v-1.8h6.73v1.8h-2.3v4.45h2v1.86h-2v4.57a15.83 15.83 0 0 0 2.27-1.18zm12.78 4.3H120.4v-1.83h5.52v-2.19h-4.74v-1.8h4.74v-1.93h-4.6v-10.8h11.09v10.8h-4.53v1.93h4.85v1.8h-4.85v2.21h5.39zm-7.35-14.08v-2.69h-2.62v2.69zm0 4.55v-2.92h-2.62v2.92zm4.54-4.55v-2.69h-2.58v2.69zm0 4.55v-2.92h-2.58v2.92z" fill="#fff"/>
  </g>
  <path class="js-group js-group6" data-name="g6" d="M361.15 203.32c-4.47-14.8-20.84-23-36.5-18.2s-24.7 20.69-20.18 35.55 20.89 23 36.55 18.26 24.7-20.69 20.13-35.61" fill="#ff5b00" fill-rule="evenodd"/>
</svg>