<?xml version="1.0" encoding="utf-8"?>
<!-- Generator: Adobe Illustrator 13.0.1, SVG Export Plug-In . SVG Version: 6.00 Build 14948)  -->
<!DOCTYPE svg PUBLIC "-//W3C//DTD SVG 1.0//EN" "http://www.w3.org/TR/2001/REC-SVG-20010904/DTD/svg10.dtd">
<svg version="1.0" xmlns="http://www.w3.org/2000/svg" xmlns:xlink="http://www.w3.org/1999/xlink" x="0px" y="0px" width="120px"
	 height="120px" viewBox="0 0 120 120" enable-background="new 0 0 120 120" xml:space="preserve">
<g id="圖層_2_3_" display="none">
</g>
<g id="圖層_1" display="none">
	<circle display="inline" stroke="#FFFFFF" cx="59.5" cy="59.5" r="60"/>
	<g id="圖層_2_2_">
		<rect x="-0.5" y="0.5" display="inline" stroke="#FFFFFF" width="121" height="119"/>
		<circle display="inline" fill="none" stroke="#FFFFFF" stroke-width="2" cx="58.5" cy="60.5" r="59"/>
	</g>
</g>
<g id="圖層_3_1_" display="none">
	<g display="inline">
		<g>
			<path fill="#FFFFFF" d="M85.5,87.429h-52c-1.103,0-2-0.897-2-2v-29h2v29h52v-29h2v29C87.5,86.531,86.603,87.429,85.5,87.429z"/>
		</g>
		<g>
			<polygon fill="#FFFFFF" points="77.914,61.429 65.5,61.429 65.5,59.429 77.086,59.429 81.086,55.429 91.5,55.429 91.5,57.429 
				81.914,57.429 			"/>
		</g>
		<g>
			<polygon fill="#FFFFFF" points="52.5,61.429 41.086,61.429 37.086,57.429 27.5,57.429 27.5,55.429 37.914,55.429 41.914,59.429 
				52.5,59.429 			"/>
		</g>
		<g>
			<rect x="32.5" y="81.429" fill="#FFFFFF" width="54" height="2"/>
		</g>
		<g>
			<path fill="#FFFFFF" d="M59.5,61.429c-0.256,0-0.512-0.098-0.707-0.293l-6-6l1.414-1.414l5.293,5.293l5.293-5.293l1.414,1.414
				l-6,6C60.012,61.331,59.756,61.429,59.5,61.429z"/>
		</g>
		<g>
			<rect x="58.5" y="35.429" fill="#FFFFFF" width="2" height="25"/>
		</g>
		<g>
			<path fill="#FFFFFF" d="M47.5,53.429c-0.256,0-0.512-0.098-0.707-0.293l-6-6l1.414-1.414l5.293,5.293l5.293-5.293l1.414,1.414
				l-6,6C48.012,53.331,47.756,53.429,47.5,53.429z"/>
		</g>
		<g>
			<path fill="#FFFFFF" d="M71.5,53.429c-0.256,0-0.512-0.098-0.707-0.293l-6-6l1.414-1.414l5.293,5.293l5.293-5.293l1.414,1.414
				l-6,6C72.012,53.331,71.756,53.429,71.5,53.429z"/>
		</g>
		<g>
			<path fill="#FFFFFF" d="M48.5,52.429h-2v-11c0-2.206-1.794-4-4-4h-3v-2h3c3.309,0,6,2.691,6,6V52.429z"/>
		</g>
		<g>
			<path fill="#FFFFFF" d="M72.5,52.429h-2v-11c0-3.309,2.691-6,6-6h3v2h-3c-2.206,0-4,1.794-4,4V52.429z"/>
		</g>
		<g>
			<path fill="#FFFFFF" d="M81.5,65.429h-44c-1.103,0-2-0.897-2-2v-2h2v2h44v-2h2v2C83.5,64.531,82.603,65.429,81.5,65.429z"/>
		</g>
		<g>
			<rect x="31.5" y="35.429" fill="#FFFFFF" width="2" height="2"/>
		</g>
		<g>
			<rect x="27.5" y="35.429" fill="#FFFFFF" width="2" height="2"/>
		</g>
		<g>
			<rect x="35.5" y="35.429" fill="#FFFFFF" width="2" height="2"/>
		</g>
		<g>
			<rect x="85.5" y="35.429" fill="#FFFFFF" width="2" height="2"/>
		</g>
		<g>
			<rect x="81.5" y="35.429" fill="#FFFFFF" width="2" height="2"/>
		</g>
		<g>
			<rect x="89.5" y="35.429" fill="#FFFFFF" width="2" height="2"/>
		</g>
		<g>
			<path fill="#FFFFFF" d="M59.5,78.429c-2.206,0-4-1.794-4-4s1.794-4,4-4s4,1.794,4,4S61.706,78.429,59.5,78.429z M59.5,72.429
				c-1.103,0-2,0.897-2,2s0.897,2,2,2s2-0.897,2-2S60.603,72.429,59.5,72.429z"/>
		</g>
		<g>
			<rect x="58.5" y="23.429" fill="#FFFFFF" width="2" height="2"/>
		</g>
		<g>
			<rect x="58.5" y="27.429" fill="#FFFFFF" width="2" height="2"/>
		</g>
		<g>
			<rect x="58.5" y="31.429" fill="#FFFFFF" width="2" height="2"/>
		</g>
	</g>
</g>
<g id="圖層_4">
	<g>
		<g>
			
				<rect x="25.646" y="33.668" fill="none" stroke="#FFFFFF" stroke-width="2.0061" stroke-miterlimit="10" width="65.867" height="6.353"/>
			
				<line fill="none" stroke="#FFFFFF" stroke-width="2.0061" stroke-miterlimit="10" x1="27.987" y1="36.788" x2="30.053" y2="36.788"/>
			
				<line fill="none" stroke="#FFFFFF" stroke-width="2.0061" stroke-miterlimit="10" x1="31.564" y1="36.788" x2="33.632" y2="36.788"/>
			
				<line fill="none" stroke="#FFFFFF" stroke-width="2.0061" stroke-miterlimit="10" x1="35.142" y1="36.788" x2="37.21" y2="36.788"/>
		</g>
		
			<line fill="none" stroke="#FFFFFF" stroke-width="0.6687" stroke-miterlimit="10" x1="42.139" y1="56.559" x2="26.425" y2="71.437"/>
		
			<line fill="none" stroke="#FFFFFF" stroke-width="0.6687" stroke-miterlimit="10" x1="88.375" y1="52.727" x2="66.979" y2="64.096"/>
		<line fill="none" stroke="#FFFFFF" stroke-width="2.0061" x1="41.972" y1="59.636" x2="41.972" y2="84.645"/>
		<line fill="none" stroke="#FFFFFF" stroke-width="2.0061" x1="63.705" y1="69.223" x2="63.705" y2="84.31"/>
		<line fill="none" stroke="#FFFFFF" stroke-width="2.0061" x1="66.816" y1="64.092" x2="87.93" y2="52.727"/>
		<line fill="none" stroke="#FFFFFF" stroke-width="2.0061" x1="45.616" y1="57.65" x2="60.794" y2="64.188"/>
		<line fill="none" stroke="#FFFFFF" stroke-width="2.0061" x1="28.527" y1="69.333" x2="39.779" y2="58.629"/>
		<polyline fill="none" stroke="#FFFFFF" stroke-width="2.0061" stroke-miterlimit="10" points="91.514,55.513 91.514,84.155 
			25.646,84.155 25.646,75.24 		"/>
		<polyline fill="none" stroke="#FFFFFF" stroke-width="2.0061" stroke-miterlimit="10" points="25.646,68.33 25.646,33.668 
			91.514,33.668 91.514,48.046 		"/>
		<circle fill="none" stroke="#FFFFFF" stroke-width="2.0061" cx="25.923" cy="71.938" r="3.344"/>
		<circle fill="none" stroke="#FFFFFF" stroke-width="2.0061" cx="42.307" cy="56.224" r="3.343"/>
		<circle fill="none" stroke="#FFFFFF" stroke-width="2.0061" cx="64.039" cy="65.586" r="3.344"/>
		<circle fill="none" stroke="#FFFFFF" stroke-width="2.0061" cx="91.122" cy="51.543" r="3.343"/>
		<line fill="none" stroke="#FFFFFF" stroke-width="2.0061" x1="29.935" y1="46.193" x2="43.309" y2="46.193"/>
		<line fill="none" stroke="#FFFFFF" stroke-width="2.0061" x1="29.935" y1="50.541" x2="35.619" y2="50.541"/>
	</g>
</g>
<g id="圖層_5" display="none">
	<g display="inline">
		<g>
			<g>
				<polygon fill="none" stroke="#FFFFFF" stroke-width="1.8488" stroke-miterlimit="10" points="74.998,29.074 74.998,60.998 
					74.998,77.003 63.529,88.474 31.535,88.474 31.535,76.624 31.535,60.998 31.535,29.074 				"/>
				<g>
					<polygon fill="none" stroke="#FFFFFF" stroke-width="1.8488" stroke-linejoin="bevel" points="63.529,77.003 74.998,77.003 
						63.529,88.474 					"/>
				</g>
			</g>
		</g>
		
			<line fill="none" stroke="#FFFFFF" stroke-width="1.8488" stroke-miterlimit="10" x1="35.636" y1="57.481" x2="69.666" y2="57.481"/>
		
			<line fill="none" stroke="#FFFFFF" stroke-width="1.8488" stroke-miterlimit="10" x1="35.636" y1="62.057" x2="69.455" y2="62.057"/>
		
			<line fill="none" stroke="#FFFFFF" stroke-width="1.8488" stroke-miterlimit="10" x1="35.636" y1="66.634" x2="69.455" y2="66.634"/>
		
			<line fill="none" stroke="#FFFFFF" stroke-width="1.8488" stroke-miterlimit="10" x1="35.636" y1="71.211" x2="65.469" y2="71.211"/>
		
			<line fill="none" stroke="#FFFFFF" stroke-width="1.8488" stroke-miterlimit="10" x1="35.636" y1="77.989" x2="50.963" y2="77.989"/>
		<rect x="36.345" y="34.284" fill="none" stroke="#FFFFFF" stroke-width="1.8488" width="14.31" height="18.433"/>
		<line fill="none" stroke="#FFFFFF" stroke-width="1.8488" x1="64.057" y1="37.865" x2="54.3" y2="37.865"/>
		<line fill="none" stroke="#FFFFFF" stroke-width="1.8488" x1="69.555" y1="42.179" x2="54.3" y2="42.179"/>
		<g>
			<g>
				
					<path fill="none" stroke="#FFFFFF" stroke-width="1.8488" stroke-linecap="round" stroke-linejoin="round" stroke-miterlimit="10" d="
					M81.941,29.102v3.271h4.867v-3.271c0-0.218-0.238-0.39-0.535-0.39h-3.797C82.18,28.712,81.941,28.884,81.941,29.102z"/>
				
					<polyline fill="none" stroke="#FFFFFF" stroke-width="1.8488" stroke-linecap="round" stroke-linejoin="round" stroke-miterlimit="10" points="
					86.809,81.704 86.809,32.374 81.941,32.374 81.941,81.704 				"/>
			</g>
			
				<path fill="none" stroke="#FFFFFF" stroke-width="1.8488" stroke-linecap="round" stroke-linejoin="round" stroke-miterlimit="10" d="
				M84.377,81.293c-0.869,0-1.689,0.126-2.434,0.351l2.434,6.313l2.428-6.313C86.061,81.419,85.242,81.293,84.377,81.293z"/>
			<g>
				
					<rect x="81.922" y="32.273" fill="none" stroke="#FFFFFF" stroke-width="1.8488" stroke-linecap="round" stroke-linejoin="round" stroke-miterlimit="10" width="4.934" height="4.191"/>
			</g>
			<path fill="none" stroke="#FFFFFF" stroke-width="1.8488" stroke-miterlimit="10" d="M85.166,85.893
				c-0.246-0.019-0.492-0.037-0.748-0.037c-0.285,0-0.564,0.019-0.838,0.046l0.797,2.055L85.166,85.893z"/>
		</g>
	</g>
</g>
</svg>
