<?xml version="1.0" encoding="utf-8"?>
<!-- Generator: Adobe Illustrator 13.0.1, SVG Export Plug-In . SVG Version: 6.00 Build 14948)  -->
<!DOCTYPE svg PUBLIC "-//W3C//DTD SVG 1.0//EN" "http://www.w3.org/TR/2001/REC-SVG-20010904/DTD/svg10.dtd">
<svg version="1.0" xmlns="http://www.w3.org/2000/svg" xmlns:xlink="http://www.w3.org/1999/xlink" x="0px" y="0px" width="120px"
	 height="120px" viewBox="0 0 120 120" enable-background="new 0 0 120 120" xml:space="preserve">
<g id="圖層_2_3_" display="none">
</g>
<g id="圖層_1" display="none">
	<circle display="inline" stroke="#FFFFFF" cx="59.5" cy="59.5" r="60"/>
	<g id="圖層_2_2_">
		<rect x="-0.5" y="0.5" display="inline" stroke="#FFFFFF" width="121" height="119"/>
		<circle display="inline" fill="none" stroke="#FFFFFF" stroke-width="2" cx="58.5" cy="60.5" r="59"/>
	</g>
</g>
<g id="圖層_3_1_">
	<g>
		<g>
			<path fill="#FFFFFF" d="M85.5,87.429h-52c-1.103,0-2-0.897-2-2v-29h2v29h52v-29h2v29C87.5,86.531,86.603,87.429,85.5,87.429z"/>
		</g>
		<g>
			<polygon fill="#FFFFFF" points="77.914,61.429 65.5,61.429 65.5,59.429 77.086,59.429 81.086,55.429 91.5,55.429 91.5,57.429 
				81.914,57.429 			"/>
		</g>
		<g>
			<polygon fill="#FFFFFF" points="52.5,61.429 41.086,61.429 37.086,57.429 27.5,57.429 27.5,55.429 37.914,55.429 41.914,59.429 
				52.5,59.429 			"/>
		</g>
		<g>
			<rect x="32.5" y="81.429" fill="#FFFFFF" width="54" height="2"/>
		</g>
		<g>
			<path fill="#FFFFFF" d="M59.5,61.429c-0.256,0-0.512-0.098-0.707-0.293l-6-6l1.414-1.414l5.293,5.293l5.293-5.293l1.414,1.414
				l-6,6C60.012,61.331,59.756,61.429,59.5,61.429z"/>
		</g>
		<g>
			<rect x="58.5" y="35.429" fill="#FFFFFF" width="2" height="25"/>
		</g>
		<g>
			<path fill="#FFFFFF" d="M47.5,53.429c-0.256,0-0.512-0.098-0.707-0.293l-6-6l1.414-1.414l5.293,5.293l5.293-5.293l1.414,1.414
				l-6,6C48.012,53.331,47.756,53.429,47.5,53.429z"/>
		</g>
		<g>
			<path fill="#FFFFFF" d="M71.5,53.429c-0.256,0-0.512-0.098-0.707-0.293l-6-6l1.414-1.414l5.293,5.293l5.293-5.293l1.414,1.414
				l-6,6C72.012,53.331,71.756,53.429,71.5,53.429z"/>
		</g>
		<g>
			<path fill="#FFFFFF" d="M48.5,52.429h-2v-11c0-2.206-1.794-4-4-4h-3v-2h3c3.309,0,6,2.691,6,6V52.429z"/>
		</g>
		<g>
			<path fill="#FFFFFF" d="M72.5,52.429h-2v-11c0-3.309,2.691-6,6-6h3v2h-3c-2.206,0-4,1.794-4,4V52.429z"/>
		</g>
		<g>
			<path fill="#FFFFFF" d="M81.5,65.429h-44c-1.103,0-2-0.897-2-2v-2h2v2h44v-2h2v2C83.5,64.531,82.603,65.429,81.5,65.429z"/>
		</g>
		<g>
			<rect x="31.5" y="35.429" fill="#FFFFFF" width="2" height="2"/>
		</g>
		<g>
			<rect x="27.5" y="35.429" fill="#FFFFFF" width="2" height="2"/>
		</g>
		<g>
			<rect x="35.5" y="35.429" fill="#FFFFFF" width="2" height="2"/>
		</g>
		<g>
			<rect x="85.5" y="35.429" fill="#FFFFFF" width="2" height="2"/>
		</g>
		<g>
			<rect x="81.5" y="35.429" fill="#FFFFFF" width="2" height="2"/>
		</g>
		<g>
			<rect x="89.5" y="35.429" fill="#FFFFFF" width="2" height="2"/>
		</g>
		<g>
			<path fill="#FFFFFF" d="M59.5,78.429c-2.206,0-4-1.794-4-4s1.794-4,4-4s4,1.794,4,4S61.706,78.429,59.5,78.429z M59.5,72.429
				c-1.103,0-2,0.897-2,2s0.897,2,2,2s2-0.897,2-2S60.603,72.429,59.5,72.429z"/>
		</g>
		<g>
			<rect x="58.5" y="23.429" fill="#FFFFFF" width="2" height="2"/>
		</g>
		<g>
			<rect x="58.5" y="27.429" fill="#FFFFFF" width="2" height="2"/>
		</g>
		<g>
			<rect x="58.5" y="31.429" fill="#FFFFFF" width="2" height="2"/>
		</g>
	</g>
</g>
</svg>
