<svg id="b443c819-e6ab-4f6f-96d1-65fb61054e18" data-name="圖層 3"
	xmlns="http://www.w3.org/2000/svg" xmlns:xlink="http://www.w3.org/1999/xlink" viewBox="0 0 1190 615">
	<g id="f050261c-e382-4a9d-9851-fb82d7caa704" data-name="g5">
		<line x1="362.78503" y1="425.44287" x2="667.45191" y2="425.44287" style="fill:none;stroke:#000;stroke-miterlimit:8;stroke-dasharray:5,5"/>
		<text transform="translate(833.8055 402.44143)" style="font-size:32.29594421386719px;fill:#fff;font-family:MicrosoftJhengHeiBold, Microsoft JhengHei">與會員互動零距離</text>
		<text transform="translate(833.81624 439.78225)" style="font-size:24.221960067749023px;font-family:MicrosoftJhengHeiRegular, Microsoft JhengHei">行銷活動推播、線上客服服務
			<tspan x="0" y="29.06641">可即時與顧客溝通互動的管道</tspan>
		</text>
		<path d="M753.80636,368.28215a49.05506,49.05506,0,0,0-48.77283,43.83656l-23.36165,13.871,26.177,8.50753a49.05427,49.05427,0,1,0,45.95748-66.21508Z" style="fill:#04bba5;stroke:#9fa0a0;stroke-miterlimit:10;stroke-width:5px"/>
		<path d="M751.619,398.24591a10.59184,10.59184,0,0,1,8.80566,4.01953q3.78224,4.75928,3.78223,15.78711,0,11.00244-3.80859,15.81445a10.57477,10.57477,0,0,1-8.7793,3.9668,11.09454,11.09454,0,0,1-9.124-4.35059q-3.46436-4.34911-3.46387-15.50976,0-10.94824,3.80762-15.76074A10.57535,10.57535,0,0,1,751.619,398.24591Zm0,6.16113a3.7171,3.7171,0,0,0-2.40723.85938,5.76618,5.76618,0,0,0-1.63867,3.08105,62.95348,62.95348,0,0,0-.08008,19.08008,6.59543,6.59543,0,0,0,1.73242,3.39844,3.80423,3.80423,0,0,0,4.79981-.01367,5.76579,5.76579,0,0,0,1.63965-3.08008,62.82009,62.82009,0,0,0,.0791-19.05371,6.693,6.693,0,0,0-1.73242-3.41211A3.66342,3.66342,0,0,0,751.619,404.407Z" style="fill:#fff"/>
	</g>
	<g id="ef8f52e2-fb9a-4f20-946d-7cf36339b459" data-name="g4">
		<line x1="537.21161" y1="267.71476" x2="777.22204" y2="267.71476" style="fill:none;stroke:#000;stroke-miterlimit:8;stroke-dasharray:5,5"/>
		<text transform="translate(866.43148 233.71926)" style="font-size:32.29594421386719px;fill:#fff;font-family:MicrosoftJhengHeiBold, Microsoft JhengHei">統一的會員中心</text>
		<text transform="translate(866.43148 271.06008)" style="font-size:24.221960067749023px;font-family:MicrosoftJhengHeiRegular, Microsoft JhengHei">門店與官網資訊同步
			<tspan x="0" y="29.06592">積分和紀錄即時查詢</tspan>
		</text>
		<path d="M797.08674,209.16526a49.05508,49.05508,0,0,0-48.77284,43.83656l-23.36165,13.871,26.177,8.50754a49.05427,49.05427,0,1,0,45.95748-66.21509Z" style="fill:#04bba5;stroke:#9fa0a0;stroke-miterlimit:10;stroke-width:5px"/>
		<path d="M802.50472,275.17657h-7.43066V247.17071a25.61879,25.61879,0,0,1-9.59961,5.63282v-6.74317a21.48928,21.48928,0,0,0,6.32031-3.60986,13.7192,13.7192,0,0,0,4.68066-6.20117h6.0293Z" style="fill:#fff"/>
	</g>
	<g id="abd50db9-6aee-4d64-a3c3-fc50257219b9" data-name="g3">
		<line x1="584.37897" y1="88.02803" x2="732.50575" y2="88.02803" style="fill:none;stroke:#000;stroke-miterlimit:8;stroke-dasharray:5,5"/>
		<text transform="translate(861.14535 71.53128)" style="font-size:32.29594421386719px;fill:#fff;font-family:MicrosoftJhengHeiBold, Microsoft JhengHei">手機30秒輕鬆加入會員</text>
		<text transform="translate(868.45882 108.86135)" style="font-size:24.221960067749023px;font-family:MicrosoftJhengHeiRegular, Microsoft JhengHei">增加顧客加入意願
			<tspan x="0" y="29.06641">同時降低店員負擔</tspan>
		</text>
		<path d="M776.90151,29.436a49.05507,49.05507,0,0,0-48.77283,43.83656L704.767,87.14353l26.177,8.50754A49.05427,49.05427,0,1,0,776.90151,29.436Z" style="fill:#04bba5;stroke:#9fa0a0;stroke-miterlimit:10;stroke-width:5px"/>
		<path d="M748.22738,86.69513l7.19336-.87256a6.80445,6.80445,0,0,0,1.85058,4.20459,5.23559,5.23559,0,0,0,7.52442-.291,6.77147,6.77147,0,0,0,1.57324-4.707,6.31133,6.31133,0,0,0-1.50781-4.44287,4.80682,4.80682,0,0,0-3.67578-1.63965,12.96789,12.96789,0,0,0-3.41114.55567l.81934-6.05616a6.51073,6.51073,0,0,0,4.60156-1.30908,4.65991,4.65991,0,0,0,1.58692-3.689,4.00578,4.00578,0,0,0-4.25782-4.28418,4.47908,4.47908,0,0,0-3.25293,1.32226,6.21869,6.21869,0,0,0-1.63965,3.86133L748.783,68.1839a15.29827,15.29827,0,0,1,2.15528-5.61963,9.7279,9.7279,0,0,1,4.01953-3.30567,13.49806,13.49806,0,0,1,5.77832-1.20312,11.525,11.525,0,0,1,8.77929,3.49072,9.11367,9.11367,0,0,1,2.72364,6.45264q0,5.10351-5.5791,8.145a9.02575,9.02575,0,0,1,5.32812,3.19971,9.28526,9.28526,0,0,1,1.99707,6.00293,11.64161,11.64161,0,0,1-3.72949,8.70019,13.92417,13.92417,0,0,1-18.00879.56885A11.89851,11.89851,0,0,1,748.22738,86.69513Z" style="fill:#fff"/>
		<path d="M791.17464,58.05548a10.59186,10.59186,0,0,1,8.80567,4.01953q3.78222,4.76,3.78222,15.7876,0,11.00171-3.80859,15.814a10.57476,10.57476,0,0,1-8.7793,3.9668,11.09413,11.09413,0,0,1-9.124-4.3501q-3.46436-4.34985-3.46387-15.51025,0-10.94824,3.80762-15.76074A10.57539,10.57539,0,0,1,791.17464,58.05548Zm0,6.16162a3.71441,3.71441,0,0,0-2.40722.85938,5.76437,5.76437,0,0,0-1.63867,3.08056,42.46247,42.46247,0,0,0-.76758,9.70557,42.20376,42.20376,0,0,0,.6875,9.37451,6.59528,6.59528,0,0,0,1.73242,3.39844,3.80334,3.80334,0,0,0,4.7998-.01319,5.76913,5.76913,0,0,0,1.63965-3.08105,42.15172,42.15172,0,0,0,.7666-9.67871,42.21207,42.21207,0,0,0-.6875-9.375,6.689,6.689,0,0,0-1.73242-3.41113A3.66081,3.66081,0,0,0,791.17464,64.2171Z" style="fill:#fff"/>
	</g>
	<g id="a0e0cde0-f3f9-4cdd-a96e-19bd3df046ce" data-name="g2">
		<image width="448" height="969" transform="translate(425.57222 14.7774) scale(0.49613 0.51973)" xlink:href="images/case1/svg/section5/section5-1.png"/>
		<image width="814" height="1240" transform="translate(360.26167 -15.5) scale(0.43352 0.45335)" xlink:href="images/case1/svg/section5/section5-2.png"/>
	</g>
	<g id="e16c88ce-eb99-42c8-b050-b8c2996fd891" data-name="g1">
		<image width="375" height="410" transform="translate(0 434) scale(1.0534 0.85045)" xlink:href="images/case1/svg/section5/section5-3.png"/>
		<image width="372" height="407" transform="translate(2.10679 67.25838) scale(1.0534 1.00925)" xlink:href="images/case1/svg/section5/section5-4.png"/>
	</g>
</svg>