<?xml version="1.0" encoding="utf-8"?>
<!-- Generator: Adobe Illustrator 13.0.1, SVG Export Plug-In . SVG Version: 6.00 Build 14948)  -->
<!DOCTYPE svg PUBLIC "-//W3C//DTD SVG 1.0//EN" "http://www.w3.org/TR/2001/REC-SVG-20010904/DTD/svg10.dtd">
<svg version="1.0" xmlns="http://www.w3.org/2000/svg" xmlns:xlink="http://www.w3.org/1999/xlink" x="0px" y="0px" width="120px"
	 height="120px" viewBox="0 0 120 120" enable-background="new 0 0 120 120" xml:space="preserve">
<g id="圖層_2_2_" display="none">
	<rect x="-0.5" y="0.5" display="inline" stroke="#FFFFFF" width="121" height="119"/>
	<circle display="inline" fill="none" stroke="#FFFFFF" stroke-width="2" cx="58.5" cy="60.5" r="59"/>
</g>
<g id="圖層_1" display="none">
	<g id="圖層_2_1_">
		<circle display="inline" fill="#231F20" cx="59.5" cy="59.5" r="60"/>
	</g>
	<g id="圖層_1_2_">
		<g id="圖層_2" display="inline">
			<circle stroke="#FFFFFF" cx="60.416" cy="60.416" r="61.059"/>
		</g>
		<g id="圖層_1_1_" display="inline">
			<g>
				<g>
					<rect x="52.817" y="81.457" fill="#FFFFFF" width="19" height="2"/>
				</g>
				<g>
					<rect x="50.817" y="77.457" fill="#FFFFFF" width="23" height="2"/>
				</g>
				<g>
					<path fill="#FFFFFF" d="M40.817,83.457c-5.514,0-10-4.486-10-10s4.486-10,10-10h43c0.555,0,1,0.447,1,1c0,2.757-2.241,5-5,5
						h-39c-2.206,0-4,1.795-4,4s1.794,4,4,4h2v2h-2c-3.309,0-6-2.691-6-6s2.691-6,6-6h39c1.306,0,2.416-0.836,2.83-2h-41.83
						c-4.411,0-8,3.589-8,8s3.589,8,8,8V83.457z"/>
				</g>
				<g>
					<g>
						<path fill="#FFFFFF" d="M77.816,89.457c-3.858,0-7-3.141-7-7s3.142-7,7-7s7,3.141,7,7S81.677,89.457,77.816,89.457z
							 M77.816,77.457c-2.756,0-5,2.243-5,5s2.244,5,5,5c2.758,0,5-2.243,5-5S80.574,77.457,77.816,77.457z"/>
					</g>
				</g>
				<g>
					<g>
						<path fill="#FFFFFF" d="M46.817,89.457c-3.859,0-7-3.141-7-7s3.141-7,7-7s7,3.141,7,7S50.677,89.457,46.817,89.457z
							 M46.817,77.457c-2.757,0-5,2.243-5,5s2.243,5,5,5c2.757,0,5-2.243,5-5S49.574,77.457,46.817,77.457z"/>
					</g>
				</g>
				<g>
					<path fill="#FFFFFF" d="M83.816,65.457h-43c-0.553,0-1-0.447-1-1v-22h2v21h41.3l7.271-20h-46.57v-2h48
						c0.326,0,0.634,0.159,0.82,0.426c0.188,0.268,0.231,0.609,0.119,0.916l-8,22C84.613,65.193,84.238,65.457,83.816,65.457z"/>
				</g>
				<g>
					<path fill="#FFFFFF" d="M37.817,65.457h-2v-32c0-1.103-0.897-2-2-2v-2c2.206,0,4,1.794,4,4V65.457z"/>
				</g>
				<g>
					<path fill="#FFFFFF" d="M41.817,42.457h-2v-9c0-1.103-0.897-2-2-2v-2c2.206,0,4,1.794,4,4V42.457z"/>
				</g>
				<g>
					<rect x="28.817" y="29.457" fill="#FFFFFF" width="9" height="2"/>
				</g>
				<g>
					<rect x="28.817" y="87.457" fill="#FFFFFF" width="64" height="2"/>
				</g>
				<g>
					<path fill="#FFFFFF" d="M80.816,51.457c-1.487,0-2.203-0.76-2.729-1.314c-0.431-0.456-0.646-0.686-1.271-0.686
						s-0.842,0.229-1.271,0.686c-0.523,0.555-1.238,1.314-2.729,1.314c-1.485,0-2.203-0.76-2.728-1.313
						c-0.433-0.457-0.647-0.687-1.272-0.687c-0.623,0-0.84,0.229-1.272,0.688c-0.522,0.554-1.239,1.313-2.728,1.313
						c-1.484,0-2.203-0.759-2.728-1.313c-0.433-0.458-0.647-0.688-1.272-0.688c-0.625,0-0.84,0.229-1.272,0.688
						c-0.523,0.554-1.24,1.313-2.727,1.313c-1.487,0-2.203-0.759-2.727-1.313c-0.432-0.458-0.648-0.688-1.273-0.688
						c-0.624,0-0.841,0.229-1.273,0.688c-0.523,0.554-1.24,1.313-2.727,1.313c-1.485,0-2.203-0.759-2.727-1.313
						c-0.433-0.458-0.649-0.688-1.273-0.688v-2c1.485,0,2.203,0.759,2.727,1.313c0.433,0.458,0.649,0.688,1.273,0.688
						s0.841-0.229,1.273-0.688c0.523-0.554,1.24-1.313,2.727-1.313c1.487,0,2.204,0.76,2.728,1.313
						c0.432,0.457,0.648,0.687,1.272,0.687s0.841-0.229,1.273-0.688c0.523-0.554,1.24-1.313,2.727-1.313
						c1.485,0,2.203,0.759,2.729,1.313c0.434,0.458,0.648,0.688,1.271,0.688c0.625,0,0.843-0.229,1.273-0.688
						c0.523-0.554,1.24-1.313,2.727-1.313c1.488,0,2.205,0.76,2.729,1.313c0.434,0.457,0.646,0.687,1.271,0.687
						s0.844-0.229,1.272-0.686c0.522-0.555,1.239-1.314,2.728-1.314c1.49,0,2.205,0.76,2.729,1.314
						c0.433,0.456,0.646,0.686,1.271,0.686s0.843-0.229,1.273-0.688c0.523-0.554,1.24-1.313,2.727-1.313v2
						c-0.623,0-0.84,0.229-1.271,0.688C83.021,50.698,82.305,51.457,80.816,51.457z"/>
				</g>
				<g>
					<path fill="#FFFFFF" d="M80.816,59.457c-1.487,0-2.203-0.76-2.729-1.314c-0.431-0.456-0.646-0.686-1.271-0.686
						s-0.842,0.229-1.271,0.686c-0.523,0.555-1.238,1.314-2.729,1.314c-1.485,0-2.203-0.76-2.728-1.313
						c-0.433-0.457-0.647-0.687-1.272-0.687c-0.623,0-0.84,0.229-1.272,0.688c-0.522,0.554-1.239,1.313-2.728,1.313
						c-1.484,0-2.203-0.759-2.728-1.313c-0.433-0.458-0.647-0.688-1.272-0.688c-0.625,0-0.84,0.229-1.272,0.688
						c-0.523,0.554-1.24,1.313-2.727,1.313c-1.487,0-2.203-0.759-2.727-1.313c-0.432-0.458-0.648-0.688-1.273-0.688
						c-0.624,0-0.841,0.229-1.273,0.688c-0.523,0.554-1.24,1.313-2.727,1.313c-1.485,0-2.203-0.759-2.727-1.313
						c-0.433-0.458-0.649-0.688-1.273-0.688v-2c1.485,0,2.203,0.759,2.727,1.313c0.433,0.458,0.649,0.688,1.273,0.688
						s0.841-0.229,1.273-0.688c0.523-0.554,1.24-1.313,2.727-1.313c1.487,0,2.204,0.76,2.728,1.313
						c0.432,0.457,0.648,0.687,1.272,0.687s0.841-0.229,1.273-0.688c0.523-0.554,1.24-1.313,2.727-1.313
						c1.485,0,2.203,0.759,2.729,1.313c0.434,0.458,0.648,0.688,1.271,0.688c0.625,0,0.843-0.229,1.273-0.688
						c0.523-0.554,1.24-1.313,2.727-1.313c1.488,0,2.205,0.76,2.729,1.313c0.434,0.457,0.646,0.687,1.271,0.687
						s0.844-0.229,1.272-0.686c0.522-0.555,1.239-1.314,2.728-1.314c1.49,0,2.205,0.76,2.729,1.314
						c0.433,0.456,0.646,0.686,1.271,0.686V59.457L80.816,59.457z"/>
				</g>
			</g>
			<g>
				<circle fill="#FFFFFF" cx="43.765" cy="86.668" r="2"/>
			</g>
			<g>
				<circle fill="#FFFFFF" cx="74.766" cy="86.668" r="2"/>
			</g>
			<g>
				<path fill="#FFFFFF" d="M72.766,43.668h-2v-4h-24v4h-2v-5c0-0.552,0.447-1,1-1h26c0.553,0,1,0.448,1,1V43.668z"/>
			</g>
			<g>
				<path fill="#FFFFFF" d="M79.766,43.668h-2v-12h-16v4h-2v-5c0-0.552,0.447-1,1-1h18c0.553,0,1,0.448,1,1V43.668z"/>
			</g>
			<g>
				<path fill="#FFFFFF" d="M71.766,35.668h-4c-0.554,0-1-0.448-1-1v-4c0-0.552,0.446-1,1-1h4c0.553,0,1,0.448,1,1v4
					C72.766,35.22,72.316,35.668,71.766,35.668z M68.766,33.668h2v-2h-2V33.668z"/>
			</g>
		</g>
		<g id="圖層_3" display="inline">
			<g>
				<path fill="#FFFFFF" d="M87.85,48.772c-7.179,0.002-12.998,5.819-13,13.001c0.002,7.178,5.819,12.998,13,13
					c7.18-0.002,13-5.822,13.002-13C100.85,54.592,95.027,48.774,87.85,48.772z M87.85,72.771c-6.074-0.01-10.988-4.924-11-10.998
					c0.012-6.079,4.926-10.989,11-11.002c6.075,0.013,10.988,4.926,11,11.002C98.838,67.848,93.922,72.762,87.85,72.771z
					 M94.741,44.469l-0.003-8.824c0-3.829-3.102-6.933-6.932-6.933H27.001c-3.828,0-6.932,3.104-6.932,6.933v42.02
					c0,3.825,3.104,6.931,6.932,6.931h21.49c0.006,0.61,0.016,1.25,0.016,1.881c0.002,0.992-0.037,1.946-0.146,2.487
					c-0.134,0.707-0.257,0.959-0.277,0.97c0.002,0.012-0.071,0.078-0.509,0.313c-0.281,0.157-0.781,0.392-1.273,0.608h-1.997v1.998
					h2.324l0.016,0.037c0.027-0.014,0.057-0.022,0.085-0.037h21.25c0.035,0.017,0.068,0.031,0.104,0.047l0.021-0.047h2.4v-1.998
					H68.4c-0.489-0.219-0.987-0.453-1.276-0.61c-0.425-0.229-0.456-0.279-0.456-0.281c-0.018-0.008-0.141-0.282-0.273-1
					c-0.108-0.543-0.148-1.489-0.146-2.476c-0.002-0.633,0.009-1.276,0.017-1.893H82.85v11.428h10V79.709
					c7.86-2.188,13.637-9.379,13.637-17.938C106.486,53.916,101.618,47.21,94.741,44.469z M22.069,35.645
					c0.004-2.724,2.209-4.929,4.932-4.933h60.806c2.728,0.004,4.928,2.209,4.937,4.933v8.163c-0.699-0.189-1.413-0.337-2.146-0.445
					l-7.92-5.471l-0.025,0.039c-0.133-2.09-1.853-3.746-3.975-3.748c-2.21,0.002-3.998,1.79-4,4c0,0.434,0.088,0.844,0.215,1.235
					l-12.098,7.009c-0.615-0.386-1.338-0.619-2.117-0.619c-2.21,0.002-4,1.791-4,4.001c0,0.682,0.188,1.314,0.488,1.877
					l-0.079-0.078l-5.242,5.363c-0.708-0.639-1.637-1.037-2.666-1.039c-1.098,0.002-2.09,0.445-2.813,1.16l-5.324-5.219
					c0.241-0.516,0.387-1.084,0.387-1.689c-0.002-2.211-1.791-4-4-4.002c-2.211,0.002-4,1.791-4,4.002
					c0,0.945,0.342,1.801,0.89,2.486L26.25,63.588l1.607,1.189L35.91,53.88c0.468,0.192,0.979,0.303,1.518,0.304
					c0.874,0,1.677-0.289,2.335-0.765l5.571,5.464c-0.092,0.337-0.156,0.684-0.157,1.05c0,2.209,1.792,3.999,4.001,4
					c2.209-0.002,3.998-1.791,3.998-4c0-0.498-0.102-0.97-0.268-1.409l0.109,0.107l5.401-5.524c0.644,0.44,1.42,0.701,2.258,0.702
					c2.209-0.002,4-1.791,4.002-4h-0.002c0-0.683-0.188-1.315-0.488-1.878l11.775-6.824c0.715,0.662,1.663,1.076,2.713,1.076
					c1.551,0,2.879-0.889,3.543-2.178l4.61,3.185c-9.815,0.532-17.615,8.635-17.615,18.582c0,3.748,1.106,7.234,3.015,10.152h-50.16
					V35.645z M80.678,38.183c-0.003,1.105-0.896,1.998-2,2c-1.104-0.002-1.998-0.895-2-2c0.002-1.104,0.897-1.998,2-2
					C79.779,36.185,80.675,37.079,80.678,38.183z M62.678,49.809c-0.002,1.104-0.896,1.997-2,1.999
					c-1.104-0.002-1.998-0.896-2-1.999c0.002-1.104,0.896-1.998,2-2C61.779,47.811,62.676,48.704,62.678,49.809z M51.177,59.933
					c-0.002,1.104-0.896,1.997-1.999,1.999c-1.104-0.002-1.999-0.895-2.001-1.999c0.002-1.103,0.896-1.997,2.001-2.001
					C50.28,57.936,51.175,58.83,51.177,59.933z M39.427,50.184c-0.002,1.104-0.896,1.997-1.999,1.999
					c-1.105-0.002-1.999-0.896-2.001-1.999c0.002-1.104,0.897-1.999,2.001-2.001C38.531,48.185,39.425,49.078,39.427,50.184z
					 M49.851,90.854c0.229-0.416,0.342-0.871,0.472-1.504c0.158-0.824,0.183-1.832,0.185-2.875c0-0.643-0.012-1.289-0.018-1.881
					h13.771c-0.008,0.6-0.018,1.238-0.018,1.893c0.002,1.035,0.023,2.037,0.188,2.867c0.133,0.637,0.233,1.082,0.455,1.5H49.851z
					 M82.85,82.594H27.001c-2.723-0.004-4.928-2.209-4.932-4.93v-3.74H73.75c2.368,2.738,5.512,4.787,9.1,5.785V82.594z
					 M90.852,94.023H84.85V80.145c0.979,0.158,1.979,0.267,3,0.267c1.024,0,2.021-0.104,3.002-0.267V94.023z M87.85,78.408
					c-9.188-0.018-16.617-7.447-16.634-16.637c0.017-9.188,7.445-16.621,16.634-16.635c9.188,0.017,16.621,7.449,16.637,16.635
					C104.471,70.961,97.037,78.391,87.85,78.408z"/>
			</g>
		</g>
	</g>
	<g id="圖層_4">
		<g display="inline">
			<path fill="none" stroke="#FFFFFF" stroke-width="2" d="M30.746,60.583v16.606v0.994V82.5c0,1.102,0.888,1.988,1.985,1.988h4.32
				h0.547h43.05h0.549h4.316c1.098,0,1.985-0.889,1.985-1.988v-4.314v-0.996V60.583"/>
			<line fill="none" stroke="#FFFFFF" stroke-width="2" x1="72.859" y1="46.852" x2="45.418" y2="46.852"/>
			<path fill="none" stroke="#FFFFFF" stroke-width="2" d="M38.355,46.852h-9.503c-1.097,0-1.986,0.889-1.986,1.987v6.047
				c0,1.1,0.889,1.988,1.986,1.988h60.539c1.1,0,1.985-0.888,1.985-1.988v-6.047c0-1.099-0.888-1.987-1.985-1.987h-8.973"/>
			<g>
				<path fill="none" stroke="#FFFFFF" stroke-width="2" d="M39.883,52.277c-0.555,0-1.113-0.176-1.595-0.53
					c-1.186-0.882-1.421-2.554-0.542-3.739l15.092-20.217c0.882-1.182,2.559-1.423,3.741-0.544c1.181,0.88,1.422,2.556,0.544,3.738
					L42.026,51.2C41.504,51.904,40.698,52.277,39.883,52.277L39.883,52.277z"/>
			</g>
			<g>
				<path fill="none" stroke="#FFFFFF" stroke-width="2" d="M78.355,52.277c0.56,0,1.115-0.176,1.594-0.53
					c1.188-0.882,1.426-2.554,0.542-3.739L65.402,27.791c-0.881-1.182-2.56-1.423-3.737-0.544c-1.182,0.88-1.425,2.556-0.548,3.738
					L76.216,51.2C76.738,51.904,77.543,52.277,78.355,52.277L78.355,52.277z"/>
			</g>
			<line fill="none" stroke="#FFFFFF" stroke-width="2" x1="36.734" y1="79.859" x2="36.734" y2="60.801"/>
			<line fill="none" stroke="#FFFFFF" stroke-width="2" x1="43.088" y1="79.859" x2="43.088" y2="60.801"/>
			<line fill="none" stroke="#FFFFFF" stroke-width="2" x1="49.44" y1="79.859" x2="49.44" y2="60.801"/>
			<line fill="none" stroke="#FFFFFF" stroke-width="2" x1="55.794" y1="79.859" x2="55.794" y2="60.801"/>
			<line fill="none" stroke="#FFFFFF" stroke-width="2" x1="62.146" y1="79.859" x2="62.146" y2="60.801"/>
			<line fill="none" stroke="#FFFFFF" stroke-width="2" x1="68.499" y1="79.859" x2="68.499" y2="60.801"/>
			<line fill="none" stroke="#FFFFFF" stroke-width="2" x1="74.854" y1="79.859" x2="74.854" y2="60.801"/>
			<line fill="none" stroke="#FFFFFF" stroke-width="2" x1="81.206" y1="79.859" x2="81.206" y2="60.801"/>
		</g>
	</g>
	<g id="圖層_5">
		<g display="inline">
			<g>
				<g>
					<rect x="30.5" y="56.275" fill="#FFFFFF" width="2" height="7"/>
				</g>
				<g>
					<polygon fill="#FFFFFF" points="86.5,85.275 44.5,85.275 44.5,83.275 84.5,83.275 84.5,56.275 86.5,56.275 					"/>
				</g>
				<g>
					<path fill="#FFFFFF" d="M31.5,57.275c-2.205,0-4-1.795-4-4v-12h6v2h-4v10c0,1.104,0.896,2,2,2s2-0.896,2-2v-5h2v5
						C35.5,55.48,33.705,57.275,31.5,57.275z"/>
				</g>
				<g>
					<path fill="#FFFFFF" d="M37.5,57.275c-2.205,0-4-1.795-4-4h2c0,1.104,0.896,2,2,2s2-0.896,2-2v-5h2v5
						C41.5,55.48,39.705,57.275,37.5,57.275z"/>
				</g>
				<g>
					<path fill="#FFFFFF" d="M43.5,57.275c-2.205,0-4-1.795-4-4h2c0,1.104,0.896,2,2,2s2-0.896,2-2v-5h2v5
						C47.5,55.48,45.705,57.275,43.5,57.275z"/>
				</g>
				<g>
					<path fill="#FFFFFF" d="M43.5,57.275c-2.205,0-4-1.795-4-4h2c0,1.104,0.896,2,2,2s2-0.896,2-2v-5h2v5
						C47.5,55.48,45.705,57.275,43.5,57.275z"/>
				</g>
				<g>
					<path fill="#FFFFFF" d="M49.5,57.275c-2.205,0-4-1.795-4-4h2c0,1.104,0.896,2,2,2s2-0.896,2-2v-5h2v5
						C53.5,55.48,51.705,57.275,49.5,57.275z"/>
				</g>
				<g>
					<path fill="#FFFFFF" d="M49.5,57.275c-2.205,0-4-1.795-4-4h2c0,1.104,0.896,2,2,2s2-0.896,2-2v-5h2v5
						C53.5,55.48,51.705,57.275,49.5,57.275z"/>
				</g>
				<g>
					<path fill="#FFFFFF" d="M55.5,57.275c-2.205,0-4-1.795-4-4h2c0,1.104,0.896,2,2,2s2-0.896,2-2v-5h2v5
						C59.5,55.48,57.705,57.275,55.5,57.275z"/>
				</g>
				<g>
					<path fill="#FFFFFF" d="M55.5,57.275c-2.205,0-4-1.795-4-4h2c0,1.104,0.896,2,2,2s2-0.896,2-2v-5h2v5
						C59.5,55.48,57.705,57.275,55.5,57.275z"/>
				</g>
				<g>
					<path fill="#FFFFFF" d="M61.5,57.275c-2.205,0-4-1.795-4-4h2c0,1.104,0.896,2,2,2c1.104,0,2-0.896,2-2v-5h2v5
						C65.5,55.48,63.705,57.275,61.5,57.275z"/>
				</g>
				<g>
					<path fill="#FFFFFF" d="M61.5,57.275c-2.205,0-4-1.795-4-4h2c0,1.104,0.896,2,2,2c1.104,0,2-0.896,2-2v-5h2v5
						C65.5,55.48,63.705,57.275,61.5,57.275z"/>
				</g>
				<g>
					<path fill="#FFFFFF" d="M67.5,57.275c-2.205,0-4-1.795-4-4h2c0,1.104,0.896,2,2,2s2-0.896,2-2v-5h2v5
						C71.5,55.48,69.705,57.275,67.5,57.275z"/>
				</g>
				<g>
					<path fill="#FFFFFF" d="M67.5,57.275c-2.205,0-4-1.795-4-4h2c0,1.104,0.896,2,2,2s2-0.896,2-2v-5h2v5
						C71.5,55.48,69.705,57.275,67.5,57.275z"/>
				</g>
				<g>
					<path fill="#FFFFFF" d="M73.5,57.275c-2.205,0-4-1.795-4-4h2c0,1.104,0.896,2,2,2s2-0.896,2-2v-5h2v5
						C77.5,55.48,75.705,57.275,73.5,57.275z"/>
				</g>
				<g>
					<path fill="#FFFFFF" d="M73.5,57.275c-2.205,0-4-1.795-4-4h2c0,1.104,0.896,2,2,2s2-0.896,2-2v-5h2v5
						C77.5,55.48,75.705,57.275,73.5,57.275z"/>
				</g>
				<g>
					<path fill="#FFFFFF" d="M79.5,57.275c-2.205,0-4-1.795-4-4h2c0,1.104,0.896,2,2,2s2-0.896,2-2v-5h2v5
						C83.5,55.48,81.705,57.275,79.5,57.275z"/>
				</g>
				<g>
					<path fill="#FFFFFF" d="M79.5,57.275c-2.205,0-4-1.795-4-4h2c0,1.104,0.896,2,2,2s2-0.896,2-2v-5h2v5
						C83.5,55.48,81.705,57.275,79.5,57.275z"/>
				</g>
				<g>
					<polygon fill="#FFFFFF" points="80.5,84.275 78.5,84.275 78.5,65.275 68.5,65.275 68.5,84.275 66.5,84.275 66.5,63.275 
						80.5,63.275 					"/>
				</g>
				<g>
					<rect x="48.5" y="64.275" fill="#FFFFFF" width="2" height="14"/>
				</g>
				<g>
					<rect x="67.5" y="73.275" fill="#FFFFFF" width="3" height="2"/>
				</g>
				<g>
					<polygon fill="#FFFFFF" points="60.5,79.275 46.5,79.275 46.5,77.275 58.5,77.275 58.5,65.275 40.5,65.275 40.5,63.275 
						60.5,63.275 					"/>
				</g>
				<g>
					<g>
						<path fill="#FFFFFF" d="M63.5,42.275c-2.205,0-4-1.795-4-4v-5c0-2.205,1.795-4,4-4s4,1.795,4,4v5
							C67.5,40.48,65.705,42.275,63.5,42.275z M63.5,31.275c-1.104,0-2,0.896-2,2v5c0,1.104,0.896,2,2,2s2-0.896,2-2v-5
							C65.5,32.172,64.604,31.275,63.5,31.275z"/>
					</g>
					<g>
						<path fill="#FFFFFF" d="M43.5,42.275c-2.205,0-4-1.795-4-4h2c0,1.104,0.896,2,2,2c1.224,0,2-0.703,2-1v-1
							c-0.072-0.205-0.791-0.775-1.449-1.106l-1.998-0.999c-0.599-0.299-2.553-1.393-2.553-2.895v-1c0-1.626,1.832-3,4-3
							c2.205,0,4,1.795,4,4h-2c0-1.104-0.896-2-2-2c-1.224,0-2,0.703-2,1v1c0.072,0.205,0.791,0.775,1.449,1.106l1.998,0.999
							c0.599,0.299,2.553,1.393,2.553,2.895v1C47.5,40.901,45.668,42.275,43.5,42.275z"/>
					</g>
					<g>
						<rect x="49.5" y="29.275" fill="#FFFFFF" width="2" height="13"/>
					</g>
					<g>
						<rect x="55.5" y="29.275" fill="#FFFFFF" width="2" height="13"/>
					</g>
					<g>
						<rect x="50.5" y="35.275" fill="#FFFFFF" width="6" height="2"/>
					</g>
					<g>
						<path fill="#FFFFFF" d="M71.5,42.275h-2v-13h5c1.654,0,3,1.346,3,3v2c0,1.654-1.346,3-3,3h-3V42.275z M71.5,35.275h3
							c0.551,0,1-0.449,1-1v-2c0-0.551-0.449-1-1-1h-3V35.275z"/>
					</g>
				</g>
				<g>
					<path fill="#FFFFFF" d="M78.5,46.275h-40c-1.654,0-3-1.346-3-3v-15c0-1.654,1.346-3,3-3h40c1.654,0,3,1.346,3,3v15
						C81.5,44.93,80.154,46.275,78.5,46.275z M38.5,27.275c-0.551,0-1,0.449-1,1v15c0,0.551,0.449,1,1,1h40c0.551,0,1-0.449,1-1v-15
						c0-0.551-0.449-1-1-1H38.5z"/>
				</g>
				<g>
					<path fill="#FFFFFF" d="M85.5,57.275c-2.205,0-4-1.795-4-4h2c0,1.104,0.896,2,2,2s2-0.896,2-2v-10h-4v-2h6v12
						C89.5,55.48,87.705,57.275,85.5,57.275z"/>
				</g>
				<g>
					<g>
						<rect x="34.5" y="76.275" fill="#FFFFFF" width="2" height="12"/>
					</g>
					<g>
						<path fill="#FFFFFF" d="M35.5,85.275c-5.72,0-9-2.551-9-7c0-4.646,7.39-13.633,8.232-14.641c0.38-0.455,1.155-0.455,1.535,0
							c0.843,1.008,8.232,9.993,8.232,14.641C44.5,82.725,41.22,85.275,35.5,85.275z M35.5,65.861c-2.488,3.135-7,9.433-7,12.414
							c0,3.318,2.355,5,7,5s7-1.682,7-5C42.5,75.291,37.988,68.994,35.5,65.861z"/>
					</g>
				</g>
				<g>
					<rect x="26.5" y="87.275" fill="#FFFFFF" width="64" height="2"/>
				</g>
			</g>
		</g>
	</g>
	<g id="圖層_6">
		<g display="inline">
			<g>
				<polyline fill="none" stroke="#FFFFFF" stroke-width="2" stroke-linecap="round" stroke-linejoin="round" points="
					61.939,79.295 26.377,79.295 26.377,39.023 92.877,39.023 92.877,79.295 88.948,79.295 				"/>
				
					<rect x="26.377" y="31.259" fill="none" stroke="#FFFFFF" stroke-width="2" stroke-linecap="round" stroke-linejoin="round" width="66.5" height="7.764"/>
				
					<line fill="none" stroke="#FFFFFF" stroke-width="2" stroke-linecap="round" stroke-linejoin="round" x1="29.415" y1="35.085" x2="31.939" y2="35.085"/>
				
					<line fill="none" stroke="#FFFFFF" stroke-width="2" stroke-linecap="round" stroke-linejoin="round" x1="33.785" y1="35.085" x2="36.309" y2="35.085"/>
				
					<line fill="none" stroke="#FFFFFF" stroke-width="2" stroke-linecap="round" stroke-linejoin="round" x1="38.153" y1="35.085" x2="40.679" y2="35.085"/>
				<g>
					<g>
						<g>
							<path fill="none" stroke="#FFFFFF" stroke-width="2" stroke-linecap="round" stroke-linejoin="round" d="M48.655,46.95
								c-0.008-1.396-1.115-2.269-2.475-1.949c-1.334,0.313-2.41,1.659-2.438,3.03H43.74l0.016,2.598l2.531-0.593v-0.004
								C47.61,49.683,48.666,48.321,48.655,46.95z"/>
							<path fill="none" stroke="#FFFFFF" stroke-width="2" stroke-linecap="round" stroke-linejoin="round" d="M38.873,46.95
								c0.011-1.396,1.12-2.269,2.478-1.949c1.333,0.313,2.411,1.659,2.437,3.03h0.005l-0.018,2.598l-2.529-0.593v-0.004
								C39.92,49.683,38.865,48.321,38.873,46.95z"/>
						</g>
						
							<rect x="32.218" y="50.731" fill="none" stroke="#FFFFFF" stroke-width="2" stroke-linecap="round" stroke-linejoin="round" width="23.094" height="4.545"/>
						
							<rect x="34.15" y="55.276" fill="none" stroke="#FFFFFF" stroke-width="2" stroke-linecap="round" stroke-linejoin="round" width="19.23" height="14.332"/>
					</g>
					<g>
						
							<line fill="none" stroke="#FFFFFF" stroke-width="2" stroke-linecap="round" stroke-linejoin="round" x1="61.631" y1="53.806" x2="86.014" y2="53.806"/>
						
							<line fill="none" stroke="#FFFFFF" stroke-width="2" stroke-linecap="round" stroke-linejoin="round" x1="61.631" y1="58.696" x2="82.779" y2="58.696"/>
					</g>
					
						<rect x="63.366" y="64.5" fill="none" stroke="#FFFFFF" stroke-width="2" stroke-linecap="round" stroke-linejoin="round" width="11.927" height="4.275"/>
					
						<line fill="none" stroke="#FFFFFF" stroke-width="2" stroke-linecap="round" stroke-linejoin="round" x1="61.631" y1="47.847" x2="87.398" y2="47.847"/>
				</g>
				<polygon fill="none" stroke="#FFFFFF" stroke-width="2" stroke-linecap="round" stroke-linejoin="round" points="83.102,81.141 
					73.532,77.893 63.961,74.646 67.208,84.219 70.453,93.787 72.764,87.752 79.229,94.221 83.533,89.916 77.064,83.447 				"/>
			</g>
			
				<line fill="none" stroke="#FFFFFF" stroke-width="2" stroke-linecap="round" stroke-linejoin="round" x1="43.755" y1="50.629" x2="43.755" y2="69.539"/>
		</g>
	</g>
	<g id="圖層_7">
		
			<path display="inline" fill="none" stroke="#FFFFFF" stroke-width="2" stroke-linecap="round" stroke-linejoin="round" stroke-miterlimit="22.9256" d="
			M38.588,44.223h3.25h3.25c0.582,0,1.164,0,1.742,0c0.857,5.813,1.734,8.412,1.912,13.93L35.738,68.209
			c-0.085-8.743-0.271-14.613,1.111-23.986C37.428,44.223,38.006,44.223,38.588,44.223z"/>
		
			<path display="inline" fill="none" stroke="#FFFFFF" stroke-width="2" stroke-linecap="round" stroke-linejoin="round" stroke-miterlimit="10" d="
			M85.025,87.559h-51.35V70.254l19.462-15.045v12.324L69.08,55.209v12.324l15.945-12.324V87.559L85.025,87.559z"/>
		
			<path display="inline" fill="none" stroke="#FFFFFF" stroke-width="2" stroke-linecap="round" stroke-linejoin="round" stroke-miterlimit="22.9256" d="
			M41.413,36.414c1.208,0,2.187,0.982,2.187,2.19c0,0.408-0.114,0.792-0.307,1.116h-3.755c-0.198-0.323-0.311-0.708-0.311-1.116
			C39.227,37.396,40.205,36.414,41.413,36.414L41.413,36.414z"/>
		
			<path display="inline" fill="none" stroke="#FFFFFF" stroke-width="2" stroke-linecap="round" stroke-linejoin="round" stroke-miterlimit="22.9256" d="
			M49.34,28.148c1.794,0,3.25,1.451,3.25,3.246s-1.455,3.246-3.25,3.246s-3.242-1.451-3.242-3.246S47.545,28.148,49.34,28.148
			L49.34,28.148z"/>
		
			<path display="inline" fill="none" stroke="#FFFFFF" stroke-width="2" stroke-linecap="round" stroke-linejoin="round" stroke-miterlimit="22.9256" d="
			M62.832,22.946c2.963,0,5.363,2.405,5.363,5.368c0,2.967-2.4,5.364-5.363,5.364c-2.967,0-5.368-2.397-5.368-5.364
			C57.464,25.351,59.865,22.946,62.832,22.946z"/>
		
			<rect x="41.312" y="74.639" display="inline" fill="none" stroke="#FFFFFF" stroke-width="2" stroke-linecap="round" stroke-linejoin="round" stroke-miterlimit="10" width="7.264" height="5.643"/>
		
			<rect x="55.483" y="74.639" display="inline" fill="none" stroke="#FFFFFF" stroke-width="2" stroke-linecap="round" stroke-linejoin="round" stroke-miterlimit="10" width="7.268" height="5.643"/>
		
			<rect x="69.663" y="74.639" display="inline" fill="none" stroke="#FFFFFF" stroke-width="2" stroke-linecap="round" stroke-linejoin="round" stroke-miterlimit="10" width="7.26" height="5.643"/>
	</g>
	<polygon display="inline" fill="none" stroke="#FFFFFF" stroke-width="2" stroke-miterlimit="10" points="81.487,88.738 
		81.487,56.427 81.487,40.229 69.879,28.62 37.5,28.62 37.5,40.612 37.5,56.427 37.5,88.738 	"/>
	<g display="inline">
		<polygon fill="none" stroke="#FFFFFF" stroke-width="2" stroke-linejoin="bevel" points="69.879,40.229 81.487,40.229 
			69.879,28.62 		"/>
	</g>
	
		<rect x="43.486" y="35.487" display="inline" fill="none" stroke="#FFFFFF" stroke-width="2" stroke-miterlimit="10" width="17.697" height="4.164"/>
	<rect x="68.752" y="47.815" display="inline" fill="none" stroke="#FFFFFF" stroke-width="2" width="6.528" height="4.596"/>
	<rect x="55.166" y="47.815" display="inline" fill="none" stroke="#FFFFFF" stroke-width="2" width="13.586" height="4.596"/>
	<rect x="43.486" y="47.815" display="inline" fill="none" stroke="#FFFFFF" stroke-width="2" width="12.073" height="4.596"/>
	
		<rect x="43.486" y="47.815" display="inline" fill="none" stroke="#FFFFFF" stroke-width="2" stroke-miterlimit="10" width="31.755" height="24.279"/>
	
		<line display="inline" fill="none" stroke="#FFFFFF" stroke-width="2" stroke-miterlimit="10" x1="43.337" y1="52.498" x2="75.347" y2="52.498"/>
	
		<line display="inline" fill="none" stroke="#FFFFFF" stroke-width="2" stroke-miterlimit="10" x1="68.642" y1="47.74" x2="68.642" y2="72.396"/>
	
		<line display="inline" fill="none" stroke="#FFFFFF" stroke-width="2" stroke-miterlimit="10" x1="55.449" y1="47.74" x2="55.449" y2="72.396"/>
	
		<line display="inline" fill="none" stroke="#FFFFFF" stroke-width="2" stroke-miterlimit="10" x1="75.779" y1="78.019" x2="63.668" y2="78.019"/>
</g>
<g id="圖層_3_1_" display="none">
	<g display="inline">
		<g>
			<polygon fill="#FFFFFF" points="63.5,34.775 61.5,34.775 61.5,31.775 55.5,31.775 55.5,34.775 53.5,34.775 53.5,29.775 
				63.5,29.775 			"/>
		</g>
		<g>
			<polygon fill="#FFFFFF" points="83.5,59.775 78.5,59.775 78.5,57.775 81.5,57.775 81.5,51.775 78.5,51.775 78.5,49.775 
				83.5,49.775 			"/>
		</g>
		<g>
			<polygon fill="#FFFFFF" points="38.5,59.775 33.5,59.775 33.5,49.775 38.5,49.775 38.5,51.775 35.5,51.775 35.5,57.775 
				38.5,57.775 			"/>
		</g>
		<g>
			<polygon fill="#FFFFFF" points="40.7,45.375 37.18,40.682 43.406,34.455 48.1,37.976 46.9,39.575 43.594,37.096 39.82,40.869 
				42.3,44.175 			"/>
		</g>
		<g>
			<polygon fill="#FFFFFF" points="43.406,75.096 37.18,68.869 40.7,64.176 42.3,65.375 39.82,68.682 43.594,72.455 46.9,69.976 
				48.1,71.575 			"/>
		</g>
		<g>
			<polygon fill="#FFFFFF" points="76.3,45.375 74.7,44.175 77.18,40.869 73.406,37.096 70.1,39.575 68.9,37.976 73.594,34.455 
				79.82,40.682 			"/>
		</g>
		<g>
			<polygon fill="#FFFFFF" points="73.594,75.096 68.9,71.575 70.1,69.976 73.406,72.455 77.18,68.682 74.7,65.375 76.3,64.176 
				79.82,68.869 			"/>
		</g>
		<g>
			<path fill="#FFFFFF" d="M49.879,73.93C42.359,70.541,37.5,63.021,37.5,54.775c0-11.58,9.42-21,21-21c11.58,0,21,9.42,21,21
				c0,8.242-4.856,15.76-12.372,19.15l-0.822-1.822c6.8-3.068,11.194-9.871,11.194-17.328c0-10.477-8.523-19-19-19s-19,8.523-19,19
				c0,7.462,4.396,14.264,11.201,17.33L49.879,73.93z"/>
		</g>
		<g>
			<g>
				<path fill="#FFFFFF" d="M58.5,70.775c-8.822,0-16-7.178-16-16s7.178-16,16-16s16,7.178,16,16S67.322,70.775,58.5,70.775z
					 M58.5,40.775c-7.72,0-14,6.28-14,14s6.28,14,14,14s14-6.28,14-14S66.22,40.775,58.5,40.775z"/>
			</g>
			<g>
				<path fill="#FFFFFF" d="M58.5,65.775c-6.065,0-11-4.935-11-11s4.935-11,11-11s11,4.935,11,11S64.565,65.775,58.5,65.775z
					 M58.5,45.775c-4.962,0-9,4.038-9,9s4.038,9,9,9c4.963,0,9-4.038,9-9S63.463,45.775,58.5,45.775z"/>
			</g>
			<g>
				<path fill="#FFFFFF" d="M58.5,93.775c-2.757,0-5-2.243-5-5v-19h2v19c0,1.654,1.346,3,3,3s3-1.346,3-3v-19h2v19
					C63.5,91.532,61.257,93.775,58.5,93.775z"/>
			</g>
			<g>
				<rect x="57.5" y="77.775" fill="#FFFFFF" width="2" height="2"/>
			</g>
			<g>
				<rect x="57.5" y="81.775" fill="#FFFFFF" width="2" height="2"/>
			</g>
			<g>
				<rect x="57.5" y="85.775" fill="#FFFFFF" width="2" height="2"/>
			</g>
		</g>
		<g>
			<polygon fill="#FFFFFF" points="57.5,59.189 52.793,54.482 54.207,53.068 57.5,56.361 62.793,51.068 64.207,52.482 			"/>
		</g>
		<g>
			<rect x="33.5" y="43.775" fill="#FFFFFF" width="2" height="2"/>
		</g>
		<g>
			<rect x="33.5" y="63.775" fill="#FFFFFF" width="2" height="2"/>
		</g>
		<g>
			<rect x="47.5" y="29.775" fill="#FFFFFF" width="2" height="2"/>
		</g>
		<g>
			<rect x="67.5" y="29.775" fill="#FFFFFF" width="2" height="2"/>
		</g>
		<g>
			<rect x="81.5" y="43.775" fill="#FFFFFF" width="2" height="2"/>
		</g>
		<g>
			<rect x="81.5" y="63.775" fill="#FFFFFF" width="2" height="2"/>
		</g>
	</g>
</g>
<g id="圖層_4_1_" display="none">
	<g display="inline">
		<g>
			<g>
				<path fill="#FFFFFF" d="M80.331,91.36h-43c-0.553,0-1-0.447-1-1v-62c0-0.553,0.447-1,1-1h38c0.266,0,0.52,0.105,0.707,0.293l8,8
					c0.188,0.188,0.293,0.441,0.293,0.707v51c0,0.404-0.243,0.77-0.617,0.924c-0.373,0.156-0.803,0.069-1.09-0.217l-8.707-8.707
					h-1.586v1.586l8.707,8.707c0.286,0.286,0.372,0.716,0.217,1.09C81.101,91.117,80.735,91.36,80.331,91.36z M38.331,89.36h39.586
					l-7.293-7.293c-0.188-0.188-0.293-0.441-0.293-0.707v-3c0-0.553,0.447-1,1-1h3c0.266,0,0.52,0.105,0.707,0.293l7.293,7.293
					V36.774l-7.414-7.414H38.331V89.36z"/>
			</g>
		</g>
		<g>
			
				<rect x="68.917" y="76.36" transform="matrix(0.7071 0.7071 -0.7071 0.7071 75.3015 -27.0732)" fill="#FFFFFF" width="2.828" height="2"/>
		</g>
		<g>
			<path fill="#FFFFFF" d="M60.331,81.36c-7.72,0-14-6.28-14-14s6.28-14,14-14v2c-6.617,0-12,5.383-12,12s5.383,12,12,12
				s12-5.383,12-12h2C74.331,75.08,68.051,81.36,60.331,81.36z"/>
		</g>
		<g>
			<polygon fill="#FFFFFF" points="83.331,37.36 74.331,37.36 74.331,28.36 76.331,28.36 76.331,35.36 83.331,35.36 			"/>
		</g>
		<g>
			<path fill="#FFFFFF" d="M60.331,76.36c-4.963,0-9-4.037-9-9s4.037-9,9-9v2c-3.859,0-7,3.141-7,7s3.141,7,7,7s7-3.141,7-7h2
				C69.331,72.323,65.294,76.36,60.331,76.36z"/>
		</g>
		<g>
			<rect x="42.331" y="31.36" fill="#FFFFFF" width="2" height="2"/>
		</g>
		<g>
			<rect x="46.331" y="31.36" fill="#FFFFFF" width="2" height="2"/>
		</g>
		<g>
			<rect x="50.331" y="31.36" fill="#FFFFFF" width="2" height="2"/>
		</g>
		<g>
			<rect x="42.331" y="41.36" fill="#FFFFFF" width="36" height="2"/>
		</g>
		<g>
			<rect x="67.331" y="45.36" fill="#FFFFFF" width="11" height="2"/>
		</g>
		<g>
			<rect x="58.331" y="45.36" fill="#FFFFFF" width="7" height="2"/>
		</g>
		<g>
			<rect x="42.331" y="45.36" fill="#FFFFFF" width="14" height="2"/>
		</g>
		<g>
			<rect x="42.331" y="49.36" fill="#FFFFFF" width="10" height="2"/>
		</g>
		<g>
			<rect x="42.331" y="35.36" fill="#FFFFFF" width="28" height="2"/>
		</g>
		<g>
			<path fill="#FFFFFF" d="M74.331,65.36h-12v-12h1c6.065,0,11,4.935,11,11V65.36z M64.331,63.36h7.944
				c-0.462-4.165-3.779-7.482-7.944-7.944V63.36z"/>
		</g>
		<g>
			<polygon fill="#FFFFFF" points="65.624,74.067 59.917,68.36 52.331,68.36 52.331,66.36 60.745,66.36 67.038,72.653 			"/>
		</g>
	</g>
</g>
<g id="圖層_5_1_" display="none">
	<polyline display="inline" fill="none" stroke="#FFFFFF" stroke-width="1.9036" points="61.875,79.416 28.451,79.416 
		28.451,41.566 90.951,41.566 90.951,79.416 87.258,79.416 	"/>
	<line display="inline" fill="none" stroke="#FFFFFF" stroke-width="1.9036" x1="31.307" y1="37.865" x2="33.679" y2="37.865"/>
	<line display="inline" fill="none" stroke="#FFFFFF" stroke-width="1.9036" x1="35.414" y1="37.865" x2="37.786" y2="37.865"/>
	<line display="inline" fill="none" stroke="#FFFFFF" stroke-width="1.9036" x1="39.52" y1="37.865" x2="41.893" y2="37.865"/>
	<g display="inline">
		<line fill="none" stroke="#FFFFFF" stroke-width="1.9036" x1="61.585" y1="55.459" x2="84.501" y2="55.459"/>
		<line fill="none" stroke="#FFFFFF" stroke-width="1.9036" x1="61.585" y1="60.056" x2="81.461" y2="60.056"/>
	</g>
	<rect x="63.216" y="65.511" display="inline" fill="none" stroke="#FFFFFF" stroke-width="1.9036" width="11.21" height="4.019"/>
	<line display="inline" fill="none" stroke="#FFFFFF" stroke-width="1.9036" x1="61.585" y1="49.859" x2="85.802" y2="49.859"/>
	<polygon display="inline" fill="none" stroke="#FFFFFF" stroke-width="1.9036" points="70.779,90.998 79.296,86.797 87.813,82.593 
		79.296,78.39 70.779,74.188 73.255,79.733 64.66,79.732 64.659,85.453 73.256,85.453 	"/>
	<g display="inline">
		<path fill="none" stroke="#FFFFFF" stroke-width="1.4957" stroke-miterlimit="10" d="M58.986,60.722l0.001-3.424l-2.041-0.438
			c-0.104-0.419-0.23-0.829-0.38-1.228l1.532-1.387l-1.712-2.964l-2.115,0.685c-0.27-0.285-0.551-0.558-0.851-0.812l0.668-2.069
			l-2.964-1.711l-1.506,1.668c-0.366-0.115-0.743-0.212-1.124-0.289l-0.459-2.133h-3.422l-0.457,2.133
			c-0.405,0.082-0.802,0.188-1.19,0.313l-1.405-1.556l-2.964,1.712l0.627,1.937c-0.348,0.297-0.673,0.618-0.98,0.954L36.4,51.521
			l-1.712,2.962l1.366,1.233c-0.178,0.488-0.332,0.982-0.44,1.496l-1.681,0.359v3.423l1.607,0.345
			c0.099,0.576,0.24,1.137,0.424,1.679l-1.138,1.027l1.709,2.964l1.425-0.459c0.399,0.473,0.837,0.91,1.31,1.309l-0.436,1.35
			l2.964,1.712l0.975-1.08c0.584,0.202,1.191,0.351,1.816,0.449l0.297,1.386h3.422l0.316-1.479c0.596-0.13,1.17-0.31,1.727-0.529
			l1.01,1.117l2.963-1.712l-0.517-1.602c0.401-0.376,0.773-0.779,1.114-1.212l1.6,0.519l1.712-2.966l-1.398-1.264
			c0.135-0.465,0.234-0.943,0.307-1.43L58.986,60.722z M49.772,59.49c0,1.903-1.543,3.445-3.446,3.445
			c-1.905,0-3.447-1.542-3.447-3.445c0-1.905,1.542-3.447,3.447-3.447C48.229,56.043,49.772,57.585,49.772,59.49z"/>
		<path fill="none" stroke="#FFFFFF" stroke-width="1.4957" stroke-miterlimit="10" d="M46.32,52.319
			c-3.964,0-7.179,3.215-7.179,7.181c0,3.965,3.215,7.18,7.179,7.18c3.965,0,7.18-3.215,7.18-7.18
			C53.5,55.534,50.286,52.319,46.32,52.319z"/>
	</g>
</g>
<g id="圖層_6_1_">
	<g id="XMLID_287_">
		<g>
			<polygon fill="none" stroke="#FFFFFF" stroke-width="2" stroke-linecap="round" stroke-linejoin="round" points="89.471,71.228 
				74.271,71.228 50.104,71.228 34.898,71.228 45.63,61.389 62.191,61.389 78.744,61.389 			"/>
			<polygon fill="none" stroke="#FFFFFF" stroke-width="2" stroke-linecap="round" stroke-linejoin="round" points="77.414,79.278 
				62.213,79.278 38.047,79.278 22.841,79.278 28.213,74.358 72.043,74.358 			"/>
			<polygon fill="none" stroke="#FFFFFF" stroke-width="2" stroke-linecap="round" stroke-linejoin="round" points="89.471,87.777 
				74.271,87.777 50.104,87.777 34.898,87.777 40.27,82.852 84.1,82.852 			"/>
			<path fill="none" stroke="#FFFFFF" stroke-width="2" stroke-linecap="round" stroke-linejoin="round" d="M53.45,56.593
				l-6.695-15.631c-0.716-1.664,0.059-3.585,1.728-4.295c1.656-0.71,3.568,0.059,4.293,1.717l3.813,8.93l9.144-19.458
				c0.766-1.63,2.713-2.335,4.355-1.565c1.631,0.77,2.33,2.718,1.571,4.349L59.5,56.5c-0.312,0.786-0.915,1.454-1.744,1.814
				c-1.438,0.608-3.042,0.13-3.918-1.06c0-0.012-0.021-0.017-0.039-0.027c-0.038-0.06-0.08-0.129-0.118-0.194
				c-0.021-0.031-0.021-0.059-0.059-0.086c-0.017-0.054-0.054-0.102-0.071-0.156c-0.026-0.048-0.063-0.102-0.085-0.149
				C53.467,56.625,53.45,56.608,53.45,56.593z"/>
		</g>
	</g>
</g>
</svg>
