<?xml version="1.0" encoding="utf-8"?>
<!-- Generator: Adobe Illustrator 13.0.1, SVG Export Plug-In . SVG Version: 6.00 Build 14948)  -->
<!DOCTYPE svg PUBLIC "-//W3C//DTD SVG 1.0//EN" "http://www.w3.org/TR/2001/REC-SVG-20010904/DTD/svg10.dtd">
<svg version="1.0" xmlns="http://www.w3.org/2000/svg" xmlns:xlink="http://www.w3.org/1999/xlink" x="0px" y="0px" width="120px"
	 height="120px" viewBox="0 0 120 120" enable-background="new 0 0 120 120" xml:space="preserve">
<g id="圖層_2_1_" display="none">
	<circle display="inline" fill="#231F20" cx="59.5" cy="59.5" r="60"/>
</g>
<g id="圖層_1" display="none">
	<g id="圖層_2">
		<circle display="inline" stroke="#FFFFFF" cx="60.416" cy="60.416" r="61.059"/>
	</g>
	<g id="圖層_1_1_" display="inline">
		<g>
			<g>
				<rect x="52.817" y="81.457" fill="#FFFFFF" width="19" height="2"/>
			</g>
			<g>
				<rect x="50.817" y="77.457" fill="#FFFFFF" width="23" height="2"/>
			</g>
			<g>
				<path fill="#FFFFFF" d="M40.817,83.457c-5.514,0-10-4.486-10-10s4.486-10,10-10h43c0.554,0,1,0.447,1,1c0,2.757-2.242,5-5,5h-39
					c-2.206,0-4,1.795-4,4s1.794,4,4,4h2v2h-2c-3.309,0-6-2.691-6-6s2.691-6,6-6h39c1.305,0,2.416-0.836,2.83-2h-41.83
					c-4.411,0-8,3.589-8,8s3.589,8,8,8V83.457z"/>
			</g>
			<g>
				<g>
					<path fill="#FFFFFF" d="M77.816,89.457c-3.858,0-7-3.141-7-7s3.142-7,7-7c3.859,0,7,3.141,7,7S81.677,89.457,77.816,89.457z
						 M77.816,77.457c-2.756,0-5,2.243-5,5s2.244,5,5,5c2.758,0,5-2.243,5-5S80.574,77.457,77.816,77.457z"/>
				</g>
			</g>
			<g>
				<g>
					<path fill="#FFFFFF" d="M46.817,89.457c-3.859,0-7-3.141-7-7s3.141-7,7-7s7,3.141,7,7S50.677,89.457,46.817,89.457z
						 M46.817,77.457c-2.757,0-5,2.243-5,5s2.243,5,5,5c2.757,0,5-2.243,5-5S49.574,77.457,46.817,77.457z"/>
				</g>
			</g>
			<g>
				<path fill="#FFFFFF" d="M83.816,65.457h-43c-0.553,0-1-0.447-1-1v-22h2v21h41.3l7.271-20H43.817v-2h48
					c0.326,0,0.633,0.159,0.82,0.426c0.187,0.268,0.231,0.609,0.119,0.916l-8,22C84.613,65.193,84.238,65.457,83.816,65.457z"/>
			</g>
			<g>
				<path fill="#FFFFFF" d="M37.817,65.457h-2v-32c0-1.103-0.897-2-2-2v-2c2.206,0,4,1.794,4,4V65.457z"/>
			</g>
			<g>
				<path fill="#FFFFFF" d="M41.817,42.457h-2v-9c0-1.103-0.897-2-2-2v-2c2.206,0,4,1.794,4,4V42.457z"/>
			</g>
			<g>
				<rect x="28.817" y="29.457" fill="#FFFFFF" width="9" height="2"/>
			</g>
			<g>
				<rect x="28.817" y="87.457" fill="#FFFFFF" width="64" height="2"/>
			</g>
			<g>
				<path fill="#FFFFFF" d="M80.816,51.457c-1.487,0-2.203-0.76-2.728-1.314c-0.431-0.456-0.647-0.686-1.272-0.686
					s-0.842,0.229-1.271,0.686c-0.523,0.555-1.238,1.314-2.729,1.314c-1.485,0-2.203-0.76-2.727-1.313
					c-0.433-0.457-0.648-0.687-1.273-0.687c-0.623,0-0.84,0.229-1.272,0.688c-0.522,0.554-1.239,1.313-2.728,1.313
					c-1.484,0-2.203-0.759-2.727-1.313c-0.433-0.458-0.648-0.688-1.273-0.688c-0.624,0-0.84,0.229-1.272,0.688
					c-0.523,0.554-1.24,1.313-2.727,1.313c-1.487,0-2.203-0.759-2.727-1.313c-0.432-0.458-0.648-0.688-1.273-0.688
					c-0.624,0-0.841,0.229-1.273,0.688c-0.523,0.554-1.24,1.313-2.727,1.313c-1.485,0-2.203-0.759-2.727-1.313
					c-0.433-0.458-0.649-0.688-1.273-0.688v-2c1.485,0,2.203,0.759,2.727,1.313c0.433,0.458,0.649,0.688,1.273,0.688
					s0.841-0.229,1.273-0.688c0.523-0.554,1.24-1.313,2.727-1.313c1.487,0,2.204,0.76,2.728,1.313
					c0.432,0.457,0.648,0.687,1.272,0.687s0.841-0.229,1.273-0.688c0.523-0.554,1.24-1.313,2.727-1.313
					c1.485,0,2.203,0.759,2.728,1.313c0.433,0.458,0.649,0.688,1.272,0.688c0.625,0,0.842-0.229,1.273-0.688
					c0.523-0.554,1.24-1.313,2.727-1.313c1.488,0,2.205,0.76,2.728,1.313c0.433,0.457,0.647,0.687,1.272,0.687
					s0.843-0.229,1.272-0.686c0.522-0.555,1.239-1.314,2.728-1.314c1.49,0,2.205,0.76,2.729,1.314
					c0.432,0.456,0.646,0.686,1.271,0.686s0.842-0.229,1.273-0.688c0.523-0.554,1.24-1.313,2.727-1.313v2
					c-0.623,0-0.84,0.229-1.272,0.688C83.021,50.698,82.305,51.457,80.816,51.457z"/>
			</g>
			<g>
				<path fill="#FFFFFF" d="M80.816,59.457c-1.487,0-2.203-0.76-2.728-1.314c-0.431-0.456-0.647-0.686-1.272-0.686
					s-0.842,0.229-1.271,0.686c-0.523,0.555-1.238,1.314-2.729,1.314c-1.485,0-2.203-0.76-2.727-1.313
					c-0.433-0.457-0.648-0.687-1.273-0.687c-0.623,0-0.84,0.229-1.272,0.688c-0.522,0.554-1.239,1.313-2.728,1.313
					c-1.484,0-2.203-0.759-2.727-1.313c-0.433-0.458-0.648-0.688-1.273-0.688c-0.624,0-0.84,0.229-1.272,0.688
					c-0.523,0.554-1.24,1.313-2.727,1.313c-1.487,0-2.203-0.759-2.727-1.313c-0.432-0.458-0.648-0.688-1.273-0.688
					c-0.624,0-0.841,0.229-1.273,0.688c-0.523,0.554-1.24,1.313-2.727,1.313c-1.485,0-2.203-0.759-2.727-1.313
					c-0.433-0.458-0.649-0.688-1.273-0.688v-2c1.485,0,2.203,0.759,2.727,1.313c0.433,0.458,0.649,0.688,1.273,0.688
					s0.841-0.229,1.273-0.688c0.523-0.554,1.24-1.313,2.727-1.313c1.487,0,2.204,0.76,2.728,1.313
					c0.432,0.457,0.648,0.687,1.272,0.687s0.841-0.229,1.273-0.688c0.523-0.554,1.24-1.313,2.727-1.313
					c1.485,0,2.203,0.759,2.728,1.313c0.433,0.458,0.649,0.688,1.272,0.688c0.625,0,0.842-0.229,1.273-0.688
					c0.523-0.554,1.24-1.313,2.727-1.313c1.488,0,2.205,0.76,2.728,1.313c0.433,0.457,0.647,0.687,1.272,0.687
					s0.843-0.229,1.272-0.686c0.522-0.555,1.239-1.314,2.728-1.314c1.49,0,2.205,0.76,2.729,1.314
					c0.432,0.456,0.646,0.686,1.271,0.686V59.457z"/>
			</g>
		</g>
		<g>
			<circle fill="#FFFFFF" cx="43.765" cy="86.668" r="2"/>
		</g>
		<g>
			<circle fill="#FFFFFF" cx="74.766" cy="86.668" r="2"/>
		</g>
		<g>
			<path fill="#FFFFFF" d="M72.766,43.668h-2v-4h-24v4h-2v-5c0-0.552,0.447-1,1-1h26c0.553,0,1,0.448,1,1V43.668z"/>
		</g>
		<g>
			<path fill="#FFFFFF" d="M79.766,43.668h-2v-12h-16v4h-2v-5c0-0.552,0.447-1,1-1h18c0.553,0,1,0.448,1,1V43.668z"/>
		</g>
		<g>
			<path fill="#FFFFFF" d="M71.766,35.668h-4c-0.554,0-1-0.448-1-1v-4c0-0.552,0.446-1,1-1h4c0.553,0,1,0.448,1,1v4
				C72.766,35.22,72.316,35.668,71.766,35.668z M68.766,33.668h2v-2h-2V33.668z"/>
		</g>
	</g>
	<g id="圖層_3">
		<g display="inline">
			<path fill="#FFFFFF" d="M87.85,48.772c-7.179,0.002-12.998,5.819-13,13.001c0.002,7.178,5.819,12.998,13,13
				c7.18-0.002,13-5.822,13.002-13C100.85,54.592,95.027,48.774,87.85,48.772z M87.85,72.771c-6.074-0.01-10.988-4.924-11-10.998
				c0.012-6.078,4.926-10.989,11-11.002c6.075,0.013,10.988,4.926,11,11.002C98.838,67.848,93.922,72.762,87.85,72.771z
				 M94.741,44.469l-0.003-8.824c0-3.829-3.102-6.933-6.932-6.933H27.001c-3.828,0-6.932,3.104-6.932,6.933v42.02
				c0,3.825,3.104,6.931,6.932,6.931h21.49c0.006,0.61,0.016,1.25,0.016,1.881c0.002,0.992-0.037,1.946-0.146,2.487
				c-0.134,0.707-0.257,0.959-0.277,0.97c0.002,0.012-0.071,0.078-0.509,0.313c-0.281,0.157-0.781,0.392-1.273,0.608h-1.997v1.998
				h2.324l0.016,0.037c0.027-0.013,0.057-0.022,0.085-0.037h21.25c0.035,0.017,0.069,0.031,0.104,0.047l0.021-0.047h2.401v-1.998
				H68.4c-0.489-0.219-0.987-0.453-1.276-0.61c-0.425-0.229-0.456-0.279-0.456-0.281c-0.018-0.008-0.141-0.282-0.273-1
				c-0.109-0.543-0.149-1.489-0.146-2.476c-0.002-0.633,0.009-1.276,0.017-1.893H82.85v11.428h10V79.709
				c7.86-2.188,13.637-9.379,13.637-17.938C106.486,53.916,101.618,47.21,94.741,44.469z M22.069,35.645
				c0.004-2.724,2.209-4.929,4.932-4.933h60.806c2.727,0.004,4.928,2.209,4.936,4.933v8.163c-0.699-0.189-1.413-0.337-2.145-0.445
				l-7.92-5.471l-0.025,0.039c-0.133-2.09-1.853-3.746-3.975-3.748c-2.21,0.002-3.998,1.79-4,4c0,0.434,0.088,0.844,0.215,1.235
				l-12.098,7.009c-0.615-0.386-1.338-0.619-2.117-0.619c-2.21,0.002-4,1.791-4,4.001c0,0.682,0.188,1.314,0.488,1.877l-0.079-0.078
				l-5.242,5.363c-0.708-0.639-1.637-1.037-2.666-1.039c-1.098,0.002-2.09,0.445-2.813,1.16l-5.324-5.219
				c0.241-0.516,0.387-1.084,0.387-1.689c-0.002-2.211-1.791-4-4-4.002c-2.211,0.002-4,1.791-4,4.002
				c0,0.945,0.342,1.801,0.89,2.486L26.25,63.588l1.607,1.189L35.91,53.88c0.468,0.192,0.979,0.303,1.518,0.304
				c0.874,0,1.677-0.289,2.335-0.765l5.571,5.464c-0.092,0.337-0.156,0.684-0.157,1.05c0,2.209,1.792,3.999,4.001,4
				c2.209-0.002,3.998-1.791,3.998-4c0-0.498-0.102-0.97-0.268-1.409l0.109,0.107l5.401-5.524c0.644,0.44,1.42,0.701,2.258,0.702
				c2.209-0.002,4-1.791,4.002-4h-0.002c0-0.683-0.188-1.315-0.488-1.878l11.775-6.824c0.715,0.662,1.663,1.076,2.713,1.076
				c1.551,0,2.879-0.889,3.543-2.178l4.61,3.185c-9.815,0.532-17.615,8.635-17.615,18.582c0,3.748,1.106,7.234,3.015,10.152h-50.16
				V35.645z M80.678,38.183c-0.003,1.105-0.896,1.998-2,2c-1.104-0.002-1.998-0.895-2-2c0.002-1.104,0.897-1.998,2-2
				C79.779,36.185,80.675,37.079,80.678,38.183z M62.678,49.809c-0.002,1.104-0.896,1.997-2,1.999c-1.104-0.002-1.998-0.896-2-1.999
				c0.002-1.104,0.896-1.998,2-2C61.779,47.811,62.676,48.704,62.678,49.809z M51.177,59.933c-0.002,1.104-0.896,1.997-1.999,1.999
				c-1.104-0.002-1.999-0.895-2.001-1.999c0.002-1.103,0.896-1.997,2.001-2.001C50.28,57.936,51.175,58.83,51.177,59.933z
				 M39.427,50.184c-0.002,1.104-0.896,1.997-1.999,1.999c-1.105-0.002-1.999-0.896-2.001-1.999
				c0.002-1.104,0.897-1.999,2.001-2.001C38.531,48.185,39.425,49.078,39.427,50.184z M49.851,90.854
				c0.229-0.416,0.342-0.871,0.472-1.504c0.158-0.824,0.183-1.832,0.185-2.875c0-0.643-0.012-1.289-0.018-1.881h13.771
				c-0.007,0.6-0.017,1.238-0.017,1.893c0.002,1.035,0.024,2.037,0.188,2.867c0.133,0.637,0.233,1.082,0.455,1.5H49.851z
				 M82.85,82.594H27.001c-2.723-0.004-4.928-2.209-4.932-4.93v-3.74H73.75c2.368,2.738,5.512,4.787,9.1,5.785V82.594z
				 M90.852,94.023H84.85V80.145c0.979,0.158,1.979,0.266,3,0.266c1.024,0,2.021-0.104,3.002-0.266V94.023z M87.85,78.408
				c-9.188-0.018-16.617-7.447-16.634-16.637c0.017-9.188,7.445-16.62,16.634-16.635c9.188,0.017,16.621,7.449,16.637,16.635
				C104.471,70.961,97.037,78.391,87.85,78.408z"/>
		</g>
	</g>
</g>
<g id="圖層_3_1_" display="none">
	<g display="inline">
		<g>
			<g>
				<path fill="none" stroke="#FFFFFF" stroke-width="2" d="M39.003,44.101c0-11.042,8.95-19.992,19.993-19.992
					c11.039,0,19.993,8.95,19.993,19.992"/>
				<path fill="none" stroke="#FFFFFF" stroke-width="2" d="M50.932,58.432c-2.16-3.632-3.502-8.711-3.502-14.332
					c0-11.042,5.179-19.992,11.566-19.992c6.382,0,11.56,8.95,11.56,19.992c0,5.525-1.297,10.528-3.394,14.147"/>
				<path fill="none" stroke="#FFFFFF" stroke-width="2" d="M78.989,44.101c0-11.042-8.954-19.992-19.993-19.992v38.595"/>
				<path fill="none" stroke="#FFFFFF" stroke-width="2" d="M39.003,44.101c0,2.484,0.472,4.853,1.299,7.046h37.383
					c0.828-2.194,1.304-4.563,1.304-7.046c0-2.485-0.476-4.853-1.304-7.049H40.303C39.475,39.248,39.003,41.616,39.003,44.101z"/>
			</g>
		</g>
		<g>
			<polyline fill="none" stroke="#FFFFFF" stroke-width="2" points="33.328,47.259 33.328,46.289 38.573,43.388 			"/>
			<polyline fill="none" stroke="#FFFFFF" stroke-width="2" points="84.683,47.259 84.683,46.289 79.219,43.267 			"/>
			<line fill="none" stroke="#FFFFFF" stroke-width="2" x1="32.322" y1="78.77" x2="32.322" y2="65.383"/>
			<line fill="none" stroke="#FFFFFF" stroke-width="2" x1="32.322" y1="48.208" x2="58.979" y2="63.486"/>
			<polyline fill="none" stroke="#FFFFFF" stroke-width="2" points="85.632,65.037 85.632,78.988 58.979,94.377 32.322,78.988 
				32.322,69.379 32.322,65.627 			"/>
			<line fill="none" stroke="#FFFFFF" stroke-width="2" x1="85.632" y1="78.988" x2="58.979" y2="94.377"/>
			<line fill="none" stroke="#FFFFFF" stroke-width="2" x1="58.996" y1="94.148" x2="58.996" y2="63.232"/>
			<polygon fill="none" stroke="#FFFFFF" stroke-width="2" points="58.979,63.121 85.632,47.514 92.628,60.482 65.974,75.871 			"/>
			<polygon fill="none" stroke="#FFFFFF" stroke-width="2" points="59.017,63.15 32.362,47.541 25.365,60.512 52.021,75.9 			"/>
		</g>
	</g>
</g>
<g id="圖層_4" display="none">
	<g display="inline">
		<path fill="none" stroke="#FFFFFF" stroke-width="2" d="M30.746,60.583v16.606v0.995V82.5c0,1.101,0.888,1.988,1.985,1.988h4.32
			h0.547h43.051h0.548h4.317c1.097,0,1.985-0.888,1.985-1.988v-4.315v-0.995V60.583"/>
		<line fill="none" stroke="#FFFFFF" stroke-width="2" x1="72.86" y1="46.852" x2="45.418" y2="46.852"/>
		<path fill="none" stroke="#FFFFFF" stroke-width="2" d="M38.355,46.852h-9.503c-1.097,0-1.986,0.889-1.986,1.987v6.047
			c0,1.1,0.889,1.988,1.986,1.988h60.539c1.099,0,1.985-0.888,1.985-1.988v-6.047c0-1.099-0.887-1.987-1.985-1.987h-8.973"/>
		<g>
			<path fill="none" stroke="#FFFFFF" stroke-width="2" d="M39.883,52.277c-0.555,0-1.113-0.176-1.595-0.53
				c-1.186-0.882-1.421-2.554-0.542-3.739l15.092-20.217c0.882-1.182,2.559-1.423,3.741-0.544c1.181,0.88,1.422,2.556,0.544,3.738
				L42.026,51.2C41.504,51.904,40.698,52.277,39.883,52.277L39.883,52.277z"/>
		</g>
		<g>
			<path fill="none" stroke="#FFFFFF" stroke-width="2" d="M78.355,52.277c0.56,0,1.115-0.176,1.594-0.53
				c1.188-0.882,1.426-2.554,0.542-3.739L65.402,27.791c-0.88-1.182-2.559-1.423-3.737-0.544c-1.182,0.88-1.425,2.556-0.548,3.738
				L76.216,51.2C76.738,51.904,77.543,52.277,78.355,52.277L78.355,52.277z"/>
		</g>
		<line fill="none" stroke="#FFFFFF" stroke-width="2" x1="36.734" y1="79.859" x2="36.734" y2="60.801"/>
		<line fill="none" stroke="#FFFFFF" stroke-width="2" x1="43.088" y1="79.859" x2="43.088" y2="60.801"/>
		<line fill="none" stroke="#FFFFFF" stroke-width="2" x1="49.44" y1="79.859" x2="49.44" y2="60.801"/>
		<line fill="none" stroke="#FFFFFF" stroke-width="2" x1="55.794" y1="79.859" x2="55.794" y2="60.801"/>
		<line fill="none" stroke="#FFFFFF" stroke-width="2" x1="62.146" y1="79.859" x2="62.146" y2="60.801"/>
		<line fill="none" stroke="#FFFFFF" stroke-width="2" x1="68.499" y1="79.859" x2="68.499" y2="60.801"/>
		<line fill="none" stroke="#FFFFFF" stroke-width="2" x1="74.853" y1="79.859" x2="74.853" y2="60.801"/>
		<line fill="none" stroke="#FFFFFF" stroke-width="2" x1="81.206" y1="79.859" x2="81.206" y2="60.801"/>
	</g>
</g>
<g id="圖層_5">
	<g>
		<g>
			<g>
				<rect x="30.5" y="56.275" fill="#FFFFFF" width="2" height="7"/>
			</g>
			<g>
				<polygon fill="#FFFFFF" points="86.5,85.275 44.5,85.275 44.5,83.275 84.5,83.275 84.5,56.275 86.5,56.275 				"/>
			</g>
			<g>
				<path fill="#FFFFFF" d="M31.5,57.275c-2.205,0-4-1.795-4-4v-12h6v2h-4v10c0,1.104,0.896,2,2,2s2-0.896,2-2v-5h2v5
					C35.5,55.48,33.705,57.275,31.5,57.275z"/>
			</g>
			<g>
				<path fill="#FFFFFF" d="M37.5,57.275c-2.205,0-4-1.795-4-4h2c0,1.104,0.896,2,2,2s2-0.896,2-2v-5h2v5
					C41.5,55.48,39.705,57.275,37.5,57.275z"/>
			</g>
			<g>
				<path fill="#FFFFFF" d="M43.5,57.275c-2.205,0-4-1.795-4-4h2c0,1.104,0.896,2,2,2s2-0.896,2-2v-5h2v5
					C47.5,55.48,45.705,57.275,43.5,57.275z"/>
			</g>
			<g>
				<path fill="#FFFFFF" d="M43.5,57.275c-2.205,0-4-1.795-4-4h2c0,1.104,0.896,2,2,2s2-0.896,2-2v-5h2v5
					C47.5,55.48,45.705,57.275,43.5,57.275z"/>
			</g>
			<g>
				<path fill="#FFFFFF" d="M49.5,57.275c-2.205,0-4-1.795-4-4h2c0,1.104,0.896,2,2,2s2-0.896,2-2v-5h2v5
					C53.5,55.48,51.705,57.275,49.5,57.275z"/>
			</g>
			<g>
				<path fill="#FFFFFF" d="M49.5,57.275c-2.205,0-4-1.795-4-4h2c0,1.104,0.896,2,2,2s2-0.896,2-2v-5h2v5
					C53.5,55.48,51.705,57.275,49.5,57.275z"/>
			</g>
			<g>
				<path fill="#FFFFFF" d="M55.5,57.275c-2.205,0-4-1.795-4-4h2c0,1.104,0.896,2,2,2s2-0.896,2-2v-5h2v5
					C59.5,55.48,57.705,57.275,55.5,57.275z"/>
			</g>
			<g>
				<path fill="#FFFFFF" d="M55.5,57.275c-2.205,0-4-1.795-4-4h2c0,1.104,0.896,2,2,2s2-0.896,2-2v-5h2v5
					C59.5,55.48,57.705,57.275,55.5,57.275z"/>
			</g>
			<g>
				<path fill="#FFFFFF" d="M61.5,57.275c-2.205,0-4-1.795-4-4h2c0,1.104,0.896,2,2,2s2-0.896,2-2v-5h2v5
					C65.5,55.48,63.705,57.275,61.5,57.275z"/>
			</g>
			<g>
				<path fill="#FFFFFF" d="M61.5,57.275c-2.205,0-4-1.795-4-4h2c0,1.104,0.896,2,2,2s2-0.896,2-2v-5h2v5
					C65.5,55.48,63.705,57.275,61.5,57.275z"/>
			</g>
			<g>
				<path fill="#FFFFFF" d="M67.5,57.275c-2.205,0-4-1.795-4-4h2c0,1.104,0.896,2,2,2s2-0.896,2-2v-5h2v5
					C71.5,55.48,69.705,57.275,67.5,57.275z"/>
			</g>
			<g>
				<path fill="#FFFFFF" d="M67.5,57.275c-2.205,0-4-1.795-4-4h2c0,1.104,0.896,2,2,2s2-0.896,2-2v-5h2v5
					C71.5,55.48,69.705,57.275,67.5,57.275z"/>
			</g>
			<g>
				<path fill="#FFFFFF" d="M73.5,57.275c-2.205,0-4-1.795-4-4h2c0,1.104,0.896,2,2,2s2-0.896,2-2v-5h2v5
					C77.5,55.48,75.705,57.275,73.5,57.275z"/>
			</g>
			<g>
				<path fill="#FFFFFF" d="M73.5,57.275c-2.205,0-4-1.795-4-4h2c0,1.104,0.896,2,2,2s2-0.896,2-2v-5h2v5
					C77.5,55.48,75.705,57.275,73.5,57.275z"/>
			</g>
			<g>
				<path fill="#FFFFFF" d="M79.5,57.275c-2.205,0-4-1.795-4-4h2c0,1.104,0.896,2,2,2s2-0.896,2-2v-5h2v5
					C83.5,55.48,81.705,57.275,79.5,57.275z"/>
			</g>
			<g>
				<path fill="#FFFFFF" d="M79.5,57.275c-2.205,0-4-1.795-4-4h2c0,1.104,0.896,2,2,2s2-0.896,2-2v-5h2v5
					C83.5,55.48,81.705,57.275,79.5,57.275z"/>
			</g>
			<g>
				<polygon fill="#FFFFFF" points="80.5,84.275 78.5,84.275 78.5,65.275 68.5,65.275 68.5,84.275 66.5,84.275 66.5,63.275 
					80.5,63.275 				"/>
			</g>
			<g>
				<rect x="48.5" y="64.275" fill="#FFFFFF" width="2" height="14"/>
			</g>
			<g>
				<rect x="67.5" y="73.275" fill="#FFFFFF" width="3" height="2"/>
			</g>
			<g>
				<polygon fill="#FFFFFF" points="60.5,79.275 46.5,79.275 46.5,77.275 58.5,77.275 58.5,65.275 40.5,65.275 40.5,63.275 
					60.5,63.275 				"/>
			</g>
			<g>
				<g>
					<path fill="#FFFFFF" d="M63.5,42.275c-2.205,0-4-1.795-4-4v-5c0-2.205,1.795-4,4-4s4,1.795,4,4v5
						C67.5,40.48,65.705,42.275,63.5,42.275z M63.5,31.275c-1.104,0-2,0.896-2,2v5c0,1.104,0.896,2,2,2s2-0.896,2-2v-5
						C65.5,32.172,64.604,31.275,63.5,31.275z"/>
				</g>
				<g>
					<path fill="#FFFFFF" d="M43.5,42.275c-2.205,0-4-1.795-4-4h2c0,1.104,0.896,2,2,2c1.224,0,2-0.703,2-1v-1
						c-0.072-0.205-0.791-0.775-1.449-1.106l-1.998-0.999c-0.599-0.299-2.553-1.393-2.553-2.895v-1c0-1.626,1.832-3,4-3
						c2.205,0,4,1.795,4,4h-2c0-1.104-0.896-2-2-2c-1.224,0-2,0.703-2,1v1c0.072,0.205,0.791,0.775,1.449,1.106l1.998,0.999
						c0.599,0.299,2.553,1.393,2.553,2.895v1C47.5,40.901,45.668,42.275,43.5,42.275z"/>
				</g>
				<g>
					<rect x="49.5" y="29.275" fill="#FFFFFF" width="2" height="13"/>
				</g>
				<g>
					<rect x="55.5" y="29.275" fill="#FFFFFF" width="2" height="13"/>
				</g>
				<g>
					<rect x="50.5" y="35.275" fill="#FFFFFF" width="6" height="2"/>
				</g>
				<g>
					<path fill="#FFFFFF" d="M71.5,42.275h-2v-13h5c1.654,0,3,1.346,3,3v2c0,1.654-1.346,3-3,3h-3V42.275z M71.5,35.275h3
						c0.551,0,1-0.449,1-1v-2c0-0.551-0.449-1-1-1h-3V35.275z"/>
				</g>
			</g>
			<g>
				<path fill="#FFFFFF" d="M78.5,46.275h-40c-1.654,0-3-1.346-3-3v-15c0-1.654,1.346-3,3-3h40c1.654,0,3,1.346,3,3v15
					C81.5,44.93,80.154,46.275,78.5,46.275z M38.5,27.275c-0.551,0-1,0.449-1,1v15c0,0.551,0.449,1,1,1h40c0.551,0,1-0.449,1-1v-15
					c0-0.551-0.449-1-1-1H38.5z"/>
			</g>
			<g>
				<path fill="#FFFFFF" d="M85.5,57.275c-2.205,0-4-1.795-4-4h2c0,1.104,0.896,2,2,2s2-0.896,2-2v-10h-4v-2h6v12
					C89.5,55.48,87.705,57.275,85.5,57.275z"/>
			</g>
			<g>
				<g>
					<rect x="34.5" y="76.275" fill="#FFFFFF" width="2" height="12"/>
				</g>
				<g>
					<path fill="#FFFFFF" d="M35.5,85.275c-5.72,0-9-2.551-9-7c0-4.646,7.39-13.632,8.232-14.641c0.38-0.455,1.155-0.455,1.535,0
						c0.843,1.009,8.232,9.994,8.232,14.641C44.5,82.725,41.22,85.275,35.5,85.275z M35.5,65.861c-2.488,3.135-7,9.433-7,12.414
						c0,3.318,2.355,5,7,5s7-1.682,7-5C42.5,75.291,37.988,68.994,35.5,65.861z"/>
				</g>
			</g>
			<g>
				<rect x="26.5" y="87.275" fill="#FFFFFF" width="64" height="2"/>
			</g>
		</g>
	</g>
</g>
</svg>
