<?xml version="1.0" encoding="utf-8"?>
<!-- Generator: Adobe Illustrator 13.0.1, SVG Export Plug-In . SVG Version: 6.00 Build 14948)  -->
<!DOCTYPE svg PUBLIC "-//W3C//DTD SVG 1.1//EN" "http://www.w3.org/Graphics/SVG/1.1/DTD/svg11.dtd">
<svg version="1.1" id="圖層_1" xmlns="http://www.w3.org/2000/svg" xmlns:xlink="http://www.w3.org/1999/xlink" x="0px" y="0px"
	 width="245.104px" height="39.619px" viewBox="0 0 245.104 39.619" enable-background="new 0 0 245.104 39.619"
	 xml:space="preserve">
<g>
	<path fill="#FFFFFF" d="M17.026,17.906V15.59h6.642V4.26c0.14-1.559,1.222-2.256,1.222-2.256l-4.233-0.3v12.737h-6.603
		l0.015,13.028l2.957-0.944v-7.43h2.966h0.04v8.374l2.979-0.944v-7.43h2.194h0.071c0-1.084,0.45-1.189,0.45-1.189H17.026z
		 M19.193,1.122H6.474v11.853h12.719V1.122z M16.181,11.813H9.468V9.407h6.713V11.813z M16.181,8.252H9.468V5.814h6.713V8.252z
		 M16.181,4.669H9.468V2.253h6.713V4.669z M4.96,14.441V2.253L1.778,1.667c0,0,0.164,4.924,0.164,6.234v2.078
		c0,1.596-0.23,5.611-0.23,5.611h7.341v2.315c0,0-6.009-0.011-6.196,0C1.689,17.891,0.98,17.867,0,17.712
		c0.266,0.54,0.436,0.901,0.352,1.424c0.529-0.055,0.936-0.021,1.883-0.041h0.917v1.722c0,3.118-1.21,5.771-2.143,7.127
		c0,0,1.139-0.659,1.899-1.146c2.838-1.814,3.26-4.177,3.26-5.729v-1.974h2.885v8.374l2.949-0.944V14.441H4.96z"/>
	<path fill="#FFFFFF" d="M41.063,21.179c-0.752-1.149-3.139-2.356-4.49-2.826v-1.178c2.381,0,4.411-0.008,4.411-0.008
		c0.068-0.66,0.449-1.146,0.449-1.146l-4.86-0.012v-0.26c0.063-1.745,1.038-2.1,1.038-2.1l-3.958-0.82v2.428v0.752h-1.2
		c0,0-3.063-0.092-3.459-0.146c0.273,0.516,0.302,0.845,0.33,1.304c0,0,1.094,0.016,2.599,0.016
		c-0.055,0.471-0.148,1.155-0.324,1.868c-0.811,3.52-3.109,6.505-4.305,7.911c0,0,1.3-0.582,2.157-1.009
		c2.71-1.366,3.754-3.415,4.202-5.092v6.709l2.92-0.917v-7.253c0.878,0.921,1.672,2.227,2.237,3.768
		c0.12,0.329,0.228,0.667,0.328,0.988c0.076,0.152,0.162,0.138,0.319-0.124c0.438-0.879,0.957-1.604,1.668-2.415
		C41.254,21.496,41.173,21.36,41.063,21.179 M52.416,10.297c-1.303,0-5.709,0.19-5.709,0.19s-0.5-0.004-1.122-0.033V8.811V5.16
		c2.967-0.234,4.09-0.386,7.293-0.932c1.976-0.383,2.081-0.11,2.54-0.233c-0.116-0.322-1.763-2.453-2.351-3.1
		c-0.543-0.61-0.659-0.298-1.345-0.015c-0.664,0.255-6.189,2.833-6.189,2.833s-1.96-0.873-2.748-1.27
		c-0.135-0.02-0.204,0.068-0.237,0.258v1.792v4.317v2.862c0,4.125-0.805,11.121-2.281,14.708c-0.458,0.853-0.637,1.336-0.563,1.447
		c0.058,0.118,0.192,0.118,0.397,0c2.577-2.047,4.201-5.335,4.885-9.886c0.266-1.78,0.457-4.268,0.547-6.272h3.24v15.901
		l2.949-0.917V11.656c2.115,0,3.16-0.009,3.16-0.009c0.174-1.053,0.589-1.743,0.736-1.811C55.098,9.951,52.86,10.297,52.416,10.297
		 M41.137,10.887h-3.701c-0.331,0.431-0.653,0.808-0.928,1.166c2.268-0.02,4.181-0.02,4.181-0.02
		C40.74,11.379,41.137,10.887,41.137,10.887 M32.74,12.053c-0.167-0.358-0.354-0.769-0.561-1.176
		c-0.715-0.041-2.888-0.09-3.231-0.146c0.264,0.522,0.32,0.844,0.343,1.302C29.291,12.033,30.824,12.053,32.74,12.053 M41.731,4.445
		c0.056-0.683,0.451-1.154,0.451-1.154h-5.129V3.218c0-1.463,0.812-2.09,0.812-2.09l-3.757-0.827v2.95
		c-1.205-0.009-4.297-0.044-4.862-0.13c0.269,0.532,0.345,1.324,0.345,1.324H41.731z M34.304,12.448v-0.012V12.448z M34.476,12.487
		c0.044-0.012,0.088-0.061,0.088-0.061c0.811-0.992,5.034-6.237,6.272-7.766c0.005-0.01,0.005-0.038,0.005-0.038
		c-0.016-0.021-0.033-0.021-0.033-0.021l-0.041,0.011c-1.491,1.235-5.24,3.828-9.182,1.906H31.58h-0.048
		c-0.008,0.013-0.038,0.025-0.023,0.053c0.36,0.759,2.323,4.9,2.795,5.865C34.332,12.514,34.422,12.533,34.476,12.487"/>
	<polygon fill="#FFFFFF" points="62.178,39.619 62.178,0 62.479,0 62.479,39.619 62.178,39.619 	"/>
	<polygon fill="#FFFFFF" points="81.956,2.541 75.964,2.541 73.022,2.541 73.022,11.494 81.524,11.494 81.31,13.177 73.022,13.177 
		73.022,22.704 82.602,22.704 82.207,24.354 68.538,24.39 68.538,0.891 82.351,0.891 	"/>
	<path fill="#FFFFFF" d="M95.158,0.837c0.359,0.012,0.67,0.03,0.933,0.054c0.55,0.023,0.921,0.071,1.112,0.143
		c1.292,0.479,2.272,1.148,2.942,2.009c0.646,0.861,0.969,1.926,0.969,3.193c0,1.627-0.455,2.954-1.364,3.982
		c-0.909,1.005-2.26,1.687-4.054,2.046l5.274,8.071c0.215,0.359,0.419,0.682,0.61,0.969s0.377,0.58,0.556,0.879
		c0.18,0.3,0.371,0.623,0.574,0.969c0.203,0.348,0.436,0.735,0.7,1.166h-5.166l-7.642-11.983v12.019h-4.485V0.819h7.821
		C94.393,0.819,94.799,0.825,95.158,0.837 M90.602,11.725h1.758c1.339,0,2.332-0.37,2.978-1.112c0.597-0.718,0.92-1.913,0.968-3.588
		c0-1.65-0.311-2.834-0.933-3.551c-0.598-0.742-1.602-1.113-3.013-1.113h-1.758V11.725z"/>
	<path fill="#FFFFFF" d="M118.191,2.613c1.315,1.219,1.973,2.917,1.973,5.094c0,2.176-0.742,3.899-2.224,5.166
		c-1.483,1.268-3.493,1.902-6.027,1.902h-0.79c-0.311,0-0.706-0.024-1.184-0.072h-0.43v4.449v5.202h-4.485V0.819h7.642
		C115.034,0.819,116.875,1.417,118.191,2.613 M109.437,13.196h0.287c0.095,0,0.191,0.012,0.287,0.036h0.681
		c1.412,0,2.499-0.467,3.266-1.399c0.74-0.933,1.111-2.284,1.111-4.054c0-1.674-0.322-2.978-0.968-3.911s-1.543-1.399-2.691-1.399
		h-1.973V13.196z"/>
	<polygon fill="#FFFFFF" points="146.139,0.819 145.996,2.649 138.82,2.649 138.82,24.354 134.336,24.354 134.336,2.649 
		127.017,2.649 127.053,0.819 	"/>
	<path fill="#FFFFFF" d="M157.479,24.354h-4.377v-5.669V5.483l-5.059,1.291l-0.396-1.291c1.459-0.598,3.05-1.351,4.772-2.26
		c1.65-0.862,3.336-1.866,5.059-3.014V24.354z"/>
	<path fill="#FFFFFF" d="M166.771,3.653c1.507-2.129,3.647-3.193,6.423-3.193c2.486,0,4.436,1.076,5.847,3.229
		c1.411,2.129,2.117,5.142,2.117,9.041c0,3.899-0.766,6.912-2.296,9.041c-1.507,2.152-3.624,3.229-6.351,3.229
		c-2.631,0-4.628-1.063-5.991-3.192c-1.388-2.129-2.081-5.214-2.081-9.257C164.438,8.796,165.216,5.829,166.771,3.653
		 M169.964,4.801c-0.599,1.722-0.897,4.449-0.897,8.18c0,3.564,0.287,6.183,0.861,7.857s1.459,2.511,2.654,2.511
		c1.221,0,2.177-0.86,2.871-2.583c0.646-1.722,0.968-4.245,0.968-7.57c0-3.922-0.286-6.745-0.86-8.467
		c-0.574-1.722-1.507-2.583-2.799-2.583C171.494,2.146,170.562,3.031,169.964,4.801"/>
	<path fill="#FFFFFF" d="M185.14,3.653c1.506-2.129,3.647-3.193,6.422-3.193c2.487,0,4.437,1.076,5.848,3.229
		c1.411,2.129,2.117,5.142,2.117,9.041c0,3.899-0.766,6.912-2.297,9.041c-1.506,2.152-3.624,3.229-6.35,3.229
		c-2.631,0-4.628-1.063-5.991-3.192c-1.388-2.129-2.081-5.214-2.081-9.257C182.808,8.796,183.585,5.829,185.14,3.653 M188.333,4.801
		c-0.599,1.722-0.897,4.449-0.897,8.18c0,3.564,0.287,6.183,0.861,7.857s1.459,2.511,2.654,2.511c1.221,0,2.177-0.86,2.871-2.583
		c0.646-1.722,0.968-4.245,0.968-7.57c0-3.922-0.286-6.745-0.86-8.467c-0.575-1.722-1.507-2.583-2.799-2.583
		C189.863,2.146,188.931,3.031,188.333,4.801"/>
	<polygon fill="#FFFFFF" points="74.683,37.207 68.833,37.207 68.833,29.429 74.514,29.429 74.514,30.457 70.042,30.457 
		70.042,32.639 74.227,32.639 74.227,33.657 70.042,33.657 70.042,36.178 74.683,36.178 	"/>
	<path fill="#FFFFFF" d="M80.366,37.207h-1.134v-3.157c0-0.523-0.046-0.901-0.137-1.134c-0.17-0.382-0.499-0.572-0.986-0.572
		c-0.261,0-0.501,0.063-0.72,0.19c-0.227,0.127-0.385,0.282-0.477,0.466c-0.163,0.311-0.244,0.767-0.244,1.367v2.84h-1.134V31.58
		h1.039v0.827l0.074-0.021c0.417-0.621,1.024-0.933,1.823-0.933c0.346,0,0.67,0.071,0.974,0.212
		c0.304,0.142,0.523,0.332,0.657,0.572c0.12,0.233,0.198,0.477,0.233,0.731c0.022,0.177,0.032,0.487,0.032,0.933V37.207z"/>
	<path fill="#FFFFFF" d="M83.942,37.154c-0.282,0.092-0.579,0.138-0.89,0.138c-0.635,0-1.049-0.188-1.239-0.562
		c-0.114-0.227-0.17-0.672-0.17-1.336v-2.956h-0.71V31.57h0.71v-1.314l1.155-0.667v1.981h1.017v0.868h-1.017v2.883
		c0,0.388,0.024,0.639,0.074,0.752c0.064,0.169,0.205,0.254,0.424,0.254c0.197,0,0.371-0.027,0.519-0.085L83.942,37.154z"/>
	<path fill="#FFFFFF" d="M89.342,34.685h-4.048c0.021,0.536,0.17,0.968,0.445,1.292c0.269,0.318,0.639,0.477,1.112,0.477
		c0.601,0,1.028-0.328,1.283-0.985l1.144,0.159c-0.36,1.13-1.18,1.695-2.458,1.695c-0.982,0-1.706-0.339-2.172-1.017
		c-0.34-0.509-0.509-1.141-0.509-1.897c0-0.805,0.198-1.479,0.593-2.023c0.466-0.629,1.131-0.943,1.992-0.943
		c0.89,0,1.561,0.308,2.014,0.922C89.155,32.936,89.356,33.709,89.342,34.685 M88.176,33.89c-0.057-1.053-0.526-1.579-1.409-1.579
		c-0.537,0-0.936,0.223-1.197,0.668c-0.163,0.275-0.255,0.579-0.276,0.911H88.176z"/>
	<path fill="#FFFFFF" d="M93.481,31.708l-0.371,1.027c-0.254-0.148-0.502-0.223-0.741-0.223c-0.721,0-1.081,0.773-1.081,2.32v2.374
		h-1.155V31.58h1.059v0.838h0.096c0.339-0.644,0.741-0.965,1.208-0.965C92.807,31.453,93.135,31.538,93.481,31.708"/>
	<path fill="#FFFFFF" d="M99.118,34.325c0,0.925-0.247,1.663-0.741,2.214c-0.446,0.509-0.997,0.764-1.654,0.764
		c-0.677,0-1.2-0.259-1.568-0.774l-0.074-0.01v2.808h-1.134V31.57h1.039v0.794l0.074-0.021c0.374-0.601,0.939-0.901,1.695-0.901
		c0.728,0,1.307,0.272,1.738,0.816C98.91,32.788,99.118,33.477,99.118,34.325 M97.942,34.334c0-0.678-0.145-1.197-0.435-1.557
		c-0.261-0.312-0.596-0.467-1.006-0.467c-0.424,0-0.77,0.169-1.038,0.509c-0.297,0.374-0.445,0.907-0.445,1.6
		c0,0.672,0.158,1.18,0.476,1.526c0.269,0.296,0.597,0.444,0.986,0.444c0.579,0,0.992-0.275,1.239-0.827
		C97.868,35.225,97.942,34.814,97.942,34.334"/>
	<path fill="#FFFFFF" d="M103.29,31.708l-0.371,1.027c-0.254-0.148-0.502-0.223-0.741-0.223c-0.721,0-1.081,0.773-1.081,2.32v2.374
		h-1.155V31.58H101v0.838h0.096c0.339-0.644,0.741-0.965,1.208-0.965C102.616,31.453,102.943,31.538,103.29,31.708"/>
	<path fill="#FFFFFF" d="M104.963,30.584h-1.197v-1.155h1.197V30.584z M104.963,37.207h-1.197v-5.605h1.197V37.207z"/>
	<path fill="#FFFFFF" d="M110.732,35.479c0,0.487-0.184,0.904-0.551,1.251c-0.445,0.396-1.074,0.593-1.886,0.593
		c-0.756,0-1.36-0.184-1.812-0.551c-0.368-0.304-0.601-0.695-0.699-1.176l1.123-0.159c0.134,0.692,0.593,1.038,1.377,1.038
		c0.261,0,0.498-0.038,0.71-0.116c0.374-0.142,0.562-0.378,0.562-0.71c0-0.318-0.276-0.54-0.827-0.668
		c-1.024-0.239-1.705-0.455-2.045-0.646c-0.494-0.282-0.742-0.691-0.742-1.229c0-0.522,0.216-0.937,0.647-1.24
		c0.388-0.282,0.879-0.424,1.473-0.424c1.426,0,2.239,0.495,2.437,1.483l-1.081,0.181c-0.113-0.544-0.526-0.815-1.24-0.815
		c-0.282,0-0.526,0.043-0.731,0.127c-0.282,0.112-0.423,0.29-0.423,0.529c0,0.19,0.095,0.339,0.285,0.445
		c0.198,0.113,0.566,0.229,1.102,0.35c0.799,0.184,1.349,0.367,1.653,0.551C110.509,34.568,110.732,34.963,110.732,35.479"/>
	<path fill="#FFFFFF" d="M116.473,34.685h-4.048c0.021,0.536,0.17,0.968,0.445,1.292c0.269,0.318,0.639,0.477,1.112,0.477
		c0.601,0,1.028-0.328,1.283-0.985l1.144,0.159c-0.36,1.13-1.18,1.695-2.458,1.695c-0.982,0-1.706-0.339-2.172-1.017
		c-0.34-0.509-0.509-1.141-0.509-1.897c0-0.805,0.198-1.479,0.593-2.023c0.466-0.629,1.131-0.943,1.992-0.943
		c0.89,0,1.561,0.308,2.014,0.922C116.286,32.936,116.487,33.709,116.473,34.685 M115.307,33.89
		c-0.057-1.053-0.526-1.579-1.409-1.579c-0.537,0-0.936,0.223-1.197,0.668c-0.163,0.275-0.255,0.579-0.276,0.911H115.307z"/>
	<path fill="#FFFFFF" d="M126.568,37.207h-1.483l-1.103-1.653c-0.515-0.784-0.897-1.271-1.144-1.462
		c-0.247-0.19-0.621-0.286-1.123-0.286h-0.847v3.401h-1.208v-7.777h3.39c0.742,0,1.307,0.074,1.696,0.223
		c0.381,0.134,0.686,0.392,0.911,0.773c0.204,0.339,0.307,0.717,0.307,1.134c0,0.777-0.304,1.349-0.911,1.716
		c-0.354,0.213-0.77,0.343-1.25,0.393v0.096c0.282,0.134,0.516,0.282,0.699,0.444c0.282,0.262,0.598,0.664,0.943,1.208
		L126.568,37.207z M124.703,31.633c0-0.502-0.233-0.845-0.699-1.028c-0.262-0.099-0.654-0.148-1.176-0.148h-1.96v2.374h1.801
		c0.628,0,1.081-0.057,1.356-0.17C124.478,32.484,124.703,32.142,124.703,31.633"/>
	<path fill="#FFFFFF" d="M131.786,34.685h-4.048c0.021,0.536,0.17,0.968,0.445,1.292c0.269,0.318,0.64,0.477,1.112,0.477
		c0.601,0,1.028-0.328,1.282-0.985l1.146,0.159c-0.361,1.13-1.181,1.695-2.458,1.695c-0.983,0-1.707-0.339-2.174-1.017
		c-0.339-0.509-0.508-1.141-0.508-1.897c0-0.805,0.197-1.479,0.593-2.023c0.467-0.629,1.131-0.943,1.992-0.943
		c0.89,0,1.562,0.308,2.015,0.922C131.6,32.936,131.8,33.709,131.786,34.685 M130.62,33.89c-0.056-1.053-0.525-1.579-1.409-1.579
		c-0.536,0-0.936,0.223-1.197,0.668c-0.162,0.275-0.254,0.579-0.275,0.911H130.62z"/>
	<path fill="#FFFFFF" d="M137.26,35.479c0,0.487-0.184,0.904-0.551,1.251c-0.445,0.396-1.073,0.593-1.886,0.593
		c-0.756,0-1.36-0.184-1.813-0.551c-0.367-0.304-0.6-0.695-0.699-1.176l1.123-0.159c0.135,0.692,0.594,1.038,1.378,1.038
		c0.261,0,0.498-0.038,0.71-0.116c0.374-0.142,0.562-0.378,0.562-0.71c0-0.318-0.275-0.54-0.826-0.668
		c-1.024-0.239-1.706-0.455-2.045-0.646c-0.495-0.282-0.742-0.691-0.742-1.229c0-0.522,0.216-0.937,0.646-1.24
		c0.389-0.282,0.879-0.424,1.473-0.424c1.427,0,2.239,0.495,2.438,1.483l-1.081,0.181c-0.113-0.544-0.526-0.815-1.24-0.815
		c-0.282,0-0.526,0.043-0.73,0.127c-0.283,0.112-0.424,0.29-0.424,0.529c0,0.19,0.095,0.339,0.286,0.445
		c0.197,0.113,0.564,0.229,1.102,0.35c0.798,0.184,1.35,0.367,1.653,0.551C137.037,34.568,137.26,34.963,137.26,35.479"/>
	<path fill="#FFFFFF" d="M143.317,34.367c0,0.89-0.261,1.607-0.784,2.151c-0.509,0.536-1.169,0.806-1.981,0.806
		c-0.756,0-1.381-0.227-1.875-0.679c-0.587-0.516-0.88-1.247-0.88-2.193c0-0.989,0.283-1.756,0.848-2.3
		c0.495-0.473,1.134-0.71,1.918-0.71c0.826,0,1.49,0.272,1.992,0.816C143.063,32.788,143.317,33.492,143.317,34.367 M142.152,34.345
		c0-0.643-0.163-1.144-0.487-1.504c-0.29-0.325-0.657-0.487-1.103-0.487c-0.424,0-0.78,0.145-1.07,0.434
		c-0.36,0.354-0.54,0.884-0.54,1.59s0.184,1.239,0.551,1.6c0.297,0.29,0.65,0.435,1.06,0.435c0.389,0,0.721-0.127,0.996-0.382
		C141.954,35.67,142.152,35.109,142.152,34.345"/>
	<path fill="#FFFFFF" d="M148.951,37.196h-1.018v-0.858l-0.096,0.021c-0.438,0.643-1.042,0.964-1.812,0.964
		c-0.339,0-0.66-0.074-0.964-0.223c-0.304-0.141-0.52-0.332-0.646-0.572c-0.184-0.353-0.275-0.829-0.275-1.43V31.57h1.134v2.85
		c0,0.771,0.07,1.271,0.212,1.506c0.184,0.324,0.49,0.486,0.922,0.486c0.254,0,0.494-0.067,0.721-0.201
		c0.226-0.119,0.381-0.269,0.466-0.445c0.148-0.297,0.223-0.795,0.223-1.494V31.57h1.134V37.196z"/>
	<path fill="#FFFFFF" d="M153.407,31.708l-0.371,1.027c-0.254-0.148-0.501-0.223-0.741-0.223c-0.721,0-1.081,0.773-1.081,2.32v2.374
		h-1.154V31.58h1.06v0.838h0.095c0.34-0.644,0.742-0.965,1.208-0.965C152.732,31.453,153.062,31.538,153.407,31.708"/>
	<path fill="#FFFFFF" d="M158.532,35.31c-0.104,0.564-0.346,1.027-0.721,1.388c-0.451,0.417-1.034,0.625-1.748,0.625
		c-1.031,0-1.766-0.392-2.204-1.176c-0.282-0.494-0.424-1.084-0.424-1.77c0-0.854,0.212-1.544,0.636-2.066
		c0.467-0.579,1.145-0.869,2.035-0.869c0.854,0,1.487,0.262,1.896,0.784c0.232,0.297,0.392,0.653,0.477,1.07l-1.102,0.17
		c-0.163-0.742-0.58-1.112-1.251-1.112c-0.593,0-1.017,0.258-1.271,0.773c-0.162,0.332-0.243,0.728-0.243,1.187
		c0,0.522,0.081,0.957,0.243,1.303c0.247,0.53,0.661,0.795,1.24,0.795c0.756,0,1.197-0.42,1.324-1.261L158.532,35.31z"/>
	<path fill="#FFFFFF" d="M164.157,34.685h-4.048c0.021,0.536,0.17,0.968,0.444,1.292c0.27,0.318,0.641,0.477,1.113,0.477
		c0.601,0,1.028-0.328,1.282-0.985l1.145,0.159c-0.36,1.13-1.18,1.695-2.458,1.695c-0.982,0-1.707-0.339-2.173-1.017
		c-0.339-0.509-0.508-1.141-0.508-1.897c0-0.805,0.197-1.479,0.593-2.023c0.466-0.629,1.13-0.943,1.992-0.943
		c0.889,0,1.562,0.308,2.014,0.922C163.97,32.936,164.171,33.709,164.157,34.685 M162.991,33.89
		c-0.056-1.053-0.525-1.579-1.409-1.579c-0.536,0-0.936,0.223-1.197,0.668c-0.162,0.275-0.254,0.579-0.275,0.911H162.991z"/>
	<path fill="#FFFFFF" d="M173.279,31.739c0,1.067-0.449,1.781-1.346,2.141c-0.389,0.162-0.979,0.243-1.771,0.243h-1.61v3.084h-1.208
		v-7.777h2.734c1.073,0,1.801,0.109,2.183,0.328C172.939,30.146,173.279,30.806,173.279,31.739 M172.018,31.75
		c0-0.544-0.194-0.915-0.582-1.112c-0.248-0.12-0.714-0.181-1.399-0.181h-1.483v2.649h1.537
		C171.375,33.106,172.018,32.654,172.018,31.75"/>
	<rect x="174.089" y="29.429" fill="#FFFFFF" width="1.196" height="7.777"/>
	<path fill="#FFFFFF" d="M181.374,37.196h-1.134c-0.092-0.227-0.163-0.47-0.212-0.731c-0.594,0.572-1.247,0.858-1.961,0.858
		c-0.593,0-1.063-0.148-1.409-0.444c-0.339-0.297-0.509-0.689-0.509-1.177c0-0.607,0.283-1.063,0.848-1.367
		c0.297-0.155,0.731-0.282,1.304-0.381c0.77-0.12,1.317-0.24,1.643-0.36c0.014-0.226,0.011-0.417-0.011-0.572
		c-0.035-0.275-0.209-0.473-0.52-0.594c-0.197-0.077-0.406-0.116-0.625-0.116c-0.466,0-0.805,0.081-1.017,0.244
		c-0.156,0.127-0.279,0.35-0.371,0.667l-1.081-0.201c0.177-0.473,0.406-0.826,0.688-1.06c0.424-0.346,1.035-0.52,1.833-0.52
		c0.834,0,1.441,0.185,1.823,0.552c0.155,0.155,0.265,0.335,0.328,0.54c0.063,0.233,0.096,0.579,0.096,1.038l-0.011,2.034
		C181.077,36.25,181.176,36.779,181.374,37.196 M179.943,34.356c-0.325,0.127-0.799,0.244-1.42,0.35
		c-0.806,0.148-1.208,0.452-1.208,0.911c0,0.22,0.077,0.406,0.233,0.562c0.197,0.22,0.487,0.329,0.868,0.329
		c0.601,0,1.042-0.233,1.325-0.699C179.876,35.582,179.943,35.098,179.943,34.356"/>
	<path fill="#FFFFFF" d="M186.984,37.207h-1.134v-3.157c0-0.523-0.046-0.901-0.138-1.134c-0.169-0.382-0.498-0.572-0.985-0.572
		c-0.262,0-0.502,0.063-0.721,0.19c-0.226,0.127-0.385,0.282-0.477,0.466c-0.162,0.311-0.244,0.767-0.244,1.367v2.84h-1.133V31.58
		h1.038v0.827l0.074-0.021c0.416-0.621,1.023-0.933,1.822-0.933c0.346,0,0.671,0.071,0.975,0.212
		c0.304,0.142,0.522,0.332,0.657,0.572c0.12,0.233,0.197,0.477,0.233,0.731c0.021,0.177,0.031,0.487,0.031,0.933V37.207z"/>
	<path fill="#FFFFFF" d="M192.935,37.207h-1.134v-3.157c0-0.523-0.046-0.901-0.138-1.134c-0.169-0.382-0.499-0.572-0.985-0.572
		c-0.262,0-0.502,0.063-0.721,0.19c-0.226,0.127-0.385,0.282-0.477,0.466c-0.162,0.311-0.244,0.767-0.244,1.367v2.84h-1.133V31.58
		h1.038v0.827l0.074-0.021c0.416-0.621,1.023-0.933,1.822-0.933c0.346,0,0.671,0.071,0.975,0.212
		c0.304,0.142,0.522,0.332,0.657,0.572c0.119,0.233,0.197,0.477,0.233,0.731c0.021,0.177,0.031,0.487,0.031,0.933V37.207z"/>
	<path fill="#FFFFFF" d="M195.26,30.584h-1.197v-1.155h1.197V30.584z M195.26,37.207h-1.197v-5.605h1.197V37.207z"/>
	<path fill="#FFFFFF" d="M201.262,37.207h-1.134v-3.157c0-0.523-0.046-0.901-0.137-1.134c-0.17-0.382-0.499-0.572-0.986-0.572
		c-0.262,0-0.502,0.063-0.721,0.19c-0.226,0.127-0.385,0.282-0.477,0.466c-0.162,0.311-0.244,0.767-0.244,1.367v2.84h-1.133V31.58
		h1.038v0.827l0.074-0.021c0.416-0.621,1.023-0.933,1.823-0.933c0.345,0,0.67,0.071,0.974,0.212
		c0.304,0.142,0.522,0.332,0.657,0.572c0.12,0.233,0.197,0.477,0.233,0.731c0.021,0.177,0.031,0.487,0.031,0.933V37.207z"/>
	<path fill="#FFFFFF" d="M207.31,36.528c0,1.046-0.155,1.756-0.467,2.13c-0.437,0.537-1.119,0.806-2.045,0.806
		c-1.688,0-2.521-0.59-2.5-1.77l1.229,0.159c0.085,0.501,0.459,0.752,1.123,0.752c0.686,0,1.138-0.198,1.356-0.594
		c0.085-0.147,0.134-0.324,0.148-0.529c0.014-0.142,0.021-0.522,0.021-1.145l-0.085,0.021c-0.438,0.544-0.985,0.815-1.644,0.815
		c-0.74,0-1.33-0.3-1.769-0.9c-0.381-0.529-0.572-1.176-0.572-1.939c0-0.875,0.215-1.573,0.646-2.098
		c0.431-0.529,1.01-0.795,1.738-0.795c0.699,0,1.261,0.286,1.685,0.858l0.085,0.011V31.57h1.049V36.528z M206.218,34.24
		c0-0.487-0.099-0.904-0.297-1.25c-0.261-0.452-0.66-0.679-1.197-0.679c-0.522,0-0.911,0.227-1.165,0.679
		c-0.198,0.359-0.297,0.809-0.297,1.345c0,0.545,0.116,0.989,0.35,1.336c0.262,0.396,0.632,0.593,1.112,0.593
		c0.389,0,0.734-0.148,1.039-0.445C206.066,35.522,206.218,34.996,206.218,34.24"/>
	<path fill="#FFFFFF" d="M216.685,34.97c0,0.622-0.212,1.142-0.636,1.558c-0.522,0.53-1.328,0.796-2.416,0.796
		c-1.08,0-1.899-0.287-2.458-0.859c-0.438-0.438-0.685-1.01-0.741-1.716l1.176-0.117c0.035,0.339,0.145,0.64,0.328,0.902
		c0.375,0.515,0.947,0.772,1.717,0.772c0.544,0,0.985-0.113,1.324-0.34c0.332-0.225,0.498-0.533,0.498-0.922
		c0-0.367-0.177-0.649-0.529-0.848c-0.233-0.134-0.707-0.289-1.42-0.466c-0.863-0.212-1.47-0.424-1.822-0.636
		c-0.65-0.396-0.975-0.95-0.975-1.663c0-0.601,0.225-1.096,0.678-1.482c0.509-0.439,1.204-0.658,2.087-0.658
		c0.848,0,1.529,0.18,2.044,0.54c0.56,0.402,0.859,0.982,0.902,1.738l-1.188,0.074c-0.12-0.891-0.695-1.336-1.727-1.336
		c-0.452,0-0.83,0.085-1.134,0.255c-0.347,0.19-0.52,0.455-0.52,0.795c0,0.296,0.135,0.526,0.403,0.688
		c0.268,0.162,0.759,0.325,1.473,0.487c0.911,0.212,1.554,0.431,1.929,0.657C216.35,33.593,216.685,34.187,216.685,34.97"/>
	<path fill="#FFFFFF" d="M222.542,31.57l-2.088,5.594c-0.339,0.897-0.604,1.466-0.795,1.706c-0.305,0.396-0.745,0.594-1.324,0.594
		c-0.289,0-0.54-0.032-0.752-0.096l-0.116-0.933c0.19,0.05,0.377,0.074,0.562,0.074c0.317,0,0.562-0.092,0.73-0.275
		c0.17-0.177,0.336-0.512,0.498-1.006l-2.161-5.658h1.219l1.483,4.248h0.105l1.483-4.248H222.542z"/>
	<path fill="#FFFFFF" d="M227.675,35.479c0,0.487-0.184,0.904-0.551,1.251c-0.445,0.396-1.073,0.593-1.887,0.593
		c-0.755,0-1.359-0.184-1.812-0.551c-0.367-0.304-0.6-0.695-0.699-1.176l1.123-0.159c0.135,0.692,0.594,1.038,1.378,1.038
		c0.26,0,0.498-0.038,0.71-0.116c0.374-0.142,0.562-0.378,0.562-0.71c0-0.318-0.275-0.54-0.826-0.668
		c-1.024-0.239-1.706-0.455-2.045-0.646c-0.495-0.282-0.742-0.691-0.742-1.229c0-0.522,0.216-0.937,0.646-1.24
		c0.389-0.282,0.879-0.424,1.473-0.424c1.427,0,2.239,0.495,2.438,1.483l-1.081,0.181c-0.113-0.544-0.526-0.815-1.24-0.815
		c-0.282,0-0.526,0.043-0.73,0.127c-0.283,0.112-0.424,0.29-0.424,0.529c0,0.19,0.095,0.339,0.286,0.445
		c0.197,0.113,0.564,0.229,1.102,0.35c0.798,0.184,1.35,0.367,1.653,0.551C227.452,34.568,227.675,34.963,227.675,35.479"/>
	<path fill="#FFFFFF" d="M230.977,37.154c-0.282,0.092-0.579,0.138-0.89,0.138c-0.636,0-1.049-0.188-1.24-0.562
		c-0.112-0.227-0.169-0.672-0.169-1.336v-2.956h-0.71V31.57h0.71v-1.314l1.154-0.667v1.981h1.018v0.868h-1.018v2.883
		c0,0.388,0.025,0.639,0.074,0.752c0.063,0.169,0.205,0.254,0.424,0.254c0.198,0,0.371-0.027,0.52-0.085L230.977,37.154z"/>
	<path fill="#FFFFFF" d="M236.376,34.685h-4.048c0.021,0.536,0.17,0.968,0.445,1.292c0.269,0.318,0.64,0.477,1.112,0.477
		c0.601,0,1.028-0.328,1.282-0.985l1.145,0.159c-0.36,1.13-1.18,1.695-2.458,1.695c-0.982,0-1.706-0.339-2.173-1.017
		c-0.339-0.509-0.508-1.141-0.508-1.897c0-0.805,0.197-1.479,0.593-2.023c0.467-0.629,1.13-0.943,1.992-0.943
		c0.89,0,1.562,0.308,2.015,0.922C236.189,32.936,236.39,33.709,236.376,34.685 M235.21,33.89c-0.056-1.053-0.525-1.579-1.409-1.579
		c-0.536,0-0.936,0.223-1.197,0.668c-0.162,0.275-0.254,0.579-0.275,0.911H235.21z"/>
	<path fill="#FFFFFF" d="M245.104,37.207h-1.123v-3.412c0-0.438-0.042-0.756-0.127-0.953c-0.142-0.332-0.424-0.498-0.848-0.498
		c-0.212,0-0.42,0.057-0.625,0.169c-0.205,0.12-0.354,0.266-0.445,0.435c-0.162,0.304-0.243,0.721-0.243,1.25v3.01h-1.124v-3.401
		c0-0.431-0.038-0.749-0.116-0.954c-0.148-0.339-0.42-0.508-0.815-0.508c-0.24,0-0.467,0.057-0.679,0.169
		c-0.197,0.12-0.343,0.262-0.435,0.423c-0.148,0.298-0.222,0.774-0.222,1.432v2.84h-1.134V31.58h1.027v0.795l0.074-0.021
		c0.409-0.601,0.985-0.901,1.729-0.901c0.762,0,1.288,0.332,1.577,0.996c0.474-0.664,1.066-0.996,1.78-0.996
		c1.166,0,1.748,0.664,1.748,1.992V37.207z"/>
</g>
</svg>
