<svg data-name="圖層 3" xmlns="http://www.w3.org/2000/svg" viewBox="0 0 1118 610">
  <defs>
    <clipPath id="a">
      <path d="M845.58 124c-2.51 0-4.54 2.37-4.54 5.29v21.16c0 2.92 2 5.29 4.54 5.29h80c2.51 0 4.54-2.37 4.54-5.29v-21.2c0-2.92-2-5.29-4.54-5.29z" fill="#6cad00" clip-rule="evenodd"/>
    </clipPath>
    <clipPath id="b">
      <path d="M845.54 162.54c-2.49 0-4.5 2.34-4.5 5.24v21c0 2.9 2 5.25 4.5 5.25h80c2.48 0 4.5-2.35 4.5-5.25v-21c0-2.9-2-5.24-4.5-5.24z" fill="#00adf0" clip-rule="evenodd"/>
    </clipPath>
    <clipPath id="c">
      <path d="M845.58 199.85c-2.51 0-4.54 2.37-4.54 5.29v21.16c0 2.92 2 5.28 4.54 5.28h80c2.51 0 4.54-2.36 4.54-5.28v-21.16c0-2.92-2-5.29-4.54-5.29z" fill="#6cad00" clip-rule="evenodd"/>
    </clipPath>
    <clipPath id="d">
      <path d="M845.54 238.42c-2.49 0-4.5 2.35-4.5 5.25v21c0 2.9 2 5.24 4.5 5.24h80c2.48 0 4.5-2.34 4.5-5.24v-21c0-2.9-2-5.25-4.5-5.25z" fill="#00adf0" clip-rule="evenodd"/>
    </clipPath>
    <clipPath id="e">
      <path d="M845.58 275.74c-2.51 0-4.54 2.37-4.54 5.29v21.15c0 2.92 2 5.29 4.54 5.29h80c2.51 0 4.54-2.37 4.54-5.29V281c0-2.92-2-5.29-4.54-5.29z" fill="#6cad00" clip-rule="evenodd"/>
    </clipPath>
    <clipPath id="f">
      <path d="M845.54 314.31c-2.49 0-4.5 2.35-4.5 5.24v21c0 2.89 2 5.24 4.5 5.24h80c2.48 0 4.5-2.35 4.5-5.24v-21c0-2.89-2-5.24-4.5-5.24z" fill="#00adf0" clip-rule="evenodd"/>
    </clipPath>
    <clipPath id="g">
      <path d="M845.58 351.63c-2.51 0-4.54 2.36-4.54 5.28v21.16c0 2.92 2 5.29 4.54 5.29h80c2.51 0 4.54-2.37 4.54-5.29v-21.16c0-2.92-2-5.28-4.54-5.28z" fill="#6cad00" clip-rule="evenodd"/>
    </clipPath>
    <clipPath id="h">
      <path d="M845.54 390.2c-2.49 0-4.5 2.35-4.5 5.24v21c0 2.9 2 5.25 4.5 5.25h80c2.48 0 4.5-2.35 4.5-5.25v-21c0-2.89-2-5.24-4.5-5.24z" fill="#00adf0" clip-rule="evenodd"/>
    </clipPath>
    <clipPath id="i">
      <path d="M845.58 427.51c-2.51 0-4.54 2.37-4.54 5.29V454c0 2.92 2 5.29 4.54 5.29h80c2.51 0 4.54-2.37 4.54-5.29v-21.2c0-2.92-2-5.29-4.54-5.29z" fill="#6cad00" clip-rule="evenodd"/>
    </clipPath>
    <clipPath id="j">
      <path d="M845.54 466.08c-2.49 0-4.5 2.35-4.5 5.25v21c0 2.9 2 5.24 4.5 5.24h80c2.48 0 4.5-2.34 4.5-5.24v-21c0-2.9-2-5.25-4.5-5.25z" fill="#00adf0" clip-rule="evenodd"/>
    </clipPath>
    <clipPath id="k">
      <path d="M845.58 503.4c-2.51 0-4.54 2.37-4.54 5.29v21.15c0 2.92 2 5.29 4.54 5.29h80c2.51 0 4.54-2.37 4.54-5.29v-21.15c0-2.92-2-5.29-4.54-5.29z" fill="#6cad00" clip-rule="evenodd"/>
    </clipPath>
    <clipPath id="l">
      <path d="M845.54 542c-2.49 0-4.5 2.35-4.5 5.24v21c0 2.89 2 5.24 4.5 5.24h80c2.48 0 4.5-2.35 4.5-5.24v-21c0-2.89-2-5.24-4.5-5.24z" fill="#00adf0" clip-rule="evenodd"/>
    </clipPath>
  </defs>
  <g data-name="group1">
    <rect width="248.74" height="609.94" rx="2.83" fill="#fff"/>
    <path d="M98.53 67.13a45.31 45.31 0 0 1-1.71 8.06l-2.59-1.26a44.48 44.48 0 0 0 1.67-7.44zm8-17a48 48 0 0 1-7.69 12 26.72 26.72 0 0 0 3.95-.92 6.33 6.33 0 0 0-.59-1.7l2.4-.94a23.32 23.32 0 0 1 1.72 6l-2.42.87q-.14-.74-.3-1.5Q99 65 95.14 65.61l-.74-2.54a31 31 0 0 0 5.8-7.33c-1.68.34-3.33.61-4.93.8l-.73-2.69a27.49 27.49 0 0 0 5.18-9.53l2.93 1.09a31.1 31.1 0 0 1-4.29 7.8 23.8 23.8 0 0 0 3.7-.76 38 38 0 0 0 1.8-3.63zm-3.88 23.27l-2.69.66a44.51 44.51 0 0 0-.7-6.9l2.51-.6a33.33 33.33 0 0 1 .88 6.84zm3.55-3l-2.37.6a36.75 36.75 0 0 0-.9-4.3l2.33-.6a23.58 23.58 0 0 1 .94 4.3zm6.39-9.4L110 62.23a63.18 63.18 0 0 0-4.16-6.85 38.76 38.76 0 0 0 3.73-6.21l2.83 1.08a29.82 29.82 0 0 1-3.1 5.2 53 53 0 0 1 3.29 5.55zm12.29 13.33h-18.65v-3h7.83V66h-6.8v-2.93h16.62V66h-6.67v5.4h7.67zm-.49-26.29h-17.66v-3h17.66zm-5.8 13l-2.74 1.23a45.73 45.73 0 0 0-4.16-7 30.5 30.5 0 0 0 3.7-6.17l2.86 1.11a52.46 52.46 0 0 1-3 5 61.67 61.67 0 0 1 3.34 5.86zm6-.06l-2.76 1.29a49.46 49.46 0 0 0-4.06-6.8 45.31 45.31 0 0 0 3.74-6.33l2.66 1.18a31.85 31.85 0 0 1-2.87 5.15 51.79 51.79 0 0 1 3.24 5.53zM159.73 60.66h-3.11V58H133.3v2.69h-3v-5.31h29.43zm-15.3-13.41a27.87 27.87 0 0 1-5.5 2.23l-.11.29a36.17 36.17 0 0 1 5.58 2.71l-1.57 2.17a32.23 32.23 0 0 0-5.2-2.61 11.31 11.31 0 0 1-5.42 2.96l-1.6-2.56q3.48-.66 4.83-2.17c.9-1 1.36-2.91 1.36-5.72h2.86c0 .9-.11 1.63-.19 2.2a16.07 16.07 0 0 0 3.46-1.57zm-8.9 1.75l-2.36 1.24a16.13 16.13 0 0 0-2.43-3.8l2.36-1.29a16.11 16.11 0 0 1 2.43 3.85zm22.56 26.1h-3V74H134.9v1.1h-3.07v-8.16H142a8.21 8.21 0 0 0 .8-1.5h-7.9v-6h19.8v6h-8.27a9.88 9.88 0 0 1-.8 1.5h12.46zm-3-3.41v-2.37H134.9v2.37zm-3.25-8.52v-1.4h-14v1.4zm8.11-10.3l-1.65 2.2a40.28 40.28 0 0 0-6.17-2.83 10.56 10.56 0 0 1-5.9 2.73L145 52.41q3.67-.58 4.92-2c.84-1 1.25-2.88 1.25-5.74l2.83.07a13.57 13.57 0 0 1-.1 2.23 17.43 17.43 0 0 0 3.85-1.89l1.57 2.06a25.83 25.83 0 0 1-5.83 2.59l-.19.31a38.92 38.92 0 0 1 6.61 2.83zM150 49.24l-2.44 1.11a15.21 15.21 0 0 0-2.1-3.94l2.44-1.07a14.49 14.49 0 0 1 2.1 3.9zM103.1 105.63a70.94 70.94 0 0 1-5.94 11.63l-2.72-2a52.6 52.6 0 0 0 5.86-11.39zm-.5-6.19l-1.84 2.8a27.44 27.44 0 0 0-6.29-4.57L96.36 95a32 32 0 0 1 6.24 4.44zm1.16-7.87l-2 2.71A31.35 31.35 0 0 0 95 88.67l2.1-2.39a36.57 36.57 0 0 1 6.66 5.29zm21.12 12.27h-10.79a15.08 15.08 0 0 1-3.5 8 18.1 18.1 0 0 1-7.39 5.43l-2.2-2.57a16.47 16.47 0 0 0 6.75-4.38 11 11 0 0 0 3.14-6.48H103v-3h8.24v-6.27h-6.31v-3h6.31v-5h3.15v5h8.13v9.27h2.37zM125 115l-2.3 2.3a49.89 49.89 0 0 0-8.59-9.33l2.09-2.23A57.54 57.54 0 0 1 125 115zm-5.76-14.12v-6.31h-4.88v6.27zM144.66 91.28h-9A23.74 23.74 0 0 1 132 95.4l-2.58-1.89a19.6 19.6 0 0 0 5.58-7.33l3.09.87a8.68 8.68 0 0 1-.82 1.53h7.35zm16.05 22.31l-1.71 2.76a37.76 37.76 0 0 1-12.4-7.72V117h-3.1v-8.24a41.07 41.07 0 0 1-12.33 7.76l-1.64-2.83a34.53 34.53 0 0 0 14-8.76v-1.16h-7.57v5.2h-3.16V101h10.7v-1.66h-13.63v-2.8h13.63V94.8h3.13v1.74h13.66v2.8h-13.66V101h10.79v5.33a2.82 2.82 0 0 1-.63 1.77c-.42.54-1.39.81-2.93.81-.48 0-1 0-1.6-.07l-.87-2.64h2.4c.36 0 .53-.24.53-.73v-1.72h-7.69v1.06a33.82 33.82 0 0 0 14.08 8.78zM141.54 95l-2.94.76a12.18 12.18 0 0 0-1.74-3.07l2.87-.87a8.61 8.61 0 0 1 1.81 3.18zm18.71-3.7H149.5a15 15 0 0 1-2.54 3l-2.56-1.7a18.43 18.43 0 0 0 4.5-6.4l2.9.7a9.1 9.1 0 0 1-.73 1.67h9.18zm-4.19 3.7l-3 .8a13.54 13.54 0 0 0-1.74-3.07l2.84-.87a10.8 10.8 0 0 1 1.9 3.14z" fill="#008093"/>
    <rect x="271.23" width="248.74" height="609.94" rx="2.83" fill="#fff"/>
    <path d="M374 50.78l-2 2.33a34.09 34.09 0 0 0-4.54-4.53 37.82 37.82 0 0 1-2.86 4.12h6.4v2.83h-2.48v2.61h4.33V61h-4.33v9a38.92 38.92 0 0 0 3.94-1.14l.21 2.76a103.3 103.3 0 0 1-11.1 3.14l-.8-2.8c2-.38 3.61-.74 4.79-1.07V61h-4.2v-2.86h4.2v-2.61h-2.17v-1.46c-.4.33-.78.63-1.16.9l-1.77-2.59a21.3 21.3 0 0 0 5.93-8.06l2.9.8a2.55 2.55 0 0 1-.46 1 40.71 40.71 0 0 1 5.17 4.66zm-9.26 18.36l-2.57.59a50.84 50.84 0 0 0-1.1-7.05l2.53-.62a42.13 42.13 0 0 1 1.09 7.08zm8.08-6.74a33.83 33.83 0 0 1-.92 6.07l-2.47-.61a26.52 26.52 0 0 0 .87-6zm17.76 9.77a2.87 2.87 0 0 1-.7 1.91 2.84 2.84 0 0 1-2.1.93q-1.39.09-2.19.09c-.54 0-1.05 0-1.54-.06l-.9-3c.42 0 .89.07 1.42.07a7.8 7.8 0 0 0 2.55-.23.81.81 0 0 0 .43-.78v-4.16a94 94 0 0 1-9 3.07l-1-2.27a16.27 16.27 0 0 1-2.8 7.86l-2.54-2.23a12.48 12.48 0 0 0 2.44-8V55h6.33V44.64h3.13V55h6.46zm-11.14-19.62L376.81 54a37.25 37.25 0 0 0-3.63-6.8l2.69-1.37a32.92 32.92 0 0 1 3.57 6.72zm8.06 11.56v-6.28h-9.85v1.78a47.07 47.07 0 0 1 8 1.53l-.87 2.73a38.34 38.34 0 0 0-7.1-1.64c0 2.32-.11 4-.17 5.1a62.67 62.67 0 0 0 9.99-3.22zm4-17.24a41.25 41.25 0 0 1-3.3 7.13l-2.69-1.5a37.85 37.85 0 0 0 3.13-6.7zM426.67 63.1h-26.15v-8.93a22.52 22.52 0 0 1-2.44 2.64l-2-2.37a38.17 38.17 0 0 0 7.16-10.23l2.94.77c-.38.78-.83 1.65-1.37 2.59h7.3a15.46 15.46 0 0 0-1.4-2.42l3-1a29.42 29.42 0 0 1 1.89 3.39h10.7v2.68h-11.4V52h9.9v2.34h-9.9v1.89h9.9v2.27h-9.9v2h11.76zM424.3 75h-3.05v-1.4h-18.43V75h-3.07V64.88h24.55zm-3.05-4.22v-3.14h-18.43v3.18zM411.94 52v-1.75h-8.35V52zm0 4.15v-1.81h-8.35v1.81zm0 4.36v-2h-8.35v2zM391.47 113.42l-.8 3c-2 0-3.9.06-5.66.06q-9.87 0-13-.68a10.91 10.91 0 0 1-5.41-2.91 39.19 39.19 0 0 1-3.43 4.33l-2.44-1.9a20.11 20.11 0 0 0 5.8-9.93h-5v-3A70.86 70.86 0 0 0 366 96.7h-5.1v-3h8.83v3c-1.1 1.71-2.48 3.63-4.14 5.74h4.23v3a20.83 20.83 0 0 1-1.83 4.91 8.67 8.67 0 0 0 3.29 2.25 15.13 15.13 0 0 0 5.1.9c2.05.06 4.19.08 6.43.08q4.9-.01 8.66-.16zm-22.09-22.67l-2.2 2a30.53 30.53 0 0 0-5.42-4.47l2.06-2.17a29.24 29.24 0 0 1 5.56 4.64zm21.05 18.38a2.45 2.45 0 0 1-1 2.15c-.69.49-2 .68-4.1.59l-.9-2.85h1.6c.93 0 1.4-.26 1.4-.79v-1.5h-4.79v5h-3v-5h-4.79v5.07h-3V93.94h6.85a36.54 36.54 0 0 0-4.43-1.83l2.33-1.77a39.4 39.4 0 0 1 3.77 1.53 44.67 44.67 0 0 0 4-2.06h-13V87h18.33v2.83c-2.32 1.48-4.44 2.73-6.36 3.77l.46.36h6.63zm-10.82-10v-2.6h-4.79v2.6zm0 5.06v-2.52h-4.79v2.52zm7.79-5.06v-2.6h-4.79v2.6zm0 5.06v-2.52h-4.79v2.52zM408.75 113a81.28 81.28 0 0 1-11.75 3.83l-.8-2.83c.69-.2 1.19-.34 1.5-.41v-13.45h2.76v12.65a9.65 9.65 0 0 0 1.63-.46V97.74h-4.63V87.37h10.46v10.37h-2.82v4.5h3.32v2.86h-3.32v6.16c1-.3 2.16-.73 3.56-1.3zm-3.93-18.2v-4.5h-4.44v4.5zm22.35 6l-1.66 2.73a33.08 33.08 0 0 1-7.92-3.8 48.44 48.44 0 0 1-7.81 3.87l-1.69-2.76a30.86 30.86 0 0 0 7-3.17 13.82 13.82 0 0 1-2.72-3.47c-.74.65-1.5 1.26-2.27 1.83l-1.84-2.35a21.84 21.84 0 0 0 6.66-7.37l2.94.87a10.62 10.62 0 0 1-.94 1.79H425v3a24.15 24.15 0 0 1-4.86 5.86 26.3 26.3 0 0 0 7.03 2.94zM425 117h-3.19v-1.18h-8.17V117h-3.13v-12.94H425zm-3.19-4.11v-5.8h-8.17v5.8zm-.21-21h-6.8l-.15.17a12.88 12.88 0 0 0 3 3.92 20.82 20.82 0 0 0 3.92-4.07z" fill="#f14124"/>
    <rect x="547.75" width="248.74" height="609.94" rx="2.83" fill="#fff"/>
    <path d="M649.77 54.58l-1.48 2.9c-1.73-.7-2.89-1.17-3.48-1.44v2.36h-8.88v4.87h8.59v3h-8.59v5.07h12.78v3H619.8v-3h12.92v-5.07h-8.79v-3h8.79V58.4h-8.93v-2.63c-1.06.48-2.23 1-3.53 1.47l-1.43-2.87a35.88 35.88 0 0 0 11.35-6.25h-2.76v-3H636q3.46 5.75 13.77 9.46zm-6.39.77a26.69 26.69 0 0 1-9-6.87 30.27 30.27 0 0 1-9.67 6.87zM661.43 53l-1.62 2.49a23.64 23.64 0 0 0-6-3.19l1.4-2.61a26.63 26.63 0 0 1 6.22 3.31zm3.91 16.13a47.41 47.41 0 0 1-9.64 5.39l-1.85-2.6a36.75 36.75 0 0 0 9.08-4.8zm19-2.9h-13.67V75h-3v-8.8h-13.79v-2.67h13.76V61.6h3v1.93h13.69zm-20.29-9.36a67.61 67.61 0 0 1-8.86 5L654 59.16a56.9 56.9 0 0 0 8.91-4.89zm-1-9l-1.6 2.48a26.8 26.8 0 0 0-6.15-3.74l1.53-2.43a27.63 27.63 0 0 1 6.17 3.66zm21 13h-20.91v-2.66h2.47V47.54h-2V45h20v2.56h-15v1.94H682v6.67h-13.39v2.06h15.44zm-5.13-6.95V52h-10.31v1.88zm5.48 17.98l-1.54 2.63a49.62 49.62 0 0 0-10.13-4.8l1.51-2.54a45.66 45.66 0 0 1 10.16 4.71zM719.45 71.83l-.94 2.93h-5.11q-9.84 0-13.29-.69a11.5 11.5 0 0 1-5.89-3.07 30.23 30.23 0 0 1-3.4 4.19l-2.26-1.89a24.78 24.78 0 0 0 5.86-9.74h-5.17v-3a46.42 46.42 0 0 0 4.61-6.06h-5v-3h8.53v3a56.58 56.58 0 0 1-4.1 6.06h4.3v3a32.24 32.24 0 0 1-2 5 8.36 8.36 0 0 0 4.71 2.81q2.79.6 12.65.6 3.64.03 6.5-.14zm-22.23-23.18L695 50.74a30 30 0 0 0-5.39-4.46l2.27-2.1a26.88 26.88 0 0 1 5.34 4.47zm22.12 2.79h-9.8c-.46 1-.78 1.64-.95 1.93h9v16.89h-17.87V53.37H705c.22-.37.56-1 1-1.93h-7.83v-2.83h21.12zm-12.63-4.79l-2.59 1.76a38.68 38.68 0 0 0-3.7-2.49l2.73-1.71a24.05 24.05 0 0 1 3.56 2.44zm7.83 11.49v-2.2h-11.71v2.2zm0 4.72v-2.13h-11.71v2.13zm0 4.78v-2.17h-11.71v2.17zm2.16-22a23.62 23.62 0 0 1-3.53 2.73l-2.86-1.61a27.76 27.76 0 0 0 3.44-2.48z" fill="#319bdb"/>
    <rect x="820.31" width="297.69" height="609.94" rx="2.83" fill="#fff"/>
    <path d="M927.21 57.41L925.3 60a32.1 32.1 0 0 0-6.26-4.3l1.9-2.56a35.27 35.27 0 0 1 6.27 4.27zm.49 6.19a54.19 54.19 0 0 1-5.76 11.69l-2.73-1.82a52.64 52.64 0 0 0 5.8-11.6zm0-14.12l-2.16 2.39a29.64 29.64 0 0 0-6.17-5.07l2.26-2.35a35.35 35.35 0 0 1 6.07 5.03zm20.82 21.82c0 1.58-.35 2.59-1 3a7.77 7.77 0 0 1-3.84.66c-.68 0-1.29 0-1.84-.07L940.66 72h3.86c.66 0 1-.3 1-.75v-4q-5.65 1.51-11.92 2.71l-1-1.94a13.55 13.55 0 0 1-3.36 7l-2.47-2a10.18 10.18 0 0 0 2.19-3.72 21.89 21.89 0 0 0 .88-7.17v-7.26h7.79V44.61h3.1v10.26h7.83zm-13-18.89L932.87 54a37.49 37.49 0 0 0-4.5-6.94l2.73-1.64a37.86 37.86 0 0 1 4.46 6.99zm10 11.85V57.7h-12.65v2c3.64.29 7.22.64 10.76 1.06l-.8 3q-4.41-.77-10-1.2a38.41 38.41 0 0 1-.17 4.5 108.06 108.06 0 0 0 12.86-2.8zm4.11-17.68a36.74 36.74 0 0 1-3.91 7.52l-2.89-1.4a37 37 0 0 0 3.93-7.33zM984.05 53.71c-.06 2.68-.32 4.26-.79 4.74a2.72 2.72 0 0 1-1.58.85l-1.4.21V71.1h-15.07l1.46 1.5a39 39 0 0 1-11.49 2.62l-1.33-2.45a45.07 45.07 0 0 0 9.4-1.67h-4.93V60.9a30.92 30.92 0 0 1-3.34.63l-1.23-2.76q5.68-.52 8.2-3h-6.73l1.11-5.77h7.55v-1.7h-9.09v-2.06h9.09v-1.69h3v1.69h4.93v-1.69h3v1.69h8.06v5.83h-8.06v1.64zm-20.39-1.64H959l-.24 1.64h4.54a13.53 13.53 0 0 0 .36-1.64zm13.52 9.84v-1.43h-15.79v1.43zm0 3.53V63.9h-15.79v1.54zm0 3.49v-1.5h-15.79v1.5zm3.76-13.12h-6.13v1.7h-3v-1.7h-6.33a11.49 11.49 0 0 1-2.27 2.54h15.64l-.51-1.35a5.25 5.25 0 0 0 2.21-.15c.26-.16.39-.51.39-1.04zm-9.13-2.1v-1.64h-5a8 8 0 0 1-.36 1.64zm0-3.73v-1.64h-4.93V50zm12.87 23.08l-1.31 2.33a57.79 57.79 0 0 0-10.63-1.6l1.2-2.35a56 56 0 0 1 10.74 1.62zM979.84 50v-1.66h-5V50zM1019.35 57h-10.92a44.08 44.08 0 0 1-4.43 3.2h11.84v14.9h-3.18v-1.5H999.1v1.5h-3.2v-11q-2.7 1.11-5.63 2.1l-1.5-2.8q9.87-3 14.69-6.38H989V54.1h12.72v-3.49h-9.57v-2.83h9.57v-3.26h3.2v3.22h6.43v2.58a34 34 0 0 0 4-4.88l2.44 1.94a49.48 49.48 0 0 1-5.9 6.72h7.46zm-6.7 8.37V63H999.1v2.4zm0 5.34v-2.54H999.1v2.57zm-1.6-20.1h-6.12v3.49h2.46q2.16-1.87 3.66-3.46z" fill="#ff8021"/>
  </g>
  <g data-name="group2">
    <path d="M23.48 322.13c0-3.41 4.43-6.17 9.9-6.17h178.08c5.46 0 9.89 2.76 9.89 6.17v49.37c0 3.41-4.43 6.18-9.89 6.18H33.38c-5.47 0-9.9-2.77-9.9-6.18v-49.37z" fill="#008093" fill-rule="evenodd"/>
    <path d="M82.64 353.94a29.46 29.46 0 0 1-1.44 6.68l-2.26-1.06a26.78 26.78 0 0 0 1.45-6.34zm6.73-2.26l-2.14.94c-.1-.52-.21-1-.32-1.41a66.47 66.47 0 0 1-7.23 1.49l-.68-2.06a24.26 24.26 0 0 0 4.71-6.1c-1.43.27-2.78.46-4 .57l-.32-2.33a25.44 25.44 0 0 0 4.3-8.16l2.31 1.07a22.62 22.62 0 0 1-3.54 6.55 17 17 0 0 0 2.75-.42c.29-.54.84-1.69 1.66-3.47l2.4 1.1a42.18 42.18 0 0 1-6.64 10.4 30.92 30.92 0 0 0 3.59-.86 11.48 11.48 0 0 0-.56-1.57l2-.85a28.53 28.53 0 0 1 1.71 5.11zm-3.2 7.61l-2.28.45a32 32 0 0 0-.6-5.77l2.14-.48a40.83 40.83 0 0 1 .74 5.8zm2.92-2.3l-1.92.68a33 33 0 0 0-.82-4.18l1.83-.48a16 16 0 0 1 .91 3.99zm3.53-4.18a22.18 22.18 0 0 1-1.84 7.07l-2.09-1.16a25 25 0 0 0 1.78-6.78zm11-2.17H89.93v-13.93h3.61a13 13 0 0 0 1-2.14l2.71.5a9.91 9.91 0 0 1-.76 1.64h7.09zm-2.62-2.27V339h-8.47v9.42zm-.24-2.34l-1.45 1.59c-.7-.74-1.24-1.29-1.6-1.65a19.67 19.67 0 0 1-1.92 2.16l-1.51-1.33a14.56 14.56 0 0 0 1.9-2.2c-.31-.31-.54-.53-.68-.65-.34.42-.85 1-1.52 1.72l-1.36-1.42a14.76 14.76 0 0 0 1.38-1.47c-.31-.24-.7-.53-1.19-.87l1.35-1.59a12.12 12.12 0 0 1 1 .71c.23-.43.48-1 .76-1.64l1.75.93-1 1.87a5.49 5.49 0 0 1 .71.59 11.7 11.7 0 0 0 1.33-2.53l1.72.92a18.38 18.38 0 0 1-1.49 2.94zm.84 10.34a9.4 9.4 0 0 1-.52 2.67 2.15 2.15 0 0 1-1 1.09 7.39 7.39 0 0 1-2.67.31c-.84 0-1.53 0-2.07-.05a2.2 2.2 0 0 1-1.41-.65 2 2 0 0 1-.6-1.51v-6.31h2.51v5.5a.62.62 0 0 0 .31.61 5.22 5.22 0 0 0 1.67.15 1.61 1.61 0 0 0 1-.22 1.57 1.57 0 0 0 .37-.86 7.5 7.5 0 0 0 .13-1.54zm-1.69-1.78l-2.13 1a19.56 19.56 0 0 0-1.4-3.51l2.11-.81a22.5 22.5 0 0 1 1.42 3.32zm5.3 3.25l-2.08 1.27a29.46 29.46 0 0 0-2.18-5.86L103 352a29.1 29.1 0 0 1 2.21 5.84zM120.13 335.52a30 30 0 0 1-9.5 13.14l-1.69-2.25a24.9 24.9 0 0 0 8.56-11.79zm13.2 23.65l-2.33 1.64a26.44 26.44 0 0 0-1.66-3.33q-6.84 1.61-16.73 2.94l-.77-2.26q3.81-2.75 8.91-15.06l2.69.79a64.68 64.68 0 0 1-7.4 13.45 92.78 92.78 0 0 0 12-2.1q-.9-1.55-3.08-4.48l2.18-1.42a54.21 54.21 0 0 1 6.19 9.83zm1.93-12.63l-1.57 2.32a23 23 0 0 1-8.2-11.33h-2.4V335h4.29a20.9 20.9 0 0 0 7.88 11.54zM164.1 357.16q0 3.46-3.38 3.46-3 0-4.38-.06l-.77-2.66c2.2.05 3.73.07 4.58.07s1.28-.25 1.28-.75v-19.49h-22.15v-2.43h24.82zm-5.1-14.48h-19.1v-2.4H159zm-1.9 12.73h-15.48v-10h15.48zm-2.68-2.41v-5.09h-10.17V353z" fill="#fff"/>
  </g>
  <g data-name="group3" fill="none" stroke="#f14124" stroke-miterlimit="8" stroke-width="3">
    <path d="M228.45 348.19l62.41-113.48M228.45 348.19l62.41 113.48"/>
  </g>
  <g data-name="group4">
    <path d="M297.3 217c0-3.4 4.43-6.17 9.89-6.17h178.09c5.46 0 9.89 2.77 9.89 6.17v49.38c0 3.4-4.43 6.17-9.89 6.17H307.19c-5.46 0-9.89-2.77-9.89-6.17V217z" fill="#f14124" fill-rule="evenodd"/>
    <path d="M297.3 217c0-3.4 4.43-6.17 9.89-6.17h178.09c5.46 0 9.89 2.77 9.89 6.17v49.38c0 3.4-4.43 6.17-9.89 6.17H307.19c-5.46 0-9.89-2.77-9.89-6.17V217z" fill="none" stroke="#fff" stroke-miterlimit="8" stroke-width="1.001"/>
    <path d="M366.28 249.55a27.53 27.53 0 0 1-1.84 7l-2.1-.91a30.55 30.55 0 0 0 1.78-6.61zm7-13.36a44.74 44.74 0 0 1-6.76 9.54 30.09 30.09 0 0 0 3.17-.76 6.86 6.86 0 0 0-.56-1.35l1.92-.71a19.44 19.44 0 0 1 1.72 4.69l-2 .7a9 9 0 0 0-.33-1.3 65.55 65.55 0 0 1-7.32 1.56l-.53-2a29.53 29.53 0 0 0 5.1-5.86c-1.25.23-2.71.45-4.38.65l-.48-1.86a33.63 33.63 0 0 0 5.29-9l2.34.9a40.52 40.52 0 0 1-4.17 7.33c1.1-.1 2.06-.22 2.9-.38a25.14 25.14 0 0 0 1.69-3zm-3 19.15l-2.34.48a28.21 28.21 0 0 0-.74-6.24l2.16-.48a42.23 42.23 0 0 1 .89 6.24zm3.26-3.59l-1.93.7a14.39 14.39 0 0 0-1.27-3.41l1.92-.56a28.79 28.79 0 0 1 1.25 3.27zm5.05-7q.26 5.79-5.34 11.16l-1.75-1.65a12.89 12.89 0 0 0 4.64-7.17h-3v-2.34zm10.14 8.86l-1.78 2.24a21.65 21.65 0 0 1-5.06-6.13v4.41a2 2 0 0 1-1 1.92 9.56 9.56 0 0 1-4.18.6l-.71-2.69h2.65c.44 0 .66-.19.66-.48v-10.57h-5.53v-9.8h3.67a12.06 12.06 0 0 0 1.34-2.66l2.58.56a10.92 10.92 0 0 1-1 2.1h6.55v9.8h-5v2.29c.21.42.53 1 .94 1.63a24.64 24.64 0 0 0 3.11-2.88l1.81 1.64a35.06 35.06 0 0 1-3.62 3.31 25.49 25.49 0 0 0 4.54 4.71zm-4.38-16.67v-1.69h-8v1.69zm0 3.88v-1.75h-8v1.75zM418.3 255.82h-25.82v-2.66h10.63v-22.48h2.76v8.89H417v2.6h-11.13v11h12.43z" fill="#fff"/>
    <path d="M297.3 430c0-3.41 4.43-6.17 9.89-6.17h178.09c5.46 0 9.89 2.76 9.89 6.17v49.37c0 3.41-4.43 6.18-9.89 6.18H307.19c-5.46 0-9.89-2.77-9.89-6.18V430z" fill="#f14124" fill-rule="evenodd"/>
    <path d="M297.3 430c0-3.41 4.43-6.17 9.89-6.17h178.09c5.46 0 9.89 2.76 9.89 6.17v49.37c0 3.41-4.43 6.18-9.89 6.18H307.19c-5.46 0-9.89-2.77-9.89-6.18V430z" fill="none" stroke="#fff" stroke-miterlimit="8" stroke-width="1.001"/>
    <path d="M366.28 462.46a27.31 27.31 0 0 1-1.84 7l-2.1-.91a30.62 30.62 0 0 0 1.78-6.6zm7-13.36a44.57 44.57 0 0 1-6.76 9.55 30.64 30.64 0 0 0 3.17-.77 6.76 6.76 0 0 0-.56-1.34l1.92-.71a19.53 19.53 0 0 1 1.72 4.68l-2 .71a8.67 8.67 0 0 0-.33-1.3 65.55 65.55 0 0 1-7.32 1.56l-.53-2a29.18 29.18 0 0 0 5.1-5.85c-1.25.23-2.71.44-4.38.65l-.48-1.87a33.56 33.56 0 0 0 5.29-9l2.34.89a40.52 40.52 0 0 1-4.17 7.33c1.1-.09 2.06-.22 2.9-.37a24.53 24.53 0 0 0 1.69-3zm-3 19.16l-2.34.48a28.23 28.23 0 0 0-.74-6.25l2.16-.48a42.16 42.16 0 0 1 .89 6.25zm3.26-3.6l-1.93.71a14.23 14.23 0 0 0-1.27-3.41l1.92-.57a28.79 28.79 0 0 1 1.25 3.27zm5.05-7q.26 5.8-5.34 11.16l-1.75-1.64a12.89 12.89 0 0 0 4.64-7.17h-3v-2.35zm10.14 8.87l-1.78 2.24a21.65 21.65 0 0 1-5.06-6.13v4.41a2.06 2.06 0 0 1-1 1.92 9.76 9.76 0 0 1-4.18.59l-.71-2.69h2.65c.44 0 .66-.2.66-.49v-10.55h-5.53V446h3.67a12.28 12.28 0 0 0 1.34-2.66l2.58.56a11.21 11.21 0 0 1-1 2.1h6.55v9.8h-5v2.28c.21.43.53 1 .94 1.64a24.64 24.64 0 0 0 3.11-2.88l1.81 1.63a34 34 0 0 1-3.62 3.31 25.52 25.52 0 0 0 4.54 4.75zm-4.38-16.67v-1.69h-8v1.69zm0 3.87V452h-8v1.75zM418.3 447h-12.85v4.77a61.85 61.85 0 0 1 10.69 6.72l-1.65 2.27a53.82 53.82 0 0 0-9-6v14.72h-2.69V447h-10.23v-2.6h25.73z" fill="#fff"/>
  </g>
  <g data-name="group5" fill="none" stroke="#1a85c6" stroke-miterlimit="8" stroke-width="3">
    <path d="M505.47 241.73l62.41-75.65M495.17 241.73h84.37M505.47 241.73l62.41 75.65"/>
  </g>
  <g data-name="group6" fill="none" stroke="#1a85c6" stroke-miterlimit="8" stroke-width="3">
    <path d="M505.47 454.65L567.88 379M495.17 454.65h84.37M505.47 454.65l62.41 75.65"/>
  </g>
  <g data-name="group7">
    <path d="M574.32 146.07c0-3.41 4.43-6.17 9.9-6.17H762.3c5.46 0 9.89 2.76 9.89 6.17v49.37c0 3.41-4.43 6.17-9.89 6.17H584.22c-5.47 0-9.9-2.76-9.9-6.17v-49.37z" fill="#319bdb" fill-rule="evenodd"/>
    <path d="M667.21 165.69h-2.63v-4.75H645v4.75h-2.66v-7.15h10.84a12.84 12.84 0 0 0-1.18-2l2.77-.68a12.85 12.85 0 0 1 1.39 2.71h11zm-2.1 15.16H648.5v1.08H646v-18.59h17.58v7.43h-15V173h16.61zM661 168.53v-2.93h-12.5v2.93zm1.58 10v-3.2h-14v3.2zM675.56 175a31 31 0 0 1-1.47 7l-2.29-1.1a30.78 30.78 0 0 0 1.42-6.52zm6.61-14.27a45.17 45.17 0 0 1-6.55 10.27 21.49 21.49 0 0 0 3.41-.78 10.29 10.29 0 0 0-.65-1.65l2.12-.74a29.52 29.52 0 0 1 1.61 5.18l-2.17.71c-.05-.31-.13-.73-.26-1.25q-3.58.91-7 1.45l-.68-2.15a36.92 36.92 0 0 0 4.65-6.1c-1.42.26-2.73.48-4 .65l-.43-2.4a26.63 26.63 0 0 0 4.32-8l2.46 1a24.88 24.88 0 0 1-3.56 6.51 21.66 21.66 0 0 0 2.69-.43 33.15 33.15 0 0 0 1.64-3.36zm-3 19.81l-2.37.44a34 34 0 0 0-.54-5.89l2.14-.32a47.19 47.19 0 0 1 .75 5.81zm2.8-1L680 180a39.72 39.72 0 0 0-.85-5.23l1.92-.39a34.16 34.16 0 0 1 .93 5.2zm15.11-.13a2.34 2.34 0 0 1-.73 1.91 4.59 4.59 0 0 1-2.81.62h-1.55l-.87-2.48q1.6.06 3 .06a.54.54 0 0 0 .38-.18.56.56 0 0 0 .18-.37v-19.86H685V182h-2.43v-25.38h14.49zm-3.28-13.35h-7.94v-2.34h1.27a28.89 28.89 0 0 0-1.18-3.31l2.28-.59a20.48 20.48 0 0 1 1.27 3.9h.6a26.24 26.24 0 0 0 1.27-3.79l2.33.63a17.62 17.62 0 0 1-1.15 3.16h1.25zm0 5.21h-4.67v3.79a.42.42 0 0 0 .21.32.61.61 0 0 0 .36.15h3.81v2.29H689a2 2 0 0 1-2.2-2.23v-4.32h-.94V169H689a16.7 16.7 0 0 0-.78-2l2.43-.42c.31.77.61 1.59.89 2.46h2.24z" fill="#fff"/>
    <path d="M574.32 217c0-3.4 4.43-6.17 9.9-6.17H762.3c5.46 0 9.89 2.77 9.89 6.17v49.38c0 3.4-4.43 6.17-9.89 6.17H584.22c-5.47 0-9.9-2.77-9.9-6.17V217z" fill="#319bdb" fill-rule="evenodd"/>
    <path d="M620.45 248.26h-5.35l1.65 1a23.41 23.41 0 0 1-2.6 6.13l-2.15-1.48a22.46 22.46 0 0 0 2.49-5.65H613v-18h7.43zM618 235.52v-2.78h-2.51v2.78zm0 5.1v-2.82h-2.51v2.82zm0 5.21v-2.91h-2.51v2.91zm3.65 7.82l-2.33 1a19.85 19.85 0 0 0-2.14-5l2.14-1a23 23 0 0 1 2.32 5zm16.52-2.94h-1.87v1.93a3 3 0 0 1-.64 2.13 3.45 3.45 0 0 1-2.47.66c-.49 0-1.11 0-1.84-.11l-.88-2.48a15.71 15.71 0 0 0 1.58.07 4.24 4.24 0 0 0 1.49-.14.59.59 0 0 0 .21-.52v-1.54h-8.38v4.67h-2.58v-4.67H621v-2.09h1.75v-6.83h5.57v-1.59h-7.24v-2.11H625v-1.44h-2.46v-1.93H625v-1.41h-3.14v-2H625v-1.67h2.54v1.67h4.27v-1.67h2.54v1.67h3.53v2h-3.53v1.41h2.4v1.93h-2.4v1.44h3.79v2.11H631v1.59h5.32v6.83h1.86zm-9.8-5.42v-1.36h-3v1.36zm0 3.33v-1.38h-3v1.38zm3.47-14v-1.36h-4.27v1.36zm0 3.42v-1.44h-4.27v1.44zm1.92 7.2v-1.36H631v1.36zm0 3.33v-1.38H631v1.38zM652.82 244.44c-.79.32-1.8.68-3 1.1v9.76h-2.57v-8.91c-1 .31-2.48.74-4.47 1.3l-.56-2.54q2.35-.59 5-1.39v-5.84h-2c-.17 1.16-.46 2.54-.86 4.12l-2.27-.65a46.79 46.79 0 0 0 1.44-9.66l2.34.42c-.09 1.3-.2 2.4-.33 3.31h1.72v-5.85h2.57v5.85h2.4v2.46h-2.43v5l2.82-1zm14.92-11.16q-.07 5-.32 11c-.17 4-.31 6.49-.44 7.59a4.68 4.68 0 0 1-.78 2.36 2.9 2.9 0 0 1-1.31 1 15.08 15.08 0 0 1-3.56.25c-.67 0-1.24 0-1.7-.05l-.77-2.48c1.12 0 2 .08 2.8.08a5.14 5.14 0 0 0 2.23-.27 1.57 1.57 0 0 0 .54-.9 50.58 50.58 0 0 0 .39-5.29c.14-3.11.25-6.69.31-10.73h-.79a34.23 34.23 0 0 1-2.76 10.43 31.35 31.35 0 0 1-6 8.48l-2.2-1.7a29.57 29.57 0 0 0 5.86-7.8 27.69 27.69 0 0 0 2.58-9.41h-1.33a25.09 25.09 0 0 1-6.72 13.14l-2.14-1.63a21.1 21.1 0 0 0 6.37-11.56h-1.25a23.68 23.68 0 0 1-2.87 5.18l-2.23-1.33q2.8-3.37 4.48-10.22l2.55.45a30.86 30.86 0 0 1-1 3.41zM698.12 246.19H686.6v9.24h-2.69v-9.24h-11.55v-2.62h11.55V233h-10.78v-2.61h24.37V233h-10.9v10.62h11.52zm-17.29-4.89l-2.51 1.16a36.94 36.94 0 0 0-3.82-7l2.49-1.24a40.75 40.75 0 0 1 3.84 7.08zm15.46-5.78a33.06 33.06 0 0 1-4.21 7l-2.43-1.21a33.78 33.78 0 0 0 4.21-7zM728.53 240.23l-2.28 1.84a26 26 0 0 0-1.84-2.6q-11.42 1.34-21.16 1.61l-.62-2.48q4.25-1.38 9.22-9.36l3 .6a40 40 0 0 1-7 8.5q5.8-.22 14.63-1.16A40.61 40.61 0 0 0 718 233l2.28-1.75a46.72 46.72 0 0 1 8.25 8.98zm-2.61 15.09h-2.69V254h-15.57v1.33H705v-12.25h21zm-2.69-3.9v-5.77h-15.57v5.77z" fill="#fff"/>
    <path d="M574.32 288c0-3.41 4.43-6.18 9.9-6.18H762.3c5.46 0 9.89 2.77 9.89 6.18v49.37c0 3.41-4.43 6.17-9.89 6.17H584.22c-5.47 0-9.9-2.76-9.9-6.17V288z" fill="#319bdb" fill-rule="evenodd"/>
    <path d="M626.23 304.14q-.21 8.12-2.93 13.37a23.52 23.52 0 0 1-9.09 9.11l-2-2.07a21.73 21.73 0 0 0 8.42-7.7 42.9 42.9 0 0 0-4.77-4.59A21.42 21.42 0 0 1 614 315l-1.92-2a29.15 29.15 0 0 0 5.45-12.79l2.58.62a27 27 0 0 1-.68 3.31zm-2.76 2.64h-4.88a33.35 33.35 0 0 1-1.39 3.22 60.59 60.59 0 0 1 4.65 4.23 28.87 28.87 0 0 0 1.62-7.45zm15 9.13l-1.8 2.24a44.41 44.41 0 0 0-5.57-6.28v14.5h-2.67v-25.9h2.67v8a52.88 52.88 0 0 1 7.36 7.44zM668.43 323.37l-.67 2.43q-4.46.21-8.21.21a52.35 52.35 0 0 1-6.1-.24 13.78 13.78 0 0 1-3.4-.91 9.77 9.77 0 0 1-2.86-1.8 35.72 35.72 0 0 1-2.85 3.59l-2.06-1.65a18.89 18.89 0 0 0 5.09-8.4h-4.59v-2.2a38.36 38.36 0 0 0 4-5.31h-4.35v-2.49H650v2.45a57.06 57.06 0 0 1-3.58 5.11h3.73v2.43a25.54 25.54 0 0 1-1.75 4.46 7.52 7.52 0 0 0 2.67 1.56 16.13 16.13 0 0 0 5 .76q3.23.11 6.44.1c2.07 0 4.05-.04 5.92-.1zM650.07 304l-1.75 1.93a27.48 27.48 0 0 0-5.36-3.76l1.8-2a27.5 27.5 0 0 1 5.31 3.83zm17.83 9.49h-7.65a10.6 10.6 0 0 1-2.73 5.25 16.23 16.23 0 0 1-5.3 3.88l-1.64-2.06a13.76 13.76 0 0 0 4.64-3 8.1 8.1 0 0 0 2.34-4.07H651v-2.37h7c.06-.63.08-1.28.08-2v-1.42h-6.11v-2.34h15v2.34h-6.27c0 1-.05 2.14-.15 3.39h7.35zm-9.55-9.8l-2.24 1.21a26 26 0 0 0-2.59-3.53l2.26-1.18a14.32 14.32 0 0 1 2.57 3.49zm10.08 16.81l-1.58 2a49.53 49.53 0 0 0-7.11-5.48l1.55-2a42 42 0 0 1 7.14 5.47zm-2.67-19A28.18 28.18 0 0 1 663 305l-2.29-1.31a32.39 32.39 0 0 0 2.76-3.52zM698.12 317.18H686.6v9.24h-2.69v-9.24h-11.55v-2.62h11.55v-10.62h-10.78v-2.61h24.37v2.61h-10.9v10.62h11.52zm-17.29-4.89l-2.51 1.16a36.94 36.94 0 0 0-3.82-7l2.49-1.24a40.75 40.75 0 0 1 3.84 7.08zm15.46-5.78a33.41 33.41 0 0 1-4.21 7l-2.43-1.22a33.94 33.94 0 0 0 4.21-7zM728.53 311.22l-2.28 1.84a27.2 27.2 0 0 0-1.84-2.6q-11.42 1.34-21.16 1.62l-.62-2.49q4.25-1.38 9.22-9.35l3 .59a40 40 0 0 1-7 8.5q5.8-.22 14.63-1.16A40.61 40.61 0 0 0 718 304l2.28-1.75a46.72 46.72 0 0 1 8.25 8.97zm-2.61 15.1h-2.69V325h-15.57v1.33H705v-12.26h21zm-2.69-3.91v-5.77h-15.57v5.77z" fill="#fff"/>
    <path d="M574.32 359c0-3.41 4.43-6.17 9.9-6.17H762.3c5.46 0 9.89 2.76 9.89 6.17v49.37c0 3.41-4.43 6.17-9.89 6.17H584.22c-5.47 0-9.9-2.76-9.9-6.17V359z" fill="#319bdb" fill-rule="evenodd"/>
    <path d="M656.11 396.87h-25.85v-2.22h4.3v-16.4h6.16a13.55 13.55 0 0 0 .75-1.91h-10.84V374h11.6a26.73 26.73 0 0 0 .8-2.73l2.54.57A14.16 14.16 0 0 1 645 374h10.73v2.33h-11.52c-.16.54-.4 1.18-.7 1.91h8.28v16.4h4.32zm-6.86-14.54v-1.87h-12v1.87zm0 4.09v-1.95h-12v1.95zm0 4.15v-2.05h-12v2.05zm0 4.08v-2h-12v2zM685.51 385.09h-2.63v-2.29h-19.77v2.29h-2.55v-4.48h25zm-13-11.38a24.66 24.66 0 0 1-4.67 1.9l-.09.24a31 31 0 0 1 4.73 2.3l-1.29 1.85a28.24 28.24 0 0 0-4.41-2.22 9.52 9.52 0 0 1-4.6 2.49l-1.36-2.17a7.26 7.26 0 0 0 4.1-1.84q1.16-1.28 1.15-4.85h2.43c0 .76-.09 1.38-.16 1.86a13.28 13.28 0 0 0 2.93-1.33zm-7.51 1.46l-2 1.06a13.46 13.46 0 0 0-2-3.23l2-1.1a13.7 13.7 0 0 1 2 3.27zm19.13 22.16h-2.58v-.91h-17.09v.91h-2.6v-6.92h8.65a7.27 7.27 0 0 0 .68-1.27h-6.73v-5.06h16.79v5.06h-7a8.66 8.66 0 0 1-.68 1.27h10.57zm-2.58-2.89v-2h-17.09v2zm-2.76-7.23V386H667v1.18zm6.88-8.73l-1.4 1.87A33.27 33.27 0 0 0 679 378a9 9 0 0 1-5 2.31l-1-2.17c2.08-.33 3.47-.91 4.18-1.73s1.06-2.43 1.06-4.86l2.4.06a11.47 11.47 0 0 1-.09 1.89 14.82 14.82 0 0 0 3.27-1.6l1.33 1.75a22.49 22.49 0 0 1-4.95 2.19l-.15.26a34.32 34.32 0 0 1 5.62 2.38zm-8.44-3.08l-2.07.94a12.59 12.59 0 0 0-1.78-3.34l2.07-.91a12.1 12.1 0 0 1 1.78 3.31zM716 376.26h-21v9.6a23.21 23.21 0 0 1-2.64 11.3l-2.36-1.44q2.31-4 2.31-10.73v-11.22h10.15a6.79 6.79 0 0 0-1.07-2l2.82-.62a27.91 27.91 0 0 1 1.33 2.63H716zm-.91 6.4h-9.45v3.64h8.67v10.95h-2.6V396h-12.36v1.27h-2.58V386.3h6.39v-9.18h2.49v3.11h9.45zm-3.38 10.92v-4.89h-12.36v4.89z" fill="#fff"/>
    <path d="M574.32 430c0-3.41 4.43-6.17 9.9-6.17H762.3c5.46 0 9.89 2.76 9.89 6.17v49.37c0 3.41-4.43 6.18-9.89 6.18H584.22c-5.47 0-9.9-2.77-9.9-6.18V430z" fill="#319bdb" fill-rule="evenodd"/>
    <path d="M643.33 445.33q0 6.44-.32 12.57a43 43 0 0 1-.62 7.09 2.85 2.85 0 0 1-1.18 1.51 5.25 5.25 0 0 1-2.72.55c-.62 0-1.23 0-1.85-.08l-.74-2.6c.8.06 1.46.09 2 .09q1.86 0 2.16-1.11t.63-15.47h-3.49q-.42 12.51-5.13 19.31l-2.24-1.57q4.68-6.92 4.73-17.74h-4v-2.55h4.09l.12-4.23h2.63l-.12 4.23zm12 21.73h-2.6V465h-4.83v2h-2.57v-23.56h10zm-2.6-4.7V446h-4.83v16.32zM686.14 466.6h-25.82v-2.37h2.55v-6.7h20.69v6.7h2.58zm-15.55-12.26h-8.79v-12.59h8.79zm-2.48-7.4v-3h-3.79v3zm0 5.14v-3h-3.79v3zm.85 12.15v-4.35h-3.48v4.35zm15.53-9.8a1.82 1.82 0 0 1-.78 1.6 6.8 6.8 0 0 1-3.37.54c-.47 0-.93 0-1.36-.05L678 454a28.14 28.14 0 0 0 3.67-.11c.19-.06.29-.26.29-.57V452h-6.45a12.8 12.8 0 0 1-2.77 5.08l-2.2-1.67a7.26 7.26 0 0 0 2.16-3.23 12.36 12.36 0 0 0 .71-4.15v-6.31h11.11zm-9.54 9.8v-4.35h-3.43v4.35zm7-14.33V448H676a14.29 14.29 0 0 1-.12 1.86zm0-4V444H676v1.93zm-.91 18.3v-4.35h-3.47v4.35zM716 446h-21v9.6a23.22 23.22 0 0 1-2.64 11.31l-2.36-1.44q2.31-4 2.31-10.73v-11.21h10.15a6.79 6.79 0 0 0-1.07-2l2.82-.63a28.35 28.35 0 0 1 1.33 2.64H716zm-.91 6.41h-9.45v3.64h8.67V467h-2.6v-1.3h-12.36v1.3h-2.58v-10.94h6.39v-9.18h2.49V450h9.45zm-3.38 10.91v-4.89h-12.36v4.89z" fill="#fff"/>
    <path d="M574.32 500.94c0-3.41 4.43-6.18 9.9-6.18H762.3c5.46 0 9.89 2.77 9.89 6.18v49.37c0 3.41-4.43 6.17-9.89 6.17H584.22c-5.47 0-9.9-2.76-9.9-6.17v-49.37z" fill="#319bdb" fill-rule="evenodd"/>
    <path d="M672.6 528.46h-3.43v7.72a2.62 2.62 0 0 1-1 2.39 8.41 8.41 0 0 1-4 .65c-.52 0-1.06 0-1.62-.05l-.77-2.27h4.2a.68.68 0 0 0 .53-.39 1.48 1.48 0 0 0 .21-.76v-7.26h-19.9v-2.4h25.78zm-.74-8.17h-2.54v-2.82h-19.38v2.82h-2.57v-5.22h10.84a6 6 0 0 0-.71-1.53l2.92-.56c.45 1.08.72 1.78.81 2.09h10.63zm-2.49 3.93l-1.36 1.7a48.19 48.19 0 0 0-8.47-3.45c-1.68 1.62-4.71 2.68-9.06 3.17l-1-2.33c4-.44 6.55-1 7.66-1.78h-6v-2.22h7.4a3.45 3.45 0 0 0 .28-1.25h2.69c-.1.53-.19.94-.26 1.25h7.06v2.22h-5.51q4.41 1.62 6.57 2.69zm-6.52 12h-13.14v-6.49h13.14zm-2.48-2.31v-1.87h-8.11v1.87zM703 519.05l-1.13 2.3a38.58 38.58 0 0 1-7.46-2.58V520h-9.32v-1.19a44.28 44.28 0 0 1-7.17 2.79l-1.33-2.25a29 29 0 0 0 12.57-6.25l2.71.74a3.5 3.5 0 0 1-.45.51 31.41 31.41 0 0 0 11.58 4.7zm-3.44 11.3h-16.72q-.8 5.7-3.78 8.82l-1.73-2.24q3.18-3.58 3.17-10.75v-4.86h19.1zm-2.66-2v-1.6h-13.72c0 .34 0 .87-.11 1.6zm0-3.52v-1.51h-13.67v1.51zm3.25 14.38h-2.6v-1.08h-11.7v1.08h-2.66V532h17zm-2.6-3.19v-2h-11.7v2zM693 518a35.17 35.17 0 0 1-3.28-2.17 30.2 30.2 0 0 1-3.17 2.17z" fill="#fff"/>
  </g>
  <g data-name="group8">
    <path d="M845.58 124c-2.51 0-4.54 2.37-4.54 5.29v21.16c0 2.92 2 5.29 4.54 5.29h80c2.51 0 4.54-2.37 4.54-5.29v-21.2c0-2.92-2-5.29-4.54-5.29z" fill="#6cad00" fill-rule="evenodd"/>
    <g clip-path="url(#a)">
      <path d="M845.58 124c-2.51 0-4.54 2.37-4.54 5.29v21.16c0 2.92 2 5.29 4.54 5.29h80c2.51 0 4.54-2.37 4.54-5.29v-21.2c0-2.92-2-5.29-4.54-5.29z" fill="#6cad00"/>
    </g>
    <path d="M882.6 134.9l-.71 1.06a33.53 33.53 0 0 1-3.64-1.92v1.08h-5v3.21h8v1.14h-8v6.32h8.53v1.15h-18v-1.15h8.28v-6.32h-7.85v-1.14h7.85v-3.21h-4.8V134a27.83 27.83 0 0 1-3.68 1.9l-.77-1a21.69 21.69 0 0 0 9.75-7.1l1.25.43-.3.38a22.5 22.5 0 0 0 9.09 6.29zm-13 9.45l-1.1.45a18.36 18.36 0 0 0-2.24-3.74l1.07-.5a19 19 0 0 1 2.23 3.79zm8.4-10.45a22.9 22.9 0 0 1-5.27-4.48 23.17 23.17 0 0 1-5.37 4.48zm1.48 7.25A19.53 19.53 0 0 1 877 145l-1.06-.65a16.59 16.59 0 0 0 2.56-3.73zM889.83 140.29a39.92 39.92 0 0 1-3.46 7.33l-1-.81a35.71 35.71 0 0 0 3.36-7.15zm-.06-3.43l-.82.88a20.9 20.9 0 0 0-3.55-3l.73-.93a24.06 24.06 0 0 1 3.64 3.05zm.41-6.05l-.78.95a23.18 23.18 0 0 0-3.34-3.12l.78-.92a27.89 27.89 0 0 1 3.34 3.09zm3.46 7.24a19.59 19.59 0 0 1-.67 6 7.43 7.43 0 0 1-2.88 3.53l-.92-.87a6.88 6.88 0 0 0 2.31-2.43q1-1.68 1-6.2zm11.52-.92l-1 .77a15.76 15.76 0 0 0-1.35-1.83q-6.66.77-11.55 1.12L891 136a12.18 12.18 0 0 0 4.56-4.73h-4.71v-1.18h5.39c.28-.54.63-1.35 1-2.41l1.23.32c-.14.37-.45 1.07-.93 2.09h7.24v1.18H897a15 15 0 0 1-3.77 4.58c2.88-.18 5.79-.45 8.72-.79a16.67 16.67 0 0 0-2-1.94l.92-.79a26.35 26.35 0 0 1 4.29 4.8zm-7.71 10.42h-1.18v-9.5h1.18zm7.62-.27h-3c-1.13 0-1.7-.53-1.7-1.6v-7.63h1.15v7.47c0 .4.22.6.68.6h2.86z" fill="#fff"/>
    <path d="M845.54 162.54c-2.49 0-4.5 2.34-4.5 5.24v21c0 2.9 2 5.25 4.5 5.25h80c2.48 0 4.5-2.35 4.5-5.25v-21c0-2.9-2-5.24-4.5-5.24z" fill="#00adf0" fill-rule="evenodd"/>
    <g clip-path="url(#b)">
      <path d="M845.54 162.54c-2.49 0-4.5 2.34-4.5 5.24v21c0 2.9 2 5.25 4.5 5.25h80c2.48 0 4.5-2.35 4.5-5.25v-21c0-2.9-2-5.24-4.5-5.24z" fill="#00adf0" stroke="#a7ea52" stroke-miterlimit="8" stroke-width=".751"/>
    </g>
    <path d="M870.81 179.76c-1 .48-1.83.86-2.57 1.16v7.5h-1.13v-7.06a37.64 37.64 0 0 1-3.86 1.37l-.29-1.14a39.29 39.29 0 0 0 4.15-1.42v-5.73h-1.94a20 20 0 0 1-1.1 3.94l-1-.43a23.73 23.73 0 0 0 1.58-7.53l1.08.19a23.17 23.17 0 0 1-.34 2.72h1.76v-4.69h1.13v4.69h2.35v1.11h-2.35v5.25a24.61 24.61 0 0 0 2.57-1.15zm11.19-7.88c0 3.24-.11 6.42-.3 9.52a28.35 28.35 0 0 1-.59 5.44 2.51 2.51 0 0 1-1 1.21 4.43 4.43 0 0 1-2.31.43c-.56 0-1.12 0-1.71-.08l-.43-1.15a18.25 18.25 0 0 0 1.92.11 4 4 0 0 0 1.91-.3 1.57 1.57 0 0 0 .65-.93 38 38 0 0 0 .44-4.82q.24-4.19.24-8.34h-1.36q-.91 9.22-7.25 14.64l-1-.75a19.11 19.11 0 0 0 7.18-13.86h-1.79a19.51 19.51 0 0 1-5.36 10.24l-.93-.67a17.81 17.81 0 0 0 5.17-9.57h-1.83a18.59 18.59 0 0 1-2.48 4.1l-.94-.65a17.82 17.82 0 0 0 3.65-7.81l1.08.21a27.33 27.33 0 0 1-.88 3.06zM889.81 181.16a39.62 39.62 0 0 1-3.46 7.33l-1-.81a34.4 34.4 0 0 0 3.36-7.15zm0-3.43l-.83.88a20.51 20.51 0 0 0-3.55-3l.73-.93a24.19 24.19 0 0 1 3.6 3.05zm.4-6l-.78.94a22.43 22.43 0 0 0-3.34-3.11l.79-.93a28.53 28.53 0 0 1 3.28 3.06zm3.46 7.23a19.59 19.59 0 0 1-.67 6 7.47 7.47 0 0 1-2.87 3.53l-.93-.87a6.79 6.79 0 0 0 2.31-2.43q1-1.68 1-6.2zm11.52-.92l-1 .77a17.67 17.67 0 0 0-1.35-1.83q-6.66.76-11.55 1.12l-.29-1.2a12.28 12.28 0 0 0 4.56-4.74h-4.76V171h5.39c.28-.54.64-1.35 1.06-2.41l1.22.32c-.14.37-.45 1.07-.93 2.09h7.24v1.18h-7.84a14.85 14.85 0 0 1-3.77 4.58c2.89-.18 5.79-.45 8.72-.79a16.69 16.69 0 0 0-2-1.94l.92-.79a26.32 26.32 0 0 1 4.33 4.76zm-7.71 10.42h-1.18v-9.5h1.18zm7.63-.27h-3c-1.13 0-1.7-.53-1.7-1.59v-7.64h1.15v7.47c0 .41.23.61.68.61h2.87z" fill="#fff"/>
    <path d="M845.58 199.85c-2.51 0-4.54 2.37-4.54 5.29v21.16c0 2.92 2 5.28 4.54 5.28h80c2.51 0 4.54-2.36 4.54-5.28v-21.16c0-2.92-2-5.29-4.54-5.29z" fill="#6cad00" fill-rule="evenodd"/>
    <g clip-path="url(#c)">
      <path d="M845.58 199.85c-2.51 0-4.54 2.37-4.54 5.29v21.16c0 2.92 2 5.28 4.54 5.28h80c2.51 0 4.54-2.36 4.54-5.28v-21.16c0-2.92-2-5.29-4.54-5.29z" fill="#6cad00"/>
    </g>
    <path d="M882.6 210.79l-.71 1.05a32 32 0 0 1-3.64-1.91V211h-5v3.2h8v1.15h-8v6.32h8.53v1.15h-18v-1.15h8.28v-6.32h-7.85v-1.15h7.85V211h-4.8v-1.17a28.89 28.89 0 0 1-3.68 1.89l-.77-1a21.63 21.63 0 0 0 9.75-7.11l1.25.43-.3.39a22.6 22.6 0 0 0 9.09 6.36zm-13 9.45l-1.1.45a18.38 18.38 0 0 0-2.24-3.75l1.07-.49a18.71 18.71 0 0 1 2.23 3.79zm8.4-10.46a22.42 22.42 0 0 1-5.27-4.48 22.93 22.93 0 0 1-5.37 4.48zm1.48 7.25a18.93 18.93 0 0 1-2.53 3.81l-1.06-.65a16.26 16.26 0 0 0 2.56-3.72zM889.83 216.17a40 40 0 0 1-3.46 7.34l-1-.82a35.36 35.36 0 0 0 3.36-7.14zm-.06-3.42l-.82.88a20.94 20.94 0 0 0-3.55-3l.73-.92a24.06 24.06 0 0 1 3.64 3.04zm.41-6.05l-.78 1a22.07 22.07 0 0 0-3.34-3.12l.78-.92a27.89 27.89 0 0 1 3.34 3.04zm3.46 7.24a19.59 19.59 0 0 1-.67 6 7.41 7.41 0 0 1-2.88 3.52l-.92-.87a6.84 6.84 0 0 0 2.31-2.42q1-1.68 1-6.2zm11.52-.93l-1 .77a17.67 17.67 0 0 0-1.35-1.83q-6.66.78-11.55 1.13l-.3-1.17a12.21 12.21 0 0 0 4.56-4.74h-4.71V206h5.39c.28-.55.63-1.35 1-2.42l1.23.32q-.21.57-.93 2.1h7.24v1.17H897a15 15 0 0 1-3.77 4.59c2.88-.19 5.79-.45 8.72-.8a17.39 17.39 0 0 0-2-1.93l.92-.8a27 27 0 0 1 4.29 4.77zm-7.71 10.42h-1.18v-9.49h1.18zm7.62-.26h-3c-1.13 0-1.7-.53-1.7-1.6v-7.63h1.15v7.47c0 .4.22.6.68.6h2.86z" fill="#fff"/>
    <path d="M845.54 238.42c-2.49 0-4.5 2.35-4.5 5.25v21c0 2.9 2 5.24 4.5 5.24h80c2.48 0 4.5-2.34 4.5-5.24v-21c0-2.9-2-5.25-4.5-5.25z" fill="#00adf0" fill-rule="evenodd"/>
    <g clip-path="url(#d)">
      <path d="M845.54 238.42c-2.49 0-4.5 2.35-4.5 5.25v21c0 2.9 2 5.24 4.5 5.24h80c2.48 0 4.5-2.34 4.5-5.24v-21c0-2.9-2-5.25-4.5-5.25z" fill="#00adf0" stroke="#a7ea52" stroke-miterlimit="8" stroke-width=".751"/>
    </g>
    <path d="M870.81 255.65c-1 .48-1.83.86-2.57 1.15v7.51h-1.13v-7.07a37.92 37.92 0 0 1-3.86 1.38l-.29-1.14a41.7 41.7 0 0 0 4.15-1.42v-5.73h-1.94a20.22 20.22 0 0 1-1.1 3.94l-1-.43a23.73 23.73 0 0 0 1.58-7.53l1.08.18a23.32 23.32 0 0 1-.34 2.73h1.76v-4.7h1.13v4.7h2.35v1.11h-2.35v5.25a24.61 24.61 0 0 0 2.57-1.15zm11.19-7.88q0 4.86-.3 9.52a28.35 28.35 0 0 1-.59 5.44 2.51 2.51 0 0 1-1 1.21 4.43 4.43 0 0 1-2.31.43 16.76 16.76 0 0 1-1.71-.09l-.43-1.14a18.25 18.25 0 0 0 1.92.11 4 4 0 0 0 1.91-.3 1.64 1.64 0 0 0 .65-.93 38 38 0 0 0 .44-4.82q.24-4.2.24-8.34h-1.36q-.91 9.22-7.25 14.64l-1-.75a19.13 19.13 0 0 0 7.11-13.89h-1.72a19.59 19.59 0 0 1-5.36 10.24l-.93-.68a17.75 17.75 0 0 0 5.17-9.56h-1.83a18.59 18.59 0 0 1-2.48 4.1l-.94-.65a17.82 17.82 0 0 0 3.65-7.81l1.08.21a27.33 27.33 0 0 1-.88 3.06zM889.81 257.05a39.92 39.92 0 0 1-3.46 7.33l-1-.81a34.65 34.65 0 0 0 3.36-7.15zm0-3.43l-.83.88a20.51 20.51 0 0 0-3.55-3l.73-.93a24.19 24.19 0 0 1 3.6 3.05zm.4-6.05l-.78 1a23.18 23.18 0 0 0-3.43-3.17l.79-.92a28.52 28.52 0 0 1 3.37 3.09zm3.46 7.24a19.59 19.59 0 0 1-.67 6 7.47 7.47 0 0 1-2.87 3.53l-.93-.87a6.88 6.88 0 0 0 2.31-2.43q1-1.68 1-6.2zm11.52-.92l-1 .77a15.76 15.76 0 0 0-1.35-1.83q-6.66.76-11.55 1.12l-.29-1.17a12.18 12.18 0 0 0 4.56-4.73h-4.76v-1.18h5.39c.28-.54.64-1.35 1.06-2.41l1.22.32c-.14.37-.45 1.07-.93 2.09h7.24v1.18h-7.84a14.85 14.85 0 0 1-3.77 4.58c2.89-.18 5.79-.45 8.72-.79a16 16 0 0 0-2-1.94l.92-.79a26 26 0 0 1 4.33 4.78zm-7.71 10.42h-1.18v-9.5h1.18zm7.63-.27h-3c-1.13 0-1.7-.53-1.7-1.6v-7.63h1.15v7.47c0 .4.23.6.68.6h2.87z" fill="#fff"/>
    <path d="M845.58 275.74c-2.51 0-4.54 2.37-4.54 5.29v21.15c0 2.92 2 5.29 4.54 5.29h80c2.51 0 4.54-2.37 4.54-5.29V281c0-2.92-2-5.29-4.54-5.29z" fill="#6cad00" fill-rule="evenodd"/>
    <g clip-path="url(#e)">
      <path d="M845.58 275.74c-2.51 0-4.54 2.37-4.54 5.29v21.15c0 2.92 2 5.29 4.54 5.29h80c2.51 0 4.54-2.37 4.54-5.29V281c0-2.92-2-5.29-4.54-5.29z" fill="#6cad00"/>
    </g>
    <path d="M882.6 286.67l-.71 1.06a32 32 0 0 1-3.64-1.91v1.07h-5v3.21h8v1.15h-8v6.32h8.53v1.14h-18v-1.14h8.28v-6.32h-7.85v-1.15h7.85v-3.21h-4.8v-1.16a28.89 28.89 0 0 1-3.68 1.89l-.77-1.05a21.54 21.54 0 0 0 9.75-7.1l1.25.43-.3.39a22.48 22.48 0 0 0 9.09 6.38zm-13 9.45l-1.1.46a18.12 18.12 0 0 0-2.24-3.75l1.07-.49a18.65 18.65 0 0 1 2.23 3.78zm8.4-10.45a22.66 22.66 0 0 1-5.27-4.48 23.17 23.17 0 0 1-5.37 4.48zm1.48 7.25a19.53 19.53 0 0 1-2.53 3.81l-1.06-.65a16.49 16.49 0 0 0 2.56-3.72zM889.83 292.06a40 40 0 0 1-3.46 7.34l-1-.82a35.45 35.45 0 0 0 3.36-7.15zm-.06-3.43l-.82.89a20.49 20.49 0 0 0-3.55-3l.73-.92a24.67 24.67 0 0 1 3.64 3.03zm.41-6l-.78.94a22.43 22.43 0 0 0-3.34-3.11l.78-.93a27.9 27.9 0 0 1 3.34 3.06zm3.46 7.23a19.59 19.59 0 0 1-.67 6 7.43 7.43 0 0 1-2.88 3.53l-.92-.87a6.84 6.84 0 0 0 2.31-2.42c.69-1.13 1-3.19 1-6.21zm11.52-.92l-1 .77a17.67 17.67 0 0 0-1.35-1.83q-6.66.78-11.55 1.13l-.3-1.17a12.28 12.28 0 0 0 4.56-4.74h-4.71v-1.18h5.39c.28-.54.63-1.34 1-2.41l1.23.32c-.14.37-.45 1.07-.93 2.09h7.24v1.18H897a15 15 0 0 1-3.77 4.58q4.32-.27 8.72-.79a17.47 17.47 0 0 0-2-1.94l.92-.79a26.69 26.69 0 0 1 4.29 4.74zm-7.71 10.42h-1.18v-9.5h1.18zm7.62-.27h-3c-1.13 0-1.7-.53-1.7-1.59v-7.64h1.15v7.47c0 .41.22.61.68.61h2.86z" fill="#fff"/>
    <path d="M845.54 314.31c-2.49 0-4.5 2.35-4.5 5.24v21c0 2.89 2 5.24 4.5 5.24h80c2.48 0 4.5-2.35 4.5-5.24v-21c0-2.89-2-5.24-4.5-5.24z" fill="#00adf0" fill-rule="evenodd"/>
    <g clip-path="url(#f)">
      <path d="M845.54 314.31c-2.49 0-4.5 2.35-4.5 5.24v21c0 2.89 2 5.24 4.5 5.24h80c2.48 0 4.5-2.35 4.5-5.24v-21c0-2.89-2-5.24-4.5-5.24z" fill="#00adf0" stroke="#a7ea52" stroke-miterlimit="8" stroke-width=".751"/>
    </g>
    <path d="M870.81 331.53c-1 .48-1.83.87-2.57 1.16v7.5h-1.13v-7.06a37.92 37.92 0 0 1-3.86 1.38l-.29-1.15a37.14 37.14 0 0 0 4.15-1.42v-5.73h-1.94a20.14 20.14 0 0 1-1.1 4l-1-.43a23.79 23.79 0 0 0 1.58-7.54l1.08.19a23.17 23.17 0 0 1-.34 2.72h1.76v-4.69h1.13v4.69h2.35v1.11h-2.35v5.26a24.76 24.76 0 0 0 2.57-1.16zm11.19-7.87q0 4.86-.3 9.52a28.48 28.48 0 0 1-.59 5.44 2.56 2.56 0 0 1-1 1.21 4.43 4.43 0 0 1-2.31.43 16.76 16.76 0 0 1-1.71-.09l-.43-1.15a16 16 0 0 0 1.92.12 4 4 0 0 0 1.91-.31 1.58 1.58 0 0 0 .65-.92 38.29 38.29 0 0 0 .44-4.82q.24-4.2.24-8.34h-1.36q-.91 9.22-7.25 14.64l-1-.75a19.13 19.13 0 0 0 7.11-13.89h-1.72a19.52 19.52 0 0 1-5.36 10.25l-.93-.67a17.78 17.78 0 0 0 5.17-9.56h-1.83a18.83 18.83 0 0 1-2.48 4.1l-.94-.65a17.87 17.87 0 0 0 3.65-7.81l1.08.21a27.33 27.33 0 0 1-.88 3.06zM889.81 332.93a40 40 0 0 1-3.46 7.34l-1-.82a34.31 34.31 0 0 0 3.36-7.14zm0-3.42l-.83.88a20.56 20.56 0 0 0-3.55-3l.73-.92a24.19 24.19 0 0 1 3.6 3.04zm.4-6.05l-.78 1a22.07 22.07 0 0 0-3.34-3.12l.79-.92a28.52 28.52 0 0 1 3.28 3.04zm3.46 7.24a19.59 19.59 0 0 1-.67 6 7.45 7.45 0 0 1-2.87 3.52l-.93-.87a6.84 6.84 0 0 0 2.31-2.42q1-1.68 1-6.2zm11.52-.93l-1 .77a16.61 16.61 0 0 0-1.35-1.82q-6.66.76-11.55 1.12l-.29-1.17a12.28 12.28 0 0 0 4.56-4.74h-4.76v-1.17h5.39c.28-.55.64-1.35 1.06-2.42l1.22.32c-.14.38-.45 1.07-.93 2.1h7.24v1.17h-7.84a14.9 14.9 0 0 1-3.77 4.59c2.89-.19 5.79-.45 8.72-.8a17.49 17.49 0 0 0-2-1.94l.92-.79a26.65 26.65 0 0 1 4.33 4.78zm-7.71 10.42h-1.18v-9.49h1.18zm7.63-.26h-3c-1.13 0-1.7-.53-1.7-1.6v-7.63h1.15v7.47c0 .4.23.6.68.6h2.87z" fill="#fff"/>
    <path d="M845.58 351.63c-2.51 0-4.54 2.36-4.54 5.28v21.16c0 2.92 2 5.29 4.54 5.29h80c2.51 0 4.54-2.37 4.54-5.29v-21.16c0-2.92-2-5.28-4.54-5.28z" fill="#6cad00" fill-rule="evenodd"/>
    <g clip-path="url(#g)">
      <path d="M845.58 351.63c-2.51 0-4.54 2.36-4.54 5.28v21.16c0 2.92 2 5.29 4.54 5.29h80c2.51 0 4.54-2.37 4.54-5.29v-21.16c0-2.92-2-5.28-4.54-5.28z" fill="#6cad00"/>
    </g>
    <path d="M882.6 362.56l-.71 1.06a33.53 33.53 0 0 1-3.64-1.92v1.08h-5V366h8v1.14h-8v6.33h8.53v1.14h-18v-1.14h8.28v-6.33h-7.85V366h7.85v-3.21h-4.8v-1.17a27.83 27.83 0 0 1-3.68 1.9l-.77-1.05a21.69 21.69 0 0 0 9.75-7.1l1.25.43-.3.38a22.4 22.4 0 0 0 9.09 6.38zm-13 9.45l-1.1.45a18.36 18.36 0 0 0-2.24-3.74l1.07-.5a19 19 0 0 1 2.23 3.78zm8.4-10.45a22.66 22.66 0 0 1-5.27-4.48 23.17 23.17 0 0 1-5.37 4.48zm1.48 7.25a19.53 19.53 0 0 1-2.53 3.81l-1.06-.65a16.73 16.73 0 0 0 2.56-3.72zM889.83 368a39.92 39.92 0 0 1-3.46 7.33l-1-.81a35.71 35.71 0 0 0 3.36-7.15zm-.06-3.43l-.82.88a20.9 20.9 0 0 0-3.55-3l.73-.93a24.06 24.06 0 0 1 3.64 3zm.41-6l-.78.95a23.18 23.18 0 0 0-3.34-3.12l.78-.92a27.89 27.89 0 0 1 3.34 2.99zm3.46 7.24a19.59 19.59 0 0 1-.67 6 7.43 7.43 0 0 1-2.88 3.53l-.92-.87a6.88 6.88 0 0 0 2.31-2.43q1-1.68 1-6.2zm11.52-.92l-1 .77a16.66 16.66 0 0 0-1.35-1.83q-6.66.76-11.55 1.12l-.3-1.16a12.28 12.28 0 0 0 4.56-4.74h-4.71v-1.18h5.39c.28-.54.63-1.35 1-2.41l1.23.32c-.14.37-.45 1.07-.93 2.09h7.24V359H897a15 15 0 0 1-3.77 4.58c2.88-.18 5.79-.45 8.72-.79a16.67 16.67 0 0 0-2-1.94l.92-.79a26.69 26.69 0 0 1 4.29 4.73zm-7.71 10.42h-1.18v-9.5h1.18zm7.62-.27h-3c-1.13 0-1.7-.53-1.7-1.6v-7.63h1.15v7.47c0 .4.22.61.68.61h2.86z" fill="#fff"/>
    <path d="M845.54 390.2c-2.49 0-4.5 2.35-4.5 5.24v21c0 2.9 2 5.25 4.5 5.25h80c2.48 0 4.5-2.35 4.5-5.25v-21c0-2.89-2-5.24-4.5-5.24z" fill="#00adf0" fill-rule="evenodd"/>
    <g clip-path="url(#h)">
      <path d="M845.54 390.2c-2.49 0-4.5 2.35-4.5 5.24v21c0 2.9 2 5.25 4.5 5.25h80c2.48 0 4.5-2.35 4.5-5.25v-21c0-2.89-2-5.24-4.5-5.24z" fill="#00adf0" stroke="#a7ea52" stroke-miterlimit="8" stroke-width=".751"/>
    </g>
    <path d="M870.81 407.42c-1 .48-1.83.86-2.57 1.16v7.5h-1.13V409a40.51 40.51 0 0 1-3.86 1.38l-.29-1.15a39.29 39.29 0 0 0 4.15-1.42v-5.71h-1.94a20 20 0 0 1-1.1 3.94l-1-.43a23.73 23.73 0 0 0 1.58-7.53l1.08.19a23.17 23.17 0 0 1-.34 2.72h1.76v-4.69h1.13v4.7h2.35v1.11h-2.35v5.25a24.61 24.61 0 0 0 2.57-1.15zm11.19-7.87c0 3.23-.11 6.41-.3 9.51a28.35 28.35 0 0 1-.59 5.44 2.58 2.58 0 0 1-1 1.22 4.55 4.55 0 0 1-2.31.42 16.7 16.7 0 0 1-1.71-.08l-.43-1.15a18.25 18.25 0 0 0 1.92.11 4 4 0 0 0 1.91-.3 1.57 1.57 0 0 0 .65-.93 38 38 0 0 0 .44-4.82q.24-4.19.24-8.33h-1.36q-.91 9.21-7.25 14.63l-1-.74a19.13 19.13 0 0 0 7.11-13.89h-1.72a19.52 19.52 0 0 1-5.36 10.23l-.93-.67a17.82 17.82 0 0 0 5.17-9.56h-1.83a18.48 18.48 0 0 1-2.48 4.09l-.94-.65a17.82 17.82 0 0 0 3.65-7.81l1.08.21a28.3 28.3 0 0 1-.88 3.07zM889.81 408.82a40 40 0 0 1-3.46 7.34l-1-.82a34.4 34.4 0 0 0 3.36-7.15zm0-3.43l-.83.89a20.12 20.12 0 0 0-3.55-3l.73-.92a24.8 24.8 0 0 1 3.6 3.03zm.4-6l-.78.94a22.43 22.43 0 0 0-3.34-3.11l.79-.93a28.53 28.53 0 0 1 3.28 3.06zm3.46 7.23a19.59 19.59 0 0 1-.67 6 7.47 7.47 0 0 1-2.87 3.53l-.93-.87a6.84 6.84 0 0 0 2.31-2.42q1-1.69 1-6.21zm11.52-.92l-1 .77a17.67 17.67 0 0 0-1.35-1.83q-6.66.78-11.55 1.12l-.29-1.16a12.28 12.28 0 0 0 4.56-4.74h-4.76v-1.18h5.39c.28-.54.64-1.34 1.06-2.41l1.22.32c-.14.37-.45 1.07-.93 2.09h7.24v1.18h-7.84a14.85 14.85 0 0 1-3.77 4.58c2.89-.18 5.79-.44 8.72-.79a16.69 16.69 0 0 0-2-1.94l.92-.79a26.32 26.32 0 0 1 4.33 4.74zm-7.71 10.42h-1.18v-9.5h1.18zm7.63-.27h-3c-1.13 0-1.7-.53-1.7-1.59v-7.64h1.15v7.47c0 .41.23.61.68.61h2.87z" fill="#fff"/>
    <path d="M845.58 427.51c-2.51 0-4.54 2.37-4.54 5.29V454c0 2.92 2 5.29 4.54 5.29h80c2.51 0 4.54-2.37 4.54-5.29v-21.2c0-2.92-2-5.29-4.54-5.29z" fill="#6cad00" fill-rule="evenodd"/>
    <g clip-path="url(#i)">
      <path d="M845.58 427.51c-2.51 0-4.54 2.37-4.54 5.29V454c0 2.92 2 5.29 4.54 5.29h80c2.51 0 4.54-2.37 4.54-5.29v-21.2c0-2.92-2-5.29-4.54-5.29z" fill="#6cad00"/>
    </g>
    <path d="M882.6 438.45l-.71 1.06a33.53 33.53 0 0 1-3.64-1.92v1.08h-5v3.2h8V443h-8v6.32h8.53v1.15h-18v-1.15h8.28V443h-7.85v-1.15h7.85v-3.2h-4.8v-1.15a29.1 29.1 0 0 1-3.68 1.9l-.77-1a21.63 21.63 0 0 0 9.75-7.11l1.25.43-.3.39a22.6 22.6 0 0 0 9.09 6.34zm-13 9.45l-1.1.45a18.09 18.09 0 0 0-2.24-3.74l1.07-.5a19 19 0 0 1 2.23 3.79zm8.4-10.45a22.71 22.71 0 0 1-5.27-4.49 23.19 23.19 0 0 1-5.37 4.49zm1.48 7.24a19.34 19.34 0 0 1-2.53 3.82l-1.06-.65a16.59 16.59 0 0 0 2.56-3.73zM889.83 443.84a39.92 39.92 0 0 1-3.46 7.33l-1-.81a35.71 35.71 0 0 0 3.36-7.15zm-.06-3.43l-.82.88a20.94 20.94 0 0 0-3.55-3l.73-.92a24.06 24.06 0 0 1 3.64 3.04zm.41-6.05l-.78.95a22.07 22.07 0 0 0-3.34-3.12l.78-.92a27.89 27.89 0 0 1 3.34 3.09zm3.46 7.24a19.59 19.59 0 0 1-.67 6 7.41 7.41 0 0 1-2.88 3.52l-.92-.87a6.84 6.84 0 0 0 2.31-2.42q1-1.68 1-6.2zm11.52-.93l-1 .77a16.61 16.61 0 0 0-1.35-1.82q-6.66.76-11.55 1.12l-.3-1.17a12.18 12.18 0 0 0 4.56-4.73h-4.71v-1.18h5.39c.28-.55.63-1.35 1-2.42l1.23.32q-.21.57-.93 2.1h7.24v1.18H897a15 15 0 0 1-3.77 4.58q4.32-.29 8.72-.79a16.67 16.67 0 0 0-2-1.94l.92-.8a27 27 0 0 1 4.29 4.78zm-7.71 10.42h-1.18v-9.49h1.18zm7.62-.26h-3c-1.13 0-1.7-.53-1.7-1.6v-7.63h1.15v7.47c0 .4.22.6.68.6h2.86z" fill="#fff"/>
    <path d="M845.54 466.08c-2.49 0-4.5 2.35-4.5 5.25v21c0 2.9 2 5.24 4.5 5.24h80c2.48 0 4.5-2.34 4.5-5.24v-21c0-2.9-2-5.25-4.5-5.25z" fill="#00adf0" fill-rule="evenodd"/>
    <g clip-path="url(#j)">
      <path d="M845.54 466.08c-2.49 0-4.5 2.35-4.5 5.25v21c0 2.9 2 5.24 4.5 5.24h80c2.48 0 4.5-2.34 4.5-5.24v-21c0-2.9-2-5.25-4.5-5.25z" fill="#00adf0" stroke="#a7ea52" stroke-miterlimit="8" stroke-width=".751"/>
    </g>
    <path d="M870.81 483.31c-1 .48-1.83.86-2.57 1.16V492h-1.13v-7.06a40.2 40.2 0 0 1-3.86 1.37l-.29-1.14a41.7 41.7 0 0 0 4.15-1.42V478h-1.94a20.22 20.22 0 0 1-1.1 3.94l-1-.43a23.73 23.73 0 0 0 1.58-7.53l1.08.19a23.17 23.17 0 0 1-.34 2.72h1.76v-4.7h1.13v4.7h2.35V478h-2.35v5.25a24.61 24.61 0 0 0 2.57-1.15zm11.19-7.88q0 4.86-.3 9.52a28.35 28.35 0 0 1-.59 5.44 2.51 2.51 0 0 1-1 1.21 4.43 4.43 0 0 1-2.31.43 16.76 16.76 0 0 1-1.71-.09l-.43-1.14a18.25 18.25 0 0 0 1.92.11 4 4 0 0 0 1.91-.3 1.6 1.6 0 0 0 .65-.93 38 38 0 0 0 .44-4.82c.16-2.8.24-5.57.24-8.34h-1.36q-.91 9.23-7.25 14.64l-1-.75a19.13 19.13 0 0 0 7.11-13.89h-1.72a19.55 19.55 0 0 1-5.36 10.24l-.93-.68a17.75 17.75 0 0 0 5.17-9.56h-1.83a18.59 18.59 0 0 1-2.48 4.1l-.94-.65a17.82 17.82 0 0 0 3.65-7.81l1.08.21a27.33 27.33 0 0 1-.88 3.06zM889.81 484.71a39.92 39.92 0 0 1-3.46 7.33l-1-.81a34.65 34.65 0 0 0 3.36-7.15zm0-3.43l-.83.88a20.51 20.51 0 0 0-3.55-3l.73-.93a24.19 24.19 0 0 1 3.6 3.05zm.4-6l-.78.95a23.18 23.18 0 0 0-3.34-3.12l.79-.92a28.52 28.52 0 0 1 3.28 3.04zm3.46 7.24a19.59 19.59 0 0 1-.67 6 7.47 7.47 0 0 1-2.87 3.53l-.93-.87a6.88 6.88 0 0 0 2.31-2.43q1-1.68 1-6.2zm11.52-.92l-1 .77a16.66 16.66 0 0 0-1.35-1.83q-6.66.76-11.55 1.12l-.29-1.16a12.28 12.28 0 0 0 4.56-4.74h-4.76v-1.18h5.39c.28-.54.64-1.35 1.06-2.41l1.22.32c-.14.37-.45 1.07-.93 2.09h7.24v1.18h-7.84a14.85 14.85 0 0 1-3.77 4.58c2.89-.18 5.79-.45 8.72-.79a16 16 0 0 0-2-1.94l.92-.79a26.32 26.32 0 0 1 4.33 4.73zm-7.76 10.4h-1.18v-9.5h1.18zm7.63-.27h-3c-1.13 0-1.7-.53-1.7-1.6v-7.63h1.15v7.47c0 .4.23.61.68.61h2.87z" fill="#fff"/>
    <path d="M845.58 503.4c-2.51 0-4.54 2.37-4.54 5.29v21.15c0 2.92 2 5.29 4.54 5.29h80c2.51 0 4.54-2.37 4.54-5.29v-21.15c0-2.92-2-5.29-4.54-5.29z" fill="#6cad00" fill-rule="evenodd"/>
    <g clip-path="url(#k)">
      <path d="M845.58 503.4c-2.51 0-4.54 2.37-4.54 5.29v21.15c0 2.92 2 5.29 4.54 5.29h80c2.51 0 4.54-2.37 4.54-5.29v-21.15c0-2.92-2-5.29-4.54-5.29z" fill="#6cad00"/>
    </g>
    <path d="M882.6 514.34l-.71 1a32 32 0 0 1-3.64-1.91v1.08h-5v3.2h8v1.15h-8v6.32h8.53v1.14h-18v-1.14h8.28v-6.32h-7.85v-1.15h7.85v-3.2h-4.8v-1.17a28.89 28.89 0 0 1-3.68 1.89l-.77-1a21.63 21.63 0 0 0 9.75-7.11l1.25.43-.3.39a22.6 22.6 0 0 0 9.09 6.4zm-13 9.45l-1.1.45a18.12 18.12 0 0 0-2.24-3.75l1.07-.49a18.71 18.71 0 0 1 2.23 3.79zm8.4-10.46a22.66 22.66 0 0 1-5.27-4.48 22.93 22.93 0 0 1-5.37 4.48zm1.48 7.25a19.53 19.53 0 0 1-2.53 3.81l-1.06-.65a16.26 16.26 0 0 0 2.56-3.72zM889.83 519.72a40 40 0 0 1-3.46 7.34l-1-.82a35.2 35.2 0 0 0 3.36-7.15zm-.06-3.42l-.82.88a20.49 20.49 0 0 0-3.55-3l.73-.92a24.06 24.06 0 0 1 3.64 3.04zm.41-6l-.78.95a22.07 22.07 0 0 0-3.34-3.12l.78-.93a28.75 28.75 0 0 1 3.34 3.05zm3.46 7.24a19.59 19.59 0 0 1-.67 6 7.41 7.41 0 0 1-2.88 3.52l-.92-.87a6.84 6.84 0 0 0 2.31-2.42c.69-1.13 1-3.19 1-6.2zm11.52-.93l-1 .77a17.67 17.67 0 0 0-1.35-1.83q-6.66.78-11.55 1.13l-.3-1.17a12.28 12.28 0 0 0 4.56-4.74h-4.71v-1.18h5.39c.28-.54.63-1.34 1-2.41l1.23.32c-.14.38-.45 1.07-.93 2.09h7.24v1.18H897a14.87 14.87 0 0 1-3.77 4.58q4.32-.27 8.72-.79a17.47 17.47 0 0 0-2-1.94l.92-.79a27 27 0 0 1 4.29 4.73zM897.45 527h-1.18v-9.49h1.18zm7.62-.26h-3c-1.13 0-1.7-.54-1.7-1.6v-7.63h1.15V525c0 .41.22.61.68.61h2.86z" fill="#fff"/>
    <path d="M845.54 542c-2.49 0-4.5 2.35-4.5 5.24v21c0 2.89 2 5.24 4.5 5.24h80c2.48 0 4.5-2.35 4.5-5.24v-21c0-2.89-2-5.24-4.5-5.24z" fill="#00adf0" fill-rule="evenodd"/>
    <g clip-path="url(#l)">
      <path d="M845.54 542c-2.49 0-4.5 2.35-4.5 5.24v21c0 2.89 2 5.24 4.5 5.24h80c2.48 0 4.5-2.35 4.5-5.24v-21c0-2.89-2-5.24-4.5-5.24z" fill="#00adf0" stroke="#a7ea52" stroke-miterlimit="8" stroke-width=".751"/>
    </g>
    <path d="M870.81 559.2c-1 .47-1.83.86-2.57 1.15v7.5h-1.13v-7.06a37.92 37.92 0 0 1-3.86 1.38L863 561a37.14 37.14 0 0 0 4.15-1.42v-5.72h-1.94a20.22 20.22 0 0 1-1.1 3.94l-1-.43a23.74 23.74 0 0 0 1.58-7.54l1.08.19a23.17 23.17 0 0 1-.34 2.72h1.76v-4.69h1.13v4.69h2.35v1.12h-2.35v5.25a24.76 24.76 0 0 0 2.57-1.16zm11.19-7.88q0 4.86-.3 9.52a28.48 28.48 0 0 1-.59 5.44 2.56 2.56 0 0 1-1 1.21 4.43 4.43 0 0 1-2.31.43 16.76 16.76 0 0 1-1.71-.09l-.43-1.14a18.25 18.25 0 0 0 1.92.11 4 4 0 0 0 1.91-.31 1.58 1.58 0 0 0 .65-.92 38.29 38.29 0 0 0 .44-4.82q.24-4.2.24-8.34h-1.36q-.91 9.23-7.25 14.64l-1-.75a19.13 19.13 0 0 0 7.11-13.89h-1.72a19.52 19.52 0 0 1-5.36 10.23l-.93-.67a17.78 17.78 0 0 0 5.17-9.56h-1.83a18.59 18.59 0 0 1-2.48 4.1l-.94-.65a17.82 17.82 0 0 0 3.65-7.81l1.08.21a27.33 27.33 0 0 1-.88 3.06zM889.81 560.59a39.69 39.69 0 0 1-3.46 7.34l-1-.81a34.65 34.65 0 0 0 3.36-7.15zm0-3.42l-.83.88a20.56 20.56 0 0 0-3.55-3l.73-.92a24.19 24.19 0 0 1 3.6 3.04zm.4-6l-.78 1A22.07 22.07 0 0 0 886 549l.79-.92a28.52 28.52 0 0 1 3.37 3.04zm3.46 7.24a19.59 19.59 0 0 1-.67 6 7.45 7.45 0 0 1-2.87 3.52l-.93-.87a6.84 6.84 0 0 0 2.31-2.42q1-1.68 1-6.2zm11.52-.93l-1 .77a16.61 16.61 0 0 0-1.35-1.82q-6.66.76-11.55 1.12l-.29-1.17a12.14 12.14 0 0 0 4.56-4.74h-4.76v-1.17h5.39c.28-.55.64-1.35 1.06-2.42l1.22.32q-.21.57-.93 2.1h7.24v1.17h-7.84a14.78 14.78 0 0 1-3.77 4.59c2.89-.19 5.79-.45 8.72-.79a16 16 0 0 0-2-1.94l.92-.8a26.65 26.65 0 0 1 4.33 4.73zm-7.71 10.42h-1.18v-9.49h1.18zm7.63-.26h-3c-1.13 0-1.7-.53-1.7-1.6v-7.63h1.15v7.47c0 .4.23.6.68.6h2.87z" fill="#fff"/>
  </g>
  <g data-name="group9">
    <path d="M965.23 127.43c-6.87 0-12.44 4.69-12.44 10.49v41.94c0 5.79 5.57 10.49 12.44 10.49h117.93c6.87 0 12.44-4.7 12.44-10.49v-41.94c0-5.8-5.57-10.49-12.44-10.49z" fill="#ff8021" fill-rule="evenodd"/>
    <path d="M965.23 127.43c-6.87 0-12.44 4.69-12.44 10.49v41.94c0 5.79 5.57 10.49 12.44 10.49h117.93c6.87 0 12.44-4.7 12.44-10.49v-41.94c0-5.8-5.57-10.49-12.44-10.49z" fill="none"/>
    <path d="M981.15 156.16l-1.46 2a25 25 0 0 0-4.8-3.3l1.45-2a26.55 26.55 0 0 1 4.81 3.3zm.38 4.75a41.65 41.65 0 0 1-4.42 9l-2.09-1.4a40.3 40.3 0 0 0 4.45-8.9zm0-10.84l-1.66 1.84a22.26 22.26 0 0 0-4.73-3.89l1.74-1.8a27.81 27.81 0 0 1 4.65 3.85zm16 16.75c0 1.21-.26 2-.79 2.33a6 6 0 0 1-3 .51q-.78 0-1.41-.06l-.88-2.22h3c.54 0 .76-.23.76-.58v-3.1q-4.34 1.17-9.14 2.08l-.8-1.49a10.31 10.31 0 0 1-2.58 5.35l-1.89-1.52a7.9 7.9 0 0 0 1.68-2.85 16.94 16.94 0 0 0 .67-5.51v-5.54h6v-7.88h2.38v7.88h6zm-9.94-14.5l-2.06 1.18a29 29 0 0 0-3.46-5.32l2.1-1.26a28.91 28.91 0 0 1 3.39 5.4zm7.64 9.1v-5h-9.7V158q4.18.33 8.25.81l-.62 2.28c-2.25-.4-4.79-.7-7.63-.92a31.32 31.32 0 0 1-.13 3.45 86 86 0 0 0 9.8-2.2zm3.15-13.57a28 28 0 0 1-3 5.77l-2.23-1.07a28.19 28.19 0 0 0 3-5.63zM1024.31 153.32c0 2.06-.25 3.27-.6 3.64a2.19 2.19 0 0 1-1.22.65l-1.07.16v8.89h-11.57l1.13 1.15a30.27 30.27 0 0 1-8.82 2l-1-1.89a34.15 34.15 0 0 0 7.21-1.28h-3.78v-7.82a25.93 25.93 0 0 1-2.56.48l-1-2.12q4.37-.4 6.3-2.27h-5.17l.85-4.48h5.79v-1.28h-7v-1.58h7v-1.3h2.31v1.3h3.78v-1.3h2.3v1.3h6.19v4.47h-6.19v1.26zm-15.65-1.26h-3.61l-.18 1.26h3.48a10 10 0 0 0 .31-1.26zm10.38 7.55v-1.1h-12.12v1.1zm0 2.71v-1.18h-12.12v1.18zm0 2.68v-1.15h-12.12V165zm2.89-10.07h-4.71v1.31h-2.3v-1.31h-4.86a8.65 8.65 0 0 1-1.74 1.95h12l-.39-1a4.07 4.07 0 0 0 1.7-.11.88.88 0 0 0 .3-.84zm-7-1.61v-1.26h-3.86a5.83 5.83 0 0 1-.28 1.26zm0-2.87v-1.25h-3.78v1.25zm9.87 17.71l-1 1.8a44.41 44.41 0 0 0-8.14-1.23l.91-1.81a44 44 0 0 1 8.22 1.24zm-3.71-17.71v-1.25h-3.86v1.25zM1051 149h-19.63v10q0 6.93-2 10.8l-1.9-1.64a16.61 16.61 0 0 0 1.59-7.58v-13.75h22zm.08 20.34h-19.68v-2.17h2.91v-4.27h2.33v4.27h3.78v-5.47h2.3v1.4h6.84v2.11h-6.84v1.91h8.36zm-10-11.79l-1.23 1.69a13.05 13.05 0 0 0-2-1.58V162h-2.19v-4.16a13.22 13.22 0 0 1-2.45 3.51l-1.52-1.66a16.1 16.1 0 0 0 3.23-4.33h-2.78v-1.91h3.52v-1.28c-1.23.09-2.17.13-2.82.13l-.75-1.85a37.25 37.25 0 0 0 7.64-.89l.94 1.69a15.44 15.44 0 0 1-2.82.59v1.61h2.7v1.91h-2.7a20.13 20.13 0 0 1 3.2 2.14zm10.35 1.72l-1.32 1.89a25.72 25.72 0 0 0-3.15-3.47V162h-2.23v-4.21a14.11 14.11 0 0 1-3 3.51l-1.53-1.67a17.28 17.28 0 0 0 3.84-4.22h-2.48v-1.91h3.14v-1.31a21.55 21.55 0 0 1-2.68.16l-.8-1.9a35.66 35.66 0 0 0 8.06-1l1 1.77a21.17 21.17 0 0 1-3.37.71v1.54h3.75v1.91h-3.27a36.58 36.58 0 0 1 4.01 3.84zM1063.83 159.66l-1.64 1.61a23.35 23.35 0 0 0-1.5-2.67v11.06h-2.31V160a26.19 26.19 0 0 1-2.78 4.37l-1.34-2.28a29.52 29.52 0 0 0 4-7.07h-3.83v-2.23h3.93v-3.35a26.2 26.2 0 0 1-2.94.38l-.94-2.06a28.5 28.5 0 0 0 7.85-1.72l1.07 2a19 19 0 0 1-2.73.9v3.88h2.9V155h-2.9v.56a38.13 38.13 0 0 1 3.16 4.1zm13.9 9.73h-15.08v-2.14h6.54v-3.35h-5.57v-2.17h5.57V159c-2.13.15-3.77.24-4.93.27l-.79-2.09a64 64 0 0 0 13-1.43l.9 2a53.85 53.85 0 0 1-5.78 1v3h5.6v2.17h-5.6v3.35h6.16zm-1.36-14.39h-11.88v-8h11.88zm-2.45-2.17v-3.66h-7v3.66z" fill="#fff"/>
    <path d="M965.23 202.2c-6.87 0-12.44 4.7-12.44 10.49v41.94c0 5.8 5.57 10.49 12.44 10.49h117.93c6.87 0 12.44-4.69 12.44-10.49v-41.94c0-5.79-5.57-10.49-12.44-10.49z" fill="#ff8021" fill-rule="evenodd"/>
    <path d="M965.23 202.2c-6.87 0-12.44 4.7-12.44 10.49v41.94c0 5.8 5.57 10.49 12.44 10.49h117.93c6.87 0 12.44-4.69 12.44-10.49v-41.94c0-5.79-5.57-10.49-12.44-10.49z" fill="none"/>
    <path d="M965.23 277c-6.87 0-12.44 4.69-12.44 10.48v42c0 5.79 5.57 10.48 12.44 10.48h117.93c6.87 0 12.44-4.69 12.44-10.48v-42c0-5.79-5.57-10.48-12.44-10.48z" fill="#ff8021" fill-rule="evenodd"/>
    <path d="M965.23 277c-6.87 0-12.44 4.69-12.44 10.48v42c0 5.79 5.57 10.48 12.44 10.48h117.93c6.87 0 12.44-4.69 12.44-10.48v-42c0-5.79-5.57-10.48-12.44-10.48z" fill="none"/>
    <path d="M965.23 351.75c-6.87 0-12.44 4.69-12.44 10.49v41.94c0 5.79 5.57 10.49 12.44 10.49h117.93c6.87 0 12.44-4.7 12.44-10.49v-41.94c0-5.8-5.57-10.49-12.44-10.49z" fill="#ff8021" fill-rule="evenodd"/>
    <path d="M965.23 351.75c-6.87 0-12.44 4.69-12.44 10.49v41.94c0 5.79 5.57 10.49 12.44 10.49h117.93c6.87 0 12.44-4.7 12.44-10.49v-41.94c0-5.8-5.57-10.49-12.44-10.49z" fill="none"/>
    <path d="M965.23 426.52c-6.87 0-12.44 4.7-12.44 10.49V479c0 5.8 5.57 10.49 12.44 10.49h117.93c6.87 0 12.44-4.69 12.44-10.49v-42c0-5.79-5.57-10.49-12.44-10.49z" fill="#ff8021" fill-rule="evenodd"/>
    <path d="M965.23 426.52c-6.87 0-12.44 4.7-12.44 10.49V479c0 5.8 5.57 10.49 12.44 10.49h117.93c6.87 0 12.44-4.69 12.44-10.49v-42c0-5.79-5.57-10.49-12.44-10.49z" fill="none"/>
    <path d="M965.18 501.29c-6.84 0-12.39 4.68-12.39 10.45v41.76c0 5.77 5.55 10.44 12.39 10.44h118c6.84 0 12.38-4.67 12.38-10.44v-41.76c0-5.77-5.54-10.45-12.38-10.45z" fill="#ff8021" fill-rule="evenodd"/>
    <path d="M965.18 501.29c-6.84 0-12.39 4.68-12.39 10.45v41.76c0 5.77 5.55 10.44 12.39 10.44h118c6.84 0 12.38-4.67 12.38-10.44v-41.76c0-5.77-5.54-10.45-12.38-10.45z" fill="none"/>
    <path d="M981.15 230.21l-1.46 2a25 25 0 0 0-4.8-3.3l1.45-2a27 27 0 0 1 4.81 3.3zm.38 4.75a41.51 41.51 0 0 1-4.42 9l-2.09-1.4a40.3 40.3 0 0 0 4.45-8.9zm0-10.83l-1.66 1.87a22.21 22.21 0 0 0-4.73-3.88l1.74-1.81a27.88 27.88 0 0 1 4.65 3.82zm16 16.75c0 1.21-.26 2-.79 2.32a6 6 0 0 1-3 .51c-.52 0-1 0-1.41-.05l-.88-2.22h3c.54 0 .76-.22.76-.57v-3.1q-4.34 1.17-9.14 2.08l-.8-1.49a10.35 10.35 0 0 1-2.58 5.35l-1.89-1.52a7.9 7.9 0 0 0 1.68-2.85 16.94 16.94 0 0 0 .67-5.51v-5.54h6v-7.88h2.38v7.88h6zm-9.94-14.5l-2.06 1.18a29 29 0 0 0-3.46-5.32l2.1-1.26a28.91 28.91 0 0 1 3.39 5.4zm7.64 9.09v-5h-9.7V232c2.79.21 5.54.49 8.25.81l-.62 2.27q-3.37-.59-7.63-.91a31.32 31.32 0 0 1-.13 3.45 83.85 83.85 0 0 0 9.8-2.15zm3.15-13.56a28.26 28.26 0 0 1-3 5.77l-2.23-1.08a28.11 28.11 0 0 0 3-5.62zM1024.31 227.38c0 2.05-.25 3.27-.6 3.63a2.15 2.15 0 0 1-1.22.66l-1.07.15v8.9h-11.57l1.13 1.15a29.94 29.94 0 0 1-8.82 2l-1-1.88a34.81 34.81 0 0 0 7.21-1.28h-3.78v-7.81a25.93 25.93 0 0 1-2.56.48l-1-2.12q4.37-.4 6.3-2.27h-5.17l.85-4.48h5.79v-1.28h-7v-1.58h7v-1.3h2.31v1.3h3.78v-1.3h2.3v1.3h6.19v4.47h-6.19v1.26zm-15.65-1.26h-3.61l-.18 1.26h3.48a10.45 10.45 0 0 0 .31-1.26zm10.38 7.55v-1.1h-12.12v1.1zm0 2.71v-1.18h-12.12v1.18zm0 2.68v-1.15h-12.12v1.15zm2.89-10.07h-4.71v1.3h-2.3V229h-4.86a8.44 8.44 0 0 1-1.74 1.94h12l-.39-1a4 4 0 0 0 1.7-.12c.2-.16.3-.42.3-.82zm-7-1.61v-1.26h-3.86a6 6 0 0 1-.28 1.26zm0-2.87v-1.25h-3.78v1.25zm9.87 17.71l-1 1.79a44.41 44.41 0 0 0-8.14-1.23l.91-1.8a43.17 43.17 0 0 1 8.22 1.24zm-3.71-17.71v-1.25h-3.86v1.25zM1051 223h-19.63v10q0 6.94-2 10.81l-1.9-1.64a16.61 16.61 0 0 0 1.59-7.58v-13.7h22zm.08 20.34h-19.68v-2.17h2.91v-4.27h2.33v4.27h3.78v-5.42h2.3v1.4h6.84v2.11h-6.84v1.91h8.36zm-10-11.79l-1.23 1.69a13.05 13.05 0 0 0-2-1.58v4.39h-2.19v-4.15a13.22 13.22 0 0 1-2.45 3.51l-1.52-1.66a16.25 16.25 0 0 0 3.23-4.33h-2.78v-1.91h3.52v-1.28c-1.23.08-2.17.13-2.82.13l-.75-1.85a38 38 0 0 0 7.64-.89l.94 1.69a15.44 15.44 0 0 1-2.82.59v1.61h2.7v1.91h-2.7a19.47 19.47 0 0 1 3.2 2.14zm10.35 1.72l-1.32 1.89a25.22 25.22 0 0 0-3.15-3.48V236h-2.23v-4.2a13.88 13.88 0 0 1-3 3.5l-1.53-1.66a17.28 17.28 0 0 0 3.84-4.22h-2.48v-1.91h3.14v-1.31a23.66 23.66 0 0 1-2.68.16l-.8-1.9a36.24 36.24 0 0 0 8.06-1l1 1.77a21.1 21.1 0 0 1-3.37.7v1.55h3.75v1.91h-3.27a35.68 35.68 0 0 1 4.01 3.89zM1063.83 233.72l-1.64 1.61a23.35 23.35 0 0 0-1.5-2.67v11.05h-2.31v-9.66a26.19 26.19 0 0 1-2.78 4.37l-1.34-2.28a29.4 29.4 0 0 0 4-7.08h-3.83v-2.22h3.93v-3.35a26.2 26.2 0 0 1-2.94.38l-.94-2.07a28.16 28.16 0 0 0 7.85-1.71l1.07 2a17.83 17.83 0 0 1-2.73.91v3.88h2.9v2.22h-2.9v.57a38.13 38.13 0 0 1 3.16 4.05zm13.9 9.73h-15.08v-2.14h6.54V238h-5.57v-2.17h5.57v-2.74c-2.13.16-3.77.25-4.93.28l-.79-2.09a64.76 64.76 0 0 0 13-1.43l.9 2a51.57 51.57 0 0 1-5.78 1v3h5.6V238h-5.6v3.35h6.16zm-1.36-14.45h-11.88v-8h11.88zm-2.45-2.17v-3.66h-7v3.66zM981.15 304.27l-1.46 2a25 25 0 0 0-4.8-3.3l1.45-2a27 27 0 0 1 4.81 3.3zm.38 4.75a41.2 41.2 0 0 1-4.42 9l-2.09-1.4a40.21 40.21 0 0 0 4.45-8.89zm0-10.83l-1.66 1.81a22.21 22.21 0 0 0-4.73-3.88l1.74-1.81a27.88 27.88 0 0 1 4.65 3.88zm16 16.74c0 1.22-.26 2-.79 2.33a6 6 0 0 1-3 .51h-1.41l-.88-2.22h3c.54 0 .76-.22.76-.57v-3.1c-2.89.77-5.94 1.47-9.14 2.08l-.8-1.49a10.35 10.35 0 0 1-2.58 5.35l-1.89-1.52a7.9 7.9 0 0 0 1.68-2.85 16.94 16.94 0 0 0 .67-5.51v-5.55h6v-7.87h2.38v7.87h6zm-9.94-14.49l-2.06 1.18a29.06 29.06 0 0 0-3.46-5.33l2.1-1.25a28.91 28.91 0 0 1 3.39 5.4zm7.64 9.09v-5h-9.7v1.57q4.18.31 8.25.81l-.62 2.27c-2.25-.39-4.79-.7-7.63-.91a31.41 31.41 0 0 1-.13 3.45 83.85 83.85 0 0 0 9.8-2.19zm3.12-13.53a28.26 28.26 0 0 1-3 5.77l-2.23-1.08a28.11 28.11 0 0 0 3-5.62zM1024.31 301.43c0 2.06-.25 3.27-.6 3.64a2.15 2.15 0 0 1-1.22.66l-1.07.15v8.9h-11.57l1.13 1.15a29.94 29.94 0 0 1-8.82 2l-1-1.88a34.81 34.81 0 0 0 7.21-1.28h-3.78V307c-.88.2-1.74.37-2.56.48l-1-2.12q4.37-.4 6.3-2.28h-5.17l.85-4.47h5.79v-1.28h-7v-1.58h7v-1.3h2.31v1.3h3.78v-1.3h2.3v1.3h6.19v4.47h-6.19v1.25zm-15.65-1.25h-3.61l-.18 1.25h3.48a9.89 9.89 0 0 0 .31-1.25zm10.38 7.55v-1.1h-12.12v1.1zm0 2.7v-1.17h-12.12v1.17zm0 2.69V312h-12.12v1.16zm2.89-10.08h-4.71v1.31h-2.3V303h-4.86a8.24 8.24 0 0 1-1.74 1.95h12l-.39-1a4.18 4.18 0 0 0 1.7-.12c.2-.11.3-.38.3-.83zm-7-1.61v-1.25h-3.86a5.72 5.72 0 0 1-.28 1.25zm0-2.86v-1.26h-3.78v1.26zm9.87 17.71l-1 1.79a44.41 44.41 0 0 0-8.14-1.23l.91-1.8a43.17 43.17 0 0 1 8.22 1.24zm-3.71-17.71v-1.26h-3.86v1.26zM1051 297.07h-19.63v10q0 6.93-2 10.81l-1.9-1.64a16.63 16.63 0 0 0 1.59-7.59V295h22zm.08 20.34h-19.68v-2.18h2.91V311h2.33v4.26h3.78v-5.41h2.3v1.4h6.84v2.1h-6.84v1.91h8.36zm-10-11.79l-1.23 1.69a13.05 13.05 0 0 0-2-1.58v4.39h-2.19V306a13.38 13.38 0 0 1-2.45 3.51l-1.52-1.67a16.06 16.06 0 0 0 3.23-4.32h-2.78v-1.91h3.52v-1.29c-1.23.09-2.17.13-2.82.13l-.75-1.84a38 38 0 0 0 7.64-.89l.94 1.69a16.33 16.33 0 0 1-2.82.59v1.61h2.7v1.91h-2.7a19.47 19.47 0 0 1 3.2 2.1zm10.35 1.71l-1.32 1.9a25.22 25.22 0 0 0-3.15-3.48v4.32h-2.23v-4.21a14.24 14.24 0 0 1-3 3.5l-1.53-1.66a17.46 17.46 0 0 0 3.84-4.22h-2.48v-1.91h3.14v-1.31a23.67 23.67 0 0 1-2.68.15l-.8-1.89a36.24 36.24 0 0 0 8.06-1l1 1.77a21.1 21.1 0 0 1-3.37.7v1.55h3.75v1.91h-3.27a36.51 36.51 0 0 1 4.01 3.88zM1063.83 307.78l-1.64 1.61a21.77 21.77 0 0 0-1.5-2.67v11h-2.31v-9.66a25.74 25.74 0 0 1-2.78 4.36l-1.34-2.27a29.59 29.59 0 0 0 4-7.08h-3.83v-2.17h3.93v-3.35a28.83 28.83 0 0 1-2.94.38l-.94-2.07a28.16 28.16 0 0 0 7.85-1.71l1.07 2a16.8 16.8 0 0 1-2.73.9v3.89h2.9v2.22h-2.9v.56a39.14 39.14 0 0 1 3.16 4.06zm13.9 9.73h-15.08v-2.14h6.54V312h-5.57v-2.17h5.57v-2.74c-2.13.16-3.77.25-4.93.28l-.79-2.1a64.11 64.11 0 0 0 13-1.42l.9 2a51.57 51.57 0 0 1-5.78 1v3h5.6V312h-5.6v3.35h6.16zm-1.36-14.44h-11.88v-8h11.88zm-2.45-2.17v-3.66h-7v3.66zM981.15 378.33l-1.46 2a24.93 24.93 0 0 0-4.8-3.29l1.45-2a27 27 0 0 1 4.81 3.29zm.38 4.75a41.2 41.2 0 0 1-4.42 9l-2.09-1.4a40.21 40.21 0 0 0 4.45-8.89zm0-10.83l-1.66 1.83a22.21 22.21 0 0 0-4.73-3.88l1.74-1.81a27.88 27.88 0 0 1 4.65 3.86zm16 16.74c0 1.21-.26 2-.79 2.33a6 6 0 0 1-3 .51c-.52 0-1 0-1.41-.05l-.88-2.23h3c.54 0 .76-.23.76-.57v-3.1c-2.89.77-5.94 1.47-9.14 2.08l-.8-1.5a10.28 10.28 0 0 1-2.58 5.35l-1.89-1.51a7.9 7.9 0 0 0 1.68-2.85 16.94 16.94 0 0 0 .67-5.51v-5.55h6v-7.87h2.38v7.87h6zm-9.94-14.49l-2.06 1.18a29.06 29.06 0 0 0-3.46-5.33l2.1-1.25a28.91 28.91 0 0 1 3.39 5.4zm7.64 9.09v-5h-9.7v1.57q4.18.33 8.25.81l-.62 2.28c-2.25-.39-4.79-.7-7.63-.91a31.5 31.5 0 0 1-.13 3.45 83.85 83.85 0 0 0 9.8-2.2zm3.12-13.59a27.94 27.94 0 0 1-3 5.76l-2.23-1.07a28.11 28.11 0 0 0 3-5.62zM1024.31 375.49c0 2.06-.25 3.27-.6 3.64a2.13 2.13 0 0 1-1.22.65l-1.07.16v8.9h-11.57L1011 390a29.94 29.94 0 0 1-8.82 2l-1-1.88a35.48 35.48 0 0 0 7.21-1.28h-3.78V381c-.88.21-1.74.37-2.56.49l-1-2.12q4.37-.4 6.3-2.28h-5.17l.85-4.47h5.79v-1.28h-7v-1.59h7v-1.29h2.31v1.29h3.78v-1.29h2.3v1.29h6.19v4.48h-6.19v1.25zm-15.65-1.25h-3.61l-.18 1.25h3.48a9.89 9.89 0 0 0 .31-1.25zm10.38 7.55v-1.1h-12.12v1.1zm0 2.7v-1.17h-12.12v1.17zm0 2.68V386h-12.12v1.15zm2.89-10.07h-4.71v1.31h-2.3v-1.31h-4.86a8.65 8.65 0 0 1-1.74 1.95h12l-.39-1a4.18 4.18 0 0 0 1.7-.12c.2-.15.3-.42.3-.83zm-7-1.61v-1.25h-3.86a5.72 5.72 0 0 1-.28 1.25zm0-2.86v-1.26h-3.78v1.26zm9.87 17.71l-1 1.79a44.41 44.41 0 0 0-8.14-1.23l.91-1.8a42.39 42.39 0 0 1 8.22 1.24zm-3.71-17.71v-1.26h-3.86v1.26zM1051 371.13h-19.63v10q0 6.93-2 10.8l-1.9-1.63a16.63 16.63 0 0 0 1.59-7.59V369h22zm.08 20.33h-19.68v-2.17h2.91V385h2.33v4.26h3.78v-5.41h2.3v1.4h6.84v2.1h-6.84v1.91h8.36zm-10-11.78l-1.23 1.69a13.94 13.94 0 0 0-2-1.59v4.4h-2.19V380a13.34 13.34 0 0 1-2.45 3.5l-1.52-1.66a15.94 15.94 0 0 0 3.23-4.33h-2.78v-1.91h3.52v-1.28c-1.23.09-2.17.13-2.82.13l-.75-1.84a38 38 0 0 0 7.64-.89l.94 1.69a16.33 16.33 0 0 1-2.82.59v1.6h2.7v1.91h-2.7a20.12 20.12 0 0 1 3.2 2.17zm10.35 1.71l-1.32 1.9a25.22 25.22 0 0 0-3.15-3.48v4.32h-2.23v-4.22a14.11 14.11 0 0 1-3 3.51l-1.53-1.66a17.48 17.48 0 0 0 3.84-4.23h-2.48v-1.91h3.14v-1.3a23.67 23.67 0 0 1-2.68.15l-.8-1.89a36.24 36.24 0 0 0 8.06-1l1 1.76a20.12 20.12 0 0 1-3.37.71v1.54h3.75v1.91h-3.27a37.54 37.54 0 0 1 4.01 3.89zM1063.83 381.84l-1.64 1.61a21.77 21.77 0 0 0-1.5-2.67v11.05h-2.31v-9.67a25.79 25.79 0 0 1-2.78 4.37l-1.34-2.27a29.79 29.79 0 0 0 4-7.08h-3.83V375h3.93v-3.35a28.83 28.83 0 0 1-2.94.38l-.94-2.07a28.16 28.16 0 0 0 7.85-1.71l1.07 2a16.8 16.8 0 0 1-2.73.9V375h2.9v2.22h-2.9v.56a38.12 38.12 0 0 1 3.16 4.06zm13.9 9.73h-15.08v-2.15h6.54v-3.34h-5.57v-2.18h5.57v-2.73c-2.13.16-3.77.25-4.93.28l-.79-2.1a64.11 64.11 0 0 0 13-1.42l.9 2a51.47 51.47 0 0 1-5.78 1v3h5.6v2.18h-5.6v3.34h6.16zm-1.36-14.44h-11.88v-8h11.88zm-2.45-2.17v-3.66h-7v3.7zM981.15 452.39l-1.46 2a24.49 24.49 0 0 0-4.8-3.29l1.45-2a27.07 27.07 0 0 1 4.81 3.29zm.38 4.75a41.42 41.42 0 0 1-4.42 9l-2.09-1.4a40.21 40.21 0 0 0 4.45-8.89zm0-10.83l-1.66 1.83a21.91 21.91 0 0 0-4.73-3.88l1.74-1.81a27.88 27.88 0 0 1 4.65 3.86zm16 16.74c0 1.21-.26 2-.79 2.33a6 6 0 0 1-3 .51c-.52 0-1 0-1.41-.05l-.88-2.23h3c.54 0 .76-.23.76-.58v-3.09q-4.34 1.15-9.14 2.07l-.8-1.49a10.31 10.31 0 0 1-2.58 5.35l-1.89-1.51a7.87 7.87 0 0 0 1.68-2.86 16.87 16.87 0 0 0 .67-5.5v-5.55h6v-7.87h2.38v7.87h6zm-9.94-14.49l-2.06 1.18a29.06 29.06 0 0 0-3.46-5.33l2.1-1.25a28.91 28.91 0 0 1 3.39 5.4zm7.64 9.09v-5h-9.7v1.57q4.18.33 8.25.81l-.62 2.28q-3.37-.58-7.63-.92a31.59 31.59 0 0 1-.13 3.46 83.85 83.85 0 0 0 9.8-2.2zm3.15-13.57a27.75 27.75 0 0 1-3 5.77l-2.23-1.07a28.11 28.11 0 0 0 3-5.62zM1024.31 449.55c0 2.06-.25 3.27-.6 3.64a2.19 2.19 0 0 1-1.22.65l-1.07.16v8.89h-11.57l1.13 1.16a30.58 30.58 0 0 1-8.82 2l-1-1.88a34.76 34.76 0 0 0 7.21-1.29h-3.78v-7.82c-.88.21-1.74.37-2.56.49l-1-2.12q4.37-.4 6.3-2.28h-5.17l.85-4.47h5.79v-1.28h-7v-1.59h7v-1.29h2.31v1.29h3.78v-1.29h2.3v1.29h6.19v4.48h-6.19v1.25zm-15.65-1.25h-3.61l-.18 1.25h3.48a9.89 9.89 0 0 0 .31-1.25zm10.38 7.54v-1.09h-12.12v1.09zm0 2.71v-1.18h-12.12v1.18zm0 2.68v-1.15h-12.12v1.15zm2.89-10.07h-4.71v1.31h-2.3v-1.31h-4.86a8.65 8.65 0 0 1-1.74 1.95h12l-.39-1a4.18 4.18 0 0 0 1.7-.12c.2-.15.3-.42.3-.83zm-7-1.61v-1.25h-3.86a5.72 5.72 0 0 1-.28 1.25zm0-2.86v-1.26h-3.78v1.26zm9.87 17.71l-1 1.79a44.41 44.41 0 0 0-8.14-1.23l.91-1.8a42.39 42.39 0 0 1 8.22 1.24zm-3.71-17.71v-1.26h-3.86v1.26zM1051 445.18h-19.63v10.05q0 6.93-2 10.8l-1.9-1.63a16.65 16.65 0 0 0 1.59-7.59v-13.75h22zm.08 20.34h-19.68v-2.17h2.91v-4.26h2.33v4.26h3.78v-5.41h2.3v1.4h6.84v2.1h-6.84v1.91h8.36zm-10-11.78l-1.23 1.69a13.24 13.24 0 0 0-2-1.59v4.4h-2.19v-4.16a13.34 13.34 0 0 1-2.45 3.5l-1.52-1.66a15.94 15.94 0 0 0 3.23-4.33h-2.78v-1.91h3.52v-1.28c-1.23.09-2.17.13-2.82.13l-.75-1.84a38 38 0 0 0 7.64-.89l.94 1.69a15.39 15.39 0 0 1-2.82.58v1.61h2.7v1.91h-2.7a19.47 19.47 0 0 1 3.2 2.15zm10.35 1.71l-1.32 1.9a25.22 25.22 0 0 0-3.15-3.48v4.31h-2.23V454a14.11 14.11 0 0 1-3 3.51l-1.53-1.66a17.48 17.48 0 0 0 3.84-4.23h-2.48v-1.91h3.14v-1.3a23.67 23.67 0 0 1-2.68.15l-.8-1.89a36.24 36.24 0 0 0 8.06-1l1 1.76a21.17 21.17 0 0 1-3.37.71v1.54h3.75v1.91h-3.27a36.58 36.58 0 0 1 4.01 3.86zM1063.83 455.9l-1.64 1.61a21.77 21.77 0 0 0-1.5-2.67v11.05h-2.31v-9.67a25.79 25.79 0 0 1-2.78 4.37l-1.34-2.27a29.79 29.79 0 0 0 4-7.08h-3.83V449h3.93v-3.35a28.83 28.83 0 0 1-2.94.38l-.94-2.07a28.52 28.52 0 0 0 7.85-1.71l1.07 2a16.8 16.8 0 0 1-2.73.9V449h2.9v2.22h-2.9v.56a38.12 38.12 0 0 1 3.16 4.12zm13.9 9.73h-15.08v-2.15h6.54v-3.35h-5.57V458h5.57v-2.73c-2.13.16-3.77.25-4.93.27l-.79-2.09a64 64 0 0 0 13-1.43l.9 2a53.85 53.85 0 0 1-5.78 1v3h5.6v2.17h-5.6v3.35h6.16zm-1.36-14.44h-11.88v-8h11.88zm-2.45-2.17v-3.67h-7V449zM981.15 526.45l-1.46 2a24.49 24.49 0 0 0-4.8-3.29l1.45-2a26.55 26.55 0 0 1 4.81 3.29zm.38 4.75a41.65 41.65 0 0 1-4.42 9l-2.09-1.4a40.21 40.21 0 0 0 4.45-8.89zm0-10.83l-1.66 1.83a22.26 22.26 0 0 0-4.73-3.89l1.74-1.8a27.4 27.4 0 0 1 4.65 3.86zm16 16.74c0 1.21-.26 2-.79 2.33a6 6 0 0 1-3 .51c-.52 0-1 0-1.41-.05l-.88-2.23h3c.54 0 .76-.23.76-.58V534q-4.34 1.17-9.14 2.08l-.8-1.49a10.31 10.31 0 0 1-2.58 5.35l-1.89-1.52a7.9 7.9 0 0 0 1.68-2.85 16.87 16.87 0 0 0 .67-5.5v-5.57h6v-7.87h2.38v7.87h6zm-9.94-14.49l-2.06 1.17a29 29 0 0 0-3.46-5.32l2.1-1.26a28.62 28.62 0 0 1 3.39 5.41zm7.64 9.09v-5h-9.7v1.57q4.18.33 8.25.81l-.62 2.28q-3.37-.58-7.63-.92a31.59 31.59 0 0 1-.13 3.46 83.85 83.85 0 0 0 9.8-2.2zm3.15-13.57a27.75 27.75 0 0 1-3 5.77l-2.23-1.07a28.19 28.19 0 0 0 3-5.63zM1024.31 523.61c0 2.06-.25 3.27-.6 3.64a2.19 2.19 0 0 1-1.22.65l-1.07.16V537h-11.57l1.13 1.15a30.27 30.27 0 0 1-8.82 2l-1-1.89a34.15 34.15 0 0 0 7.21-1.28h-3.78v-7.82a25.93 25.93 0 0 1-2.56.48l-1-2.11q4.37-.4 6.3-2.28h-5.17l.85-4.47h5.79v-1.29h-7v-1.58h7v-1.29h2.31v1.29h3.78v-1.29h2.3v1.29h6.19v4.47h-6.19v1.26zm-15.65-1.26h-3.61l-.18 1.26h3.48a9.61 9.61 0 0 0 .31-1.26zm10.34 7.55v-1.1h-12.12v1.1zm0 2.71v-1.18h-12.12v1.18zm0 2.68v-1.15h-12.12v1.15zm2.89-10.07h-4.71v1.31h-2.3v-1.31h-4.86a8.65 8.65 0 0 1-1.74 1.95h12l-.39-1a4.18 4.18 0 0 0 1.7-.12c.24-.15.34-.42.34-.83zm-7-1.61v-1.26h-3.86a5.69 5.69 0 0 1-.28 1.26zm0-2.86v-1.26h-3.78v1.26zm9.87 17.71l-1 1.79a44.41 44.41 0 0 0-8.14-1.23l.91-1.81a43.06 43.06 0 0 1 8.26 1.25zm-3.71-17.71v-1.26h-3.86v1.26zM1051 519.24h-19.63v10q0 6.93-2 10.8l-1.9-1.63a16.65 16.65 0 0 0 1.59-7.59v-13.7h22zm.08 20.34h-19.68v-2.17h2.91v-4.26h2.33v4.26h3.78V532h2.3v1.39h6.84v2.11h-6.84v1.91h8.36zm-10-11.78l-1.23 1.68a13.73 13.73 0 0 0-2-1.58v4.4h-2.19v-4.16a13.34 13.34 0 0 1-2.45 3.5l-1.52-1.66a16.1 16.1 0 0 0 3.23-4.33h-2.78v-1.91h3.52v-1.28c-1.23.09-2.17.13-2.82.13l-.75-1.84a38 38 0 0 0 7.64-.89l.94 1.68a14.65 14.65 0 0 1-2.82.59v1.61h2.7v1.91h-2.7a19.47 19.47 0 0 1 3.2 2.15zm10.35 1.71l-1.32 1.9a25.22 25.22 0 0 0-3.15-3.48v4.31h-2.23V528a14.11 14.11 0 0 1-3 3.51l-1.53-1.66a17.48 17.48 0 0 0 3.84-4.23h-2.48v-1.91h3.14v-1.31a21.55 21.55 0 0 1-2.68.16l-.8-1.9a35.67 35.67 0 0 0 8.06-1l1 1.76a21.17 21.17 0 0 1-3.37.71v1.54h3.75v1.91h-3.27a36.58 36.58 0 0 1 4.01 3.93zM1063.83 530l-1.64 1.61a23.35 23.35 0 0 0-1.5-2.67V540h-2.31v-9.67a26.19 26.19 0 0 1-2.78 4.37l-1.34-2.28a29.52 29.52 0 0 0 4-7.07h-3.83v-2.23h3.93v-3.34c-1.29.21-2.27.34-2.94.38l-.94-2.07a28.89 28.89 0 0 0 7.85-1.71l1.07 2a17.83 17.83 0 0 1-2.73.9v3.88h2.9v2.23h-2.9v.56a39.15 39.15 0 0 1 3.16 4.05zm13.9 9.74h-15.08v-2.15h6.54v-3.35h-5.57V532h5.57v-2.73c-2.13.15-3.77.25-4.93.27l-.79-2.09a64 64 0 0 0 13-1.43l.9 2a53.85 53.85 0 0 1-5.78 1v3h5.6v2.17h-5.6v3.35h6.16zm-1.36-14.44h-11.88v-8h11.88zm-2.45-2.18v-3.66h-7v3.66z" fill="#fff"/>
  </g>
</svg>
