<svg data-name="圖層 4" xmlns="http://www.w3.org/2000/svg" viewBox="0 0 1203 437">
  <g data-name="group1">
    <rect x="50.32" width="214.33" height="431.55" rx="2.83" fill="#8c8c8c" opacity=".2"/>
    <rect x="325.47" width="367.83" height="431.55" rx="2.83" fill="#8c8c8c" opacity=".2"/>
    <rect x="716.47" width="295.42" height="431.55" rx="2.83" fill="#8c8c8c" opacity=".2"/>
    <path d="M119.58 71.05a74.92 74.92 0 0 1-9.68 7.42v11.7a2.33 2.33 0 0 1-.56 1.6 2.55 2.55 0 0 1-1.37.79 16.09 16.09 0 0 1-2.84.17h-2L102 89.91h4.49c.49 0 .72-.21.72-.53V77.09a60.09 60.09 0 0 0 8.2-6H97v-2.6h22.6zM136.81 90.66a1.71 1.71 0 0 1-.74 1.63 6 6 0 0 1-2.76.44h-1.47l-.69-2.32c1.54.07 2.5.1 2.88.1s.52-.18.52-.55v-3.5h-6.1a20.79 20.79 0 0 1-1.53 6.46l-2.07-1.56a17.64 17.64 0 0 0 1.15-3.93 21.71 21.71 0 0 0 .46-4.18v-7.91a5.56 5.56 0 0 1-.63.44l-1.14-2.27a20.23 20.23 0 0 0 4.75-5.93l2.32.63a7.93 7.93 0 0 1-.6 1.17h4.95v2.21c-.67.94-1.4 1.86-2.18 2.76h2.86zm-3.49-19.07h-3.61a35.73 35.73 0 0 1-2.29 2.76H131c.56-.62 1.34-1.54 2.32-2.76zm-2.71 7.6v-2.64h-1.89v2.64zm0 5v-2.77h-1.89v2.78zm3.94-5v-2.64h-1.8v2.64zm0 5v-2.77h-1.8v2.78zm14.86-15.78q0 3.06-.15 4.92a6.79 6.79 0 0 1-.48 2.42 2.26 2.26 0 0 1-1 .9 4.5 4.5 0 0 1-2 .34c-.48 0-1 0-1.47-.07l-.66-2.36c.75.06 1.53.09 2.35.09a.66.66 0 0 0 .45-.2 2.7 2.7 0 0 0 .32-1.32 23.59 23.59 0 0 0 .11-2.5h-2.83a7.87 7.87 0 0 1-5.21 7.17l-1.49-2c2.73-1 4.13-2.69 4.21-5.17h-3.15v-2.21zM150 88h-4.59v4.76h-2.46V88h-5v-2.3h5v-3h-2.38a21 21 0 0 1-1.11 2.3l-2.07-1.11a19.39 19.39 0 0 0 2.18-6l2.17.7-.45 1.89h1.62v-2.64h2.46v2.64h4.18v2.27h-4.18v3H150zM175.5 88.5h-13l1.5 1.26a35.08 35.08 0 0 1-9.05 3.3l-1.15-2.24a34.86 34.86 0 0 0 7.2-2.32h-3.63V76.66h18.13zm2-13.44h-22v-6.77h22zm-15.54-2v-2.67h-4v2.66zm11 7V78.7H160v1.35zm0 3.15V81.8H160v1.4zm0 3.3V85H160v1.5zm-4.51-13.45v-2.67h-4v2.66zm10.71 17.61l-.93 2.33a35.69 35.69 0 0 0-8.17-1.87l.92-2.26a40.43 40.43 0 0 1 8.18 1.79zm-4.26-17.62v-2.66h-4v2.66zM208.26 89.54l-1.46 2.08a24.13 24.13 0 0 1-7.35-5.86v1.34c0 2.19-.32 3.69-1 4.5s-1.86 1.21-3.68 1.21h-1.86l-.84-2.44c1.32 0 2.26.07 2.81.07a2.2 2.2 0 0 0 1.38-.29 2.05 2.05 0 0 0 .51-.72 10.33 10.33 0 0 0 .18-2.63v-1.3a31.84 31.84 0 0 1-13 6.48l-.95-2.19a28.81 28.81 0 0 0 13.66-6.9 7.82 7.82 0 0 0-.6-1.5 28.21 28.21 0 0 1-11.72 5.33l-1.09-2.08a27.74 27.74 0 0 0 11.72-5c-.06-.07-.38-.43-1-1.07a31.8 31.8 0 0 1-9.16 3l-1.15-2.19A27.6 27.6 0 0 0 194.4 76h-7v-2.25h16.18V76h-5.87a8.61 8.61 0 0 1-1.71 1.29 12.55 12.55 0 0 1 2.57 4.07 22 22 0 0 0 5.65-4.13l1.78 1.61a26.06 26.06 0 0 1-6 4.24 23 23 0 0 0 8.26 6.46zM207.32 75h-2.49v-2.89h-18.58V75h-2.53v-5.2H194a11.12 11.12 0 0 0-1-1.65l2.71-.54a27 27 0 0 1 1.29 2.23h10.37zM99.09 115.58h-7.85v15.06a2.57 2.57 0 0 1-.62 1.81 2.75 2.75 0 0 1-1.35.86 16.54 16.54 0 0 1-3 .17h-2.71l-.8-2.55q2.16.12 5 .12c.54 0 .81-.29.81-.86v-13.31a29.28 29.28 0 0 1-5.56 8 27.55 27.55 0 0 1-7.74 5.78l-1.45-2.3a25.91 25.91 0 0 0 7.43-5.36 24.93 24.93 0 0 0 5.21-7.46h-12v-2.49h14.1v-4.6h2.68v4.6h7.85zM115.09 131.27a2.19 2.19 0 0 1-.4 1.36 2.08 2.08 0 0 1-1 .72 6.47 6.47 0 0 1-1.91.19h-1.7l-.6-2.38H111a4.05 4.05 0 0 0 1.36-.12.42.42 0 0 0 .21-.38v-3.09c-3.35 1.45-5.1 2.18-5.25 2.17l-.66-1.21a14.7 14.7 0 0 1-1.66 5.11l-2-1.72c.94-1.57 1.4-4.14 1.4-7.71V118h10.68zm1.81-15.77l-2.06 1.38a13.38 13.38 0 0 0-1-1.52q-4.61.8-10 1.26l-.6-2a19.55 19.55 0 0 0 4.7-6.34l2.46.78a21.82 21.82 0 0 1-3.61 5 52.85 52.85 0 0 0 5.54-.71 17.84 17.84 0 0 0-2-2.19l2.09-1.42a29.87 29.87 0 0 1 4.48 5.76zm-4.29 9.57v-4.7H107v1.55a25.86 25.86 0 0 1 5 1l-.86 2.11a29 29 0 0 0-4.15-.88c0 1 0 2.11-.13 3.26a38.71 38.71 0 0 0 5.75-2.34zm15.54 3.39q-.09 2.85-.6 3.54a3.72 3.72 0 0 1-1.07 1 14.34 14.34 0 0 1-4.24.32 12.23 12.23 0 0 1-3.5-.29 2 2 0 0 1-1-.93 3 3 0 0 1-.35-1.41v-10.05h2.49v3.69h7.45v2.27h-7.45v3.8c0 .39.2.58.6.58h4.21a.84.84 0 0 0 .77-.49 9.49 9.49 0 0 0 .35-2.77zm-.33-8.75h-7.94a2.36 2.36 0 0 1-1.79-.72 2.6 2.6 0 0 1-.67-1.85v-8.57h2.48v3.18h7.43V114h-7.43v2.89a.48.48 0 0 0 .21.34.6.6 0 0 0 .4.18h7.31zM138.5 119.52l-1.83 1.88a21.93 21.93 0 0 0-4.48-3.75l1.75-2a20.33 20.33 0 0 1 4.56 3.87zm-.63 4.84a48.4 48.4 0 0 1-3.5 9.49l-2.18-1.64a51.22 51.22 0 0 0 3.44-9.36zm1.75-12.15l-2 1.92a19.61 19.61 0 0 0-4.73-3.91l2-1.86a22.7 22.7 0 0 1 4.73 3.85zm18 10.15l-1 2.19a23 23 0 0 1-9.13-3.29 28.2 28.2 0 0 1-8.71 3.29l-1.18-2.14a20.24 20.24 0 0 0 9.69-3.66l2.25.82a.56.56 0 0 1-.13.22c-.06.07-.09.11-.09.13a20.46 20.46 0 0 0 8.28 2.44zm-8.17 1.09a25.84 25.84 0 0 1-9.56 4.15l-1.26-1.87a23.34 23.34 0 0 0 9-3.46zm-1.83-5.25l-1.83.85a4.57 4.57 0 0 0-.3-.6c-2.2.41-4.16.7-5.85.87l-.73-1.81a6.54 6.54 0 0 0 2.75-3.33l2.27.63a14 14 0 0 1-1.64 2.21 9.75 9.75 0 0 0 2.21-.32 2.64 2.64 0 0 0-.5-.7l1.8-.91a13.42 13.42 0 0 1 1.8 3.11zm5.08 6.93a28.8 28.8 0 0 1-11.75 5.48l-1.34-1.83a27.36 27.36 0 0 0 11.05-4.78zm3.37 1.47a29.86 29.86 0 0 1-14.3 7.13l-1.39-1.89a29.11 29.11 0 0 0 13.62-6.25zm-.68-13.6l-2 1.15a13.62 13.62 0 0 0-.89-1.06c-4.65.45-8.45.71-11.43.77l-.46-2a9.07 9.07 0 0 0 4.53-3.61l2.52 1a13.75 13.75 0 0 1-2.95 2.47c1.41 0 3.42-.18 6-.41l-1-.88 2-1.2a20.87 20.87 0 0 1 3.68 3.77zm1.61 5.8l-1.95.77a7.44 7.44 0 0 0-.49-1.15q-1.42.26-5.7.69l-.71-1.75a7 7 0 0 0 2.37-3.32l2.3.34a9.25 9.25 0 0 1-1.72 2.62 23.3 23.3 0 0 0 2.43-.37 4.42 4.42 0 0 0-.55-.83l1.83-.81a17 17 0 0 1 2.19 3.81zM186.26 130.84l-.55 2.35h-4.49q-4 0-6.87-.1a23.88 23.88 0 0 1-4.07-.4 11.22 11.22 0 0 1-2.42-.89 9.73 9.73 0 0 1-2.13-1.44 23.89 23.89 0 0 1-2.64 3.42l-2-1.67a16.47 16.47 0 0 0 4.56-8.07h-4.07v-2.41a36.49 36.49 0 0 0 3.63-4.88h-4v-2.38h7v2.38a57.68 57.68 0 0 1-3.52 4.91h3.6v2.38a14.76 14.76 0 0 1-1.39 4.21 8.79 8.79 0 0 0 5.08 2.33q2.86.34 14.28.26zm-18.31-19l-1.7 1.75a21.22 21.22 0 0 0-4.39-3.5l1.61-1.86a19.56 19.56 0 0 1 4.53 3.6zm18.28 7l-1.17 2.16a50.86 50.86 0 0 0-6.76-3.34v2.26h4.07v2.23l-.6 1.12h3a24.52 24.52 0 0 1-.75 4.77 2.83 2.83 0 0 1-1.17 1.58 7.28 7.28 0 0 1-3.19.45c-.63 0-1.25 0-1.88-.06l-.82-2.26h3.72a.91.91 0 0 0 1-.71 8.67 8.67 0 0 0 .26-1.75H178l1.58-3.16h-3.3a9.12 9.12 0 0 1-5.89 7.79l-1.66-1.86a8.75 8.75 0 0 0 3.54-2.47 5.82 5.82 0 0 0 1.49-3.46h-2.9v-2c-.9.44-1.52.73-1.85.85l-1.5-1.98a24.5 24.5 0 0 0 6.55-3.73h-4.93v-2.24h6.65v-1.42c-1.92.15-3.73.22-5.42.22l-1-2.32a77.81 77.81 0 0 0 14-1.21l1.33 2.27c-1.86.32-4 .57-6.45.77v1.69h7.52v2.24h-7.41a74.59 74.59 0 0 1 7.88 3.59zm-10.45 1v-3.1a21.88 21.88 0 0 1-4.39 3.1zM215.32 114h-11.2v3.49h9.54v10.35q0 3.36-2.74 3.36h-3.44l-.83-2.62c1.29.07 2.49.11 3.61.11a.8.8 0 0 0 .49-.19.53.53 0 0 0 .25-.44v-8h-6.88v13.41h-2.6v-13.41h-6.83v11.1h-2.62v-13.65h9.45V114h-11.11v-2.5h11.17A15.07 15.07 0 0 0 200 109l2.78-.68a27 27 0 0 1 1.75 3.24h10.76zM227.29 117.19h-2.41v6.08c.36-.2 1-.61 1.91-1.24l.39 2.47a54.45 54.45 0 0 1-7.19 4.31l-.8-2.3a27.39 27.39 0 0 0 3.29-1.72v-7.6h-2.77v-2.29h2.77v-6.36h2.4v6.36h2.41zm17.07 4.54H234a14.81 14.81 0 0 1-1 1.42h10.8c-.08 2.09-.18 4-.32 5.74a15.75 15.75 0 0 1-.4 3.09 2.38 2.38 0 0 1-.67.87 2.73 2.73 0 0 1-1.25.56 23.15 23.15 0 0 1-3.43.16l-.8-2.3c.52 0 1 .06 1.57.06 1.19 0 1.92-.15 2.18-.46s.45-2.19.57-5.62h-.77q-2.15 5.22-8.25 8.34l-1.77-1.66a15.33 15.33 0 0 0 7.58-6.68h-1.81q-2.7 3.84-8.81 6.57l-1.64-1.82q5.35-2.19 7.68-4.79H231a27.12 27.12 0 0 1-3.13 2.35l-1.62-1.75a17 17 0 0 0 5.09-4.12h-4.49v-2.1h17.52zm-1.45-3.56h-14.5v-9.23h14.5zm-2.44-5.6v-1.48h-9.63v1.48zm0 3.5v-1.51h-9.63v1.51zM780.8 80.06h-8.2v15.3H770V71h10.8zm-2.59-5.53V73.3h-5.61v1.23zm0 3.35v-1.23h-5.61v1.23zm11.72 10.72h-4v6.2h-2.54v-6.2H780a8.77 8.77 0 0 1-3.72 6.28l-2.13-1.72a6.67 6.67 0 0 0 3.22-4.56h-4v-2.41h4.21v-2.35h-3.31v-2.38h14.83v2.38h-3.19v2.35h4zm-6.56-2.41v-2.35h-3.18v2.35zm10 7a2 2 0 0 1-.68 1.55c-.46.4-1.74.59-3.85.59h-1l-.66-2.74a11 11 0 0 0 2.46.24 2.26 2.26 0 0 0 1-.14.64.64 0 0 0 .23-.59v-12h-8.2V71h10.74zm-2.54-18.63V73.3h-5.6v1.23zm0 3.35v-1.26h-5.6v1.23zM810.2 73a18.3 18.3 0 0 1-6.45 5.47h5.16v6.51h-5.66l-.25 2.44h6.27a25.12 25.12 0 0 1-.49 5.43 2.92 2.92 0 0 1-1.35 2 10 10 0 0 1-3.72.45h-2.32l-.86-2.35c1 .07 2.58.1 4.79.1.89 0 1.34-1.15 1.34-3.44h-6.45l.84-6.8h5.44v-2.2h-4.79V79.4a16.62 16.62 0 0 1-2.35.91l-1.18-2.08a26.35 26.35 0 0 0 4.21-1.72 19.88 19.88 0 0 0-2.46-1.29l1.69-1.78a26.71 26.71 0 0 1 3.12 1.64 12.29 12.29 0 0 0 2.43-2.08h-6.44v-2.29h9.48zm13.35 5.36l-1.3 2a21.41 21.41 0 0 1-2.63-1.36v2.9c0 .3.17.46.49.46h2.55v2.14h-3.36a1.84 1.84 0 0 1-2-2.12v-1.74h-2.82q0 3-3.28 4.61l-1.55-1.87a4.65 4.65 0 0 0 1.79-1.28 4.06 4.06 0 0 0 .67-2.61v-1.07h6.61a17.79 17.79 0 0 1-7.3-7.62l2.27-.72a9.28 9.28 0 0 0 1.45 2.3 12.44 12.44 0 0 0 2.18-2.3l2.06 1.29a16.75 16.75 0 0 1-2.71 2.63 14.36 14.36 0 0 0 1.29 1.1 23.84 23.84 0 0 0 2.78-2.68l2 1.26a18 18 0 0 1-2.84 2.73 25.87 25.87 0 0 0 3.65 1.9zM823 93.9l-1.78 1.61a48.89 48.89 0 0 0-4.22-2.78 18.94 18.94 0 0 1-6.11 2.87l-1.26-2.1a17.39 17.39 0 0 0 5.11-2.06c-1.52-.89-2.81-1.59-3.88-2.1l1.47-1.51h-1.69v-2.21h10.71v2.21a28.12 28.12 0 0 1-2.52 3.23c1.46.94 2.84 1.86 4.17 2.84zm-4.59-6.07H813c1.29.65 2.54 1.32 3.74 2a14.12 14.12 0 0 0 1.68-2zM833 81l-1.77 1.75a28.21 28.21 0 0 0-4.05-3.5l1.82-1.81a25.81 25.81 0 0 1 4 3.56zm.2 5.22a68 68 0 0 1-3.88 9.14l-2.11-1.51a59.62 59.62 0 0 0 3.89-9.17zm.6-12.2l-1.86 1.65a30.21 30.21 0 0 0-4-3.81l1.72-1.72a19.86 19.86 0 0 1 4.11 3.86zm9.37 6.41a33.9 33.9 0 0 1-4.24 3l-.9-1.64a1.1 1.1 0 0 0 .49-.9V79.4a16.51 16.51 0 0 1-4.09 4.6l-1.7-1.75a13.47 13.47 0 0 0 4.27-4.97h-3.43l1.12-4.28h-1.09v-2.26h8.75V73h-1.77a20.21 20.21 0 0 1-.39 2.16h2.35v2.17h-3a6.45 6.45 0 0 1-.35.84h1.5v1.59q.6-.42 1.56-1.2zM851 95.27h-2.51V94.2h-10.6v1.07h-2.59V84.05H851zM838.23 73h-1.37l-.52 2.16h1.47a16.89 16.89 0 0 0 .42-2.16zm10.21 15v-1.73h-10.6V88zm0 4v-1.85h-10.6V92zm4.18-12c0 1.39-.2 2.24-.6 2.56a3.7 3.7 0 0 1-2.19.46 3.44 3.44 0 0 1-1.92-.35 1.47 1.47 0 0 1-.45-1.24v-1.2a16.48 16.48 0 0 1-3.25 3.27l-1.65-1.69a12.16 12.16 0 0 0 4.07-4.59h-3.38l1.06-4.22h-.89v-2.26H852V73h-2a16.78 16.78 0 0 1-.36 2.16h2.77v2.17H849a2.88 2.88 0 0 1-.32.84h.89v2.57c0 .15.07.22.2.22h.46c.26 0 .39-.57.39-1.72zm-5-7.11h-1.2l-.52 2.16h1.36a15.21 15.21 0 0 0 .39-2.05zM881.42 94.36H863.3v1h-2.59V84.22A23.6 23.6 0 0 1 858 86.6l-1.75-2.1a26.58 26.58 0 0 0 7.13-7.66h-6.25v-2.46h7.65a37.58 37.58 0 0 0 1.77-4.27l2.52.66c-.45 1.3-.91 2.51-1.4 3.61H881v2.46h-14.64a42.21 42.21 0 0 1-3.06 4.56v10.47h7.27v-6.69h-5.82v-2.43h5.82v-4.58h2.65v4.58h6.25v2.43h-6.25v6.69h8.2zM910.4 85.1l-.92 2.27a45.48 45.48 0 0 1-11.37-2.9 52.54 52.54 0 0 1-11.57 2.76l-1-2.33a45.25 45.25 0 0 0 9.74-1.9c-1.66-1.14-2.78-2-3.38-2.49-1.21.92-2.4 1.73-3.55 2.44l-1.69-1.86a26.28 26.28 0 0 0 7.67-6.4h-5.63v4h-2.56v-6.31h10.22a11.73 11.73 0 0 0-.85-1.64l2.7-.63a15.35 15.35 0 0 1 1.16 2.27h10.46v6.28h-2.58v-4h-12.51l1.94 1.09c-.3.39-.64.81-1 1.23h10.43v2.24a44.63 44.63 0 0 1-5.25 3.81 41.6 41.6 0 0 0 9.54 2.07zm-3.58 10.33h-2.6v-1.07h-12.46v1.07h-2.61v-8.2h17.67zm-2.6-3.43v-2.48h-12.46V92zm-2-12.78H894a21.16 21.16 0 0 0 4 2.66 26.12 26.12 0 0 0 4.21-2.62zM938.51 72.35a57.43 57.43 0 0 1-8.65 1.36 94.23 94.23 0 0 1-9.66.47v3h18v10H920a20.46 20.46 0 0 1-3.67 8.2l-2.11-1.81A16.72 16.72 0 0 0 917.58 83V71.72q6.55 0 11-.29a58.78 58.78 0 0 0 8.93-1.38zm-3 12.39v-5.08H920.2v5.08zM771 118.1h-7.84v15.06a2.62 2.62 0 0 1-.62 1.81 2.71 2.71 0 0 1-1.36.86 15.54 15.54 0 0 1-3 .17h-2.71l-.8-2.54c1.45.07 3.1.11 4.95.11.55 0 .82-.29.82-.86v-13.3a29.38 29.38 0 0 1-5.56 8 27.55 27.55 0 0 1-7.74 5.78l-1.46-2.29a25.8 25.8 0 0 0 7.45-5.34 25.11 25.11 0 0 0 5.21-7.46h-12v-2.49h14.1V111h2.68v4.6H771zM787 133.79a2.18 2.18 0 0 1-.4 1.36 2 2 0 0 1-1 .72 6.52 6.52 0 0 1-1.91.19h-1.71l-.6-2.38q.69.06 1.53.06a4 4 0 0 0 1.36-.13.42.42 0 0 0 .2-.38v-3.13c-3.34 1.45-5.09 2.18-5.24 2.17l-.66-1.21a14.92 14.92 0 0 1-1.66 5.11l-2-1.72q1.4-2.35 1.4-7.71v-6.19H787zm1.8-15.79l-2 1.39a11.56 11.56 0 0 0-1-1.53c-3.06.53-6.41 1-10 1.26l-.6-2a19.41 19.41 0 0 0 4.69-6.34l2.46.78a21.52 21.52 0 0 1-3.6 5 52.38 52.38 0 0 0 5.53-.71 15.74 15.74 0 0 0-2-2.18l2.1-1.43a29.72 29.72 0 0 1 4.42 5.76zm-4.29 9.57v-4.7h-5.58v1.55a25.53 25.53 0 0 1 5 1l-.85 2.11a29.37 29.37 0 0 0-4.15-.88c0 1 0 2.11-.13 3.26a38.28 38.28 0 0 0 5.71-2.32zm15.55 3.43a7.7 7.7 0 0 1-.61 3.54 3.69 3.69 0 0 1-1.06 1 14.34 14.34 0 0 1-4.24.32 12.32 12.32 0 0 1-3.51-.29 2 2 0 0 1-1-.93 2.84 2.84 0 0 1-.35-1.41v-10.07h2.48v3.69h7.46v2.27h-7.46v3.81c0 .38.21.57.61.57h4.21a.8.8 0 0 0 .76-.49 9.13 9.13 0 0 0 .35-2.77zm-.33-8.75h-8a2.34 2.34 0 0 1-1.78-.72 2.61 2.61 0 0 1-.68-1.85v-8.57h2.49v3.18h7.43v2.27h-7.43v2.89a.5.5 0 0 0 .2.34.62.62 0 0 0 .4.18h7.32zM813.63 118.1h-3.25v3.9c1.06-.49 2-.94 2.74-1.37l.29 2.49c-.81.47-1.82 1-3 1.64v8.37a3.21 3.21 0 0 1-.64 2.17 3.45 3.45 0 0 1-2.59.72c-.58 0-1.17 0-1.77-.07l-.68-2.49h2.67q.45 0 .45-.54v-6.82c-.9.43-2 .88-3.18 1.34l-.65-2.52c1.4-.52 2.68-1.05 3.83-1.61v-5.21h-3.58v-2.43h3.58V111h2.56v4.63h3.25zm15.37-3.89h-7.67a41.12 41.12 0 0 1-2.43 7h8.85V136h-2.65v-1.6h-6.58v1.6h-2.6v-9.66q-1.53 1.94-3.21 3.7l-1.55-2.17a26.56 26.56 0 0 0 7.57-13.65h-5.9v-2.52H829zm-3.9 17.72v-8.2h-6.58v8.2zM857.94 127.29h-15.1V133a36.06 36.06 0 0 0 4.91-1.63V134a55.44 55.44 0 0 1-7.32 2.13l-.6-2.07a1.73 1.73 0 0 0 .58-1.15v-5.66h-2.93a23.81 23.81 0 0 1-2.25 8.8l-2.15-1.61q2.1-3.91 2.1-11.59v-11.39h21.47V118h-18.9v2.62h4.73v-1.75h2.43v1.75h5.49v-1.75h2.44v1.75H857v2.08h-4.15v2.41h5.1zm-15.46-2.16v-2.41h-4.76a20.25 20.25 0 0 1-.05 2.41zm11.59-9.36v-2h-16.32v2zm-3.67 9.36v-2.41h-5.49v2.41zm8 9l-1.4 2.18q-7.47-2.38-10.5-7.51l2.28-.91a13.36 13.36 0 0 0 2.67 2.92 10.64 10.64 0 0 0 3.23-2.78l2.32 1.26a18.15 18.15 0 0 1-3.26 3 21.9 21.9 0 0 0 4.66 1.87zM887.37 120.09l-1.31 2.33q-7.57-3.12-11.34-8.35a25.2 25.2 0 0 1-4.14 3.94 41.9 41.9 0 0 1-7.34 4.17l-1.32-2.41q8.49-3.57 12-8.91l2.87.57-.52.71a23.69 23.69 0 0 0 11.1 7.95zm-.37 15.48h-24.88V133h4.32v-10.11h2.64V133h4.78v-14.69h2.52v6h8.31v2.5h-8.31V133H887zM916.3 129.15h-11.23V136h-2.55v-6.87h-11.2V127h11.2v-1.45h-9.84v-2.16h9.84V122H892v-2.15h6.53a9.61 9.61 0 0 0-1-1.24l1.92-1.06h-8.14v-2.14H900v-4.27h2.49v4.27h2.58v-4.27h2.5v4.27h8.64v2.14h-7.9l1.69.9a11.28 11.28 0 0 1-.95 1.4h6.59V122h-10.6v1.4H915v2.16h-9.91V127h11.21zm-15.86 2.4a39 39 0 0 1-7.42 4.33l-1.67-2a32.14 32.14 0 0 0 7.11-4zM898 113.81l-1.91 1.38a19 19 0 0 0-2.55-2.53l1.92-1.48a16.38 16.38 0 0 1 2.54 2.63zm9.51 3.72H900a18.49 18.49 0 0 1 1.59 2.3h4.34a14.54 14.54 0 0 0 1.54-2.3zm9.34 16.21l-1.39 2a53.29 53.29 0 0 0-8.2-3.89l1.48-2.07a57.25 57.25 0 0 1 8.07 3.96zm-2.75-21.42a15.3 15.3 0 0 1-2.5 2.68l-2.27-1.34a17.59 17.59 0 0 0 2.51-2.52zM931.24 123.48h-4.08a20.79 20.79 0 0 1-4.66 12.61l-2.07-1.92a17.15 17.15 0 0 0 4.2-10.69h-4.24v-2.3h4.36v-4H921v-2.38h3.79v-3.9h2.49v3.86h3.43v2.38h-3.43v4h4zm.24 7.47l-2 1.7a25.55 25.55 0 0 0-2.61-4.62l1.8-1.65a22 22 0 0 1 2.81 4.62zm14-.71a16.58 16.58 0 0 1-.35 3.65 2.08 2.08 0 0 1-1 1.53 11.29 11.29 0 0 1-3.28.29c-1.47 0-2.21-.76-2.21-2.29v-5.91h-1.72q0 5.38-5 8.66l-1.83-2a8.27 8.27 0 0 0 3.2-2.85 6.82 6.82 0 0 0 1.15-3.81h-2.41v-16h12.16v16h-3.06v5c0 .45.29.67.87.67a1 1 0 0 0 .85-.3 4.45 4.45 0 0 0 .28-1.83 15.56 15.56 0 0 0 0-1.79zm-3.86-14.11v-2.22h-7v2.22zm0 4.42v-2.18h-7v2.18zm0 4.61v-2.34h-7v2.34zM958.94 123.21l-1.72 1.86a30.15 30.15 0 0 0-2.06-3.12V136h-2.46v-12.21a40.93 40.93 0 0 1-2.27 5l-1.34-2.66a26.73 26.73 0 0 0 3.48-7.85h-3.09v-2.46h3.22V111h2.46v4.73h2.6v2.46h-2.6v.42a36.79 36.79 0 0 1 3.78 4.6zm15.49 7.08h-7.93q-1.66 4.5-8.31 6.08l-1.2-2.24q4.86-.84 6.76-3.84h-6.35v-2.23h6.92a14.78 14.78 0 0 0 .21-1.61h-4.91v-9.23h12.89v9.23h-5.41a13.92 13.92 0 0 1-.14 1.61h7.47zM965.66 115H964v1.36h-2.53V115H958v-2.22h3.51V111H964v1.78h1.65zm4.36 5.77v-1.35h-7.94v1.35zm0 3.5v-1.47h-7.94v1.47zm4.73 9.74l-1.38 2.12a39 39 0 0 0-6.84-3l1.23-2.15a42.36 42.36 0 0 1 6.99 3.02zm-.63-19H971v1.36h-2.52V115h-1.72v-2.22h1.72V111H971v1.78h3.13zM432.91 77.65L431.69 80c-1.41-.57-2.36-1-2.85-1.18v1.93h-7.28v4h7v2.47h-7v4.18H432v2.44h-23.67V91.4h10.6v-4.15h-7.22v-2.47h7.22v-4h-7.33v-2.15c-.87.39-1.83.79-2.89 1.2l-1.18-2.35a29.36 29.36 0 0 0 9.31-5.14h-2.26v-2.43h7.05q2.82 4.68 11.28 7.74zm-5.24.63a22 22 0 0 1-7.43-5.64 24.75 24.75 0 0 1-7.93 5.64zM442.9 76.36l-1.32 2a19.45 19.45 0 0 0-4.93-2.62l1.15-2.14a22 22 0 0 1 5.1 2.76zm3.21 13.24a39.42 39.42 0 0 1-7.9 4.42l-1.53-2.13a29.94 29.94 0 0 0 7.45-3.89zm15.6-2.38h-11.23v7.19h-2.49v-7.19h-11.28V85H448v-1.59h2.49V85h11.23zm-16.64-7.68a56.37 56.37 0 0 1-7.27 4.1l-1-2.23a47 47 0 0 0 7.31-4zm-.85-7.42l-1.32 2a22.34 22.34 0 0 0-5-3.07l1.25-2a22.72 22.72 0 0 1 5.07 3.07zm17.24 10.63H444.3v-2.12h2v-8.76h-1.65v-2.1h16.43v2.1h-12.29v1.59h11v5.47h-11v1.7h12.67zM457.25 77v-1.5h-8.46V77zm4.49 14.83L460.48 94a40.73 40.73 0 0 0-8.31-3.93l1.24-2.07a36.77 36.77 0 0 1 8.33 3.87zM490.92 91.81l-.77 2.41h-4.2a65.06 65.06 0 0 1-10.89-.58 9.35 9.35 0 0 1-4.84-2.56 26.14 26.14 0 0 1-2.78 3.45L465.58 93a20.25 20.25 0 0 0 4.81-8h-4.24v-2.41a39.6 39.6 0 0 0 3.78-5h-4.1v-2.41h7v2.44a45.54 45.54 0 0 1-3.35 5H473V85a26.72 26.72 0 0 1-1.62 4.09 6.89 6.89 0 0 0 3.86 2.31 66.19 66.19 0 0 0 10.37.49c1.97.02 3.74-.02 5.31-.08zm-18.24-19l-1.8 1.72a24.16 24.16 0 0 0-4.42-3.67l1.86-1.72a21.86 21.86 0 0 1 4.36 3.64zm18.15 2.29h-8c-.38.82-.64 1.35-.78 1.58h7.42v13.84h-14.73V76.65h4.35c.17-.3.45-.82.84-1.58h-6.42v-2.32h17.32zm-10.36-3.93l-2.12 1.44a30.47 30.47 0 0 0-3-2l2.24-1.4a20.17 20.17 0 0 1 2.88 1.93zm6.42 9.43v-1.8h-9.61v1.8zm0 3.88V82.7h-9.61v1.75zm0 3.92v-1.81h-9.61v1.78zm1.78-18a18.73 18.73 0 0 1-2.9 2.24l-2.35-1.32a22.9 22.9 0 0 0 2.83-2zM520.07 78.16l-1.21 2.3a19.89 19.89 0 0 1-2.48-.71v10.77h-12.09l1.23 1.48a37.14 37.14 0 0 1-9.52 2.71l-1.23-2.3a33.77 33.77 0 0 0 7.81-1.89h-4.2V79.69h5.41l-1.09-1.58a13.15 13.15 0 0 0 7.48-4.47l2.6.58a4.51 4.51 0 0 1-.63 1 23 23 0 0 0 7.92 2.94zm-16.75-.79H495V75h8.34zm-.26-4.57h-7.7v-2.29h7.7zm10.74 9.93v-1H501v1zm0 2.92v-1.06H501v1.06zm0 3v-1.14H501v1.12zm5.76-15.5a34 34 0 0 1-2.5 3.2L514.89 75c.25-.28.76-.92 1.54-1.91h-9a23.88 23.88 0 0 1-2.51 2.52L503 74a17.17 17.17 0 0 0 4.27-4.87l2.35.8a2.78 2.78 0 0 1-.55 1h10.54zm-3.46 6.56a22.42 22.42 0 0 1-5.6-2.76 15.23 15.23 0 0 1-4.65 2.76zm3.8 12.92l-1.37 2.21a44.44 44.44 0 0 0-8.39-1.75l1.31-2.16a36.58 36.58 0 0 1 8.45 1.68zM528.26 82.24a43.67 43.67 0 0 1-2.11 8.37l-2.24-1.07a42.74 42.74 0 0 0 2-7.93zm-.14-5.66l-2.35.81a32.77 32.77 0 0 0-1.57-5.62l2.25-.86a37 37 0 0 1 1.67 5.67zm7.42 4.16h-3.9v13.7h-2.49v-13.7h-4.84V78.3h4.84v-8.84h2.49v8.84h3.9zm.74 8.09l-2.29.6a39.52 39.52 0 0 0-1.43-7.19l2.17-.69a31.55 31.55 0 0 1 1.55 7.28zm.23-17.26a29.17 29.17 0 0 1-1.65 5.91l-2.24-1a29.16 29.16 0 0 0 1.54-5.64zm6.22 10.61L541 84a30 30 0 0 0-4.75-5l1.64-1.93a30.7 30.7 0 0 1 4.84 5.11zm.36-6.91l-1.8 1.73a25.68 25.68 0 0 0-4.24-4.81l1.64-1.83a29.18 29.18 0 0 1 4.4 4.91zM549 87.08l-2.46.4v7H544V88l-6.7 1.13-.18-2.49 6.88-1.2v-16h2.54V85l2.3-.35zM563.28 70.28a22.48 22.48 0 0 1-3.5 6.31 25.27 25.27 0 0 1-5.2 5.27L552.81 80a23.9 23.9 0 0 0 8.33-10.7zm10.4 9.47c0 2.66-.08 5.31-.3 7.93a21.56 21.56 0 0 1-.72 4.84 3.05 3.05 0 0 1-1.24 1.48 3.73 3.73 0 0 1-2 .54c-1.78 0-3 0-3.61-.06l-.87-2.55c1.35.1 2.74.14 4.19.14a1.84 1.84 0 0 0 1-.27c.29-.18.52-1.37.68-3.56s.19-4.24.19-5.98h-6.21q-1.16 8.49-9.16 12.42l-1.8-2a14.89 14.89 0 0 0 5.41-3.85 11.49 11.49 0 0 0 2.92-6.58h-4.56v-2.5zm4.46.19l-1.62 2a22.39 22.39 0 0 1-7.13-9.83h-2.62v-2.4H571a19.16 19.16 0 0 0 7.14 10.23zM593.13 82.4l-1.69 2.08a25.25 25.25 0 0 0-2.44-3.39v13.35h-2.46v-13.1a20.34 20.34 0 0 1-3.11 6.12l-1.59-2.16a31.15 31.15 0 0 0 4.54-8.62h-3.88v-2.46h4v-4.86h2.5v4.86h3.55v2.46H589v.85a39.43 39.43 0 0 1 4.13 4.87zm13.94-1.77h-4v13.81h-2.52V80.63h-4.2q0 9.24-3.95 14l-2-1.5q3.44-4 3.44-11.35v-9.86a36.87 36.87 0 0 0 11.57-2.4l1.41 2.11a39 39 0 0 1-10.43 2.52v4h10.68zM444.32 117.23h-7.85v15.06a2.57 2.57 0 0 1-.62 1.8 2.73 2.73 0 0 1-1.36.87 16.4 16.4 0 0 1-2.95.17h-2.72l-.79-2.55c1.44.08 3.09.11 5 .11.54 0 .81-.28.81-.85v-13.31a29.28 29.28 0 0 1-5.56 8 27.74 27.74 0 0 1-7.74 5.78L419 130a25.9 25.9 0 0 0 7.44-5.34 24.77 24.77 0 0 0 5.21-7.45h-12v-2.49h14.1v-4.6h2.68v4.6h7.85zM460.32 132.92a2.19 2.19 0 0 1-.4 1.36 2.08 2.08 0 0 1-1 .72 6.89 6.89 0 0 1-1.91.19c-.43 0-1 0-1.71-.05l-.6-2.37h1.53a4.05 4.05 0 0 0 1.36-.12.41.41 0 0 0 .2-.38v-3.1q-5 2.19-5.24 2.17l-.66-1.2a14.7 14.7 0 0 1-1.66 5.11l-2-1.72q1.39-2.36 1.4-7.71v-6.19h10.68zm1.81-15.77l-2.06 1.38a12.06 12.06 0 0 0-1-1.52c-3.06.53-6.41.95-10 1.26l-.6-2a19.48 19.48 0 0 0 4.7-6.34l2.46.79a22.05 22.05 0 0 1-3.61 5 52.85 52.85 0 0 0 5.54-.71 16.52 16.52 0 0 0-2-2.19l2.1-1.42a29.87 29.87 0 0 1 4.47 5.75zm-4.3 9.57V122h-5.58v1.55a24.81 24.81 0 0 1 4.95 1l-.85 2.11a29.37 29.37 0 0 0-4.15-.88c0 1 0 2.11-.13 3.26a38.28 38.28 0 0 0 5.76-2.32zm15.55 3.39a7.7 7.7 0 0 1-.61 3.54 3.64 3.64 0 0 1-1.06 1c-.37.22-1.78.33-4.24.33a12.32 12.32 0 0 1-3.51-.29 2 2 0 0 1-1-.93 2.84 2.84 0 0 1-.35-1.41v-10.07h2.49V126h7.45v2.26h-7.45v3.81a.52.52 0 0 0 .6.58h4.21a.84.84 0 0 0 .77-.49 9.67 9.67 0 0 0 .34-2.78zm-.33-8.75h-7.95a2.34 2.34 0 0 1-1.78-.72 2.61 2.61 0 0 1-.68-1.86v-8.56h2.49v3.18h7.43v2.26h-7.43v2.9a.52.52 0 0 0 .2.34.62.62 0 0 0 .4.18h7.32zM480.61 123.49a40.27 40.27 0 0 1-1.18 7.74l-2.1-1.15a35 35 0 0 0 1.1-7zm0-6.13l-2.05.77a39.77 39.77 0 0 0-1.11-5.5l2-.76a37.37 37.37 0 0 1 1.19 5.49zm6.12 4.18h-2.89v13.52h-2.44v-13.52h-3.9V119h3.9v-8.92h2.47V119h2.89zm.52-8.77a41.07 41.07 0 0 1-.9 5.36l-2-.66a31.5 31.5 0 0 0 .83-5.28zm0 16.87l-2.2.72a51.87 51.87 0 0 0-.52-6.79l2-.52q.66 4.23.77 6.59zm13.92 3a2.6 2.6 0 0 1-.77 1.89c-.51.51-1.78.71-3.79.6l-.88-2.41h2.49c.3 0 .46-.14.46-.42v-1.55h-8a12.82 12.82 0 0 1-1.95 4.65l-1.73-1.91a10.49 10.49 0 0 0 1.63-6.31v-5.27h12.63zm1.26-12.12h-15v-2h6.15V117h-5.31v-1.83h5.31v-1.32h-5.83v-2.07h5.83v-1.6h2.5v1.6H502v2.07h-5.86v1.32h5.42V117h-5.42v1.45h6.3zm-3.75 8.34v-1.53H491v1.53zm0-3.44V124H491v1.38zM512.19 118.43l-1.61 2a24 24 0 0 0-4.37-3.16l1.48-2.09a26.84 26.84 0 0 1 4.5 3.25zm19.32 12.45h-11.25v4.24h-2.49v-4.24h-11.26v-2.38h11.26v-2h-2.71V118c-.69.7-1.09 1.08-1.18 1.15l-1.49-2.15a20 20 0 0 0 4.89-7.28l2.29.83c-.52 1.17-1 2-1.28 2.64h4c-.29-.79-.64-1.72-1.06-2.78l2.55-.66a35 35 0 0 1 1.2 3.44h5.84v2.09h-6.21v1.61h5.09v2h-5.09v1.67h5.09v2h-5.09v1.71h6.62v2.18h-10.97v2h11.25zm-17.6-8.71a36.86 36.86 0 0 1-5.54 5.56l-1.74-1.92a50.33 50.33 0 0 0 5.56-5.42zm.14-8.91l-1.64 2a21.2 21.2 0 0 0-4.78-3.36l1.5-2a20 20 0 0 1 4.92 3.36zm8 3.64v-1.61h-4.54v1.61zm0 3.72V119h-4.54v1.67zm0 3.75v-1.71h-4.54v1.71zM544.23 111a25.29 25.29 0 0 1-7.64 6.81l-1.24-2.46a20.36 20.36 0 0 0 6.4-5.5zm.61 5.3a45.35 45.35 0 0 1-2.84 4.24v14.58h-2.66v-11.49a18.52 18.52 0 0 1-2.87 2.38l-1.12-2.55q3.64-2.38 7-8.15zm15.66 4.38h-3.86v11.62c0 1.9-1 2.85-3.11 2.85-1.32 0-2.62 0-3.88-.08l-1-2.6h4.45a.77.77 0 0 0 .54-.23.73.73 0 0 0 .26-.56v-11h-9.3v-2.52h15.9zm-.72-7.25h-14.4V111h14.4zM575.33 115.2l-1.61 1.92a28.42 28.42 0 0 0-3.72-3.72 29.93 29.93 0 0 1-2.35 3.38h5.22v2.33h-2v2.14h3.55v2.32h-3.55V131a31.94 31.94 0 0 0 3.23-.94l.17 2.27a82.51 82.51 0 0 1-9.11 2.57l-.65-2.29c1.65-.32 3-.61 3.93-.88v-8.12H565v-2.32h3.44v-2.14h-1.78v-1.25a8.9 8.9 0 0 1-1 .74l-1.45-2.12a17.59 17.59 0 0 0 4.86-6.62l2.38.66a2.27 2.27 0 0 1-.38.78 34.12 34.12 0 0 1 4.26 3.86zm-7.6 15.07l-2.11.49a41.14 41.14 0 0 0-.89-5.79l2.07-.5a34.55 34.55 0 0 1 .93 5.8zm6.63-5.52a27.14 27.14 0 0 1-.75 5l-2-.51a21 21 0 0 0 .71-5zm14.57 8a2.32 2.32 0 0 1-.58 1.56 2.36 2.36 0 0 1-1.72.77c-.76.05-1.36.07-1.79.07h-1.26l-.74-2.44a10.06 10.06 0 0 0 1.16.06 6.48 6.48 0 0 0 2.09-.19.66.66 0 0 0 .35-.64v-3.44a75.18 75.18 0 0 1-7.37 2.52l-.82-1.86a13.47 13.47 0 0 1-2.29 6.45l-2.09-1.84a10.2 10.2 0 0 0 2-6.59v-8.51h5.19v-8.48h2.57v8.48h5.3zm-9.1-16.11l-2.15 1.14a31.62 31.62 0 0 0-3-5.58l2.21-1.12a27.16 27.16 0 0 1 2.94 5.58zm6.61 9.49V121h-8.08v1.45a39.62 39.62 0 0 1 6.59 1.26l-.72 2.24a31.3 31.3 0 0 0-5.81-1.34c0 1.9-.1 3.29-.14 4.18a51.07 51.07 0 0 0 8.16-2.64zm3.29-14.13a34.11 34.11 0 0 1-2.71 5.83l-2.21-1.23a31.31 31.31 0 0 0 2.57-5.5z"/>
  </g>
  <g data-name="group6">
    <path fill="#424242" d="M1023.48 139.02v298.32l179.57-142.15-179.57-156.17z"/>
    <rect y="234.6" width="1045.2" height="110.06" rx="2.83" fill="#424242"/>
    <path d="M1063.79 283.46l-1.85 2.49a29.73 29.73 0 0 1-13.25-17.31q-3.21 10.38-13.4 17.06l-1.83-2.67q10.53-6.88 12.83-16.85h-12.11v-3.09h12.54q.38-3.61.42-7.36h3.09c0 3-.13 5.45-.3 7.36h13.45v3.09h-12.46q2.49 11.1 12.87 17.28zM1085.74 278.24h-4.16a21.83 21.83 0 0 1-2.17 2.82c1.83.74 3.42 1.44 4.75 2.1l-1.7 2.2q-3.43-1.59-5.32-2.3a29.28 29.28 0 0 1-8.6 2.92l-1.21-2.58a24.38 24.38 0 0 0 6.3-1.58 35.35 35.35 0 0 0-4.43-1.35c1.08-1.16 1.74-1.91 2-2.23h-3.58v-2.34h5.38l1.28-2h-5.22v-5.68h6v-1.61H1069v-3.75h-1.54v-2.2h1.54V257h6.1v-1.33h2.9V257h6v3.7h1.69v2.2H1084v3.75h-6v1.61h6v5.68h-6.28l-1.24 2h3.12a7.84 7.84 0 0 0 .56-1.18l2.65.63a1.11 1.11 0 0 1-.18.55h3.07zm-10.63-17.55v-1.53h-3.34v1.53zm0 3.85v-1.65h-3.34v1.65zm0 7.19v-1.34h-3.24v1.34zm3.12 6.51h-3.39c0 .07-.31.42-.81 1l2.66.81a12.47 12.47 0 0 0 1.54-1.81zm3-17.55v-1.53H1078v1.53zm0 3.81v-1.61H1078v1.61zm.12 7.23v-1.34H1078v1.34zm16.57 11.67l-1.51 2.55a20.44 20.44 0 0 1-5-5.06 25.24 25.24 0 0 1-4.72 5l-2-2.26a22.33 22.33 0 0 0 5-5.45 24.89 24.89 0 0 1-2.57-6.89l2.63-1.45a27.42 27.42 0 0 0 1.45 4.79 44.67 44.67 0 0 0 1.48-11.26H1090a36 36 0 0 1-3.21 7.3l-2-2.48a40.77 40.77 0 0 0 4-12.77l2.92.42c-.14 1-.45 2.54-.92 4.67h6.56v2.86h-1.89q-.37 9.43-2.61 14.78a19.86 19.86 0 0 0 5.03 5.25zM1110.53 271.5a26.18 26.18 0 0 1-2.47 1.16v10.15a2.4 2.4 0 0 1-1.18 2.44 13.4 13.4 0 0 1-4.66.53l-.94-3h3.07a.7.7 0 0 0 .52-.25.75.75 0 0 0 .24-.54v-8a30.37 30.37 0 0 1-3.41 1.21l-.72-3c.8-.25 2.18-.72 4.13-1.41V264h-4v-2.75h4v-5.55h3v5.53h2.44V264h-2.44v5.48a21.45 21.45 0 0 0 2.07-.85zm20.47-11.33a21 21 0 0 1-1 5l-2.89-.62a13 13 0 0 0 .62-1.93h-6.57v1.11l5.09-.17.1 2.05-5.19.22v.4c0 .44.25.66.76.66h7.22V269h-8.63a2 2 0 0 1-2.2-2.27V266l-2.79.1-.1-2.07 2.89-.13v-1.28h-4v8.23q0 10.36-3.51 15l-2.28-2q2.82-3.86 2.82-12.67v-11h7.12v-4.51h3.07v1.1h7.63v2.13h-7.63v1.28zm.76 22.34l-1.58 2.26a15.4 15.4 0 0 1-4.33-3.61c0 1.87-.35 3.09-1 3.66a5.35 5.35 0 0 1-3.38.85l-1-2.68a3.73 3.73 0 0 0 2.16-.24c.33-.24.49-.79.49-1.64a3.63 3.63 0 0 0 0-.5 26.88 26.88 0 0 1-8.23 4.52l-1.09-2.1a25.73 25.73 0 0 0 9-4.89 3 3 0 0 0-.27-.83 28.35 28.35 0 0 1-7 3.78l-1-2a27.6 27.6 0 0 0 7-3.4 2.16 2.16 0 0 0-.54-.62 43.66 43.66 0 0 1-5 1.78l-1.08-2.1a24.79 24.79 0 0 0 6.44-2.1h-5.78v-2.4h15.75v2.4h-6.3a11.42 11.42 0 0 1-1.68 1.18 10.08 10.08 0 0 1 1.48 2.06 19.33 19.33 0 0 0 4.1-2.48l1.81 2a27 27 0 0 1-4.4 2.56 18 18 0 0 0 5.43 4.54zM1062.58 297.93a26.7 26.7 0 0 1-4.2 7.57 30.27 30.27 0 0 1-6.24 6.33l-2.14-2.2a28.61 28.61 0 0 0 10-12.85zm12.5 11.36q0 4.8-.37 9.53a26.06 26.06 0 0 1-.86 5.82 3.79 3.79 0 0 1-1.49 1.73 4.6 4.6 0 0 1-2.44.64c-2.14 0-3.58 0-4.33-.07l-1-3.06c1.61.11 3.28.17 5 .17a2.2 2.2 0 0 0 1.17-.33c.35-.22.62-1.65.81-4.28s.31-5 .35-7.13h-7.45q-1.4 10.2-11 14.91l-2.17-2.38a18.1 18.1 0 0 0 6.5-4.63 13.82 13.82 0 0 0 3.51-7.9h-5.48v-3zm5.35.23l-1.94 2.46q-6.42-5.43-8.57-11.82h-3.14v-2.92h5.12a23.06 23.06 0 0 0 8.53 12.28zM1097.33 312.48l-2 2.49a31.59 31.59 0 0 0-3-4.07v16h-3v-15.69a24.33 24.33 0 0 1-3.72 7.34l-1.92-2.59a37.7 37.7 0 0 0 5.46-10.35h-4.67v-3h4.85v-5.83h3v5.83h4.27v3h-4.27v1a47 47 0 0 1 5 5.87zm16.74-2.13h-4.75v16.59h-3v-16.59h-5.06q0 11.11-4.73 16.84l-2.45-1.8q4.13-4.86 4.13-13.63v-11.87a43.77 43.77 0 0 0 13.89-2.89l1.69 2.54a47.11 47.11 0 0 1-12.53 3v4.79h12.83z" fill="#fff"/>
  </g>
  <g data-name="group2">
    <circle cx="159" cy="284.02" r="86.63" fill="#008093"/>
    <path d="M142.76 257l-1.22 2.38c-1.42-.57-2.37-1-2.85-1.18v1.93h-7.29v4h7v2.46h-7v4.15h10.49v2.44h-23.71v-2.44h10.6v-4.15h-7.22v-2.46h7.22v-4h-7.33V258c-.87.39-1.83.79-2.9 1.2l-1.17-2.35a29.28 29.28 0 0 0 9.31-5.14h-2.26v-2.43h7q2.88 4.72 11.33 7.72zm-5.25.63a21.94 21.94 0 0 1-7.42-5.64 24.86 24.86 0 0 1-7.93 5.64zM151.83 255.74l-1.32 2a19.38 19.38 0 0 0-4.93-2.61l1.15-2.14a21.59 21.59 0 0 1 5.1 2.75zM155 269a38.93 38.93 0 0 1-7.9 4.42l-1.53-2.13a30.16 30.16 0 0 0 7.46-3.94zm15.6-2.38h-11.19v7.19h-2.49v-7.21h-11.28v-2.22h11.28v-1.59h2.49v1.59h11.23zm-16.6-7.7a55.71 55.71 0 0 1-7.27 4.1l-1-2.23a47.78 47.78 0 0 0 7.31-4zm-.85-7.42l-1.32 2a22.34 22.34 0 0 0-5-3.07l1.26-2a22.87 22.87 0 0 1 5.06 3.07zm17.24 10.64h-17.16V260h2v-8.76h-1.65v-2.1H170v2.1h-12.28v1.59h11v5.48h-11V260h12.67zm-4.21-5.71v-1.54h-8.46v1.54zm4.49 14.82l-1.26 2.15a40.9 40.9 0 0 0-8.3-3.93l1.23-2.09a36.77 36.77 0 0 1 8.33 3.87zM198.93 271.19l-.77 2.41h-4.19a66.8 66.8 0 0 1-10.9-.57 9.41 9.41 0 0 1-4.83-2.57 24.76 24.76 0 0 1-2.79 3.45l-1.86-1.56a20.06 20.06 0 0 0 4.81-8h-4.23V262a37.92 37.92 0 0 0 3.77-5h-4.09v-2.44h7V257a47.12 47.12 0 0 1-3.36 5H181v2.43a26.39 26.39 0 0 1-1.63 4.09 6.92 6.92 0 0 0 3.86 2.31 65.06 65.06 0 0 0 10.38.49c1.98-.03 3.76-.06 5.32-.13zm-18.23-19l-1.81 1.72a24.5 24.5 0 0 0-4.41-3.67l1.86-1.72a22.14 22.14 0 0 1 4.36 3.64zm18.15 2.29h-8c-.39.82-.65 1.35-.79 1.58h7.43v13.84h-14.7V256h4.35c.18-.29.46-.82.84-1.58h-6.42v-2.32h17.33zm-10.36-3.93l-2.13 1.45a33.52 33.52 0 0 0-3-2l2.23-1.4a20.31 20.31 0 0 1 2.9 1.92zm6.41 9.45v-1.8h-9.6v1.8zm0 3.88v-1.75h-9.6v1.75zm0 3.92V266h-9.6v1.78zm1.78-18a18.65 18.65 0 0 1-2.89 2.24l-2.35-1.31a22 22 0 0 0 2.82-2.05zM128.36 299.68l-1 2.27a50.51 50.51 0 0 1-7.11-2.35v1.06h-9.35v-1.12a47.6 47.6 0 0 1-7 2.46l-1.26-2.07q8.46-2.18 12.49-5.58l2.8.68a3.56 3.56 0 0 1-.52.55 35.18 35.18 0 0 0 10.95 4.1zm-2.61 9.55h-20.44v-7.41h20.44zm-1.23 10.42H122v-1h-12.82v1h-2.62v-9.16h18zm-10.28-12.43v-3.35h-6.44v3.35zm-1.24-1.41l-1.8 1.15a19.44 19.44 0 0 0-2.38-1.69l1.78-1.21a17.43 17.43 0 0 1 2.4 1.75zm9 7.8v-1.18h-12.82v1.18zm0 3v-1.26h-12.82v1.26zm-3.75-18c-1.53-.85-2.47-1.39-2.81-1.59a14.7 14.7 0 0 1-2.68 1.59zm5 8.55v-3.35h-6.47v3.35zm-1.09-2a17.61 17.61 0 0 1-2.4 1.66l-1.78-1.2c1.12-.71 1.9-1.23 2.35-1.55zM153.51 315.13h-13.33l.95.83a29.24 29.24 0 0 1-8.64 4l-1.41-2.05a30 30 0 0 0 6.88-2.74h-4.13v-12.56h19.68zm-.63-14.13h-18.42v-5.56h18.42zm-1.88 5.19v-1.61h-14.59v1.61zm0 3.47V308h-14.59v1.64zm0 3.53v-1.67h-14.59v1.67zm-.64-14.14v-1.64h-13.27v1.64zm6 18.82l-1.31 2.13a40.59 40.59 0 0 0-8.37-2.32l1.18-2.13a36.81 36.81 0 0 1 8.44 2.32zM171.52 298.45H164a22.37 22.37 0 0 1-3.18 2.95l-1.66-2.07a10.94 10.94 0 0 0 4.35-4.87l2.58.69a6.72 6.72 0 0 1-.57 1.14h6zm12 8.51h-2.51v-2.76h-18.54v2.8h-2.53v-4.87h10.32a8.12 8.12 0 0 0-.7-1.29l2.92-.46a11.34 11.34 0 0 1 .93 1.75h10.16zM181 318.5h-15.24v1.15h-2.49v-14H180v5.47h-14.24v1.53H181zm-12.09-17.59l-2.8.52a14.5 14.5 0 0 0-1.2-2l2.71-.56a13 13 0 0 1 1.26 2.04zm8.6 8.34v-1.66h-11.75v1.66zm.93 7.31v-2h-12.68v2zm5.88-18.11h-8.83a15 15 0 0 1-1.62 2l-2.32-1.23a16.59 16.59 0 0 0 3.34-4.87l2.59.74a12.42 12.42 0 0 1-.63 1.17h7.47zm-3.84 2.63l-2.75.43a11.56 11.56 0 0 0-1.09-2.23l2.78-.31a14.79 14.79 0 0 1 1.03 2.11zM196.58 313.58a69.76 69.76 0 0 1-8 4.13l-.88-2.44c.69-.27 1.82-.79 3.41-1.55v-7.14h-2.76v-2.38h2.76v-5.67H188v-2.29h8.57v2.29h-2.97v5.67h2.49v2.38h-2.49v5.82a19.47 19.47 0 0 0 2.89-1.51zm16.29 5.47h-16.41v-2.32h7v-2.83h-6v-2.27h6v-2.46h-5.86v-13.76h14.14v13.76H206v2.46h6.18v2.27H206v2.83h6.87zm-9.37-17.94v-3.43h-3.34v3.43zm0 5.79v-3.72h-3.34v3.72zm5.79-5.79v-3.43H206v3.43zm0 5.79v-3.72H206v3.72zM276.19 293.39l-18.48 16v-7.12l14.6-12.46-14.6-12.46v-7.12l18.48 16zM297.83 293.39l-18.49 16v-7.12L294 289.81l-14.61-12.46v-7.12l18.49 16z" fill="#fff"/>
  </g>
  <g data-name="group3">
    <path d="M392 370.65a86.63 86.63 0 0 0 86.48-81.74h-173A86.63 86.63 0 0 0 392 370.65z" fill="#bc1908"/>
    <path d="M392 197.39A86.63 86.63 0 0 0 305.35 284c0 1.64 0 3.27.14 4.89h173c.09-1.62.14-3.25.14-4.89A86.63 86.63 0 0 0 392 197.39z" fill="#f14124"/>
    <path d="M343 265.3a26.86 26.86 0 0 1-1.78 6.79l-2-.88a30.07 30.07 0 0 0 1.72-6.4zm6.74-12.93a43.64 43.64 0 0 1-6.53 9.24 30.31 30.31 0 0 0 3.06-.74 6.71 6.71 0 0 0-.55-1.31l1.86-.68a19.17 19.17 0 0 1 1.67 4.53l-1.92.69a7.35 7.35 0 0 0-.32-1.26 64.48 64.48 0 0 1-7.08 1.51l-.51-2a28.5 28.5 0 0 0 4.93-5.67q-1.81.33-4.23.63l-.47-1.81a32.56 32.56 0 0 0 5.12-8.74l2.27.86a39.45 39.45 0 0 1-4 7.1c1.06-.09 2-.21 2.81-.36a26 26 0 0 0 1.63-2.87zm-2.9 18.54l-2.26.47a27 27 0 0 0-.72-6.05l2.09-.46a42 42 0 0 1 .93 6.04zm3.15-3.48l-1.86.69a14 14 0 0 0-1.23-3.31l1.86-.54a28.72 28.72 0 0 1 1.24 3.16zm4.89-6.77q.24 5.61-5.17 10.8l-1.69-1.6a12.44 12.44 0 0 0 4.48-6.94h-2.89v-2.26zm9.8 8.57L363 271.4a20.82 20.82 0 0 1-4.89-5.93v4.27a2 2 0 0 1-1 1.86 9.39 9.39 0 0 1-4 .57l-.68-2.6h2.56c.43 0 .64-.19.64-.47v-10.22h-5.36v-9.49h3.55a11.27 11.27 0 0 0 1.3-2.57l2.49.54a10.77 10.77 0 0 1-.95 2H363v9.49h-4.84v2.21c.2.41.51.94.91 1.58a23.07 23.07 0 0 0 3-2.78l1.75 1.58a33.49 33.49 0 0 1-3.49 3.2 24.11 24.11 0 0 0 4.39 4.59zm-4.23-16.13v-1.64h-7.76v1.64zm0 3.75v-1.69h-7.76v1.69zM393.35 271.38h-25v-2.58h10.28V247h2.67v8.61h10.79v2.51h-10.76v10.68h12zM410.86 250.26h-5.51v1.09h4.58v5.21h-4.58v.21a41.23 41.23 0 0 1 4.56 1.74l-1 1.92a36.41 36.41 0 0 0-3.55-1.64v3h-2.28v-3.21a16.91 16.91 0 0 1-4.59 3.26L397.2 260a17.05 17.05 0 0 0 4.95-3.41h-3.75v-5.21h4.67v-1.09h-5.68v-2h5.68V247h2.28v1.25h5.51zm11.59 21.17h-25v-2.08h4.41v-3.56h2.49v3.56h4.32v-4.82h-10.73v-2H422v2h-10.72V266h9.51v2h-9.51v1.44h11.17zm-19.38-16.76v-1.46h-2.32v1.46zm4.63 0v-1.46h-2.35v1.46zm15 5.19l-1.14 2a14.35 14.35 0 0 1-5.09-2.55 19.89 19.89 0 0 1-5.47 2.44l-1.2-2.06a19.8 19.8 0 0 0 5-2 10.59 10.59 0 0 1-1.48-2.6l1.95-1a10 10 0 0 0 1.28 2.13 8.42 8.42 0 0 0 1.92-4.38H415a25 25 0 0 1-3.18 4.18l-1.48-1.78a20.81 20.81 0 0 0 4.38-7.51l2.24.63a21.07 21.07 0 0 1-.95 2.38h6.3v2.1h-1.55a10.77 10.77 0 0 1-2.49 5.89 11.22 11.22 0 0 0 4.4 2.13zM452 255l-1.49 2.2a51.35 51.35 0 0 1-11.43-7 62.11 62.11 0 0 1-11 6.9l-1.68-2.1q8.09-3.71 12.25-8.09l2.73 1-.46.52A45.83 45.83 0 0 0 452 255zm-3.55 17.17h-2.67v-1.47h-13.34v1.47h-2.72v-11.65h18.76zm-2.67-4V263h-13.34v5.19zm-.08-10.69h-13.06V255h13.09zM343 321.12a26.45 26.45 0 0 1-1.78 6.79l-2-.88a30.67 30.67 0 0 0 1.72-6.4zm6.74-12.93a43.9 43.9 0 0 1-6.53 9.24 30.25 30.25 0 0 0 3.06-.75 7.6 7.6 0 0 0-.54-1.3l1.85-.68a18.58 18.58 0 0 1 1.67 4.53l-1.92.69a7.35 7.35 0 0 0-.32-1.26 64.27 64.27 0 0 1-7.07 1.51l-.52-2a28.46 28.46 0 0 0 4.93-5.67q-1.81.33-4.23.63l-.46-1.81a32.55 32.55 0 0 0 5.11-8.74l2.27.86a39.18 39.18 0 0 1-4 7.1c1.06-.09 2-.22 2.81-.37a23.47 23.47 0 0 0 1.63-2.86zm-2.9 18.54l-2.26.46a27.51 27.51 0 0 0-.71-6l2.08-.46a40.46 40.46 0 0 1 .87 6zm3.15-3.48l-1.86.68a13.74 13.74 0 0 0-1.23-3.3l1.86-.55a27.7 27.7 0 0 1 1.24 3.17zm4.89-6.78q.24 5.63-5.17 10.81l-1.69-1.6a12.49 12.49 0 0 0 4.49-6.94h-2.9v-2.27zm9.81 8.58l-1.69 2.17a20.81 20.81 0 0 1-4.9-5.93v4.27a2 2 0 0 1-1 1.86 9.36 9.36 0 0 1-4 .57l-.68-2.6h2.56c.43 0 .64-.19.64-.47V314.7h-5.35v-9.49h3.55a12.22 12.22 0 0 0 1.3-2.58l2.49.55a11.77 11.77 0 0 1-.95 2h6.33v9.49h-4.84v2.21c.21.41.51.94.91 1.58a23.92 23.92 0 0 0 3-2.79l1.74 1.59a33.57 33.57 0 0 1-3.49 3.2 24.48 24.48 0 0 0 4.36 4.59zm-4.24-16.13v-1.64h-7.76v1.64zm0 3.75V311h-7.76v1.7zM393.3 306.1h-12.43v4.62a59.48 59.48 0 0 1 10.33 6.51l-1.59 2.2a51.09 51.09 0 0 0-8.74-5.85v14.24h-2.6V306.1h-9.86v-2.52h24.89zM410.8 306.08h-5.51v1.09h4.59v5.2h-4.59v.21a40.42 40.42 0 0 1 4.56 1.75l-1 1.92a33.26 33.26 0 0 0-3.55-1.64v3H403v-3.2a17.09 17.09 0 0 1-4.58 3.26l-1.29-1.86a16.64 16.64 0 0 0 4.95-3.42h-3.75v-5.2H403v-1.09h-5.68v-2H403v-1.24h2.28v1.24h5.51zm11.59 21.17h-25v-2.09h4.42v-3.55h2.49v3.55h4.32v-4.81h-10.74v-2h24.05v2h-10.71v1.43h9.51v1.94h-9.51v1.44h11.17zM403 310.48V309h-2.32v1.45zm4.63 0V309h-2.35v1.45zm15 5.2l-1.15 2a14.78 14.78 0 0 1-5.09-2.55 19.74 19.74 0 0 1-5.47 2.43l-1.2-2a20 20 0 0 0 5-2 10 10 0 0 1-1.48-2.6l1.94-1a9.79 9.79 0 0 0 1.29 2.12 8.42 8.42 0 0 0 1.91-4.38h-3.44a24.68 24.68 0 0 1-3.17 4.19l-1.49-1.78a20.9 20.9 0 0 0 4.38-7.51l2.24.63a18.6 18.6 0 0 1-.95 2.37h6.3v2.1h-1.55a10.77 10.77 0 0 1-2.49 5.9 11.49 11.49 0 0 0 4.41 2.08zM452 310.81l-1.5 2.19a50.55 50.55 0 0 1-11.42-7 61.45 61.45 0 0 1-11 6.9l-1.71-2.08q8.07-3.7 12.24-8.09l2.73 1-.46.52a45.91 45.91 0 0 0 11.12 6.56zM448.42 328h-2.67v-1.47h-13.36V328h-2.73v-11.67h18.76zm-2.67-4v-5.2h-13.36v5.2zm-.08-10.69h-13.09v-2.47h13.09zM505.73 293.39l-18.49 16v-7.12l14.6-12.46-14.6-12.46v-7.12l18.49 16zM527.36 293.39l-18.48 16v-7.12l14.6-12.46-14.6-12.46v-7.12l18.48 16z" fill="#fff"/>
  </g>
  <g data-name="group4">
    <path d="M626.58 370.65a86.63 86.63 0 0 0 86.48-81.74h-173a86.63 86.63 0 0 0 86.52 81.74z" fill="#0dacd1"/>
    <path d="M626.58 197.39A86.63 86.63 0 0 0 540 284c0 1.64 0 3.27.14 4.89h173c.09-1.62.14-3.25.14-4.89a86.63 86.63 0 0 0-86.7-86.61z" fill="#a4d825"/>
    <path d="M624.76 255.27l-1.25 2.24a40.58 40.58 0 0 1-4.29-2.13V257h-5.87v2.81H623v2.47h-9.66v6.67h10.36v2.44h-23.17v-2.44h10.22v-6.67h-9.48v-2.48h9.48V257h-6v-1.54a38.76 38.76 0 0 1-3.86 2l-1.61-2.18q8.74-3.86 12.17-8.4l2.58.74a1.77 1.77 0 0 1-.37.55q3.26 3.7 11.1 7.1zm-16 12.36l-2.41.82a27.41 27.41 0 0 0-3.21-4.46l2.43-1a23.51 23.51 0 0 1 3.18 4.64zm9.1-13a31.46 31.46 0 0 1-5.84-4.43 34.52 34.52 0 0 1-5.72 4.43zm3.23 9.29a23.47 23.47 0 0 1-3.09 4.48l-2.49-1.1a21.39 21.39 0 0 0 3.12-4.32zM634.81 257.76l-1.56 2.13a27.14 27.14 0 0 0-4.89-3.78l1.54-2.11a24.09 24.09 0 0 1 4.91 3.76zm-.13 4.59a42.18 42.18 0 0 1-4.11 9.95l-2.18-1.53a44.28 44.28 0 0 0 4-9.68zm.21-11.43l-1.77 2a23.48 23.48 0 0 0-4.35-4.16l1.8-2a24.64 24.64 0 0 1 4.32 4.16zm4.92 9.13v1.29a18.1 18.1 0 0 1-1.1 7 9.41 9.41 0 0 1-3.33 4l-1.83-1.8q3.69-2.13 3.69-8.92v-1.64zm13.78-1.51l-2.35 1.21A19.06 19.06 0 0 0 650 258q-9 .76-14 .83l-.46-2.11a15.33 15.33 0 0 0 4.54-4.59h-4.6v-2.33h6.16c.38-.67.88-1.63 1.49-2.9l2.69.54a20 20 0 0 1-1.18 2.36h8.71v2.35h-10.13a21.14 21.14 0 0 1-3.72 4.21 82.39 82.39 0 0 0 8.76-.55 19.86 19.86 0 0 0-1.81-1.89l2.38-1.14a33.59 33.59 0 0 1 4.76 5.76zm-8.7 13.62h-2.48v-12.11h2.48zm8.58-.27h-3.8a2 2 0 0 1-2.13-2.11V260H650v8.86a.64.64 0 0 0 .17.41.5.5 0 0 0 .35.19h2.92zM609.61 317.34c-.76.31-1.74.66-2.92 1.07v9.44h-2.49v-8.62q-1.44.45-4.32 1.26l-.55-2.46c1.52-.38 3.15-.82 4.87-1.35V311h-2q-.26 1.7-.84 4l-2.2-.63a44.77 44.77 0 0 0 1.4-9.35l2.27.41c-.1 1.26-.2 2.32-.32 3.2h1.66V303h2.49v5.67H609v2.38h-2.35v4.81l2.73-1zm14.39-10.8c0 3.25-.15 6.8-.31 10.63s-.3 6.29-.42 7.34a4.53 4.53 0 0 1-.76 2.29 2.83 2.83 0 0 1-1.26.94 14.37 14.37 0 0 1-3.44.24h-1.65l-.74-2.41c1.08.05 2 .08 2.71.08a5 5 0 0 0 2.15-.26 1.57 1.57 0 0 0 .53-.87 50.7 50.7 0 0 0 .37-5.12q.21-4.53.3-10.39h-.76a33.54 33.54 0 0 1-2.67 10.1 30.56 30.56 0 0 1-5.81 8.21l-2.12-1.65a29.14 29.14 0 0 0 5.67-7.55 27 27 0 0 0 2.49-9.11H617a24.32 24.32 0 0 1-6.51 12.72l-2.07-1.58A20.32 20.32 0 0 0 614.6 309h-1.2a22.56 22.56 0 0 1-2.78 5l-2.16-1.28q2.71-3.27 4.34-9.9l2.46.43a29.08 29.08 0 0 1-1 3.31zM634.76 313.58l-1.55 2.12a28.35 28.35 0 0 0-4.89-3.77l1.53-2.13a23.21 23.21 0 0 1 4.91 3.78zm-.12 4.59a43 43 0 0 1-4.11 9.95l-2.19-1.53a44 44 0 0 0 4-9.68zm.21-11.44l-1.78 2a22.85 22.85 0 0 0-4.35-4.16l1.81-2a24.94 24.94 0 0 1 4.32 4.16zm4.92 9.14v1.29a17.92 17.92 0 0 1-1.11 7 9.39 9.39 0 0 1-3.33 4l-1.83-1.81c2.46-1.41 3.69-4.39 3.69-8.91v-1.64zm13.77-1.51l-2.35 1.2a17 17 0 0 0-1.2-1.72q-9 .77-14 .83l-.47-2.11A15.57 15.57 0 0 0 640 308h-4.6v-2.36h6.15c.38-.66.88-1.62 1.5-2.89l2.68.54a19 19 0 0 1-1.17 2.35h8.71V308h-10.09a21.42 21.42 0 0 1-3.72 4.21 82.21 82.21 0 0 0 8.75-.55 19.59 19.59 0 0 0-1.8-1.89l2.38-1.15a34 34 0 0 1 4.75 5.74zm-8.7 13.64h-2.47v-12.13h2.47zm8.59-.27h-3.8a2 2 0 0 1-2.13-2.11v-9.76h2.5v8.86a.6.6 0 0 0 .17.42.47.47 0 0 0 .35.18h2.92zM741.57 293.39l-18.48 16v-7.12l14.6-12.46-14.6-12.46v-7.12l18.48 16zM763.21 293.39l-18.49 16v-7.12l14.61-12.46-14.61-12.46v-7.12l18.49 16z" fill="#fff"/>
  </g>
  <g data-name="group5">
    <circle cx="860.36" cy="284.02" r="86.63" fill="#f97600"/>
    <path d="M831.58 252.06l-1 2.27a50.39 50.39 0 0 1-7.1-2.35V253h-9.35v-1.12a48.8 48.8 0 0 1-7 2.47l-1.26-2.07q8.46-2.19 12.48-5.59l2.8.69a3.92 3.92 0 0 1-.52.54 35.35 35.35 0 0 0 10.95 4.14zm-2.58 9.55h-20.48v-7.41H829zM827.73 272h-2.51v-1H812.4v1h-2.62v-9.16h18zm-10.27-12.42v-3.36H811v3.36zm-1.26-1.42l-1.8 1.15a20.25 20.25 0 0 0-2.38-1.69l1.77-1.21a18 18 0 0 1 2.41 1.78zm9 7.8v-1.18h-12.8V266zm0 3v-1.25h-12.8V269zm-3.75-18c-1.54-.86-2.47-1.39-2.81-1.6a15.69 15.69 0 0 1-2.68 1.6zm5 8.55v-3.36H820v3.36zm-1.09-2a19.43 19.43 0 0 1-2.41 1.67l-1.77-1.21c1.11-.71 1.9-1.22 2.35-1.55zM856.72 267.51H843.4l1 .83a28.75 28.75 0 0 1-8.64 4l-1.42-2a30.28 30.28 0 0 0 6.88-2.75h-4.12V255h19.67zm-.63-14.16h-18.41v-5.56h18.41zm-1.88 5.22V257h-14.59v1.61zm0 3.47v-1.64h-14.59v1.6zm0 3.53v-1.67h-14.59v1.67zm-.65-14.14v-1.63h-13.25v1.63zm6 18.83l-1.26 2.12a40.49 40.49 0 0 0-8.36-2.32l1.17-2.13a36.75 36.75 0 0 1 8.41 2.33zM865.86 265.57a37.78 37.78 0 0 1-1.4 6.62l-2.13-1a36.05 36.05 0 0 0 1.37-6.1zm6.58-14a39.14 39.14 0 0 1-6.3 9.81 24.25 24.25 0 0 0 3.24-.75 5.27 5.27 0 0 0-.49-1.4l2-.77a19.19 19.19 0 0 1 1.41 4.9l-2 .71c-.08-.4-.16-.81-.25-1.23-2.52.63-4.84 1.12-7 1.45l-.6-2.08a25.46 25.46 0 0 0 4.76-6c-1.38.28-2.73.5-4 .66l-.61-2.21a22.42 22.42 0 0 0 4.25-7.83l2.41.9a25.74 25.74 0 0 1-3.52 6.41 21.1 21.1 0 0 0 3-.63 30.24 30.24 0 0 0 1.48-3zm-3.2 19.12l-2.21.54a36.07 36.07 0 0 0-.57-5.66l2-.49a27 27 0 0 1 .78 5.64zm2.91-2.46l-1.94.48a28.38 28.38 0 0 0-.75-3.52l1.92-.49a19.15 19.15 0 0 1 .77 3.56zm5.24-7.69l-2.17 1a50.61 50.61 0 0 0-3.41-5.62 32.05 32.05 0 0 0 3.07-5.1l2.32.88a25.5 25.5 0 0 1-2.55 4.27 44.75 44.75 0 0 1 2.74 4.6zm10.08 10.95h-15.29v-2.44h6.41v-4.44H873v-2.4h13.63v2.4h-5.47v4.44h6.29zm-.4-21.58h-14.49v-2.41h14.49zm-4.76 10.66l-2.25 1a37.13 37.13 0 0 0-3.41-5.74 24.62 24.62 0 0 0 3-5.07l2.35.91a39.76 39.76 0 0 1-2.49 4.13 49.93 49.93 0 0 1 2.8 4.8zm4.88-.06l-2.26 1.07a41.65 41.65 0 0 0-3.33-5.58 36.25 36.25 0 0 0 3.06-5.19l2.18 1a25.5 25.5 0 0 1-2.34 4.19 44.54 44.54 0 0 1 2.69 4.54zM915.13 260.26h-2.54v-2.21h-19.13v2.21H891v-4.33h24.13zm-12.54-11a22.4 22.4 0 0 1-4.51 1.83l-.09.24a29 29 0 0 1 4.57 2.23l-1.28 1.77a26.91 26.91 0 0 0-4.27-2.14 9.26 9.26 0 0 1-4.44 2.41l-1.32-2.1a7.11 7.11 0 0 0 4-1.78c.74-.83 1.11-2.39 1.11-4.7h2.35c0 .74-.09 1.34-.16 1.81a13.65 13.65 0 0 0 2.84-1.29zm-7.3 1.41l-1.94 1a13.15 13.15 0 0 0-2-3.13l1.93-1.06a13.29 13.29 0 0 1 2.01 3.18zm18.5 21.46h-2.49v-.88h-16.52v.88h-2.52v-6.71h8.36a6.5 6.5 0 0 0 .66-1.23h-6.5v-4.9H911v4.9h-6.78a8.14 8.14 0 0 1-.66 1.23h10.22zm-2.49-2.8v-1.95h-16.52v1.95zm-2.67-7v-1.15h-11.45v1.15zm6.66-8.45l-1.36 1.8a32.88 32.88 0 0 0-5.06-2.32 8.62 8.62 0 0 1-4.84 2.24l-1-2.1c2-.33 3.34-.88 4-1.67s1-2.36 1-4.71l2.32.06a10.77 10.77 0 0 1-.09 1.83 14 14 0 0 0 3.16-1.56l1.29 1.7a22.11 22.11 0 0 1-4.78 2.13l-.16.25a31.84 31.84 0 0 1 5.52 2.34zm-8.17-3l-2 .91a12.1 12.1 0 0 0-1.72-3.24l2-.88a11.62 11.62 0 0 1 1.72 3.22zM831.31 312l-1.31 2.3q-7.56-3.1-11.34-8.34a25.55 25.55 0 0 1-4.13 3.94 42.44 42.44 0 0 1-7.35 4.17l-1.31-2.41q8.48-3.57 12-8.92l2.87.58-.52.71a23.69 23.69 0 0 0 11.09 7.97zm-.31 15.46h-24.94v-2.53h4.32v-10.15H813v10.15h4.78V310.2h2.51v6h8.31v2.5h-8.31v6.24H831zM859.32 321H848.1v6.87h-2.55V321h-11.2v-2.16h11.2v-1.45h-9.84v-2.16h9.84v-1.4H835v-2.15h6.53a9.61 9.61 0 0 0-1-1.24l1.91-1.06h-8.14v-2.14h8.77V303h2.49v4.27h2.57V303h2.51v4.27h8.64v2.14h-7.9l1.69.9a11.28 11.28 0 0 1-.95 1.4h6.58v2.15h-10.6v1.4h9.9v2.16h-9.9v1.45h11.22zm-15.85 2.4a39.08 39.08 0 0 1-7.43 4.33l-1.66-2a32.09 32.09 0 0 0 7.1-4zM841 305.7l-1.91 1.38a18.4 18.4 0 0 0-2.55-2.53l1.92-1.48a16.83 16.83 0 0 1 2.54 2.63zm9.51 3.72H843a18.49 18.49 0 0 1 1.59 2.3h4.34a15.23 15.23 0 0 0 1.57-2.3zm9.34 16.21l-1.4 2.05a53.2 53.2 0 0 0-8.19-3.89l1.48-2.07a57.25 57.25 0 0 1 8.1 3.91zm-2.75-21.42a15.71 15.71 0 0 1-2.46 2.66l-2.27-1.34a17 17 0 0 0 2.5-2.52zM887.45 306.93h-7.71l1.92 1a12.53 12.53 0 0 1-1.35 2.29h5.93v15.1a2.35 2.35 0 0 1-.46 1.46 2.48 2.48 0 0 1-1 .86 5.8 5.8 0 0 1-2 .24c-.47 0-1.06 0-1.76-.07l-.8-2.38h1.34a7.43 7.43 0 0 0 2-.13.51.51 0 0 0 .28-.51v-12.23h-4.72v1.88a.47.47 0 0 0 .15.3.43.43 0 0 0 .28.17h3.37v2.14h-4.52a1.71 1.71 0 0 1-1.22-.56 1.73 1.73 0 0 1-.56-1.22v-2.71h-3.27q0 4.57-5.35 5.66l-1.24-2.14q4.15-.66 4.19-3.52h-4.72v15.32h-2.5v-17.62h6a23.82 23.82 0 0 0-1.59-2.35l1.86-1h-7.43v-2.21h11.13c-.13-.35-.35-.85-.66-1.49l2.63-.58a16.48 16.48 0 0 1 .76 2.07h11zm-6.21 17.83h-12.35v-6.24h12.35zm-2-17.83h-8.61a19.73 19.73 0 0 1 2 3.33h4.75a23.06 23.06 0 0 0 1.87-3.33zm-.47 15.62v-1.89h-7.4v1.89zM897.89 312.32h-2.14v7a10.8 10.8 0 0 0 1.64-.95l.31 2.59a57.67 57.67 0 0 1-6.39 3.81l-1-2.38c.86-.39 1.84-.9 2.95-1.51v-8.55h-2.46v-2.41h2.46v-7h2.46v7h2.14zm18 10a13.64 13.64 0 0 1-.84 3.26 4.39 4.39 0 0 1-1.19 2.06 2.07 2.07 0 0 1-1.12.32 2.73 2.73 0 0 1-1.77-.73 9.28 9.28 0 0 1-1.9-3.35 47.42 47.42 0 0 1-4.3 4.21l-1.63-1.78a35.68 35.68 0 0 0 5.1-5.25 71.53 71.53 0 0 1-1-12.2h-6.1v3.51H906c0 1.51 0 3.41-.12 5.71a31.57 31.57 0 0 1-.27 4 2.48 2.48 0 0 1-.57 1 2.25 2.25 0 0 1-1 .65 9.68 9.68 0 0 1-2.37.17l-.54-2.46c.6 0 1.1.06 1.48.06a.74.74 0 0 0 .56-.22 6.78 6.78 0 0 0 .33-2.23c.1-1.35.14-2.79.14-4.33h-2.54V317a22 22 0 0 1-.9 6.08 14.43 14.43 0 0 1-2.46 5.13l-1.91-1.52a16.44 16.44 0 0 0 2.92-9.71v-10.47h8.39V303h2.38v3.56h3.74a14.3 14.3 0 0 0-2.81-1.81L912 303a20.73 20.73 0 0 1 3 1.87l-1.49 1.69h2.06v2.35h-6a83.86 83.86 0 0 0 .52 9 37.43 37.43 0 0 0 2.41-7l2.29.79a40.35 40.35 0 0 1-4 9.84 11.14 11.14 0 0 0 1 2.75c.39.69.65 1 .78 1 .3 0 .7-1.35 1.2-4zM977.62 293.39l-18.48 16v-7.12l14.6-12.46-14.6-12.46v-7.12l18.48 16zM999.26 293.39l-18.49 16v-7.12l14.61-12.46-14.61-12.46v-7.12l18.49 16z" fill="#fff"/>
  </g>
</svg>
