<svg xmlns="http://www.w3.org/2000/svg" xmlns:xlink="http://www.w3.org/1999/xlink" viewBox="0 0 741.09 159.65"><defs><style>.cls-1{fill:url(#未命名漸層_10);}.cls-2{fill:url(#linear-gradient);}.cls-3{fill:url(#linear-gradient-2);}.cls-4{fill:url(#未命名漸層_5);}.cls-5,.cls-6{font-size:22px;fill:#fff;letter-spacing:0.07em;}.cls-5{font-family:MicrosoftYaHei-Bold, Microsoft YaHei;font-weight:700;}.cls-6{font-family:DFLiHei-W5-WINP-BF, DFPLiHei-Md;}</style><linearGradient id="未命名漸層_10" x1="-1753.89" y1="-9.25" x2="-1753.89" y2="99.62" gradientTransform="matrix(-1, 0.02, -0.02, -1, -1637.31, 136.08)" gradientUnits="userSpaceOnUse"><stop offset="0" stop-color="#8fcf92"/><stop offset="1" stop-color="#5e995e"/></linearGradient><linearGradient id="linear-gradient" x1="-561.72" y1="133.99" x2="-561.72" y2="25.12" gradientTransform="matrix(1, -0.02, 0.02, 1, 1185.82, 9.97)" gradientUnits="userSpaceOnUse"><stop offset="0" stop-color="#fa8243"/><stop offset="1" stop-color="#f85f10"/></linearGradient><linearGradient id="linear-gradient-2" x1="455.23" y1="126.3" x2="455.23" y2="17.43" gradientTransform="matrix(1, -0.02, 0.02, 1, -1.43, -9.49)" gradientUnits="userSpaceOnUse"><stop offset="0.37" stop-color="#75b7cb"/><stop offset="0.7" stop-color="#82c0d2"/><stop offset="1" stop-color="#87c3d5"/></linearGradient><linearGradient id="未命名漸層_5" x1="-1395.35" y1="423.45" x2="-1395.35" y2="314.57" gradientTransform="matrix(-1, 0.02, -0.02, -1, -1102.67, 498.42)" gradientUnits="userSpaceOnUse"><stop offset="0.3" stop-color="#c9ae00"/><stop offset="1" stop-color="#b29a00"/></linearGradient></defs><title>section3-illust</title><g id="圖層_2" data-name="圖層 2"><g id="圖層_1-2" data-name="圖層 1"><path class="cls-1" d="M230.82,51.78l-60,62.11a76.89,76.89,0,0,0-108.72,1.89L0,55.79A163.23,163.23,0,0,1,230.82,51.78Z"/><path class="cls-2" d="M570.26,45.8l-60,62.12a163.24,163.24,0,0,0,230.82-4L679,43.91A76.89,76.89,0,0,1,570.26,45.8Z"/><path class="cls-3" d="M339.45,49.84l62.12,60a76.89,76.89,0,0,1,108.71-1.89l60-62.11A163.24,163.24,0,0,0,339.45,49.84Z"/><path class="cls-4" d="M170.76,113.83l60-62.11a76.89,76.89,0,0,0,108.71-1.89l62.12,60A163.25,163.25,0,0,1,170.76,113.83Z"/><text class="cls-5" transform="translate(88.7 51.82)">數據</text><text class="cls-6" transform="translate(433.09 51.82)">知識</text><text class="cls-6" transform="translate(606.71 113.02)">價值</text><text class="cls-6" transform="translate(263.26 113.02)">資訊</text></g></g></svg>