<svg xmlns="http://www.w3.org/2000/svg" viewBox="0 0 340.52 120.37"><title>section2-list5-s</title><g id="b3033b75-9477-442e-a12a-16c88f91f3df" data-name="圖層 2"><g id="f5eeae0d-2152-4f5f-a93e-319d52809c5d" data-name="圖層 1"><rect x="0.61" y="30.94" width="339.92" height="89.43" rx="3.84" style="fill:#ef3e6c"/><path d="M61.35,8.48H170.12l20.29,23.25-17.9,20.51H61.35C45.74,52.24,33,42.39,33,30.36h0c0-12,12.77-21.88,28.39-21.88Z" style="fill:#aa1c37;fill-rule:evenodd"/><path d="M61.35,8.48H167.07l19.09,21.88-19.1,21.88H61.35C45.73,52.24,33,42.39,33,30.36h0c0-12,12.77-21.88,28.39-21.88Z" style="fill:#f386a5;fill-rule:evenodd"/><path d="M29.86,8.48h127.5l19.09,21.88L157.36,52.24H29.86c-15.62,0-28.39-9.85-28.39-21.88h0c0-12,12.77-21.88,28.39-21.88Z" style="fill:#aa1c37;fill-rule:evenodd"/><path d="M30.59,0A30.59,30.59,0,1,1,0,30.59,30.64,30.64,0,0,1,30.59,0Z" style="fill:#f386a5;fill-rule:evenodd"/><path d="M30.59,6.24A24.35,24.35,0,1,1,6.25,30.59,24.4,24.4,0,0,1,30.59,6.24Z" style="fill:#aa1c37;fill-rule:evenodd"/><path d="M46.45,12.15A24.32,24.32,0,0,1,16.66,50.53,24.32,24.32,0,0,1,46.45,12.15Z" style="fill:#aa1c37;fill-rule:evenodd"/><path d="M34,65.05V81H32.5v-.51H19.93V81H18.46v-16Zm-14,14.14H32.5V66.39H19.93Zm.62-11.89h4.8v-.68h1.41v.68h5.11v1.15H26.76v.63h4.42v4.29h-.86a17.62,17.62,0,0,1,1.34,1.47l-1.11.78c-.16-.25-.34-.5-.53-.76l-.31,0v.88H32v1.11H29.71v.77a1,1,0,0,1-.37.91,1.73,1.73,0,0,1-1.18.3h-2l-.21-1.21a15.57,15.57,0,0,0,1.83.14c.37,0,.56-.11.56-.33v-.58H23.89a7.43,7.43,0,0,1,1,1.47l-1.34.58a10.26,10.26,0,0,0-1.17-1.83l.7-.22H20.62V75.76H28.3V75q-3.27.21-7.31.41l-.28-1.25c1.57,0,3.12-.09,4.64-.16v-.61H21.11V69.08h4.24v-.63h-4.8Zm1.92,3.45h2.88v-.63H22.47Zm2.88,1.54v-.63H22.47v.63Zm1.41-2.17v.63h3.09v-.63Zm3.09,2.17v-.63H26.76v.63Zm-.62,1.53a5.82,5.82,0,0,0-.4-.45H26.76v.56Z" style="fill:#fff"/><path d="M36.37,65.42h6.84v1.34a17.13,17.13,0,0,1-2.48,3.16c.19.2.35.39.49.56h2.27v1.43a22.11,22.11,0,0,1-1.28,3.57l-1.11-1A15.84,15.84,0,0,0,42,72.05H41v7a1.66,1.66,0,0,1-.42,1.3,1.83,1.83,0,0,1-1.36.39h-1.4l-.34-1.69a7.51,7.51,0,0,0,1.34.14c.42,0,.63-.13.63-.4v-6a24.84,24.84,0,0,1-.89,2.88,16.21,16.21,0,0,1-1.66,3.27l-1.18-1.06a18.93,18.93,0,0,0,1.62-3.11,19.55,19.55,0,0,0,.78-2.72H36V70.48h3.25c-.58-.7-1.24-1.45-2-2.25l1.11-.7,1.39,1.34a19.25,19.25,0,0,0,1.65-2h-5Zm6.91,9.12h3.39q.12-.75.18-1.59l1.63.12a10.5,10.5,0,0,1-.19,1.47h3.55a32,32,0,0,1-.39,5,1.63,1.63,0,0,1-.77,1.12,6.8,6.8,0,0,1-2.9.32l-.37-1.62c.56,0,1,.07,1.21.07.6,0,1-.07,1.11-.22.25-.32.39-1.42.44-3.31H48a8.57,8.57,0,0,1-1,2.34,7.38,7.38,0,0,1-4,2.81l-.63-1.55a6.27,6.27,0,0,0,3.44-2.28A4.51,4.51,0,0,0,46.35,76H43.28Zm2.39-9.89,1.55.26c-.24.51-.47,1-.69,1.41h5.75v1.35H51.21a7.53,7.53,0,0,1-1.83,3.06.22.22,0,0,1-.07.07,14.35,14.35,0,0,0,3.37,1.49l-1,1.48A15.52,15.52,0,0,1,48,71.91a27.08,27.08,0,0,1-3.73,2l-.77-1.54a16.58,16.58,0,0,0,3.3-1.52,12.21,12.21,0,0,1-1.7-2.19,11.89,11.89,0,0,1-1.34,1.6l-1.1-1.32A13.59,13.59,0,0,0,45.67,64.65Zm.68,3a9.06,9.06,0,0,0,1.76,2.2,6.6,6.6,0,0,0,1.5-2.2Z" style="fill:#fff"/><path d="M56.71,64.65l1.47.26q-.33.51-.63.93h4.57V67a7.09,7.09,0,0,0,1.95-2.34l1.48.28c-.15.31-.3.59-.46.86h5.45v1.39H67.27a12.89,12.89,0,0,1,.53,1.48l-1.69.16a13.91,13.91,0,0,0-.37-1.64H64.13A8.28,8.28,0,0,1,63,68.45l-1-1.22H59.5A15.1,15.1,0,0,1,60,68.71l-1.75.16c-.12-.61-.24-1.16-.36-1.64H56.41a10.58,10.58,0,0,1-1.55,1.41l-1-1.25A10,10,0,0,0,56.71,64.65Zm5.61,3.14c.2.49.39,1,.58,1.62h7.38v4H68.66V70.82H55.85v2.55H54.23v-4h7c-.2-.5-.4-1-.61-1.4Zm5.71,4v3.73H58v1h10.7v4.64H67.1v-.72H58v.72H56.41V71.8ZM58,74.21h8.52V73.14H58Zm0,4.91H67.1V77.78H58Z" style="fill:#fff"/><path d="M72.16,65.76h6v1.63H75.89V71H77.8v1.63H75.89v4c.79-.29,1.54-.59,2.25-.89v1.76a45.63,45.63,0,0,1-5.84,2.17l-.47-1.75c.85-.24,1.67-.48,2.44-.72V72.59h-2V71h2V67.39H72.16Zm6.42-.48h9.14V74h-3.8v1.78h3.85v1.47H83.92v2h4.62v1.47H77.17V79.26h5.06v-2H78.72V75.76h3.51V74H78.58Zm1.61,3.59h2V66.69h-2Zm2,3.72V70.26h-2v2.33Zm1.69-5.9v2.18H86.1V66.69Zm2.18,5.9V70.26H83.92v2.33Z" style="fill:#fff"/><path d="M100.69,74.44l-1.21,1a17,17,0,0,0-1.66-2.09,15.15,15.15,0,0,0-2.07-1.83l1.14-.93A18.36,18.36,0,0,1,99,72.38,13.24,13.24,0,0,1,100.69,74.44Z" style="fill:#fff"/><path d="M112.4,64.7H113a25.62,25.62,0,0,1,2.32,2.83l-1.07,1a27.56,27.56,0,0,0-1.74-2.38,29.22,29.22,0,0,1-4.17,3.73l-.47-1.55a19.55,19.55,0,0,0,3.93-3.6Zm.33,3a15,15,0,0,1,.54,1.74H115V76h-4.36v2.92c.93-.17,1.83-.36,2.71-.58-.31-.58-.62-1.11-.93-1.62l1.4-.44a23.7,23.7,0,0,1,2,3.66l-1.4.63c-.14-.36-.29-.71-.44-1q-2.44.67-5.61,1.32L108,79.26l1-.14V69.41h2.78a12.65,12.65,0,0,0-.6-1.54ZM110.62,72h2.74V70.7h-2.74Zm0,2.66h2.74V73.21h-2.74Zm9.42-10a12.6,12.6,0,0,1,.69,1.6h3.55v3.61h-1.07v4h-5.54V75.2h6.24v6h-1.55v-1h-4.69v1h-1.55V69.85h-.63v-3.6h3.66a12.37,12.37,0,0,0-.71-1.41Zm-3,4.43h5.71V67.72H117Zm.65,3.21h4V70.64h-4Zm0,6.42h4.69V76.6h-4.69Z" style="fill:#fff"/><path d="M126.37,65.42h6.84v1.34a17.13,17.13,0,0,1-2.48,3.16c.19.2.35.39.49.56h2.27v1.43a22.11,22.11,0,0,1-1.28,3.57l-1.11-1a15.84,15.84,0,0,0,.88-2.44h-1v7a1.66,1.66,0,0,1-.42,1.3,1.83,1.83,0,0,1-1.36.39h-1.4l-.34-1.69a7.51,7.51,0,0,0,1.34.14c.42,0,.63-.13.63-.4v-6a24.84,24.84,0,0,1-.89,2.88,16.21,16.21,0,0,1-1.66,3.27l-1.18-1.06a18.93,18.93,0,0,0,1.62-3.11,19.55,19.55,0,0,0,.78-2.72H126V70.48h3.25c-.58-.7-1.24-1.45-2-2.25l1.11-.7,1.39,1.34a19.25,19.25,0,0,0,1.65-2h-5Zm6.91,9.12h3.39q.12-.75.18-1.59l1.63.12a10.5,10.5,0,0,1-.19,1.47h3.55a32,32,0,0,1-.39,5,1.63,1.63,0,0,1-.77,1.12,6.8,6.8,0,0,1-2.9.32l-.37-1.62c.56,0,1,.07,1.21.07.6,0,1-.07,1.11-.22.25-.32.39-1.42.44-3.31H138a8.57,8.57,0,0,1-1,2.34,7.38,7.38,0,0,1-4,2.81l-.63-1.55a6.27,6.27,0,0,0,3.44-2.28,4.51,4.51,0,0,0,.63-1.32h-3.07Zm2.39-9.89,1.55.26c-.24.51-.47,1-.69,1.41h5.75v1.35h-1.07a7.53,7.53,0,0,1-1.83,3.06.22.22,0,0,1-.07.07,14.35,14.35,0,0,0,3.37,1.49l-1,1.48A15.52,15.52,0,0,1,138,71.91a27.08,27.08,0,0,1-3.73,2l-.77-1.54a16.58,16.58,0,0,0,3.3-1.52,12.21,12.21,0,0,1-1.7-2.19,11.89,11.89,0,0,1-1.34,1.6l-1.1-1.32A13.59,13.59,0,0,0,135.67,64.65Zm.68,3a9.06,9.06,0,0,0,1.76,2.2,6.6,6.6,0,0,0,1.5-2.2Z" style="fill:#fff"/><path d="M146.71,64.65l1.47.26q-.33.51-.63.93h4.57V67a7.09,7.09,0,0,0,1.95-2.34l1.48.28c-.15.31-.3.59-.46.86h5.45v1.39h-3.27a12.89,12.89,0,0,1,.53,1.48l-1.69.16a13.91,13.91,0,0,0-.37-1.64h-1.61A8.28,8.28,0,0,1,153,68.45l-1-1.22H149.5a15.1,15.1,0,0,1,.51,1.48l-1.75.16c-.12-.61-.24-1.16-.36-1.64h-1.49a10.58,10.58,0,0,1-1.55,1.41l-1-1.25A10,10,0,0,0,146.71,64.65Zm5.61,3.14c.2.49.39,1,.58,1.62h7.38v4h-1.62V70.82H145.85v2.55h-1.62v-4h7c-.2-.5-.4-1-.61-1.4Zm5.71,4v3.73H148v1h10.7v4.64H157.1v-.72H148v.72h-1.55V71.8ZM148,74.21h8.52V73.14H148Zm0,4.91h9.14V77.78H148Z" style="fill:#fff"/><path d="M162.16,65.76h6.05v1.63h-2.32V71h1.91v1.63h-1.91v4c.79-.29,1.54-.59,2.25-.89v1.76a45.63,45.63,0,0,1-5.84,2.17l-.47-1.75c.85-.24,1.67-.48,2.44-.72V72.59h-2V71h2V67.39h-2.11Zm6.42-.48h9.14V74h-3.8v1.78h3.85v1.47h-3.85v2h4.62v1.47H167.17V79.26h5.06v-2h-3.51V75.76h3.51V74h-3.65Zm1.61,3.59h2V66.69h-2Zm2,3.72V70.26h-2v2.33Zm1.69-5.9v2.18h2.18V66.69Zm2.18,5.9V70.26h-2.18v2.33Z" style="fill:#fff"/><path d="M190.69,74.44l-1.21,1a17,17,0,0,0-1.66-2.09,15.15,15.15,0,0,0-2.07-1.83l1.14-.93A18.36,18.36,0,0,1,189,72.38,13.24,13.24,0,0,1,190.69,74.44Z" style="fill:#fff"/><path d="M209.15,71.89l1.61.7a21.59,21.59,0,0,1-3.06,4.12l.11.07a22.28,22.28,0,0,0,6.73,2.77l-1.11,1.67a23,23,0,0,1-7-3.19l-.1-.09a22.18,22.18,0,0,1-7.14,3.28l-1.07-1.6a23.49,23.49,0,0,0,6.77-2.86,17.91,17.91,0,0,1-3.1-3.81l1.6-.92a14.43,14.43,0,0,0,2.92,3.59A17.21,17.21,0,0,0,209.15,71.89Zm-2.69-7a14.3,14.3,0,0,1,1,1.92h6.79v1.56H198.16V66.76h7.31a12.81,12.81,0,0,0-1-1.62Zm-3.1,3.61,1.41.63a23.4,23.4,0,0,1-4.92,5.06L198.3,73A28.74,28.74,0,0,0,203.36,68.45Zm5.57,0a39.93,39.93,0,0,1,5.56,4.83l-1.35,1.34a31.8,31.8,0,0,0-5.47-5Z" style="fill:#fff"/><path d="M217.85,65.28h13V72h-7.94a10.79,10.79,0,0,1-1.11,1.25h9.83q-.08,6.16-1.09,7c-.37.51-1.63.77-3.78.77l-.34-1.69a6.58,6.58,0,0,0,1.25.14,2.27,2.27,0,0,0,1.58-.49c.31-.31.51-1.8.6-4.44h-1a13,13,0,0,1-3,3.74,15.62,15.62,0,0,1-5.5,2.74l-1-1.48a15.88,15.88,0,0,0,5.29-2.39A11,11,0,0,0,227,74.62h-2.13a11,11,0,0,1-2.05,1.95,20.1,20.1,0,0,1-5,2.4l-.92-1.47a20.2,20.2,0,0,0,4.24-1.72,12.93,12.93,0,0,0,1.62-1.16h-2.78a18.3,18.3,0,0,1-3.08,1.47L216,74.62a15.61,15.61,0,0,0,3.49-1.6,14.7,14.7,0,0,0,1.27-1h-2.88Zm1.77,2.66H229V66.69h-9.41ZM229,70.62V69.2h-9.41v1.42Z" style="fill:#fff"/><path d="M234.6,76.6l1.33.12a23.63,23.63,0,0,1-.63,4.38l-1.54-.51A19.06,19.06,0,0,0,234.6,76.6ZM237,64.65l1.55.49a28.3,28.3,0,0,1-2,4.27c.57,0,1.13-.11,1.68-.19.39-.77.78-1.6,1.16-2.46l1.48.54a38.09,38.09,0,0,1-4.1,7,14,14,0,0,0,2.45-.41c-.16-.63-.33-1.23-.53-1.81l1.28-.44a30.17,30.17,0,0,1,1.11,3.87l-1.39.37c0-.25-.1-.48-.16-.7a30.89,30.89,0,0,1-5.11.75L234,74.42c.39,0,.75,0,1.09,0a27.66,27.66,0,0,0,2.42-3.78c-1,.16-2.14.32-3.37.5l-.33-1.48,1-.09A29.08,29.08,0,0,0,237,64.65Zm.85,11.95a18.91,18.91,0,0,1,.51,3.73l-1.48.12a26.22,26.22,0,0,0-.3-3.73Zm2.12-.51a31.38,31.38,0,0,1,1,3.39l-1.41.48c-.21-1.21-.47-2.4-.77-3.57Zm1-9.26h3.88V64.65h1.69v2.18h3.8v1.56h-3.8v2.36h3.22v1.47h-8.23V70.75h3.32V68.39h-3.88Zm8.72,7v7.33h-1.53v-.84h-4.78v.84h-1.55V73.84Zm-6.31,5h4.78V75.32h-4.78Z" style="fill:#fff"/><path d="M253,67.67h1.62V64.84h1.56v2.83h2.4v5.4h1V65.28h8.3v1.48H261.3v1h6.13V69.2H261.3v1.21h6.13v1.32H261.3v1.34h7.12v1.4H264A7.25,7.25,0,0,0,265,76.76,7.15,7.15,0,0,0,267,75l1.2,1.18A8.36,8.36,0,0,1,266,77.9a10.25,10.25,0,0,0,2.74,1.8l-.91,1.52a11.39,11.39,0,0,1-3.8-3.11,9,9,0,0,1-1.67-3.64h-1.21v4.19c.8-.21,1.57-.45,2.32-.72v1.54q-2.22.81-5.2,1.62l-.41-1.76q.83-.14,1.62-.3V74.47h-.91v1.69a1.82,1.82,0,0,1-.36,1.13,1.07,1.07,0,0,1-.93.42h-.82l-.29-1.07v4.53h-1.56v-12h-.91V78H252.3V67.67Zm3.18,1.53v6.91l.62,0c.25,0,.37-.16.37-.47V69.2Z" style="fill:#fff"/><path d="M272.71,64.65l1.47.26q-.33.51-.63.93h4.57V67a7.09,7.09,0,0,0,1.95-2.34l1.48.28c-.15.31-.3.59-.46.86h5.45v1.39h-3.27a12.89,12.89,0,0,1,.53,1.48l-1.69.16a13.91,13.91,0,0,0-.37-1.64h-1.61A8.28,8.28,0,0,1,279,68.45l-1-1.22H275.5a15.1,15.1,0,0,1,.51,1.48l-1.75.16c-.12-.61-.24-1.16-.36-1.64h-1.49a10.58,10.58,0,0,1-1.55,1.41l-1-1.25A10,10,0,0,0,272.71,64.65Zm5.61,3.14c.2.49.39,1,.58,1.62h7.38v4h-1.62V70.82H271.85v2.55h-1.62v-4h7c-.2-.5-.4-1-.61-1.4Zm5.71,4v3.73H274v1h10.7v4.64H283.1v-.72H274v.72h-1.55V71.8ZM274,74.21h8.52V73.14H274Zm0,4.91h9.14V77.78H274Z" style="fill:#fff"/><path d="M288.16,65.76h6v1.63h-2.32V71h1.91v1.63h-1.91v4c.79-.29,1.54-.59,2.25-.89v1.76a45.63,45.63,0,0,1-5.84,2.17l-.47-1.75c.85-.24,1.67-.48,2.44-.72V72.59h-2V71h2V67.39h-2.11Zm6.42-.48h9.14V74h-3.8v1.78h3.85v1.47h-3.85v2h4.62v1.47H293.17V79.26h5.06v-2h-3.51V75.76h3.51V74h-3.65Zm1.61,3.59h2V66.69h-2Zm2,3.72V70.26h-2v2.33Zm1.69-5.9v2.18h2.18V66.69Zm2.18,5.9V70.26h-2.18v2.33Z" style="fill:#fff"/><path d="M316.69,74.44l-1.21,1a17,17,0,0,0-1.66-2.09,15.15,15.15,0,0,0-2.07-1.83l1.14-.93A18.36,18.36,0,0,1,315,72.38,13.24,13.24,0,0,1,316.69,74.44Z" style="fill:#fff"/><path d="M21,89.77,22.8,90c-.12.61-.25,1.18-.4,1.71h4.28v1.56a28.7,28.7,0,0,1-1.08,5.52,13.19,13.19,0,0,1-1.89,3.68,17.56,17.56,0,0,1-4.07,3.67l-1.34-1.48a14.71,14.71,0,0,0,4.62-4.25,23.15,23.15,0,0,0-2.58-3.15l1.21-1.11q1.24,1.29,2.25,2.55a20.94,20.94,0,0,0,1.11-5.43h-3a12.63,12.63,0,0,1-.6,1.39,14.6,14.6,0,0,1-2.41,3.66l-1-1.39a17.14,17.14,0,0,0,2-3.27A17.83,17.83,0,0,0,21,89.77Zm6.75-.12h1.76v5.82c1.65.85,3.32,1.82,5,2.9l-1,1.54q-2.41-1.74-4-2.65v8.91H27.79Z" style="fill:#fff"/><path d="M42.72,94.15l.7,1.26a23.49,23.49,0,0,1-2.76.39v1.09H43v1.25H40.66v1.14h2.46v1.34H40.66v.26c.93.65,1.87,1.38,2.83,2.2l-.84,1.26c-.8-.81-1.46-1.44-2-1.89v3.77H39.11v-3.67a11.31,11.31,0,0,1-2.51,2.71L36,103.71a13.8,13.8,0,0,0,3.14-3v-.1h-3V99.28h3V98.14H36.53V96.89h2.58v-1c-.76,0-1.57,0-2.44,0l-.44-1.32q1.55,0,2.88-.09v-1h1.55v.93C41.41,94.36,42.1,94.27,42.72,94.15Zm-3.87-4.5,1.48.26c-.19.34-.37.65-.55.93h4.27v1.25h-2c.18.39.34.79.5,1.21l-1.78.15c-.11-.51-.22-1-.33-1.36H38.92a10.83,10.83,0,0,1-1.85,2l-1-1.29A10,10,0,0,0,38.85,89.65Zm4.76,5.13h1.62V93.57h1.55v1.21H49V93.57h1.54v1.21h1.71v1.34H50.57v1.32h1.92v1.33H43.28V97.44h1.95V96.12H43.61Zm2.55-5.13,1.55.26c-.15.33-.31.64-.46.93h5.29v1.25H49.26c.19.36.38.75.54,1.14l-1.69.14c-.13-.48-.26-.9-.4-1.28H46.44a12.11,12.11,0,0,1-1.21,1.36l-1.41-.92A7.69,7.69,0,0,0,46.16,89.65Zm5.56,10v6.6H50.17v-.7H45.46v.7H43.91v-6.6Zm-6.26,2.32h4.71v-1H45.46Zm0,2.25h4.71v-1.11H45.46Zm1.32-6.75H49V96.12H46.78Z" style="fill:#fff"/><path d="M56.92,89.58c.64.72,1.16,1.35,1.55,1.88l-1,.7h3.19v1.57h-3.4c0,.9,0,1.75-.07,2.53h3.17q0,6.67-.14,7.91a2.25,2.25,0,0,1-.44,1.26,2,2,0,0,1-1.37.37c-.4,0-.85,0-1.36-.07L56.78,104a8.72,8.72,0,0,0,1.62.15c.23,0,.36-.23.38-.69s.08-2.46.09-5.63H57.1c-.08.94-.17,1.78-.29,2.52a24.74,24.74,0,0,1-1.65,5.71L53.83,105a20.69,20.69,0,0,0,1.51-5,43.56,43.56,0,0,0,.37-6.22H54.09V92.16h2.79a17.21,17.21,0,0,0-1.17-1.88Zm6,.07,1.54.56c-.18.55-.37,1-.56,1.48h6v1.47h-6.7l-.17.3a12.34,12.34,0,0,1-2,2.66l-1.32-1.2a15.41,15.41,0,0,0,2-2.39A14.35,14.35,0,0,0,63,89.65Zm5.13,4.13,1,1.48c-.94.29-1.91.55-2.9.79.17.85.36,1.63.56,2.33a8.37,8.37,0,0,0,2.55-1.72l1,1.14a14.34,14.34,0,0,1-3,2.15c.15.42.31.8.47,1.14a9.89,9.89,0,0,0,2.69,3.53l-1.06,1.55a11.85,11.85,0,0,1-2.93-4,27.35,27.35,0,0,1-1.83-5.8l-1.21.24v7c1-.26,1.88-.54,2.72-.83v1.63A44,44,0,0,1,61.05,106l-.47-1.7c.43-.09.85-.17,1.24-.27V95.48A34,34,0,0,0,68.1,93.78Z" style="fill:#fff"/><path d="M80.39,89.65a13.45,13.45,0,0,1,.68,1.47h6.84v4.24H86.24V92.69h-8.7l1,.55-.53.84h7.54v1.18A10.85,10.85,0,0,1,82.27,98a34.15,34.15,0,0,0,6.34,1.14l-.77,1.55a34,34,0,0,1-7.4-1.87,50.71,50.71,0,0,1-7.7,1.94l-.65-1.55A55.08,55.08,0,0,0,78.65,98a13.31,13.31,0,0,1-2.38-1.78A16.71,16.71,0,0,1,73.93,98l-.86-1.41a8.5,8.5,0,0,0,2.38-1.79A12.59,12.59,0,0,0,77,92.69H74.22v2.67H72.53V91.12h6.71a13.39,13.39,0,0,0-.73-1.21Zm5.71,10.88v5.64H84.55v-.63H76v.63H74.48v-5.64ZM76,104h8.52v-1.88H76Zm1.46-8.49a11.59,11.59,0,0,0,3,1.85,12.67,12.67,0,0,0,2.86-1.85Z" style="fill:#fff"/><path d="M91.64,90.35h4.87v13.77a2,2,0,0,1-.41,1.3,1.64,1.64,0,0,1-1.32.47H93.53l-.43-1.63,1.21.08c.31,0,.47-.18.47-.56v-3.39H92.39c0,.51-.07,1-.13,1.56a25.12,25.12,0,0,1-.89,4.27L89.9,105a16.6,16.6,0,0,0,.73-3.5c.11-1.28.16-2.45.16-3.51v-7.6Zm.82,8.42h2.32V96h-2.3v2C92.48,98.24,92.47,98.51,92.46,98.77Zm0-4.43h2.3V91.92h-2.3ZM104,91.76H99.37v4.5h6.28v1.4a16.13,16.13,0,0,1-1.66,5.21,18,18,0,0,0,2.76,1.88l-.84,1.54A15.14,15.14,0,0,1,103,104.2a9.54,9.54,0,0,1-2.55,1.9l-.91-1.4a8.4,8.4,0,0,0,2.35-1.71,13.53,13.53,0,0,1-2.07-5h-.44v8.27H97.61V90.14h8q-.06,4.2-.87,4.8-.45.54-3,.54l-.37-1.7a7,7,0,0,0,1.28.16,1.69,1.69,0,0,0,.95-.23Q103.86,93.5,104,91.76ZM101.25,98a11.1,11.1,0,0,0,1.6,3.72l0,0A13.47,13.47,0,0,0,104,98Z" style="fill:#fff"/><path d="M108.37,90.42h6.84v1.34a17.13,17.13,0,0,1-2.48,3.16c.19.2.35.39.49.56h2.27v1.43a22.11,22.11,0,0,1-1.28,3.57l-1.11-1a15.84,15.84,0,0,0,.88-2.44h-1v7a1.66,1.66,0,0,1-.42,1.3,1.83,1.83,0,0,1-1.36.39h-1.4l-.34-1.69a7.51,7.51,0,0,0,1.34.14c.42,0,.63-.13.63-.4v-6a24.84,24.84,0,0,1-.89,2.88,16.21,16.21,0,0,1-1.66,3.27l-1.18-1.06a18.93,18.93,0,0,0,1.62-3.11,19.55,19.55,0,0,0,.78-2.72H108V95.48h3.25c-.58-.7-1.24-1.45-2-2.25l1.11-.7,1.39,1.34a19.25,19.25,0,0,0,1.65-2h-5Zm6.91,9.12h3.39q.12-.75.18-1.59l1.63.12a10.5,10.5,0,0,1-.19,1.47h3.55a32,32,0,0,1-.39,5,1.63,1.63,0,0,1-.77,1.12,6.8,6.8,0,0,1-2.9.32l-.37-1.62c.56,0,1,.07,1.21.07.6,0,1-.07,1.11-.22.25-.32.39-1.42.44-3.31H120a8.57,8.57,0,0,1-1,2.34,7.38,7.38,0,0,1-4,2.81l-.63-1.55a6.27,6.27,0,0,0,3.44-2.28,4.51,4.51,0,0,0,.63-1.32h-3.07Zm2.39-9.89,1.55.26c-.24.51-.47,1-.69,1.41h5.75v1.35h-1.07a7.53,7.53,0,0,1-1.83,3.06.22.22,0,0,1-.07.07,14.35,14.35,0,0,0,3.37,1.49l-1,1.48A15.52,15.52,0,0,1,120,96.91a27.08,27.08,0,0,1-3.73,2l-.77-1.54a16.58,16.58,0,0,0,3.3-1.52,12.21,12.21,0,0,1-1.7-2.19,11.89,11.89,0,0,1-1.34,1.6l-1.1-1.32A13.59,13.59,0,0,0,117.67,89.65Zm.68,3a9.06,9.06,0,0,0,1.76,2.2,6.6,6.6,0,0,0,1.5-2.2Z" style="fill:#fff"/><path d="M136.69,99.44l-1.21,1a17,17,0,0,0-1.66-2.09,15.15,15.15,0,0,0-2.07-1.83l1.14-.93A18.36,18.36,0,0,1,135,97.38,13.24,13.24,0,0,1,136.69,99.44Z" style="fill:#fff"/><path d="M159,90.42v7.09h-4.18a6.36,6.36,0,0,0,1.11,1.88,7.9,7.9,0,0,0,2.3-1.73l1.11,1.11a8.32,8.32,0,0,1-2.34,1.6,11.46,11.46,0,0,0,3.27,1.72l-.93,1.55a12.68,12.68,0,0,1-4.27-2.88,8.09,8.09,0,0,1-1.87-3.25h-1.72v3.95a27.21,27.21,0,0,0,2.67-.77v1.54a28.28,28.28,0,0,1-4.76,1.2l0,0a4.34,4.34,0,0,0,1.72.6,42.74,42.74,0,0,0,5.12.28q2.81,0,4.2-.15l-.21,1.7q-7.42,0-9.07-.23a7.07,7.07,0,0,1-2.37-.72,5.23,5.23,0,0,1-1.71-1.65,16.19,16.19,0,0,1-2.06,2.81l-1.17-1.28a11.3,11.3,0,0,0,2-2.46,9.68,9.68,0,0,0,1.09-2.6h-2.49V98.44a22,22,0,0,0,2.25-3H144V94h4.64v1.18a20.6,20.6,0,0,1-2.22,3.09h2.15v1.07a14.16,14.16,0,0,1-.74,2.5,9.23,9.23,0,0,0,1.21,1.35l-.19-1.33c.36,0,.72-.07,1.07-.13V90.42Zm-12.79-.58a21.87,21.87,0,0,1,2,2.32L147,93.37a12.82,12.82,0,0,0-2-2.46Zm5.27,3.32h6V91.9h-6Zm0,2.87h6V94.55h-6Z" style="fill:#fff"/><path d="M165.25,89.65l1.48.63a30.28,30.28,0,0,1-1.18,3.41V106h-1.62V96.68c-.43.68-.9,1.35-1.4,2l-.56-2a26.43,26.43,0,0,0,1.77-3A18.35,18.35,0,0,0,165.25,89.65Zm2.82.63h9.58v14.06a1.75,1.75,0,0,1-.41,1.16,1.25,1.25,0,0,1-1.07.46h-1.92l-.4-1.7,1.81.08c.25,0,.37-.16.37-.49v-3.16h-2.88v5h-1.62v-5h-2.78c-.05.38-.1.78-.16,1.19a20.47,20.47,0,0,1-1.35,4.29l-1.42-1.28a12.27,12.27,0,0,0,1.23-3.5,28.51,28.51,0,0,0,.24-3.52V90.28Zm.8,9h2.66V96.19h-2.62v1.68C168.91,98.34,168.9,98.81,168.87,99.28Zm0-4.57h2.62V91.85h-2.62Zm4.24-2.86v2.86H176V91.85Zm0,4.34v3.09H176V96.19Z" style="fill:#fff"/><path d="M182.71,89.65l1.47.26q-.33.51-.63.93h4.57V92a7.09,7.09,0,0,0,1.95-2.34l1.48.28c-.15.31-.3.59-.46.86h5.45v1.39h-3.27a12.89,12.89,0,0,1,.53,1.48l-1.69.16a13.91,13.91,0,0,0-.37-1.64h-1.61A8.28,8.28,0,0,1,189,93.45l-1-1.22H185.5a15.1,15.1,0,0,1,.51,1.48l-1.75.16c-.12-.61-.24-1.16-.36-1.64h-1.49a10.58,10.58,0,0,1-1.55,1.41l-1-1.25A10,10,0,0,0,182.71,89.65Zm5.61,3.14c.2.49.39,1,.58,1.62h7.38v4h-1.62V95.82H181.85v2.55h-1.62v-4h7c-.2-.5-.4-1-.61-1.4Zm5.71,4v3.73H184v1h10.7v4.64H193.1v-.72H184v.72h-1.55V96.8ZM184,99.21h8.52V98.14H184Zm0,4.91h9.14v-1.34H184Z" style="fill:#fff"/><path d="M198.16,90.76h6.05v1.63h-2.32V96h1.91v1.63h-1.91v4c.79-.29,1.54-.59,2.25-.89v1.76a45.63,45.63,0,0,1-5.84,2.17l-.47-1.75c.85-.24,1.67-.48,2.44-.72V97.59h-2V96h2V92.39h-2.11Zm6.42-.48h9.14V99h-3.8v1.78h3.85v1.47h-3.85v2h4.62v1.47H203.17v-1.47h5.06v-2h-3.51v-1.47h3.51V99h-3.65Zm1.61,3.59h2V91.69h-2Zm2,3.72V95.26h-2v2.33Zm1.69-5.9v2.18h2.18V91.69Zm2.18,5.9V95.26h-2.18v2.33Z" style="fill:#fff"/><path d="M66.74,23.17H68.3v-.73h1.58v.73h1v1.5h-1v.69h.92v2.92l.46,0V25.36h.92v-.69h-1v-1.5h1v-.73h1.58v.73H75v1.5H73.76v.69H75v3.13H72.41c.07.26.14.51.19.75H75v1.31H72.87v.69h1.82v1.14H72.87v.75h1.82v1.12H72.87V35H75a9.34,9.34,0,0,0,1-3.14h-.54v-9h5.31v9H79.49v2.88c0,.29,0,.43.13.43h.14c.15,0,.24-.23.25-.68l.06-1.07,1.48.44A5.29,5.29,0,0,1,81,36.52a1.16,1.16,0,0,1-.87.28h-.93a1.37,1.37,0,0,1-1-.33,1.7,1.7,0,0,1-.28-1V31.86h-.22a12.87,12.87,0,0,1-1.84,5.38L75,36.49H69.43v.68H67.68V32.7a7.38,7.38,0,0,1-.63.72l-.54-1.73a8.44,8.44,0,0,0,1.76-3.2H67.13V25.36H68.3v-.69H66.74Zm2.64,4.19v-.87h-.81v.87Zm.27,1.88h1.22q-.16-.42-.33-.75H68.77l1,.25C69.76,28.91,69.7,29.08,69.65,29.24Zm1.54,2v-.69H69.43v.69Zm0,1.89v-.75H69.43v.75ZM69.43,35h1.76v-.75H69.43Zm4.12-7.64v-.87h-.86v.87Zm3.64-1.86H79v-.95h-1.8Zm0,2.31H79v-.93h-1.8ZM79,30.19v-1h-1.8v1Z" style="fill:#fee14f"/><path d="M89,22.44h2.2v5.75H97v1.86H92.8v4.26c0,.33.2.49.58.49h1.31c.29,0,.46-.35.49-1l.08-1.31,1.93.56c-.16,1.81-.43,2.93-.81,3.34a2,2,0,0,1-1.58.46H92.63a1.9,1.9,0,0,1-1.48-.6,2,2,0,0,1-.46-1.4V30.05H89A9.35,9.35,0,0,1,88,33.89a9.37,9.37,0,0,1-3.24,3.24L83,35.3a7.51,7.51,0,0,0,3-2.13,6.13,6.13,0,0,0,1-3.12H83.05V28.19H89Zm-3.37,1a19.11,19.11,0,0,1,2,3.25l-2.07,1.08a19.81,19.81,0,0,0-1.73-3.7Zm8.62-.12,1.88.45a14.41,14.41,0,0,1-1.68,3.94L92.3,26.61A9.75,9.75,0,0,0,94.24,23.3Z" style="fill:#fee14f"/><path d="M99.94,24.05h12.24v1.87h-5.13V34h6.08v1.87H99V34h5.94V25.92h-5Z" style="fill:#fee14f"/><path d="M124.3,22.38c0,.37.11.75.17,1.12h4.72v1.56H117.43v3.61a26.94,26.94,0,0,1-1.19,8.46l-1.73-1.5a19.67,19.67,0,0,0,1-7V23.5h6.55c0-.35-.1-.67-.16-.95Zm-4.12,3H122V27.8a7.17,7.17,0,0,0,1-2.17l1.32.29a10.53,10.53,0,0,1-1,2.82L122,28.05v.83h2.17v1a13.12,13.12,0,0,0,1.08-4.71l1.61.25c-.05.49-.1.95-.16,1.38h2.61v1.58h-.49a14.77,14.77,0,0,1-.81,4.81l-.23.48a9.72,9.72,0,0,0,1.83,1.69l-1.11,1.81a13.11,13.11,0,0,1-1.8-1.9,14.49,14.49,0,0,1-1.66,1.67l-.87-1.39v.14c0,.91-.48,1.37-1.44,1.37h-1.55l-.26-1.7,1.25.06q.39,0,.39-.42V30.44h-3.19v6.73h-1.62V28.88h2.42V28l-1.38.65a13.47,13.47,0,0,0-1.18-2.56l1.37-.42a11.74,11.74,0,0,1,1.19,1.86Zm-.42,5.58h2.42v3.73h-2.42Zm1.43,2.48V32.19h-.45v1.23Zm3,1.86a7.44,7.44,0,0,0,1.62-1.5,9.08,9.08,0,0,1-.62-2c-.11.18-.21.36-.31.55l-.69-.6Zm2-6a13,13,0,0,0,.58,2.55,15.14,15.14,0,0,0,.42-3.42h-.77C126.33,28.68,126.25,29,126.18,29.25Z" style="fill:#fee14f"/><path d="M46.25,23c-.39-.42-1.66.18-3.52,1.7l0,0-.1-.05h0l-.11-.06h0C41.31,24,38,22.67,37.2,23.09c-1.14.6-.73.73.43,1.41l.3.17,0,0,.67.37.07,0c.94.5,1.94,1,2.17,1.2a30.18,30.18,0,0,0-2.1,2.19h0l-.22.26-.07.09-.19.24-.06.08-.2.28c-.62-.19-1.51-.4-1.85-.18-.64.4-.39.38.16.62a5.85,5.85,0,0,1,1.25,1,6.07,6.07,0,0,1,.88,1.36,1.78,1.78,0,0,0,.2.54h0l0,0h0l.05,0h0l.05,0,0,0,.08-.09,0,0,.11-.14a.52.52,0,0,0,.07-.15,0,0,0,0,1,0,0,.86.86,0,0,0,0-.17h0c0-.06,0-.12,0-.18v-.22s0-.07,0-.11,0-.09,0-.14,0-.09,0-.14l0-.17s0-.07,0-.1l0-.15v-.08c0-.08,0-.15,0-.22l.3-.17.16-.1.11-.07h0a25.8,25.8,0,0,0,2.63-2h0l.18-.16c.3.49,1,2.3,1.44,3.3a1.17,1.17,0,0,0,0,.11h0c.52,1.13.63,1.5,1.31.45.51-.8-.61-4.5-1-5.52C45.91,24.63,46.64,23.4,46.25,23Z" style="fill:#fff"/><path d="M25.17,39.72h0a23.87,23.87,0,0,0,3.43-1.4c.58-.28,1.13-.57,1.65-.86h0a36,36,0,0,0,4.63-3.06l0,0,.14-.11c.73-.57,1.3-1.08,1.72-1.46h0c.51-.47.77-.76.77-.76s-.35-.53-.49-.7-.58-.55-.58-.55-1.2.86-2.87,1.89l-.14.09-.32.19-.49.29a41.53,41.53,0,0,1-4.44,2.31h0c-.5.23-1,.44-1.53.64h0A20.57,20.57,0,0,1,23,37.28l-.4.07-.23,0-.37,0-.36,0-.4,0h-.59a7.36,7.36,0,0,1-1.79-.26c-2.64-.77-1.32-2.92-.16-4.17h0l0,0a12.79,12.79,0,0,0,.4,1.47h0l0,.09h0a.78.78,0,0,1,.05.14,13.76,13.76,0,0,0,.64,1.42,7,7,0,0,0,1.06.08c.24,0,.5,0,.76,0a10.64,10.64,0,0,1-1.27-2.82h0a11.7,11.7,0,0,1-.29-1.45,15.08,15.08,0,0,1-.15-2.3A21.48,21.48,0,0,0,22.29,29,20.52,20.52,0,0,0,24.86,34l-2.92,2.19A19.67,19.67,0,0,0,27.3,34.6L27,34.29l4-3,.76,1,1.34-.81-.85-1.13,4-3c.15.19.66.78.82,1,.26-.24,1-.94,1.22-1.18l-.74-.83c-.36-.48-1.18-1.4-2.29-2.61a19.63,19.63,0,0,0-2.72-2.37,21.68,21.68,0,0,0,1.23-2.07,11.18,11.18,0,0,1,5,2.64,19.42,19.42,0,0,1,2.88.95l-.23-.33a12.8,12.8,0,0,0-23,7.91h0a12,12,0,0,0,.11,1.34h0c-1.61.83-4.42,2.8-3.43,5.93.61,2,3.57,3.38,8.14,2.49h0l.08,0,.28-.05.26-.06L24.1,40l.26-.07.46-.13Zm.94-6.67a19.56,19.56,0,0,1-2.35-4.55,19.86,19.86,0,0,0,3.68-2l2.66,3.55Zm9.23-6.92-4,3-2.66-3.55a19.27,19.27,0,0,0,2.95-3A19.1,19.1,0,0,1,35.34,26.13ZM32.17,19a17.37,17.37,0,0,1-.92,1.48,11.38,11.38,0,0,0-2.81-1.19A11.2,11.2,0,0,1,32.17,19Zm-1.86,2.75a17.7,17.7,0,0,1-2.56,2.56l-2.62-3.49C26.49,20.29,28.36,20.67,30.31,21.76Zm-6.42,0,2.62,3.49A18.27,18.27,0,0,1,23.33,27C22.83,24.82,23,22.91,23.89,21.76Zm-2.4,2.75a11.39,11.39,0,0,0,.35,3,16,16,0,0,1-1.68.46A11.15,11.15,0,0,1,21.49,24.51Z" style="fill:#fff"/><path d="M42.75,31.86c-.14-.3-.3-.67-.45-1a16.83,16.83,0,0,0-1.86.46,2.55,2.55,0,0,1-.36,1.89,2,2,0,0,1-.92.78,6,6,0,0,1-.67,4.72l-2.6-3.48c-.37.3-.78.61-1.24.94l2.6,3.47c-1.36.53-3.23.15-5.19-.94a18.56,18.56,0,0,1,2.24-2.28,37.87,37.87,0,0,1-4.51,2.74,18.81,18.81,0,0,0-1.2,2,11.73,11.73,0,0,1-1.92-.65,19.44,19.44,0,0,1-2.09.67,12.79,12.79,0,0,0,19-7.85,4.29,4.29,0,0,1-.73-1.2Q42.81,32,42.75,31.86ZM30.21,41.42c.28-.51.59-1,.91-1.49a11.6,11.6,0,0,0,2.82,1.19A11.21,11.21,0,0,1,30.21,41.42Zm10.68-5.5a11.84,11.84,0,0,0-.35-3,16,16,0,0,1,1.68-.46A11.55,11.55,0,0,1,40.89,35.92Z" style="fill:#fff"/></g></g></svg>