<svg xmlns="http://www.w3.org/2000/svg" viewBox="0 0 340.52 122.68"><title>section2-list2-s</title><g id="a311519d-c1a8-425c-92ff-01068786d132" data-name="圖層 2"><g id="af23c6fc-44f8-4a89-af15-fe409aa374dd" data-name="圖層 1"><rect x="0.61" y="33.25" width="339.92" height="89.43" rx="3.84" style="fill:#f26e61"/><path d="M61.35,11.51H170.12l20.29,23.24-17.9,20.52H61.35C45.74,55.27,33,45.42,33,33.39h0c0-12,12.77-21.88,28.39-21.88Z" style="fill:#d3402d;fill-rule:evenodd"/><path d="M61.35,11.51H167.07l19.09,21.87-19.1,21.89H61.35C45.73,55.27,33,45.42,33,33.39h0c0-12,12.77-21.88,28.39-21.88Z" style="fill:#f68d6f;fill-rule:evenodd"/><path d="M29.86,11.51h127.5l19.09,21.87L157.36,55.27H29.86c-15.62,0-28.39-9.85-28.39-21.88h0c0-12,12.77-21.88,28.39-21.88Z" style="fill:#d3402d;fill-rule:evenodd"/><path d="M30.59,0A30.59,30.59,0,1,1,0,30.59,30.64,30.64,0,0,1,30.59,0Z" style="fill:#f68d6f;fill-rule:evenodd"/><path d="M30.59,6.24A24.35,24.35,0,1,1,6.25,30.59,24.4,24.4,0,0,1,30.59,6.24Z" style="fill:#d3402d;fill-rule:evenodd"/><path d="M46.45,12.15A24.32,24.32,0,0,1,16.66,50.53,24.32,24.32,0,0,1,46.45,12.15Z" style="fill:#d3402d;fill-rule:evenodd"/><path d="M30.69,68.29l1.47.63a27.56,27.56,0,0,1-1.33,3.57V84.67H29.21V75.23c-.46.67-.95,1.33-1.48,2l-.56-2a23.64,23.64,0,0,0,1.9-3A17.24,17.24,0,0,0,30.69,68.29Zm6.82,0a14.89,14.89,0,0,1,1.14,2.11h4.91v1.48H31.87V70.4H37a14.26,14.26,0,0,0-1.22-1.92Zm-4.94,4.84H42.64v1.4H32.57Zm0,2.81H42.64v1.4H32.57Zm9.91,2.9v6H40.87V83.9H34.26v.91H32.64v-6Zm-8.22,3.65h6.61V80.24H34.26Z" style="fill:#fff"/><path d="M47.69,69H61v13.7a2.13,2.13,0,0,1-.4,1.39,1.44,1.44,0,0,1-1.26.52H57l-.43-1.7L58.8,83q.51,0,.51-.57V79.26H54.73v5H53.12v-5H48.44c-.06.61-.14,1.22-.26,1.85a14,14,0,0,1-1.46,3.7l-1.5-1.28a8.79,8.79,0,0,0,1.34-3,16.91,16.91,0,0,0,.28-3V69Zm.84,4.36h4.59V70.56H48.53Zm0,4.43h4.59v-3H48.53Zm6.2-7.22v2.79h4.58V70.56Zm0,4.27v3h4.58v-3Z" style="fill:#fff"/><path d="M65.91,71.44l1.39.3c-.14.3-.27.58-.4.84h3.29v1.25A10.86,10.86,0,0,1,69,76a28.35,28.35,0,0,1,2.62,1.74L70.41,79a23.8,23.8,0,0,0-2.47-1.74A9.65,9.65,0,0,1,65.05,79h5.14v5.13H66.13v.78H64.65V79.12c-.31.13-.61.25-.92.35l-.56-1.41a7.93,7.93,0,0,0,3.48-1.61c-.55-.32-1.12-.63-1.7-.93a9.6,9.6,0,0,1-.67.72l-1-1.2A11.35,11.35,0,0,0,65.91,71.44Zm1.89-3.15c.16.4.32.85.47,1.34H71v2.72H69.48V71H65v1.4H63.44V69.63h3.09c-.14-.4-.3-.78-.47-1.15Zm-1.94,6,1.85,1a6.71,6.71,0,0,0,.79-1.42H66.13Zm.27,8.42h2.58V80.31H66.13Zm7.71-1.41,1.29.78a8.52,8.52,0,0,1-1.48,1.51,10.65,10.65,0,0,1-2.13,1.3l-.77-1.34a6.1,6.1,0,0,0,1.79-1A6.87,6.87,0,0,0,73.84,81.35Zm-2.51-12.5h8.15v1.41H76.13a10.7,10.7,0,0,1-.28,1.18h2.86v9.77h-7V71.44h2.59a10.84,10.84,0,0,0,.31-1.18h-3.3Zm2,5.42h3.71V72.79H73.37Zm0,2.74h3.71V75.53H73.37Zm3.71,2.87V78.26H73.37v1.62Zm-.41,1.54a24.6,24.6,0,0,1,3,2.25l-1.15,1.14a16,16,0,0,0-2.93-2.39Z" style="fill:#fff"/><path d="M90.44,68.29a8.94,8.94,0,0,1,.73,1.34H97.7V71H94.46v1.55h3V73.9h-3v2.81H86.87V73.9H84.06v2a28.56,28.56,0,0,1-.3,4,21.2,21.2,0,0,1-1.18,4.27L81.1,82.9a12.47,12.47,0,0,0,1-3.5,26.83,26.83,0,0,0,.25-3.53V69.63h7a11.29,11.29,0,0,0-.73-1.08Zm-5.35,9.34h11v1.14a12.73,12.73,0,0,1-3.69,3A37.14,37.14,0,0,0,98,83.46l-1.18,1.41A47.72,47.72,0,0,1,91.47,83l-.74-.37a22.76,22.76,0,0,1-6,1.78L84,82.83a22.15,22.15,0,0,0,5-1.13,13.77,13.77,0,0,1-2.49-2L87.61,79H85.09Zm1.78-5V71H84.06v1.55ZM87.78,79a13.2,13.2,0,0,0,2.88,2,12.37,12.37,0,0,0,2.87-2Zm5-6.38V71H88.56v1.55ZM88.56,73.9v1.55h4.18V73.9Z" style="fill:#fff"/><path d="M109.89,78.08l-1.21,1A15.21,15.21,0,0,0,105,75.16l1.14-.93a16.88,16.88,0,0,1,2.12,1.8A12.05,12.05,0,0,1,109.89,78.08Z" style="fill:#fff"/><path d="M120.83,68.31l1.48.63a27.06,27.06,0,0,1-1.48,3.83V83.62a7,7,0,0,0,2.08-2.69,18.49,18.49,0,0,0,.64-4.61h1.63a29.79,29.79,0,0,1-.34,3.61,4.76,4.76,0,0,0,1.48,1.91,5,5,0,0,0,.87.53V74.92h-4V69.06h9.26v5.86h-3.5v2.63h4v1.57h-4v3.69a18,18,0,0,0,2.1.11c.93,0,1.89,0,2.88-.14l-.26,1.68a27.87,27.87,0,0,1-6.32-.42,5.15,5.15,0,0,1-2.19-1.25,4.78,4.78,0,0,1-.85-.93,9.54,9.54,0,0,1-2.11,2.9l-1.33-1v.93h-1.62V75.45c-.43.63-.9,1.25-1.4,1.86l-.59-2a25.15,25.15,0,0,0,2-3A18,18,0,0,0,120.83,68.31Zm10,5V70.59h-6.05v2.76Z" style="fill:#fff"/><path d="M139,68.34h.56a24,24,0,0,1,2.88,3l-1.19,1.14a25.21,25.21,0,0,0-2.2-2.67,26,26,0,0,1-2,2.81h4.44v1.48h-1.95V75.6H142v1.48h-2.44v5.2c.85-.22,1.71-.48,2.59-.77v1.55a41.69,41.69,0,0,1-6.46,1.54L135.44,83a25.37,25.37,0,0,0,2.62-.37V77.08h-2.62V75.6h2.62V74.13h-1.78v-.58l-.55.65-.56-1.78a19.63,19.63,0,0,0,3.08-4.08ZM136.72,78a13,13,0,0,1,.7,3.66l-1.42.14a13.93,13.93,0,0,0-.49-3.67Zm4-.07,1.21.27a15.88,15.88,0,0,1-.58,3l-1.26-.4A11.15,11.15,0,0,0,140.71,77.92Zm2.55-9a18.79,18.79,0,0,1,2,3.1l-1.48.63a18.52,18.52,0,0,0-1.95-3.25Zm2.72-.63h1.64v4.55h3.43V82.9a1.82,1.82,0,0,1-.43,1.3,1.33,1.33,0,0,1-1.05.4h-2.51l-.37-1.54,2.25.07c.34,0,.51-.24.51-.64V80.81h-5.23v4h-1.59v-12H146Zm-1.76,7.86h5.23V74.27h-5.23Zm0,3.32h5.23v-2h-5.23Zm6.05-10.77,1.36.63a15.48,15.48,0,0,1-1.85,3.39l-1.48-1.07A15.31,15.31,0,0,0,150.27,68.7Z" style="fill:#fff"/><path d="M163.89,78.08l-1.21,1A15.21,15.21,0,0,0,159,75.16l1.14-.93a16.88,16.88,0,0,1,2.12,1.8A12.05,12.05,0,0,1,163.89,78.08Z" style="fill:#fff"/><path d="M175,68.29a14.93,14.93,0,0,1,1,2h2.94v1.48h-7.67V70.33h3.08a11.81,11.81,0,0,0-1-1.85Zm-3.09,4.76h6.38v1.41h-6.38Zm0,2.55h6.38V77h-6.38Zm1.67,7.86v1.28H172V78.26h6.17v6.19H176.5v-1ZM176.5,82V79.73h-2.95V82Zm2.69-12.65h8.56V71h-2.88V82.9a1.7,1.7,0,0,1-.48,1.4,2.27,2.27,0,0,1-1.63.44h-2.25l-.34-1.84a19.34,19.34,0,0,0,2.11.16c.52,0,.78-.15.78-.44V71h-3.87Z" style="fill:#fff"/><path d="M197.41,68.29h.76a16.69,16.69,0,0,0,3.39,2.87,22,22,0,0,0,4.26,2l-1,1.7a15.35,15.35,0,0,1-2.39-1v.75H198.3v2h6.55v1.6H198.3v4.57H200a25,25,0,0,0,1.44-3.85l1.77.56a25,25,0,0,1-1.4,3.29h3.5v1.56H189.68V82.69h3.54a23.71,23.71,0,0,0-1.38-3.15l1.64-.58A21.46,21.46,0,0,1,195,82.69h1.61V78.12H190v-1.6h6.55v-2h-3.93v-.84c-.77.42-1.62.85-2.55,1.28l-.9-1.69a20.94,20.94,0,0,0,4.64-2.37,18.76,18.76,0,0,0,2.81-2.62Zm-3.49,4.62h7a21.31,21.31,0,0,1-3.53-3,27.08,27.08,0,0,1-3.06,2.74Z" style="fill:#fff"/><path d="M217.89,78.08l-1.21,1A15.21,15.21,0,0,0,213,75.16l1.14-.93a16.88,16.88,0,0,1,2.12,1.8A12.05,12.05,0,0,1,217.89,78.08Z" style="fill:#fff"/><path d="M228.13,68.34l1.4.62v0h12.1v1.25h-3.87v.93h3.36v3.57h-11.4V71.1h3.4v-.93h-3.59v-.93a31.42,31.42,0,0,1-1,3V84.81H227V75.34a18.39,18.39,0,0,1-1.25,2l-.56-2a23.52,23.52,0,0,0,1.58-3A20.38,20.38,0,0,0,228.13,68.34Zm5.46,13.86.85,1.14a10.74,10.74,0,0,1-2,.88,24.72,24.72,0,0,1-2.61.65L229,83.46a19.61,19.61,0,0,0,2.69-.54A10.53,10.53,0,0,0,233.59,82.2Zm-3.28-6.9h10.4v6.83h-10.4Zm2.81-1.81V72.28h-1.9v1.21Zm-1.41,3.8h7.6v-.77h-7.6Zm0,1.81h7.6v-.77h-7.6Zm7.6,1.85v-.78h-7.6V81Zm-3-9.85v-.93h-1.84v.93Zm0,2.39V72.28h-1.84v1.21Zm.85,8.79a29.7,29.7,0,0,1,4.55,1.18l-.56,1.48a24.19,24.19,0,0,0-4.64-1.41Zm2.44-8.79V72.28h-1.88v1.21Z" style="fill:#fff"/><path d="M243.3,71.74h2.53V68.29h1.56v3.45h2v.73a9.84,9.84,0,0,0,1.53-1.75A8.77,8.77,0,0,0,252,68.34l1.69.21a10.45,10.45,0,0,1-.48,1.34h5.31V71.1a16.26,16.26,0,0,1-2.84,3.55,16.4,16.4,0,0,0,4.18,1.59l-1,1.39a19,19,0,0,1-4.5-1.9,17.5,17.5,0,0,1-4.5,2.12l-.65-1.23-.49.72c-.52-.77-1-1.41-1.32-1.91v9.38h-1.56V76.39a17.65,17.65,0,0,1-2,3.85l-.64-1.75a21.28,21.28,0,0,0,2.66-5.21V73.2H243.3Zm6.17,4.51A15.87,15.87,0,0,0,253,74.74a12.28,12.28,0,0,1-1.74-1.88,9.39,9.39,0,0,1-1.24,1.2l-.71-1v.11h-2v.44q1.11,1.08,2.25,2.37Zm8.94,1.67v6.89h-1.69v-1H252.1v1h-1.69V77.92Zm-6.31,4.43h4.62V79.4H252.1Zm.16-10.77a9.4,9.4,0,0,0,2.07,2.23,17.12,17.12,0,0,0,2.18-2.5h-4.07Z" style="fill:#fff"/><path d="M264.39,68.34l1.62.36c-.25.41-.5.79-.76,1.14h4v1.47h-2.39c.22.54.43,1.1.61,1.67l-1.76.15a14.41,14.41,0,0,0-.49-1.82h-1.1a13,13,0,0,1-1.85,1.74l-1.11-1.4A10.72,10.72,0,0,0,264.39,68.34Zm-2.88,5.22h7.05v-1h1.61v1h7.31v1.53h-7.31v1.06h6.1V79a1.72,1.72,0,0,1-.44,1.3,1.29,1.29,0,0,1-1,.41h-1.48L273,79.17l1.18.09q.51,0,.51-.63v-1h-4.5V78a11.67,11.67,0,0,0,2.62,2.63,18.42,18.42,0,0,0,5,2.52l-1.11,1.25a28.18,28.18,0,0,1-4.15-2.18,13.28,13.28,0,0,1-2.39-2.06v4.67h-1.61V80.14a15.77,15.77,0,0,1-1.82,1.69,25.83,25.83,0,0,1-4.3,2.7L261.37,83a23.46,23.46,0,0,0,4.95-2.78A13.18,13.18,0,0,0,268.56,78v-.4h-4.24v3h-1.6v-4.5h5.84V75.09h-7.05Zm10.14-5.15,1.55.29a12.12,12.12,0,0,1-.6,1.14h5.15v1.47h-3.06c.25.56.47,1.14.69,1.74l-1.85.15a15.42,15.42,0,0,0-.53-1.89h-1.32a9.62,9.62,0,0,1-1.17,1.41l-1.11-1.35A9.14,9.14,0,0,0,271.65,68.41Z" style="fill:#fff"/><path d="M286.12,68.92V72A12.58,12.58,0,0,0,289,68.22l1.55.26c-.25.51-.5,1-.74,1.41h4.9V71a13.74,13.74,0,0,1-2.49,3.59,19,19,0,0,0,3.53,1.76l-.7,1.54A23.52,23.52,0,0,1,291,75.67,19.37,19.37,0,0,1,286.82,78l-.7-.93v7.1h-1.48V83h-3.59v1.39h-1.47V68.92Zm-5.07,6h1.08V70.4h-1.08Zm0,6.54h1.08V76.38h-1.08Zm2.48-11.11V75h1.11V70.4Zm0,11.11h1.11V76.38h-1.11Zm2.59-5.06a24.65,24.65,0,0,0,3.55-1.85,13.64,13.64,0,0,1-1.67-2,11.65,11.65,0,0,1-1,1l-.91-1.12Zm8.36,1.47v6.89h-1.54V84h-4.06v.84h-1.55V77.92Zm-5.6,4.64h4.06V79.33h-4.06ZM291,73.67a7.14,7.14,0,0,0,1.79-2.36h-3.83l0,0A13.29,13.29,0,0,0,291,73.67Z" style="fill:#fff"/><path d="M307.89,78.08l-1.21,1A15.21,15.21,0,0,0,303,75.16l1.14-.93a16.88,16.88,0,0,1,2.12,1.8A12.05,12.05,0,0,1,307.89,78.08Z" style="fill:#fff"/><path d="M28.21,96.31h1.62V93.48h1.56v2.83h2.39v5.4h1V93.92h8.3V95.4H36.51v1h6.13v1.4H36.51v1.22h6.13v1.32H36.51v1.33h7.12v1.41H39.16a7.29,7.29,0,0,0,1.06,2.28,7.27,7.27,0,0,0,2-1.77l1.19,1.17a8.57,8.57,0,0,1-2.19,1.75A10.07,10.07,0,0,0,44,108.34l-.91,1.53a11.53,11.53,0,0,1-3.8-3.11,8.78,8.78,0,0,1-1.67-3.64H36.37v4.18c.79-.21,1.57-.45,2.32-.72v1.55q-2.22.81-5.21,1.61l-.4-1.75,1.62-.3v-4.57h-.92v1.68a1.87,1.87,0,0,1-.35,1.13,1.07,1.07,0,0,1-.93.42h-.83l-.28-1.07v4.53H29.83v-12h-.92v8.81h-1.4V96.31Zm3.18,1.53v6.91l.62,0c.24,0,.37-.15.37-.47V97.84Z" style="fill:#fff"/><path d="M45.17,101.92h9v1.48H50.64V108a1.72,1.72,0,0,1-.39,1.28,1.77,1.77,0,0,1-1.35.4H47.69L47.35,108a6.16,6.16,0,0,0,1.11.14c.42,0,.63-.15.63-.44V103.4H45.17Zm1.6,2.11,1.48.3a17.14,17.14,0,0,1-1.74,4.57l-1.34-.84A12.87,12.87,0,0,0,46.77,104Zm-1.4-9.4H49V93.29h1.6v1.34h3.32V96H50.57v1.18h2.69v1.35H46V97.21h3V96h-3.6Zm.44,4.9h7.38v1.34H45.81ZM52.7,104a22.5,22.5,0,0,1,1,2.76l-1.32.56a17.28,17.28,0,0,0-1.07-2.88Zm3.51-5.83H57.9v1.47a11.36,11.36,0,0,0,1,4.47,12.34,12.34,0,0,0,2.94,4.25l-1.18,1.35a12.55,12.55,0,0,1-2.18-2.81,11.09,11.09,0,0,1-1.26-3.53,16.15,16.15,0,0,1-1.15,3.39,10.82,10.82,0,0,1-2.25,2.95l-1.39-1.28a9.82,9.82,0,0,0,3-3.94,13.75,13.75,0,0,0,.82-4.85Zm.09-1.06a10.48,10.48,0,0,1-1.57,3.53l-1.4-1a13.18,13.18,0,0,0,2.11-6.33l1.54.21c-.1.77-.22,1.47-.35,2.11h4.85a22.8,22.8,0,0,1-.52,4,11.32,11.32,0,0,1-1,2.86l-1.14-1a15.05,15.05,0,0,0,1-4.38Z" style="fill:#fff"/><path d="M66.69,93.34l1.47.72a26.13,26.13,0,0,1-1.47,3.84v4.71a16.9,16.9,0,0,0,3.23-5.1l1.6.33c-.21.51-.43,1-.67,1.43H73.6a12.76,12.76,0,0,0-.87-1.48l1.62-.21a14.8,14.8,0,0,1,.83,1.69h4.08v1.4H75.32v1.25h3.46v1.34H75.32v1.4h3.46V106H75.32v1.54h4.16V109H70.41v.7H68.69v-6.76a12.85,12.85,0,0,1-1.1,1.35l-.9-1.14v6.55H65.14v-9.24q-.65.94-1.41,1.86l-.56-2.06a22.53,22.53,0,0,0,1.9-2.93A17.33,17.33,0,0,0,66.69,93.34Zm2,.58h1.55v2h2.81V93.29h1.62V96h2.69v-2h1.54v3.43H68.71Zm5,8v-1.25H70.41v1.25Zm0,2.74v-1.4H70.41v1.4Zm-3.31,2.9h3.31V106H70.41Z" style="fill:#fff"/><path d="M82.07,95.1h1.69v8.7a13.54,13.54,0,0,0,2-.81V93.34h1.76v16.47H85.72v-4.93a23.74,23.74,0,0,1-4.21,1.47l-.29-1.95a7.18,7.18,0,0,0,.85-.14Zm8.37-1.81,1.84.19a21,21,0,0,1-.6,2.4h6v1.7H96.18a14.66,14.66,0,0,1-2,7.31,2.77,2.77,0,0,1-.27.42,20.25,20.25,0,0,0,3.68,3l-.92,1.6a17.4,17.4,0,0,1-3.85-3.2,19.31,19.31,0,0,1-4.23,3.2l-1-1.53a15,15,0,0,0,4.2-3,17.56,17.56,0,0,1-2.07-5.26,14.28,14.28,0,0,1-1,1.43l-1.11-1.43A15.31,15.31,0,0,0,89.4,97,18.52,18.52,0,0,0,90.44,93.29Zm.4,4.84A17.53,17.53,0,0,0,92.9,104a13.33,13.33,0,0,0,1.67-6.42H91.09q-.09.21-.18.39C90.89,98,90.86,98.08,90.84,98.13Z" style="fill:#fff"/><path d="M67.26,35.18l1.48.06a32.26,32.26,0,0,1-.3,4.07l-1.75-.18A22.17,22.17,0,0,0,67.26,35.18Zm1.87-10,1.92.58A19.68,19.68,0,0,1,69.46,29q.56-.06,1.05-.15c.34-.59.67-1.19,1-1.8l1.56.92a27.47,27.47,0,0,1-3.43,4.85c.53-.06,1.06-.12,1.59-.21-.12-.41-.23-.79-.34-1.14l1.37-.36a24.41,24.41,0,0,1,1.08,3.25l-1.64.56c0-.29-.09-.56-.14-.81q-2.21.49-4.41.81L66.8,33l.77,0a27.23,27.23,0,0,0,1.7-2.22c-.68.1-1.39.17-2.14.24l-.33-1.82.77,0A12.76,12.76,0,0,0,69.13,25.18Zm1.5,10a34.09,34.09,0,0,1,.5,3.5l-1.7.27a34.15,34.15,0,0,0-.24-3.64Zm1.67-.37a19.31,19.31,0,0,1,1.07,2.89H76V35.93H73.38V34.2h7.55v1.73H78V37.7h3.25v1.73H72.87V38.15l-.93.36a20.26,20.26,0,0,0-.89-3.33ZM74,27.63l1.81.49a16.52,16.52,0,0,1-1.45,2.56c.47.71,1,1.56,1.51,2.56l-1.76.69a28,28,0,0,0-1.61-3.25A13.76,13.76,0,0,0,74,27.63Zm-.88-1.93h8v1.67h-8Zm3.44,2,1.8.5A16.34,16.34,0,0,1,77,30.68c.47.69,1,1.52,1.52,2.5l-1.77.69a25.12,25.12,0,0,0-1.61-3.19A13.76,13.76,0,0,0,76.57,27.7Zm2.69-.07,1.79.49a15.91,15.91,0,0,1-1.43,2.56c.53.66,1.09,1.45,1.7,2.39l-1.77.69a24,24,0,0,0-1.79-3.08A13.76,13.76,0,0,0,79.26,27.63Z" style="fill:#fee14f"/><path d="M86.18,25.24h.75a19,19,0,0,1,2.39,2.33l-1.14,1.5h.33v1.55H87v1h1.88v1.61H87v3.85c.71-.14,1.4-.29,2.06-.47v1.7a54.63,54.63,0,0,1-5.86,1.17l-.32-1.79c.81-.08,1.6-.18,2.39-.32V33.24H83V31.63h2.27v-1H83.62V30c-.22.22-.45.43-.69.64l-.42-2.17a12.46,12.46,0,0,0,2.62-3.21Zm-1.67,8.52A25.57,25.57,0,0,1,85,36.81l-1.61.2a28.08,28.08,0,0,0-.25-3.14Zm0-4.69h3.34a15.74,15.74,0,0,0-1.67-2.26A15.84,15.84,0,0,1,84.51,29.07Zm3.25,4.42,1.37.21a13.31,13.31,0,0,1-.5,2.81l-1.44-.45A9.5,9.5,0,0,0,87.76,33.49Zm2.61-7.73a16.51,16.51,0,0,1,1.57,2.8l-1.76.87a17.18,17.18,0,0,0-1.38-3.17Zm1.75-.45H94v4.32H96.8v8.49c0,1-.58,1.51-1.76,1.51H93.37l-.25-1.81,1.31,0c.28,0,.42-.15.42-.44v-1H91.26V39.7H89.38V29.63h2.74Zm-.86,7h3.59v-.95H91.26Zm0,2.48h3.59v-.87H91.26Zm4.62-8.92,1.5.56a10.44,10.44,0,0,1-1.56,3.11l-1.58-1.11A8.29,8.29,0,0,0,95.88,25.82Z" style="fill:#fee14f"/><path d="M98.69,29.13h3.88a20.51,20.51,0,0,1-1.08,3.38h1.56A14.88,14.88,0,0,1,102,36.67l-.09.21a3.33,3.33,0,0,0,1,.6,17.1,17.1,0,0,0,4.82.45q1,0,5.8-.23l-.3,1.87-3.12.06c-4.06,0-6.64-.2-7.72-.62a5.12,5.12,0,0,1-1.23-.77,12.11,12.11,0,0,1-1.24,1.58L98.51,38.2a8.41,8.41,0,0,0,1.59-2,7.11,7.11,0,0,0,.73-2H99.05a22.38,22.38,0,0,0,1.22-3.39H98.69Zm1.75-3.89a16.94,16.94,0,0,1,2.43,2.19l-1.68,1.31a12.48,12.48,0,0,0-2.32-2.42Zm2.74.25h9.26v1.32a11.78,11.78,0,0,1-3.08,2h3.44V36.2c0,.86-.58,1.29-1.76,1.29h-1.38l-.25-1.62,1,.06q.42,0,.42-.36v-.69h-1.92v2.43h-1.8V34.88h-1.87v2.55h-2V28.81h3.1c-.53-.28-1.15-.58-1.84-.88l1.25-.8a22.79,22.79,0,0,1,2.22.94A12.9,12.9,0,0,0,110,27h-6.79Zm2.08,5.75h1.87v-1h-1.87Zm0,2.39h1.87V32.51h-1.87Zm3.67-3.43v1h1.92v-1Zm0,2.31v1.12h1.92V32.51Z" style="fill:#fee14f"/><path d="M115.47,25.76H121v2.81a8.57,8.57,0,0,0,1.88-3.44l2,.3c-.11.31-.21.61-.32.89h4v1.31a12.26,12.26,0,0,1-2,3.46,11,11,0,0,0,3.17,1.23l-1,1.88-.45-.17v5.84h-2v-.8h-2.56v.8h-2V34.12l-.42.14-.46-1.06v1.25h-1.18V36.6c.54-.14,1.06-.3,1.57-.48v1.81a48.24,48.24,0,0,1-6.2,1.64l-.3-1.94.63-.09V32.06h1.61v5.18c.28,0,.55-.09.83-.15V31.18h-2.29ZM119,29.49V27.43h-1.61v2.06Zm1.58,3.25-.18-.42a8.16,8.16,0,0,0,3.28-1.22,13.1,13.1,0,0,1-1.1-1.45c-.28.32-.54.63-.8.91L121,29.34v1.84h-1.37v1.56Zm2.23,1h4.53a12.21,12.21,0,0,1-2.25-1.33A11.81,11.81,0,0,1,122.85,33.7Zm.77-5.53A9.65,9.65,0,0,0,125,29.93a10,10,0,0,0,1.4-2h-2.64A1.58,1.58,0,0,0,123.62,28.17Zm.06,9.2h2.56v-2h-2.56Z" style="fill:#fee14f"/><path d="M40.33,17.29a12.37,12.37,0,0,1-13.86,20.4l-.94,1.17,1.11.89-3.27,4.07-5.32-4.27,3.27-4.07,1.11.89.94-1.17a12.37,12.37,0,0,1,17-17.91Zm.25,16.08a10.26,10.26,0,1,0-14.43,1.56A10.26,10.26,0,0,0,40.58,33.37Z" style="fill:#fff"/><path d="M17.81,40.43l4.76,3.83a3.2,3.2,0,0,1-4.76-3.83Z" style="fill:#fff"/><path d="M38.9,22.36a.38.38,0,0,1,.25.47l-2.08,6.71a.38.38,0,0,1-.37.31H28.49a.37.37,0,0,1-.44-.3l-1.67-9.09a.37.37,0,0,1,.3-.44.39.39,0,0,1,.44.31l.37,2H38.78Zm-1.35,3.09.72-2.35H27.63l.43,2.35Zm-1.13,3.64.89-2.88H28.2l.53,2.88Z" style="fill:#fff"/><path d="M35.53,30.23a1.26,1.26,0,1,1-1.26,1.26A1.26,1.26,0,0,1,35.53,30.23Z" style="fill:#fff"/><path d="M29.27,30.23A1.26,1.26,0,1,1,28,31.49,1.27,1.27,0,0,1,29.27,30.23Z" style="fill:#fff"/></g></g></svg>