<svg xmlns="http://www.w3.org/2000/svg" viewBox="0 0 340.52 122.99"><title>section2-list1-s</title><g id="a8c0f4ff-846d-4ccc-b4f7-761782e14623" data-name="圖層 2"><g id="b7822eed-8320-4454-b0ca-70a51665a6e0" data-name="圖層 1"><rect x="0.61" y="33.55" width="339.92" height="89.43" rx="3.84" style="fill:#ef3e6c"/><path d="M61.35,10.92H170.12l20.29,23.25-17.9,20.51H61.35C45.74,54.68,33,44.84,33,32.8h0c0-12,12.77-21.88,28.39-21.88Z" style="fill:#aa1c37;fill-rule:evenodd"/><path d="M61.35,10.92H167.07L186.16,32.8l-19.1,21.88H61.35C45.73,54.68,33,44.84,33,32.8h0c0-12,12.77-21.88,28.39-21.88Z" style="fill:#f386a5;fill-rule:evenodd"/><path d="M29.86,10.92h127.5L176.45,32.8,157.36,54.68H29.86c-15.62,0-28.39-9.84-28.39-21.88h0c0-12,12.77-21.88,28.39-21.88Z" style="fill:#aa1c37;fill-rule:evenodd"/><path d="M30.59,0A30.59,30.59,0,1,1,0,30.59,30.64,30.64,0,0,1,30.59,0Z" style="fill:#f386a5;fill-rule:evenodd"/><path d="M30.59,6.24A24.35,24.35,0,1,1,6.25,30.59,24.4,24.4,0,0,1,30.59,6.24Z" style="fill:#aa1c37;fill-rule:evenodd"/><path d="M46.45,12.15A24.32,24.32,0,0,1,16.66,50.53,24.32,24.32,0,0,1,46.45,12.15Z" style="fill:#aa1c37;fill-rule:evenodd"/><path d="M30.06,66l1.61.26a12.19,12.19,0,0,1-.54,1.22h4.2V69H32.8c.22.51.43,1,.61,1.6l-1.74.14A17.71,17.71,0,0,0,31.18,69h-.91a15.17,15.17,0,0,1-1.69,2.11l-1.48-.93A10.89,10.89,0,0,0,30.06,66Zm5.46,5.27v6.38h-5.6v2.45c1.16-.17,2.35-.39,3.58-.67-.21-.38-.42-.73-.63-1.07l1.55-.48a23.1,23.1,0,0,1,1.88,3.43l-1.55.7a12.16,12.16,0,0,0-.51-1.14A59,59,0,0,1,27.58,82l-.21-1.68,1-.07v-9Zm-5.6,2.52H34V72.7H29.92Zm0,2.48H34V75H29.92ZM37.28,66l1.64.26c-.18.42-.36.83-.55,1.22h5.38V69H40.41a17,17,0,0,1,.67,1.74l-1.76.14A13.43,13.43,0,0,0,38.77,69H37.53a13,13,0,0,1-1.57,2L34.49,70A10.38,10.38,0,0,0,37.28,66ZM43,71.56v7.82a1.85,1.85,0,0,1-.44,1.33,1.31,1.31,0,0,1-1,.41h-2l-.33-1.67,1.67.12c.34,0,.51-.26.51-.7V73h-3.1v9.51H36.67v-11Z" style="fill:#fff"/><path d="M54.23,65.81c.2.35.39.74.59,1.18h6.44v1.33H56.83v.78h3.88v3.16H48.53V71.15h3.25v-.91H48.53V69.1h3.25v-.78H47.92V73H61.26a16.46,16.46,0,0,1-.62,2.83l-1-.31a12.59,12.59,0,0,1,1,1.09l-1.26.82a22.81,22.81,0,0,0-1.85-2.25l1.07-.63c.25.25.48.47.71.67a7.33,7.33,0,0,0,.33-1H54a7.34,7.34,0,0,1,1.35.89l-.7,1.06A6.56,6.56,0,0,0,53,74.88l.44-.7H47.88c0,.83-.1,1.69-.19,2.58a7,7,0,0,0,1.21-2l1.41.28a9.35,9.35,0,0,1-1.78,3l-.93-.63a.9.9,0,0,1,0,.18,24.16,24.16,0,0,1-1.3,5.08L45,81.49a17.28,17.28,0,0,0,1.14-4.33,37.81,37.81,0,0,0,.27-4.34V67H53c-.18-.32-.37-.62-.58-.92Zm-3.36,8.84h1.46v1.27c0,.29.19.44.56.44h2.76a.6.6,0,0,0,.4-.11c.12-.08.2-.43.23-1l1.41.44c-.13.89-.32,1.42-.58,1.58a2.44,2.44,0,0,1-1.27.23H52.77a3.78,3.78,0,0,1-.46.58H59v.83a6.68,6.68,0,0,1-2.43,1.88,39,39,0,0,0,4.61.44l-.34,1.35a26.67,26.67,0,0,1-5.8-.86l-.51-.16A45.69,45.69,0,0,1,48.2,82.6l-.85-1.34q3.06-.24,5.1-.6a17,17,0,0,1-2-1.12c-.5.29-1.06.58-1.69.88L48,79.08a12.26,12.26,0,0,0,2.4-1,5.21,5.21,0,0,0,1-.76,1,1,0,0,1-.15-.11,1.11,1.11,0,0,1-.39-.87ZM52,79.08a15.18,15.18,0,0,0,2.56,1.14l.23,0A7.37,7.37,0,0,0,57,79.08Zm3.39-10v-.78H53.26v.78Zm-2.11,1.14v.91h2.11v-.91Zm3.57,0v.91h2.41v-.91Z" style="fill:#fff"/><path d="M66.83,66l1.48.63a25.9,25.9,0,0,1-1.48,3.83V81.35a7.17,7.17,0,0,0,2.09-2.69,19.17,19.17,0,0,0,.63-4.61h1.63a27.87,27.87,0,0,1-.34,3.61,4.76,4.76,0,0,0,1.48,1.91,5,5,0,0,0,.87.53V72.65h-4V66.79h9.26v5.86H74.92v2.63h4v1.57h-4v3.69a17.93,17.93,0,0,0,2.09.1,28.45,28.45,0,0,0,2.88-.14l-.26,1.69a27.69,27.69,0,0,1-6.31-.42,5.23,5.23,0,0,1-2.2-1.25,5.09,5.09,0,0,1-.85-.93,9.79,9.79,0,0,1-2.1,2.9l-1.34-1v.93H65.21V73.17c-.43.64-.9,1.26-1.4,1.87l-.58-2a26.36,26.36,0,0,0,2-3A18.25,18.25,0,0,0,66.83,66Zm10,5V68.32h-6v2.76Z" style="fill:#fff"/><path d="M85,66.07h.56a24.86,24.86,0,0,1,2.89,3l-1.2,1.14A25.21,25.21,0,0,0,85,67.57a27.07,27.07,0,0,1-2,2.81h4.44v1.48h-2v1.47H88v1.48H85.53V80c.85-.22,1.71-.48,2.59-.77v1.55a41.83,41.83,0,0,1-6.45,1.54l-.23-1.62a24.91,24.91,0,0,0,2.62-.36V74.81H81.44V73.33h2.62V71.86H82.28v-.58c-.18.21-.36.42-.54.65l-.57-1.78a19.63,19.63,0,0,0,3.08-4.08Zm-2.25,9.65a12.89,12.89,0,0,1,.7,3.66L82,79.52a13.93,13.93,0,0,0-.49-3.67Zm4-.07,1.21.27a15.88,15.88,0,0,1-.58,3l-1.26-.41A10.57,10.57,0,0,0,86.71,75.65Zm2.55-9a18,18,0,0,1,1.95,3.1l-1.48.63a18.52,18.52,0,0,0-2-3.25ZM92,66h1.64v4.55h3.43V80.63a1.79,1.79,0,0,1-.43,1.3,1.33,1.33,0,0,1-1.05.4H93.06l-.37-1.54,2.25.07c.34,0,.51-.24.51-.64V78.54H90.23v4h-1.6v-12H92Zm-1.75,7.86h5.22V72H90.23Zm0,3.32h5.22v-2H90.23Zm6-10.78,1.36.64a15.48,15.48,0,0,1-1.85,3.39L94.3,69.38A15.09,15.09,0,0,0,96.27,66.42Z" style="fill:#fff"/><path d="M109.9,75.81l-1.22,1A15.88,15.88,0,0,0,107,74.72,15.15,15.15,0,0,0,105,72.89L106.1,72a18.36,18.36,0,0,1,2.13,1.79A13.73,13.73,0,0,1,109.9,75.81Z" style="fill:#fff"/><path d="M117.3,70.38h4.57v1.18a23.67,23.67,0,0,1-2.27,3.09h2.2v1.07a14.52,14.52,0,0,1-.83,2.67,5.32,5.32,0,0,0,1.69,1.36,5,5,0,0,0,1.7.47c.86.11,2.56.17,5.12.2,1.87,0,3.28,0,4.22-.13L133.42,82q-7.42,0-9.09-.17a7.54,7.54,0,0,1-2.36-.64,4.83,4.83,0,0,1-1.7-1.42,19.12,19.12,0,0,1-2,2.67l-1.18-1.28a11.1,11.1,0,0,0,2-2.46,9.68,9.68,0,0,0,1.09-2.6h-2.58V74.81a20.11,20.11,0,0,0,2.32-3h-2.6Zm2-4.1a17.68,17.68,0,0,1,2,2.55l-1.1,1.11a16.1,16.1,0,0,0-1.92-2.65Zm3.22.37h9.77V67.9a17.73,17.73,0,0,1-3,1.71l.67.26-.28.28h3V78a1.6,1.6,0,0,1-.45,1.23,1.35,1.35,0,0,1-1,.37H130l-.35-1.47,1,.07c.32,0,.48-.24.48-.64v-1h-2.46v2.83h-1.55V76.62H124.7v3h-1.62V70.15h4.08c-.82-.3-1.79-.63-2.9-1l1-.9c.8.22,1.55.45,2.27.68.65-.23,1.37-.53,2.16-.89h-7.12Zm2.13,6.17h2.37V71.49H124.7Zm0,2.53h2.37V74.11H124.7Zm3.92-3.86v1.33h2.46V71.49Zm0,2.62v1.24h2.46V74.11Z" style="fill:#fff"/><path d="M136,66.72h5.71v3a10.57,10.57,0,0,0,1.94-1.53A6.86,6.86,0,0,0,145,66.07l1.69.21a8.54,8.54,0,0,1-.62,1.29h4.78v1.26A17.69,17.69,0,0,1,148,72.28a22.23,22.23,0,0,0,3.9,1.76l-.7,1.47a27.83,27.83,0,0,1-4.49-2.23,17.6,17.6,0,0,1-4.85,2.23l-.14-.28v1.34H139.8v3c.73-.2,1.44-.42,2.12-.65v1.48a56.7,56.7,0,0,1-6.55,1.91L135,80.79l.92-.22v-6.9h1.33v6.61c.39-.09.76-.17,1.11-.27V72.49H136Zm4.24,4.36v-3h-2.76v3ZM141.55,75l-.47-.91a17.77,17.77,0,0,0,4.34-1.76,15.7,15.7,0,0,1-1.74-1.94,12.88,12.88,0,0,1-1.35,1l-.62-.86v2.06H139.8V75Zm9,.63v7h-1.61v-.72h-4.5v.72h-1.62v-7Zm-6.11,4.64h4.5v-3h-4.5Zm.3-10.86a12.66,12.66,0,0,0,1.93,2,15.5,15.5,0,0,0,2.13-2.28H145Z" style="fill:#fff"/><path d="M154,66.92h4.64V66h1.55v.9h2.48V66h1.54v1h4.34v3.32h-4.34V71h5.21c0,1.77-.28,2.78-.73,3a2.06,2.06,0,0,1-1,.27v5.9H164.6a48.31,48.31,0,0,1,5,.9L169,82.6a37.52,37.52,0,0,0-5.54-1.2l.58-1.18h-5.27l.73,1a16.07,16.07,0,0,1-2.39.81q-1.22.31-3.09.6l-.77-1.41c1.2-.13,2.26-.29,3.16-.48a13.81,13.81,0,0,0,1.86-.49h-3V74.39a14.54,14.54,0,0,1-1.54.26L153,73.1a8.14,8.14,0,0,0,3.71-.91h-3.07l.61-3.15h4.22a8.44,8.44,0,0,0,.1-.91H154ZM157.88,71a6,6,0,0,0,.34-.77h-2.55l-.18.77Zm-1,4.2h9.19v-.84H156.9Zm0,1.92h9.19v-.92H156.9ZM166.09,79V78.1H156.9V79Zm-8-5.84h4.61v-1H159l-.12.18A3.7,3.7,0,0,1,158.06,73.17ZM162.67,71v-.77h-2.83c-.07.28-.15.54-.23.77Zm-2.52-2.88c0,.32-.05.62-.09.91h2.61v-.91Zm4.06,0V69H167v-.91Zm0,5H166l-.05-.28a5.14,5.14,0,0,0,1.11.14,1.36,1.36,0,0,0,.51-.08c.1,0,.17-.3.19-.76h-3.57Z" style="fill:#fff"/><path d="M173.69,66.72H187v13.7a2.1,2.1,0,0,1-.41,1.38,1.41,1.41,0,0,1-1.26.53H183l-.44-1.7,2.25.08c.34,0,.51-.18.51-.56V77h-4.57v5h-1.62V77h-4.68c-.06.61-.14,1.22-.26,1.84a14.1,14.1,0,0,1-1.46,3.71l-1.49-1.28a8.76,8.76,0,0,0,1.33-3,16.93,16.93,0,0,0,.28-3V66.72Zm.84,4.36h4.59V68.29h-4.59Zm0,4.43h4.59v-3h-4.59Zm6.21-7.22v2.79h4.57V68.29Zm0,4.27v3h4.57v-3Z" style="fill:#fff"/><path d="M199.9,75.81l-1.22,1A15.88,15.88,0,0,0,197,74.72,15.15,15.15,0,0,0,195,72.89L196.1,72a18.36,18.36,0,0,1,2.13,1.79A13.73,13.73,0,0,1,199.9,75.81Z" style="fill:#fff"/><path d="M210.2,66l1.47.49a27.13,27.13,0,0,1-2.16,4.55c.49,0,1-.1,1.46-.15.42-.85.84-1.75,1.27-2.71l1.4.47a38.38,38.38,0,0,1-3.95,6.89,13.06,13.06,0,0,0,2.53-.38c-.18-.64-.36-1.25-.55-1.85l1.2-.37a32.41,32.41,0,0,1,1.11,3.8l-1.34.37c0-.26-.09-.49-.14-.7a35.77,35.77,0,0,1-4.83.7l-.44-1.48c.32,0,.63,0,.91,0a23.39,23.39,0,0,0,2.11-3.32c-.9.14-1.89.27-2.95.39L207,71.22l1,0A30.49,30.49,0,0,0,210.2,66Zm-2.39,11.81,1.33.14a30.37,30.37,0,0,1-.56,4.63l-1.48-.43A25.21,25.21,0,0,0,207.81,77.83Zm3.16,0a28.76,28.76,0,0,1,.42,4.06L210,82a37.54,37.54,0,0,0-.23-4.06Zm2-.44c.23.86.44,1.81.63,2.87a27.5,27.5,0,0,0,.92-3.36l1.4.37a31.82,31.82,0,0,1-1.26,4.43l-1.41-.51a.64.64,0,0,0,.07-.16l-.91.23c-.18-1.21-.4-2.37-.65-3.5ZM217.77,66l1.76.19a4.47,4.47,0,0,1-.79,1.22h4.31v8.08h-4.54a16.29,16.29,0,0,1,2,2.09l-1.07,1.08a13,13,0,0,0-2.18-2.47l.76-.7h-4.12V67.43H217A4.66,4.66,0,0,0,217.77,66Zm3.73,8.16V68.76h-6v5.42h2l-.35-.58a12.1,12.1,0,0,0,1.39-1.38,5.87,5.87,0,0,0-.63-.43,12,12,0,0,1-1.67,1.68l-.64-1.14a9.77,9.77,0,0,0,1.34-1.23c-.42-.29-.87-.58-1.34-.86l.85-.78,1.17.71a8.2,8.2,0,0,0,.53-1.07h1.11a9.22,9.22,0,0,1-.7,1.7c.24.16.47.32.68.48a8.07,8.07,0,0,0,.79-1.67h1.22a11.78,11.78,0,0,1-1,2.37v0l1.16.95-.92.92c-.28-.27-.59-.55-.93-.85a9.68,9.68,0,0,1-1,1.15ZM216.17,77h1.55v3.36c0,.34.19.51.56.51h1.11a.79.79,0,0,0,.58-.18,3.16,3.16,0,0,0,.26-1.53l1.48.42c-.13,1.33-.35,2.1-.65,2.32a2.1,2.1,0,0,1-1.44.37h-1.9a1.57,1.57,0,0,1-1.14-.4,1.46,1.46,0,0,1-.41-1.07Zm6-.56a29.33,29.33,0,0,1,1.74,4.2l-1.34.56a30.42,30.42,0,0,0-1.75-4.36Z" style="fill:#fff"/><path d="M232.85,66l-6.8,16.58h-1.4L231.45,66Z" style="fill:#fff"/><path d="M238.73,66.35l1.54,1A21.42,21.42,0,0,1,238,71.2a12.39,12.39,0,0,1-1.21,1.43h10.65c-.28-.34-.54-.69-.79-1a15.62,15.62,0,0,1-1.95-3.53h-3.46V66.42H246a14.48,14.48,0,0,0,4.57,6.47l-1.11,1.62q-.66-.54-1.23-1.11c-.13,4.4-.38,7-.77,7.77s-1.31,1.23-2.71,1.23c-1.16,0-2,0-2.48-.07l-.47-1.91a20.69,20.69,0,0,0,2.95.21c.61,0,1-.35,1.11-1.06a29.83,29.83,0,0,0,.28-5.32h-4.16A14,14,0,0,1,240.06,79a12.91,12.91,0,0,1-4.29,3.63l-1.14-1.48a12.68,12.68,0,0,0,3.87-3,10.54,10.54,0,0,0,1.74-3.92h-3.76V73a21.12,21.12,0,0,1-1.71,1.53l-1-1.69A10.75,10.75,0,0,0,236.63,70,20.56,20.56,0,0,0,238.73,66.35Z" style="fill:#fff"/><path d="M260.59,66a17.39,17.39,0,0,1,1,1.74h6.65v1.62H255.09v4.5a22.18,22.18,0,0,1-.37,4,17,17,0,0,1-1.58,4.2l-1.48-1.24a10.88,10.88,0,0,0,1.44-3.47,21.54,21.54,0,0,0,.3-3.44V67.76h6.38a12.62,12.62,0,0,0-1.1-1.48Zm-.44,3.8h1.78v1.74h5.68v1.61h-5.68v2.34h4.85v7h-1.69v-1h-7.26v1h-1.67v-7h4Zm-2.32,10.1h7.26V77.08h-7.26Z" style="fill:#fff"/><path d="M270.77,69h1.62V66.21H274V69h2.39v5.4h1V66.65h8.3v1.48h-6.61v1h6.13v1.4h-6.13v1.22h6.13V73.1h-6.13v1.34h7.12v1.41h-4.47a7.29,7.29,0,0,0,1.06,2.28,7.27,7.27,0,0,0,2-1.77l1.2,1.17a8.36,8.36,0,0,1-2.2,1.74,10.1,10.1,0,0,0,2.74,1.8l-.91,1.53a11.42,11.42,0,0,1-3.8-3.12,8.87,8.87,0,0,1-1.67-3.63h-1.21V80c.79-.21,1.57-.45,2.32-.72v1.55c-1.48.53-3.21,1.07-5.21,1.61l-.4-1.76,1.62-.29V75.85h-.92v1.68a1.81,1.81,0,0,1-.35,1.13,1.07,1.07,0,0,1-.93.42h-.83L274,78v4.53h-1.56v-12h-.92v8.81h-1.4V69ZM274,70.57v6.91l.62,0c.24,0,.37-.16.37-.47V70.57Z" style="fill:#fff"/><path d="M287.73,74.65h9v1.48H293.2v4.58a1.75,1.75,0,0,1-.39,1.29,1.77,1.77,0,0,1-1.35.4h-1.21l-.34-1.69a5.5,5.5,0,0,0,1.11.15c.42,0,.63-.15.63-.44V76.13h-3.92Zm1.6,2.11,1.48.3a17.14,17.14,0,0,1-1.74,4.57l-1.34-.84A12.64,12.64,0,0,0,289.33,76.76Zm-1.4-9.4h3.6V66h1.6v1.34h3.32v1.4h-3.32v1.18h2.69v1.35h-7.26V69.94h3V68.76h-3.6Zm.44,4.9h7.38V73.6h-7.38Zm6.89,4.5a21,21,0,0,1,1,2.76l-1.31.56a18.18,18.18,0,0,0-1.08-2.88Zm3.51-5.84h1.69V72.4a11.4,11.4,0,0,0,1,4.47,12.34,12.34,0,0,0,2.94,4.25l-1.18,1.35A12.78,12.78,0,0,1,301,79.66a11.18,11.18,0,0,1-1.26-3.53,16.15,16.15,0,0,1-1.15,3.39,10.82,10.82,0,0,1-2.25,3L295,81.19a9.88,9.88,0,0,0,3-3.94,13.75,13.75,0,0,0,.82-4.85Zm.09-1a10.69,10.69,0,0,1-1.56,3.53l-1.41-1A13.22,13.22,0,0,0,298,66.07l1.55.21c-.11.76-.23,1.47-.36,2.11h4.86a22.53,22.53,0,0,1-.53,4,11.32,11.32,0,0,1-1,2.86l-1.14-1a15.22,15.22,0,0,0,1-4.38Z" style="fill:#fff"/><path d="M316.46,75.81l-1.22,1a15.88,15.88,0,0,0-1.65-2.09,15.15,15.15,0,0,0-2.07-1.83l1.14-.93a18.36,18.36,0,0,1,2.13,1.79A13.73,13.73,0,0,1,316.46,75.81Z" style="fill:#fff"/><path d="M32.94,91h1.62v2.81h1.61V91h1.6v2.81H39a14.83,14.83,0,0,0,1.19-2.48l1.71.64a12.7,12.7,0,0,1-1,1.84h2.66v1.48h-5l1.27.4A10.57,10.57,0,0,1,39,96.86h3.9v1.4H36.23v1h6.32v1.33H36.23v1h7.33V103H37.74a8.88,8.88,0,0,0,2.18,1.51,17.43,17.43,0,0,0,3.57,1.15l-.94,1.47a15.82,15.82,0,0,1-4-1.63,10.76,10.76,0,0,1-2.33-2.2v4.13H34.56v-4.16a8,8,0,0,1-1.6,1.54,19.36,19.36,0,0,1-4.59,2.32l-.86-1.39a20.52,20.52,0,0,0,4.36-1.79,5.68,5.68,0,0,0,1.24-1H27.37v-1.4h7.19v-1H28.37V99.25h6.19v-1H28v-1.4h4a13,13,0,0,0-.67-1.15l1.16-.4H27.37V93.83H30c-.22-.58-.5-1.22-.83-1.91l1.62-.57a16.57,16.57,0,0,1,.91,2.48h1.27Zm.74,5.84h3.46a9.26,9.26,0,0,0,.91-1.55H33A12,12,0,0,1,33.68,96.86Z" style="fill:#fff"/><path d="M45.58,91.79h6.84v1.34a17.22,17.22,0,0,1-2.48,3.16c.18.2.35.39.49.57H52.7v1.42a22.09,22.09,0,0,1-1.29,3.57l-1.1-1a16,16,0,0,0,.87-2.44h-1v7a1.66,1.66,0,0,1-.43,1.3,1.78,1.78,0,0,1-1.35.39H47l-.33-1.69a7.42,7.42,0,0,0,1.34.14c.42,0,.63-.13.63-.4v-6a22.18,22.18,0,0,1-.9,2.88,15.59,15.59,0,0,1-1.65,3.27l-1.18-1a19.42,19.42,0,0,0,1.62-3.12,19.62,19.62,0,0,0,.77-2.72H45.17V96.86h3.26c-.58-.71-1.24-1.46-2-2.25l1.11-.71,1.38,1.34a17.08,17.08,0,0,0,1.66-2h-5Zm6.91,9.13h3.39a15.69,15.69,0,0,0,.17-1.6l1.64.12a12.68,12.68,0,0,1-.19,1.48h3.55a34.76,34.76,0,0,1-.39,5,1.67,1.67,0,0,1-.77,1.13,7.07,7.07,0,0,1-2.9.31l-.37-1.61c.56,0,1,.07,1.21.07a1.7,1.7,0,0,0,1.11-.23,8.39,8.39,0,0,0,.44-3.31h-2.2a8.73,8.73,0,0,1-1,2.34,7.38,7.38,0,0,1-4,2.81l-.64-1.54a6.4,6.4,0,0,0,3.45-2.29,4.51,4.51,0,0,0,.63-1.32H52.49ZM54.88,91l1.54.26c-.23.51-.46,1-.68,1.41h5.75V94H60.41a7.41,7.41,0,0,1-1.82,3.06.22.22,0,0,1-.07.07,14.16,14.16,0,0,0,3.37,1.5l-1,1.47a15.26,15.26,0,0,1-3.72-1.86,27.08,27.08,0,0,1-3.73,2l-.77-1.54A17.12,17.12,0,0,0,56,97.22,11.87,11.87,0,0,1,54.3,95,11.89,11.89,0,0,1,53,96.63l-1.11-1.32A13.47,13.47,0,0,0,54.88,91Zm.68,3a9.06,9.06,0,0,0,1.76,2.2A6.43,6.43,0,0,0,58.81,94Z" style="fill:#fff"/><path d="M68.64,104.64l1.07,1.22A33,33,0,0,1,64,107.54l-.78-1.61A26,26,0,0,0,68.64,104.64Zm-3.92-8.29H78.27v8.17H64.72Zm.49-4.7H77.94v3.87H65.21Zm1.18,7H76.6v-1H66.39Zm0,2.32H76.6V99.88H66.39Zm10.21,2.25v-1H66.39v1Zm-.38-9.07V93H66.9v1.18Zm-2.38,10.54a57.79,57.79,0,0,1,5.91,1.36l-1,1.47A40,40,0,0,0,73,106Z" style="fill:#fff"/><path d="M81.23,95H85.8v1.21a25.32,25.32,0,0,1-2.2,3.43h2.2v1.07a17.75,17.75,0,0,1-.79,2.66,6.61,6.61,0,0,0,1.7,1.58,5.29,5.29,0,0,0,1.71.51,45.3,45.3,0,0,0,5.09.24c1.87,0,3.26,0,4.19-.15l-.21,1.7q-7.39,0-9-.21a7.35,7.35,0,0,1-2.34-.67,5.19,5.19,0,0,1-1.81-1.6,17.39,17.39,0,0,1-1.93,2.69l-1.2-1.28a11.21,11.21,0,0,0,2-2.46,9.72,9.72,0,0,0,1-2.6H81.74V99.81A22,22,0,0,0,84,96.42H81.23ZM83.69,91A16.11,16.11,0,0,1,85.8,93.2l-1.27,1.26a13.12,13.12,0,0,0-2-2.4Zm5.13.12,1.55.58a42.11,42.11,0,0,1-2.39,6,58.45,58.45,0,0,1,2.32,6.31l-1.6.7q-1-3.28-2.46-7.08A60.93,60.93,0,0,0,88.82,91.07Zm3.46.14,1.55.58a42.67,42.67,0,0,1-2.39,5.84,55.9,55.9,0,0,1,2.32,6.05l-1.62.7c-.69-2.13-1.52-4.41-2.48-6.82A55.15,55.15,0,0,0,92.28,91.21Zm3.43.07,1.55.57a37.37,37.37,0,0,1-2.53,5.78,55.29,55.29,0,0,1,2.76,6.12l-1.62.7c-.8-2.15-1.76-4.44-2.88-6.89A51.53,51.53,0,0,0,95.71,91.28Z" style="fill:#fff"/><path d="M102,91c.34.74.67,1.58,1,2.51h1.58V95a20.31,20.31,0,0,1-1.81,3.5v.24l.33.28c.14-.16.28-.34.41-.52a11.77,11.77,0,0,0,.58-1.25l1.26.77a7.31,7.31,0,0,1-.77,1.48,3.38,3.38,0,0,1-.35.47c.35.33.68.66,1,1l-.91,1.41a19.5,19.5,0,0,0-1.55-1.72v6.87h-1.62v-7q-.7.8-1.56,1.62l-.48-1.69a13.29,13.29,0,0,0,2.09-2.29,11.18,11.18,0,0,0,1.74-3.14H99.44V93.53h2c-.32-.82-.68-1.59-1-2.32Zm3.28,1.81h4.17V91h1.62v1.81h2.39c-.27-.35-.6-.74-1-1.18l1-.63a16.16,16.16,0,0,1,1.4,1.27l-.79.54h1.69v1.41h-4.69v1.47h4v9.92a1.79,1.79,0,0,1-.43,1.3,1.33,1.33,0,0,1-1.05.4h-1.48l-.33-1.54,1.25.07c.33,0,.49-.24.49-.64v-1.68h-2.44v3.79h-1.62v-3.79H107v4h-1.55V95.71h4V94.24h-4.17Zm1.76,6h2.41V97.07H107Zm0,3.32h2.41v-1.92H107Zm4-5.06v1.74h2.44V97.07Zm0,3.14v1.92h2.44v-1.92Z" style="fill:#fff"/><path d="M121.8,90.81l1.42.84a12.52,12.52,0,0,1-1.92,1.85v3.13h-1.68v-2c-.5.28-1,.56-1.62.83L117.17,94a10.4,10.4,0,0,0,2.66-1.39A10,10,0,0,0,121.8,90.81Zm1.28,14.11.84,1.15a17.2,17.2,0,0,1-2.56.82c-.87.23-2,.44-3.29.65l-.84-1.47c1.31-.14,2.45-.31,3.42-.5A15.49,15.49,0,0,0,123.08,104.92Zm-3.6-7.85h11.83v7.64H119.48ZM121,99.32h8.74V98.4H121Zm0,2h8.74v-.94H121Zm8.74,2v-.92H121v.92Zm2.18-12.1.84,1.22a50.43,50.43,0,0,1-6.89,1.6v.44c0,.31.21.47.62.47H131a1.34,1.34,0,0,0,.7-.14c.19-.09.31-.56.37-1.41l1.62.51q-.25,1.8-.78,2.13a3.21,3.21,0,0,1-1.68.32h-5.35a2,2,0,0,1-1.24-.37,1.46,1.46,0,0,1-.48-1.11v-3.8h1.72v1.5A46.1,46.1,0,0,0,131.94,91.28Zm-4.5,13.57a57.19,57.19,0,0,1,6.19,1.22L133,107.6a40.46,40.46,0,0,0-6.24-1.41Z" style="fill:#fff"/><path d="M145.9,100.81l-1.22,1A15.88,15.88,0,0,0,143,99.72,15.15,15.15,0,0,0,141,97.89L142.1,97a18.36,18.36,0,0,1,2.13,1.79A13.73,13.73,0,0,1,145.9,100.81Z" style="fill:#fff"/><path d="M154.28,91.51h14.27v1.32h-6.32v.77h7.26v4h-1.73V94.94h-5.53V98.6h-1.67V94.94h-5.51V97.7h-1.68V93.6h7.19v-.77h-6.28Zm.23,7.53h13.83v5.43l1.48.45c-.19,1.26-.5,2-.93,2.2a4.33,4.33,0,0,1-2.09.35H162a1.77,1.77,0,0,1-1.19-.38,1.33,1.33,0,0,1-.42-1v-1.22h-5.91Zm1.18-3.4h4.23v1.07h-4.23Zm0,1.62h4.23v1.07h-4.23Zm.44,4.1h4.29v-1.08h-4.29Zm4.29,2.25v-1.15h-4.29v1.15Zm1.61-3.33v1.08h4.7v-1.08Zm4.7,3.33v-1.15H162v1.15Zm-4.7,1.24v.78c0,.32.21.49.64.49h3.93a3.19,3.19,0,0,0,1.11-.14c.25-.1.42-.47.51-1.13Zm.85-9.28h4.36v1.06h-4.36Zm0,1.69h4.36v1.07h-4.36Z" style="fill:#fff"/><path d="M173.21,91.85h12.57v1.47a30.66,30.66,0,0,1-5.11,4v1.23h6.82v1.67h-6.82v5.58a1.71,1.71,0,0,1-.37,1.17,1.69,1.69,0,0,1-1.27.51h-3.36l-.14-1.84c1.13.1,2,.16,2.73.16.33,0,.49-.19.49-.57v-5h-7.31V98.54h7.31V96.35a32.33,32.33,0,0,0,4.64-2.89H173.21Z" style="fill:#fff"/><path d="M190.84,91.58h6.75A8.46,8.46,0,0,0,199.16,93a6.26,6.26,0,0,0,1-.72,7.4,7.4,0,0,0,1-1.23l1.33.77a8.72,8.72,0,0,1-1.19,1.51,7.36,7.36,0,0,1-.64.57c.33.17.68.35,1.06.52a6.16,6.16,0,0,0,1-.8,6.71,6.71,0,0,0,1.09-1.38l1.34.78a8.78,8.78,0,0,1-1.29,1.65,6,6,0,0,1-.51.48c.81.32,1.69.65,2.64,1l-1,1.41q-1.11-.4-2-.78v1.83a.5.5,0,0,0,.56.57h1.62v1.4h-2a1.81,1.81,0,0,1-1.32-.4,1.58,1.58,0,0,1-.46-1.3V98h-1.67a3.67,3.67,0,0,1-.33,1.48,4.34,4.34,0,0,1-1.66,1.41l-1.17-1A5.68,5.68,0,0,0,198,98.7a5.93,5.93,0,0,0,.21-2.07h4.57a20.76,20.76,0,0,1-2.53-1.22,13.4,13.4,0,0,1-2.88-2,6.27,6.27,0,0,1-1.76,1.83,12.6,12.6,0,0,1-2.76,1.41h3.38v4.09h-3.45l-.19,1.41h3.78a13.5,13.5,0,0,1-.49,4.22,2.09,2.09,0,0,1-2.13,1.05h-2.8l-.26-1.69c1.39.1,2.44.15,3.13.15a.75.75,0,0,0,.7-.43,6.79,6.79,0,0,0,.23-2h-4l.49-4.09h3.29V98h-3.29v-.74c-.44.17-.91.33-1.4.48L189,96.08c1-.22,1.95-.46,2.73-.7a18.15,18.15,0,0,0-1.32-1.28l1.18-.78c.73.54,1.35,1,1.84,1.43l.32-.16a5.46,5.46,0,0,0,2.06-1.53h-4.93Zm6.63,9.41h6.4v1.21a10,10,0,0,1-2.13,2.83,21.79,21.79,0,0,0,4,1l-1,1.4a18.81,18.81,0,0,1-4.27-1.39,10.45,10.45,0,0,1-3.18,1.46l-.7-1.42a8.65,8.65,0,0,0,2.44-.88,10,10,0,0,1-2-1.78l1.34-.79a7.47,7.47,0,0,0,1.93,1.64,9.23,9.23,0,0,0,1.53-1.92h-4.36Z" style="fill:#fff"/><path d="M211.46,103.17l1,1.28a10.38,10.38,0,0,1-1.9,1.53,13.74,13.74,0,0,1-2.41,1.12l-.91-1.61a11.55,11.55,0,0,0,2.47-1A8.06,8.06,0,0,0,211.46,103.17Zm-4-1.81h16.11v1.47h-7.12v3a1.45,1.45,0,0,1-.44,1.21,2.16,2.16,0,0,1-1.5.4h-2l-.34-1.61A15.43,15.43,0,0,0,214,106c.48,0,.72-.15.72-.44v-2.73h-7.26Zm.22-10h15.59v1.57h-4.84V94h4.29V98H208.28V94h4.22V92.92h-4.83Zm.61,7.61h14.36v1.39H208.28Zm4.22-2.25v-1.4h-2.58v1.4ZM216.81,94V92.92h-2.69V94Zm0,2.67v-1.4h-2.69v1.4Zm2.18,6.67a28.21,28.21,0,0,1,4.71,2.11l-1,1.54a21.38,21.38,0,0,0-4.57-2.32Zm2.09-6.67v-1.4h-2.66v1.4Z" style="fill:#fff"/><path d="M66.69,29.21H70.8a22.94,22.94,0,0,1-1,3.42h1.43a15.39,15.39,0,0,1-1.12,4.17l0,0a4,4,0,0,0,1.08.63,17.73,17.73,0,0,0,4.7.44c.65,0,2.54-.09,5.66-.25l-.3,1.92-2.92.08c-4,0-6.57-.21-7.62-.61a5.11,5.11,0,0,1-1.33-.85,11.77,11.77,0,0,1-1.38,1.75l-1.43-1.67a7.49,7.49,0,0,0,1.62-2,7,7,0,0,0,.75-2H67.19a24.42,24.42,0,0,0,1.28-3.45H66.69Zm2-3.89a16.78,16.78,0,0,1,2.36,2.25l-1.62,1.25a13.1,13.1,0,0,0-2.24-2.49Zm2.44.69h3.92v-.8h1.88V26h4.2v1.64h-4.2v.75h3.64v5.67H76.93v.81h4.33v1.58H76.93v1H75.05v-1H70.93V34.88h4.12v-.81h-3.5V28.4h3.5v-.75H71.13Zm2.19,4.62h1.73v-.86H73.32Zm1.73,2.06v-.86H73.32v.86Zm1.88-2.92v.86H78.8v-.86Zm1.87,2.92v-.86H76.93v.86Z" style="fill:#fee14f"/><path d="M86.07,25.32h.73a18.69,18.69,0,0,1,2.52,2.33l-1.14,1.5h.19v1.54h-1.5v1h1.87v1.61H86.87v3.8c.66-.16,1.31-.32,1.93-.49v1.7a50.25,50.25,0,0,1-5.61,1.24l-.32-1.8c.76-.08,1.51-.19,2.26-.33V33.32H83V31.71h2.14v-1H83.62V30a7.24,7.24,0,0,1-.69.67l-.42-2.17A12.25,12.25,0,0,0,85,25.32Zm-1.56,8.51A25.91,25.91,0,0,1,85,36.88l-1.61.2a28.46,28.46,0,0,0-.25-3.14Zm-.07-4.68h3.41a19,19,0,0,0-1.78-2.27A15.59,15.59,0,0,1,84.44,29.15Zm3.11,4.42,1.38.2a11.56,11.56,0,0,1-.56,2.81l-1.44-.45A7.72,7.72,0,0,0,87.55,33.57ZM92,25.21h1.87V29h2.86v8.12H95.15a16.34,16.34,0,0,1,2.34,1.61L95.94,39.9a13,13,0,0,0-2.62-2l1.2-.82H91.43l1.2.75a12.16,12.16,0,0,1-2.75,2.24l-1.51-1.31a12.93,12.93,0,0,0,2.53-1.68H89.26V29H92Zm-1.57.36a13.66,13.66,0,0,1,1.44,2.37l-1.76.88a15.58,15.58,0,0,0-1.25-2.75Zm.69,5.75h3.74v-.74H91.13Zm0,2h3.74v-.74H91.13Zm3.74,2.12v-.86H91.13v.86Zm.68-9.87,1.5.56a8,8,0,0,1-1.5,2.69L94,27.71A7.18,7.18,0,0,0,95.55,25.57Z" style="fill:#fee14f"/><path d="M100,31.71h12.11v4.36H107v.56h5.58v1.08H107v.56h6.44v1.44H98.63V38.27h6.24v-.56H99.49V36.63h5.38v-.56H100ZM98.87,30h14.26v1.2H98.87Zm.95-4.57h12.42v4.07H99.82ZM102.07,27H110v-.5h-7.94ZM110,28.46V27.9h-7.94v.56Zm-7.94,5h2.86v-.62h-2.86ZM104.93,35v-.63h-2.86V35Zm2-2.14v.62h3.14v-.62ZM110.07,35v-.63h-3.14V35Z" style="fill:#fee14f"/><path d="M116.12,35.9l1.7.37a13.73,13.73,0,0,1-1.31,3.5l-1.94-1A9.22,9.22,0,0,0,116.12,35.9Zm-.8-9.89h5.55v9.7h-5.55Zm1.87,2.68H119v-1h-1.8Zm0,2.69H119V30.27h-1.8Zm1.8,2.69V33h-1.8v1.11Zm1,1.83a19.78,19.78,0,0,1,1.37,3l-1.83.89a19.55,19.55,0,0,0-1.18-3.31Zm8.29-10.58,1.13,1.76a37,37,0,0,1-5.81.77v1.8h5.43v1.56a11.18,11.18,0,0,1-1.59,5.14,0,0,0,0,1,0,0,11.61,11.61,0,0,0,2.18,1.7l-1.38,1.76a17.41,17.41,0,0,1-2.14-1.95,16.91,16.91,0,0,1-2.61,1.83l-1-1.3a2.2,2.2,0,0,1-.19.47l-1.56-1.8a15.74,15.74,0,0,0,1.08-6.26V26.19A35.33,35.33,0,0,0,128.3,25.32Zm-5.59,12.45a9.11,9.11,0,0,0,2.22-1.4l-.11-.19a11.36,11.36,0,0,1-1.22-4A20.4,20.4,0,0,1,122.71,37.77Zm2.53-6.39a10.68,10.68,0,0,0,.94,3.36,8.72,8.72,0,0,0,.83-3.36Z" style="fill:#fee14f"/><g id="e3fdd00e-ac7a-4903-85d4-e313fa901409" data-name="19"><path d="M17.9,30.44l11.64,6.67A1,1,0,0,0,31,36.73L36.64,27a1,1,0,0,0-.38-1.4L24.62,18.89a1,1,0,0,0-1.41.38L17.52,29A1,1,0,0,0,17.9,30.44Zm9.89-2.63,2.35-1,.33,2.56-.89-.51L28,31.5l-.9-.51,1.55-2.66Zm-3.58-2,2.34-1,.34,2.56L26,26.79l-1.55,2.66-.9-.51,1.55-2.66Zm-2.07,3.56,6.27,3.59-.52.88L21.62,30.2ZM47.94,24l-2.7-1.53-1.11,1.92a2.74,2.74,0,0,1,1,.36s.91.56,1.79,1C48.07,26.37,49.19,24.64,47.94,24ZM41,23.56l-.73,1.24-7.59,13a4.77,4.77,0,0,1,1,.43,4.65,4.65,0,0,1,.85.6l7.8-13.41,2-3.38A3.11,3.11,0,0,0,41,23.56ZM16.86,32.23a1,1,0,1,0-1,1.78l10.74,6.15A5.19,5.19,0,0,1,28,38.6C25.24,37,17.56,32.66,16.86,32.23ZM32.61,40a3.13,3.13,0,0,0-4.24,1.13,3.05,3.05,0,0,0,1.14,4.2,3.11,3.11,0,0,0,4.23-1.12A3.07,3.07,0,0,0,32.61,40ZM32,43.23a1,1,0,0,1-1.41.37,1,1,0,0,1-.38-1.4,1,1,0,0,1,1.41-.38A1,1,0,0,1,32,43.23Z" style="fill:#fff;fill-rule:evenodd"/></g></g></g></svg>