<svg xmlns="http://www.w3.org/2000/svg" viewBox="0 0 340.52 122.91"><title>section2-list3-s</title><g id="afacb4a3-ac76-4d2c-9b7a-1282107fcf20" data-name="圖層 2"><g id="a3f71ce5-e67f-4fde-bbbd-f3ef2900ef43" data-name="圖層 1"><rect x="0.61" y="33.47" width="339.92" height="89.43" rx="3.84" style="fill:#ef3e6c"/><path d="M61.35,10.5H170.12l20.29,23.25-17.9,20.51H61.35C45.74,54.26,33,44.41,33,32.38h0c0-12,12.77-21.88,28.39-21.88Z" style="fill:#aa1c37;fill-rule:evenodd"/><path d="M61.35,10.5H167.07l19.09,21.87-19.1,21.88H61.35C45.73,54.25,33,44.41,33,32.38h0c0-12,12.77-21.88,28.39-21.88Z" style="fill:#f386a5;fill-rule:evenodd"/><path d="M29.86,10.5h127.5l19.09,21.87L157.36,54.25H29.86c-15.62,0-28.39-9.84-28.39-21.87h0c0-12,12.77-21.88,28.39-21.88Z" style="fill:#aa1c37;fill-rule:evenodd"/><path d="M30.59,0A30.59,30.59,0,1,1,0,30.59,30.64,30.64,0,0,1,30.59,0Z" style="fill:#f386a5;fill-rule:evenodd"/><path d="M30.59,6.24A24.35,24.35,0,1,1,6.25,30.59,24.4,24.4,0,0,1,30.59,6.24Z" style="fill:#aa1c37;fill-rule:evenodd"/><path d="M46.45,12.15A24.32,24.32,0,0,1,16.66,50.53,24.32,24.32,0,0,1,46.45,12.15Z" style="fill:#aa1c37;fill-rule:evenodd"/><path d="M29.33,66.56l1.48.48a30,30,0,0,1-1.88,4.55c.51-.07,1-.14,1.49-.23.39-.81.78-1.68,1.16-2.62l1.48.55a38.2,38.2,0,0,1-3.74,6.87,14.18,14.18,0,0,0,2-.33q-.15-.84-.3-1.62l1.25-.42a36.89,36.89,0,0,1,.77,3.66l-1.39.36a6.45,6.45,0,0,0-.12-.66,30.16,30.16,0,0,1-4.54.66l-.4-1.54,1,0A24.9,24.9,0,0,0,29.7,72.8c-.88.18-1.84.35-2.9.51l-.33-1.47.88-.07A33.28,33.28,0,0,0,29.33,66.56ZM27.17,78.45l1.32.14A32.06,32.06,0,0,1,28,83l-1.48-.44A28.6,28.6,0,0,0,27.17,78.45Zm3.1-.07a22.43,22.43,0,0,1,.47,3.93l-1.41.13a28.91,28.91,0,0,0-.28-3.92Zm1.81-.3c.39,1.26.7,2.42.91,3.46L31.67,82c-.2-1.23-.43-2.45-.7-3.64ZM42.69,67.34v13.9a2,2,0,0,1-.42,1.36,1.33,1.33,0,0,1-1.05.42h-2.1l-.36-1.62,1.91.07c.32,0,.48-.27.48-.7v-4.1h-3.8v1.92a.5.5,0,0,0,.58.56h2.51v1.32H37.56a2.07,2.07,0,0,1-1.23-.32,1.22,1.22,0,0,1-.46-1.07V76.67h-1.1V83H33.22V67.34Zm-7.92,4.5h1.31a15.14,15.14,0,0,0-.91-2.32l1.48-.23a26.09,26.09,0,0,1,.86,2.55h.89A12.21,12.21,0,0,0,39,69.29l1.47.23a12.52,12.52,0,0,1-.65,2.32h1.29V68.67H34.77Zm0,3.51h2.67a10.78,10.78,0,0,0-.93-1.63l1.54-.21a10.85,10.85,0,0,1,.88,1.84h2.22V73.24H34.77Z" style="fill:#fff"/><path d="M45.51,67.34h5.71v3a10.49,10.49,0,0,0,1.93-1.53,7.05,7.05,0,0,0,1.36-2.11l1.68.21a8.39,8.39,0,0,1-.61,1.28h4.78v1.27a17.32,17.32,0,0,1-2.87,3.44,21.28,21.28,0,0,0,3.91,1.76l-.71,1.48a27.59,27.59,0,0,1-4.48-2.24,17.88,17.88,0,0,1-4.85,2.24l-.14-.28v1.33H49.3v3q1.11-.3,2.13-.66V81A58.87,58.87,0,0,1,44.87,83l-.4-1.55.91-.21V74.28h1.34v6.61l1.11-.26V73.1H45.51Zm4.23,4.36v-3H47v3Zm1.32,3.86-.47-.91a17.54,17.54,0,0,0,4.34-1.76A14.11,14.11,0,0,1,53.19,71a13.51,13.51,0,0,1-1.36,1l-.61-.86v2H49.3v2.46Zm9,.64v7H58.44v-.72h-4.5v.72H52.33v-7Zm-6.12,4.64h4.5v-3h-4.5ZM54.24,70a12.79,12.79,0,0,0,1.94,2,16.17,16.17,0,0,0,2.12-2.29H54.49Z" style="fill:#fff"/><path d="M63.51,67.46H78.43v1.48h-6.7v6.41h7.33v1.57H71.73v6.26H70.06V76.92H62.87V75.35h7.19V68.94H63.51ZM66,69.85c.61,1.22,1.2,2.56,1.77,4l-1.62.77a33.8,33.8,0,0,0-1.7-4.1Zm9.86,0,1.54.7a20.85,20.85,0,0,1-2,4.1l-1.55-.77A25.9,25.9,0,0,0,75.9,69.85Z" style="fill:#fff"/><path d="M86.59,66.56l1.67.64a28,28,0,0,1-3.56,5.38l.88,0A50.68,50.68,0,0,0,93.65,72a32.76,32.76,0,0,0-2.23-2.74L92.7,68A42.78,42.78,0,0,1,97,73.65L95.66,75c-.3-.51-.61-1-.94-1.52a91.81,91.81,0,0,1-13.07.82l-.34-2c.62.06,1.18.11,1.67.14A32.61,32.61,0,0,0,86.59,66.56Zm9,9v7.65H93.81V82.1H84.27v1.06H82.49v-7.6Zm-11.32,5h9.54V77.13H84.27Z" style="fill:#fff"/><path d="M98.8,69.92h2.13V66.64h1.6v3.28h1.84V71.4h-1.84v3.32c.56-.32,1.12-.67,1.69-1.07v1.77c-.55.37-1.12.7-1.69,1v4.81a1.81,1.81,0,0,1-.41,1.36,1.84,1.84,0,0,1-1.4.42H99.38L99,81.24a6.32,6.32,0,0,0,1.27.16c.43,0,.65-.15.65-.44V77.2a17.38,17.38,0,0,1-2,.74l-.21-1.81a10.58,10.58,0,0,0,2.2-.64V71.4H98.8Zm5.72,5.84h3.37a12.3,12.3,0,0,0,.69-1.67l1.61.12a10.06,10.06,0,0,1-.63,1.55h5.57v1.56H113.5a10,10,0,0,1-2.06,2.85c1.18.52,2.29,1,3.32,1.58l-.91,1.36a30,30,0,0,0-3.78-1.89,17.61,17.61,0,0,1-5.85,2.08l-.64-1.48a17.45,17.45,0,0,0,4.82-1.3c-.9-.34-1.88-.7-2.92-1.07A16.94,16.94,0,0,0,107,77.32h-2.51Zm5.34-9.12c.2.56.4,1.18.6,1.88h4.16v1.4h-1.35a10.73,10.73,0,0,1-.93,2.48h2.79v1.48H104.52V72.4h2.61l-.89-2.48h-1.46v-1.4h4c-.19-.59-.4-1.15-.62-1.69Zm.1,12.91a6.89,6.89,0,0,0,1.73-2.23h-2.94a15.11,15.11,0,0,1-1,1.41Zm-1.14-7.15h1.85a11.36,11.36,0,0,0,1-2.48h-3.7Z" style="fill:#fff"/><path d="M118.35,72.1h13.17v6.35H125.8v.91h7.26v1.48H125.8V83h-1.72V80.84h-7.19V79.36h7.19v-.91h-5.73Zm-.7-4.9h6.48v4.06h-6.48Zm4.94,2.65V68.6h-3.4v1.25ZM120,74.58h4.11V73.51H120ZM124.08,77V76H120V77Zm1.46-9.84h6.68v4.06h-6.68Zm.26,6.31v1.07h4.1V73.51ZM129.9,77V76h-4.1V77Zm.77-7.19V68.6h-3.58v1.25Z" style="fill:#fff"/><path d="M145.4,76.43l-1.21,1a15.88,15.88,0,0,0-1.65-2.09,14.63,14.63,0,0,0-2.08-1.83l1.14-.93a18.36,18.36,0,0,1,2.13,1.79A12.69,12.69,0,0,1,145.4,76.43Z" style="fill:#fff"/><path d="M160.91,66.69h.82a16.29,16.29,0,0,0,3.36,3,21.7,21.7,0,0,0,4.17,2l-1.11,1.74a16.48,16.48,0,0,1-2.34-1.07v1.14h-9.69V72.38q-1.16.7-2.61,1.41l-.9-1.76a20.37,20.37,0,0,0,4.64-2.51,19.26,19.26,0,0,0,2.81-2.83Zm6.1,8.8v7.69h-1.73v-1h-8.47v1h-1.76V75.49Zm-10.2,5.14h8.47V77.06h-8.47Zm.05-8.72h8.23a21,21,0,0,1-4.18-3.68,25,25,0,0,1-3.1,3A9.2,9.2,0,0,1,156.86,71.91Z" style="fill:#fff"/><path d="M174.34,66.56l1.54.48a24.82,24.82,0,0,1-2.37,4.43c.71-.07,1.42-.15,2.13-.25q.57-1,1.14-2.07l1.55.56a34,34,0,0,1-4.43,6.38,21.8,21.8,0,0,0,3-.47c-.17-.67-.37-1.33-.59-2l1.26-.41a31.62,31.62,0,0,1,1.29,4.21l-1.41.36c-.06-.31-.12-.62-.19-.91a40.52,40.52,0,0,1-6,.84l-.44-1.54,1.34,0a24.35,24.35,0,0,0,2.63-3.53l-3.76.52-.33-1.47,1.09-.07A29.32,29.32,0,0,0,174.34,66.56Zm-2.76,11.73,1.4.16a22.19,22.19,0,0,1-.7,4.5l-1.6-.51A17.9,17.9,0,0,0,171.58,78.29Zm3.65,0a19.07,19.07,0,0,1,.51,3.88l-1.55.14a26.36,26.36,0,0,0-.29-3.86Zm2.39-.28a27.87,27.87,0,0,1,.92,3.16l-1.39.51c-.2-1.15-.44-2.28-.71-3.39Zm2.69-11.32,1.67.21a13.2,13.2,0,0,1-.86,2.62h5.43a103.45,103.45,0,0,1-.31,11.12,2.65,2.65,0,0,1-1,1.8,6.5,6.5,0,0,1-3.15.53c-.38,0-.83,0-1.33-.08l-.27-1.7a7.69,7.69,0,0,0,1.6.16c1.43,0,2.23-.38,2.39-1.14q.42-1.41.51-9.13h-4.64a11.74,11.74,0,0,1-1.91,2.38l-1-1.34a11.42,11.42,0,0,0,1.79-2.48A12.25,12.25,0,0,0,180.31,66.69Zm.27,6.55c1,1.59,1.77,2.94,2.32,4.06l-1.55,1.08a39.25,39.25,0,0,0-2-4.36Z" style="fill:#fff"/><path d="M191.42,66.64l1.48.26c-.22.34-.44.65-.63.93h4.57V69a7.57,7.57,0,0,0,1.95-2.34l1.47.28c-.15.3-.3.59-.45.86h5.45v1.39H202a15.11,15.11,0,0,1,.52,1.48l-1.68.15a16,16,0,0,0-.37-1.63h-1.62a7.67,7.67,0,0,1-1.11,1.21l-1-1.21h-2.53c.18.47.35,1,.51,1.48l-1.76.15c-.12-.61-.24-1.15-.35-1.63h-1.5a11.06,11.06,0,0,1-1.54,1.41l-1-1.25A9.88,9.88,0,0,0,191.42,66.64ZM197,69.78c.2.48.39,1,.58,1.62H205v3.95h-1.62V72.8H190.56v2.55h-1.62V71.4h7c-.2-.51-.4-1-.61-1.41Zm5.71,4v3.73H192.67v1h10.7v4.64h-1.56v-.72h-9.14v.72h-1.55V73.79ZM192.67,76.2h8.52V75.13h-8.52Zm0,4.9h9.14V79.77h-9.14Z" style="fill:#fff"/><path d="M206.87,67.74h6v1.64H210.6V73h1.92v1.63H210.6v4q1.2-.43,2.25-.9v1.76A45.58,45.58,0,0,1,207,81.61l-.47-1.76c.85-.23,1.67-.47,2.44-.72V74.58h-2V73h2V69.38h-2.11Zm6.42-.47h9.14V76h-3.8v1.77h3.85v1.48h-3.85v2h4.63v1.48H211.88V81.24h5.06v-2h-3.51V77.74h3.51V76h-3.65Zm1.62,3.58h2V68.67h-2Zm2,3.73V72.24h-2v2.34Zm1.69-5.91v2.18h2.18V68.67Zm2.18,5.91V72.24h-2.18v2.34Z" style="fill:#fff"/><path d="M235.4,76.43l-1.21,1a15.88,15.88,0,0,0-1.65-2.09,14.63,14.63,0,0,0-2.08-1.83l1.14-.93a18.36,18.36,0,0,1,2.13,1.79A12.69,12.69,0,0,1,235.4,76.43Z" style="fill:#fff"/><path d="M243.63,68l1.4.14c0,.8-.1,1.55-.17,2.25H246V66.64h1.72v3.79h1.62v1.29a8.69,8.69,0,0,0,1.05-1.83,12.62,12.62,0,0,0,.9-3.25l1.7.26c-.16.81-.33,1.51-.51,2.11h6.49q0,9.74-.28,11.53a2.79,2.79,0,0,1-.81,1.86,4.12,4.12,0,0,1-2.49.55c-.41,0-.88,0-1.41-.07L253.65,81a9.4,9.4,0,0,0,1.69.14c1,0,1.51-.38,1.61-1.16a86.94,86.94,0,0,0,.34-9.53h-.44a25.64,25.64,0,0,1-1.9,7,14.83,14.83,0,0,1-4.18,5l-1.15-1.41a14.82,14.82,0,0,0,3.83-4.41,20.66,20.66,0,0,0,1.78-6.21h-.74a21.92,21.92,0,0,1-1.42,4A15.78,15.78,0,0,1,250,78.71l-1.14-1.41a13.05,13.05,0,0,0,2.71-3.37,12.91,12.91,0,0,0,1.26-3.45h-.89l0,.11A12.7,12.7,0,0,1,249.83,74l-1.17-1.48A5.61,5.61,0,0,0,249,72h-1.37v3.53c.58-.19,1.14-.41,1.69-.63v1.6c-.55.24-1.11.45-1.69.65v6H246V77.78c-.88.29-1.81.59-2.8.88l-.44-1.83a30.34,30.34,0,0,0,3.24-.74V72h-1.28c-.16,1-.33,1.88-.53,2.69l-1.62-.51A31.39,31.39,0,0,0,243.63,68Z" style="fill:#fff"/><path d="M261.51,71.19A17.24,17.24,0,0,1,264.67,73l-1,1.63a13,13,0,0,0-3-2Zm1.82,4.3,1.41,1a38.56,38.56,0,0,1-2.58,6.63l-1.36-1.48A35.26,35.26,0,0,0,263.33,75.49Zm-1.17-8.59A15.62,15.62,0,0,1,265,68.38L264,70a12.4,12.4,0,0,0-2.73-1.76ZM266.44,75h1.62a17.05,17.05,0,0,1-.79,5.21,7.19,7.19,0,0,1-2.37,3l-1.14-1.41a5.75,5.75,0,0,0,2-2.32A14.06,14.06,0,0,0,266.44,75Zm4.07-8.34A9.88,9.88,0,0,1,272,68.45h5.25v1.47h-7a10.54,10.54,0,0,1-1.62,2.78c2.22-.07,4.05-.19,5.51-.37-.3-.42-.61-.84-.94-1.27L274.3,70a25.39,25.39,0,0,1,2.53,3.66l-1.17,1.21c-.22-.41-.44-.82-.69-1.25a85.79,85.79,0,0,1-9.3.74l-.44-1.62h1.41a12.27,12.27,0,0,0,1.69-2.81h-3.15V68.45h5A15.8,15.8,0,0,0,269,67.2Zm-1,8.34h1.62v8h-1.62Zm3.29,0h1.61V81.1c0,.27.17.42.51.44q.78,0,.78-.6V78.08l1.47.63c0,2-.17,3.21-.52,3.69A2.12,2.12,0,0,1,275,83a2.92,2.92,0,0,1-1.61-.37,1.15,1.15,0,0,1-.51-1Z" style="fill:#fff"/><path d="M281.42,66.64l1.48.26c-.22.34-.44.65-.63.93h4.57V69a7.57,7.57,0,0,0,2-2.34l1.47.28c-.15.3-.3.59-.45.86h5.45v1.39H292a15.11,15.11,0,0,1,.52,1.48l-1.68.15a16,16,0,0,0-.37-1.63h-1.62a7.67,7.67,0,0,1-1.11,1.21l-1-1.21h-2.53c.18.47.35,1,.51,1.48l-1.76.15c-.12-.61-.24-1.15-.35-1.63h-1.5a11.06,11.06,0,0,1-1.54,1.41l-1-1.25A9.88,9.88,0,0,0,281.42,66.64ZM287,69.78c.2.48.39,1,.58,1.62H295v3.95h-1.62V72.8H280.56v2.55h-1.62V71.4h7c-.2-.51-.4-1-.61-1.41Zm5.71,4v3.73H282.67v1h10.7v4.64h-1.56v-.72h-9.14v.72h-1.55V73.79ZM282.67,76.2h8.52V75.13h-8.52Zm0,4.9h9.14V79.77h-9.14Z" style="fill:#fff"/><path d="M296.87,67.74h6.05v1.64H300.6V73h1.92v1.63H300.6v4q1.2-.43,2.25-.9v1.76A45.58,45.58,0,0,1,297,81.61l-.47-1.76c.85-.23,1.67-.47,2.44-.72V74.58h-2V73h2V69.38h-2.11Zm6.42-.47h9.14V76h-3.8v1.77h3.85v1.48h-3.85v2h4.63v1.48H301.88V81.24h5.06v-2h-3.51V77.74h3.51V76h-3.65Zm1.62,3.58h2V68.67h-2Zm2,3.73V72.24h-2v2.34Zm1.69-5.91v2.18h2.18V68.67Zm2.18,5.91V72.24h-2.18v2.34Z" style="fill:#fff"/><path d="M325.4,76.43l-1.21,1a15.88,15.88,0,0,0-1.65-2.09,14.63,14.63,0,0,0-2.08-1.83l1.14-.93a18.36,18.36,0,0,1,2.13,1.79A12.69,12.69,0,0,1,325.4,76.43Z" style="fill:#fff"/><path d="M27.87,92.46a25.09,25.09,0,0,1,.92,2.62l-1.28.55a25.73,25.73,0,0,0-.9-2.73Zm1.25-.63H30.6v4.23h1.14V91.83h1.48v4.23h2.09v1.57H34l-.63,2h1.53V101H32v1.63h3v1.41H32V106a33.85,33.85,0,0,0,3.36-.54v1.41A57.24,57.24,0,0,1,27.08,108l-.21-1.69c1.23,0,2.39-.09,3.47-.18v-2.07h-3.1v-1.41h3.1V101h-3.1V99.58h1.51l-.63-2H26.87V96.06h2.25Zm1.13,7.75h1.58l.65-2H29.6Zm4.52-7.24,1.17.56a11.3,11.3,0,0,1-1.32,2.65l-1.26-.89A13.86,13.86,0,0,0,34.77,92.34ZM37.16,99A30,30,0,0,1,39,103.08l-1.55.7a31.35,31.35,0,0,0-1.88-4.36Zm-1.48-3.47h4.06V91.83h1.78v3.65h1.54V97H41.52v9.28a1.7,1.7,0,0,1-.46,1.36,2.12,2.12,0,0,1-1.53.42H36.94l-.36-1.78a22.86,22.86,0,0,0,2.46.16c.47,0,.7-.15.7-.44V97H35.68Z" style="fill:#fff"/><path d="M45.72,94.66h1.61V91.83H48.9v2.83h2.39v5.39h1V92.27h8.29v1.47H54v1h6.14v1.41H54V97.4h6.14v1.32H54v1.33h7.12v1.41H56.67a7.58,7.58,0,0,0,1,2.29,7.34,7.34,0,0,0,2-1.78l1.19,1.18a8.36,8.36,0,0,1-2.2,1.74,10.13,10.13,0,0,0,2.75,1.79l-.92,1.53a11.24,11.24,0,0,1-3.79-3.11,8.78,8.78,0,0,1-1.67-3.64H53.87v4.18c.8-.21,1.57-.45,2.32-.72v1.55c-1.47.54-3.21,1.08-5.2,1.62l-.4-1.76c.55-.09,1.09-.19,1.61-.3v-4.57h-.91v1.69a1.84,1.84,0,0,1-.35,1.12,1.07,1.07,0,0,1-.93.43h-.83l-.28-1.08v4.54H47.33v-12h-.91V105H45V94.66Zm3.18,1.53v6.91l.61.05c.25,0,.37-.16.37-.48V96.19Z" style="fill:#fff"/><path d="M65.42,91.64l1.48.26c-.22.34-.44.65-.63.93h4.57V94a7.57,7.57,0,0,0,2-2.34l1.47.28c-.15.3-.3.59-.45.86h5.45v1.39H76a15.11,15.11,0,0,1,.52,1.48l-1.68.15a16,16,0,0,0-.37-1.63H72.84a7.67,7.67,0,0,1-1.11,1.21l-1-1.21H68.22c.18.47.35,1,.51,1.48L67,95.85c-.12-.61-.24-1.15-.35-1.63h-1.5a11.06,11.06,0,0,1-1.54,1.41l-1-1.25A9.88,9.88,0,0,0,65.42,91.64ZM71,94.78c.2.48.39,1,.58,1.62H79v3.95H77.37V97.8H64.56v2.55H62.94V96.4h7c-.2-.51-.4-1-.61-1.41Zm5.71,4v3.73H66.67v1h10.7v4.64H75.81v-.72H66.67v.72H65.12V98.79ZM66.67,101.2h8.52v-1.07H66.67Zm0,4.9h9.14v-1.33H66.67Z" style="fill:#fff"/><path d="M80.87,92.74h6v1.64H84.6V98h1.92v1.63H84.6v4q1.2-.43,2.25-.9v1.76A45.58,45.58,0,0,1,81,106.61l-.47-1.76c.85-.23,1.67-.47,2.44-.72V99.58H81V98h2V94.38H80.87Zm6.42-.47h9.14V101h-3.8v1.77h3.85v1.48H92.63v2h4.63v1.48H85.88v-1.48h5.06v-2H87.43v-1.48h3.51V101H87.29Zm1.62,3.58h2V93.67h-2Zm2,3.73V97.24h-2v2.34Zm1.69-5.91v2.18h2.18V93.67Zm2.18,5.91V97.24H92.63v2.34Z" style="fill:#fff"/><path d="M67.32,34l1.37.06A25,25,0,0,1,68.3,38l-1.61-.19A17.22,17.22,0,0,0,67.32,34Zm1.61-10,1.87.56a17.14,17.14,0,0,1-1.53,3.17c.35,0,.67-.08,1-.14.31-.56.61-1.13.89-1.71l1.38.84V24.55h8.54V37.3q0,1.38-1.56,1.38H77.82l-.33-1.77,1.38.06c.21,0,.32-.12.32-.35V26.16h-5V38.62H72.51V36.8l-1,.38A19.58,19.58,0,0,0,70.74,34l1.14-.33q.3.71.63,1.74V33.16l-1.08.38c0-.3-.09-.59-.14-.86-1.38.34-2.74.63-4.1.86l-.32-1.88h.73a25,25,0,0,0,1.62-2.3c-.67.1-1.4.19-2.17.25l-.25-1.67.61,0A13.4,13.4,0,0,0,68.93,24Zm1.44,10a30.86,30.86,0,0,1,.43,3.44l-1.54.17c0-1.08-.08-2.25-.21-3.5Zm2.14-2.06V27a26.28,26.28,0,0,1-2.93,4.44c.46-.06.93-.14,1.39-.22-.09-.36-.18-.7-.28-1l1.13-.29A19.54,19.54,0,0,1,72.51,31.93Zm3.25-5.44a12.46,12.46,0,0,1,.93,1.73l-.76.4h.83a14,14,0,0,0,.73-2.21l1.44.33a14.35,14.35,0,0,1-.58,1.88h.58v1.54H74.51V28.62h.71a11.6,11.6,0,0,0-.65-1.77Zm1.43,3.73a8.41,8.41,0,0,1,.36,1.44h1.32v1.58H76.8v.81q0,.63.33.63h1.56v1.61h-2a1.4,1.4,0,0,1-1.56-1.61V33.24h-.62V31.66H75.9c-.1-.36-.21-.73-.35-1.11Z" style="fill:#fee14f"/><path d="M83.76,35.24l1.62.36a15.23,15.23,0,0,1-.94,3.25L82.63,38A11.85,11.85,0,0,0,83.76,35.24Zm-.57-10.45h4.63V35H83.19Zm1.74,2.87h1.14V26.35H84.93Zm0,2.83h1.14V29.12H84.93Zm1.14,2.94v-1.5H84.93v1.5Zm1.19,1.81a16.65,16.65,0,0,1,1.25,2.69l-1.77.62a14.52,14.52,0,0,0-1-2.89Zm1-10.39h1.7v-.8h1.82v.8h1.86v-.8h1.81v.8H97v1.37H95.43v.69h1.31v1.31H95.43v.69h1.83v1.5H93.49V31h3.25v3.81h.69v1.44h-.69v1c0,1-.54,1.44-1.61,1.44H93.55l-.23-1.77,1.25.06q.36,0,.36-.42v-.26H90.44v2.5H88.63v-2.5h-.56V34.85h.56V31h3.19v-.63h-3.7v-1.5h1.82v-.69h-1.5V26.91h1.5v-.69h-1.7Zm2.2,8.27h1.38v-.71H90.44Zm0,1.73h1.38v-.69H90.44Zm3.18-7.94v-.69H91.76v.69Zm-1.86,2h1.86v-.69H91.76Zm1.73,4.21h1.44v-.71H93.49Zm0,1.73h1.44v-.69H93.49Z" style="fill:#fee14f"/><path d="M98.69,28.05h3.88a20.51,20.51,0,0,1-1.08,3.38h1.56A14.71,14.71,0,0,1,102,35.58l-.09.22a3.55,3.55,0,0,0,1,.6,17.1,17.1,0,0,0,4.82.45q1,0,5.8-.23l-.3,1.87-3.12.06c-4.06,0-6.64-.2-7.72-.62a5.45,5.45,0,0,1-1.23-.77,12.82,12.82,0,0,1-1.24,1.58l-1.37-1.62a8.41,8.41,0,0,0,1.59-2,7.11,7.11,0,0,0,.73-2H99.05a22.09,22.09,0,0,0,1.22-3.4H98.69Zm1.75-3.89a16.94,16.94,0,0,1,2.43,2.19l-1.68,1.31a12.48,12.48,0,0,0-2.32-2.42Zm2.74.25h9.26v1.31a11.29,11.29,0,0,1-3.08,2h3.44v7.4c0,.86-.58,1.29-1.76,1.29h-1.38l-.25-1.62,1,.06q.42,0,.42-.36V33.8h-1.92v2.42h-1.8V33.8h-1.87v2.55h-2V27.72h3.1c-.53-.28-1.15-.57-1.84-.87l1.25-.8A20.57,20.57,0,0,1,108,27,12.9,12.9,0,0,0,110,25.93h-6.79Zm2.08,5.75h1.87v-1h-1.87Zm0,2.39h1.87V31.43h-1.87Zm3.67-3.43v1h1.92v-1Zm0,2.31v1.12h1.92V31.43Z" style="fill:#fee14f"/><path d="M115.47,24.68H121v2.81a8.57,8.57,0,0,0,1.88-3.44l2,.3c-.11.31-.21.61-.32.89h4v1.31a12.26,12.26,0,0,1-2,3.46,11,11,0,0,0,3.17,1.23l-1,1.88-.45-.18v5.85h-2V38h-2.56v.8h-2V33l-.42.14-.46-1.06v1.25h-1.18v2.15c.54-.14,1.06-.3,1.57-.48v1.81a48.24,48.24,0,0,1-6.2,1.64l-.3-1.94.63-.09V31h1.61v5.19c.28,0,.55-.09.83-.15V30.1h-2.29ZM119,28.41V26.35h-1.61v2.06Zm1.58,3.25-.18-.42A8.31,8.31,0,0,0,123.72,30a14.11,14.11,0,0,1-1.1-1.45c-.28.32-.54.62-.8.9L121,28.26V30.1h-1.37v1.56Zm2.23,1h4.53a12.21,12.21,0,0,1-2.25-1.33A11.81,11.81,0,0,1,122.85,32.62Zm.77-5.54A9.4,9.4,0,0,0,125,28.85a10,10,0,0,0,1.4-2h-2.64A2.22,2.22,0,0,0,123.62,27.08Zm.06,9.21h2.56v-2h-2.56Z" style="fill:#fee14f"/><path d="M22.54,23.56l-.84-2.22-4.27-.91L17,22.49l3,.72L24.82,36h0l1.9,5.13h1.9l-.34.08-.17.05-.15.08-.16.08-.14.1-.27.24-.17.16-.14.18-.12.18-.09.2-.08.21-.05.22,0,.22v.47l0,.23,0,.22.09.22.08.19.13.2.14.18.16.18.17.15.18.13.2.12.21.09.2.07.23,0,.23,0,.24,0h.24l.11,0h.12l.05,0h0l.12,0,.1,0,.11,0,.09-.06,0,0h0l.06,0,.09-.05.1-.06.09-.07.09-.07.18-.15.08-.09,0,0,0,0,.14-.18.06-.1.05-.1,0,0v0h0l0,0,.06-.09,0-.11,0-.11.06-.22v-.12l0-.11V43.3l0-.24,0-.23-.07-.21-.07-.2-.1-.2L31,42l-.14-.18-.16-.17-.15-.13-.14-.1-.15-.11-.14-.07L30,41.21l-.16-.06-.17,0-.16,0,7.4,0-.34.08-.31.13-.29.18-.27.24-.17.16-.14.18-.12.18-.08.21-.08.2-.05.22L35,43v.24l0,.23,0,.23,0,.22,0,.11.05.11.08.19.12.2.15.18.16.18.16.15.19.13.19.12.2.1.21.06.23,0,.22,0,.24,0h.24l.11,0h.12l.22-.06.11,0,.11,0,.09-.06,0,0h0l.06,0,.09-.05.1-.06.19-.14.08-.07.09-.08.08-.09,0,0,0,0,.14-.18.06-.1,0-.1,0-.05v0h0l0,0,.05-.09,0-.11,0-.11.06-.22V43.6l0-.11v-.23l0-.24,0-.23-.07-.21-.07-.19-.1-.21L39.27,42l-.14-.18L39,41.65l-.15-.13-.14-.11-.15-.1-.14-.07-.17-.07-.16-.06-.17,0-.16,0H40V38.8l-11.68.05L27.07,36l13.85-.07,2.81-12.42-21.19.1Zm3.89,5.27V25.77h2v3.06Zm-1.44-3v3.06h-.43l-.78-2h0l-.53-1Zm0,5.7L25,30.25H25v1.23Zm4.83-1.25h2l0,3.5h-2l0-3.5Zm0-4.48h2v3.07h-2V25.75Zm3.42,3.05V25.74h2v3.06Zm7,0h-.2V25.71h1l-.8,3.07Zm-1.64-3.06v3.06h-2V25.72Zm1.4,4.47h.05V32l-.06-1.84Zm-3.36,0h2l0,3.5h-2v-3.5Zm-3.43,0h2l0,3.5h-2l0-3.5Zm-6.82,0h2l0,3.5h-2v.2l-.07-.2h.07l0-3.5Z" style="fill:#fff;fill-rule:evenodd"/><path d="M41.83,31.94l-1.68-.16v0l-1.43-.11v1.9h-2v-2l-1.45-.08v2.14h-2V31.36l-1.43,0V33.6h-2V31.28H28.47v2.34h-2v.19l-.06-.19h.06V31.29l-1.43,0v0l-1.87.06,1.68,4.47h0L26.8,41h1.9l-.35.07-.16.06-.16.08-.15.07-.14.1-.28.24-.16.17-.14.17-.12.19-.09.2-.09.21,0,.21,0,.22v.48l0,.23.05.22.08.21.09.2.12.19.14.19.16.17.17.15.19.14.2.11.2.1.21.07.22,0,.24,0h.71l0,0h.06l.11,0,.1,0,.12,0,.09-.05,0,0h0l.06,0,.09-.06.11,0,.08-.08.09-.06.19-.15.07-.1,0,0,.05,0,.14-.19.05-.1.06-.09,0-.06v0h0l0,0,.05-.1,0-.11,0-.1.07-.22v-.12l0-.12v-.23l0-.24,0-.22-.07-.22-.07-.19-.1-.2-.12-.19-.14-.18-.16-.16-.15-.13-.14-.11-.15-.1-.14-.07L30,41.09,29.86,41l-.17,0-.15,0,7.4,0-.35.08-.31.13-.29.17-.27.25-.16.16-.14.17-.12.19-.09.2-.08.21-.05.21,0,.22v.48l0,.23,0,.22,0,.1,0,.11.09.2.12.19.14.19.16.17.17.15.19.14.19.11.2.1.21.06.22.06.23,0h.71l.22-.06.1,0,.11,0,.1,0,0,0h0l.06,0,.09-.06.11,0,.18-.14.08-.08.1-.07.07-.09,0-.05,0,0,.15-.19.05-.1.06-.09,0-.05v0l0,0,.06-.09,0-.11,0-.1.07-.22v-.12l0-.11v-.24l0-.24,0-.22-.06-.21-.07-.2-.11-.2-.11-.19-.14-.17L39,41.54l-.14-.13-.15-.11-.15-.1-.14-.07-.17-.08-.16,0-.17,0-.15,0h2.28V38.68l-11.68.06-1.26-2.91L41,35.77Z" style="fill:#fff;fill-rule:evenodd"/><polygon points="29.73 18.63 30.4 17.72 36.03 21.86 35.56 22.5 38.39 22.5 30.92 16.73 26.01 22.46 34.99 22.49 29.73 18.63" style="fill:#fff"/></g></g></svg>