<svg xmlns="http://www.w3.org/2000/svg" viewBox="0 0 340.52 121.89"><title>section2-list4-s</title><g id="a7271f62-71fa-4b51-9ed8-47567292a84f" data-name="圖層 2"><g id="a4cf8561-4fe6-47f0-91f2-4233472aff32" data-name="圖層 1"><rect x="0.61" y="32.45" width="339.92" height="89.43" rx="3.84" style="fill:#f26e61"/><path d="M61.35,9.49H170.12l20.29,23.24-17.9,20.51H61.35C45.74,53.24,33,43.4,33,31.36h0c0-12,12.77-21.87,28.39-21.87Z" style="fill:#d3402d;fill-rule:evenodd"/><path d="M61.35,9.49H167.07l19.09,21.87-19.1,21.88H61.35C45.73,53.24,33,43.4,33,31.36h0c0-12,12.77-21.87,28.39-21.87Z" style="fill:#f68d6f;fill-rule:evenodd"/><path d="M29.86,9.49h127.5l19.09,21.87L157.36,53.24H29.86c-15.62,0-28.39-9.84-28.39-21.88h0c0-12,12.77-21.87,28.39-21.87Z" style="fill:#d3402d;fill-rule:evenodd"/><path d="M30.59,0A30.59,30.59,0,1,1,0,30.59,30.64,30.64,0,0,1,30.59,0Z" style="fill:#f68d6f;fill-rule:evenodd"/><path d="M30.59,6.24A24.35,24.35,0,1,1,6.25,30.59,24.4,24.4,0,0,1,30.59,6.24Z" style="fill:#d3402d;fill-rule:evenodd"/><path d="M46.45,12.15A24.32,24.32,0,0,1,16.66,50.53,24.32,24.32,0,0,1,46.45,12.15Z" style="fill:#d3402d;fill-rule:evenodd"/><path d="M28.69,71.23q0,3.73-5.08,3.73h-1.5v5H20.36V67.5h3.18C27,67.5,28.69,68.75,28.69,71.23Zm-1.81,0a1.78,1.78,0,0,0-.78-1.58,3.09,3.09,0,0,0-1.82-.48H22.11v4.1h2.17a3.17,3.17,0,0,0,1.82-.46A1.8,1.8,0,0,0,26.88,71.23Z" style="fill:#fff"/><path d="M41.24,73.78a7.19,7.19,0,0,1-1.34,4.5,5,5,0,0,1-4.23,2,5,5,0,0,1-4.24-2,7.24,7.24,0,0,1-1.32-4.5,7.39,7.39,0,0,1,1.32-4.54,5,5,0,0,1,4.25-2,5,5,0,0,1,4.24,2A7.39,7.39,0,0,1,41.24,73.78Zm-1.85,0a5.91,5.91,0,0,0-.86-3.31,3.44,3.44,0,0,0-5.73,0,5.92,5.92,0,0,0-.86,3.31,5.7,5.7,0,0,0,.88,3.27,3.22,3.22,0,0,0,2.86,1.51,3.17,3.17,0,0,0,2.85-1.51A5.77,5.77,0,0,0,39.39,73.78Z" style="fill:#fff"/><path d="M51,76.54q0,3.69-4.71,3.69a3.74,3.74,0,0,1-2.92-1.16,4.43,4.43,0,0,1-1-3h1.85A2.66,2.66,0,0,0,44.81,78a2.73,2.73,0,0,0,1.9.56,2.93,2.93,0,0,0,1.74-.51A1.66,1.66,0,0,0,48,75.12l-1.88-.73a9.09,9.09,0,0,1-2.39-1.21,2.85,2.85,0,0,1-1.14-2.32,3.26,3.26,0,0,1,1.21-2.64,4.23,4.23,0,0,1,2.82-.94,4.52,4.52,0,0,1,2.91.87A3.5,3.5,0,0,1,50.78,71H49a1.91,1.91,0,0,0-2.2-2,2.74,2.74,0,0,0-1.6.44,1.53,1.53,0,0,0-.72,1.35,1.5,1.5,0,0,0,.83,1.33,12.12,12.12,0,0,0,1.52.67A19.66,19.66,0,0,1,49.57,74,3,3,0,0,1,51,76.54Z" style="fill:#fff"/><path d="M57.82,65.5a19.38,19.38,0,0,1,1,2.13H62a16.22,16.22,0,0,0,1.27-2.25l1.74.56a14.57,14.57,0,0,1-1.12,1.69h4.72v1.56H52.05V67.63h4.83a13.75,13.75,0,0,0-1-1.85Zm2.25,4.71V80a1.88,1.88,0,0,1-.46,1.36,1.27,1.27,0,0,1-1,.42H56.74l-.33-1.7,1.62.15c.32,0,.49-.27.49-.7V78.1h-4.1V82H52.88V70.21Zm-5.65,3.32h4.1V71.78h-4.1Zm0,3.17h4.1V74.94h-4.1Zm7.28-5.93h1.72V79H61.7Zm4-.82h1.76V80.21A1.7,1.7,0,0,1,67,81.55a2.11,2.11,0,0,1-1.51.42H63.16l-.37-1.76a20,20,0,0,0,2.18.14c.47,0,.7-.14.7-.44Z" style="fill:#fff"/><path d="M76,65.38l1.67.63a28.48,28.48,0,0,1-3.55,5.38l.87,0A49.54,49.54,0,0,0,83,70.77,34.47,34.47,0,0,0,80.79,68l1.28-1.18a42.78,42.78,0,0,1,4.29,5.61L85,73.8q-.45-.78-.93-1.53A90.6,90.6,0,0,1,71,73.09l-.34-2c.62.06,1.18.11,1.67.14A32.49,32.49,0,0,0,76,65.38Zm9,9V82H83.18v-1.1H73.64v1H71.86V74.38Zm-11.32,5h9.54V75.94H73.64Z" style="fill:#fff"/><path d="M98.77,75.24l-1.21,1a15,15,0,0,0-3.73-3.92L95,71.39a18.37,18.37,0,0,1,2.12,1.79A12.18,12.18,0,0,1,98.77,75.24Z" style="fill:#fff"/><path d="M109.71,65.47l1.47.63a27.14,27.14,0,0,1-1.47,3.83V80.78a7,7,0,0,0,2.08-2.69,18.19,18.19,0,0,0,.63-4.61h1.63a29.75,29.75,0,0,1-.33,3.6A4.8,4.8,0,0,0,115.19,79a5.14,5.14,0,0,0,.88.53V72.07h-4V66.22h9.26v5.85h-3.5v2.64h4v1.57h-4V80a18.17,18.17,0,0,0,2.09.1,28.64,28.64,0,0,0,2.89-.14l-.27,1.69a27.82,27.82,0,0,1-6.31-.42A5.2,5.2,0,0,1,114,80a5.09,5.09,0,0,1-.85-.93,9.83,9.83,0,0,1-2.11,2.9l-1.33-1v.93h-1.62V72.6c-.43.63-.9,1.26-1.41,1.87l-.58-2a23.88,23.88,0,0,0,2-3A17.73,17.73,0,0,0,109.71,65.47Zm10,5V67.75h-6v2.76Z" style="fill:#fff"/><path d="M127.85,65.5h.56a24.65,24.65,0,0,1,2.88,3l-1.19,1.15A28.1,28.1,0,0,0,127.9,67a26.26,26.26,0,0,1-2,2.82h4.45v1.47h-2v1.48h2.44v1.48h-2.44v5.2c.84-.22,1.7-.48,2.58-.77v1.54a41.24,41.24,0,0,1-6.45,1.55l-.23-1.62a22.3,22.3,0,0,0,2.62-.37V74.24h-2.62V72.76h2.62V71.28h-1.77V70.7l-.55.65-.56-1.77a20,20,0,0,0,3.08-4.08Zm-2.25,9.65a13.25,13.25,0,0,1,.7,3.66l-1.42.14a13.6,13.6,0,0,0-.5-3.68Zm4-.07,1.21.26a16.85,16.85,0,0,1-.58,3L129,77.89A11.08,11.08,0,0,0,129.59,75.08Zm2.55-9a18.3,18.3,0,0,1,2,3.09l-1.48.64a19.41,19.41,0,0,0-2-3.25Zm2.72-.63h1.64V70h3.42V80.06a1.83,1.83,0,0,1-.42,1.3,1.34,1.34,0,0,1-1.05.4h-2.52l-.37-1.55,2.25.07q.51,0,.51-.63V78H133.1v4h-1.6V70h3.36Zm-1.76,7.86h5.22V71.42H133.1Zm0,3.32h5.22v-2H133.1Zm6.05-10.78,1.35.63a14.93,14.93,0,0,1-1.84,3.4l-1.48-1.07A15.55,15.55,0,0,0,139.15,65.85Z" style="fill:#fff"/><path d="M145.41,65.45l1.47.49a26.62,26.62,0,0,1-2.11,4.41c.57-.09,1.12-.19,1.67-.3.41-.76.82-1.57,1.22-2.42l1.47.56A36.33,36.33,0,0,1,145,74.9a16.5,16.5,0,0,0,2.51-.42c-.16-.68-.35-1.33-.55-2l1.2-.33a28.62,28.62,0,0,1,1.14,3.92l-1.33.37c-.05-.25-.1-.48-.14-.71a34.9,34.9,0,0,1-5.21.78L142.17,75l1.13,0a29.5,29.5,0,0,0,2.34-3.46l-3.26.67-.33-1.48c.36,0,.72-.08,1-.12A28.33,28.33,0,0,0,145.41,65.45ZM143,77.19l1.35.14a24.92,24.92,0,0,1-.65,4.5l-1.48-.44A19.79,19.79,0,0,0,143,77.19Zm3.23-.09a20,20,0,0,1,.49,4l-1.4.12a34.61,34.61,0,0,0-.27-4Zm2-.35a18.07,18.07,0,0,1,.91,2.9l-1.31.33A29,29,0,0,0,147,77.1Zm9.14-10.41V79.91h1.14v1.48h-9.65V79.91H150V66.34Zm-5.82,4.5h4.27v-3h-4.27Zm0,4.57h4.27V72.25h-4.27Zm0,4.5h4.27V76.82h-4.27Z" style="fill:#fff"/><path d="M168.28,65.5h.82a16.29,16.29,0,0,0,3.36,3,20.57,20.57,0,0,0,4.17,2l-1.11,1.74a15.44,15.44,0,0,1-2.34-1.07v1.14H163.5V71.2c-.78.46-1.65.93-2.62,1.4l-.9-1.76a20.15,20.15,0,0,0,4.64-2.51,18.77,18.77,0,0,0,2.81-2.83Zm6.1,8.81V82h-1.73V81h-8.47v1h-1.76V74.31Zm-10.2,5.13h8.47V75.87h-8.47Zm0-8.72h8.23a21,21,0,0,1-4.18-3.67,26.6,26.6,0,0,1-3.1,3A10.88,10.88,0,0,1,164.23,70.72Z" style="fill:#fff"/><path d="M188.77,75.24l-1.21,1a15,15,0,0,0-3.73-3.92l1.15-.93a18.37,18.37,0,0,1,2.12,1.79A12.18,12.18,0,0,1,188.77,75.24Z" style="fill:#fff"/><path d="M199.07,65.45l1.48.49a27.94,27.94,0,0,1-2.16,4.55c.49,0,1-.1,1.46-.16q.63-1.26,1.26-2.7l1.41.47a37.77,37.77,0,0,1-4,6.89,13.87,13.87,0,0,0,2.54-.38c-.18-.64-.36-1.25-.55-1.85l1.2-.37a31.94,31.94,0,0,1,1.1,3.8l-1.33.37-.14-.71a34.16,34.16,0,0,1-4.84.71l-.44-1.48.92,0a24.32,24.32,0,0,0,2.11-3.32c-.91.14-1.89.27-3,.39l-.33-1.48,1-.05A29,29,0,0,0,199.07,65.45Zm-2.39,11.81,1.34.14a31.37,31.37,0,0,1-.56,4.62L196,81.6A24.29,24.29,0,0,0,196.68,77.26Zm3.17,0a28.76,28.76,0,0,1,.42,4.06l-1.41.14a35.11,35.11,0,0,0-.23-4.06Zm2-.44c.23.86.44,1.81.63,2.87a28.64,28.64,0,0,0,.91-3.36l1.41.37a30.49,30.49,0,0,1-1.27,4.43l-1.4-.51.07-.16-.92.23c-.17-1.21-.39-2.38-.65-3.5Zm4.83-11.37,1.76.19a4.42,4.42,0,0,1-.79,1.21h4.3v8.09h-4.53a17,17,0,0,1,2,2.09l-1.07,1.07a13.65,13.65,0,0,0-2.18-2.46l.75-.7H202.8V66.85h3.08A4.5,4.5,0,0,0,206.65,65.45Zm3.73,8.15V68.19h-6V73.6h2L206,73a11.31,11.31,0,0,0,1.39-1.37c-.22-.16-.43-.31-.64-.44a11.48,11.48,0,0,1-1.67,1.69l-.63-1.14a11.22,11.22,0,0,0,1.34-1.23c-.43-.3-.87-.58-1.34-.86l.84-.78c.43.25.82.48,1.18.71a9.06,9.06,0,0,0,.53-1.08h1.11a9,9,0,0,1-.71,1.71c.25.16.48.32.69.47A8.09,8.09,0,0,0,208.9,69h1.21a12,12,0,0,1-1,2.38l0,0,1.16,1-.91.92c-.28-.27-.59-.56-.93-.85a10.7,10.7,0,0,1-1,1.14Zm-5.33,2.82h1.55v3.35c0,.34.18.51.56.51h1.11a.84.84,0,0,0,.58-.17,3.29,3.29,0,0,0,.26-1.53l1.48.42c-.13,1.32-.35,2.1-.65,2.32a2.1,2.1,0,0,1-1.44.37h-1.9a1.61,1.61,0,0,1-1.15-.4,1.46,1.46,0,0,1-.4-1.08Zm6-.57a32.54,32.54,0,0,1,1.74,4.21l-1.34.56a30.4,30.4,0,0,0-1.76-4.36Z" style="fill:#fff"/><path d="M216.79,69A18.43,18.43,0,0,1,218,72.2h1.63a23.86,23.86,0,0,0,1.13-3.1l1.55.48a24.78,24.78,0,0,1-1,2.62h2.35v1.6H214V72.2h2.34a26.4,26.4,0,0,0-1.07-2.62ZM219,65.45a14.13,14.13,0,0,1,.85,1.74h3.65v1.56h-9.14V67.19h3.82a13.49,13.49,0,0,0-.86-1.55Zm3.59,9.7V82h-1.62v-1h-4.5v1h-1.6V75.15Zm-6.12,4.29h4.5V76.63h-4.5Zm7.74-13.17h6.27v1.3a56.31,56.31,0,0,1-1.91,5.35A9.74,9.74,0,0,1,230,75.38a4.16,4.16,0,0,1,.44,1.83,4,4,0,0,1-.59,2.42q-.59.81-2.94.81l-.49-1.76a8,8,0,0,0,1.54.14.77.77,0,0,0,.74-.43,2.49,2.49,0,0,0,.2-1.18,3.25,3.25,0,0,0-.34-1.43,19.83,19.83,0,0,0-1.65-2.86,48.9,48.9,0,0,0,1.85-5.08h-3V82h-1.63Z" style="fill:#fff"/><path d="M234.79,65.45l1.48.26q-.33.51-.63.93h4.57v1.2a7.35,7.35,0,0,0,1.95-2.34l1.47.28c-.15.31-.3.59-.45.86h5.45V68h-3.27a12.88,12.88,0,0,1,.52,1.48l-1.68.16a16.24,16.24,0,0,0-.37-1.64h-1.62a7.67,7.67,0,0,1-1.11,1.21l-1-1.21h-2.53c.18.47.35,1,.51,1.48l-1.76.16c-.12-.61-.24-1.16-.35-1.64h-1.5A11.06,11.06,0,0,1,233,69.44l-1-1.25A9.76,9.76,0,0,0,234.79,65.45Zm5.61,3.14c.2.48.39,1,.58,1.62h7.38v4h-1.61V71.62H233.93v2.55h-1.62v-4h7c-.2-.5-.41-1-.62-1.4Zm5.71,4v3.73H236v1h10.71V82h-1.57v-.72H236V82h-1.55V72.6ZM236,75h8.53V73.94H236Zm0,4.9h9.14V78.58H236Z" style="fill:#fff"/><path d="M250.24,66.56h6.05v1.63H254v3.57h1.92v1.63H254v4c.8-.29,1.55-.59,2.25-.89v1.75a43.61,43.61,0,0,1-5.84,2.18l-.47-1.75c.86-.24,1.67-.48,2.44-.72V73.39h-2V71.76h2V68.19h-2.11Zm6.42-.48h9.14v8.7H262v1.78h3.85V78H262v2h4.63v1.47H255.25V80.06h5.07V78H256.8V76.56h3.52V74.78h-3.66Zm1.62,3.59h2V67.49h-2Zm2,3.72V71.06h-2v2.33Zm1.68-5.9v2.18h2.18V67.49Zm2.18,5.9V71.06H262v2.33Z" style="fill:#fff"/><path d="M278.77,75.24l-1.21,1a15,15,0,0,0-3.73-3.92l1.15-.93a18.37,18.37,0,0,1,2.12,1.79A12.18,12.18,0,0,1,278.77,75.24Z" style="fill:#fff"/><path d="M19.92,93.47h3v-3h1.67v3h3.73q0,9.38-.21,11.11a2.82,2.82,0,0,1-.67,1.78,3,3,0,0,1-2.08.54c-.39,0-.86,0-1.4-.07L23.71,105a8.37,8.37,0,0,0,1.67.16c.59,0,.92-.37,1-1.12.13-.92.2-3.9.23-9h-2a29.62,29.62,0,0,1-.67,5.75,19.42,19.42,0,0,1-2.66,6.08l-1.4-1.28a15.61,15.61,0,0,0,2.44-5.31,22.32,22.32,0,0,0,.62-5.24h-3Zm16.15-.77v14.2H34.38v-1.28H30.87V107H29.18V92.7ZM30.87,104h3.51V94.3H30.87Z" style="fill:#fff"/><path d="M52.89,100.78v4.28h1.48v1.47H38.11v-1.47h1.28v-4.28ZM39,91.27h5.72V99.5H39Zm1.55,3.54h2.62V92.75H40.57ZM43.19,98v-2H40.57v2Zm-2.13,7h2.32v-2.71H41.06Zm3.87,0h2.32v-2.71H44.93ZM47,91.15h6.49v7.52a1.75,1.75,0,0,1-.37,1.18,1.47,1.47,0,0,1-1.18.42H50l-.37-1.47,1.9.07c.29,0,.44-.16.44-.48v-.63H47.5a12,12,0,0,1-1.16,2.88L45,99.45a7.31,7.31,0,0,0,1.06-2.32,13.38,13.38,0,0,0,.22-2.32V91.15Zm.67,5.27H52V95.14H47.8C47.78,95.57,47.76,96,47.71,96.42Zm.1-2.61H52V92.56H47.81Zm1,11.25h2.41v-2.71H48.8Z" style="fill:#fff"/><path d="M64.85,90.45a15.39,15.39,0,0,1,1,1.74h6.64v1.62H59.35v4.5a23.15,23.15,0,0,1-.37,4,17.08,17.08,0,0,1-1.59,4.2l-1.47-1.25a11,11,0,0,0,1.44-3.46,21.54,21.54,0,0,0,.3-3.44V92.19H64a12.69,12.69,0,0,0-1.11-1.48Zm-.44,3.79h1.77V96h5.68V97.6H66.18v2.34H71v7H69.35v-1H62.09v1H60.42v-7h4Zm-2.32,10.11h7.26V101.5H62.09Z" style="fill:#fff"/><path d="M76.73,90.45l1.48.26c-.23.34-.44.65-.64.93h4.57v1.2a7.25,7.25,0,0,0,2-2.34l1.47.28c-.15.31-.3.59-.46.86h5.45V93H87.29a12.89,12.89,0,0,1,.53,1.48l-1.69.16A14,14,0,0,0,85.77,93H84.15A7.67,7.67,0,0,1,83,94.24l-1-1.21H79.52A15.1,15.1,0,0,1,80,94.51l-1.75.16c-.12-.61-.24-1.16-.35-1.64h-1.5a10.58,10.58,0,0,1-1.55,1.41l-1-1.25A10,10,0,0,0,76.73,90.45Zm5.61,3.14c.2.48.39,1,.58,1.62H90.3v4H88.68V96.62H75.87v2.55H74.25v-4h7c-.2-.5-.4-1-.61-1.4Zm5.71,4v3.73H78v1h10.7V107H87.12v-.72H78V107H76.43V97.6ZM78,100H86.5V98.94H78Zm0,4.9h9.14v-1.33H78Z" style="fill:#fff"/><path d="M92.18,91.56h6v1.63H95.91v3.57h1.91v1.63H95.91v4c.79-.29,1.54-.59,2.25-.89v1.75a44.13,44.13,0,0,1-5.84,2.18l-.47-1.75c.85-.24,1.67-.48,2.44-.72V98.39h-2V96.76h2V93.19H92.18Zm6.42-.48h9.14v8.7h-3.8v1.78h3.85V103h-3.85v2h4.62v1.47H97.19v-1.47h5.06v-2H98.74v-1.47h3.51V99.78H98.6Zm1.61,3.59h2V92.49h-2Zm2,3.72V96.06h-2v2.33Zm1.69-5.9v2.18h2.18V92.49Zm2.18,5.9V96.06h-2.18v2.33Z" style="fill:#fff"/><path d="M120.71,100.24l-1.21,1a15,15,0,0,0-3.73-3.92l1.14-.93A18.36,18.36,0,0,1,119,98.18,12.69,12.69,0,0,1,120.71,100.24Z" style="fill:#fff"/><path d="M136.21,90.5H137a45.79,45.79,0,0,0,7.52,3.6l-.7,1.62-.56-.25v4.61h-14V95.47c-.22.1-.43.18-.63.25l-.7-1.55a38.75,38.75,0,0,0,7.38-3.67Zm6.31,10.35V107h-1.68v-.58h-9.06V107H130.1v-6.17Zm-12.28-5.78h12.18c-1.07-.49-2-1-2.92-1.42v.72h-6.38v-.74Q131.59,94.47,130.24,95.07Zm5.2,3.73V96.35h-4.57V98.8h2.25c-.28-.49-.64-1-1.07-1.67l1-.64c.56.63,1,1.16,1.32,1.6l-1,.71Zm-3.66,4.3h9.06v-1h-9.06Zm0,2.11h9.06v-1.07h-9.06Zm2.13-12h4.71c-.9-.48-1.7-1-2.41-1.41C135.41,92.3,134.64,92.77,133.91,93.19Zm7.84,5.61V96.35H137V98.8h2.29L138.25,98a9.12,9.12,0,0,0,1.11-1.53l1.14.5a8.84,8.84,0,0,1-1,1.81Z" style="fill:#fff"/><path d="M151.45,104.07l1.08,1.21a33.36,33.36,0,0,1-5.77,1.69l-.77-1.62A26,26,0,0,0,151.45,104.07Zm-3.92-8.3h13.56V104H147.53Zm.5-4.69h12.72V95H148Zm1.17,7h10.22v-1H149.2Zm0,2.32h10.22v-1.1H149.2Zm10.22,2.25v-1H149.2v1ZM159,93.59V92.42h-9.32v1.17Zm-2.37,10.55q3.22.58,5.9,1.35l-1,1.48a40.47,40.47,0,0,0-5.79-1.55Z" style="fill:#fff"/><path d="M166.73,90.45l1.48.26c-.23.34-.44.65-.64.93h4.57v1.2a7.25,7.25,0,0,0,2-2.34l1.47.28c-.15.31-.3.59-.46.86h5.45V93h-3.27a12.89,12.89,0,0,1,.53,1.48l-1.69.16a14,14,0,0,0-.36-1.64h-1.62A7.67,7.67,0,0,1,173,94.24l-1-1.21h-2.54a15.1,15.1,0,0,1,.51,1.48l-1.75.16c-.12-.61-.24-1.16-.35-1.64h-1.5a10.58,10.58,0,0,1-1.55,1.41l-1-1.25A10,10,0,0,0,166.73,90.45Zm5.61,3.14c.2.48.39,1,.58,1.62h7.38v4h-1.62V96.62H165.87v2.55h-1.62v-4h7c-.2-.5-.4-1-.61-1.4Zm5.71,4v3.73H168v1h10.7V107h-1.56v-.72H168V107h-1.55V97.6ZM168,100h8.52V98.94H168Zm0,4.9h9.14v-1.33H168Z" style="fill:#fff"/><path d="M182.18,91.56h6v1.63h-2.32v3.57h1.91v1.63h-1.91v4c.79-.29,1.54-.59,2.25-.89v1.75a44.13,44.13,0,0,1-5.84,2.18l-.47-1.75c.85-.24,1.67-.48,2.44-.72V98.39h-2V96.76h2V93.19h-2.11Zm6.42-.48h9.14v8.7h-3.8v1.78h3.85V103h-3.85v2h4.62v1.47H187.19v-1.47h5.06v-2h-3.51v-1.47h3.51V99.78H188.6Zm1.61,3.59h2V92.49h-2Zm2,3.72V96.06h-2v2.33Zm1.69-5.9v2.18h2.18V92.49Zm2.18,5.9V96.06h-2.18v2.33Z" style="fill:#fff"/><path d="M210.71,100.24l-1.21,1a15,15,0,0,0-3.73-3.92l1.14-.93A18.36,18.36,0,0,1,209,98.18,12.69,12.69,0,0,1,210.71,100.24Z" style="fill:#fff"/><path d="M218.32,91.15h16v1.6h-7a16.4,16.4,0,0,1-.62,2.39h6.37V107h-1.67v-1.19H221.2V107h-1.67V95.14h5.3a15.91,15.91,0,0,0,.66-2.39h-7.17Zm2.88,8.42h10.22V96.71H221.2Zm0,4.71h10.22v-3.23H221.2Z" style="fill:#fff"/><path d="M240.61,90.24l1.42.84a12.52,12.52,0,0,1-1.91,1.85v3.13h-1.69v-2c-.49.28-1,.56-1.62.83L236,93.4A10.34,10.34,0,0,0,238.64,92,10,10,0,0,0,240.61,90.24Zm1.28,14.11.85,1.14a16.33,16.33,0,0,1-2.57.83c-.87.22-2,.44-3.29.65l-.84-1.48c1.31-.14,2.46-.3,3.43-.49A15.36,15.36,0,0,0,241.89,104.35Zm-3.6-7.86h11.83v7.65H238.29Zm1.55,2.25h8.73v-.91h-8.73Zm0,2h8.73v-.93h-8.73Zm8.73,2v-.92h-8.73v.92Zm2.18-12.1.85,1.21a48,48,0,0,1-6.89,1.6V94c0,.32.2.48.61.48h4.5a1.34,1.34,0,0,0,.7-.14c.19-.1.32-.57.37-1.41l1.62.51c-.16,1.2-.42,1.91-.77,2.13a3.27,3.27,0,0,1-1.69.31h-5.34a1.92,1.92,0,0,1-1.25-.37,1.43,1.43,0,0,1-.48-1.1v-3.8h1.73v1.49A44.5,44.5,0,0,0,250.75,90.71Zm-4.5,13.57a59.08,59.08,0,0,1,6.19,1.21l-.65,1.53a39.93,39.93,0,0,0-6.24-1.4Z" style="fill:#fff"/><path d="M255.18,91.27a25.92,25.92,0,0,1,.92,2.62l-1.29.55a26.64,26.64,0,0,0-.89-2.73Zm1.25-.63h1.48v4.24h1.14V90.64h1.48v4.24h2.09v1.56h-1.3l-.64,2h1.53v1.46h-2.95v1.64h2.95v1.4h-2.95v1.94a33.7,33.7,0,0,0,3.36-.55v1.41a57.24,57.24,0,0,1-8.23,1.14l-.21-1.69c1.23,0,2.39-.09,3.46-.17v-2.08h-3.09v-1.4h3.09V99.85h-3.09V98.39h1.51l-.63-2h-1.25V94.88h2.25Zm1.13,7.75h1.58l.65-2h-2.88Zm4.51-7.24,1.18.56a11.58,11.58,0,0,1-1.32,2.66l-1.26-.9A13.21,13.21,0,0,0,262.07,91.15Zm2.39,6.61a29.37,29.37,0,0,1,1.89,4.13l-1.55.7a33.17,33.17,0,0,0-1.88-4.36ZM263,94.3h4.06V90.64h1.77V94.3h1.55v1.47h-1.55v9.29a1.69,1.69,0,0,1-.45,1.35,2.12,2.12,0,0,1-1.53.42h-2.59l-.37-1.77c1,.1,1.82.15,2.47.15.46,0,.7-.14.7-.44v-9H263Z" style="fill:#fff"/><path d="M273,93.47h1.62V90.64h1.57v2.83h2.39v5.4h1V91.08h8.3v1.48h-6.61v1h6.14V95h-6.14v1.21h6.14v1.32h-6.14v1.34h7.12v1.4H284a7.24,7.24,0,0,0,1,2.29,7,7,0,0,0,2-1.78l1.2,1.18a8.36,8.36,0,0,1-2.2,1.74,10.23,10.23,0,0,0,2.74,1.79l-.91,1.53a11.39,11.39,0,0,1-3.8-3.11,9,9,0,0,1-1.67-3.64h-1.21v4.19c.8-.21,1.57-.45,2.32-.72v1.54q-2.22.81-5.2,1.62l-.41-1.76q.83-.14,1.62-.3v-4.57h-.91V102a1.9,1.9,0,0,1-.35,1.13,1.07,1.07,0,0,1-.94.42h-.82l-.28-1.07V107h-1.57V95h-.91v8.81h-1.41V93.47ZM276.21,95v6.91l.61,0c.25,0,.37-.16.37-.47V95Z" style="fill:#fff"/><path d="M68.29,31.12v7.2h-2V24.14h6v7Zm2.13-5.38H68.29v1.15h2.13Zm-2.13,2.52v1.25h2.13V28.26Zm6-4.12h5.31V36.49q0,1.65-1.77,1.65H75.11l-.36-2.07c1.36.09,2.15.13,2.36.13s.39-.17.39-.52V31.12H73.31v-7Zm3.25,2.75V25.74H75.17v1.15Zm0,2.62V28.26H75.17v1.25Z" style="fill:#fee14f"/><path d="M89.73,23.64a11.66,11.66,0,0,1,.58,1.93h5.81v1.94h-6.2v1.73h5.19V35c0,1.13-.48,1.69-1.44,1.69H91.23l-.36-2.08,1.61.08c.38,0,.56-.15.56-.44V31.18H89.92v7.14H87.79V31.18H84.87v5.64H82.75V29.24h5V27.51H81.67V25.57H88c-.16-.48-.33-1-.52-1.43Z" style="fill:#fee14f"/><path d="M104.62,23.64,98.75,38.37H97.09L103,23.64Z" style="fill:#fee14f"/><path d="M105.76,24.2H119.7v1.87h-6a13.13,13.13,0,0,1-.53,1.67h5.39V38.37h-2.12V37.31h-7.39v1.06H107V27.74h4a10.22,10.22,0,0,0,.55-1.67h-5.72Zm3.32,7.37h7.39V29.64h-7.39Zm0,3.88h7.39V33.39h-7.39Z" style="fill:#fee14f"/><path d="M122.78,29h11.87v7h-2.26c1.15.17,2.45.38,3.87.63l-.86,1.76q-3-.82-5.56-1.26l.84-1.13h-4.06l1,1.13a29.89,29.89,0,0,1-5.44,1.26l-.86-1.83a33.26,33.26,0,0,0,4.22-.56h-2.72Zm2.73-5.5,1.38,1a12.76,12.76,0,0,1-1.31,1.08V28.7h-2.13V26.92l-1.42.72-.69-1.83A13.11,13.11,0,0,0,125.51,23.45Zm-.62,7.5h7.64v-.58h-7.64Zm0,1.81h7.64v-.69h-7.64Zm7.64,1.73v-.62h-7.64v.62Zm2.19-10.92.68,1.67a27.62,27.62,0,0,1-6.06,1.19v.27c0,.28.18.42.5.42h3.8A.53.53,0,0,0,134,27a3.42,3.42,0,0,0,.17-1.31l1.94.39a3.71,3.71,0,0,1-.67,2.13,2.16,2.16,0,0,1-1.44.36h-5.2a1.3,1.3,0,0,1-1.49-1.44V23.74h2v1A16.08,16.08,0,0,0,134.72,23.57Z" style="fill:#fee14f"/><path d="M137.76,24.32h5.88v-.58h2.06v.58h6.06v1.49H145.7v.51h5.13v5.13h-.18A14.18,14.18,0,0,1,152,33.24l-1.5.75h1.17v1.58h-2.55v1.19a1.33,1.33,0,0,1-1.51,1.5h-2.75l-.24-1.77,2,.07c.28,0,.43-.12.43-.36v-.63h-4.8a17.47,17.47,0,0,1,1.81,1.13l-1.37,1.44A19.32,19.32,0,0,0,140,36.2l.56-.63H137.7V34h9.38v-.64c-2.56.17-5.52.26-8.88.29l-.3-1.71c2,.1,3.2.14,3.47.14h2.27v-.61h-4.92V26.32h4.92v-.51h-5.88Zm3,3.94h2.92v-.52h-2.92ZM143.64,30v-.48h-2.92V30Zm2.06-2.25v.52h3.13v-.52ZM148.83,30v-.48H145.7V30Zm.06,1.86-.31-.4H145.7V32C146.84,32,147.9,31.92,148.89,31.85Zm.26,1.33V34h1q-.22-.45-.48-.87Z" style="fill:#fee14f"/><path d="M153.4,26.43h1.82V23.64H157v2.79h1.32v1.71H157v1a11.88,11.88,0,0,1,1.38,1.38V23.93h9.75v1.31H165v.5h2.56v2.33H165v.42h3v1.08H160.2v6.92h.72l-.45-1a8.93,8.93,0,0,0,2.26-.81h-1.9V29.93h6.81V34.7h-2a22.35,22.35,0,0,1,2.29.87l-.47.92h.64v1.32H160.2v.56h-1.81v-7l-.69,1a11.86,11.86,0,0,0-.69-1.25v7.19h-1.79V32A13.8,13.8,0,0,1,154,34.43l-.88-2.11A10.45,10.45,0,0,0,155,28.14H153.4Zm6.8,2.06h3.31v-.42h-2.62V25.74h2.62v-.5H160.2Zm1.81,8h4.72a16.93,16.93,0,0,0-2.4-1l.54-.75h-1.62l.65.75A8.88,8.88,0,0,1,162,36.49Zm1.5-9.37V26.7h-1.12v.42Zm-1,4.19H166v-.49h-3.44Zm0,1.25H166v-.42h-3.44ZM166,33.81v-.42h-3.44v.42Zm.06-6.69V26.7H165v.42Z" style="fill:#fee14f"/><path d="M23.2,27a2.3,2.3,0,0,1-1.68,1.7V40.23H27V28.68c-.32.13-.18.2-1.05.2A3.05,3.05,0,0,1,23.2,27Zm3,6.37a.66.66,0,0,0-1.32,0v2.1a.66.66,0,0,0,1.32,0v-2.1Zm14,2.27a.61.61,0,0,0,0-.89.69.69,0,0,0-.93,0l-2.6,2.48a.61.61,0,0,0,0,.89.69.69,0,0,0,.93,0l2.6-2.48Zm.09-3.8a.61.61,0,0,0,0-.88.67.67,0,0,0-.93,0L33.1,36.83a.62.62,0,0,0,0,.89.69.69,0,0,0,.93,0l6.22-5.92ZM20.14,28.85a2.52,2.52,0,0,1-2.59-2.32h0l3.36-7H42.25l3.38,7h0A2.67,2.67,0,0,1,43,28.87V40.21H44.1c1.64,0,1.64,1.45,0,1.45l-25,0c-1.64,0-1.64-1.45,0-1.45h1.08V28.85Zm21.5-.17A2.42,2.42,0,0,1,40,27a2.64,2.64,0,0,1-2.79,1.92A2.63,2.63,0,0,1,34.37,27a2.64,2.64,0,0,1-2.79,1.92A2.65,2.65,0,0,1,28.78,27c-.07.31-.19.31-.36.57,0,0,0,0,0,.06V40.22H41.64V28.68Zm-7.17-3.52a3,3,0,0,0,2.89,2.68c1.89,0,2.22-1.61,2.26-2.68l-1.39-4.48H34.14l.33,4.48Zm-11-.14c.09,1.06.59,2.82,2.34,2.82a3,3,0,0,0,2.81-2.68l.4-4.48H24.91L23.45,25Z" style="fill:#fff;fill-rule:evenodd"/></g></g></svg>