<svg data-name="图层 1" xmlns="http://www.w3.org/2000/svg" viewBox="0 0 2038.01 229.07"><path d="M1151.05 186.3l-2.52 2.1a48.83 48.83 0 00-8-8.26 76.69 76.69 0 01-7.06 9.91h14.57v2.88h-6.22v6.67h7.93v2.88h-7.93v19.07q1.08-.18 7-2l.12 3.09q-11.5 3.63-19 5.17l-1.05-3q3.93-.72 9.91-2.34v-19.91h-8.44v-2.88h8.44v-6.67h-5.86v-2.31a21.57 21.57 0 01-2.13 2l-2.1-2.34a60 60 0 0011.2-15.56l2.64 1.53a6.29 6.29 0 01-.69 1.35 71.24 71.24 0 019.19 8.62zm-15.11 32.74l-3.09.84a53.08 53.08 0 00-2.46-12.16l2.76-1.05a88 88 0 012.79 12.37zm13.64-11.62a66 66 0 01-2.58 10.57l-2.94-.93a43.31 43.31 0 002.64-10.45zm30.15 17.33a3.51 3.51 0 01-1.37 3.11q-1.37.95-5.57.95-1.62 0-3.72-.12l-1-3.18q2.67.15 5.44.15a7.19 7.19 0 002.61-.27.88.88 0 00.48-.81v-13.4q-8.53 4.35-19.37 9l-1.65-2.22a32.9 32.9 0 01-4.56 10.87l-2.64-2q5.11-7.54 5.11-20.72v-12.66h11.38v-18.41h3.15v18.41h11.74zm-19.82-35.9l-2.82 1.41a53.07 53.07 0 00-5.71-12.1l2.82-1.59a57.51 57.51 0 015.71 12.28zm16.67 19.07v-11.38h-19.91v5.11a75.16 75.16 0 0116.67 2.16l-1.07 3.04a74.36 74.36 0 00-15.62-2.19 85.28 85.28 0 01-1 12.7 176.71 176.71 0 0020.93-9.51zm5.62-29.88a70.24 70.24 0 01-7 12.1l-2.82-1.71a62 62 0 007-12.07zm61.87 28.98h-45v-18.44a68.4 68.4 0 01-6.46 6.64l-2.46-2.07a62.36 62.36 0 0014-18.53l3.18 1-3.06 5.41h15a42.25 42.25 0 00-2.85-5.23l3-.93a30.94 30.94 0 013.06 6.16h20.79v3.09h-20.9v4.35h18.2v2.94h-18.2v4.81h18.26v2.88h-18.26v5h21.65zm-4.63 21.59h-3.17v-3.24h-34.81v3.24h-3.19v-17.09h41.21zm-3.18-6.28v-7.69h-34.81v7.69zm-17-33.88v-4.35h-17v4.35zm0 7.63v-4.69h-17v4.69zm0 8v-5h-17v5zm292.9-14.9h-6.58v12a44.12 44.12 0 005.83-3l.69 3.27q-3.69 2-6.52 3.12v19.34q0 3-1.77 3.92a9.93 9.93 0 01-4.56.92h-2.76l-1.17-3 5.59-.12q1.53 0 1.53-1.59v-18a37.4 37.4 0 01-6.82 2.58l-.93-2.79q3.63-1.32 7.75-3.12v-13.48h-8v-3.06h8v-11.2h3.15v11.2h6.58zm36.61 34.21l-2.1 2.82a58.38 58.38 0 01-15.5-17.27v20h-3.27v-19.67q-5.5 9.28-16.49 16.79l-2.19-2.58q11.92-7.72 16.67-16.91h-13.36v-3h15.38v-6h3.27v6h17v3h-14.63q4.72 9.28 15.22 16.82zm-3.69-46.07q-11.35 4.63-30.63 5.56l-1.41-3q18.92-.81 30.3-5.29zm-23.07 19.53l-2.79 1.38a64.62 64.62 0 00-5-10.15l2.64-1.68a54.7 54.7 0 015.15 10.45zm10.87-2.58l-3 1a52.21 52.21 0 00-3.45-10l2.82-1.2a50.46 50.46 0 013.63 10.22zm14.15-9.58a58.3 58.3 0 01-6.28 13.4l-2.94-1.08a68.15 68.15 0 006.16-13.37zm25.7 28.94h-9.34l1.71 1.41a57.34 57.34 0 01-6.76 14l-2.28-2a74.87 74.87 0 006.34-13.46h-3.87v-36.37h14.21zm-3-25.41v-8.14h-8.11v8.14zm0 11v-8h-8.11v8zm0 11.5v-8.47h-8.11v8.47zm4.29 14.54l-2.64 1.23a60.77 60.77 0 00-4.11-9.37l2.7-1.23a60.48 60.48 0 014.05 9.36zm35.8-6.91h-4.17v6.16a4.43 4.43 0 01-.75 2.73 3.58 3.58 0 01-1.89 1.32 19.59 19.59 0 01-4.5.33q-1.68 0-3.12-.09l-1.17-3.12q2 .06 6.88.06 1.62 0 1.62-1.71v-5.68h-20.45v10.66h-3v-10.66h-5v-2.7h5v-14.51h11.44v-4.62h-15.68v-2.67h9.1v-4.75h-6.58v-2.7h6.58v-4.11h-8.62v-2.7h8.62v-4.5h3v4.5h10.14v-4.5h3v4.5h8.47v2.7h-8.47v4.11h6.46v2.7h-6.46v4.75h9.4v2.64h-15.92v4.63h11.86v14.51h4.17zm-19.13-9.88v-4.5h-8.42v4.5zm0 7.18v-4.35h-8.42v4.35zm6.58-29.22v-4.11h-10.15v4.11zm0 7.45v-4.75h-10.15v4.72zm5.44 14.6v-4.5h-8.92v4.5zm0 7.18v-4.35h-8.92v4.35zm250.89-26.81l-1.77 2.7a90.92 90.92 0 01-15.14-6.64v2.7h-19.67v-2.1a70.49 70.49 0 01-15.5 6.4l-1.62-2.82q16.85-4.5 26.22-15.2l3.69.81-.93 1.23q9.58 7.99 24.72 12.92zm-6.94 20.15h-34q-1.14 10.15-9 19.25l-2.46-2.07a38.25 38.25 0 006.7-11.49 40.49 40.49 0 002-13.44v-10.12h36.67zm-3.21-10.57v-4.42h-30.24v4.42zm0 7.57v-4.69h-30.24V206zm4.87 22.19h-3.24v-2.64h-27.87v2.64h-3.33v-14.81h34.39zm-3.24-5.47v-6.58h-27.87v6.58zm-9.13-38a73.39 73.39 0 01-9.22-6.61 48 48 0 01-8.41 6.61zm78.86-1.87h-44.6v9.46q0 23.58-6.52 36.31l-2.88-2a43.31 43.31 0 004.32-11.71q1.83-7.54 1.83-23v-11.74h23.25q-.63-1.56-2.34-5l2.76-1.17a43.33 43.33 0 013 6.16h21.17zm.18 38.32h-20.12v6.88h-3.12v-6.88h-20.3v-2.76h20.3v-4.33h-16.31V196h16.31v-4.66h-18.83v-2.7h18.83v-3.79h3.12v3.75h18.71v2.7h-18.71v4.66h15.95v18.08h-15.95v4.33h20.12zm-23.25-17.54v-4.93h-13.15v4.93zm0 7.75v-5h-13.15v5zm16.07-7.75v-4.93h-12.94v4.93zm0 7.75v-5h-12.94v5zm41.39-29.89h-17.24a50.32 50.32 0 01-6.76 6.94l-2.46-2a38.81 38.81 0 0010.21-12.55l3 1.23a35.56 35.56 0 01-2 3.57h15.26zm25.71 20.6h-3.09v-8.56h-44.15v8.5h-3.12v-11.44h23.19a14.8 14.8 0 00-1.47-3.39l2.76-1a17.24 17.24 0 012 4.41h23.94zm-5.59 23.37h-34.57v2.52h-3.21v-29.82h36v10.57h-32.77v4.87h34.5zm-5-19.67v-4.75h-29.58v4.75zm1.83 16.73v-6h-31.42v6zm-23.37-34.93l-2.82 1.23a29 29 0 00-3.45-5.11l2.76-1.11a26.93 26.93 0 013.53 4.99zm33.58-6h-19.67a43.71 43.71 0 01-4.69 4.81l-2.52-1.8q6.64-6.37 8.44-10.51l3 1.17a27 27 0 01-2 3.45h17.48zm-9 6.4l-2.7 1.05a41.89 41.89 0 00-3.15-5.35l2.91-1.05a29.81 29.81 0 012.98 5.31zm35.3 25.55q-6.67 3.81-17.42 9.22l-1.35-2.7q5.65-2.7 8.56-4.42v-17h-7.18v-3h7.15v-14.09h-8.15v-2.88h18.35v2.88h-7.15v14.09h6.4v3h-6.4v15.32q3.15-1.56 6.7-3.75zm35.35 13.4h-35.44v-3h16.07v-8.8h-13.73v-3.06h13.73v-7.57h-13.21v-28.59h29.76v28.59h-13.43v7.57h14.15v3.06h-14.15v8.8h16.25zm-19.37-38.35v-9.67h-10.09v9.67zm0 12.79v-9.79h-10.09v9.79zm13.39-12.79v-9.67h-10.27v9.67zm0 12.79v-9.79h-10.27v9.79zm-1621.76-.94h-31.21v-3h8.62a67.27 67.27 0 00-3.57-11.23l2.4-1.8h-6.16v-3.06h13.61a36.26 36.26 0 00-3.45-6.22l2.88-1.11a35 35 0 013.9 7.33h11.98v3.06h-6.22l2.34 1.62a82.36 82.36 0 01-4.11 11.41h9zm-3.63 27.6h-3.27v-4.11h-17.1v4.11h-3.21v-21.5h23.64zm-3.27-7.24v-11.14h-17.1v11.19zm-1.05-36.43h-15.38a80.25 80.25 0 014 13h7a59.54 59.54 0 004.39-13zm23.58 13.67q6.25 7.69 6.25 15.41 0 4-1.88 5.83t-7.58 1.83q-1 0-2-.06l-.87-3.27a28.66 28.66 0 003.48.18 12.73 12.73 0 003.6-.33 3 3 0 001.58-1.44 6.56 6.56 0 00.65-3.24q0-6.85-6.49-14.36a187.26 187.26 0 005.56-19h-11.77v48.44h-3v-51.54h17.84v3.09q-2.54 9.84-5.36 18.46zm38.37 2.22h-18v27.84h-3.39v-52h21.39zM461 186.47v-7.21h-14.69v7.21zm0 10.51v-7.45h-14.69v7.45zm30.51 26.16a5.18 5.18 0 01-1 3.36 4.19 4.19 0 01-2.15 1.49 23.81 23.81 0 01-4.91.31q-1.8 0-4.54-.09l-1.29-3.42q2.19.18 5 .18a18.12 18.12 0 004.87-.35 1.25 1.25 0 00.75-1.25v-23.13h-18v-24.09h21.14zm-3.18-36.67v-7.21h-14.84v7.21zm0 10.51v-7.45h-14.84v7.45zm66.99 29.59H501.8v-3.18h25.29v-16.54h-20.12v-3.21h20.12v-15h-23v-3.21h24a39.84 39.84 0 00-5.8-10.09l3.15-1.23a56.38 56.38 0 016.13 11.32h21.59v3.21h-22.65v15h19.58v3.21h-19.58v16.55h24.81zm34.57-45.08h-17.24a50.35 50.35 0 01-6.76 6.94l-2.46-2a38.81 38.81 0 0010.21-12.55l3 1.23a35.47 35.47 0 01-2 3.57h15.26zm25.71 20.6h-3.09v-8.56h-44.15v8.5h-3.09v-11.44h23.19a14.85 14.85 0 00-1.47-3.39l2.76-1a17.24 17.24 0 012 4.41h23.94zm-5.59 23.37h-34.57v2.52h-3.17v-29.82h36v10.57H575.5v4.87h34.57zm-5-19.67v-4.75h-29.58v4.75zm1.83 16.73v-6h-31.42v6zm-23.37-34.93l-2.82 1.23a29 29 0 00-3.45-5.11l2.76-1.11a26.91 26.91 0 013.54 4.99zm33.58-6h-19.67a43.76 43.76 0 01-4.69 4.81l-2.52-1.8q6.64-6.37 8.44-10.51l3 1.17a27 27 0 01-2 3.45h17.48zm-9 6.4l-2.7 1.05a41.84 41.84 0 00-3.15-5.35l2.91-1.05a29.78 29.78 0 012.98 5.31z" fill="#fff"/><path d="M129.95 119.92l3.28 16.42a6 6 0 01-1.64 5.42 7.75 7.75 0 01-5.48 2.27h-2.66a7.75 7.75 0 01-5.48-2.27 6 6 0 01-1.64-5.42l3.28-16.42-4.46-4.46a4.54 4.54 0 010-6.42l6.42-6.42a4.54 4.54 0 016.42 0l6.42 6.42a4.54 4.54 0 010 6.42z" fill="#fdfdfd"/><path d="M156.57 144.02h0a4.54 4.54 0 01-4.54-4.54 4.54 4.54 0 014.54-4.54h26.16a19.93 19.93 0 00-8.33-10.58 50.74 50.74 0 00-11.13-5.06l-2.75-1-2.82-1c-16.59-5.7-23.81-10.72-23.81-23.29a20 20 0 013.59-11.17c.73-1.13 1.5-2.19 2.59-3.59-.54.7 1.93-2.46 2.46-3.16 3.51-4.67 5-8.3 5-13.86V48.61c0-13.21-9.47-22.7-22.7-22.7s-22.7 9.49-22.7 22.7v13.62c0 5.56 1.48 9.18 5 13.86.52.69 2.95 3.8 2.48 3.19 1.07 1.38 1.84 2.43 2.56 3.55A20 20 0 01115.76 94c0 12.58-7.23 17.58-23.9 23.3l-2.74.93-2.67.92c-5.21 1.84-8.61 3.34-11.27 5.11a23.22 23.22 0 00-6.29 7.12 2.27 2.27 0 00.72 3.13 2.27 2.27 0 001.21.35h22.25a4.54 4.54 0 014.54 4.54 4.54 4.54 0 01-4.54 4.54H63.95a6.81 6.81 0 01-6.81-6.81 6.81 6.81 0 01.14-1.37 29.07 29.07 0 0112.88-19.06c13.66-9.08 36.53-9.08 36.53-22.7 0-9.08-13.62-13.58-13.62-31.78V48.6c0-18.2 13.51-31.78 31.78-31.78s31.78 13.58 31.78 31.78v13.62c0 18.2-13.62 22.7-13.62 31.78 0 13.62 22.71 13.62 36.45 22.7q11.75 7.76 13.45 22.16a4.54 4.54 0 01-4 5 4.57 4.57 0 01-.53 0zm708.79-6.42h-81.58a4.45 4.45 0 01-3.15-1.3 4.45 4.45 0 01-1.3-3.15V16.85a4.45 4.45 0 011.3-3.15 4.45 4.45 0 013.15-1.3h81.58a4.45 4.45 0 013.15 1.3 4.45 4.45 0 011.3 3.15v116.3a4.45 4.45 0 01-1.3 3.15 4.45 4.45 0 01-3.15 1.3zm-77.13-8.9h72.68V21.31h-72.64zm0 0" fill="none" stroke="#fdfdfd" stroke-width="2.253"/><path d="M832.1 56.19h-18.83a1.48 1.48 0 01-1.48-1.48 1.48 1.48 0 011.48-1.48h18.86a1.48 1.48 0 011.48 1.48 1.48 1.48 0 01-1.48 1.48zm0 8.41h-18.83a1.48 1.48 0 01-1.48-1.48 1.48 1.48 0 011.48-1.48h18.86a1.48 1.48 0 011.48 1.48 1.48 1.48 0 01-1.48 1.48zm0 0" fill="#fdfdfd"/><path d="M823.14 74.11a1.48 1.48 0 01-1-.43 1.48 1.48 0 01-.43-1V54.76a1.48 1.48 0 011.48-1.48 1.48 1.48 0 011.48 1.48v17.92a1.48 1.48 0 01-.43 1 1.48 1.48 0 01-1 .43zm0 0" fill="#fdfdfd"/><path d="M822.46 55.11a1.48 1.48 0 01-1.05-.43l-9.09-9.1a1.48 1.48 0 010-2.08 1.48 1.48 0 012.08 0l9.09 9.09a1.48 1.48 0 01.32 1.62 1.48 1.48 0 01-1.37.92zm0 0" fill="#fdfdfd"/><path d="M823.83 55.24a1.48 1.48 0 01-1.37-.92 1.48 1.48 0 01.32-1.62l9.09-9.09a1.48 1.48 0 012.08 0 1.48 1.48 0 010 2.08l-9.09 9.09a1.48 1.48 0 01-1 .44zm0 0" fill="#fdfdfd"/><path d="M797.72 55.45a3 3 0 01-2.29-1.08 3 3 0 01-.62-2.46 28.8 28.8 0 0128.13-23.27 28.8 28.8 0 0128.35 23 3 3 0 01-.91 2.87 3 3 0 01-2.95.6 3 3 0 01-2-2.28 22.87 22.87 0 00-22.51-18.24 22.87 22.87 0 00-22.33 18.46 3 3 0 01-2.91 2.4zm0 0" fill="#fdfdfd"/><path d="M797.78 55.57a3 3 0 01-2.92-2.36 3 3 0 011.73-3.33l6.49-2.79a3 3 0 013.85 1.57 3 3 0 01-1.5 3.88l-6.48 2.79a3 3 0 01-1.16.24zm25.62 31.24a28.88 28.88 0 01-28.21-23 3 3 0 01.91-2.87 3 3 0 012.95-.6 3 3 0 012 2.28 22.87 22.87 0 0022.45 18.23 22.87 22.87 0 0022.33-18.46 3 3 0 013.47-2.31 3 3 0 012.35 3.44 28.83 28.83 0 01-28.25 23.33zm0 0" fill="#fdfdfd"/><path d="M842.27 68.61a3 3 0 01-2.92-2.36 3 3 0 011.73-3.33l6.49-2.79a3 3 0 013 .32 3 3 0 011.18 2.75 3 3 0 01-1.82 2.38l-6.49 2.79a3 3 0 01-1.16.24z" fill="#fdfdfd"/><path d="M821.46 102.85H800.1a3 3 0 01-3-3 3 3 0 013-3h21.36a3 3 0 013 3 3 3 0 01-3 3zm24.91 16.36h-46.28a3 3 0 01-3-3 3 3 0 013-3h46.28a3 3 0 013 3 3 3 0 01-3 3zm39.16-78.91h-5.93v-7.08a14.68 14.68 0 0114.67-14.68 14.68 14.68 0 0114.68 14.68v6.82h-5.93v-6.82a8.75 8.75 0 00-8.75-8.75 8.75 8.75 0 00-8.75 8.75z" fill="none" stroke="#fdfdfd" stroke-width="2.253"/><path d="M908.97 112.68H879.6v-73h29.37zm-23.44-5.93h17.5V45.64h-17.5zm0 0" fill="none" stroke="#fdfdfd" stroke-width="2.253"/><path d="M894.27 138.06l-14.65-25.38 6.51-.16 8.14 13.67 7.81-13.57 6.84.06zm-2.8-84.41h5.93v42.42h-5.93z" fill="none" stroke="#fdfdfd" stroke-width="2.253"/><path d="M1252.02 130.99h-3.95v-77a3.73 3.73 0 00-3.95-3.95h-18.55a3.73 3.73 0 00-3.95 3.95v27.63h-14.6a3.73 3.73 0 00-3.95 3.95v11.84h-14.21a3.73 3.73 0 00-3.95 3.95v29.6h-75a3.73 3.73 0 00-3.95 3.95 3.73 3.73 0 003.95 3.95H1252a3.73 3.73 0 003.95-3.95 3.73 3.73 0 00-3.93-3.92zm-22.5-73h10.66v71h-10.66v-71zm-18.16 31.58h10.26v39.47h-10.26V89.55zm-18.55 15.79h10.26v23.68h-10.26z" fill="none" stroke="#fdfdfd" stroke-width="2.048"/><path d="M1186.89 73.76a3.59 3.59 0 002.76-1.18l48.31-48.31.24 7.26a4 4 0 003.95 3.95 4 4 0 003.95-3.95l-.39-15.79a3.73 3.73 0 00-3.95-3.95l-15.79.39a3.73 3.73 0 00-3.95 3.95 3.73 3.73 0 003.95 3.95l5.31-.18-47.15 47.15a3.81 3.81 0 000 5.53 3.59 3.59 0 002.76 1.18z" fill="#fdfdfd"/><path d="M1139.53 121.12A39.59 39.59 0 001179 81.65a39.59 39.59 0 00-39.47-39.47 39.59 39.59 0 00-39.47 39.47 39.59 39.59 0 0039.47 39.47zm0-71a31.67 31.67 0 0131.58 31.58 31.67 31.67 0 01-31.58 31.58 31.67 31.67 0 01-31.58-31.58 31.67 31.67 0 0131.58-31.62z" fill="none" stroke="#fdfdfd" stroke-width="2.048"/><path d="M1138.34 85.6h2.37c3.16 0 5.53 2 5.53 4.74s-2.37 4.74-5.53 4.74h-10.66a3.73 3.73 0 00-3.95 3.95 3.73 3.73 0 003.95 3.95h5.53v4.34a3.73 3.73 0 003.95 3.95 3.73 3.73 0 003.95-3.95v-4.6a12.68 12.68 0 0010.66-12.37c0-7.1-5.92-12.63-13.42-12.63h-2.37c-3.16 0-5.53-2-5.53-4.74s2.37-4.74 5.53-4.74h9.47a3.73 3.73 0 003.95-3.95 3.73 3.73 0 00-3.95-3.95h-4.34v-2.37a3.73 3.73 0 00-3.95-3.95 3.73 3.73 0 00-3.95 3.95v2.63a12.68 12.68 0 00-10.66 12.37c0 7.1 5.92 12.63 13.42 12.63z" fill="none" stroke="#fdfdfd" stroke-width="2.048"/><path d="M1604.91 35.18L1591.49 79h-68.6l-12.05-43.82h94.07M1501.27 2.32h-26v11h17.94l3.15 11 17.12 61.89a5.17 5.17 0 001.23 2.05l-8.9 14.24a5.39 5.39 0 00-1.78 4 5.49 5.49 0 005.48 5.48h97.22v-11h-87.09l6.85-11h69.29a5.38 5.38 0 005.07-3.83l16.71-54.5c1.09-3.56-1.37-7.4-5.07-7.4H1507.6zm0 0" fill="none" stroke="#fdfdfd" stroke-width="4.642"/><path d="M1508.1 133.78a11 11 0 0011 11 11 11 0 0011-11 11 11 0 00-11-11 11 11 0 00-11 11zm76.68 0a11 11 0 0011 11 11 11 0 0011-11 11 11 0 00-11-11 11 11 0 00-11 11zm334.26-51.12h-77.19a3 3 0 01-3-3 3 3 0 013-3h77.19a3 3 0 013 3 3 3 0 01-3 3zm71.48 0h-35.51a3 3 0 01-3-3 3 3 0 013-3h35.51a3 3 0 013 3 3 3 0 01-3 3zm0 0" fill="#fdfdfd"/><path d="M1969.27 144.35h-107.4a3 3 0 01-3-2.61l-10.79-88.63a3 3 0 012.59-3.3 3 3 0 013.3 2.59l10.47 86h102.14l10.11-85.3a3 3 0 013.3-2.61 3 3 0 012.61 3.3l-10.42 87.92a3 3 0 01-3 2.62zm0 0" fill="#fdfdfd"/><path d="M1939.57 94.21h-58.3a3 3 0 01-3-3 3 3 0 013-3h58.35a3 3 0 013 3 3 3 0 01-3 3zm4.56 24.96h-47.71a3 3 0 01-3-3 3 3 0 013-3h47.71a3 3 0 013 3 3 3 0 01-3 3zm-14.24-96.21V52.5h-8.62l17.27 29.54 17.27-29.54h-8.63V22.96h-17.29z" fill="#fdfdfd"/><path d="M552.88 36.04H438.99a9.07 9.07 0 00-9.23 9.23v86.19a9.07 9.07 0 009.23 9.23h113.89a9.07 9.07 0 009.23-9.23V45.27a9.07 9.07 0 00-9.23-9.23zm3.08 95.42a2.91 2.91 0 01-3.08 3.08H438.99a2.91 2.91 0 01-3.08-3.08V66.85h120zm0-70.8h-120V45.27a2.91 2.91 0 013.08-3.08h113.89a2.91 2.91 0 013.08 3.08z" fill="#f7f7f7"/><path d="M488.27 85.29h18.47a2.91 2.91 0 003.08-3.08 2.91 2.91 0 00-3.08-3.08h-18.47a2.91 2.91 0 00-3.08 3.08 2.91 2.91 0 003.08 3.08zm-18.5-28.44a2.91 2.91 0 003.08-3.08V43.3a5.13 5.13 0 015.23-4.93h38.79a5.13 5.13 0 015.23 4.93v10.47a2.91 2.91 0 003.08 3.08 2.91 2.91 0 003.08-3.08V43.3a11.3 11.3 0 00-11.39-11.08h-38.79a11.3 11.3 0 00-11.39 11.08v10.47a2.91 2.91 0 003.08 3.08z" fill="#fdfdfd"/><path d="M51.78 183.54H0v-2.94h24.36a17.92 17.92 0 00-1.77-4.93l3.12-1a29.23 29.23 0 012 5.92H51.8zm-2.64 40.49a5.24 5.24 0 01-1.11 3.48q-1.11 1.32-5.35 1.32-1.38 0-3.36-.09l-1.05-3.18q3.72.15 5 .15 2.7 0 2.7-2.25v-17.09h-40v22.44H2.82v-25.53h46.31zm-6-24.87H8.69v-11.68h34.45zm-3.39-3v-5.59H12v5.59zm-1.23 26.4H13.27v-12H38.5zm-3.27-3v-6H16.63v6zm38.02-25.45q5.2 7.24 5.2 13.15 0 7.33-7.09 7.33-1.29 0-3.09-.18l-.93-3.12q2 .15 3.42.15 4.47 0 4.48-3.45 0-6.76-5.44-13.24a153.39 153.39 0 004.56-15.2H66v49.26h-3.18v-52.32h15v3.06q-1.45 5.1-4.55 14.56zm22.59.87a129.06 129.06 0 01-13.36 5l-1.53-2.58a2.42 2.42 0 001-1.92v-20.42h3v6.79h10.3v3.06H84.94v10.84a104.32 104.32 0 0010.45-3.87zm14.15 33.82h-3.27v-3.36H85.96v3.36h-3.21v-25.08h8.26a34.64 34.64 0 002.28-5.47l3.06.78a30.59 30.59 0 01-1.83 4.69h15.5zm-3.27-15.86v-6.16H85.96v6.16zm0 9.4v-6.4H85.96v6.4zm7.51-31.6a12.42 12.42 0 01-1 5.24 4.23 4.23 0 01-2.27 2.06 20.58 20.58 0 01-5.59.48 33.87 33.87 0 01-4.25-.17 4.32 4.32 0 01-2.1-1.08 3.62 3.62 0 01-1.07-2.9v-19.34h3.15v6.82h10.87v3.06h-10.87v9a1.19 1.19 0 00.57 1.2 9.69 9.69 0 003 .27 17 17 0 004.93-.39 2.65 2.65 0 001.2-2 14.18 14.18 0 00.36-3.17zm61.18 36.52h-53.52v-3.18h25.29v-16.55h-20.12v-3.21h20.12v-15h-23v-3.21h24a39.84 39.84 0 00-5.8-10.09l3.15-1.23a56.38 56.38 0 016.13 11.32h21.59v3.21h-22.65v15h19.58v3.21h-19.58v16.55h24.81zm34.56-45.08h-17.24a50.33 50.33 0 01-6.76 6.94l-2.46-2a38.81 38.81 0 0010.21-12.55l3 1.23a35.52 35.52 0 01-2 3.57H210zm25.71 20.6h-3.09v-8.56h-44.15v8.5h-3.12v-11.44h23.19a14.83 14.83 0 00-1.47-3.39l2.76-1a17.24 17.24 0 012 4.41h23.94zm-5.59 23.37h-34.57v2.52h-3.21v-29.82h36v10.57h-32.77v4.87h34.57zm-5-19.67v-4.75h-29.58v4.75zm1.83 16.73v-6h-31.42v6zm-23.37-34.93l-2.82 1.23a29 29 0 00-3.45-5.11l2.76-1.11a26.92 26.92 0 013.54 4.99zm33.58-6h-19.67a43.74 43.74 0 01-4.69 4.81l-2.52-1.8q6.64-6.37 8.44-10.51l3 1.17a27 27 0 01-2 3.45h17.48zm-9 6.4l-2.7 1.05a41.86 41.86 0 00-3.15-5.35l2.91-1.05a29.79 29.79 0 012.98 5.31zm578.81 25.55H793.9l1.62 1.11a54.36 54.36 0 01-9.31 13.46l-2.52-2.19a45.59 45.59 0 008.86-12.37h-5.83v-36.39h20.24zm-3.15-25.59v-7.69h-13.85v7.69zm0 11.26v-8.2h-13.85v8.2zm0 11.26v-8.2h-13.85v8.2zm5.47 15.17l-2.88 1.74a57.83 57.83 0 00-7.06-10.63l2.88-1.56a75.31 75.31 0 017.05 10.45zm27.69-36.7h-5.59v34.51a4.28 4.28 0 01-1.13 2.94 4.15 4.15 0 01-2.67 1.44q-1.55.18-8.57.09l-1.11-3.3q3.3.24 5.35.24 3.81 0 4.37-.63a1.85 1.85 0 00.56-1.17v-28.47a68.82 68.82 0 01-17.54 22.07l-2.37-2.37a60.22 60.22 0 0019.19-25.35h-17.84v-3.21h18.56v-11.44h3.21v11.44h5.59zm31.5 5.35a26.69 26.69 0 01-4.81 14.15l-2.34-2.22a25.77 25.77 0 003.69-8.86h-5.74v27a4.24 4.24 0 01-1 2.51q-1 1.31-5 1.31a20.49 20.49 0 01-2.82-.18l-1.8-3.3q3.9.3 6.1.3a1.5 1.5 0 001-.45 1.25 1.25 0 00.51-.9v-22.19q-4.48 11.29-9.34 17.63l-2.1-2.46q5.41-7 9.79-19.25h-9.55v-3.06h13.61a50.37 50.37 0 00-9.46-8.29l2.25-2q2.19 1.5 5.56 4.29a56.41 56.41 0 006.76-9.28h-16.51v-3.06h20v3.06a67.32 67.32 0 01-7.9 11.32l2.1 2.34-1.89 1.65zm26.43 14.09a87.66 87.66 0 01-1 11.32q-.81 5-1.64 6.1a7.79 7.79 0 01-2.07 1.82q-1.25.77-7.91.56l-1.47-3.3q1.89.15 4.11.15a13.1 13.1 0 004-.33 2.36 2.36 0 001-1 17.4 17.4 0 00.84-4.07q.48-3.42.87-8.2h-10.27q-2.58 11.86-15.26 16.94l-2.34-2.52a22.45 22.45 0 009.19-5.6 18.3 18.3 0 005.26-8.81h-9.76v-3.06h10.51a40.11 40.11 0 00.54-6.16l3.09.12a47.58 47.58 0 01-.51 6zm3.63-7.45l-1.77 2.76a43.37 43.37 0 01-13.25-6.58 46.66 46.66 0 01-11.8 6.46l-2.16-2.64a38.45 38.45 0 0011.44-5.83 33.82 33.82 0 01-5.53-6.85l2.7-1.53a25.55 25.55 0 005.23 6.4 23.28 23.28 0 006.52-9.91h-13.16a46 46 0 01-7.21 7.57l-2.37-2.19a43.84 43.84 0 0011.56-14.48l3.06 1.17a38.48 38.48 0 01-2.88 4.87h18.68v3.01h-4.32a28.87 28.87 0 01-7.27 11.83 40.12 40.12 0 0012.53 5.94z" fill="#fff"/></svg>