<?xml version="1.0" encoding="utf-8"?>
<!-- Generator: Adobe Illustrator 13.0.1, SVG Export Plug-In . SVG Version: 6.00 Build 14948)  -->
<!DOCTYPE svg PUBLIC "-//W3C//DTD SVG 1.1//EN" "http://www.w3.org/Graphics/SVG/1.1/DTD/svg11.dtd">
<svg version="1.1" id="圖層_1" xmlns="http://www.w3.org/2000/svg" xmlns:xlink="http://www.w3.org/1999/xlink" x="0px" y="0px"
	 width="575.001px" height="238.969px" viewBox="0 0 575.001 238.969" enable-background="new 0 0 575.001 238.969"
	 xml:space="preserve">
<g>
	<path fill="#033775" d="M575.001,229.599c0,5.175-4.194,9.369-9.369,9.369H280.323c-5.175,0-9.369-4.194-9.369-9.369V9.369
		c0-5.175,4.194-9.369,9.369-9.369h285.309c5.175,0,9.369,4.194,9.369,9.369V229.599"/>
	<rect x="378.19" y="77.082" fill="#FFFFFF" width="133.051" height="0.617"/>
	<rect x="448.876" y="65.527" fill="#FFFFFF" width="0.619" height="11.492"/>
	<rect x="510.623" y="77.08" fill="#FFFFFF" width="0.618" height="11.492"/>
	<rect x="378.19" y="77.081" fill="#FFFFFF" width="0.619" height="11.491"/>
	<rect x="345.083" y="140.598" fill="#FFFFFF" width="66.834" height="0.618"/>
	<rect x="378.19" y="129.044" fill="#FFFFFF" width="0.619" height="11.492"/>
	<rect x="411.3" y="140.597" fill="#FFFFFF" width="0.617" height="11.491"/>
	<rect x="345.084" y="140.597" fill="#FFFFFF" width="0.618" height="11.491"/>
	<rect x="477.515" y="140.598" fill="#FFFFFF" width="66.834" height="0.618"/>
	<rect x="510.623" y="129.044" fill="#FFFFFF" width="0.618" height="11.492"/>
	<rect x="543.731" y="140.597" fill="#FFFFFF" width="0.617" height="11.491"/>
	<rect x="477.515" y="140.597" fill="#FFFFFF" width="0.618" height="11.491"/>
	<rect x="354.953" y="87.091" fill="#08A39F" width="47.094" height="41.621"/>
	<path fill="#FFFFFF" d="M377.668,103.455l-0.797,1.072c-2.933-1.87-4.839-4.358-5.719-7.464c-0.922,2.986-2.85,5.438-5.782,7.356
		l-0.79-1.152c3.029-1.976,4.875-4.397,5.537-7.262h-5.226l-0.015-1.333h5.414c0.105-1.039,0.166-2.097,0.181-3.174h1.333
		c-0.014,1.29-0.057,2.348-0.13,3.174h5.805v1.333h-5.377C372.827,99.193,374.682,101.676,377.668,103.455z"/>
	<path fill="#FFFFFF" d="M382.734,96.077c0.738,1.31,1.107,2.512,1.107,3.609c0,1.208-0.702,1.756-2.108,1.646l-0.369-1.261
		c0.256,0.034,0.476,0.051,0.659,0.051c0.232,0,0.385-0.044,0.457-0.134c0.072-0.089,0.108-0.235,0.108-0.438
		c0-0.985-0.403-2.125-1.21-3.42c0.41-0.995,0.748-2.01,1.014-3.044h-1.246v11.371h-1.283V91.822h3.834v1.261
		C383.408,94.161,383.086,95.159,382.734,96.077z M392.379,104.143h-9.174v-1.189h4.217v-1.638h-3.086v-1.138h3.086V98.78h1.291
		v1.399h3.203v1.138h-3.203v1.638h3.666V104.143z M392.395,96.482h-2.465v1.16l0.102,0.199l0.195,0.112h2v1.138h-2.398
		c-0.343,0-0.619-0.108-0.83-0.326c-0.209-0.217-0.314-0.495-0.314-0.833v-1.45h-1.471c-0.034,0.744-0.288,1.395-0.762,1.953
		c-0.473,0.558-1.08,0.936-1.818,1.134l-0.682-1.116c1.252-0.304,1.913-0.961,1.986-1.971h-2.066v-1.188h3.537v-1.305h-3.059v-1.145
		h3.059v-1.333h1.305v1.333h3.203v1.145h-3.203v1.305h3.682V96.482z"/>
	<path fill="#FFFFFF" d="M368.957,115.91c-0.328,0.169-0.777,0.382-1.348,0.638v4.393c0,0.309-0.065,0.56-0.195,0.753
		c-0.131,0.193-0.293,0.325-0.486,0.396s-0.553,0.104-1.08,0.104c-0.266,0-0.52-0.012-0.76-0.036l-0.326-1.348
		c0.521,0.049,0.928,0.072,1.217,0.072c0.092,0,0.172-0.043,0.239-0.127s0.102-0.175,0.102-0.271v-3.428
		c-0.556,0.217-1.061,0.394-1.515,0.529l-0.254-1.247c0.609-0.165,1.198-0.372,1.769-0.624v-2.848h-1.608v-1.261h1.608v-2.363h1.29
		v2.363h1.138v1.261h-1.138v2.333c0.536-0.232,0.985-0.435,1.348-0.608V115.91z M377.581,121.968h-8.696v-1.247h3.739v-2.572h-3.218
		v-1.29h7.834v1.29h-3.268v2.572h3.608V121.968z M377.479,115.779h-2.602c-0.28,0-0.522-0.115-0.728-0.344
		c-0.206-0.229-0.309-0.501-0.309-0.815v-2.587h-0.993c0.01,0.879-0.229,1.708-0.718,2.486c-0.487,0.778-1.145,1.375-1.971,1.79
		l-0.877-0.949c0.711-0.294,1.281-0.754,1.714-1.377c0.433-0.624,0.649-1.273,0.649-1.95h-1.117v1.442h-1.333v-2.652h3.428
		c-0.13-0.416-0.357-0.848-0.681-1.297l1.333-0.428c0.339,0.565,0.63,1.14,0.877,1.725h3.282v2.696h-1.34v-1.486h-1.021v2.232
		c0,0.217,0.099,0.326,0.297,0.326h2.108V115.779z"/>
	<path fill="#FFFFFF" d="M384.408,120.983c0,0.836-0.486,1.254-1.457,1.254c-0.213,0-0.436-0.012-0.667-0.037l-0.485-1.304
		c0.179,0.01,0.559,0.015,1.138,0.015c0.14,0,0.21-0.068,0.21-0.203v-3.58c-0.454,0.57-0.859,1.046-1.217,1.427l-0.442-0.746
		c-0.149,2.078-0.466,3.568-0.949,4.471l-1.073-0.833c0.518-1.145,0.775-2.783,0.775-4.914v-7.022h4.168V120.983z M383.146,113.815
		V110.8h-1.645v1.682l0.754-0.551C382.646,112.622,382.943,113.25,383.146,113.815z M383.146,115.033v-0.848l-0.877,0.66
		c-0.13-0.565-0.387-1.21-0.768-1.935v4.16C382.115,116.427,382.664,115.748,383.146,115.033z M392.59,121.149l-0.66,1.131
		c-1.231-0.309-2.379-0.859-3.441-1.652c-0.855,0.639-1.914,1.189-3.175,1.652l-0.725-1.131c1.067-0.313,2.026-0.768,2.877-1.362
		c-0.729-0.773-1.333-1.819-1.812-3.138h-0.652v-1.247h6.588v1.247c-0.629,1.314-1.319,2.338-2.072,3.073
		C390.362,120.326,391.387,120.801,392.59,121.149z M392.438,114.591h-2.109c-0.289,0-0.525-0.104-0.706-0.312
		c-0.181-0.208-0.272-0.447-0.272-0.717v-2.682h-2.064v0.667c0,1.483-0.479,2.641-1.436,3.471l-1.087-0.848
		c0.802-0.599,1.203-1.488,1.203-2.667v-1.884h4.675v3.515c0,0.16,0.079,0.239,0.238,0.239h1.559V114.591z M390.09,116.649h-3.037
		c0.406,0.99,0.904,1.749,1.493,2.275C389.213,118.181,389.727,117.422,390.09,116.649z"/>
	<rect x="487.385" y="87.091" fill="#08A39F" width="47.095" height="41.621"/>
	<path fill="#FFFFFF" d="M509.73,100.758h-5.805c-0.855,1.986-2.918,3.247-6.189,3.783l-0.638-1.275
		c2.88-0.507,4.655-1.343,5.327-2.508h-4.973v-1.087h5.35c0.066-0.314,0.101-0.64,0.101-0.979h1.333
		c-0.014,0.392-0.033,0.717-0.057,0.979h5.551V100.758z M510.027,98.265h-12.885v-1.072h5.761v-0.95h-4.515v-1.051h4.515v-0.906
		h-5.152v-1.073h11.624v1.073h-5.123v0.906h4.5v1.051h-4.5v0.95h5.775V98.265z M502.324,92.714l-1.377,0.37
		c-0.324-0.464-0.687-0.894-1.088-1.29l1.319-0.435C501.604,91.77,501.985,92.221,502.324,92.714z M510.193,103.52l-0.818,1.037
		c-1.556-0.923-3.401-1.679-5.537-2.269l0.805-1.102C506.98,101.901,508.832,102.679,510.193,103.52z M507.477,91.656
		c-0.275,0.44-0.616,0.896-1.021,1.37l-1.457-0.362c0.469-0.483,0.833-0.923,1.094-1.319L507.477,91.656z"/>
	<path fill="#FFFFFF" d="M524.348,104.418h-1.334v-0.573h-9.232v0.573h-1.305V91.67h11.871V104.418z M523.014,102.686v-9.842h-9.232
		v9.842H523.014z M518.578,100.65c-1.387,0.536-2.84,0.978-4.362,1.326l-0.151-1.188c1.42-0.271,2.905-0.691,4.456-1.261
		L518.578,100.65z M522.832,100.07c-0.241,1.455-0.756,2.182-1.543,2.182c-0.488,0-0.928-0.341-1.318-1.022
		c-0.449,0.517-0.895,0.928-1.334,1.232l-0.862-0.848c0.565-0.44,1.126-0.993,1.681-1.66c-0.357-1.131-0.605-2.66-0.746-4.588h-4.42
		v-1.051h4.348c-0.01-0.188-0.015-0.57-0.015-1.145l1.218-0.029c-0.015,0.401,0,0.792,0.043,1.174h1.674
		c-0.361-0.222-0.787-0.406-1.275-0.551l0.718-0.739c0.483,0.165,0.938,0.372,1.362,0.624l-0.637,0.667h0.818v1.051h-2.616
		c0.067,1.295,0.21,2.344,0.427,3.146c0.421-0.797,0.793-1.713,1.117-2.747l1.051,0.493c-0.459,1.599-1.037,2.892-1.732,3.877
		c0.072,0.251,0.169,0.451,0.29,0.598c0.12,0.147,0.202,0.221,0.246,0.221c0.067,0,0.157-0.138,0.269-0.413s0.203-0.703,0.275-1.283
		L522.832,100.07z M518.158,99.287h-3.543v-3.16h3.543V99.287z M516.941,98.229v-1.022h-1.124v1.022H516.941z"/>
	<path fill="#FFFFFF" d="M502.621,116.323h-5.74v4.573c0,0.31-0.093,0.573-0.279,0.794c-0.186,0.219-0.393,0.359-0.619,0.42
		s-0.695,0.09-1.406,0.09c-0.361,0-0.722-0.01-1.079-0.028l-0.392-1.29c0.584,0.043,1.039,0.065,1.362,0.065
		c0.45,0,0.735-0.032,0.858-0.095c0.124-0.063,0.186-0.19,0.186-0.384v-4.146h-5.775v-1.29h5.775v-1.812
		c1.115-0.608,2.239-1.389,3.369-2.341h-7.449v-1.304h9.573v1.304c-1.14,1.058-2.515,2.097-4.124,3.117v1.036h5.74V116.323z"/>
	<path fill="#FFFFFF" d="M510.027,109.648c-0.967,2.614-2.554,4.81-4.762,6.588l-0.848-1.131c1.986-1.493,3.416-3.461,4.291-5.906
		L510.027,109.648z M516.644,121.504l-1.181,0.819c-0.275-0.647-0.554-1.203-0.834-1.667c-2.285,0.536-5.08,1.026-8.385,1.471
		l-0.384-1.131c1.271-0.917,2.759-3.435,4.464-7.551l1.348,0.398c-1.203,2.817-2.439,5.063-3.71,6.74
		c2.228-0.256,4.228-0.606,6.001-1.051c-0.301-0.517-0.814-1.266-1.544-2.247l1.095-0.71
		C514.745,118.123,515.789,119.765,516.644,121.504z M517.615,115.17l-0.79,1.167c-1.837-1.3-3.206-3.194-4.109-5.682h-1.203v-1.261
		h2.152C514.424,111.926,515.74,113.852,517.615,115.17z"/>
	<path fill="#FFFFFF" d="M531.848,120.497c0,1.155-0.564,1.732-1.695,1.732c-1,0-1.732-0.01-2.196-0.029l-0.384-1.333
		c1.102,0.024,1.867,0.036,2.297,0.036c0.426,0,0.639-0.125,0.639-0.377v-9.769h-11.104v-1.218h12.443V120.497z M529.289,113.235
		h-9.572v-1.203h9.572V113.235z M528.34,119.62h-7.762v-5h7.762V119.62z M526.992,118.388v-2.551h-5.094v2.551H526.992z"/>
	<rect x="418.264" y="34.446" fill="#DB4573" width="61.844" height="32.776"/>
	<path fill="#FFFFFF" d="M429.713,52.906c-0.125,1.213-0.367,2.329-0.725,3.349l-1.13-0.529c0.366-1.024,0.608-2.084,0.725-3.182
		L429.713,52.906z M433.084,51.776l-1.073,0.471c-0.048-0.261-0.102-0.498-0.159-0.71c-1.445,0.367-2.652,0.616-3.623,0.747
		l-0.326-1.029c0.787-0.686,1.574-1.706,2.361-3.058c-0.719,0.135-1.394,0.229-2.021,0.283l-0.159-1.167
		c0.851-1.015,1.567-2.377,2.152-4.087l1.167,0.536c-0.508,1.368-1.1,2.462-1.775,3.283c0.449-0.034,0.908-0.104,1.377-0.21
		c0.145-0.271,0.422-0.85,0.833-1.739l1.203,0.551c-1.141,2.338-2.249,4.076-3.327,5.211c0.527-0.087,1.126-0.229,1.798-0.428
		c-0.048-0.203-0.143-0.466-0.282-0.79l1.007-0.427C432.699,50.341,432.982,51.196,433.084,51.776z M431.482,55.588l-1.146,0.225
		c-0.049-1.304-0.147-2.268-0.298-2.892l1.073-0.239C431.324,53.808,431.447,54.776,431.482,55.588z M432.945,54.436l-0.963,0.341
		c-0.078-0.643-0.216-1.341-0.414-2.095l0.921-0.239C432.74,53.153,432.893,53.817,432.945,54.436z M434.714,52.341
		c-0.126,1.28-0.433,2.461-0.921,3.544l-1.051-0.58c0.406-0.898,0.703-2.032,0.893-3.399L434.714,52.341z M440.207,51.254h-6.842
		v-6.986h1.813c0.179-0.299,0.346-0.657,0.5-1.072l1.355,0.253c-0.039,0.145-0.164,0.418-0.377,0.819h3.551V51.254z M438.917,50.116
		v-4.725h-4.247v4.725H438.917z M438.794,48.942l-0.725,0.797c-0.353-0.372-0.621-0.647-0.805-0.826
		c-0.357,0.454-0.679,0.814-0.964,1.08l-0.754-0.667c0.31-0.285,0.626-0.652,0.949-1.102c-0.154-0.154-0.268-0.263-0.34-0.326
		c-0.17,0.213-0.423,0.5-0.762,0.863l-0.681-0.71c0.203-0.193,0.425-0.439,0.667-0.739c-0.154-0.121-0.354-0.266-0.595-0.435
		l0.675-0.797c0.102,0.058,0.268,0.176,0.5,0.355c0.115-0.212,0.243-0.485,0.383-0.819l0.877,0.464l-0.484,0.935
		c0.188,0.145,0.307,0.244,0.354,0.297c0.247-0.343,0.469-0.766,0.667-1.268l0.862,0.464c-0.218,0.536-0.466,1.026-0.747,1.471
		L438.794,48.942z M439.215,54.124c-0.059,0.638-0.146,1.084-0.262,1.341c-0.115,0.256-0.287,0.437-0.514,0.543
		c-0.228,0.106-0.675,0.16-1.342,0.16c-0.42,0-0.766-0.01-1.035-0.029c-0.271-0.02-0.507-0.127-0.707-0.322
		c-0.201-0.196-0.301-0.448-0.301-0.757v-3.167h1.261v2.761c0,0.155,0.051,0.256,0.152,0.305s0.382,0.072,0.841,0.072
		c0.246,0,0.41-0.036,0.492-0.108c0.082-0.073,0.145-0.215,0.189-0.428c0.043-0.212,0.064-0.471,0.064-0.775L439.215,54.124z
		 M438.366,53.232l-1.065,0.486c-0.207-0.681-0.441-1.269-0.703-1.761l1.059-0.406C437.879,51.947,438.115,52.508,438.366,53.232z
		 M441.025,54.863l-1.043,0.638c-0.236-0.957-0.602-1.938-1.094-2.942l1.035-0.623C440.523,53.221,440.891,54.196,441.025,54.863z"
		/>
	<path fill="#FFFFFF" d="M448.28,43.673c-0.966,2.614-2.554,4.81-4.761,6.588l-0.849-1.131c1.985-1.493,3.416-3.461,4.29-5.906
		L448.28,43.673z M454.896,55.53l-1.182,0.819c-0.275-0.648-0.553-1.203-0.833-1.667c-2.285,0.536-5.08,1.026-8.385,1.471
		l-0.384-1.131c1.271-0.917,2.758-3.435,4.464-7.551l1.349,0.398c-1.203,2.817-2.44,5.063-3.711,6.74
		c2.227-0.256,4.228-0.606,6-1.051c-0.299-0.517-0.813-1.266-1.543-2.247l1.094-0.71C452.998,52.148,454.041,53.791,454.896,55.53z
		 M455.867,49.196l-0.789,1.167c-1.836-1.3-3.206-3.194-4.109-5.682h-1.203V43.42h2.152
		C452.677,45.952,453.993,47.877,455.867,49.196z"/>
	<path fill="#FFFFFF" d="M470.102,54.522c0,1.155-0.566,1.732-1.696,1.732c-1.001,0-1.732-0.01-2.196-0.029l-0.384-1.333
		c1.102,0.024,1.867,0.036,2.298,0.036c0.424,0,0.637-0.125,0.637-0.376v-9.77h-11.102v-1.218h12.443V54.522z M467.543,47.261
		h-9.574v-1.203h9.574V47.261z M466.594,53.646h-7.762v-5h7.762V53.646z M465.246,52.414v-2.551h-5.096v2.551H465.246z"/>
	<rect x="321.845" y="151.855" fill="#30C6BE" width="47.096" height="41.622"/>
	<path fill="#FFFFFF" d="M344.574,167.69l-0.638,1.109c-2.333-0.869-4.08-1.998-5.239-3.385v3.74h-1.319v-3.726
		c-1.198,1.329-2.969,2.467-5.312,3.413l-0.639-1.152c2.275-0.826,3.972-1.871,5.088-3.138h-3.74v-5.16h4.603v-0.862h-5.667v-1.203
		h5.667v-1.115h1.319v1.115h5.645v1.203h-5.645v0.862h4.602v5.16h-3.769C340.584,165.727,342.265,166.772,344.574,167.69z
		 M337.378,161.465V160.5h-3.282v0.965H337.378z M337.378,163.458v-0.92h-3.282v0.92H337.378z M341.98,161.465V160.5h-3.283v0.965
		H341.98z M341.98,163.458v-0.92h-3.283v0.92H341.98z"/>
	<path fill="#FFFFFF" d="M359.301,166.632c-0.025,0.744-0.146,1.294-0.363,1.649c-0.217,0.354-0.485,0.57-0.805,0.648
		c-0.318,0.076-1.051,0.115-2.195,0.115c-0.721,0-1.198-0.026-1.436-0.08c-0.236-0.053-0.428-0.178-0.576-0.376
		c-0.146-0.198-0.221-0.503-0.221-0.913v-2.08h-1.869c-0.42,2.131-2.068,3.357-4.943,3.682l-0.652-1.275
		c2.412-0.102,3.814-0.904,4.211-2.406h-4.065v-1.189h12.886v1.189h-4.247v1.812c0,0.237,0.102,0.368,0.304,0.396
		c0.203,0.026,0.658,0.039,1.363,0.039c0.551,0,0.875-0.026,0.975-0.08c0.099-0.053,0.182-0.199,0.246-0.441
		c0.065-0.242,0.098-0.57,0.098-0.985L359.301,166.632z M352.518,158.385h-1.689v1.08h-1.34v-1.08h-3.117v-1.16h3.117v-0.992h1.34
		v0.992h1.689V158.385z M358.959,162.995h-1.305v-1.646h-9.616v1.616h-1.297v-2.805h5.406c-0.048-0.16-0.203-0.447-0.464-0.862
		l1.398-0.399c0.164,0.301,0.382,0.721,0.652,1.262h5.225V162.995z M356.938,163.429h-8.232v-1.203h8.232V163.429z M359.271,158.385
		h-3.088v1.094h-1.305v-1.094h-1.652v-1.16h1.652v-0.992h1.305v0.992h3.088V158.385z"/>
	<path fill="#FFFFFF" d="M344.443,186.465h-12.855v-1.312h12.855V186.465z M343.451,175.877h-10.878v-1.305h10.878V175.877z"/>
	<path fill="#FFFFFF" d="M359.314,176.283H348.48v4.037c0,2.972-0.355,5.196-1.065,6.675l-1.044-0.92
		c0.537-1.262,0.805-2.854,0.805-4.777v-6.217h5.313c-0.088-0.193-0.252-0.467-0.493-0.82l1.37-0.369
		c0.149,0.208,0.377,0.604,0.681,1.189h5.269V176.283z M350.734,178.791l-1.008,0.536c-0.261-0.652-0.611-1.293-1.051-1.92
		l0.979-0.573C350.152,177.553,350.512,178.206,350.734,178.791z M354.502,185.784c0,0.421-0.088,0.712-0.264,0.873
		c-0.177,0.162-0.379,0.26-0.605,0.291s-0.742,0.047-1.543,0.047l-0.479-1.182c0.289,0.015,0.541,0.021,0.754,0.021
		c0.424,0,0.709-0.021,0.854-0.064c0.146-0.044,0.218-0.139,0.218-0.283v-4.841h-3.472v6.349h-1.087v-7.465h2.262v-2.848h1.217
		v2.848h2.145V185.784z M352.9,185.154h-2.354v-3.798h2.354V185.154z M351.98,184.102v-1.688h-0.515v1.688H351.98z M354.938,177.377
		c-0.436,0.879-0.831,1.529-1.188,1.949l-1.051-0.551c0.43-0.536,0.819-1.179,1.167-1.928L354.938,177.377z M359.445,186.045
		l-0.739,1.014c-0.608-0.507-1.157-1.067-1.646-1.681c-0.526,0.681-1.056,1.241-1.587,1.681l-0.761-0.984
		c0.599-0.498,1.133-1.1,1.602-1.805c-0.406-0.783-0.691-1.501-0.855-2.152l1.037-0.551c0.048,0.105,0.123,0.32,0.228,0.645
		s0.206,0.563,0.308,0.717c0.348-0.792,0.566-1.93,0.652-3.413h-0.979c-0.367,0.985-0.738,1.744-1.115,2.276l-0.834-0.906
		c0.6-1.006,1.095-2.445,1.486-4.32l1.159,0.269c-0.02,0.159-0.128,0.647-0.326,1.464h2.269v1.218h-0.442
		c-0.13,1.952-0.521,3.536-1.174,4.755C358.152,184.869,358.725,185.46,359.445,186.045z"/>
	<rect x="388.062" y="151.855" fill="#30C6BE" width="47.094" height="41.622"/>
	<path fill="#FFFFFF" d="M410.789,167.69l-0.638,1.109c-2.333-0.869-4.08-1.998-5.239-3.385v3.74h-1.319v-3.726
		c-1.198,1.329-2.969,2.467-5.312,3.413l-0.639-1.152c2.275-0.826,3.972-1.871,5.088-3.138h-3.74v-5.16h4.603v-0.862h-5.667v-1.203
		h5.667v-1.115h1.319v1.115h5.645v1.203h-5.645v0.862h4.602v5.16h-3.769C406.799,165.727,408.479,166.772,410.789,167.69z
		 M403.593,161.465V160.5h-3.282v0.965H403.593z M403.593,163.458v-0.92h-3.282v0.92H403.593z M408.195,161.465V160.5h-3.283v0.965
		H408.195z M408.195,163.458v-0.92h-3.283v0.92H408.195z"/>
	<path fill="#FFFFFF" d="M425.516,166.632c-0.025,0.744-0.146,1.294-0.363,1.649c-0.217,0.354-0.485,0.57-0.805,0.648
		c-0.318,0.076-1.051,0.115-2.195,0.115c-0.721,0-1.198-0.026-1.436-0.08c-0.236-0.053-0.428-0.178-0.576-0.376
		c-0.146-0.198-0.221-0.503-0.221-0.913v-2.08h-1.869c-0.42,2.131-2.068,3.357-4.943,3.682l-0.652-1.275
		c2.412-0.102,3.814-0.904,4.211-2.406h-4.065v-1.189h12.886v1.189h-4.247v1.812c0,0.237,0.102,0.368,0.304,0.396
		c0.203,0.026,0.658,0.039,1.363,0.039c0.551,0,0.875-0.026,0.975-0.08c0.099-0.053,0.182-0.199,0.246-0.441
		c0.065-0.242,0.098-0.57,0.098-0.985L425.516,166.632z M418.732,158.385h-1.689v1.08h-1.34v-1.08h-3.117v-1.16h3.117v-0.992h1.34
		v0.992h1.689V158.385z M425.174,162.995h-1.305v-1.646h-9.616v1.616h-1.297v-2.805h5.406c-0.048-0.16-0.203-0.447-0.464-0.862
		l1.398-0.399c0.164,0.301,0.382,0.721,0.652,1.262h5.225V162.995z M423.152,163.429h-8.232v-1.203h8.232V163.429z M425.486,158.385
		h-3.088v1.094h-1.305v-1.094h-1.652v-1.16h1.652v-0.992h1.305v0.992h3.088V158.385z"/>
	<rect x="397.773" y="179.53" fill="#FFFFFF" width="12.914" height="1.312"/>
	<path fill="#FFFFFF" d="M425.529,176.283h-10.834v4.037c0,2.972-0.355,5.196-1.065,6.675l-1.044-0.92
		c0.537-1.262,0.805-2.854,0.805-4.777v-6.217h5.313c-0.088-0.193-0.252-0.467-0.493-0.82l1.37-0.369
		c0.149,0.208,0.377,0.604,0.681,1.189h5.269V176.283z M416.949,178.791l-1.008,0.536c-0.261-0.652-0.611-1.293-1.051-1.92
		l0.979-0.573C416.367,177.553,416.727,178.206,416.949,178.791z M420.717,185.784c0,0.421-0.088,0.712-0.264,0.873
		c-0.177,0.162-0.379,0.26-0.605,0.291s-0.742,0.047-1.543,0.047l-0.479-1.182c0.289,0.015,0.541,0.021,0.754,0.021
		c0.424,0,0.709-0.021,0.854-0.064c0.146-0.044,0.218-0.139,0.218-0.283v-4.841h-3.472v6.349h-1.087v-7.465h2.262v-2.848h1.217
		v2.848h2.145V185.784z M419.115,185.154h-2.354v-3.798h2.354V185.154z M418.195,184.102v-1.688h-0.515v1.688H418.195z
		 M421.152,177.377c-0.436,0.879-0.831,1.529-1.188,1.949l-1.051-0.551c0.43-0.536,0.819-1.179,1.167-1.928L421.152,177.377z
		 M425.66,186.045l-0.739,1.014c-0.608-0.507-1.157-1.067-1.646-1.681c-0.526,0.681-1.056,1.241-1.587,1.681l-0.761-0.984
		c0.599-0.498,1.133-1.1,1.602-1.805c-0.406-0.783-0.691-1.501-0.855-2.152l1.037-0.551c0.048,0.105,0.123,0.32,0.228,0.645
		s0.206,0.563,0.308,0.717c0.348-0.792,0.566-1.93,0.652-3.413h-0.979c-0.367,0.985-0.738,1.744-1.115,2.276l-0.834-0.906
		c0.6-1.006,1.095-2.445,1.486-4.32l1.159,0.269c-0.02,0.159-0.128,0.647-0.326,1.464h2.269v1.218h-0.442
		c-0.13,1.952-0.521,3.536-1.174,4.755C424.367,184.869,424.939,185.46,425.66,186.045z"/>
	<rect x="454.276" y="151.855" fill="#30C6BE" width="47.096" height="41.622"/>
	<path fill="#FFFFFF" d="M462.686,176.842c-1.618,0.536-3.336,0.982-5.152,1.341l-0.341-1.073c0.092-0.125,0.138-0.301,0.138-0.529
		v-4.826h1.305v1.363h3.87v1.188h-3.87v2.406c1.492-0.371,2.814-0.748,3.964-1.131L462.686,176.842z M468.136,171.276h-10.212
		v-5.754h10.212V171.276z M466.78,167.805v-1.123h-7.522v1.123H466.78z M466.78,170.124v-1.203h-7.522v1.203H466.78z M469.6,175.675
		c-0.015,0.31-0.062,0.643-0.142,1c-0.079,0.358-0.205,0.63-0.376,0.815c-0.172,0.186-0.38,0.311-0.624,0.373
		s-0.763,0.094-1.554,0.094c-0.788,0-1.463-0.014-2.022-0.043c-0.561-0.029-0.911-0.077-1.051-0.145
		c-0.141-0.068-0.272-0.195-0.396-0.385c-0.123-0.188-0.185-0.441-0.185-0.761v-4.87h1.319v1.363h4.29v1.188h-4.29v2.08
		c0,0.136,0.063,0.228,0.188,0.275c0.127,0.049,0.662,0.072,1.609,0.072c0.759,0,1.236-0.01,1.432-0.028
		c0.195-0.02,0.324-0.168,0.388-0.446c0.063-0.277,0.094-0.631,0.094-1.062L469.6,175.675z"/>
	<polygon fill="#FFFFFF" points="483.688,178.088 482.325,178.088 482.325,177.422 472.158,177.422 472.158,167.508 473.52,167.508 
		473.52,176.118 477.273,176.118 477.273,165.137 478.578,165.137 478.578,176.118 482.325,176.118 482.325,167.508 
		483.688,167.508 	"/>
	<path fill="#FFFFFF" d="M499.167,167.377h-10.834v4.037c0,2.971-0.355,5.195-1.065,6.674l-1.043-0.92
		c0.535-1.262,0.804-2.854,0.804-4.776v-6.218h5.312c-0.086-0.193-0.25-0.467-0.492-0.819l1.369-0.37
		c0.15,0.209,0.377,0.604,0.682,1.189h5.269V167.377z M490.586,169.885l-1.007,0.535c-0.261-0.652-0.61-1.292-1.051-1.92
		l0.979-0.572C490.004,168.648,490.364,169.3,490.586,169.885z M494.355,176.878c0,0.421-0.088,0.712-0.266,0.873
		c-0.176,0.162-0.377,0.259-0.604,0.29s-0.741,0.047-1.544,0.047l-0.479-1.182c0.291,0.016,0.541,0.022,0.754,0.022
		c0.426,0,0.711-0.022,0.855-0.065s0.217-0.138,0.217-0.283v-4.84h-3.471v6.348h-1.087v-7.465h2.261v-2.848h1.218v2.848h2.146
		V176.878z M492.754,176.249h-2.355v-3.799h2.355V176.249z M491.833,175.197v-1.688h-0.515v1.688H491.833z M494.79,168.471
		c-0.435,0.88-0.831,1.529-1.188,1.949l-1.051-0.551c0.43-0.535,0.818-1.178,1.166-1.928L494.79,168.471z M499.297,177.139
		l-0.738,1.015c-0.609-0.507-1.157-1.067-1.646-1.681c-0.526,0.681-1.056,1.241-1.587,1.681l-0.761-0.985
		c0.599-0.498,1.133-1.1,1.602-1.805c-0.405-0.783-0.69-1.5-0.855-2.152l1.036-0.551c0.049,0.105,0.125,0.321,0.229,0.645
		c0.104,0.324,0.207,0.563,0.309,0.718c0.348-0.792,0.564-1.931,0.652-3.413h-0.979c-0.367,0.985-0.74,1.744-1.116,2.275
		l-0.833-0.906c0.598-1.005,1.094-2.444,1.484-4.319l1.16,0.269c-0.02,0.159-0.128,0.647-0.326,1.464h2.269v1.218h-0.442
		c-0.131,1.951-0.521,3.536-1.174,4.754C498.005,175.963,498.578,176.555,499.297,177.139z"/>
	<rect x="520.493" y="151.855" fill="#30C6BE" width="47.094" height="41.622"/>
	<path fill="#FFFFFF" d="M542.838,165.524h-5.805c-0.855,1.985-2.918,3.246-6.189,3.783l-0.638-1.275
		c2.88-0.508,4.655-1.344,5.327-2.508h-4.973v-1.088h5.35c0.066-0.313,0.101-0.64,0.101-0.979h1.333
		c-0.014,0.393-0.033,0.718-0.057,0.979h5.551V165.524z M543.135,163.03H530.25v-1.072h5.761v-0.949h-4.515v-1.051h4.515v-0.906
		h-5.152v-1.072h11.624v1.072h-5.123v0.906h4.5v1.051h-4.5v0.949h5.775V163.03z M535.432,157.479l-1.377,0.369
		c-0.324-0.463-0.687-0.893-1.088-1.289l1.319-0.436C534.711,156.535,535.093,156.987,535.432,157.479z M543.301,168.285
		l-0.818,1.036c-1.556-0.922-3.401-1.679-5.537-2.268l0.805-1.102C540.088,166.667,541.939,167.444,543.301,168.285z
		 M540.584,156.42c-0.275,0.44-0.616,0.896-1.021,1.37l-1.457-0.362c0.469-0.482,0.833-0.923,1.094-1.318L540.584,156.42z"/>
	<path fill="#FFFFFF" d="M557.455,169.184h-1.334v-0.573h-9.232v0.573h-1.305v-12.748h11.871V169.184z M556.121,167.452v-9.842
		h-9.232v9.842H556.121z M551.686,165.415c-1.387,0.537-2.84,0.979-4.362,1.326l-0.151-1.188c1.42-0.271,2.905-0.691,4.456-1.262
		L551.686,165.415z M555.939,164.834c-0.241,1.455-0.756,2.182-1.543,2.182c-0.488,0-0.928-0.34-1.318-1.021
		c-0.449,0.518-0.895,0.928-1.334,1.232l-0.862-0.848c0.565-0.44,1.126-0.994,1.681-1.66c-0.357-1.131-0.605-2.66-0.746-4.588h-4.42
		v-1.051h4.348c-0.01-0.188-0.015-0.57-0.015-1.145l1.218-0.029c-0.015,0.4,0,0.793,0.043,1.174h1.674
		c-0.361-0.223-0.787-0.406-1.275-0.551l0.718-0.739c0.483,0.165,0.938,0.372,1.362,0.624l-0.637,0.666h0.818v1.051h-2.616
		c0.067,1.295,0.21,2.344,0.427,3.146c0.421-0.798,0.793-1.713,1.117-2.747l1.051,0.493c-0.459,1.599-1.037,2.892-1.732,3.878
		c0.072,0.25,0.169,0.45,0.29,0.598c0.12,0.146,0.202,0.221,0.246,0.221c0.067,0,0.157-0.138,0.269-0.413s0.203-0.703,0.275-1.282
		L555.939,164.834z M551.266,164.052h-3.543v-3.159h3.543V164.052z M550.049,162.995v-1.022h-1.124v1.022H550.049z"/>
	<polygon fill="#FFFFFF" points="543.135,186.48 530.178,186.48 530.178,185.139 535.967,185.139 535.967,175.928 530.814,175.928 
		530.814,174.543 542.541,174.543 542.541,175.928 537.388,175.928 537.388,185.139 543.135,185.139 	"/>
	<path fill="#FFFFFF" d="M557.962,176.283h-10.834v4.037c0,2.972-0.355,5.196-1.065,6.675l-1.043-0.92
		c0.535-1.262,0.804-2.854,0.804-4.777v-6.217h5.312c-0.086-0.193-0.25-0.467-0.492-0.82l1.369-0.369
		c0.15,0.208,0.377,0.604,0.682,1.189h5.269V176.283z M549.381,178.791l-1.007,0.536c-0.261-0.652-0.61-1.293-1.051-1.92
		l0.979-0.573C548.799,177.553,549.159,178.206,549.381,178.791z M553.15,185.784c0,0.421-0.088,0.712-0.266,0.873
		c-0.176,0.162-0.377,0.26-0.604,0.291s-0.741,0.047-1.544,0.047l-0.479-1.182c0.291,0.015,0.541,0.021,0.754,0.021
		c0.426,0,0.711-0.021,0.855-0.064c0.145-0.044,0.217-0.139,0.217-0.283v-4.841h-3.471v6.349h-1.087v-7.465h2.261v-2.848h1.218
		v2.848h2.146V185.784z M551.549,185.154h-2.355v-3.798h2.355V185.154z M550.628,184.102v-1.688h-0.515v1.688H550.628z
		 M553.585,177.377c-0.435,0.879-0.831,1.529-1.188,1.949l-1.051-0.551c0.43-0.536,0.818-1.179,1.166-1.928L553.585,177.377z
		 M558.092,186.045l-0.738,1.014c-0.609-0.507-1.157-1.067-1.646-1.681c-0.526,0.681-1.056,1.241-1.587,1.681l-0.761-0.984
		c0.599-0.498,1.133-1.1,1.602-1.805c-0.405-0.783-0.69-1.501-0.855-2.152l1.036-0.551c0.049,0.105,0.125,0.32,0.229,0.645
		s0.207,0.563,0.309,0.717c0.348-0.792,0.564-1.93,0.652-3.413h-0.979c-0.367,0.985-0.74,1.744-1.116,2.276l-0.833-0.906
		c0.598-1.006,1.094-2.445,1.484-4.32l1.16,0.269c-0.02,0.159-0.128,0.647-0.326,1.464h2.269v1.218h-0.442
		c-0.131,1.952-0.521,3.536-1.174,4.755C556.8,184.869,557.373,185.46,558.092,186.045z"/>
	<path fill="#B2B2B2" d="M298.188,0H12.888C7.713,0,3.519,4.194,3.519,9.369v220.23c0,5.175,4.194,9.369,9.369,9.369h267.435
		c-5.175,0-9.369-4.194-9.369-9.369V9.369c0-5.175,4.194-9.369,9.369-9.369H298.188L298.188,0"/>
	<path fill="#022652" d="M298.188,0h-17.864c-5.175,0-9.369,4.194-9.369,9.369v220.23c0,5.175,4.194,9.369,9.369,9.369h17.864
		c5.185,0,9.379-4.194,9.379-9.369V64.746l70.92-0.036l19.332-20.25l-19.332-20.241V24.21l-70.92,0.036v40.5h-0.01v-40.5h0.01V9.369
		C307.566,4.194,303.372,0,298.188,0"/>
	<path fill="#23A6E8" d="M304.046,229.597c0,5.176-4.196,9.372-9.371,9.372H9.371c-5.176,0-9.371-4.196-9.371-9.372V9.372
		C0,4.196,4.195,0,9.371,0h285.304c5.175,0,9.371,4.195,9.371,9.371V229.597z"/>
	<rect x="68.122" y="85.221" fill="#FFFFFF" width="209.133" height="0.614"/>
	<rect x="172.38" y="78.943" fill="#FFFFFF" width="0.615" height="6.727"/>
	<rect x="276.64" y="85.271" fill="#FFFFFF" width="0.615" height="6.558"/>
	<rect x="208.54" y="85.271" fill="#FFFFFF" width="0.615" height="6.558"/>
	<rect x="68.122" y="85.272" fill="#FFFFFF" width="0.615" height="6.557"/>
	<rect x="134.834" y="85.272" fill="#FFFFFF" width="0.615" height="6.557"/>
	<rect x="32.382" y="158.16" fill="#FFFFFF" width="209.133" height="0.613"/>
	<rect x="67.369" y="153.328" fill="#FFFFFF" width="0.614" height="5.28"/>
	<rect x="240.9" y="158.208" fill="#FFFFFF" width="0.615" height="6.248"/>
	<rect x="172.8" y="158.208" fill="#FFFFFF" width="0.615" height="6.248"/>
	<rect x="32.382" y="158.21" fill="#FFFFFF" width="0.615" height="6.246"/>
	<rect x="99.095" y="158.21" fill="#FFFFFF" width="0.615" height="6.246"/>
	<path fill="#FFFFFF" d="M90.392,224.465l-0.634,1.104c-2.32-0.865-4.057-1.986-5.209-3.365v3.718h-1.311v-3.704
		c-1.191,1.321-2.952,2.453-5.281,3.395l-0.634-1.146c2.263-0.82,3.948-1.861,5.058-3.119h-3.718v-5.131h4.575v-0.857h-5.634v-1.195
		h5.634v-1.109h1.311v1.109h5.613v1.195h-5.613v0.857h4.575v5.131h-3.747C86.424,222.513,88.096,223.553,90.392,224.465z
		 M83.237,218.276v-0.957h-3.264v0.957H83.237z M83.237,220.258v-0.916h-3.264v0.916H83.237z M87.813,218.276v-0.957h-3.264v0.957
		H87.813z M87.813,220.258v-0.916h-3.264v0.916H87.813z"/>
	<path fill="#FFFFFF" d="M105.032,223.414c-0.024,0.74-0.144,1.286-0.36,1.64s-0.482,0.568-0.8,0.645
		c-0.317,0.076-1.044,0.115-2.183,0.115c-0.716,0-1.191-0.026-1.426-0.079s-0.426-0.178-0.573-0.374
		c-0.147-0.197-0.22-0.5-0.22-0.908v-2.068h-1.859c-0.418,2.119-2.056,3.338-4.914,3.66l-0.648-1.268
		c2.397-0.102,3.792-0.898,4.186-2.393h-4.042v-1.182h12.81v1.182h-4.222v1.801c0,0.236,0.101,0.367,0.303,0.394
		s0.653,0.04,1.354,0.04c0.547,0,0.871-0.027,0.969-0.08c0.098-0.053,0.18-0.199,0.245-0.439s0.097-0.566,0.097-0.98
		L105.032,223.414z M98.288,215.214h-1.679v1.073h-1.333v-1.073h-3.098v-1.153h3.098v-0.986h1.333v0.986h1.679V215.214z
		 M104.693,219.797h-1.297v-1.637h-9.561v1.607h-1.29v-2.789h5.375c-0.048-0.158-0.202-0.443-0.461-0.857l1.391-0.396
		c0.163,0.298,0.379,0.716,0.648,1.253h5.194V219.797z M102.683,220.229h-8.185v-1.195h8.185V220.229z M105.003,215.214h-3.069
		v1.088h-1.297v-1.088h-1.643v-1.153h1.643v-0.986h1.297v0.986h3.069V215.214z"/>
	<rect x="106.963" y="218.529" fill="#FFFFFF" width="12.839" height="1.304"/>
	<path fill="#FFFFFF" d="M108.369,191.636h3.931v-19.764H83.809v33.864H112.3v-1.776h-3.931V191.636z M95.857,182.01h8.346v-1.798
		h-8.346v-2.154h8.346v-1.799h-8.346v-2.154h13.378v1.977v0.178v1.799v0.178v1.799v0.178v1.798v0.179v1.798v0.178v1.976h-5.032
		v-1.976h-8.346V182.01z M101.82,187.486c0,0.529-0.43,0.959-0.958,0.959c-0.531,0-0.96-0.43-0.96-0.959s0.429-0.959,0.96-0.959
		C101.39,186.527,101.82,186.957,101.82,187.486z M99.085,187.486c0,0.529-0.429,0.959-0.958,0.959c-0.53,0-0.96-0.43-0.96-0.959
		s0.43-0.959,0.96-0.959C98.656,186.527,99.085,186.957,99.085,187.486z M92.418,174.019v11.8h-6.427v-0.602h1.628v-3.21h-1.628
		v-0.482h1.628v-3.211h-1.628v-0.482h1.628v-3.211h-1.628v-0.602H92.418z M85.318,184.31v-1.395h1.394v1.395H85.318z
		 M85.318,180.617v-1.395h1.394v1.395H85.318z M85.318,176.923v-1.396h1.394v1.396H85.318z M93.448,203.558h-1.952h-0.203h-1.748
		h-0.203h-1.748h-0.204h-1.951v-13.379h1.951h0.204h1.748h0.203h1.748h0.203h1.952V203.558z M106.515,197.064l-0.001,0.024
		c-0.039,1.104-0.377,2.18-0.978,3.108c-0.282,0.435-0.615,0.832-0.994,1.182c-0.805,0.743-1.793,1.259-2.857,1.491
		c-0.432,0.093-0.872,0.142-1.308,0.142l-0.245-0.007c-1.084-0.042-2.139-0.374-3.054-0.959c-0.444-0.284-0.852-0.624-1.207-1.011
		c-0.738-0.795-1.252-1.773-1.488-2.826c-0.099-0.442-0.149-0.894-0.149-1.34l0.005-0.182l0.001-0.033
		c0.038-1.092,0.368-2.155,0.954-3.075c0.277-0.435,0.607-0.833,0.982-1.186c0.808-0.759,1.803-1.284,2.877-1.521
		c0.482-0.106,0.979-0.159,1.463-0.142l0.049,0.002c1.113,0.033,2.195,0.369,3.129,0.973c0.425,0.273,0.816,0.6,1.16,0.968
		c0.766,0.816,1.292,1.821,1.526,2.906c0.092,0.426,0.137,0.859,0.137,1.29L106.515,197.064z"/>
	<rect x="92.202" y="191.087" fill="#FFFFFF" width="0.338" height="11.563"/>
	<rect x="90.25" y="191.087" fill="#FFFFFF" width="0.339" height="11.563"/>
	<rect x="88.3" y="191.087" fill="#FFFFFF" width="0.338" height="11.563"/>
	<rect x="86.349" y="191.087" fill="#FFFFFF" width="0.339" height="11.563"/>
	<rect x="96.765" y="175.013" fill="#FFFFFF" width="11.563" height="0.339"/>
	<rect x="105.11" y="176.99" fill="#FFFFFF" width="3.218" height="0.338"/>
	<rect x="96.765" y="178.965" fill="#FFFFFF" width="11.563" height="0.339"/>
	<rect x="105.11" y="180.942" fill="#FFFFFF" width="3.218" height="0.339"/>
	<rect x="96.765" y="182.917" fill="#FFFFFF" width="11.563" height="0.34"/>
	<rect x="105.11" y="184.894" fill="#FFFFFF" width="3.218" height="0.339"/>
	<rect x="109.277" y="192.544" fill="#FFFFFF" width="4.081" height="10.508"/>
	<path fill="#FFFFFF" d="M101.911,195.189l0.143-0.053c0.146-0.057,0.313-0.121,0.496-0.164c0.196-0.059,0.391-0.089,0.579-0.119
		l0.104-0.017v-0.819l-0.012,0.004l-0.052,0.016l-0.207,0.064l-0.128,0.055c-0.1,0.041-0.195,0.081-0.274,0.129l-0.035,0.02
		c-0.095,0.047-0.195,0.114-0.3,0.186l-0.097,0.066l-0.088,0.074c-0.101,0.084-0.197,0.162-0.271,0.245l-0.027,0.026
		c-0.076,0.07-0.146,0.158-0.22,0.251l-0.09,0.111l-0.134,0.204l-0.028,0.043l-0.018,0.026l0.184-0.113l0.013-0.008l0.109-0.056
		l0.314-0.154L101.911,195.189z"/>
	<path fill="#FFFFFF" d="M102.165,196.613l0.118,0.037l0.332,0.114l0.042,0.017l0.137,0.063c0.135,0.061,0.288,0.131,0.438,0.221
		v-0.581l-0.091-0.007c-0.131-0.014-0.25-0.025-0.366-0.02h-0.037h-0.041c-0.091,0-0.189,0.011-0.292,0.022l-0.144,0.015
		l-0.239,0.049l-0.049,0.01l-0.032,0.008l0.209,0.049L102.165,196.613z"/>
	<circle fill="#FFFFFF" cx="100.377" cy="196.869" r="1.12"/>
	<path fill="#FFFFFF" d="M98.27,192.634c-0.341,0.17-0.662,0.383-0.953,0.631l-0.033,0.029h1v-0.055c0-0.119,0.01-0.232,0.023-0.342
		l0.075-0.041c0.625-0.313,1.296-0.471,1.995-0.471c0.094,0,0.189,0.004,0.293,0.012l-0.017,0.021l-0.111,0.136l-0.168,0.254
		l-0.015,0.031l-0.024,0.048l-0.102,0.191l-0.052,0.129l-0.035,0.087h0.892l0.019-0.02c0.126-0.147,0.257-0.299,0.414-0.438
		c0.089-0.088,0.179-0.164,0.27-0.236l0.08,0.025c0.455,0.154,0.876,0.382,1.257,0.668h0.394c-0.461-0.397-0.992-0.707-1.57-0.904
		c-0.361-0.123-0.736-0.201-1.118-0.234c-0.146-0.013-0.278-0.019-0.405-0.019C99.639,192.137,98.93,192.305,98.27,192.634z"/>
	<path fill="#FFFFFF" d="M102.456,201.117c0.339-0.166,0.66-0.375,0.952-0.617l0.063-0.058h-1.031l0,0.086
		c0,0.114-0.007,0.222-0.02,0.327l-0.073,0.039c-0.617,0.303-1.279,0.457-1.969,0.457c-0.094,0-0.192-0.004-0.298-0.012l0.104-0.127
		l0.167-0.252l0.017-0.032l0.024-0.048l0.101-0.191l0.052-0.129l0.046-0.118h-0.878l-0.043,0.052
		c-0.126,0.146-0.258,0.298-0.413,0.436l-0.236,0.209l-0.079-0.025c-0.456-0.154-0.881-0.381-1.263-0.671h-0.394
		c0.462,0.399,0.996,0.71,1.576,0.907c0.358,0.121,0.733,0.199,1.11,0.232c0.146,0.012,0.28,0.018,0.406,0.018
		C101.105,201.599,101.805,201.437,102.456,201.117z"/>
	<path fill="#FFFFFF" d="M103.951,193.775v1.029l0.055,0.002c0.126,0,0.246,0.011,0.361,0.023l0.038,0.074
		c0.108,0.221,0.195,0.445,0.266,0.678v-0.695l-0.042-0.092c-0.167-0.342-0.376-0.663-0.621-0.956L103.951,193.775z"/>
	<path fill="#FFFFFF" d="M96.805,198.963l-0.087-0.002c-0.107,0-0.21-0.008-0.31-0.019l-0.04-0.074
		c-0.116-0.23-0.21-0.469-0.284-0.711v0.691l0.061,0.132c0.17,0.339,0.382,0.658,0.629,0.948l0.031,0.033V198.963z"/>
	<path fill="#FFFFFF" d="M104.67,198.847v-1.797l-0.009-0.008l-0.222-0.146l-0.032-0.017l-0.047-0.024l-0.192-0.102l-0.129-0.052
		l-0.087-0.035v0.893l0.021,0.019c0.146,0.126,0.298,0.256,0.437,0.413l0.229,0.262l-0.024,0.079
		c-0.155,0.445-0.381,0.861-0.663,1.234v0.395C104.241,199.625,104.483,199.25,104.67,198.847z"/>
	<path fill="#FFFFFF" d="M96.084,194.89v1.848l0.202,0.134l0.031,0.017l0.049,0.025l0.19,0.101l0.13,0.052l0.118,0.047v-0.878
		l-0.054-0.045c-0.146-0.126-0.297-0.257-0.434-0.413l-0.216-0.244l0.024-0.08c0.154-0.464,0.384-0.896,0.679-1.283v-0.394
		C96.513,194.112,96.271,194.486,96.084,194.89z"/>
	<path fill="#FFFFFF" d="M100.771,199.662c0.012-0.13,0.024-0.254,0.018-0.364v-0.038c0.004-0.104-0.009-0.215-0.021-0.333
		l-0.016-0.144l-0.049-0.238l-0.01-0.049l-0.007-0.031l-0.049,0.209l-0.003,0.014l-0.036,0.117l-0.114,0.332l-0.018,0.041
		l-0.063,0.138c-0.056,0.127-0.122,0.269-0.204,0.407h0.566L100.771,199.662z"/>
	<path fill="#FFFFFF" d="M97.523,194.103l0.057,0.182l0.053,0.129c0.043,0.1,0.083,0.195,0.13,0.274l0.02,0.034
		c0.046,0.096,0.113,0.195,0.186,0.301l0.065,0.097l0.074,0.089c0.084,0.101,0.162,0.197,0.245,0.271l0.027,0.025
		c0.07,0.076,0.159,0.146,0.25,0.221l0.111,0.09l0.206,0.135l0.041,0.027l0.027,0.018l-0.114-0.184l-0.007-0.012l-0.056-0.107
		l-0.154-0.316l-0.019-0.041l-0.054-0.143c-0.056-0.147-0.12-0.314-0.163-0.496c-0.057-0.196-0.089-0.39-0.119-0.578l-0.017-0.104
		h-0.792V194.103z"/>
	<path fill="#FFFFFF" d="M103.208,199.689l-0.063-0.207l-0.054-0.127c-0.042-0.102-0.082-0.196-0.13-0.275l-0.018-0.035
		c-0.047-0.096-0.116-0.195-0.188-0.301l-0.066-0.096l-0.074-0.088c-0.083-0.102-0.163-0.197-0.245-0.271l-0.027-0.027
		c-0.068-0.076-0.156-0.146-0.25-0.22l-0.111-0.09l-0.205-0.134l-0.042-0.028l-0.028-0.018l0.114,0.184l0.008,0.012l0.056,0.108
		l0.155,0.316l0.017,0.041l0.054,0.141c0.056,0.148,0.121,0.314,0.162,0.497c0.06,0.196,0.089,0.39,0.119,0.577l0.012,0.074h0.815
		L103.208,199.689z"/>
	<path fill="#FFFFFF" d="M99.954,194.105c-0.013,0.131-0.024,0.254-0.019,0.365v0.039c-0.003,0.102,0.008,0.214,0.021,0.332
		l0.016,0.143l0.049,0.239l0.011,0.05l0.006,0.031l0.049-0.211l0.004-0.014l0.036-0.115l0.115-0.333l0.017-0.041l0.064-0.139
		c0.06-0.136,0.13-0.288,0.22-0.437h-0.581L99.954,194.105z"/>
	<path fill="#FFFFFF" d="M97.763,199.667l0.129-0.054c0.101-0.043,0.194-0.082,0.274-0.131l0.035-0.019
		c0.096-0.046,0.195-0.114,0.3-0.187l0.096-0.066l0.091-0.073c0.101-0.083,0.196-0.163,0.27-0.245l0.027-0.027
		c0.075-0.07,0.145-0.157,0.219-0.251l0.09-0.11l0.134-0.205l0.029-0.042l0.017-0.026l-0.183,0.113l-0.013,0.008l-0.108,0.056
		l-0.315,0.155l-0.042,0.017l-0.141,0.053c-0.149,0.058-0.315,0.122-0.498,0.163c-0.195,0.059-0.39,0.09-0.578,0.119l-0.074,0.012
		v0.797h0.058L97.763,199.667z"/>
	<path fill="#FFFFFF" d="M97.948,197.31h0.039c0.105,0.004,0.214-0.008,0.334-0.021l0.142-0.016l0.238-0.049l0.048-0.01l0.033-0.007
		l-0.21-0.049l-0.014-0.004l-0.116-0.038l-0.333-0.113l-0.04-0.016l-0.138-0.063c-0.127-0.057-0.268-0.123-0.408-0.205v0.566
		l0.061,0.006C97.714,197.304,97.833,197.317,97.948,197.31z"/>
	<path fill="#FFFFFF" d="M165.472,214.883c-0.072,2.699-0.56,4.921-1.463,6.664c-0.903,1.744-2.414,3.257-4.532,4.539l-0.973-1.029
		c1.955-1.11,3.353-2.391,4.193-3.841c-0.745-0.836-1.537-1.597-2.378-2.284c-0.278,0.466-0.598,0.918-0.958,1.354l-0.958-0.987
		c1.326-1.69,2.231-3.816,2.716-6.376l1.283,0.31c-0.072,0.543-0.185,1.093-0.339,1.65H165.472z M164.096,216.202h-2.435
		c-0.211,0.571-0.442,1.107-0.692,1.606c0.903,0.749,1.676,1.453,2.32,2.111C163.654,219.002,163.923,217.762,164.096,216.202z
		 M171.567,220.749l-0.901,1.116c-0.735-1.028-1.659-2.07-2.774-3.127v7.227h-1.333v-12.911h1.333v3.984
		C169.267,218.18,170.491,219.417,171.567,220.749z"/>
	<path fill="#FFFFFF" d="M177.345,222.413h-2.666l0.821,0.519c-0.36,1.253-0.792,2.272-1.297,3.055l-1.074-0.757
		c0.543-0.879,0.956-1.817,1.239-2.816h-0.728v-8.971h3.703V222.413z M176.121,216.065v-1.384h-1.254v1.384H176.121z
		 M176.121,218.608v-1.404h-1.254v1.404H176.121z M176.121,221.202v-1.448h-1.254v1.448H176.121z M177.936,225.1l-1.16,0.482
		c-0.207-0.797-0.562-1.623-1.066-2.479l1.066-0.482C177.204,223.274,177.59,224.1,177.936,225.1z M186.171,223.637h-0.93v0.958
		c0,0.49-0.105,0.845-0.317,1.063s-0.622,0.327-1.232,0.327c-0.245,0-0.55-0.017-0.915-0.05l-0.439-1.24
		c0.245,0.024,0.507,0.037,0.785,0.037c0.428,0,0.676-0.024,0.746-0.072c0.069-0.049,0.104-0.135,0.104-0.26v-0.764h-4.179v2.327
		h-1.282v-2.327h-0.872v-1.045h0.872v-3.4h2.774v-0.793h-3.61v-1.052h1.945v-0.721h-1.225v-0.958h1.225v-0.706h-1.563v-1.009h1.563
		v-0.836h1.268v0.836h2.125v-0.836h1.268v0.836h1.758v1.009h-1.758v0.706h1.196v0.958h-1.196v0.721h1.888v1.052h-3.581v0.793h2.651
		v3.4h0.93V223.637z M181.287,220.935v-0.677h-1.492v0.677H181.287z M181.287,222.592v-0.685h-1.492v0.685H181.287z
		 M183.016,215.639v-0.677h-2.125v0.677H183.016z M183.016,217.347v-0.721h-2.125v0.721H183.016z M183.974,220.935v-0.677h-1.384
		v0.677H183.974z M183.974,222.592v-0.685h-1.384v0.685H183.974z"/>
	<path fill="#FFFFFF" d="M155.088,184.216v19.361h34.4v-19.361H155.088z M177.755,188.622h6.588v2.577l-1.93,1.93h-2.728l-1.93-1.93
		V188.622z M170.852,186.64c0.227-0.228,0.529-0.353,0.851-0.353c0.32,0,0.622,0.125,0.849,0.353
		c0.227,0.227,0.352,0.528,0.352,0.85c0,0.32-0.125,0.622-0.352,0.849c-0.227,0.228-0.528,0.353-0.849,0.353
		c-0.322,0-0.624-0.125-0.851-0.353C170.384,187.871,170.384,187.109,170.852,186.64z M166.286,194.167l-0.271-0.271l0.271-0.271
		C166.334,193.804,166.334,193.99,166.286,194.167z M164.26,193.897c0-0.094,0.017-0.185,0.04-0.271l0.271,0.271l-0.271,0.271
		C164.277,194.081,164.26,193.99,164.26,193.897z M165.021,192.904c0.088-0.023,0.179-0.041,0.273-0.041
		c0.092,0,0.182,0.018,0.27,0.041l-0.27,0.271L165.021,192.904z M165.294,194.619l0.27,0.271c-0.088,0.023-0.178,0.04-0.27,0.04
		c-0.094,0-0.185-0.017-0.273-0.04L165.294,194.619z M166.339,192.129c-0.314-0.186-0.672-0.287-1.045-0.287
		c-0.375,0-0.733,0.102-1.046,0.288l-0.585-0.585c0.476-0.331,1.039-0.511,1.631-0.511c0.59,0,1.154,0.18,1.629,0.511
		L166.339,192.129z M163.527,192.852c-0.186,0.313-0.288,0.671-0.288,1.045s0.102,0.731,0.288,1.046l-0.584,0.583
		c-0.677-0.977-0.677-2.282,0-3.259L163.527,192.852z M164.248,195.664c0.313,0.186,0.671,0.288,1.046,0.288
		c0.373,0,0.731-0.103,1.045-0.288l0.584,0.584c-0.475,0.332-1.039,0.512-1.629,0.512c-0.592,0-1.155-0.18-1.631-0.512
		L164.248,195.664z M167.061,194.941c0.379-0.643,0.379-1.446,0-2.089l0.583-0.585c0.677,0.977,0.677,2.282,0,3.259L167.061,194.941
		z M167.652,190.817c-0.675-0.519-1.494-0.804-2.358-0.804c-0.866,0-1.686,0.285-2.36,0.804l-0.664-0.665
		c0.854-0.691,1.909-1.068,3.024-1.068c1.113,0,2.168,0.377,3.022,1.068L167.652,190.817z M162.213,191.539
		c-1.063,1.387-1.063,3.329,0,4.717l-0.665,0.665c-0.692-0.854-1.068-1.909-1.068-3.023s0.376-2.17,1.068-3.024L162.213,191.539z
		 M162.935,196.978c0.674,0.518,1.494,0.802,2.36,0.802c0.864,0,1.683-0.284,2.358-0.802l0.665,0.664
		c-0.854,0.691-1.91,1.068-3.022,1.068c-1.115,0-2.17-0.377-3.024-1.068L162.935,196.978z M168.373,196.255
		c1.064-1.387,1.064-3.33,0-4.717l0.665-0.666c0.693,0.854,1.069,1.91,1.069,3.024s-0.375,2.17-1.069,3.023L168.373,196.255z
		 M169.042,189.427c-1.049-0.883-2.362-1.364-3.748-1.364c-1.389,0-2.7,0.481-3.749,1.364l-0.581-0.582
		c1.205-1.037,2.723-1.604,4.33-1.604c1.605,0,3.123,0.566,4.329,1.604L169.042,189.427z M160.242,189.568l0.581,0.58
		c-0.883,1.05-1.364,2.362-1.364,3.749s0.481,2.699,1.364,3.748l-0.581,0.581C158.11,195.744,158.11,192.05,160.242,189.568z
		 M161.545,198.367c1.049,0.883,2.36,1.364,3.749,1.364c1.385,0,2.698-0.481,3.748-1.364l0.581,0.582
		c-1.206,1.036-2.723,1.603-4.329,1.603c-1.607,0-3.125-0.566-4.33-1.603L161.545,198.367z M170.345,198.226l-0.581-0.581
		c0.883-1.049,1.364-2.361,1.364-3.748s-0.481-2.699-1.364-3.749l0.581-0.58C172.477,192.05,172.477,195.744,170.345,198.226z
		 M158.036,186.64c0.227-0.228,0.53-0.353,0.851-0.353c0.32,0,0.622,0.125,0.849,0.353c0.227,0.227,0.352,0.528,0.352,0.85
		c0,0.32-0.125,0.622-0.352,0.849c-0.227,0.228-0.528,0.353-0.849,0.353c-0.321,0-0.624-0.125-0.851-0.353
		C157.567,187.871,157.567,187.109,158.036,186.64z M159.735,201.154c-0.227,0.227-0.528,0.352-0.849,0.352
		c-0.321,0-0.624-0.125-0.851-0.352c-0.468-0.469-0.468-1.23,0-1.699c0.227-0.227,0.53-0.352,0.851-0.352
		c0.32,0,0.622,0.125,0.849,0.352c0.227,0.227,0.352,0.529,0.352,0.85S159.962,200.927,159.735,201.154z M172.551,201.154
		c-0.227,0.227-0.528,0.352-0.849,0.352c-0.322,0-0.624-0.125-0.851-0.352c-0.468-0.469-0.468-1.23,0-1.699
		c0.227-0.227,0.529-0.352,0.851-0.352c0.32,0,0.622,0.125,0.849,0.352c0.227,0.227,0.352,0.529,0.352,0.85
		S172.777,200.927,172.551,201.154z M185.095,200.24h-8.091v-4.354h8.091V200.24z"/>
	<polygon fill="#FFFFFF" points="171.702,187.669 171.829,187.617 171.882,187.49 171.829,187.362 171.702,187.309 171.573,187.362 
		171.573,187.617 	"/>
	<polygon fill="#FFFFFF" points="158.887,200.124 158.758,200.177 158.758,200.431 158.887,200.485 159.013,200.431 
		159.067,200.304 159.013,200.177 	"/>
	<polygon fill="#FFFFFF" points="158.887,187.669 159.013,187.617 159.067,187.49 159.013,187.362 158.887,187.309 158.758,187.362 
		158.758,187.617 	"/>
	<polygon fill="#FFFFFF" points="171.702,200.124 171.573,200.177 171.573,200.431 171.702,200.485 171.829,200.431 
		171.882,200.304 171.829,200.177 	"/>
	<path fill="#FFFFFF" d="M178.87,189.295c-0.126,0-0.232,0.104-0.232,0.231v0.71c0,0.128,0.105,0.231,0.232,0.231
		c0.127,0,0.232-0.104,0.232-0.231v-0.71C179.102,189.4,178.997,189.295,178.87,189.295z"/>
	<path fill="#FFFFFF" d="M183.229,190.468c0.127,0,0.231-0.104,0.231-0.231v-0.71c0-0.127-0.104-0.231-0.231-0.231
		c-0.128,0-0.232,0.104-0.232,0.231v0.71C182.997,190.365,183.102,190.468,183.229,190.468z"/>
	<path fill="#FFFFFF" d="M181.05,192.455c0.127,0,0.231-0.105,0.231-0.232v-0.71c0-0.128-0.104-0.231-0.231-0.231
		c-0.128,0-0.232,0.104-0.232,0.231v0.71C180.817,192.349,180.922,192.455,181.05,192.455z"/>
	<path fill="#FFFFFF" d="M184.075,196.908h-6.05v2.311h6.05V196.908z M179.857,198.267h-1.362v-0.408h1.362V198.267z
		 M182.752,199.009c-0.521,0-0.946-0.425-0.946-0.946s0.426-0.946,0.946-0.946c0.521,0,0.945,0.425,0.945,0.946
		S183.273,199.009,182.752,199.009z"/>
	<circle fill="#FFFFFF" cx="182.752" cy="198.063" r="0.538"/>
	<path fill="#FFFFFF" d="M233.572,214.883c-0.072,2.699-0.56,4.921-1.463,6.664c-0.903,1.744-2.414,3.257-4.532,4.539l-0.973-1.029
		c1.955-1.11,3.353-2.391,4.193-3.841c-0.745-0.836-1.537-1.597-2.378-2.284c-0.278,0.466-0.598,0.918-0.958,1.354l-0.958-0.987
		c1.326-1.69,2.231-3.816,2.716-6.376l1.283,0.31c-0.072,0.543-0.185,1.093-0.339,1.65H233.572z M232.195,216.202h-2.435
		c-0.211,0.571-0.442,1.107-0.692,1.606c0.903,0.749,1.676,1.453,2.32,2.111C231.753,219.002,232.022,217.762,232.195,216.202z
		 M239.667,220.749l-0.901,1.116c-0.735-1.028-1.659-2.07-2.774-3.127v7.227h-1.333v-12.911h1.333v3.984
		C237.366,218.18,238.591,219.417,239.667,220.749z"/>
	<path fill="#FFFFFF" d="M245.445,222.413h-2.666l0.821,0.519c-0.36,1.253-0.792,2.272-1.297,3.055l-1.074-0.757
		c0.543-0.879,0.956-1.817,1.239-2.816h-0.728v-8.971h3.703V222.413z M244.22,216.065v-1.384h-1.254v1.384H244.22z M244.22,218.608
		v-1.404h-1.254v1.404H244.22z M244.22,221.202v-1.448h-1.254v1.448H244.22z M246.036,225.1l-1.16,0.482
		c-0.207-0.797-0.562-1.623-1.066-2.479l1.066-0.482C245.303,223.274,245.69,224.1,246.036,225.1z M254.271,223.637h-0.93v0.958
		c0,0.49-0.105,0.845-0.317,1.063s-0.622,0.327-1.232,0.327c-0.245,0-0.55-0.017-0.915-0.05l-0.439-1.24
		c0.245,0.024,0.507,0.037,0.785,0.037c0.428,0,0.676-0.024,0.746-0.072c0.069-0.049,0.104-0.135,0.104-0.26v-0.764h-4.179v2.327
		h-1.282v-2.327h-0.872v-1.045h0.872v-3.4h2.774v-0.793h-3.61v-1.052h1.945v-0.721h-1.225v-0.958h1.225v-0.706h-1.563v-1.009h1.563
		v-0.836h1.268v0.836h2.125v-0.836h1.268v0.836h1.758v1.009h-1.758v0.706h1.196v0.958h-1.196v0.721h1.888v1.052h-3.581v0.793h2.651
		v3.4h0.93V223.637z M249.386,220.935v-0.677h-1.492v0.677H249.386z M249.386,222.592v-0.685h-1.492v0.685H249.386z
		 M251.115,215.639v-0.677h-2.125v0.677H251.115z M251.115,217.347v-0.721h-2.125v0.721H251.115z M252.074,220.935v-0.677h-1.384
		v0.677H252.074z M252.074,222.592v-0.685h-1.384v0.685H252.074z"/>
	<path fill="#FFFFFF" d="M252.727,170.541h-24.678c-1.473,0-2.673,1.199-2.673,2.674v29.922c0,1.475,1.2,2.674,2.673,2.674h24.678
		c1.474,0,2.673-1.199,2.673-2.674v-29.922C255.4,171.74,254.201,170.541,252.727,170.541z M254.546,203.136
		c0,1.004-0.814,1.819-1.819,1.819h-24.678c-1.003,0-1.819-0.815-1.819-1.819v-29.922c0-1.006,0.815-1.82,1.819-1.82h24.678
		c1.004,0,1.819,0.814,1.819,1.82V203.136z"/>
	<path fill="#FFFFFF" d="M251.476,203.523c0-0.426,0.345-0.77,0.77-0.77c0.424,0,0.769,0.344,0.769,0.77
		c0,0.094-0.02,0.183-0.051,0.266c0.439-0.309,0.728-0.818,0.728-1.397v-28.433c0-0.944-0.766-1.71-1.708-1.71h-23.188l-0.06,0.003
		c0.326,0.09,0.565,0.385,0.565,0.738c0,0.426-0.345,0.77-0.769,0.77c-0.425,0-0.769-0.344-0.769-0.77
		c0-0.207,0.084-0.396,0.218-0.535c-0.533,0.289-0.895,0.854-0.895,1.504v28.433c0,0.649,0.362,1.214,0.895,1.503
		c-0.134-0.138-0.218-0.326-0.218-0.535c0-0.425,0.344-0.769,0.769-0.769c0.424,0,0.769,0.344,0.769,0.769
		c0,0.354-0.239,0.648-0.564,0.739l0.059,0.003h22.949C251.582,203.96,251.476,203.753,251.476,203.523z M252.246,172.384
		c0.424,0,0.769,0.344,0.769,0.768c0,0.426-0.345,0.771-0.769,0.771c-0.425,0-0.77-0.345-0.77-0.771
		C251.476,172.728,251.82,172.384,252.246,172.384z M235.833,201.81c0,0.236-0.191,0.428-0.427,0.428h-5.298
		c-0.237,0-0.428-0.191-0.428-0.428v-11.398c0-0.236,0.191-0.428,0.428-0.428h1.672c0.236,0,0.428,0.191,0.428,0.428v1.771
		l3.449,2.521c0.11,0.081,0.176,0.209,0.176,0.345V201.81z M242.071,201.895v-8.322c0-0.235,0.191-0.427,0.427-0.427h1.754
		l-0.934-1.574c-0.937,0.346-1.951,0.535-3.007,0.535c-4.803,0-8.71-3.907-8.71-8.711c0-4.802,3.907-8.709,8.71-8.709
		c4.802,0,8.71,3.907,8.71,8.709c0,1.805-0.551,3.481-1.495,4.873l0.377,0.223l1.054-1.801c0.077-0.131,0.218-0.211,0.369-0.211
		h2.23c0.236,0,0.428,0.191,0.428,0.428v14.987c0,0.237-0.191,0.428-0.428,0.428h-9.059
		C242.263,202.323,242.071,202.132,242.071,201.895z"/>
	<path fill="#FFFFFF" d="M236.729,183.396c0,1.976,1.606,3.583,3.583,3.583c1.974,0,3.582-1.607,3.582-3.583
		c0-1.975-1.608-3.582-3.582-3.582C238.336,179.814,236.729,181.421,236.729,183.396z"/>
	<path fill="#FFFFFF" d="M240.312,191.423c-4.426,0-8.027-3.602-8.027-8.027c0-4.425,3.601-8.025,8.027-8.025
		c4.425,0,8.026,3.601,8.026,8.025c0,1.566-0.451,3.076-1.304,4.381l0.441,0.263c0.901-1.384,1.376-2.986,1.376-4.644
		c0-4.707-3.831-8.539-8.539-8.539c-4.708,0-8.54,3.832-8.54,8.539c0,4.709,3.831,8.54,8.54,8.54c0.943,0,1.869-0.154,2.754-0.456
		l-0.268-0.452C241.997,191.291,241.162,191.423,240.312,191.423z"/>
	<path fill="#FFFFFF" d="M250.145,190.812l-5.447-3.227c-0.252-0.149-0.524-0.223-0.781-0.223c-0.319,0-0.617,0.111-0.836,0.33
		c-0.396,0.396-0.44,1.055-0.107,1.616l3.228,5.448c0.238,0.404,0.638,0.701,1.079,0.801c0.106,0.023,0.212,0.036,0.316,0.036
		c0.323,0,0.619-0.114,0.834-0.33l2.221-2.222c0.285-0.285,0.394-0.711,0.295-1.152
		C250.845,191.452,250.549,191.052,250.145,190.812z"/>
	<path fill="#FFFFFF" d="M128.327,138.442c-0.072,2.699-0.56,4.922-1.463,6.665c-0.903,1.743-2.414,3.257-4.532,4.539l-0.973-1.03
		c1.955-1.109,3.353-2.39,4.193-3.84c-0.745-0.836-1.537-1.598-2.378-2.285c-0.278,0.467-0.598,0.918-0.958,1.355l-0.958-0.987
		c1.326-1.69,2.231-3.816,2.716-6.376l1.283,0.309c-0.072,0.543-0.185,1.094-0.339,1.65H128.327z M126.95,139.76h-2.435
		c-0.211,0.572-0.442,1.107-0.692,1.607c0.903,0.749,1.676,1.453,2.32,2.111C126.508,142.561,126.777,141.322,126.95,139.76z
		 M134.422,144.307l-0.901,1.117c-0.735-1.028-1.659-2.07-2.774-3.127v7.227h-1.333v-12.912h1.333v3.984
		C132.121,141.74,133.346,142.977,134.422,144.307z"/>
	<path fill="#FFFFFF" d="M140.2,145.971h-2.666l0.821,0.52c-0.36,1.253-0.792,2.271-1.297,3.055l-1.074-0.757
		c0.543-0.879,0.956-1.817,1.239-2.817h-0.728V137h3.703V145.971z M138.975,139.624v-1.383h-1.254v1.383H138.975z M138.975,142.167
		v-1.404h-1.254v1.404H138.975z M138.975,144.76v-1.447h-1.254v1.447H138.975z M140.791,148.659l-1.16,0.482
		c-0.207-0.797-0.562-1.623-1.066-2.479l1.066-0.482C140.058,146.833,140.445,147.66,140.791,148.659z M149.026,147.196h-0.93v0.959
		c0,0.49-0.105,0.844-0.317,1.063s-0.622,0.328-1.232,0.328c-0.245,0-0.55-0.018-0.915-0.051l-0.439-1.239
		c0.245,0.024,0.507,0.036,0.785,0.036c0.428,0,0.676-0.023,0.746-0.072c0.069-0.048,0.104-0.135,0.104-0.26v-0.764h-4.179v2.328
		h-1.282v-2.328h-0.872v-1.045h0.872v-3.4h2.774v-0.793h-3.61v-1.051h1.945v-0.721h-1.225v-0.959h1.225v-0.705h-1.563v-1.01h1.563
		v-0.836h1.268v0.836h2.125v-0.836h1.268v0.836h1.758v1.01h-1.758v0.705h1.196v0.959h-1.196v0.721h1.888v1.051h-3.581v0.793h2.651
		v3.4h0.93V147.196z M144.141,144.495v-0.678h-1.492v0.678H144.141z M144.141,146.151v-0.684h-1.492v0.684H144.141z M145.87,139.199
		v-0.677h-2.125v0.677H145.87z M145.87,140.907v-0.721h-2.125v0.721H145.87z M146.829,144.495v-0.678h-1.384v0.678H146.829z
		 M146.829,146.151v-0.684h-1.384v0.684H146.829z"/>
	<path fill="#FFFFFF" d="M152.427,97.333h-34.571c-1.196,0-2.168,0.974-2.168,2.17v24.754c0,1.196,0.973,2.168,2.168,2.168h13.615
		c-0.251,1.209-1.007,2.232-2.019,2.707h-2.882v2.004h17.143v-2.004h-2.882c-1.011-0.475-1.766-1.498-2.018-2.707h13.614
		c1.197,0,2.169-0.972,2.169-2.168V99.502C154.596,98.306,153.624,97.333,152.427,97.333z M153.332,124.257
		c0,0.498-0.406,0.904-0.904,0.904h-34.571c-0.498,0-0.904-0.406-0.904-0.904v-1.43h36.379V124.257z M118.319,120.026V99.964h33.646
		v20.062H118.319z"/>
	<path fill="#FFFFFF" d="M186.419,148.27c-1.609,0.533-3.317,0.978-5.123,1.333l-0.339-1.065c0.091-0.125,0.137-0.301,0.137-0.527
		v-4.798h1.297v1.354h3.848v1.182h-3.848v2.393c1.484-0.37,2.798-0.745,3.941-1.125L186.419,148.27z M191.837,142.737h-10.152
		v-5.721h10.152V142.737z M190.49,139.286v-1.117h-7.479v1.117H190.49z M190.49,141.591v-1.196h-7.479v1.196H190.49z
		 M193.293,147.11c-0.015,0.309-0.062,0.639-0.141,0.994c-0.08,0.355-0.204,0.627-0.375,0.811c-0.17,0.186-0.377,0.309-0.619,0.371
		c-0.243,0.063-0.758,0.094-1.546,0.094c-0.783,0-1.453-0.014-2.01-0.043c-0.558-0.029-0.906-0.076-1.045-0.145
		c-0.139-0.066-0.27-0.193-0.393-0.381s-0.184-0.439-0.184-0.757v-4.842h1.311v1.354h4.265v1.182h-4.265v2.068
		c0,0.134,0.063,0.225,0.188,0.273c0.125,0.048,0.658,0.072,1.6,0.072c0.754,0,1.228-0.01,1.423-0.029
		c0.194-0.02,0.323-0.166,0.385-0.443c0.063-0.275,0.094-0.627,0.094-1.055L193.293,147.11z"/>
	<polygon fill="#FFFFFF" points="207.299,149.51 205.944,149.51 205.944,148.846 195.836,148.846 195.836,138.991 197.19,138.991 
		197.19,147.549 200.922,147.549 200.922,136.633 202.219,136.633 202.219,147.549 205.944,147.549 205.944,138.991 
		207.299,138.991 	"/>
	<path fill="#FFFFFF" d="M222.631,149.127h-12.795v-1.297h5.951v-3.221h-4.475v-1.297h4.475v-2.816h-3.307
		c-0.543,0.941-1.143,1.748-1.801,2.42l-1.001-0.958c1.34-1.374,2.238-3.062,2.694-5.065l1.319,0.311
		c-0.168,0.629-0.37,1.294-0.605,1.996h2.702v-2.588h1.354v2.588h5.295v1.297h-5.295v2.816h4.69v1.297h-4.69v3.221h5.49V149.127z"/>
	<path fill="#FFFFFF" d="M237.43,142.931h-10.534v2.421c0,1.82-0.454,3.232-1.362,4.236l-1.044-0.93
		c0.312-0.293,0.58-0.736,0.803-1.332c0.224-0.596,0.335-1.545,0.335-2.846v-2.717h11.802V142.931z M237.062,138.738h-2.197
		c-0.399,0.413-0.829,0.769-1.29,1.066c1.153,0.25,2.207,0.536,3.163,0.857l-0.49,0.901c-1.234-0.408-2.548-0.75-3.941-1.023
		c-1.845,0.696-3.728,1.016-5.649,0.958l-0.382-1.001c1.244,0.014,2.469-0.1,3.675-0.34c-0.86-0.162-1.826-0.285-2.896-0.367
		l0.591-0.871c1.383,0.129,2.855,0.336,4.417,0.619c0.452-0.26,0.833-0.525,1.146-0.8h-8.25v-1.188h5.476
		c-0.129-0.24-0.271-0.488-0.425-0.742l1.34-0.281c0.202,0.322,0.394,0.663,0.577,1.023h5.137V138.738z M237.458,149.214h-10.591
		v-1.089h4.719v-0.973h-2.983v-1.066h2.983v-0.85h-2.594c-0.379,0.566-0.778,1.028-1.196,1.383l-0.814-1.029
		c0.697-0.566,1.242-1.35,1.636-2.35l1.225,0.367c-0.063,0.227-0.134,0.404-0.216,0.533h1.959v-0.886h1.34v0.886h3.869v1.096h-3.869
		v0.85h3.53v1.066h-3.53v0.973h4.532V149.214z"/>
	<path fill="#FFFFFF" d="M231.653,104.473H186.04c-1.412,0-2.555,1.044-2.555,2.334v16.567c0,1.289,1.144,2.333,2.555,2.333h45.613
		c1.413,0,2.556-1.044,2.556-2.333v-16.567C234.209,105.517,233.066,104.473,231.653,104.473z M198.78,109.28
		c0-0.289,0.257-0.522,0.573-0.522h1.607c0.317,0,0.574,0.233,0.574,0.522v1.468c0,0.29-0.257,0.524-0.574,0.524h-1.607
		c-0.315,0-0.573-0.234-0.573-0.524V109.28z M198.78,112.535c0-0.29,0.257-0.525,0.573-0.525h1.607c0.317,0,0.574,0.235,0.574,0.525
		V114c0,0.29-0.257,0.525-0.574,0.525h-1.607c-0.315,0-0.573-0.235-0.573-0.525V112.535z M198.78,115.786
		c0-0.29,0.257-0.525,0.573-0.525h1.607c0.317,0,0.574,0.235,0.574,0.525v1.467c0,0.289-0.257,0.523-0.574,0.523h-1.607
		c-0.315,0-0.573-0.234-0.573-0.523V115.786z M195.375,109.28c0-0.289,0.256-0.522,0.572-0.522h1.608
		c0.317,0,0.573,0.233,0.573,0.522v1.468c0,0.29-0.256,0.524-0.573,0.524h-1.608c-0.315,0-0.572-0.234-0.572-0.524V109.28z
		 M195.375,112.535c0-0.29,0.256-0.525,0.572-0.525h1.608c0.317,0,0.573,0.235,0.573,0.525V114c0,0.29-0.256,0.525-0.573,0.525
		h-1.608c-0.315,0-0.572-0.235-0.572-0.525V112.535z M195.375,115.786c0-0.29,0.256-0.525,0.572-0.525h1.608
		c0.317,0,0.573,0.235,0.573,0.525v1.467c0,0.289-0.256,0.523-0.573,0.523h-1.608c-0.315,0-0.572-0.234-0.572-0.523V115.786z
		 M191.954,109.28c0-0.289,0.255-0.522,0.571-0.522h1.608c0.317,0,0.574,0.233,0.574,0.522v1.468c0,0.29-0.257,0.524-0.574,0.524
		h-1.608c-0.315,0-0.571-0.234-0.571-0.524V109.28z M191.954,112.535c0-0.29,0.255-0.525,0.571-0.525h1.608
		c0.317,0,0.574,0.235,0.574,0.525V114c0,0.29-0.257,0.525-0.574,0.525h-1.608c-0.315,0-0.571-0.235-0.571-0.525V112.535z
		 M191.954,115.786c0-0.29,0.255-0.525,0.571-0.525h1.608c0.317,0,0.574,0.235,0.574,0.525v1.467c0,0.289-0.257,0.523-0.574,0.523
		h-1.608c-0.315,0-0.571-0.234-0.571-0.523V115.786z M188.529,109.28c0-0.289,0.258-0.522,0.576-0.522h1.605
		c0.317,0,0.574,0.233,0.574,0.522v1.468c0,0.29-0.257,0.524-0.574,0.524h-1.605c-0.318,0-0.576-0.234-0.576-0.524V109.28z
		 M188.529,112.535c0-0.29,0.258-0.525,0.576-0.525h1.605c0.317,0,0.574,0.235,0.574,0.525V114c0,0.29-0.257,0.525-0.574,0.525
		h-1.605c-0.318,0-0.576-0.235-0.576-0.525V112.535z M188.529,115.786c0-0.29,0.258-0.525,0.576-0.525h1.605
		c0.317,0,0.574,0.235,0.574,0.525v1.467c0,0.289-0.257,0.523-0.574,0.523h-1.605c-0.318,0-0.576-0.234-0.576-0.523V115.786z
		 M187.862,120.503c0,0.291-0.255,0.524-0.573,0.524h-1.607c-0.316,0-0.574-0.233-0.574-0.524v-1.467
		c0-0.289,0.258-0.523,0.574-0.523h1.607c0.317,0,0.573,0.234,0.573,0.523V120.503z M187.862,117.252
		c0,0.289-0.255,0.523-0.573,0.523h-1.607c-0.316,0-0.574-0.234-0.574-0.523v-1.467c0-0.29,0.258-0.525,0.574-0.525h1.607
		c0.317,0,0.573,0.235,0.573,0.525V117.252z M187.862,114c0,0.29-0.255,0.525-0.573,0.525h-1.607c-0.316,0-0.574-0.235-0.574-0.525
		v-1.465c0-0.29,0.258-0.525,0.574-0.525h1.607c0.317,0,0.573,0.235,0.573,0.525V114z M187.862,110.748
		c0,0.29-0.255,0.524-0.573,0.524h-1.607c-0.316,0-0.574-0.234-0.574-0.524v-1.468c0-0.289,0.258-0.522,0.574-0.522h1.607
		c0.317,0,0.573,0.233,0.573,0.522V110.748z M204.957,120.503c0,0.291-0.258,0.524-0.576,0.524h-15.276
		c-0.318,0-0.576-0.233-0.576-0.524v-1.467c0-0.289,0.258-0.523,0.576-0.523h15.276c0.318,0,0.576,0.234,0.576,0.523V120.503z
		 M204.957,117.252c0,0.289-0.258,0.523-0.576,0.523h-1.604c-0.319,0-0.576-0.234-0.576-0.523v-1.467
		c0-0.29,0.257-0.525,0.576-0.525h1.604c0.318,0,0.576,0.235,0.576,0.525V117.252z M204.957,114c0,0.29-0.258,0.525-0.576,0.525
		h-1.604c-0.319,0-0.576-0.235-0.576-0.525v-1.465c0-0.29,0.257-0.525,0.576-0.525h1.604c0.318,0,0.576,0.235,0.576,0.525V114z
		 M204.957,110.748c0,0.29-0.258,0.524-0.576,0.524h-1.604c-0.319,0-0.576-0.234-0.576-0.524v-1.468
		c0-0.289,0.257-0.522,0.576-0.522h1.604c0.318,0,0.576,0.233,0.576,0.522V110.748z M208.378,120.503
		c0,0.291-0.258,0.524-0.575,0.524h-1.607c-0.315,0-0.572-0.233-0.572-0.524v-1.467c0-0.289,0.257-0.523,0.572-0.523h1.607
		c0.316,0,0.575,0.234,0.575,0.523V120.503z M208.378,117.252c0,0.289-0.258,0.523-0.575,0.523h-1.607
		c-0.315,0-0.572-0.234-0.572-0.523v-1.467c0-0.29,0.257-0.525,0.572-0.525h1.607c0.316,0,0.575,0.235,0.575,0.525V117.252z
		 M208.378,114c0,0.29-0.258,0.525-0.575,0.525h-1.607c-0.315,0-0.572-0.235-0.572-0.525v-1.465c0-0.29,0.257-0.525,0.572-0.525
		h1.607c0.316,0,0.575,0.235,0.575,0.525V114z M208.378,110.748c0,0.29-0.258,0.524-0.575,0.524h-1.607
		c-0.315,0-0.572-0.234-0.572-0.524v-1.468c0-0.289,0.257-0.522,0.572-0.522h1.607c0.316,0,0.575,0.233,0.575,0.522V110.748z
		 M211.799,120.503c0,0.291-0.256,0.524-0.573,0.524h-1.606c-0.317,0-0.573-0.233-0.573-0.524v-1.467
		c0-0.289,0.256-0.523,0.573-0.523h1.606c0.317,0,0.573,0.234,0.573,0.523V120.503z M211.799,110.704
		c0,0.289-0.256,0.524-0.573,0.524h-1.606c-0.317,0-0.573-0.235-0.573-0.524v-1.468c0-0.289,0.256-0.523,0.573-0.523h1.606
		c0.317,0,0.573,0.234,0.573,0.523V110.704z M212.495,115.786c0-0.29,0.257-0.525,0.574-0.525h1.607
		c0.317,0,0.574,0.235,0.574,0.525v1.467c0,0.289-0.257,0.523-0.574,0.523h-1.607c-0.316,0-0.574-0.234-0.574-0.523V115.786z
		 M215.333,120.505c0,0.289-0.257,0.522-0.574,0.522h-1.607c-0.317,0-0.573-0.233-0.573-0.522v-1.469
		c0-0.288,0.255-0.523,0.573-0.523h1.607c0.317,0,0.574,0.235,0.574,0.523V120.505z M215.333,110.705
		c0,0.288-0.257,0.523-0.574,0.523h-1.607c-0.317,0-0.573-0.235-0.573-0.523v-1.469c0-0.289,0.255-0.523,0.573-0.523h1.607
		c0.317,0,0.574,0.234,0.574,0.523V110.705z M218.755,120.505c0,0.289-0.257,0.522-0.574,0.522h-1.605
		c-0.318,0-0.575-0.233-0.575-0.522v-1.469c0-0.288,0.257-0.523,0.575-0.523h1.605c0.317,0,0.574,0.235,0.574,0.523V120.505z
		 M218.755,110.705c0,0.288-0.257,0.523-0.574,0.523h-1.605c-0.318,0-0.575-0.235-0.575-0.523v-1.469
		c0-0.289,0.257-0.523,0.575-0.523h1.605c0.317,0,0.574,0.234,0.574,0.523V110.705z M222.36,120.503
		c0,0.291-0.257,0.524-0.573,0.524h-1.607c-0.318,0-0.573-0.233-0.573-0.524v-1.467c0-0.289,0.254-0.523,0.573-0.523h1.607
		c0.316,0,0.573,0.234,0.573,0.523V120.503z M222.36,117.252c0,0.289-0.257,0.523-0.573,0.523h-1.607
		c-0.318,0-0.573-0.234-0.573-0.523v-1.467c0-0.29,0.254-0.525,0.573-0.525h1.607c0.316,0,0.573,0.235,0.573,0.525V117.252z
		 M222.36,114c0,0.29-0.257,0.525-0.573,0.525h-1.607c-0.318,0-0.573-0.235-0.573-0.525v-1.465c0-0.29,0.254-0.525,0.573-0.525
		h1.607c0.316,0,0.573,0.235,0.573,0.525V114z M222.36,110.748c0,0.29-0.257,0.524-0.573,0.524h-1.607
		c-0.318,0-0.573-0.234-0.573-0.524v-1.468c0-0.289,0.254-0.522,0.573-0.522h1.607c0.316,0,0.573,0.233,0.573,0.522V110.748z
		 M225.783,120.503c0,0.291-0.258,0.524-0.575,0.524h-1.606c-0.316,0-0.573-0.233-0.573-0.524v-1.467
		c0-0.289,0.257-0.523,0.573-0.523h1.606c0.317,0,0.575,0.234,0.575,0.523V120.503z M225.783,117.252
		c0,0.289-0.258,0.523-0.575,0.523h-1.606c-0.316,0-0.573-0.234-0.573-0.523v-1.467c0-0.29,0.257-0.525,0.573-0.525h1.606
		c0.317,0,0.575,0.235,0.575,0.525V117.252z M225.783,114c0,0.29-0.258,0.525-0.575,0.525h-1.606c-0.316,0-0.573-0.235-0.573-0.525
		v-1.465c0-0.29,0.257-0.525,0.573-0.525h1.606c0.317,0,0.575,0.235,0.575,0.525V114z M225.783,110.748
		c0,0.29-0.258,0.524-0.575,0.524h-1.606c-0.316,0-0.573-0.234-0.573-0.524v-1.468c0-0.289,0.257-0.522,0.573-0.522h1.606
		c0.317,0,0.575,0.233,0.575,0.522V110.748z M229.204,120.503c0,0.291-0.257,0.524-0.574,0.524h-1.605
		c-0.317,0-0.574-0.233-0.574-0.524v-1.467c0-0.289,0.257-0.523,0.574-0.523h1.605c0.317,0,0.574,0.234,0.574,0.523V120.503z
		 M229.204,117.252c0,0.289-0.257,0.523-0.574,0.523h-1.605c-0.317,0-0.574-0.234-0.574-0.523v-1.467
		c0-0.29,0.257-0.525,0.574-0.525h1.605c0.317,0,0.574,0.235,0.574,0.525V117.252z M229.204,114c0,0.29-0.257,0.525-0.574,0.525
		h-1.605c-0.317,0-0.574-0.235-0.574-0.525v-1.465c0-0.29,0.257-0.525,0.574-0.525h1.605c0.317,0,0.574,0.235,0.574,0.525V114z
		 M229.204,110.748c0,0.29-0.257,0.524-0.574,0.524h-1.605c-0.317,0-0.574-0.234-0.574-0.524v-1.468
		c0-0.289,0.257-0.522,0.574-0.522h1.605c0.317,0,0.574,0.233,0.574,0.522V110.748z M232.625,120.503
		c0,0.291-0.256,0.524-0.573,0.524h-1.607c-0.316,0-0.574-0.233-0.574-0.524v-1.467c0-0.289,0.257-0.523,0.574-0.523h1.607
		c0.317,0,0.573,0.234,0.573,0.523V120.503z M232.625,117.252c0,0.289-0.256,0.523-0.573,0.523h-1.607
		c-0.316,0-0.574-0.234-0.574-0.523v-4.718c0-0.29,0.257-0.525,0.574-0.525h1.607c0.317,0,0.573,0.235,0.573,0.525V117.252z
		 M232.625,110.748c0,0.29-0.256,0.524-0.573,0.524h-1.607c-0.316,0-0.574-0.234-0.574-0.524v-1.468
		c0-0.289,0.257-0.522,0.574-0.522h1.607c0.317,0,0.573,0.233,0.573,0.522V110.748z"/>
	<path fill="#FFFFFF" d="M156.368,72.293h-5.771c-0.85,1.974-2.901,3.228-6.153,3.761l-0.634-1.268
		c2.863-0.504,4.628-1.335,5.295-2.493h-4.942v-1.081h5.317c0.067-0.312,0.101-0.636,0.101-0.973h1.326
		c-0.014,0.389-0.034,0.713-0.058,0.973h5.519V72.293z M156.664,69.815h-12.81v-1.066h5.728v-0.944h-4.488V66.76h4.488v-0.9h-5.123
		v-1.066h11.557v1.066h-5.094v0.9h4.474v1.045h-4.474v0.944h5.742V69.815z M149.005,64.295l-1.369,0.368
		c-0.322-0.461-0.682-0.889-1.081-1.283l1.311-0.432C148.289,63.356,148.668,63.806,149.005,64.295z M156.829,75.039l-0.814,1.03
		c-1.547-0.917-3.381-1.669-5.504-2.255l0.8-1.095C153.635,73.429,155.475,74.203,156.829,75.039z M154.127,63.244
		c-0.274,0.437-0.612,0.891-1.016,1.362l-1.448-0.36c0.466-0.48,0.828-0.917,1.088-1.311L154.127,63.244z"/>
	<path fill="#FFFFFF" d="M170.9,75.932h-1.326v-0.569h-9.179v0.569h-1.297V63.258H170.9V75.932z M169.575,74.21v-9.785h-9.179v9.785
		H169.575z M165.165,72.185c-1.378,0.533-2.824,0.973-4.337,1.319l-0.151-1.182c1.412-0.269,2.889-0.687,4.431-1.254L165.165,72.185
		z M169.395,71.609c-0.24,1.446-0.752,2.169-1.535,2.169c-0.485,0-0.922-0.339-1.312-1.016c-0.447,0.514-0.889,0.922-1.326,1.225
		l-0.857-0.843c0.562-0.437,1.119-0.987,1.672-1.65c-0.356-1.124-0.603-2.645-0.742-4.561H160.9v-1.044h4.323
		c-0.01-0.188-0.014-0.567-0.014-1.139l1.21-0.029c-0.015,0.399,0,0.788,0.043,1.167h1.665c-0.36-0.221-0.783-0.404-1.268-0.548
		l0.713-0.735c0.48,0.164,0.932,0.37,1.355,0.62l-0.634,0.663h0.814v1.044h-2.601c0.067,1.288,0.209,2.33,0.425,3.127
		c0.418-0.792,0.788-1.703,1.11-2.73l1.044,0.49c-0.457,1.59-1.03,2.875-1.722,3.855c0.072,0.25,0.168,0.448,0.288,0.594
		s0.202,0.22,0.245,0.22c0.067,0,0.156-0.137,0.267-0.411c0.111-0.274,0.202-0.699,0.274-1.275L169.395,71.609z M164.747,70.831
		h-3.523v-3.141h3.523V70.831z M163.537,69.779v-1.016h-1.117v1.016H163.537z"/>
	<path fill="#FFFFFF" d="M175.194,72.718c-0.101,1.167-0.365,2.26-0.792,3.278l-1.167-0.605c0.375-0.879,0.625-1.869,0.75-2.969
		L175.194,72.718z M179.063,71.436l-1.124,0.468c-0.039-0.245-0.105-0.5-0.202-0.764c-1.119,0.365-2.469,0.699-4.049,1.001
		l-0.339-1.167c1.004-0.768,1.924-1.77,2.759-3.004c-0.701,0.115-1.501,0.233-2.399,0.353l-0.238-1.066
		c0.951-0.908,1.83-2.344,2.637-4.309l1.362,0.432c-0.581,1.321-1.271,2.481-2.068,3.48c0.523-0.048,1.05-0.132,1.578-0.252
		c0.288-0.427,0.574-0.915,0.857-1.462l1.182,0.62c-1.038,1.897-2.169,3.463-3.394,4.698c0.528-0.096,1.107-0.245,1.736-0.447
		c-0.058-0.197-0.135-0.408-0.23-0.634l1.102-0.425C178.495,69.558,178.771,70.384,179.063,71.436z M177.053,75.327l-1.21,0.295
		c0.039-0.855-0.064-1.852-0.31-2.99l1.095-0.223C176.869,73.36,177.01,74.333,177.053,75.327z M178.826,73.943l-1.044,0.411
		c-0.154-0.721-0.341-1.359-0.562-1.917l0.987-0.339C178.398,72.545,178.605,73.161,178.826,73.943z M186.175,75.608h-7.558v-1.239
		h0.771V63.453h5.93v10.916h0.857V75.608z M184.006,66.933v-2.226h-3.293v2.226H184.006z M184.006,70.506v-2.306h-3.293v2.306
		H184.006z M184.006,74.369v-2.652h-3.293v2.652H184.006z"/>
	<path fill="#FFFFFF" d="M200.959,71.227h-6.729c-0.442,0.509-1.006,0.997-1.693,1.462v1.917c0.812-0.111,1.746-0.303,2.803-0.577
		l0.014,1.196c-1.479,0.384-2.887,0.65-4.222,0.799l-0.281-1.052c0.269-0.139,0.403-0.346,0.403-0.62v-0.93
		c-1.033,0.509-1.953,0.879-2.759,1.11l-0.533-1.139c1.844-0.509,3.365-1.232,4.561-2.168h-4.459v-1.182h5.915
		c-0.077-0.197-0.195-0.433-0.353-0.706l1.362-0.252c0.129,0.188,0.291,0.507,0.482,0.958h5.49V71.227z M193.343,69.548h-1.297
		v-2.169h-1.326c-0.144,1.134-0.68,1.965-1.606,2.493l-0.872-0.886c0.711-0.289,1.119-0.824,1.225-1.607h-1.333v-1.023h3.912v-0.836
		h-3.055v-2.205h1.253v1.21h1.816v-1.456h1.282V69.548z M200.988,65.722h-2.976v1.938h2.623v1.131h-6.448v-1.131h2.55v-1.938h-2.903
		V64.62h2.903v-1.549h1.275v1.549h2.976V65.722z M201.045,74.887l-0.663,1.167c-1.657-0.408-2.886-0.938-3.686-1.588
		s-1.425-1.543-1.877-2.677l1.268-0.224c0.274,0.591,0.644,1.134,1.11,1.628c0.859-0.5,1.638-1.057,2.334-1.671l1.001,0.785
		c-0.653,0.582-1.395,1.136-2.226,1.665C199.201,74.414,200.113,74.719,201.045,74.887z"/>
	<path fill="#FFFFFF" d="M192.824,12.372h-29.921c-1.035,0-1.876,0.843-1.876,1.878v21.425c0,1.035,0.841,1.877,1.876,1.877h11.784
		c-0.219,1.046-0.872,1.933-1.748,2.342h-2.495v1.734h14.836v-1.734h-2.495c-0.875-0.409-1.527-1.296-1.746-2.342h11.783
		c1.035,0,1.878-0.842,1.878-1.877V14.249C194.703,13.213,193.859,12.372,192.824,12.372z M193.607,35.674
		c0,0.432-0.352,0.783-0.783,0.783h-29.921c-0.432,0-0.782-0.352-0.782-0.783v-1.237h31.486V35.674z M163.303,32.012V14.649
		l29.123-0.001v17.364H163.303z"/>
	<path fill="#FFFFFF" d="M195.134,43.355h-34.209c-1.06,0-1.917,0.783-1.917,1.749V57.53c0,0.968,0.857,1.75,1.917,1.75h34.209
		c1.06,0,1.916-0.782,1.916-1.75V45.104C197.05,44.138,196.194,43.355,195.134,43.355z M170.479,46.959
		c0-0.217,0.192-0.393,0.429-0.393h1.206c0.238,0,0.43,0.176,0.43,0.393v1.102c0,0.217-0.192,0.393-0.43,0.393h-1.206
		c-0.236,0-0.429-0.176-0.429-0.393V46.959z M170.479,49.4c0-0.217,0.192-0.394,0.429-0.394h1.206c0.238,0,0.43,0.177,0.43,0.394
		v1.099c0,0.218-0.192,0.395-0.43,0.395h-1.206c-0.236,0-0.429-0.177-0.429-0.395V49.4z M170.479,51.838
		c0-0.217,0.192-0.395,0.429-0.395h1.206c0.238,0,0.43,0.178,0.43,0.395v1.101c0,0.217-0.192,0.393-0.43,0.393h-1.206
		c-0.236,0-0.429-0.176-0.429-0.393V51.838z M167.926,46.959c0-0.217,0.192-0.393,0.429-0.393h1.206
		c0.238,0,0.431,0.176,0.431,0.393v1.102c0,0.217-0.193,0.393-0.431,0.393h-1.206c-0.237,0-0.429-0.176-0.429-0.393V46.959z
		 M167.926,49.4c0-0.217,0.192-0.394,0.429-0.394h1.206c0.238,0,0.431,0.177,0.431,0.394v1.099c0,0.218-0.193,0.395-0.431,0.395
		h-1.206c-0.237,0-0.429-0.177-0.429-0.395V49.4z M167.926,51.838c0-0.217,0.192-0.395,0.429-0.395h1.206
		c0.238,0,0.431,0.178,0.431,0.395v1.101c0,0.217-0.193,0.393-0.431,0.393h-1.206c-0.237,0-0.429-0.176-0.429-0.393V51.838z
		 M165.359,46.959c0-0.217,0.192-0.393,0.43-0.393h1.205c0.237,0,0.431,0.176,0.431,0.393v1.102c0,0.217-0.193,0.393-0.431,0.393
		h-1.205c-0.238,0-0.43-0.176-0.43-0.393V46.959z M165.359,49.4c0-0.217,0.192-0.394,0.43-0.394h1.205
		c0.237,0,0.431,0.177,0.431,0.394v1.099c0,0.218-0.193,0.395-0.431,0.395h-1.205c-0.238,0-0.43-0.177-0.43-0.395V49.4z
		 M165.359,51.838c0-0.217,0.192-0.395,0.43-0.395h1.205c0.237,0,0.431,0.178,0.431,0.395v1.101c0,0.217-0.193,0.393-0.431,0.393
		h-1.205c-0.238,0-0.43-0.176-0.43-0.393V51.838z M162.792,46.959c0-0.217,0.192-0.393,0.432-0.393h1.204
		c0.238,0,0.431,0.176,0.431,0.393v1.102c0,0.217-0.193,0.393-0.431,0.393h-1.204c-0.239,0-0.432-0.176-0.432-0.393V46.959z
		 M162.792,49.4c0-0.217,0.192-0.394,0.432-0.394h1.204c0.238,0,0.431,0.177,0.431,0.394v1.099c0,0.218-0.193,0.395-0.431,0.395
		h-1.204c-0.239,0-0.432-0.177-0.432-0.395V49.4z M162.792,51.838c0-0.217,0.192-0.395,0.432-0.395h1.204
		c0.238,0,0.431,0.178,0.431,0.395v1.101c0,0.217-0.193,0.393-0.431,0.393h-1.204c-0.239,0-0.432-0.176-0.432-0.393V51.838z
		 M162.291,55.377c0,0.218-0.192,0.393-0.43,0.393h-1.206c-0.236,0-0.429-0.175-0.429-0.393v-1.101c0-0.217,0.193-0.393,0.429-0.393
		h1.206c0.238,0,0.43,0.176,0.43,0.393V55.377z M162.291,52.939c0,0.217-0.192,0.393-0.43,0.393h-1.206
		c-0.236,0-0.429-0.176-0.429-0.393v-1.101c0-0.217,0.193-0.395,0.429-0.395h1.206c0.238,0,0.43,0.178,0.43,0.395V52.939z
		 M162.291,50.499c0,0.218-0.192,0.395-0.43,0.395h-1.206c-0.236,0-0.429-0.177-0.429-0.395V49.4c0-0.217,0.193-0.394,0.429-0.394
		h1.206c0.238,0,0.43,0.177,0.43,0.394V50.499z M162.291,48.061c0,0.217-0.192,0.393-0.43,0.393h-1.206
		c-0.236,0-0.429-0.176-0.429-0.393v-1.102c0-0.217,0.193-0.393,0.429-0.393h1.206c0.238,0,0.43,0.176,0.43,0.393V48.061z
		 M175.112,55.377c0,0.218-0.193,0.393-0.432,0.393h-11.457c-0.239,0-0.432-0.175-0.432-0.393v-1.101
		c0-0.217,0.192-0.393,0.432-0.393h11.457c0.238,0,0.432,0.176,0.432,0.393V55.377z M175.112,52.939
		c0,0.217-0.193,0.393-0.432,0.393h-1.203c-0.239,0-0.431-0.176-0.431-0.393v-1.101c0-0.217,0.192-0.395,0.431-0.395h1.203
		c0.238,0,0.432,0.178,0.432,0.395V52.939z M175.112,50.499c0,0.218-0.193,0.395-0.432,0.395h-1.203
		c-0.239,0-0.431-0.177-0.431-0.395V49.4c0-0.217,0.192-0.394,0.431-0.394h1.203c0.238,0,0.432,0.177,0.432,0.394V50.499z
		 M175.112,48.061c0,0.217-0.193,0.393-0.432,0.393h-1.203c-0.239,0-0.431-0.176-0.431-0.393v-1.102
		c0-0.217,0.192-0.393,0.431-0.393h1.203c0.238,0,0.432,0.176,0.432,0.393V48.061z M177.678,55.377c0,0.218-0.194,0.393-0.432,0.393
		h-1.204c-0.237,0-0.431-0.175-0.431-0.393v-1.101c0-0.217,0.194-0.393,0.431-0.393h1.204c0.238,0,0.432,0.176,0.432,0.393V55.377z
		 M177.678,52.939c0,0.217-0.194,0.393-0.432,0.393h-1.204c-0.237,0-0.431-0.176-0.431-0.393v-1.101
		c0-0.217,0.194-0.395,0.431-0.395h1.204c0.238,0,0.432,0.178,0.432,0.395V52.939z M177.678,50.499c0,0.218-0.194,0.395-0.432,0.395
		h-1.204c-0.237,0-0.431-0.177-0.431-0.395V49.4c0-0.217,0.194-0.394,0.431-0.394h1.204c0.238,0,0.432,0.177,0.432,0.394V50.499z
		 M177.678,48.061c0,0.217-0.194,0.393-0.432,0.393h-1.204c-0.237,0-0.431-0.176-0.431-0.393v-1.102
		c0-0.217,0.194-0.393,0.431-0.393h1.204c0.238,0,0.432,0.176,0.432,0.393V48.061z M180.243,55.377c0,0.218-0.192,0.393-0.43,0.393
		h-1.205c-0.239,0-0.43-0.175-0.43-0.393v-1.101c0-0.217,0.191-0.393,0.43-0.393h1.205c0.237,0,0.43,0.176,0.43,0.393V55.377z
		 M180.243,48.027c0,0.217-0.192,0.394-0.43,0.394h-1.205c-0.239,0-0.43-0.177-0.43-0.394v-1.1c0-0.218,0.191-0.394,0.43-0.394
		h1.205c0.237,0,0.43,0.176,0.43,0.394V48.027z M180.766,51.838c0-0.217,0.192-0.395,0.429-0.395h1.206
		c0.239,0,0.43,0.178,0.43,0.395v1.101c0,0.217-0.191,0.393-0.43,0.393h-1.206c-0.236,0-0.429-0.176-0.429-0.393V51.838z
		 M182.894,55.378c0,0.217-0.192,0.392-0.431,0.392h-1.206c-0.237,0-0.429-0.175-0.429-0.392v-1.102
		c0-0.217,0.191-0.393,0.429-0.393h1.206c0.239,0,0.431,0.176,0.431,0.393V55.378z M182.894,48.028c0,0.216-0.192,0.393-0.431,0.393
		h-1.206c-0.237,0-0.429-0.177-0.429-0.393v-1.102c0-0.217,0.191-0.393,0.429-0.393h1.206c0.239,0,0.431,0.176,0.431,0.393V48.028z
		 M185.461,55.378c0,0.217-0.193,0.392-0.432,0.392h-1.203c-0.24,0-0.432-0.175-0.432-0.392v-1.102c0-0.217,0.192-0.393,0.432-0.393
		h1.203c0.238,0,0.432,0.176,0.432,0.393V55.378z M185.461,48.028c0,0.216-0.193,0.393-0.432,0.393h-1.203
		c-0.24,0-0.432-0.177-0.432-0.393v-1.102c0-0.217,0.192-0.393,0.432-0.393h1.203c0.238,0,0.432,0.176,0.432,0.393V48.028z
		 M188.165,55.377c0,0.218-0.193,0.393-0.431,0.393h-1.206c-0.239,0-0.429-0.175-0.429-0.393v-1.101c0-0.217,0.19-0.393,0.429-0.393
		h1.206c0.238,0,0.431,0.176,0.431,0.393V55.377z M188.165,52.939c0,0.217-0.193,0.393-0.431,0.393h-1.206
		c-0.239,0-0.429-0.176-0.429-0.393v-1.101c0-0.217,0.19-0.395,0.429-0.395h1.206c0.238,0,0.431,0.178,0.431,0.395V52.939z
		 M188.165,50.499c0,0.218-0.193,0.395-0.431,0.395h-1.206c-0.239,0-0.429-0.177-0.429-0.395V49.4c0-0.217,0.19-0.394,0.429-0.394
		h1.206c0.238,0,0.431,0.177,0.431,0.394V50.499z M188.165,48.061c0,0.217-0.193,0.393-0.431,0.393h-1.206
		c-0.239,0-0.429-0.176-0.429-0.393v-1.102c0-0.217,0.19-0.393,0.429-0.393h1.206c0.238,0,0.431,0.176,0.431,0.393V48.061z
		 M190.73,55.377c0,0.218-0.192,0.393-0.429,0.393h-1.206c-0.237,0-0.43-0.175-0.43-0.393v-1.101c0-0.217,0.193-0.393,0.43-0.393
		h1.206c0.237,0,0.429,0.176,0.429,0.393V55.377z M190.73,52.939c0,0.217-0.192,0.393-0.429,0.393h-1.206
		c-0.237,0-0.43-0.176-0.43-0.393v-1.101c0-0.217,0.193-0.395,0.43-0.395h1.206c0.237,0,0.429,0.178,0.429,0.395V52.939z
		 M190.73,50.499c0,0.218-0.192,0.395-0.429,0.395h-1.206c-0.237,0-0.43-0.177-0.43-0.395V49.4c0-0.217,0.193-0.394,0.43-0.394
		h1.206c0.237,0,0.429,0.177,0.429,0.394V50.499z M190.73,48.061c0,0.217-0.192,0.393-0.429,0.393h-1.206
		c-0.237,0-0.43-0.176-0.43-0.393v-1.102c0-0.217,0.193-0.393,0.43-0.393h1.206c0.237,0,0.429,0.176,0.429,0.393V48.061z
		 M193.297,55.377c0,0.218-0.193,0.393-0.431,0.393h-1.205c-0.236,0-0.43-0.175-0.43-0.393v-1.101c0-0.217,0.193-0.393,0.43-0.393
		h1.205c0.238,0,0.431,0.176,0.431,0.393V55.377z M193.297,52.939c0,0.217-0.193,0.393-0.431,0.393h-1.205
		c-0.236,0-0.43-0.176-0.43-0.393v-1.101c0-0.217,0.193-0.395,0.43-0.395h1.205c0.238,0,0.431,0.178,0.431,0.395V52.939z
		 M193.297,50.499c0,0.218-0.193,0.395-0.431,0.395h-1.205c-0.236,0-0.43-0.177-0.43-0.395V49.4c0-0.217,0.193-0.394,0.43-0.394
		h1.205c0.238,0,0.431,0.177,0.431,0.394V50.499z M193.297,48.061c0,0.217-0.193,0.393-0.431,0.393h-1.205
		c-0.236,0-0.43-0.176-0.43-0.393v-1.102c0-0.217,0.193-0.393,0.43-0.393h1.205c0.238,0,0.431,0.176,0.431,0.393V48.061z
		 M195.863,55.377c0,0.218-0.193,0.393-0.429,0.393h-1.206c-0.237,0-0.43-0.175-0.43-0.393v-1.101c0-0.217,0.193-0.393,0.43-0.393
		h1.206c0.236,0,0.429,0.176,0.429,0.393V55.377z M195.863,52.939c0,0.217-0.193,0.393-0.429,0.393h-1.206
		c-0.237,0-0.43-0.176-0.43-0.393V49.4c0-0.217,0.193-0.394,0.43-0.394h1.206c0.236,0,0.429,0.177,0.429,0.394V52.939z
		 M195.863,48.061c0,0.217-0.193,0.393-0.429,0.393h-1.206c-0.237,0-0.43-0.176-0.43-0.393v-1.102c0-0.217,0.193-0.393,0.43-0.393
		h1.206c0.236,0,0.429,0.176,0.429,0.393V48.061z"/>
	<path fill="#FFFFFF" d="M156.221,21.166H138.87c-0.619,0-1.122,0.502-1.122,1.121v32.744c0,0.619,0.502,1.122,1.122,1.122h17.352
		c0.62,0,1.121-0.503,1.121-1.122V22.287C157.342,21.667,156.841,21.166,156.221,21.166z M140.258,36.646v-2.74h14.576v2.74H140.258
		z M149.937,42.473c0,1.32-1.069,2.392-2.392,2.392c-1.321,0-2.393-1.071-2.393-2.392c0-1.322,1.071-2.394,2.393-2.394
		C148.868,40.08,149.937,41.151,149.937,42.473z M140.258,32.028v-2.74h14.576v2.74H140.258z M140.258,27.41V24.67h14.576v2.739
		H140.258z"/>
	<path fill="#FFFFFF" d="M203.022,44.737v2.295c0.363,0.118,0.626,0.459,0.626,0.859v1.56c0,0.497-0.406,0.903-0.902,0.903
		c-0.497,0-0.903-0.406-0.903-0.903v-1.56c0-0.4,0.262-0.741,0.625-0.859v-2.295c-2.161,0.181-3.87,2.449-3.87,5.225
		c0,2.893,1.856,5.237,4.147,5.237c2.289,0,4.146-2.345,4.146-5.237C206.892,47.186,205.184,44.917,203.022,44.737z"/>
	<path fill="#FFFFFF" d="M202.705,44.293l0.025-0.127c0.243-0.163,0.326-0.333,0.327-0.507c0.004-0.26-0.21-0.561-0.509-0.78
		c-0.133-0.098-0.205-0.219-0.205-0.344c0.011-0.259,0.252-0.438,0.467-0.578c0.221-0.138,0.437-0.226,0.438-0.228l0.001,0.001
		l0.119,0.05l-0.051,0.119c0,0-0.205,0.083-0.411,0.212c-0.208,0.125-0.392,0.308-0.383,0.424c0.002,0.055,0.027,0.117,0.134,0.198
		c0.32,0.24,0.577,0.569,0.582,0.926c0,0.239-0.13,0.476-0.408,0.658l-0.05,0.016L202.705,44.293z"/>
	<path fill="#FFFFFF" d="M270.131,138.442c-0.072,2.699-0.56,4.922-1.463,6.665c-0.903,1.743-2.414,3.257-4.532,4.539l-0.973-1.03
		c1.955-1.109,3.353-2.39,4.193-3.84c-0.745-0.836-1.537-1.598-2.378-2.285c-0.278,0.467-0.598,0.918-0.958,1.355l-0.958-0.987
		c1.326-1.69,2.231-3.816,2.716-6.376l1.283,0.309c-0.072,0.543-0.185,1.094-0.339,1.65H270.131z M268.755,139.76h-2.435
		c-0.211,0.572-0.442,1.107-0.692,1.607c0.903,0.749,1.676,1.453,2.32,2.111C268.313,142.561,268.582,141.322,268.755,139.76z
		 M276.227,144.307l-0.901,1.117c-0.735-1.028-1.659-2.07-2.774-3.127v7.227h-1.333v-12.912h1.333v3.984
		C273.926,141.74,275.15,142.977,276.227,144.307z"/>
	<path fill="#FFFFFF" d="M282.004,145.971h-2.666l0.821,0.52c-0.36,1.253-0.792,2.271-1.297,3.055l-1.074-0.757
		c0.543-0.879,0.956-1.817,1.239-2.817h-0.728V137h3.703V145.971z M280.78,139.624v-1.383h-1.254v1.383H280.78z M280.78,142.167
		v-1.404h-1.254v1.404H280.78z M280.78,144.76v-1.447h-1.254v1.447H280.78z M282.595,148.659l-1.16,0.482
		c-0.207-0.797-0.562-1.623-1.066-2.479l1.066-0.482C281.863,146.833,282.25,147.66,282.595,148.659z M290.83,147.196h-0.93v0.959
		c0,0.49-0.105,0.844-0.316,1.063s-0.622,0.328-1.232,0.328c-0.244,0-0.549-0.018-0.915-0.051l-0.439-1.239
		c0.245,0.024,0.507,0.036,0.785,0.036c0.428,0,0.676-0.023,0.747-0.072c0.068-0.048,0.104-0.135,0.104-0.26v-0.764h-4.179v2.328
		h-1.282v-2.328H282.3v-1.045h0.872v-3.4h2.774v-0.793h-3.61v-1.051h1.945v-0.721h-1.225v-0.959h1.225v-0.705h-1.563v-1.01h1.563
		v-0.836h1.268v0.836h2.125v-0.836h1.269v0.836h1.758v1.01h-1.758v0.705h1.195v0.959h-1.195v0.721h1.887v1.051h-3.581v0.793h2.651
		v3.4h0.93V147.196z M285.946,144.495v-0.678h-1.492v0.678H285.946z M285.946,146.151v-0.684h-1.492v0.684H285.946z
		 M287.675,139.199v-0.677h-2.125v0.677H287.675z M287.675,140.907v-0.721h-2.125v0.721H287.675z M288.633,144.495v-0.678h-1.383
		v0.678H288.633z M288.633,146.151v-0.684h-1.383v0.684H288.633z"/>
	<path fill="#FFFFFF" d="M277.465,104.323v4.293c0.677,0.221,1.171,0.859,1.171,1.607v2.917c0,0.93-0.76,1.688-1.688,1.688
		c-0.93,0-1.689-0.759-1.689-1.688v-2.917c0-0.748,0.493-1.387,1.171-1.607v-4.293c-4.042,0.338-7.237,4.582-7.237,9.771
		c0,5.41,3.472,9.796,7.755,9.796c4.281,0,7.754-4.386,7.754-9.796C284.702,108.905,281.507,104.661,277.465,104.323z"/>
	<path fill="#FFFFFF" d="M276.869,103.493l0.049-0.236c0.455-0.305,0.608-0.624,0.611-0.948c0.006-0.486-0.395-1.049-0.952-1.458
		c-0.25-0.184-0.386-0.41-0.383-0.644c0.018-0.484,0.469-0.818,0.872-1.082c0.413-0.257,0.816-0.422,0.821-0.424l0.001,0.001
		l0.222,0.093l-0.095,0.222c0,0.001-0.385,0.156-0.767,0.396c-0.391,0.234-0.734,0.576-0.715,0.794
		c0.002,0.103,0.048,0.22,0.248,0.371c0.601,0.449,1.083,1.063,1.088,1.73c0.003,0.448-0.242,0.891-0.763,1.231l-0.094,0.028
		L276.869,103.493z"/>
	<path fill="#FFFFFF" d="M60.236,148.024l-0.634,1.104c-2.32-0.865-4.057-1.986-5.209-3.365v3.718h-1.311v-3.704
		c-1.191,1.321-2.952,2.453-5.281,3.395l-0.634-1.146c2.263-0.82,3.948-1.861,5.058-3.119h-3.718v-5.131h4.575v-0.857h-5.634v-1.195
		h5.634v-1.109h1.311v1.109h5.613v1.195h-5.613v0.857h4.575v5.131h-3.747C56.269,146.072,57.94,147.112,60.236,148.024z
		 M53.082,141.834v-0.957h-3.264v0.957H53.082z M53.082,143.817v-0.916h-3.264v0.916H53.082z M57.657,141.834v-0.957h-3.264v0.957
		H57.657z M57.657,143.817v-0.916h-3.264v0.916H57.657z"/>
	<path fill="#FFFFFF" d="M74.876,146.972c-0.024,0.74-0.144,1.286-0.36,1.64s-0.482,0.568-0.8,0.645
		c-0.317,0.076-1.044,0.115-2.183,0.115c-0.716,0-1.191-0.026-1.426-0.079s-0.426-0.178-0.573-0.374
		c-0.147-0.197-0.22-0.5-0.22-0.908v-2.068h-1.859c-0.418,2.119-2.056,3.338-4.914,3.66l-0.648-1.268
		c2.397-0.102,3.792-0.898,4.186-2.393h-4.042v-1.182h12.81v1.182h-4.222v1.801c0,0.236,0.101,0.367,0.303,0.394
		s0.653,0.04,1.354,0.04c0.547,0,0.871-0.027,0.969-0.08c0.098-0.053,0.18-0.199,0.245-0.439s0.097-0.566,0.097-0.98L74.876,146.972
		z M68.133,138.773h-1.679v1.073h-1.333v-1.073h-3.098v-1.153h3.098v-0.986h1.333v0.986h1.679V138.773z M74.538,143.356h-1.297
		v-1.637H63.68v1.607h-1.29v-2.789h5.375c-0.048-0.158-0.202-0.443-0.461-0.857l1.391-0.396c0.163,0.298,0.379,0.716,0.648,1.253
		h5.194V143.356z M72.528,143.788h-8.185v-1.195h8.185V143.788z M74.848,138.773h-3.069v1.088h-1.297v-1.088h-1.643v-1.153h1.643
		v-0.986h1.297v0.986h3.069V138.773z"/>
	<path fill="#FFFFFF" d="M89.618,148.983H76.836v-1.305h12.781V148.983z M88.631,138.456H77.816v-1.297h10.814V138.456z"/>
	<path fill="#FFFFFF" d="M78.148,92.942H58.71c-0.694,0-1.256,0.563-1.256,1.257v36.68c0,0.695,0.562,1.257,1.256,1.257h19.438
		c0.693,0,1.256-0.562,1.256-1.257v-36.68C79.404,93.504,78.841,92.942,78.148,92.942z M60.265,110.284v-3.069h16.328v3.069H60.265z
		 M71.108,116.812c0,1.479-1.199,2.68-2.679,2.68c-1.48,0-2.681-1.2-2.681-2.68c0-1.48,1.201-2.681,2.681-2.681
		C69.909,114.131,71.108,115.332,71.108,116.812z M60.265,105.111v-3.069h16.328v3.069H60.265z M60.265,99.938v-3.069h16.328v3.069
		H60.265z"/>
	<path fill="#FFFFFF" d="M23.678,224.465l-0.634,1.102c-2.32-0.864-4.057-1.986-5.209-3.365v3.719h-1.311v-3.703
		c-1.191,1.32-2.952,2.451-5.281,3.393l-0.634-1.145c2.263-0.822,3.948-1.861,5.058-3.121h-3.718v-5.129h4.575v-0.857h-5.634v-1.196
		h5.634v-1.11h1.311v1.11h5.613v1.196h-5.613v0.857h4.575v5.129h-3.747C19.71,222.512,21.382,223.552,23.678,224.465z
		 M16.523,218.276v-0.959h-3.264v0.959H16.523z M16.523,220.256v-0.914h-3.264v0.914H16.523z M21.099,218.276v-0.959h-3.264v0.959
		H21.099z M21.099,220.256v-0.914h-3.264v0.914H21.099z"/>
	<path fill="#FFFFFF" d="M38.318,223.413c-0.024,0.74-0.144,1.286-0.36,1.639c-0.216,0.354-0.482,0.568-0.8,0.646
		c-0.317,0.077-1.044,0.115-2.183,0.115c-0.716,0-1.191-0.026-1.426-0.079s-0.426-0.178-0.573-0.375
		c-0.147-0.197-0.22-0.499-0.22-0.908v-2.067h-1.859c-0.418,2.118-2.056,3.339-4.914,3.66l-0.648-1.269
		c2.397-0.1,3.792-0.897,4.186-2.392h-4.042v-1.182h12.81v1.182h-4.222v1.802c0,0.234,0.101,0.366,0.303,0.393
		s0.653,0.039,1.354,0.039c0.547,0,0.871-0.025,0.969-0.079c0.098-0.053,0.18-0.199,0.245-0.439
		c0.065-0.239,0.097-0.566,0.097-0.979L38.318,223.413z M31.574,215.213h-1.679v1.074h-1.333v-1.074h-3.098v-1.152h3.098v-0.988
		h1.333v0.988h1.679V215.213z M37.979,219.795h-1.297v-1.635h-9.561v1.606h-1.29v-2.788h5.375c-0.048-0.158-0.202-0.445-0.461-0.857
		l1.391-0.396c0.163,0.298,0.379,0.716,0.648,1.254h5.194V219.795z M35.969,220.228h-8.185v-1.196h8.185V220.228z M38.289,215.213
		H35.22v1.088h-1.297v-1.088H32.28v-1.152h1.643v-0.988h1.297v0.988h3.069V215.213z"/>
	<path fill="#FFFFFF" d="M53.059,225.422H40.278v-1.303h12.781V225.422z M52.072,214.897H41.258V213.6h10.814V214.897z"/>
	<path fill="#FFFFFF" d="M41.589,169.792H22.151c-0.694,0-1.257,0.563-1.257,1.257v36.682c0,0.693,0.563,1.256,1.257,1.256h19.438
		c0.693,0,1.255-0.563,1.255-1.256v-36.682C42.845,170.355,42.282,169.792,41.589,169.792z M23.705,187.133v-3.069h16.328v3.069
		H23.705z M34.549,193.662c0,1.479-1.2,2.68-2.679,2.68c-1.48,0-2.681-1.2-2.681-2.68c0-1.48,1.2-2.681,2.681-2.681
		C33.35,190.981,34.549,192.181,34.549,193.662z M23.705,181.96v-3.068h16.328v3.068H23.705z M23.705,176.788v-3.069h16.328v3.069
		H23.705z"/>
	<polygon fill="#23A6E8" points="396.966,42.581 377.629,22.343 377.629,22.33 265.246,22.33 265.246,62.83 377.629,62.83 
		377.629,62.817 	"/>
	<path fill="#FFFFFF" d="M265.234,28.894c-0.174,0.567-0.428,1.238-0.762,2.011l-0.501,1.084v8.964h-1.235v-6.939
		c-0.384,0.449-0.68,0.785-0.885,1.009l-0.577-1.236c1.171-1.409,2.089-3.139,2.752-5.189L265.234,28.894z M273.463,32.085h-4.331
		c-0.398,0.998-0.835,1.87-1.311,2.615v4.681c0.759-0.229,1.551-0.524,2.375-0.885l0.076,1.263
		c-1.286,0.554-2.496,0.972-3.631,1.256l-0.405-1.125c0.224-0.128,0.336-0.302,0.336-0.521V36.43
		c-0.595,0.668-1.114,1.183-1.558,1.544l-0.831-0.954c1.72-1.528,2.91-3.173,3.569-4.935h-2.924v-1.208h3.837
		c-0.247-0.627-0.565-1.249-0.954-1.867l1.208-0.426c0.48,0.787,0.837,1.551,1.071,2.292h3.473V32.085z M273.772,40.171
		l-0.947,0.858c-2.096-1.798-3.335-4.4-3.72-7.804l1.208-0.336c0.078,0.87,0.222,1.666,0.433,2.389
		c0.787-0.627,1.407-1.279,1.86-1.956l0.981,0.816c-0.521,0.728-1.352,1.52-2.491,2.375
		C271.718,38.023,272.61,39.242,273.772,40.171z"/>
	<path fill="#FFFFFF" d="M287.644,34.687h-10.034v2.306c0,1.734-0.433,3.08-1.297,4.036l-0.995-0.886
		c0.297-0.279,0.552-0.702,0.765-1.27s0.319-1.471,0.319-2.711v-2.587h11.242V34.687z M287.293,30.692H285.2
		c-0.38,0.394-0.789,0.732-1.229,1.016c1.098,0.238,2.103,0.51,3.013,0.817l-0.467,0.858c-1.176-0.389-2.427-0.714-3.754-0.975
		c-1.757,0.664-3.551,0.968-5.381,0.913l-0.364-0.954c1.185,0.014,2.352-0.094,3.5-0.323c-0.819-0.156-1.739-0.272-2.759-0.35
		l0.563-0.831c1.318,0.124,2.72,0.32,4.207,0.59c0.43-0.247,0.794-0.501,1.091-0.762h-7.858V29.56h5.216
		c-0.124-0.229-0.259-0.464-0.405-0.707l1.277-0.268c0.192,0.307,0.375,0.631,0.549,0.975h4.894V30.692z M287.671,40.672h-10.089
		v-1.037h4.496v-0.927h-2.842v-1.016h2.842v-0.81h-2.471c-0.361,0.54-0.741,0.979-1.139,1.318l-0.776-0.981
		c0.664-0.54,1.183-1.286,1.558-2.238l1.167,0.35c-0.06,0.215-0.128,0.384-0.206,0.508h1.867v-0.844h1.276v0.844h3.686v1.043h-3.686
		v0.81h3.363v1.016h-3.363v0.927h4.317V40.672z"/>
	<path fill="#FFFFFF" d="M294.994,40.926h-1.249v-0.714h-2.601v0.714h-1.223v-6.322h5.072V40.926z M293.745,39.073v-3.301h-2.601
		v3.301H293.745z M299.93,33.369h-8.635v-4.448h8.635V33.369z M298.666,32.257v-2.183h-6.088v2.183H298.666z M301.281,40.926h-1.229
		v-0.714h-2.629v0.714h-1.235v-6.322h5.093V40.926z M300.053,39.086v-3.315h-2.629v3.315H300.053z"/>
	<path fill="#FFFFFF" d="M309.49,30.61h-3.617c-0.453,0.641-0.945,1.194-1.476,1.661l-1.036-0.762
		c0.887-0.677,1.641-1.661,2.258-2.951l1.242,0.35c-0.027,0.101-0.137,0.307-0.33,0.618h2.959V30.61z M315.955,39.595l-0.68,1.112
		c-1.963-0.773-3.625-1.81-4.989-3.109v3.356h-1.263v-3.315c-1.285,1.222-2.939,2.263-4.963,3.123l-0.658-1.139
		c2.196-0.746,4.07-1.922,5.621-3.528v-0.467h-3.047v2.093h-1.271v-3.185h4.317v-0.68h-5.484v-1.125h5.484v-0.7h1.263v0.7h5.498
		v1.125h-5.498v0.68h4.345v2.148c0,0.256-0.084,0.493-0.254,0.71c-0.17,0.218-0.563,0.326-1.181,0.326
		c-0.192,0-0.407-0.009-0.646-0.027l-0.35-1.064l0.968-0.014c0.142,0,0.213-0.099,0.213-0.295v-0.693h-3.096v0.425
		C311.75,37.623,313.641,38.803,315.955,39.595z M308.234,32.099l-1.181,0.309c-0.169-0.439-0.403-0.851-0.7-1.235l1.152-0.35
		C307.868,31.244,308.11,31.669,308.234,32.099z M315.77,30.61h-4.33c-0.293,0.462-0.634,0.87-1.023,1.222l-1.029-0.687
		c0.637-0.517,1.24-1.375,1.813-2.574l1.166,0.281c-0.072,0.229-0.171,0.453-0.295,0.673h3.699V30.61z M314.082,32.099l-1.194,0.323
		c-0.21-0.494-0.444-0.906-0.7-1.235l1.139-0.35C313.629,31.18,313.881,31.601,314.082,32.099z"/>
	<path fill="#FFFFFF" d="M322.209,39.89h-1.058v-0.693h-2.217v1.03h-1.058V29.292h4.332V39.89z M319.58,33.562v-3.103h-0.646v3.103
		H319.58z M319.58,38.064v-3.336h-0.646v3.336H319.58z M321.151,33.562v-3.103h-0.646v3.103H321.151z M321.151,38.064v-3.336h-0.646
		v3.336H321.151z M330.025,34.447l-0.617,1.084c-1.409-0.462-2.494-0.968-3.254-1.517c-0.855,0.554-1.894,1.06-3.115,1.517
		l-0.632-1.084c0.97-0.316,1.884-0.728,2.739-1.235c-0.5-0.522-0.865-0.986-1.099-1.394c-0.279,0.224-0.569,0.439-0.872,0.645
		l-0.754-0.94c1.299-0.888,2.203-1.862,2.711-2.924l1.152,0.35c-0.133,0.297-0.268,0.552-0.404,0.762h3.287v1.125
		c-0.407,0.787-1.073,1.592-1.997,2.416C328.067,33.792,329.02,34.19,330.025,34.447z M329.1,40.954h-1.242v-0.446h-3.315v0.48
		h-1.235v-5.216h5.793V40.954z M327.857,39.313v-2.361h-3.315v2.361H327.857z M327.775,30.836h-2.712l-0.116,0.11
		c0.389,0.691,0.803,1.204,1.242,1.538C326.82,31.967,327.35,31.417,327.775,30.836z"/>
	<path fill="#FFFFFF" d="M337.486,29.979c-0.705,1.021-1.76,1.915-3.164,2.684h2.533v3.192h-2.78l-0.144,1.222h3.081
		c-0.022,1.268-0.103,2.154-0.24,2.66c-0.138,0.505-0.359,0.833-0.666,0.981c-0.306,0.148-0.915,0.223-1.825,0.223
		c-0.307,0-0.687-0.005-1.14-0.014l-0.419-1.153c0.48,0.032,1.264,0.048,2.348,0.048c0.439,0,0.658-0.563,0.658-1.689h-3.164
		l0.412-3.335h2.67v-1.064h-2.333v-0.59c-0.298,0.146-0.683,0.295-1.153,0.446l-0.576-1.023c0.718-0.224,1.406-0.505,2.065-0.844
		c-0.343-0.215-0.745-0.425-1.208-0.631l0.83-0.872c0.385,0.16,0.895,0.428,1.531,0.803c0.462-0.311,0.859-0.659,1.194-1.043h-3.164
		V28.88h4.653V29.979z M344.041,32.607l-0.639,0.981c-0.484-0.21-0.915-0.43-1.29-0.659v1.421c0,0.151,0.08,0.227,0.24,0.227h1.249
		v1.064h-1.646c-0.674,0-1.01-0.346-1.01-1.037v-0.858h-1.379c0,0.975-0.538,1.729-1.613,2.265l-0.762-0.92
		c0.37-0.155,0.664-0.365,0.882-0.628s0.325-0.69,0.325-1.28v-0.521h3.247c-1.748-1.071-2.942-2.317-3.583-3.741l1.112-0.35
		c0.128,0.32,0.366,0.696,0.714,1.125c0.412-0.338,0.769-0.714,1.07-1.125l1.01,0.631c-0.444,0.545-0.879,0.981-1.305,1.311
		c0.137,0.137,0.348,0.316,0.631,0.536c0.527-0.435,0.982-0.872,1.366-1.311l0.968,0.618c-0.462,0.54-0.926,0.986-1.393,1.338
		C342.689,31.982,343.291,32.287,344.041,32.607z M343.773,40.253l-0.872,0.79c-0.595-0.444-1.283-0.899-2.065-1.366
		c-0.801,0.595-1.801,1.064-3,1.407l-0.617-1.03c1.098-0.288,1.934-0.625,2.505-1.009c-0.745-0.435-1.38-0.778-1.901-1.029
		l0.721-0.742h-0.83V36.19h5.258v1.084c-0.385,0.572-0.797,1.101-1.236,1.586C342.439,39.309,343.119,39.773,343.773,40.253z
		 M341.521,37.274h-2.643c0.637,0.32,1.25,0.648,1.84,0.982C341.071,37.885,341.339,37.559,341.521,37.274z"/>
	<path fill="#FFFFFF" d="M349.573,28.908c-0.119,0.549-0.349,1.229-0.687,2.039l-0.508,1.139v8.882h-1.235v-6.843
		c-0.22,0.293-0.506,0.62-0.858,0.981l-0.576-1.208c1.281-1.579,2.152-3.331,2.615-5.257L349.573,28.908z M357.953,31.509h-5.408
		c-0.288,0.787-0.595,1.51-0.92,2.169h1.661v-1.565h1.235v1.565h2.719v5.059c0,0.302-0.113,0.569-0.34,0.803s-0.619,0.35-1.178,0.35
		c-0.137,0-0.32-0.004-0.549-0.014l-0.412-1.235l0.988,0.027c0.174,0,0.262-0.089,0.262-0.268v-3.542h-1.49v6.095h-1.235v-6.095
		h-1.489v5.031h-1.222v-4.427c-0.439,0.572-0.847,1.064-1.222,1.476l-0.775-1.043c1.033-1.098,1.91-2.56,2.629-4.386h-1.813v-1.18
		h2.203c0.143-0.366,0.307-0.943,0.494-1.73l1.236,0.227c-0.037,0.21-0.168,0.711-0.393,1.503h5.018V31.509z"/>
	<path fill="#FFFFFF" d="M361.611,37.652c-0.15,1.199-0.423,2.295-0.816,3.288l-1.098-0.515c0.307-0.664,0.592-1.647,0.857-2.952
		L361.611,37.652z M365.064,36.485l-1.051,0.398c-0.086-0.251-0.144-0.43-0.172-0.535c-1.413,0.352-2.635,0.604-3.664,0.755
		l-0.322-1.078c0.75-0.636,1.516-1.542,2.299-2.718c-0.467,0.083-1.107,0.167-1.922,0.254l-0.281-0.996
		c0.864-0.934,1.61-2.292,2.237-4.077l1.194,0.309c-0.518,1.368-1.184,2.563-1.998,3.583c0.422-0.046,0.914-0.126,1.477-0.24
		c0.174-0.311,0.416-0.778,0.727-1.4l1.182,0.377c-1.076,2.073-2.148,3.629-3.219,4.667c0.553-0.096,1.187-0.243,1.9-0.439
		c-0.123-0.261-0.236-0.476-0.336-0.645l1.022-0.446C364.586,35.087,364.895,35.831,365.064,36.485z M363.396,40.377l-1.14,0.227
		c0.014-1.062-0.075-2.068-0.268-3.02l0.995-0.227C363.195,38.171,363.332,39.178,363.396,40.377z M365.195,39.54l-1.003,0.323
		c-0.151-0.833-0.397-1.645-0.741-2.437l0.954-0.295C364.84,38.091,365.104,38.895,365.195,39.54z M372.236,32.326l-0.617,1.084
		c-1.3-0.846-2.373-1.887-3.219-3.123c-0.971,1.254-2.035,2.286-3.191,3.096l-0.674-1.043c1.643-1.185,2.833-2.455,3.569-3.809
		l1.167,0.336c-0.014,0.114-0.066,0.217-0.158,0.309C369.759,30.296,370.8,31.347,372.236,32.326z M371.221,40.926h-1.276v-0.769
		h-3.22v0.769h-1.275v-5.608h5.771V40.926z M370.479,34.124h-4.249v-1.181h4.249V34.124z M369.944,38.949v-2.45h-3.22v2.45H369.944z
		"/>
	<path fill="#FFFFFF" d="M287.445,52.022h-1.25v-1.084h-9.389v1.084h-1.208v-2.128h11.847V52.022z M281.288,46.621
		c-0.677,0.366-1.416,0.666-2.217,0.899l-0.042,0.117c0.824,0.32,1.572,0.684,2.245,1.091l-0.631,0.872
		c-0.581-0.371-1.279-0.721-2.093-1.05c-0.54,0.554-1.268,0.947-2.183,1.181l-0.646-1.03c0.934-0.178,1.582-0.47,1.946-0.875
		s0.546-1.172,0.546-2.303h1.153c-0.018,0.361-0.043,0.657-0.075,0.885c0.508-0.165,0.972-0.375,1.393-0.631L281.288,46.621z
		 M277.706,47.314l-0.954,0.501c-0.247-0.549-0.572-1.06-0.975-1.531l0.947-0.521C277.149,46.275,277.477,46.792,277.706,47.314z
		 M286.786,57.836h-1.222v-0.433h-8.112v0.433h-1.236v-3.288h4.104c0.124-0.179,0.231-0.38,0.323-0.604h-3.191v-2.402h7.968v2.402
		h-3.329c-0.087,0.206-0.195,0.407-0.323,0.604h5.017V57.836z M285.564,56.463v-0.954h-8.112v0.954H285.564z M284.253,53.031v-0.563
		h-5.621v0.563H284.253z M287.52,48.886l-0.666,0.885c-0.641-0.38-1.469-0.759-2.485-1.139c-0.581,0.572-1.373,0.938-2.375,1.098
		l-0.494-1.03c0.984-0.16,1.644-0.434,1.98-0.82c0.336-0.386,0.504-1.156,0.504-2.31l1.14,0.027c0.014,0.211,0,0.51-0.042,0.899
		c0.48-0.156,0.998-0.41,1.551-0.762l0.631,0.83c-0.911,0.518-1.693,0.865-2.347,1.043l-0.076,0.124
		C285.868,48.076,286.761,48.46,287.52,48.886z M283.512,47.424l-0.981,0.446c-0.188-0.544-0.469-1.073-0.844-1.585l0.981-0.433
		C283.038,46.346,283.32,46.87,283.512,47.424z"/>
	<path fill="#FFFFFF" d="M301.886,56.504l-0.343,1.139c-0.961,0.042-1.874,0.062-2.738,0.062c-2.463,0-4.1-0.107-4.912-0.323
		c-0.812-0.215-1.559-0.611-2.24-1.188c-0.422,0.646-0.854,1.222-1.297,1.73l-0.982-0.762c1.231-1.4,2.01-2.754,2.334-4.063h-2.066
		v-1.181c0.773-0.773,1.383-1.569,1.826-2.389h-1.997V48.35h3.362v1.181c-0.397,0.847-0.946,1.647-1.646,2.402h1.785V53.1
		c-0.18,0.732-0.436,1.441-0.77,2.127c0.353,0.38,0.824,0.683,1.418,0.91c0.592,0.227,1.342,0.354,2.25,0.381
		s1.871,0.041,2.887,0.041C299.826,56.559,300.87,56.541,301.886,56.504z M292.901,47.197l-0.872,0.844
		c-0.663-0.677-1.414-1.277-2.251-1.798l0.899-0.872C291.606,45.948,292.348,46.557,292.901,47.197z M301.742,55.083h-3.625v1.071
		h-1.207v-1.071h-3.699v-0.995h3.699v-0.666h-3.055v-4.104h3.055v-0.645h-1.744v-0.954h1.744v-0.563h1.207v0.563h1.771v0.954h-1.771
		v0.645h2.993v4.104h-2.993v0.666h3.625V55.083z M301.502,48.124h-1.209V46.82h-5.525v1.304h-1.248v-2.375h7.982V48.124z
		 M296.91,50.938v-0.673h-1.86v0.673H296.91z M296.91,52.482V51.81h-1.86v0.673H296.91z M299.93,50.938v-0.673h-1.813v0.673H299.93z
		 M299.93,52.482V51.81h-1.813v0.673H299.93z"/>
	<path fill="#FFFFFF" d="M315.812,55.983h-5.497v1.826h-1.25v-1.826h-5.484v-1.064h5.484v-0.762h-4.2V49.49h9.685v4.667h-4.234
		v0.762h5.497V55.983z M309.133,48.755h-4.763v-2.952h4.763V48.755z M307.898,47.719v-0.858h-2.307v0.858H307.898z M309.064,51.343
		v-0.831H306.1v0.831H309.064z M309.064,53.127v-0.824H306.1v0.824H309.064z M314.953,48.755h-4.708v-2.952h4.708V48.755z
		 M313.313,51.343v-0.831h-2.998v0.831H313.313z M313.313,53.127v-0.824h-2.998v0.824H313.313z M313.732,47.719v-0.858h-2.252v0.858
		H313.732z"/>
	<path fill="#FFFFFF" d="M321.535,45.776c-0.154,0.485-0.395,1.084-0.721,1.798l-0.486,1.029v9.218h-1.256v-7.07
		c-0.284,0.403-0.625,0.821-1.023,1.256l-0.563-1.325c1.121-1.346,2.053-3.084,2.793-5.217L321.535,45.776z M329.868,57.445h-9.081
		v-1.235h2.32c-0.197-1.94-0.542-4.109-1.036-6.507l0.872-0.59h-1.819v-1.256h3.672c-0.165-0.595-0.423-1.297-0.775-2.107
		l1.249-0.295c0.311,0.755,0.584,1.556,0.816,2.402h3.432v1.256h-1.853l1.009,0.618c-0.242,2.137-0.588,4.296-1.037,6.479h2.231
		V57.445z M327.466,49.112h-4.249c0.395,1.707,0.778,4.072,1.154,7.097h1.969C326.889,53.638,327.265,51.272,327.466,49.112z"/>
	<path fill="#FFFFFF" d="M337.631,50.08h-0.576c-0.211,0.723-0.433,1.336-0.666,1.839h0.988v1.125h-2.135v1.311h2.375v1.091h-2.375
		v2.375h-1.215v-2.375h-2.402v-1.091h2.402v-1.311h-2.08v-1.125h1.03c-0.293-0.855-0.513-1.469-0.659-1.839h-0.693v-1.153h2.416
		v-1.181h-2.107v-1.112h2.107v-1.112h1.215v1.112h2.094v1.112h-2.094v1.181h2.375V50.08z M335.729,50.08h-2.079
		c0.256,0.686,0.457,1.299,0.604,1.839h0.844C335.363,51.26,335.574,50.647,335.729,50.08z M344.096,55.296
		c-0.077,0.709-0.203,1.325-0.377,1.846c-0.174,0.522-0.49,0.783-0.947,0.783c-0.471,0-0.83-0.336-1.078-1.009
		c-0.246-0.672-0.37-1.885-0.37-3.638c0-0.746,0.034-2.206,0.103-4.379h-1.098c-0.031,1.826-0.117,3.104-0.254,3.837
		c0.448,0.636,0.818,1.253,1.111,1.853l-0.912,0.776c-0.073-0.151-0.261-0.499-0.563-1.043c-0.453,1.281-1.105,2.459-1.957,3.535
		l-0.912-0.762c1.171-1.615,1.828-3.02,1.97-4.214c-0.343-0.503-0.849-1.16-1.517-1.97l0.926-0.749
		c0.477,0.609,0.742,0.957,0.797,1.043c0.092-0.65,0.131-1.418,0.116-2.306h-1.167v-1.153h1.167c0.009-0.412,0.015-1.148,0.015-2.21
		h1.18c0.01,0.371,0.014,1.107,0.014,2.21h2.361c-0.092,2.938-0.137,4.654-0.137,5.148c0,0.847,0.008,1.487,0.023,1.922
		s0.043,0.821,0.082,1.16c0.039,0.338,0.068,0.518,0.09,0.539l0.064,0.031l0.063-0.034c0.014-0.023,0.055-0.243,0.123-0.659
		c0.068-0.417,0.105-0.803,0.109-1.16L344.096,55.296z"/>
	<path fill="#FFFFFF" d="M349.957,45.989c-1.024,1.368-2.275,2.482-3.754,3.342l-0.604-1.208c1.115-0.581,2.162-1.48,3.137-2.697
		L349.957,45.989z M350.252,48.59c-0.434,0.737-0.898,1.43-1.393,2.08v7.152h-1.305v-5.649c-0.503,0.499-0.972,0.888-1.406,1.167
		l-0.549-1.25c1.189-0.778,2.338-2.109,3.445-3.995L350.252,48.59z M357.939,50.739h-1.895v5.697c0,0.934-0.508,1.4-1.523,1.4
		c-0.649,0-1.285-0.014-1.908-0.041l-0.467-1.277c0.395,0.009,1.121,0.014,2.184,0.014c0.091,0,0.179-0.038,0.264-0.113
		c0.084-0.075,0.127-0.168,0.127-0.278v-5.402h-4.585v-1.235h7.804V50.739z M357.59,47.184h-7.07v-1.222h7.07V47.184z"/>
</g>
</svg>
