<?xml version="1.0" encoding="utf-8"?>
<!-- Generator: Adobe Illustrator 13.0.1, SVG Export Plug-In . SVG Version: 6.00 Build 14948)  -->
<!DOCTYPE svg PUBLIC "-//W3C//DTD SVG 1.1//EN" "http://www.w3.org/Graphics/SVG/1.1/DTD/svg11.dtd">
<svg version="1.1" id="圖層_1" xmlns="http://www.w3.org/2000/svg" xmlns:xlink="http://www.w3.org/1999/xlink" x="0px" y="0px"
	 width="750px" height="272.195px" viewBox="0 0 750 272.195" enable-background="new 0 0 750 272.195" xml:space="preserve">
<g>
	<path fill-rule="evenodd" clip-rule="evenodd" fill="#30C6BE" d="M750,111.87c0,6.389-4.33,11.566-9.677,11.566H13.381
		c-5.34,0-9.675-5.177-9.675-11.566V11.568C3.706,5.176,8.041,0,13.381,0h726.942C745.67,0,750,5.176,750,11.568V111.87z"/>
	<path fill-rule="evenodd" clip-rule="evenodd" fill="#033775" d="M190.361,108.479c0,8.26-5.558,14.957-12.415,14.957H12.415
		C5.56,123.436,0,116.739,0,108.479v-93.52C0,6.697,5.56,0,12.415,0h165.531c6.857,0,12.415,6.697,12.415,14.959V108.479z"/>
	<path fill="#FFFFFF" d="M38.259,68.606c-3.58,1.332-6.379,2.227-8.398,2.685l-0.568-2.116c0.3-0.062,0.652-0.159,1.058-0.291
		V58.291h2.037v10.078c0.564-0.176,0.908-0.295,1.031-0.357V56.505h-3.279v-7.909h6.956v7.909h-1.521v3.571h1.931v2.222h-1.931v4.96
		c0.846-0.273,1.688-0.582,2.525-0.926L38.259,68.606z M34.768,54.336v-3.584h-2.328v3.584H34.768z M53.296,56.386l-1.164,2.09
		c-0.979-0.564-1.892-1.261-2.737-2.09v1.441h-7.909v-1.375c-0.917,0.767-1.737,1.371-2.46,1.812l-1.362-1.931
		c1.967-1.076,3.456-2.429,4.471-4.061h-3.65v-2.169h4.734c0.256-0.529,0.516-1.313,0.78-2.354l2.367,0.304
		c-0.237,0.776-0.458,1.459-0.661,2.05h6.891v2.169h-3.663C49.751,53.807,51.206,55.178,53.296,56.386z M52.647,61.835h-9.244
		l-0.516,1.984h8.397c-0.088,1.57-0.24,2.994-0.456,4.272c-0.216,1.279-0.575,2.121-1.078,2.526
		c-0.502,0.406-0.938,0.65-1.309,0.734c-0.371,0.083-2.231,0.125-5.581,0.125l-0.887-2.328c0.935,0.062,1.913,0.093,2.937,0.093
		c1.534,0,2.434-0.033,2.697-0.1c0.265-0.066,0.479-0.28,0.642-0.641s0.284-1.182,0.364-2.46h-8.809l1.138-4.206h-2.486V59.64h14.19
		V61.835z M48.641,55.685c-1.006-1.181-1.737-2.319-2.195-3.412h-1.653c-0.591,1.146-1.415,2.284-2.474,3.412H48.641z"/>
	<path fill="#FFFFFF" d="M62.342,58.066l-1.469,2.01c-1.198-1.199-2.741-2.389-4.628-3.571l1.454-2.01
		C59.71,55.721,61.257,56.911,62.342,58.066z M62.223,62.404c-0.873,3.245-2.169,6.379-3.889,9.403l-2.063-1.441
		c1.86-3.447,3.134-6.498,3.821-9.152L62.223,62.404z M62.421,51.599l-1.68,1.865c-0.873-1.172-2.244-2.482-4.113-3.928l1.706-1.865
		C59.851,48.808,61.213,50.117,62.421,51.599z M67.076,60.235c0.018,0.406,0.026,0.812,0.026,1.217c0,2.839-0.349,5.052-1.045,6.639
		s-1.745,2.861-3.147,3.822l-1.732-1.706c2.327-1.34,3.491-4.148,3.491-8.425c0-0.467-0.009-0.983-0.026-1.547H67.076z
		 M80.103,58.807l-2.222,1.137c-0.317-0.52-0.696-1.063-1.138-1.626c-5.704,0.476-10.135,0.736-13.291,0.78l-0.437-1.997
		c1.234-0.652,2.667-2.099,4.299-4.338h-4.352v-2.222h5.819c0.361-0.626,0.833-1.539,1.415-2.738l2.539,0.516
		c-0.309,0.74-0.679,1.481-1.11,2.222h8.238v2.222h-9.562c-0.908,1.385-2.081,2.711-3.518,3.981
		c2.777-0.026,5.537-0.198,8.279-0.516c-0.415-0.511-0.983-1.106-1.706-1.786l2.248-1.084
		C77.316,55.015,78.815,56.832,80.103,58.807z M71.877,71.675h-2.341v-11.44h2.341V71.675z M79.997,71.424h-3.598
		c-0.626,0-1.117-0.181-1.475-0.542c-0.356-0.361-0.535-0.846-0.535-1.455v-9.218h2.354v8.372c0,0.141,0.054,0.271,0.159,0.39
		c0.105,0.119,0.216,0.179,0.331,0.179h2.764V71.424z"/>
	<path fill="#FFFFFF" d="M93.076,61.452l-1.652,1.626c-0.441-0.934-0.948-1.833-1.521-2.698v11.176h-2.327v-9.774
		c-0.661,1.358-1.601,2.83-2.817,4.417l-1.349-2.301c1.517-1.905,2.87-4.29,4.06-7.155h-3.875v-2.248h3.981v-3.386
		c-1.305,0.22-2.297,0.348-2.976,0.383l-0.952-2.089c3.2-0.309,5.845-0.886,7.935-1.733l1.085,1.984
		c-0.838,0.362-1.76,0.666-2.765,0.913v3.928h2.937v2.248h-2.937v0.569C91.26,58.891,92.318,60.27,93.076,61.452z M107.135,71.292
		H91.887v-2.169h6.612v-3.386h-5.634v-2.196h5.634v-2.764c-2.151,0.159-3.813,0.251-4.986,0.277l-0.793-2.116
		c5.192-0.124,9.565-0.604,13.119-1.442l0.912,2.037c-2.019,0.459-3.967,0.794-5.845,1.005v3.002h5.66v2.196h-5.66v3.386h6.229
		V71.292z M105.76,56.69H93.751v-8.094h12.009V56.69z M103.286,54.495v-3.703h-7.062v3.703H103.286z"/>
	<path fill="#FFFFFF" d="M134.325,71.159h-23.673v-2.09h2.844v-6.176h17.986v6.176h2.843V71.159z M123.759,61.187h-12.021V48.451
		h11.995v1.931h-4.576v1.732h3.359v5.409h-3.359v1.72h4.603V61.187z M116.908,52.114v-1.732h-2.923v1.732H116.908z M120.215,55.712
		v-1.786h-6.229v1.786H120.215z M116.908,59.243v-1.72h-2.923v1.72H116.908z M118.786,69.069v-4.086h-2.87v4.086H118.786z
		 M123.983,69.069v-4.086h-2.87v4.086H123.983z M134.246,53.49h-7.393c-0.714,1.226-1.517,2.284-2.407,3.174l-1.521-1.759
		c1.728-1.843,2.984-4.219,3.769-7.128l2.302,0.41c-0.326,1.208-0.68,2.235-1.059,3.082h6.309V53.49z M133.651,59.838h-8.689v-2.222
		h8.689V59.838z M129.102,64.983h-2.816v4.086h2.816V64.983z"/>
	<path fill="#FFFFFF" d="M145.567,60.076c-0.601,0.309-1.42,0.697-2.46,1.164v8.015c0,0.564-0.119,1.022-0.357,1.375
		c-0.238,0.353-0.533,0.593-0.886,0.721c-0.354,0.127-1.01,0.192-1.971,0.192c-0.485,0-0.948-0.022-1.389-0.066l-0.596-2.46
		c0.953,0.088,1.693,0.132,2.223,0.132c0.167,0,0.313-0.077,0.436-0.231c0.124-0.154,0.186-0.319,0.186-0.496v-6.255
		c-1.014,0.396-1.936,0.718-2.764,0.965l-0.463-2.275c1.11-0.3,2.187-0.679,3.227-1.137v-5.198h-2.936V52.22h2.936v-4.312h2.354
		v4.312h2.076v2.301h-2.076v4.259c0.979-0.423,1.798-0.794,2.46-1.111V60.076z M161.305,71.133h-15.87v-2.275h6.824v-4.695h-5.872
		v-2.354h14.297v2.354h-5.965v4.695h6.586V71.133z M161.119,59.838h-4.747c-0.512,0-0.955-0.209-1.329-0.628
		c-0.375-0.419-0.563-0.915-0.563-1.488V53h-1.812c0.018,1.605-0.419,3.117-1.31,4.536c-0.891,1.42-2.09,2.509-3.597,3.267
		l-1.601-1.733c1.296-0.538,2.339-1.375,3.128-2.513s1.184-2.323,1.184-3.558h-2.037v2.632h-2.434v-4.84h6.256
		c-0.238-0.758-0.652-1.547-1.243-2.368l2.434-0.78c0.617,1.032,1.15,2.081,1.6,3.148h5.991v4.92h-2.446V53h-1.865v4.073
		c0,0.397,0.181,0.595,0.543,0.595h3.848V59.838z"/>
	<path fill-rule="evenodd" clip-rule="evenodd" fill="#FFFFFF" d="M220.12,94.21h37.66c1.57,0,2.85-1.281,2.85-2.847V41.321
		c0-1.568-1.279-2.843-2.85-2.843h-9.728v5.117h7.254v4.212v41.287h-32.713V43.595h7.255v-5.117h-9.729
		c-1.563,0-2.843,1.275-2.843,2.843v50.042C217.277,92.93,218.558,94.21,220.12,94.21z M233.599,43.595v-3.296
		c0-0.208,0.111-0.402,0.293-0.553c0.2-0.157,0.484-0.264,0.805-0.264h8.509c0.321,0,0.603,0.107,0.804,0.264
		c0.181,0.151,0.296,0.345,0.296,0.553v3.296H233.599z"/>
	<path fill-rule="evenodd" clip-rule="evenodd" fill="#FFFFFF" d="M228.156,50.767h21.598c0.638,0,1.161,0.528,1.161,1.172
		c0,0.644-0.523,1.167-1.161,1.167h-21.598c-0.646,0-1.171-0.523-1.171-1.167C226.985,51.294,227.51,50.767,228.156,50.767z"/>
	<path fill-rule="evenodd" clip-rule="evenodd" fill="#FFFFFF" d="M228.156,57.058h21.598c0.638,0,1.161,0.525,1.161,1.167
		c0,0.649-0.523,1.172-1.161,1.172h-21.598c-0.646,0-1.171-0.523-1.171-1.172C226.985,57.583,227.51,57.058,228.156,57.058z"/>
	<path fill-rule="evenodd" clip-rule="evenodd" fill="#FFFFFF" d="M228.156,63.736h21.598c0.638,0,1.161,0.529,1.161,1.172
		c0,0.641-0.523,1.167-1.161,1.167h-21.598c-0.646,0-1.171-0.527-1.171-1.167C226.985,64.265,227.51,63.736,228.156,63.736z"/>
	<path fill-rule="evenodd" clip-rule="evenodd" fill="#FFFFFF" d="M228.156,70.421h21.598c0.638,0,1.161,0.523,1.161,1.167
		c0,0.646-0.523,1.173-1.161,1.173h-21.598c-0.646,0-1.171-0.528-1.171-1.173C226.985,70.944,227.51,70.421,228.156,70.421z"/>
	<path fill-rule="evenodd" clip-rule="evenodd" fill="#FFFFFF" d="M228.156,77.099h21.598c0.638,0,1.161,0.526,1.161,1.173
		c0,0.644-0.523,1.167-1.161,1.167h-21.598c-0.646,0-1.171-0.523-1.171-1.167C226.985,77.625,227.51,77.099,228.156,77.099z"/>
	<path fill-rule="evenodd" clip-rule="evenodd" fill="#FFFFFF" d="M244.772,36.172h-11.646c-0.657,0-1.254,0.219-1.684,0.568
		c-0.395,0.333-0.65,0.784-0.65,1.274v7.204c0,0.487,0.256,0.937,0.65,1.274c0.43,0.348,1.026,0.569,1.684,0.569h11.646
		c0.658,0,1.254-0.221,1.684-0.569c0.396-0.337,0.651-0.787,0.651-1.274v-7.204c0-0.49-0.255-0.942-0.651-1.274
		C246.026,36.391,245.431,36.172,244.772,36.172z M234.696,38.532h8.509c0.542,0,1.046,0.188,1.406,0.488v0.003
		c0.39,0.321,0.633,0.772,0.633,1.276v2.297c0,0.504-0.243,0.952-0.633,1.276c-0.36,0.302-0.864,0.487-1.406,0.487h-8.509
		c-0.543,0-1.047-0.185-1.408-0.487c-0.389-0.324-0.632-0.772-0.632-1.276v-2.297c0-0.504,0.237-0.955,0.632-1.276V39.02
		C233.649,38.72,234.153,38.532,234.696,38.532z"/>
	<path fill="#FFFFFF" d="M282.262,42.573h-6.115v-1.308h2.49c-0.121-0.446-0.284-0.851-0.489-1.213l1.49-0.386
		c0.268,0.604,0.454,1.137,0.56,1.6h2.064V42.573z M281.733,44.914h-5.02v-1.277h5.02V44.914z M281.733,47.238h-4.988V45.93h4.988
		V47.238z M281.749,53.464h-1.402v-0.662h-2.167v1.048h-1.403v-5.532h4.973V53.464z M280.347,51.494v-1.836h-2.167v1.836H280.347z
		 M290.174,41.588h-2.451v10.859c0,0.42-0.135,0.754-0.405,1.001c-0.271,0.247-0.611,0.37-1.021,0.37
		c-0.688,0-1.45-0.01-2.286-0.031l-0.473-1.418c0.757,0.058,1.474,0.086,2.151,0.086c0.373,0,0.56-0.105,0.56-0.315V41.588h-3.483
		v-1.387h7.408V41.588z"/>
	<path fill="#FFFFFF" d="M306.376,51.77h-6.312v2.096h-1.435V51.77h-6.297v-1.222h6.297v-0.875h-4.823v-5.359h11.12v5.359h-4.862
		v0.875h6.312V51.77z M298.709,43.471h-5.47v-3.389h5.47V43.471z M297.29,42.281v-0.985h-2.647v0.985H297.29z M298.63,46.442v-0.954
		h-3.404v0.954H298.63z M298.63,48.491v-0.946h-3.404v0.946H298.63z M305.392,43.471h-5.406v-3.389h5.406V43.471z M303.508,46.442
		v-0.954h-3.443v0.954H303.508z M303.508,48.491v-0.946h-3.443v0.946H303.508z M303.988,42.281v-0.985h-2.585v0.985H303.988z"/>
	<rect x="308.426" y="45.765" fill="#FFFFFF" width="14.043" height="1.426"/>
	<path fill="#FFFFFF" d="M282.262,80.904h-6.115v-1.308h2.49c-0.121-0.446-0.284-0.851-0.489-1.213l1.49-0.386
		c0.268,0.604,0.454,1.137,0.56,1.6h2.064V80.904z M281.733,83.245h-5.02v-1.277h5.02V83.245z M281.733,85.57h-4.988v-1.308h4.988
		V85.57z M281.749,91.795h-1.402v-0.662h-2.167v1.048h-1.403v-5.532h4.973V91.795z M280.347,89.825v-1.836h-2.167v1.836H280.347z
		 M290.174,79.919h-2.451v10.859c0,0.42-0.135,0.754-0.405,1.001c-0.271,0.247-0.611,0.37-1.021,0.37
		c-0.688,0-1.45-0.01-2.286-0.031l-0.473-1.418c0.757,0.058,1.474,0.086,2.151,0.086c0.373,0,0.56-0.105,0.56-0.315V79.919h-3.483
		v-1.387h7.408V79.919z"/>
	<path fill="#FFFFFF" d="M306.376,90.101h-6.312v2.096h-1.435v-2.096h-6.297v-1.222h6.297v-0.875h-4.823v-5.359h11.12v5.359h-4.862
		v0.875h6.312V90.101z M298.709,81.803h-5.47v-3.389h5.47V81.803z M297.29,80.613v-0.985h-2.647v0.985H297.29z M298.63,84.774V83.82
		h-3.404v0.954H298.63z M298.63,86.823v-0.946h-3.404v0.946H298.63z M305.392,81.803h-5.406v-3.389h5.406V81.803z M303.508,84.774
		V83.82h-3.443v0.954H303.508z M303.508,86.823v-0.946h-3.443v0.946H303.508z M303.988,80.613v-0.985h-2.585v0.985H303.988z"/>
	<path fill="#FFFFFF" d="M322.438,91.638h-13.98v-1.426h13.98V91.638z M321.357,80.124h-11.829v-1.418h11.829V80.124z"/>
	<path fill="#FFFFFF" d="M721.214,69.243l-6.67-13.357c-0.346-0.862-1.188-1.477-2.168-1.477h-10.528v-9.156v-0.066
		c0-1.291-1.062-2.337-2.339-2.337h-36.293h-0.047c-1.292,0-2.355,1.046-2.355,2.337v34.059v0.047c0,1.281,1.063,2.334,2.355,2.334
		h5.034c0.428,1.591,1.222,2.979,2.351,4.091c1.656,1.658,3.924,2.668,6.426,2.668c2.512,0,4.799-1.01,6.455-2.668
		c1.127-1.112,1.955-2.5,2.35-4.091h13.663h0.033c0.412,1.591,1.271,2.979,2.367,4.091l0.017-0.018
		c1.635,1.658,3.905,2.686,6.406,2.686c2.449,0,4.664-0.963,6.308-2.55l0.149-0.118c1.125-1.112,1.951-2.535,2.351-4.091h2.02h0.066
		c1.26,0,2.317-1.054,2.317-2.334v-9.022C721.481,69.905,721.382,69.545,721.214,69.243z M697.179,56.675v0.066V76.96h-13.413
		c-1.293,0-2.316,1.06-2.316,2.333v0.052c-0.035,1.21-0.533,2.283-1.321,3.079c-0.798,0.794-1.927,1.294-3.148,1.294
		c-1.196,0-2.319-0.5-3.113-1.294c-0.795-0.796-1.296-1.902-1.296-3.131c0-1.272-1.055-2.333-2.352-2.333h-0.032h-4.702v-29.44
		h31.694V56.675z M701.848,59.076h9.089l3.791,7.54h-12.88V59.076z M716.812,76.96h-1.756c-1.29,0-2.345,1.06-2.345,2.333v0.052
		c0,1.21-0.502,2.283-1.299,3.079l-0.099,0.101c-0.776,0.728-1.852,1.193-3.043,1.193c-1.209,0-2.319-0.5-3.115-1.277v-0.018
		c-0.795-0.796-1.306-1.902-1.306-3.131c0-1.17-0.879-2.132-2.002-2.317v-7.564h14.271l0.693,1.388V76.96z"/>
	<path fill="#FFFFFF" d="M667.94,49.015V75.5h26.486V62.907V49.015H667.94z M678.458,49.921h5.455v7.477h-5.455V49.921z
		 M693.519,74.592h-24.672v-24.67h8.706v8.38h7.267v-8.38h8.699v12.985V74.592z"/>
	<path fill="#FFFFFF" d="M667.94,49.015h-0.505v26.99h27.495V62.907V48.51h-27.495v0.504H667.94v0.504h25.981v13.388v12.089h-25.478
		V49.015H667.94v0.504V49.015z M678.458,49.921v0.504h4.95v6.468h-4.446v-6.972H678.458v0.504V49.921h-0.505v7.981h6.464v-8.485
		h-6.464v0.504H678.458z M693.519,74.592v-0.504h-24.168V50.426h7.697l0.001,8.38h8.274v-8.38h7.69v12.481v11.685H693.519v-0.504
		V74.592h0.504V62.907v-13.49h-9.708v8.38h-6.258v-8.38h-9.715v25.679h25.681v-0.504H693.519z"/>
	<polyline fill="#FFFFFF" points="347.724,46.391 442.546,46.391 442.546,45.382 347.724,45.382 	"/>
	<polygon fill="#FFFFFF" points="449.67,45.886 439.628,49.987 442.014,45.886 439.628,41.791 	"/>
	<path fill="#FFFFFF" d="M374.858,40.196h-13.995v-1.418h6.509v-3.522h-4.894v-1.418h4.894v-3.082h-3.617
		c-0.594,1.03-1.25,1.913-1.97,2.648l-1.096-1.048c1.466-1.502,2.448-3.349,2.947-5.54l1.442,0.339
		c-0.184,0.688-0.404,1.416-0.662,2.183h2.955v-2.829h1.481v2.829h5.793v1.418h-5.793v3.082h5.131v1.418h-5.131v3.522h6.005V40.196z
		"/>
	<path fill="#FFFFFF" d="M391.046,33.419h-11.521v2.648c0,1.991-0.497,3.536-1.489,4.634l-1.143-1.017
		c0.341-0.32,0.634-0.806,0.878-1.458c0.245-0.651,0.367-1.689,0.367-3.113v-2.971h12.908V33.419z M390.644,28.833h-2.403
		c-0.437,0.452-0.906,0.841-1.41,1.167c1.261,0.273,2.414,0.585,3.459,0.938l-0.536,0.985c-1.35-0.447-2.787-0.82-4.311-1.119
		c-2.018,0.762-4.077,1.111-6.178,1.048l-0.418-1.095c1.36,0.016,2.7-0.107,4.019-0.371c-0.94-0.178-1.996-0.313-3.168-0.402
		l0.646-0.954c1.514,0.142,3.123,0.368,4.831,0.678c0.494-0.284,0.911-0.575,1.253-0.875h-9.023v-1.3h5.989
		c-0.142-0.263-0.297-0.533-0.465-0.812l1.466-0.308c0.221,0.352,0.431,0.725,0.631,1.119h5.618V28.833z M391.077,40.291h-11.584
		v-1.19h5.161v-1.064h-3.263v-1.167h3.263v-0.93h-2.837c-0.415,0.62-0.851,1.124-1.308,1.513l-0.891-1.127
		c0.762-0.62,1.357-1.477,1.789-2.569l1.339,0.402c-0.068,0.247-0.146,0.441-0.236,0.583h2.144v-0.97h1.466v0.97h4.232v1.198h-4.232
		v0.93h3.861v1.167h-3.861v1.064h4.957V40.291z"/>
	<path fill="#FFFFFF" d="M400.148,39.022c0,0.415-0.089,0.732-0.265,0.95s-0.389,0.363-0.638,0.434
		c-0.25,0.071-0.69,0.106-1.32,0.106c-0.315,0-0.597-0.008-0.844-0.024l-0.504-1.387c0.231,0.026,0.48,0.039,0.749,0.039
		c0.614,0,1.018-0.021,1.209-0.063c0.192-0.042,0.288-0.152,0.288-0.331v-1.631h-3.098c-0.241,1.481-0.725,2.637-1.449,3.467
		l-1.183-0.756c0.956-0.961,1.435-2.646,1.435-5.052v-4.129h5.619V39.022z M407.265,29.628h-14.044v-1.34h14.044V29.628z
		 M399.226,27.414l-1.481,0.678c-0.641-0.378-1.426-0.738-2.356-1.08l1.498-0.725C397.758,26.586,398.538,26.962,399.226,27.414z
		 M398.824,33.261v-1.324h-2.939v1.324H398.824z M398.824,35.886v-1.371h-2.939v1.371H398.824z M404.86,26.996
		c-0.866,0.515-1.631,0.88-2.293,1.096l-1.481-0.678c0.841-0.357,1.6-0.738,2.277-1.143L404.86,26.996z M403.182,37.84h-1.402
		v-6.974h1.402V37.84z M406.121,38.841c0,0.673-0.154,1.12-0.465,1.344c-0.31,0.223-0.885,0.335-1.726,0.335
		c-0.331,0-0.683-0.011-1.056-0.032l-0.449-1.387h2.018l0.208-0.126l0.099-0.26v-8.204h1.371V38.841z"/>
	<path fill="#FFFFFF" d="M423.372,40.314h-14.074v-1.056h1.78v-6.825h3.917l0.197-0.741h-5.729v-1.111h6.005l0.143-0.693h-5.604
		v-3.137H422.6v3.137h-5.492l-0.126,0.693h6.131v1.111h-6.392l-0.157,0.741h5.004v6.825h1.805V40.314z M413.773,28.833v-0.961
		h-2.324v0.961H413.773z M420.149,34.16v-0.741h-7.605v0.741H420.149z M420.149,35.791V35.05h-7.605v0.741H420.149z M420.149,37.485
		v-0.772h-7.605v0.772H420.149z M420.149,39.259v-0.852h-7.605v0.852H420.149z M417.517,28.833v-0.961h-2.372v0.961H417.517z
		 M421.197,28.833v-0.961h-2.325v0.961H421.197z"/>
	<path fill="#FFFFFF" d="M552.621,26.768l-0.97,3.326v10.576h-1.402v-7.542c-0.242,0.405-0.499,0.809-0.772,1.213l-0.709-1.521
		c1.161-1.918,1.978-4.038,2.45-6.36L552.621,26.768z M563.078,31.646h-6.872c-0.168,0.373-0.341,0.712-0.52,1.017h6.824v6.84
		c0,0.32-0.1,0.584-0.299,0.792c-0.2,0.208-0.411,0.327-0.635,0.358c-0.224,0.032-0.729,0.047-1.517,0.047l-0.323-1.229l1.135-0.031
		c0.063,0,0.135-0.047,0.217-0.142c0.081-0.094,0.122-0.187,0.122-0.276v-0.938h-2.136v2.545h-1.387v-2.545h-2.294
		c-0.273,0.998-0.854,1.886-1.741,2.664l-1.064-0.938c1.172-0.94,1.758-2.343,1.758-4.208v-1.119
		c-0.473,0.489-1.012,0.99-1.615,1.505l-0.82-1.182c1.225-0.888,2.165-1.941,2.821-3.16h-2.419v-1.292h2.585v-1.198h-2.23v-1.253
		h2.23v-1.308h1.402v1.308h2.821v-1.308h1.442v1.308h2.159v1.253h-2.159v1.198h2.514V31.646z M557.688,36.941v-0.985h-2.002
		l-0.063,0.985H557.688z M557.688,34.774v-0.906h-1.986v0.906H557.688z M559.122,30.354v-1.198h-2.821v1.198H559.122z
		 M561.211,34.774v-0.906h-2.136v0.906H561.211z M561.211,36.941v-0.985h-2.136v0.985H561.211z"/>
	<path fill="#FFFFFF" d="M570.62,27.06c-0.494,0.478-1.087,0.961-1.781,1.45v2.601h-1.466V29.4
		c-0.347,0.205-0.885,0.462-1.615,0.772l-0.772-1.159c1.708-0.667,3.176-1.55,4.405-2.648L570.62,27.06z M577.335,38.037h-7.124
		l0.614,0.575c-1.529,0.946-3.152,1.637-4.87,2.073l-0.875-1.167c1.629-0.389,3-0.883,4.114-1.481h-2.191V31.63h10.332V38.037z
		 M575.893,33.451v-0.678h-7.455v0.678H575.893z M575.893,35.129v-0.662h-7.455v0.662H575.893z M575.893,36.871v-0.709h-7.455v0.709
		H575.893z M579.218,29.321c-0.073,0.614-0.219,1.028-0.438,1.241c-0.218,0.212-0.478,0.339-0.779,0.378
		c-0.303,0.04-1.392,0.059-3.267,0.059c-1.251,0-2.056-0.013-2.416-0.039c-0.359-0.026-0.655-0.172-0.887-0.438
		c-0.23-0.265-0.347-0.629-0.347-1.091v-2.924h1.481v0.812h5.186v1.261h-5.186v0.835c0,0.315,0.152,0.473,0.457,0.473l4.099-0.024
		c0.394,0,0.619-0.294,0.678-0.882L579.218,29.321z M579.25,39.582l-0.852,1.167c-1.24-0.499-2.764-0.909-4.57-1.229l0.661-1.143
		C576.48,38.733,578.067,39.135,579.25,39.582z"/>
	<path fill="#FFFFFF" d="M585.838,39.44h-1.371v-0.741h-1.355v1.127h-1.403V27.43h4.13V39.44z M584.467,32.56v-3.822l-1.355-0.016
		v3.822L584.467,32.56z M584.467,37.391v-3.522h-1.355v3.522H584.467z M595.326,35.311h-1.553v3.791
		c0,0.394-0.078,0.703-0.236,0.926c-0.157,0.223-0.357,0.372-0.599,0.445c-0.242,0.074-0.715,0.11-1.419,0.11
		c-0.362,0-0.696-0.011-1.001-0.032l-0.425-1.324c0.74-0.021,1.387-0.032,1.938-0.032c0.236,0,0.354-0.128,0.354-0.386v-3.499
		h-5.902v-1.292h5.902v-1.033h1.387v1.033h1.553V35.311z M595.169,29.384h-3.586v1.742h3.16v1.276h-7.684v-1.276h3.104v-1.742
		h-3.522v-1.292h3.538v-1.584h1.388v1.584h3.602V29.384z M590.433,38.116l-1.175,0.772c-0.525-0.741-1.208-1.516-2.049-2.325
		l1.111-0.82C589.256,36.584,589.96,37.375,590.433,38.116z"/>
	<path fill="#FFFFFF" d="M603.916,32.079h-4.634v8.519h-1.418V26.902h6.052V32.079z M602.506,28.903v-0.749h-3.224v0.749H602.506z
		 M602.506,30.834V30.03h-3.224v0.804H602.506z M607.802,39.117h-6.651v-6.281h6.651V39.117z M606.414,35.326v-1.229h-3.877v1.229
		H606.414z M606.414,37.872v-1.324h-3.877v1.324H606.414z M611.001,39.18c0,0.489-0.132,0.845-0.395,1.068s-0.577,0.335-0.945,0.335
		c-0.457,0-0.78-0.005-0.97-0.016l-0.488-1.387c0.342,0.016,0.612,0.024,0.812,0.024c0.253,0,0.409-0.017,0.469-0.051
		c0.061-0.034,0.091-0.099,0.091-0.193v-6.88h-4.547v-5.177h5.974V39.18z M609.574,28.903v-0.749h-3.16v0.749H609.574z
		 M609.574,30.834V30.03h-3.16v0.804H609.574z"/>
	<path fill="#FFFFFF" d="M351.258,45.886c0,1.952-1.579,3.533-3.534,3.533c-1.948,0-3.527-1.581-3.527-3.533
		c0-1.948,1.579-3.529,3.527-3.529C349.679,42.357,351.258,43.938,351.258,45.886z"/>
	<path fill="#FFFFFF" d="M351.258,87.749c0,1.953-1.579,3.534-3.534,3.534c-1.948,0-3.527-1.581-3.527-3.534
		c0-1.948,1.579-3.529,3.527-3.529C349.679,84.22,351.258,85.8,351.258,87.749z"/>
	<path fill="#FFFFFF" d="M520.722,45.886c0,1.952-1.58,3.533-3.533,3.533c-1.947,0-3.529-1.581-3.529-3.533
		c0-1.948,1.582-3.529,3.529-3.529C519.142,42.357,520.722,43.938,520.722,45.886z"/>
	<polygon fill="#FFFFFF" points="465.034,68.326 463.545,68.326 463.545,67.538 452.473,67.538 452.473,62.195 453.946,62.195 
		453.946,66.151 458.044,66.151 458.044,60.619 453.222,60.619 453.222,55.275 454.672,55.275 454.672,59.224 458.044,59.224 
		458.044,54.22 459.494,54.22 459.494,59.224 462.867,59.224 462.867,55.275 464.325,55.275 464.325,60.619 459.494,60.619 
		459.494,66.151 463.576,66.151 463.576,62.195 465.034,62.195 	"/>
	<path fill="#FFFFFF" d="M473.364,54.771c-0.494,0.478-1.087,0.961-1.781,1.45v2.601h-1.466v-1.71
		c-0.347,0.205-0.885,0.462-1.615,0.772l-0.772-1.159c1.708-0.667,3.176-1.55,4.405-2.648L473.364,54.771z M480.079,65.749h-7.124
		l0.614,0.575c-1.529,0.946-3.152,1.637-4.87,2.073l-0.875-1.167c1.629-0.389,3-0.883,4.114-1.481h-2.191v-6.407h10.332V65.749z
		 M478.637,61.163v-0.678h-7.455v0.678H478.637z M478.637,62.841v-0.662h-7.455v0.662H478.637z M478.637,64.583v-0.709h-7.455v0.709
		H478.637z M481.962,57.033c-0.073,0.614-0.219,1.028-0.438,1.241c-0.218,0.212-0.478,0.339-0.779,0.378
		c-0.303,0.04-1.392,0.059-3.267,0.059c-1.251,0-2.056-0.013-2.416-0.039c-0.359-0.026-0.655-0.172-0.887-0.438
		c-0.23-0.265-0.347-0.629-0.347-1.091V54.22h1.481v0.812h5.186v1.261h-5.186v0.835c0,0.315,0.152,0.473,0.457,0.473l4.099-0.024
		c0.394,0,0.619-0.294,0.678-0.882L481.962,57.033z M481.994,67.293l-0.852,1.167c-1.24-0.499-2.764-0.909-4.57-1.229l0.661-1.143
		C479.225,66.445,480.812,66.847,481.994,67.293z"/>
	<path fill="#FFFFFF" d="M498.149,66.687l-0.371,1.403c-0.93,0.021-1.802,0.032-2.616,0.032c-3.042,0-5.042-0.105-6.001-0.315
		c-0.959-0.21-1.793-0.659-2.502-1.348c-0.521,0.757-1.048,1.424-1.584,2.002l-1.127-0.875c1.435-1.434,2.327-2.965,2.68-4.594
		h-2.294v-1.379c0.894-1.067,1.576-1.952,2.05-2.656h-2.356v-1.379h4.082v1.379c-0.51,0.793-1.148,1.678-1.915,2.656h1.954v1.379
		c-0.188,0.804-0.47,1.561-0.843,2.27c0.389,0.441,0.896,0.788,1.521,1.041c0.625,0.252,1.411,0.391,2.356,0.417
		s1.936,0.04,2.971,0.04C495.656,66.758,496.988,66.734,498.149,66.687z M487.936,56.206l-1.017,0.938
		c-0.846-0.856-1.681-1.545-2.506-2.065l0.954-1.001C486.438,54.787,487.295,55.496,487.936,56.206z M497.668,64.701
		c0,0.441-0.158,0.774-0.477,0.997c-0.317,0.223-0.949,0.314-1.896,0.272l-0.417-1.316c0.263,0.011,0.51,0.016,0.74,0.016
		c0.431,0,0.646-0.121,0.646-0.363v-0.693h-2.215v2.309h-1.387v-2.309h-2.214v2.341h-1.388v-8.275h3.168
		c-0.552-0.278-1.234-0.56-2.049-0.843l1.08-0.819c0.678,0.242,1.258,0.478,1.741,0.709c0.651-0.299,1.264-0.617,1.836-0.954h-5.997
		v-1.308h8.487v1.308c-1.071,0.683-2.051,1.264-2.939,1.742l0.213,0.166h3.065V64.701z M492.664,60.083v-1.198h-2.214v1.198H492.664
		z M492.664,62.423v-1.167h-2.214v1.167H492.664z M496.266,60.083v-1.198h-2.215v1.198H496.266z M496.266,62.423v-1.167h-2.215
		v1.167H496.266z"/>
	<path fill="#FFFFFF" d="M507.74,62.037h-2.939c-0.042,0.247-0.09,0.434-0.143,0.56c1.309,1.366,2.286,2.604,2.932,3.712
		l-1.079,0.969c-0.746-1.277-1.521-2.356-2.325-3.239c-0.877,1.881-1.915,3.365-3.112,4.452l-0.97-1.017
		c1.808-1.833,2.89-3.646,3.247-5.438h-3.168v-1.34h3.373c0.068-0.966,0.103-1.988,0.103-3.065h-1.033
		c-0.493,0.825-0.99,1.545-1.489,2.159l-1.079-1c1.155-1.45,2.033-3.005,2.632-4.666l1.309,0.323
		c-0.174,0.599-0.418,1.224-0.733,1.875h4.02v1.308h-2.238c0.011,0.741-0.011,1.763-0.063,3.065h2.759V62.037z M513.761,67.987
		h-1.427v-1.143h-2.64v1.143H508.3V55.465h5.461V67.987z M512.334,65.489V56.82h-2.64v8.668H512.334z"/>
	<polygon fill="#FFFFFF" points="690.257,105.69 688.768,105.69 688.768,104.902 677.695,104.902 677.695,99.559 679.169,99.559 
		679.169,103.515 683.267,103.515 683.267,97.983 678.444,97.983 678.444,92.64 679.895,92.64 679.895,96.588 683.267,96.588 
		683.267,91.584 684.717,91.584 684.717,96.588 688.09,96.588 688.09,92.64 689.548,92.64 689.548,97.983 684.717,97.983 
		684.717,103.515 688.799,103.515 688.799,99.559 690.257,99.559 	"/>
	<path fill="#FFFFFF" d="M698.587,92.136c-0.494,0.478-1.087,0.961-1.781,1.45v2.601h-1.466v-1.71
		c-0.347,0.205-0.885,0.462-1.615,0.772l-0.772-1.159c1.708-0.667,3.176-1.55,4.405-2.648L698.587,92.136z M705.302,103.113h-7.124
		l0.614,0.575c-1.529,0.946-3.152,1.637-4.87,2.073l-0.875-1.167c1.629-0.389,3-0.883,4.114-1.481h-2.191v-6.407h10.332V103.113z
		 M703.859,98.527v-0.678h-7.455v0.678H703.859z M703.859,100.205v-0.662h-7.455v0.662H703.859z M703.859,101.947v-0.709h-7.455
		v0.709H703.859z M707.185,94.397c-0.073,0.614-0.219,1.028-0.438,1.241c-0.218,0.212-0.478,0.339-0.779,0.378
		c-0.303,0.04-1.392,0.059-3.267,0.059c-1.251,0-2.056-0.013-2.416-0.039c-0.359-0.026-0.655-0.172-0.887-0.438
		c-0.23-0.265-0.347-0.629-0.347-1.091v-2.924h1.481v0.812h5.186v1.261h-5.186v0.835c0,0.315,0.152,0.473,0.457,0.473l4.099-0.024
		c0.394,0,0.619-0.294,0.678-0.882L707.185,94.397z M707.217,104.658l-0.852,1.167c-1.24-0.499-2.764-0.909-4.57-1.229l0.661-1.143
		C704.447,103.81,706.034,104.211,707.217,104.658z"/>
	<path fill="#FFFFFF" d="M470.47,23.929c1.008,0,1.83-0.821,1.83-1.836v-3.666c0-0.677-0.367-1.265-0.913-1.58
		c0.005-5.412,5.248-10.344,11.001-10.344c5.76,0,11.001,4.933,11.006,10.344c-0.546,0.315-0.918,0.903-0.918,1.58v3.666
		c0,1.015,0.82,1.836,1.836,1.836c1.015,0,1.835-0.821,1.835-1.836v-3.666c0-0.677-0.372-1.265-0.917-1.58
		c-0.005-6.49-6.006-12.173-12.842-12.173c-6.835,0-12.831,5.683-12.836,12.173c-0.544,0.315-0.919,0.903-0.919,1.58v3.666
		C468.633,23.108,469.455,23.929,470.47,23.929z M490.183,22.093v-0.528l-4.83,2.758c-0.312-0.24-0.704-0.394-1.129-0.394
		c-1.015,0-1.836,0.82-1.836,1.831c0,1.015,0.821,1.835,1.836,1.835c1.016,0,1.837-0.82,1.837-1.835l-0.024-0.238l4.278-2.448
		C490.235,22.757,490.183,22.436,490.183,22.093z M491.032,15.932c-0.563-3.782-4.5-7.136-8.645-7.136
		c-4.138,0-8.075,3.354-8.644,7.136c0.26,0.34,0.46,0.712,0.604,1.114l4.373-5.272c3.281,4.311,10.215,5.328,11.643,5.49
		C490.51,16.786,490.729,16.333,491.032,15.932z M499.581,36.387c-0.854-1.285-3.279-2.435-6.188-3.324V26.11
		c-1.402-0.323-2.523-1.358-2.977-2.711c-0.832,4.501-4.1,7.864-8.029,7.864c-3.926,0-7.193-3.355-8.027-7.85
		c-0.461,1.344-1.574,2.376-2.974,2.697v6.953c-2.913,0.889-5.342,2.039-6.189,3.324c-1.956,2.942-2.764,6.968-2.981,9.438
		c-0.038,0.43,0.213,0.787,0.787,0.962c1.959,0.594,8.456,1.902,19.387,1.902c10.929,0,17.427-1.309,19.382-1.902
		c0.579-0.175,0.825-0.532,0.786-0.962C502.347,43.354,501.54,39.329,499.581,36.387z M489.727,40.432l-7.339,2.754l-7.332-2.754
		l1.83-2.75h-7.334l7.334-7.337l5.502,12.841l5.503-12.841l7.339,7.337h-7.339L489.727,40.432z"/>
	<path fill="#065280" d="M556.582,64.596l-0.347,1.091c-0.563,0.008-1.172,0.012-1.829,0.012c-2.21,0-3.668-0.042-4.372-0.124
		s-1.326-0.279-1.865-0.589c-0.539-0.31-1.01-0.774-1.41-1.395c-0.116,0.946-0.302,1.738-0.558,2.374l-0.942-0.676
		c0.446-1.177,0.641-2.836,0.583-4.977h1.041l-0.025,1.549c0,0.029,0.061,0.162,0.18,0.4c0.12,0.238,0.259,0.451,0.416,0.642v-3.272
		h-2.133v-1.029h2.133v-1.395h-1.841V56.18h1.841v-1.382h1.078v1.382h1.667v1.029h-1.667v1.395h1.896v1.029h-1.896v1.395h1.667
		v1.029h-1.667v1.927c0.715,0.442,1.706,0.663,2.975,0.663C553.398,64.646,555.091,64.629,556.582,64.596z M556.062,55.039
		c0.021,2.042-0.069,3.274-0.27,3.7s-0.642,0.638-1.323,0.638c-0.203,0-0.483-0.012-0.843-0.037l-0.348-1.054
		c0.182,0.017,0.387,0.025,0.614,0.025c0.458,0,0.733-0.025,0.824-0.074c0.091-0.05,0.162-0.242,0.214-0.577
		c0.051-0.334,0.077-0.872,0.077-1.611h-1.574c-0.078,1.537-0.748,2.756-2.008,3.657l-0.75-0.799
		c1.062-0.728,1.626-1.68,1.691-2.857h-1.537v-1.01H556.062z M555.932,63.796h-4.785v-3.75h4.785V63.796z M554.791,62.768v-1.679
		h-2.51v1.679H554.791z"/>
	<polygon fill="#065280" points="568.476,65.86 567.305,65.86 567.305,65.241 558.597,65.241 558.597,61.039 559.756,61.039 
		559.756,64.15 562.979,64.15 562.979,59.799 559.186,59.799 559.186,55.597 560.326,55.597 560.326,58.702 562.979,58.702 
		562.979,54.767 564.119,54.767 564.119,58.702 566.771,58.702 566.771,55.597 567.918,55.597 567.918,59.799 564.119,59.799 
		564.119,64.15 567.329,64.15 567.329,61.039 568.476,61.039 	"/>
	<path fill="#065280" d="M574.544,60.103l-0.737,0.719c-0.174-0.359-0.368-0.715-0.583-1.066v6.08h-1.122v-5.454
		c-0.223,0.826-0.535,1.562-0.936,2.206l-0.607-1.116c0.578-0.875,1.052-2.039,1.419-3.489h-1.282v-1.109h1.406v-2.12h1.122v2.12
		h1.141v1.109h-1.141v0.199C573.641,58.694,574.081,59.334,574.544,60.103z M577.042,63.45c-0.612,0.921-1.229,1.646-1.854,2.175
		l-0.898-0.738c0.645-0.487,1.241-1.136,1.791-1.946L577.042,63.45z M581.752,62.625h-3.186v3.21h-1.091v-3.21h-2.969v-0.973h7.245
		V62.625z M581.752,55.938h-2.169v0.725h1.865v2.801h-6.576v-2.801h1.841v-0.725h-2.193v-0.992h7.232V55.938z M581.386,61.001
		h-6.321v-0.979h6.321V61.001z M576.713,58.541v-1.017h-0.8v1.017H576.713z M578.554,56.663v-0.725h-0.812v0.725H578.554z
		 M578.554,58.541v-1.017h-0.812v1.017H578.554z M581.802,65.011l-0.837,0.676c-0.479-0.694-1.06-1.389-1.742-2.083l0.868-0.62
		C580.81,63.704,581.38,64.379,581.802,65.011z M580.395,58.541v-1.017h-0.812v1.017H580.395z"/>
	<path fill="#065280" d="M585.93,58.46l-0.713,0.88c-0.5-0.471-1.146-0.938-1.939-1.4l0.656-0.924
		C584.694,57.458,585.359,57.94,585.93,58.46z M594.495,63.97h-4.989v1.878h-1.104V63.97h-4.989v-1.054h4.989v-0.861H587.2v-3.781
		c-0.306,0.306-0.479,0.475-0.521,0.508l-0.663-0.955c0.908-0.834,1.632-1.909,2.169-3.223l1.017,0.366
		c-0.231,0.521-0.422,0.911-0.57,1.171h1.754c-0.128-0.352-0.285-0.763-0.471-1.233l1.128-0.292c0.223,0.55,0.4,1.058,0.532,1.525
		h2.591v0.923h-2.752v0.713h2.257v0.911h-2.257v0.738h2.257v0.905h-2.257v0.756h2.932v0.967h-4.84v0.861h4.989V63.97z
		 M586.691,60.115c-0.727,0.905-1.545,1.725-2.454,2.46l-0.774-0.849c0.772-0.628,1.595-1.428,2.467-2.398L586.691,60.115z
		 M586.754,56.167l-0.726,0.874c-0.595-0.562-1.301-1.058-2.119-1.487l0.663-0.886C585.271,54.985,585.998,55.485,586.754,56.167z
		 M590.317,57.779v-0.713h-2.014v0.713H590.317z M590.317,59.427v-0.738h-2.014v0.738H590.317z M590.317,61.088v-0.756h-2.014v0.756
		H590.317z"/>
	<path fill="#065280" d="M598.951,54.971l-0.762,2.615v8.317h-1.104v-5.931c-0.19,0.318-0.393,0.636-0.607,0.955l-0.558-1.196
		c0.913-1.508,1.556-3.175,1.928-5.001L598.951,54.971z M607.176,58.808h-5.404c-0.133,0.293-0.269,0.56-0.409,0.799h5.367v5.379
		c0,0.252-0.078,0.46-0.235,0.623s-0.323,0.257-0.499,0.282c-0.176,0.024-0.573,0.037-1.193,0.037l-0.254-0.967l0.893-0.025
		l0.17-0.112l0.097-0.217v-0.737h-1.68v2.001h-1.091v-2.001h-1.804c-0.215,0.785-0.671,1.483-1.369,2.095l-0.837-0.738
		c0.921-0.739,1.382-1.843,1.382-3.31v-0.88c-0.372,0.384-0.795,0.779-1.271,1.184l-0.645-0.93c0.963-0.698,1.702-1.526,2.219-2.485
		h-1.902v-1.017h2.032v-0.942h-1.754v-0.986h1.754v-1.029h1.104v1.029h2.219v-1.029h1.134v1.029h1.698v0.986h-1.698v0.942h1.978
		V58.808z M602.937,62.972v-0.774h-1.574l-0.05,0.774H602.937z M602.937,61.268v-0.713h-1.562v0.713H602.937z M604.064,57.791
		v-0.942h-2.219v0.942H604.064z M605.707,61.268v-0.713h-1.68v0.713H605.707z M605.707,62.972v-0.774h-1.68v0.774H605.707z"/>
	<path fill="#065280" d="M613.107,55.2c-0.389,0.376-0.855,0.756-1.4,1.141v2.045h-1.153v-1.345
		c-0.272,0.161-0.696,0.364-1.271,0.607l-0.607-0.911c1.343-0.524,2.498-1.219,3.465-2.083L613.107,55.2z M618.388,63.833h-5.603
		l0.483,0.453c-1.202,0.744-2.479,1.287-3.83,1.63l-0.688-0.917c1.281-0.306,2.359-0.694,3.235-1.166h-1.723v-5.039h8.125V63.833z
		 M617.254,60.227v-0.533h-5.863v0.533H617.254z M617.254,61.547v-0.521h-5.863v0.521H617.254z M617.254,62.917v-0.558h-5.863v0.558
		H617.254z M619.869,56.979c-0.058,0.483-0.173,0.809-0.344,0.976c-0.172,0.167-0.376,0.267-0.614,0.298
		c-0.237,0.031-1.094,0.046-2.568,0.046c-0.983,0-1.617-0.01-1.899-0.031c-0.283-0.021-0.516-0.135-0.697-0.344
		c-0.183-0.208-0.273-0.495-0.273-0.858v-2.299h1.166v0.638h4.077v0.992h-4.077v0.657c0,0.248,0.119,0.372,0.359,0.372l3.223-0.019
		c0.31,0,0.487-0.231,0.533-0.694L619.869,56.979z M619.894,65.048l-0.669,0.917c-0.976-0.393-2.174-0.715-3.595-0.967l0.521-0.899
		C617.717,64.381,618.964,64.697,619.894,65.048z"/>
	<path fill="#065280" d="M625.075,64.937h-1.078v-0.583h-1.065v0.886h-1.104v-9.749h3.247V64.937z M623.997,59.526v-3.006
		l-1.065-0.013v3.006L623.997,59.526z M623.997,63.326v-2.771h-1.065v2.771H623.997z M632.538,61.689h-1.222v2.981
		c0,0.31-0.062,0.553-0.186,0.728c-0.124,0.176-0.281,0.292-0.471,0.351c-0.19,0.058-0.563,0.086-1.116,0.086
		c-0.285,0-0.547-0.008-0.787-0.024l-0.335-1.042c0.583-0.017,1.091-0.025,1.525-0.025c0.186,0,0.278-0.101,0.278-0.304v-2.751
		h-4.642v-1.017h4.642v-0.812h1.091v0.812h1.222V61.689z M632.414,57.029h-2.82v1.37h2.485v1.004h-6.043v-1.004h2.442v-1.37h-2.771
		v-1.017h2.782v-1.246h1.091v1.246h2.833V57.029z M628.688,63.896l-0.923,0.607c-0.413-0.583-0.95-1.192-1.611-1.828l0.874-0.645
		C627.764,62.691,628.317,63.313,628.688,63.896z"/>
	<path fill="#065280" d="M639.294,59.148h-3.645v6.7h-1.115V55.076h4.76V59.148z M638.185,56.65v-0.588h-2.535v0.588H638.185z
		 M638.185,58.169v-0.632h-2.535v0.632H638.185z M642.349,64.683h-5.23v-4.939h5.23V64.683z M641.258,61.702v-0.967h-3.049v0.967
		H641.258z M641.258,63.704v-1.041h-3.049v1.041H641.258z M644.865,64.732c0,0.384-0.104,0.664-0.31,0.84
		c-0.207,0.175-0.455,0.263-0.744,0.263c-0.359,0-0.613-0.004-0.762-0.012l-0.385-1.091c0.269,0.012,0.481,0.019,0.639,0.019
		c0.198,0,0.321-0.013,0.368-0.04l0.071-0.152v-5.411h-3.576v-4.072h4.698V64.732z M643.743,56.65v-0.588h-2.485v0.588H643.743z
		 M643.743,58.169v-0.632h-2.485v0.632H643.743z"/>
	<path fill="#065280" d="M652.036,61.739c-0.343-0.136-0.514-0.4-0.514-0.793c0-0.231,0.087-0.422,0.263-0.57
		c0.176-0.149,0.369-0.223,0.58-0.223c0.239,0,0.436,0.087,0.589,0.26c0.152,0.173,0.229,0.388,0.229,0.645
		c0,0.475-0.363,0.99-1.09,1.543l-0.385-0.298C651.865,62.076,651.975,61.888,652.036,61.739z"/>
	<path fill="#065280" d="M555.361,80.979h-1.165v-0.645h-6.663v0.645h-1.159v-9.706h3.063c0.239-0.38,0.45-0.859,0.632-1.438
		l1.233,0.205c-0.133,0.458-0.318,0.87-0.558,1.233h4.617V80.979z M554.196,73.858v-1.481h-6.663v1.481H554.196z M554.196,76.485
		V74.93h-6.663v1.556H554.196z M554.196,79.244v-1.692h-6.663v1.692H554.196z"/>
	<path fill="#065280" d="M564.188,72.835h-2.455v0.719h2.188v3.731h-2.188v0.712h2.188v0.886h-2.188v0.806
		c0.806-0.075,1.556-0.182,2.25-0.322l0.05,0.905c-1.831,0.306-3.769,0.56-5.813,0.762l-0.229-0.917l2.728-0.279v-0.955h-2.22
		v-0.886h2.22v-0.712h-2.22v-3.731h2.22v-0.719h-2.548v-0.93h2.548V71.18c-0.55,0.07-1.213,0.126-1.99,0.167l-0.278-0.886
		c1.93-0.083,3.65-0.283,5.162-0.601l0.435,0.812c-0.604,0.141-1.374,0.273-2.313,0.397v0.836h2.455V72.835z M560.717,75.017v-0.651
		h-1.19v0.651H560.717z M560.717,76.448v-0.645h-1.19v0.645H560.717z M562.892,75.029v-0.663h-1.159v0.663H562.892z M562.892,76.448
		v-0.645h-1.159v0.645H562.892z M568.879,72.271c-0.009,1.769-0.048,3.472-0.118,5.11c-0.07,1.639-0.143,2.586-0.217,2.842
		c-0.074,0.256-0.217,0.454-0.428,0.592c-0.211,0.139-0.552,0.208-1.022,0.208c-0.219,0-0.444-0.011-0.676-0.031l-0.315-1.079
		c0.322,0.025,0.578,0.038,0.769,0.038c0.367,0,0.582-0.047,0.645-0.14c0.062-0.093,0.136-0.849,0.223-2.269
		c0.087-1.419,0.115-2.825,0.087-4.217h-1.091c-0.021,3.086-0.585,5.661-1.692,7.722l-0.979-0.483
		c1.128-2.033,1.65-4.446,1.567-7.239h-1.103v-1.054h1.128c0.021-1.041,0.024-1.813,0.012-2.318h1.104
		c0,0.797-0.013,1.57-0.037,2.318H568.879z"/>
	<path fill="#065280" d="M581.826,79.702l-0.291,1.103c-0.731,0.017-1.418,0.025-2.058,0.025c-2.393,0-3.966-0.083-4.72-0.248
		c-0.754-0.165-1.41-0.519-1.968-1.06c-0.409,0.595-0.824,1.12-1.246,1.574l-0.886-0.688c1.128-1.128,1.83-2.333,2.106-3.613h-1.803
		v-1.084c0.702-0.839,1.239-1.535,1.611-2.089h-1.854v-1.084h3.211v1.084c-0.401,0.624-0.903,1.32-1.507,2.089h1.537v1.084
		c-0.148,0.632-0.369,1.227-0.663,1.785c0.306,0.347,0.705,0.62,1.196,0.818c0.492,0.198,1.109,0.308,1.854,0.329
		c0.743,0.021,1.522,0.031,2.336,0.031C579.865,79.758,580.913,79.739,581.826,79.702z M573.794,71.459l-0.8,0.738
		c-0.665-0.673-1.322-1.215-1.971-1.624l0.75-0.787C572.616,70.344,573.29,70.901,573.794,71.459z M581.448,78.14
		c0,0.347-0.125,0.608-0.375,0.784s-0.747,0.247-1.49,0.214l-0.329-1.035c0.207,0.008,0.401,0.013,0.583,0.013
		c0.339,0,0.508-0.095,0.508-0.285v-0.545h-1.741v1.816h-1.091v-1.816h-1.741v1.841h-1.091v-6.508h2.491
		c-0.434-0.219-0.972-0.44-1.611-0.663l0.849-0.645c0.533,0.19,0.989,0.376,1.37,0.558c0.512-0.235,0.993-0.485,1.443-0.75h-4.716
		v-1.029h6.675v1.029c-0.843,0.537-1.613,0.994-2.312,1.37l0.167,0.13h2.411V78.14z M577.513,74.508v-0.942h-1.741v0.942H577.513z
		 M577.513,76.349v-0.917h-1.741v0.917H577.513z M580.345,74.508v-0.942h-1.741v0.942H580.345z M580.345,76.349v-0.917h-1.741v0.917
		H580.345z"/>
	<path fill="#065280" d="M589.369,76.045h-2.312c-0.033,0.194-0.07,0.341-0.111,0.44c1.028,1.075,1.797,2.047,2.306,2.919
		l-0.85,0.762c-0.587-1.004-1.196-1.853-1.828-2.547c-0.69,1.479-1.506,2.646-2.448,3.502l-0.763-0.8
		c1.422-1.442,2.272-2.867,2.554-4.276h-2.491v-1.054h2.652c0.054-0.76,0.081-1.563,0.081-2.411h-0.813
		c-0.388,0.648-0.778,1.215-1.171,1.698l-0.85-0.787c0.909-1.141,1.6-2.363,2.07-3.669l1.029,0.254
		c-0.137,0.471-0.329,0.963-0.577,1.475h3.161v1.029h-1.76c0.008,0.583-0.009,1.386-0.05,2.411h2.169V76.045z M594.104,80.725
		h-1.122v-0.898h-2.076v0.898h-1.097v-9.848h4.295V80.725z M592.982,78.76v-6.818h-2.076v6.818H592.982z"/>
	<path fill="#065280" d="M607.176,77.948h-4.977v3.043h-1.128v-3.043h-4.965v-0.955h4.965v-0.645h-4.363v-0.955h4.363v-0.62h-4.686
		V73.82h2.895c-0.137-0.202-0.283-0.384-0.44-0.545l0.849-0.471h-3.606v-0.948h3.886v-1.891h1.104v1.891h1.14v-1.891h1.109v1.891
		h3.831v0.948h-3.502l0.75,0.396c-0.166,0.277-0.306,0.483-0.422,0.62h2.919v0.955h-4.697v0.62h4.394v0.955h-4.394v0.645h4.977
		V77.948z M600.147,79.014c-1.165,0.839-2.262,1.477-3.291,1.915l-0.737-0.886c1-0.384,2.049-0.973,3.148-1.766L600.147,79.014z
		 M599.051,71.155l-0.85,0.614c-0.367-0.438-0.743-0.812-1.128-1.122l0.85-0.657C598.373,70.371,598.749,70.759,599.051,71.155z
		 M603.265,72.804h-3.334c0.244,0.297,0.479,0.636,0.706,1.016h1.922C602.831,73.498,603.066,73.16,603.265,72.804z M607.405,79.981
		l-0.62,0.911c-1.219-0.707-2.43-1.281-3.632-1.723l0.657-0.917C604.959,78.69,606.157,79.266,607.405,79.981z M606.184,70.499
		c-0.235,0.343-0.599,0.735-1.09,1.178l-1.005-0.595c0.389-0.314,0.759-0.686,1.109-1.116L606.184,70.499z"/>
	<path fill="#065280" d="M613.813,73.808c-0.145,1.219-0.371,2.196-0.682,2.932l-0.893-0.254c0.22-0.562,0.376-1.111,0.472-1.648
		h-0.688v5.039c0,0.256-0.07,0.472-0.21,0.648c-0.141,0.175-0.295,0.295-0.462,0.359c-0.168,0.064-0.452,0.096-0.853,0.096
		c-0.19,0-0.405-0.008-0.645-0.025l-0.365-1.091c0.239,0.017,0.623,0.025,1.152,0.025c0.202,0,0.304-0.126,0.304-0.378v-2.919
		c-0.45,1.145-0.991,2.079-1.624,2.801l-0.619-1.066c0.735-0.814,1.39-1.977,1.964-3.489h-1.853v-1.029h2.467
		c-0.368-0.425-0.944-0.903-1.729-1.432l0.763-0.725c0.276,0.149,0.603,0.374,0.979,0.675c0.298-0.314,0.602-0.692,0.911-1.134
		h-2.993v-1.042h4.339v0.967c-0.318,0.554-0.792,1.188-1.42,1.903c0.087,0.079,0.184,0.19,0.291,0.334l-0.521,0.453H613.813z
		 M619.349,76.665c-0.141,2.07-0.268,3.226-0.382,3.468c-0.113,0.242-0.282,0.443-0.508,0.604s-0.633,0.242-1.224,0.242
		c-0.17,0-0.37-0.008-0.602-0.025l-0.372-1.042c0.224,0.017,0.478,0.025,0.763,0.025c0.389,0,0.636-0.035,0.743-0.105
		c0.107-0.07,0.197-0.251,0.271-0.542c0.072-0.292,0.124-0.815,0.157-1.571h-1.667c-0.148,0.698-0.527,1.352-1.137,1.962
		c-0.61,0.609-1.321,1.065-2.136,1.366l-0.7-0.905c1.558-0.586,2.502-1.395,2.832-2.423h-1.636v-1.054h1.865
		c0.066-0.438,0.104-0.768,0.111-0.991l1.085,0.056c0,0.145-0.026,0.457-0.08,0.936H619.349z M620.012,75.042l-0.509,0.967
		c-1.115-0.264-2.06-0.68-2.832-1.246c-0.743,0.504-1.498,0.896-2.262,1.177l-0.596-0.96c0.694-0.198,1.364-0.508,2.009-0.93
		c-0.244-0.227-0.542-0.57-0.893-1.029l0.855-0.583c0.393,0.475,0.68,0.793,0.861,0.955c0.434-0.459,0.776-0.946,1.028-1.463h-2.193
		c-0.483,0.591-0.951,1.095-1.401,1.512l-0.762-0.737c0.851-0.74,1.646-1.725,2.386-2.957l1.004,0.366
		c-0.104,0.207-0.265,0.469-0.483,0.787h3.496v1.029h-0.955c-0.355,0.901-0.787,1.599-1.295,2.095
		C618.123,74.5,618.971,74.839,620.012,75.042z"/>
	<path fill="#065280" d="M533.17,65.995c-3.426,0-6.212-2.785-6.212-6.215c0-3.423,2.786-6.21,6.212-6.21
		c3.429,0,6.214,2.787,6.214,6.21C539.384,63.209,536.599,65.995,533.17,65.995z M533.17,52.126c-4.219,0-7.656,3.437-7.656,7.653
		c0,4.224,3.438,7.66,7.656,7.66c4.223,0,7.659-3.437,7.659-7.66C540.829,55.563,537.393,52.126,533.17,52.126z"/>
	<path fill="#065280" d="M536.021,57.125l-2.284,1.676l-0.11-0.056l-0.019-4.48l-0.918,0.003l0.02,4.481
		c-0.399,0.178-0.672,0.571-0.672,1.03c0,0.632,0.506,1.137,1.132,1.137c0.63,0,1.137-0.505,1.137-1.137l-0.027-0.241l2.28-1.678
		L536.021,57.125z"/>
	<polyline fill="#FFFFFF" points="518.701,46.265 648.198,46.265 648.198,45.508 518.701,45.508 	"/>
	<polygon fill="#FFFFFF" points="653.539,45.886 646.014,48.961 647.803,45.886 646.014,42.811 	"/>
	<polyline fill="#FFFFFF" points="348.227,87.625 649.21,87.625 649.21,86.868 348.227,86.868 	"/>
	<polygon fill="#FFFFFF" points="654.551,87.246 647.024,90.321 648.807,87.246 647.024,84.17 	"/>
	<path fill-rule="evenodd" clip-rule="evenodd" fill="#30C6BE" d="M750,260.63c0,6.387-4.093,11.564-9.146,11.564H12.851
		c-5.048,0-9.145-5.178-9.145-11.564V160.326c0-6.391,4.097-11.568,9.145-11.568h728.004c5.053,0,9.146,5.178,9.146,11.568V260.63z"
		/>
	<path fill-rule="evenodd" clip-rule="evenodd" fill="#033775" d="M190.361,257.236c0,8.26-5.558,14.959-12.415,14.959H12.415
		C5.56,272.195,0,265.496,0,257.236v-93.52c0-8.26,5.56-14.959,12.415-14.959h165.531c6.857,0,12.415,6.699,12.415,14.959V257.236z"
		/>
	<path fill="#FFFFFF" d="M41.636,226.028c0,0.679-0.214,1.292-0.642,1.839c-0.428,0.546-1.492,0.819-3.193,0.819
		c-0.697,0-1.397-0.031-2.103-0.093l-0.887-2.565c1.366,0.035,2.478,0.053,3.333,0.053c0.3,0,0.556-0.093,0.767-0.277
		c0.212-0.186,0.317-0.419,0.317-0.701v-13.106h-6.202c0.652,3.43,2.557,6.635,5.713,9.615l-1.468,1.891
		c-2.795-2.38-4.827-5.431-6.097-9.151c-1.022,3.165-3.073,6.225-6.149,9.178l-1.455-1.864c3.386-3.386,5.506-6.608,6.361-9.668
		h-6.982v16.598h-2.421v-18.926h9.615c-0.089-0.793-0.15-1.552-0.186-2.274h-2.592v-2.407h4.787c0,0.759,0.137,2.319,0.41,4.682
		h9.072V226.028z"/>
	<path fill="#FFFFFF" d="M59.133,208.305c-0.133,4.956-1.027,9.033-2.685,12.234c-1.658,3.2-4.431,5.978-8.319,8.332l-1.785-1.892
		c3.589-2.036,6.154-4.386,7.697-7.049c-1.367-1.534-2.821-2.932-4.364-4.192c-0.512,0.854-1.098,1.684-1.759,2.486l-1.759-1.813
		c2.433-3.104,4.095-7.005,4.985-11.704l2.354,0.568c-0.133,0.996-0.34,2.006-0.622,3.028H59.133z M56.606,210.726h-4.47
		c-0.389,1.049-0.812,2.032-1.27,2.949c1.657,1.375,3.076,2.667,4.258,3.875C55.795,215.867,56.289,213.591,56.606,210.726z
		 M70.321,219.071l-1.653,2.051c-1.349-1.887-3.047-3.801-5.092-5.74v13.266H61.13v-23.7h2.446v7.313
		C66.098,214.359,68.346,216.629,70.321,219.071z"/>
	<path fill="#FFFFFF" d="M79.341,215.077l-1.469,2.011c-1.198-1.199-2.741-2.39-4.628-3.571l1.454-2.01
		C76.709,212.732,78.256,213.922,79.341,215.077z M79.222,219.416c-0.873,3.244-2.169,6.379-3.889,9.403l-2.063-1.442
		c1.86-3.447,3.134-6.498,3.821-9.151L79.222,219.416z M79.42,208.61l-1.68,1.864c-0.873-1.172-2.244-2.481-4.113-3.928l1.706-1.864
		C76.85,205.819,78.212,207.128,79.42,208.61z M84.075,217.246c0.018,0.406,0.026,0.812,0.026,1.217c0,2.84-0.349,5.053-1.045,6.64
		s-1.745,2.861-3.147,3.822l-1.732-1.706c2.327-1.34,3.491-4.148,3.491-8.425c0-0.467-0.009-0.983-0.026-1.548H84.075z
		 M97.102,215.818l-2.222,1.138c-0.317-0.521-0.696-1.063-1.138-1.627c-5.704,0.476-10.135,0.736-13.291,0.78l-0.437-1.997
		c1.234-0.652,2.667-2.099,4.299-4.338h-4.352v-2.223h5.819c0.361-0.625,0.833-1.538,1.415-2.737l2.539,0.516
		c-0.309,0.741-0.679,1.481-1.11,2.222h8.238v2.223h-9.562c-0.908,1.384-2.081,2.711-3.518,3.98
		c2.777-0.026,5.537-0.198,8.279-0.516c-0.415-0.512-0.983-1.106-1.706-1.785l2.248-1.085
		C94.315,212.027,95.814,213.843,97.102,215.818z M88.876,228.686h-2.341v-11.44h2.341V228.686z M96.996,228.435h-3.598
		c-0.626,0-1.117-0.181-1.475-0.542c-0.356-0.362-0.535-0.847-0.535-1.455v-9.219h2.354v8.372c0,0.142,0.054,0.271,0.159,0.391
		s0.216,0.178,0.331,0.178h2.764V228.435z"/>
	<path fill="#FFFFFF" d="M110.075,218.462l-1.652,1.627c-0.441-0.935-0.948-1.834-1.521-2.698v11.176h-2.327v-9.773
		c-0.661,1.358-1.601,2.83-2.817,4.417l-1.349-2.301c1.517-1.904,2.87-4.289,4.06-7.155h-3.875v-2.248h3.981v-3.386
		c-1.305,0.221-2.297,0.349-2.976,0.384l-0.952-2.09c3.2-0.309,5.845-0.887,7.935-1.732l1.085,1.983
		c-0.838,0.361-1.76,0.666-2.765,0.913v3.928h2.937v2.248h-2.937v0.568C108.259,215.902,109.317,217.282,110.075,218.462z
		 M124.134,228.302h-15.248v-2.169h6.612v-3.386h-5.634v-2.195h5.634v-2.764c-2.151,0.158-3.813,0.251-4.986,0.277l-0.793-2.116
		c5.192-0.123,9.565-0.604,13.119-1.441l0.912,2.037c-2.019,0.458-3.967,0.793-5.845,1.005v3.002h5.66v2.195h-5.66v3.386h6.229
		V228.302z M122.759,213.702H110.75v-8.094h12.009V213.702z M120.285,211.506v-3.703h-7.062v3.703H120.285z"/>
	<path fill="#FFFFFF" d="M137.134,225.049c-2.327,1.278-5.18,2.389-8.557,3.333l-1.163-2.037c3.227-0.864,5.942-1.864,8.146-3.002
		L137.134,225.049z M150.861,218.953h-20.261v-6.494c-0.864,0.873-1.349,1.349-1.454,1.429l-1.574-1.786
		c1.878-1.613,3.61-4.095,5.197-7.445l2.222,0.7c-0.353,0.829-0.639,1.434-0.859,1.813h5.462c-0.238-0.644-0.516-1.248-0.833-1.813
		l2.354-0.542c0.484,0.882,0.872,1.666,1.163,2.354h7.988v1.983h-8.358v1.376h7.631v1.799h-7.631v1.375h7.657v1.838h-7.657v1.416
		h8.953V218.953z M151.298,222.721h-10.619v5.965h-2.46v-5.965h-10.461v-2.116h10.461v-1.084h2.46v1.084h10.619V222.721z
		 M139.488,210.528v-1.376h-6.493v1.376H139.488z M139.488,213.702v-1.375h-6.493v1.375H139.488z M139.488,216.956v-1.416h-6.493
		v1.416H139.488z M151.457,226.464l-1.376,1.944c-2.724-1.394-5.431-2.478-8.12-3.254l1.508-1.891
		C146.36,224.155,149.023,225.221,151.457,226.464z"/>
	<path fill="#FFFFFF" d="M178.463,223.422c-0.441,3.58-1.486,5.37-3.135,5.37c-1.675,0-3.139-1.653-4.391-4.96
		c-1.86,1.939-3.875,3.646-6.044,5.118l-1.68-1.785c2.927-1.878,5.22-3.81,6.877-5.793c-0.819-3.104-1.34-6.384-1.561-9.84h-9.218
		v2.949h7.155c-0.089,2.222-0.192,3.961-0.312,5.218c-0.119,1.256-0.223,2.208-0.311,2.856s-0.315,1.217-0.681,1.706
		c-0.366,0.489-0.813,0.794-1.343,0.913c-0.529,0.118-1.212,0.178-2.05,0.178c-0.423,0-0.864-0.018-1.322-0.053l-0.675-2.248
		c0.547,0.026,1.014,0.039,1.402,0.039c1.278,0,1.999-0.143,2.162-0.43c0.163-0.286,0.311-1.095,0.442-2.427
		c0.133-1.331,0.207-2.46,0.226-3.386h-4.774c-0.133,5.176-1.098,9.192-2.896,12.049l-1.864-1.759
		c1.622-2.707,2.433-6.754,2.433-12.142v-5.767h11.453c-0.062-1.445-0.079-2.883-0.053-4.312h2.446
		c-0.026,0.45-0.039,0.922-0.039,1.416c0,0.854,0.039,1.82,0.119,2.896h7.088v2.302h-6.956c0.105,2.478,0.44,4.951,1.005,7.42
		c1.059-1.605,2.015-3.615,2.87-6.031l2.169,0.78c-1.199,3.227-2.619,5.898-4.259,8.015c0.309,1.067,0.694,2.021,1.157,2.863
		s0.756,1.305,0.88,1.389c0.123,0.084,0.256,0.126,0.396,0.126c0.159,0,0.284-0.051,0.377-0.152s0.223-0.544,0.39-1.329
		c0.168-0.785,0.273-1.552,0.318-2.302L178.463,223.422z M177.166,207.195l-1.349,1.745c-0.987-0.723-2.279-1.393-3.875-2.01
		l1.349-1.812C174.746,205.665,176.038,206.357,177.166,207.195z"/>
	<rect x="230.665" y="197.812" fill="#FFFFFF" width="18.499" height="2.768"/>
	<rect x="221.324" y="196.392" fill="#FFFFFF" width="4.974" height="5.238"/>
	<rect x="230.665" y="187.929" fill="#FFFFFF" width="18.499" height="2.768"/>
	<rect x="221.324" y="186.513" fill="#FFFFFF" width="4.974" height="5.234"/>
	<path fill="#FFFFFF" d="M234.915,174.576c-0.999,0-1.813-0.811-1.813-1.807c0-1.004,0.813-1.813,1.813-1.813
		c1.002,0,1.81,0.809,1.81,1.813C236.725,173.765,235.917,174.576,234.915,174.576z M243.593,172.302h-4.199
		c-0.188-1.672-2.686-2.982-4.404-2.982c-1.73,0-4.228,1.311-4.414,2.982h-4.191c-1.344,0-2.441,1.104-2.441,2.443v0.92v4.182
		h22.082v-4.182v-0.92C246.024,173.406,244.931,172.302,243.593,172.302z"/>
	<path fill="#FFFFFF" d="M258.151,205.738v-25.74c0-2.746-2.314-5.004-5.14-5.004h-3.917v1.494l0.034,1.088h1.125
		c2.105,0,3.824,1.715,3.824,3.828v23.963c0.123-0.002,0.247-0.018,0.37-0.018C255.716,205.349,256.949,205.482,258.151,205.738z"/>
	<path fill="#FFFFFF" d="M227.456,221.916l-10.582-10.58h10.582V221.916z M236.651,222.31h-6.225v-13.941h-13.799v-26.965
		c0-2.113,1.72-3.828,3.826-3.828h0.296v-2.582h-2.945c-2.829,0-5.139,2.258-5.139,5.004v42.129c0,2.752,2.31,5.008,5.139,5.008
		h19.255c-0.289-1.275-0.45-2.59-0.45-3.945C236.609,222.892,236.637,222.599,236.651,222.31z"/>
	<path fill="#FFFFFF" d="M253.49,231.789l-7.646-7.596l2.573-2.625l4.69,4.588l7.873-9.895l2.881,2.299L253.49,231.789z
		 M254.448,208.464c-8.137,0-14.727,6.592-14.727,14.725c0,8.131,6.59,14.727,14.727,14.727c8.131,0,14.728-6.596,14.728-14.727
		C269.176,215.056,262.579,208.464,254.448,208.464z"/>
	<path fill="#FFFFFF" d="M219.326,248.487h-1.418v2.081c0.567-0.3,0.956-0.521,1.166-0.662l0.142,1.442
		c-0.23,0.146-0.667,0.399-1.308,0.756v5.162c0,0.357-0.078,0.637-0.232,0.84c-0.155,0.202-0.339,0.337-0.552,0.405
		s-0.613,0.103-1.202,0.103c-0.278,0-0.515-0.008-0.709-0.023l-0.37-1.355c0.814,0.042,1.289,0.033,1.426-0.027
		s0.205-0.175,0.205-0.343v-4.035c-0.32,0.179-0.838,0.426-1.553,0.74l-0.37-1.339c0.615-0.258,1.256-0.558,1.923-0.898v-2.846
		h-1.757v-1.355h1.757v-2.576h1.435v2.576h1.418V248.487z M228.886,256.958l-0.812,1.262c-1.377-1.267-2.496-2.643-3.357-4.13v4.547
		h-1.418v-4.61c-0.999,1.482-2.313,2.858-3.94,4.13l-0.852-1.174c1.818-1.319,3.168-2.677,4.051-4.074h-3.113v-1.34h3.854v-1.127
		h1.418v1.127h3.972v1.34h-3.31C226.088,254.216,227.257,255.567,228.886,256.958z M228.161,245.713
		c-1.719,0.468-4.388,0.849-8.007,1.143l-0.552-1.34c3.12-0.157,5.747-0.507,7.881-1.048L228.161,245.713z M222.282,250.378
		l-1.34,0.418c-0.353-1.057-0.778-2.036-1.277-2.939l1.309-0.513C221.436,248.081,221.872,249.091,222.282,250.378z
		 M225.056,249.622l-1.34,0.387c-0.173-0.762-0.496-1.687-0.969-2.774l1.395-0.425C224.552,247.875,224.856,248.813,225.056,249.622
		z M228.626,247.1c-0.389,1.309-0.906,2.585-1.553,3.83l-1.34-0.552c0.62-1.129,1.132-2.366,1.537-3.712L228.626,247.1z"/>
	<path fill="#FFFFFF" d="M235.19,254.768h-2.916l0.898,0.567c-0.394,1.371-0.867,2.485-1.418,3.342l-1.175-0.828
		c0.594-0.961,1.046-1.988,1.355-3.081h-0.796v-9.812h4.051V254.768z M233.851,247.826v-1.514h-1.371v1.514H233.851z
		 M233.851,250.607v-1.536h-1.371v1.536H233.851z M233.851,253.444v-1.584h-1.371v1.584H233.851z M235.837,257.708l-1.27,0.528
		c-0.226-0.872-0.614-1.776-1.166-2.711l1.166-0.528C235.035,255.711,235.458,256.615,235.837,257.708z M244.844,256.108h-1.017
		v1.048c0,0.536-0.115,0.924-0.347,1.162c-0.23,0.239-0.68,0.359-1.348,0.359c-0.268,0-0.602-0.019-1-0.056l-0.481-1.355
		c0.269,0.026,0.555,0.039,0.859,0.039c0.468,0,0.739-0.025,0.815-0.078s0.114-0.147,0.114-0.284v-0.835h-4.57v2.545h-1.403v-2.545
		h-0.953v-1.143h0.953v-3.72h3.034v-0.867h-3.948v-1.15h2.128v-0.788h-1.34v-1.048h1.34v-0.772h-1.71v-1.104h1.71v-0.914h1.387
		v0.914h2.325v-0.914h1.387v0.914h1.923v1.104h-1.923v0.772h1.309v1.048h-1.309v0.788h2.064v1.15h-3.916v0.867h2.899v3.72h1.017
		V256.108z M239.501,253.153v-0.741h-1.631v0.741H239.501z M239.501,254.965v-0.749h-1.631v0.749H239.501z M241.393,247.36v-0.74
		h-2.325v0.74H241.393z M241.393,249.228v-0.788h-2.325v0.788H241.393z M242.44,253.153v-0.741h-1.513v0.741H242.44z
		 M242.44,254.965v-0.749h-1.513v0.749H242.44z"/>
	<path fill="#FFFFFF" d="M260.983,256.526h-6.312v2.096h-1.435v-2.096h-6.297v-1.222h6.297v-0.875h-4.823v-5.358h11.12v5.358h-4.862
		v0.875h6.312V256.526z M253.316,248.227h-5.47v-3.389h5.47V248.227z M251.897,247.038v-0.985h-2.647v0.985H251.897z
		 M253.237,251.198v-0.953h-3.404v0.953H253.237z M253.237,253.248v-0.946h-3.404v0.946H253.237z M259.999,248.227h-5.406v-3.389
		h5.406V248.227z M258.115,251.198v-0.953h-3.443v0.953H258.115z M258.115,253.248v-0.946h-3.443v0.946H258.115z M258.596,247.038
		v-0.985h-2.585v0.985H258.596z"/>
	<path fill="#FFFFFF" d="M284.25,207.89c0,1.953-1.581,3.535-3.528,3.535c-1.949,0-3.529-1.582-3.529-3.535
		c0-1.947,1.58-3.527,3.529-3.527C282.669,204.363,284.25,205.943,284.25,207.89z"/>
	<polyline fill="#FFFFFF" points="282.878,208.268 316.348,208.268 316.348,207.512 282.878,207.512 	"/>
	<polygon fill="#FFFFFF" points="321.688,207.89 314.156,210.964 315.944,207.89 314.156,204.816 	"/>
	<path fill="#FFFFFF" d="M397.804,207.89c0,1.953-1.582,3.535-3.529,3.535c-1.949,0-3.528-1.582-3.528-3.535
		c0-1.947,1.579-3.527,3.528-3.527C396.222,204.363,397.804,205.943,397.804,207.89z"/>
	<polyline fill="#FFFFFF" points="396.432,208.268 429.901,208.268 429.901,207.512 396.432,207.512 	"/>
	<polygon fill="#FFFFFF" points="435.241,207.89 427.71,210.964 429.498,207.89 427.71,204.816 	"/>
	<path fill="#FFFFFF" d="M527.696,207.89c0,1.953-1.581,3.535-3.528,3.535c-1.949,0-3.528-1.582-3.528-3.535
		c0-1.947,1.579-3.527,3.528-3.527C526.115,204.363,527.696,205.943,527.696,207.89z"/>
	<polyline fill="#FFFFFF" points="526.324,208.268 559.794,208.268 559.794,207.512 526.324,207.512 	"/>
	<polygon fill="#FFFFFF" points="565.135,207.89 557.603,210.964 559.391,207.89 557.603,204.816 	"/>
	<path fill="#FFFFFF" d="M358.34,250.363l-0.733,1.206c-1.292-0.3-2.524-0.681-3.696-1.143v0.709h-5.548v-0.757
		c-1.229,0.494-2.45,0.88-3.664,1.158l-0.804-1.189c3.162-0.667,5.479-1.657,6.95-2.971l1.489,0.37
		c-0.026,0.068-0.086,0.139-0.181,0.213C353.672,249,355.733,249.8,358.34,250.363z M350.845,246.667h-4.066
		c-0.473,0.651-1.069,1.243-1.789,1.773l-1-1.032c1.019-0.683,1.906-1.71,2.663-3.081l1.403,0.307
		c-0.074,0.194-0.224,0.463-0.449,0.804h3.238V246.667z M350.608,257.4l-0.796,1.159c-0.651-0.636-1.324-1.175-2.018-1.616
		c-0.762,0.736-1.696,1.324-2.806,1.766l-0.984-1.15c1.687-0.578,2.848-1.405,3.483-2.482h-1.932v-3.294h4.871v3.294h-1.388
		l-0.401,0.819C349.29,256.294,349.946,256.796,350.608,257.4z M348.993,253.909v-0.984h-2.018v0.984H348.993z M349.348,248.038
		l-1.387,0.513c-0.147-0.31-0.402-0.701-0.765-1.174l1.355-0.505C348.883,247.208,349.148,247.597,349.348,248.038z
		 M352.949,249.993c-0.741-0.379-1.361-0.752-1.86-1.119c-0.604,0.431-1.245,0.804-1.923,1.119H352.949z M358.355,257.605
		l-0.78,1.135c-0.962-0.656-2.091-1.271-3.389-1.844c-0.735,0.814-1.553,1.429-2.451,1.844l-0.953-1.119
		c1.534-0.714,2.509-1.563,2.924-2.545h-1.86v-3.294h4.862v3.294h-1.489c-0.147,0.378-0.25,0.614-0.308,0.709
		C356.204,256.294,357.352,256.901,358.355,257.605z M357.977,245.437l-0.016,1.229h-4.854c-0.188,0.311-0.404,0.563-0.646,0.757
		l-1.388-0.465c0.72-0.793,1.295-1.666,1.727-2.616l1.323,0.339c-0.073,0.289-0.176,0.541-0.307,0.756H357.977z M355.306,253.909
		v-0.984h-2.041v0.984H355.306z M356.267,248.117l-1.418,0.434c-0.269-0.51-0.57-0.933-0.906-1.269l1.474-0.426
		C355.783,247.245,356.067,247.665,356.267,248.117z"/>
	<path fill="#FFFFFF" d="M365.598,251.624l-1.096,0.978c-0.194-0.515-0.415-0.972-0.662-1.371v7.392h-1.387v-6.982
		c-0.42,1.167-0.959,2.184-1.615,3.05l-0.757-1.552c0.878-1.072,1.647-2.52,2.31-4.343h-2.12v-1.355h2.183v-2.853h1.387v2.853h1.388
		v1.355h-1.388v0.276C364.539,249.906,365.125,250.756,365.598,251.624z M374.408,257.771l-1.017,0.938
		c-0.967-1.029-1.999-1.918-3.097-2.664c-1.519,1.146-3.147,2.015-4.887,2.608l-0.843-1.205c3.809-1.156,6.602-3.368,8.377-6.636
		l1.261,0.599c-0.814,1.371-1.778,2.614-2.892,3.728C372.394,255.911,373.426,256.789,374.408,257.771z M374.234,247.573h-4.2
		c-0.572,1.03-1.266,1.944-2.08,2.743c0.841-0.037,1.697-0.129,2.569-0.276c0.378-0.53,0.712-1.074,1-1.631l1.262,0.504
		c-1.424,2.911-3.738,5.104-6.943,6.58l-0.843-1.127c1.712-0.782,3.145-1.736,4.295-2.86c-0.998,0.126-2.041,0.224-3.129,0.292
		l-0.323-1.159c0.825-0.462,1.674-1.483,2.546-3.065h-2.641v-1.379h3.452c-0.21-0.468-0.491-0.93-0.844-1.387l1.474-0.387
		c0.305,0.415,0.654,1.007,1.049,1.773h3.356V247.573z"/>
	<path fill-rule="evenodd" clip-rule="evenodd" fill="#FFFFFF" d="M354.502,176.894c5.849-1.15,6.733,0.428,6.498,2.568
		c-0.24,2.152-11.928,2.689-12.312,0.688C348.303,178.138,351.981,177.38,354.502,176.894z M355.582,210.291
		c12.415,0,11.813,6.607,9.31,6.607h-18.496C343.556,216.898,343.178,210.291,355.582,210.291z M339.559,226.466h39.176
		c4.979,0,4.838,6.594,0.564,6.594h-40.253C334.796,233.06,334.561,226.466,339.559,226.466z M345.586,180.501l-0.03,0.445
		c-0.085,1.668,0.469,3.141,1.617,4.354c0.631,0.656,1.222,1.084,1.855,1.35c2.371,1.029,3.801,3.371,3.506,5.938
		c-0.359,3.086-0.284,14.188-3.497,15.08c-7.016,1.973-10.44,9.221-10.743,15.027c-0.019,0.412,0.124,0.789,0.406,1.094
		c0.301,0.301,0.667,0.459,1.079,0.459h38.729c0.417,0,0.783-0.158,1.075-0.459c0.303-0.305,0.423-0.682,0.405-1.094
		c-0.284-5.807-3.709-13.055-10.735-15.027c-3.21-0.893-3.131-11.994-3.496-15.08c-0.295-2.566,1.146-4.908,3.505-5.938
		c0.635-0.266,1.236-0.693,1.847-1.35c1.164-1.213,1.702-2.678,1.617-4.354l-0.009-0.445
		C372.291,172.066,345.997,172.066,345.586,180.501z"/>
	<path fill="#FFFFFF" d="M471.698,246.037c-0.81,1.171-2.021,2.198-3.633,3.081h2.908v3.664h-3.192l-0.165,1.403h3.538
		c-0.026,1.455-0.118,2.473-0.275,3.054c-0.158,0.58-0.413,0.956-0.765,1.127c-0.353,0.171-1.051,0.256-2.097,0.256
		c-0.352,0-0.788-0.005-1.308-0.016l-0.48-1.324c0.551,0.037,1.449,0.056,2.694,0.056c0.505,0,0.757-0.646,0.757-1.938h-3.633
		l0.473-3.83h3.065v-1.222h-2.679v-0.678c-0.342,0.168-0.783,0.339-1.324,0.512l-0.662-1.174c0.825-0.258,1.615-0.58,2.372-0.97
		c-0.394-0.246-0.856-0.488-1.387-0.725l0.953-1.001c0.441,0.185,1.027,0.491,1.758,0.922c0.53-0.356,0.987-0.756,1.371-1.197
		h-3.633v-1.261h5.343V246.037z M479.225,249.054l-0.733,1.127c-0.557-0.241-1.051-0.493-1.481-0.756v1.631
		c0,0.174,0.092,0.26,0.275,0.26h1.435v1.222h-1.892c-0.771,0-1.158-0.396-1.158-1.189v-0.985h-1.584
		c0,1.119-0.617,1.986-1.852,2.601l-0.875-1.056c0.426-0.179,0.763-0.419,1.013-0.722c0.249-0.302,0.374-0.792,0.374-1.47v-0.599
		h3.728c-2.007-1.229-3.378-2.661-4.113-4.295l1.276-0.402c0.147,0.368,0.421,0.799,0.819,1.293
		c0.474-0.389,0.883-0.819,1.229-1.293l1.159,0.726c-0.51,0.625-1.009,1.127-1.498,1.505c0.158,0.158,0.399,0.362,0.726,0.615
		c0.604-0.499,1.127-1.001,1.568-1.506l1.11,0.71c-0.53,0.619-1.063,1.132-1.6,1.536
		C477.672,248.337,478.362,248.687,479.225,249.054z M478.917,257.833l-1.001,0.906c-0.683-0.51-1.474-1.032-2.372-1.568
		c-0.919,0.684-2.067,1.222-3.443,1.616l-0.71-1.183c1.261-0.331,2.22-0.717,2.877-1.158c-0.856-0.499-1.584-0.894-2.184-1.183
		l0.828-0.851h-0.954v-1.245h6.037v1.245c-0.441,0.656-0.914,1.264-1.419,1.82C477.386,256.749,478.166,257.282,478.917,257.833z
		 M476.332,254.414h-3.034c0.73,0.367,1.435,0.743,2.112,1.127C475.814,255.115,476.122,254.739,476.332,254.414z"/>
	<polygon fill="#FFFFFF" points="494.426,258.637 492.937,258.637 492.937,257.849 481.864,257.849 481.864,252.506 
		483.338,252.506 483.338,256.462 487.436,256.462 487.436,250.93 482.613,250.93 482.613,245.587 484.063,245.587 484.063,249.536 
		487.436,249.536 487.436,244.531 488.886,244.531 488.886,249.536 492.259,249.536 492.259,245.587 493.717,245.587 
		493.717,250.93 488.886,250.93 488.886,256.462 492.968,256.462 492.968,252.506 494.426,252.506 	"/>
	<path fill-rule="evenodd" clip-rule="evenodd" fill="#FFFFFF" d="M508.866,225.167v-23.215L493.51,213.56L508.866,225.167z
		 M507.866,231.097c-0.613,0.615-1.458,0.996-2.389,0.996h-50.771c-0.938,0-1.777-0.381-2.391-0.996
		c-0.573-0.57-0.942-1.352-0.986-2.217l17.806-13.459l8.356,6.322c0.782,0.586,1.69,0.873,2.593,0.873
		c0.915,0,1.822-0.287,2.604-0.873l8.357-6.322l17.806,13.459C508.811,229.746,508.438,230.527,507.866,231.097z M451.33,196.167
		l27.042-20.443c0.518-0.393,1.117-0.582,1.713-0.582c0.606,0,1.208,0.189,1.719,0.582l27.048,20.443
		c0.496,0.402,0.846,1.439,0,2.074l-4.911,3.711h-47.697l-4.913-3.711C450.565,197.607,450.487,196.808,451.33,196.167z
		 M451.33,201.953v23.215l15.354-11.607L451.33,201.953z"/>
	<path fill="#065280" d="M655.762,184.098l-0.347,1.091c-0.563,0.009-1.172,0.013-1.829,0.013c-2.21,0-3.668-0.041-4.372-0.124
		s-1.326-0.278-1.865-0.589c-0.539-0.31-1.01-0.774-1.41-1.395c-0.116,0.946-0.302,1.737-0.558,2.374l-0.942-0.676
		c0.446-1.178,0.641-2.836,0.583-4.977h1.041l-0.025,1.55c0,0.028,0.061,0.162,0.18,0.399c0.12,0.237,0.259,0.451,0.416,0.642
		v-3.272H644.5v-1.029h2.133v-1.395h-1.841v-1.028h1.841V174.3h1.078v1.382h1.667v1.028h-1.667v1.395h1.896v1.029h-1.896v1.395
		h1.667v1.028h-1.667v1.928c0.715,0.442,1.706,0.663,2.975,0.663C652.578,184.148,654.271,184.131,655.762,184.098z
		 M655.241,174.542c0.021,2.041-0.069,3.274-0.27,3.7s-0.642,0.639-1.323,0.639c-0.203,0-0.483-0.013-0.843-0.037l-0.348-1.054
		c0.182,0.017,0.387,0.024,0.614,0.024c0.458,0,0.733-0.024,0.824-0.074s0.162-0.242,0.214-0.576
		c0.051-0.335,0.077-0.872,0.077-1.611h-1.574c-0.078,1.537-0.748,2.756-2.008,3.656l-0.75-0.8c1.062-0.727,1.626-1.68,1.691-2.856
		h-1.537v-1.011H655.241z M655.111,183.299h-4.785v-3.75h4.785V183.299z M653.971,182.27v-1.68h-2.51v1.68H653.971z"/>
	<polygon fill="#065280" points="667.655,185.363 666.484,185.363 666.484,184.743 657.776,184.743 657.776,180.541 
		658.936,180.541 658.936,183.652 662.158,183.652 662.158,179.301 658.365,179.301 658.365,175.099 659.506,175.099 
		659.506,178.205 662.158,178.205 662.158,174.269 663.299,174.269 663.299,178.205 665.951,178.205 665.951,175.099 
		667.098,175.099 667.098,179.301 663.299,179.301 663.299,183.652 666.509,183.652 666.509,180.541 667.655,180.541 	"/>
	<path fill="#065280" d="M675.285,176.06h-3.217c-0.475,0.641-0.948,1.174-1.419,1.599l-0.886-0.656
		c0.9-0.831,1.611-1.763,2.132-2.796l1.065,0.348c-0.045,0.104-0.134,0.271-0.267,0.502h2.591V176.06z M681.056,180.163
		l-0.533,1.004c-0.517-0.145-1.281-0.434-2.293-0.867v0.558h-5.535v-0.545c-0.682,0.326-1.456,0.601-2.324,0.824l-0.606-0.985
		c2.636-0.665,4.453-1.646,5.453-2.944l1.079,0.391l-0.198,0.229C677.304,178.768,678.956,179.547,681.056,180.163z M679.636,185.35
		h-1.103v-0.415h-6.104v0.415h-1.159v-3.768h8.366V185.35z M674.207,177.46l-1.066,0.416c-0.173-0.442-0.411-0.874-0.712-1.296
		l1.103-0.378C673.837,176.649,674.063,177.068,674.207,177.46z M678.533,183.918v-1.308h-6.104v1.308H678.533z M677.3,179.847
		c-0.687-0.355-1.313-0.783-1.878-1.283c-0.687,0.6-1.279,1.026-1.779,1.283H677.3z M680.944,176.06h-3.861
		c-0.331,0.487-0.668,0.903-1.011,1.246l-0.967-0.596c0.765-0.806,1.361-1.673,1.791-2.603l1.066,0.354
		c-0.058,0.145-0.159,0.343-0.304,0.595h3.285V176.06z M679.524,177.46l-1.041,0.428c-0.19-0.413-0.457-0.857-0.8-1.332l1.079-0.341
		C679.089,176.625,679.343,177.04,679.524,177.46z"/>
	<path fill="#065280" d="M693.792,184.34l-0.434,1.104c-2.132-0.401-3.876-1.083-5.23-2.046c-1.405,0.946-3.153,1.593-5.244,1.94
		l-0.39-1.141c1.817-0.215,3.404-0.735,4.76-1.562c-0.744-0.769-1.378-1.787-1.903-3.056l0.998-0.446
		c0.517,1.248,1.105,2.191,1.767,2.832c0.689-0.632,1.308-1.535,1.853-2.708l1.054,0.359c-0.558,1.252-1.247,2.274-2.069,3.067
		C690.303,183.557,691.916,184.109,693.792,184.34z M686.869,177.343c-0.917,1.38-2.067,2.547-3.452,3.501l-0.812-0.861
		c1.26-0.793,2.353-1.851,3.278-3.173L686.869,177.343z M693.588,175.527l-0.013,1.066H682.81v-1.066h4.928
		c-0.128-0.367-0.302-0.71-0.521-1.028l1.177-0.354c0.277,0.483,0.472,0.944,0.583,1.382H693.588z M693.551,180.25l-0.855,0.7
		c-0.843-1.111-1.938-2.241-3.285-3.39l0.85-0.688C691.693,178.086,692.79,179.212,693.551,180.25z"/>
	<path fill="#065280" d="M698.868,184.439h-1.078v-0.582h-1.065v0.886h-1.104v-9.749h3.247V184.439z M697.79,179.029v-3.006
		l-1.065-0.013v3.006L697.79,179.029z M697.79,182.828v-2.771h-1.065v2.771H697.79z M706.331,181.192h-1.222v2.981
		c0,0.31-0.062,0.552-0.186,0.728s-0.281,0.292-0.471,0.351c-0.19,0.058-0.563,0.087-1.116,0.087c-0.285,0-0.547-0.009-0.787-0.025
		l-0.335-1.041c0.583-0.017,1.091-0.024,1.525-0.024c0.186,0,0.278-0.102,0.278-0.304v-2.752h-4.642v-1.017h4.642v-0.812h1.091
		v0.812h1.222V181.192z M706.207,176.531h-2.82v1.37h2.485v1.004h-6.043v-1.004h2.442v-1.37h-2.771v-1.016h2.782v-1.246h1.091v1.246
		h2.833V176.531z M702.481,183.398l-0.923,0.607c-0.413-0.582-0.95-1.191-1.611-1.828l0.874-0.645
		C701.557,182.194,702.11,182.816,702.481,183.398z"/>
	<path fill="#065280" d="M713.087,178.651h-3.645v6.699h-1.115v-10.771h4.76V178.651z M711.978,176.153v-0.589h-2.535v0.589H711.978
		z M711.978,177.671v-0.632h-2.535v0.632H711.978z M716.142,184.185h-5.23v-4.939h5.23V184.185z M715.051,181.205v-0.967h-3.049
		v0.967H715.051z M715.051,183.206v-1.041h-3.049v1.041H715.051z M718.658,184.235c0,0.384-0.104,0.664-0.31,0.84
		c-0.207,0.176-0.455,0.264-0.744,0.264c-0.359,0-0.613-0.005-0.762-0.013l-0.385-1.091c0.269,0.013,0.481,0.019,0.639,0.019
		c0.198,0,0.321-0.014,0.368-0.04l0.071-0.152v-5.41h-3.576v-4.072h4.698V184.235z M717.536,176.153v-0.589h-2.485v0.589H717.536z
		 M717.536,177.671v-0.632h-2.485v0.632H717.536z"/>
	<path fill="#065280" d="M725.829,181.242c-0.343-0.137-0.514-0.401-0.514-0.794c0-0.231,0.087-0.421,0.263-0.57
		c0.176-0.148,0.369-0.223,0.58-0.223c0.239,0,0.436,0.087,0.589,0.261c0.152,0.173,0.229,0.388,0.229,0.645
		c0,0.475-0.363,0.989-1.09,1.543l-0.385-0.298C725.658,181.579,725.768,181.39,725.829,181.242z"/>
	<path fill="#065280" d="M654.541,200.481h-1.165v-0.645h-6.663v0.645h-1.159v-9.705h3.063c0.239-0.38,0.45-0.859,0.632-1.438
		l1.233,0.205c-0.133,0.458-0.318,0.87-0.558,1.233h4.617V200.481z M653.376,193.36v-1.481h-6.663v1.481H653.376z M653.376,195.988
		v-1.556h-6.663v1.556H653.376z M653.376,198.746v-1.691h-6.663v1.691H653.376z"/>
	<path fill="#065280" d="M663.367,192.337h-2.455v0.719h2.188v3.731h-2.188v0.713h2.188v0.886h-2.188v0.806
		c0.806-0.074,1.556-0.182,2.25-0.322l0.05,0.905c-1.831,0.306-3.769,0.56-5.813,0.762l-0.229-0.917l2.728-0.278v-0.955h-2.22V197.5
		h2.22v-0.713h-2.22v-3.731h2.22v-0.719h-2.548v-0.93h2.548v-0.725c-0.55,0.07-1.213,0.126-1.99,0.167l-0.278-0.887
		c1.93-0.082,3.65-0.282,5.162-0.601l0.435,0.812c-0.604,0.141-1.374,0.272-2.313,0.396v0.837h2.455V192.337z M659.896,194.519
		v-0.65h-1.19v0.65H659.896z M659.896,195.951v-0.645h-1.19v0.645H659.896z M662.071,194.532v-0.663h-1.159v0.663H662.071z
		 M662.071,195.951v-0.645h-1.159v0.645H662.071z M668.059,191.774c-0.009,1.769-0.048,3.472-0.118,5.109
		c-0.07,1.639-0.143,2.586-0.217,2.842s-0.217,0.453-0.428,0.592s-0.552,0.208-1.022,0.208c-0.219,0-0.444-0.011-0.676-0.031
		l-0.315-1.078c0.322,0.024,0.578,0.037,0.769,0.037c0.367,0,0.582-0.047,0.645-0.14c0.062-0.093,0.136-0.849,0.223-2.269
		c0.087-1.419,0.115-2.825,0.087-4.218h-1.091c-0.021,3.087-0.585,5.661-1.692,7.723l-0.979-0.483
		c1.128-2.033,1.65-4.445,1.567-7.239h-1.103v-1.053h1.128c0.021-1.042,0.024-1.814,0.012-2.318h1.104
		c0,0.798-0.013,1.57-0.037,2.318H668.059z"/>
	<path fill="#065280" d="M681.006,199.205l-0.291,1.104c-0.731,0.016-1.418,0.024-2.058,0.024c-2.393,0-3.966-0.083-4.72-0.248
		s-1.41-0.519-1.968-1.06c-0.409,0.595-0.824,1.119-1.246,1.574l-0.886-0.688c1.128-1.128,1.83-2.332,2.106-3.613h-1.803v-1.084
		c0.702-0.839,1.239-1.535,1.611-2.089h-1.854v-1.085h3.211v1.085c-0.401,0.624-0.903,1.32-1.507,2.089h1.537v1.084
		c-0.148,0.633-0.369,1.228-0.663,1.785c0.306,0.348,0.705,0.62,1.196,0.818c0.492,0.198,1.109,0.308,1.854,0.328
		c0.743,0.021,1.522,0.031,2.336,0.031C679.045,199.26,680.093,199.242,681.006,199.205z M672.974,190.961l-0.8,0.737
		c-0.665-0.673-1.322-1.214-1.971-1.623l0.75-0.787C671.796,189.846,672.47,190.404,672.974,190.961z M680.628,197.643
		c0,0.347-0.125,0.608-0.375,0.783c-0.25,0.176-0.747,0.247-1.49,0.214l-0.329-1.034c0.207,0.008,0.401,0.012,0.583,0.012
		c0.339,0,0.508-0.095,0.508-0.285v-0.545h-1.741v1.815h-1.091v-1.815h-1.741v1.841h-1.091v-6.508h2.491
		c-0.434-0.219-0.972-0.44-1.611-0.663l0.849-0.645c0.533,0.19,0.989,0.376,1.37,0.558c0.512-0.235,0.993-0.485,1.443-0.75h-4.716
		v-1.028h6.675v1.028c-0.843,0.537-1.613,0.994-2.312,1.37l0.167,0.13h2.411V197.643z M676.692,194.011v-0.942h-1.741v0.942H676.692
		z M676.692,195.852v-0.918h-1.741v0.918H676.692z M679.524,194.011v-0.942h-1.741v0.942H679.524z M679.524,195.852v-0.918h-1.741
		v0.918H679.524z"/>
	<path fill="#065280" d="M688.549,195.548h-2.312c-0.033,0.193-0.07,0.341-0.111,0.439c1.028,1.074,1.797,2.048,2.306,2.919
		l-0.85,0.763c-0.587-1.004-1.196-1.854-1.828-2.547c-0.69,1.479-1.506,2.646-2.448,3.501l-0.763-0.799
		c1.422-1.442,2.272-2.868,2.554-4.276h-2.491v-1.054h2.652c0.054-0.761,0.081-1.564,0.081-2.411h-0.813
		c-0.388,0.648-0.778,1.215-1.171,1.698l-0.85-0.787c0.909-1.141,1.6-2.363,2.07-3.669l1.029,0.254
		c-0.137,0.471-0.329,0.963-0.577,1.475h3.161v1.029h-1.76c0.008,0.582-0.009,1.386-0.05,2.411h2.169V195.548z M693.284,200.227
		h-1.122v-0.898h-2.076v0.898h-1.097v-9.848h4.295V200.227z M692.162,198.262v-6.817h-2.076v6.817H692.162z"/>
	<path fill="#065280" d="M698.992,192.511h-1.115v1.636c0.446-0.235,0.752-0.409,0.917-0.521l0.111,1.135
		c-0.182,0.115-0.524,0.313-1.028,0.595v4.06c0,0.281-0.062,0.501-0.183,0.66c-0.122,0.158-0.267,0.265-0.435,0.318
		c-0.167,0.054-0.482,0.081-0.944,0.081c-0.22,0-0.405-0.006-0.559-0.019l-0.291-1.066c0.641,0.033,1.015,0.026,1.122-0.021
		c0.107-0.047,0.161-0.137,0.161-0.27v-3.173c-0.252,0.141-0.659,0.334-1.221,0.582l-0.292-1.054
		c0.483-0.202,0.988-0.438,1.513-0.706v-2.237h-1.382v-1.066h1.382v-2.026h1.128v2.026h1.115V192.511z M706.511,199.173
		l-0.639,0.992c-1.083-0.996-1.963-2.078-2.641-3.248v3.576h-1.115v-3.626c-0.785,1.165-1.818,2.248-3.099,3.248l-0.67-0.924
		c1.43-1.037,2.492-2.104,3.186-3.204h-2.447v-1.054h3.03v-0.886h1.115v0.886h3.124v1.054h-2.604
		C704.311,197.017,705.229,198.079,706.511,199.173z M705.94,190.33c-1.352,0.367-3.45,0.667-6.297,0.898l-0.435-1.054
		c2.455-0.124,4.521-0.398,6.198-0.824L705.94,190.33z M701.316,193.999l-1.054,0.328c-0.276-0.83-0.611-1.601-1.004-2.312
		l1.029-0.402C700.651,192.191,700.994,192.986,701.316,193.999z M703.498,193.404l-1.054,0.304c-0.136-0.6-0.391-1.326-0.762-2.182
		l1.097-0.335C703.102,192.03,703.341,192.767,703.498,193.404z M706.306,191.42c-0.306,1.028-0.713,2.032-1.221,3.012l-1.054-0.434
		c0.487-0.889,0.891-1.861,1.209-2.919L706.306,191.42z"/>
	<path fill="#065280" d="M711.469,197.451h-2.293l0.707,0.446c-0.311,1.078-0.683,1.954-1.116,2.628l-0.923-0.651
		c0.467-0.756,0.821-1.563,1.065-2.423h-0.626v-7.716h3.186V197.451z M710.415,191.991v-1.19h-1.078v1.19H710.415z M710.415,194.178
		v-1.209h-1.078v1.209H710.415z M710.415,196.41v-1.246h-1.078v1.246H710.415z M711.978,199.762l-0.998,0.415
		c-0.178-0.686-0.483-1.396-0.917-2.132l0.917-0.415C711.347,198.192,711.68,198.903,711.978,199.762z M719.062,198.504h-0.8v0.824
		c0,0.421-0.091,0.726-0.272,0.914c-0.183,0.188-0.535,0.282-1.061,0.282c-0.21,0-0.473-0.015-0.787-0.044l-0.378-1.065
		c0.211,0.021,0.437,0.03,0.676,0.03c0.368,0,0.582-0.021,0.642-0.062s0.09-0.115,0.09-0.223v-0.657h-3.595v2.002h-1.104v-2.002
		h-0.75v-0.898h0.75v-2.926h2.387v-0.682h-3.105v-0.905h1.674v-0.619h-1.054v-0.824h1.054v-0.607h-1.345v-0.868h1.345v-0.719h1.091
		v0.719h1.828v-0.719h1.091v0.719h1.512v0.868h-1.512v0.607h1.028v0.824h-1.028v0.619h1.624v0.905h-3.081v0.682h2.281v2.926h0.8
		V198.504z M714.859,196.18v-0.583h-1.283v0.583H714.859z M714.859,197.606v-0.589h-1.283v0.589H714.859z M716.347,191.625v-0.582
		h-1.828v0.582H716.347z M716.347,193.093v-0.619h-1.828v0.619H716.347z M717.171,196.18v-0.583h-1.19v0.583H717.171z
		 M717.171,197.606v-0.589h-1.19v0.589H717.171z"/>
	<path fill="#065280" d="M730.589,198.467h-5.906l0.422,0.365c-0.971,0.698-2.248,1.283-3.83,1.754l-0.626-0.904
		c1.252-0.355,2.269-0.761,3.049-1.215h-1.828v-5.547h8.72V198.467z M730.311,192.195h-8.162v-2.46h8.162V192.195z M729.474,194.506
		v-0.712h-6.464v0.712H729.474z M729.474,196.043v-0.725h-6.464v0.725H729.474z M729.474,197.606v-0.738h-6.464v0.738H729.474z
		 M729.188,191.346v-0.726h-5.875v0.726H729.188z M731.829,199.682l-0.558,0.941c-1.12-0.454-2.355-0.797-3.707-1.028l0.521-0.942
		C729.511,198.884,730.759,199.227,731.829,199.682z"/>
	<path fill="#065280" d="M655.558,214.688l-0.62,0.967c-1.248-0.546-2.306-1.146-3.174-1.804c-1.062,0.723-2.386,1.337-3.973,1.841
		l-0.626-0.979c1.446-0.442,2.665-0.983,3.657-1.624c-0.822-0.817-1.613-1.939-2.374-3.365c-0.458,2.33-1.549,4.269-3.272,5.813
		l-0.75-0.886c1.079-1.021,1.855-2.084,2.331-3.189c0.475-1.104,0.797-2.983,0.967-5.637h-2.331v-1.115h8.528
		c-0.276,1.157-0.637,2.295-1.078,3.415h2.039c-0.376,2.198-1.12,3.865-2.231,5.001
		C653.419,213.708,654.388,214.229,655.558,214.688z M652.409,205.825h-3.502c-0.029,0.814-0.098,1.581-0.205,2.3h2.907
		C651.874,207.476,652.14,206.709,652.409,205.825z M653.487,209.24h-4.047c0.689,1.352,1.456,2.409,2.299,3.174
		C652.524,211.657,653.106,210.599,653.487,209.24z"/>
	<path fill="#065280" d="M668.251,206.463h-9.266v3.452c0,2.541-0.304,4.443-0.911,5.708l-0.893-0.787
		c0.458-1.078,0.688-2.439,0.688-4.084v-5.318h4.543c-0.074-0.165-0.215-0.398-0.421-0.7l1.171-0.315
		c0.128,0.178,0.322,0.517,0.583,1.016h4.506V206.463z M660.912,208.608l-0.861,0.458c-0.223-0.558-0.522-1.104-0.898-1.642
		l0.837-0.49C660.414,207.55,660.723,208.108,660.912,208.608z M664.135,214.588c0,0.359-0.075,0.608-0.226,0.747
		c-0.151,0.139-0.323,0.221-0.518,0.248c-0.194,0.026-0.635,0.04-1.32,0.04l-0.409-1.01c0.248,0.012,0.463,0.019,0.645,0.019
		c0.364,0,0.607-0.019,0.731-0.057c0.124-0.037,0.187-0.117,0.187-0.241v-4.14h-2.969v5.429h-0.93v-6.384h1.934v-2.436h1.041v2.436
		h1.834V214.588z M662.766,214.049h-2.015v-3.248h2.015V214.049z M661.979,213.151v-1.444h-0.44v1.444H661.979z M664.507,207.399
		c-0.372,0.752-0.71,1.308-1.017,1.667l-0.898-0.471c0.368-0.458,0.7-1.008,0.998-1.648L664.507,207.399z M668.362,214.812
		l-0.633,0.867c-0.521-0.434-0.989-0.913-1.406-1.438c-0.45,0.582-0.903,1.062-1.357,1.438l-0.65-0.843
		c0.512-0.426,0.969-0.939,1.369-1.543c-0.347-0.67-0.591-1.283-0.731-1.841l0.887-0.471c0.041,0.091,0.106,0.274,0.195,0.551
		c0.089,0.277,0.177,0.481,0.263,0.614c0.298-0.678,0.483-1.651,0.559-2.92h-0.837c-0.314,0.844-0.633,1.492-0.955,1.946
		l-0.712-0.774c0.512-0.859,0.936-2.091,1.271-3.694l0.991,0.229c-0.017,0.137-0.109,0.554-0.279,1.252h1.94v1.041h-0.378
		c-0.111,1.67-0.446,3.025-1.004,4.066C667.257,213.805,667.746,214.312,668.362,214.812z"/>
	<path fill="#065280" d="M680.956,206.333h-3.415l0.85,0.458c-0.133,0.311-0.331,0.649-0.595,1.017h2.627v6.688
		c0,0.248-0.067,0.464-0.204,0.647s-0.292,0.311-0.468,0.381s-0.466,0.105-0.871,0.105c-0.211,0-0.471-0.01-0.78-0.03l-0.354-1.054
		c0.215,0.012,0.413,0.019,0.595,0.019c0.496,0,0.785-0.02,0.868-0.06c0.082-0.039,0.123-0.114,0.123-0.226v-5.454h-2.095v0.837
		l0.068,0.13l0.124,0.074h1.494v0.948h-1.978c-0.194,0-0.374-0.082-0.539-0.248c-0.165-0.165-0.248-0.345-0.248-0.539v-1.202h-1.45
		c0,1.352-0.791,2.188-2.374,2.51l-0.545-0.948c1.227-0.194,1.845-0.715,1.853-1.562h-2.088v6.786h-1.109v-7.803h2.665
		c-0.294-0.475-0.529-0.822-0.707-1.041l0.824-0.434h-3.291v-0.985h4.928c-0.059-0.157-0.155-0.379-0.292-0.663l1.166-0.255
		c0.111,0.236,0.223,0.542,0.334,0.918h4.884V206.333z M678.204,214.229h-5.473v-2.764h5.473V214.229z M677.324,206.333h-3.817
		c0.351,0.475,0.646,0.967,0.886,1.475h2.107C676.731,207.49,677.006,206.999,677.324,206.333z M677.113,213.25v-0.836h-3.278v0.836
		H677.113z"/>
	<path fill="#065280" d="M693.649,215.295h-11.007v-1.104h4.915v-2.727h-3.887v-1.104h3.887v-2.684h-4.481v-1.104h4.661
		c-0.161-0.533-0.44-1.154-0.837-1.865l1.141-0.304c0.355,0.686,0.663,1.409,0.923,2.169h4.228v1.104h-4.469v2.684h3.898v1.104
		h-3.898v2.727h4.927V215.295z"/>
	<path fill="#065280" d="M700.709,206.209h-3.353c-0.385,0.442-0.854,0.878-1.407,1.308l-0.737-0.917
		c0.975-0.653,1.617-1.372,1.928-2.157l1.146,0.304c-0.058,0.157-0.143,0.326-0.254,0.508h2.677V206.209z M706.052,209.977h-1.115
		v-1.221h-8.237v1.221h-1.122v-2.156h4.574c-0.045-0.12-0.148-0.31-0.31-0.57l1.295-0.204c0.116,0.169,0.252,0.427,0.409,0.774
		h4.506V209.977z M704.898,215.09h-6.742v0.509h-1.104v-6.204h7.425v2.423h-6.321v0.676h6.742V215.09z M699.538,207.3l-1.239,0.229
		c-0.112-0.24-0.29-0.537-0.533-0.893l1.202-0.248C699.125,206.575,699.314,206.878,699.538,207.3z M703.35,210.994v-0.737h-5.193
		v0.737H703.35z M703.765,214.229v-0.886h-5.608v0.886H703.765z M706.368,206.209h-3.911c-0.194,0.297-0.434,0.597-0.719,0.898
		l-1.029-0.545c0.698-0.74,1.192-1.459,1.481-2.157l1.146,0.328c-0.107,0.22-0.2,0.393-0.278,0.521h3.31V206.209z M704.67,207.375
		l-1.222,0.192c-0.099-0.294-0.26-0.624-0.483-0.992l1.233-0.136C704.364,206.708,704.521,207.019,704.67,207.375z"/>
	<path fill="#065280" d="M633.038,186.373c-3.425,0-6.215-2.787-6.215-6.215c0-3.426,2.79-6.217,6.215-6.217
		c3.432,0,6.215,2.791,6.215,6.217C639.253,183.585,636.47,186.373,633.038,186.373z M633.038,172.501
		c-4.218,0-7.654,3.438-7.654,7.656c0,4.223,3.437,7.652,7.654,7.652c4.226,0,7.653-3.43,7.653-7.652
		C640.691,175.939,637.264,172.501,633.038,172.501z"/>
	<path fill="#065280" d="M635.888,177.501l-2.282,1.672l-0.109-0.053l-0.019-4.484l-0.917,0.004l0.019,4.484
		c-0.399,0.172-0.673,0.572-0.673,1.033c0,0.623,0.508,1.135,1.132,1.135c0.628,0,1.137-0.512,1.137-1.135l-0.026-0.24l2.28-1.678
		L635.888,177.501z"/>
	<path fill="#FFFFFF" d="M586.432,246.99H574.65v4.39c0,3.231-0.387,5.65-1.159,7.258l-1.135-1.001
		c0.584-1.371,0.875-3.102,0.875-5.193v-6.761h5.776c-0.095-0.211-0.272-0.508-0.535-0.891l1.489-0.402
		c0.162,0.226,0.409,0.657,0.74,1.293h5.729V246.99z M577.101,249.716l-1.095,0.583c-0.284-0.709-0.665-1.405-1.143-2.088
		l1.063-0.623C576.468,248.372,576.859,249.081,577.101,249.716z M581.199,257.322c0,0.457-0.097,0.773-0.288,0.949
		s-0.411,0.281-0.658,0.315s-0.807,0.051-1.679,0.051l-0.52-1.284c0.315,0.016,0.588,0.023,0.819,0.023
		c0.462,0,0.772-0.023,0.93-0.071c0.158-0.047,0.236-0.149,0.236-0.307v-5.265h-3.774v6.903h-1.182v-8.117h2.458v-3.097h1.324v3.097
		h2.333V257.322z M579.457,256.636h-2.561v-4.13h2.561V256.636z M578.456,255.493v-1.836h-0.56v1.836H578.456z M581.672,248.18
		c-0.473,0.956-0.903,1.662-1.293,2.119l-1.143-0.599c0.468-0.583,0.891-1.281,1.27-2.096L581.672,248.18z M586.573,257.605
		l-0.804,1.104c-0.662-0.552-1.258-1.161-1.789-1.828c-0.572,0.74-1.147,1.35-1.726,1.828l-0.827-1.072
		c0.651-0.541,1.231-1.194,1.741-1.962c-0.441-0.852-0.751-1.631-0.93-2.341l1.127-0.599c0.053,0.115,0.135,0.35,0.248,0.701
		c0.113,0.353,0.225,0.612,0.335,0.78c0.378-0.861,0.614-2.099,0.709-3.712h-1.063c-0.399,1.072-0.804,1.896-1.214,2.475
		l-0.906-0.985c0.651-1.092,1.19-2.658,1.615-4.696l1.262,0.291c-0.021,0.174-0.14,0.704-0.355,1.593h2.467v1.323h-0.48
		c-0.142,2.123-0.567,3.846-1.276,5.17C585.168,256.326,585.791,256.969,586.573,257.605z"/>
	<path fill="#FFFFFF" d="M602.587,246.825h-4.342l1.079,0.583c-0.168,0.394-0.42,0.825-0.756,1.292h3.341v8.504
		c0,0.314-0.087,0.59-0.26,0.823c-0.174,0.233-0.372,0.396-0.595,0.484c-0.224,0.09-0.593,0.134-1.107,0.134
		c-0.269,0-0.6-0.013-0.993-0.039l-0.449-1.34c0.273,0.016,0.525,0.023,0.757,0.023c0.63,0,0.998-0.024,1.103-0.074
		c0.105-0.05,0.158-0.146,0.158-0.288v-6.935h-2.664v1.063l0.087,0.166l0.157,0.094h1.899v1.206h-2.514
		c-0.247,0-0.476-0.104-0.686-0.315c-0.21-0.21-0.315-0.438-0.315-0.686v-1.528h-1.844c0,1.718-1.006,2.781-3.019,3.191
		l-0.693-1.206c1.561-0.247,2.346-0.908,2.356-1.985h-2.656v8.629h-1.41V248.7h3.389c-0.373-0.604-0.673-1.045-0.898-1.323
		l1.048-0.552h-4.185v-1.253h6.266c-0.074-0.2-0.197-0.481-0.371-0.844l1.481-0.323c0.143,0.3,0.284,0.688,0.426,1.167h6.21V246.825
		z M599.088,256.865h-6.958v-3.516h6.958V256.865z M597.969,246.825h-4.854c0.447,0.604,0.822,1.229,1.127,1.875h2.68
		C597.215,248.295,597.564,247.67,597.969,246.825z M597.701,255.62v-1.064h-4.169v1.064H597.701z"/>
	<path fill="#FFFFFF" d="M611.516,246.809h-4.09c-0.604,0.813-1.206,1.491-1.805,2.033l-1.127-0.836
		c1.146-1.056,2.049-2.24,2.711-3.554l1.355,0.441c-0.058,0.131-0.171,0.344-0.339,0.638h3.294V246.809z M618.853,252.026
		l-0.678,1.276c-0.656-0.184-1.629-0.552-2.916-1.104v0.71h-7.037v-0.694c-0.867,0.415-1.852,0.765-2.955,1.049l-0.772-1.253
		c3.352-0.847,5.664-2.094,6.936-3.744l1.371,0.497c-0.084,0.11-0.169,0.207-0.253,0.291
		C614.082,250.252,616.184,251.243,618.853,252.026z M617.048,258.622h-1.402v-0.528h-7.763v0.528h-1.474v-4.791h10.639V258.622z
		 M610.145,248.589l-1.355,0.528c-0.221-0.563-0.522-1.111-0.906-1.647l1.403-0.48C609.675,247.557,609.961,248.09,610.145,248.589z
		 M615.646,256.801v-1.663h-7.763v1.663H615.646z M614.077,251.624c-0.872-0.451-1.668-0.995-2.388-1.631
		c-0.872,0.762-1.626,1.306-2.262,1.631H614.077z M618.711,246.809h-4.909c-0.421,0.619-0.849,1.147-1.285,1.584l-1.229-0.757
		c0.973-1.024,1.731-2.128,2.277-3.31l1.355,0.449c-0.073,0.184-0.202,0.436-0.386,0.756h4.177V246.809z M616.906,248.589
		l-1.324,0.544c-0.241-0.525-0.58-1.09-1.017-1.694l1.371-0.434C616.352,247.526,616.675,248.054,616.906,248.589z"/>
	<path fill="#FFFFFF" d="M635.048,257.337l-0.552,1.402c-2.711-0.51-4.928-1.376-6.651-2.601c-1.786,1.203-4.009,2.025-6.667,2.467
		l-0.496-1.45c2.312-0.273,4.329-0.935,6.052-1.985c-0.945-0.978-1.752-2.272-2.419-3.886l1.269-0.567
		c0.656,1.587,1.405,2.787,2.246,3.602c0.877-0.804,1.663-1.952,2.356-3.443l1.34,0.457c-0.71,1.592-1.587,2.892-2.633,3.9
		C630.61,256.341,632.662,257.043,635.048,257.337z M626.245,248.44c-1.166,1.755-2.63,3.239-4.39,4.452l-1.032-1.095
		c1.603-1.009,2.992-2.354,4.169-4.035L626.245,248.44z M634.787,246.131l-0.016,1.355h-13.688v-1.355h6.266
		c-0.163-0.468-0.384-0.904-0.662-1.309l1.497-0.449c0.352,0.614,0.599,1.2,0.741,1.758H634.787z M634.74,252.136l-1.088,0.891
		c-1.071-1.414-2.464-2.851-4.177-4.312l1.08-0.874C632.379,249.385,633.773,250.817,634.74,252.136z"/>
	<path fill-rule="evenodd" clip-rule="evenodd" fill="#FFFFFF" d="M602.953,206.808c-3.19,3.201-5.177,7.615-5.177,12.504
		c0,4.877,1.986,9.293,5.177,12.492c3.197,3.197,7.625,5.174,12.501,5.174c4.877,0,9.291-1.977,12.494-5.174
		c3.199-3.199,5.173-7.615,5.173-12.492c0-4.889-1.974-9.303-5.173-12.504c-3.203-3.197-7.617-5.174-12.494-5.174
		C610.578,201.634,606.15,203.611,602.953,206.808z M625.001,209.765c-1.254-1.24-2.742-2.246-4.389-2.926
		c-1.58-0.654-3.332-1.014-5.158-1.014c-1.825,0-3.571,0.359-5.15,1.014c-1.658,0.68-3.136,1.686-4.389,2.926
		c-1.248,1.25-2.253,2.738-2.935,4.385c-0.656,1.59-1.011,3.332-1.011,5.162c0,1.822,0.354,3.568,1.011,5.154
		c0.682,1.646,1.687,3.133,2.935,4.381c1.253,1.244,2.73,2.244,4.389,2.93c1.579,0.658,3.325,1.025,5.15,1.025
		c1.826,0,3.578-0.367,5.158-1.025c1.646-0.686,3.135-1.686,4.389-2.93c1.229-1.248,2.238-2.734,2.922-4.381
		c0.649-1.586,1.023-3.332,1.023-5.154c0-1.83-0.374-3.572-1.023-5.162C627.239,212.503,626.23,211.015,625.001,209.765z
		 M604.539,189.009h-1.701c0-0.373,0.062-0.629,0.156-0.736c0.107-0.113,0.333-0.174,0.682-0.174c0.368,0,0.596,0.045,0.702,0.143
		c0.109,0.094,0.161,0.297,0.161,0.604V189.009z M597.576,187.451h0.931l-0.042,0.656l0.021,0.004
		c0.193-0.465,0.59-0.705,1.229-0.705c0.926,0,1.386,0.436,1.386,1.297v2.654h-0.936v-2.354v-0.145l-0.026-0.27
		c-0.035-0.293-0.273-0.447-0.683-0.447c-0.629,0-0.944,0.301-0.944,0.896v2.318h-0.936V187.451z M596.633,187.451v3.906h-0.937
		l0.053-0.672l-0.021-0.004c-0.172,0.482-0.601,0.725-1.261,0.725c-0.873,0-1.332-0.443-1.332-1.326v-2.629h0.941v2.402
		c0,0.33,0.054,0.549,0.141,0.656c0.093,0.107,0.282,0.154,0.576,0.154c0.595,0,0.903-0.357,0.903-1.076v-2.137H596.633z
		 M592.203,185.773v3.857c0,0.719-0.117,1.199-0.353,1.428c-0.228,0.234-0.718,0.354-1.445,0.354c-0.763,0-1.276-0.113-1.506-0.334
		c-0.232-0.229-0.348-0.729-0.348-1.486l0.015-0.416h1.009c0.021,0.209,0.034,0.371,0.034,0.463c0,0.1,0,0.223,0.014,0.363
		c0.013,0.34,0.281,0.508,0.794,0.508c0.315,0,0.509-0.068,0.611-0.18c0.08-0.123,0.127-0.396,0.127-0.824v-3.732H592.203z
		 M604.533,190.115h0.949l-0.008,0.152c0,0.756-0.569,1.139-1.711,1.139c-0.79,0-1.292-0.133-1.532-0.395
		c-0.234-0.27-0.361-0.828-0.361-1.688c0-0.76,0.135-1.268,0.375-1.529c0.254-0.262,0.742-0.396,1.465-0.396
		c0.701,0,1.176,0.135,1.41,0.391c0.228,0.258,0.354,0.754,0.354,1.502l0.008,0.287h-2.649l-0.015,0.168
		c0,0.381,0.068,0.635,0.176,0.764c0.12,0.125,0.36,0.191,0.709,0.191c0.354,0,0.573-0.037,0.681-0.111
		C604.481,190.515,604.533,190.361,604.533,190.115z M595.972,214.921v2.207h-11.117v-2.996c0-1.551,0.273-2.582,0.841-3.084
		c0.556-0.514,1.867-0.955,3.966-1.324c1.729-0.314,2.757-0.594,3.084-0.85c0.309-0.26,0.471-0.914,0.471-1.979
		c0-1.023-0.162-1.672-0.471-1.932c-0.327-0.277-1.089-0.42-2.28-0.42c-1.243,0-2.026,0.143-2.35,0.42
		c-0.318,0.268-0.479,0.939-0.479,2.01l-0.006,0.617H584.9v-0.609c0-1.846,0.376-3.088,1.136-3.73
		c0.764-0.631,2.234-0.951,4.44-0.951c2.136,0,3.586,0.326,4.35,0.967c0.77,0.652,1.146,1.873,1.146,3.688
		c0,1.713-0.288,2.852-0.871,3.439c-0.589,0.574-1.926,1.057-4.027,1.443c-1.727,0.316-2.741,0.58-3.016,0.805
		c-0.288,0.221-0.422,0.848-0.422,1.879v0.4H595.972z M584.071,176.603h0.026c0.783,0,1.425,0.641,1.425,1.432v6.906
		c0,0.789-0.642,1.432-1.425,1.432h-0.026c-0.79,0-1.424-0.643-1.424-1.432v-6.906C582.647,177.244,583.281,176.603,584.071,176.603
		z M609.931,176.603h0.033c0.781,0,1.425,0.641,1.425,1.432v6.906c0,0.789-0.644,1.432-1.425,1.432h-0.033
		c-0.782,0-1.426-0.643-1.426-1.432v-6.906C608.505,177.244,609.148,176.603,609.931,176.603z M616.379,196.027v4.152
		c0.875,0.045,1.745,0.152,2.587,0.307v-0.053v-15.758c0-2.045-1.664-3.711-3.712-3.711h-2.575v4.801c0,1.1-0.896,2-1.998,2
		c-0.49,0-0.973,0-1.474,0c-1.097,0-1.992-0.9-1.992-2v-4.801H586.82v4.801c0,1.1-0.897,2-1.992,2c-0.497,0-0.991,0-1.48,0
		c-1.095,0-2-0.9-2-2v-4.801h-2.567c-2.054,0-3.718,1.666-3.718,3.711v40.213c0,2.041,1.664,3.707,3.718,3.707
		c6.636,0,13.27,0,19.912,0c-0.281-0.498-0.541-1.018-0.775-1.539h-20.261v-0.363h20.101c-0.208-0.514-0.402-1.021-0.568-1.543
		h-19.532v-0.287h19.438c-0.155-0.504-0.288-1.025-0.389-1.539H578.22c-0.308,0-0.563-0.262-0.563-0.574v-26.723
		c0-0.309,0.256-0.568,0.563-0.568h37.583C616.116,195.458,616.379,195.718,616.379,196.027z M599.429,208.722l-0.181-0.213
		c-0.315-0.438-0.481-1.201-0.481-2.277c0-1.564,0.368-2.607,1.11-3.135c0.749-0.529,2.208-0.797,4.368-0.797
		c0.795,0,1.498,0.027,2.1,0.094c-1.156,0.621-2.24,1.357-3.236,2.193c-0.576,0.047-0.959,0.141-1.139,0.275
		c-0.246,0.17-0.393,0.57-0.429,1.203C600.761,206.89,600.056,207.773,599.429,208.722z M615.769,217.062
		c0.041-0.117,0.128-0.207,0.233-0.256c0.102-0.049,0.229-0.063,0.343-0.02c0.121,0.045,0.208,0.125,0.253,0.234l0.021,0.041
		l6.488-6.488c0.148-0.139,0.342-0.219,0.541-0.219c0.194,0,0.39,0.08,0.535,0.219c0.149,0.15,0.236,0.346,0.236,0.543
		c0,0.193-0.087,0.389-0.236,0.535l-7.344,7.355l1.017,0.76c0.241,0.172,0.382,0.43,0.422,0.707c0.087,0.58-0.32,1.125-0.902,1.211
		c-0.272,0.037-0.558-0.025-0.803-0.201l-1.118-0.838l-3.438,9.734c-0.033,0.113-0.127,0.205-0.227,0.26
		c-0.228,0.102-0.496,0.016-0.602-0.213c-0.048-0.107-0.054-0.229-0.021-0.348l3.005-8.5c-0.095,0.045-0.189,0.059-0.288,0.059
		c-0.189,0-0.389-0.074-0.535-0.225c-0.153-0.145-0.222-0.338-0.222-0.537c0-0.197,0.068-0.383,0.222-0.537l0.721-0.723
		l-5.899-4.414c-0.232-0.174-0.379-0.432-0.414-0.701c-0.039-0.271,0.021-0.559,0.2-0.797c0.175-0.236,0.43-0.381,0.702-0.42
		c0.274-0.033,0.556,0.023,0.804,0.205l5.986,4.475L615.769,217.062z"/>
</g>
</svg>
