<?xml version="1.0" encoding="utf-8"?>
<!-- Generator: Adobe Illustrator 13.0.1, SVG Export Plug-In . SVG Version: 6.00 Build 14948)  -->
<!DOCTYPE svg PUBLIC "-//W3C//DTD SVG 1.1//EN" "http://www.w3.org/Graphics/SVG/1.1/DTD/svg11.dtd">
<svg version="1.1" id="圖層_1" xmlns="http://www.w3.org/2000/svg" xmlns:xlink="http://www.w3.org/1999/xlink" x="0px" y="0px"
	 width="50px" height="50.529px" viewBox="0 0 50 50.529" enable-background="new 0 0 50 50.529" xml:space="preserve">
<g>
	<g>
		<g>
			<path fill="#FFFFFF" d="M23.28,16.242c-0.741-0.003-1.482,0.303-2.005,0.832c-0.531,0.524-0.838,1.266-0.832,2.009
				c-0.006,0.743,0.301,1.484,0.832,2.007c0.522,0.53,1.264,0.835,2.005,0.833c0.745,0.002,1.486-0.304,2.009-0.833
				c0.527-0.523,0.838-1.265,0.833-2.007c0.005-0.743-0.306-1.485-0.833-2.009C24.766,16.545,24.025,16.239,23.28,16.242z"/>
			
				<rect x="48.996" y="24.488" transform="matrix(0.913 -0.4079 0.4079 0.913 -6.1467 22.3259)" fill="#FFFFFF" width="0.582" height="2.182"/>
			<path fill="#FFFFFF" d="M43.928,8.518c-0.203-0.464-0.597-0.835-1.073-1.014c-0.471-0.182-1.012-0.168-1.474,0.044
				c-0.465,0.202-0.832,0.596-1.012,1.071c-0.182,0.473-0.167,1.014,0.043,1.476c0.206,0.46,0.6,0.832,1.074,1.011
				c0.471,0.182,1.014,0.167,1.473-0.042c0.465-0.205,0.834-0.599,1.012-1.073C44.152,9.517,44.139,8.976,43.928,8.518z"/>
			<path fill="#FFFFFF" d="M49.624,23.692c-0.014-0.083-0.038-0.164-0.071-0.241l-0.079-0.177l-0.612-1.363l-1.143-2.541
				c0.181-0.104,0.347-0.223,0.506-0.361c0.34-0.298,0.617-0.669,0.809-1.082c0.188-0.416,0.288-0.87,0.288-1.324
				c0.003-0.455-0.097-0.909-0.282-1.323l-2.029-4.524l-1.524-3.391l-0.127-0.282c-0.04-0.092-0.09-0.206-0.144-0.301
				c-0.11-0.199-0.24-0.385-0.391-0.558c-0.596-0.688-1.496-1.102-2.406-1.102c-0.455-0.002-0.908,0.095-1.324,0.281l-1.131,0.51
				l-0.281,0.123c-0.094,0.043-0.205,0.096-0.301,0.147c-0.2,0.111-0.387,0.241-0.557,0.394c-0.343,0.296-0.623,0.669-0.807,1.085
				c-0.021,0.037-0.039,0.081-0.057,0.123l-15.899,5.277c-0.384,0.08-0.764,0.194-1.129,0.346c-0.764,0.316-1.465,0.788-2.05,1.37
				c-0.586,0.586-1.055,1.288-1.372,2.052c-0.319,0.763-0.48,1.595-0.48,2.421c0,0.827,0.161,1.658,0.48,2.42
				c0.25,0.605,0.598,1.17,1.021,1.668v7.172h0.583v-6.566c0.536,0.482,1.154,0.874,1.819,1.149c0.762,0.317,1.594,0.48,2.42,0.48
				c0.825,0,1.653-0.163,2.422-0.48c0.664-0.276,1.281-0.667,1.816-1.149v6.566h0.583V23.34c0.423-0.499,0.771-1.063,1.021-1.668
				c0.297-0.712,0.456-1.478,0.478-2.249l9.88-5.667l0.482,1.073l1.014,2.261l0.508,1.129l0.129,0.282
				c0.037,0.092,0.09,0.204,0.143,0.302c0.111,0.199,0.242,0.387,0.389,0.558c0.598,0.692,1.498,1.102,2.41,1.102
				c0.346,0,0.689-0.055,1.018-0.162l1.143,2.541l0.609,1.365l0.08,0.175c0.033,0.076,0.082,0.149,0.133,0.215
				c0.102,0.132,0.238,0.241,0.387,0.317c0.3,0.15,0.668,0.159,0.971,0.02c0.311-0.138,0.55-0.417,0.634-0.743
				C49.646,24.029,49.656,23.857,49.624,23.692z M29.078,19.532c-0.031,0.657-0.167,1.308-0.42,1.917
				c-0.286,0.691-0.715,1.328-1.247,1.862c-0.528,0.53-1.163,0.955-1.859,1.244c-0.694,0.287-1.444,0.434-2.196,0.434
				s-1.504-0.147-2.199-0.434c-0.693-0.289-1.327-0.714-1.861-1.244c-0.53-0.534-0.956-1.17-1.244-1.862
				c-0.253-0.609-0.389-1.26-0.422-1.917c-0.004-0.094-0.012-0.186-0.012-0.28c0-0.752,0.144-1.503,0.434-2.197
				c0.288-0.693,0.714-1.33,1.244-1.862c0.535-0.532,1.168-0.958,1.861-1.245c0.695-0.288,1.447-0.437,2.199-0.435
				c0.752-0.002,1.502,0.147,2.195,0.435c0.695,0.287,1.332,0.713,1.86,1.245c0.532,0.53,0.961,1.168,1.247,1.86
				c0.289,0.695,0.436,1.446,0.436,2.198C29.093,19.346,29.083,19.438,29.078,19.532z M47.382,18.888
				c-0.081,0.047-0.159,0.083-0.257,0.126l-0.279,0.125l-1.133,0.51c-0.34,0.151-0.709,0.232-1.081,0.229
				c-0.745,0-1.483-0.339-1.97-0.903c-0.121-0.136-0.229-0.291-0.316-0.453c-0.049-0.085-0.083-0.16-0.128-0.258l-0.124-0.285
				l-0.51-1.127l-1.014-2.262l-2.031-4.522c-0.113-0.25-0.172-0.521-0.199-0.793c-0.049-0.468,0.011-0.944,0.207-1.371
				c0.154-0.339,0.383-0.644,0.66-0.889c0.14-0.121,0.293-0.228,0.455-0.319c0.086-0.045,0.162-0.082,0.259-0.122l0.281-0.129
				l1.13-0.508c0.34-0.152,0.715-0.23,1.084-0.23c0.744,0,1.48,0.336,1.965,0.9c0.125,0.142,0.23,0.296,0.32,0.458
				c0.047,0.084,0.081,0.159,0.126,0.258l0.124,0.283l0.512,1.13l1.013,2.262l2.03,4.522c0.193,0.421,0.249,0.895,0.2,1.353
				c-0.028,0.28-0.089,0.555-0.207,0.811c-0.155,0.338-0.382,0.644-0.661,0.885C47.698,18.691,47.543,18.799,47.382,18.888z"/>
			<path fill="#FFFFFF" d="M38.521,43.462c-0.008-0.211-0.047-0.426-0.117-0.625c-0.143-0.405-0.408-0.761-0.758-1.007
				c-0.342-0.251-0.768-0.388-1.193-0.394h-4.402h-1.881c0,0,0.002-7.76,0.002-8.374c0-1.561-1.264-2.824-2.824-2.824h-8.189
				c-1.558,0-2.822,1.264-2.822,2.824c0,0.614,0.002,8.374,0.002,8.374h-1.881h-4.402c-0.425,0.006-0.849,0.143-1.196,0.394
				c-0.346,0.246-0.617,0.602-0.756,1.007c-0.068,0.199-0.109,0.414-0.116,0.625c-0.001,0.057-0.001,0.105-0.001,0.147v6.92h30.539
				v-6.92C38.523,43.567,38.523,43.519,38.521,43.462z"/>
		</g>
	</g>
	<g>
		<path fill="#FFFFFF" d="M7.507,7.009c-1.594,1.427-2.622,3.501-2.644,5.908c0,0.165,0.003,0.336,0.009,0.499l2.352,0.165
			c-0.004-0.127-0.006-0.248-0.006-0.364c0.014-1.769,0.78-3.293,1.964-4.355c1.185-1.063,2.78-1.655,4.454-1.54
			c0.147,0.007,0.262,0.02,0.34,0.031l0.018-2.351c-0.2-0.029-0.356-0.041-0.479-0.053C11.246,4.792,9.095,5.583,7.507,7.009z"/>
		<path fill="#FFFFFF" d="M2.35,12.301c0.025-2.966,1.315-5.536,3.294-7.319c1.99-1.787,4.668-2.777,7.482-2.578
			c0.231,0.015,0.422,0.03,0.583,0.054l0.019-2.355c-0.276-0.037-0.519-0.061-0.72-0.073c-3.411-0.232-6.645,0.953-9.036,3.1
			C1.58,5.274,0.029,8.393,0.001,12.007c-0.003,0.248,0,0.497,0.017,0.747l2.351,0.164C2.357,12.709,2.353,12.503,2.35,12.301z"/>
		<path fill="#FFFFFF" d="M10.855,15.645c0.157,0.148,0.32,0.287,0.495,0.397l-0.207,0.602c0.239,0.201,0.521,0.324,0.856,0.374
			l0.32-0.552c0.102,0.028,0.209,0.043,0.317,0.059c0.103,0.021,0.205,0.028,0.302,0.035l0.127,0.624
			c0.31,0.057,0.611,0.02,0.928-0.103l-0.004-0.642c0.204-0.051,0.401-0.131,0.593-0.228l0.421,0.479
			c0.288-0.102,0.537-0.291,0.745-0.55l-0.32-0.554c0.149-0.156,0.284-0.322,0.401-0.497l0.598,0.206
			c0.2-0.231,0.325-0.522,0.372-0.859l-0.556-0.311c0.029-0.11,0.05-0.217,0.071-0.322c0.012-0.099,0.019-0.204,0.025-0.309
			l0.626-0.125c0.056-0.298,0.021-0.605-0.106-0.917l-0.637-0.005c-0.059-0.202-0.133-0.396-0.23-0.586l0.479-0.42
			c-0.105-0.291-0.287-0.537-0.556-0.75l-0.548,0.322c-0.157-0.151-0.323-0.282-0.496-0.398l0.206-0.605
			c-0.238-0.197-0.523-0.32-0.858-0.37l-0.315,0.554c-0.104-0.021-0.214-0.048-0.317-0.066c-0.104-0.013-0.208-0.02-0.312-0.025
			l-0.121-0.627c-0.303-0.057-0.608-0.018-0.926,0.105l0.002,0.638c-0.201,0.055-0.403,0.13-0.588,0.229l-0.423-0.479
			c-0.29,0.099-0.542,0.291-0.749,0.56l0.319,0.546c-0.149,0.153-0.28,0.32-0.394,0.493l-0.603-0.199
			c-0.199,0.23-0.326,0.521-0.373,0.849l0.554,0.314c-0.025,0.112-0.05,0.213-0.064,0.325c-0.015,0.102-0.024,0.205-0.032,0.308
			l-0.624,0.123c-0.056,0.3-0.02,0.611,0.108,0.924h0.632c0.06,0.201,0.135,0.401,0.232,0.591l-0.48,0.423
			c0.106,0.285,0.294,0.54,0.557,0.742L10.855,15.645z M11.396,14.599c-0.354-0.475-0.477-1.045-0.394-1.588
			c0.073-0.536,0.364-1.051,0.836-1.396c0.475-0.354,1.042-0.483,1.583-0.399c0.539,0.077,1.055,0.367,1.407,0.843
			c0.347,0.472,0.479,1.042,0.398,1.583c-0.084,0.539-0.369,1.049-0.844,1.402c-0.478,0.35-1.043,0.478-1.587,0.394
			C12.258,15.365,11.749,15.074,11.396,14.599z"/>
		<path fill="#FFFFFF" d="M13.946,14.444c0.305-0.228,0.489-0.561,0.544-0.913c0.052-0.355-0.03-0.727-0.259-1.034
			c-0.228-0.307-0.561-0.499-0.915-0.548c-0.356-0.055-0.726,0.029-1.035,0.256c-0.31,0.228-0.498,0.564-0.553,0.917
			c-0.052,0.353,0.032,0.726,0.265,1.037c0.227,0.309,0.557,0.495,0.914,0.548C13.263,14.759,13.632,14.671,13.946,14.444z
			 M12.477,13.235c0.023-0.167,0.112-0.318,0.251-0.425c0.144-0.105,0.316-0.142,0.48-0.12c0.158,0.026,0.314,0.114,0.42,0.254
			c0.103,0.145,0.142,0.314,0.113,0.475c-0.019,0.164-0.104,0.318-0.25,0.421c-0.14,0.103-0.311,0.141-0.47,0.117
			c-0.164-0.021-0.32-0.106-0.424-0.254C12.491,13.565,12.457,13.397,12.477,13.235z"/>
	</g>
</g>
</svg>
