<?xml version="1.0" encoding="utf-8"?>
<!-- Generator: Adobe Illustrator 13.0.1, SVG Export Plug-In . SVG Version: 6.00 Build 14948)  -->
<!DOCTYPE svg PUBLIC "-//W3C//DTD SVG 1.1//EN" "http://www.w3.org/Graphics/SVG/1.1/DTD/svg11.dtd">
<svg version="1.1" id="圖層_1" xmlns="http://www.w3.org/2000/svg" xmlns:xlink="http://www.w3.org/1999/xlink" x="0px" y="0px"
	 width="120px" height="120px" viewBox="0 0 120 120" enable-background="new 0 0 120 120" xml:space="preserve">
<g>
	<circle fill="#DD383D" cx="60" cy="60" r="60"/>
	<g>
		<polygon fill-rule="evenodd" clip-rule="evenodd" fill="#FFFFFF" points="87.882,44.669 87.882,93.873 84.04,93.873 84.04,55.079 
			73.41,55.079 73.41,93.873 69.777,93.873 69.777,63.896 59.147,63.896 59.147,93.873 56.203,93.873 56.203,70.686 45.573,70.686 
			45.573,93.873 42.748,93.873 42.748,78.385 32.117,78.385 32.117,93.873 24.969,93.873 24.969,96.851 98.525,96.851 
			98.525,94.217 98.525,93.873 98.525,44.669 		"/>
		<polygon fill-rule="evenodd" clip-rule="evenodd" fill="#FFDB61" points="43.924,62.311 52.296,48.276 64.063,52.597 
			75.844,38.784 77.599,36.71 86.247,43.628 86.221,33.394 86.208,23.15 76.226,25.382 66.229,27.609 74.007,33.831 62.253,47.603 
			50.486,43.313 42.115,57.335 28.766,53.939 22.887,72.271 21.475,76.125 24.697,77.249 30.573,58.921 		"/>
	</g>
</g>
</svg>
