<?xml version="1.0" encoding="utf-8"?>
<!-- Generator: Adobe Illustrator 13.0.1, SVG Export Plug-In . SVG Version: 6.00 Build 14948)  -->
<!DOCTYPE svg PUBLIC "-//W3C//DTD SVG 1.1//EN" "http://www.w3.org/Graphics/SVG/1.1/DTD/svg11.dtd">
<svg version="1.1" id="圖層_1" xmlns="http://www.w3.org/2000/svg" xmlns:xlink="http://www.w3.org/1999/xlink" x="0px" y="0px"
	 width="50px" height="47.297px" viewBox="0 0 50 47.297" enable-background="new 0 0 50 47.297" xml:space="preserve">
<g>
	<path fill="#FFFFFF" d="M35.832,18.896v-4.333h-1.846c-0.27-1.31-0.785-2.532-1.502-3.615l1.371-1.373l-3.061-3.063l-1.393,1.391
		c-1.09-0.704-2.32-1.209-3.637-1.469V4.795h-4.33v1.688c-1.248,0.277-2.41,0.776-3.446,1.452l-1.463-1.463l-3.063,3.062
		l1.462,1.462c-0.699,1.07-1.207,2.275-1.471,3.565H11.49v4.333h2.001c0.278,1.249,0.779,2.416,1.466,3.453l-1.374,1.373
		l3.063,3.064l1.392-1.393c1.022,0.66,2.169,1.146,3.396,1.42v1.716h4.33v-1.665c1.297-0.258,2.511-0.751,3.589-1.438l1.319,1.318
		l3.063-3.063l-1.285-1.284c0.703-1.05,1.219-2.232,1.5-3.502H35.832z M23.72,24.041c-4.109,0-7.454-3.315-7.454-7.393
		c0-4.074,3.345-7.391,7.454-7.391c4.111,0,7.456,3.317,7.456,7.391C31.176,20.725,27.832,24.041,23.72,24.041z"/>
	<path fill="#FFFFFF" d="M23.662,11.084c-3.111,0-5.643,2.502-5.643,5.578c0,3.076,2.531,5.579,5.643,5.579
		c3.109,0,5.639-2.502,5.639-5.579C29.3,13.587,26.771,11.084,23.662,11.084z M23.662,20.427c-2.111,0-3.828-1.689-3.828-3.765
		c0-2.076,1.717-3.765,3.828-3.765c2.109,0,3.826,1.689,3.826,3.765C27.488,18.737,25.771,20.427,23.662,20.427z"/>
	<path fill="#FFFFFF" d="M23.662,14.709c-1.109,0-2.014,0.877-2.014,1.952c0,1.075,0.904,1.951,2.014,1.951
		c1.108,0,2.012-0.876,2.012-1.951C25.673,15.586,24.77,14.709,23.662,14.709z"/>
	<path fill="#FFFFFF" d="M48.877,21.72c-0.164-0.798-0.479-1.542-0.914-2.202l0.834-0.837l-1.865-1.866l-0.848,0.847
		c-0.666-0.43-1.412-0.737-2.215-0.896v-0.999H41.23v1.03c-0.76,0.169-1.469,0.472-2.098,0.884l-0.893-0.891l-1.865,1.865
		l0.889,0.891c-0.426,0.653-0.732,1.386-0.895,2.172h-1.197v2.639h1.219c0.17,0.761,0.477,1.472,0.895,2.104L36.447,27.3
		l1.867,1.866l0.848-0.85c0.621,0.403,1.32,0.699,2.068,0.867v1.044h2.639v-1.015c0.789-0.156,1.529-0.457,2.186-0.877l0.805,0.807
		l1.865-1.867l-0.783-0.783c0.428-0.639,0.742-1.359,0.914-2.134H50V21.72H48.877z M42.623,27.494c-2.504,0-4.541-2.021-4.541-4.504
		c0-2.481,2.037-4.503,4.541-4.503s4.539,2.021,4.539,4.503C47.162,25.473,45.127,27.494,42.623,27.494z"/>
	<path fill="#FFFFFF" d="M42.586,19.6c-1.895,0-3.438,1.524-3.438,3.399c0,1.874,1.543,3.397,3.438,3.397s3.436-1.523,3.436-3.397
		C46.021,21.125,44.48,19.6,42.586,19.6z M42.586,25.292c-1.285,0-2.332-1.027-2.332-2.292c0-1.266,1.047-2.293,2.332-2.293
		c1.287,0,2.332,1.027,2.332,2.293C44.918,24.264,43.873,25.292,42.586,25.292z"/>
	<path fill="#FFFFFF" d="M44.857,29.979v1.239h-0.889v0.405H2.637V2.637h41.332v12.145h0.889v1.22
		c0.365,0.116,0.719,0.258,1.061,0.431l0.688-0.689V0H0v38.617h16.659v4.02h-4.337v4.66h21.638v-4.66h-3.652v-4.02h16.298v-8.33
		l-0.721-0.722C45.553,29.728,45.211,29.867,44.857,29.979z"/>
	<ellipse fill="#FFFFFF" cx="42.586" cy="22.998" rx="1.227" ry="1.188"/>
</g>
</svg>
