<svg id="b055a4bc-f026-41ba-a500-6c1e7072a697" data-name="圖層 1" xmlns="http://www.w3.org/2000/svg" xmlns:xlink="http://www.w3.org/1999/xlink" viewBox="0 0 1200 427.51"><g id="f61121c2-b31e-4761-a1bc-ce26eec3b4aa" data-name="g4"><path d="M704,319.73c.43-17.53,14.69-31.8,31.85-31.88H971a31.88,31.88,0,1,1,0,63.76H735.84c-17.16.07-31.42-14.2-31.85-31.88" style="fill:#f1322a;fill-rule:evenodd"/><text transform="translate(731.05 328.23)" style="font-size:30.004121780395508px;fill:#fff;font-family:MicrosoftYaHeiUI-Bold, Microsoft YaHei UI;font-weight:700"><tspan xml:space="preserve">    </tspan></text><text transform="translate(766.77 328.23)" style="font-size:30.004121780395508px;fill:#fff;font-family:MicrosoftJhengHeiBold, Microsoft JhengHei">通路的銷售資訊</text><path d="M710.54,319.73a26.6,26.6,0,1,1,26.64,26.75,26.64,26.64,0,0,1-26.64-26.75" style="fill:#fff;fill-rule:evenodd"/><path d="M712.42,319.73a24.55,24.55,0,0,1,24.73-24.86,25.06,25.06,0,0,1,0,50.11,24.65,24.65,0,0,1-24.73-25.25" style="fill:#fff;fill-rule:evenodd"/><path d="M712.12,319.92a25,25,0,1,1,25,25.06,25,25,0,0,1-25-25.06" style="fill:none;stroke:red;stroke-linejoin:round;stroke-width:3.00262475013733px"/><polygon points="730.22 333.8 744.27 333.8 744.27 334.73 730.22 334.73 730.22 333.8 730.22 333.8" style="fill:red;fill-rule:evenodd"/><path d="M754.26,330.11V312.8a1.64,1.64,0,0,0-1.53-1.53h-4.58c0-1.78-1.79-3.31-4.33-4.33v-.25a1.65,1.65,0,0,0-1.53-1.53h-9.94a1.7,1.7,0,0,0-1.78,1.53v.25c-2.55,1-4.08,2.55-4.08,4.33H721.9a1.47,1.47,0,0,0-1.53,1.53v17.31h-1.52v2h12.48v.77h11.72v-.77h12.49v-2Zm-18.6-20.62a.87.87,0,0,1,.26-.51l.51-.51h.76a1,1,0,0,1,.77.25.55.55,0,0,1,.5.51.94.94,0,0,1,.26.77v.76c-.26.25-.26.51-.51.51,0,.25-.25.25-.51.25,0,.26-.25.26-.51.26a.92.92,0,0,1-.76-.26c-.26,0-.26,0-.51-.25a.91.91,0,0,1-.26-.51v-1.27Zm0,9.93h-1.78a1.17,1.17,0,0,1-1.28-1c0-.77.51-1,1.28-1h1.78c.77,0,1.28.25,1.28,1a1.17,1.17,0,0,1-1.28,1Zm1.28,2.54c0,.76-.51,1-1.28,1h-1.78c-.77,0-1.28-.26-1.28-1a1.17,1.17,0,0,1,1.28-1h1.78a1.17,1.17,0,0,1,1.28,1Zm-1.28-6.36h-1.78a1,1,0,1,1,0-2h1.78a1,1,0,1,1,0,2Zm-5.09,13.23h-7.9v-2a.92.92,0,0,1,.51.25h7.39v1.78Zm0-3.81h-7.9v-2a.79.79,0,0,0,.51.25h7.39V325Zm0-3.82h-7.9v-2a.77.77,0,0,0,.51.26h7.39v1.78Zm0-3.82h-7.39a.79.79,0,0,0-.51.25v-2.29a.77.77,0,0,0,.51.26h7.39v1.78Zm1.52-6.11a.24.24,0,0,1-.25.25.92.92,0,0,1-.76.26.94.94,0,0,1-.77-.26c-.25,0-.25-.25-.51-.25v-.77h.51v.26l.26.25a.25.25,0,0,0,.25.26h.77v-.77h-.26c0-.25-.25-.25-.51-.25a.81.81,0,0,1-.51-.25.25.25,0,0,1-.25-.26c-.26,0-.26-.25-.26-.51a.79.79,0,0,1,.26-.51l.25-.25h1.28c.25,0,.25,0,.25.25.25,0,.25,0,.25.26v.51h-.25a.25.25,0,0,1-.25-.26.25.25,0,0,0-.26-.25h-.76v.51c.25,0,.25,0,.25.25h.77c.25.26.25.26.5.26a.25.25,0,0,0,.26.25v.51c0,.25,0,.25-.26.51Zm.51-2.55v-.25h2.55a.25.25,0,0,1,.26.25.25.25,0,0,1-.26.26h-.76v2.29c0,.25,0,.25-.26.51h-.51V309h-1v-.26Zm9.18,22.92H732.6v-6.88h9.18v6.88Zm-1-8.66h-2a.94.94,0,0,1-1-1,1.1,1.1,0,0,1,1-1h2a1.1,1.1,0,0,1,1,1,.94.94,0,0,1-1,1Zm0-3.56h-2a1.1,1.1,0,0,1-1-1,.93.93,0,0,1,1-1h2a.93.93,0,0,1,1,1,1.1,1.1,0,0,1-1,1Zm0-3.82h-2a1,1,0,1,1,0-2h2a1,1,0,1,1,0,2Zm1.27-4.08a.25.25,0,0,1-.25.26h-.26l-.25-.26v-.25L741,311a.79.79,0,0,1-.25-.51c-.26,0-.26,0-.26-.25H740v1c0,.25,0,.25-.25.51h-.26c-.25-.26-.25-.26-.25-.51V309c0-.26,0-.26.25-.51h2c0,.25,0,.25.26.25V309l.25.25c0,.26-.25.51-.25.77-.26,0-.51.25-.77.25.26,0,.26.25.51.25,0,.26,0,.26.26.51a.25.25,0,0,0,.25.26v.25Zm1,.26c-.25,0-.25,0-.51-.26v-2.8a.25.25,0,0,1,.26-.25h2a.25.25,0,0,1,.26.25.25.25,0,0,1-.26.26h-1.52v.76h1.52v.51h-1.52v1h1.78v.25l-.26.26Zm8.66,17.05h-7.89v-1.78h7.38a.88.88,0,0,0,.51-.25v2Zm0-3.81h-7.89v-1.79h7.38c.26,0,.51,0,.51-.25v2Zm0-3.82h-7.89v-1.78h7.38c.26,0,.51,0,.51-.26v2Zm0-3.57c0-.25-.25-.25-.51-.25h-7.38V315.6h7.38c.26,0,.51,0,.51-.26v2.29Z" style="fill:red;fill-rule:evenodd"/><path d="M741.29,309.43v-.25a.25.25,0,0,0-.26-.25h-1v.74h1.28v-.24" style="fill:red;fill-rule:evenodd"/><path d="M736.47,310.94c.25,0,.25,0,.25.25h.49a.74.74,0,0,0,.49-.25.24.24,0,0,0,.25-.25v-1.26c0-.25-.25-.25-.25-.5h-1l-.25.25a.24.24,0,0,1-.25.25v1c.25.25.25.25.25.5" style="fill:red;fill-rule:evenodd"/><path d="M600,319.73a44.25,44.25,0,1,1,44.25,44.33A44.26,44.26,0,0,1,600,319.73" style="fill:red;fill-rule:evenodd"/><text transform="translate(612.94 337.37)" style="font-size:60.008262634277344px;fill:#fff;font-family:MicrosoftJhengHeiBold, Microsoft JhengHei">場</text><path d="M702.51,276.13c-1.91-.64-4.45-.64-5.73,1.28l-19.1,29.95-9.55-12.11h-8.91l15.92,21c.63,1.28,1.27,1.28,2.54,1.28a4.86,4.86,0,0,0,3.19-1.28l22.28-34.41a4.75,4.75,0,0,0-.64-5.74" style="fill:#555451;fill-rule:evenodd"/><text transform="translate(727.64 394.62)" style="font-size:22.503103256225586px;font-family:MicrosoftJhengHeiRegular, Microsoft JhengHei">每天門店、電商平台各通路的銷售資訊</text></g><g id="a42db289-3cd4-4175-93ac-c6c990c90cbd" data-name="g3"><path d="M704,181.9A33,33,0,0,1,735.84,150H971.91a32.41,32.41,0,0,1,31.42,32.29c0,17.6-14.26,31.87-31.42,31.47H735.84c-17.16.4-31.42-13.87-31.85-31.88" style="fill:#f1322a;fill-rule:evenodd"/><text transform="translate(726.6 190.73)" style="font-size:30.004121780395508px;fill:#fff;font-family:MicrosoftYaHeiUI-Bold, Microsoft YaHei UI;font-weight:700"><tspan xml:space="preserve">     </tspan></text><text transform="translate(771.26 190.73)" style="font-size:30.004121780395508px;fill:#fff;font-family:MicrosoftJhengHeiBold, Microsoft JhengHei">商品的銷售情形</text><path d="M710.54,181a26.59,26.59,0,1,1,26.62,26.81A26.62,26.62,0,0,1,710.54,181" style="fill:#fff;fill-rule:evenodd"/><path d="M710.61,181.2a26.56,26.56,0,1,1,26.55,26.57,26.57,26.57,0,0,1-26.55-26.57" style="fill:none;stroke:red;stroke-linejoin:round;stroke-width:3.00262475013733px"/><path d="M731.15,197.84a3.26,3.26,0,1,1,3.27,3.51,3.37,3.37,0,0,1-3.27-3.51" style="fill:red;fill-rule:evenodd"/><path d="M741.46,197.84a3.25,3.25,0,1,1,3.24,3.51,3.33,3.33,0,0,1-3.24-3.51" style="fill:red;fill-rule:evenodd"/><path d="M752.93,177.93v-1.06a.15.15,0,0,1-.15-.15.15.15,0,0,0-.15-.15v-.15a1865933107008.78,1865933107008.78,0,0,1-.3-.3.15.15,0,0,0-.15-.15c0-.15-.16-.15-.16-.15a.15.15,0,0,1-.15-.16h-.15c-.15,0-.15,0-.15-.15H733.13a2.07,2.07,0,0,0-2.12,2.12,2.16,2.16,0,0,0,2.12,2.11H748.4l-.46,2.27H734.49a2.07,2.07,0,0,0-2.12,2.11,2,2,0,0,0,2.12,2h12.7l-.46,2.11H732.07l-3.63-16a2,2,0,0,0-2-1.51h-7a2.14,2.14,0,0,0-2.12,2,2.17,2.17,0,0,0,2.12,2.12h5.14l3.63,16a2.26,2.26,0,0,0,2.12,1.66h18.14a2.09,2.09,0,0,0,2-1.66l2.42-12.84" style="fill:red;fill-rule:evenodd"/><path d="M745.39,173.54c0-.15-.15-.3-.3-.45L735,168.59a.67.67,0,0,0-.9.45l-2,4.5Z" style="fill:red;fill-rule:evenodd"/><path d="M749.78,168.64l-9.73-2.11a.58.58,0,0,0-.76.45l-.46,1.66,10.64,4.68.76-3.92a.53.53,0,0,0-.45-.76" style="fill:red;fill-rule:evenodd"/><path d="M600,181.9a44.25,44.25,0,1,1,44.25,44.66A44.18,44.18,0,0,1,600,181.9" style="fill:red;fill-rule:evenodd"/><text transform="translate(612.94 199.88)" style="font-size:60.008262634277344px;fill:#fff;font-family:MicrosoftJhengHeiBold, Microsoft JhengHei">貨</text><path d="M702.51,132.13c-1.91-.63-4.45-.63-5.73,1.28l-19.1,30-9.55-12.11h-8.91l15.92,21c.63,1.28,1.27,1.28,2.54,1.28a4.86,4.86,0,0,0,3.19-1.28l22.28-34.41a4.75,4.75,0,0,0-.64-5.74" style="fill:#555451;fill-rule:evenodd"/><text transform="translate(727.85 253.19)" style="font-size:22.503103256225586px;font-family:MicrosoftJhengHeiRegular, Microsoft JhengHei">每天的暢銷商品、庫存過多的商品......等</text></g><g id="a5753bae-1923-438c-8fa1-e51ac6d40dd6" data-name="g2"><path d="M704,44.07c.43-17.36,14.69-31.63,31.85-31.88H971.91a32.16,32.16,0,0,1,31.42,32.12c0,17.61-14.26,31.88-31.42,31.64H735.84c-17.16.24-31.42-14-31.85-31.88" style="fill:#f1322a;fill-rule:evenodd"/><text transform="translate(726.6 52.73)" style="font-size:30.004121780395508px;fill:#fff;font-family:MicrosoftYaHeiUI-Bold, Microsoft YaHei UI;font-weight:700"><tspan xml:space="preserve">     </tspan></text><text transform="translate(771.26 52.73)" style="font-size:30.004121780395508px;fill:#fff;font-family:MicrosoftJhengHeiBold, Microsoft JhengHei">會員的消費狀況</text><path d="M710.54,45a26.58,26.58,0,1,1,26.61,26.68A26.63,26.63,0,0,1,710.54,45" style="fill:#fff;fill-rule:evenodd"/><path d="M710.61,45.12a26.54,26.54,0,1,1,26.54,26.57,26.55,26.55,0,0,1-26.54-26.57" style="fill:none;stroke:red;stroke-width:3.00262475013733px"/><path d="M745.22,46.53l-3.82-1.16a1.52,1.52,0,0,0-.59-.73,11,11,0,0,0,.79-1,10.83,10.83,0,0,0,1.15-2.17,8.49,8.49,0,0,0,.35-.91,1.68,1.68,0,0,0,.59-1.27v-1.2a1.64,1.64,0,0,0-.31-1V35.44A5.38,5.38,0,0,0,738,30.07h-1.74a5.37,5.37,0,0,0-5.36,5.37v1.69a1.64,1.64,0,0,0-.31,1v1.2a1.68,1.68,0,0,0,.59,1.27,8.49,8.49,0,0,0,.35.91,10.83,10.83,0,0,0,1.15,2.17,9.47,9.47,0,0,0,.79,1,1.52,1.52,0,0,0-.59.73l-3.82,1.16c-2.69.77-4.31,12.42-4.31,12.42s0,.1,0,.16a1,1,0,0,0,1,1h22.74a1,1,0,0,0,1-1c0-.49-1.63-11.81-4.32-12.58Zm-9,.91a.34.34,0,0,1,.09.27l-.19,1.83a.33.33,0,0,1-.25.3h-.09a.37.37,0,0,1-.28-.13l-1-1.29a.31.31,0,0,1-.07-.21v-2a.35.35,0,0,1,.17-.3.37.37,0,0,1,.34,0,2.78,2.78,0,0,0,.83.3.34.34,0,0,1,.28.34v.86a.41.41,0,0,1,.13.08Zm1.77.27a.34.34,0,0,1,.09-.27.5.5,0,0,1,.12-.08V46.5a.35.35,0,0,1,.29-.34,2.88,2.88,0,0,0,.83-.3.34.34,0,0,1,.34,0,.32.32,0,0,1,.17.29v2a.38.38,0,0,1-.07.21l-1,1.28a.32.32,0,0,1-.27.14h-.09a.34.34,0,0,1-.25-.3L738,47.71Zm-5-8,0-.14-.34-.22a.35.35,0,0,1-.15-.29v-.56a.35.35,0,0,1,.34-.35h.14v-.61a.36.36,0,0,1,.19-.31,5.75,5.75,0,0,1,2.39-.63,2.58,2.58,0,0,1,1.91.76,2.84,2.84,0,0,0,2.1,1,3.24,3.24,0,0,0,1.36-.31.33.33,0,0,1,.33,0,.29.29,0,0,1,.11.11h.19a.35.35,0,0,1,.34.35v.56a.34.34,0,0,1-.16.29l-.33.22,0,.14a7,7,0,0,1-1.23,2.85c-.84,1.22-1.63,1.77-2,1.77h-1.86c-.4,0-1.19-.55-2-1.77A7,7,0,0,1,733,39.72" style="fill:red;fill-rule:evenodd"/><path d="M600,44.07a44.25,44.25,0,1,1,44.25,44.49A44.22,44.22,0,0,1,600,44.07" style="fill:red;fill-rule:evenodd"/><text transform="translate(612.94 61.89)" style="font-size:60.008262634277344px;fill:#fff;font-family:MicrosoftJhengHeiBold, Microsoft JhengHei">人</text><path d="M702.51.64C700.6,0,698.06,0,696.78,1.91l-19.1,30-9.55-12.1h-8.91l15.92,21c.63,1.27,1.27,1.27,2.54,1.27a4.91,4.91,0,0,0,3.19-1.27L703.15,6.37a4.73,4.73,0,0,0-.64-5.73" style="fill:#555451;fill-rule:evenodd"/><text transform="translate(727.85 102.82)" style="font-size:22.503103256225586px;font-family:MicrosoftJhengHeiRegular, Microsoft JhengHei">每天新增多少會員、會員的消費狀況、會員結構</text></g><image id="bff362f8-b059-4b99-90da-30d90e2af2df" data-name="g1" width="645" height="446" transform="scale(0.89)" xlink:href="images/case1/svg/section8-l/section8-l1.png"/></svg>