<?xml version="1.0" encoding="utf-8"?>
<!-- Generator: Adobe Illustrator 13.0.1, SVG Export Plug-In . SVG Version: 6.00 Build 14948)  -->
<!DOCTYPE svg PUBLIC "-//W3C//DTD SVG 1.1//EN" "http://www.w3.org/Graphics/SVG/1.1/DTD/svg11.dtd">
<svg version="1.1" id="圖層_1" xmlns="http://www.w3.org/2000/svg" xmlns:xlink="http://www.w3.org/1999/xlink" x="0px" y="0px"
	 width="575px" height="201.238px" viewBox="0 0 575 201.238" enable-background="new 0 0 575 201.238" xml:space="preserve">
<g>
	<rect x="91.55" y="28.674" fill="#FFFFFF" width="1.159" height="143.891"/>
	<rect x="76.873" y="99.822" fill="#FFFFFF" width="29.587" height="1.592"/>
	<rect x="63.123" y="28.674" fill="#FFFFFF" width="29.587" height="1.593"/>
	<rect x="63.125" y="170.973" fill="#FFFFFF" width="29.585" height="1.592"/>
	<g>
		<rect x="481.44" y="28.674" fill="#FFFFFF" width="1.157" height="143.891"/>
		<rect x="467.688" y="99.822" fill="#FFFFFF" width="29.588" height="1.592"/>
		<rect x="481.438" y="28.674" fill="#FFFFFF" width="29.588" height="1.593"/>
		<rect x="481.438" y="170.973" fill="#FFFFFF" width="29.586" height="1.592"/>
	</g>
	<g>
		<rect x="173.139" y="99.825" fill="#FFFFFF" width="244.113" height="1.589"/>
		<path fill="#DB4573" d="M218.359,142.642c0,6.06,4.913,10.973,10.971,10.973h116.967c6.058,0,10.971-4.913,10.971-10.973V54.863
			c0-6.058-4.913-10.971-10.971-10.971H229.33c-6.058,0-10.971,4.914-10.971,10.971V142.642z"/>
		<g>
			<path fill="#FFFFFF" d="M264.392,84.309c-3.041,1.67-6.768,3.121-11.18,4.354l-1.521-2.661c4.216-1.129,7.765-2.437,10.645-3.923
				L264.392,84.309z M282.328,76.342h-26.473v-8.484c-1.129,1.141-1.762,1.763-1.9,1.866l-2.057-2.333
				c2.454-2.108,4.718-5.351,6.791-9.729l2.903,0.916c-0.461,1.083-0.835,1.873-1.123,2.368h7.137
				c-0.312-0.841-0.674-1.63-1.089-2.368l3.076-0.708c0.633,1.152,1.14,2.178,1.521,3.076h10.437v2.592H270.63v1.797h9.971v2.351
				h-9.971v1.797h10.005v2.402H270.63v1.849h11.698V76.342z M282.898,81.267h-13.875v7.794h-3.215v-7.794h-13.668v-2.765h13.668
				v-1.417h3.215v1.417h13.875V81.267z M267.468,65.334v-1.797h-8.484v1.797H267.468z M267.468,69.481v-1.797h-8.484v1.797H267.468z
				 M267.468,73.732v-1.849h-8.484v1.849H267.468z M283.106,86.157l-1.798,2.54c-3.56-1.82-7.096-3.237-10.609-4.251l1.97-2.471
				C276.447,83.139,279.927,84.533,283.106,86.157z"/>
			<path fill="#FFFFFF" d="M316.975,88.905h-2.938v-1.297h-22.359v1.486h-3.007V58.646h28.305V88.905z M314.036,84.982V61.135
				h-22.359v23.848H314.036z M312.879,64.954h-8.709v1.054h7.568v7.794h-1.296c0.829,0.807,1.532,1.763,2.108,2.868l-2.194,0.847
				c-0.196-0.472-0.404-0.812-0.622-1.02c-5.783,0.519-11.272,0.894-16.468,1.124l-0.57-2.057c2.892-0.058,5.817-0.149,8.778-0.276
				v-1.486h-7.604v-7.794h7.604v-1.054h-8.778v-1.953h8.778v-1.227h2.695v1.227h8.709V64.954z M313.155,80.559h-3.75v1.313
				c0,0.875-0.297,1.469-0.89,1.779c-0.594,0.312-1.748,0.467-3.465,0.467c-0.61,0-1.163-0.018-1.658-0.052l-0.778-2.264
				c1.729,0.023,2.814,0.023,3.258,0s0.665-0.213,0.665-0.57v-0.674h-13.72v-2.022h13.72v-0.95h2.868v0.95h3.75V80.559z
				 M301.63,82.286l-1.572,1.918c-1.015-0.518-2.287-1.014-3.819-1.485l1.59-1.919C298.876,81.088,300.144,81.584,301.63,82.286z
				 M301.475,68.98v-1.192h-4.805v1.192H301.475z M301.475,71.953v-1.228h-4.805v1.228H301.475z M308.991,68.98v-1.192h-4.821v1.192
				H308.991z M308.991,71.953v-1.228h-4.821v1.228H308.991z M309.164,73.802h-4.994v1.278l4.078-0.293
				c-0.185-0.23-0.34-0.392-0.467-0.484L309.164,73.802z"/>
			<path fill="#FFFFFF" d="M283.037,115.021l-1.624,2.869c-6.232-2.558-10.904-5.991-14.015-10.3
				c-1.417,1.717-3.119,3.335-5.105,4.856c-1.987,1.521-5.015,3.237-9.081,5.149l-1.624-2.973
				c6.992-2.938,11.935-6.606,14.826-11.008l3.542,0.709l-0.64,0.881C272.52,109.526,277.093,112.799,283.037,115.021z
				 M282.588,134.134H251.83v-3.128h5.339v-12.528h3.266v12.528h5.91v-18.179l3.11,0.034v7.361h10.265v3.076h-10.265v7.707h13.133
				V134.134z"/>
			<path fill="#FFFFFF" d="M318.253,126.202h-13.876v8.484h-3.145v-8.484h-13.841v-2.661h13.841v-1.797h-12.165v-2.661h12.165
				v-1.729h-13.063v-2.661h8.069c-0.38-0.564-0.789-1.071-1.227-1.521l2.367-1.313h-10.057v-2.644h10.834v-5.271h3.076v5.271h3.18
				v-5.271h3.093v5.271h10.679v2.644h-9.763l2.091,1.105c-0.461,0.772-0.853,1.349-1.175,1.729h8.139v2.661h-13.099v1.729h12.252
				v2.661h-12.252v1.797h13.876V126.202z M298.657,129.175c-3.248,2.338-6.307,4.118-9.175,5.339l-2.057-2.471
				c2.788-1.071,5.714-2.713,8.778-4.925L298.657,129.175z M295.599,107.263l-2.367,1.711c-1.025-1.221-2.073-2.264-3.145-3.128
				l2.367-1.832C293.71,105.074,294.758,106.157,295.599,107.263z M307.35,111.859h-9.297c0.68,0.829,1.336,1.774,1.97,2.834h5.357
				C306.14,113.795,306.796,112.851,307.35,111.859z M318.893,131.87l-1.729,2.54c-3.398-1.97-6.773-3.571-10.126-4.804l1.832-2.558
				C312.072,128.271,315.413,129.877,318.893,131.87z M315.488,105.431c-0.657,0.957-1.671,2.051-3.041,3.283l-2.8-1.658
				c1.083-0.876,2.114-1.912,3.093-3.11L315.488,105.431z"/>
		</g>
	</g>
	<g>
		<path fill="#08A39F" d="M105.702,135.365c0,4.798,3.89,8.687,8.687,8.687h77.137c4.797,0,8.685-3.889,8.685-8.687V65.871
			c0-4.796-3.888-8.685-8.685-8.685h-77.137c-4.797,0-8.687,3.889-8.687,8.685V135.365z"/>
		<g>
			<g>
				<path fill="#FFFFFF" d="M134.215,68.219c-0.31,1.058-0.752,2.312-1.327,3.762l-0.862,2.065v18.291h-2.517V78.779
					c-0.411,0.584-0.926,1.245-1.546,1.983l-1.396-2.735c2.034-2.381,3.744-5.819,5.13-10.315L134.215,68.219z M140.877,86.071
					c-1.806,2.718-3.707,4.875-5.705,6.471l-1.942-1.765c1.824-1.387,3.639-3.347,5.444-5.883L140.877,86.071z M151.192,84.211
					h-17.88V81.83h3.762v-6.334h-3.146v-2.407h3.146v-5.117h2.545v5.117h5.13v-5.117h2.572v5.117h3.229v2.407h-3.229v6.334h3.872
					V84.211z M144.749,81.83v-6.334h-5.13v6.334H144.749z M151.384,91.051l-2.093,1.546c-1.551-2.161-3.393-4.2-5.527-6.115
					l1.942-1.505C148.15,87.028,150.043,89.054,151.384,91.051z"/>
				<path fill="#FFFFFF" d="M179.265,71.611h-20.288v5.854c1.459-1.34,2.722-3.174,3.789-5.499l2.298,0.506
					c-0.556,1.195-1.181,2.372-1.874,3.529v8.77h-2.326v-5.773l-1.04,1.013l-0.848-2.298v5.909c0,3.329-0.716,6.312-2.148,8.947
					l-2.025-1.601c1.158-2.207,1.738-5.048,1.738-8.522V69.559h9.836c-0.155-0.337-0.424-0.784-0.807-1.34l2.736-0.479
					c0.41,0.63,0.738,1.236,0.985,1.819h9.973V71.611z M163.436,86.481c-0.666,1.961-1.619,3.753-2.859,5.377l-2.011-1.313
					c1.231-1.605,2.098-3.211,2.599-4.815L163.436,86.481z M179.046,84.744h-13.79v-5.678c-0.192,0.183-0.452,0.406-0.78,0.671
					l-1.04-2.244c1.587-1.596,2.854-3.447,3.803-5.554l2.244,0.588c-0.21,0.502-0.433,0.972-0.67,1.409h2.887
					c-0.237-0.501-0.506-0.971-0.808-1.409l2.49-0.383c0.31,0.511,0.611,1.108,0.903,1.792h4.5v1.929h-4.979v1.122h4.651v1.737
					h-4.651v1.149h4.651v1.765h-4.651v1.204h5.24V84.744z M175.092,88.89c-0.164,2.17-1.09,3.256-2.777,3.256l-5.664,0.027
					c-1.504,0-2.257-0.703-2.257-2.107v-4.281h2.435v3.584c0,0.237,0.107,0.403,0.321,0.499s0.914,0.144,2.1,0.144
					c1.824,0,2.823-0.068,2.996-0.205c0.174-0.137,0.304-0.381,0.391-0.731c0.086-0.352,0.13-0.7,0.13-1.047L175.092,88.89z
					 M171.508,76.987v-1.122h-3.817l-0.137,0.191v0.931H171.508z M171.508,79.874v-1.149h-3.954v1.149H171.508z M171.508,82.843
					v-1.204h-3.954v1.204H171.508z M172.205,88.027l-2.134,0.985c-0.529-0.939-1.227-1.92-2.093-2.941l2.148-1.013
					C170.901,85.962,171.594,86.951,172.205,88.027z M179.429,90.134l-2.093,1.136c-0.83-1.55-1.916-3.078-3.257-4.583l2.08-1.094
					C177.153,86.642,178.243,88.155,179.429,90.134z"/>
				<path fill="#FFFFFF" d="M137.498,116.041h-1.409v10.671c0,1.122-0.337,1.831-1.012,2.128c-0.675,0.296-1.683,0.453-3.023,0.472
					l-0.752-2.326c0.419,0.019,0.761,0.027,1.026,0.027c0.702,0,1.122-0.043,1.259-0.13c0.137-0.086,0.205-0.248,0.205-0.485v-2.284
					c-0.83,0.501-1.715,0.984-2.654,1.45l-0.766-1.231c-0.31,1.97-0.926,3.584-1.847,4.843l-1.929-1.341
					c1.122-1.715,1.683-3.712,1.683-5.992v-5.801h-1.327v-4.117h1.012v-6.896h8.687v6.896h0.848V116.041z M135.254,115.617v-1.546
					h-6.033v1.546H135.254z M134.434,108.395v-1.177h-4.282v4.706h1.094v-3.529H134.434z M133.791,121.637v-3.857h-3.188v1.176
					c1.149,0.274,2.043,0.516,2.682,0.726l-0.643,2.011c-0.821-0.292-1.5-0.497-2.039-0.615c0,0.948-0.027,1.732-0.082,2.353
					C131.725,122.827,132.814,122.229,133.791,121.637z M134.434,111.924v-1.655h-1.341v1.655H134.434z M151.219,128.819h-13.954
					v-2.025h3.611c-0.337-0.93-0.588-1.582-0.752-1.956h-1.258v-5.321h11.313v5.321h-1.368c-0.045,0.183-0.287,0.835-0.725,1.956
					h3.133V128.819z M151.028,118.367h-13.092v-2.024h13.092V118.367z M150.686,115.057h-12.217v-8.29h3.42v-1.998h2.052v1.998
					h1.259v-1.998h2.148v1.998h3.338V115.057z M141.89,110.036v-1.423h-1.341v1.423H141.89z M141.89,113.21v-1.491h-1.341v1.491
					H141.89z M147.799,122.991v-1.71h-6.553v1.71H147.799z M146.199,124.838h-3.584c0.301,0.675,0.557,1.327,0.766,1.956h2.093
					C145.802,126.037,146.043,125.385,146.199,124.838z M145.2,110.036v-1.423h-1.259v1.423H145.2z M145.2,113.21v-1.491h-1.259
					v1.491H145.2z M148.524,110.036v-1.423h-1.176v1.423H148.524z M148.524,113.21v-1.491h-1.176v1.491H148.524z"/>
				<path fill="#FFFFFF" d="M163.97,123.661c-2.344,1.843-4.911,3.297-7.702,4.364l-1.491-2.011
					c2.709-0.985,5.148-2.303,7.319-3.954L163.97,123.661z M178.923,120.939l-2.094,1.491c-0.647-0.922-1.163-1.605-1.546-2.053
					c-2.626,0.328-4.925,0.562-6.895,0.698v5.718c0.036,0.758-0.189,1.356-0.677,1.799c-0.488,0.442-1.968,0.664-4.439,0.664
					l-0.985-2.49c1.012,0.073,1.965,0.109,2.859,0.109c0.501,0,0.752-0.241,0.752-0.725v-4.843c-3.83,0.191-6.676,0.301-8.536,0.328
					l-0.588-2.147c2.362-0.657,5.116-1.815,8.263-3.476c-3.274,0.165-5.6,0.247-6.977,0.247l-0.396-1.82
					c3.849-1.203,7.278-3.146,10.288-5.827l2.298,1.313c-1.842,1.642-4.113,3.032-6.813,4.172l2.216-0.109l3.379-0.26
					c0.155-0.019,0.78-0.415,1.874-1.19l1.943-1.437l2.188,1.519c-4.387,3.119-8.514,5.35-12.381,6.69
					c3.265-0.138,6.876-0.452,10.835-0.944c-0.475-0.502-1.026-1.035-1.655-1.601l2.216-1.259
					C176.132,117.45,177.755,119.261,178.923,120.939z M170.331,105.945c-2.809,2.28-6.749,4.104-11.82,5.473l-1.437-2.135
					c4.505-0.967,8.222-2.526,11.149-4.679L170.331,105.945z M179.524,126.315l-1.683,1.888c-1.888-1.596-4.346-3.137-7.374-4.624
					l1.737-1.737C175.196,123.329,177.637,124.819,179.524,126.315z"/>
			</g>
		</g>
	</g>
	<g>
		<path fill="#23A6E8" d="M374.816,135.365c0,4.798,3.89,8.687,8.686,8.687h77.139c4.796,0,8.684-3.889,8.684-8.687V65.871
			c0-4.796-3.888-8.685-8.684-8.685h-77.139c-4.796,0-8.686,3.889-8.686,8.685V135.365z"/>
	</g>
	<g>
		<g>
			<path fill="#23A6E8" d="M575,53.046c0,3.256-2.639,5.895-5.895,5.895H500.22c-3.255,0-5.895-2.638-5.895-5.895V5.893
				c0-3.253,2.64-5.893,5.895-5.893h68.886C572.361,0,575,2.639,575,5.893V53.046z"/>
			<g>
				<g>
					<path fill="#FFFFFF" d="M547.576,30.133V21.78H546.3v-1.568h-5.976v1.568h-9.156v-4.245h7.082v-6.253h-13.331v6.253h3.594
						v4.245h-0.411h-2.664v8.353c-1.87,8.354-7.181,12.595-7.181,12.595v7.377h36.499v-7.377
						C554.756,42.729,549.444,38.487,547.576,30.133z M542.429,25.284v8.076H529.84v-8.076H542.429z M537.558,39.205h1.89v1.538
						h-1.89V39.205z M537.536,36.549v-1.536h1.89v1.536H537.536z M537.558,38.667v-1.533h1.89v1.533H537.558z M535.072,39.205h1.89
						v1.538h-1.89V39.205z M535.049,36.549v-1.536h1.89v1.536H535.049z M535.072,38.667v-1.533h1.89v1.533H535.072z M532.632,39.205
						h1.889v1.538h-1.889V39.205z M532.61,36.549v-1.536h1.889v1.536H532.61z M532.632,38.667v-1.533h1.889v1.533H532.632z
						 M526.41,15.903v-2.989h2.103h2.655h5.838v2.989h-5.838h-2.655H526.41z M553.124,45.865h-7.598v1.548h7.598v1.217h-32.805
						v-4.424h32.805V45.865z"/>
				</g>
			</g>
		</g>
		<g>
			<path fill="#23A6E8" d="M575,124.195c0,3.256-2.639,5.894-5.895,5.894H500.22c-3.255,0-5.895-2.638-5.895-5.894V77.041
				c0-3.252,2.64-5.892,5.895-5.892h68.886c3.256,0,5.895,2.64,5.895,5.892V124.195z"/>
			<g>
				<g>
					<path fill="#FFFFFF" d="M547.576,101.282v-8.352H546.3v-1.57h-5.976v1.57h-9.156v-4.246h7.082V82.43h-13.331v6.255h3.594v4.246
						h-0.411h-2.664v8.352c-1.87,8.352-7.181,12.595-7.181,12.595v7.379h36.499v-7.379
						C554.756,113.877,549.444,109.634,547.576,101.282z M542.429,96.432v8.076H529.84v-8.076H542.429z M537.558,110.354h1.89v1.537
						h-1.89V110.354z M537.536,107.698v-1.537h1.89v1.537H537.536z M537.558,109.815v-1.534h1.89v1.534H537.558z M535.072,110.354
						h1.89v1.537h-1.89V110.354z M535.049,107.698v-1.537h1.89v1.537H535.049z M535.072,109.815v-1.534h1.89v1.534H535.072z
						 M532.632,110.354h1.889v1.537h-1.889V110.354z M532.61,107.698v-1.537h1.889v1.537H532.61z M532.632,109.815v-1.534h1.889
						v1.534H532.632z M526.41,87.051v-2.989h2.103h2.655h5.838v2.989h-5.838h-2.655H526.41z M553.124,117.014h-7.598v1.549h7.598
						v1.216h-32.805v-4.423h32.805V117.014z"/>
				</g>
			</g>
		</g>
		<g>
			<path fill="#23A6E8" d="M575,195.346c0,3.255-2.639,5.893-5.895,5.893H500.22c-3.255,0-5.895-2.638-5.895-5.893v-47.154
				c0-3.252,2.64-5.894,5.895-5.894h68.886c3.256,0,5.895,2.642,5.895,5.894V195.346z"/>
			<g>
				<g>
					<path fill="#FFFFFF" d="M547.576,172.433v-8.354H546.3v-1.569h-5.976v1.569h-9.156v-4.245h7.082v-6.256h-13.331v6.256h3.594
						v4.245h-0.411h-2.664v8.354c-1.87,8.352-7.181,12.595-7.181,12.595v7.377h36.499v-7.377
						C554.756,185.027,549.444,180.784,547.576,172.433z M542.429,167.582v8.076H529.84v-8.076H542.429z M537.558,181.504h1.89
						v1.538h-1.89V181.504z M537.536,178.849v-1.538h1.89v1.538H537.536z M537.558,180.966v-1.536h1.89v1.536H537.558z
						 M535.072,181.504h1.89v1.538h-1.89V181.504z M535.049,178.849v-1.538h1.89v1.538H535.049z M535.072,180.966v-1.536h1.89v1.536
						H535.072z M532.632,181.504h1.889v1.538h-1.889V181.504z M532.61,178.849v-1.538h1.889v1.538H532.61z M532.632,180.966v-1.536
						h1.889v1.536H532.632z M526.41,158.201v-2.989h2.103h2.655h5.838v2.989h-5.838h-2.655H526.41z M553.124,188.163h-7.598v1.549
						h7.598v1.216h-32.805v-4.425h32.805V188.163z"/>
				</g>
			</g>
		</g>
	</g>
	<g>
		<path fill="#08A39F" d="M80.674,53.046c0,3.256-2.64,5.895-5.894,5.895H5.895C2.638,58.941,0,56.303,0,53.046V5.893
			C0,2.639,2.638,0,5.895,0H74.78c3.254,0,5.894,2.639,5.894,5.893V53.046z"/>
		<path fill="#08A39F" d="M80.674,124.195c0,3.256-2.64,5.894-5.894,5.894H5.895c-3.257,0-5.895-2.638-5.895-5.894V77.041
			c0-3.252,2.638-5.892,5.895-5.892H74.78c3.254,0,5.894,2.64,5.894,5.892V124.195z"/>
		<path fill="#08A39F" d="M80.674,195.346c0,3.255-2.64,5.893-5.894,5.893H5.895c-3.257,0-5.895-2.638-5.895-5.893v-47.154
			c0-3.252,2.638-5.894,5.895-5.894H74.78c3.254,0,5.894,2.642,5.894,5.894V195.346z"/>
		<g>
			<g>
				<g>
					<g>
						<path fill="#FFFFFF" d="M47.548,31.432v-6.144h-2.616c-0.381-1.856-1.113-3.59-2.129-5.124l1.944-1.946l-4.34-4.344
							l-1.975,1.973c-1.545-0.998-3.289-1.715-5.155-2.083v-2.321h-6.141v2.393c-1.769,0.393-3.416,1.099-4.884,2.058l-2.075-2.073
							l-4.342,4.342l2.074,2.073c-0.992,1.516-1.711,3.224-2.086,5.053h-2.785v6.144h2.838c0.393,1.771,1.104,3.424,2.078,4.895
							l-1.947,1.947l4.343,4.345l1.972-1.975c1.45,0.937,3.075,1.625,4.814,2.013v2.432h6.141v-2.362
							c1.838-0.364,3.559-1.063,5.088-2.037l1.869,1.87l4.343-4.343l-1.822-1.821c0.996-1.487,1.728-3.165,2.127-4.964H47.548z
							 M30.378,38.725c-5.828,0-10.57-4.698-10.57-10.48c0-5.775,4.742-10.479,10.57-10.479c5.827,0,10.566,4.704,10.566,10.479
							C40.945,34.027,36.205,38.725,30.378,38.725z"/>
					</g>
				</g>
				<g>
					<g>
						<path fill="#FFFFFF" d="M30.294,20.358c-4.41,0-8,3.548-8,7.907c0,4.362,3.59,7.909,8,7.909c4.409,0,7.993-3.547,7.993-7.909
							C38.287,23.906,34.703,20.358,30.294,20.358z M30.294,33.602c-2.994,0-5.428-2.395-5.428-5.337
							c0-2.944,2.434-5.338,5.428-5.338c2.99,0,5.424,2.395,5.424,5.338C35.718,31.208,33.284,33.602,30.294,33.602z"/>
					</g>
				</g>
				<g>
					<path fill="#FFFFFF" d="M30.294,25.497c-1.574,0-2.855,1.243-2.855,2.768c0,1.524,1.282,2.765,2.855,2.765
						c1.572,0,2.853-1.241,2.853-2.765C33.146,26.74,31.866,25.497,30.294,25.497z"/>
				</g>
				<g>
					<g>
						<path fill="#FFFFFF" d="M66.042,35.436c-0.232-1.131-0.679-2.186-1.296-3.121l1.184-1.187l-2.644-2.645l-1.204,1.201
							c-0.943-0.608-2.001-1.045-3.139-1.27V27h-3.742v1.46c-1.076,0.239-2.081,0.668-2.975,1.252l-1.264-1.264l-2.646,2.646
							l1.264,1.262c-0.604,0.926-1.04,1.965-1.271,3.08h-1.696v3.742h1.728c0.24,1.08,0.674,2.087,1.268,2.983l-1.188,1.187
							l2.646,2.646l1.202-1.204c0.882,0.572,1.872,0.991,2.932,1.228V47.5h3.742v-1.44c1.118-0.222,2.168-0.648,3.1-1.243
							l1.138,1.142l2.646-2.646l-1.11-1.11c0.606-0.908,1.053-1.928,1.295-3.026h1.624v-3.742H66.042z M57.176,43.621
							c-3.55,0-6.436-2.864-6.436-6.385c0-3.518,2.886-6.384,6.436-6.384c3.549,0,6.437,2.866,6.437,6.384
							C63.613,40.757,60.726,43.621,57.176,43.621z"/>
					</g>
				</g>
				<g>
					<g>
						<path fill="#FFFFFF" d="M57.125,32.431c-2.687,0-4.874,2.161-4.874,4.82c0,2.655,2.187,4.815,4.874,4.815
							c2.685,0,4.87-2.16,4.87-4.815C61.995,34.592,59.81,32.431,57.125,32.431z M57.125,40.5c-1.824,0-3.306-1.458-3.306-3.249
							c0-1.796,1.481-3.252,3.306-3.252c1.823,0,3.304,1.456,3.304,3.252C60.429,39.042,58.948,40.5,57.125,40.5z"/>
					</g>
				</g>
				<g>
					<ellipse fill="#FFFFFF" cx="57.125" cy="37.248" rx="1.739" ry="1.685"/>
				</g>
			</g>
		</g>
		<g>
			<g>
				<g>
					<g>
						<path fill="#FFFFFF" d="M47.548,102.58v-6.142h-2.616c-0.381-1.858-1.113-3.592-2.129-5.125l1.944-1.945l-4.34-4.344
							l-1.975,1.972c-1.545-0.999-3.289-1.716-5.155-2.084V82.59h-6.141v2.394c-1.769,0.395-3.416,1.102-4.884,2.06l-2.075-2.073
							l-4.342,4.341l2.074,2.072c-0.992,1.517-1.711,3.226-2.086,5.056h-2.785v6.142h2.838c0.393,1.772,1.104,3.426,2.078,4.894
							l-1.947,1.947l4.343,4.347l1.972-1.977c1.45,0.937,3.075,1.625,4.814,2.014v2.434h6.141v-2.361
							c1.838-0.365,3.559-1.065,5.088-2.04l1.869,1.873l4.343-4.344l-1.822-1.819c0.996-1.49,1.728-3.166,2.127-4.967H47.548z
							 M30.378,109.874c-5.828,0-10.57-4.697-10.57-10.481c0-5.773,4.742-10.477,10.57-10.477c5.827,0,10.566,4.703,10.566,10.477
							C40.945,105.177,36.205,109.874,30.378,109.874z"/>
					</g>
				</g>
				<g>
					<g>
						<path fill="#FFFFFF" d="M30.294,91.507c-4.41,0-8,3.549-8,7.906c0,4.363,3.59,7.909,8,7.909c4.409,0,7.993-3.546,7.993-7.909
							C38.287,95.056,34.703,91.507,30.294,91.507z M30.294,104.751c-2.994,0-5.428-2.396-5.428-5.338
							c0-2.943,2.434-5.337,5.428-5.337c2.99,0,5.424,2.394,5.424,5.337C35.718,102.355,33.284,104.751,30.294,104.751z"/>
					</g>
				</g>
				<g>
					<path fill="#FFFFFF" d="M30.294,96.645c-1.574,0-2.855,1.245-2.855,2.769c0,1.524,1.282,2.765,2.855,2.765
						c1.572,0,2.853-1.24,2.853-2.765C33.146,97.89,31.866,96.645,30.294,96.645z"/>
				</g>
				<g>
					<g>
						<path fill="#FFFFFF" d="M66.042,106.584c-0.232-1.132-0.679-2.186-1.296-3.118l1.184-1.188l-2.644-2.646l-1.204,1.2
							c-0.943-0.607-2.001-1.045-3.139-1.27v-1.414h-3.742v1.46c-1.076,0.239-2.081,0.667-2.975,1.252l-1.264-1.264l-2.646,2.645
							l1.264,1.263c-0.604,0.925-1.04,1.966-1.271,3.079h-1.696v3.742h1.728c0.24,1.08,0.674,2.088,1.268,2.982l-1.188,1.188
							l2.646,2.646l1.202-1.202c0.882,0.57,1.872,0.989,2.932,1.226v1.484h3.742v-1.439c1.118-0.224,2.168-0.649,3.1-1.245
							l1.138,1.145l2.646-2.647l-1.11-1.108c0.606-0.908,1.053-1.931,1.295-3.027h1.624v-3.742H66.042z M57.176,114.771
							c-3.55,0-6.436-2.864-6.436-6.387c0-3.516,2.886-6.382,6.436-6.382c3.549,0,6.437,2.866,6.437,6.382
							C63.613,111.906,60.726,114.771,57.176,114.771z"/>
					</g>
				</g>
				<g>
					<g>
						<path fill="#FFFFFF" d="M57.125,103.581c-2.687,0-4.874,2.159-4.874,4.817c0,2.656,2.187,4.816,4.874,4.816
							c2.685,0,4.87-2.16,4.87-4.816C61.995,105.74,59.81,103.581,57.125,103.581z M57.125,111.65c-1.824,0-3.306-1.46-3.306-3.252
							c0-1.793,1.481-3.252,3.306-3.252c1.823,0,3.304,1.459,3.304,3.252C60.429,110.19,58.948,111.65,57.125,111.65z"/>
					</g>
				</g>
				<g>
					<ellipse fill="#FFFFFF" cx="57.125" cy="108.396" rx="1.739" ry="1.686"/>
				</g>
			</g>
		</g>
		<g>
			<g>
				<g>
					<g>
						<path fill="#FFFFFF" d="M47.548,173.729v-6.142h-2.616c-0.381-1.858-1.113-3.591-2.129-5.125l1.944-1.947l-4.34-4.342
							l-1.975,1.972c-1.545-0.999-3.289-1.716-5.155-2.082v-2.324h-6.141v2.394c-1.769,0.395-3.416,1.1-4.884,2.06l-2.075-2.073
							l-4.342,4.341l2.074,2.072c-0.992,1.517-1.711,3.226-2.086,5.056h-2.785v6.142h2.838c0.393,1.772,1.104,3.426,2.078,4.896
							l-1.947,1.947l4.343,4.345l1.972-1.975c1.45,0.937,3.075,1.625,4.814,2.011v2.435h6.141v-2.361
							c1.838-0.365,3.559-1.065,5.088-2.038l1.869,1.871l4.343-4.344l-1.822-1.819c0.996-1.488,1.728-3.166,2.127-4.967H47.548z
							 M30.378,181.023c-5.828,0-10.57-4.698-10.57-10.48c0-5.777,4.742-10.479,10.57-10.479c5.827,0,10.566,4.702,10.566,10.479
							C40.945,176.325,36.205,181.023,30.378,181.023z"/>
					</g>
				</g>
				<g>
					<g>
						<path fill="#FFFFFF" d="M30.294,162.655c-4.41,0-8,3.549-8,7.907c0,4.362,3.59,7.909,8,7.909c4.409,0,7.993-3.547,7.993-7.909
							C38.287,166.204,34.703,162.655,30.294,162.655z M30.294,175.898c-2.994,0-5.428-2.395-5.428-5.336
							c0-2.942,2.434-5.338,5.428-5.338c2.99,0,5.424,2.396,5.424,5.338C35.718,173.504,33.284,175.898,30.294,175.898z"/>
					</g>
				</g>
				<g>
					<path fill="#FFFFFF" d="M30.294,167.793c-1.574,0-2.855,1.245-2.855,2.769c0,1.524,1.282,2.766,2.855,2.766
						c1.572,0,2.853-1.241,2.853-2.766C33.146,169.038,31.866,167.793,30.294,167.793z"/>
				</g>
				<g>
					<g>
						<path fill="#FFFFFF" d="M66.042,177.733c-0.232-1.131-0.679-2.185-1.296-3.119l1.184-1.188l-2.644-2.646l-1.204,1.201
							c-0.943-0.607-2.001-1.044-3.139-1.271v-1.415h-3.742v1.462c-1.076,0.237-2.081,0.667-2.975,1.252l-1.264-1.264l-2.646,2.645
							l1.264,1.263c-0.604,0.927-1.04,1.964-1.271,3.08h-1.696v3.741h1.728c0.24,1.08,0.674,2.087,1.268,2.982l-1.188,1.188
							l2.646,2.646l1.202-1.204c0.882,0.572,1.872,0.991,2.932,1.228v1.483h3.742v-1.44c1.118-0.222,2.168-0.647,3.1-1.243
							l1.138,1.143l2.646-2.646l-1.11-1.11c0.606-0.906,1.053-1.928,1.295-3.025h1.624v-3.741H66.042z M57.176,185.919
							c-3.55,0-6.436-2.864-6.436-6.387c0-3.516,2.886-6.382,6.436-6.382c3.549,0,6.437,2.866,6.437,6.382
							C63.613,183.055,60.726,185.919,57.176,185.919z"/>
					</g>
				</g>
				<g>
					<g>
						<path fill="#FFFFFF" d="M57.125,174.728c-2.687,0-4.874,2.162-4.874,4.819c0,2.656,2.187,4.817,4.874,4.817
							c2.685,0,4.87-2.161,4.87-4.817C61.995,176.89,59.81,174.728,57.125,174.728z M57.125,182.799
							c-1.824,0-3.306-1.458-3.306-3.252c0-1.793,1.481-3.25,3.306-3.25c1.823,0,3.304,1.457,3.304,3.25
							C60.429,181.341,58.948,182.799,57.125,182.799z"/>
					</g>
				</g>
				<g>
					<ellipse fill="#FFFFFF" cx="57.125" cy="179.545" rx="1.739" ry="1.684"/>
				</g>
			</g>
		</g>
	</g>
	<g>
		<g>
			<path fill="#FFFFFF" d="M406.406,71.058l-1.573,1.875c-1.113-1.341-2.326-2.554-3.639-3.64c-0.657,1.104-1.423,2.208-2.299,3.311
				h5.103v2.271h-1.983v2.093h3.475v2.271h-3.475v7.223c1.177-0.282,2.229-0.588,3.16-0.916l0.164,2.216
				c-3.274,1.104-6.243,1.942-8.905,2.518l-0.644-2.244c1.614-0.31,2.896-0.597,3.845-0.861v-7.935h-3.366v-2.271h3.366v-2.093
				h-1.738v-1.177c-0.319,0.265-0.629,0.506-0.93,0.726l-1.423-2.08c1.888-1.495,3.475-3.652,4.761-6.471l2.325,0.644
				c-0.072,0.282-0.195,0.538-0.369,0.766C403.957,68.614,405.339,69.873,406.406,71.058z M398.978,85.792l-2.065,0.479
				c-0.146-1.833-0.438-3.721-0.876-5.663l2.025-0.493C398.544,82.075,398.85,83.968,398.978,85.792z M405.462,80.388
				c-0.073,1.478-0.319,3.102-0.738,4.871l-1.983-0.493c0.373-1.249,0.606-2.868,0.697-4.856L405.462,80.388z M419.717,88.227
				c0,0.575-0.189,1.086-0.567,1.532c-0.379,0.447-0.939,0.695-1.683,0.746c-0.743,0.05-1.329,0.075-1.758,0.075
				s-0.84-0.019-1.231-0.055l-0.725-2.381c0.337,0.037,0.716,0.055,1.135,0.055c1.141,0,1.824-0.062,2.053-0.185
				c0.228-0.123,0.342-0.33,0.342-0.622v-3.365c-2.345,0.939-4.747,1.76-7.21,2.462l-0.807-1.819
				c-0.191,2.271-0.939,4.373-2.244,6.307l-2.038-1.792c1.304-1.633,1.956-3.78,1.956-6.443v-8.317h5.075v-8.291h2.518v8.291h5.185
				V88.227z M410.812,72.48l-2.107,1.122c-0.875-2.088-1.847-3.908-2.914-5.458l2.162-1.095
				C409.201,68.91,410.154,70.721,410.812,72.48z M417.282,81.756v-5.034h-7.907v1.423c2.809,0.347,4.957,0.757,6.443,1.231
				l-0.698,2.188c-1.942-0.638-3.839-1.076-5.69-1.313c-0.046,1.861-0.092,3.225-0.137,4.091
				C411.746,83.795,414.409,82.933,417.282,81.756z M420.497,67.926c-0.575,1.705-1.46,3.606-2.654,5.704l-2.161-1.204
				c1.012-1.705,1.852-3.497,2.517-5.376L420.497,67.926z"/>
			<path fill="#FFFFFF" d="M448.296,80.949H427.31V73.78c-0.593,0.758-1.244,1.464-1.956,2.121l-1.628-1.902
				c2.188-2.18,4.104-4.915,5.746-8.208l2.353,0.616c-0.301,0.629-0.666,1.322-1.094,2.079h5.854
				c-0.355-0.748-0.729-1.396-1.121-1.942l2.435-0.78c0.602,0.939,1.108,1.847,1.519,2.723h8.592v2.147h-9.152v1.409h7.948v1.874
				h-7.948v1.519h7.948v1.819h-7.948v1.614h9.439V80.949z M446.394,90.525h-2.448v-1.149h-14.788v1.149h-2.463v-8.153h19.699V90.525
				z M443.945,87.146v-2.559h-14.788v2.559H443.945z M436.476,72.043v-1.409h-6.703v1.409H436.476z M436.476,75.367v-1.45h-6.703
				v1.45H436.476z M436.476,78.869v-1.614h-6.703v1.614H436.476z"/>
			<path fill="#FFFFFF" d="M406.611,114.175h-1.409v10.671c0,1.122-0.338,1.831-1.013,2.128c-0.675,0.296-1.683,0.453-3.022,0.472
				l-0.753-2.326c0.42,0.019,0.762,0.027,1.026,0.027c0.702,0,1.121-0.043,1.259-0.13c0.137-0.086,0.205-0.248,0.205-0.485v-2.284
				c-0.83,0.501-1.715,0.984-2.654,1.45l-0.767-1.231c-0.31,1.97-0.926,3.584-1.847,4.843l-1.929-1.341
				c1.122-1.715,1.683-3.712,1.683-5.992v-5.801h-1.327v-4.117h1.013v-6.896h8.687v6.896h0.849V114.175z M404.368,113.751v-1.546
				h-6.033v1.546H404.368z M403.547,106.528v-1.177h-4.282v4.706h1.095v-3.529H403.547z M402.904,119.771v-3.857h-3.188v1.176
				c1.148,0.274,2.042,0.516,2.681,0.726l-0.643,2.011c-0.821-0.292-1.5-0.497-2.038-0.615c0,0.948-0.027,1.732-0.082,2.353
				C400.838,120.961,401.928,120.363,402.904,119.771z M403.547,110.058v-1.655h-1.341v1.655H403.547z M420.333,126.953h-13.954
				v-2.025h3.611c-0.337-0.93-0.588-1.582-0.752-1.956h-1.259v-5.321h11.313v5.321h-1.368c-0.046,0.183-0.287,0.835-0.725,1.956
				h3.133V126.953z M420.142,116.501h-13.093v-2.024h13.093V116.501z M419.799,113.19h-12.216v-8.29h3.42v-1.998h2.052v1.998h1.259
				v-1.998h2.147v1.998h3.338V113.19z M411.003,108.17v-1.423h-1.341v1.423H411.003z M411.003,111.344v-1.491h-1.341v1.491H411.003z
				 M416.913,121.125v-1.71h-6.554v1.71H416.913z M415.313,122.972h-3.585c0.301,0.675,0.557,1.327,0.767,1.956h2.093
				C414.915,124.171,415.157,123.519,415.313,122.972z M414.313,108.17v-1.423h-1.259v1.423H414.313z M414.313,111.344v-1.491
				h-1.259v1.491H414.313z M417.638,108.17v-1.423h-1.177v1.423H417.638z M417.638,111.344v-1.491h-1.177v1.491H417.638z"/>
			<path fill="#FFFFFF" d="M433.083,121.795c-2.344,1.843-4.911,3.297-7.702,4.364l-1.491-2.011
				c2.709-0.985,5.148-2.303,7.319-3.954L433.083,121.795z M448.036,119.073l-2.094,1.491c-0.647-0.922-1.163-1.605-1.546-2.053
				c-2.626,0.328-4.925,0.562-6.895,0.698v5.718c0.036,0.758-0.189,1.356-0.678,1.799c-0.487,0.442-1.968,0.664-4.438,0.664
				l-0.985-2.49c1.013,0.073,1.965,0.109,2.859,0.109c0.501,0,0.752-0.241,0.752-0.725v-4.843c-3.83,0.191-6.676,0.301-8.536,0.328
				l-0.589-2.147c2.362-0.657,5.117-1.815,8.264-3.476c-3.274,0.165-5.601,0.247-6.978,0.247l-0.396-1.82
				c3.849-1.203,7.278-3.146,10.288-5.827l2.298,1.313c-1.843,1.642-4.113,3.032-6.813,4.172l2.216-0.109l3.379-0.26
				c0.155-0.019,0.78-0.415,1.874-1.19l1.943-1.437l2.188,1.519c-4.387,3.119-8.514,5.35-12.381,6.69
				c3.265-0.138,6.877-0.452,10.835-0.944c-0.475-0.502-1.026-1.035-1.655-1.601l2.216-1.259
				C445.245,115.584,446.868,117.395,448.036,119.073z M439.444,104.079c-2.81,2.28-6.749,4.104-11.819,5.473l-1.437-2.135
				c4.505-0.967,8.222-2.526,11.149-4.679L439.444,104.079z M448.638,124.449l-1.683,1.888c-1.888-1.596-4.346-3.137-7.374-4.624
				l1.737-1.737C444.31,121.463,446.75,122.953,448.638,124.449z"/>
		</g>
	</g>
</g>
</svg>
