<?xml version="1.0" encoding="utf-8"?>
<!-- Generator: Adobe Illustrator 13.0.1, SVG Export Plug-In . SVG Version: 6.00 Build 14948)  -->
<!DOCTYPE svg PUBLIC "-//W3C//DTD SVG 1.1//EN" "http://www.w3.org/Graphics/SVG/1.1/DTD/svg11.dtd">
<svg version="1.1" id="圖層_1" xmlns="http://www.w3.org/2000/svg" xmlns:xlink="http://www.w3.org/1999/xlink" x="0px" y="0px"
	 width="120px" height="120px" viewBox="0 0 120 120" enable-background="new 0 0 120 120" xml:space="preserve">
<circle fill="#00ACF6" cx="60" cy="60" r="60"/>
<g>
	<path fill="none" d="M86.657,45.197c-1.625-0.237-2.77-1.621-2.77-3.242c0-6.395-2.626-12.215-6.824-16.39
		c-4.149-4.175-9.971-6.775-16.338-6.775c-4.724,0-9.088,1.406-12.714,3.792c-3.722,2.459-6.753,6.012-8.564,10.261
		c-0.523,1.214-1.718,1.978-2.981,1.978c-4.15,0.312-7.848,2.147-10.497,4.963c-2.672,2.837-4.366,6.702-4.366,10.899
		c0,8.756,7.135,15.889,15.912,15.889h1.409V49.707c0-1.121,0.93-2.028,2.026-2.028h40.409c1.122,0,2.05,0.907,2.05,2.028v16.864
		h1.481c5.916-0.049,10.661-4.844,10.661-10.758c0-2.65-0.928-5.058-2.504-6.917C91.425,47.058,89.182,45.674,86.657,45.197z"/>
	<polygon fill="none" points="79.355,77.812 79.355,51.733 42.952,51.733 42.952,88.088 66.858,88.088 66.858,77.812 	"/>
	<path fill="none" d="M83.408,66.571h1.481c5.916-0.049,10.661-4.844,10.661-10.758c0-2.65-0.928-5.058-2.504-6.917
		c-1.622-1.839-3.865-3.223-6.39-3.699c-1.625-0.237-2.77-1.621-2.77-3.242c0-6.395-2.626-12.215-6.824-16.39
		c-4.149-4.175-9.971-6.775-16.338-6.775c-4.724,0-9.088,1.406-12.714,3.792c-3.722,2.459-6.753,6.012-8.564,10.261
		c-0.523,1.214-1.718,1.978-2.981,1.978c-4.15,0.312-7.848,2.147-10.497,4.963c-2.672,2.837-4.366,6.702-4.366,10.899
		c0,8.756,7.135,15.889,15.912,15.889h1.409V49.707c0-1.121,0.93-2.028,2.026-2.028h40.409c1.122,0,2.05,0.907,2.05,2.028V66.571z"
		/>
	<path fill="none" d="M86.657,45.197c-1.625-0.237-2.77-1.621-2.77-3.242c0-6.395-2.626-12.215-6.824-16.39
		c-4.149-4.175-9.971-6.775-16.338-6.775c-4.724,0-9.088,1.406-12.714,3.792c-3.722,2.459-6.753,6.012-8.564,10.261
		c-0.523,1.214-1.718,1.978-2.981,1.978c-4.15,0.312-7.848,2.147-10.497,4.963c-2.672,2.837-4.366,6.702-4.366,10.899
		c0,8.756,7.135,15.889,15.912,15.889h1.409V49.707c0-1.121,0.93-2.028,2.026-2.028h40.409c1.122,0,2.05,0.907,2.05,2.028v16.864
		h1.481c5.916-0.049,10.661-4.844,10.661-10.758c0-2.65-0.928-5.058-2.504-6.917C91.425,47.058,89.182,45.674,86.657,45.197z"/>
	<path fill="none" d="M86.657,45.197c-1.625-0.237-2.77-1.621-2.77-3.242c0-6.395-2.626-12.215-6.824-16.39
		c-4.149-4.175-9.971-6.775-16.338-6.775c-4.724,0-9.088,1.406-12.714,3.792c-3.722,2.459-6.753,6.012-8.564,10.261
		c-0.523,1.214-1.718,1.978-2.981,1.978c-4.15,0.312-7.848,2.147-10.497,4.963c-2.672,2.837-4.366,6.702-4.366,10.899
		c0,8.756,7.135,15.889,15.912,15.889h1.409V49.707c0-1.121,0.93-2.028,2.026-2.028h40.409c1.122,0,2.05,0.907,2.05,2.028v16.864
		h1.481c5.916-0.049,10.661-4.844,10.661-10.758c0-2.65-0.928-5.058-2.504-6.917C91.425,47.058,89.182,45.674,86.657,45.197z"/>
	<path fill="#FFFFFF" d="M98.151,44.577c-2.004-2.36-4.674-4.223-7.704-5.273c-0.62-7.18-3.79-13.643-8.611-18.485
		c-5.391-5.392-12.882-8.731-21.111-8.731c-6.034,0-11.666,1.813-16.39,4.892c-4.291,2.862-7.823,6.774-10.16,11.354
		c-5.154,0.764-9.733,3.268-13.121,6.869c-3.817,4.032-6.154,9.52-6.154,15.48C14.9,63.135,25.087,73.3,37.515,73.3h1.409v16.865
		c0,1.097,0.93,1.979,2.026,1.979h25.909v-4.056H42.952V51.733h36.404v26.078h4.053V73.3h1.53
		c9.542-0.096,17.317-7.875,17.317-17.486C102.256,51.592,100.729,47.679,98.151,44.577z M84.89,66.571h-1.481V49.707
		c0-1.121-0.928-2.028-2.05-2.028H40.949c-1.096,0-2.026,0.907-2.026,2.028v16.864h-1.409c-8.777,0-15.912-7.133-15.912-15.889
		c0-4.197,1.694-8.063,4.366-10.899c2.648-2.815,6.346-4.651,10.497-4.963c1.263,0,2.458-0.764,2.981-1.978
		c1.812-4.249,4.843-7.802,8.564-10.261c3.626-2.386,7.99-3.792,12.714-3.792c6.368,0,12.189,2.601,16.338,6.775
		c4.198,4.175,6.824,9.995,6.824,16.39c0,1.621,1.145,3.005,2.77,3.242c2.524,0.477,4.768,1.86,6.39,3.699
		c1.576,1.859,2.504,4.267,2.504,6.917C95.551,61.728,90.806,66.522,84.89,66.571z"/>
	<polygon fill="#FFDB61" points="89.707,88.037 86.908,87.492 86.006,88.243 85.538,87.229 83.058,86.748 82.229,87.58 
		81.752,86.495 79.504,86.056 78.331,73.102 74.158,73.362 72.934,88.658 72.095,87.961 69.91,89.106 69.508,90.6 74.596,103.466 
		74.9,107.913 86.897,107.784 87.067,102.854 90.379,89.771 	"/>
	<g>
		<path fill="#FFDB61" d="M77.173,65.708v5.266c0,0.457-0.481,0.838-1.071,0.838c-0.299,0-0.565-0.095-0.759-0.244
			c-0.194-0.153-0.314-0.363-0.314-0.594v-5.266c0-0.456,0.481-0.838,1.073-0.838c0.297,0,0.564,0.095,0.758,0.248
			C77.052,65.273,77.173,65.483,77.173,65.708z"/>
		<path fill="#FFDB61" d="M72.909,74.306v5.262c0,0.464-0.48,0.847-1.075,0.847c-0.299,0-0.565-0.093-0.759-0.251
			c-0.195-0.151-0.315-0.36-0.315-0.596v-5.262c0-0.456,0.482-0.83,1.074-0.83c0.297,0,0.569,0.094,0.763,0.245
			C72.789,73.871,72.909,74.081,72.909,74.306z"/>
		<path fill="#FFDB61" d="M71.413,66.555v3.582c0,0.92-0.751,1.675-1.677,1.675h-0.938c-0.929,0-1.672-0.755-1.672-1.675v-3.582
			c0-0.925,0.743-1.685,1.672-1.685h0.938C70.662,64.87,71.413,65.63,71.413,66.555z M70.107,67.365
			c0-0.485-0.294-0.894-0.652-0.894h-0.369c-0.359,0-0.657,0.408-0.657,0.894v1.904c0,0.501,0.298,0.898,0.657,0.898h0.369
			c0.358,0,0.652-0.397,0.652-0.898V67.365z"/>
		<path fill="#FFDB61" d="M67.435,56.885v5.263c0,0.463-0.481,0.841-1.077,0.841c-0.294,0-0.56-0.095-0.755-0.245
			c-0.197-0.151-0.316-0.367-0.316-0.596v-5.263c0-0.455,0.486-0.838,1.071-0.838c0.299,0,0.566,0.096,0.762,0.247
			C67.313,56.445,67.435,56.654,67.435,56.885z"/>
		<path fill="#FFDB61" d="M62.393,75.207c0-0.927,0.755-1.675,1.68-1.675h0.932c0.93,0,1.678,0.748,1.678,1.675v3.588
			c0,0.92-0.748,1.679-1.678,1.679h-0.932c-0.925,0-1.68-0.759-1.68-1.679V75.207z M63.7,77.927c0,0.494,0.292,0.893,0.653,0.893
			h0.367c0.362,0,0.652-0.398,0.652-0.893v-1.909c0-0.486-0.29-0.886-0.652-0.886h-0.367c-0.361,0-0.653,0.399-0.653,0.886V77.927z"
			/>
		<path fill="#FFDB61" d="M61.791,65.708v5.266c0,0.457-0.485,0.838-1.073,0.838c-0.302,0-0.569-0.095-0.762-0.244
			c-0.194-0.153-0.314-0.363-0.314-0.594v-5.266c0-0.456,0.477-0.838,1.076-0.838c0.295,0,0.563,0.095,0.755,0.248
			C61.672,65.273,61.791,65.483,61.791,65.708z"/>
		<path fill="#FFDB61" d="M58.517,56.854v5.255c0,0.473-0.481,0.842-1.072,0.842c-0.298,0-0.565-0.092-0.758-0.245
			c-0.194-0.151-0.314-0.358-0.314-0.597v-5.255c0-0.467,0.476-0.837,1.073-0.837c0.292,0,0.565,0.094,0.759,0.246
			C58.396,56.415,58.517,56.623,58.517,56.854z"/>
		<path fill="#FFDB61" d="M55.196,74.349v5.261c0,0.466-0.486,0.841-1.077,0.841c-0.293,0-0.565-0.095-0.759-0.244
			c-0.198-0.152-0.318-0.361-0.318-0.597v-5.261c0-0.467,0.486-0.837,1.077-0.837c0.292,0,0.565,0.093,0.758,0.246
			C55.076,73.905,55.196,74.113,55.196,74.349z"/>
		<path fill="#FFDB61" d="M51.896,65.708v5.266c0,0.457-0.477,0.838-1.073,0.838c-0.292,0-0.564-0.095-0.758-0.244
			c-0.199-0.153-0.318-0.363-0.318-0.594v-5.266c0-0.456,0.485-0.838,1.076-0.838c0.298,0,0.565,0.095,0.758,0.248
			C51.775,65.273,51.896,65.483,51.896,65.708z"/>
		<path fill="#FFDB61" d="M52.142,58.444c0-0.492-0.298-0.901-0.658-0.901h-0.366c-0.356,0-0.655,0.409-0.655,0.901v1.9
			c0,0.489,0.299,0.902,0.655,0.902h0.366c0.36,0,0.658-0.413,0.658-0.902V58.444z M49.156,61.199v-3.573
			c0-0.926,0.748-1.683,1.678-1.683h0.937c0.925,0,1.673,0.757,1.673,1.683v3.573c0,0.927-0.748,1.689-1.673,1.689h-0.937
			C49.903,62.889,49.156,62.126,49.156,61.199z"/>
		<path fill="#FFDB61" d="M47.085,74.2v5.268c0,0.454-0.483,0.831-1.077,0.831c-0.293,0-0.561-0.093-0.754-0.245
			c-0.193-0.15-0.314-0.356-0.314-0.586V74.2c0-0.465,0.481-0.841,1.068-0.841c0.298,0,0.569,0.093,0.762,0.245
			C46.965,73.758,47.085,73.966,47.085,74.2z"/>
	</g>
</g>
</svg>
