<?xml version="1.0" encoding="utf-8"?>
<!-- Generator: Adobe Illustrator 13.0.1, SVG Export Plug-In . SVG Version: 6.00 Build 14948)  -->
<!DOCTYPE svg PUBLIC "-//W3C//DTD SVG 1.1//EN" "http://www.w3.org/Graphics/SVG/1.1/DTD/svg11.dtd">
<svg version="1.1" id="圖層_1" xmlns="http://www.w3.org/2000/svg" xmlns:xlink="http://www.w3.org/1999/xlink" x="0px" y="0px"
	 width="50px" height="41.346px" viewBox="0 0 50 41.346" enable-background="new 0 0 50 41.346" xml:space="preserve">
<g>
	<path fill="#FFFFFF" d="M44.743,15.352c-0.445-0.001-0.895,0.185-1.211,0.5c-0.314,0.317-0.5,0.765-0.499,1.211
		c0,0.299,0.083,0.598,0.236,0.858l-4.53,4.261c-0.294-0.225-0.663-0.354-1.031-0.351c-0.1,0-0.2,0.012-0.299,0.028l-1.366-2.793
		c0.293-0.313,0.464-0.739,0.46-1.167c0.004-0.447-0.181-0.896-0.502-1.211c-0.311-0.319-0.759-0.503-1.208-0.5
		c-0.446-0.003-0.894,0.181-1.211,0.5c-0.314,0.314-0.503,0.764-0.501,1.211c-0.002,0.311,0.09,0.625,0.254,0.894l-3.249,3.22
		l0.512,0.52l3.246-3.211c0.276,0.188,0.614,0.291,0.949,0.289c0.217,0.002,0.437-0.044,0.638-0.125l1.304,2.654
		c-0.087,0.057-0.167,0.122-0.239,0.194c-0.313,0.313-0.501,0.76-0.499,1.211c-0.002,0.445,0.186,0.894,0.499,1.207
		c0.318,0.318,0.766,0.504,1.213,0.503c0.45,0.001,0.896-0.185,1.21-0.503c0.316-0.313,0.503-0.762,0.499-1.207
		c0.003-0.281-0.067-0.56-0.199-0.807l4.544-4.278c0.285,0.202,0.634,0.314,0.981,0.313c0.448,0.002,0.896-0.183,1.214-0.5
		c0.314-0.316,0.499-0.765,0.499-1.211s-0.185-0.895-0.499-1.211C45.64,15.533,45.191,15.351,44.743,15.352z"/>
	<path fill="#FFFFFF" d="M0,0v33.756h14.563v3.516h-3.792v4.074h18.916v-4.074h-3.192v-3.516h7.215
		c0.197-0.693,0.564-1.318,1.051-1.824v-0.023c-2.652-0.705-4.966-2.225-6.661-4.263H2.306V2.303h36.133V6.7
		c0.787,0.016,1.559,0.098,2.306,0.248V0H0z"/>
	<path fill="#FFFFFF" d="M50,19.585c-0.02-6.33-5.233-11.443-11.652-11.424c-6.419,0.017-11.609,5.163-11.588,11.488
		c0.014,5.639,4.159,10.312,9.602,11.251v1.74c-0.741,0.559-1.212,1.404-1.212,2.354v0.43c0,0.01-0.001,0.018-0.001,0.031
		l0.001,0.119v2.73c0,1.682,1.484,3.039,3.314,3.039s3.314-1.357,3.314-3.039v-3.31c0-0.988-0.516-1.859-1.309-2.416v-1.693
		C45.905,29.913,50.019,25.222,50,19.585z M29.157,19.66c-0.022-4.991,4.094-9.068,9.173-9.095c5.083-0.022,9.234,4.019,9.261,9.01
		c0.02,4.991-4.095,9.07-9.175,9.095C33.333,28.694,29.183,24.652,29.157,19.66z"/>
	<g>
		<g>
			<polygon fill="#FFFFFF" points="8.188,18.188 7.073,17.247 13.509,9.617 17.419,12.983 22.023,6.929 23.186,7.813 17.64,15.101 
				13.674,11.684 8.188,18.188 			"/>
		</g>
		<polygon fill="#FFFFFF" points="19.967,6.592 23.594,6.592 23.594,10.218 		"/>
		<g>
			<polygon fill="#FFFFFF" points="26.107,23.711 4.584,23.711 4.584,6.557 5.831,6.557 5.831,22.463 26.107,22.463 26.107,23.711 
							"/>
		</g>
		<rect x="8.015" y="19.033" fill="#FFFFFF" width="2.496" height="3.743"/>
		<rect x="12.383" y="14.431" fill="#FFFFFF" width="2.496" height="8.346"/>
		<rect x="16.75" y="16.85" fill="#FFFFFF" width="2.495" height="5.927"/>
		<rect x="21.116" y="11.39" fill="#FFFFFF" width="2.496" height="11.387"/>
	</g>
</g>
</svg>
