<svg data-name="圖層 1" xmlns="http://www.w3.org/2000/svg" viewBox="0 0 150 117.23"><path d="M81.8 8.97c6.71 12.53 14 27.35 14 27.35s1.75-1.8 1.75-12.23S92.6 6.56 85.36 3.18" fill="none" stroke="#fff" stroke-miterlimit="8" stroke-width="2"/><path d="M96.18 34.43c-.81 12-10 21.37-21.14 21.37h0c-10.45 0-19.14-8.26-20.87-19.12m-.05 1.1a5.68 5.68 0 01-3.74-3.05c-1.41-2.59-1.18-5.58.52-6.69a2.55 2.55 0 011.44-.42" fill="none" stroke="#fff" stroke-width="2"/><path d="M95.61 37.78c1.36-.22 2.58-1.34 3.52-3.06 1.42-2.59 1.19-5.58-.52-6.69a2.45 2.45 0 00-1.25-.41M67 59.17l.31-5.03m15.38-.03l.29 5.02m.14-.01c-2.55 7.59-7 7.71-8 7.71s-5.37 0-8-7.66" fill="none" stroke="#fff" stroke-width="2"/><path d="M82.98 59.12a77.73 77.73 0 0110.26 1.43c9.16 1.79 13.26 4.6 14.64 15.12 1.31 10 4 30 4.61 40H150M0 115.7h37.5c.58-10.06 3.24-30.06 4.63-40 1.35-9.7 5.35-13.53 14.64-15.12a97.25 97.25 0 0110.24-1.38m-38.4 9.01h1.58m1.58 0h10.46M21.22 73.4h1.58m1.58 0h10.46M94.1 57.13h1.58m1.58 0h10.46m-6.17 5.19h1.58m1.57 0h10.47" fill="none" stroke="#fff" stroke-width="2"/><path d="M54.33 37.97a54.43 54.43 0 01-1.73-13.88C52.6 8.99 62.67 1 75.09 1a46.63 46.63 0 015.48.6 24.48 24.48 0 015 .06s-7.32 19.45-33.24 22.31" fill="none" stroke="#fff" stroke-miterlimit="8" stroke-width="2"/><path fill="none" stroke="#fff" stroke-miterlimit="10" stroke-width="2" d="M77.53 66.88l-.2 18.34h-4.82l.2-18.56"/><path d="M37.98 107.5l-15.57 4.78a1.43 1.43 0 01-1.87-.76l-7.06-23a1.43 1.43 0 011.11-1.67l26.68-8.19" fill="none" stroke="#fff" stroke-width="2"/><path fill="none" stroke="#fff" stroke-linecap="round" stroke-width="2" d="M20.17 81.67l1.77 5.76m12.18-10.04l1.77 5.76"/><path fill="none" stroke="#fff" stroke-width="2" d="M15.21 93.16l25.73-7.9m-15.91 8.93l-1.57.48m5.8-1.78l-1.56.48m5.79-1.78l-1.56.48m5.8-1.78l-1.56.48m2.66 3.1l-1.56.48m2.07 3.29l-.98.29m-3.77-2.76l-1.56.48m2.66 3.1l-1.56.48m2.66 3.1l-1.56.48m-4.87-6.34l-1.56.48m2.66 3.1l-1.56.48m2.66 3.1l-1.56.48m-4.87-6.34l-1.57.48m2.67 3.1l-1.57.48m2.67 3.1l-1.57.48m-4.54-6.44l-1.57.48m2.67 3.1l-1.57.48m2.67 3.1l-1.57.48m118.33-15.08a14.73 14.73 0 10-9.23 6.52 14.64 14.64 0 009.23-6.52z"/><path d="M137.67 89.3a10.59 10.59 0 10-6.62 4.67 10.53 10.53 0 006.62-4.67zm-26.18 16.22l3.08-4.87 4.83 3.06-6.6 10.44-.48-.3" fill="none" stroke="#fff" stroke-width="2"/><path fill="none" stroke="#fff" stroke-width="2" d="M114.57 100.65l2.07-3.31 4.87 3.08-2.11 3.29m.25-5.32l1.67-2.64"/><path fill="none" stroke="#fff" stroke-miterlimit="10" stroke-width="2" d="M128.34 104.41v1.97m-3.57.26l1.7.98m-1.56 3.23l1.7-.98m2.01 2.97v-1.97m3.58-.26l-1.7-.98m1.56-3.23l-1.7.98"/><path d="M62.4 60.05s1.93 10.67 2.78 10.73a25.36 25.36 0 007.41-.27m5.46.32h8s.82-.61 2.47-11" fill="none" stroke="#fff" stroke-width="2"/><path fill="none" stroke="#fff" stroke-miterlimit="10" stroke-width="2" d="M50.33 61.73v33.24l-3 1.25v21m52.75-55.49v33.24l3.25 1.25v21"/><path d="M83.3 12.72s-7.75 9.5-16.5 14-14.25 1.5-14.25 1.5" fill="none" stroke="#fff" stroke-miterlimit="8" stroke-width="2"/></svg>