<svg data-name="圖層 1" xmlns="http://www.w3.org/2000/svg" viewBox="0 0 150 116.71"><path d="M74.78 1C62.36 1 52.29 9.35 52.29 24.1c0 10.42 3 14.76 3 14.76s1-6.57 5.29-6.93c15.53-1.29 20.84-8.89 20.84-8.89-.67 2.09-3.26 7.63-3.26 7.63a10.82 10.82 0 006.93-7.43A21.33 21.33 0 0096.13 35.5s1.14-3.44 1.14-11.41C97.27 9 87.2 1 74.78 1z" fill="none" stroke="#fff" stroke-miterlimit="8" stroke-width="2"/><path d="M96.13 34.43C95.32 46.38 86.13 55.8 75 55.8h0c-10.46 0-19.15-8.26-20.88-19.11m-.01 1.07a5.68 5.68 0 01-3.74-3.05c-1.41-2.59-1.18-5.58.52-6.69a2.55 2.55 0 011.44-.42" fill="none" stroke="#fff" stroke-width="2"/><path d="M95.6 37.77c1.36-.22 2.58-1.34 3.52-3.06 1.42-2.59 1.19-5.58-.51-6.69a2.51 2.51 0 00-1.25-.41M67 59.17l.31-5.04m15.38-.03l.29 5.03m5.82.56S80.46 94.98 75 94.98c-4.83 0-13.81-35.29-13.81-35.29" fill="none" stroke="#fff" stroke-width="2"/><path d="M82.97 59.13c-2.55 7.58-7 7.7-8 7.7s-5.38 0-8-7.66M75 66.83a15.81 15.81 0 00-9 9.84m9.1-9.84a15.81 15.81 0 019 9.84" fill="none" stroke="#fff" stroke-width="2"/><path fill="none" stroke="#fff" stroke-width="2" d="M70 87.43l2.88-14-2.12-4m8.48 0l-2.12 4 3.2 14m2.65-28.3a76.26 76.26 0 0110.26 1.42c9.16 1.79 13.26 4.6 14.64 15.12 1.31 10 4 30 4.61 40H150m-150 .04h37.49c.58-10.07 3.24-30.07 4.63-40 1.34-9.7 5.34-13.53 14.64-15.12A99.59 99.59 0 0167 59.21"/><path d="M35.58 101.43a.52.52 0 01-.26.64l-3.79 1.24a.46.46 0 01-.53-.38l-.62-2.26a.5.5 0 01.25-.63l3.79-1.24a.45.45 0 01.54.37z" fill="none" stroke="#fff" stroke-miterlimit="10" stroke-width="2"/><path d="M41.35 84L15.6 92.43a1.51 1.51 0 00-.76 1.89l1.76 6.39 7.31 3.32 6.78-2.21m4.58-1.5l4.13-1.35" fill="none" stroke="#fff" stroke-miterlimit="10" stroke-width="2"/><path d="M17.11 100.94l3.44 12.48a1.34 1.34 0 001.59 1.12l16-5.23M34.97 86.5l-.43-1.55a2.93 2.93 0 00-3.69-2.17l-5.34 1.72a3.29 3.29 0 00-2 4l.42 1.55M112 111.63l10.8 3.08a.28.28 0 00.34-.22l8.92-37.24a.3.3 0 00-.19-.36l-7.33-2.09m-11.84-3.37l-5.93-1.69m.57 3.69l4.57 1.3" fill="none" stroke="#fff" stroke-miterlimit="10" stroke-width="2"/><path fill="none" stroke="#fff" stroke-miterlimit="10" stroke-width="2" d="M123.76 78.1l4.56 1.3-7.48 31.22-8.96-2.55"/><path d="M111.78 75.38a.54.54 0 00.35.64l10.85 3.09a.49.49 0 00.59-.38l1.21-5a.53.53 0 00-.35-.64l-2.38-.68.31-1.31a.67.67 0 00-.43-.8l-4.91-1.4a.61.61 0 00-.74.47l-.31 1.31-2.39-.68a.48.48 0 00-.58.37zm-2.26 4.31l14.09 4.02m-14.46 1.22l13.27 3.78m-12.71 1.72l11.51 3.28M110.52 96l9.5 2.71m-8.91 2.81l7.72 2.19" fill="none" stroke="#fff" stroke-miterlimit="10" stroke-width="2"/><path fill="none" stroke="#fff" stroke-width="2" d="M28.61 72.83h1.58m1.57 0h10.47m-21.01 5.2h1.58m1.58 0h10.45m59.27-20.9h1.59m1.57 0h10.46m-6.17 5.19h1.58m1.57 0h10.47"/></svg>