<svg data-name="圖層 1" xmlns="http://www.w3.org/2000/svg" viewBox="0 0 150 119.91"><path d="M96.13 37.63C95.32 49.58 86.13 59 75 59h0c-10.45 0-19.14-8.26-20.88-19.11" fill="none" stroke="#fff" stroke-width="2"/><path d="M82.69 57.3l.29 5a76.5 76.5 0 0110.26 1.42c9.16 1.79 13.26 4.6 14.64 15.12 1.31 10 4 30 4.61 40H150m-150 .07h37.5c.58-10.07 3.24-30.07 4.63-40 1.34-9.7 5.34-13.53 14.64-15.12A99.74 99.74 0 0167 62.41l.31-5M33.3 67.23h1.58m1.58 0h10.46m-21.01 5.19h1.58m1.58 0h10.46" fill="none" stroke="#fff" stroke-width="2"/><path d="M52.91 26.7c-1 12.11 5.58 18.9 5.58 18.9s.22-9.93 10.91-21.29c-3.41 6.29-3.41 6.84-5.29 10.26 4.31-.51 8.17-5.34 9.61-6.08a23.34 23.34 0 00-.89 5c2.66-1 8.58-8.65 8.58-8.65-.66 2.27-3.26 8.27-3.26 8.27a11.38 11.38 0 006.94-8.05c2.38 7.26 9.13 11.77 8.21 17.81 0 0 4.78-3.92 3.38-16.73m-46.2 12.05c.56 11.21.36 26.72-3.81 29.65" fill="none" stroke="#fff" stroke-miterlimit="8" stroke-width="2"/><path d="M99.81 32.75c.07-3.63.26-4.73.26-6.74 0-16.35-11.33-25-25.3-25s-25.14 9-25.29 25c0 2.1.15 3.58.35 6.67m53.24 35.16c-2.83-5.75-3.21-21.38-3.16-31.78" fill="none" stroke="#fff" stroke-miterlimit="8" stroke-width="2"/><path fill="none" stroke="#fff" stroke-width="2" d="M109.66 72.33h1.58m1.58 0h10.46m-6.17 5.2h1.57m1.58 0h10.47M54.12 40.96a5.68 5.68 0 01-3.74-3.05c-1.42-2.59-1.18-5.58.52-6.69a2.52 2.52 0 011.43-.42m43.28 10.17c1.36-.22 2.58-1.34 3.52-3.06 1.42-2.59 1.19-5.58-.52-6.69a2.45 2.45 0 00-1.25-.41M84.8 71.37a11.34 11.34 0 01-9.92 5.35 11.21 11.21 0 01-9.94-5.32"/><path d="M84.38 62.8s3 28.43-9.77 38.57c-13.35-11.18-8.83-39.09-8.83-39.09" fill="none" stroke="#fff" stroke-width="2"/><path d="M60.23 62.94c-1.07 1.71-3.49 11-2.83 16l4.81 1.13-4.34 2.55s3.82 16 16.74 18.8m14.56-38.48c1.07 1.71 3.49 11 2.83 16l-4.81 1.13 4.34 2.55s-3.82 16-16.75 18.8m-36.5 10.28l-15.68 4.9a.39.39 0 01-.5-.26l-9.9-31.69a.39.39 0 01.26-.5l23.35-7.3a.42.42 0 01.51.27l4.17 13.36" fill="none" stroke="#fff" stroke-width="2"/><path fill="none" stroke="#fff" stroke-width="2" d="M24.44 112.13l-5.46-17.46 17.47-5.46m-19.953-2.453l17.506-5.466 1.517 4.858-17.506 5.466z"/><path fill="none" stroke="#fff" stroke-width="2" d="M38.37 107.78l-13.93 4.35-5.46-17.46 17.47-5.46 3.05 9.78m-11.74-7.06l5.42 17.37m5.98-11.4l-17.38 5.43m5.1-6.3l-4.52 1.41m2.96 1.55l-1.41-4.51m11.88-1.23l-4.51 1.41m-1.82 11.98l-4.19-2.2m1 3.19l2.19-4.19m10.4-.38l-4.52 1.41m3.88-3.44l-4.51 1.41m82.798 3.97l3.79-13.694 3.103.858-3.79 13.696z"/><path fill="none" stroke="#fff" stroke-width="1.994" d="M126.092 113.765l5.025-17.866 3.09.87-5.024 17.865z"/><path fill="none" stroke="#fff" stroke-width="2" d="M129.488 110.995l2.466-8.915 3.103.858-2.466 8.915zm6.607 1.833l3.35-12.105 3.104.86-3.35 12.104z"/><path fill="none" stroke="#fff" stroke-width="2" d="M119.25 80.49l-7.11 25.71 30.33 8.39"/><path d="M123.71 89.96a.68.68 0 01-.84.48.69.69 0 11.84-.48zm8.24-4.36a.68.68 0 11-.48-.84.69.69 0 01.48.84zm3.66 11.61a.69.69 0 01-.85.48.69.69 0 11.85-.48zm8.1-3.03a.7.7 0 01-.85.48.69.69 0 01-.47-.85.69.69 0 011.32.37z" fill="none" stroke="#fff" stroke-width="2"/><path fill="none" stroke="#fff" stroke-width="2" d="M123.05 89.78l8.55-4.27 3.34 11.52 8.1-3.03"/></svg>