<svg data-name="圖層 1" xmlns="http://www.w3.org/2000/svg" viewBox="0 0 150 119.91"><path d="M53.14 40.04l2-.31c1.67 10.43 10 18.28 19.89 18.27 10.58 0 19.35-9 20.14-20.43l2 .13C96.34 50.11 86.81 59.99 75.04 60c-11 0-20.07-8.67-21.86-20z" fill="#fff"/><path d="M111.55 119.91l-.06-.95c-.57-10-3.29-30-4.6-40-.68-5.17-2-8.23-4.1-10.25-2.11-2-5.22-3.14-9.74-4a75.76 75.76 0 00-10.14-1.34l-.88-.07-.34-5.9 2-.11.24 4.14a80 80 0 019.5 1.38c4.64.91 8.16 2.09 10.74 4.55 2.57 2.46 4 6.06 4.7 11.42 1.27 9.69 3.87 28.77 4.56 39.17h36.58v2zm-111.54 0zm37.5 0H.01v-2h36.55c.69-10.4 3.23-29.49 4.58-39.17.68-5 2.07-8.59 4.61-11.17 2.55-2.58 6.11-4 10.85-4.8 2.76-.47 5.53-1 9.46-1.33l.26-4.16 2 .12-.36 5.9-.87.07a97.47 97.47 0 00-10.14 1.37c-4.55.78-7.64 2.08-9.76 4.23-2.12 2.16-3.4 5.29-4.06 10-1.39 10-4 30-4.62 40v.95zM33.3 68.23v-2h1.58v2H33.3z" fill="#fff"/><path fill="#fff" d="M36.46 68.23v-2h10.46v2H36.46zm-10.55 5.2v-2.01h1.58v2.01h-1.58zm3.16 0v-2.01h10.46v2.01H29.07zm63.24-30.69a6.78 6.78 0 00.07-1c0-2.35-1.34-4.66-3.13-7.28a49.92 49.92 0 01-4.09-6.57 12.43 12.43 0 01-6.64 6.16l-.49.19-.44-.3a53.22 53.22 0 01-7.6-6.27 5.11 5.11 0 01-1.63-3 1.59 1.59 0 01.08-.53l1.91.57h-.14.15a4.66 4.66 0 001.11 1.66 30.24 30.24 0 002.92 2.71c1.57 1.29 3.14 2.42 3.88 3a10.38 10.38 0 005.85-7.14l.82-3.46 1.1 3.38c1.05 3.2 3 5.92 4.86 8.58a19.13 19.13 0 013.28 6.53v-.08a21.13 21.13 0 001.72-9.17 41.14 41.14 0 00-.25-4.36l2-.22a42.61 42.61 0 01.26 4.58c0 9.54-3.8 12.88-4 13l-2 1.65.39-2.57z"/><path d="M57.77 46.37c-.09-.1-6-6.15-6-17 0-.86 0-1.75.11-2.66l2 .17c-.07.86-.1 1.69-.1 2.49a24.83 24.83 0 004 13.82c.74-3.74 3.13-11.26 10.87-19.47l1.45 1.37c-7.87 8.36-9.92 15.87-10.45 19a11.86 11.86 0 00-.19 1.58l-.06 2.38-1.66-1.7zm-9.2 8.68a88.59 88.59 0 01-.85-13.31c0-3 .1-6 .23-8.73l2 .1c-.14 2.71-.23 5.66-.23 8.63a85.76 85.76 0 00.83 13c.56 3.72 1.68 6.47 2.79 7.17l-1.15 1.64c-2-1.52-3-4.6-3.62-8.48z" fill="#fff"/><path d="M98.81 32.74c.07-3.68.26-4.8.26-6.73-.06-15.83-10.73-23.93-24.3-24-13.54.07-24.09 8.56-24.29 24v.36c0 1.87.16 3.33.35 6.28l-2 .13c-.19-2.91-.35-4.41-.35-6.41v-.34c.1-16.48 11.89-26.07 26.29-26 7.19 0 13.77 2.23 18.56 6.64 4.8 4.4 7.74 11 7.74 19.37 0 2.09-.19 3.17-.26 6.76h-2zm.09 5.08v-1.76h2v1.75c0 10.25.55 24.61 3.06 29.58l-1.79.88c-2.85-5.9-3.24-20.06-3.27-30.46zm10.76 35.01v-1h1.58v1h-1.58zm3.16 0v-1h10.46v1h-10.46zm4.29 5.2v-1h1.58v1h-1.58zm3.15 0v-1h10.47v1h-10.47z" fill="#fff"/><path d="M49.51 38.37a8.41 8.41 0 01-1.06-3.93 4.71 4.71 0 011.91-4.07 3.47 3.47 0 012-.57.63.63 0 01.21 0l-.39 2 .18-.93v.94a1.64 1.64 0 00-.87.26 2.76 2.76 0 00-1 2.4 6.26 6.26 0 00.8 3 4.72 4.72 0 003 2.55l-.32 2a6.6 6.6 0 01-4.46-3.65zm45.94 1.62c.9-.13 1.94-1 2.8-2.56a6.28 6.28 0 00.81-3 2.75 2.75 0 00-1-2.39 1.53 1.53 0 00-.77-.25l.12-2a3.66 3.66 0 011.74.57 4.72 4.72 0 011.9 4.07 8.28 8.28 0 01-1.04 3.94c-1 1.87-2.42 3.26-4.24 3.57l-.32-2zM64.09 71.92l1.7-1a10.19 10.19 0 009.06 4.84 10.32 10.32 0 009.06-4.87l1.72 1a12.33 12.33 0 01-10.78 5.84h-.16a12.15 12.15 0 01-10.63-5.8z" fill="#fff"/><path d="M74.01 102.14c-8.39-7.08-9.91-20-9.94-29.16a74.65 74.65 0 01.76-10.86l2 .32a72.44 72.44 0 00-.73 10.54c0 8.75 1.58 20.67 8.59 27.08 7.64-6.67 9.1-21.23 9.06-30 0-4.26-.3-7.12-.3-7.13l2-.21s.31 3 .31 7.34c0 9.22-1.28 24.75-10.45 32.13l-.64.5-.62-.52z" fill="#fff"/><path d="M56.9 82.8l-.17-.72 2.82-1.66-3.05-.72-.09-.68a14.39 14.39 0 01-.13-2 41 41 0 011.15-8.6 25.18 25.18 0 012-6l1.69 1.06a25.11 25.11 0 00-1.69 5.38 39.28 39.28 0 00-1.1 8.15v1.08l6.55 1.54-5.87 3.41c.12.42.31 1 .57 1.73a33.82 33.82 0 002.65 5.63c2.49 4.22 6.49 8.67 12.57 10l-.43 2c-13.7-3.11-17.44-19.49-17.5-19.55z" fill="#fff"/><path d="M74.57 100.37c9.1-2 13.59-11.1 15.22-15.63.26-.72.45-1.31.57-1.73l-5.83-3.42 6.55-1.54v-1.08a38.58 38.58 0 00-1.09-8.15 24.33 24.33 0 00-1.7-5.38l1.72-1.07a25.18 25.18 0 012 6 41 41 0 011.14 8.6 16.09 16.09 0 01-.11 2l-.1.68-3 .72 2.83 1.66-.18.72c-.06.06-3.8 16.44-17.5 19.55l-.43-2zm-59.28 11.85H1.5V80.39h33.95v21.22h-1.06V81.45H2.56v29.71h12.73v1.06z" fill="#fff"/><path fill="#fff" d="M2.03 84.63h32.89v1.06H2.03zm10.08-2.12h21.22v1.06H12.11zm3.18 27.59H3.62V86.75h29.71v14.86h-1.06v-13.8H4.68v21.22h10.61v1.07z"/><path d="M20.6 112.22h-2.12v-7.43h1.59a35.83 35.83 0 002.65 5.3 2.12 2.12 0 01-2.12 2.13zm-1.06-1.06h1.06a1.07 1.07 0 000-2.13h-1.06zm0-3.19h.53a1.06 1.06 0 100-2.12h-.53zm6.37 4.25a2.13 2.13 0 01-2.13-2.12v-5.31h1.07v5.31a1.06 1.06 0 102.12 0v-5.31h1.04v5.31a2.12 2.12 0 01-2.1 2.12zm4.77-3.18h1.06v3.18h-1.06z" fill="#fff"/><path fill="#fff" d="M31.21 109.78l-2.12-2.12v-2.87h1.06v2.43l1.06 1.06 1.06-1.06v-2.43h1.06v2.87l-2.12 2.12z"/><path d="M34.4 114.37h-17a1.06 1.06 0 01-1.06-1.06v-9.55a1.05 1.05 0 011.06-1.06h17a1.06 1.06 0 011.06 1.06v9.55a1.07 1.07 0 01-1.06 1.06zm-17-10.61v9.55h17v-9.55zM21.66 91h5.31v1.06h-5.31zm3.18 2.12h5.31v1.06h-5.31zm-3.18 5.3h4.24v1.06h-4.24zm5.3 0h3.18v1.06h-3.18zm-5.3-2.12h1.06v1.06h-1.06zm2.12 0h1.06v1.06h-1.06zm2.12 0h1.06v1.06H25.9zm-4.24-3.18h2.12v1.06h-2.12zM28.03 91h2.12v1.06h-2.12zm97.4 21.45h10.77v1.14h-10.77zm-1.13-2.27h13.04v1.13H124.3z" fill="#fff"/><path d="M118.63 113.59a5.68 5.68 0 010-11.35h24.38a.57.57 0 01.57.57 2.84 2.84 0 01-2.84 2.83h-22.11a2.27 2.27 0 000 4.54h1.13v1.19h-1.13a3.41 3.41 0 010-6.81h22.12a1.73 1.73 0 001.61-1.13h-23.73a4.54 4.54 0 100 9.07v1.14zm20.99 3.4a4 4 0 114-4 4 4 0 01-4 4zm0-6.81a2.84 2.84 0 102.83 2.84 2.84 2.84 0 00-2.83-2.84z" fill="#fff"/><path d="M122.01 116.99a4 4 0 114-4 4 4 0 01-4 4zm0-6.81a2.84 2.84 0 102.84 2.84 2.84 2.84 0 00-2.84-2.84zm21-6.81h-24.38a.57.57 0 01-.57-.56V90.37h1.14v11.91h23.42l4.13-11.35h-26.42V89.8h27.23a.56.56 0 01.46.24.57.57 0 01.07.52l-4.54 12.48a.56.56 0 01-.54.33zm-26.08 0h-1.14V85.22a1.14 1.14 0 00-1.13-1.13v-1.14a2.27 2.27 0 012.27 2.27z" fill="#fff"/><path d="M119.2 90.37h-1.14v-5.11a1.14 1.14 0 00-1.13-1.13v-1.14a2.27 2.27 0 012.27 2.27zm-7.38-7.42h5.1v1.13h-5.1zm29.5 12.48a2 2 0 01-1.55-.74c-.24-.26-.37-.39-.72-.39s-.48.13-.72.39a2 2 0 01-3.1 0c-.24-.26-.37-.39-.72-.39s-.48.13-.72.39a2 2 0 01-3.1 0c-.24-.26-.36-.39-.72-.39s-.48.13-.72.39a2 2 0 01-3.1 0c-.24-.26-.36-.39-.72-.39s-.47.13-.72.39a2 2 0 01-1.55.74 1.93 1.93 0 01-1.54-.74c-.25-.26-.37-.39-.73-.39v-1.14a2 2 0 011.55.75c.25.26.37.39.72.39s.48-.13.73-.39a1.94 1.94 0 011.54-.75 2 2 0 011.55.75c.24.26.37.39.72.39s.48-.13.73-.39a1.94 1.94 0 011.54-.75 2 2 0 011.55.75c.24.26.37.39.72.39s.48-.13.72-.39a2 2 0 013.1 0c.24.26.36.39.72.39s.48-.13.72-.39a2 2 0 013.1 0c.24.26.36.39.72.39s.47-.13.72-.39a2 2 0 011.55-.75v1.14c-.36 0-.48.13-.73.39a1.93 1.93 0 01-1.54.74zm0 4.54a2 2 0 01-1.55-.74c-.24-.26-.37-.39-.72-.39s-.48.13-.72.39a2 2 0 01-3.1 0c-.24-.26-.37-.39-.72-.39s-.48.13-.72.39a2 2 0 01-3.1 0c-.24-.26-.36-.39-.72-.39s-.48.13-.72.39a2 2 0 01-3.1 0c-.24-.26-.36-.39-.72-.39s-.47.13-.72.39a2 2 0 01-1.55.74 1.93 1.93 0 01-1.54-.74c-.25-.26-.37-.39-.73-.39V97.7a1.93 1.93 0 011.55.75c.25.26.37.39.72.39s.48-.13.73-.39a1.91 1.91 0 011.54-.75 1.93 1.93 0 011.55.75c.24.26.37.39.72.39s.48-.13.73-.39a1.91 1.91 0 011.54-.75 2 2 0 011.55.75c.24.26.37.39.72.39s.48-.13.72-.39a2 2 0 013.1 0c.24.26.36.39.72.39s.48-.13.72-.39a2 2 0 013.1 0c.24.26.36.39.72.39zm-19.31 11.91a1.14 1.14 0 11-1.13 1.14 1.14 1.14 0 011.13-1.14zm17.61 0a1.14 1.14 0 11-1.14 1.14 1.14 1.14 0 011.14-1.14zm-1.14-23.25h-1.13v-2.26h-13.62v2.27h-1.13V85.8a.57.57 0 01.57-.57h14.74a.57.57 0 01.57.57v2.84z" fill="#fff"/><path d="M142.45 88.63h-1.13v-6.81h-9.08v2.27h-1.13v-2.84a.56.56 0 01.57-.56h10.2a.56.56 0 01.57.56v7.38z" fill="#fff"/><path d="M137.91 84.09h-2.26a.56.56 0 01-.57-.57v-2.27a.56.56 0 01.57-.56h2.26a.56.56 0 01.57.56v2.27a.56.56 0 01-.57.57zm-1.7-1.14h1.14v-1.13h-1.14z" fill="#fff"/></svg>