<svg data-name="圖層 1" xmlns="http://www.w3.org/2000/svg" viewBox="0 0 150 116.71"><path d="M64.49 3.18C57.25 6.56 52.33 13.75 52.33 24.1s1.75 12.22 1.75 12.22A55.85 55.85 0 0070.41 17.5" fill="none" stroke="#fff" stroke-miterlimit="8" stroke-width="2"/><path d="M96.13 34.43C95.32 46.38 86.13 55.8 75 55.8h0c-10.45 0-19.15-8.26-20.88-19.11m0 1.07a5.68 5.68 0 01-3.74-3.05c-1.42-2.59-1.19-5.58.52-6.69a2.52 2.52 0 011.43-.42" fill="none" stroke="#fff" stroke-width="2"/><path d="M95.61 37.77c1.36-.22 2.58-1.34 3.52-3.06 1.42-2.59 1.18-5.58-.52-6.69a2.45 2.45 0 00-1.25-.41M67 59.17l.31-5.04m15.38-.03l.29 5.03m.14 0c-2.55 7.58-7 7.7-8 7.7s-5.37 0-8-7.66" fill="none" stroke="#fff" stroke-width="2"/><path d="M75.13 66.83a15.78 15.78 0 00-9 9.84s-7-5.34-1.83-17.1m10.83 7.26a15.81 15.81 0 019 9.84s7.05-5.34 1.82-17.1" fill="none" stroke="#fff" stroke-width="2"/><path d="M82.98 59.13a76.74 76.74 0 0110.26 1.42c9.16 1.79 13.26 4.6 14.64 15.12 1.31 10 4 30 4.61 40H150m-150 .04h37.5c.58-10.07 3.24-30.07 4.63-40 1.34-9.7 5.34-13.53 14.64-15.12A99.74 99.74 0 0167 59.21m-38.39 9h1.58m1.57 0h10.47M21.22 73.4h1.58m1.58 0h10.46m59.27-16.27h1.58m1.57 0h10.46m-6.17 5.19h1.58m1.57 0h10.47" fill="none" stroke="#fff" stroke-width="2"/><path d="M95.77 34.61C69.86 31.74 64.33 1.66 64.33 1.66a24.41 24.41 0 015-.06 46.9 46.9 0 015.49-.6c12.42 0 22.49 8 22.49 23.1 0 8-1.15 11.41-1.15 11.41" fill="none" stroke="#fff" stroke-miterlimit="8" stroke-width="2"/><path fill="none" stroke="#fff" stroke-miterlimit="10" stroke-width="2" d="M77.54 67.95v28.3h-4.82v-28.3"/><path d="M37.98 107.5l-15.57 4.78a1.44 1.44 0 01-1.87-.75l-7.07-23a1.46 1.46 0 011.12-1.68l26.68-8.19" fill="none" stroke="#fff" stroke-width="2"/><path fill="none" stroke="#fff" stroke-linecap="round" stroke-width="2" d="M20.17 81.67l1.77 5.76m12.18-10.04l1.77 5.76"/><path fill="none" stroke="#fff" stroke-width="2" d="M15.21 93.16l25.73-7.9m-15.91 8.93l-1.57.48m5.8-1.78l-1.56.48m5.79-1.78l-1.56.48m5.8-1.78l-1.56.48m2.66 3.1l-1.56.48m2.06 3.29l-.96.29m-3.78-2.76l-1.56.48m2.66 3.1l-1.56.48m2.66 3.1l-1.56.48m-4.87-6.34l-1.56.48m2.66 3.1l-1.56.48m2.66 3.1l-1.56.48m-4.87-6.34l-1.57.48m2.67 3.1l-1.57.48m2.67 3.1l-1.57.48m-4.54-6.44l-1.57.48m2.67 3.1l-1.57.48m2.67 3.1l-1.57.48M141.19 91.5a14.73 14.73 0 10-9.23 6.52 14.64 14.64 0 009.23-6.52z"/><path d="M137.66 89.3a10.58 10.58 0 10-6.62 4.67 10.53 10.53 0 006.62-4.67zm-26.17 16.22l3.08-4.87 4.83 3.06-6.6 10.44-.48-.3" fill="none" stroke="#fff" stroke-width="2"/><path fill="none" stroke="#fff" stroke-width="2" d="M114.57 100.65l2.07-3.31 4.87 3.08-2.11 3.29m.25-5.32l1.67-2.63"/><path fill="none" stroke="#fff" stroke-miterlimit="10" stroke-width="2" d="M128.34 104.41v1.97m-3.57.26l1.7.98m-1.56 3.23l1.7-.98m2.01 2.97v-1.97m3.58-.26l-1.7-.98m1.56-3.23l-1.7.98"/><path d="M51.74 36.5s-1.58 14.76 1.06 15.29 4.53-3.68 7.91-1.29M98.7 35.88s1.58 14.77-1.06 15.3-4.48-3.69-7.91-1.32" fill="none" stroke="#fff" stroke-linecap="round" stroke-linejoin="round" stroke-width="2"/></svg>