<svg data-name="圖層 1" xmlns="http://www.w3.org/2000/svg" viewBox="0 0 150 116.71"><g data-name="圖層 3" fill="none" stroke="#fff" stroke-width="2"><path d="M74.79 1C62.37 1 52.3 9.35 52.3 24.09c0 10.43 3 14.76 3 14.76s1-6.56 5.28-6.92c15.53-1.29 20.84-8.89 20.84-8.89-.66 2.09-3.26 7.63-3.26 7.63a10.81 10.81 0 006.94-7.43 21.36 21.36 0 0011 12.26s1.15-3.43 1.15-11.41C97.28 8.99 87.19 1 74.79 1z" stroke-miterlimit="8"/><path d="M96.13 34.43c-.81 12-10 21.37-21.13 21.37h0c-10.45 0-19.14-8.26-20.87-19.12m-.01 1.08a5.68 5.68 0 01-3.74-3c-1.41-2.59-1.18-5.58.52-6.69a2.54 2.54 0 011.43-.42"/><path d="M95.61 37.77c1.36-.22 2.58-1.34 3.52-3.06 1.42-2.59 1.19-5.59-.52-6.7a2.54 2.54 0 00-1.25-.41M67 59.17l.31-5.04m15.38-.02l.29 5.02m5.83.56S80.47 94.98 75 94.98c-4.81 0-13.81-35.29-13.81-35.29"/><path d="M82.98 59.12c-2.55 7.59-7 7.71-8 7.71s-5.37 0-8-7.67M75 66.83a15.77 15.77 0 00-9 9.84m9.11-9.84a15.77 15.77 0 019 9.84"/><path d="M70 87.43l2.88-14-2.12-4m8.48 0l-2.12 4 3.2 14m2.66-28.31a76.08 76.08 0 0110.26 1.43c9.16 1.78 13.26 4.59 14.64 15.12 1.31 10 4 30 4.61 40H150M0 115.7h37.5c.58-10.06 3.24-30.06 4.63-40 1.34-9.71 5.34-13.53 14.64-15.12A99.4 99.4 0 0167 59.19"/><path d="M35.58 101.38a.5.5 0 01-.25.64l-3.79 1.24a.45.45 0 01-.53-.38l-.62-2.25a.51.51 0 01.25-.64l3.79-1.23a.43.43 0 01.53.37z" stroke-miterlimit="10"/><path d="M41.36 84l-25.75 8.38a1.52 1.52 0 00-.76 1.9l1.76 6.39 7.31 3.32 6.78-2.22m4.57-1.46l4.13-1.34" stroke-miterlimit="10"/><path d="M17.12 100.93l3.44 12.45a1.34 1.34 0 001.63 1.16l16-5.23m-3.21-22.85l-.43-1.55a2.93 2.93 0 00-3.69-2.17l-5.34 1.75a3.29 3.29 0 00-2 4l.42 1.55m88.07 21.59l10.8 3.08a.28.28 0 00.34-.22l8.92-37.24a.31.31 0 00-.19-.37l-7.33-2.08m-11.85-3.37l-5.93-1.69m.57 3.69l4.57 1.3" stroke-miterlimit="10"/><path stroke-miterlimit="10" d="M123.76 78.1l4.56 1.3-7.48 31.22-8.96-2.54"/><path d="M111.79 75.38a.54.54 0 00.35.64l10.85 3.09a.49.49 0 00.59-.38l1.21-5a.54.54 0 00-.35-.65l-2.38-.68.31-1.3a.66.66 0 00-.44-.8l-4.9-1.4a.61.61 0 00-.74.47l-.31 1.3-2.39-.67a.47.47 0 00-.59.37zm-2.27 4.32l14.09 4.01m-14.46 1.22l13.27 3.78m-12.71 1.72l11.51 3.28M110.51 96l9.51 2.71m-8.91 2.81l7.71 2.19" stroke-miterlimit="10"/><path d="M28.61 72.83h1.58m1.57 0h10.47m-21.01 5.2h1.58m1.58 0h10.45m59.27-20.9h1.58m1.58 0h10.46m-6.17 5.19h1.58m1.57 0h10.47"/></g></svg>