<svg xmlns="http://www.w3.org/2000/svg" viewBox="0 0 608.2 357.94"><title>section3-item1</title><g id="fd62d7aa-64ce-464a-ad1a-f26e5a7f051b" data-name="圖層 1"><polygon points="158.84 113 244.34 55.18 66.85 55.18 158.84 113" style="fill:#27bdc0"/><rect x="105.72" width="103.64" height="60.44" style="fill:#27bdc0"/><polygon points="519.48 113 604.99 55.18 427.5 55.18 519.48 113" style="fill:#0088cd"/><rect x="466.36" width="103.64" height="60.44" style="fill:#0088cd"/><path d="M954.82,292.42l-.72,2q-4.12.08-8.54.07c-3.63,0-6.28-.8-7.95-2.42a23,23,0,0,1-2.33,3l-1.7-1.37a15.24,15.24,0,0,0,4-6.89h-3.5v-2a25.88,25.88,0,0,0,3.09-4.14h-3.48v-1.9h6v1.9a38.53,38.53,0,0,1-3,4.23h3.09v1.93a33.51,33.51,0,0,1-1.31,3.56,5.74,5.74,0,0,0,2.1,1.47,9.31,9.31,0,0,0,2.63.65c.92.1,2.56.14,4.94.14C950.38,292.54,952.58,292.5,954.82,292.42Zm-15.24-15.8-1.53,1.46a19,19,0,0,0-3.78-3.09l1.47-1.51A21.9,21.9,0,0,1,939.58,276.62Zm15.17,13.49h-6.07V292h-2.16v-1.92h-6.17v-1.82h6.17v-1.21h-5.21v-1.7h5.21v-1.25h-5.69v-1.77H944a14.67,14.67,0,0,0-.87-1.83h-2.66v-1.8h6v-1.54H941v-1.77h5.48v-1.63h2.11v1.63h5.29v1.77h-5.29v1.54h6.09v1.8h-2.59a15.89,15.89,0,0,1-.84,1.83h3v1.77h-5.56v1.25h5.11v1.7h-5.11v1.21h6.07Zm-4.88-9.58h-4.53a19.37,19.37,0,0,1,.82,1.83h2.93A16.67,16.67,0,0,0,949.87,280.53Z" transform="translate(-811.24 -240.11)" style="fill:#fff"/><path d="M976.47,294.6h-2.19v-1.18H962.19v1.18H960V274.37h16.46ZM974.28,280v-3.62H962.19V280Zm0,5.64V282H962.19v3.67Zm0,5.74v-3.8H962.19v3.8Z" transform="translate(-811.24 -240.11)" style="fill:#fff"/><path d="M989,283.85l-1.39,1.36c-.33-.68-.69-1.35-1.1-2v11.5h-2.12V284.38a15.41,15.41,0,0,1-1.77,4.17l-1.15-2.11a21.74,21.74,0,0,0,2.68-6.6h-2.42v-2.1h2.66v-4h2.12v4h2.16v2.1h-2.16v.38A31.29,31.29,0,0,1,989,283.85Zm4.73,6.33a19.62,19.62,0,0,1-3.51,4.11l-1.7-1.39a15.55,15.55,0,0,0,3.39-3.68Zm8.9-1.56h-6v6.07h-2.06v-6.07H989v-1.84h13.7Zm0-12.65h-4.1v1.38h3.53v5.29H989.65v-5.29h3.48V276H989V274.1h13.67Zm-.69,9.58H990V283.7h12Zm-8.83-4.65V279h-1.52v1.93Zm3.48-3.55V276h-1.54v1.38Zm0,3.55V279h-1.54v1.93Zm6.14,12.23-1.58,1.28a30.24,30.24,0,0,0-3.3-3.94l1.64-1.17A26.32,26.32,0,0,1,1002.75,293.13Zm-2.66-12.23V279h-1.54v1.93Z" transform="translate(-811.24 -240.11)" style="fill:#fff"/><path d="M815,401.07a36.75,36.75,0,0,1-1.77,7l-1.88-.89a35.12,35.12,0,0,0,1.69-6.65Zm-.12-4.73-2,.68a26.35,26.35,0,0,0-1.31-4.71l1.88-.72A30.15,30.15,0,0,1,814.84,396.34Zm6.22,3.48h-3.27v11.47h-2.08V399.82h-4.06v-2h4.06v-7.41h2.08v7.41h3.27Zm.62,6.77-1.92.51a33,33,0,0,0-1.19-6l1.81-.57A25.94,25.94,0,0,1,821.68,406.59Zm.19-14.45a24,24,0,0,1-1.38,4.95l-1.88-.87a23.43,23.43,0,0,0,1.29-4.72Zm5.22,8.88-1.45,1.49a24.82,24.82,0,0,0-4-4.12l1.37-1.62A26.22,26.22,0,0,1,827.09,401Zm.3-5.78-1.51,1.48a21.57,21.57,0,0,0-3.55-4l1.37-1.53A24.58,24.58,0,0,1,827.39,395.24Zm4.92,9.89-2.06.34v5.82h-2.13v-5.44l-5.62.95-.15-2.08,5.77-1V390.37h2.13v13l1.92-.3Z" transform="translate(-811.24 -240.11)" style="fill:#6d6e71"/><path d="M841.19,399l-1.3,1.77a28.45,28.45,0,0,0-4.55-3l1.25-1.84A33.1,33.1,0,0,1,841.19,399Zm.53,4.68a39.46,39.46,0,0,1-4.51,7.8l-1.72-1.41a36.26,36.26,0,0,0,4.31-7.59Zm-.29-10.06L840,395.26a22.9,22.9,0,0,0-4-3.38l1.54-1.64A25.56,25.56,0,0,1,841.43,393.65Zm15.08,11.62a20.56,20.56,0,0,1-.24,3.55,2.58,2.58,0,0,1-1,1.79,5.38,5.38,0,0,1-2.7.48,6.33,6.33,0,0,1-1.86-.18,1.87,1.87,0,0,1-.85-.7,2.6,2.6,0,0,1-.35-1.44V400.2h-2.41c0,3.43-.45,5.92-1.37,7.48a10.2,10.2,0,0,1-3.69,3.69l-1.62-1.54a9,9,0,0,0,3.52-3.4,12.39,12.39,0,0,0,1-6.23h-2.67v-9.32h12.29v9.32h-3v8.29c0,.35.16.53.48.53a9.81,9.81,0,0,0,1.77-.1c.26-.07.41-.68.46-1.84s.09-2,.09-2.41Zm-4-7.13v-5.22h-8.1v5.22Z" transform="translate(-811.24 -240.11)" style="fill:#6d6e71"/><path d="M832.53,490.84l-.6,2h-9q-5,0-7.74-2.49a24.21,24.21,0,0,1-2.29,3l-1.7-1.35a14.44,14.44,0,0,0,3.89-6.85H811.7v-1.92a27.38,27.38,0,0,0,2.93-4.16h-3.32v-1.95H817V479a26.76,26.76,0,0,1-2.74,4.24h3v1.92a26.35,26.35,0,0,1-1.12,3.5q2.39,2.21,6.81,2.2ZM817,475l-1.47,1.51a23.56,23.56,0,0,0-3.46-3l1.4-1.52A17.48,17.48,0,0,1,817,475Zm15,14H819.69v-8.82a20.45,20.45,0,0,1-1.28,1.65l-1.17-1.9a28.57,28.57,0,0,0,4-8l2.07.46a30.48,30.48,0,0,1-1.2,3h3.28a30.16,30.16,0,0,0-1.26-2.83l2-.65a23.55,23.55,0,0,1,1.45,3.48h4.14v1.88h-4.48v2h4.12v1.79h-4.12v2h4.14v1.83h-4.14v2.13H832Zm-6.85-9.69v-2h-3.41v2Zm0,3.81v-2h-3.41v2Zm0,4v-2.13h-3.41v2.13Z" transform="translate(-811.24 -240.11)" style="fill:#6d6e71"/><path d="M856.27,475.6H839.54v7.87a17.52,17.52,0,0,1-2.47,9.71l-1.8-1.21a15.25,15.25,0,0,0,2.13-8.5v-9.76h7.87a11.62,11.62,0,0,0-.91-1.25l2.33-.51c.31.53.65,1.12,1,1.76h8.57Zm.14,15.48-.65,2a24.86,24.86,0,0,1-8.08-1.8,28.68,28.68,0,0,1-7.35,1.86l-1-2a20.45,20.45,0,0,0,6-1.09,8.68,8.68,0,0,1-3.21-3.55h-1v-1.9h12.6v1.9a12.65,12.65,0,0,1-3.73,3.55A20.77,20.77,0,0,0,856.41,491.08ZM856,479.71H852.5v3.53h-9.27v-3.53h-2.88v-1.87h2.88v-1.42h2.07v1.42h5.11v-1.42h2.09v1.42H856ZM851,486.5H844.6a9,9,0,0,0,3,2.65A12.37,12.37,0,0,0,851,486.5Zm-.55-5.11v-1.68H845.3v1.68Z" transform="translate(-811.24 -240.11)" style="fill:#6d6e71"/><path d="M814.24,567.73a23.52,23.52,0,0,1-1.17,5.42l-1.83-.86a21.43,21.43,0,0,0,1.17-5.14Zm5.45-1.83-1.73.76c-.08-.42-.17-.8-.26-1.14a54.21,54.21,0,0,1-5.86,1.2l-.53-1.66a19.44,19.44,0,0,0,3.82-4.95c-1.16.22-2.25.37-3.27.46l-.26-1.89a20.56,20.56,0,0,0,3.49-6.61l1.88.87a18.52,18.52,0,0,1-2.87,5.31,14.88,14.88,0,0,0,2.23-.34c.23-.44.68-1.37,1.35-2.81l1.94.89a34.09,34.09,0,0,1-5.38,8.42,24.8,24.8,0,0,0,2.91-.69,8.21,8.21,0,0,0-.46-1.27l1.63-.7A22.22,22.22,0,0,1,819.69,565.9Zm-2.59,6.17-1.85.36a26.44,26.44,0,0,0-.48-4.68l1.73-.38A31.76,31.76,0,0,1,817.1,572.07Zm2.37-1.87-1.56.55a26.45,26.45,0,0,0-.67-3.38l1.49-.39A13.1,13.1,0,0,1,819.47,570.2Zm2.86-3.38a18.32,18.32,0,0,1-1.49,5.73l-1.7-.94a19.88,19.88,0,0,0,1.44-5.5Zm8.88-1.76H820.15v-11.3h2.93a10.4,10.4,0,0,0,.81-1.73l2.19.41a8.46,8.46,0,0,1-.61,1.32h5.74Zm-2.09-1.84v-7.64h-6.86v7.64Zm-.19-1.9-1.18,1.29c-.57-.6-1-1.05-1.3-1.34a15.56,15.56,0,0,1-1.56,1.75l-1.21-1.08a11.39,11.39,0,0,0,1.53-1.78c-.25-.25-.43-.43-.55-.53-.27.35-.68.81-1.23,1.4l-1.1-1.15a11.4,11.4,0,0,0,1.08-1.2c-.25-.19-.57-.43-1-.7l1.09-1.29a8.34,8.34,0,0,1,.81.58,13.41,13.41,0,0,0,.62-1.33l1.42.75-.78,1.51q.45.36.57.48a9.1,9.1,0,0,0,1.08-2l1.39.75a15.12,15.12,0,0,1-1.2,2.38Zm.67,8.38a7.36,7.36,0,0,1-.42,2.17,1.7,1.7,0,0,1-.83.88,6.06,6.06,0,0,1-2.17.25c-.68,0-1.24,0-1.67,0a1.82,1.82,0,0,1-1.15-.52,1.67,1.67,0,0,1-.48-1.23v-5.12h2v4.47a.49.49,0,0,0,.24.49,4.5,4.5,0,0,0,1.36.11,1.26,1.26,0,0,0,.8-.17,1.31,1.31,0,0,0,.3-.69,6.41,6.41,0,0,0,.11-1.26Zm-1.37-1.44-1.72.78a15,15,0,0,0-1.14-2.84l1.72-.66A18,18,0,0,1,828.23,568.26Zm4.3,2.64-1.68,1a24.57,24.57,0,0,0-1.77-4.76l1.67-1A23.06,23.06,0,0,1,832.53,570.9Z" transform="translate(-811.24 -240.11)" style="fill:#6d6e71"/><path d="M844.49,561.8h-1.21v9.14c0,1-.29,1.57-.87,1.82a6.89,6.89,0,0,1-2.59.41l-.64-2,.88,0a3,3,0,0,0,1.08-.11.48.48,0,0,0,.17-.42v-1.95c-.71.43-1.47.84-2.27,1.24l-.66-1.06a9.32,9.32,0,0,1-1.58,4.15l-1.65-1.15a9.17,9.17,0,0,0,1.44-5.13v-5h-1.14v-3.53h.87v-5.9h7.44v5.9h.73Zm-1.92-.36v-1.33H837.4v1.33Zm-.71-6.19v-1h-3.67v4h.94v-3Zm-.55,11.34v-3.3h-2.73v1c1,.23,1.75.44,2.3.62l-.55,1.72a17.89,17.89,0,0,0-1.75-.53c0,.82,0,1.49-.07,2C839.54,567.61,840.48,567.1,841.31,566.59Zm.55-8.32v-1.41h-1.15v1.41Zm14.38,14.48h-12V571h3.09c-.29-.79-.5-1.35-.64-1.67h-1.08v-4.56h9.69v4.56h-1.17c0,.15-.25.71-.62,1.67h2.68Zm-.16-9H844.86v-1.73h11.22Zm-.3-2.83H845.32v-7.1h2.93v-1.71H850v1.71h1.08v-1.71h1.84v1.71h2.85Zm-7.53-4.3v-1.22H847.1v1.22Zm0,2.72V558.1H847.1v1.28Zm5.06,8.37v-1.46H847.7v1.46Zm-1.37,1.59h-3.07a17,17,0,0,1,.66,1.67h1.79A13.46,13.46,0,0,0,851.94,569.34Zm-.85-12.68v-1.22H850v1.22Zm0,2.72V558.1H850v1.28Zm2.84-2.72v-1.22h-1v1.22Zm0,2.72V558.1h-1v1.28Z" transform="translate(-811.24 -240.11)" style="fill:#6d6e71"/><path d="M1300.81,280.21h-2v3.58l1.37-.72.39,2-1.76.94v6.84c0,1.61-.73,2.42-2.2,2.42-.63,0-1.24,0-1.83-.07l-.43-2c.51,0,.92.06,1.21.06q1.17,0,1.17-.57V287c-.69.29-1.38.56-2.09.81l-.55-2a17.51,17.51,0,0,0,2.64-1.07v-4.52h-2.38v-1.94h2.38v-3.94h2.08v3.94h2Zm14.09,6.58h-2.11v-1.27H1309v1.88h4.64v4.67c0,1.33-.71,2-2.13,2-.56,0-1,0-1.31,0l-.68-2a9.11,9.11,0,0,0,1.22.09c.59,0,.88-.2.88-.59v-2.29H1309v6.14h-2.07v-6.14h-2.56v4.92h-2V287.4h4.6v-1.88h-3.71v1.27h-2.06v-3.07h13.79Zm.39-7.22h-2v3h-11v-1.76h8.91v-1.22h-9.6v-1.78h9.6v-1.2h-8.91v-1.73h11v2.93h2Z" transform="translate(-811.24 -240.11)" style="fill:#fff"/><path d="M1323.76,281.87a9.06,9.06,0,0,1,2,5.33q0,3.15-3,3.15a4.88,4.88,0,0,1-.64,0l-.63-2c.25,0,.75.05,1.48.05.5,0,.75-.42.75-1.27a8.08,8.08,0,0,0-2.11-5,47.59,47.59,0,0,0,1.68-5.08h-2.16v18.32H1319V274.94h6.27V277C1324.78,278.81,1324.28,280.43,1323.76,281.87Zm15.48-.81h-14V279.4h3.43a18.26,18.26,0,0,0-.7-1.71h-1.84V276h5.09a6.71,6.71,0,0,0-.82-1.39l2.3-.43a11.47,11.47,0,0,1,.92,1.82h5.15v1.7H1337l-.78,1.71h3.07Zm0,11.47h-5.66v2.8h-2.15v-2.8h-6.23V290.8h6.23v-1.18h-4.72v-7.37h11.56v7.37h-4.69v1.18h5.66Zm-3-7.44v-1.2h-7.4v1.2Zm0,2.86v-1.28h-7.4V288Zm-1.63-10.26h-4.35l.67,1.71h2.86C1334.14,278.73,1334.41,278.15,1334.61,277.69Z" transform="translate(-811.24 -240.11)" style="fill:#fff"/><path d="M1349,277.05h-1.86a36.9,36.9,0,0,1-1.3,4.79h2.93v11.08H1347V292h-1.19v1.55H1344V286c-.18.28-.46.66-.83,1.15l-1.1-2.06a19.34,19.34,0,0,0,3.14-8h-2.72V275H1349ZM1347,290v-6.22h-1.19V290Zm8.5-1.66h-1.79a5.2,5.2,0,0,1-.23,1,9.78,9.78,0,0,1,1.76,1.95l-1.19,1.66a8.72,8.72,0,0,0-1.19-1.64,12.85,12.85,0,0,1-3.14,4.14l-1.39-1.38a9.25,9.25,0,0,0,3.43-5.69h-2.28v-1.7h2.47a18,18,0,0,0,0-2.09h-.4a10.55,10.55,0,0,1-1,1.77l-1.46-1.12a13.25,13.25,0,0,0,1.62-3.76l1.75.28a5.42,5.42,0,0,1-.28,1.16h3.09v1.67h-1.46c0,.22,0,.48,0,.78s0,.87,0,1.31h1.68Zm.2-7.29h-3.87a2.2,2.2,0,0,1-1.54-.48,2.4,2.4,0,0,1-.52-1.8v-4.36h2v1.4h3.8v1.69h-3.8v1.22c0,.44.17.65.53.65h3.43Zm8,12-.64,2c-2.77,0-4.78-.68-6-2.18a13.09,13.09,0,0,1-1.51,2.71l-1.34-1.32q2.18-2.43,2-8.83l1.63,0c0,.81,0,1.94-.07,3.37l-.12,1.76a2.16,2.16,0,0,0,.25.53,2.81,2.81,0,0,0,.63.74v-8.48h-2.34v-1.77h3a14.47,14.47,0,0,0-2.61-3l1.4-1.17q.54.44,1,.87a15.41,15.41,0,0,0,1.51-1.67h-4.24V275h6.55v1.68a21,21,0,0,1-2.59,3.05,12.54,12.54,0,0,1,.84,1.23l-.87.66h3.26a19.24,19.24,0,0,1-.88,4.45l-1.73-.55a19.07,19.07,0,0,0,.55-2.13h-1.08V287h2.54v1.81h-2.54v4A10,10,0,0,0,1363.63,293.08Z" transform="translate(-811.24 -240.11)" style="fill:#fff"/><rect x="64.61" y="123.33" width="177.34" height="74.46" style="fill:#05bab9"/><rect x="64.61" y="203.62" width="177.34" height="74.46" style="fill:#05bab9"/><rect x="64.61" y="283.49" width="177.34" height="74.45" style="fill:#05bab9"/><rect x="247.74" y="123.25" width="177.34" height="154.82" style="fill:#13849e"/><rect x="247.74" y="283.49" width="177.34" height="74.45" style="fill:#13849e"/><rect x="430.86" y="123.33" width="177.34" height="74.46" style="fill:#1f6691"/><rect x="430.86" y="203.62" width="177.34" height="74.46" style="fill:#1f6691"/><rect x="430.86" y="283.49" width="177.34" height="74.45" style="fill:#1f6691"/></g><g id="a26085a9-6c02-4d66-aceb-7b03c78231fb" data-name="圖層 8"><path d="M905.43,390.38l-.7.59a18.61,18.61,0,0,0-1.12-1.8v9.43h-.93v-8.94a27,27,0,0,1-1.75,4.16l-.52-1a23.12,23.12,0,0,0,2.25-5.86h-2.11v-.89h2.13v-3.3h.93v3.3H905V387h-1.34v1C904.25,388.71,904.86,389.53,905.43,390.38Zm10.93,5.38a7.68,7.68,0,0,1-.56,2.27,1.13,1.13,0,0,1-1,.77c-.78,0-1.64-.82-2.57-2.45a15,15,0,0,1-3.47,2.16l-.64-.72a11.27,11.27,0,0,0,3.71-2.2,12.27,12.27,0,0,1-1.08-3.23h-3.29l-.11,1.08a11.84,11.84,0,0,1,2.54,1.76l-.52.75a10.18,10.18,0,0,0-2.14-1.63,9,9,0,0,1-2.25,4.39l-.83-.58a7.73,7.73,0,0,0,2.36-5.77h-1.6v-.91h5.67a80.73,80.73,0,0,1-.58-8.67l.92,0a60.24,60.24,0,0,0,.61,8.64h1.81c0-.1-.19-.38-.43-.84l.74-.31a4.27,4.27,0,0,1,.63,1.15h1.93v.91h-4.52a9.71,9.71,0,0,0,.85,2.54,9.91,9.91,0,0,0,1.56-2.15l.7.45a12,12,0,0,1-1.92,2.51,6.82,6.82,0,0,0,.95,1.45c.38.46.68.69.89.69s.33-.15.47-.47a9.59,9.59,0,0,0,.4-2.05ZM910,390.43l-.81.23a6.1,6.1,0,0,0-.14-.82q-1.92.17-3.3.36l-.14-.65a29.5,29.5,0,0,0,1.91-2.5l-1.87.28-.24-.77a23.1,23.1,0,0,0,1.84-3.65l.81.38a29.2,29.2,0,0,1-1.6,3.06c.57-.06,1.14-.15,1.72-.27a13,13,0,0,0,.85-1.46l.77.43a30,30,0,0,1-3,4.17c.59,0,1.26-.09,2-.19a5.67,5.67,0,0,0-.38-1.21l.79-.22A12,12,0,0,1,910,390.43Zm6.23-.05-.81.25a8.5,8.5,0,0,0-.2-.85c-1,.12-2,.26-3.24.43l-.23-.77c.75-.9,1.37-1.69,1.85-2.39-.5.06-1.1.15-1.82.28l-.27-.77a22.65,22.65,0,0,0,1.8-3.53l.81.36c-.5,1.05-1,2-1.56,3l1.71-.27c.22-.33.49-.76.79-1.28l.77.4a37.71,37.71,0,0,1-2.83,4l2-.23a5.48,5.48,0,0,0-.32-1l.79-.25A16.36,16.36,0,0,1,916.18,390.38Z" transform="translate(-811.24 -240.11)" style="fill:#fff"/><path d="M934.29,389.6l-.78.6a13.83,13.83,0,0,0-1.51-1.82,78.7,78.7,0,0,1-13,1.42l-.26-.86a20,20,0,0,0,5.58-6.14l1,.32a22.42,22.42,0,0,1-4.87,5.65,60.86,60.86,0,0,0,10.79-1.24,29.9,29.9,0,0,0-2.9-2.71l.82-.62A38.52,38.52,0,0,1,934.29,389.6Zm-1.73,9h-1v-1.11H921.18v1.09h-1v-7.05h12.36Zm-1-2.07v-4H921.18v4Z" transform="translate(-811.24 -240.11)" style="fill:#fff"/><path d="M943.58,388h-5.31V398.6h-.93V383.32h6.24Zm-.9-2.81v-1.06h-4.41v1.06Zm0,2v-1.11h-4.41v1.11Zm1.45,5.71-.73.36-.26-.51-3.7.49-.24-.74a13.47,13.47,0,0,0,2.25-1.69l-2.05.28-.24-.71a9.28,9.28,0,0,0,2.37-2.14l.86.39a13,13,0,0,1-1.68,1.57l1.61-.24a5.41,5.41,0,0,0,.88-.86l.82.38a35.43,35.43,0,0,1-3.21,2.86l2-.27a2.38,2.38,0,0,0-.36-.55l.74-.33A11,11,0,0,1,944.13,392.9Zm-.57,1.64a3.87,3.87,0,0,1-.72,2.59,4.38,4.38,0,0,1-2.36,1.21l-.58-.78c1.58-.32,2.48-.93,2.68-1.82H939.8v-2.12h.86v1.31h2a3.32,3.32,0,0,0,0-.63v-.81h.88Zm6.35-1.7-.7.45-.38-.57-4.23.38-.18-.71a10.15,10.15,0,0,0,2.11-1.54l-2.06.19-.21-.66a6.85,6.85,0,0,0,2.29-2.11l.84.38a12.26,12.26,0,0,1-1.53,1.53l1.56-.16c.15-.12.41-.37.78-.74l.75.36a23.62,23.62,0,0,1-2.85,2.57l2.19-.19a2.09,2.09,0,0,0-.49-.6l.74-.41A12.11,12.11,0,0,1,949.91,392.84Zm-1.22,2.9h-2.94v2.48h-.87v-4.73h.87v1.44h2.09v-1.31h.85Zm2.75,1.8a1,1,0,0,1-.31.79,1.07,1.07,0,0,1-.72.29c-.93,0-1.5,0-1.7,0l-.4-.93a11.18,11.18,0,0,0,1.15.05,2.76,2.76,0,0,0,.94-.08.32.32,0,0,0,.14-.31V388h-5.35v-4.72h6.25Zm-.9-12.31v-1.06h-4.39v1.06Zm0,2v-1.11h-4.39v1.11Z" transform="translate(-811.24 -240.11)" style="fill:#fff"/><path d="M960.53,386.29l-.65.51a16,16,0,0,0-2-2.46,25.53,25.53,0,0,1-1.94,2.89h3.85v.82H958v2.11h2V391h-2v5.65c.6-.14,1.25-.32,2-.55l0,.84c-1.44.48-3.15.95-5.11,1.41l-.2-.86c.63-.11,1.48-.31,2.54-.6V391h-2.4v-.83h2.4v-2.11h-1.37v-.68a7.17,7.17,0,0,1-.75.8l-.57-.71a17.37,17.37,0,0,0,3.2-4.7l.77.38a.91.91,0,0,1-.17.4A14.08,14.08,0,0,1,960.53,386.29Zm-3.94,9.51-.85.19a15.62,15.62,0,0,0-.83-3.6l.83-.2A16.13,16.13,0,0,1,956.59,395.8Zm3.37-3.48a19.29,19.29,0,0,1-.67,3.19l-.79-.25a20.89,20.89,0,0,0,.62-3.26Zm10.29,5.06-.29.9a20.34,20.34,0,0,1-5.29-.41,5.35,5.35,0,0,1-2.72-1.78,12.09,12.09,0,0,1-1.73,2.57l-.69-.58a9.82,9.82,0,0,0,1.87-2.88,11,11,0,0,1-1-3.8l.84-.12a9.08,9.08,0,0,0,.58,2.71,17.07,17.07,0,0,0,.68-4.22h-2v-.83a42.57,42.57,0,0,0,1.77-4.68h-2.09v-.85h3v.85a46.16,46.16,0,0,1-1.67,4.68h1.84a19.12,19.12,0,0,1-1,6.29,4.86,4.86,0,0,0,2.09,1.68,10.14,10.14,0,0,0,3.74.55C968.73,397.46,969.43,397.43,970.25,397.38Zm0-2.59H967v1.76h-.89v-1.76h-2.51V394h2.51v-1.57H964v-.82h2.11V390.2H964v-.79h2.06v-1.74h-2.47v-.82h2.47v-1.69H964v-.77h2.06v-1.5H967v1.5h2.27v2.46h1v.82h-1v2.53H967v1.44h2.71v.82H967V394h3.25Zm-1.86-7.94v-1.69H967v1.69Zm0,2.56v-1.74H967v1.74Z" transform="translate(-811.24 -240.11)" style="fill:#fff"/><path d="M975.18,390.9a19.67,19.67,0,0,1-1.67,5.07l-.9-.39a19.58,19.58,0,0,0,1.73-4.95Zm4.67-1.3h-2.78v9h-.93v-9h-3.33v-.86h3.33V382.8h.93v5.94h2.78Zm-4.77-2.3-.9.36a14.4,14.4,0,0,0-1.32-3.22l.81-.36A14.84,14.84,0,0,1,975.08,387.3Zm4.86,6.39-.94.3a12.62,12.62,0,0,0-1.12-3.07l.83-.29A18.08,18.08,0,0,1,979.94,393.69Zm.14-9.28a18.28,18.28,0,0,1-1.31,3.36l-.86-.42a14.14,14.14,0,0,0,1.34-3.27Zm8.21,9.28-1.86.36v4.57h-.91v-4.39l-5.58,1-.13-.91,5.71-1.08V382.85h.91v10.27l1.73-.33Zm-4.07-2.2-.71.72a14.75,14.75,0,0,0-2.94-3l.68-.66A20.22,20.22,0,0,1,984.22,391.49Zm.3-4.85-.7.69a15.74,15.74,0,0,0-2.89-2.46l.62-.67A17.42,17.42,0,0,1,984.52,386.64Z" transform="translate(-811.24 -240.11)" style="fill:#fff"/><path d="M995.86,390.61l-.64.72a15,15,0,0,0-1.53-2.13v9.36h-.9v-9a20.75,20.75,0,0,1-1.76,4.12l-.67-.68a20,20,0,0,0,2.34-6.17h-2.13V386h2.22v-3.08h.9V386h1.55v.83h-1.55V388A18.88,18.88,0,0,1,995.86,390.61Zm4.76,6.37-.59.65a16.73,16.73,0,0,0-2-1.71,11.9,11.9,0,0,1-2.32,2.78l-.67-.65a11.44,11.44,0,0,0,3.13-4.45l.83.34-.58,1.22A15.83,15.83,0,0,1,1000.62,397Zm5.8-9.82-.51.79a15.25,15.25,0,0,1-5-3.73A18.71,18.71,0,0,1,996,388l-.69-.73a14.93,14.93,0,0,0,5.55-4.51l.88.32a2.12,2.12,0,0,1-.29.42A14.2,14.2,0,0,0,1006.42,387.16Zm-6.27,6.06h-3.73v-4.28h3.73Zm-.9-.86V389.8h-1.93v2.56Zm4.12-4.72h-5v-.88h5Zm2.83,10.27-.6.62a17.85,17.85,0,0,0-2.57-2.34,11.42,11.42,0,0,1-1.82,2.41l-.75-.52a12.09,12.09,0,0,0,2.7-4.5l.82.29a12.59,12.59,0,0,1-.61,1.57A17.55,17.55,0,0,1,1006.2,397.91Zm-1-4.69h-3.7v-4.28h3.7Zm-.87-.86V389.8h-2v2.56Z" transform="translate(-811.24 -240.11)" style="fill:#fff"/><path d="M1014.46,390.73l-.72.67a17.1,17.1,0,0,0-1.37-2.27v9.47h-.92v-9.05a20.08,20.08,0,0,1-2.37,4.14l-.63-.78a19.55,19.55,0,0,0,2.86-5.45h-2.43v-.88h2.57v-3.75h.92v3.75h2v.88h-2v.2A24.58,24.58,0,0,1,1014.46,390.73Zm9.88,7.21-.66.7a26.58,26.58,0,0,0-3.73-3.19,18.69,18.69,0,0,1-5.76,3.17l-.52-.76a16.14,16.14,0,0,0,9.46-7.86l.88.38a17.79,17.79,0,0,1-3.34,4.41A29.35,29.35,0,0,1,1024.34,397.94Zm-.09-12.14h-4.81a22.07,22.07,0,0,1-2.77,3.84c1-.07,2.28-.22,3.73-.44a13.12,13.12,0,0,0,1.15-1.89l.85.4a13.7,13.7,0,0,1-7.89,7.06L1014,394a12.91,12.91,0,0,0,5.69-3.76c-1.91.24-3.4.39-4.47.46l-.29-.93q1,0,3.42-3.93h-3.9v-.91h4.66c-.22-.45-.55-1-1-1.77l.89-.34a19,19,0,0,1,1.16,2.11h4.1Z" transform="translate(-811.24 -240.11)" style="fill:#fff"/><path d="M906.19,419.56h-.94v-6.47h-2.17a10.44,10.44,0,0,1-1.64,6.18l-.74-.62a9.49,9.49,0,0,0,1.46-5.56h-1.57v-.88h4.66v-2.49h-3.49v-5.55h.9v4.62h2.59v-4.94h.94Zm10-.65-.72.75a21.77,21.77,0,0,1-4.32-8,15.77,15.77,0,0,1-3.71,8l-.82-.67a15.44,15.44,0,0,0,3.79-9.43H907v-.94h3.4v-4.71h.93v4.71H916v.94h-4.46A19.65,19.65,0,0,0,916.2,418.91Zm-.85-11.65-.79.45a13.61,13.61,0,0,0-1.87-2.65l.76-.52A12.74,12.74,0,0,1,915.35,407.26Z" transform="translate(-811.24 -240.11)" style="fill:#fff"/><path d="M922.93,413.59a24.45,24.45,0,0,1-3.57,6l-.81-.55a26.27,26.27,0,0,0,3.57-5.87Zm-.12-3-.65.74a15.42,15.42,0,0,0-3.54-2.44l.65-.77A22.48,22.48,0,0,1,922.81,410.56Zm.39-4.31-.67.74a15.2,15.2,0,0,0-3.15-2.44l.58-.75A13.29,13.29,0,0,1,923.2,406.25Zm11,8.83a17.94,17.94,0,0,1-.27,3,1.71,1.71,0,0,1-.64,1.09,3.47,3.47,0,0,1-1.66.26,4,4,0,0,1-1.85-.26,1.08,1.08,0,0,1-.41-1v-7.26H927a11,11,0,0,1-.94,5.29,9.79,9.79,0,0,1-3.2,3.42l-.65-.76a7.56,7.56,0,0,0,3.88-6.88,10.16,10.16,0,0,0-.05-1.07h-2.18v-6.57H933v6.57h-2.66v7.24a.33.33,0,0,0,.22.31,4.13,4.13,0,0,0,1.12.09,3.12,3.12,0,0,0,1.08-.11.82.82,0,0,0,.3-.51,28.94,28.94,0,0,0,.26-3.15Zm-2.16-5v-4.81H924.8v4.81Z" transform="translate(-811.24 -240.11)" style="fill:#fff"/><path d="M1105.08,443l-.87.36a13.54,13.54,0,0,0-.64-1.82q-2.67,1.1-5.3,2l-.43-1a.89.89,0,0,0,.22-.6V429.09h6.39V437H1099v5.17a37.43,37.43,0,0,0,4.23-1.56q-.56-1.23-1-2.1l.82-.37A25.76,25.76,0,0,1,1105.08,443Zm-1.57-10.47V430H1099v2.47Zm0,3.59v-2.66H1099v2.66Zm9,5.24a1.11,1.11,0,0,1-.44,1,4.32,4.32,0,0,1-1.85.25c-.37,0-.78,0-1.23,0l-.29-1c1,.06,1.77.09,2.35.09.36,0,.55-.17.55-.52V430h-4.11v14.44h-.94V429.09h6Z" transform="translate(-811.24 -240.11)" style="fill:#fff"/><path d="M1120.43,443.52h-.94v-1.43H1117v1.82h-.93V429.75h4.37Zm-.94-8.11v-4.72H1117v4.72Zm0,5.75v-4.84H1117v4.84Zm11.27-9.61h-4.19v2.61h3.71v.9h-8.43v-.9h3.78v-2.61h-4.41v-.95h4.41v-2h.94v2h4.19Zm.41,6.64h-2v4.66a1.31,1.31,0,0,1-.49,1.2,4.15,4.15,0,0,1-1.91.29h-1l-.38-1q.87.06,1.53.06a2.66,2.66,0,0,0,1.13-.14.49.49,0,0,0,.24-.47v-4.62h-7v-.92h7V435.6h.92v1.67h2Zm-5.41,3.64-.81.48a14.86,14.86,0,0,0-2.33-2.75l.79-.54A18.59,18.59,0,0,1,1125.76,441.83Z" transform="translate(-811.24 -240.11)" style="fill:#fff"/><path d="M1138.34,436.18l-.71.59a20.7,20.7,0,0,0-1.11-1.8v9.43h-.93v-8.94a27.42,27.42,0,0,1-1.75,4.16l-.52-1a23.82,23.82,0,0,0,2.25-5.85h-2.11v-.9h2.13v-3.29h.93v3.29h1.33v.9h-1.33v1C1137.16,434.51,1137.76,435.32,1138.34,436.18Zm10.92,5.38a7.38,7.38,0,0,1-.56,2.27,1.14,1.14,0,0,1-1,.77c-.79,0-1.64-.82-2.58-2.45a15.29,15.29,0,0,1-3.47,2.16l-.63-.72a11.27,11.27,0,0,0,3.71-2.2,12.39,12.39,0,0,1-1.08-3.23h-3.29l-.11,1.08a11.73,11.73,0,0,1,2.54,1.76l-.52.75a10,10,0,0,0-2.15-1.63,9.09,9.09,0,0,1-2.25,4.39l-.82-.58a7.72,7.72,0,0,0,2.35-5.77h-1.6v-.91h5.67a83.77,83.77,0,0,1-.58-8.67l.92,0a61.76,61.76,0,0,0,.61,8.64h1.82c0-.1-.19-.39-.43-.84l.74-.31a4.71,4.71,0,0,1,.63,1.15h1.93v.91h-4.52a10,10,0,0,0,.84,2.54,10.55,10.55,0,0,0,1.57-2.15l.7.45a11.69,11.69,0,0,1-1.93,2.5,7.76,7.76,0,0,0,1,1.46q.58.69.9.69c.17,0,.32-.16.46-.47a8.8,8.8,0,0,0,.41-2.05Zm-6.41-5.33-.81.23a4.91,4.91,0,0,0-.14-.83c-1.27.12-2.37.24-3.29.36l-.14-.65a30,30,0,0,0,1.91-2.49l-1.88.28-.23-.77a23.4,23.4,0,0,0,1.83-3.65l.81.38a25,25,0,0,1-1.6,3.05,12.94,12.94,0,0,0,1.73-.27,13.67,13.67,0,0,0,.85-1.46l.77.43a29.53,29.53,0,0,1-3,4.18c.59,0,1.27-.1,2-.19a5.89,5.89,0,0,0-.38-1.21l.79-.22A12,12,0,0,1,1142.85,436.23Zm6.24-.05-.81.24a7.16,7.16,0,0,0-.21-.84c-1,.11-2,.26-3.23.43l-.24-.77c.76-.9,1.38-1.7,1.86-2.39-.5.06-1.11.15-1.82.28l-.27-.77a22.65,22.65,0,0,0,1.8-3.53l.81.36c-.5,1-1,2-1.57,2.95.37,0,.94-.13,1.72-.27.22-.33.48-.75.79-1.27l.77.39a39.7,39.7,0,0,1-2.83,4l2-.23a4.82,4.82,0,0,0-.33-1l.79-.24A15.74,15.74,0,0,1,1149.09,436.18Z" transform="translate(-811.24 -240.11)" style="fill:#fff"/><path d="M1167.19,435.4l-.77.59a16.29,16.29,0,0,0-1.51-1.82,78.75,78.75,0,0,1-13,1.43l-.27-.86a19.73,19.73,0,0,0,5.58-6.15l1,.33a22.32,22.32,0,0,1-4.86,5.65,61.92,61.92,0,0,0,10.79-1.24,29,29,0,0,0-2.91-2.71l.83-.62A38.41,38.41,0,0,1,1167.19,435.4Zm-1.72,9h-1v-1.12h-10.38v1.09h-1v-7h12.37Zm-1-2.07v-4h-10.38v4Z" transform="translate(-811.24 -240.11)" style="fill:#fff"/><path d="M1172.09,436.7a20.06,20.06,0,0,1-1.67,5.07l-.91-.4a19.3,19.3,0,0,0,1.73-4.95Zm4.66-1.3H1174v9H1173v-9h-3.33v-.86H1173v-6h.94v6h2.77Zm-4.77-2.31-.9.36a13.79,13.79,0,0,0-1.31-3.21l.8-.36A14.78,14.78,0,0,1,1172,433.09Zm4.86,6.39-.94.31a12.3,12.3,0,0,0-1.11-3.08l.83-.29A18.57,18.57,0,0,1,1176.84,439.48Zm.14-9.28a17.32,17.32,0,0,1-1.31,3.37l-.86-.42a13.88,13.88,0,0,0,1.35-3.27Zm8.21,9.28-1.85.36v4.57h-.92V440l-5.58,1-.12-.9,5.7-1.08V428.65h.92v10.26l1.73-.32Zm-4.07-2.19-.7.72a14.58,14.58,0,0,0-3-3l.68-.66A19.29,19.29,0,0,1,1181.12,437.29Zm.31-4.86-.7.7a15.5,15.5,0,0,0-2.9-2.46l.63-.67A16.88,16.88,0,0,1,1181.43,432.43Z" transform="translate(-811.24 -240.11)" style="fill:#fff"/><path d="M1191.84,438.38a24.34,24.34,0,0,1-3.57,6l-.81-.55a27.28,27.28,0,0,0,3.57-5.87Zm-.13-3-.65.74a15.33,15.33,0,0,0-3.53-2.44l.65-.78A22,22,0,0,1,1191.71,435.36Zm.4-4.31-.67.73a15.84,15.84,0,0,0-3.15-2.43l.58-.76A13.32,13.32,0,0,1,1192.11,431.05Zm11.05,8.83a16.62,16.62,0,0,1-.28,3,1.66,1.66,0,0,1-.63,1.09,3.63,3.63,0,0,1-1.66.26,4.17,4.17,0,0,1-1.86-.26,1.09,1.09,0,0,1-.4-1V435.7h-2.43a11.05,11.05,0,0,1-.93,5.3,9.94,9.94,0,0,1-3.2,3.41l-.65-.75a7.57,7.57,0,0,0,3.88-6.88c0-.34,0-.7,0-1.08h-2.18v-6.56h9.16v6.56h-2.66V443a.31.31,0,0,0,.23.3,3.53,3.53,0,0,0,1.12.1,2.73,2.73,0,0,0,1.07-.12.83.83,0,0,0,.31-.51c.07-.26.15-1.31.26-3.14Zm-2.17-5V430h-7.28v4.8Z" transform="translate(-811.24 -240.11)" style="fill:#fff"/><path d="M1113.07,461.27h-15.63v-.91h1.35l-.07-9.36a15.72,15.72,0,0,0,3.58-1.31l.45.81a22.34,22.34,0,0,1-3.11,1.2q0,1.19,0,2.07h2.73v.89h-2.71c0,.8,0,1.58,0,2.35h2.59v.92h-2.56v2.43h11.13c0-1.4,0-2.22,0-2.45h-2.47V457h2.49c0-.38,0-1.16,0-2.35h-2.49v-.91h2.49c0-.49,0-1,0-1.55,0-.29,0-.57,0-.82h-2.44v-.88h3.4q-.11,7.11-.19,9.86h1.36Zm-9.62,1.43a19.05,19.05,0,0,1-5.1,2.71l-.67-.79a16.25,16.25,0,0,0,5-2.49Zm1-7.06a9.79,9.79,0,0,1-1.55,4.31l-.77-.6a7.68,7.68,0,0,0,1.45-3.92Zm3.18-3.9h-3.1c-.1.71-.19,1.35-.29,1.91h3.28c-.08,3.2-.26,5.05-.54,5.53a1.55,1.55,0,0,1-1.47.73,6.82,6.82,0,0,1-.76,0l-.3-.92c.42,0,.75,0,1,0a.81.81,0,0,0,.89-.57,26.12,26.12,0,0,0,.3-3.92h-3.48c.19-1,.45-2.68.77-5l.87.09q-.06.57-.15,1.23h3Zm5.24,12.88-.68.65a28.62,28.62,0,0,0-4.94-2.54l.65-.67A30.47,30.47,0,0,1,1112.87,464.62Z" transform="translate(-811.24 -240.11)" style="fill:#fff"/><path d="M1131.24,464.19l-.21.93c-2.35,0-4.48,0-6.38-.05a14.34,14.34,0,0,1-4.3-.61A6.12,6.12,0,0,1,1118,463a12.17,12.17,0,0,1-2,2.45l-.7-.59a11.78,11.78,0,0,0,3.41-5.74h-2.79v-.89a41.34,41.34,0,0,0,2.69-3.74h-3.09v-.88h4.2v.88q-1,1.56-2.59,3.74h2.53v.89a11.41,11.41,0,0,1-1.22,3.13,5.27,5.27,0,0,0,1.44,1.06,7.51,7.51,0,0,0,1.6.6,18.55,18.55,0,0,0,2.71.28c1.28.06,2.8.09,4.55.09C1129.6,464.23,1130.44,464.22,1131.24,464.19Zm-12.11-12.06-.65.65a15.17,15.17,0,0,0-2.49-2.52l.58-.67A13.66,13.66,0,0,1,1119.13,452.13Zm11.72,10.21h-9.36v-7.68a13,13,0,0,1-1.19,1.51l-.61-.74a16.82,16.82,0,0,0,3.2-5.92l.9.23c-.3.88-.63,1.73-1,2.56H1126a14.06,14.06,0,0,0-.81-2.25l.91-.29c.41,1.05.71,1.9.91,2.54h3.71v.88h-4v2h3.65v.87h-3.65v2.14h3.65v.89h-3.65v2.39h4.21Zm-5.14-7.15v-2h-3.28v2Zm0,3v-2.14h-3.28v2.14Zm0,3.28v-2.39h-3.28v2.39Z" transform="translate(-811.24 -240.11)" style="fill:#fff"/><path d="M1149,452.05h-13v5a15.11,15.11,0,0,1-2,8.09l-.82-.6c1.26-1.95,1.89-4.76,1.89-8.4v-5h6.65a10,10,0,0,0-.88-1.34l1-.26a15,15,0,0,1,.93,1.6H1149Zm.41,12.56-.58.87a23.54,23.54,0,0,1-6-1.72,21.79,21.79,0,0,1-6.68,1.64l-.46-.94a19.47,19.47,0,0,0,6-1.23,8.9,8.9,0,0,1-3.22-3.32h-.68V459h9.11v.94a8,8,0,0,1-3.12,3.28A23.13,23.13,0,0,0,1149.36,464.61Zm-.41-9.68h-3.11v2.93h-6.46v-2.93h-2.73V454h2.73v-1.48h.94V454h4.59v-1.48h.93V454H1149Zm-3.25,5h-6.18a7.43,7.43,0,0,0,3.14,2.81A7.65,7.65,0,0,0,1145.7,459.91Zm-.79-3v-2h-4.59v2Z" transform="translate(-811.24 -240.11)" style="fill:#fff"/><path d="M1110.93,552.09h-.9v-2.84h-12.4v2.84h-.92v-3.71h6.66v-2.47h.9v2.47h6.66Zm-.76,9.52h-.93v-.81h-10.8v.81h-.94V555.1h12.67Zm-6.8-4.12V556h-4.93v1.53Zm0,2.43v-1.54h-4.93v1.54Zm-2.28-12.36-.85.52a8.86,8.86,0,0,0-1.66-1.62l.83-.5A11.74,11.74,0,0,1,1101.09,547.56Zm7.26,6.35h-9v-3.29h9Zm-.93-.88v-1.57h-7.18V553Zm1.82,4.46V556h-4.92v1.53Zm0,2.43v-1.54h-4.92v1.54Zm0-13.34a9.23,9.23,0,0,1-2.1,1.44l-.78-.7a8.31,8.31,0,0,0,2.13-1.33Z" transform="translate(-811.24 -240.11)" style="fill:#fff"/><path d="M1128.12,560.23a1.37,1.37,0,0,1-.25.89,1,1,0,0,1-.63.38,9.67,9.67,0,0,1-1.7.09c-.55,0-1.06,0-1.52-.05l-.42-.95q1.05.06,1.86.06a3.86,3.86,0,0,0,1.47-.15.5.5,0,0,0,.22-.45v-4.16h-9.81a8.9,8.9,0,0,1-2.6,5.82L1114,561a7.27,7.27,0,0,0,1.87-2.87,14.46,14.46,0,0,0,.64-4.87v-7h11.66Zm-1-5.29V551.5h-9.73c0,.62,0,1.77,0,3.44Zm0-4.39v-3.32h-9.73v3.32Z" transform="translate(-811.24 -240.11)" style="fill:#fff"/><path d="M1133.86,557.33a19.53,19.53,0,0,1-1,4.26l-.86-.29a18.16,18.16,0,0,0,1-4.17Zm4.39-1.31-.75.28a5.91,5.91,0,0,0-.26-.79,34.5,34.5,0,0,1-4.87,1.15l-.33-.87a17.43,17.43,0,0,0,3.5-4.25c-1.13.22-2.15.38-3.09.48l-.28-.86a17.09,17.09,0,0,0,3-5.35l.83.25a17,17,0,0,1-2.68,5c.78-.09,1.72-.26,2.82-.5a19.76,19.76,0,0,0,1.22-2.34l.84.36a25,25,0,0,1-4.86,7.07,24.35,24.35,0,0,0,3.64-.91,5.56,5.56,0,0,0-.44-1.21l.75-.36A15.3,15.3,0,0,1,1138.25,556Zm-2.19,4.92-.88.17a16.4,16.4,0,0,0-.55-3.73l.86-.19A16.39,16.39,0,0,1,1136.06,560.94Zm2-1.81-.85.29a13.58,13.58,0,0,0-.57-2.21l.81-.29A13,13,0,0,1,1138,559.13Zm2-2.3a15.36,15.36,0,0,1-1.46,4.19l-.79-.41a12.93,12.93,0,0,0,1.38-4Zm6.46-1.53h-7.71v-8.07h2.08c.26-.49.49-1,.68-1.39l.81.26a7.07,7.07,0,0,1-.5,1.13h4.64Zm-.9-.87v-6.32h-5.89v6.32Zm-.53-1.46-.53.67q-.69-.79-1.17-1.26A19.51,19.51,0,0,1,1142,554l-.63-.52a17.56,17.56,0,0,0,1.39-1.63,4.3,4.3,0,0,0-.81-.68,10.18,10.18,0,0,1-1.12,1.26l-.61-.58a8.72,8.72,0,0,0,1-1.19,5.55,5.55,0,0,0-.84-.6l.45-.69q.43.25.9.57a14.63,14.63,0,0,0,.77-1.36l.74.34a11.66,11.66,0,0,1-.85,1.53c.27.21.54.43.8.66a15.82,15.82,0,0,0,1.13-2.1l.72.33a14.47,14.47,0,0,1-1.2,2.34C1144.09,551.9,1144.51,552.35,1145.07,553Zm.81,5.91a5.12,5.12,0,0,1-.27,1.44,1.44,1.44,0,0,1-.66.85,4.11,4.11,0,0,1-1.66.22,4.84,4.84,0,0,1-2.08-.26,1.15,1.15,0,0,1-.42-1.06v-3.94h.92v4a.34.34,0,0,0,.32.36,6.84,6.84,0,0,0,1.09.06,3,3,0,0,0,1.32-.17,1.09,1.09,0,0,0,.41-.68,5.91,5.91,0,0,0,.17-1.26Zm-1.34-.72-.76.36a14.32,14.32,0,0,0-1.39-2.41l.83-.36A11,11,0,0,1,1144.54,558.16Zm3.35,2-.78.56a21.31,21.31,0,0,0-1.57-3.66l.74-.53A28,28,0,0,1,1147.89,560.12Z" transform="translate(-811.24 -240.11)" style="fill:#fff"/><path d="M1155.52,560.34a1.43,1.43,0,0,1-.3.92,1.25,1.25,0,0,1-1,.37h-.68l-.26-.86h1.15a.27.27,0,0,0,.19-.1.24.24,0,0,0,.1-.17V558a20.76,20.76,0,0,1-2.43,1.18l-.25-.44a8.3,8.3,0,0,1-1.18,2.83l-.71-.41a8.83,8.83,0,0,0,1.28-4.55v-3.58h4.14Zm1.2-7.56h-.86v-1h-4.81v1h-.88v-1.87h.93v-4.59h5v4.59h.63Zm-1.49-4.26v-1.36H1152v3.75h1.1v-2.39Zm-.56,8.47v-3.11h-2.47v1a20.4,20.4,0,0,1,2.17.8l-.4.78a18.57,18.57,0,0,0-1.77-.7,23,23,0,0,1-.16,2.59A21.08,21.08,0,0,0,1154.67,557Zm.54-6.08v-1.58h-1.31v1.58Zm10.41,10.34h-9v-.84h2.75a8.51,8.51,0,0,0-.67-1.89h-.9v-3h6.84v3h-1.06c-.29.76-.55,1.39-.77,1.89h2.83Zm-.11-6.75H1157v-.82h8.54Zm-.4-2h-7.58v-5.11h2.27v-1.48h.79v1.48h1.49v-1.48h.8v1.48h2.23Zm-5.31-3v-1.36h-1.48v1.36Zm0,2.2v-1.45h-1.48v1.45Zm3.92,6v-1.35h-5v1.35Zm-1.15.81h-2.93l.67,1.89h1.51A16,16,0,0,0,1162.57,558.52Zm-.49-9v-1.36h-1.49v1.36Zm0,2.2v-1.45h-1.49v1.45Zm2.22-2.2v-1.36h-1.42v1.36Zm0,2.2v-1.45h-1.42v1.45Z" transform="translate(-811.24 -240.11)" style="fill:#fff"/><path d="M1181.42,561.63h-1v-1.2h-9.35v1.2h-1V546.32h11.29Zm-1-10.91v-3.49h-9.35v3.49Zm0,4.31V551.7h-9.35V555Zm0,4.46V556h-9.35v3.47Z" transform="translate(-811.24 -240.11)" style="fill:#fff"/><path d="M1191.53,553.75l-.7.61a11.49,11.49,0,0,0-1.42-2.35v9.6h-.92v-8.74a28.12,28.12,0,0,1-1.94,3.76l-.65-.76a18.71,18.71,0,0,0,2.5-5.43h-2.28v-.89h2.37v-3.67h.92v3.67h1.82v.89h-1.82v.21A16.67,16.67,0,0,1,1191.53,553.75Zm3.42,4.65a15.88,15.88,0,0,1-3.2,2.83l-.63-.71a13.6,13.6,0,0,0,3.13-2.74Zm6.72-1.6H1197v4.81h-.94V556.8h-4.76v-.87h10.34Zm0-9.67h-3.29v1.36h2.75v3.93H1192v-3.93h2.71v-1.36h-3.21v-.89h10.18Zm-.61,7.4h-8.93v-.85H1201Zm-6.36-2.95v-2.25h-1.79v2.25Zm2.76-3.09v-1.36h-1.83v1.36Zm0,3.09v-2.25h-1.83v2.25Zm4.32,9-.67.64a19.38,19.38,0,0,0-3-2.74l.62-.65A24.68,24.68,0,0,1,1201.74,560.58Zm-1.55-11.25h-1.85v2.25h1.85Z" transform="translate(-811.24 -240.11)" style="fill:#fff"/><path d="M1111.61,578.49H1096v-.91h1.35l-.07-9.36a16.4,16.4,0,0,0,3.58-1.31l.45.8a21.17,21.17,0,0,1-3.11,1.21c0,.78,0,1.47,0,2.06h2.73v.89h-2.72c0,.8,0,1.59,0,2.36h2.6v.92h-2.56v2.43h11.12q.06-2.1.06-2.46H1107v-.89h2.49c0-.38,0-1.17,0-2.36H1107V571h2.48c0-.5.06-1,.06-1.55,0-.3,0-.57,0-.83H1107v-.88h3.41c-.07,4.75-.14,8-.19,9.87h1.35Zm-9.61,1.42a19.14,19.14,0,0,1-5.11,2.72l-.66-.79a16.09,16.09,0,0,0,5-2.5Zm1-7a9.75,9.75,0,0,1-1.54,4.3l-.78-.59a7.71,7.71,0,0,0,1.46-3.92Zm3.18-3.91h-3.09c-.1.72-.2,1.35-.29,1.91h3.28c-.08,3.21-.26,5-.54,5.54a1.56,1.56,0,0,1-1.47.73l-.76,0-.31-.92,1,0a.81.81,0,0,0,.89-.56,26.84,26.84,0,0,0,.29-3.92h-3.48c.2-1,.46-2.69.78-5l.87.09q-.08.58-.15,1.23h3Zm5.24,12.89-.67.65a28.28,28.28,0,0,0-4.94-2.54l.65-.68A29.81,29.81,0,0,1,1111.41,581.84Z" transform="translate(-811.24 -240.11)" style="fill:#fff"/><path d="M1129.79,581.41l-.21.92q-3.52,0-6.39-.05a14.32,14.32,0,0,1-4.29-.6,6.23,6.23,0,0,1-2.37-1.51,11.86,11.86,0,0,1-2,2.44l-.71-.59a11.83,11.83,0,0,0,3.42-5.74h-2.79v-.88a41.68,41.68,0,0,0,2.69-3.75H1114v-.88h4.2v.88c-.67,1.05-1.54,2.29-2.59,3.75h2.53v.88a11.61,11.61,0,0,1-1.22,3.13,5.27,5.27,0,0,0,1.44,1.06,6.84,6.84,0,0,0,1.6.6,15.94,15.94,0,0,0,2.71.28c1.28.06,2.8.09,4.55.09C1128.14,581.44,1129,581.43,1129.79,581.41Zm-12.11-12.06-.65.65a15.24,15.24,0,0,0-2.5-2.52l.59-.67A13.37,13.37,0,0,1,1117.68,569.35Zm11.72,10.2H1120v-7.68a12.31,12.31,0,0,1-1.18,1.51l-.61-.73a17,17,0,0,0,3.2-5.93l.9.24c-.3.88-.64,1.73-1,2.56h3.18a14.06,14.06,0,0,0-.81-2.25l.9-.29c.41,1,.72,1.89.92,2.54h3.71v.88h-4v2h3.65v.87h-3.65v2.13h3.65v.89h-3.65v2.39h4.21Zm-5.15-7.14v-2H1121v2Zm0,3v-2.13H1121v2.13Zm0,3.28V576.3H1121v2.39Z" transform="translate(-811.24 -240.11)" style="fill:#fff"/><path d="M1147.49,569.26h-13v5a15.22,15.22,0,0,1-2,8.09l-.82-.6q1.89-2.94,1.89-8.4v-5h6.64a8.48,8.48,0,0,0-.88-1.35l1.05-.25c.37.58.68,1.11.93,1.6h6.16Zm.41,12.56-.58.87a23.09,23.09,0,0,1-6-1.71,21.87,21.87,0,0,1-6.68,1.63l-.47-.93a19.44,19.44,0,0,0,6-1.24,8.91,8.91,0,0,1-3.23-3.31h-.67v-.94h9.1v.94a8,8,0,0,1-3.11,3.28A23.68,23.68,0,0,0,1147.9,581.82Zm-.41-9.68h-3.1v2.93h-6.46v-2.93h-2.73v-.88h2.73v-1.48h.94v1.48h4.59v-1.48h.93v1.48h3.1Zm-3.24,5h-6.18a7.35,7.35,0,0,0,3.14,2.8A7.63,7.63,0,0,0,1144.25,577.13Zm-.79-3v-2h-4.59v2Z" transform="translate(-811.24 -240.11)" style="fill:#fff"/><path d="M905.8,479.79a10.49,10.49,0,0,1-1.44,4.08l-.81-.56a7.06,7.06,0,0,0,1.12-2.59h-2v7.4a1.22,1.22,0,0,1-.41.89c-.28.27-1.12.37-2.55.31l-.26-.91c1.14,0,1.77,0,1.89,0a.49.49,0,0,0,.32-.2.52.52,0,0,0,.14-.33v-7.14h-2.83v-.93h3.93a20.29,20.29,0,0,0-3.29-2.78l.5-.7c.4.26,1,.69,1.78,1.31a16.78,16.78,0,0,0,2.13-2.46h-4.61v-.88h5.76v.88a29.45,29.45,0,0,1-2.56,3.06,9.1,9.1,0,0,1,1.17,1.19l-.31.38Zm8.8-4.81h-4A16.14,16.14,0,0,1,910,477h3.71v8.76H909l.57.57a14.61,14.61,0,0,1-3.77,3.15l-.61-.8a13,13,0,0,0,3.64-2.92h-2.31V477h2.5a12.33,12.33,0,0,0,.6-2.06h-3.73v-.92h8.68Zm-1.79,4.59v-1.64h-5.34v1.64Zm0,2.61v-1.74h-5.34v1.74Zm0,2.71V483h-5.34v1.86Zm1.73,3.79-.59.74a17.94,17.94,0,0,0-3.41-2.4l.59-.7A21.12,21.12,0,0,1,914.54,488.68Z" transform="translate(-811.24 -240.11)" style="fill:#fff"/><path d="M932.58,488.08l-.22.93c-1.14,0-2,.05-2.67.05a26.12,26.12,0,0,1-4.49-.3,7.85,7.85,0,0,1-2.92-1.16,6.13,6.13,0,0,1-2-2.09,16.15,16.15,0,0,1-2.8,3.87l-.74-.7a14.26,14.26,0,0,0,3.89-7.28l1,.11a26,26,0,0,1-.87,2.92,5.75,5.75,0,0,0,3.88,3.19v-7.78h-5.43v-1h11.24v1h-4.83v3h5.8v.93h-5.8v4.06c1.73.17,3.49.26,5.28.26Zm-.55-8.91h-.95v-2.75H918.53v2.73h-1V475.5h6.75a8.72,8.72,0,0,0-.7-1.73l.95-.2a9,9,0,0,1,.73,1.93H932Z" transform="translate(-811.24 -240.11)" style="fill:#fff"/><path d="M941.9,479.5h-5.3v9.79h-.93V474.1h6.23Zm-.94-3.19V475H936.6v1.35Zm0,2.32v-1.47H936.6v1.47Zm7,6.05H945.1v4.23h-.93v-4.23h-2.73a5.91,5.91,0,0,1-2.23,4.32l-.91-.52a5.42,5.42,0,0,0,2.22-3.8H937.6v-.89h3v-2.08h-2.38v-.86h9v.86H945.1v2.08H948Zm-3.78-.89v-2.08h-2.64v2.08Zm5.64,4.17a1.13,1.13,0,0,1-.43,1,3.05,3.05,0,0,1-1.53.27c-.3,0-.63,0-1,0l-.36-.94a18.54,18.54,0,0,0,2,.07.36.36,0,0,0,.4-.4V479.5h-5.26v-5.4h6.2Zm-.94-11.65V475h-4.3v1.35Zm0,2.32v-1.47h-4.3v1.47Z" transform="translate(-811.24 -240.11)" style="fill:#fff"/><path d="M968.67,488.55H952.93v-.93h7.37V475.36h-6.61v-1h14.15v1h-6.56v12.26h7.39Z" transform="translate(-811.24 -240.11)" style="fill:#fff"/><path d="M984.58,489.44h-1v-1.59h-9.5v1.59h-1V474.05h11.55Zm-1-9.06V475h-9.5v5.37Zm0,6.5v-5.55h-9.5v5.55Z" transform="translate(-811.24 -240.11)" style="fill:#fff"/><path d="M995,482.57l-.65.72a12.44,12.44,0,0,0-1.54-2.25v8.34h-.94V481a25.14,25.14,0,0,1-2.43,4.45l-.63-.74a24.77,24.77,0,0,0,3-5.76h-2.92v-.91h3v-2.66l-2.2.41-.49-.89a19.45,19.45,0,0,0,5.21-1.24l.55.83c-.88.29-1.59.52-2.13.68v2.87H995V479h-2.13v.74A16.82,16.82,0,0,1,995,482.57Zm9.54,6.37H994.45v-.87h4.62v-2.76h-4v-.9h4V481.8c-1.92.12-3.11.19-3.56.2l-.43-.92a40.71,40.71,0,0,0,8.57-.95l.6.81c-1.2.28-2.61.53-4.22.75v2.72h3.86v.9H1000v2.76h4.55Zm-1.15-9.86H995.7v-4.91h7.73Zm-1-.91v-3.1h-5.81v3.1Z" transform="translate(-811.24 -240.11)" style="fill:#fff"/><path d="M914.61,554.58h-8.09a14.06,14.06,0,0,1-2.61,1.89v2.32a27.13,27.13,0,0,0,3.74-.9v.94c-1.74.48-3.32.85-4.73,1.09l-.31-.82a.54.54,0,0,0,.36-.54V557a17.65,17.65,0,0,1-3.4,1.28l-.5-.86a15.92,15.92,0,0,0,6.11-2.87h-6.25v-.88h7.62c-.08-.17-.2-.37-.34-.61l.86-.35c.15.26.31.58.49,1h7.05Zm-5.37-6.3H904.7v1h3.61v2a1,1,0,0,1-.27.65.75.75,0,0,1-.57.31l-1.77,0-.28-.87.78,0a3.09,3.09,0,0,0,1-.09.4.4,0,0,0,.17-.36v-.84H904.7v2.78h-.94v-2.78H900.9v2.14H900v-3h3.81v-1H899v-.86h4.79v-1.1h-3a4.12,4.12,0,0,1-.54.7l-.86-.39a6.86,6.86,0,0,0,1.51-2.36l.86.28c-.19.41-.34.73-.46.94h2.44v-1.25h.94v1.25h3.8v.83h-3.8v1.1h4.54Zm5.34,10.92L914,560q-4.56-1.59-6.06-4.6l.83-.34a7.48,7.48,0,0,0,1.52,1.87,10.68,10.68,0,0,0,2.8-1.89l.72.6a13,13,0,0,1-2.75,1.89A13.11,13.11,0,0,0,914.58,559.2Zm-3.33-9.08h-1v-5h1Zm2.88,1.08a1.14,1.14,0,0,1-.5,1,6.88,6.88,0,0,1-3,.26l-.28-.93h2.11c.35,0,.57,0,.65-.16a.56.56,0,0,0,.13-.33v-6.8h.92Z" transform="translate(-811.24 -240.11)" style="fill:#fff"/><path d="M932.68,549.25l-.44.92a17.25,17.25,0,0,1-7.39-4.64,21.49,21.49,0,0,1-7.48,4.66l-.56-.87a19,19,0,0,0,8.06-5.23l1,.32c-.1.12-.22.26-.37.41A14.56,14.56,0,0,0,932.68,549.25ZM931,552.64a36,36,0,0,1-5.39,4.84,30,30,0,0,1,2.71,1.8l-.61.74a34.36,34.36,0,0,0-6.79-3.84l.52-.81c.34.14,1.42.67,3.24,1.6a31.86,31.86,0,0,0,5-4.33H918.22v-.93H931Zm-3.14-3.16h-6.15v-.93h6.15Z" transform="translate(-811.24 -240.11)" style="fill:#fff"/><path d="M950.53,555.85H934.9v-.91h1.35l-.07-9.36a15.89,15.89,0,0,0,3.58-1.31l.45.81a22.34,22.34,0,0,1-3.11,1.2q0,1.19,0,2.07h2.73v.89h-2.72c0,.8,0,1.58,0,2.35h2.6v.92h-2.56v2.43h11.13c0-1.4.05-2.22.05-2.45h-2.47v-.9h2.49c0-.38,0-1.16,0-2.35h-2.48v-.91h2.48c0-.49.06-1,.06-1.55,0-.29,0-.57,0-.82H946v-.88h3.4q-.11,7.11-.19,9.86h1.36Zm-9.62,1.43A19.11,19.11,0,0,1,935.8,560l-.66-.79a16.25,16.25,0,0,0,5-2.49Zm1-7.06a9.79,9.79,0,0,1-1.54,4.31l-.78-.6A7.59,7.59,0,0,0,941,550Zm3.19-3.9H942c-.1.71-.19,1.35-.29,1.91H945c-.08,3.2-.26,5-.54,5.53a1.55,1.55,0,0,1-1.47.73,6.82,6.82,0,0,1-.76,0l-.31-.92c.43,0,.76,0,1,0a.81.81,0,0,0,.89-.57,26.84,26.84,0,0,0,.29-3.92H940.6c.2-1,.46-2.68.78-5l.87.09q-.06.57-.15,1.23h3Zm5.23,12.88-.67.65a29,29,0,0,0-4.94-2.54l.65-.67A29.89,29.89,0,0,1,950.32,559.2Z" transform="translate(-811.24 -240.11)" style="fill:#fff"/><path d="M968.56,559.17l-.46.92a20.92,20.92,0,0,1-7.35-3.31,20.9,20.9,0,0,1-7.31,3.31l-.54-.94a19.13,19.13,0,0,0,7.13-3,18,18,0,0,1-3.06-4.25l.88-.43a17.08,17.08,0,0,0,2.92,4,21.68,21.68,0,0,0,3.11-4l.88.45a24.14,24.14,0,0,1-3.24,4.19A19.3,19.3,0,0,0,968.56,559.17Zm-9.67-10.58a24.69,24.69,0,0,1-5.12,4.84l-.67-.76a23.33,23.33,0,0,0,5.06-4.66Zm9.53-1.39H953.15v-.93h7.44a5.71,5.71,0,0,0-.87-1.79l.94-.36a12.49,12.49,0,0,1,1,2.15h6.79Zm-.06,5.6-.74.66a28.07,28.07,0,0,0-5-4.77l.69-.68A28.28,28.28,0,0,1,968.36,552.8Z" transform="translate(-811.24 -240.11)" style="fill:#fff"/><path d="M979.63,547.13h-1.57v7.41h1.37v.88H971v-.88h1.8v-7.41h-1.53v-.88h1.53v-2h1v2h3.4v-2h.95v2h1.57Zm-5,9.39a15.41,15.41,0,0,1-2.66,3.35l-.77-.65a16,16,0,0,0,2.66-3.23Zm2.47-7.59v-1.8h-3.4v1.8Zm0,2.77v-1.87h-3.4v1.87Zm0,2.84v-2h-3.4v2Zm1.19,3.71-.77.61a11.06,11.06,0,0,0-1.59-2.21l.68-.59A12.51,12.51,0,0,1,978.3,558.25Zm7.58.5a1.06,1.06,0,0,1-.43.91,3,3,0,0,1-1.64.31c-.31,0-.63,0-1-.05l-.34-1c.62,0,1.13.08,1.54.08.6,0,.89-.16.89-.48V554.2h-3.69a11.65,11.65,0,0,1-2,5.79l-.81-.62a8.41,8.41,0,0,0,1.57-3.2,22.33,22.33,0,0,0,.45-5.1V544.6h5.44Zm-.94-5.44v-3.45h-3.58c0,1.07,0,2.22-.05,3.45Zm0-4.35v-3.43h-3.56V549Z" transform="translate(-811.24 -240.11)" style="fill:#fff"/><path d="M1004.76,558.75l-.27.93H998q-4.62,0-6.46-2.09a13.53,13.53,0,0,1-2,2.45l-.73-.63a10.69,10.69,0,0,0,3.36-5.91h-2.92v-1c.92-1.08,1.83-2.29,2.74-3.6h-3v-.9H993v.86c-.82,1.2-1.73,2.43-2.73,3.71h2.78v.88a16.49,16.49,0,0,1-1.11,3.22,4.94,4.94,0,0,0,2,1.5,9.47,9.47,0,0,0,3.64.53Zm-12.17-12-.68.72a12.17,12.17,0,0,0-2.48-2.61l.69-.66A18.14,18.14,0,0,1,992.59,546.71Zm12,9.55h-4.88v1.94h-.93v-1.94h-4.94v-.89h4.94V554h-3.88v-.86h3.88v-1.39h-4.5v-.87h2.56a11.21,11.21,0,0,0-.81-1.66h-2.15v-.88h4.88v-1.66h-4.32v-.86h4.32v-1.55h.93v1.55h4.19v.86H999.7v1.66h4.84v.88h-2.18a13.8,13.8,0,0,1-.84,1.66h2.66v.87h-4.46v1.39h3.87V554h-3.87v1.41h4.88Zm-3.28-7.08h-4.21a12.37,12.37,0,0,1,.72,1.66h2.66A7.32,7.32,0,0,0,1001.32,549.18Z" transform="translate(-811.24 -240.11)" style="fill:#fff"/><path d="M1022.56,556.45A8.41,8.41,0,0,1,1022,559c-.3.69-.66,1-1.09,1s-1-.38-1.63-1.16a7.53,7.53,0,0,1-1.38-2.4,25.7,25.7,0,0,1-4.28,3.52l-.71-.74a20.49,20.49,0,0,0,4.59-3.82,35.72,35.72,0,0,1-1.11-7.32h-6.66v2.44h4.81c0,1.49-.09,2.81-.22,4a6.83,6.83,0,0,1-.42,2.14,1.6,1.6,0,0,1-.65.64,3.61,3.61,0,0,1-1.59.23c-.24,0-.54,0-.89,0l-.3-1a7.34,7.34,0,0,0,1.22.1,2.7,2.7,0,0,0,1-.12,1.14,1.14,0,0,0,.4-.3,5.83,5.83,0,0,0,.34-1.69,24,24,0,0,0,.19-3h-3.88a19.22,19.22,0,0,1-2.11,8.57l-.74-.67a18.05,18.05,0,0,0,1.93-8.86v-3.35h7.48c0-1.31-.07-2.32-.07-3h.95c0,.92,0,1.93.08,3h5v.93h-4.93a31.66,31.66,0,0,0,.89,6.46,17.2,17.2,0,0,0,2.44-5l1,.31a22.77,22.77,0,0,1-3,5.81,7.5,7.5,0,0,0,1.25,2.32c.5.62.83.93,1,.93s.36-.34.55-1a7.83,7.83,0,0,0,.27-2Zm-1-10-.81.58a10.74,10.74,0,0,0-2.07-1.89l.76-.62A9.33,9.33,0,0,1,1021.59,546.41Z" transform="translate(-811.24 -240.11)" style="fill:#fff"/><path d="M904.55,580.94h-.93v-6.48h-2.18c0,2.72-.58,4.78-1.64,6.18l-.73-.61a9.58,9.58,0,0,0,1.46-5.57H899v-.88h4.67V571.1h-3.5v-5.55H901v4.62h2.59v-4.94h.93Zm10-.66-.72.76a21.77,21.77,0,0,1-4.31-8,15.89,15.89,0,0,1-3.71,8l-.82-.67a15.5,15.5,0,0,0,3.79-9.43H905.4V570h3.4v-4.71h.94V570h4.62V571H909.9A19.61,19.61,0,0,0,914.56,580.28Zm-.84-11.64-.79.44a14.51,14.51,0,0,0-1.88-2.64l.76-.53A13.22,13.22,0,0,1,913.72,568.64Z" transform="translate(-811.24 -240.11)" style="fill:#fff"/><path d="M921.29,575a24.66,24.66,0,0,1-3.56,6l-.81-.55a27.28,27.28,0,0,0,3.57-5.87Zm-.12-3-.65.74a15.33,15.33,0,0,0-3.53-2.44l.65-.78A22.46,22.46,0,0,1,921.17,571.94Zm.4-4.31-.67.73a15.65,15.65,0,0,0-3.16-2.43l.58-.76A13.19,13.19,0,0,1,921.57,567.63Zm11,8.83a16,16,0,0,1-.27,3,1.66,1.66,0,0,1-.63,1.09,3.63,3.63,0,0,1-1.66.26,4.17,4.17,0,0,1-1.86-.26,1.09,1.09,0,0,1-.4-1v-7.26h-2.43a11.17,11.17,0,0,1-.93,5.3,10,10,0,0,1-3.21,3.41l-.65-.75a7.58,7.58,0,0,0,3.89-6.88c0-.34,0-.69-.05-1.08h-2.18v-6.56h9.16v6.56h-2.66v7.25a.31.31,0,0,0,.23.3,3.5,3.5,0,0,0,1.11.1,2.76,2.76,0,0,0,1.08-.12.82.82,0,0,0,.3-.51,30.13,30.13,0,0,0,.27-3.14Zm-2.16-5v-4.8h-7.28v4.8Z" transform="translate(-811.24 -240.11)" style="fill:#fff"/><path d="M1275.07,393.62c-.11,2.08-.34,3.34-.69,3.79a2.12,2.12,0,0,1-1.6.77q-1.1.09-6.26.09c-1.54,0-2.66,0-3.34,0a2,2,0,0,1-1.47-.49,2.08,2.08,0,0,1-.43-1.44v-8.88h1v2.28h10.47v-5.38h-12.58v-1h13.54v7.29h-11.43v6a.71.71,0,0,0,.18.47.69.69,0,0,0,.44.25c.17,0,1.16,0,3,0a54.07,54.07,0,0,0,7.46-.24c.48-.16.75-1.44.79-3.83Z" transform="translate(-811.24 -240.11)" style="fill:#fff"/><path d="M1284.55,388.72h-5.31v9.79h-.92V383.32h6.23Zm-.94-3.18v-1.35h-4.37v1.35Zm0,2.32v-1.48h-4.37v1.48Zm7,6.05h-2.85v4.22h-.93v-4.22h-2.73a5.87,5.87,0,0,1-2.24,4.31l-.9-.52a5.35,5.35,0,0,0,2.21-3.79h-2.91V393h3v-2.07h-2.37v-.87h9v.87h-2.15V393h2.85Zm-3.78-.9v-2.07h-2.65V393Zm5.63,4.17a1.12,1.12,0,0,1-.42,1,3,3,0,0,1-1.53.28l-1,0-.36-.95a16.09,16.09,0,0,0,2,.07.35.35,0,0,0,.39-.4v-8.46h-5.25v-5.4h6.19Zm-.94-11.64v-1.35h-4.3v1.35Zm0,2.32v-1.48h-4.3v1.48Z" transform="translate(-811.24 -240.11)" style="fill:#fff"/><path d="M1311.31,397.77h-15.73v-.93H1303V384.58h-6.61v-1h14.15v1h-6.57v12.26h7.39Z" transform="translate(-811.24 -240.11)" style="fill:#fff"/><path d="M1320.59,388h-5.31V398.6h-.92V383.32h6.23Zm-.9-2.81v-1.06h-4.41v1.06Zm0,2v-1.11h-4.41v1.11Zm1.45,5.71-.73.36-.25-.51-3.71.49-.24-.74a12.7,12.7,0,0,0,2.25-1.69l-2,.28-.23-.71a9.4,9.4,0,0,0,2.36-2.14l.86.39a13,13,0,0,1-1.68,1.57l1.61-.24a5.41,5.41,0,0,0,.88-.86l.83.38a35.24,35.24,0,0,1-3.22,2.86l2-.27a3.27,3.27,0,0,0-.36-.55l.73-.33A10.21,10.21,0,0,1,1321.14,392.9Zm-.57,1.64a3.87,3.87,0,0,1-.72,2.59,4.34,4.34,0,0,1-2.36,1.21l-.58-.78c1.59-.32,2.48-.93,2.68-1.82h-2.78v-2.12h.86v1.31h2a3.48,3.48,0,0,0,0-.63v-.81h.88Zm6.35-1.7-.7.45-.38-.57-4.22.38-.19-.71a10.15,10.15,0,0,0,2.11-1.54l-2.06.19-.21-.66a6.85,6.85,0,0,0,2.29-2.11l.84.38a12.26,12.26,0,0,1-1.53,1.53l1.57-.16c.14-.12.4-.37.77-.74l.76.36a24.59,24.59,0,0,1-2.86,2.57l2.2-.19a2.33,2.33,0,0,0-.5-.6l.74-.41A12.11,12.11,0,0,1,1326.92,392.84Zm-1.22,2.9h-2.93v2.48h-.87v-4.73h.87v1.44h2.08v-1.31h.85Zm2.75,1.8a1,1,0,0,1-1,1.08c-.94,0-1.51,0-1.71,0l-.4-.93a11.37,11.37,0,0,0,1.16.05,2.72,2.72,0,0,0,.93-.08.33.33,0,0,0,.15-.31V388h-5.35v-4.72h6.24Zm-.89-12.31v-1.06h-4.4v1.06Zm0,2v-1.11h-4.4v1.11Z" transform="translate(-811.24 -240.11)" style="fill:#fff"/><path d="M1337.54,386.29l-.65.51a16,16,0,0,0-2.05-2.46,25.53,25.53,0,0,1-1.94,2.89h3.85v.82H1335v2.11h2V391h-2v5.65c.6-.14,1.25-.32,2-.55l0,.84q-2.18.72-5.12,1.41l-.2-.86c.64-.11,1.48-.31,2.54-.6V391h-2.39v-.83h2.39v-2.11h-1.37v-.68a7.17,7.17,0,0,1-.75.8l-.56-.71a17.59,17.59,0,0,0,3.19-4.7l.77.38a.91.91,0,0,1-.17.4A14.08,14.08,0,0,1,1337.54,386.29Zm-3.94,9.51-.85.19a15.61,15.61,0,0,0-.82-3.6l.82-.2A15.6,15.6,0,0,1,1333.6,395.8Zm3.37-3.48a19.29,19.29,0,0,1-.67,3.19l-.79-.25a20.89,20.89,0,0,0,.62-3.26Zm10.29,5.06-.29.9a20.38,20.38,0,0,1-5.29-.41,5.35,5.35,0,0,1-2.72-1.78,12.09,12.09,0,0,1-1.73,2.57l-.69-.58a9.82,9.82,0,0,0,1.87-2.88,11.18,11.18,0,0,1-1-3.8l.84-.12a9.08,9.08,0,0,0,.58,2.71,17.07,17.07,0,0,0,.68-4.22h-1.94v-.83a44.5,44.5,0,0,0,1.76-4.68h-2.09v-.85h3v.85a43.84,43.84,0,0,1-1.67,4.68h1.84a18.86,18.86,0,0,1-1.05,6.29,4.83,4.83,0,0,0,2.1,1.68,10,10,0,0,0,3.73.55C1345.74,397.46,1346.44,397.43,1347.26,397.38Zm0-2.59H1344v1.76h-.9v-1.76h-2.51V394h2.51v-1.57H1341v-.82h2.11V390.2H1341v-.79h2.06v-1.74h-2.47v-.82h2.47v-1.69H1341v-.77h2.06v-1.5h.9v1.5h2.26v2.46h1v.82h-1v2.53H1344v1.44h2.7v.82H1344V394h3.24Zm-1.85-7.94v-1.69H1344v1.69Zm0,2.56v-1.74H1344v1.74Z" transform="translate(-811.24 -240.11)" style="fill:#fff"/><path d="M1352.19,390.9a19.67,19.67,0,0,1-1.67,5.07l-.9-.39a19.58,19.58,0,0,0,1.73-4.95Zm4.67-1.3h-2.78v9h-.93v-9h-3.33v-.86h3.33V382.8h.93v5.94h2.78Zm-4.77-2.3-.9.36a13.5,13.5,0,0,0-1.32-3.22l.81-.36A14.84,14.84,0,0,1,1352.09,387.3Zm4.86,6.39-.94.3a12.21,12.21,0,0,0-1.12-3.07l.84-.29A17.9,17.9,0,0,1,1357,393.69Zm.14-9.28a17.59,17.59,0,0,1-1.31,3.36l-.86-.42a13.71,13.71,0,0,0,1.34-3.27Zm8.21,9.28-1.86.36v4.57h-.91v-4.39l-5.58,1-.13-.91,5.71-1.08V382.85h.91v10.27l1.73-.33Zm-4.07-2.2-.7.72a14.84,14.84,0,0,0-3-3l.68-.66A20.22,20.22,0,0,1,1361.23,391.49Zm.31-4.85-.71.69a15.41,15.41,0,0,0-2.89-2.46l.62-.67A17.86,17.86,0,0,1,1361.54,386.64Z" transform="translate(-811.24 -240.11)" style="fill:#fff"/><path d="M1374.38,390.13h-2.78v6.75h1.65v-5.46h.94v7.07h-.94v-.73h-5.09v-6.34h.88v5.46h1.66v-6.75h-3.14v-.86h3.14V386h-1.21a9.33,9.33,0,0,1-1.19,2.36l-.75-.52a15.24,15.24,0,0,0,1.92-5.14l.92.28c-.28,1.09-.47,1.8-.58,2.12h4.29v.9h-2.5v3.23h2.78Zm8.85,1.34h-4.83a9.89,9.89,0,0,1-3,7.09l-.7-.64a8.46,8.46,0,0,0,2-2.65,12.41,12.41,0,0,0,.87-3.8h-2.65v-.91h2.68c.06-1.33.09-2.65.09-4h-2.44v-.89h2.44v-2.85h.94v2.85h3v4.86h1.64Zm-2.56-.91v-4h-2.12c0,1.8,0,3.12-.09,4Zm2.57,7.52-.75.54a24,24,0,0,0-3.51-5.28l.76-.51A22.83,22.83,0,0,1,1383.24,398.08Z" transform="translate(-811.24 -240.11)" style="fill:#fff"/><path d="M1262.19,411.9a19.67,19.67,0,0,1-1.67,5.07l-.9-.39a19.58,19.58,0,0,0,1.73-4.95Zm4.67-1.3h-2.78v9h-.93v-9h-3.33v-.86h3.33V403.8h.93v5.94h2.78Zm-4.77-2.3-.9.36a13.5,13.5,0,0,0-1.32-3.22l.81-.36A14.84,14.84,0,0,1,1262.09,408.3Zm4.86,6.39-.94.3a12.21,12.21,0,0,0-1.12-3.07l.84-.29A17.9,17.9,0,0,1,1267,414.69Zm.14-9.28a17.59,17.59,0,0,1-1.31,3.36l-.86-.42a13.71,13.71,0,0,0,1.34-3.27Zm8.21,9.28-1.86.36v4.57h-.91v-4.39l-5.58,1-.13-.91,5.71-1.08V403.85h.91v10.27l1.73-.33Zm-4.07-2.2-.7.72a14.84,14.84,0,0,0-3-3l.68-.66A20.22,20.22,0,0,1,1271.23,412.49Zm.31-4.85-.71.69a15.41,15.41,0,0,0-2.89-2.46l.62-.67A17.86,17.86,0,0,1,1271.54,407.64Z" transform="translate(-811.24 -240.11)" style="fill:#fff"/><path d="M1283.2,419.56h-.93v-6.47h-2.18a10.44,10.44,0,0,1-1.64,6.18l-.74-.62a9.42,9.42,0,0,0,1.46-5.56h-1.57v-.88h4.67v-2.49h-3.5v-5.55h.9v4.62h2.6v-4.94h.93Zm10-.65-.72.75a21.77,21.77,0,0,1-4.32-8,15.77,15.77,0,0,1-3.71,8l-.81-.67a15.5,15.5,0,0,0,3.79-9.43h-3.39v-.94h3.4v-4.71h.93v4.71H1293v.94h-4.46A19.65,19.65,0,0,0,1293.21,418.91Zm-.84-11.65-.8.45a13.61,13.61,0,0,0-1.87-2.65l.76-.52A13.15,13.15,0,0,1,1292.37,407.26Z" transform="translate(-811.24 -240.11)" style="fill:#fff"/><path d="M1299.94,413.59a24.45,24.45,0,0,1-3.57,6l-.81-.55a26.27,26.27,0,0,0,3.57-5.87Zm-.12-3-.65.74a15.2,15.2,0,0,0-3.54-2.44l.66-.77A22.87,22.87,0,0,1,1299.82,410.56Zm.39-4.31-.66.74a15.29,15.29,0,0,0-3.16-2.44l.58-.75A13.29,13.29,0,0,1,1300.21,406.25Zm11,8.83a16.89,16.89,0,0,1-.27,3,1.7,1.7,0,0,1-.63,1.09,3.5,3.5,0,0,1-1.66.26,4,4,0,0,1-1.86-.26,1.08,1.08,0,0,1-.4-1v-7.26H1304a11.15,11.15,0,0,1-.93,5.29,9.92,9.92,0,0,1-3.21,3.42l-.65-.76a7.57,7.57,0,0,0,3.89-6.88,10.3,10.3,0,0,0-.06-1.07h-2.18v-6.57H1310v6.57h-2.66v7.24a.32.32,0,0,0,.23.31,4,4,0,0,0,1.11.09,3.08,3.08,0,0,0,1.08-.11.82.82,0,0,0,.3-.51,30.49,30.49,0,0,0,.27-3.15Zm-2.16-5v-4.81h-7.29v4.81Z" transform="translate(-811.24 -240.11)" style="fill:#fff"/><path d="M1266.08,473l-.7.59a20.8,20.8,0,0,0-1.12-1.8v9.43h-.93v-8.94a27,27,0,0,1-1.75,4.16l-.52-1a23.82,23.82,0,0,0,2.25-5.85h-2.11v-.9h2.13v-3.29h.93v3.29h1.34v.9h-1.34v1C1264.9,471.31,1265.5,472.12,1266.08,473Zm10.92,5.38a7.72,7.72,0,0,1-.55,2.27,1.15,1.15,0,0,1-1,.77c-.78,0-1.64-.82-2.57-2.45a15.75,15.75,0,0,1-3.47,2.16l-.64-.72a11.27,11.27,0,0,0,3.71-2.2,12.39,12.39,0,0,1-1.08-3.23h-3.29L1268,476a12.1,12.1,0,0,1,2.54,1.76l-.52.75a10.11,10.11,0,0,0-2.14-1.63,9.09,9.09,0,0,1-2.25,4.39l-.83-.58a7.77,7.77,0,0,0,2.36-5.77h-1.6v-.91h5.66a83.77,83.77,0,0,1-.58-8.67l.93,0a60.57,60.57,0,0,0,.6,8.64H1274c0-.1-.19-.38-.43-.84l.74-.31a4.71,4.71,0,0,1,.63,1.15h1.93V475h-4.52a10,10,0,0,0,.84,2.54,10.19,10.19,0,0,0,1.57-2.15l.7.45a12,12,0,0,1-1.92,2.51,7.08,7.08,0,0,0,1,1.45c.38.46.68.69.89.69s.33-.16.46-.47a8.8,8.8,0,0,0,.41-2.05Zm-6.4-5.33-.81.23a8.41,8.41,0,0,0-.14-.83q-1.92.18-3.3.36l-.14-.65a30,30,0,0,0,1.91-2.49l-1.87.28-.24-.77a23.54,23.54,0,0,0,1.84-3.65l.8.38a25.81,25.81,0,0,1-1.6,3.06,14.83,14.83,0,0,0,1.73-.28,12.15,12.15,0,0,0,.85-1.46l.77.43a28.75,28.75,0,0,1-3,4.18c.6,0,1.27-.09,2-.19a5.33,5.33,0,0,0-.38-1.21l.79-.22A12,12,0,0,1,1270.6,473Zm6.23,0-.81.25a8.5,8.5,0,0,0-.2-.85c-1,.11-2,.26-3.24.43l-.23-.77c.75-.9,1.37-1.69,1.85-2.39-.5.06-1.1.15-1.82.28l-.27-.77a22.65,22.65,0,0,0,1.8-3.53l.81.36c-.5,1.05-1,2-1.57,3,.37-.05.94-.14,1.72-.28.22-.33.48-.75.79-1.27l.77.39a38.14,38.14,0,0,1-2.83,4l2-.23a5.48,5.48,0,0,0-.32-1l.79-.25A16.77,16.77,0,0,1,1276.83,473Z" transform="translate(-811.24 -240.11)" style="fill:#fff"/><path d="M1294.93,472.2l-.77.59a14.46,14.46,0,0,0-1.51-1.81,79.8,79.8,0,0,1-13,1.42l-.27-.86a19.9,19.9,0,0,0,5.59-6.15l1,.33a22.15,22.15,0,0,1-4.86,5.65,61.8,61.8,0,0,0,10.79-1.24,29.83,29.83,0,0,0-2.9-2.71l.82-.62A37.85,37.85,0,0,1,1294.93,472.2Zm-1.72,9h-1v-1.11h-10.39v1.08h-1v-7h12.37Zm-1-2.07v-4h-10.39v4Z" transform="translate(-811.24 -240.11)" style="fill:#fff"/><path d="M1312.9,480.73h-15.68v-.91h7.62V475h-5.77v-1h5.77v-4.11H1300a13.33,13.33,0,0,1-2.25,3.12l-.75-.65a14.7,14.7,0,0,0,3.48-6.32l.94.24a23.44,23.44,0,0,1-.94,2.65h4.4v-3.54h1v3.54h6.84v1h-6.84V474h6v1h-6v4.86h7.1Z" transform="translate(-811.24 -240.11)" style="fill:#fff"/><path d="M1330.88,472.87h-13.23v1.78c0,3.06-.61,5.27-1.85,6.64l-.65-.65a6.67,6.67,0,0,0,1.17-2.27,9.2,9.2,0,0,0,.41-2.62V472h14.15Zm-.45-5h-2.75a8.78,8.78,0,0,1-1.93,1.73,34.52,34.52,0,0,1,3.84,1.2l-.51.74a33.68,33.68,0,0,0-4.45-1.37,17.45,17.45,0,0,1-6.39,1.26l-.31-.83a25.72,25.72,0,0,0,5.25-.79c-1.4-.32-2.81-.59-4.22-.81l.42-.74c1.86.3,3.58.64,5.13,1a7.48,7.48,0,0,0,1.92-1.42h-10.29V467h6.75a5.3,5.3,0,0,0-.77-1.25l.84-.38a8.11,8.11,0,0,1,1,1.63h6.52Zm.29,12.87h-12.93v-.86h6.2v-1.7h-4.39v-.88H1324v-1.58h-3.86a8.59,8.59,0,0,1-1.4,1.49l-.56-.75a9.74,9.74,0,0,0,2.36-3.1l.87.28c-.24.48-.46.89-.67,1.22H1324v-1.48h.9v1.48h4.94v.86h-4.94v1.58h4.57v.88h-4.57v1.7h5.83Z" transform="translate(-811.24 -240.11)" style="fill:#fff"/><path d="M1349,480l-.21.93c-2.35,0-4.48,0-6.39-.05a14,14,0,0,1-4.3-.61,6.12,6.12,0,0,1-2.37-1.51,12.17,12.17,0,0,1-2,2.45l-.7-.59a11.87,11.87,0,0,0,3.42-5.74h-2.8V474a39.46,39.46,0,0,0,2.69-3.74h-3.08v-.88h4.2v.88c-.68,1-1.54,2.29-2.6,3.74h2.54v.89a11.64,11.64,0,0,1-1.23,3.13,5.27,5.27,0,0,0,1.44,1.06,6.9,6.9,0,0,0,1.61.6,18.37,18.37,0,0,0,2.7.28c1.29.06,2.8.09,4.56.09C1347.34,480,1348.18,480,1349,480Zm-12.11-12.06-.66.65a14.79,14.79,0,0,0-2.49-2.52l.59-.67A14,14,0,0,1,1336.88,467.93Zm11.71,10.21h-9.36v-7.68A13,13,0,0,1,1338,472l-.6-.74a17,17,0,0,0,3.2-5.92l.89.23c-.3.88-.63,1.74-1,2.56h3.18a12.35,12.35,0,0,0-.81-2.25l.91-.29c.41,1.05.71,1.9.91,2.54h3.71V469h-4v2H1348v.87h-3.66V474H1348v.89h-3.66v2.39h4.21Zm-5.14-7.15v-2h-3.28v2Zm0,3v-2.14h-3.28V474Zm0,3.28v-2.39h-3.28v2.39Z" transform="translate(-811.24 -240.11)" style="fill:#fff"/><path d="M1366.69,467.85h-13v5a15.09,15.09,0,0,1-2,8.08l-.82-.6q1.89-2.93,1.89-8.4v-5h6.65a10.69,10.69,0,0,0-.88-1.34l1-.26c.38.58.69,1.12.94,1.6h6.16Zm.41,12.56-.58.87a23.54,23.54,0,0,1-6-1.72,21.79,21.79,0,0,1-6.68,1.64l-.46-.93a19.8,19.8,0,0,0,6.05-1.24,8.86,8.86,0,0,1-3.23-3.32h-.68v-.94h9.11v.94a8,8,0,0,1-3.11,3.28A22.91,22.91,0,0,0,1367.1,480.41Zm-.41-9.68h-3.11v2.93h-6.45v-2.93h-2.74v-.89h2.74v-1.47h.93v1.47h4.59v-1.47h.93v1.47h3.11Zm-3.25,5h-6.17a7.35,7.35,0,0,0,3.13,2.81A7.58,7.58,0,0,0,1363.44,475.71Zm-.79-2.95v-2h-4.59v2Z" transform="translate(-811.24 -240.11)" style="fill:#fff"/><path d="M1385,479.82l-.31.91H1379a15.56,15.56,0,0,1-4.65-.51,6.45,6.45,0,0,1-2.42-1.43,12.6,12.6,0,0,1-2.16,2.35l-.72-.65a12.16,12.16,0,0,0,2.25-2.4,13,13,0,0,1-2-4.45l.85-.25a12.2,12.2,0,0,0,1.63,3.8A13.27,13.27,0,0,0,1373,472h-3.37v-.73c1-1.23,2.13-2.73,3.35-4.52h-3.54v-.9h4.64v.9q-1.38,2.12-3.11,4.36h3a14.68,14.68,0,0,1-1.48,6.89,5.59,5.59,0,0,0,2.69,1.46,19.48,19.48,0,0,0,4.19.36Zm-.47-13.36a36.84,36.84,0,0,1-3.79.86v3.89h3.62v.9h-3.62v4.5h3.76v.9h-10.21v-.9h1.79v-7h.89v7h2.79V467.5c-1.28.16-2.77.3-4.48.42l-.43-.9a37.47,37.47,0,0,0,9.32-1.44Z" transform="translate(-811.24 -240.11)" style="fill:#fff"/><path d="M1276.88,501.05l-.27.83h-6.88a10.3,10.3,0,0,1-3.81-.55,5.12,5.12,0,0,1-2.11-1.52,12.32,12.32,0,0,1-1.94,2.4l-.7-.6a9.24,9.24,0,0,0,3.07-5.72h-2.66v-.74q1.13-1.5,2.5-3.78h-2.86v-.87h3.89v.85q-1.35,2.16-2.38,3.68h2.5a11.63,11.63,0,0,1-1,4c1,1.36,2.81,2.05,5.44,2.05Zm-12-11.81-.67.64a14.44,14.44,0,0,0-2.53-2.58l.63-.65A14,14,0,0,1,1264.89,489.24Zm11.15,1h-8.66v2.51a18.17,18.17,0,0,1-1.17,6.82l-.82-.43a15.07,15.07,0,0,0,1.08-5.9v-6.32H1276Zm-.91-.86v-1.61h-7.75v1.61Zm1.51,9.31h-4v1.46h-.86v-1.46h-4.2v-.79h4.2v-1.49h-2.44a9.32,9.32,0,0,1-.81,1.08l-.73-.55a9.92,9.92,0,0,0,1.63-2.49l.77.39c-.14.32-.27.58-.37.77h1.95v-1.08h.86v1.08H1276v.8h-3.35v1.49h4Zm-5.36-5.22a20.54,20.54,0,0,1-3,.6l-.24-.83a15.72,15.72,0,0,0,3-.53Zm-.1-1.93-.35.73a14.17,14.17,0,0,0-2.78-.6l.35-.74A14.71,14.71,0,0,1,1271.18,491.54Zm1.53,2.29h-.9V491h.9Zm3.72-2.16a15,15,0,0,1-2.73.56l-.33-.77a13.53,13.53,0,0,0,2.67-.55Zm0,1.61-.29.73a14,14,0,0,0-2.61-.58l.29-.72A11.59,11.59,0,0,1,1276.47,493.28Z" transform="translate(-811.24 -240.11)" style="fill:#fff"/><path d="M1286.08,492.61a10.23,10.23,0,0,1-1.44,4.09l-.81-.57a6.74,6.74,0,0,0,1.12-2.59h-2v7.4a1.25,1.25,0,0,1-.41.9c-.27.26-1.12.36-2.54.3l-.27-.91c1.15,0,1.78,0,1.9,0a.51.51,0,0,0,.32-.2.55.55,0,0,0,.14-.32v-7.15h-2.83v-.93h3.93a21.44,21.44,0,0,0-3.3-2.78l.5-.69a21.43,21.43,0,0,1,1.79,1.31,17,17,0,0,0,2.12-2.46h-4.61v-.89h5.76V488a30.34,30.34,0,0,1-2.55,3.05,9.1,9.1,0,0,1,1.17,1.19l-.31.38Zm8.8-4.81h-4a15.7,15.7,0,0,1-.57,2.06H1294v8.76h-4.7l.56.57a15,15,0,0,1-3.76,3.16l-.62-.81a12.69,12.69,0,0,0,3.64-2.92h-2.3v-8.76h2.49a12.33,12.33,0,0,0,.6-2.06h-3.72v-.91h8.67Zm-1.78,4.59v-1.64h-5.35v1.64Zm0,2.61v-1.74h-5.35V495Zm0,2.71v-1.86h-5.35v1.86Zm1.73,3.79-.6.74a18.2,18.2,0,0,0-3.4-2.4l.58-.7A22.4,22.4,0,0,1,1294.83,501.5Z" transform="translate(-811.24 -240.11)" style="fill:#fff"/><path d="M1304.76,488.93a24.57,24.57,0,0,1-.07,2.54,4.59,4.59,0,0,1-.23,1.33.76.76,0,0,1-.4.37,3.06,3.06,0,0,1-1,.11l-.25-.79q.75,0,.87-.18a3.06,3.06,0,0,0,.18-1c0-.52.05-1.06.05-1.63h-4.62a4.34,4.34,0,0,1-.44.65h3.46v2.08h-3.52v-2c-.35.39-.67.73-1,1l-.69-.51a8.59,8.59,0,0,0,1.94-2.67l.76.33-.14.32Zm8.14,5.05v.79h-15.73V494h7.69a3.81,3.81,0,0,0-.26-.65l.93-.26a8.92,8.92,0,0,1,.41.91ZM1301,488.36h-.84v-.47h-2.77v-.81h2.77v-.65h.84Zm9.87,8h-11.66v-.76h11.66Zm0,1.63h-11.66v-.75h11.66Zm-.15,4.18h-1v-.54h-9.45v.54h-1V499h11.35Zm-9.23-10.43v-.69h-1.8v.69Zm8.28,9.1v-1.11h-9.45v1.11Zm-3.78-13h-2.42v.47h-.87v-1.93h.87v.65H1306Zm6.84,4.86a6,6,0,0,1-.58.65,17.86,17.86,0,0,0-2.37-1.64,8.78,8.78,0,0,1-3.35,1.57l-.54-.77a7.66,7.66,0,0,0,3-1.29l-1.73-.86.67-.63c.61.29,1.19.59,1.73.9a5,5,0,0,0,1.19-1.92h-3.1a10.4,10.4,0,0,1-1.69,2l-.62-.63a9.89,9.89,0,0,0,2.61-3.89l.86.31c-.14.34-.34.78-.62,1.31h4.4v.87h-1a6.58,6.58,0,0,1-1.27,2.37A16.68,16.68,0,0,1,1312.81,492.75Z" transform="translate(-811.24 -240.11)" style="fill:#fff"/><path d="M1273.64,558.74l-.29.92c-1,0-2.93,0-5.79,0a14.66,14.66,0,0,1-4.5-.55,6.84,6.84,0,0,1-2.61-1.53,16.81,16.81,0,0,1-1.83,2.42l-.69-.56a11.23,11.23,0,0,0,3-6h-2.77v-.91a32.79,32.79,0,0,0,2.51-3.67h-2.8V548h3.93v.91c-.82,1.34-1.65,2.59-2.5,3.72h2.54v.86a10.81,10.81,0,0,1-1,3.3,5.4,5.4,0,0,0,1.94,1.35,8.62,8.62,0,0,0,2.39.56c.86.08,2.38.12,4.55.12C1271,558.79,1272.25,558.77,1273.64,558.74Zm-12.12-12-.76.58a12.41,12.41,0,0,0-2.29-2.66l.78-.56A15.37,15.37,0,0,1,1261.52,546.78Zm6.3,9.65c0,.83-.44,1.24-1.32,1.24h-1.08l-.35-.88h1.39c.31,0,.47-.13.47-.35v-1.58h-2.73a7.6,7.6,0,0,1-1.17,2.94l-.72-.53a7.15,7.15,0,0,0,1.13-4V549.6h4.38Zm5.79-8.42-.45.81c-.78-.37-1.52-.74-2.21-1.11v.68H1265v-.74a20.61,20.61,0,0,1-2.16,1.17l-.5-.74a16.81,16.81,0,0,0,5.54-4l.88.37a1.07,1.07,0,0,1-.21.31A15.11,15.11,0,0,0,1273.61,548Zm-6.68,5.94v-1.33h-2.59c0,.49,0,.93,0,1.33Zm0-2.22v-1.24h-2.59v1.24Zm3.66-4.24a13,13,0,0,1-2.65-2,18.17,18.17,0,0,1-2.63,2Zm-.37,8.15h-.86v-5.72h.86Zm2.56.71a1.21,1.21,0,0,1-.38,1,1.36,1.36,0,0,1-1,.35h-1.74l-.33-.9h2c.33,0,.49-.18.49-.53v-7.05h.9Z" transform="translate(-811.24 -240.11)" style="fill:#fff"/><path d="M1284.64,547.13h-1.57v7.41h1.38v.88H1276v-.88h1.81v-7.41h-1.53v-.88h1.53v-2h1v2h3.41v-2h.94v2h1.57Zm-5,9.39a15.47,15.47,0,0,1-2.67,3.35l-.77-.65a15.67,15.67,0,0,0,2.66-3.23Zm2.47-7.59v-1.8h-3.41v1.8Zm0,2.77v-1.87h-3.41v1.87Zm0,2.84v-2h-3.41v2Zm1.18,3.71-.77.61a11,11,0,0,0-1.58-2.21l.67-.59A12.51,12.51,0,0,1,1283.31,558.25Zm7.58.5a1,1,0,0,1-.43.91,3,3,0,0,1-1.64.31c-.31,0-.63,0-1-.05l-.35-1c.62,0,1.13.08,1.54.08q.9,0,.9-.48V554.2h-3.69a11.65,11.65,0,0,1-2,5.79l-.8-.62a8.39,8.39,0,0,0,1.56-3.2,22.23,22.23,0,0,0,.46-5.1V544.6h5.43Zm-.93-5.44v-3.45h-3.59c0,1.07,0,2.22,0,3.45Zm0-4.35v-3.43h-3.57V549Z" transform="translate(-811.24 -240.11)" style="fill:#fff"/><path d="M1309.66,558.36l-.67.74a19,19,0,0,1-6.54-7.15h-.13v8h-1v-8h-.09a17,17,0,0,1-6.72,7.11l-.65-.77a14.66,14.66,0,0,0,6.34-6.34h-6.15V551h7.28v-3.52h-6.3v-.93h6.3v-2.4h.94v2.4h6.26v.93h-6.26V551h7.17V552h-6A17.25,17.25,0,0,0,1309.66,558.36Z" transform="translate(-811.24 -240.11)" style="fill:#fff"/><path d="M1327.59,559.53H1312v-.93h6.72V544.24h1v5.65h7.16v1h-7.16v7.76h7.95Z" transform="translate(-811.24 -240.11)" style="fill:#fff"/><path d="M1331.92,555.61a21.23,21.23,0,0,1-1.16,4.46l-.87-.45a18.38,18.38,0,0,0,1.14-4.08Zm4.43-8.11a30.63,30.63,0,0,1-4.71,6.31,16.59,16.59,0,0,0,2.92-.67,8.63,8.63,0,0,0-.47-1.14l.87-.19a14.62,14.62,0,0,1,1,2.7l-.86.34a6.83,6.83,0,0,0-.27-.92,20.62,20.62,0,0,1-4.62,1l-.21-.73a38,38,0,0,0,3.61-4.14,24.52,24.52,0,0,1-3.13.4l0-.74a18.18,18.18,0,0,0,3.23-5.46l.92.35a20,20,0,0,1-2.76,4.79,12.37,12.37,0,0,0,2.51-.38,17.91,17.91,0,0,0,1.1-1.86Zm-2.1,11.92-1,.24a22.43,22.43,0,0,0-.41-4l.87-.09A21.48,21.48,0,0,1,1334.25,559.42Zm2.17-2.11-.84.21a8.93,8.93,0,0,0-.83-2.1l.88-.14A10.1,10.1,0,0,1,1336.42,557.31Zm3.2-4.26a8.06,8.06,0,0,1-3.55,6.39l-.6-.76a6.59,6.59,0,0,0,3.13-4.77h-2.13v-.86Zm6.16,5.48-.67.71a11.15,11.15,0,0,1-3.76-3.9v3.33a1.36,1.36,0,0,1-.36,1c-.23.26-.8.39-1.7.39a6.88,6.88,0,0,1-.83,0l-.3-.9c.25,0,.6,0,1,0a2.5,2.5,0,0,0,1-.12.45.45,0,0,0,.2-.41v-7h-3.49v-5.6h2.41a11.36,11.36,0,0,0,1-1.8l.9.39a7.28,7.28,0,0,1-.83,1.41h4.31v5.6h-3.33v2.05a5.75,5.75,0,0,0,.52,1,11.34,11.34,0,0,0,2.21-2.22l.63.72a16.75,16.75,0,0,1-2.34,2.25A12.25,12.25,0,0,0,1345.78,558.53Zm-2.06-10.23v-1.52h-5.89v1.52Zm0,2.4v-1.53h-5.89v1.53Z" transform="translate(-811.24 -240.11)" style="fill:#fff"/><path d="M1273.64,579.74l-.29.92c-1,0-2.93,0-5.79,0a14.66,14.66,0,0,1-4.5-.55,6.84,6.84,0,0,1-2.61-1.53,16.81,16.81,0,0,1-1.83,2.42l-.69-.56a11.23,11.23,0,0,0,3-6h-2.77v-.91a32.79,32.79,0,0,0,2.51-3.67h-2.8V569h3.93v.91c-.82,1.34-1.65,2.59-2.5,3.72h2.54v.86a10.81,10.81,0,0,1-1,3.3,5.4,5.4,0,0,0,1.94,1.35,8.62,8.62,0,0,0,2.39.56c.86.08,2.38.12,4.55.12C1271,579.79,1272.25,579.77,1273.64,579.74Zm-12.12-12-.76.58a12.41,12.41,0,0,0-2.29-2.66l.78-.56A15.37,15.37,0,0,1,1261.52,567.78Zm6.3,9.65c0,.83-.44,1.24-1.32,1.24h-1.08l-.35-.88h1.39c.31,0,.47-.13.47-.35v-1.58h-2.73a7.6,7.6,0,0,1-1.17,2.94l-.72-.53a7.15,7.15,0,0,0,1.13-4V570.6h4.38Zm5.79-8.42-.45.81c-.78-.37-1.52-.74-2.21-1.11v.68H1265v-.74a20.61,20.61,0,0,1-2.16,1.17l-.5-.74a16.81,16.81,0,0,0,5.54-4l.88.37a1.07,1.07,0,0,1-.21.31A15.11,15.11,0,0,0,1273.61,569Zm-6.68,5.94v-1.33h-2.59c0,.49,0,.93,0,1.33Zm0-2.22v-1.24h-2.59v1.24Zm3.66-4.24a13,13,0,0,1-2.65-2,18.17,18.17,0,0,1-2.63,2Zm-.37,8.15h-.86v-5.72h.86Zm2.56.71a1.21,1.21,0,0,1-.38,1,1.36,1.36,0,0,1-1,.35h-1.74l-.33-.9h2c.33,0,.49-.18.49-.53v-7.05h.9Z" transform="translate(-811.24 -240.11)" style="fill:#fff"/><path d="M1284.64,568.13h-1.57v7.41h1.38v.88H1276v-.88h1.81v-7.41h-1.53v-.88h1.53v-2h1v2h3.41v-2h.94v2h1.57Zm-5,9.39a15.47,15.47,0,0,1-2.67,3.35l-.77-.65a15.67,15.67,0,0,0,2.66-3.23Zm2.47-7.59v-1.8h-3.41v1.8Zm0,2.77v-1.87h-3.41v1.87Zm0,2.84v-2h-3.41v2Zm1.18,3.71-.77.61a11,11,0,0,0-1.58-2.21l.67-.59A12.51,12.51,0,0,1,1283.31,579.25Zm7.58.5a1,1,0,0,1-.43.91,3,3,0,0,1-1.64.31c-.31,0-.63,0-1-.05l-.35-1c.62,0,1.13.08,1.54.08q.9,0,.9-.48V575.2h-3.69a11.65,11.65,0,0,1-2,5.79l-.8-.62a8.39,8.39,0,0,0,1.56-3.2,22.23,22.23,0,0,0,.46-5.1V565.6h5.43Zm-.93-5.44v-3.45h-3.59c0,1.07,0,2.22,0,3.45Zm0-4.35v-3.43h-3.57V570Z" transform="translate(-811.24 -240.11)" style="fill:#fff"/><path d="M1309.66,579.36l-.67.74a19,19,0,0,1-6.54-7.15h-.13v8h-1v-8h-.09a17,17,0,0,1-6.72,7.11l-.65-.77a14.66,14.66,0,0,0,6.34-6.34h-6.15V572h7.28v-3.52h-6.3v-.93h6.3v-2.4h.94v2.4h6.26v.93h-6.26V572h7.17V573h-6A17.25,17.25,0,0,0,1309.66,579.36Z" transform="translate(-811.24 -240.11)" style="fill:#fff"/><path d="M1327.63,574.45h-5.93v4.89a.37.37,0,0,0,.2.34,9.32,9.32,0,0,0,2.06.11,7.81,7.81,0,0,0,2-.13c.22-.08.35-1,.4-2.66l1,.36c0,1.56-.22,2.52-.56,2.86s-1.2.52-2.58.52a16,16,0,0,1-2.65-.11,1.11,1.11,0,0,1-.52-.45,1.48,1.48,0,0,1-.22-.84v-4.89h-2.92q0,5.17-5.31,6.53l-.63-.85c3.41-.75,5-2.64,4.91-5.68h-4.89v-.92h15.7Zm-.65-3.17h-1v-3.21h-12.44v3.21h-1v-4.14h6.68c-.46-.93-.77-1.52-.9-1.76l1-.33a14.77,14.77,0,0,1,1,2.09H1327Zm-2.25-.38h-9.92V570h9.92Z" transform="translate(-811.24 -240.11)" style="fill:#fff"/><path d="M1345.68,580.15H1330v-.93h7.36V567h-6.61v-1h14.15v1h-6.56v12.26h7.39Z" transform="translate(-811.24 -240.11)" style="fill:#fff"/></g></svg>