<svg xmlns="http://www.w3.org/2000/svg" viewBox="0 0 400.99 418.03"><title>section2-illust</title><g style="isolation:isolate"><g id="b9469eee-1fa5-4666-938c-58d0494b8755" data-name="圖層 1"><polygon points="161.47 0.04 122.57 67.48 161.53 134.89 239.39 134.85 278.29 67.41 239.33 0 161.47 0.04" style="fill:#f2f2f2"/><polygon points="161.52 134.89 152.23 118.8 248.69 118.76 248.69 118.76 239.4 134.85 161.52 134.89" style="fill:#93278f"/><polygon points="361.97 70.73 284.11 70.77 245.21 138.21 284.18 205.62 362.03 205.59 400.93 138.14 361.97 70.73" style="fill:#f2f2f2"/><polygon points="245.21 138.2 254.49 122.11 302.76 205.62 302.76 205.62 284.18 205.63 245.21 138.2" style="fill:#15b3b7"/><polygon points="400.99 279.71 362.03 212.3 284.18 212.34 245.28 279.79 284.24 347.19 362.09 347.16 400.99 279.71" style="fill:#f2f2f2"/><polygon points="284.18 212.33 302.76 212.32 254.57 295.88 254.57 295.88 245.27 279.8 284.18 212.33" style="fill:#fbb03b"/><polygon points="161.6 283.18 122.7 350.63 161.66 418.04 239.52 418 278.42 350.56 239.46 283.15 161.6 283.18" style="fill:#f2f2f2"/><polygon points="152.31 299.28 152.31 299.28 161.59 283.19 161.59 283.19 239.47 283.15 248.77 299.23 248.77 299.23 152.31 299.28" style="fill:#8cc63f"/><polygon points="116.82 212.42 38.96 212.45 0.06 279.89 39.02 347.31 116.88 347.27 155.78 279.83 116.82 212.42" style="fill:#f2f2f2"/><polygon points="98.23 212.42 98.23 212.42 116.81 212.41 116.81 212.41 155.78 279.83 146.5 295.93 146.5 295.93 98.23 212.42" style="fill:#f15a24"/><polygon points="155.71 138.25 116.76 70.84 38.9 70.88 0 138.32 38.96 205.73 116.81 205.7 155.71 138.25" style="fill:#f2f2f2"/><polygon points="146.42 122.15 146.42 122.15 155.72 138.24 155.72 138.24 116.81 205.71 98.23 205.71 98.23 205.71 146.42 122.15" style="fill:#29abe2"/><path d="M348.26,259.74a25,25,0,1,0,34.14-9.17A25,25,0,0,0,348.26,259.74Z" transform="translate(-242.3 -105.15)" style="fill:#29abe2"/><path d="M382.4,250.57a25,25,0,1,1-25,43.3Z" transform="translate(-242.3 -105.15)" style="opacity:0.5;mix-blend-mode:soft-light"/><path d="M391.71,343.83A25,25,0,1,0,382.57,378,25,25,0,0,0,391.71,343.83Z" transform="translate(-242.3 -105.15)" style="fill:#f15a24"/><path d="M382.55,334.68a25,25,0,1,1-25,43.31Z" transform="translate(-242.3 -105.15)" style="opacity:0.5;mix-blend-mode:soft-light"/><path d="M494,343.7a25,25,0,1,0,34.14-9.17A25,25,0,0,0,494,343.7Z" transform="translate(-242.3 -105.15)" style="fill:#fbb03b"/><path d="M528,334.53a25,25,0,0,1-25,43.31Z" transform="translate(-242.3 -105.15)" style="opacity:0.5;mix-blend-mode:soft-light"/><path d="M493.92,284.53a25,25,0,1,0,9.13-34.15A25,25,0,0,0,493.92,284.53Z" transform="translate(-242.3 -105.15)" style="fill:#15b3b7"/><path d="M528.05,250.37a25,25,0,1,1-25,43.3Z" transform="translate(-242.3 -105.15)" style="opacity:0.5;mix-blend-mode:soft-light"/><path d="M442.76,255a25,25,0,1,0-25-25A25,25,0,0,0,442.76,255Z" transform="translate(-242.3 -105.15)" style="fill:#93278f"/><path d="M455.24,208.36a25,25,0,0,1-25,43.31Z" transform="translate(-242.3 -105.15)" style="opacity:0.5;mix-blend-mode:soft-light"/><path d="M442.71,374.24a25,25,0,1,0,25,25A25,25,0,0,0,442.71,374.24Z" transform="translate(-242.3 -105.15)" style="fill:#8cc63f"/><path d="M455.21,377.58a25,25,0,0,1-25,43.31Z" transform="translate(-242.3 -105.15)" style="opacity:0.5;mix-blend-mode:soft-light"/><g style="opacity:0.2;mix-blend-mode:multiply"><polygon points="173.25 161.88 146.05 209.04 173.29 256.18 227.74 256.16 254.94 208.99 227.7 161.85 173.25 161.88"/></g><polygon points="173.25 161.88 146.05 209.04 173.29 256.18 227.74 256.16 254.94 208.99 227.7 161.85 173.25 161.88" style="fill:#007f7c"/><polygon points="173.25 161.88 146.05 209.04 173.29 256.18 227.7 161.85 173.25 161.88" style="fill:#fff;opacity:0.1;mix-blend-mode:screen"/><path d="M411.14,451.71h-2v3.69a13.84,13.84,0,0,0,1.8-.92l.21,1c-.76.4-1.43.72-2,1v6a1.24,1.24,0,0,1-.55,1.21,3.05,3.05,0,0,1-1.41.28h-.85l-.37-.92,1.73,0c.32,0,.47-.17.47-.49V456.9a11.7,11.7,0,0,1-2.1.8l-.29-.86c.75-.28,1.55-.6,2.39-1v-4.16h-2.46v-.95h2.46V447.3h1v3.46h2Zm11.31,10.56-.65.87a18.16,18.16,0,0,1-4.79-5.33V464h-1V457.9a16.79,16.79,0,0,1-5.09,5.19l-.68-.8a14.32,14.32,0,0,0,5.15-5.22h-4.13v-.93H416v-1.85h1v1.85h5.24v.93h-4.51A14.59,14.59,0,0,0,422.45,462.27ZM421.31,448a29.53,29.53,0,0,1-9.47,1.72l-.43-.92a29.83,29.83,0,0,0,9.36-1.63Zm-7.13,6-.86.43a20.83,20.83,0,0,0-1.53-3.14l.81-.52A16.6,16.6,0,0,1,414.18,454.08Zm3.36-.8-.93.31a16.06,16.06,0,0,0-1.06-3.08l.87-.37A15.82,15.82,0,0,1,417.54,453.28Zm4.37-3a17.78,17.78,0,0,1-1.94,4.14l-.91-.33A20.85,20.85,0,0,0,421,450Z" transform="translate(-242.3 -105.15)"/><path d="M430.14,459.26h-2.89l.53.43a17.48,17.48,0,0,1-2.09,4.34l-.7-.62a23.92,23.92,0,0,0,2-4.15h-1.2V448h4.39Zm-.93-7.85v-2.52H426.7v2.52Zm0,3.39v-2.48H426.7v2.48Zm0,3.56v-2.62H426.7v2.62Zm1.33,4.49-.82.38a19.19,19.19,0,0,0-1.27-2.9l.83-.38A18.76,18.76,0,0,1,430.54,462.85Zm11-2.14H440.3v1.91a1.33,1.33,0,0,1-.23.84,1.13,1.13,0,0,1-.58.41,6,6,0,0,1-1.39.1c-.35,0-.67,0-1,0l-.36-1,2.12,0a.46.46,0,0,0,.51-.53v-1.76h-6.33V464h-.92v-3.3h-1.54v-.83h1.54V455.4h3.53V454h-4.84v-.82h2.81v-1.46h-2v-.84h2v-1.27H431v-.83h2.66v-1.4h.93v1.4h3.14v-1.4h.93v1.4h2.62v.83h-2.62v1.27h2v.84h-2v1.46h2.91V454h-4.92v1.43h3.66v4.48h1.29Zm-5.91-3v-1.39h-2.61v1.39Zm0,2.22v-1.35h-2.61v1.35Zm2-9v-1.27h-3.14v1.27Zm0,2.3v-1.46h-3.14v1.46Zm1.68,4.51v-1.39h-2.76v1.39Zm0,2.22v-1.35h-2.76v1.35Z" transform="translate(-242.3 -105.15)"/><path d="M449.93,455.74l-.74.62a23.32,23.32,0,0,0-1.42-2.25V464h-1v-9.37a22,22,0,0,1-2.22,4.14l-.67-.75a22.57,22.57,0,0,0,2.87-5.82H444.2v-.94h2.6v-3.93h1v3.93h1.9v.94h-1.9v.41A24.34,24.34,0,0,1,449.93,455.74Zm10.44,4.31h-5.45c-.54,2-2.26,3.33-5.17,4l-.56-.88c2.58-.47,4.15-1.49,4.73-3.08h-4.53v-.91h4.75a10.16,10.16,0,0,0,.18-1.65h-3.45v-5.88h8.38v5.88h-3.93a14.7,14.7,0,0,1-.18,1.65h5.23Zm-5.7-10.24h-1.26v1.08h-1v-1.08h-2.79v-.9h2.79v-1.57h1v1.57h1.26Zm3.64,4.23v-1.53H451.8V454Zm0,2.55v-1.67H451.8v1.67Zm2.15-6.78h-2.71v1.08h-.95v-1.08h-1.41v-.9h1.41v-1.57h.95v1.57h2.71Zm.15,13.37-.6.78a26.89,26.89,0,0,0-4.47-2.54l.63-.76A28.22,28.22,0,0,1,460.61,463.18Z" transform="translate(-242.3 -105.15)"/><path d="M465.29,459.46a26.75,26.75,0,0,1-1,4.45l-1-.37a21.61,21.61,0,0,0,1.08-4.35Zm5.2-9.21a53,53,0,0,1-5.28,7.09q1.6-.3,3.75-.9c-.1-.29-.25-.69-.46-1.2l.86-.32a19.32,19.32,0,0,1,1.06,3.21l-.91.26q-.17-.7-.27-1.05-2.72.75-5.48,1.27l-.27-.84a28.33,28.33,0,0,0,3.89-4.64l-3.63.6-.21-.92a21.45,21.45,0,0,0,3.44-5.59l.95.31a26.09,26.09,0,0,1-3,5q1.24-.14,3.12-.45c.29-.39.79-1.15,1.52-2.29Zm-2.63,12.8-1,.18a24.46,24.46,0,0,0-.45-3.94l.93-.15A28.8,28.8,0,0,1,467.86,463.05Zm2.3-1.59-.9.28a17.35,17.35,0,0,0-.59-2.58l.84-.28A15.23,15.23,0,0,1,470.16,461.46Zm9.68,2H470v-.92h1.33V447.8h7v14.69h1.46Zm-2.45-10.93v-3.72h-5v3.72Zm0,4.89v-3.91h-5v3.91Zm0,5.12v-4.17h-5v4.17Z" transform="translate(-242.3 -105.15)"/><path d="M432.82,469.73a15.21,15.21,0,0,1-5.28,4.08h4.37v3.9h-3.8l-.26,2.08h4.06a19.4,19.4,0,0,1-.18,3.21,2.76,2.76,0,0,1-.5,1.31,1.53,1.53,0,0,1-.74.5,13.11,13.11,0,0,1-2.26.11c-.51,0-1,0-1.51,0l-.23-1,3.19.06a.94.94,0,0,0,1-.66,7.85,7.85,0,0,0,.26-2.57H426.8l.4-4H431v-2h-3.64v-.86a18.3,18.3,0,0,1-1.8.75l-.58-.85a14.05,14.05,0,0,0,3.18-1.4,7.68,7.68,0,0,0-1.75-1.24l.53-.72a12.59,12.59,0,0,1,2.07,1.46,11.12,11.12,0,0,0,2.59-2.18h-4.77v-1h6Zm8.53,14.55-.66.75a34.56,34.56,0,0,0-3.41-2.44,15.75,15.75,0,0,1-4.16,2.44l-.68-.75a14.93,14.93,0,0,0,4-2.22l-3.11-1.87.55-.67h-.83v-1H440a9.34,9.34,0,0,1-2,3.42A28.8,28.8,0,0,1,441.35,484.28Zm-.52-6.67h-2.07a1,1,0,0,1-.73-.28.93.93,0,0,1-.31-.75v-1.81h-2.36A4.09,4.09,0,0,1,433.6,478l-.82-.67a3.91,3.91,0,0,0,1.69-3.53h4.2v2.51c0,.23.14.34.42.34h1.74Zm.65-3.86-.45.86a12.74,12.74,0,0,1-7.28-6l.9-.38a11,11,0,0,0,1.27,1.81,13.6,13.6,0,0,0,1.61-1.61l.87.4a13.72,13.72,0,0,1-1.84,1.92,6.56,6.56,0,0,0,1.28,1.11,15.66,15.66,0,0,0,2-1.76l.78.51a14.14,14.14,0,0,1-2,1.81A14.52,14.52,0,0,0,441.48,473.75Zm-2.88,5.77h-4.55c1.2.66,2.25,1.29,3.16,1.89A7.24,7.24,0,0,0,438.6,479.52Z" transform="translate(-242.3 -105.15)"/><path d="M460,470.43q-.16,8.51-.57,9.48t-2.13,1c-.27,0-.6,0-1-.06l-.28-1a11.15,11.15,0,0,0,1.13.08,2.36,2.36,0,0,0,1.11-.17c.17-.12.29-.46.38-1s.15-1.59.21-3,.09-2.85.09-4.24H448.22a17.52,17.52,0,0,1-3.24,3.26l-.78-.71a17.07,17.07,0,0,0,4.82-5.71l1,.52c-.19.34-.55.89-1.07,1.67Zm.81,11.15c-.2,1.86-.63,2.86-1.3,3a62.06,62.06,0,0,1-7.43.22h-2.86a5.52,5.52,0,0,1-1.6-.16,1.34,1.34,0,0,1-.59-.45,1.49,1.49,0,0,1-.22-.86V474h8.31v5.49h-7.31v3.68a.54.54,0,0,0,.44.61c.29.05,1.74.08,4.35.08a54.21,54.21,0,0,0,6.45-.18c.42-.11.68-.93.76-2.45Zm-6.72-3.13V475h-6.28v3.48Z" transform="translate(-242.3 -105.15)"/><path d="M276.45,235.13l-.74.62a19.44,19.44,0,0,0-1.18-1.9v10h-1v-9.43a28.58,28.58,0,0,1-1.85,4.38l-.55-1a24.68,24.68,0,0,0,2.38-6.18H271.3v-.95h2.25V227.1h1v3.48h1.41v.95h-1.41v1C275.2,233.36,275.84,234.22,276.45,235.13ZM288,240.8a7.72,7.72,0,0,1-.59,2.4,1.2,1.2,0,0,1-1.08.81c-.83,0-1.73-.86-2.72-2.58a16,16,0,0,1-3.66,2.28l-.67-.76a12,12,0,0,0,3.92-2.32,13,13,0,0,1-1.14-3.42h-3.47l-.12,1.15a12.52,12.52,0,0,1,2.68,1.85l-.55.8a10.79,10.79,0,0,0-2.26-1.73,9.59,9.59,0,0,1-2.38,4.64l-.87-.61a8.22,8.22,0,0,0,2.49-6.1h-1.69v-1h6a87.5,87.5,0,0,1-.61-9.16l1,0a66.12,66.12,0,0,0,.64,9.12h1.92c0-.11-.2-.41-.45-.89l.78-.33a5.1,5.1,0,0,1,.67,1.22h2v1H283a10,10,0,0,0,.89,2.68,10.72,10.72,0,0,0,1.65-2.26l.74.47a12.47,12.47,0,0,1-2,2.65,8,8,0,0,0,1,1.53c.41.49.73.73,1,.73s.34-.16.49-.49a10.07,10.07,0,0,0,.43-2.17Zm-6.76-5.62-.85.24a7.24,7.24,0,0,0-.15-.87c-1.35.12-2.51.25-3.48.38l-.15-.68a32.13,32.13,0,0,0,2-2.64l-2,.3-.25-.82a24.34,24.34,0,0,0,1.94-3.85l.85.4a28.86,28.86,0,0,1-1.69,3.23,14.35,14.35,0,0,0,1.82-.29,14.13,14.13,0,0,0,.9-1.54l.82.46a31.94,31.94,0,0,1-3.16,4.4c.63,0,1.33-.1,2.13-.2a5.88,5.88,0,0,0-.4-1.27l.83-.23A12.4,12.4,0,0,1,281.22,235.18Zm6.58-.05-.86.26a7,7,0,0,0-.21-.89c-1,.11-2.16.26-3.41.45l-.25-.82a31.46,31.46,0,0,0,1.95-2.52q-.78.09-1.92.3l-.28-.82a24.25,24.25,0,0,0,1.9-3.72l.85.38q-.79,1.65-1.65,3.12c.38-.05,1-.15,1.81-.29.23-.35.51-.79.83-1.34l.82.41a40.11,40.11,0,0,1-3,4.25l2.08-.24a5.15,5.15,0,0,0-.34-1l.83-.26A17.61,17.61,0,0,1,287.8,235.13Z" transform="translate(-242.3 -105.15)"/><path d="M307.19,234.3l-.81.63a15.33,15.33,0,0,0-1.6-1.92,83.33,83.33,0,0,1-13.72,1.5l-.28-.9a20.9,20.9,0,0,0,5.89-6.49l1,.34a23.59,23.59,0,0,1-5.13,6A65.33,65.33,0,0,0,304,232.12a32.07,32.07,0,0,0-3.06-2.87l.87-.65A40.32,40.32,0,0,1,307.19,234.3Zm-1.81,9.55h-1.05v-1.18h-11v1.15h-1v-7.44h13.06Zm-1.05-2.19V237.4h-11v4.26Z" transform="translate(-242.3 -105.15)"/><path d="M315.52,235.58l-.75.62a23.32,23.32,0,0,0-1.42-2.25v9.9h-1v-9.37a22,22,0,0,1-2.22,4.14l-.67-.75a22.25,22.25,0,0,0,2.87-5.82h-2.58v-.94h2.6v-3.93h1v3.93h1.91v.94h-1.91v.41A24.45,24.45,0,0,1,315.52,235.58ZM326,239.89H320.5c-.54,2-2.26,3.33-5.17,4l-.56-.88c2.58-.47,4.15-1.49,4.73-3.08H315V239h4.75a10.16,10.16,0,0,0,.18-1.65h-3.45v-5.88h8.38v5.88H320.9a15,15,0,0,1-.18,1.65H326Zm-5.7-10.24H319v1.08h-1v-1.08h-2.79v-.9H318v-1.57h1v1.57h1.26Zm3.64,4.23v-1.53h-6.51v1.53Zm0,2.55v-1.67h-6.51v1.67Zm2.16-6.78h-2.72v1.08h-.95v-1.08H321v-.9h1.41v-1.57h.95v1.57h2.72Zm.14,13.37-.6.78a26.89,26.89,0,0,0-4.47-2.54l.63-.76A28.22,28.22,0,0,1,326.19,243Z" transform="translate(-242.3 -105.15)"/><path d="M330.87,239.3a26.75,26.75,0,0,1-1,4.45l-1-.37A21,21,0,0,0,330,239Zm5.2-9.21a51.32,51.32,0,0,1-5.28,7.09q1.6-.3,3.75-.9c-.1-.29-.25-.69-.46-1.2l.86-.32A18.4,18.4,0,0,1,336,238l-.91.26q-.16-.71-.27-1c-1.81.5-3.64.92-5.47,1.27l-.28-.84A28.75,28.75,0,0,0,333,233l-3.63.6-.21-.92a21.19,21.19,0,0,0,3.44-5.59l.95.31a26.09,26.09,0,0,1-3,5q1.25-.13,3.12-.45c.29-.39.79-1.15,1.52-2.29Zm-2.63,12.8-1,.18a24.46,24.46,0,0,0-.45-3.94l.93-.15A28.8,28.8,0,0,1,333.44,242.89Zm2.3-1.59-.9.28a16.17,16.17,0,0,0-.59-2.58l.84-.28A15.23,15.23,0,0,1,335.74,241.3Zm9.68,1.95H335.6v-.92h1.33V227.64h7v14.69h1.46ZM343,232.32V228.6h-5v3.72Zm0,4.89V233.3h-5v3.91Zm0,5.12v-4.17h-5v4.17Z" transform="translate(-242.3 -105.15)"/><path d="M292.56,260.39a13.76,13.76,0,0,1-1.1,4.51l-.89-.4a14.74,14.74,0,0,0,1.07-4.24Zm4.85-1.25-1,.34c-.06-.27-.16-.65-.29-1.14a46.68,46.68,0,0,1-5.22,1.33l-.26-.85a27.64,27.64,0,0,0,3.66-4.61,26.62,26.62,0,0,1-3.4.64l-.33-.91a44.61,44.61,0,0,0,3.48-5.8l.91.4a42.88,42.88,0,0,1-3.12,5.18,22,22,0,0,0,3.17-.67c.39-.6.83-1.35,1.33-2.25l.87.49a42.93,42.93,0,0,1-5,7.15,33.32,33.32,0,0,0,3.65-1l-.5-1.14.86-.34A15.83,15.83,0,0,1,297.41,259.14Zm-2.4,5.08-.93.16a15.06,15.06,0,0,0-.47-3.87l.91-.17A13.63,13.63,0,0,1,295,264.22Zm2.61-.89-.87.32a13.08,13.08,0,0,0-1-3.31l.9-.27A15.85,15.85,0,0,1,297.62,263.33Zm9.5.38H299.6v1.07h-1V254.07c-.12.19-.48.7-1.08,1.52l-.82-.55a23.62,23.62,0,0,0,3.48-6.88l.89.27a27.5,27.5,0,0,1-1.27,3.28h3.38a17.28,17.28,0,0,0-1.13-3l.86-.31a17.18,17.18,0,0,1,1.21,3.34h2.78v.94h-3.25v2.5h2.85v1h-2.85v2.75h2.85v1h-2.85v3h3.46Zm-4.44-8.56v-2.5H299.6v2.5Zm0,3.7V256.1H299.6v2.75Zm0,3.92v-3H299.6v3Z" transform="translate(-242.3 -105.15)"/><path d="M313.86,248.48l-1.09,3.35v12.92h-1V254.28a20.38,20.38,0,0,1-1.4,2.77l-.63-.92a34.58,34.58,0,0,0,3.16-8Zm1.41,14.77h-.93V251.07h.93Zm11.26-7.52-.54.93a17.25,17.25,0,0,1-4.62-1.93,18.57,18.57,0,0,1-5,1.93l-.5-.9a17.38,17.38,0,0,0,4.61-1.66,10.38,10.38,0,0,1-1.91-2l.88-.42a8.13,8.13,0,0,0,1.88,1.91,8.6,8.6,0,0,0,2.55-2.91h-5.15a10.92,10.92,0,0,1-2.06,2.18l-.85-.6a13.21,13.21,0,0,0,3.44-4.2l1,.25c-.33.57-.62,1-.86,1.4h6.9v1H325a9.67,9.67,0,0,1-2.78,3.45A13.9,13.9,0,0,0,326.53,255.73Zm-4.15,1a13,13,0,0,1-5.74,2.65l-.53-.86a12,12,0,0,0,5.47-2.42Zm2.1,1.41a14.62,14.62,0,0,1-7.54,3.8l-.55-.93a13.36,13.36,0,0,0,7.28-3.48Zm1.85,1.58a13.37,13.37,0,0,1-9.37,5.15l-.53-.92q6.22-.85,9-4.75Z" transform="translate(-242.3 -105.15)"/><path d="M277.19,385.61c-2,1.15-3.87,2.14-5.54,3l-.42-.83,2.59-1.31v-5.27h-2.25v-.89h2.25V376h-2.44V375h5.7V376h-2.3v4.31h2v.89h-2v4.73c.7-.36,1.43-.76,2.19-1.19ZM287.91,387a6,6,0,0,1-.4,2,1.81,1.81,0,0,1-.73.9,4,4,0,0,1-1.63.22c-.42,0-.79,0-1.1,0a1,1,0,0,1-.75-.34,1.47,1.47,0,0,1-.27-1v-4.44h-1.75c-.28,3.1-2,5.13-5.17,6.08l-.61-.8c3-.77,4.58-2.54,4.81-5.28h-2V374.23h8.23v10.09H284v4.44a.35.35,0,0,0,.18.32,2.84,2.84,0,0,0,1.12.12,1.89,1.89,0,0,0,1.1-.19,2.07,2.07,0,0,0,.41-1,6.05,6.05,0,0,0,.2-1.49Zm-2.3-9.83v-2.05H279.3v2.05Zm0,3.06v-2.14H279.3v2.14Zm0,3.14v-2.23H279.3v2.23Z" transform="translate(-242.3 -105.15)"/><path d="M295.79,384.19a35.85,35.85,0,0,1-4.93,2.35l-.4-1a15.8,15.8,0,0,0,2.43-1v-5.36h-2.2v-.94h2.2v-4.5h1v4.5h1.87v.94h-1.87v4.93a19.4,19.4,0,0,0,1.75-.94ZM307.08,382h-6.94a11.88,11.88,0,0,1-.83,1.3h7.14c0,1.12-.13,2.3-.26,3.52a13.27,13.27,0,0,1-.33,2.19,2.06,2.06,0,0,1-.43.67,2,2,0,0,1-.74.47,5.51,5.51,0,0,1-1.6.16l-.63,0-.38-1c.51,0,1,.08,1.47.08a1.93,1.93,0,0,0,1-.19,1.15,1.15,0,0,0,.37-.5,10,10,0,0,0,.27-1.73c.11-.94.18-1.87.22-2.79h-1.14a12,12,0,0,1-6.12,6.08l-.74-.7a11.38,11.38,0,0,0,5.83-5.38h-1.74a13.53,13.53,0,0,1-6.11,4.75l-.68-.78a12.79,12.79,0,0,0,5.65-4h-1.91a12.68,12.68,0,0,1-2.86,2.07l-.71-.72A9.93,9.93,0,0,0,299,382h-3.64v-.94h11.69Zm-1.32-2.25h-9.09v-5.59h9.09Zm-1-3.29v-1.35h-7.12v1.35Zm0,2.35v-1.45h-7.12v1.45Z" transform="translate(-242.3 -105.15)"/><path d="M315.52,382.12l-.75.62a22.52,22.52,0,0,0-1.42-2.26v9.9h-1V381a21.36,21.36,0,0,1-2.22,4.14l-.67-.74a22.32,22.32,0,0,0,2.87-5.83h-2.58v-.93h2.6v-3.94h1v3.94h1.91v.93h-1.91V379A24.45,24.45,0,0,1,315.52,382.12ZM326,386.43H320.5q-.81,3-5.17,3.95l-.56-.88c2.58-.46,4.15-1.49,4.73-3.07H315v-.92h4.75a10,10,0,0,0,.18-1.65h-3.45V378h8.38v5.87H320.9a14.7,14.7,0,0,1-.18,1.65H326Zm-5.7-10.24H319v1.07h-1v-1.07h-2.79v-.9H318v-1.58h1v1.58h1.26Zm3.64,4.23v-1.53h-6.51v1.53Zm0,2.55V381.3h-6.51V383Zm2.16-6.78h-2.72v1.07h-.95v-1.07H321v-.9h1.41v-1.58h.95v1.58h2.72Zm.14,13.37-.6.78a26.87,26.87,0,0,0-4.47-2.55l.63-.76A28.23,28.23,0,0,1,326.19,389.56Z" transform="translate(-242.3 -105.15)"/><path d="M330.87,385.84a26.82,26.82,0,0,1-1,4.44l-1-.36a21,21,0,0,0,1.08-4.35Zm5.2-9.21a51.11,51.11,0,0,1-5.28,7.08q1.6-.3,3.75-.9c-.1-.29-.25-.69-.46-1.19l.86-.32a17.87,17.87,0,0,1,1.06,3.21l-.91.26c-.11-.48-.2-.83-.27-1.06-1.81.5-3.64.93-5.47,1.27l-.28-.83a28.75,28.75,0,0,0,3.89-4.64l-3.63.59-.21-.91a21.35,21.35,0,0,0,3.44-5.59l.95.31a26.4,26.4,0,0,1-3,5q1.25-.15,3.12-.45c.29-.39.79-1.15,1.52-2.29Zm-2.63,12.8-1,.17a24.46,24.46,0,0,0-.45-3.93l.93-.16A29,29,0,0,1,333.44,389.43Zm2.3-1.6-.9.29a16.5,16.5,0,0,0-.59-2.59l.84-.28A15.72,15.72,0,0,1,335.74,387.83Zm9.68,2H335.6v-.93h1.33V374.18h7v14.68h1.46ZM343,378.86v-3.72h-5v3.72Zm0,4.89v-3.92h-5v3.92Zm0,5.11V384.7h-5v4.16Z" transform="translate(-242.3 -105.15)"/><path d="M298.49,398.68l-.7.71a15.62,15.62,0,0,0-2.94-2.92,17.6,17.6,0,0,1-3.72,4.51l-.56-.85a17.09,17.09,0,0,0,4.15-5.49l1,.28c-.16.35-.27.57-.34.69A16.21,16.21,0,0,1,298.49,398.68Zm-.42,5.06a8,8,0,0,1-.72,1.86,18.69,18.69,0,0,1-1.89,3.14,22,22,0,0,1,1.74,2l-.76.62a23.16,23.16,0,0,0-4.64-4.48l.69-.67c.67.51,1.42,1.13,2.26,1.88a13.62,13.62,0,0,0,2.3-4.33H291v-.95h7.12Zm-.62-2.85H292.8v-1h4.65Zm9.71-4.71h-3.74c-.29,1.14-.49,1.87-.6,2.21h3.45v9.26h-4.45l.61.56a18,18,0,0,1-3.63,3.15l-.69-.76a14.49,14.49,0,0,0,3.5-3h-2.26v-9.26h2.44a18.46,18.46,0,0,0,.58-2.21h-3.9v-.91h8.69Zm-1.87,4.8v-1.7h-5V401Zm0,2.74v-1.84h-5v1.84Zm0,3v-2.08h-5v2.08Zm2,3.93-.62.72a21.7,21.7,0,0,0-3.27-2.55l.62-.72A19,19,0,0,1,307.25,410.62Z" transform="translate(-242.3 -105.15)"/><path d="M312.65,403.21a20.79,20.79,0,0,1-1.77,5.35l-.95-.41a20.7,20.7,0,0,0,1.83-5.23Zm4.92-1.37h-2.93v9.48h-1v-9.48h-3.52v-.91h3.52v-6.27h1v6.27h2.93Zm-5-2.43-1,.38a14.93,14.93,0,0,0-1.39-3.4l.85-.38A16,16,0,0,1,312.54,399.41Zm5.13,6.74-1,.33a12.69,12.69,0,0,0-1.18-3.25l.89-.31A20.17,20.17,0,0,1,317.67,406.15Zm.14-9.8a18.53,18.53,0,0,1-1.38,3.56l-.91-.45a14.28,14.28,0,0,0,1.42-3.45Zm8.67,9.8-2,.38v4.83h-1v-4.63l-5.89,1.1-.13-1,6-1.14v-11h1v10.84l1.83-.35Zm-4.3-2.32-.74.76a15.38,15.38,0,0,0-3.11-3.17l.72-.7A20.47,20.47,0,0,1,322.18,403.83Zm.33-5.12-.74.73a16.56,16.56,0,0,0-3.06-2.59l.66-.71A18.78,18.78,0,0,1,322.51,398.71Z" transform="translate(-242.3 -105.15)"/><path d="M545,242.73h-7.55V228.36h7.23v1.44h-5.65v4.89h5.22v1.45h-5.22v5.14h6Z" transform="translate(-242.3 -105.15)"/><path d="M557.74,242.11a8.29,8.29,0,0,1-4,.86,6.35,6.35,0,0,1-4.88-2,7.3,7.3,0,0,1-1.85-5.16,7.81,7.81,0,0,1,2-5.51,6.89,6.89,0,0,1,5.28-2.19,8.28,8.28,0,0,1,3.38.6v1.71a7,7,0,0,0-3.42-.86,5.17,5.17,0,0,0-4.08,1.73,6.43,6.43,0,0,0-1.53,4.43,6.15,6.15,0,0,0,1.43,4.2,4.85,4.85,0,0,0,3.83,1.62,7.1,7.1,0,0,0,3.77-1Z" transform="translate(-242.3 -105.15)"/><path d="M572.39,242.73h-2l-7.5-11.61a6.32,6.32,0,0,1-.44-.86h-.06a15.31,15.31,0,0,1,.07,1.93v10.54H560.9V228.36H563l7.3,11.48c.37.6.56.92.58,1h0a16.27,16.27,0,0,1-.1-2.16v-10.3h1.58Z" transform="translate(-242.3 -105.15)"/><path d="M581.51,235.47l-.74.62a23.32,23.32,0,0,0-1.42-2.25v9.9h-1v-9.37a22,22,0,0,1-2.22,4.14l-.67-.75a22.57,22.57,0,0,0,2.87-5.82h-2.58V231h2.6v-3.93h1V231h1.9v.94h-1.9v.41A24.34,24.34,0,0,1,581.51,235.47ZM592,239.79h-5.46c-.53,2-2.26,3.32-5.16,4l-.56-.88q3.86-.71,4.73-3.07H581v-.92h4.75a9.32,9.32,0,0,0,.19-1.65h-3.45v-5.88h8.38v5.88h-3.94a14.44,14.44,0,0,1-.17,1.65H592Zm-5.71-10.25H585v1.08h-1v-1.08h-2.79v-.9H584v-1.57h1v1.57h1.25Zm3.65,4.23v-1.53h-6.51v1.53Zm0,2.56v-1.67h-6.51v1.67Zm2.15-6.79h-2.72v1.08h-.94v-1.08H587v-.9h1.41v-1.57h.94v1.57H592Zm.15,13.37-.6.78a26.89,26.89,0,0,0-4.47-2.54l.63-.76A30,30,0,0,1,592.19,242.91Z" transform="translate(-242.3 -105.15)"/><path d="M596.86,239.19a26,26,0,0,1-1,4.45l-1-.37a22.3,22.3,0,0,0,1.08-4.35Zm5.21-9.21a52.34,52.34,0,0,1-5.28,7.09q1.61-.3,3.75-.9c-.1-.29-.26-.69-.47-1.2l.87-.31a17.62,17.62,0,0,1,1,3.21l-.91.26c-.1-.48-.19-.83-.26-1.06-1.82.5-3.64.92-5.48,1.27l-.28-.84a28.2,28.2,0,0,0,3.9-4.63l-3.64.59-.2-.92a21.57,21.57,0,0,0,3.44-5.58l1,.3a26.09,26.09,0,0,1-3,5q1.25-.14,3.12-.45c.28-.38.79-1.15,1.52-2.29Zm-2.64,12.8-1,.18A24.2,24.2,0,0,0,598,239l.92-.16A27.28,27.28,0,0,1,599.43,242.78Zm2.3-1.59-.9.28a16.23,16.23,0,0,0-.58-2.58l.83-.28A14.34,14.34,0,0,1,601.73,241.19Zm9.69,1.95h-9.83v-.92h1.34V227.53h7v14.69h1.47ZM609,232.21V228.5h-5v3.71Zm0,4.89v-3.91h-5v3.91Zm0,5.12v-4.17h-5v4.17Z" transform="translate(-242.3 -105.15)"/><path d="M573,263.86l-.35.85a24.37,24.37,0,0,1-8-1.15,27.72,27.72,0,0,1-8,1.18l-.32-.86a29.39,29.39,0,0,0,7.08-.84,26.57,26.57,0,0,1-2.84-1.84l.72-.53a14.27,14.27,0,0,0,3.43,2,9.16,9.16,0,0,0,3.59-2.77h-7.69a13.08,13.08,0,0,1-3.12,1.71l-.61-.74a11.85,11.85,0,0,0,4.57-2.91l.92.36a2.3,2.3,0,0,1-.64.71h10.68v.87h-3a10.67,10.67,0,0,1-3.48,3.15A24.53,24.53,0,0,0,573,263.86Zm-14.82-8.22a9.76,9.76,0,0,1-1.08,2.52l-.71-.42a10.15,10.15,0,0,0,1-2.35Zm3.83-1.07-.75.27-.16-.56c-1.58.27-3,.47-4.15.6l-.25-.8a13.08,13.08,0,0,0,2.66-2.36c-.69.09-1.47.17-2.34.26l-.27-.76a14.45,14.45,0,0,0,2.57-3.23l.76.29a16.92,16.92,0,0,1-2.09,2.77,18.25,18.25,0,0,0,2.15-.3l.74-.93.78.38a20,20,0,0,1-3.48,3.7,20.47,20.47,0,0,0,2.58-.4,3.87,3.87,0,0,0-.34-.81l.7-.31A8.92,8.92,0,0,1,562,254.57Zm-2.09,3.23-.83.16a8.83,8.83,0,0,0-.36-2.32l.8-.2A10.29,10.29,0,0,1,559.88,257.8Zm1.76-.46-.76.15a10.56,10.56,0,0,0-.54-2.1l.8-.2A9.71,9.71,0,0,1,561.64,257.34Zm5.58-7.07H562v-.81h2.3a8.79,8.79,0,0,0-.6-1.18l.82-.34a8.71,8.71,0,0,1,.79,1.52h1.94Zm-.5,3.5h-4.35V253h4.35Zm0-1.75h-4.35v-.8h4.35Zm0,5.63h-4.35V254.7h4.35Zm-.83-.8v-1.33h-2.71v1.33Zm2.84-1.1a9.33,9.33,0,0,1-.92,2.39l-.74-.34a9.16,9.16,0,0,0,.86-2.41Zm3.85-1.07-.76.25a2.92,2.92,0,0,0-.18-.65c-1.51.27-2.94.47-4.3.6l-.25-.82a15.68,15.68,0,0,0,2.64-2.26c-.91.11-1.63.19-2.18.22l-.23-.8A15,15,0,0,0,570,248l.78.31a15.37,15.37,0,0,1-2.19,2.77c.67-.06,1.35-.15,2-.27l.87-1.06.74.38a22.21,22.21,0,0,1-3.66,3.74,18.6,18.6,0,0,0,2.83-.42,3,3,0,0,0-.33-.79l.76-.25A9,9,0,0,1,572.63,254.68Zm-2,3.21-.82.14a8.92,8.92,0,0,0-.3-2.36l.83-.15A8.28,8.28,0,0,1,570.6,257.89Zm2.13-.36-.81.21a10,10,0,0,0-.67-2.12l.78-.25A11.2,11.2,0,0,1,572.73,257.53Z" transform="translate(-242.3 -105.15)"/><path d="M592.3,263.73l-.36.94a30.91,30.91,0,0,1-9.44-1.83,12.68,12.68,0,0,1-6.34,1.94l-.51-1a12.24,12.24,0,0,0,5.77-1.42,17.17,17.17,0,0,1-3.5-2.17l.8-.62a12.66,12.66,0,0,0,3.47,2.12,5.47,5.47,0,0,0,1.26-3h-5.89v-7.1h6v-2.11h-7.73v-.93h16.32v.93h-7.58v2.11h5.81v7.1h-5.91a6.82,6.82,0,0,1-1.25,3.35A30.56,30.56,0,0,0,592.3,263.73Zm-8.76-9.1v-2H578.6v2Zm0,.92H578.6v2.25h4.88c0-.5.06-1,.06-1.45C583.54,256.08,583.53,255.81,583.52,255.55Zm5.82,2.25v-2.25h-4.77q0,1.53-.06,2.25Zm0-3.17v-2h-4.77v2Z" transform="translate(-242.3 -105.15)"/><path d="M553.92,389.47h-16.6v-1h7.77V375.54h-7v-1.05h14.94v1.05h-6.93v12.94h7.8Z" transform="translate(-242.3 -105.15)"/><path d="M573.13,387.65h-7.75v2.63h-1v-2.63h-7.76v-.92h7.76v-1.54h-5.8v-6h12.6v6h-5.82v1.54h7.75Zm-9.08-9.75H558v-3.74h6.06Zm-1-1v-1.84H559v1.84Zm1.31,4.71v-1.53h-4.81v1.53Zm0,2.62v-1.71h-4.81v1.71Zm5.81-2.62v-1.53h-4.83v1.53Zm0,2.62v-1.71h-4.83v1.71Zm1.63-6.36h-6v-3.74h6Zm-1-.93V375.1h-4.08V377Z" transform="translate(-242.3 -105.15)"/><path d="M581.51,382.12l-.74.62a21,21,0,0,0-1.42-2.25v9.89h-1V381a21.36,21.36,0,0,1-2.22,4.14l-.67-.74a22.64,22.64,0,0,0,2.87-5.83h-2.58v-.93h2.6v-3.94h1v3.94h1.9v.93h-1.9V379A24.34,24.34,0,0,1,581.51,382.12ZM592,386.43h-5.46c-.53,2-2.26,3.33-5.16,3.95l-.56-.88q3.86-.69,4.73-3.07H581v-.92h4.75a9.13,9.13,0,0,0,.19-1.65h-3.45V378h8.38v5.87h-3.94a14.44,14.44,0,0,1-.17,1.65H592Zm-5.71-10.24H585v1.08h-1v-1.08h-2.79v-.9H584v-1.58h1v1.58h1.25Zm3.65,4.23v-1.53h-6.51v1.53Zm0,2.55V381.3h-6.51V383Zm2.15-6.78h-2.72v1.08h-.94v-1.08H587v-.9h1.41v-1.58h.94v1.58H592Zm.15,13.37-.6.78a26.2,26.2,0,0,0-4.47-2.54l.63-.76A28.33,28.33,0,0,1,592.19,389.56Z" transform="translate(-242.3 -105.15)"/><path d="M596.86,385.84a25.79,25.79,0,0,1-1,4.44l-1-.36a22.3,22.3,0,0,0,1.08-4.35Zm5.21-9.21a52.78,52.78,0,0,1-5.28,7.08,38,38,0,0,0,3.75-.9c-.1-.29-.26-.69-.47-1.19l.87-.32a17.62,17.62,0,0,1,1,3.21l-.91.26c-.1-.48-.19-.83-.26-1.06-1.82.5-3.64.93-5.48,1.27l-.28-.83a28.29,28.29,0,0,0,3.9-4.64c-2,.32-3.18.51-3.64.6l-.2-.92a21.45,21.45,0,0,0,3.44-5.59l1,.31a26.4,26.4,0,0,1-3,5c.83-.1,1.87-.24,3.12-.45.28-.39.79-1.15,1.52-2.29Zm-2.64,12.8-1,.18a24.46,24.46,0,0,0-.45-3.94l.92-.16A27.46,27.46,0,0,1,599.43,389.43Zm2.3-1.6-.9.29a16.32,16.32,0,0,0-.58-2.59l.83-.28A14.77,14.77,0,0,1,601.73,387.83Zm9.69,2h-9.83v-.93h1.34V374.18h7v14.68h1.47ZM609,378.86v-3.72h-5v3.72Zm0,4.89v-3.91h-5v3.91Zm0,5.11V384.7h-5v4.16Z" transform="translate(-242.3 -105.15)"/><path d="M562,403.23c-1,.45-1.71.75-2.07.89v6.07a1.05,1.05,0,0,1-.39.78,2,2,0,0,1-1.34.36,6.53,6.53,0,0,1-1-.08l-.22-1c.4,0,.88.06,1.43.06.37,0,.55-.19.55-.58v-5.2a17,17,0,0,1-2.16.85l-.29-1c.61-.18,1.43-.48,2.45-.89V399h-2.3V398H559v-3.27h1V398h1.92V399h-1.92v4.15c.61-.24,1.25-.52,1.9-.84Zm11.06,3.32h-5.28c-.7,2.13-2.7,3.72-6,4.79l-.59-.89q4.41-1.31,5.51-3.9h-5.15v-.95h1.66v-5.79c-.33.29-.59.5-.78.65l-.67-.8a15.32,15.32,0,0,0,4.18-5.13l.86.43c-.09.2-.27.55-.53,1.07h4.93v1l-1.5,2.08h2.4v6.54h.93ZM570,397h-4.36a15,15,0,0,1-1.68,2.08h4.53Zm1.1,8.62V400h-2.87a8.14,8.14,0,0,1-.32,1.56,13.46,13.46,0,0,1,2.61,2.41l-.62.7a15,15,0,0,0-2.39-2.32,6.47,6.47,0,0,1-2.39,2.34l-.62-.76a4.76,4.76,0,0,0,2.74-3.93h-3v5.56H567c.08-.51.13-.94.17-1.29l1,.06a5,5,0,0,1-.11,1.23Zm1.6,5.08-.69.7a17.83,17.83,0,0,0-3.81-3l.58-.71A14.72,14.72,0,0,1,572.74,410.68Z" transform="translate(-242.3 -105.15)"/><path d="M578.64,403.21a20.44,20.44,0,0,1-1.76,5.35l-1-.41a20,20,0,0,0,1.83-5.23Zm4.93-1.37h-2.93v9.48h-1v-9.48h-3.51v-.91h3.51v-6.27h1v6.27h2.93Zm-5-2.43-.95.38a14.48,14.48,0,0,0-1.39-3.4l.86-.38A15.86,15.86,0,0,1,578.53,399.41Zm5.13,6.74-1,.33a12.69,12.69,0,0,0-1.18-3.25l.88-.31A18.43,18.43,0,0,1,583.66,406.15Zm.15-9.79a19.37,19.37,0,0,1-1.38,3.55l-.91-.45a14.28,14.28,0,0,0,1.42-3.45Zm8.67,9.79-2,.38v4.83h-1v-4.63l-5.89,1.1-.13-.95,6-1.15v-11h1v10.84l1.82-.34Zm-4.3-2.32-.74.76a15.64,15.64,0,0,0-3.11-3.17l.71-.7A21,21,0,0,1,588.18,403.83Zm.32-5.12-.74.73a16.14,16.14,0,0,0-3-2.59l.66-.71A18.33,18.33,0,0,1,588.5,398.71Z" transform="translate(-242.3 -105.15)"/><path d="M412.64,164.26h-7.71v4.84h-1v-4.84h-7.81v-.94h7.81v-1.56h-7v-.89h7v-1.49h-7.37v-.92h5a7.44,7.44,0,0,0-1.07-1.49l.73-.45h-5.06v-1h6.27v-3.07h1v3.07h2.14v-3.07h.95v3.07h6.16v1h-4.95l.69.47a6.74,6.74,0,0,1-1,1.47h4.81v.92h-7.28v1.49h6.82v.89h-6.82v1.56h7.71Zm-10.4,1.45a20.31,20.31,0,0,1-5.44,2.9l-.63-.83a18.18,18.18,0,0,0,5.34-2.72Zm-1.8-11.06-.83.49a12.63,12.63,0,0,0-1.86-1.91l.86-.59A14.31,14.31,0,0,1,400.44,154.65Zm7,1.87h-6a14.5,14.5,0,0,1,1.25,1.94h3.57A8.32,8.32,0,0,0,407.42,156.52ZM412.66,168l-.56.78a37.12,37.12,0,0,0-5.55-3l.56-.76A34,34,0,0,1,412.66,168Zm-1.54-14.9a9,9,0,0,1-1.92,2l-.87-.49a13.43,13.43,0,0,0,1.9-1.92Z" transform="translate(-242.3 -105.15)"/><path d="M422.62,158.57a8.23,8.23,0,0,1-1.48,4.37l-.72-.69a8.12,8.12,0,0,0,1.14-2.74h-1.77v8.34a1.34,1.34,0,0,1-.31.78c-.2.27-.71.4-1.53.4a7.57,7.57,0,0,1-.87-.05l-.56-1c.8.06,1.43.09,1.88.09a.48.48,0,0,0,.3-.14.41.41,0,0,0,.16-.28v-6.86a22.78,22.78,0,0,1-2.89,5.45l-.65-.76a22,22,0,0,0,3-6h-3v-.94h4.2a15.39,15.39,0,0,0-2.92-2.56l.69-.63c.45.3,1,.75,1.72,1.32a17.63,17.63,0,0,0,2.09-2.87h-5.11v-.94h6.19v.94a20.23,20.23,0,0,1-2.44,3.5l.65.73-.58.51Zm8.17,4.35a27.11,27.11,0,0,1-.31,3.5,5.32,5.32,0,0,1-.5,1.88,2.68,2.68,0,0,1-.64.56,6.53,6.53,0,0,1-2.45.17l-.45-1c.39,0,.81.05,1.27.05A4.45,4.45,0,0,0,429,168a.77.77,0,0,0,.31-.31,5.6,5.6,0,0,0,.26-1.25c.1-.71.19-1.55.27-2.54h-3.18a7.12,7.12,0,0,1-4.71,5.24l-.72-.78a7,7,0,0,0,2.84-1.73,5.77,5.77,0,0,0,1.62-2.73h-3v-.94h3.25A13,13,0,0,0,426,161l.95,0a15.43,15.43,0,0,1-.15,1.87Zm1.12-2.3-.55.85a13.38,13.38,0,0,1-4.09-2,14.36,14.36,0,0,1-3.64,2l-.67-.81a11.93,11.93,0,0,0,3.53-1.8,10.12,10.12,0,0,1-1.7-2.12l.83-.47a7.52,7.52,0,0,0,1.62,2,7.25,7.25,0,0,0,2-3.06h-4.07a14.18,14.18,0,0,1-2.22,2.34l-.73-.68a13.46,13.46,0,0,0,3.57-4.47l.94.36a11.35,11.35,0,0,1-.89,1.51h5.77v.94h-1.34A9,9,0,0,1,428,158.8,12.45,12.45,0,0,0,431.91,160.62Z" transform="translate(-242.3 -105.15)"/><path d="M439.93,152.69a21.43,21.43,0,0,1-.93,2l-.63,1.23V169h-1V157.64a21.72,21.72,0,0,1-2.48,3.13l-.54-.93a24.8,24.8,0,0,0,4.65-7.49Zm11.21,4.13h-5.38v4.23h3.95V169h-1v-1h-7v1h-1v-7.93h4v-4.23h-5v-1h5v-3.44h1v3.44h5.38ZM448.69,167v-4.92h-7V167Z" transform="translate(-242.3 -105.15)"/><path d="M461.55,165.39h-3.32v3.66h-1v-3.66h-3.59v-1h3.59v-2.15h-3.13v-1h1.73a16.86,16.86,0,0,0-.79-2.86h-1.28v-.94h3.47v-2h-3v-.93h3v-2.14h1v2.14h2.87v.93h-2.87v2h3.15v.94h-1.1a26.52,26.52,0,0,1-.78,2.86h1.6v1h-2.85v2.15h3.32Zm-2.3-6.93h-3.14a28.59,28.59,0,0,1,.73,2.86h1.69A21.77,21.77,0,0,0,459.25,158.46Zm10.95,9.88-.55.76a13.45,13.45,0,0,1-2.72-2.4,12,12,0,0,1-2.51,2.38h-.08l-.64-.69a11,11,0,0,0,2.64-2.39,15.88,15.88,0,0,1-2.4-6.26h-.78v9.31h-.94V152.94h7.07a18.71,18.71,0,0,1-.13,3.15,1.57,1.57,0,0,1-.73,1.18,6.31,6.31,0,0,1-2.55.23l-.29-.89a11.93,11.93,0,0,0,2.28-.1c.16-.06.28-.31.36-.73a9,9,0,0,0,.1-1.91h-5.17v4.91h6.15a16.9,16.9,0,0,1-1.81,7.14A10.11,10.11,0,0,0,470.2,168.34Zm-1.94-8.6h-3.38a14.49,14.49,0,0,0,2,5.37A14.09,14.09,0,0,0,468.26,159.74Z" transform="translate(-242.3 -105.15)"/><path d="M477.21,152.58c-.18.6-.42,1.34-.75,2.24l-.47,1.32V169h-.94v-10.9a18.57,18.57,0,0,1-1.58,2.54l-.6-1a21,21,0,0,0,3.37-7.4Zm11.09,13.57h-6.67l.56.59a12.17,12.17,0,0,1-4.31,2.37l-.58-.81a15.05,15.05,0,0,0,4.07-2.15H478.6V159.4h9.7Zm1.22-12.39h-4V155h3.3v3.41H478V155h3.34v-1.25h-3.71v-.85h11.9Zm-8.19,3.82v-1.75h-2.42v1.75Zm6,3.8v-1.16h-7.82v1.16Zm0,2v-1.21h-7.82v1.21Zm0,2v-1.22h-7.82v1.22ZM484.6,155v-1.25h-2.35V155Zm0,2.57v-1.75h-2.35v1.75Zm5,10.62L489,169a19.9,19.9,0,0,0-4.32-1.65l.51-.84A22.05,22.05,0,0,1,489.59,168.2Zm-1.7-10.62v-1.75h-2.38v1.75Z" transform="translate(-242.3 -105.15)"/><path d="M411.52,181.81l-.74.62a23.32,23.32,0,0,0-1.42-2.25v9.9h-1v-9.37a22.55,22.55,0,0,1-2.22,4.14l-.67-.75a22.57,22.57,0,0,0,2.87-5.82h-2.58v-.94h2.6v-3.93h1v3.93h1.9v.94h-1.9v.41A24.34,24.34,0,0,1,411.52,181.81ZM422,186.13H416.5c-.53,2-2.26,3.32-5.16,4l-.56-.88q3.86-.7,4.73-3.07H411v-.92h4.75a9.32,9.32,0,0,0,.19-1.65h-3.45v-5.88h8.38v5.88H416.9a14.44,14.44,0,0,1-.17,1.65H422Zm-5.71-10.25H415V177h-1v-1.08H411.2V175H414v-1.57h1V175h1.25Zm3.65,4.23v-1.53h-6.51v1.53Zm0,2.56V181h-6.51v1.67Zm2.15-6.79h-2.72V177h-.94v-1.08H417V175h1.41v-1.57h.94V175h2.72Zm.15,13.37-.6.78a26.89,26.89,0,0,0-4.47-2.54l.63-.76A30,30,0,0,1,422.2,189.25Z" transform="translate(-242.3 -105.15)"/><path d="M426.87,185.53a26,26,0,0,1-1,4.45l-1-.37a22.3,22.3,0,0,0,1.08-4.35Zm5.21-9.21a53,53,0,0,1-5.28,7.09q1.6-.3,3.75-.9c-.1-.29-.26-.69-.47-1.2L431,181a17.62,17.62,0,0,1,1.05,3.21l-.91.25c-.1-.47-.19-.82-.26-1.05-1.82.5-3.64.92-5.48,1.27l-.28-.84a27.88,27.88,0,0,0,3.9-4.64l-3.64.6-.2-.92a21.45,21.45,0,0,0,3.44-5.59l.95.31a26.09,26.09,0,0,1-3,5q1.25-.13,3.12-.45c.28-.38.79-1.15,1.52-2.29Zm-2.64,12.8-1,.18a24.46,24.46,0,0,0-.45-3.94l.92-.15A27.28,27.28,0,0,1,429.44,189.12Zm2.3-1.59-.9.28a16.23,16.23,0,0,0-.58-2.58l.83-.28A14.34,14.34,0,0,1,431.74,187.53Zm9.69,1.95H431.6v-.92h1.34V173.87h7v14.69h1.47ZM439,178.56v-3.73h-5v3.73Zm0,4.88v-3.91h-5v3.91Zm0,5.12v-4.17h-5v4.17Z" transform="translate(-242.3 -105.15)"/><path d="M460.77,188.83l-.36,1H454a14.5,14.5,0,0,1-4.39-.53,6.43,6.43,0,0,1-2.7-1.74,8.33,8.33,0,0,1-2.11,2.59l-.68-.61a10.58,10.58,0,0,0,3.28-6.11h-2.79v-1a29.54,29.54,0,0,0,2.55-3.85h-3v-1h4.06v1a44.57,44.57,0,0,1-2.44,3.87h2.55v.94a12.83,12.83,0,0,1-1,3.23c1.19,1.48,3.27,2.21,6.25,2.21ZM448,176.26l-.72.64a25.22,25.22,0,0,0-2.58-2.59l.62-.73A20,20,0,0,1,448,176.26Zm12.44,8.84H448.76v-.93h3.12v-1.49h-2.64v-1h2.64v-1.2h1v1.2h3.48v-1.2h1v1.2h2.76v1h-2.76v1.49h3.19Zm-7.27,1a18,18,0,0,1-3.38,1.67l-.65-.79a18.11,18.11,0,0,0,3.34-1.6Zm1.08-6.72c-1.14.28-2.69.62-4.63,1l-.38-.86a.81.81,0,0,0,.34-.54v-5.15h4.2v3.57h-3.27v1.84c1.19-.24,2.4-.52,3.62-.84Zm-1.39-2.88v-1.72h-2.35v1.72Zm3.43,7.63v-1.49h-3.48v1.49Zm3.89-4.24h-3.93a1,1,0,0,1-.62-.34.89.89,0,0,1-.35-.64v-5h4.31v3.57h-3.38v1.23a.37.37,0,0,0,.11.23.33.33,0,0,0,.22.12h3.64ZM460,187l-.47.78a22.75,22.75,0,0,0-3.59-1.52l.51-.8A18.89,18.89,0,0,1,460,187Zm-1.31-10.46v-1.72h-2.43v1.72Z" transform="translate(-242.3 -105.15)"/><path d="M472.11,174.91h-2.84v2.47h2.3V190h-1v-1.11H465v1.09h-1V177.38h2.32v-2.47h-2.89V174h8.66Zm-1.5,13V183h-.87c-.94,0-1.4-.43-1.4-1.27V178.3h-1.16q0,4.32-1.77,6l-.4-.34v4Zm-4.33-9.61H465v5C465.85,182.33,466.28,180.68,466.28,178.3Zm3.53,7.52h-4.1V185h4.1Zm-1.47-8.44v-2.47h-1.11v2.47Zm2.27,4.69V178.3h-1.34v3.3c0,.31.18.47.54.47Zm9.31,3.59a10.53,10.53,0,0,1-.39,3.05,1.47,1.47,0,0,1-.81.8,8.36,8.36,0,0,1-2.33.2,22.91,22.91,0,0,1-2.37-.07,1.14,1.14,0,0,1-.64-.4,1.43,1.43,0,0,1-.29-1v-8.4h5.06v-5H472.8v-.95h6.35v6.86H474v7.36a.53.53,0,0,0,.17.37.69.69,0,0,0,.46.18h3.08c.57,0,.92-.32,1-1a12.52,12.52,0,0,0,.19-2.38Z" transform="translate(-242.3 -105.15)"/><path d="M406.92,309V296.15h3.6a3.91,3.91,0,0,1,2.58.81,2.64,2.64,0,0,1,1,2.13,3.14,3.14,0,0,1-.58,1.89,3.09,3.09,0,0,1-1.63,1.17v0a3.11,3.11,0,0,1,2.07,1,3.07,3.07,0,0,1,.79,2.18,3.39,3.39,0,0,1-1.18,2.66,4.36,4.36,0,0,1-3,1Zm1.41-11.55v4.23h1.57a3,3,0,0,0,2-.61,2.15,2.15,0,0,0,.71-1.71c0-1.27-.83-1.91-2.49-1.91Zm0,5.53v4.71h2.09a3.1,3.1,0,0,0,2.08-.64,2.16,2.16,0,0,0,.75-1.75c0-1.55-1.06-2.32-3.17-2.32Z" transform="translate(-242.3 -105.15)" style="fill:#fff"/><path d="M416.38,302.74a7.07,7.07,0,0,1,1.68-4.95,5.82,5.82,0,0,1,4.55-1.85,5.46,5.46,0,0,1,4.28,1.81,6.71,6.71,0,0,1,1.62,4.66,7.26,7.26,0,0,1-1.64,4.95,6.22,6.22,0,0,1-8.84.05A6.68,6.68,0,0,1,416.38,302.74Zm1.49-.14a5.87,5.87,0,0,0,1.23,3.83,4,4,0,0,0,3.28,1.52,4.29,4.29,0,0,0,3.43-1.43,5.78,5.78,0,0,0,1.22-3.89,6,6,0,0,0-1.18-4,4.11,4.11,0,0,0-3.35-1.43,4.17,4.17,0,0,0-3.37,1.52A5.85,5.85,0,0,0,417.87,302.6Z" transform="translate(-242.3 -105.15)" style="fill:#fff"/><path d="M442.51,309v-8.68c0-.66,0-1.49.13-2.48h0a6.74,6.74,0,0,1-.38,1.21L437.74,309h-.63l-4.48-9.89a7.73,7.73,0,0,1-.37-1.27h0c0,.45.07,1.27.07,2.45V309h-1.38V296.15h1.85l4,9.06a11.69,11.69,0,0,1,.6,1.52h.06c.17-.45.37-1,.62-1.56l4.12-9h1.74V309Z" transform="translate(-242.3 -105.15)" style="fill:#fff"/><path d="M461.84,309l-.48.83a21.93,21.93,0,0,1-7.14-2.43,19.28,19.28,0,0,1-7,2.52l-.66-.89a18.65,18.65,0,0,0,6.87-2.19,16.32,16.32,0,0,1-4.25-4.83h-.81v-.93h5.4v-2.87h-7v-.9h7v-2.44h.88v2.44h7v.9h-7v2.87h4.65V302a16,16,0,0,1-4.28,4.8A20.93,20.93,0,0,0,461.84,309Zm-3.63-7h-8a13.8,13.8,0,0,0,4,4.27A14,14,0,0,0,458.21,302Z" transform="translate(-242.3 -105.15)" style="fill:#fff"/><path d="M478.75,297.06H466.21V302a21.89,21.89,0,0,1-1.35,8l-.73-.62a20.61,20.61,0,0,0,1.23-7.38v-5.71h6.36l-.68-1.09.88-.2a5.7,5.7,0,0,1,.76,1.29h6.07Zm-9.65,9.15a12.56,12.56,0,0,1-2,3.26l-.67-.58a9.92,9.92,0,0,0,1.85-3Zm.95-8.55A10.88,10.88,0,0,1,469,300v5.32h-.85v-4.11a12,12,0,0,1-1,1.22l-.57-.67a11.7,11.7,0,0,0,2.76-4.36Zm8.52,7.46H471v-4.25c-.28.35-.67.81-1.16,1.36l-.5-.72a15.41,15.41,0,0,0,2.82-4.15l.74.3a9,9,0,0,1-.59,1.22h2.55a7.6,7.6,0,0,0-.64-1.16l.83-.24a6.82,6.82,0,0,1,.74,1.4h2.71v.78h-3.13v1h2.89v.79h-2.89v1.07h2.89v.78h-2.89v1.06h3.18Zm-2.21,2.58a3.37,3.37,0,0,1-.3,1.31,1.16,1.16,0,0,1-.74.59,13.18,13.18,0,0,1-2.5.14,9.31,9.31,0,0,1-1.79-.1,1,1,0,0,1-.61-.42,1.58,1.58,0,0,1-.22-.92v-2.45h.86v2.5c0,.27.08.43.23.49a8.49,8.49,0,0,0,1.73.09,12,12,0,0,0,1.88-.08.68.68,0,0,0,.45-.36,2.48,2.48,0,0,0,.16-1.11Zm-1.8-7.06v-1h-2.67v1Zm0,1.86v-1.07h-2.69v1.07Zm0,1.84v-1.06h-2.69v1.06Zm-.18,3-.74.48a10.22,10.22,0,0,0-1.48-1.75l.74-.5A11.09,11.09,0,0,1,474.4,307.38Zm4.61,1.5-.73.44a16.48,16.48,0,0,0-2.06-3l.75-.45A16.43,16.43,0,0,1,479,308.88Z" transform="translate(-242.3 -105.15)" style="fill:#fff"/><path d="M413.4,329.75a1.06,1.06,0,0,1-1.1,1.12h-1.09l-.88,0-.31-.92c.44.05,1.15.07,2.12.07a.33.33,0,0,0,.26-.13.44.44,0,0,0,.12-.29v-2.47h-3.86A9,9,0,0,1,407,331l-.68-.62a10,10,0,0,0,1.62-6.13v-3.76h5.44ZM421.12,319H406.36v-.84h14.76Zm-8.6,7.27V324.2h-3.68c0,.44,0,1.13-.1,2.08Zm0-3v-1.95h-3.68v1.95Zm0-5.76-.86.36a10.19,10.19,0,0,0-1.7-1.57l.94-.37A10.17,10.17,0,0,1,412.52,317.55Zm5.19-1.17a7.4,7.4,0,0,1-1.66,1.51l-.9-.46a9.84,9.84,0,0,0,1.78-1.46ZM416.44,328h-.85v-7.29h.85Zm3.37,1.6a1.26,1.26,0,0,1-.23.77.93.93,0,0,1-.57.39,7.36,7.36,0,0,1-1.3.07l-1.2,0-.32-.93,2.33.08c.28,0,.42-.14.42-.49v-9.16h.87Z" transform="translate(-242.3 -105.15)" style="fill:#fff"/><path d="M428.32,327.84h-.86l0-.88h-2.23v1.35h-.9V317.45h4Zm-.88-1.77v-7.75h-2.23v7.75Zm11-.41h-4.33v3.93a1.15,1.15,0,0,1-.44,1,2.66,2.66,0,0,1-1.54.33q-.51,0-1.26-.06l-.33-.9c.54.05,1.12.08,1.75.08a1.14,1.14,0,0,0,.75-.18.65.65,0,0,0,.18-.5v-3.7h-4.4v-.89h4.4v-6.66c-1.38.16-2.68.27-3.91.32l-.27-.88a25.58,25.58,0,0,0,8.55-1.41l.48.76a15.88,15.88,0,0,1-4,1.06v6.81h4.33Zm-6.29-2.57-.78.38a25.1,25.1,0,0,0-1.88-3.54l.76-.41A21.44,21.44,0,0,1,432.18,323.09Zm5.44-3.21a17.67,17.67,0,0,1-1.75,3.67l-.78-.39a16.59,16.59,0,0,0,1.73-3.64Z" transform="translate(-242.3 -105.15)" style="fill:#fff"/><path d="M455.72,318.06H443.18V323a22.11,22.11,0,0,1-1.34,8l-.73-.62a20.62,20.62,0,0,0,1.22-7.38v-5.71h6.36c-.22-.36-.44-.73-.68-1.09l.88-.2a5.72,5.72,0,0,1,.77,1.29h6.06Zm-9.65,9.15a12.56,12.56,0,0,1-2,3.26l-.66-.58a10.33,10.33,0,0,0,1.85-3Zm1-8.55A11.52,11.52,0,0,1,446,321v5.32h-.85v-4.11a9.85,9.85,0,0,1-1.05,1.22l-.56-.67a11.79,11.79,0,0,0,2.75-4.36Zm8.51,7.46H448v-4.25c-.29.35-.67.81-1.17,1.36l-.5-.72a15.41,15.41,0,0,0,2.82-4.15l.75.3a10.52,10.52,0,0,1-.6,1.22h2.56a8,8,0,0,0-.65-1.16l.83-.24a6.79,6.79,0,0,1,.75,1.4h2.7v.78h-3.13v1h2.89v.79h-2.89v1.07h2.89v.78h-2.89v1.06h3.18Zm-2.21,2.58A3.37,3.37,0,0,1,453,330a1.16,1.16,0,0,1-.74.59,13.1,13.1,0,0,1-2.5.14,9.38,9.38,0,0,1-1.79-.1,1,1,0,0,1-.61-.42,1.66,1.66,0,0,1-.22-.92v-2.45H448v2.5c0,.27.08.43.24.49a8.29,8.29,0,0,0,1.72.09,12.24,12.24,0,0,0,1.89-.08.72.72,0,0,0,.45-.36,2.69,2.69,0,0,0,.15-1.11Zm-1.8-7.06v-1h-2.67v1Zm0,1.86v-1.07h-2.69v1.07Zm0,1.84v-1.06h-2.69v1.06Zm-.17,3-.75.48a10.22,10.22,0,0,0-1.48-1.75l.75-.5A12.25,12.25,0,0,1,451.38,328.38Zm4.6,1.5-.73.44a16,16,0,0,0-2.06-3l.75-.45A16.43,16.43,0,0,1,456,329.88Z" transform="translate(-242.3 -105.15)" style="fill:#fff"/><path d="M463.31,319.76a22.56,22.56,0,0,1-1.63,2.51v8.57h-.9v-7.37c-.66.72-1.28,1.32-1.83,1.82l-.62-.72a19.16,19.16,0,0,0,4.2-5.13Zm-.51-3.45a16.23,16.23,0,0,1-3.74,3.72l-.58-.66a12.75,12.75,0,0,0,3.5-3.45ZM473.39,330l-.34.88A20.08,20.08,0,0,1,468,329a20,20,0,0,1-5.34,1.85l-.46-.81a17.14,17.14,0,0,0,4.95-1.6,13.24,13.24,0,0,1-2.18-2.06,13.9,13.9,0,0,1-1.75,1.19l-.63-.65a9.3,9.3,0,0,0,1.8-1.18c-.26-.32-.5-.62-.69-.9l.68-.55a7,7,0,0,0,.68.85,5.62,5.62,0,0,0,1.36-1.84l-2.86.13-.2-.89a17.61,17.61,0,0,0,4.38-2.31l-3.77.2-.16-.88a12.4,12.4,0,0,0,4.39-3.69l.85.32a12.91,12.91,0,0,1-3.52,3.32c.85,0,2-.1,3.49-.24.78-.62,1.51-1.25,2.17-1.89l.87.4a28.47,28.47,0,0,1-6.5,4.74c1.4,0,3.3-.18,5.71-.46a12.52,12.52,0,0,0-1.07-1.41l.75-.46a17.58,17.58,0,0,1,2.43,3.61l-.74.44a9.08,9.08,0,0,0-.82-1.41c-1.33.16-2.81.29-4.42.4a10.17,10.17,0,0,1-.88,1.6h5.27v.83a15.73,15.73,0,0,1-2.95,2.81A17.78,17.78,0,0,0,473.39,330Zm-2.81-4.35h-4.8a.85.85,0,0,1-.14.17A11.81,11.81,0,0,0,468,328,12.73,12.73,0,0,0,470.58,325.69Z" transform="translate(-242.3 -105.15)" style="fill:#fff"/><path d="M429.24,226h-2.85l-.16,2.84h2.84c0,4.3-.21,6.77-.52,7.44s-1.23,1-2.76,1l-1.15,0-.53-1.7c1.62,0,2.48,0,2.59,0a.58.58,0,0,0,.26-.21,4.69,4.69,0,0,0,.21-1.42c.06-.84.11-2,.14-3.34h-2.92l.4-6.14h2.74v-2.6h-3.38v-1.66h5.09Zm12.35,8.74h-5.06v2.48h-1.64v-2.48h-5.18v-1.47h5.18v-1.09h-4.16v-6.87h9.94v6.87h-4.14v1.09h5.06Zm-6.48-10.32h-4.88v-4.34h4.88Zm-1.5-1.4V221.5h-1.84V223Zm1.28,5v-1.29h-2.44V228Zm0,2.71V229.4h-2.44v1.35Zm6.2-6.33h-4.9v-4.34h4.9ZM439,228v-1.31h-2.5V228Zm0,2.71V229.4h-2.5v1.35Zm.5-7.73V221.5h-1.8V223Z" transform="translate(-242.3 -105.15)" style="fill:#fff"/><path d="M446.11,224.4a29.48,29.48,0,0,1-.66,5l-1.48-.65a30.65,30.65,0,0,0,.58-4.64Zm4.18,1.26-1.05,1.39c-.25-.41-.53-.83-.84-1.24v11.56h-1.73l-.06-17.48,0,0,1.72,0v3.69A17.52,17.52,0,0,1,450.29,225.66ZM461.53,237H450.08v-1.71h5.07V231H451v-1.68h4.14v-3.67h-2.42a17,17,0,0,1-1.52,3l-1.6-.8a19.69,19.69,0,0,0,2.58-6.74l1.7.27a22.75,22.75,0,0,1-.58,2.52h1.84v-4.05h1.78V224H461v1.7h-4.1v3.7h3.66V231h-3.66v4.2h4.6Z" transform="translate(-242.3 -105.15)" style="fill:#fff"/><path d="M353.48,271.39a29,29,0,0,1-.82,5.4l-1.47-.8a24.2,24.2,0,0,0,.76-4.9Zm0-4.28-1.43.54a28.9,28.9,0,0,0-.78-3.84l1.41-.52A26.87,26.87,0,0,1,353.5,267.11Zm4.27,2.92h-2v9.44H354V270h-2.72v-1.76H354v-6.22h1.72v6.22h2Zm.37-6.12a29.51,29.51,0,0,1-.63,3.74l-1.38-.46a21.06,21.06,0,0,0,.58-3.68Zm0,11.78-1.54.5a36.69,36.69,0,0,0-.36-4.74l1.43-.36C357.94,273.06,358.1,274.59,358.15,275.69Zm9.72,2.06a1.8,1.8,0,0,1-.54,1.32c-.35.36-1.24.5-2.64.42l-.62-1.68,1.74,0c.22,0,.32-.1.32-.29v-1.09h-5.57a9.06,9.06,0,0,1-1.37,3.24l-1.28-1.28a7.32,7.32,0,0,0,1.14-4.4v-3.68h8.82Zm.88-8.46H358.31v-1.42h4.3v-1H358.9v-1.28h3.71v-.92h-4.07v-1.44h4.07v-1.12h1.75v1.12h4.09v1.44h-4.09v.92h3.78v1.28h-3.78v1h4.39Zm-2.62,5.82v-1.06h-5.38c0,.36,0,.71,0,1.06Zm0-2.4v-1h-5.36v1Z" transform="translate(-242.3 -105.15)" style="fill:#fff"/><path d="M375.23,267.87l-1.12,1.38a16.49,16.49,0,0,0-3.05-2.2l1-1.46A18,18,0,0,1,375.23,267.87Zm13.5,8.68h-7.86v3h-1.74v-3h-7.86v-1.66h7.86v-1.36h-1.89v-6c-.49.49-.76.75-.82.8l-1.05-1.5a14,14,0,0,0,3.42-5.08l1.6.58a18.88,18.88,0,0,1-.9,1.84h2.77c-.21-.55-.45-1.2-.75-1.94l1.78-.46a25,25,0,0,1,.84,2.4h4.08v1.46h-4.33v1.12h3.55v1.44h-3.55v1.16h3.55v1.43h-3.55V272h4.62v1.52h-7.63v1.36h7.86Zm-12.29-6.08a25.81,25.81,0,0,1-3.87,3.88L371.35,273a34.57,34.57,0,0,0,3.88-3.78Zm.09-6.22-1.14,1.38a14.61,14.61,0,0,0-3.34-2.34l1.05-1.4A13.81,13.81,0,0,1,376.53,264.25Zm5.62,2.54v-1.12H379v1.12Zm0,2.6v-1.16H379v1.16Zm0,2.62v-1.19H379V272Z" transform="translate(-242.3 -105.15)" style="fill:#fff"/><path d="M358.58,346.76a15.65,15.65,0,0,1-2.44,4.4,17.63,17.63,0,0,1-3.63,3.68l-1.24-1.28a16.62,16.62,0,0,0,5.82-7.46Zm7.27,6.61c0,1.86-.06,3.7-.21,5.53a14.77,14.77,0,0,1-.51,3.38,2.17,2.17,0,0,1-.86,1,2.61,2.61,0,0,1-1.42.37c-1.24,0-2.08,0-2.52,0l-.61-1.78c.94.07,1.92.1,2.92.1a1.22,1.22,0,0,0,.68-.19q.31-.19.48-2.49c.11-1.53.18-2.91.2-4.14h-4.33a10.85,10.85,0,0,1-6.4,8.67L352,362.4a10.42,10.42,0,0,0,3.78-2.69,8.08,8.08,0,0,0,2-4.59h-3.18v-1.75Zm3.11.13-1.13,1.43a15.56,15.56,0,0,1-5-6.87H361v-1.7h3A13.38,13.38,0,0,0,369,353.5Z" transform="translate(-242.3 -105.15)" style="fill:#fff"/><path d="M381.65,354.84H371.46v-1.57h2.65a17.19,17.19,0,0,0-1.2-2.82l1.32-.8h-2.37V348h4a9.19,9.19,0,0,0-.84-1.6l1.76-.46a11.64,11.64,0,0,1,.95,2.06h3.61v1.61h-2l1.25.7c-.28.8-.69,1.77-1.22,2.92h2.33Zm-1.07,8.74h-1.71v-1.13h-4.51v1.13h-1.77v-7.35h8Zm-1.71-2.73v-3h-4.51v3Zm.05-11.2h-4.43a24.94,24.94,0,0,1,1.42,3.62h1.54A19.51,19.51,0,0,0,378.92,349.65Zm8.07,3.7a9.64,9.64,0,0,1,1.81,5.09,3.57,3.57,0,0,1-.41,1.83,2,2,0,0,1-1,.9,7,7,0,0,1-2.32.16l-.5-1.72c.54.05,1.1.07,1.68.07a.72.72,0,0,0,.56-.23,1.81,1.81,0,0,0,.23-1.12,7.8,7.8,0,0,0-1.88-4.67,47.58,47.58,0,0,0,1.68-5.42h-2.71V363.6h-1.68v-17h6.09v1.61C388.11,350,387.58,351.7,387,353.35Z" transform="translate(-242.3 -105.15)" style="fill:#fff"/><path d="M426.06,393.35a18.78,18.78,0,0,1-.8,5l-1.36-.72a16.91,16.91,0,0,0,.74-4.56Zm4.54,2.35-1.08,1.22a9.28,9.28,0,0,0-1.24-1.59v11.14h-1.76V389.09h1.76v4A16.39,16.39,0,0,1,430.6,395.7Zm10.84,3.51H435.2a11,11,0,0,1-5.2,7.42l-1.28-1.42c2.66-1.61,4.2-3.6,4.62-6h-4.15v-1.74h4.41c.07-.92.12-2.19.14-3.8H430.1v-1.73h3.62c0-1,.06-2,0-2.83h1.76c0,1,0,2,0,2.83h4.56v5.53h1.36Zm.18,6.24-1.42,1.2a30.69,30.69,0,0,0-4.92-5l1.26-1.22A25.87,25.87,0,0,1,441.62,405.45Zm-3.34-8v-3.8h-2.74c0,1.68-.07,2.95-.12,3.8Z" transform="translate(-242.3 -105.15)" style="fill:#fff"/><path d="M461.64,404.57l-.52,1.74c-.82,0-1.78,0-2.88,0-1.48,0-3,0-4.63-.06a13.78,13.78,0,0,1-3.81-.54,8.25,8.25,0,0,1-2.5-1.38,19.75,19.75,0,0,1-1.82,2.4l-1.42-1.1a12.45,12.45,0,0,0,3.32-5.74h-3v-1.64a22.1,22.1,0,0,0,2.75-3.41h-3.05v-1.61h5.11v1.61a24.42,24.42,0,0,1-2.59,3.41h2.61V400a12.15,12.15,0,0,1-1.07,3,7.32,7.32,0,0,0,5.08,1.76C456,404.69,458.83,404.65,461.64,404.57Zm-12.82-13.05-1.24,1.28a13.78,13.78,0,0,0-3.16-2.57l1.18-1.3A14.31,14.31,0,0,1,448.82,391.52Zm12.74,10.67-.9,1.41a37.39,37.39,0,0,0-4.06-2.83V404h-1.74v-3.56a21.25,21.25,0,0,1-4.24,3.34l-1.14-1.41a14.77,14.77,0,0,0,4.68-3.59h-3.48v-5h4.18v-1.32H450v-1.58h4.82v-1.7h1.74v1.7h4.86v1.58H456.6v1.32h4.2v5h-4.2V399A35,35,0,0,1,461.56,402.19Zm-6.7-5v-2h-2.48v2Zm4.22,0v-2H456.6v2Z" transform="translate(-242.3 -105.15)" style="fill:#fff"/><path d="M501,351.83l-1.12,1.38a17.08,17.08,0,0,0-3.06-2.2l1-1.46A18,18,0,0,1,501,351.83Zm13.5,8.68h-7.86v3h-1.74v-3h-7.86v-1.66h7.86v-1.36H503v-6c-.49.49-.76.75-.82.8l-1.05-1.5a14,14,0,0,0,3.42-5.08l1.6.58c-.37.82-.66,1.43-.9,1.84H508c-.21-.55-.45-1.2-.75-1.94l1.78-.46a25,25,0,0,1,.84,2.4H514v1.46h-4.33v1.12h3.55v1.44h-3.55v1.16h3.55v1.43h-3.55V356h4.62v1.52h-7.63v1.36h7.86Zm-12.3-6.08a25.29,25.29,0,0,1-3.86,3.88L497.13,357a35.44,35.44,0,0,0,3.88-3.78Zm.1-6.22-1.14,1.38a14.93,14.93,0,0,0-3.34-2.34l1.05-1.4A14,14,0,0,1,502.31,348.21Zm5.62,2.54v-1.12h-3.18v1.12Zm0,2.6v-1.16h-3.18v1.16Zm0,2.62v-1.19h-3.18V356Z" transform="translate(-242.3 -105.15)" style="fill:#fff"/><path d="M523.57,348.39h-2.48a34.76,34.76,0,0,1-1.14,4.26h3.3v10h-1.66v-.92h-1.28v1.34h-1.68v-7.46a12.78,12.78,0,0,1-.86,1.29l-.92-1.85a17.11,17.11,0,0,0,2.5-6.64h-2.22v-1.68h6.44Zm-2,11.66v-5.72h-1.28v5.72Zm12.88,2.52h-7.58v1h-1.72v-8.81c-.24.18-.62.48-1.12.89l-.61-1.7a12.42,12.42,0,0,0,3.76-4.81h-1.49v2.18H524v-3.76h3.8a13.75,13.75,0,0,0,.54-1.76l1.62.3a10.38,10.38,0,0,1-.4,1.46h4.58v3.74h-1.72v-2.16H529a18.59,18.59,0,0,1-1.78,3.3h2.14a10.38,10.38,0,0,0-.51-1.52l1.59-.5a19.69,19.69,0,0,1,.64,2h3.19v1.46h-3.21v1.35h2.84v1.45h-2.84v1.45h2.84v1.43h-2.84V361h3.42Zm-5.08-7.33v-1.35h-2.5v1.35Zm0,2.9v-1.45h-2.5v1.45Zm0,2.9v-1.47h-2.5V361Z" transform="translate(-242.3 -105.15)" style="fill:#fff"/><path d="M514.38,279.23H496.9V278h7.9v-3.28h-2.6a1.7,1.7,0,0,1-.3.44,26.11,26.11,0,0,1,2.56,1.12l-.94,1.32a17.43,17.43,0,0,0-2.67-1.32,8.66,8.66,0,0,1-2.39,1.43l-.95-1.26a7.15,7.15,0,0,0,2.88-1.73h-2.85v-1.28h16.19v1.28H511.3l-.32.46a18.22,18.22,0,0,1,2.79,1.29l-.95,1.24a14.91,14.91,0,0,0-2.81-1.41,9.68,9.68,0,0,1-2.05,1.39l-1.16-1.07a7.87,7.87,0,0,0,2.64-1.9h-2.86V278h7.8Zm-.32-10.84h-1.78v-3h-5.76v3.68H504.8v-3.68h-5.72v3h-1.76v-4.3h7.48v-.68H498v-1.3h15.37v1.3h-6.85v.68h7.54Zm-11.5,4.24H498v-3h4.6Zm1.88-4c-2.23.25-3.77.38-4.62.38l-.44-1.12a32.63,32.63,0,0,0,4.58-.32Zm-3.38,3v-.92h-1.58v.92Zm3.18-5.42-.32,1.08a36.16,36.16,0,0,0-4.26-.48l.33-1.06A32.84,32.84,0,0,1,504.24,266.19Zm3.72,6.44h-4.58v-3H508Zm-1.52-1v-.92h-1.58v.92Zm5.36-4.79a27.1,27.1,0,0,1-4.4.37l-.44-1.1a22.41,22.41,0,0,0,4.2-.34Zm0,1.33-.4,1.08a31.61,31.61,0,0,0-4.37-.58l.33-1A36.63,36.63,0,0,1,511.84,268.15Zm1.54,4.48h-4.67v-3h4.67Zm-1.52-1v-.92h-1.62v.92Z" transform="translate(-242.3 -105.15)" style="fill:#fff"/><path d="M521.3,269.3l-1.08,1.45a21.41,21.41,0,0,0-3.46-2.56l1.06-1.44A18.69,18.69,0,0,1,521.3,269.3Zm.22,3.27a34,34,0,0,1-3.12,6.8l-1.5-1.08a34.34,34.34,0,0,0,3.05-6.54Zm.24-7.8-1.3,1.3A23,23,0,0,0,517,263l1.28-1.28A20.56,20.56,0,0,1,521.76,264.77Zm12.56,3.88H528.8v2.77h4.55v7.88h-1.81v-1h-7.2v1h-1.81v-7.88H527v-2.77h-5.52l0-1.66H527v-2.65c-1.58.15-3.07.25-4.47.29L521.9,263a41.44,41.44,0,0,0,10.92-1.28l.89,1.46a31.09,31.09,0,0,1-4.91,1V267h5.52Zm-2.78,8v-3.48h-7.2v3.48Z" transform="translate(-242.3 -105.15)" style="fill:#fff"/></g></g></svg>