<?xml version="1.0" encoding="utf-8"?>
<!-- Generator: Adobe Illustrator 13.0.1, SVG Export Plug-In . SVG Version: 6.00 Build 14948)  -->
<!DOCTYPE svg PUBLIC "-//W3C//DTD SVG 1.0//EN" "http://www.w3.org/TR/2001/REC-SVG-20010904/DTD/svg10.dtd">
<svg version="1.0" xmlns="http://www.w3.org/2000/svg" xmlns:xlink="http://www.w3.org/1999/xlink" x="0px" y="0px" width="120px"
	 height="120px" viewBox="0 0 120 120" enable-background="new 0 0 120 120" xml:space="preserve">
<g id="圖層_2" display="none">
	<circle display="inline" stroke="#FFFFFF" cx="60.416" cy="60.416" r="61.059"/>
</g>
<g id="圖層_1" display="none">
	<g display="inline">
		<g>
			<rect x="52.817" y="81.457" fill="#FFFFFF" width="19" height="2"/>
		</g>
		<g>
			<rect x="50.817" y="77.457" fill="#FFFFFF" width="23" height="2"/>
		</g>
		<g>
			<path fill="#FFFFFF" d="M40.817,83.457c-5.514,0-10-4.486-10-10s4.486-10,10-10h43c0.553,0,1,0.447,1,1c0,2.757-2.243,5-5,5h-39
				c-2.206,0-4,1.795-4,4s1.794,4,4,4h2v2h-2c-3.309,0-6-2.691-6-6s2.691-6,6-6h39c1.304,0,2.416-0.836,2.829-2H40.817
				c-4.411,0-8,3.589-8,8s3.589,8,8,8V83.457z"/>
		</g>
		<g>
			<g>
				<path fill="#FFFFFF" d="M77.817,89.457c-3.859,0-7-3.141-7-7s3.141-7,7-7s7,3.141,7,7S81.677,89.457,77.817,89.457z
					 M77.817,77.457c-2.757,0-5,2.243-5,5s2.243,5,5,5s5-2.243,5-5S80.574,77.457,77.817,77.457z"/>
			</g>
		</g>
		<g>
			<g>
				<path fill="#FFFFFF" d="M46.817,89.457c-3.859,0-7-3.141-7-7s3.141-7,7-7s7,3.141,7,7S50.677,89.457,46.817,89.457z
					 M46.817,77.457c-2.757,0-5,2.243-5,5s2.243,5,5,5s5-2.243,5-5S49.574,77.457,46.817,77.457z"/>
			</g>
		</g>
		<g>
			<path fill="#FFFFFF" d="M83.817,65.457h-43c-0.553,0-1-0.447-1-1v-22h2v21h41.3l7.272-20H43.817v-2h48
				c0.326,0,0.632,0.159,0.819,0.426c0.187,0.268,0.232,0.609,0.12,0.916l-8,22C84.613,65.193,84.238,65.457,83.817,65.457z"/>
		</g>
		<g>
			<path fill="#FFFFFF" d="M37.817,65.457h-2v-32c0-1.103-0.897-2-2-2v-2c2.206,0,4,1.794,4,4V65.457z"/>
		</g>
		<g>
			<path fill="#FFFFFF" d="M41.817,42.457h-2v-9c0-1.103-0.897-2-2-2v-2c2.206,0,4,1.794,4,4V42.457z"/>
		</g>
		<g>
			<rect x="28.817" y="29.457" fill="#FFFFFF" width="9" height="2"/>
		</g>
		<g>
			<rect x="28.817" y="87.457" fill="#FFFFFF" width="64" height="2"/>
		</g>
		<g>
			<path fill="#FFFFFF" d="M80.817,51.457c-1.488,0-2.204-0.76-2.728-1.314c-0.431-0.456-0.647-0.686-1.272-0.686
				s-0.842,0.229-1.272,0.686c-0.523,0.555-1.239,1.314-2.728,1.314c-1.486,0-2.204-0.76-2.727-1.313
				c-0.433-0.457-0.648-0.687-1.273-0.687c-0.624,0-0.841,0.229-1.273,0.688c-0.523,0.554-1.24,1.313-2.727,1.313
				c-1.485,0-2.203-0.759-2.727-1.313c-0.433-0.458-0.649-0.688-1.273-0.688s-0.841,0.229-1.273,0.688
				c-0.523,0.554-1.24,1.313-2.727,1.313s-2.203-0.759-2.727-1.313c-0.432-0.458-0.648-0.688-1.273-0.688
				c-0.624,0-0.841,0.229-1.273,0.688c-0.523,0.554-1.24,1.313-2.727,1.313c-1.485,0-2.203-0.759-2.727-1.313
				c-0.433-0.458-0.649-0.688-1.273-0.688v-2c1.485,0,2.203,0.759,2.727,1.313c0.433,0.458,0.649,0.688,1.273,0.688
				s0.841-0.229,1.273-0.688c0.523-0.554,1.24-1.313,2.727-1.313s2.204,0.76,2.728,1.313c0.432,0.457,0.648,0.687,1.272,0.687
				s0.841-0.229,1.273-0.688c0.523-0.554,1.24-1.313,2.727-1.313c1.485,0,2.203,0.759,2.727,1.313
				c0.433,0.458,0.649,0.688,1.273,0.688s0.841-0.229,1.273-0.688c0.523-0.554,1.24-1.313,2.727-1.313s2.204,0.76,2.727,1.313
				c0.433,0.457,0.648,0.687,1.273,0.687s0.842-0.229,1.272-0.686c0.523-0.555,1.239-1.314,2.728-1.314s2.204,0.76,2.728,1.314
				c0.431,0.456,0.647,0.686,1.272,0.686c0.624,0,0.841-0.229,1.273-0.688c0.523-0.554,1.24-1.313,2.727-1.313v2
				c-0.624,0-0.841,0.229-1.273,0.688C83.021,50.698,82.304,51.457,80.817,51.457z"/>
		</g>
		<g>
			<path fill="#FFFFFF" d="M80.817,59.457c-1.488,0-2.204-0.76-2.728-1.314c-0.431-0.456-0.647-0.686-1.272-0.686
				s-0.842,0.229-1.272,0.686c-0.523,0.555-1.239,1.314-2.728,1.314c-1.486,0-2.204-0.76-2.727-1.313
				c-0.433-0.457-0.648-0.687-1.273-0.687c-0.624,0-0.841,0.229-1.273,0.688c-0.523,0.554-1.24,1.313-2.727,1.313
				c-1.485,0-2.203-0.759-2.727-1.313c-0.433-0.458-0.649-0.688-1.273-0.688s-0.841,0.229-1.273,0.688
				c-0.523,0.554-1.24,1.313-2.727,1.313s-2.203-0.759-2.727-1.313c-0.432-0.458-0.648-0.688-1.273-0.688
				c-0.624,0-0.841,0.229-1.273,0.688c-0.523,0.554-1.24,1.313-2.727,1.313c-1.485,0-2.203-0.759-2.727-1.313
				c-0.433-0.458-0.649-0.688-1.273-0.688v-2c1.485,0,2.203,0.759,2.727,1.313c0.433,0.458,0.649,0.688,1.273,0.688
				s0.841-0.229,1.273-0.688c0.523-0.554,1.24-1.313,2.727-1.313s2.204,0.76,2.728,1.313c0.432,0.457,0.648,0.687,1.272,0.687
				s0.841-0.229,1.273-0.688c0.523-0.554,1.24-1.313,2.727-1.313c1.485,0,2.203,0.759,2.727,1.313
				c0.433,0.458,0.649,0.688,1.273,0.688s0.841-0.229,1.273-0.688c0.523-0.554,1.24-1.313,2.727-1.313s2.204,0.76,2.727,1.313
				c0.433,0.457,0.648,0.687,1.273,0.687s0.842-0.229,1.272-0.686c0.523-0.555,1.239-1.314,2.728-1.314s2.204,0.76,2.728,1.314
				c0.431,0.456,0.647,0.686,1.272,0.686V59.457z"/>
		</g>
	</g>
	<g display="inline">
		<circle fill="#FFFFFF" cx="43.765" cy="86.668" r="2"/>
	</g>
	<g display="inline">
		<circle fill="#FFFFFF" cx="74.765" cy="86.668" r="2"/>
	</g>
	<g display="inline">
		<path fill="#FFFFFF" d="M72.765,43.668h-2v-4h-24v4h-2v-5c0-0.552,0.447-1,1-1h26c0.553,0,1,0.448,1,1V43.668z"/>
	</g>
	<g display="inline">
		<path fill="#FFFFFF" d="M79.765,43.668h-2v-12h-16v4h-2v-5c0-0.552,0.447-1,1-1h18c0.553,0,1,0.448,1,1V43.668z"/>
	</g>
	<g display="inline">
		<path fill="#FFFFFF" d="M71.765,35.668h-4c-0.553,0-1-0.448-1-1v-4c0-0.552,0.447-1,1-1h4c0.553,0,1,0.448,1,1v4
			C72.765,35.22,72.317,35.668,71.765,35.668z M68.765,33.668h2v-2h-2V33.668z"/>
	</g>
</g>
<g id="圖層_4" display="none">
	<g display="inline">
		<g>
			<g>
				<rect x="35.66" y="39.3" fill="#FFFFFF" width="2" height="40"/>
			</g>
			<g>
				<rect x="81.66" y="39.3" fill="#FFFFFF" width="2" height="40"/>
			</g>
			<g>
				<path fill="#FFFFFF" d="M85.66,80.3h-6v-2h6c2.205,0,4-1.795,4-4v-30c0-2.205-1.795-4-4-4h-6v-2h6c3.309,0,6,2.691,6,6v30
					C91.66,77.608,88.969,80.3,85.66,80.3z"/>
			</g>
			<g>
				<path fill="#FFFFFF" d="M39.66,80.3h-6c-3.309,0-6-2.691-6-6v-30c0-3.309,2.691-6,6-6h6v2h-6c-2.206,0-4,1.795-4,4v30
					c0,2.205,1.794,4,4,4h6V80.3z"/>
			</g>
			<g>
				<rect x="31.66" y="53.3" fill="#FFFFFF" width="2" height="12"/>
			</g>
			<g>
				<rect x="85.66" y="57.3" fill="#FFFFFF" width="2" height="4"/>
			</g>
		</g>
		<g>
			<path fill="#FFFFFF" d="M85.66,34.3h-2c0-1.654-1.346-3-3-3s-3,1.346-3,3h-2c0-2.757,2.242-5,5-5
				C83.416,29.3,85.66,31.543,85.66,34.3z"/>
		</g>
		<g>
			<path fill="#FFFFFF" d="M43.66,34.3h-2c0-2.757,2.243-5,5-5v2C45.005,31.3,43.66,32.646,43.66,34.3z"/>
		</g>
		<g>
			<rect x="46.66" y="29.3" fill="#FFFFFF" width="34" height="2"/>
		</g>
		<g>
			<rect x="83.66" y="34.3" fill="#FFFFFF" width="2" height="2"/>
		</g>
		<g>
			<path fill="#FFFFFF" d="M74.66,89.3c-0.256,0-0.512-0.098-0.707-0.293l-2.293-2.293l-2.293,2.293
				c-0.391,0.391-1.023,0.391-1.414,0l-2.293-2.293l-2.293,2.293c-0.391,0.391-1.023,0.391-1.414,0l-2.293-2.293l-2.293,2.293
				c-0.391,0.391-1.023,0.391-1.414,0l-2.293-2.293l-2.293,2.293c-0.391,0.391-1.023,0.391-1.414,0l-2.293-2.293l-2.293,2.293
				c-0.391,0.391-1.023,0.391-1.414,0l-2-2c-0.188-0.188-0.293-0.441-0.293-0.707v-52h2v51.586l1,1l2.293-2.293
				c0.391-0.391,1.023-0.391,1.414,0l2.293,2.293l2.293-2.293c0.391-0.391,1.023-0.391,1.414,0l2.293,2.293l2.293-2.293
				c0.391-0.391,1.023-0.391,1.414,0l2.293,2.293l2.293-2.293c0.391-0.391,1.023-0.391,1.414,0l2.293,2.293l2.293-2.293
				c0.391-0.391,1.023-0.391,1.414,0l2.293,2.293l1-1V34.3h2v52c0,0.266-0.105,0.52-0.293,0.707l-2,2
				C75.172,89.202,74.916,89.3,74.66,89.3z"/>
		</g>
		<g>
			<path fill="#FFFFFF" d="M59.66,66.3c-2.206,0-4-1.795-4-4h2c0,1.104,0.897,2,2,2s2-0.896,2-2c0-0.649-1.425-1.646-2.409-2.088
				c-0.6-0.268-3.591-1.719-3.591-3.912c0-2.205,1.794-4,4-4s4,1.795,4,4h-2c0-1.104-0.897-2-2-2s-2,0.896-2,2
				c0,0.649,1.424,1.646,2.409,2.088c0.6,0.268,3.592,1.719,3.592,3.912C63.66,64.505,61.865,66.3,59.66,66.3z"/>
		</g>
		<g>
			<rect x="58.66" y="50.3" fill="#FFFFFF" width="2" height="3"/>
		</g>
		<g>
			<rect x="58.66" y="65.3" fill="#FFFFFF" width="2" height="3"/>
		</g>
		<g>
			<rect x="65.66" y="58.3" fill="#FFFFFF" width="2" height="2"/>
		</g>
		<g>
			<rect x="51.66" y="58.3" fill="#FFFFFF" width="2" height="2"/>
		</g>
		<g>
			<rect x="47.66" y="42.3" fill="#FFFFFF" width="24" height="2"/>
		</g>
		<g>
			<rect x="58.66" y="38.3" fill="#FFFFFF" width="2" height="2"/>
		</g>
		<g>
			<rect x="54.66" y="38.3" fill="#FFFFFF" width="2" height="2"/>
		</g>
		<g>
			<rect x="62.66" y="38.3" fill="#FFFFFF" width="2" height="2"/>
		</g>
		<g>
			<rect x="47.66" y="74.3" fill="#FFFFFF" width="24" height="2"/>
		</g>
		<g>
			<rect x="58.66" y="78.3" fill="#FFFFFF" width="2" height="2"/>
		</g>
		<g>
			<rect x="54.66" y="78.3" fill="#FFFFFF" width="2" height="2"/>
		</g>
		<g>
			<rect x="62.66" y="78.3" fill="#FFFFFF" width="2" height="2"/>
		</g>
	</g>
</g>
<g id="圖層_5">
	<g>
		<g>
			<polygon fill="#FFFFFF" points="88.713,42.72 86.713,42.72 86.713,36.72 80.713,36.72 80.713,34.72 88.713,34.72 			"/>
		</g>
		<g>
			<polygon fill="#FFFFFF" points="42.419,66.428 41.005,65.014 58.712,47.306 66.713,55.306 87.006,35.013 88.42,36.427 
				66.713,58.134 58.712,50.134 			"/>
		</g>
		<g>
			<path fill="#FFFFFF" d="M88.127,82.721H33.298l-4.586-4.586v-3.414h25.414l2,2h9.172l2-2h25.414v3.414L88.127,82.721z
				 M34.126,80.721h53.172l3.414-3.414v-0.586H68.127l-2,2H55.298l-2-2H30.712v0.586L34.126,80.721z"/>
		</g>
		<g>
			<path fill="#FFFFFF" d="M34.712,72.721h-2v-34c0-2.206,1.794-4,4-4h40v2h-40c-1.103,0-2,0.896-2,2V72.721z"/>
		</g>
		<g>
			<rect x="86.713" y="46.72" fill="#FFFFFF" width="2" height="26"/>
		</g>
		<g>
			<polygon fill="#FFFFFF" points="84.713,70.721 36.712,70.721 36.712,38.72 76.713,38.72 76.713,40.72 38.712,40.72 
				38.712,68.721 82.713,68.721 82.713,46.72 84.713,46.72 			"/>
		</g>
		<g>
			<g>
				<rect x="51.712" y="60.721" fill="#FFFFFF" width="2" height="6"/>
			</g>
			<g>
				<rect x="47.712" y="64.721" fill="#FFFFFF" width="2" height="2"/>
			</g>
			<g>
				<rect x="55.712" y="56.72" fill="#FFFFFF" width="2" height="10"/>
			</g>
			<g>
				<rect x="59.712" y="56.72" fill="#FFFFFF" width="2" height="10"/>
			</g>
			<g>
				<rect x="63.713" y="60.721" fill="#FFFFFF" width="2" height="6"/>
			</g>
			<g>
				<rect x="67.713" y="60.721" fill="#FFFFFF" width="2" height="6"/>
			</g>
			<g>
				<rect x="71.713" y="56.72" fill="#FFFFFF" width="2" height="10"/>
			</g>
			<g>
				<rect x="75.713" y="52.72" fill="#FFFFFF" width="2" height="14"/>
			</g>
		</g>
	</g>
</g>
<g id="圖層_3" display="none">
	<g display="inline">
		<path fill="#FFFFFF" d="M87.85,48.772c-7.179,0.002-12.998,5.819-13,13.001c0.002,7.178,5.819,12.998,13,13
			c7.18-0.002,13-5.822,13.002-13C100.85,54.592,95.027,48.774,87.85,48.772z M87.85,72.771c-6.074-0.01-10.988-4.924-11-10.998
			c0.012-6.077,4.926-10.989,11-11.002c6.075,0.013,10.988,4.926,11,11.002C98.838,67.848,93.922,72.762,87.85,72.771z
			 M94.741,44.469l-0.003-8.824c0-3.829-3.102-6.933-6.932-6.933H27.001c-3.828,0-6.932,3.104-6.932,6.933v42.02
			c0,3.825,3.104,6.931,6.932,6.931h21.49c0.006,0.61,0.016,1.25,0.016,1.881c0.002,0.992-0.037,1.946-0.146,2.487
			c-0.134,0.707-0.257,0.959-0.277,0.97c0.002,0.012-0.071,0.078-0.509,0.313c-0.281,0.158-0.781,0.391-1.273,0.609h-1.997v1.998
			h2.324l0.016,0.037c0.027-0.013,0.057-0.023,0.085-0.037h21.25c0.035,0.016,0.07,0.031,0.104,0.047l0.021-0.047h2.402v-1.998H68.4
			c-0.489-0.219-0.987-0.453-1.276-0.611c-0.425-0.23-0.456-0.279-0.456-0.281c-0.018-0.008-0.141-0.283-0.273-1
			c-0.11-0.543-0.15-1.49-0.146-2.475c-0.002-0.633,0.009-1.277,0.016-1.893H82.85v11.428h10V79.709
			c7.86-2.188,13.637-9.379,13.637-17.938C106.486,53.916,101.618,47.21,94.741,44.469z M22.069,35.645
			c0.004-2.724,2.209-4.929,4.932-4.933h60.806c2.726,0.004,4.928,2.209,4.935,4.933v8.163c-0.699-0.189-1.413-0.337-2.144-0.445
			l-7.92-5.471l-0.025,0.039c-0.133-2.09-1.853-3.746-3.975-3.748c-2.21,0.002-3.998,1.79-4,4c0,0.434,0.088,0.844,0.215,1.235
			l-12.098,7.009c-0.615-0.386-1.338-0.619-2.117-0.619c-2.21,0.002-4,1.791-4,4.001c0,0.682,0.188,1.314,0.488,1.877l-0.079-0.078
			l-5.242,5.363c-0.708-0.639-1.637-1.037-2.666-1.039c-1.098,0.002-2.09,0.445-2.813,1.16l-5.324-5.219
			c0.241-0.516,0.387-1.084,0.387-1.689c-0.002-2.211-1.791-4-4-4.002c-2.211,0.002-4,1.791-4,4.002c0,0.945,0.342,1.801,0.89,2.486
			L26.25,63.588l1.607,1.189L35.91,53.88c0.468,0.192,0.979,0.303,1.518,0.304c0.874,0,1.677-0.289,2.335-0.765l5.571,5.464
			c-0.092,0.337-0.156,0.684-0.157,1.05c0,2.209,1.792,3.999,4.001,4c2.209-0.002,3.998-1.791,3.998-4
			c0-0.498-0.102-0.97-0.268-1.409l0.109,0.107l5.401-5.524c0.644,0.44,1.42,0.701,2.258,0.702c2.209-0.002,4-1.791,4.002-4h-0.002
			c0-0.683-0.188-1.315-0.488-1.878l11.775-6.824c0.715,0.662,1.663,1.076,2.713,1.076c1.551,0,2.879-0.889,3.543-2.178l4.61,3.185
			c-9.815,0.532-17.615,8.635-17.615,18.582c0,3.748,1.106,7.234,3.015,10.152h-50.16V35.645z M80.678,38.183
			c-0.003,1.105-0.896,1.998-2,2c-1.104-0.002-1.998-0.895-2-2c0.002-1.104,0.897-1.998,2-2
			C79.779,36.185,80.675,37.079,80.678,38.183z M62.678,49.809c-0.002,1.104-0.896,1.997-2,1.999c-1.104-0.002-1.998-0.896-2-1.999
			c0.002-1.104,0.896-1.998,2-2C61.779,47.811,62.676,48.704,62.678,49.809z M51.177,59.933c-0.002,1.104-0.896,1.997-1.999,1.999
			c-1.104-0.002-1.999-0.895-2.001-1.999c0.002-1.103,0.896-1.997,2.001-2.001C50.28,57.936,51.175,58.83,51.177,59.933z
			 M39.427,50.184c-0.002,1.104-0.896,1.997-1.999,1.999c-1.105-0.002-1.999-0.896-2.001-1.999c0.002-1.104,0.897-1.999,2.001-2.001
			C38.531,48.185,39.425,49.078,39.427,50.184z M49.851,90.854c0.229-0.416,0.342-0.871,0.472-1.504
			c0.158-0.824,0.183-1.832,0.185-2.875c0-0.643-0.012-1.289-0.018-1.881h13.771c-0.006,0.6-0.016,1.238-0.016,1.893
			c0.002,1.035,0.025,2.037,0.188,2.867c0.133,0.637,0.234,1.082,0.455,1.5H49.851z M82.85,82.594H27.001
			c-2.723-0.004-4.928-2.209-4.932-4.93v-3.74H73.75c2.368,2.738,5.512,4.787,9.1,5.785V82.594z M90.852,94.023H84.85V80.145
			c0.979,0.158,1.978,0.265,3,0.265c1.024,0,2.021-0.104,3.002-0.265V94.023z M87.85,78.408
			c-9.188-0.018-16.617-7.447-16.634-16.637c0.017-9.187,7.445-16.619,16.634-16.635c9.188,0.017,16.621,7.449,16.637,16.635
			C104.471,70.961,97.037,78.391,87.85,78.408z"/>
	</g>
</g>
</svg>
