<?xml version="1.0" encoding="utf-8"?>
<!-- Generator: Adobe Illustrator 13.0.1, SVG Export Plug-In . SVG Version: 6.00 Build 14948)  -->
<!DOCTYPE svg PUBLIC "-//W3C//DTD SVG 1.0//EN" "http://www.w3.org/TR/2001/REC-SVG-20010904/DTD/svg10.dtd">
<svg version="1.0" xmlns="http://www.w3.org/2000/svg" xmlns:xlink="http://www.w3.org/1999/xlink" x="0px" y="0px" width="150px"
	 height="122px" viewBox="0 0 150 122" enable-background="new 0 0 150 122" xml:space="preserve">
<g id="圖層_2_1_" display="none">
	<rect x="-0.5" y="-0.5" display="inline" width="149" height="123"/>
</g>
<g id="圖層_4" display="none">
	<path display="inline" fill="none" stroke="#FFFFFF" stroke-width="2" d="M95.563,37.709c-0.811,11.946-9.961,21.365-21.131,21.365
		l0,0c-10.455,0-19.146-8.256-20.878-19.114"/>
	<path display="inline" fill="none" stroke="#FFFFFF" stroke-width="2" d="M82.119,57.38l0.292,5.021
		c4.373,0.303,7.244,0.848,10.256,1.428c9.164,1.785,13.262,4.595,14.641,15.119c1.311,9.985,4.033,29.968,4.612,40.033l0,0h37.513"
		/>
	<path display="inline" fill="none" stroke="#FFFFFF" stroke-width="2" d="M-0.567,118.98h37.49h0.009
		c0.578-10.065,3.239-30.062,4.626-40.033c1.344-9.705,5.344-13.532,14.639-15.119c2.973-0.502,5.885-1.057,10.238-1.385
		l0.307-5.034"/>
	<g display="inline">
		<line fill="none" stroke="#FFFFFF" stroke-width="2" x1="32.735" y1="67.301" x2="34.314" y2="67.301"/>
		<line fill="none" stroke="#FFFFFF" stroke-width="2" x1="35.892" y1="67.301" x2="46.357" y2="67.301"/>
		<line fill="none" stroke="#FFFFFF" stroke-width="2" x1="25.345" y1="72.498" x2="26.926" y2="72.498"/>
		<line fill="none" stroke="#FFFFFF" stroke-width="2" x1="28.503" y1="72.498" x2="38.962" y2="72.498"/>
	</g>
	
		<path display="inline" fill="none" stroke="#FFFFFF" stroke-width="2" stroke-linecap="round" stroke-linejoin="round" stroke-miterlimit="8" d="
		M68.822,24.475c-0.664,2.264,8.761,8.727,8.761,8.727c3.193-1.257,5.996-4.042,6.938-8.047c2.38,7.262,9.133,11.77,8.204,17.807
		c0,0,4.785-3.92,3.389-16.728"/>
	<path display="inline" fill="none" stroke="#FFFFFF" stroke-width="2" stroke-miterlimit="8" d="M73.149,28.608"/>
	
		<path display="inline" fill="none" stroke="#FFFFFF" stroke-width="2" stroke-linecap="round" stroke-linejoin="round" stroke-miterlimit="8" d="
		M52.337,26.817c-1.048,12.108,5.58,18.897,5.58,18.897s0.221-9.926,10.918-21.287"/>
	<path display="inline" fill="none" stroke="#FFFFFF" stroke-width="2" stroke-miterlimit="8" d="M48.38,33.133
		c-0.56,11.213-0.353,26.719,3.813,29.648"/>
	<path display="inline" fill="none" stroke="#FFFFFF" stroke-width="2" stroke-miterlimit="8" d="M99.241,32.829
		c0.067-3.635,0.254-4.733,0.254-6.749c0-16.35-11.326-25.007-25.294-25.007c-13.97,0-25.144,9.04-25.294,25.007
		c-0.02,2.103,0.152,3.583,0.354,6.675"/>
	<path display="inline" fill="none" stroke="#FFFFFF" stroke-width="2" stroke-miterlimit="8" d="M102.491,67.911
		c-2.832-5.75-3.213-21.374-3.16-31.774"/>
	<line display="inline" fill="none" stroke="#FFFFFF" stroke-width="2" x1="109.095" y1="72.406" x2="110.676" y2="72.406"/>
	<line display="inline" fill="none" stroke="#FFFFFF" stroke-width="2" x1="112.253" y1="72.406" x2="122.712" y2="72.406"/>
	<line display="inline" fill="none" stroke="#FFFFFF" stroke-width="2" x1="116.54" y1="77.6" x2="118.117" y2="77.6"/>
	<line display="inline" fill="none" stroke="#FFFFFF" stroke-width="2" x1="119.694" y1="77.6" x2="130.158" y2="77.6"/>
	<path display="inline" fill="none" stroke="#FFFFFF" stroke-width="2" d="M53.55,41.04c-1.357-0.223-2.793-1.331-3.738-3.052
		c-1.417-2.59-1.186-5.584,0.521-6.694c0.433-0.283,0.919-0.417,1.431-0.415"/>
	<path display="inline" fill="none" stroke="#FFFFFF" stroke-width="2" d="M95.038,41.049c1.361-0.223,2.58-1.34,3.521-3.062
		c1.418-2.59,1.186-5.584-0.516-6.694c-0.385-0.25-0.808-0.384-1.25-0.41"/>
	<path display="inline" fill="none" stroke="#FFFFFF" stroke-width="2" d="M84.229,71.442c-3.17,5.274-8.729,5.354-9.92,5.354
		c-1.206,0-6.678,0.023-9.943-5.325"/>
	<path display="inline" fill="none" stroke="#FFFFFF" stroke-width="2" d="M83.812,62.872c0,0,3.02,28.434-9.767,38.573
		C60.694,90.268,65.21,62.353,65.21,62.353"/>
	<path display="inline" fill="none" stroke="#FFFFFF" stroke-width="2" d="M59.655,63.015c-1.066,1.712-3.49,11.04-2.83,15.946
		l4.813,1.133l-4.34,2.547c0,0,3.82,15.974,16.747,18.805"/>
	<path display="inline" fill="none" stroke="#FFFFFF" stroke-width="2" d="M88.601,63.015c1.067,1.712,3.491,11.04,2.83,15.946
		l-4.812,1.133l4.341,2.547c0,0-3.822,15.974-16.749,18.805"/>
	<g display="inline">
		<g>
			<g>
				<polygon fill="#FFFFFF" points="14.724,112.291 0.931,112.291 0.931,80.459 34.885,80.459 34.885,101.68 33.823,101.68 
					33.823,81.52 1.992,81.52 1.992,111.229 14.724,111.229 				"/>
			</g>
			<g>
				<rect x="1.461" y="84.703" fill="#FFFFFF" width="32.895" height="1.061"/>
			</g>
			<g>
				<rect x="3.053" y="82.58" fill="#FFFFFF" width="1.061" height="1.062"/>
			</g>
			<g>
				<rect x="5.175" y="82.58" fill="#FFFFFF" width="1.062" height="1.062"/>
			</g>
			<g>
				<rect x="7.297" y="82.58" fill="#FFFFFF" width="1.061" height="1.062"/>
			</g>
			<g>
				<rect x="9.419" y="80.989" fill="#FFFFFF" width="1.062" height="4.243"/>
			</g>
			<g>
				<rect x="11.541" y="82.58" fill="#FFFFFF" width="21.222" height="1.062"/>
			</g>
			<g>
				<polygon fill="#FFFFFF" points="14.724,110.168 3.053,110.168 3.053,86.825 32.763,86.825 32.763,101.68 31.702,101.68 
					31.702,87.886 4.113,87.886 4.113,109.107 14.724,109.107 				"/>
			</g>
			<g>
				<path fill="#FFFFFF" d="M20.029,112.291h-2.122v-7.428H19.5c1.169,0,2.121,0.951,2.121,2.122c0,0.519-0.188,0.995-0.499,1.364
					c0.617,0.372,1.03,1.049,1.03,1.818C22.152,111.338,21.2,112.291,20.029,112.291z M18.969,111.229h1.061
					c0.586,0,1.063-0.477,1.063-1.062c0-0.584-0.477-1.061-1.063-1.061h-1.061V111.229z M18.969,108.047H19.5
					c0.585,0,1.06-0.477,1.06-1.062s-0.475-1.061-1.06-1.061h-0.531V108.047z"/>
			</g>
			<g>
				<path fill="#FFFFFF" d="M25.336,112.291c-1.171,0-2.123-0.953-2.123-2.123v-5.305h1.062v5.305c0,0.585,0.476,1.062,1.062,1.062
					c0.585,0,1.061-0.477,1.061-1.062v-5.305h1.062v5.305C27.458,111.338,26.506,112.291,25.336,112.291z"/>
			</g>
			<g>
				<rect x="30.11" y="109.107" fill="#FFFFFF" width="1.061" height="3.184"/>
			</g>
			<g>
				<polygon fill="#FFFFFF" points="30.641,109.857 28.519,107.735 28.519,104.863 29.579,104.863 29.579,107.296 30.641,108.357 
					31.702,107.296 31.702,104.863 32.763,104.863 32.763,107.735 				"/>
			</g>
			<g>
				<path fill="#FFFFFF" d="M33.823,114.412H16.848c-0.586,0-1.063-0.476-1.063-1.061v-9.55c0-0.585,0.477-1.062,1.063-1.062h16.976
					c0.586,0,1.062,0.477,1.062,1.062v9.55C34.885,113.937,34.409,114.412,33.823,114.412z M16.848,103.802v9.55h16.977l-0.001-9.55
					H16.848z"/>
			</g>
			<g>
				<path fill="#FFFFFF" d="M14.724,105.925H7.828v-9.021c0-0.292-0.239-0.529-0.531-0.529H6.236v-5.306h4.774v0.53
					c0,0.877,0.714,1.592,1.592,1.592s1.592-0.715,1.592-1.592v-0.53h4.774v5.306h-1.062c-0.292,0-0.53,0.237-0.53,0.529v4.775
					h-1.062v-4.775c0-0.877,0.714-1.591,1.592-1.591v-3.183h-2.705c-0.247,1.209-1.319,2.121-2.6,2.121s-2.353-0.912-2.6-2.121
					H7.297v3.183c0.878,0,1.592,0.714,1.592,1.591v7.959h5.835V105.925z"/>
			</g>
			<g>
				<rect x="21.092" y="91.069" fill="#FFFFFF" width="5.305" height="1.062"/>
			</g>
			<g>
				<rect x="24.274" y="93.191" fill="#FFFFFF" width="5.305" height="1.061"/>
			</g>
			<g>
				<rect x="21.092" y="98.496" fill="#FFFFFF" width="4.244" height="1.062"/>
			</g>
			<g>
				<rect x="26.396" y="98.496" fill="#FFFFFF" width="3.183" height="1.062"/>
			</g>
			<g>
				<rect x="21.092" y="96.375" fill="#FFFFFF" width="1.061" height="1.061"/>
			</g>
			<g>
				<rect x="23.213" y="96.375" fill="#FFFFFF" width="1.062" height="1.061"/>
			</g>
			<g>
				<rect x="25.336" y="96.375" fill="#FFFFFF" width="1.061" height="1.061"/>
			</g>
			<g>
				<rect x="8.357" y="102.74" fill="#FFFFFF" width="6.366" height="1.062"/>
			</g>
			<g>
				<rect x="21.092" y="93.191" fill="#FFFFFF" width="2.121" height="1.061"/>
			</g>
			<g>
				<rect x="27.458" y="91.069" fill="#FFFFFF" width="2.121" height="1.062"/>
			</g>
			<g>
				<path fill="#FFFFFF" d="M12.603,100.619c-1.17,0-2.122-0.952-2.122-2.123c0-1.17,0.952-2.121,2.122-2.121
					c1.169,0,2.121,0.951,2.121,2.121C14.724,99.667,13.771,100.619,12.603,100.619z M12.603,97.436
					c-0.585,0-1.062,0.477-1.062,1.061c0,0.585,0.477,1.062,1.062,1.062s1.061-0.477,1.061-1.062
					C13.663,97.912,13.188,97.436,12.603,97.436z"/>
			</g>
		</g>
	</g>
	<g display="inline">
		<g>
			<rect x="124.864" y="112.522" fill="#FFFFFF" width="10.775" height="1.136"/>
		</g>
		<g>
			<rect x="123.73" y="110.254" fill="#FFFFFF" width="13.045" height="1.135"/>
		</g>
		<g>
			<path fill="#FFFFFF" d="M118.057,113.658c-3.126,0-5.672-2.545-5.672-5.674c0-3.127,2.546-5.672,5.672-5.672h24.391
				c0.314,0,0.568,0.255,0.568,0.568c0,1.563-1.273,2.836-2.837,2.836h-22.122c-1.251,0-2.27,1.018-2.27,2.268
				c0,1.252,1.019,2.27,2.27,2.27h1.134v1.135h-1.134c-1.876,0-3.402-1.527-3.402-3.404s1.526-3.402,3.402-3.402h22.122
				c0.74,0,1.37-0.475,1.605-1.135h-23.728c-2.501,0-4.536,2.036-4.536,4.537c0,2.502,2.035,4.538,4.536,4.538V113.658z"/>
		</g>
		<g>
			<g>
				<path fill="#FFFFFF" d="M139.044,117.061c-2.188,0-3.971-1.781-3.971-3.97c0-2.19,1.783-3.972,3.971-3.972
					c2.189,0,3.972,1.781,3.972,3.972C143.016,115.279,141.233,117.061,139.044,117.061z M139.044,110.254
					c-1.563,0-2.836,1.272-2.836,2.837c0,1.563,1.272,2.835,2.836,2.835s2.836-1.271,2.836-2.835
					C141.88,111.526,140.607,110.254,139.044,110.254z"/>
			</g>
		</g>
		<g>
			<g>
				<path fill="#FFFFFF" d="M121.461,117.061c-2.189,0-3.971-1.781-3.971-3.97c0-2.19,1.781-3.972,3.971-3.972
					c2.188,0,3.97,1.781,3.97,3.972C125.431,115.279,123.649,117.061,121.461,117.061z M121.461,110.254
					c-1.563,0-2.837,1.272-2.837,2.837c0,1.563,1.273,2.835,2.837,2.835s2.836-1.271,2.836-2.835
					C124.297,111.526,123.024,110.254,121.461,110.254z"/>
			</g>
		</g>
		<g>
			<path fill="#FFFFFF" d="M142.447,103.447h-24.391c-0.313,0-0.566-0.254-0.566-0.566V90.401h1.134v11.911h23.427l4.124-11.344
				h-26.416v-1.134h27.227c0.185,0,0.358,0.09,0.464,0.241c0.106,0.151,0.133,0.346,0.068,0.52l-4.536,12.479
				C142.899,103.298,142.688,103.447,142.447,103.447z"/>
		</g>
		<g>
			<path fill="#FFFFFF" d="M116.355,103.447h-1.135v-18.15c0-0.627-0.509-1.135-1.134-1.135v-1.134c1.251,0,2.269,1.018,2.269,2.269
				V103.447z"/>
		</g>
		<g>
			<path fill="#FFFFFF" d="M118.624,90.401h-1.134v-5.104c0-0.627-0.51-1.135-1.135-1.135v-1.134c1.252,0,2.269,1.018,2.269,2.269
				V90.401z"/>
		</g>
		<g>
			<rect x="111.251" y="83.028" fill="#FFFFFF" width="5.104" height="1.134"/>
		</g>
		<g>
			<path fill="#FFFFFF" d="M140.746,95.507c-0.844,0-1.25-0.431-1.547-0.745c-0.244-0.26-0.368-0.39-0.722-0.39
				c-0.354,0-0.479,0.13-0.722,0.39c-0.297,0.314-0.704,0.745-1.548,0.745s-1.25-0.431-1.547-0.745
				c-0.245-0.26-0.367-0.39-0.722-0.39s-0.477,0.13-0.722,0.39c-0.297,0.314-0.704,0.745-1.548,0.745
				c-0.841,0-1.249-0.431-1.545-0.745c-0.246-0.26-0.369-0.39-0.723-0.39s-0.478,0.13-0.724,0.39
				c-0.297,0.314-0.703,0.745-1.545,0.745c-0.844,0-1.25-0.431-1.548-0.745c-0.245-0.26-0.366-0.39-0.722-0.39
				c-0.354,0-0.477,0.13-0.723,0.39c-0.296,0.314-0.703,0.745-1.547,0.745c-0.842,0-1.248-0.431-1.546-0.745
				c-0.246-0.26-0.369-0.39-0.723-0.39v-1.135c0.844,0,1.249,0.431,1.547,0.745c0.245,0.26,0.368,0.39,0.722,0.39
				c0.355,0,0.478-0.13,0.724-0.39c0.296-0.314,0.702-0.745,1.546-0.745c0.843,0,1.25,0.431,1.547,0.745
				c0.244,0.26,0.368,0.39,0.723,0.39c0.354,0,0.476-0.13,0.722-0.39c0.297-0.314,0.703-0.745,1.547-0.745
				c0.842,0,1.249,0.431,1.546,0.745c0.246,0.26,0.368,0.39,0.722,0.39c0.354,0,0.478-0.13,0.722-0.39
				c0.298-0.314,0.705-0.745,1.548-0.745c0.842,0,1.251,0.431,1.546,0.745c0.245,0.26,0.368,0.39,0.723,0.39s0.478-0.13,0.723-0.39
				c0.297-0.314,0.702-0.745,1.547-0.745c0.843,0,1.249,0.431,1.547,0.745c0.244,0.26,0.367,0.39,0.722,0.39
				c0.354,0,0.477-0.13,0.723-0.39c0.297-0.314,0.702-0.745,1.547-0.745v1.135c-0.355,0-0.479,0.13-0.724,0.39
				C141.996,95.076,141.589,95.507,140.746,95.507z"/>
		</g>
		<g>
			<path fill="#FFFFFF" d="M140.746,100.045c-0.844,0-1.25-0.432-1.547-0.746c-0.244-0.259-0.368-0.389-0.722-0.389
				c-0.354,0-0.479,0.13-0.722,0.389c-0.297,0.314-0.704,0.746-1.548,0.746s-1.25-0.432-1.547-0.746
				c-0.245-0.259-0.367-0.389-0.722-0.389s-0.477,0.13-0.722,0.389c-0.297,0.315-0.704,0.746-1.548,0.746
				c-0.841,0-1.249-0.431-1.545-0.746c-0.246-0.259-0.369-0.389-0.723-0.389s-0.478,0.13-0.724,0.389
				c-0.297,0.315-0.703,0.746-1.545,0.746c-0.844,0-1.25-0.431-1.548-0.746c-0.245-0.259-0.366-0.389-0.722-0.389
				c-0.354,0-0.477,0.13-0.723,0.389c-0.296,0.315-0.703,0.746-1.547,0.746c-0.842,0-1.248-0.431-1.546-0.746
				c-0.246-0.259-0.369-0.389-0.723-0.389v-1.135c0.844,0,1.249,0.43,1.547,0.744c0.245,0.26,0.368,0.391,0.722,0.391
				c0.355,0,0.478-0.131,0.724-0.391c0.296-0.314,0.702-0.744,1.546-0.744c0.843,0,1.25,0.431,1.547,0.745
				c0.244,0.259,0.368,0.39,0.723,0.39c0.354,0,0.476-0.131,0.722-0.391c0.297-0.314,0.703-0.744,1.547-0.744
				c0.842,0,1.249,0.43,1.546,0.744c0.246,0.26,0.368,0.391,0.722,0.391c0.354,0,0.478-0.131,0.722-0.391
				c0.298-0.314,0.705-0.744,1.548-0.744c0.842,0,1.251,0.431,1.546,0.745c0.245,0.259,0.368,0.39,0.723,0.39
				s0.478-0.131,0.723-0.39c0.297-0.314,0.702-0.745,1.547-0.745c0.843,0,1.249,0.431,1.547,0.745
				c0.244,0.259,0.367,0.39,0.722,0.39V100.045z"/>
		</g>
		<g>
			<circle fill="#FFFFFF" cx="121.461" cy="113.09" r="1.135"/>
		</g>
		<g>
			<circle fill="#FFFFFF" cx="139.044" cy="113.09" r="1.135"/>
		</g>
		<g>
			<path fill="#FFFFFF" d="M137.91,88.7h-1.135v-2.27h-13.613v2.27h-1.134v-2.837c0-0.313,0.253-0.566,0.566-0.566h14.748
				c0.314,0,0.567,0.254,0.567,0.566V88.7z"/>
		</g>
		<g>
			<path fill="#FFFFFF" d="M141.88,88.7h-1.134v-6.807h-9.076v2.269h-1.134v-2.836c0-0.313,0.254-0.567,0.567-0.567h10.21
				c0.313,0,0.566,0.254,0.566,0.567V88.7z"/>
		</g>
		<g>
			<path fill="#FFFFFF" d="M137.343,84.162h-2.27c-0.313,0-0.566-0.254-0.566-0.567v-2.269c0-0.313,0.253-0.567,0.566-0.567h2.27
				c0.314,0,0.567,0.254,0.567,0.567v2.269C137.91,83.908,137.657,84.162,137.343,84.162z M135.64,83.028h1.136v-1.135h-1.136
				V83.028z"/>
		</g>
	</g>
</g>
<g id="圖層_3" display="none">
	<path display="inline" fill="none" stroke="#FFFFFF" stroke-width="2" stroke-miterlimit="8" d="M63.718,4.693
		c-7.242,3.376-12.194,10.571-12.194,20.912c0,10.423,1.75,12.225,1.75,12.225s9.648-6.349,16.36-18.872"/>
	<path display="inline" fill="none" stroke="#FFFFFF" stroke-width="2" d="M95.36,35.944c-0.811,11.947-9.961,21.365-21.132,21.365
		l0,0c-10.455,0-19.146-8.255-20.877-19.113"/>
	<path display="inline" fill="none" stroke="#FFFFFF" stroke-width="2" d="M53.346,39.275c-1.357-0.223-2.793-1.331-3.738-3.052
		c-1.416-2.59-1.186-5.584,0.521-6.694c0.433-0.284,0.919-0.417,1.431-0.416"/>
	<path display="inline" fill="none" stroke="#FFFFFF" stroke-width="2" d="M94.835,39.284c1.359-0.223,2.58-1.34,3.521-3.062
		c1.416-2.59,1.186-5.584-0.518-6.694c-0.383-0.25-0.807-0.384-1.25-0.41"/>
	<g display="inline">
		<line fill="none" stroke="#FFFFFF" stroke-width="2" x1="66.23" y1="60.679" x2="66.538" y2="55.645"/>
		<line fill="none" stroke="#FFFFFF" stroke-width="2" x1="81.915" y1="55.615" x2="82.206" y2="60.636"/>
	</g>
	<path display="inline" fill="none" stroke="#FFFFFF" stroke-width="2" d="M82.343,60.636c-2.549,7.588-7.019,7.705-7.978,7.705
		c-0.969,0-5.371,0.031-7.998-7.662"/>
	<g display="inline">
		<path fill="none" stroke="#FFFFFF" stroke-width="2" d="M74.356,68.341c0,0-4.612-0.037-6.829,7.363c0,0-9.232-2.867-4.008-14.625
			"/>
		<path fill="none" stroke="#FFFFFF" stroke-width="2" d="M74.356,68.341c0,0,3.422-1.818,5.639,5.582
			c0,0,10.422-1.086,5.195-12.844"/>
	</g>
	<path display="inline" fill="none" stroke="#FFFFFF" stroke-width="2" d="M82.206,60.636c4.375,0.303,7.246,0.848,10.258,1.428
		c9.164,1.785,13.26,4.594,14.639,15.119c1.313,9.984,4.035,29.967,4.613,40.033l0,0h37.512"/>
	<path display="inline" fill="none" stroke="#FFFFFF" stroke-width="2" d="M-0.771,117.216h37.492h0.008
		c0.578-10.066,3.238-30.063,4.625-40.033c1.346-9.705,5.346-13.533,14.64-15.119c2.973-0.502,5.886-1.057,10.237-1.385"/>
	<line display="inline" fill="none" stroke="#FFFFFF" stroke-width="2" x1="27.838" y1="69.716" x2="29.416" y2="69.716"/>
	<line display="inline" fill="none" stroke="#FFFFFF" stroke-width="2" x1="30.993" y1="69.716" x2="41.459" y2="69.716"/>
	<line display="inline" fill="none" stroke="#FFFFFF" stroke-width="2" x1="20.446" y1="74.911" x2="22.027" y2="74.911"/>
	<line display="inline" fill="none" stroke="#FFFFFF" stroke-width="2" x1="23.604" y1="74.911" x2="34.064" y2="74.911"/>
	<line display="inline" fill="none" stroke="#FFFFFF" stroke-width="2" x1="93.333" y1="58.639" x2="94.913" y2="58.639"/>
	<line display="inline" fill="none" stroke="#FFFFFF" stroke-width="2" x1="96.491" y1="58.639" x2="106.95" y2="58.639"/>
	<line display="inline" fill="none" stroke="#FFFFFF" stroke-width="2" x1="100.778" y1="63.831" x2="102.354" y2="63.831"/>
	<line display="inline" fill="none" stroke="#FFFFFF" stroke-width="2" x1="103.931" y1="63.831" x2="114.396" y2="63.831"/>
	<path display="inline" fill="none" stroke="#FFFFFF" stroke-width="2" stroke-miterlimit="8" d="M95.001,36.119
		C69.083,33.251,63.568,3.168,63.568,3.168s2.688-0.331,4.963-0.055c0,0,3.619-0.603,5.484-0.603
		c12.419,0,22.491,7.996,22.491,23.096c0,7.978-1.148,11.412-1.148,11.412"/>
	<g display="inline">
		<path fill="none" stroke="#FFFFFF" stroke-width="2" d="M37.205,109.015"/>
		<path fill="none" stroke="#FFFFFF" stroke-width="2" d="M37.205,109.015l-15.572,4.781c-0.824,0.252-1.66-0.088-1.866-0.758
			l-7.067-23.02c-0.206-0.672,0.295-1.422,1.119-1.676l26.68-8.191"/>
		<line fill="none" stroke="#FFFFFF" stroke-width="2" stroke-linecap="round" x1="19.398" y1="83.177" x2="21.168" y2="88.94"/>
		<line fill="none" stroke="#FFFFFF" stroke-width="2" stroke-linecap="round" x1="33.345" y1="78.896" x2="35.115" y2="84.659"/>
		<line fill="none" stroke="#FFFFFF" stroke-width="2" x1="14.439" y1="94.665" x2="40.166" y2="86.767"/>
		<line fill="none" stroke="#FFFFFF" stroke-width="2" x1="24.256" y1="95.7" x2="22.691" y2="96.181"/>
		<line fill="none" stroke="#FFFFFF" stroke-width="2" x1="28.49" y1="94.399" x2="26.926" y2="94.88"/>
		<line fill="none" stroke="#FFFFFF" stroke-width="2" x1="32.723" y1="93.101" x2="31.16" y2="93.581"/>
		<line fill="none" stroke="#FFFFFF" stroke-width="2" x1="36.957" y1="91.8" x2="35.395" y2="92.28"/>
		<line fill="none" stroke="#FFFFFF" stroke-width="2" x1="38.057" y1="95.382" x2="36.494" y2="95.862"/>
		<line fill="none" stroke="#FFFFFF" stroke-width="2" x1="38.563" y1="99.146" x2="37.594" y2="99.444"/>
		<line fill="none" stroke="#FFFFFF" stroke-width="2" x1="33.822" y1="96.683" x2="32.26" y2="97.161"/>
		<line fill="none" stroke="#FFFFFF" stroke-width="2" x1="34.922" y1="100.263" x2="33.358" y2="100.743"/>
		<line fill="none" stroke="#FFFFFF" stroke-width="2" x1="36.021" y1="103.845" x2="34.458" y2="104.323"/>
		<line fill="none" stroke="#FFFFFF" stroke-width="2" x1="29.59" y1="97.981" x2="28.025" y2="98.462"/>
		<line fill="none" stroke="#FFFFFF" stroke-width="2" x1="30.689" y1="101.563" x2="29.125" y2="102.044"/>
		<line fill="none" stroke="#FFFFFF" stroke-width="2" x1="31.789" y1="105.144" x2="30.225" y2="105.624"/>
		<line fill="none" stroke="#FFFFFF" stroke-width="2" x1="25.355" y1="99.28" x2="23.792" y2="99.761"/>
		<line fill="none" stroke="#FFFFFF" stroke-width="2" x1="26.455" y1="102.862" x2="24.891" y2="103.343"/>
		<line fill="none" stroke="#FFFFFF" stroke-width="2" x1="27.555" y1="106.444" x2="25.99" y2="106.923"/>
		<line fill="none" stroke="#FFFFFF" stroke-width="2" x1="21.447" y1="100.481" x2="19.883" y2="100.962"/>
		<line fill="none" stroke="#FFFFFF" stroke-width="2" x1="22.547" y1="104.063" x2="20.982" y2="104.544"/>
		<line fill="none" stroke="#FFFFFF" stroke-width="2" x1="23.646" y1="107.644" x2="22.082" y2="108.124"/>
	</g>
	<g display="inline">
		
			<line fill="none" stroke="#FFFFFF" stroke-width="2" stroke-miterlimit="10" x1="127.571" y1="105.923" x2="127.571" y2="107.89"/>
		
			<line fill="none" stroke="#FFFFFF" stroke-width="2" stroke-miterlimit="10" x1="123.993" y1="108.151" x2="125.696" y2="109.134"/>
		
			<line fill="none" stroke="#FFFFFF" stroke-width="2" stroke-miterlimit="10" x1="124.134" y1="112.364" x2="125.837" y2="111.38"/>
		
			<line fill="none" stroke="#FFFFFF" stroke-width="2" stroke-miterlimit="10" x1="127.853" y1="114.347" x2="127.853" y2="112.382"/>
		
			<line fill="none" stroke="#FFFFFF" stroke-width="2" stroke-miterlimit="10" x1="131.429" y1="112.118" x2="129.728" y2="111.136"/>
		
			<line fill="none" stroke="#FFFFFF" stroke-width="2" stroke-miterlimit="10" x1="131.288" y1="107.907" x2="129.585" y2="108.89"/>
	</g>
	<polyline display="inline" fill="none" stroke="#FFFFFF" stroke-width="2" stroke-miterlimit="10" points="55.772,62.169 
		52.21,118.452 97.095,118.808 94.601,63.237 	"/>
	<polyline display="inline" fill="none" stroke="#FFFFFF" stroke-width="2" stroke-miterlimit="10" points="70.733,70.718 
		70.021,83.185 78.927,82.829 78.927,71.429 	"/>
	
		<line display="inline" fill="none" stroke="#FFFFFF" stroke-width="2" stroke-miterlimit="10" x1="95.669" y1="90.667" x2="54.348" y2="90.31"/>
	<g display="inline">
		<defs>
			<polygon id="SVGID_1_" points="107.229,72.376 112.215,116.192 159.827,117.384 156.978,76.062 119.218,65.019 			"/>
		</defs>
		<clipPath id="SVGID_2_">
			<use xlink:href="#SVGID_1_"  overflow="visible"/>
		</clipPath>
		<g clip-path="url(#SVGID_2_)">
			<g>
				<polygon fill="#FFFFFF" points="128.286,108.937 111.515,108.937 111.515,107.261 126.608,107.261 126.608,76.233 
					94.743,76.233 94.743,107.261 98.097,107.261 98.097,108.937 93.065,108.937 93.065,74.556 128.286,74.556 				"/>
			</g>
			<g>
				<rect x="99.774" y="97.196" fill="#FFFFFF" width="25.158" height="1.678"/>
			</g>
			<g>
				<rect x="111.515" y="100.552" fill="#FFFFFF" width="13.418" height="1.676"/>
			</g>
			<g>
				<path fill="#FFFFFF" d="M114.868,93.005c-0.125,0-0.25-0.029-0.367-0.086c-0.287-0.141-0.471-0.434-0.471-0.754v-2.516H93.905
					v-1.676h20.963c0.465,0,0.84,0.375,0.84,0.838v1.639l5.342-4.154l-5.342-4.156v1.641c0,0.463-0.375,0.838-0.84,0.838H93.905
					V82.94h20.125v-2.516c0-0.32,0.184-0.611,0.471-0.752s0.631-0.105,0.883,0.09l7.547,5.871c0.205,0.158,0.324,0.402,0.324,0.662
					c0,0.258-0.119,0.502-0.324,0.662l-7.547,5.869C115.233,92.944,115.052,93.005,114.868,93.005z"/>
			</g>
			<g>
				<path fill="#FFFFFF" d="M98.097,103.905h-5.031v-6.709h5.031V103.905z M94.743,102.228h1.678v-3.354h-1.678V102.228z"/>
			</g>
			<g>
				<path fill="#FFFFFF" d="M146.735,105.583h-5.031v-5.031h5.031V105.583z M143.38,103.905h1.678v-1.678h-1.678V103.905z"/>
			</g>
			<g>
				<path fill="#FFFFFF" d="M104.806,118.161c-3.236,0-5.869-2.633-5.869-5.869s2.633-5.871,5.869-5.871s5.871,2.635,5.871,5.871
					S108.042,118.161,104.806,118.161z M104.806,108.099c-2.311,0-4.193,1.881-4.193,4.193c0,2.311,1.883,4.191,4.193,4.191
					c2.313,0,4.193-1.881,4.193-4.191C108.999,109.979,107.118,108.099,104.806,108.099z"/>
			</g>
			<g>
				<circle fill="#FFFFFF" cx="104.806" cy="112.291" r="1.677"/>
			</g>
			<g>
				<path fill="#FFFFFF" d="M136.673,118.161c-3.236,0-5.871-2.633-5.871-5.869s2.635-5.871,5.871-5.871s5.869,2.635,5.869,5.871
					S139.909,118.161,136.673,118.161z M136.673,108.099c-2.313,0-4.193,1.881-4.193,4.193c0,2.311,1.881,4.191,4.193,4.191
					c2.311,0,4.191-1.881,4.191-4.191C140.864,109.979,138.983,108.099,136.673,108.099z"/>
			</g>
			<g>
				<circle fill="#FFFFFF" cx="136.673" cy="112.291" r="1.677"/>
			</g>
			<g>
				<polygon fill="#FFFFFF" points="146.735,108.937 143.38,108.937 143.38,107.261 145.058,107.261 145.058,98.282 137.892,87.134 
					128.286,87.134 128.286,107.261 129.964,107.261 129.964,108.937 126.608,108.937 126.608,85.456 138.808,85.456 146.735,97.79 
									"/>
			</g>
			<g>
				<rect x="130.802" y="97.196" fill="#FFFFFF" width="15.094" height="1.678"/>
			</g>
			<g>
				<polygon fill="#FFFFFF" points="131.64,105.583 129.964,105.583 129.964,88.812 140.026,88.812 140.026,90.489 131.64,90.489 
									"/>
			</g>
			<g>
				<rect x="133.317" y="100.552" fill="#FFFFFF" width="1.678" height="1.676"/>
			</g>
			<g>
				<rect x="93.065" y="116.483" fill="#FFFFFF" width="53.67" height="1.678"/>
			</g>
			<g>
				<rect x="108.999" y="91.327" fill="#FFFFFF" width="1.678" height="1.678"/>
			</g>
			<g>
				<rect x="105.646" y="91.327" fill="#FFFFFF" width="1.676" height="1.678"/>
			</g>
			<g>
				<rect x="102.29" y="91.327" fill="#FFFFFF" width="1.678" height="1.678"/>
			</g>
		</g>
	</g>
</g>
<g id="圖層_5" display="none">
	<g display="inline">
		<g>
			<path fill="none" stroke="#FFFFFF" stroke-width="2" stroke-miterlimit="8" d="M73.827,3.099
				c-12.423,0-22.491,8.349-22.491,23.096c0,10.423,2.991,14.762,2.991,14.762s0.954-6.569,5.284-6.927
				c15.529-1.287,20.84-8.891,20.84-8.891c-0.664,2.091-3.26,7.633-3.26,7.633c3.193-1.161,5.996-3.732,6.938-7.432
				c2.38,6.707,7.606,10.867,11.042,12.266c0,0,1.146-3.434,1.146-11.412C96.318,11.095,86.248,3.099,73.827,3.099z"/>
			<path fill="none" stroke="#FFFFFF" stroke-width="2" d="M95.172,36.533c-0.811,11.947-9.961,21.365-21.131,21.365l0,0
				c-10.455,0-19.146-8.255-20.878-19.113"/>
			<path fill="none" stroke="#FFFFFF" stroke-width="2" d="M53.158,39.864c-1.357-0.223-2.793-1.331-3.738-3.052
				c-1.417-2.59-1.186-5.584,0.521-6.694c0.433-0.284,0.919-0.417,1.431-0.416"/>
			<path fill="none" stroke="#FFFFFF" stroke-width="2" d="M94.646,39.873c1.361-0.223,2.58-1.34,3.521-3.062
				c1.418-2.59,1.186-5.584-0.516-6.694c-0.385-0.25-0.808-0.384-1.25-0.41"/>
			<g>
				<line fill="none" stroke="#FFFFFF" stroke-width="2" x1="66.043" y1="61.267" x2="66.35" y2="56.234"/>
				<line fill="none" stroke="#FFFFFF" stroke-width="2" x1="81.728" y1="56.204" x2="82.02" y2="61.224"/>
			</g>
			<path fill="none" stroke="#FFFFFF" stroke-width="2" d="M87.847,61.789c0,0-8.341,35.289-13.806,35.289
				c-4.822,0-13.805-35.289-13.805-35.289"/>
			<path fill="none" stroke="#FFFFFF" stroke-width="2" d="M82.02,61.224c-2.549,7.588-7.021,7.706-7.979,7.706
				c-0.971,0-5.373,0.031-7.998-7.663"/>
			<path fill="none" stroke="#FFFFFF" stroke-width="2" d="M74.041,68.93c0,0-6.796,2.438-9.014,9.84"/>
			<path fill="none" stroke="#FFFFFF" stroke-width="2" d="M74.146,68.93c0,0,6.799,2.438,9.017,9.84"/>
			<polyline fill="none" stroke="#FFFFFF" stroke-width="2" points="69.037,89.527 71.922,75.529 69.803,71.529 			"/>
			<polyline fill="none" stroke="#FFFFFF" stroke-width="2" points="78.278,71.529 76.158,75.529 79.363,89.527 			"/>
		</g>
		<path fill="none" stroke="#FFFFFF" stroke-width="2" d="M82.02,61.224c4.373,0.303,7.244,0.848,10.256,1.428
			c9.164,1.785,13.262,4.594,14.641,15.119c1.311,9.984,4.033,29.967,4.612,40.033l0,0h37.513"/>
		<path fill="none" stroke="#FFFFFF" stroke-width="2" d="M-0.959,117.805h37.491h0.008c0.578-10.066,3.239-30.063,4.626-40.033
			c1.344-9.705,5.344-13.533,14.639-15.119c2.973-0.502,5.885-1.057,10.238-1.385"/>
		<g>
			<g>
				<path fill="none" stroke="#FFFFFF" stroke-width="2" stroke-miterlimit="10" d="M34.621,103.527
					c0.079,0.281-0.036,0.566-0.253,0.639l-3.789,1.24c-0.22,0.068-0.46-0.104-0.535-0.379l-0.622-2.256
					c-0.079-0.275,0.039-0.566,0.255-0.635l3.789-1.238c0.218-0.074,0.458,0.096,0.535,0.375L34.621,103.527z"/>
			</g>
			<path fill="none" stroke="#FFFFFF" stroke-width="2" stroke-miterlimit="10" d="M40.398,86.104l-25.749,8.422
				c-0.648,0.209-0.99,1.057-0.761,1.893l1.76,6.393l7.311,3.318l6.777-2.213"/>
			
				<line fill="none" stroke="#FFFFFF" stroke-width="2" stroke-miterlimit="10" x1="34.312" y1="102.414" x2="38.438" y2="101.066"/>
			<path fill="none" stroke="#FFFFFF" stroke-width="2" stroke-miterlimit="10" d="M16.156,103.035l3.438,12.488
				c0.23,0.834,0.941,1.336,1.59,1.119l16.008-5.23"/>
			<path fill="none" stroke="#FFFFFF" stroke-width="2" stroke-miterlimit="10" d="M34.014,88.559l-0.425-1.549
				c-0.467-1.709-2.125-2.676-3.69-2.17l-5.346,1.752c-1.57,0.512-2.46,2.32-1.99,4.025l0.426,1.547"/>
		</g>
		<g>
			<path fill="none" stroke="#FFFFFF" stroke-width="2" stroke-miterlimit="10" d="M111.043,113.73l10.802,3.08
				c0.148,0.041,0.302-0.059,0.342-0.219l8.923-37.24c0.035-0.156-0.049-0.324-0.196-0.367l-7.323-2.086"/>
			
				<line fill="none" stroke="#FFFFFF" stroke-width="2" stroke-miterlimit="10" x1="111.739" y1="73.525" x2="105.807" y2="71.838"/>
			<line fill="none" stroke="#FFFFFF" stroke-width="2" stroke-miterlimit="10" x1="106.385" y1="75.529" x2="110.949" y2="76.83"/>
			<polyline fill="none" stroke="#FFFFFF" stroke-width="2" stroke-miterlimit="10" points="122.797,80.203 127.362,81.498 
				119.877,112.723 110.917,110.174 			"/>
			<path fill="none" stroke="#FFFFFF" stroke-width="2" stroke-miterlimit="10" d="M110.83,77.479
				c-0.068,0.281,0.086,0.572,0.345,0.641l10.851,3.092c0.256,0.072,0.521-0.098,0.589-0.381l1.208-5.053
				c0.07-0.277-0.086-0.57-0.346-0.641l-2.385-0.68l0.311-1.305c0.085-0.348-0.106-0.711-0.432-0.803l-4.902-1.4
				c-0.322-0.088-0.654,0.121-0.74,0.475l-0.313,1.303l-2.387-0.678c-0.258-0.072-0.523,0.098-0.588,0.375L110.83,77.479z"/>
			
				<line fill="none" stroke="#FFFFFF" stroke-width="2" stroke-miterlimit="10" x1="108.561" y1="81.793" x2="122.654" y2="85.807"/>
			
				<line fill="none" stroke="#FFFFFF" stroke-width="2" stroke-miterlimit="10" x1="108.187" y1="87.031" x2="121.459" y2="90.809"/>
			
				<line fill="none" stroke="#FFFFFF" stroke-width="2" stroke-miterlimit="10" x1="108.754" y1="92.531" x2="120.258" y2="95.807"/>
			
				<line fill="none" stroke="#FFFFFF" stroke-width="2" stroke-miterlimit="10" x1="109.556" y1="98.104" x2="119.061" y2="100.809"/>
			
				<line fill="none" stroke="#FFFFFF" stroke-width="2" stroke-miterlimit="10" x1="110.148" y1="103.615" x2="117.865" y2="105.811"/>
		</g>
		<line fill="none" stroke="#FFFFFF" stroke-width="2" x1="27.649" y1="74.93" x2="29.228" y2="74.93"/>
		<line fill="none" stroke="#FFFFFF" stroke-width="2" x1="30.805" y1="74.93" x2="41.271" y2="74.93"/>
		<line fill="none" stroke="#FFFFFF" stroke-width="2" x1="20.258" y1="80.125" x2="21.839" y2="80.125"/>
		<line fill="none" stroke="#FFFFFF" stroke-width="2" x1="23.416" y1="80.125" x2="33.875" y2="80.125"/>
		<line fill="none" stroke="#FFFFFF" stroke-width="2" x1="93.145" y1="59.228" x2="94.726" y2="59.228"/>
		<line fill="none" stroke="#FFFFFF" stroke-width="2" x1="96.303" y1="59.228" x2="106.762" y2="59.228"/>
		<line fill="none" stroke="#FFFFFF" stroke-width="2" x1="100.59" y1="64.42" x2="102.167" y2="64.42"/>
		<line fill="none" stroke="#FFFFFF" stroke-width="2" x1="103.743" y1="64.42" x2="114.208" y2="64.42"/>
	</g>
</g>
<g id="圖層_6" display="none">
	<path display="inline" fill="none" stroke="#FFFFFF" stroke-width="2" d="M94.238,39.142c-0.811,11.947-9.961,21.365-21.13,21.365
		l0,0c-10.455,0-19.146-8.256-20.878-19.113"/>
	<path display="inline" fill="none" stroke="#FFFFFF" stroke-width="2" d="M80.795,58.813l0.291,5.021
		c4.373,0.303,7.244,0.848,10.256,1.428c9.164,1.785,13.262,4.595,14.641,15.119c1.311,9.985,4.033,29.968,4.613,40.033l0,0h37.512"
		/>
	<path display="inline" fill="none" stroke="#FFFFFF" stroke-width="2" d="M-1.892,120.413h37.49h0.009
		c0.578-10.065,3.239-30.062,4.626-40.033c1.344-9.705,5.344-13.532,14.639-15.119c2.973-0.502,5.885-1.057,10.238-1.385
		l0.307-5.033"/>
	<g display="inline">
		<line fill="none" stroke="#FFFFFF" stroke-width="2" x1="31.411" y1="68.733" x2="32.99" y2="68.733"/>
		<line fill="none" stroke="#FFFFFF" stroke-width="2" x1="34.567" y1="68.733" x2="45.033" y2="68.733"/>
		<line fill="none" stroke="#FFFFFF" stroke-width="2" x1="24.02" y1="73.931" x2="25.601" y2="73.931"/>
		<line fill="none" stroke="#FFFFFF" stroke-width="2" x1="27.178" y1="73.931" x2="37.637" y2="73.931"/>
	</g>
	<path display="inline" fill="none" stroke="#FFFFFF" stroke-width="2" stroke-miterlimit="8" d="M51.012,28.25
		c-1.048,12.108,5.58,18.898,5.58,18.898s0.221-9.927,10.918-21.287c-3.418,6.287-3.418,6.838-5.293,10.257
		c4.307-0.507,8.172-5.341,9.607-6.077c-0.621,1.497-0.889,4.979-0.889,4.979c2.664-1.049,8.582-8.65,8.582-8.65
		c-0.664,2.264-3.26,8.265-3.26,8.265c3.193-1.257,5.996-4.042,6.939-8.047c2.379,7.262,9.133,11.77,8.203,17.807
		c0,0,4.785-3.92,3.389-16.728"/>
	<path display="inline" fill="none" stroke="#FFFFFF" stroke-width="2" stroke-miterlimit="8" d="M97.916,34.262
		c0.068-3.635,0.254-4.733,0.254-6.749c0-16.35-11.326-25.007-25.293-25.007c-13.97,0-25.144,9.04-25.294,25.007
		c-0.02,2.103,0.152,3.583,0.354,6.675"/>
	<line display="inline" fill="none" stroke="#FFFFFF" stroke-width="2" x1="107.77" y1="73.839" x2="109.352" y2="73.839"/>
	<line display="inline" fill="none" stroke="#FFFFFF" stroke-width="2" x1="110.928" y1="73.839" x2="121.387" y2="73.839"/>
	<line display="inline" fill="none" stroke="#FFFFFF" stroke-width="2" x1="121.248" y1="67.521" x2="131.711" y2="67.521"/>
	<path display="inline" fill="none" stroke="#FFFFFF" stroke-width="2" d="M52.225,42.473c-1.357-0.223-2.793-1.331-3.738-3.052
		c-1.417-2.59-1.186-5.584,0.521-6.694c0.433-0.283,0.919-0.417,1.431-0.415"/>
	<path display="inline" fill="none" stroke="#FFFFFF" stroke-width="2" d="M93.713,42.482c1.361-0.223,2.58-1.34,3.521-3.062
		c1.418-2.59,1.186-5.584-0.516-6.694c-0.385-0.25-0.807-0.384-1.25-0.41"/>
	<path display="inline" fill="none" stroke="#FFFFFF" stroke-width="2" d="M82.904,72.875c-3.17,5.274-8.728,5.354-9.919,5.354
		c-1.206,0-6.678,0.023-9.943-5.325"/>
	<path display="inline" fill="none" stroke="#FFFFFF" stroke-width="2" d="M82.486,64.305c0,0,3.02,28.434-9.766,38.573
		C59.37,91.7,63.885,63.785,63.885,63.785"/>
	<path display="inline" fill="none" stroke="#FFFFFF" stroke-width="2" d="M58.331,64.447c-1.066,1.712-3.49,11.04-2.83,15.946
		l4.813,1.133l-4.34,2.547c0,0,3.82,15.974,16.747,18.805"/>
	<path display="inline" fill="none" stroke="#FFFFFF" stroke-width="2" d="M87.275,64.447c1.068,1.712,3.492,11.04,2.83,15.946
		l-4.811,1.133l4.34,2.547c0,0-3.822,15.974-16.749,18.805"/>
	<g display="inline">
		<path fill="none" stroke="#FFFFFF" stroke-width="1.5" d="M36.385,113.183l-15.678,4.896c-0.213,0.066-0.438-0.052-0.504-0.263
			L10.305,86.13c-0.066-0.212,0.053-0.439,0.265-0.505l23.349-7.292c0.213-0.068,0.438,0.051,0.505,0.261l4.175,13.363"/>
		<polyline fill="none" stroke="#FFFFFF" stroke-width="1.5" points="22.547,113.636 17.089,96.171 34.553,90.714 		"/>
		
			<rect x="21.572" y="78.8" transform="matrix(-0.298 -0.9546 0.9546 -0.298 -52.6681 137.2135)" fill="none" stroke="#FFFFFF" stroke-width="1.5" width="5.092" height="18.344"/>
		<polyline fill="none" stroke="#FFFFFF" stroke-width="1.5" points="36.481,109.282 22.547,113.636 17.089,96.171 34.553,90.714 
			37.61,100.497 		"/>
		<line fill="none" stroke="#FFFFFF" stroke-width="1.5" x1="25.864" y1="93.431" x2="31.292" y2="110.81"/>
		<line fill="none" stroke="#FFFFFF" stroke-width="1.5" x1="37.269" y1="99.405" x2="19.887" y2="104.833"/>
		<line fill="none" stroke="#FFFFFF" stroke-width="1.5" x1="24.983" y1="98.538" x2="20.471" y2="99.948"/>
		<line fill="none" stroke="#FFFFFF" stroke-width="1.5" x1="23.43" y1="101.499" x2="22.02" y2="96.984"/>
		<line fill="none" stroke="#FFFFFF" stroke-width="1.5" x1="33.897" y1="95.753" x2="29.383" y2="97.162"/>
		<line fill="none" stroke="#FFFFFF" stroke-width="1.5" x1="27.569" y1="109.142" x2="23.38" y2="106.946"/>
		<line fill="none" stroke="#FFFFFF" stroke-width="1.5" x1="24.379" y1="110.14" x2="26.571" y2="105.95"/>
		<line fill="none" stroke="#FFFFFF" stroke-width="1.5" x1="36.963" y1="105.57" x2="32.45" y2="106.98"/>
		<line fill="none" stroke="#FFFFFF" stroke-width="1.5" x1="36.329" y1="103.54" x2="31.815" y2="104.948"/>
	</g>
	
		<path display="inline" fill="none" stroke="#FFFFFF" stroke-width="2" stroke-linecap="round" stroke-linejoin="round" stroke-miterlimit="8" d="
		M50.912,42.9c0,0-11.699,16.613-5.464,20.451S55.761,64.79,56,60.952c0.239-3.836-3.357-1.918-3.357-1.918l3.117-5.516"/>
	
		<path display="inline" fill="none" stroke="#FFFFFF" stroke-width="2" stroke-linecap="round" stroke-linejoin="round" stroke-miterlimit="8" d="
		M94.422,43.299c0,0,11.824,16.318,5.588,20.156c-6.234,3.838-10.313,1.439-10.551-2.399c-0.24-3.836,3.357-1.918,3.357-1.918
		l-3.117-5.516"/>
	<g display="inline">
		<defs>
			<polygon id="SVGID_3_" points="104.122,74.233 110.837,118.599 148.65,119.957 151.529,74.871 			"/>
		</defs>
		<clipPath id="SVGID_4_">
			<use xlink:href="#SVGID_3_"  overflow="visible"/>
		</clipPath>
		<g clip-path="url(#SVGID_4_)">
			<g>
				<g>
					
						<rect x="108.893" y="80.429" transform="matrix(0.9581 0.2864 -0.2864 0.9581 31.4123 -27.4532)" fill="#FFFFFF" width="1.323" height="26.455"/>
				</g>
				<g>
					
						<rect x="138.039" y="89.153" transform="matrix(0.958 0.2868 -0.2868 0.958 35.19 -35.4786)" fill="#FFFFFF" width="1.321" height="26.453"/>
				</g>
				<g>
					<path fill="#FFFFFF" d="M136.617,116.254l-3.803-1.138l0.381-1.268l3.801,1.138c1.396,0.418,2.875-0.378,3.293-1.775
						l5.689-19.008c0.418-1.396-0.379-2.875-1.775-3.293l-3.803-1.137l0.381-1.268l3.801,1.139c2.096,0.627,3.291,2.842,2.664,4.939
						l-5.689,19.006C140.928,115.687,138.713,116.881,136.617,116.254z"/>
				</g>
				<g>
					<path fill="#FFFFFF" d="M107.473,107.529l-3.801-1.137c-2.098-0.628-3.291-2.844-2.664-4.939l5.689-19.008
						c0.627-2.096,2.842-3.291,4.938-2.663l3.803,1.138l-0.379,1.268l-3.803-1.139c-1.395-0.418-2.873,0.379-3.291,1.776
						l-5.689,19.007c-0.418,1.398,0.379,2.875,1.775,3.293l3.801,1.139L107.473,107.529z"/>
				</g>
				<g>
					
						<rect x="106.359" y="88.929" transform="matrix(0.9581 0.2864 -0.2864 0.9581 31.0889 -26.7592)" fill="#FFFFFF" width="1.323" height="7.937"/>
				</g>
				<g>
					
						<rect x="140.572" y="101.816" transform="matrix(0.9579 0.2871 -0.2871 0.9579 35.5536 -36.2035)" fill="#FFFFFF" width="1.323" height="2.645"/>
				</g>
			</g>
			<g>
				<path fill="#FFFFFF" d="M145.342,87.109l-1.268-0.379c0.313-1.049-0.285-2.156-1.332-2.47c-1.049-0.313-2.156,0.283-2.471,1.331
					l-1.268-0.379c0.523-1.746,2.371-2.742,4.117-2.22S145.863,85.363,145.342,87.109z"/>
			</g>
			<g>
				<path fill="#FFFFFF" d="M118.73,79.145l-1.268-0.379c0.523-1.748,2.369-2.742,4.117-2.221l-0.379,1.268
					C120.152,77.499,119.045,78.096,118.73,79.145z"/>
			</g>
			<g>
				
					<rect x="120.918" y="79.741" transform="matrix(0.958 0.2868 -0.2868 0.958 28.6085 -34.5233)" fill="#FFFFFF" width="22.485" height="1.323"/>
			</g>
			<g>
				
					<rect x="143.856" y="86.892" transform="matrix(0.9581 0.2864 -0.2864 0.9581 31.1292 -37.7222)" fill="#FFFFFF" width="1.323" height="1.324"/>
			</g>
			<g>
				<path fill="#FFFFFF" d="M127.941,119.87c-0.164-0.048-0.307-0.159-0.393-0.319l-1.02-1.889l-1.885,1.019
					c-0.322,0.173-0.725,0.054-0.898-0.269l-1.016-1.887l-1.889,1.018c-0.322,0.174-0.723,0.053-0.896-0.27l-1.018-1.887
					l-1.889,1.018c-0.32,0.174-0.721,0.055-0.895-0.268l-1.02-1.888l-1.887,1.019c-0.322,0.173-0.723,0.053-0.896-0.27l-1.016-1.887
					l-1.889,1.018c-0.322,0.174-0.723,0.054-0.896-0.268l-0.889-1.646c-0.082-0.154-0.102-0.336-0.051-0.504l9.861-32.945
					l1.268,0.379l-9.783,32.684l0.445,0.822l1.887-1.018c0.32-0.174,0.723-0.054,0.895,0.268l1.02,1.889l1.887-1.018
					c0.322-0.174,0.723-0.055,0.896,0.268l1.018,1.888l1.889-1.019c0.32-0.173,0.723-0.053,0.895,0.269l1.02,1.888l1.887-1.018
					c0.32-0.174,0.723-0.054,0.896,0.268l1.018,1.889l1.887-1.019c0.322-0.173,0.723-0.054,0.896,0.269l1.018,1.887l0.822-0.443
					l9.783-32.684l1.268,0.379l-9.861,32.946c-0.049,0.168-0.164,0.309-0.318,0.393l-1.648,0.888
					C128.283,119.904,128.104,119.918,127.941,119.87z"/>
			</g>
			<g>
				<path fill="#FFFFFF" d="M122.799,102.453c-1.396-0.418-2.193-1.895-1.775-3.293l1.268,0.379
					c-0.209,0.699,0.188,1.438,0.889,1.646c0.697,0.21,1.436-0.188,1.645-0.888c0.123-0.411-0.59-1.313-1.129-1.778
					c-0.328-0.284-1.949-1.771-1.535-3.16c0.42-1.398,1.896-2.194,3.295-1.775c1.396,0.418,2.193,1.895,1.775,3.291l-1.268-0.379
					c0.209-0.699-0.189-1.438-0.889-1.646s-1.436,0.189-1.646,0.889c-0.123,0.412,0.59,1.313,1.131,1.779
					c0.328,0.283,1.949,1.77,1.533,3.16C125.674,102.074,124.195,102.871,122.799,102.453z"/>
			</g>
			<g>
				
					<rect x="124.887" y="92.275" transform="matrix(0.9581 0.2864 -0.2864 0.9581 31.9707 -32.0502)" fill="#FFFFFF" width="1.323" height="1.984"/>
			</g>
			<g>
				
					<rect x="122.044" y="101.778" transform="matrix(0.958 0.2868 -0.2868 0.958 34.6299 -30.8747)" fill="#FFFFFF" width="1.321" height="1.984"/>
			</g>
			<g>
				
					<rect x="127.9" y="98.683" transform="matrix(0.958 0.2868 -0.2868 0.958 33.8936 -32.6983)" fill="#FFFFFF" width="1.321" height="1.323"/>
			</g>
			<g>
				
					<rect x="119.031" y="96.029" transform="matrix(0.958 0.2868 -0.2868 0.958 32.7597 -30.2661)" fill="#FFFFFF" width="1.321" height="1.323"/>
			</g>
			<g>
				
					<rect x="119.225" y="87.22" transform="matrix(0.958 0.2868 -0.2868 0.958 30.5441 -32.7763)" fill="#FFFFFF" width="15.872" height="1.322"/>
			</g>
			<g>
				
					<rect x="127.258" y="84.685" transform="matrix(0.9581 0.2864 -0.2864 0.9581 29.8018 -33.0611)" fill="#FFFFFF" width="1.323" height="1.324"/>
			</g>
			<g>
				
					<rect x="124.724" y="83.928" transform="matrix(0.9576 0.2882 -0.2882 0.9576 29.6938 -32.5429)" fill="#FFFFFF" width="1.322" height="1.321"/>
			</g>
			<g>
				
					<rect x="129.793" y="85.444" transform="matrix(0.9581 0.2864 -0.2864 0.9581 30.1251 -33.7551)" fill="#FFFFFF" width="1.323" height="1.322"/>
			</g>
			<g>
				
					<rect x="113.157" y="107.494" transform="matrix(0.958 0.2867 -0.2867 0.958 36.0954 -30.1794)" fill="#FFFFFF" width="15.871" height="1.323"/>
			</g>
			<g>
				
					<rect x="119.673" y="110.028" transform="matrix(0.9578 0.2875 -0.2875 0.9578 36.9012 -29.9213)" fill="#FFFFFF" width="1.321" height="1.322"/>
			</g>
			<g>
				
					<rect x="117.138" y="109.269" transform="matrix(0.9581 0.2864 -0.2864 0.9581 36.4187 -29.1329)" fill="#FFFFFF" width="1.323" height="1.323"/>
			</g>
			<g>
				
					<rect x="122.207" y="110.787" transform="matrix(0.9581 0.2864 -0.2864 0.9581 37.0657 -30.5209)" fill="#FFFFFF" width="1.323" height="1.323"/>
			</g>
		</g>
	</g>
</g>
<g id="圖層_7">
	<g>
		<path fill="none" stroke="#FFFFFF" stroke-width="2" stroke-miterlimit="8" d="M74.639,2.498
			c-12.423,0-22.491,8.349-22.491,23.096c0,10.423,2.991,14.762,2.991,14.762s0.954-6.569,5.284-6.927
			c15.529-1.287,20.84-8.891,20.84-8.891c-0.664,2.091-3.26,7.633-3.26,7.633c3.193-1.161,5.996-3.732,6.938-7.432
			c2.38,6.707,7.606,10.867,11.042,12.266c0,0,1.146-3.434,1.146-11.412C97.13,10.494,87.06,2.498,74.639,2.498z"/>
		<path fill="none" stroke="#FFFFFF" stroke-width="2" d="M95.983,35.932c-0.811,11.946-9.961,21.365-21.131,21.365l0,0
			c-10.455,0-19.146-8.255-20.878-19.113"/>
		<path fill="none" stroke="#FFFFFF" stroke-width="2" d="M53.97,39.263c-1.357-0.223-2.793-1.331-3.738-3.052
			c-1.417-2.59-1.186-5.584,0.521-6.694c0.433-0.284,0.919-0.417,1.431-0.416"/>
		<path fill="none" stroke="#FFFFFF" stroke-width="2" d="M95.458,39.272c1.361-0.223,2.58-1.34,3.521-3.062
			c1.418-2.59,1.186-5.584-0.516-6.694c-0.385-0.25-0.808-0.384-1.25-0.41"/>
		<g>
			<line fill="none" stroke="#FFFFFF" stroke-width="2" x1="66.854" y1="60.666" x2="67.161" y2="55.633"/>
			<line fill="none" stroke="#FFFFFF" stroke-width="2" x1="82.539" y1="55.603" x2="82.831" y2="60.623"/>
		</g>
		<path fill="none" stroke="#FFFFFF" stroke-width="2" d="M88.658,61.188c0,0-8.341,35.288-13.806,35.288
			c-4.822,0-13.805-35.288-13.805-35.288"/>
		<path fill="none" stroke="#FFFFFF" stroke-width="2" d="M82.831,60.623c-2.549,7.588-7.021,7.705-7.979,7.705
			c-0.971,0-5.373,0.032-7.998-7.662"/>
		<path fill="none" stroke="#FFFFFF" stroke-width="2" d="M74.853,68.328c0,0-6.796,2.438-9.014,9.84"/>
		<path fill="none" stroke="#FFFFFF" stroke-width="2" d="M74.958,68.328c0,0,6.799,2.438,9.017,9.84"/>
	</g>
	<path fill="none" stroke="#FFFFFF" stroke-width="2" d="M82.831,60.623c4.373,0.303,7.244,0.848,10.256,1.428
		c9.164,1.785,13.262,4.595,14.641,15.119c1.311,9.985,4.033,29.968,4.612,40.033l0,0h37.513"/>
	<path fill="none" stroke="#FFFFFF" stroke-width="2" d="M-0.148,117.203h37.491h0.009c0.578-10.065,3.239-30.062,4.626-40.033
		c1.344-9.704,5.344-13.532,14.639-15.119c2.973-0.502,5.885-1.057,10.238-1.385"/>
	<g>
		<path fill="none" stroke="#FFFFFF" stroke-width="1.5" stroke-miterlimit="10" d="M111.966,112.633l10.802,3.08
			c0.148,0.042,0.302-0.059,0.342-0.218l8.923-37.241c0.035-0.156-0.049-0.324-0.196-0.367l-7.323-2.085"/>
		
			<line fill="none" stroke="#FFFFFF" stroke-width="1.5" stroke-miterlimit="10" x1="112.662" y1="72.429" x2="106.729" y2="70.74"/>
		
			<line fill="none" stroke="#FFFFFF" stroke-width="1.5" stroke-miterlimit="10" x1="107.308" y1="74.432" x2="111.872" y2="75.732"/>
		<polyline fill="none" stroke="#FFFFFF" stroke-width="1.5" stroke-miterlimit="10" points="123.72,79.105 128.285,80.4 
			120.8,111.625 111.84,109.076 		"/>
		<path fill="none" stroke="#FFFFFF" stroke-width="1.5" stroke-miterlimit="10" d="M111.753,76.381
			c-0.068,0.282,0.086,0.573,0.345,0.641l10.851,3.092c0.256,0.072,0.521-0.097,0.589-0.381l1.208-5.052
			c0.07-0.277-0.086-0.571-0.346-0.642l-2.385-0.68l0.311-1.305c0.085-0.348-0.106-0.711-0.432-0.802l-4.902-1.401
			c-0.322-0.088-0.654,0.122-0.74,0.475l-0.313,1.303l-2.387-0.678c-0.258-0.072-0.523,0.098-0.588,0.375L111.753,76.381z"/>
		
			<line fill="none" stroke="#FFFFFF" stroke-width="1.5" stroke-miterlimit="10" x1="108.555" y1="80.529" x2="123.577" y2="84.709"/>
		
			<line fill="none" stroke="#FFFFFF" stroke-width="1.5" stroke-miterlimit="10" x1="109.109" y1="85.934" x2="122.382" y2="89.711"/>
		
			<line fill="none" stroke="#FFFFFF" stroke-width="1.5" stroke-miterlimit="10" x1="109.677" y1="91.434" x2="121.181" y2="94.709"/>
		
			<line fill="none" stroke="#FFFFFF" stroke-width="1.5" stroke-miterlimit="10" x1="110.479" y1="97.006" x2="119.983" y2="99.712"/>
		
			<line fill="none" stroke="#FFFFFF" stroke-width="1.5" stroke-miterlimit="10" x1="111.071" y1="102.518" x2="118.788" y2="104.713"/>
	</g>
	<line fill="none" stroke="#FFFFFF" stroke-width="2" x1="93.956" y1="58.627" x2="95.537" y2="58.627"/>
	<line fill="none" stroke="#FFFFFF" stroke-width="2" x1="97.114" y1="58.627" x2="107.573" y2="58.627"/>
	<line fill="none" stroke="#FFFFFF" stroke-width="2" x1="101.401" y1="63.819" x2="102.979" y2="63.819"/>
	<line fill="none" stroke="#FFFFFF" stroke-width="2" x1="104.555" y1="63.819" x2="115.02" y2="63.819"/>
	<path fill="none" stroke="#414042" stroke-width="2" d="M58.398,49.474"/>
	<path fill="none" stroke="#FFFFFF" stroke-width="2" stroke-linecap="round" stroke-linejoin="round" d="M51.987,24.469
		c0,0-13.145,0.32-10.579,11.22s-0.642,19.875,0.642,19.234c2.993-1.496,5.449-7.052,5.449-7.052l2.885-9.938"/>
	<g>
		<defs>
			<path id="SVGID_5_" d="M52.948,63.26c0,0-11.22,6.41-10.578,9.296c0.641,2.886-5.027,44.007-5.027,44.007l-25.749,1.194
				l-21.799-35.263l31.096-10.58L48.46,59.092L52.948,63.26z"/>
		</defs>
		<clipPath id="SVGID_6_">
			<use xlink:href="#SVGID_5_"  overflow="visible"/>
		</clipPath>
		<g clip-path="url(#SVGID_6_)">
			
				<rect x="23.265" y="119.338" transform="matrix(0.9019 -0.4319 0.4319 0.9019 -47.0703 33.0237)" fill="#FFFFFF" width="51.818" height="1.619"/>
		</g>
		<g clip-path="url(#SVGID_6_)">
			<polygon fill="#FFFFFF" points="58.719,115.833 57.259,116.532 35.926,71.988 8.125,85.045 29.458,129.59 27.997,130.289 
				5.965,84.285 36.687,69.828 			"/>
		</g>
		<g clip-path="url(#SVGID_6_)">
			
				<rect x="8.256" y="82.691" transform="matrix(0.9024 -0.4309 0.4309 0.9024 -33.5869 18.7142)" fill="#FFFFFF" width="32.524" height="1.619"/>
		</g>
		<g clip-path="url(#SVGID_6_)">
			
				<rect x="10.555" y="85.378" transform="matrix(0.902 -0.4318 0.4318 0.902 -36.104 13.3579)" fill="#FFFFFF" width="1.619" height="1.62"/>
		</g>
		<g clip-path="url(#SVGID_6_)">
			
				<rect x="13.476" y="83.979" transform="matrix(0.902 -0.4318 0.4318 0.902 -35.2135 14.4821)" fill="#FFFFFF" width="1.619" height="1.619"/>
		</g>
		<g clip-path="url(#SVGID_6_)">
			
				<rect x="16.397" y="82.581" transform="matrix(0.9019 -0.4319 0.4319 0.9019 -34.3319 15.613)" fill="#FFFFFF" width="1.619" height="1.618"/>
		</g>
		<g clip-path="url(#SVGID_6_)">
			
				<rect x="19.318" y="78.752" transform="matrix(0.9018 -0.4322 0.4322 0.9018 -33.4595 16.7526)" fill="#FFFFFF" width="1.62" height="6.477"/>
		</g>
		<g clip-path="url(#SVGID_6_)">
			
				<rect x="21.483" y="76.464" transform="matrix(0.9014 -0.433 0.433 0.9014 -30.5043 20.5885)" fill="#FFFFFF" width="16.943" height="1.62"/>
		</g>
		<g clip-path="url(#SVGID_6_)">
			<path fill="#FFFFFF" d="M59.386,94.609l-10.953,5.246l-3.497-7.303l10.954-5.246L59.386,94.609z M49.194,97.695l8.031-3.847
				l-2.098-4.382l-8.032,3.847L49.194,97.695z"/>
		</g>
		<g clip-path="url(#SVGID_6_)">
			<path fill="#FFFFFF" d="M54.913,85.27L43.96,90.515l-3.498-7.302l10.954-5.246L54.913,85.27z M44.721,88.355l8.032-3.848
				l-2.098-4.381l-8.033,3.847L44.721,88.355z"/>
		</g>
		<g clip-path="url(#SVGID_6_)">
			
				<rect x="23.328" y="110.853" transform="matrix(0.9019 -0.4319 0.4319 0.9019 -45.347 23.6528)" fill="#FFFFFF" width="12.146" height="1.619"/>
		</g>
		<g clip-path="url(#SVGID_6_)">
			
				<rect x="24.727" y="113.774" transform="matrix(0.9019 -0.432 0.432 0.9019 -46.4733 24.5449)" fill="#FFFFFF" width="12.145" height="1.62"/>
		</g>
		<g clip-path="url(#SVGID_6_)">
			
				<rect x="26.126" y="116.696" transform="matrix(0.9019 -0.4319 0.4319 0.9019 -47.5929 25.4313)" fill="#FFFFFF" width="12.144" height="1.618"/>
		</g>
		<g clip-path="url(#SVGID_6_)">
			
				<rect x="35.742" y="104.908" transform="matrix(0.9019 -0.4319 0.4319 0.9019 -41.5613 28.4316)" fill="#FFFFFF" width="12.146" height="1.619"/>
		</g>
		<g clip-path="url(#SVGID_6_)">
			
				<rect x="37.141" y="107.829" transform="matrix(0.9019 -0.4319 0.4319 0.9019 -42.6859 29.3224)" fill="#FFFFFF" width="12.146" height="1.62"/>
		</g>
		<g clip-path="url(#SVGID_6_)">
			
				<rect x="38.54" y="110.751" transform="matrix(0.9019 -0.4319 0.4319 0.9019 -43.8075 30.2099)" fill="#FFFFFF" width="12.144" height="1.618"/>
		</g>
		<g clip-path="url(#SVGID_6_)">
			
				<rect x="48.886" y="98.613" transform="matrix(0.9019 -0.4319 0.4319 0.9019 -37.5484 33.4848)" fill="#FFFFFF" width="12.145" height="1.619"/>
		</g>
		<g clip-path="url(#SVGID_6_)">
			
				<rect x="50.285" y="101.534" transform="matrix(0.9019 -0.4319 0.4319 0.9019 -38.6775 34.3825)" fill="#FFFFFF" width="12.146" height="1.62"/>
		</g>
		<g clip-path="url(#SVGID_6_)">
			
				<rect x="51.684" y="104.456" transform="matrix(0.9019 -0.4319 0.4319 0.9019 -39.7997 35.2695)" fill="#FFFFFF" width="12.144" height="1.619"/>
		</g>
		<g clip-path="url(#SVGID_6_)">
			
				<rect x="27.534" y="116.417" transform="matrix(0.9019 -0.4319 0.4319 0.9019 -45.947 32.1341)" fill="#FFFFFF" width="40.482" height="1.619"/>
		</g>
		<g clip-path="url(#SVGID_6_)">
			<path fill="#FFFFFF" d="M27.786,99.638c-2.498,1.196-5.509-0.257-7.004-3.378c-1.058-2.211-1.775-4.985,2.108-6.846
				c3.883-1.859,5.596,0.439,6.655,2.648C31.039,95.186,30.284,98.441,27.786,99.638z M23.589,90.875
				c-2.211,1.059-2.538,2.197-1.347,4.686c0.932,1.945,2.947,3.525,4.845,2.617c1.897-0.908,1.93-3.469,0.998-5.416
				C26.893,90.275,25.8,89.816,23.589,90.875z"/>
		</g>
		<g clip-path="url(#SVGID_6_)">
			<path fill="#FFFFFF" d="M35.694,103.031l-10.223,4.896c-1.187,0.568-2.832-0.289-3.59-1.871l-0.886-1.852l3.204-5.393
				l1.392,0.828l-2.761,4.646l0.512,1.069c0.428,0.894,1.212,1.214,1.43,1.11l10.223-4.896c0.217-0.104,0.459-0.917,0.031-1.81
				l-0.512-1.07l-5.352-0.762l0.228-1.604l6.21,0.885l0.887,1.851C37.245,100.645,36.882,102.463,35.694,103.031z"/>
		</g>
	</g>
</g>
</svg>
