<svg xmlns="http://www.w3.org/2000/svg" viewBox="0 0 150 116.71"><defs><style>.cls-1,.cls-2,.cls-3,.cls-4{fill:none;stroke-width:2px;}.cls-1,.cls-2,.cls-4{stroke:#fff;}.cls-1{stroke-miterlimit:8;}.cls-3{stroke:#fff;}.cls-3,.cls-4{stroke-miterlimit:10;}</style></defs><title>hoverBox-icon1</title><g id="圖層_2" data-name="圖層 2"><g id="圖層_1-2" data-name="圖層 1"><path class="cls-1" d="M74.79,1c-12.43,0-22.5,8.35-22.5,23.1,0,10.42,3,14.76,3,14.76s1-6.57,5.28-6.93C76.1,30.64,81.41,23,81.41,23c-.66,2.09-3.26,7.63-3.26,7.63a10.83,10.83,0,0,0,6.94-7.43,21.35,21.35,0,0,0,11,12.27s1.15-3.44,1.15-11.41C97.28,9,87.21,1,74.79,1Z"/><path class="cls-2" d="M96.13,34.43c-.81,12-10,21.37-21.13,21.37h0c-10.46,0-19.15-8.26-20.88-19.11"/><path class="cls-2" d="M54.12,37.77a5.71,5.71,0,0,1-3.74-3.06C49,32.12,49.19,29.13,50.9,28a2.52,2.52,0,0,1,1.43-.42"/><path class="cls-2" d="M95.61,37.77c1.36-.22,2.58-1.34,3.52-3.06,1.41-2.59,1.18-5.58-.52-6.69a2.48,2.48,0,0,0-1.25-.41"/><line class="cls-2" x1="67" y1="59.17" x2="67.31" y2="54.13"/><line class="cls-2" x1="82.69" y1="54.1" x2="82.98" y2="59.13"/><path class="cls-2" d="M88.81,59.69S80.47,95,75,95c-4.82,0-13.8-35.29-13.8-35.29"/><path class="cls-2" d="M83,59.13c-2.55,7.58-7,7.7-8,7.7s-5.37,0-8-7.66"/><path class="cls-2" d="M75,66.83a15.78,15.78,0,0,0-9,9.84"/><path class="cls-2" d="M75.11,66.83a15.81,15.81,0,0,1,9,9.84"/><polyline class="cls-2" points="70 87.43 72.88 73.43 70.76 69.43"/><polyline class="cls-2" points="79.24 69.43 77.12 73.43 80.32 87.43"/><path class="cls-2" d="M83,59.13a76.74,76.74,0,0,1,10.26,1.42c9.16,1.79,13.26,4.6,14.63,15.12,1.32,10,4,30,4.62,40H150"/><path class="cls-2" d="M0,115.71H37.5c.58-10.07,3.24-30.07,4.62-40,1.35-9.7,5.35-13.53,14.64-15.12A100.37,100.37,0,0,1,67,59.17"/><path class="cls-3" d="M35.58,101.43a.52.52,0,0,1-.25.64l-3.79,1.24a.47.47,0,0,1-.54-.38l-.62-2.26a.5.5,0,0,1,.26-.63l3.79-1.24a.45.45,0,0,1,.53.37Z"/><path class="cls-3" d="M41.36,84,15.61,92.43a1.5,1.5,0,0,0-.76,1.89l1.76,6.39L23.92,104l6.78-2.21"/><line class="cls-3" x1="35.27" y1="100.32" x2="39.4" y2="98.97"/><path class="cls-3" d="M17.12,100.94l3.43,12.48a1.34,1.34,0,0,0,1.59,1.12l16-5.23"/><path class="cls-3" d="M35,86.46l-.42-1.55a2.94,2.94,0,0,0-3.69-2.17l-5.35,1.75a3.3,3.3,0,0,0-2,4L24,90.07"/><path class="cls-4" d="M112,111.63l10.8,3.08a.29.29,0,0,0,.35-.22l8.92-37.24a.31.31,0,0,0-.2-.36l-7.32-2.09"/><line class="cls-4" x1="112.7" y1="71.43" x2="106.77" y2="69.74"/><line class="cls-4" x1="107.34" y1="73.43" x2="111.91" y2="74.73"/><polyline class="cls-4" points="123.76 78.1 128.32 79.4 120.84 110.62 111.88 108.07"/><path class="cls-4" d="M111.79,75.38a.53.53,0,0,0,.34.64L123,79.11a.48.48,0,0,0,.59-.38l1.21-5a.52.52,0,0,0-.34-.64l-2.39-.68.31-1.31a.65.65,0,0,0-.43-.8l-4.9-1.4a.61.61,0,0,0-.74.47L116,70.63,113.59,70a.48.48,0,0,0-.59.38Z"/><line class="cls-4" x1="109.52" y1="79.69" x2="123.61" y2="83.71"/><line class="cls-4" x1="109.15" y1="84.93" x2="122.42" y2="88.71"/><line class="cls-4" x1="109.71" y1="90.43" x2="121.22" y2="93.71"/><line class="cls-4" x1="110.52" y1="96" x2="120.02" y2="98.71"/><line class="cls-4" x1="111.11" y1="101.52" x2="118.83" y2="103.71"/><line class="cls-2" x1="28.61" y1="72.83" x2="30.19" y2="72.83"/><line class="cls-2" x1="31.76" y1="72.83" x2="42.23" y2="72.83"/><line class="cls-2" x1="21.22" y1="78.03" x2="22.8" y2="78.03"/><line class="cls-2" x1="24.38" y1="78.03" x2="34.83" y2="78.03"/><line class="cls-2" x1="94.1" y1="57.13" x2="95.69" y2="57.13"/><line class="cls-2" x1="97.26" y1="57.13" x2="107.72" y2="57.13"/><line class="cls-2" x1="101.55" y1="62.32" x2="103.13" y2="62.32"/><line class="cls-2" x1="104.7" y1="62.32" x2="115.17" y2="62.32"/></g></g></svg>