<svg xmlns="http://www.w3.org/2000/svg" viewBox="0 0 150 116.71"><defs><style>.cls-1,.cls-2,.cls-3{fill:none;stroke-width:2px;}.cls-1,.cls-2{stroke:#fff;}.cls-1{stroke-miterlimit:8;}.cls-3{stroke:#fff;stroke-miterlimit:10;}</style></defs><title>hoverBox-icon3</title><g id="圖層_2" data-name="圖層 2"><g id="圖層_1-2" data-name="圖層 1"><path class="cls-1" d="M74.79,1c-12.43,0-22.5,8.35-22.5,23.1,0,10.42,3,14.76,3,14.76s1-6.57,5.28-6.93C76.1,30.64,81.41,23,81.41,23c-.66,2.09-3.26,7.63-3.26,7.63a10.83,10.83,0,0,0,6.94-7.43,21.35,21.35,0,0,0,11,12.27s1.15-3.44,1.15-11.41C97.28,9,87.21,1,74.79,1Z"/><path class="cls-2" d="M96.13,34.43c-.81,12-10,21.37-21.13,21.37h0c-10.46,0-19.15-8.26-20.88-19.11"/><path class="cls-2" d="M54.12,37.77a5.71,5.71,0,0,1-3.74-3.06C49,32.12,49.19,29.13,50.9,28a2.52,2.52,0,0,1,1.43-.42"/><path class="cls-2" d="M95.61,37.77c1.36-.22,2.58-1.34,3.52-3.06,1.41-2.59,1.18-5.58-.52-6.69a2.48,2.48,0,0,0-1.25-.41"/><line class="cls-2" x1="67" y1="59.17" x2="67.31" y2="54.13"/><line class="cls-2" x1="82.69" y1="54.1" x2="82.98" y2="59.13"/><path class="cls-2" d="M88.81,59.69S80.47,95,75,95c-4.82,0-13.8-35.29-13.8-35.29"/><path class="cls-2" d="M83,59.13c-2.55,7.58-7,7.7-8,7.7s-5.37,0-8-7.66"/><path class="cls-2" d="M75,66.83a15.78,15.78,0,0,0-9,9.84"/><path class="cls-2" d="M75.11,66.83a15.81,15.81,0,0,1,9,9.84"/><polyline class="cls-2" points="70 87.43 72.88 73.43 70.76 69.43"/><polyline class="cls-2" points="79.24 69.43 77.12 73.43 80.32 87.43"/><path class="cls-2" d="M83,59.13a76.74,76.74,0,0,1,10.26,1.42c9.16,1.79,13.26,4.6,14.63,15.12,1.32,10,4,30,4.62,40H150"/><path class="cls-2" d="M0,115.71H37.5c.58-10.07,3.24-30.07,4.62-40,1.35-9.7,5.35-13.53,14.64-15.12A100.37,100.37,0,0,1,67,59.17"/><path class="cls-3" d="M35.58,101.43a.52.52,0,0,1-.25.64l-3.79,1.24a.47.47,0,0,1-.54-.38l-.62-2.26a.5.5,0,0,1,.26-.63l3.79-1.24a.45.45,0,0,1,.53.37Z"/><path class="cls-3" d="M41.36,84,15.61,92.43a1.5,1.5,0,0,0-.76,1.89l1.76,6.39L23.92,104l6.78-2.21"/><line class="cls-3" x1="35.27" y1="100.32" x2="39.4" y2="98.97"/><path class="cls-3" d="M17.12,100.94l3.43,12.48a1.34,1.34,0,0,0,1.59,1.12l16-5.23"/><path class="cls-3" d="M35,86.46l-.42-1.55a2.94,2.94,0,0,0-3.69-2.17l-5.35,1.75a3.3,3.3,0,0,0-2,4L24,90.07"/><line class="cls-2" x1="28.61" y1="72.83" x2="30.19" y2="72.83"/><line class="cls-2" x1="31.76" y1="72.83" x2="42.23" y2="72.83"/><line class="cls-2" x1="21.22" y1="78.03" x2="22.8" y2="78.03"/><line class="cls-2" x1="24.38" y1="78.03" x2="34.83" y2="78.03"/><line class="cls-2" x1="94.1" y1="57.13" x2="95.69" y2="57.13"/><line class="cls-2" x1="97.26" y1="57.13" x2="107.72" y2="57.13"/><line class="cls-2" x1="101.55" y1="62.32" x2="103.13" y2="62.32"/><line class="cls-2" x1="104.7" y1="62.32" x2="115.17" y2="62.32"/><path class="cls-2" d="M111.52,107.55l15.68,4.89a.4.4,0,0,0,.5-.26l9.9-31.69a.39.39,0,0,0-.27-.5L114,72.7a.4.4,0,0,0-.51.26l-4.17,13.36"/><polyline class="cls-2" points="125.36 108 130.81 90.53 113.35 85.08"/><rect class="cls-2" x="121.24" y="73.16" width="5.09" height="18.34" transform="translate(8.3 175.96) rotate(-72.66)"/><polyline class="cls-2" points="111.42 103.65 125.36 108 130.81 90.53 113.35 85.08 110.29 94.86"/><line class="cls-2" x1="122.04" y1="87.79" x2="116.61" y2="105.17"/><line class="cls-2" x1="110.64" y1="93.77" x2="128.02" y2="99.2"/><line class="cls-2" x1="122.92" y1="92.9" x2="127.43" y2="94.31"/><line class="cls-2" x1="124.47" y1="95.86" x2="125.88" y2="91.35"/><line class="cls-2" x1="114.01" y1="90.12" x2="118.52" y2="91.53"/><line class="cls-2" x1="120.34" y1="103.51" x2="124.52" y2="101.31"/><line class="cls-2" x1="123.52" y1="104.5" x2="121.33" y2="100.31"/><line class="cls-2" x1="110.94" y1="99.93" x2="115.45" y2="101.34"/><line class="cls-2" x1="111.58" y1="97.9" x2="116.09" y2="99.31"/></g></g></svg>