<?xml version="1.0" encoding="utf-8"?>
<!-- Generator: Adobe Illustrator 13.0.1, SVG Export Plug-In . SVG Version: 6.00 Build 14948)  -->
<!DOCTYPE svg PUBLIC "-//W3C//DTD SVG 1.0//EN" "http://www.w3.org/TR/2001/REC-SVG-20010904/DTD/svg10.dtd">
<svg version="1.0" xmlns="http://www.w3.org/2000/svg" xmlns:xlink="http://www.w3.org/1999/xlink" x="0px" y="0px" width="150px"
	 height="122px" viewBox="0 0 150 122" enable-background="new 0 0 150 122" xml:space="preserve">
<g id="圖層_2_1_" display="none">
	<rect x="-29.5" y="-58.5" display="inline" stroke="#FFFFFF" width="244" height="244"/>
</g>
<g id="圖層_1">
	<g id="圖層_2" display="none">
		<rect x="-70.5" y="-83.5" display="inline" stroke="#FFFFFF" width="299" height="304"/>
	</g>
	<g id="圖層_1_1_" display="none">
		<path display="inline" fill="#FFFFFF" d="M122.105,118.041l0.305-1.049c0.762,0.102,1.488,0.156,2.182,0.156
			c1.58,0.002,2.988-0.273,4.203-0.857c1.955-0.93,3.311-2.686,3.967-4.988c0.238-0.828,0.375-1.678,0.375-2.533
			c0.004-1.564-0.471-3.155-1.578-4.473c-0.658-0.775-1.816-1.871-3.559-3.371c-0.301-0.26-0.584-0.508-0.848-0.742l7.146,2.076
			l0.334-0.822c0.207-0.5,0.348-0.883,0.438-1.188c0.209-0.725,0.313-1.416,0.311-2.076c-0.033-3.479-2.715-5.533-5.533-6.795
			l0.579-1.99l-5.483-1.592l-0.574,1.982c-0.951-0.152-1.846-0.228-2.678-0.228c-1.277,0-2.43,0.181-3.439,0.573
			c-2.787,1.059-4.088,3.658-4.063,6.18c0.002,1.195,0.271,2.398,0.785,3.504c0.941,1.943,3,3.736,4.576,5.105l-7.396-2.146
			l-0.539,1.857c-1.043-9.078-2.394-19.07-3.2-25.227c-0.688-5.291-2.1-8.847-4.641-11.276c-0.896-0.854-1.911-1.543-3.047-2.127
			h0.494v-1.974h-1.561V65.5c-1.859-0.799-4.005-1.37-6.482-1.855c-2.769-0.53-5.488-1.043-9.369-1.354l-0.22-3.74
			c1.57-0.775,3.146-1.718,4.646-2.85c4.016-3.042,7.462-7.403,8.389-12.869c0.021-0.037,0.037-0.076,0.059-0.113
			c1.227-0.594,2.217-1.725,2.988-3.133c0.692-1.268,1.035-2.62,1.037-3.888c0-1.596-0.563-3.146-1.871-4.016
			c-0.012-0.007-0.021-0.013-0.035-0.02c0.012-0.244,0.021-0.454,0.031-0.598c0.047-0.807,0.076-1.664,0.076-2.559
			c-0.021-5.599-1-12.568-4.041-16.903C90.418,5.349,82.416,1.99,74.388,1.984C62.368,1.91,49.993,9.779,49.82,27.087
			c-0.004,0.133-0.004,0.261-0.004,0.389c0.02,1.153,0.073,2.831,0.277,4.703c-0.894,0.899-1.29,2.195-1.29,3.526
			c0.002,1.268,0.347,2.619,1.039,3.885c0.967,1.748,2.39,2.979,3.963,3.407c1.744,6.989,6.768,12.7,12.594,15.676l-0.225,3.665
			c-3.86,0.332-6.598,0.844-9.31,1.303c-4.682,0.797-8.193,2.189-10.702,4.736c-2.506,2.547-3.879,6.129-4.556,11.02
			c-0.363,2.611-0.815,5.931-1.293,9.563c-0.689-0.351-1.395-0.661-2.125-0.881l-0.002-1.882l-0.01-0.034
			c-0.097-0.847-0.813-1.5-1.683-1.502h-4.271c-0.697,0-1.295,0.42-1.558,1.021c0.026-0.105,0.052-0.216,0.052-0.33
			c0-0.135-0.019-0.283-0.067-0.434l-0.234-0.703c0.265-0.203,0.52-0.424,0.759-0.66l0.653,0.326
			c0.206,0.096,0.407,0.146,0.629,0.146c0.511,0.002,1.014-0.281,1.262-0.777l1.136-2.268c0.095-0.207,0.147-0.418,0.146-0.633
			c0.001-0.516-0.283-1.018-0.782-1.264l-0.651-0.325c0.044-0.334,0.067-0.668,0.069-1.002l0.694-0.229
			c0.595-0.213,0.96-0.744,0.962-1.34c0-0.141-0.02-0.285-0.067-0.438l-0.807-2.416c-0.198-0.588-0.751-0.971-1.339-0.967
			c-0.159,0-0.316,0.027-0.461,0.08l-0.676,0.228c-0.203-0.267-0.424-0.519-0.66-0.759l0.325-0.652
			c0.098-0.209,0.148-0.416,0.148-0.632c0.002-0.511-0.287-1.019-0.783-1.263l-2.246-1.123c-0.222-0.114-0.46-0.16-0.651-0.158
			c-0.517-0.002-1.014,0.287-1.261,0.781l-0.325,0.648c-0.336-0.045-0.671-0.064-1.004-0.068l-0.23-0.692
			c-0.201-0.593-0.752-0.966-1.338-0.962c-0.159-0.002-0.31,0.027-0.442,0.072l-2.413,0.805c-0.589,0.191-0.962,0.744-0.962,1.335
			c0,0.151,0.023,0.306,0.075,0.454l0.229,0.688c-0.265,0.203-0.52,0.424-0.76,0.66l-0.653-0.324
			c-0.188-0.107-0.429-0.152-0.63-0.15c-0.521-0.002-1.02,0.291-1.263,0.787l-1.131,2.264c-0.106,0.193-0.148,0.424-0.148,0.627
			c-0.002,0.519,0.285,1.01,0.773,1.258l0.658,0.33c-0.044,0.336-0.067,0.67-0.07,1.004l-0.691,0.232
			c-0.593,0.193-0.967,0.75-0.965,1.338c0,0.156,0.026,0.309,0.073,0.447l0.804,2.406c0.205,0.588,0.739,0.957,1.336,0.961
			c0.132,0,0.281-0.018,0.438-0.068l0.704-0.234c0.202,0.268,0.422,0.52,0.658,0.761L19.211,84.1
			c-0.109,0.205-0.148,0.436-0.148,0.629c0,0.078,0.007,0.156,0.021,0.238l0.041,0.238l0.063,0.08l0.015,0.1l0.154,0.205
			c0.13,0.172,0.298,0.311,0.48,0.4l2.277,1.135c0.205,0.102,0.414,0.146,0.628,0.146c0.509,0.004,1.014-0.281,1.262-0.773
			l0.33-0.66c0.332,0.043,0.665,0.068,0.999,0.07l0.231,0.697c0.205,0.59,0.741,0.957,1.34,0.959h0.018
			c0.125,0,0.271-0.021,0.421-0.066l2.413-0.807c0.404-0.146,0.694-0.443,0.845-0.809c-0.044,0.15-0.076,0.309-0.076,0.475
			c0,0.02,0.001,0.039,0.003,0.061v1.658c-0.813,0.246-1.606,0.574-2.368,0.98l-1.216-1.217c-0.324-0.334-0.777-0.502-1.2-0.497
			c-0.435-0.003-0.872,0.171-1.199,0.497l-3.02,3.02c-0.331,0.328-0.496,0.77-0.496,1.201c-0.002,0.428,0.167,0.868,0.496,1.2
			l1.216,1.214c-0.406,0.762-0.734,1.555-0.98,2.365l-1.718,0.002c-0.939,0.006-1.697,0.764-1.699,1.693v4.273
			c0.008,0.938,0.758,1.693,1.699,1.697h1.718c0.246,0.809,0.572,1.602,0.98,2.363l-1.216,1.215
			c-0.262,0.264-0.419,0.592-0.472,0.924l-0.043,0.242l0.063,0.18l-0.031,0.174l0.082,0.24c0.081,0.242,0.221,0.465,0.399,0.645
			l3.021,3.021c0.331,0.325,0.765,0.493,1.199,0.493c0.431,0.002,0.872-0.168,1.2-0.493l1.22-1.22
			c0.761,0.405,1.554,0.735,2.365,0.979l-0.002,1.717c0.003,0.938,0.761,1.695,1.693,1.699l4.274,0.004
			c0.257,0,0.497-0.063,0.715-0.164c-0.039,0.517-0.079,1.031-0.11,1.513H1v1.976h37.954l0.053-0.931
			c0.563-9.854,3.189-29.597,4.556-39.418c0.651-4.688,1.916-7.783,4.007-9.91c2.09-2.123,5.136-3.405,9.627-4.172
			c0.448-0.076,0.895-0.151,1.343-0.229c-0.346,1.045-0.696,2.33-1.037,3.783c-0.621,2.707-1.126,5.844-1.128,8.483
			c0,0.698,0.034,1.368,0.12,1.993l0.092,0.673l3.009,0.707l-2.816,1.651l0.211,0.737c0.044,0.082,3.813,13.459,17.009,16.567
			l0.449,0.373l0.39-0.313l0.001,0.004C88.24,97.025,92.057,83.471,92.1,83.385l0.209-0.736l-2.814-1.65l3.014-0.709l0.09-0.68
			c0.078-0.615,0.113-1.281,0.113-1.982c-0.002-2.645-0.506-5.777-1.127-8.484c-0.364-1.555-0.736-2.914-1.105-3.996
			c0.781,0.141,1.549,0.287,2.33,0.438c4.465,0.865,7.527,1.973,9.605,3.973c2.08,1.988,3.377,5.012,4.045,10.107
			c1.293,9.848,3.979,29.572,4.545,39.426l0.055,0.932H149v-1.975L122.105,118.041z M28.076,69.484l0.191-0.361L28.079,69.5
			l-0.003-0.002V69.484z M30.198,81.707c-0.427,0.51-0.927,0.941-1.473,1.281l-0.663,0.41l0.535,1.6l-1.339,0.447l-0.531-1.596
			l-0.773,0.064c-0.177,0.013-0.357,0.021-0.543,0.021c-0.468,0-0.942-0.056-1.412-0.164L23.242,83.6l-0.752,1.506l-1.262-0.629
			l0.754-1.512l-0.598-0.498c-0.511-0.428-0.938-0.924-1.278-1.471l-0.413-0.664l-1.6,0.535l-0.445-1.338l1.601-0.535l-0.07-0.779
			c-0.016-0.18-0.026-0.359-0.026-0.537c0-0.469,0.055-0.943,0.163-1.406l0.177-0.76l-1.507-0.75l0.63-1.262l1.505,0.75l0.501-0.594
			c0.43-0.51,0.929-0.939,1.478-1.283l0.659-0.412l-0.534-1.596l1.338-0.447l0.535,1.602l0.779-0.068
			c0.179-0.02,0.358-0.025,0.539-0.025c0.469,0,0.936,0.055,1.4,0.162l0.761,0.184l0.754-1.514l1.262,0.633l-0.75,1.504l0.594,0.502
			c0.511,0.43,0.94,0.926,1.282,1.477l0.411,0.66l1.596-0.533l0.447,1.336l-1.598,0.531l0.067,0.775
			c0.017,0.178,0.024,0.357,0.024,0.543c0,0.467-0.056,0.938-0.163,1.414l-0.171,0.756l1.504,0.748l-0.63,1.264l-1.507-0.754
			L30.198,81.707z M38.346,104.928c-1.127,1.053-2.55,1.59-3.991,1.59c-1.498,0-2.986-0.564-4.128-1.709
			c-1.148-1.146-1.714-2.639-1.716-4.137c0.002-1.496,0.569-2.988,1.714-4.131c1.144-1.145,2.629-1.711,4.128-1.711
			c1.502,0,2.994,0.568,4.14,1.713c0.282,0.282,0.527,0.586,0.739,0.904C38.923,99.952,38.623,102.471,38.346,104.928z
			 M39.556,94.848c-1.481-1.322-3.343-1.994-5.203-1.992c-1.994-0.002-4.002,0.764-5.523,2.291c-1.525,1.521-2.293,3.527-2.29,5.525
			c-0.003,1.998,0.765,4.004,2.29,5.531c1.523,1.527,3.531,2.291,5.525,2.289h0.008c1.271,0,2.543-0.313,3.692-0.932
			c-0.186,1.723-0.354,3.383-0.503,4.959h-1.334v2.2l-3.721-0.005l0.002-2.975l-0.758-0.182c-1.125-0.27-2.214-0.717-3.227-1.342
			l-0.666-0.41l-2.107,2.109l-2.629-2.627l2.108-2.109l-0.411-0.666c-0.623-1.012-1.068-2.098-1.337-3.227l-0.18-0.754h-2.979
			v-3.723l2.979-0.002l0.18-0.757c0.265-1.122,0.716-2.214,1.339-3.229l0.404-0.666l-2.103-2.103l2.63-2.63l2.102,2.104l0.663-0.403
			c1.019-0.623,2.107-1.073,3.232-1.34l0.76-0.185l-0.004-2.974h3.721v2.974l0.757,0.185c1.067,0.255,2.096,0.674,3.068,1.248
			C39.881,92.285,39.718,93.559,39.556,94.848z M83.877,64.273c0.037,0.506,0.131,1.98,0.131,4.135
			c0.012,2.268-0.105,5.238-0.508,8.471c-1.695-2.838-4.061-4.592-5.896-5.602c1.897-0.771,4.33-2.647,5.939-7.03
			C83.654,64.256,83.768,64.266,83.877,64.273z M82.951,80.387c-0.487,2.611-1.188,5.277-2.169,7.816l-3.171-10.563l1.539-2.902
			C80.664,76.035,82.139,77.867,82.951,80.387z M75.001,69.818h-0.027c-0.458-0.004-1.517,0.002-2.824-0.808
			c-1.273-0.8-2.816-2.43-4.042-5.909l0.217-3.564c2.196,0.87,4.462,1.361,6.676,1.373c1.929-0.008,4.25-0.529,6.662-1.494
			l0.211,3.643C79.395,69.98,75.766,69.736,75.001,69.818z M82.869,63.203h0.003v0.002L82.869,63.203z M98.622,34.762
			c0.065,0.284,0.11,0.59,0.11,0.935c0.002,0.763-0.189,1.626-0.568,2.467C98.391,36.982,98.532,35.813,98.622,34.762z
			 M50.863,36.597c0.121,0.478,0.262,0.95,0.413,1.418C51.076,37.539,50.941,37.061,50.863,36.597z M54.69,40.771
			c-2.366-3.494-2.951-10.361-2.898-13.295c-0.002-0.126,0-0.241,0.002-0.33l-0.986-0.031l0.986,0.012
			c0.251-16.266,11.354-23.1,22.592-23.173c7.491-0.005,14.911,3.184,18.87,8.787c2.619,3.643,3.695,10.416,3.678,15.762
			c0,0.852-0.028,1.67-0.069,2.439c-0.063,1.236-0.127,5.806-1.209,9.146c-0.009-0.009-0.019-0.018-0.024-0.027
			c0.082-0.886,0.242-2.958,0.244-5.49c-0.045-4.872-0.479-11.396-3.73-14.771l-0.539-0.541l-0.656,0.384
			c-4.977,2.911-10.844,4.512-16.703,4.512c-5.517,0-11.018-1.415-15.798-4.463l-0.877-0.56l-0.513,0.906
			c-2.057,3.625-3.269,7.258-3.264,11.911c0,2.498,0.34,5.284,1.051,8.55C54.787,40.594,54.736,40.685,54.69,40.771z M56.045,43.688
			l0.086-0.814c0.155-1.094-0.063-0.45,0.615-1.714l0.188-0.332l-0.083-0.373c-0.745-3.332-1.087-6.096-1.087-8.505
			c0.008-3.937,0.892-6.929,2.52-10.041c4.909,2.887,10.447,4.221,15.958,4.221c5.945-0.002,11.867-1.547,16.996-4.382
			c2.063,2.684,2.701,8.457,2.658,12.824c0.002,3.261-0.277,5.729-0.273,5.734l-0.053,0.482l0.352,0.337c0,0,0.24,0.234,0.482,0.542
			c0.119,0.153,0.231,0.317,0.299,0.445c0.018,0.03,0.021,0.046,0.029,0.07c-0.731,4.976-3.862,9.042-7.688,11.946
			c-4.104,3.13-9.017,4.826-12.045,4.808C67.546,58.981,58.794,52.501,56.045,43.688z M66.343,64.303
			c0.035-0.003,0.071-0.006,0.107-0.009c1.307,3.442,3.024,5.376,4.653,6.39c0.272,0.172,0.538,0.311,0.8,0.433
			c-1.774,0.987-4.214,2.791-5.97,5.798c-0.118-1.537-0.168-3.018-0.165-4.387C65.769,68.111,66.252,64.895,66.343,64.303z
			 M71.316,77.656l-2.91,10.887c-0.979-2.543-1.624-5.201-2.028-7.795l0.008,0.002c0.76-2.535,2.116-4.395,3.528-5.74L71.316,77.656
			z M58.381,78.684c-0.023-0.332-0.035-0.688-0.035-1.061c-0.002-2.389,0.479-5.441,1.079-8.041c0.427-1.904,0.963-3.63,1.343-4.596
			c1.099-0.174,2.257-0.34,3.55-0.485c-0.174,1.245-0.521,4.214-0.521,8.026c0.004,2.271,0.135,4.854,0.495,7.545L58.381,78.684z
			 M62.227,89.473c-1.223-1.752-2.065-3.424-2.597-4.654c-0.22-0.506-0.385-0.934-0.502-1.258l5.22-3.063
			c0.795,5.57,2.625,11.582,6.558,16.354C66.92,95.07,64.127,92.191,62.227,89.473z M74.479,97.764
			c-2.019-1.824-3.577-4.012-4.794-6.373l3.738-13.973l-1.955-3.693c0.884-0.633,1.709-1.078,2.309-1.358
			c0.336-0.155,0.587-0.257,0.753-0.316c0.177,0.062,0.445,0.158,0.813,0.314c0.591,0.255,1.368,0.642,2.209,1.183l-2.06,3.889
			L79.561,91C78.262,93.586,76.604,95.93,74.479,97.764z M89.959,83.561c-0.117,0.324-0.283,0.752-0.504,1.26
			c-1.378,3.186-4.782,9.201-11.443,12.101c3.87-4.595,5.883-10.644,6.912-16.313L89.959,83.561z M90.736,77.625
			c0,0.369-0.012,0.725-0.035,1.061l-5.67,1.334c0.761-4.455,0.937-8.633,0.951-11.609c-0.002-1.848-0.07-3.223-0.117-3.943
			c0.838,0.096,1.619,0.196,2.363,0.309c0.383,0.904,0.969,2.746,1.432,4.811C90.258,72.182,90.74,75.234,90.736,77.625z
			 M112.916,118.041c-0.12-1.811-0.303-3.896-0.521-6.141c0.021,0.026,0.037,0.06,0.061,0.086c1.188,1.436,2.693,2.559,4.491,3.356
			l-0.694,2.394l1.047,0.305H112.916z M121.004,114.758l-0.617,2.123l-1.69-0.488l0.646-2.23l-0.857-0.32
			c-1.895-0.706-3.375-1.736-4.512-3.107c-0.615-0.754-0.928-1.643-0.932-2.822c0-0.729,0.125-1.559,0.396-2.486l0.061-0.209
			l5.891,1.711l-0.145,0.504c-0.424,1.486-0.652,2.439-0.662,3.168c0,0.074,0.002,0.166,0.016,0.271
			c0.092,0.936,0.922,1.536,1.701,1.73c0.305,0.086,0.607,0.135,0.91,0.135c1.164,0.051,2.1-0.916,2.338-1.941
			c0.334-1.152,0.518-2.084,0.52-2.871c0-0.174-0.012-0.33-0.021-0.455c-0.195-1.201-1.02-2.068-2.297-3.238
			c-1.634-1.424-4.256-3.621-4.985-5.254c-0.396-0.838-0.603-1.768-0.603-2.664c0.021-1.928,0.859-3.582,2.803-4.338
			c0.729-0.283,1.639-0.441,2.729-0.441c0.934,0,1.992,0.109,3.184,0.348l0.893,0.18l0.521-1.811l1.689,0.49l-0.271,0.938
			l-0.25,0.861l0.834,0.33c2.937,1.172,5.153,2.85,5.117,5.313c0,0.457-0.07,0.961-0.231,1.527c-0.013,0.043-0.029,0.1-0.052,0.157
			l-5.967-1.731l0.01-0.033c0.248-0.865,0.388-1.521,0.392-2.105c0-0.178-0.017-0.336-0.041-0.482
			c-0.229-0.908-0.989-1.377-1.715-1.574c-0.269-0.075-0.539-0.123-0.813-0.123c-1.313-0.016-2.104,1.104-2.324,2.045
			c-0.129,0.447-0.205,0.884-0.205,1.318c-0.006,0.605,0.162,1.221,0.541,1.713c0.504,0.678,1.67,1.754,3.707,3.533
			c1.701,1.463,2.836,2.549,3.336,3.15c0.783,0.934,1.111,2.014,1.115,3.201c0.002,0.641-0.104,1.311-0.297,1.988
			c-0.563,1.902-1.514,3.064-2.926,3.756c-0.887,0.428-1.99,0.66-3.348,0.662c-0.816,0-1.725-0.09-2.713-0.266L121.004,114.758z
			 M120.555,110.578c-0.002-0.275,0.185-1.238,0.584-2.602l0.355-1.229c0.428,0.502,0.609,0.858,0.586,0.928
			c0.004,0.068,0.012,0.156,0.012,0.242c0.002,0.468-0.131,1.271-0.438,2.313c-0.24,0.592-0.219,0.483-0.445,0.528
			c-0.084,0-0.205-0.014-0.361-0.061C120.689,110.656,120.596,110.607,120.555,110.578z M125.588,95.988
			c0.004,0.225-0.088,0.789-0.314,1.557l-0.202,0.703c-0.255-0.256-0.416-0.438-0.481-0.535c-0.096-0.133-0.148-0.26-0.154-0.541
			c0-0.193,0.039-0.451,0.131-0.771c0.242-0.659,0.289-0.604,0.428-0.618c0.051,0,0.137,0.011,0.262,0.046
			c0.178,0.053,0.287,0.105,0.334,0.139C125.586,95.973,125.588,95.98,125.588,95.988z M34.487,60.167h-1.56v1.974h1.56V60.167z
			 M46.37,60.167H36.044v1.974H46.37V60.167z M27.665,73.166c-0.72-0.361-1.493-0.533-2.252-0.533
			c-1.852-0.002-3.638,1.021-4.519,2.795c-0.36,0.719-0.534,1.492-0.534,2.252c-0.002,1.853,1.026,3.635,2.794,4.521
			c0.722,0.359,1.494,0.531,2.25,0.531h0.006c1.851,0,3.632-1.025,4.517-2.793c0.361-0.725,0.532-1.498,0.532-2.254
			C30.461,75.832,29.434,74.049,27.665,73.166z M28.162,79.057c-0.539,1.076-1.628,1.699-2.758,1.699
			c-0.461,0-0.925-0.1-1.367-0.322c-1.082-0.539-1.7-1.625-1.702-2.754c0-0.461,0.103-0.928,0.325-1.373
			c0.537-1.078,1.62-1.699,2.753-1.699c0.46,0,0.926,0.104,1.371,0.324c1.078,0.537,1.701,1.623,1.701,2.754
			C28.485,78.146,28.384,78.613,28.162,79.057z M113.662,90.959l0.809-1.803l-2.469-1.107l-0.807,1.799L113.662,90.959z
			 M116.311,87.375l-4.117-1.852l-0.811,1.803l4.119,1.848L116.311,87.375z M121.822,84.834l1.592,0.713l0.807-1.799l-1.592-0.715
			L121.822,84.834z M120.305,73.223c-0.836-0.375-1.713-0.555-2.578-0.555c-2.4-0.002-4.696,1.387-5.744,3.723
			c-0.109,0.258-0.582,1.486-0.59,3.447c0,0.826,0.09,1.773,0.345,2.807c0,0.008,0.009,0.066,0.009,0.145
			c0.004,0.234-0.098,0.629-0.211,0.95l0.23,0.084l-0.406,0.903l6.301,2.824l0.406-0.906l0.209,0.111
			c0.191-0.383,0.549-0.814,0.701-0.877c3.127-1.674,4.34-4.002,4.494-4.33c0.375-0.84,0.553-1.719,0.553-2.58
			C124.025,76.563,122.635,74.268,120.305,73.223z M121.67,80.738c0.008,0.002-1.018,2.029-3.633,3.406
			c-0.461,0.268-0.781,0.606-1.033,0.948l-3.379-1.517c0.053-0.246,0.09-0.51,0.092-0.791c0-0.186-0.016-0.38-0.059-0.59
			c-0.219-0.889-0.289-1.676-0.291-2.359c0-0.806,0.104-1.465,0.207-1.931c0.053-0.229,0.104-0.411,0.148-0.534
			c0.035-0.121,0.063-0.168,0.059-0.17c0.723-1.613,2.295-2.561,3.945-2.563c0.592,0,1.189,0.121,1.771,0.381
			c1.603,0.717,2.549,2.291,2.551,3.945C122.049,79.563,121.93,80.158,121.67,80.738z M110.063,77.393l-0.807,1.801l1.436,0.646
			l0.809-1.803L110.063,77.393z M126.551,78.516l-0.703-1.846l-1.629,0.619l0.703,1.848L126.551,78.516z M114.045,71.371
			l-1.844,0.701l0.617,1.629L114.666,73L114.045,71.371z M121.961,71.941l-1.799-0.808l-0.648,1.437l1.803,0.809L121.961,71.941z
			 M113.098,64.025H102.78v1.973h10.317V64.025z M111.541,58.978h-1.561v1.974h1.561V58.978z M123.416,58.977h-10.32v1.974h10.32
			V58.977z"/>
	</g>
	<g id="圖層_3" display="none">
		<g display="inline">
			<g>
				<path fill="none" stroke="#FFFFFF" stroke-width="2" stroke-miterlimit="8" d="M73.552,3.275
					c-12.422,0-22.492,8.349-22.492,23.096c0,10.423,2.992,14.762,2.992,14.762s0.955-6.569,5.284-6.927
					c15.53-1.287,20.84-8.891,20.84-8.891c-0.664,2.091-3.26,7.633-3.26,7.633c3.193-1.161,5.996-3.732,6.938-7.432
					c2.381,6.707,7.606,10.867,11.043,12.266c0,0,1.146-3.434,1.146-11.412C96.043,11.271,85.973,3.275,73.552,3.275z"/>
				<path fill="none" stroke="#FFFFFF" stroke-width="2" d="M94.896,36.709c-0.812,11.946-9.961,21.365-21.131,21.365l0,0
					c-10.455,0-19.146-8.255-20.877-19.114"/>
				<path fill="none" stroke="#FFFFFF" stroke-width="2" d="M52.882,40.04c-1.357-0.223-2.793-1.331-3.738-3.052
					c-1.417-2.59-1.186-5.584,0.521-6.694c0.433-0.284,0.919-0.417,1.431-0.416"/>
				<path fill="none" stroke="#FFFFFF" stroke-width="2" d="M94.371,40.049c1.361-0.223,2.58-1.34,3.521-3.062
					c1.418-2.59,1.186-5.584-0.517-6.694c-0.385-0.25-0.808-0.384-1.25-0.41"/>
				<g>
					<line fill="none" stroke="#FFFFFF" stroke-width="2" x1="65.767" y1="61.443" x2="66.074" y2="56.41"/>
					<line fill="none" stroke="#FFFFFF" stroke-width="2" x1="81.452" y1="56.38" x2="81.744" y2="61.401"/>
				</g>
				<path fill="none" stroke="#FFFFFF" stroke-width="2" d="M87.571,61.966c0,0-8.341,35.288-13.806,35.288
					c-4.822,0-13.805-35.288-13.805-35.288"/>
				<path fill="none" stroke="#FFFFFF" stroke-width="2" d="M81.744,61.401c-2.549,7.587-7.021,7.705-7.979,7.705
					c-0.97,0-5.372,0.033-7.998-7.663"/>
				<path fill="none" stroke="#FFFFFF" stroke-width="2" d="M73.765,69.105c0,0-6.795,2.438-9.013,9.84"/>
				<path fill="none" stroke="#FFFFFF" stroke-width="2" d="M73.872,69.105c0,0,6.798,2.438,9.016,9.84"/>
				<polyline fill="none" stroke="#FFFFFF" stroke-width="2" points="68.761,89.703 71.646,75.706 69.527,71.705 				"/>
				<polyline fill="none" stroke="#FFFFFF" stroke-width="2" points="78.003,71.705 75.883,75.706 79.088,89.703 				"/>
			</g>
			<path fill="none" stroke="#FFFFFF" stroke-width="2" d="M81.744,61.401c4.373,0.302,7.244,0.847,10.256,1.427
				c9.164,1.785,13.262,4.595,14.641,15.119c1.312,9.984,4.033,29.968,4.612,40.033l0,0h37.513"/>
			<path fill="none" stroke="#FFFFFF" stroke-width="2" d="M-1.235,117.98h37.491h0.008c0.578-10.065,3.239-30.063,4.625-40.033
				c1.345-9.704,5.345-13.532,14.639-15.119c2.973-0.502,5.885-1.057,10.238-1.385"/>
			<g>
				<g>
					<path fill="none" stroke="#FFFFFF" stroke-width="2" stroke-miterlimit="10" d="M34.346,103.703
						c0.079,0.281-0.036,0.566-0.253,0.639l-3.789,1.241c-0.22,0.067-0.46-0.104-0.535-0.38l-0.622-2.256
						c-0.079-0.275,0.039-0.566,0.255-0.635l3.789-1.238c0.218-0.074,0.458,0.096,0.535,0.375L34.346,103.703z"/>
				</g>
				<path fill="none" stroke="#FFFFFF" stroke-width="2" stroke-miterlimit="10" d="M40.123,86.279l-25.749,8.422
					c-0.648,0.21-0.99,1.057-0.761,1.893l1.76,6.393l7.311,3.318l6.777-2.212"/>
				
					<line fill="none" stroke="#FFFFFF" stroke-width="2" stroke-miterlimit="10" x1="34.037" y1="102.59" x2="38.163" y2="101.243"/>
				<path fill="none" stroke="#FFFFFF" stroke-width="2" stroke-miterlimit="10" d="M15.881,103.212l3.438,12.487
					c0.23,0.834,0.941,1.336,1.59,1.119l16.008-5.23"/>
				<path fill="none" stroke="#FFFFFF" stroke-width="2" stroke-miterlimit="10" d="M33.738,88.734l-0.425-1.549
					c-0.467-1.709-2.125-2.677-3.69-2.17l-5.346,1.752c-1.57,0.513-2.46,2.319-1.99,4.024l0.426,1.548"/>
			</g>
			<g>
				<path fill="none" stroke="#FFFFFF" stroke-width="2" stroke-miterlimit="10" d="M110.768,113.906l10.803,3.08
					c0.147,0.041,0.302-0.06,0.342-0.219l8.923-37.24c0.035-0.156-0.049-0.324-0.196-0.367l-7.322-2.085"/>
				
					<line fill="none" stroke="#FFFFFF" stroke-width="2" stroke-miterlimit="10" x1="111.464" y1="73.702" x2="105.531" y2="72.014"/>
				
					<line fill="none" stroke="#FFFFFF" stroke-width="2" stroke-miterlimit="10" x1="106.109" y1="75.705" x2="110.674" y2="77.006"/>
				<polyline fill="none" stroke="#FFFFFF" stroke-width="2" stroke-miterlimit="10" points="122.521,80.379 127.087,81.674 
					119.602,112.898 110.643,110.35 				"/>
				<path fill="none" stroke="#FFFFFF" stroke-width="2" stroke-miterlimit="10" d="M110.555,77.654
					c-0.067,0.281,0.086,0.572,0.346,0.641l10.851,3.092c0.256,0.072,0.521-0.097,0.589-0.381l1.208-5.052
					c0.07-0.277-0.086-0.571-0.346-0.642l-2.386-0.681l0.312-1.305c0.085-0.349-0.106-0.711-0.432-0.802l-4.902-1.401
					c-0.321-0.088-0.653,0.122-0.74,0.476l-0.313,1.303l-2.388-0.678c-0.258-0.072-0.522,0.098-0.588,0.375L110.555,77.654z"/>
				
					<line fill="none" stroke="#FFFFFF" stroke-width="2" stroke-miterlimit="10" x1="108.285" y1="81.97" x2="122.379" y2="85.982"/>
				
					<line fill="none" stroke="#FFFFFF" stroke-width="2" stroke-miterlimit="10" x1="107.911" y1="87.207" x2="121.184" y2="90.984"/>
				
					<line fill="none" stroke="#FFFFFF" stroke-width="2" stroke-miterlimit="10" x1="108.479" y1="92.707" x2="119.982" y2="95.982"/>
				
					<line fill="none" stroke="#FFFFFF" stroke-width="2" stroke-miterlimit="10" x1="109.28" y1="98.279" x2="118.785" y2="100.984"/>
				
					<line fill="none" stroke="#FFFFFF" stroke-width="2" stroke-miterlimit="10" x1="109.873" y1="103.791" x2="117.59" y2="105.986"/>
			</g>
			<line fill="none" stroke="#FFFFFF" stroke-width="2" x1="27.374" y1="75.105" x2="28.952" y2="75.105"/>
			<line fill="none" stroke="#FFFFFF" stroke-width="2" x1="30.529" y1="75.105" x2="40.996" y2="75.105"/>
			<line fill="none" stroke="#FFFFFF" stroke-width="2" x1="19.982" y1="80.302" x2="21.564" y2="80.302"/>
			<line fill="none" stroke="#FFFFFF" stroke-width="2" x1="23.141" y1="80.302" x2="33.6" y2="80.302"/>
			<line fill="none" stroke="#FFFFFF" stroke-width="2" x1="92.869" y1="59.404" x2="94.45" y2="59.404"/>
			<line fill="none" stroke="#FFFFFF" stroke-width="2" x1="96.027" y1="59.404" x2="106.486" y2="59.404"/>
			<line fill="none" stroke="#FFFFFF" stroke-width="2" x1="100.314" y1="64.598" x2="101.893" y2="64.598"/>
			<line fill="none" stroke="#FFFFFF" stroke-width="2" x1="103.468" y1="64.598" x2="113.934" y2="64.598"/>
		</g>
	</g>
	<g id="圖層_4" display="none">
		<g display="inline">
			<path fill="none" stroke="#FFFFFF" stroke-width="2" d="M94.896,41.961c-0.812,11.946-14.33,19.114-21.131,19.114l0,0
				c-8.922,0-19.146-8.256-20.877-19.114"/>
			<path fill="none" stroke="#FFFFFF" stroke-width="2" d="M52.882,43.04c-1.357-0.223-2.793-1.331-3.738-3.052
				c-1.417-2.59-1.186-5.584,0.521-6.694"/>
			<path fill="none" stroke="#FFFFFF" stroke-width="2" d="M94.371,43.044c1.361-0.223,2.58-1.34,3.521-3.062
				c1.418-2.59,1.186-5.584-0.517-6.694c-0.385-0.25-0.808-0.384-1.25-0.41"/>
			<g>
				<line fill="none" stroke="#FFFFFF" stroke-width="2" x1="65.767" y1="64.443" x2="66.074" y2="59.41"/>
				<line fill="none" stroke="#FFFFFF" stroke-width="2" x1="81.452" y1="59.38" x2="81.744" y2="64.4"/>
			</g>
			<path fill="none" stroke="#FFFFFF" stroke-width="2" d="M81.744,64.4c-2.549,7.588-7.021,7.705-7.979,7.705
				c-0.97,0-5.372,0.031-7.998-7.662"/>
			<path fill="none" stroke="#FFFFFF" stroke-width="2" d="M81.744,64.4c4.373,0.303,7.244,0.848,10.256,1.428
				c9.164,1.785,13.262,4.595,14.641,15.119c1.312,9.984,4.033,29.968,4.612,40.033l0,0h37.513"/>
			<path fill="none" stroke="#FFFFFF" stroke-width="2" d="M-1.235,120.98h37.514h0.009c0.578-10.065,3.238-30.063,4.625-40.033
				c1.345-9.705,5.344-13.532,14.639-15.119c2.973-0.502,5.885-1.057,10.238-1.385"/>
			<g>
				<line fill="none" stroke="#FFFFFF" stroke-width="2" x1="31.126" y1="62.322" x2="32.705" y2="62.322"/>
				<line fill="none" stroke="#FFFFFF" stroke-width="2" x1="34.283" y1="62.322" x2="44.749" y2="62.322"/>
			</g>
			<path fill="none" stroke="#FFFFFF" stroke-width="2" d="M47.894,35.488"/>
			<path fill="none" stroke="#FFFFFF" stroke-width="2" d="M99.352,37.704"/>
			<path fill="none" stroke="#FFFFFF" stroke-width="2" d="M49.246,27.825C49.598-0.552,82.439-2.333,93.085,12.678
				c3.327,4.689,4.2,13.304,3.837,19.083c-0.094,1.462-0.096,7.903-2.135,11.542c0.186-0.718-1.152-2-1.152-2
				s1.701-15.266-3.203-20.187c-10.094,5.9-23.623,6.636-33.982,0.028c-3.154,5.583-4.19,10.849-2.052,20.417
				c-0.662,1.158-0.639,1.08-0.75,2.128C49.676,40.214,49.206,31.051,49.246,27.825z"/>
			<path fill="none" stroke="#FFFFFF" stroke-width="2" d="M83.741,65.188c0,0,2.265,25.41-10.521,35.549
				c-13.351-11.178-9.199-35.5-9.199-35.5"/>
			<path fill="none" stroke="#FFFFFF" stroke-width="2" d="M73.22,72.326c0,0-6.925,2.17-9.142,9.57"/>
			<path fill="none" stroke="#FFFFFF" stroke-width="2" d="M73.326,72.326c0,0,7.332,2.072,9.551,9.475"/>
			<polyline fill="none" stroke="#FFFFFF" stroke-width="2" points="67.355,92.925 71.101,78.928 68.981,74.928 			"/>
			<polyline fill="none" stroke="#FFFFFF" stroke-width="2" points="77.457,74.928 75.338,78.928 79.455,92.646 			"/>
			<path fill="none" stroke="#FFFFFF" stroke-width="2" d="M58.831,64.953C57.763,66.666,55.339,75.994,56,80.9l4.812,1.132
				l-4.34,2.548c0,0,3.821,13.326,16.748,16.156"/>
			<path fill="none" stroke="#FFFFFF" stroke-width="2" d="M87.775,64.953c1.066,1.713,3.49,11.041,2.83,15.947l-4.813,1.132
				l4.341,2.548c0,0-3.82,13.326-16.748,16.156"/>
			<path fill="none" stroke="#FFFFFF" stroke-width="2" d="M133.282,102.771l-7.892-2.291l0.288-0.996
				c0.309-1.06,0.414-1.772,0.33-2.154c-0.094-0.379-0.434-0.652-1.032-0.826c-1.078-0.313-1.648,0.271-1.938,1.264
				c-0.272,0.943-0.218,1.672,0.175,2.193c0.371,0.514,1.579,1.66,3.616,3.43c1.743,1.5,2.903,2.605,3.491,3.303
				c1.479,1.765,1.648,4.031,1.025,6.179c-0.619,2.135-1.785,3.612-3.492,4.435c-1.707,0.821-3.953,0.987-6.752,0.487l-0.654,2.252
				l-3.637-1.055l0.678-2.33c-2.063-0.769-3.725-1.92-4.993-3.452c-1.265-1.529-1.508-3.626-0.731-6.299l0.34-1.169l7.891,2.291
				l-0.426,1.469c-0.467,1.608-0.672,2.635-0.625,3.072c0.047,0.436,0.391,0.75,1.012,0.93c1.072,0.313,1.748-0.098,2.057-1.157
				c0.391-1.343,0.543-2.341,0.463-2.988c-0.078-0.654-0.742-1.527-1.992-2.631c-1.631-1.449-4.354-3.636-5.299-5.65
				c-1.436-3.065-0.742-7.1,2.777-8.457c1.632-0.631,3.814-0.682,6.549-0.141l0.557-1.912l3.636,1.055l-0.556,1.914
				c3.603,1.428,6.793,3.832,5.543,8.135C133.617,101.915,133.482,102.283,133.282,102.771L133.282,102.771z"/>
			<path fill="none" stroke="#FFFFFF" stroke-width="2" d="M35.458,114.383v2.506c-0.003,0.4-0.324,0.723-0.723,0.726l-4.327-0.005
				c-0.398-0.002-0.72-0.322-0.721-0.721l0.002-2.504c-1.243-0.297-2.446-0.791-3.564-1.479l-1.774,1.774
				c-0.282,0.281-0.74,0.281-1.021,0.002l-3.061-3.061c-0.076-0.076-0.132-0.166-0.166-0.266c0.021-0.113,0.011-0.239-0.033-0.363
				c0.024-0.143,0.09-0.281,0.201-0.393l1.773-1.773c-0.689-1.119-1.181-2.32-1.478-3.563h-2.508c-0.396,0-0.718-0.322-0.721-0.722
				l-0.001-4.326c0.001-0.397,0.323-0.721,0.723-0.723l2.506-0.001c0.294-1.24,0.792-2.444,1.476-3.563l-1.772-1.772
				c-0.281-0.281-0.281-0.737,0-1.019l3.062-3.063c0.279-0.279,0.736-0.279,1.017,0.002l1.772,1.771
				c1.121-0.686,2.323-1.181,3.566-1.478l-0.001-2.504c-0.001-0.397,0.323-0.722,0.721-0.722h4.327
				c0.399,0.002,0.721,0.323,0.72,0.721l0.001,2.508c1.243,0.296,2.443,0.789,3.564,1.475 M38.377,98.598
				c-0.257-0.395-0.56-0.768-0.906-1.113c-2.706-2.707-7.09-2.707-9.793-0.002c-2.705,2.705-2.706,7.088,0,9.793
				c2.704,2.705,7.087,2.705,9.792-0.002"/>
			<path fill="none" stroke="#FFFFFF" stroke-width="2" d="M26.401,70.4l2.301,1.147c0.211,0.104,0.298,0.363,0.192,0.576
				l-0.665,1.332c0.598,0.502,1.103,1.088,1.504,1.731l1.411-0.474c0.224-0.073,0.467,0.046,0.542,0.271l0.816,2.44
				c0.074,0.226-0.047,0.468-0.271,0.541l-1.414,0.472c0.067,0.758,0.015,1.528-0.161,2.289l1.333,0.666
				c0.211,0.104,0.297,0.362,0.192,0.575l-1.149,2.302c-0.105,0.211-0.363,0.297-0.575,0.19l-1.332-0.666
				c-0.502,0.599-1.088,1.104-1.732,1.504l0.472,1.414c0.074,0.226-0.047,0.468-0.272,0.543l-2.44,0.813
				c-0.225,0.074-0.467-0.047-0.542-0.271l-0.47-1.413c-0.756,0.066-1.528,0.015-2.289-0.163l-0.666,1.334
				c-0.106,0.213-0.364,0.299-0.576,0.193L18.308,86.6c-0.058-0.029-0.106-0.069-0.143-0.119c-0.01-0.067-0.04-0.137-0.087-0.198
				c-0.013-0.084-0.002-0.177,0.04-0.261l0.666-1.332c-0.599-0.502-1.103-1.086-1.504-1.731l-1.414,0.474
				c-0.224,0.073-0.466-0.048-0.542-0.271l-0.815-2.438c-0.074-0.227,0.046-0.469,0.271-0.546l1.414-0.472
				c-0.068-0.755-0.014-1.528,0.16-2.288l-1.332-0.665c-0.211-0.105-0.297-0.363-0.191-0.575l1.15-2.302
				c0.104-0.21,0.362-0.296,0.574-0.189l1.332,0.664c0.503-0.599,1.088-1.103,1.733-1.505l-0.472-1.411
				c-0.076-0.226,0.046-0.468,0.27-0.541l2.44-0.816c0.225-0.072,0.468,0.047,0.542,0.271l0.472,1.413
				c0.756-0.067,1.526-0.016,2.288,0.16l0.665-1.332C25.931,70.379,26.189,70.294,26.401,70.4z M25.345,75.393
				c-2.035-1.016-4.507-0.19-5.521,1.842c-1.017,2.035-0.191,4.509,1.844,5.524c2.033,1.015,4.505,0.188,5.522-1.845
				C28.204,78.881,27.379,76.408,25.345,75.393z"/>
			<g>
				<g>
					<g>
						<path fill="none" stroke="#FFFFFF" stroke-width="2" d="M116.746,87.797c0.247-0.458,0.631-1.027,1.107-1.29
							c2.916-1.55,4.055-3.768,4.127-3.927c1.217-2.713,0.006-5.895-2.707-7.113c-2.713-1.217-5.896-0.006-7.112,2.707
							c-0.071,0.158-0.974,2.479-0.192,5.693c0.119,0.529-0.055,1.193-0.234,1.68"/>
						<line fill="none" stroke="#FFFFFF" stroke-width="2" x1="111.027" y1="85.301" x2="117.41" y2="88.166"/>
						<line fill="none" stroke="#FFFFFF" stroke-width="2" x1="111.051" y1="87.936" x2="115.225" y2="89.809"/>
						<line fill="none" stroke="#FFFFFF" stroke-width="2" x1="110.857" y1="90.494" x2="113.359" y2="91.616"/>
					</g>
				</g>
				<g>
					<line fill="none" stroke="#FFFFFF" stroke-width="2" x1="120.449" y1="72.848" x2="119.795" y2="74.305"/>
					<line fill="none" stroke="#FFFFFF" stroke-width="2" x1="108.895" y1="79.691" x2="110.35" y2="80.346"/>
					<line fill="none" stroke="#FFFFFF" stroke-width="2" x1="121.631" y1="85.41" x2="123.244" y2="86.135"/>
					<line fill="none" stroke="#FFFFFF" stroke-width="2" x1="124.006" y1="79.609" x2="125.658" y2="78.982"/>
					<line fill="none" stroke="#FFFFFF" stroke-width="2" x1="113.031" y1="74.686" x2="112.404" y2="73.034"/>
				</g>
			</g>
			<g>
				<line fill="none" stroke="#FFFFFF" stroke-width="2" x1="98.762" y1="66.232" x2="100.342" y2="66.232"/>
				<line fill="none" stroke="#FFFFFF" stroke-width="2" x1="101.919" y1="66.232" x2="112.378" y2="66.232"/>
			</g>
			<g>
				<line fill="none" stroke="#FFFFFF" stroke-width="2" x1="109.219" y1="61.116" x2="110.8" y2="61.116"/>
				<line fill="none" stroke="#FFFFFF" stroke-width="2" x1="112.377" y1="61.116" x2="122.836" y2="61.116"/>
			</g>
		</g>
		<path display="inline" fill="none" stroke="#FFFFFF" stroke-width="2" d="M67.58,44.109c0,0-4.731,4.732-8.201,4.417
			c-3.47-0.315,3.785,5.363,10.725,0c6.94-5.363,6.94,6.624,15.458,2.523c8.516-4.101-3.129-0.658-6.625-5.994
			C74.818,38.773,68.526,41.9,67.58,44.109z"/>
	</g>
	<g id="圖層_5" display="none">
		<g display="inline">
			<path fill="none" stroke="#FFFFFF" stroke-width="2" d="M95.563,37.709c-0.811,11.946-9.961,21.365-21.13,21.365l0,0
				c-10.455,0-19.146-8.256-20.878-19.114"/>
			<path fill="none" stroke="#FFFFFF" stroke-width="2" d="M82.119,57.38l0.292,5.021c4.373,0.304,7.244,0.849,10.256,1.429
				c9.164,1.785,13.262,4.595,14.642,15.119c1.311,9.985,4.032,29.968,4.611,40.032l0,0h37.514"/>
			<path fill="none" stroke="#FFFFFF" stroke-width="2" d="M-0.567,118.98h37.49h0.009c0.578-10.065,3.239-30.063,4.626-40.033
				c1.344-9.705,5.344-13.532,14.639-15.119c2.973-0.502,5.885-1.057,10.238-1.385l0.307-5.034"/>
			<g>
				<line fill="none" stroke="#FFFFFF" stroke-width="2" x1="32.735" y1="67.301" x2="34.314" y2="67.301"/>
				<line fill="none" stroke="#FFFFFF" stroke-width="2" x1="35.892" y1="67.301" x2="46.357" y2="67.301"/>
				<line fill="none" stroke="#FFFFFF" stroke-width="2" x1="25.345" y1="72.498" x2="26.926" y2="72.498"/>
				<line fill="none" stroke="#FFFFFF" stroke-width="2" x1="28.503" y1="72.498" x2="38.962" y2="72.498"/>
			</g>
			<path fill="none" stroke="#FFFFFF" stroke-width="2" stroke-miterlimit="8" d="M52.337,26.817
				c-1.048,12.108,5.58,18.897,5.58,18.897s0.221-9.926,10.918-21.287c-3.418,6.287-3.418,6.838-5.293,10.257
				c4.307-0.507,8.172-5.341,9.607-6.077c-0.621,1.497-0.889,4.979-0.889,4.979c2.664-1.049,8.582-8.65,8.582-8.65
				c-0.664,2.264-3.26,8.265-3.26,8.265c3.193-1.257,5.996-4.042,6.938-8.047c2.381,7.262,9.133,11.77,8.205,17.807
				c0,0,4.784-3.92,3.389-16.728"/>
			<path fill="none" stroke="#FFFFFF" stroke-width="2" stroke-miterlimit="8" d="M49.914,38.262
				c0.56,11.213,0.353,26.718-3.813,29.649"/>
			<path fill="none" stroke="#FFFFFF" stroke-width="2" stroke-miterlimit="8" d="M99.241,32.829
				c0.067-3.635,0.254-4.733,0.254-6.749c0-16.35-11.326-25.007-25.294-25.007c-13.97,0-25.144,9.04-25.294,25.007
				c-0.021,2.103,0.152,3.583,0.354,6.675"/>
			<path fill="none" stroke="#FFFFFF" stroke-width="2" stroke-miterlimit="8" d="M102.491,67.911
				c-2.832-5.75-3.214-21.374-3.16-31.774"/>
			<line fill="none" stroke="#FFFFFF" stroke-width="2" x1="109.095" y1="72.406" x2="110.676" y2="72.406"/>
			<line fill="none" stroke="#FFFFFF" stroke-width="2" x1="112.253" y1="72.406" x2="122.712" y2="72.406"/>
			<line fill="none" stroke="#FFFFFF" stroke-width="2" x1="116.54" y1="77.6" x2="118.117" y2="77.6"/>
			<line fill="none" stroke="#FFFFFF" stroke-width="2" x1="119.693" y1="77.6" x2="130.158" y2="77.6"/>
			<path fill="none" stroke="#FFFFFF" stroke-width="2" d="M53.55,41.04c-1.357-0.223-2.793-1.331-3.738-3.052
				c-1.417-2.59-1.186-5.584,0.521-6.694c0.433-0.283,0.919-0.417,1.431-0.415"/>
			<path fill="none" stroke="#FFFFFF" stroke-width="2" d="M95.038,41.049c1.36-0.223,2.58-1.34,3.521-3.062
				c1.418-2.59,1.187-5.584-0.516-6.694c-0.385-0.25-0.809-0.384-1.25-0.41"/>
			<path fill="none" stroke="#FFFFFF" stroke-width="2" d="M84.229,71.441c-3.17,5.274-8.729,5.354-9.919,5.354
				c-1.206,0-6.678,0.022-9.943-5.325"/>
			<path fill="none" stroke="#FFFFFF" stroke-width="2" d="M83.813,62.872c0,0,3.02,28.435-9.768,38.573
				C60.694,90.268,65.21,62.354,65.21,62.354"/>
			<path fill="none" stroke="#FFFFFF" stroke-width="2" d="M59.655,63.016c-1.066,1.711-3.49,11.039-2.83,15.945l4.813,1.133
				l-4.34,2.547c0,0,3.82,15.975,16.747,18.805"/>
			<path fill="none" stroke="#FFFFFF" stroke-width="2" d="M88.602,63.016c1.066,1.711,3.49,11.039,2.83,15.945l-4.813,1.133
				l4.341,2.547c0,0-3.821,15.975-16.749,18.805"/>
			<g>
				<path fill="none" stroke="#FFFFFF" stroke-width="2" d="M37.71,111.75l-15.678,4.896c-0.213,0.065-0.438-0.053-0.504-0.264
					L11.63,84.697c-0.066-0.213,0.053-0.439,0.265-0.506L35.243,76.9c0.213-0.068,0.438,0.051,0.505,0.261l4.175,13.362"/>
				<polyline fill="none" stroke="#FFFFFF" stroke-width="2" points="23.872,112.203 18.414,94.738 35.878,89.281 				"/>
				
					<rect x="22.902" y="77.369" transform="matrix(0.298 0.9546 -0.9546 0.298 100.4745 36.461)" fill="none" stroke="#FFFFFF" stroke-width="2" width="5.093" height="18.344"/>
				<polyline fill="none" stroke="#FFFFFF" stroke-width="2" points="37.806,107.85 23.872,112.203 18.414,94.738 35.878,89.281 
					38.935,99.064 				"/>
				<line fill="none" stroke="#FFFFFF" stroke-width="2" x1="27.188" y1="91.998" x2="32.616" y2="109.377"/>
				<line fill="none" stroke="#FFFFFF" stroke-width="2" x1="38.594" y1="97.973" x2="21.212" y2="103.4"/>
				<line fill="none" stroke="#FFFFFF" stroke-width="2" x1="26.308" y1="97.105" x2="21.796" y2="98.516"/>
				<line fill="none" stroke="#FFFFFF" stroke-width="2" x1="24.755" y1="100.066" x2="23.345" y2="95.552"/>
				<line fill="none" stroke="#FFFFFF" stroke-width="2" x1="35.222" y1="94.32" x2="30.708" y2="95.729"/>
				<line fill="none" stroke="#FFFFFF" stroke-width="2" x1="28.894" y1="107.709" x2="24.705" y2="105.514"/>
				<line fill="none" stroke="#FFFFFF" stroke-width="2" x1="25.704" y1="108.707" x2="27.896" y2="104.518"/>
				<line fill="none" stroke="#FFFFFF" stroke-width="2" x1="38.288" y1="104.139" x2="33.774" y2="105.548"/>
				<line fill="none" stroke="#FFFFFF" stroke-width="2" x1="37.653" y1="102.107" x2="33.14" y2="103.516"/>
			</g>
			<g>
				
					<rect x="112.277" y="99.452" transform="matrix(-0.2667 0.9638 -0.9638 -0.2667 248.6205 12.9588)" fill="none" stroke="#FFFFFF" stroke-width="2" width="14.207" height="3.219"/>
				
					<rect x="117.187" y="99.133" transform="matrix(-0.2667 0.9638 -0.9638 -0.2667 257.3263 5.7016)" fill="none" stroke="#FFFFFF" stroke-width="2" width="18.614" height="3.218"/>
				
					<rect x="127.155" y="105.461" transform="matrix(-0.2667 0.9638 -0.9638 -0.2667 270.1134 8.6121)" fill="none" stroke="#FFFFFF" stroke-width="2" width="9.251" height="3.218"/>
				
					<rect x="132.462" y="105.662" transform="matrix(-0.2667 0.9638 -0.9638 -0.2667 279.1275 2.1595)" fill="none" stroke="#FFFFFF" stroke-width="2" width="12.561" height="3.22"/>
				<polyline fill="none" stroke="#FFFFFF" stroke-width="2" points="118.686,80.559 111.568,106.273 141.898,114.668 				"/>
				<circle fill="none" stroke="#FFFFFF" stroke-width="2" cx="122.482" cy="89.854" r="0.684"/>
				<circle fill="none" stroke="#FFFFFF" stroke-width="2" cx="130.717" cy="85.495" r="0.685"/>
				<circle fill="none" stroke="#FFFFFF" stroke-width="2" cx="134.375" cy="97.104" r="0.684"/>
				<circle fill="none" stroke="#FFFFFF" stroke-width="2" cx="142.477" cy="94.072" r="0.684"/>
				<polyline fill="none" stroke="#FFFFFF" stroke-width="2" points="122.482,89.854 131.029,85.581 134.376,97.104 142.477,94.072 
									"/>
			</g>
		</g>
	</g>
	<path fill="none" stroke="#FFFFFF" stroke-width="2" stroke-miterlimit="8" d="M63.66,5.458
		C56.418,8.834,51.466,16.029,51.466,26.37c0,10.423,1.75,12.225,1.75,12.225s9.648-6.349,16.36-18.872"/>
	<path fill="none" stroke="#FFFFFF" stroke-width="2" d="M95.304,36.709c-0.812,11.946-9.961,21.365-21.133,21.365l0,0
		c-10.455,0-19.146-8.255-20.877-19.114"/>
	<path fill="none" stroke="#FFFFFF" stroke-width="2" d="M53.288,40.04c-1.357-0.223-2.793-1.331-3.738-3.052
		c-1.416-2.59-1.186-5.584,0.521-6.694c0.433-0.284,0.919-0.417,1.431-0.416"/>
	<path fill="none" stroke="#FFFFFF" stroke-width="2" d="M94.777,40.049c1.359-0.223,2.58-1.34,3.521-3.062
		c1.417-2.59,1.187-5.584-0.517-6.694c-0.383-0.25-0.807-0.384-1.25-0.41"/>
	<g>
		<line fill="none" stroke="#FFFFFF" stroke-width="2" x1="66.173" y1="61.443" x2="66.48" y2="56.41"/>
		<line fill="none" stroke="#FFFFFF" stroke-width="2" x1="81.857" y1="56.38" x2="82.148" y2="61.401"/>
	</g>
	<path fill="none" stroke="#FFFFFF" stroke-width="2" d="M82.286,61.401c-2.549,7.587-7.02,7.705-7.979,7.705
		c-0.969,0-5.371,0.033-7.998-7.663"/>
	<g>
		<path fill="none" stroke="#FFFFFF" stroke-width="2" d="M74.299,69.105c0,0-6.796,2.438-9.013,9.84c0,0-7.049-5.344-1.824-17.103"
			/>
		<path fill="none" stroke="#FFFFFF" stroke-width="2" d="M74.299,69.105c0,0,6.796,2.438,9.014,9.84c0,0,7.049-5.344,1.821-17.103"
			/>
	</g>
	<path fill="none" stroke="#FFFFFF" stroke-width="2" d="M82.148,61.401c4.375,0.302,7.246,0.847,10.259,1.427
		c9.164,1.785,13.26,4.595,14.639,15.119c1.312,9.984,4.035,29.968,4.613,40.033l0,0h37.512"/>
	<path fill="none" stroke="#FFFFFF" stroke-width="2" d="M-0.829,117.98h37.492h0.008c0.578-10.065,3.238-30.063,4.625-40.033
		c1.346-9.704,5.346-13.532,14.64-15.119c2.973-0.502,5.886-1.057,10.237-1.385"/>
	<line fill="none" stroke="#FFFFFF" stroke-width="2" x1="27.78" y1="70.48" x2="29.358" y2="70.48"/>
	<line fill="none" stroke="#FFFFFF" stroke-width="2" x1="30.936" y1="70.48" x2="41.401" y2="70.48"/>
	<line fill="none" stroke="#FFFFFF" stroke-width="2" x1="20.389" y1="75.677" x2="21.97" y2="75.677"/>
	<line fill="none" stroke="#FFFFFF" stroke-width="2" x1="23.547" y1="75.677" x2="34.007" y2="75.677"/>
	<line fill="none" stroke="#FFFFFF" stroke-width="2" x1="93.275" y1="59.404" x2="94.855" y2="59.404"/>
	<line fill="none" stroke="#FFFFFF" stroke-width="2" x1="96.434" y1="59.404" x2="106.893" y2="59.404"/>
	<line fill="none" stroke="#FFFFFF" stroke-width="2" x1="100.721" y1="64.598" x2="102.298" y2="64.598"/>
	<line fill="none" stroke="#FFFFFF" stroke-width="2" x1="103.874" y1="64.598" x2="114.339" y2="64.598"/>
	<path fill="none" stroke="#FFFFFF" stroke-width="2" stroke-miterlimit="8" d="M94.943,36.884
		C69.025,34.016,63.511,3.933,63.511,3.933s2.688-0.331,4.963-0.055c0,0,3.619-0.603,5.484-0.603
		c12.42,0,22.492,7.996,22.492,23.096c0,7.978-1.148,11.412-1.148,11.412"/>
	<polyline fill="none" stroke="#FFFFFF" stroke-width="2" stroke-miterlimit="10" points="76.707,70.229 76.707,98.527 
		71.89,98.527 71.89,70.229 	"/>
	<g>
		<path fill="none" stroke="#FFFFFF" stroke-width="2" d="M111.303,105.681"/>
		<path fill="none" stroke="#FFFFFF" stroke-width="2" d="M108.009,76.817l26.681,8.189c0.823,0.254,1.324,1.004,1.118,1.677
			l-7.067,23.02c-0.205,0.671-1.041,1.011-1.865,0.759l-15.572-4.781"/>
		<line fill="none" stroke="#FFFFFF" stroke-width="2" stroke-linecap="round" x1="127.34" y1="85.607" x2="129.109" y2="79.843"/>
		<line fill="none" stroke="#FFFFFF" stroke-width="2" stroke-linecap="round" x1="113.392" y1="81.325" x2="115.162" y2="75.562"/>
		<line fill="none" stroke="#FFFFFF" stroke-width="2" x1="108.342" y1="83.433" x2="134.068" y2="91.333"/>
		<line fill="none" stroke="#FFFFFF" stroke-width="2" x1="125.816" y1="92.847" x2="124.252" y2="92.366"/>
		<line fill="none" stroke="#FFFFFF" stroke-width="2" x1="121.582" y1="91.546" x2="120.017" y2="91.065"/>
		<line fill="none" stroke="#FFFFFF" stroke-width="2" x1="117.347" y1="90.247" x2="115.785" y2="89.767"/>
		<line fill="none" stroke="#FFFFFF" stroke-width="2" x1="113.113" y1="88.946" x2="111.551" y2="88.466"/>
		<line fill="none" stroke="#FFFFFF" stroke-width="2" x1="112.013" y1="92.528" x2="110.451" y2="92.048"/>
		<line fill="none" stroke="#FFFFFF" stroke-width="2" x1="110.914" y1="96.11" x2="109.943" y2="95.812"/>
		<line fill="none" stroke="#FFFFFF" stroke-width="2" x1="116.248" y1="93.828" x2="114.685" y2="93.349"/>
		<line fill="none" stroke="#FFFFFF" stroke-width="2" x1="115.148" y1="97.409" x2="113.586" y2="96.929"/>
		<line fill="none" stroke="#FFFFFF" stroke-width="2" x1="114.05" y1="100.99" x2="112.486" y2="100.511"/>
		<line fill="none" stroke="#FFFFFF" stroke-width="2" x1="120.482" y1="95.128" x2="118.918" y2="94.647"/>
		<line fill="none" stroke="#FFFFFF" stroke-width="2" x1="119.383" y1="98.71" x2="117.818" y2="98.229"/>
		<line fill="none" stroke="#FFFFFF" stroke-width="2" x1="118.283" y1="102.29" x2="116.719" y2="101.81"/>
		<line fill="none" stroke="#FFFFFF" stroke-width="2" x1="124.716" y1="96.427" x2="123.152" y2="95.947"/>
		<line fill="none" stroke="#FFFFFF" stroke-width="2" x1="123.617" y1="100.009" x2="122.053" y2="99.529"/>
		<line fill="none" stroke="#FFFFFF" stroke-width="2" x1="122.517" y1="103.589" x2="120.953" y2="103.11"/>
		<line fill="none" stroke="#FFFFFF" stroke-width="2" x1="128.625" y1="97.628" x2="127.06" y2="97.147"/>
		<line fill="none" stroke="#FFFFFF" stroke-width="2" x1="127.525" y1="101.21" x2="125.961" y2="100.729"/>
		<line fill="none" stroke="#FFFFFF" stroke-width="2" x1="126.426" y1="104.79" x2="124.861" y2="104.31"/>
	</g>
	<g>
		
			<line fill="none" stroke="#FFFFFF" stroke-width="2" stroke-miterlimit="10" x1="138.136" y1="106.688" x2="138.136" y2="108.654"/>
		
			<line fill="none" stroke="#FFFFFF" stroke-width="2" stroke-miterlimit="10" x1="134.56" y1="108.916" x2="136.263" y2="109.898"/>
		
			<line fill="none" stroke="#FFFFFF" stroke-width="2" stroke-miterlimit="10" x1="134.699" y1="113.129" x2="136.402" y2="112.145"/>
		
			<line fill="none" stroke="#FFFFFF" stroke-width="2" stroke-miterlimit="10" x1="138.417" y1="115.111" x2="138.417" y2="113.146"/>
		<line fill="none" stroke="#FFFFFF" stroke-width="2" stroke-miterlimit="10" x1="141.994" y1="112.884" x2="140.293" y2="111.9"/>
		
			<line fill="none" stroke="#FFFFFF" stroke-width="2" stroke-miterlimit="10" x1="141.853" y1="108.672" x2="140.149" y2="109.655"/>
	</g>
	<path fill="none" stroke="#FFFFFF" stroke-width="2" stroke-linecap="round" stroke-linejoin="round" stroke-miterlimit="8" d="
		M50.912,38.781c0,0-1.582,14.767,1.055,15.294c2.637,0.527,4.483-3.691,7.911-1.318"/>
	<path fill="none" stroke="#FFFFFF" stroke-width="2" stroke-linecap="round" stroke-linejoin="round" stroke-miterlimit="8" d="
		M97.867,38.158c0,0,1.582,14.767-1.055,15.294c-2.638,0.527-4.483-3.691-7.912-1.318"/>
	<g>
		<path fill="none" stroke="#FFFFFF" stroke-width="2" d="M37.128,112.118l-15.678,4.896c-0.214,0.065-0.438-0.053-0.505-0.264
			l-9.897-31.686c-0.065-0.213,0.054-0.439,0.265-0.506l23.349-7.291c0.213-0.068,0.438,0.051,0.505,0.261l4.175,13.362"/>
		<polyline fill="none" stroke="#FFFFFF" stroke-width="2" points="23.29,112.571 17.832,95.106 35.296,89.649 		"/>
		
			<rect x="22.32" y="77.737" transform="matrix(0.298 0.9546 -0.9546 0.298 100.4175 37.2749)" fill="none" stroke="#FFFFFF" stroke-width="2" width="5.093" height="18.345"/>
		<polyline fill="none" stroke="#FFFFFF" stroke-width="2" points="37.225,108.218 23.29,112.571 17.832,95.106 35.296,89.649 
			38.354,99.433 		"/>
		<line fill="none" stroke="#FFFFFF" stroke-width="2" x1="26.605" y1="92.366" x2="32.034" y2="109.745"/>
		<line fill="none" stroke="#FFFFFF" stroke-width="2" x1="38.012" y1="98.341" x2="20.63" y2="103.769"/>
		<line fill="none" stroke="#FFFFFF" stroke-width="2" x1="25.727" y1="97.474" x2="21.214" y2="98.884"/>
		<line fill="none" stroke="#FFFFFF" stroke-width="2" x1="24.173" y1="100.435" x2="22.763" y2="95.92"/>
		<line fill="none" stroke="#FFFFFF" stroke-width="2" x1="34.641" y1="94.688" x2="30.126" y2="96.097"/>
		<line fill="none" stroke="#FFFFFF" stroke-width="2" x1="28.313" y1="108.077" x2="24.123" y2="105.882"/>
		<line fill="none" stroke="#FFFFFF" stroke-width="2" x1="25.122" y1="109.075" x2="27.314" y2="104.886"/>
		<line fill="none" stroke="#FFFFFF" stroke-width="2" x1="37.706" y1="104.507" x2="33.191" y2="105.916"/>
		<line fill="none" stroke="#FFFFFF" stroke-width="2" x1="37.07" y1="102.476" x2="32.559" y2="103.884"/>
	</g>
</g>
</svg>
