<svg id="b9d257bc-5733-42c7-affa-bab24f8a719a" data-name="圖層 1"
	xmlns="http://www.w3.org/2000/svg" xmlns:xlink="http://www.w3.org/1999/xlink" viewBox="0 0 1180 522.18">
	<g id="a623d61e-c68c-451e-be83-7c27bb4f4904" data-name="g6">
		<polygon points="998.69 86.44 1027.88 124.92 999.02 168.21 1136.12 168.21 1136.12 184.44 1180 126.72 1136.77 70.81 1136.77 87.64 998.69 86.44" style="fill:#414141"/>
		<text transform="translate(1036.56 119.62)" style="font-size:21.438129425048828px;fill:#fff;font-family:MicrosoftJhengHeiBold, Microsoft JhengHei">
			<tspan style="letter-spacing:-0.0010030297899299393em">1</tspan>
			<tspan x="12.75" y="0">0</tspan>
		</text>
		<text transform="translate(1062.03 119.62)" style="font-size:21.438129425048828px;fill:#fff;font-family:MicrosoftJhengHeiBold, Microsoft JhengHei">月</text>
		<text transform="translate(1083.45 119.62)" style="font-size:21.438129425048828px;fill:#fff;font-family:MicrosoftJhengHeiBold, Microsoft JhengHei">-</text>
		<text transform="translate(1092.74 119.62)" style="font-size:21.438129425048828px;fill:#fff;font-family:MicrosoftJhengHeiBold, Microsoft JhengHei">華山展</text>
		<text transform="translate(1047.62 150.22)" style="font-size:21.438129425048828px;fill:#fff;font-family:MicrosoftJhengHeiBold, Microsoft JhengHei">活動特展</text>
		<text transform="translate(1036.62 74.63)" style="font-size:21.438129425048828px;font-family:MicrosoftJhengHeiBold, Microsoft JhengHei">活動聚客</text>
	</g>
	<g id="a04025cf-d4ba-4b1c-93ee-fa55565d0dc0" data-name="g5">
		<polygon points="849.92 86.44 877.57 124.92 846.31 168.21 977.98 168.21 977.98 184.44 1018.87 126.72 978.58 70.81 978.01 85.84 849.92 86.44" style="fill:#ff3737"/>
		<text transform="translate(881.84 119.69)" style="font-size:21.438129425048828px;fill:#fff;font-family:MicrosoftJhengHeiBold, Microsoft JhengHei">9</text>
		<text transform="translate(894.58 119.69)" style="font-size:21.438129425048828px;fill:#fff;font-family:MicrosoftJhengHeiBold, Microsoft JhengHei">月</text>
		<text transform="translate(916 119.69)" style="font-size:21.438129425048828px;fill:#fff;font-family:MicrosoftJhengHeiBold, Microsoft JhengHei">-</text>
		<text transform="translate(925.27 119.69)" style="font-size:21.438129425048828px;fill:#fff;font-family:MicrosoftJhengHeiBold, Microsoft JhengHei">小吃貨</text>
		<text transform="translate(892.85 150.3)" style="font-size:21.438129425048828px;fill:#fff;font-family:MicrosoftJhengHeiBold, Microsoft JhengHei">引流門店</text>
		<text transform="translate(878.28 74.63)" style="font-size:21.438129425048828px;font-family:MicrosoftJhengHeiBold, Microsoft JhengHei">刺激引流</text>
	</g>
	<g id="a9655de2-f0ff-4e85-a19a-b38e263b4b23" data-name="g4">
		<polygon points="688.45 86.44 717.64 124.92 688.78 168.21 825.88 168.21 825.88 184.44 869.76 126.72 826.53 70.81 826.53 87.64 688.45 86.44" style="fill:#414141"/>
		<text transform="translate(719.04 119.62)" style="font-size:21.438129425048828px;fill:#fff;font-family:MicrosoftJhengHeiBold, Microsoft JhengHei">8</text>
		<text transform="translate(731.76 119.62)" style="font-size:21.438129425048828px;fill:#fff;font-family:MicrosoftJhengHeiBold, Microsoft JhengHei">月</text>
		<text transform="translate(753.18 119.62)" style="font-size:21.438129425048828px;fill:#fff;font-family:MicrosoftJhengHeiBold, Microsoft JhengHei">-</text>
		<text transform="translate(762.47 119.62)" style="font-size:21.438129425048828px;fill:#fff;font-family:MicrosoftJhengHeiBold, Microsoft JhengHei">父親節</text>
		<text transform="translate(730.04 150.22)" style="font-size:21.438129425048828px;fill:#fff;font-family:MicrosoftJhengHeiBold, Microsoft JhengHei">限時搶購</text>
		<text transform="translate(719.93 74.63)" style="font-size:21.438129425048828px;font-family:MicrosoftJhengHeiBold, Microsoft JhengHei">促銷搶購</text>
	</g>
	<g id="b273cd50-eeeb-4528-bde4-c747d90d23ac" data-name="g3">
		<polygon points="539.67 86.44 567.33 124.92 536.07 168.21 667.74 168.21 667.74 184.44 708.62 126.72 668.34 70.81 667.76 85.84 539.67 86.44" style="fill:#ff3737"/>
		<text transform="translate(570.99 119.62)" style="font-size:21.438129425048828px;fill:#fff;font-family:MicrosoftJhengHeiBold, Microsoft JhengHei">7</text>
		<text transform="translate(583.72 119.62)" style="font-size:21.438129425048828px;fill:#fff;font-family:MicrosoftJhengHeiBold, Microsoft JhengHei">月</text>
		<text transform="translate(605.15 119.62)" style="font-size:21.438129425048828px;fill:#fff;font-family:MicrosoftJhengHeiBold, Microsoft JhengHei">-</text>
		<text transform="translate(614.42 119.62)" style="font-size:21.438129425048828px;fill:#fff;font-family:MicrosoftJhengHeiBold, Microsoft JhengHei">入會禮</text>
		<text transform="translate(582 150.22)" style="font-size:21.438129425048828px;fill:#fff;font-family:MicrosoftJhengHeiBold, Microsoft JhengHei">吸引會員</text>
		<text transform="translate(561.59 74.63)" style="font-size:21.438129425048828px;font-family:MicrosoftJhengHeiBold, Microsoft JhengHei">會員拓展</text>
	</g>
	<g id="e7fe4fca-bebe-458a-a82e-2bf714b2d6f0" data-name="g2">
		<rect x="68.72" y="83.12" width="455.68" height="84.22" style="fill:#f5c201"/>
		<polygon points="521.03 70.81 521.03 176.02 560.72 124.92 521.03 70.81" style="fill:#f5c201;fill-rule:evenodd"/>
		<text transform="translate(184.43 130.81)" style="font-size:28.55918312072754px;font-family:MicrosoftJhengHeiBold, Microsoft JhengHei;letter-spacing:-0.006998832028582722em">鼎
			<tspan x="28.36" y="0" style="letter-spacing:0.00001711205874959101em">新</tspan>
		</text>
		<text transform="translate(214.19 128.43)" style="font-size:38.40998458862305px;font-family:MicrosoftJhengHeiBold, Microsoft JhengHei"></text>
		<text transform="translate(243.93 130.81)" style="font-size:28.55918312072754px;font-family:MicrosoftJhengHeiBold, Microsoft JhengHei;letter-spacing:-0.006998832028582722em">新零售雲中
			<tspan x="141.8" y="0" style="letter-spacing:0.00001711205874959101em">台</tspan>
		</text>
	</g>
	<g id="a3f7c61f-5499-4a83-9556-76317d8d6159" data-name="g1">
		<image width="381" height="811" transform="translate(603.31 189.67) scale(0.37 0.37)" xlink:href="images/case1/svg/section6/section61.png"/>
		<image width="381" height="811" transform="translate(775.56 189.67) scale(0.37 0.37)" xlink:href="images/case1/svg/section6/section62.png"/>
		<image width="381" height="811" transform="translate(947.81 189.67) scale(0.37 0.37)" xlink:href="images/case1/svg/section6/section63.png"/>
		<image width="239" height="468" transform="translate(618.19 232.97) scale(0.48 0.48)" xlink:href="images/case1/svg/section6/section64.png"/>
		<image width="248" height="464" transform="translate(789.84 235.06) scale(0.48 0.48)" xlink:href="images/case1/svg/section6/section65.png"/>
		<image width="239" height="468" transform="translate(962.98 231.79) scale(0.48 0.48)" xlink:href="images/case1/svg/section6/section66.png"/>
		<image width="1023" height="618" transform="translate(0 130.71) scale(0.59 0.63)" xlink:href="images/case1/svg/section6/section67.png"/>
		<image width="1253" height="776" transform="translate(83.59 165.7) scale(0.35 0.38)" xlink:href="images/case1/svg/section6/section68.png"/>
	</g>
	<g id="a215db0a-067b-4ff4-a43e-806e84ab28ef" data-name="g1">
		<path d="M-63.4,156.91a6.42,6.42,0,0,1,7.14-6.25H156.15a5.67,5.67,0,0,1,6.24,6.25v25.91a6.67,6.67,0,0,1-6.24,7.14H-56.26a7.49,7.49,0,0,1-7.14-7.14V156.91Z" transform="translate(291.88 -149.47)" style="fill:#526db0;fill-rule:evenodd"/>
		<path d="M-63.22,156.85a6.56,6.56,0,0,1,6.55-6.56H156.15a6.56,6.56,0,0,1,6.55,6.56v26.22a6.55,6.55,0,0,1-6.55,6.55H-56.67a6.55,6.55,0,0,1-6.55-6.55V156.85Z" transform="translate(291.88 -149.47)" style="fill:#00b3b1"/>
		<path d="M-37,161.18l.37.52a27.84,27.84,0,0,0-5,5.19,35.79,35.79,0,0,0-4.19,6.56l-.77.52a15.39,15.39,0,0,0-1.31,1c-.09-.33-.29-.86-.59-1.61l-.3-.68A10.1,10.1,0,0,0-50,170.5a2.7,2.7,0,0,0-1.21-.93,3.09,3.09,0,0,1,2.07-1.19c.54,0,1.13.73,1.79,2.19l.32.73a30.45,30.45,0,0,1,4.54-5.8A25.34,25.34,0,0,1-37,161.18Z" transform="translate(291.88 -149.47)" style="fill:#fff"/>
		<text transform="translate(265.91 28.12)" style="font-size:21.438129425048828px;fill:#fff;font-family:MicrosoftJhengHeiBold, Microsoft JhengHei">促銷預購增加銷量</text>
		<path d="M217.73,156.91a5.83,5.83,0,0,1,6.24-6.25H437.28a5.59,5.59,0,0,1,6.24,6.25v25.91c.4,3.87-2.53,6.8-6.24,7.14H224a6.91,6.91,0,0,1-6.24-7.14V156.91Z" transform="translate(291.88 -149.47)" style="fill:#526db0;fill-rule:evenodd"/>
		<path d="M217.59,156.85a6.56,6.56,0,0,1,6.55-6.56H437.37a6.56,6.56,0,0,1,6.55,6.56v26.22a6.55,6.55,0,0,1-6.55,6.55H224.14a6.55,6.55,0,0,1-6.55-6.55V156.85Z" transform="translate(291.88 -149.47)" style="fill:#00b3b1"/>
		<path d="M243.76,161.18l.37.52a28.5,28.5,0,0,0-5,5.19,35.17,35.17,0,0,0-4.18,6.56l-.78.52a14.77,14.77,0,0,0-1.3,1,15.86,15.86,0,0,0-.6-1.61l-.29-.68a10.52,10.52,0,0,0-1.17-2.17,2.7,2.7,0,0,0-1.21-.93,3.13,3.13,0,0,1,2.07-1.19c.54,0,1.14.73,1.79,2.19l.33.73a30.06,30.06,0,0,1,4.54-5.8A25.06,25.06,0,0,1,243.76,161.18Z" transform="translate(291.88 -149.47)" style="fill:#fff"/>
		<text transform="translate(546.73 28.12)" style="font-size:21.438129425048828px;fill:#fff;font-family:MicrosoftJhengHeiBold, Microsoft JhengHei">引流</text>
		<text transform="translate(589.56 28.12)" style="font-size:21.438129425048828px;fill:#fff;font-family:MicrosoftJhengHeiBold, Microsoft JhengHei">來</text>
		<text transform="translate(610.99 28.12)" style="font-size:21.438129425048828px;fill:#fff;font-family:MicrosoftJhengHeiBold, Microsoft JhengHei">店刺激消費</text>
		<path d="M507.78,156.91c.27-4.26,3.44-7.44,7.14-7.14H727.33a6.51,6.51,0,0,1,7.14,7.14v27.7a6.53,6.53,0,0,1-7.14,7.14H514.92c-3.7.28-6.87-2.9-7.14-7.14v-27.7Z" transform="translate(291.88 -149.47)" style="fill:#00b3b1;fill-rule:evenodd"/>
		<path d="M508.05,156.56a7.09,7.09,0,0,1,7.08-7.09H727.65a7.09,7.09,0,0,1,7.08,7.09v28.37a7.09,7.09,0,0,1-7.08,7.1H515.13a7.09,7.09,0,0,1-7.08-7.1V156.56Z" transform="translate(291.88 -149.47)" style="fill:#00b3b1"/>
		<path d="M534.38,160.51l.36.52a28.84,28.84,0,0,0-5,5.19,36,36,0,0,0-4.18,6.56l-.77.52a13.87,13.87,0,0,0-1.31,1,16.82,16.82,0,0,0-.6-1.61l-.29-.68a10.52,10.52,0,0,0-1.17-2.17,2.73,2.73,0,0,0-1.2-.93,3.09,3.09,0,0,1,2.07-1.19c.53,0,1.13.73,1.78,2.19l.33.73a30.45,30.45,0,0,1,4.54-5.8A25.1,25.1,0,0,1,534.38,160.51Z" transform="translate(291.88 -149.47)" style="fill:#fff"/>
		<text transform="translate(837.34 27.45)" style="font-size:21.438129425048828px;fill:#fff;font-family:MicrosoftJhengHeiBold, Microsoft JhengHei">活動發電子</text>
		<text transform="translate(944.43 27.45)" style="font-size:21.438129425048828px;fill:#fff;font-family:MicrosoftJhengHeiBold, Microsoft JhengHei">入場</text>
		<text transform="translate(987.27 27.45)" style="font-size:21.438129425048828px;fill:#fff;font-family:MicrosoftJhengHeiBold, Microsoft JhengHei">券</text>
	</g>
</svg>