<?xml version="1.0" encoding="utf-8"?>
<!-- Generator: Adobe Illustrator 13.0.1, SVG Export Plug-In . SVG Version: 6.00 Build 14948)  -->
<!DOCTYPE svg PUBLIC "-//W3C//DTD SVG 1.0//EN" "http://www.w3.org/TR/2001/REC-SVG-20010904/DTD/svg10.dtd">
<svg version="1.0" xmlns="http://www.w3.org/2000/svg" xmlns:xlink="http://www.w3.org/1999/xlink" x="0px" y="0px" width="120px"
	 height="120px" viewBox="0 0 120 120" enable-background="new 0 0 120 120" xml:space="preserve">
<g id="圖層_2_1_" display="none">
	<circle display="inline" fill="#231F20" cx="59.5" cy="59.5" r="60"/>
</g>
<g id="圖層_1">
	<g id="圖層_2" display="none">
		<circle display="inline" stroke="#FFFFFF" cx="60.416" cy="60.416" r="61.059"/>
	</g>
	<g id="圖層_3" display="none">
		<g display="inline">
			<path fill="#FFFFFF" d="M87.85,48.772c-7.179,0.002-12.998,5.819-13,13.001c0.002,7.178,5.819,12.998,13,13
				c7.18-0.002,13-5.822,13.002-13C100.85,54.592,95.027,48.774,87.85,48.772z M87.85,72.771c-6.074-0.01-10.988-4.924-11-10.998
				c0.012-6.078,4.926-10.989,11-11.002c6.075,0.013,10.988,4.926,11,11.002C98.838,67.848,93.922,72.762,87.85,72.771z
				 M94.741,44.469l-0.003-8.824c0-3.829-3.102-6.933-6.932-6.933H27.001c-3.828,0-6.932,3.104-6.932,6.933v42.02
				c0,3.825,3.104,6.931,6.932,6.931h21.49c0.006,0.61,0.016,1.25,0.016,1.881c0.002,0.992-0.037,1.946-0.146,2.487
				c-0.134,0.707-0.257,0.959-0.277,0.97c0.002,0.012-0.071,0.078-0.509,0.313c-0.281,0.157-0.781,0.392-1.273,0.608h-1.997v1.998
				h2.324l0.016,0.037c0.027-0.013,0.057-0.022,0.085-0.037h21.25c0.035,0.017,0.069,0.031,0.104,0.047l0.021-0.047h2.401v-1.998
				H68.4c-0.489-0.219-0.987-0.453-1.276-0.61c-0.425-0.229-0.456-0.279-0.456-0.281c-0.018-0.008-0.141-0.282-0.273-1
				c-0.109-0.543-0.149-1.489-0.146-2.476c-0.002-0.633,0.009-1.276,0.017-1.893H82.85v11.428h10V79.709
				c7.86-2.188,13.637-9.379,13.637-17.938C106.486,53.916,101.618,47.21,94.741,44.469z M22.069,35.645
				c0.004-2.724,2.209-4.929,4.932-4.933h60.806c2.727,0.004,4.928,2.209,4.936,4.933v8.163c-0.699-0.189-1.413-0.337-2.145-0.445
				l-7.92-5.471l-0.025,0.039c-0.133-2.09-1.853-3.746-3.975-3.748c-2.21,0.002-3.998,1.79-4,4c0,0.434,0.088,0.844,0.215,1.235
				l-12.098,7.009c-0.615-0.386-1.338-0.619-2.117-0.619c-2.21,0.002-4,1.791-4,4.001c0,0.682,0.188,1.314,0.488,1.877l-0.079-0.078
				l-5.242,5.363c-0.708-0.639-1.637-1.037-2.666-1.039c-1.098,0.002-2.09,0.445-2.813,1.16l-5.324-5.219
				c0.241-0.516,0.387-1.084,0.387-1.689c-0.002-2.211-1.791-4-4-4.002c-2.211,0.002-4,1.791-4,4.002
				c0,0.945,0.342,1.801,0.89,2.486L26.25,63.588l1.607,1.189L35.91,53.88c0.468,0.192,0.979,0.303,1.518,0.304
				c0.874,0,1.677-0.289,2.335-0.765l5.571,5.464c-0.092,0.337-0.156,0.684-0.157,1.05c0,2.209,1.792,3.999,4.001,4
				c2.209-0.002,3.998-1.791,3.998-4c0-0.498-0.102-0.97-0.268-1.409l0.109,0.107l5.401-5.524c0.644,0.44,1.42,0.701,2.258,0.702
				c2.209-0.002,4-1.791,4.002-4h-0.002c0-0.683-0.188-1.315-0.488-1.878l11.775-6.824c0.715,0.662,1.663,1.076,2.713,1.076
				c1.551,0,2.879-0.889,3.543-2.178l4.61,3.185c-9.815,0.532-17.615,8.635-17.615,18.582c0,3.748,1.106,7.234,3.015,10.152h-50.16
				V35.645z M80.678,38.183c-0.003,1.105-0.896,1.998-2,2c-1.104-0.002-1.998-0.895-2-2c0.002-1.104,0.897-1.998,2-2
				C79.779,36.185,80.675,37.079,80.678,38.183z M62.678,49.809c-0.002,1.104-0.896,1.997-2,1.999c-1.104-0.002-1.998-0.896-2-1.999
				c0.002-1.104,0.896-1.998,2-2C61.779,47.811,62.676,48.704,62.678,49.809z M51.177,59.933c-0.002,1.104-0.896,1.997-1.999,1.999
				c-1.104-0.002-1.999-0.895-2.001-1.999c0.002-1.103,0.896-1.997,2.001-2.001C50.28,57.936,51.175,58.83,51.177,59.933z
				 M39.427,50.184c-0.002,1.104-0.896,1.997-1.999,1.999c-1.105-0.002-1.999-0.896-2.001-1.999
				c0.002-1.104,0.897-1.999,2.001-2.001C38.531,48.185,39.425,49.078,39.427,50.184z M49.851,90.854
				c0.229-0.416,0.342-0.871,0.472-1.504c0.158-0.824,0.183-1.832,0.185-2.875c0-0.643-0.012-1.289-0.018-1.881h13.771
				c-0.007,0.6-0.017,1.238-0.017,1.893c0.002,1.035,0.024,2.037,0.188,2.867c0.133,0.637,0.233,1.082,0.455,1.5H49.851z
				 M82.85,82.594H27.001c-2.723-0.004-4.928-2.209-4.932-4.93v-3.74H73.75c2.368,2.738,5.512,4.787,9.1,5.785V82.594z
				 M90.852,94.023H84.85V80.145c0.979,0.158,1.979,0.266,3,0.266c1.024,0,2.021-0.104,3.002-0.266V94.023z M87.85,78.408
				c-9.188-0.018-16.617-7.447-16.634-16.637c0.017-9.188,7.445-16.62,16.634-16.635c9.188,0.017,16.621,7.449,16.637,16.635
				C104.471,70.961,97.037,78.391,87.85,78.408z"/>
		</g>
	</g>
	<g>
		<g>
			<g>
				<path fill="#FFFFFF" d="M79.5,90.775h-43c-0.553,0-1-0.447-1-1v-62c0-0.553,0.447-1,1-1h38c0.266,0,0.52,0.105,0.707,0.293l8,8
					c0.188,0.188,0.293,0.441,0.293,0.707v51c0,0.404-0.243,0.77-0.617,0.924c-0.373,0.156-0.803,0.069-1.09-0.217l-8.707-8.707
					H71.5v1.586l8.707,8.707c0.286,0.286,0.372,0.716,0.217,1.09C80.27,90.532,79.904,90.775,79.5,90.775z M37.5,88.775h39.586
					l-7.293-7.293c-0.188-0.188-0.293-0.441-0.293-0.707v-3c0-0.553,0.447-1,1-1h3c0.266,0,0.52,0.105,0.707,0.293l7.293,7.293
					V36.189l-7.414-7.414H37.5V88.775z"/>
			</g>
		</g>
		<g>
			
				<rect x="68.086" y="75.775" transform="matrix(0.7071 0.7071 -0.7071 0.7071 74.6445 -26.6569)" fill="#FFFFFF" width="2.828" height="2"/>
		</g>
		<g>
			<path fill="#FFFFFF" d="M59.5,80.775c-7.72,0-14-6.28-14-14s6.28-14,14-14v2c-6.617,0-12,5.383-12,12s5.383,12,12,12
				s12-5.383,12-12h2C73.5,74.495,67.22,80.775,59.5,80.775z"/>
		</g>
		<g>
			<polygon fill="#FFFFFF" points="82.5,36.775 73.5,36.775 73.5,27.775 75.5,27.775 75.5,34.775 82.5,34.775 			"/>
		</g>
		<g>
			<path fill="#FFFFFF" d="M59.5,75.775c-4.963,0-9-4.037-9-9s4.037-9,9-9v2c-3.859,0-7,3.141-7,7s3.141,7,7,7s7-3.141,7-7h2
				C68.5,71.738,64.463,75.775,59.5,75.775z"/>
		</g>
		<g>
			<rect x="41.5" y="30.775" fill="#FFFFFF" width="2" height="2"/>
		</g>
		<g>
			<rect x="45.5" y="30.775" fill="#FFFFFF" width="2" height="2"/>
		</g>
		<g>
			<rect x="49.5" y="30.775" fill="#FFFFFF" width="2" height="2"/>
		</g>
		<g>
			<rect x="41.5" y="40.775" fill="#FFFFFF" width="36" height="2"/>
		</g>
		<g>
			<rect x="66.5" y="44.775" fill="#FFFFFF" width="11" height="2"/>
		</g>
		<g>
			<rect x="57.5" y="44.775" fill="#FFFFFF" width="7" height="2"/>
		</g>
		<g>
			<rect x="41.5" y="44.775" fill="#FFFFFF" width="14" height="2"/>
		</g>
		<g>
			<rect x="41.5" y="48.775" fill="#FFFFFF" width="10" height="2"/>
		</g>
		<g>
			<rect x="41.5" y="34.775" fill="#FFFFFF" width="28" height="2"/>
		</g>
		<g>
			<path fill="#FFFFFF" d="M73.5,64.775h-12v-12h1c6.065,0,11,4.935,11,11V64.775z M63.5,62.775h7.944
				c-0.462-4.165-3.779-7.482-7.944-7.944V62.775z"/>
		</g>
		<g>
			<polygon fill="#FFFFFF" points="64.793,73.482 59.086,67.775 51.5,67.775 51.5,65.775 59.914,65.775 66.207,72.068 			"/>
		</g>
	</g>
</g>
<g id="圖層_3_1_" display="none">
	<g display="inline">
		<g>
			<polygon fill="#FFFFFF" points="88.5,43.775 86.5,43.775 86.5,37.775 80.5,37.775 80.5,35.775 88.5,35.775 			"/>
		</g>
		<g>
			<polygon fill="#FFFFFF" points="42.207,67.482 40.793,66.068 58.5,48.361 66.5,56.361 86.793,36.068 88.207,37.482 66.5,59.189 
				58.5,51.189 			"/>
		</g>
		<g>
			<path fill="#FFFFFF" d="M87.914,83.775H33.086L28.5,79.189v-3.414h25.414l2,2h9.172l2-2H92.5v3.414L87.914,83.775z
				 M33.914,81.775h53.172l3.414-3.414v-0.586H67.914l-2,2H55.086l-2-2H30.5v0.586L33.914,81.775z"/>
		</g>
		<g>
			<path fill="#FFFFFF" d="M34.5,73.775h-2v-34c0-2.206,1.794-4,4-4h40v2h-40c-1.103,0-2,0.897-2,2V73.775z"/>
		</g>
		<g>
			<rect x="86.5" y="47.775" fill="#FFFFFF" width="2" height="26"/>
		</g>
		<g>
			<polygon fill="#FFFFFF" points="84.5,71.775 36.5,71.775 36.5,39.775 76.5,39.775 76.5,41.775 38.5,41.775 38.5,69.775 
				82.5,69.775 82.5,47.775 84.5,47.775 			"/>
		</g>
		<g>
			<g>
				<rect x="51.5" y="61.775" fill="#FFFFFF" width="2" height="6"/>
			</g>
			<g>
				<rect x="47.5" y="65.775" fill="#FFFFFF" width="2" height="2"/>
			</g>
			<g>
				<rect x="55.5" y="57.775" fill="#FFFFFF" width="2" height="10"/>
			</g>
			<g>
				<rect x="59.5" y="57.775" fill="#FFFFFF" width="2" height="10"/>
			</g>
			<g>
				<rect x="63.5" y="61.775" fill="#FFFFFF" width="2" height="6"/>
			</g>
			<g>
				<rect x="67.5" y="61.775" fill="#FFFFFF" width="2" height="6"/>
			</g>
			<g>
				<rect x="71.5" y="57.775" fill="#FFFFFF" width="2" height="10"/>
			</g>
			<g>
				<rect x="75.5" y="53.775" fill="#FFFFFF" width="2" height="14"/>
			</g>
		</g>
	</g>
</g>
<g id="圖層_4" display="none">
	<g display="inline">
		<g>
			<rect x="28.5" y="88.775" fill="#FFFFFF" width="64" height="2"/>
		</g>
		<g>
			<polygon fill="#FFFFFF" points="89.5,89.775 87.5,89.775 87.5,28.775 33.5,28.775 33.5,89.775 31.5,89.775 31.5,26.775 
				89.5,26.775 			"/>
		</g>
		<g>
			<rect x="32.5" y="34.775" fill="#FFFFFF" width="56" height="2"/>
		</g>
		<g>
			<rect x="35.5" y="30.775" fill="#FFFFFF" width="2" height="2"/>
		</g>
		<g>
			<rect x="39.5" y="30.775" fill="#FFFFFF" width="2" height="2"/>
		</g>
		<g>
			<rect x="43.5" y="30.775" fill="#FFFFFF" width="2" height="2"/>
		</g>
		<g>
			<rect x="47.5" y="27.775" fill="#FFFFFF" width="2" height="8"/>
		</g>
		<g>
			<rect x="51.5" y="30.775" fill="#FFFFFF" width="34" height="2"/>
		</g>
		<g>
			<path fill="#FFFFFF" d="M85.5,52.775h-50v-14h50V52.775z M37.5,50.775h46v-10h-46V50.775z"/>
		</g>
		<g>
			<rect x="59.5" y="44.775" fill="#FFFFFF" width="2" height="2"/>
		</g>
		<g>
			<rect x="55.5" y="44.775" fill="#FFFFFF" width="2" height="2"/>
		</g>
		<g>
			<rect x="63.5" y="44.775" fill="#FFFFFF" width="2" height="2"/>
		</g>
		<g>
			<path fill="#FFFFFF" d="M50.5,66.775h-15v-10h15V66.775z M37.5,64.775h11v-6h-11V64.775z"/>
		</g>
		<g>
			<path fill="#FFFFFF" d="M68.5,66.775h-16v-10h16V66.775z M54.5,64.775h12v-6h-12V64.775z"/>
		</g>
		<g>
			<path fill="#FFFFFF" d="M85.5,66.775h-15v-10h15V66.775z M72.5,64.775h11v-6h-11V64.775z"/>
		</g>
		<g>
			<rect x="35.5" y="68.775" fill="#FFFFFF" width="15" height="2"/>
		</g>
		<g>
			<rect x="35.5" y="72.775" fill="#FFFFFF" width="15" height="2"/>
		</g>
		<g>
			<rect x="35.5" y="76.775" fill="#FFFFFF" width="15" height="2"/>
		</g>
		<g>
			<rect x="52.5" y="68.775" fill="#FFFFFF" width="15" height="2"/>
		</g>
		<g>
			<rect x="52.5" y="72.775" fill="#FFFFFF" width="15" height="2"/>
		</g>
		<g>
			<rect x="52.5" y="76.775" fill="#FFFFFF" width="15" height="2"/>
		</g>
		<g>
			<rect x="70.5" y="68.775" fill="#FFFFFF" width="15" height="2"/>
		</g>
		<g>
			<rect x="70.5" y="72.775" fill="#FFFFFF" width="15" height="2"/>
		</g>
		<g>
			<rect x="70.5" y="76.775" fill="#FFFFFF" width="15" height="2"/>
		</g>
		<g>
			<rect x="35.5" y="84.775" fill="#FFFFFF" width="50" height="2"/>
		</g>
	</g>
</g>
<g id="圖層_5" display="none">
	<g display="inline">
		<g>
			<g>
				<g>
					<path fill="none" stroke="#FFFFFF" stroke-width="2" d="M51.854,82.475c-0.133,1.59,0.15,5.125-0.193,6.854
						c-0.311,1.58-0.531,1.635-1.371,2.102c-0.473,0.26-1.273,0.621-1.941,0.91l0,0"/>
					<path fill="none" stroke="#FFFFFF" stroke-width="2" d="M72.143,92.352c-0.674-0.293-1.486-0.662-1.965-0.922
						c-0.838-0.467-1.002-0.521-1.314-2.102c-0.344-1.729-0.063-5.176-0.193-6.766"/>
					<line fill="none" stroke="#FFFFFF" stroke-width="2" x1="46.268" y1="92.213" x2="74.313" y2="92.213"/>
				</g>
				<line fill="none" stroke="#FFFFFF" stroke-width="2" x1="22.428" y1="71.957" x2="98.152" y2="71.957"/>
				<path fill="none" stroke="#FFFFFF" stroke-width="2" d="M99.18,77.027c0,3.506-2.844,6.35-6.35,6.35H27.75
					c-3.506,0-6.35-2.844-6.35-6.35V32.052c0-3.506,2.844-6.35,6.35-6.35h65.08c3.506,0,6.35,2.844,6.35,6.35V77.027z"/>
			</g>
		</g>
		<path fill="none" stroke="#FFFFFF" stroke-width="2" d="M85.945,36.109H66.008c-2.102,0-3.805,1.705-3.805,3.805v10.512
			c0,2.104,1.703,3.809,3.805,3.809h3.148l-4.986,5.799l12.598-5.799h9.178c2.105,0,3.809-1.705,3.809-3.809V39.914
			C89.754,37.814,88.051,36.109,85.945,36.109z M70.092,46.894c-0.902,0-1.635-0.729-1.635-1.631c0-0.904,0.732-1.635,1.635-1.635
			c0.896,0,1.629,0.73,1.629,1.635C71.721,46.166,70.988,46.894,70.092,46.894z M75.979,46.894c-0.9,0-1.631-0.729-1.631-1.631
			c0-0.904,0.73-1.635,1.631-1.635s1.631,0.73,1.631,1.635C77.609,46.166,76.879,46.894,75.979,46.894z M81.867,46.894
			c-0.898,0-1.629-0.729-1.629-1.631c0-0.904,0.73-1.635,1.629-1.635c0.904,0,1.635,0.73,1.635,1.635
			C83.502,46.166,82.771,46.894,81.867,46.894z"/>
		<g>
			<g>
				<g>
					<path fill="none" stroke="#FFFFFF" stroke-width="2" d="M46.395,49.695c3.727,0,6.746-3.725,6.746-8.328
						s-3.02-8.336-6.746-8.336c-3.723,0-6.742,3.732-6.742,8.336S42.672,49.695,46.395,49.695z"/>
					<path fill="none" stroke="#FFFFFF" stroke-width="2" d="M60.381,67.434l-2.453-11.819c-0.77-2.74-2.779-3.688-4.672-3.885
						c-6.195-0.648-8.039-0.701-13.939,0c-1.826,0.215-3.838,1.453-4.457,3.885l-2.447,11.819H60.381z"/>
				</g>
			</g>
			<polyline fill="none" stroke="#FFFFFF" stroke-width="2" points="43.41,51.353 44.863,55.996 43.143,66.65 49.648,66.65 
				47.928,55.996 49.383,51.353 			"/>
		</g>
		<line fill="none" stroke="#FFFFFF" stroke-width="2" x1="45.129" y1="55.996" x2="48.113" y2="55.996"/>
	</g>
</g>
</svg>
