<?xml version="1.0" encoding="utf-8"?>
<!-- Generator: Adobe Illustrator 13.0.1, SVG Export Plug-In . SVG Version: 6.00 Build 14948)  -->
<!DOCTYPE svg PUBLIC "-//W3C//DTD SVG 1.1//EN" "http://www.w3.org/Graphics/SVG/1.1/DTD/svg11.dtd">
<svg version="1.1" id="圖層_1" xmlns="http://www.w3.org/2000/svg" xmlns:xlink="http://www.w3.org/1999/xlink" x="0px" y="0px"
	 width="50px" height="49.646px" viewBox="0 0 50 49.646" enable-background="new 0 0 50 49.646" xml:space="preserve">
<g>
	<path fill="#FFFFFF" d="M26.68,38.086c-0.562,0.101-1.127,0.179-1.705,0.208c-7.69,0.428-14.206-5.597-14.618-13.331
		c-0.2-3.766,1.059-7.379,3.545-10.177c2.479-2.789,5.88-4.434,9.578-4.63c0.247-0.013,0.493-0.02,0.736-0.02
		c7.385,0,13.48,5.868,13.879,13.358c0.051,0.971,0.002,1.929-0.136,2.867l4.935,4.782c0.386-1.075,0.692-2.178,0.894-3.309
		l4.665-0.974l-0.072-1.309l-0.173-3.303l-0.072-1.309l-4.384-0.438c-0.188-1.008-0.439-1.99-0.771-2.939l3.544-3.167l-0.713-1.1
		l-1.805-2.772l-0.719-1.098l-3.939,1.776c-0.67-0.794-1.396-1.536-2.179-2.217l1.451-4.425l-1.163-0.592l-2.953-1.502l-1.168-0.587
		l-2.451,3.405c-0.994-0.355-2.029-0.62-3.088-0.814L26.863,0l-1.31,0.069l-3.306,0.178l-1.307,0.07l-0.418,4.181
		c-1.057,0.199-2.095,0.462-3.094,0.828l-3.032-3.396l-1.099,0.714l-2.773,1.804l-1.095,0.71l1.757,3.896
		c-0.619,0.545-1.219,1.116-1.775,1.742c-0.141,0.159-0.262,0.332-0.398,0.495L4.565,9.829l-0.597,1.17l-1.498,2.948l-0.594,1.164
		l3.535,2.546c-0.327,0.961-0.566,1.95-0.746,2.955L0,21.591l0.068,1.307l0.178,3.309l0.069,1.301l4.383,0.441
		c0.188,1.01,0.437,1.997,0.767,2.945l-3.536,3.157l0.712,1.103l1.804,2.774l0.713,1.096l3.94-1.774
		c0.672,0.794,1.406,1.524,2.189,2.205L9.831,43.89l1.167,0.597l2.948,1.496l1.166,0.594l2.469-3.433
		c0.995,0.356,2.016,0.645,3.074,0.838l0.936,4.471l1.305-0.068l3.309-0.178l1.304-0.072l0.42-4.18
		c1.192-0.224,2.352-0.565,3.472-0.999L26.68,38.086z"/>
	<path fill="#FFFFFF" d="M49.979,43.468c0.124-0.786-0.311-1.813-0.763-2.251c-5.2-5.037-10.398-10.076-15.599-15.117
		c0.744-3.148-0.103-6.595-2.558-9.051c-2.825-2.827-6.968-3.534-10.454-2.122l5.332,5.331c0.452,0.454,0.452,1.187,0,1.639
		l-3.687,3.688c-0.451,0.454-1.186,0.454-1.638,0l-5.329-5.33c-1.409,3.485-0.702,7.625,2.125,10.452
		c2.454,2.453,5.896,3.3,9.046,2.555c5.039,5.199,10.079,10.399,15.118,15.598c0.438,0.456,1.464,0.887,2.249,0.767
		C46.907,49.145,49.499,46.55,49.979,43.468z"/>
</g>
</svg>
