<svg id="b411f037-6dd3-495f-9d1f-d73c4954b047" data-name="圖層 1" xmlns="http://www.w3.org/2000/svg" xmlns:xlink="http://www.w3.org/1999/xlink" viewBox="0 0 469.71 992.28"><defs><clipPath id="b7b26ff8-e49f-4f87-9e5e-1f21b07d25ec"><rect width="469.71" height="992.28" style="fill:none"/></clipPath><clipPath id="ac2ce0ee-5fd8-4a72-b76c-068f1ff1ca2f"><rect x="83.85" y="594.85" width="17.7" height="12.22" style="fill:none"/></clipPath></defs><title>section2-chart-s</title><g style="clip-path:url(#b7b26ff8-e49f-4f87-9e5e-1f21b07d25ec)"><rect x="34.85" y="198.67" width="400" height="793.61" style="fill:#c9ccd3"/><polygon points="234.85 0 0 203.67 469.71 203.67 234.85 0" style="fill:#c9ccd3"/><rect x="346.73" y="222.77" width="6.73" height="701.05" style="fill:#de0010"/><path d="M71.23,903.23c-.12.73-.32,1.67-.62,2.83l-.45,1.63v19.7H67.87V913.84a23.35,23.35,0,0,1-1.34,2.58l-1.34-2.64a33.63,33.63,0,0,0,3.66-11Zm7.42,4.33H71.12v-2.14h2.64a13.52,13.52,0,0,0-.85-2.19l2.35-.56a28.46,28.46,0,0,1,1,2.75h2.4Zm-.5,4.21H71.52V909.5h6.63Zm0,4.12H71.52v-2.24h6.63Zm-.06,11H75.74v-1.35H73.92v1.79H71.6v-9.54h6.49Zm-2.35-3.62v-3.19H73.92v3.19Zm14.11-11.2H86.21a24.88,24.88,0,0,1-2.16,2.67h5v12.56H86.69v-1.26H82.63v1.26H80.31V918q-.78.62-1.23.9l-.82-2.19a25.51,25.51,0,0,0,5.26-4.62H79V910h3.27v-2.35H79.51V905.5h2.78V903h2.32v2.52h1.74v1.74a33.3,33.3,0,0,0,1.34-3.76l2.13.68A33.62,33.62,0,0,1,87.5,910h2.35Zm-3.16,7.23V917H82.63v2.35Zm0,4.53v-2.43H82.63v2.43Zm-.53-16.23H84.61V910h.29A12.89,12.89,0,0,0,86.16,907.63Z" style="fill:#b50b6f"/><path d="M99.68,903.37,98,909.14v18.34H95.57V914.4c-.42.7-.87,1.4-1.34,2.1L93,913.87a34.5,34.5,0,0,0,4.25-11Zm18.14,8.46H105.9a18,18,0,0,1-.9,1.76h11.84v11.87a1.87,1.87,0,0,1-.52,1.37,2,2,0,0,1-1.1.63c-.39,0-1.27.08-2.63.08l-.56-2.13,2-.06a.56.56,0,0,0,.37-.25.73.73,0,0,0,.21-.47V923h-3.7v4.41h-2.41V923h-4a9.4,9.4,0,0,1-3,4.62L99.63,926q3-2.44,3-7.3v-1.94a38.25,38.25,0,0,1-2.8,2.61l-1.42-2.05a16.28,16.28,0,0,0,4.89-5.48H99.15v-2.24h4.48v-2.08H99.76v-2.18h3.87v-2.26h2.44v2.26H111v-2.26h2.5v2.26h3.75v2.18h-3.75v2.08h4.36ZM108.47,921v-1.71H105l-.11,1.71Zm0-3.76v-1.58H105v1.58Zm2.49-7.67v-2.08h-4.89v2.08Zm3.62,7.67v-1.58h-3.7v1.58Zm0,3.76v-1.71h-3.7V921Z" style="fill:#b50b6f"/><path d="M64.09,938.07v5.26H54.66V948a33.3,33.3,0,0,1-1.44,10.69l-2-1.76a32.9,32.9,0,0,0,1.18-9.78V934.84a53.52,53.52,0,0,0,10.25-1.28,8.6,8.6,0,0,1,.59,1c.25.47.43.8.55,1a52.73,52.73,0,0,1-9.12,1.23v1.27ZM61.82,940H54.66v1.37H61.8Zm2.86,7.62H62.25v1.2H64v1.85H62.25v1.23H64v2H62.25v1.2h2v2H58.49v1.23H56.4v-7.86a4.3,4.3,0,0,1-.65.7l-.82-2.52a17.8,17.8,0,0,0,2.3-4.93l2,.58a12,12,0,0,1-.53,1.47h1.53a4.78,4.78,0,0,0-.44-1.47l2.12-.3a5.31,5.31,0,0,1,.45,1.77h2.3Zm-4.43,1.2v-1.2H58.49v1.2Zm0,3.08v-1.23H58.49v1.23Zm0,3.17v-1.2H58.49v1.2Zm15.57-18.54h-4c-.16.8-.37,1.65-.64,2.54H75v14.15h-6.3l1.39,1.34a13.37,13.37,0,0,1-4.11,4l-1.37-1.87a13,13,0,0,0,3.61-3.48H65.64V939.09H68.5a14.49,14.49,0,0,0,.64-2.54H64.6v-2.19H75.82Zm-3.1,6.55v-1.82H68v1.82Zm0,3.92v-1.87H68V947Zm0,4.09v-2.05H68v2.05Zm3.5,5.66-1.57,1.76a27,27,0,0,0-4.2-3.22L72,953.57A24.72,24.72,0,0,1,76.22,956.77Z" style="fill:#b50b6f"/><path d="M90.64,944.36h-8v14H80.14V934.57h10.5Zm-2.5-6V936.8H82.63v1.57Zm0,3.79V940.5H82.63v1.66Zm9.24,12.34H85.93v-7.93H97.38ZM95,952.23v-3.42H88.37v3.42Zm8.13,3.5a2.41,2.41,0,0,1-.76,1.95,5.29,5.29,0,0,1-3.13.64c-.4,0-.85,0-1.35-.05l-.81-2.43q2.72,0,3.12,0c.27,0,.41-.23.41-.61V944.36h-8v-9.79h10.48Zm-2.52-17.36V936.8H95.2v1.57Zm0,3.79V940.5H95.2v1.66Z" style="fill:#b50b6f"/><path d="M117.24,956.88H110.5v1.45h-2.25V936.86h2.6a16.15,16.15,0,0,0,1.29-3.14l2.47.51c-.45,1.18-.8,2.06-1.07,2.63h3.08v8.23H110.5V948h6.74ZM114.3,942.8v-3.68h-3.8v3.68Zm.61,11.81v-4.4H110.5v4.4Zm16.89-17.79h-5.69V940h4.73v14a2.66,2.66,0,0,1-.64,1.89c-.42.47-1.49.65-3.22.55l-.5-2.41a10.11,10.11,0,0,0,1.45.06.47.47,0,0,0,.53-.54v-11.3h-2.35v16.09H123.7V942.24h-2.29v14.27h-2.36V940h4.65v-3.15h-5.79v-2.31H131.8Z" style="fill:#b50b6f"/><path d="M191.18,193.43h-5.51v2.38a2.75,2.75,0,0,1-.63,1.83,3.39,3.39,0,0,1-2.63.76c-.57,0-1.43,0-2.59-.07l-.64-2.22c1.87,0,3,0,3.4,0a.57.57,0,0,0,.59-.61v-2h-16.4v-2h16.4v-.86h2.5v.86h5.51Zm-.27-3.61L188.83,191a17.39,17.39,0,0,0-1.17-1.38q-11.81.66-19.61.56l-.64-2c1.35,0,2.9,0,4.67,0,2.35,0,4.23,0,5.66-.06v-1.49H169.2v-8.1h8.54V177.3H167.11v-1.93h10.63V174h2.41v1.38h10.47v1.93H180.15v1.31h8.65v8.1h-.72C189.14,187.78,190.08,188.82,190.91,189.82Zm-13.14,6.52-1.87,1.74a28.84,28.84,0,0,0-4.35-2.53l1.86-1.73A25.69,25.69,0,0,1,177.77,196.34Zm0-14.5v-1.37h-6.09v1.37Zm0,2.94v-1.26h-6.09v1.26Zm8.66-2.94v-1.37h-6.25v1.37Zm0,2.94v-1.26h-6.25v1.26Zm0,1.93h-6.3v1.4q3.85-.12,5.69-.34a4.22,4.22,0,0,0-.54-.56Z" style="fill:#b50b6f"/><path d="M219.18,191.75h-11v6.71h-2.48v-6.71H194.77v-2.1h10.95v-1.43h-9.63v-2.1h9.63v-1.37H195.38v-2.1h6.39a9.22,9.22,0,0,0-1-1.21l1.88-1h-8v-2.09h8.57v-4.17h2.44v4.17h2.51v-4.17h2.45v4.17h8.45v2.09H211.4l1.66.88a13,13,0,0,1-.93,1.37h6.44v2.1H208.2v1.37h9.7v2.1h-9.7v1.43h11Zm-15.5,2.35a38.59,38.59,0,0,1-7.26,4.23l-1.63-2a31.21,31.21,0,0,0,7-3.89Zm-2.42-17.33-1.87,1.35a18.08,18.08,0,0,0-2.49-2.47l1.87-1.45A16.16,16.16,0,0,1,201.26,176.77Zm9.3,3.63H203.2a18.45,18.45,0,0,1,1.56,2.25H209A14.61,14.61,0,0,0,210.56,180.4Zm9.13,15.84-1.37,2a52.69,52.69,0,0,0-8-3.8l1.45-2A56.87,56.87,0,0,1,219.69,196.24ZM217,175.32a15.88,15.88,0,0,1-2.41,2.59l-2.22-1.31a16.29,16.29,0,0,0,2.45-2.46Z" style="fill:#b50b6f"/><path d="M235.45,178.15v5.26H226V188a33.3,33.3,0,0,1-1.44,10.69l-2-1.76a32.9,32.9,0,0,0,1.18-9.78V174.92A53.52,53.52,0,0,0,234,173.64a8.6,8.6,0,0,1,.59,1c.25.48.43.8.55,1a52.73,52.73,0,0,1-9.12,1.23v1.27Zm-2.27,1.95H226v1.37h7.14Zm2.86,7.62h-2.43v1.2h1.76v1.85h-1.76V192h1.76v2h-1.76v1.2h2v2h-5.77v1.23h-2.09v-7.86a4.3,4.3,0,0,1-.65.7l-.82-2.52a17.8,17.8,0,0,0,2.3-4.93l2,.58a12,12,0,0,1-.53,1.47h1.53a4.78,4.78,0,0,0-.44-1.47l2.12-.3a5.31,5.31,0,0,1,.45,1.77H236Zm-4.43,1.2v-1.2h-1.76v1.2Zm0,3.08v-1.23h-1.76V192Zm0,3.17V194h-1.76v1.2Zm15.57-18.54h-4c-.16.8-.37,1.65-.64,2.54h3.81v14.15H240l1.39,1.34a13.37,13.37,0,0,1-4.11,4l-1.37-1.87a13,13,0,0,0,3.61-3.48H237V179.17h2.86a14.49,14.49,0,0,0,.64-2.54H236v-2.19h11.22Zm-3.1,6.55v-1.82h-4.76v1.82Zm0,3.92v-1.87h-4.76v1.87Zm0,4.09v-2.05h-4.76v2.05Zm3.5,5.66L246,198.61a27,27,0,0,0-4.2-3.22l1.55-1.74A24.72,24.72,0,0,1,247.58,196.85Z" style="fill:#b50b6f"/><path d="M262,184.44h-8v14H251.5V174.65H262Zm-2.5-6v-1.57H254v1.57Zm0,3.79v-1.66H254v1.66Zm9.24,12.34H257.29v-7.93h11.45Zm-2.37-2.27v-3.42h-6.64v3.42Zm8.12,3.5a2.41,2.41,0,0,1-.76,1.95,5.29,5.29,0,0,1-3.13.64c-.4,0-.85,0-1.35-.05l-.81-2.43q2.71,0,3.12,0c.27,0,.41-.23.41-.61V184.44h-8v-9.79h10.48ZM272,178.45v-1.57h-5.41v1.57Zm0,3.79v-1.66h-5.41v1.66Z" style="fill:#b50b6f"/><path d="M288.6,197h-6.74v1.45h-2.25V176.94h2.6a16.15,16.15,0,0,0,1.29-3.14l2.47.51c-.45,1.18-.8,2.06-1.07,2.63H288v8.23h-6.12v2.89h6.74Zm-2.94-14.08V179.2h-3.8v3.68Zm.61,11.81v-4.4h-4.41v4.4Zm16.89-17.79h-5.69v3.15h4.73v14a2.66,2.66,0,0,1-.64,1.89c-.42.47-1.49.65-3.22.55l-.5-2.41a10.11,10.11,0,0,0,1.45.06.47.47,0,0,0,.53-.54v-11.3h-2.35v16.09h-2.41V182.32h-2.29v14.27h-2.36V180.05h4.65V176.9h-5.79v-2.31h13.89Z" style="fill:#b50b6f"/><rect x="144.63" y="748.95" width="191.78" height="175" style="fill:#6c90d8"/><rect x="144.63" y="748.95" width="191.78" height="54.02" style="fill:#3a46ac"/><path d="M176.9,838.28H171v4.9a.38.38,0,0,0,.2.34,9.32,9.32,0,0,0,2.06.11,8.36,8.36,0,0,0,2-.13c.22-.09.35-1,.4-2.66l1,.36c0,1.56-.22,2.51-.56,2.86a4.09,4.09,0,0,1-2.58.52,14.27,14.27,0,0,1-2.65-.12,1,1,0,0,1-.53-.45,1.53,1.53,0,0,1-.21-.83v-4.9h-2.92q0,5.19-5.31,6.53l-.63-.84q5.1-1.12,4.91-5.69h-4.89v-.91H176.9Zm-.65-3.16h-1v-3.21H162.83v3.21h-1V831h6.68q-.7-1.41-.9-1.77l1-.32a15.94,15.94,0,0,1,1,2.09h6.63Zm-2.25-.38h-9.91v-.89H174Z" style="fill:#fff"/><path d="M188.08,831H184.5v1.15h2.93v3H184.5v.37a17.72,17.72,0,0,1,2.64,1.35l-.39.81a17.31,17.31,0,0,0-2.25-1.24v1.84h-.88v-2.2a17.55,17.55,0,0,1-3.38,2.27l-.62-.76a13.62,13.62,0,0,0,3.71-2.44h-2.8v-3h3.09V831h-3.85v-.87h3.85v-1h.88v1h3.58Zm7.24,13.55H179.66v-.85h3.15v-2.84h.9v2.84h3.42v-3.8h-7v-.84H195v.84h-6.88v1.39h6.21v.81h-6.21v1.6h7.24Zm-11.7-10.28V833h-2.16v1.3Zm2.92,0V833h-2v1.3Zm8.87,3.19-.49.84a8.89,8.89,0,0,1-3.18-1.62,17.05,17.05,0,0,1-3.46,1.66l-.64-.78a12.52,12.52,0,0,0,3.47-1.54,7.43,7.43,0,0,1-1.24-2.08l.81-.39a6,6,0,0,0,1.15,1.89,5.57,5.57,0,0,0,1.58-3.46h-2.9a10.14,10.14,0,0,1-2,2.44l-.65-.6a10,10,0,0,0,3.08-4.74l.81.34a8.65,8.65,0,0,1-.7,1.7h4.25V832h-1a6.45,6.45,0,0,1-1.84,4.09A8,8,0,0,0,195.41,837.46Z" style="fill:#fff"/><path d="M203.76,840.93a16.36,16.36,0,0,1-5.13,2.81l-.59-.8a15.68,15.68,0,0,0,5-2.63Zm9.51-1.39-.81.54a14.22,14.22,0,0,0-1.07-1.4c-2.33.24-3.94.41-4.84.48v4.56a.94.94,0,0,1-.26.67,1.12,1.12,0,0,1-.59.34,6.47,6.47,0,0,1-1.2.07c-.33,0-.64,0-.92,0l-.39-.95c.33,0,.68,0,1,0a7.78,7.78,0,0,0,1.14-.05c.14,0,.21-.17.21-.41v-4.14c-2.64.16-4.63.27-6,.31l-.28-.79a49.44,49.44,0,0,0,6.47-2.89c-2.08.13-3.93.21-5.56.25l-.24-.66a19.11,19.11,0,0,0,6.52-3.73l.9.52a20.48,20.48,0,0,1-4.48,2.9l1.68-.07,1.58-.1a8.66,8.66,0,0,0,1.64-.22,25.08,25.08,0,0,0,2.24-1.58l.84.58a44,44,0,0,1-8.68,4.81q4.35-.15,8.42-.68a13,13,0,0,0-1.37-1.31l.81-.55A20.28,20.28,0,0,1,213.27,839.54Zm-5.5-10a17.88,17.88,0,0,1-7.56,3.6l-.72-.83c3.35-.73,5.84-1.82,7.47-3.29Zm5.94,13.5-.61.78a20.93,20.93,0,0,0-4.54-2.82l.62-.75A23.2,23.2,0,0,1,213.71,843Z" style="fill:#fff"/><path d="M218.44,840.53a17.87,17.87,0,0,1-1.09,4.23l-.85-.31a17.12,17.12,0,0,0,1.07-4.14Zm4.35-1.11-.83.29a7.69,7.69,0,0,0-.29-1.05,46.72,46.72,0,0,1-4.75,1.24l-.27-.83a28.52,28.52,0,0,0,3.54-4.44c-.95.2-2,.37-3.18.52l-.24-.85a18.67,18.67,0,0,0,3-5.29l.84.31a18.25,18.25,0,0,1-2.63,4.82,21.31,21.31,0,0,0,2.83-.52,9.73,9.73,0,0,0,.72-1.35l.83.36a27.75,27.75,0,0,1-4.12,6.07,24.85,24.85,0,0,0,3.16-.9c-.12-.35-.27-.72-.45-1.12l.81-.34A17.15,17.15,0,0,1,222.79,839.42ZM220.66,844l-.91.19a13.62,13.62,0,0,0-.58-3.67l.9-.15A22.6,22.6,0,0,1,220.66,844Zm2.06-1.42-.85.27a16,16,0,0,0-.72-2.55l.83-.25A16.44,16.44,0,0,1,222.72,842.58ZM232.13,832h-5.51a22.39,22.39,0,0,1-2.41,4,47.21,47.21,0,0,0,5.63-.6,15,15,0,0,0-1.33-1.67l.79-.5a23,23,0,0,1,2.64,3.76l-.75.56a9.92,9.92,0,0,0-.83-1.35l-1.67.27v6.71a.37.37,0,0,0,.42.4h1.27a.57.57,0,0,0,.41-.16,2.38,2.38,0,0,0,.27-1.1c.07-.63.12-1.34.13-2.13l.9.33a12.11,12.11,0,0,1-.27,2.77,1.48,1.48,0,0,1-.67,1,3.59,3.59,0,0,1-1.5.23,3,3,0,0,1-1.47-.25,1.08,1.08,0,0,1-.39-1v-6.69q-1.5.18-1.86.18c0,3.61-1.11,6.28-3.35,8l-.62-.64a7.9,7.9,0,0,0,2.25-2.83,10.56,10.56,0,0,0,.81-4.45,19.14,19.14,0,0,1-2,.12l-.2-.82a15.11,15.11,0,0,0,2.79-4.19h-3v-.88h3.47q.3-.69.84-2.13l.88.28a18.32,18.32,0,0,1-.76,1.85h5.12Z" style="fill:#fff"/><path d="M240.55,837l-.7.58a21.16,21.16,0,0,0-1.35-2.13v9.38h-.92V836a21.09,21.09,0,0,1-2.1,3.92l-.63-.7a21.52,21.52,0,0,0,2.71-5.52h-2.44v-.89h2.46v-3.73h.92v3.73h1.8v.89h-1.8v.39A22.87,22.87,0,0,1,240.55,837Zm9.89,4.08h-5.17q-.77,2.86-4.89,3.75l-.53-.84q3.66-.66,4.48-2.91H240v-.87h4.5a9.06,9.06,0,0,0,.18-1.56h-3.27v-5.57h7.94v5.57h-3.73a12.91,12.91,0,0,1-.17,1.56h5Zm-5.41-9.7h-1.18v1h-1v-1h-2.65v-.85h2.65v-1.5h1v1.5H245Zm3.46,4V834h-6.17v1.45Zm0,2.41v-1.58h-6.17v1.58Zm2-6.42H248v1h-.9v-1h-1.33v-.85h1.33v-1.5h.9v1.5h2.58Zm.14,12.66-.57.74a25.37,25.37,0,0,0-4.24-2.4l.6-.73A28.33,28.33,0,0,1,250.67,844.07Z" style="fill:#fff"/><path d="M255.26,840.55a24.2,24.2,0,0,1-.94,4.21l-.92-.34a20.5,20.5,0,0,0,1-4.12Zm4.93-8.73a50.11,50.11,0,0,1-5,6.72c1-.19,2.19-.47,3.55-.85-.1-.28-.24-.66-.44-1.14l.81-.3a17,17,0,0,1,1,3l-.87.25a8.86,8.86,0,0,0-.25-1q-2.58.71-5.19,1.2l-.26-.79a27.52,27.52,0,0,0,3.69-4.39l-3.44.56-.2-.87a20.32,20.32,0,0,0,3.26-5.29l.9.29a24.42,24.42,0,0,1-2.85,4.75c.79-.09,1.77-.23,3-.42.27-.37.75-1.09,1.44-2.17ZM257.69,844l-.94.17a23.22,23.22,0,0,0-.43-3.73l.88-.15A26.82,26.82,0,0,1,257.69,844Zm2.18-1.51-.85.27a15.38,15.38,0,0,0-.56-2.45l.79-.26A13.66,13.66,0,0,1,259.87,842.44Zm9.18,1.85h-9.31v-.87H261V829.5h6.66v13.92h1.39Zm-2.32-10.35v-3.52H262v3.52Zm0,4.63v-3.71H262v3.71Zm0,4.85v-3.95H262v3.95Z" style="fill:#fff"/><path d="M278.41,831.84h-6.59v-.94h2.95a11.78,11.78,0,0,0-.74-1.6l.85-.43a10.52,10.52,0,0,1,.88,2h2.65Zm-.7,5h-5.3V836h5.3Zm.05-2.42h-5.33v-.92h5.33Zm-.14,10h-.94v-1.12h-3.24v1.36h-.94v-6h5.12Zm-.94-2.06v-2.75h-3.24v2.75Zm4-4.48q0,4.6-1.89,6.84l-.81-.59q1.79-2,1.78-6.41v-8.69h.92Zm3.08,5.32h-.92v-13.1h.92Zm3.28,1.5h-.93V829.11H287Z" style="fill:#fff"/><path d="M292.12,840.62c-.1.6-.2,1.12-.29,1.57s-.22,1-.39,1.6a4.1,4.1,0,0,1-.38,1.07l-.86-.33a16.79,16.79,0,0,0,1-4.16Zm4.27-1.27-.81.29-.22-1a45,45,0,0,1-4.75,1.13l-.27-.82a19.46,19.46,0,0,0,3.37-4.27c-.81.16-1.79.31-2.95.45l-.22-.85a23.72,23.72,0,0,0,3.24-5.27l.83.32a27.72,27.72,0,0,1-2.92,4.79,20.56,20.56,0,0,0,2.59-.43,20.81,20.81,0,0,0,1-1.9l.79.39a25.5,25.5,0,0,1-4.36,6.48,30.86,30.86,0,0,0,3.37-.83c-.14-.41-.28-.79-.43-1.13l.79-.29A11.21,11.21,0,0,1,296.39,839.35Zm-2,4.77-.84.16a19.08,19.08,0,0,0-.45-3.69l.84-.14A25.81,25.81,0,0,1,294.37,844.12Zm2-2-.81.26a14.37,14.37,0,0,0-.59-2l.79-.26A11.82,11.82,0,0,1,296.39,842.15Zm9.61,1.46-.61.75a15.34,15.34,0,0,1-4-4.94v5.44h-.88v-5.44a17.63,17.63,0,0,1-4.11,4.93l-.65-.67a15,15,0,0,0,3.8-4.4H297V833h3.5l0-1.52h-4.29v-.91h4.27l0-1.48h.88v1.48h4.32v.91h-4.32V833H305v6.31h-2.69A13.9,13.9,0,0,0,306,843.61Zm-5.47-5.2v-4.56h-2.59v4.56Zm-.61-1.19-.79.27a9.36,9.36,0,0,0-.8-2.34l.8-.29A10.08,10.08,0,0,1,299.92,837.22Zm4.15,1.19v-4.56h-2.64v4.56Zm-.44-3.19a7.91,7.91,0,0,1-.92,2.32l-.72-.37a10.13,10.13,0,0,0,.91-2.34Z" style="fill:#fff"/><path d="M169.06,855.44h-3.39V857h2.72v6.89h-2.72v1.55h3.19v.87h-3.19v2.53h-.91v-2.53h-3.52v-.87h3.52v-1.55H162V857h2.78v-1.53h-3.33v-.92h3.33V853h.91v1.5h3.39Zm-4.3,4.45v-2H162.9v2Zm0,3.06v-2.18H162.9V863Zm2.73-3.06v-2h-1.82v2Zm0,3.06v-2.18h-1.82V863Zm9.36,5.22-.67.68a10.55,10.55,0,0,1-3.81-5.83,10.87,10.87,0,0,1-3.9,5.87l-.71-.69a11.09,11.09,0,0,0,3.24-4,14.15,14.15,0,0,0,1-5.74h.94c0,.76-.05,1.34-.05,1.74a9.72,9.72,0,0,0,1,4.32A10.45,10.45,0,0,0,176.85,868.17Zm-.39-12.11a13.77,13.77,0,0,1-1.43,5l-.74-.56a12.24,12.24,0,0,0,1.08-3.54h-4.06a13.07,13.07,0,0,1-1.69,3.07l-.72-.61a14.63,14.63,0,0,0,2.46-6.46l.89.27a16.53,16.53,0,0,1-.65,2.82Z" style="fill:#fff"/><path d="M185.2,854.45h-2a24.14,24.14,0,0,1-1.13,4.48h2.8V867H184v-.74h-1.77v1.19h-.93v-6.77a9.06,9.06,0,0,1-1.08,1.65l-.64-.72a16,16,0,0,0,2.67-7.19h-2.34v-.9h5.34ZM184,865.39v-5.57h-1.77v5.57Zm11.44,2.72-.47.92a14.58,14.58,0,0,1-5.81-2.09,9.1,9.1,0,0,1-3.87,2l-.5-.86a7.44,7.44,0,0,0,3.64-1.75,10.44,10.44,0,0,1-2.1-2.21l.74-.56a10,10,0,0,0,1.93,2,5.67,5.67,0,0,0,.84-2.85h-3.42v-6.34H190v-2h-4v-.9h9.31v.9h-4.38v2h3.55v6.34h-3.69a7.57,7.57,0,0,1-1,3.41A15.48,15.48,0,0,0,195.39,868.11Zm-5.42-9v-1.77h-2.71v1.77Zm0,.89h-2.68v1.88h2.61C189.92,861.27,189.94,860.65,189.94,860Zm3.59,1.88V860h-2.68c0,1,0,1.59,0,1.88Zm0-2.77v-1.77h-2.66v1.77Z" style="fill:#fff"/><path d="M213.77,858.24H210.9l-.16,1.82h-10l.17-1.82h-2.76v-.68H201l.2-1.74h10l-.18,1.74h2.79Zm-2.29,8.16H204.2l.39.56a16.64,16.64,0,0,1-5.82,1.91l-.53-.84a16.62,16.62,0,0,0,5.65-1.63h-3.47V861h11.06Zm1.62-9.84h-.91v-1.7H199.7v1.63h-.93v-2.4h6.67a4.58,4.58,0,0,0-.47-.78l.86-.31c.15.23.36.59.63,1.09h6.64Zm-2.53,6v-.83h-9.29v.83Zm0,1.56v-.84h-9.29v.84Zm0,1.57v-.85h-9.29v.85Zm-5.17-7.44h-3.6l-.11,1.08h3.62Zm.18-1.7H202l-.11,1h3.64Zm4.39,1.7h-3.64l-.09,1.08h3.64Zm.2-1.7h-3.65l-.09,1h3.65Zm3.36,11.53-.35.78a27.48,27.48,0,0,0-6-1.33l.38-.73A30.13,30.13,0,0,1,213.53,868.07Z" style="fill:#fff"/><path d="M231.14,856.41c0,2.88-.06,5.33-.18,7.33a18.45,18.45,0,0,1-.44,3.78,1.87,1.87,0,0,1-.81,1.05,5.59,5.59,0,0,1-2.22.28c-.49,0-1.09,0-1.8,0l-.35-1q1.24.06,2.13.06a3.86,3.86,0,0,0,1.7-.21,1.16,1.16,0,0,0,.43-.66,26.55,26.55,0,0,0,.36-3.51q.21-3.06.23-6.11h-5.51a14.69,14.69,0,0,1-2,7.25,13.82,13.82,0,0,1-5.09,4.26l-.68-.87a11.74,11.74,0,0,0,3.31-2,9.49,9.49,0,0,0,2.33-3.1,16.05,16.05,0,0,0,1.12-5.51h-6.29v-1h6.35c.07-1.09.11-2.2.11-3.35h1c0,.94,0,2.06-.11,3.35Z" style="fill:#fff"/><path d="M240.62,865.11c-2.06.84-3.88,1.54-5.47,2.08l-.27-.91c1.06-.34,1.92-.65,2.58-.91v-6.89h-2.11v-.88h2.11v-4.53h.89v4.53h1.91v.88h-1.91v6.57a21.85,21.85,0,0,0,2.27-.88Zm10-4.65H240.23v-.88h3.22a18.85,18.85,0,0,0-1.33-3.33l.63-.49H240.5v-.9H245a11.51,11.51,0,0,0-.93-1.67l.93-.27a10.17,10.17,0,0,1,1,1.94h4.18v.9H248l.72.45a21.78,21.78,0,0,1-1.3,3.37h3.19Zm-1.38,8.31h-.95v-1h-5.6v1h-.93v-6.71h7.48Zm-.95-2V863h-5.6v3.83Zm-.43-11H243a31,31,0,0,1,1.46,3.82h2A18.73,18.73,0,0,0,247.85,855.76Z" style="fill:#fff"/><path d="M269.06,862.44l-.52.75a24.83,24.83,0,0,1-2.39-1.29v3.62H256.8v2.29c.87-.11,2.1-.34,3.69-.71l.14.78c-1.07.24-2.66.55-4.76.91l-.32-.72a.69.69,0,0,0,.37-.59V862c-.42.26-1.08.61-2,1.06l-.59-.7a14.37,14.37,0,0,0,4.48-3.08H253.6v-.77h7.2v-1.2h-6v-.79h6v-1.17h-6.63v-.76h14.08v.76h-6.59v1.17h6v.79h-6v1.2h7.21v.77h-4.38A12.68,12.68,0,0,0,269.06,862.44Zm-3.49-.92a10.73,10.73,0,0,1-2.25-2.2H259a13.32,13.32,0,0,1-2.29,2.2Zm-.27,1.65v-.89h-8.5v.89Zm0,1.61v-.89h-8.5v.89ZM259.45,854l-.95.4c-.25-.21-.72-.54-1.41-1l.93-.43A9.83,9.83,0,0,1,259.45,854Zm3.91,6.81h-4.25V860h4.25Zm5.22,7.34-.47.74a32.76,32.76,0,0,0-7.69-2.2l.49-.77c1.17.22,2.51.53,4,1a15.2,15.2,0,0,0,2.11-1.55l.72.54a13.15,13.15,0,0,1-1.75,1.32C267.15,867.54,268,867.87,268.58,868.11Zm-3.16-14.78a9.61,9.61,0,0,1-1.45,1.13l-.83-.51a8.52,8.52,0,0,0,1.35-1Z" style="fill:#fff"/><path d="M280,865.3H276.3c-.36,1.55-1.73,2.72-4.12,3.49l-.52-.77c2.2-.66,3.43-1.57,3.71-2.72H272v-.84h3.57a10.75,10.75,0,0,0,.07-1.15h-3.36v-.83h3.41v-1.12h-3.14V858.3h3.14v-1h-1.82v-2H272v-.85h1.86v-1.39h.88v1.39h2.64v-1.39h.88v1.39H280v.85h-1.79v2h-1.72v1h3v3.06h-3v1.12h3.29v.83h-3.33a11.2,11.2,0,0,1-.07,1.15H280Zm-4.38-4.77v-1.36h-2.3v1.36Zm1.7-4v-1.19h-2.64v1.19ZM280,868l-.56.71a14.77,14.77,0,0,0-2.93-1.51l.53-.67A14.85,14.85,0,0,1,280,868Zm-1.28-7.43v-1.36h-2.16v1.36Zm8.78,7h-5.6v1.22H281V858.37c-.11.19-.27.44-.5.76l-.55-.74a18.72,18.72,0,0,0,2.16-5.47l.78.37a27.74,27.74,0,0,1-.93,3.05h2.37a13,13,0,0,0-.84-2.72l.79-.36a17.34,17.34,0,0,1,1,3.08h1.84v.86H285v2.45h2v.86h-2v2.58h2v.84h-2v2.78h2.5Zm-3.38-7.92V857.2h-2.22v2.45Zm0,3.44v-2.58h-2.22v2.58Zm0,3.62v-2.78h-2.22v2.78Z" style="fill:#fff"/><path d="M306.17,863.89l-.6.78a44,44,0,0,0-7-4.71v8.94h-1V858.77a31.39,31.39,0,0,1-6.86,5.88l-.63-.83q6.63-3.95,9-9.36h-8.64v-1h15.3v1h-5.56a30.13,30.13,0,0,1-1.6,2.94v1.44A56.24,56.24,0,0,1,306.17,863.89Z" style="fill:#fff"/><path d="M312.35,853.21l-.84,2.9v12.71h-.94v-10.3a21.6,21.6,0,0,1-1.55,2.93l-.55-.92a27.29,27.29,0,0,0,3-7.58Zm6.89,13.41a53.38,53.38,0,0,1-6.82,1.89l-.19-.94a20,20,0,0,0,3-.67v-3.81h-2.59v-.88h2.59v-2.56l-2.45.39-.18-.84a23,23,0,0,0,2.65-4.63h-2.32v-.86h6.13v.86h-2.77a38,38,0,0,1-2.34,4.38c.52-.07,1.69-.29,3.49-.65a11.1,11.1,0,0,0-.9-1.64l.81-.38a16.62,16.62,0,0,1,1.85,3.73l-.81.41a7.78,7.78,0,0,0-.55-1.32l-1.68.35v2.76h2.49v.88h-2.49v3.55c1.08-.3,2.09-.62,3-1Zm4.57.75a1.33,1.33,0,0,1-.45,1.18,4.36,4.36,0,0,1-2.1.31c-.46,0-.95,0-1.47-.05l-.33-1c.94.07,1.7.11,2.31.11a2.08,2.08,0,0,0,1-.12c.11-.07.16-.22.16-.44V853.14h.93Zm-2.75-2.19h-.93V854.36h.93Z" style="fill:#fff"/><path d="M213.17,779.22a23.82,23.82,0,0,1-1,4.73l-1.5-.75a20.92,20.92,0,0,0,.92-4.4Zm4.5-1.4-1.48.6a3.32,3.32,0,0,0-.23-.94,47.11,47.11,0,0,1-4.64.94l-.59-1.49a18.43,18.43,0,0,0,3.38-4.13,25.82,25.82,0,0,1-2.82.42l-.37-1.6a18.35,18.35,0,0,0,3.13-5.36l1.64.67a22.83,22.83,0,0,1-2.8,4.45,19.31,19.31,0,0,0,2.3-.42,13,13,0,0,0,.9-1.68l1.55.72a31,31,0,0,1-4.49,6.47c.67-.11,1.44-.27,2.3-.48a4.5,4.5,0,0,0-.37-1l1.47-.65A16.1,16.1,0,0,1,217.67,777.82ZM215.52,783l-1.59.32a22.46,22.46,0,0,0-.36-4L215,779A19.37,19.37,0,0,1,215.52,783Zm2.19-2.1-1.37.44a12.56,12.56,0,0,0-.59-2.26l1.36-.42A9.22,9.22,0,0,1,217.71,780.86Zm10.71,1.39-1,1.41a11,11,0,0,1-3.9-4.31v4.51h-1.68v-4.51a17.78,17.78,0,0,1-4.32,4.27l-1-1.5a12.9,12.9,0,0,0,4.56-4.45h-3.06V770.8h3.78v-1.39h-4.48v-1.63h4.48v-1.35h1.68v1.35H228v1.63h-4.47v1.39h3.76v6.87h-2.86C224.86,779.09,226.18,780.61,228.42,782.25Zm-6.55-6.14v-3.78h-2.1v3.78Zm-.36-.77-1,.35a17.23,17.23,0,0,0-.51-2.6l.93-.34A16.9,16.9,0,0,1,221.51,775.34Zm4.14.77v-3.78h-2.1v3.78Zm-.3-3a15.68,15.68,0,0,1-.58,2.67l-1-.26a24.76,24.76,0,0,0,.53-2.68Z" style="fill:#fff"/><path d="M238.33,779.18a43.07,43.07,0,0,1-7.26,3l-.4-1.68c1.08-.35,2.06-.7,3-1.06v-9.4h-2.48v-1.72h6.74v1.72h-2.46v8.58c.8-.31,1.69-.71,2.66-1.2Zm9.5-9.06q-.06,4.83-.32,8.4a18.65,18.65,0,0,1-.54,4.22,1.67,1.67,0,0,1-.89.9,6.06,6.06,0,0,1-2.14.26,9.25,9.25,0,0,1-1.27-.06l-.62-1.8a17.7,17.7,0,0,0,1.84.11,5,5,0,0,0,1.18-.08.52.52,0,0,0,.31-.24,11.18,11.18,0,0,0,.25-1.87c.11-1.14.2-2.44.27-3.87s.12-2.84.15-4.2h-3.14q-.27,5.43-1.78,7.89a20.24,20.24,0,0,1-3.44,4.25l-1.33-1.3a14.63,14.63,0,0,0,3.36-4.17,15.19,15.19,0,0,0,1.41-6.67h-2.71v-1.77h2.77l.08-3.69H243c0,.65,0,1.89-.07,3.69Z" style="fill:#fff"/><path d="M255.25,780.21A17.94,17.94,0,0,1,252,784l-1.36-1.19a15.73,15.73,0,0,0,3.12-3.43Zm5.14-1.3h-9.66v-1.58h1.66V770h-1.34v-1.58h1.34v-2.06h1.72v2.06h3v-2.06h1.75v2.06h1.39V770h-1.39v7.33h1.51Zm-3.26-7.5V770h-3v1.41Zm0,2.92v-1.39h-3v1.39Zm0,3v-1.47h-3v1.47Zm2.24,4.52-1.33,1a15.8,15.8,0,0,0-2-2.56l1.32-1A13.14,13.14,0,0,1,259.37,781.85Zm8.25-.32c0,1.54-.73,2.31-2.17,2.31-.37,0-.84,0-1.42,0l-.59-1.72,1.12,0a2.22,2.22,0,0,0,1.12-.17.61.61,0,0,0,.22-.53v-3.55h-3.17a11.83,11.83,0,0,1-2.08,6.2l-1.54-1c1.36-1.75,2-4.37,2-7.88v-8.49h6.47Zm-1.72-10.27v-2.84h-3v2.84Zm0,4.88V773h-3v3.12Z" style="fill:#fff"/><rect x="144.63" y="573.33" width="191.78" height="175" style="fill:#6c90d8"/><rect x="144.63" y="573.33" width="191.78" height="54.02" style="fill:#3a46ac"/><path d="M219.14,593.44l-1.08,1.24a16.24,16.24,0,0,0-2.2-2.32,19,19,0,0,1-1.64,2.34h3.46v1.66h-1.22v1.48h2v1.64h-2v5.24a15.22,15.22,0,0,0,2-.49l.08,1.66q-2.43.68-6,1.39l-.36-1.66c.62-.08,1.51-.24,2.68-.48v-5.66H212.6v-1.64h2.22v-1.48H213.6v-.93a4.81,4.81,0,0,1-.7.65l-.84-1.49a14.37,14.37,0,0,0,3.16-4.71l1.64.46a5.29,5.29,0,0,1-.24.6A17.86,17.86,0,0,1,219.14,593.44Zm-4.74,10.94-1.34.36a21.74,21.74,0,0,0-.6-4.22l1.3-.38A26.3,26.3,0,0,1,214.4,604.38Zm4.25-3.88c-.26,1.72-.46,2.87-.61,3.44l-1.22-.34a33,33,0,0,0,.57-3.46Zm5.37-9.25a19.06,19.06,0,0,1-3.06,1.17v1.86h2v1.57h-2V598H223v1.6H221V602a13,13,0,0,0,2.42-.78l.18,1.64c-.57.22-1.44.51-2.6.86v3.77h-1.64v-3.32a2.19,2.19,0,0,1-.42.11l-.34-1.6.76-.22V591.22a17.62,17.62,0,0,0,3.58-1.3Zm6,14.93-.93,1.44a13.14,13.14,0,0,1-2.83-2.26,15,15,0,0,1-3.1,2.26l-1.1-1.37a11.4,11.4,0,0,0,3.2-2.19,14.71,14.71,0,0,1-1.26-4h-.28v-1.66h5.44V600a11.62,11.62,0,0,1-1.82,4.07A9.41,9.41,0,0,0,230,606.18Zm-.28-8.86h-1.32c-1,0-1.46-.52-1.46-1.56V592.2h-1.06q.06,3.91-1.44,5.62l-1.3-1a5.65,5.65,0,0,0,1.12-3.83v-2.41h4.34v4.74c0,.26.15.4.46.4h.66ZM227.44,600h-1.8a7.71,7.71,0,0,0,.74,2.56A13.21,13.21,0,0,0,227.44,600Z" style="fill:#fff"/><path d="M240.14,594.19,239,595.6a4.63,4.63,0,0,0-.46-.55v1.31H237v1.52h2.3v1.66H237v4.86c.83-.28,1.58-.55,2.24-.8l.18,1.64q-2.72,1.05-6.72,2.2l-.38-1.66c.82-.19,1.8-.45,2.93-.8v-5.44h-2.61v-1.66h2.61v-1.52H233.8v-.78c-.22.22-.45.41-.68.6l-.92-1.55a14.31,14.31,0,0,0,3.5-4.65l1.69.56a3.54,3.54,0,0,1-.21.52A28.1,28.1,0,0,1,240.14,594.19Zm-5.26,10.27-1.48.46a28.18,28.18,0,0,0-.76-4.26l1.46-.4A23.14,23.14,0,0,1,234.88,604.46Zm3.44-9.7a22.46,22.46,0,0,0-2-2.25c-.53.75-1.12,1.5-1.76,2.25Zm1.17,5.67a10.87,10.87,0,0,1-.42,2.87l-1.41-.18a18.74,18.74,0,0,0,.44-2.9ZM250.1,606l-1,1.53a16.28,16.28,0,0,1-3.56-4.14v4.23h-1.72v-4.54a19.65,19.65,0,0,1-4.08,4.47l-.94-1.59a15.38,15.38,0,0,0,4.28-4.52h-2.9v-6.85h3.64v-1.43h-4.3V591.6h4.3v-1.4h1.72v1.4h4.26v1.54h-4.26v1.43h3.68v6.85h-3A13.91,13.91,0,0,0,250.1,606Zm-6.26-6.18v-3.66h-2v3.66Zm-.28-.68-1,.3a16.83,16.83,0,0,0-.52-2.42l1-.31C243.25,597.53,243.43,598.33,243.56,599.12Zm3.94.68v-3.66h-1.94v3.66Zm-.22-2.9a23.34,23.34,0,0,1-.42,2.54l-1-.27a21.87,21.87,0,0,0,.4-2.5Z" style="fill:#fff"/><path d="M256.78,603.9a18,18,0,0,1-3.24,3.78l-1.36-1.18a15.51,15.51,0,0,0,3.11-3.44Zm5.14-1.3h-9.66V601h1.66V593.7h-1.34v-1.59h1.34v-2.06h1.72v2.06h3v-2.06h1.75v2.06h1.4v1.59h-1.4V601h1.52Zm-3.27-7.5v-1.4h-3v1.4Zm0,2.92v-1.38h-3V598Zm0,3v-1.46h-3V601Zm2.25,4.52-1.34,1a15.34,15.34,0,0,0-1.94-2.56l1.32-1A13.55,13.55,0,0,1,260.9,605.54Zm8.24-.32c0,1.54-.72,2.31-2.17,2.31-.36,0-.83,0-1.41,0l-.6-1.71,1.13,0a2.1,2.1,0,0,0,1.12-.18.64.64,0,0,0,.21-.53v-3.54h-3.16a12,12,0,0,1-2.08,6.2l-1.54-1q2-2.61,2-7.88v-8.49h6.46ZM267.42,595v-2.85h-3V595Zm0,4.88v-3.13h-3v3.13Z" style="fill:#fff"/><path d="M174.64,661.73h-2.87l-.15,1.82H161.57l.17-1.82H159v-.68h2.85l.19-1.74h10l-.18,1.74h2.79Zm-2.29,8.16h-7.28l.39.56a16.66,16.66,0,0,1-5.81,1.91l-.54-.84a16.55,16.55,0,0,0,5.65-1.63h-3.47v-5.42h11.06ZM174,660h-.91v-1.69H160.57V660h-.92v-2.4h6.66a4.24,4.24,0,0,0-.47-.77l.86-.31c.16.23.37.59.64,1.08H174Zm-2.53,6v-.83h-9.29V666Zm0,1.56v-.84h-9.29v.84Zm0,1.57v-.85h-9.29v.85Zm-5.17-7.44h-3.6l-.11,1.08h3.63Zm.18-1.7h-3.61l-.12,1h3.64Zm4.39,1.7H167.2l-.08,1.08h3.64Zm.21-1.7h-3.66l-.09,1H171Zm3.35,11.53-.35.78a28,28,0,0,0-6-1.34l.38-.72A29.42,29.42,0,0,1,174.4,671.56Z" style="fill:#fff"/><path d="M186.25,669.71h-3.78v2.57h-.9v-2.57h-4.18v-.85h4.18v-1.4h-3.34v-6h7.56v6h-3.32v1.4h3.78Zm-4.79-9.3h-3.65v-3.49h3.65Zm-.86-.83v-1.77h-1.91v1.77Zm1,4.38v-1.61h-2.43V664Zm0,2.63v-1.74h-2.43v1.74Zm3.29-2.63v-1.61h-2.39V664Zm0,2.63v-1.74h-2.39v1.74Zm1.37-6.18H182.6v-3.49h3.63Zm-.87-.83v-1.75h-1.9v1.75Zm7.75,9.48a8.44,8.44,0,0,1-.82,2.49,1.28,1.28,0,0,1-1.11.72c-.83,0-1.52-1.06-2.08-3.17a19.77,19.77,0,0,1-3,2.71l-.68-.65a18.53,18.53,0,0,0,3.49-3.16,36.93,36.93,0,0,1-.5-5.36l-1.77.14-.07-.9a14.33,14.33,0,0,0,1.78-.17l-.06-5.16h.93v5.08q1.13-.06,3.63-.33l.08.91-3.62.31a33.06,33.06,0,0,0,.34,4.45,16.39,16.39,0,0,0,2.08-3.8l.8.43a22.88,22.88,0,0,1-2.69,4.62,13.68,13.68,0,0,0,.47,1.69,3.86,3.86,0,0,0,.52,1.08c.16.21.29.31.4.31a.34.34,0,0,0,.22-.07,2.86,2.86,0,0,0,.4-.87,10,10,0,0,0,.48-1.91Zm-.63-9.2-.78.49a12.4,12.4,0,0,0-1.63-2.47l.73-.46A11.2,11.2,0,0,1,192.48,659.86Z" style="fill:#fff"/><path d="M211.49,667.59h-7.35v4.69h-.92v-4.69h-7.34v-.91h7.34v-1.33h.92v1.33h7.35Zm-9.83,1.34a19.53,19.53,0,0,1-5,3.05l-.65-.74a17.73,17.73,0,0,0,4.83-2.86Zm9.27-7.36h-4.18a10.49,10.49,0,0,1-1.76,2q2.76.69,5.62,1.7l-.55.79a57.89,57.89,0,0,0-5.92-1.82q-2.38,1.51-7.56,1.58l-.47-.87c3.12,0,5.35-.34,6.72-1q-2.25-.56-4.23-.93a18.15,18.15,0,0,0,1.42-1.48H196.4v-.86h4.38c.47-.56.92-1.14,1.36-1.75l.83.36a13,13,0,0,1-1.05,1.39h4.31a5.52,5.52,0,0,0,.5-.92l.91.18a4.27,4.27,0,0,1-.33.74h3.62Zm-.16-1.69h-1v-1.14H197.57v1.14h-.95v-2h6.75c-.15-.31-.34-.67-.58-1.08l.9-.29c.17.27.43.73.79,1.37h6.29Zm-5.17,1.69h-4.41c-.22.29-.5.6-.81.94.74.15,1.92.42,3.55.8A7.18,7.18,0,0,0,205.6,661.57Zm5.75,9.64-.69.69a28.08,28.08,0,0,0-5-2.73l.66-.76A29.06,29.06,0,0,1,211.35,671.21Z" style="fill:#fff"/><path d="M218.53,657c-.2.59-.47,1.3-.8,2.12l-.5,1.19v12h-.9V662a21.67,21.67,0,0,1-1.77,2.56l-.48-1.05a20.34,20.34,0,0,0,3.58-6.94Zm6.41.95h-3a29.64,29.64,0,0,1-.75,3.24h3.36a16.78,16.78,0,0,1-1.18,6.34,11.87,11.87,0,0,1-3.93,4.88l-.62-.7A12,12,0,0,0,222.6,667a13.13,13.13,0,0,0-2.82-2.61,10,10,0,0,1-1.47,1.87l-.63-.65c1.68-1.74,2.79-4.31,3.33-7.73h-2.09V657h6Zm-1.32,4.17H220.9a16.46,16.46,0,0,1-.63,1.53A16.45,16.45,0,0,1,223,666,17.72,17.72,0,0,0,223.62,662.07Zm5.8,9.09a.94.94,0,0,1-.46.82,3.37,3.37,0,0,1-1.77.32H226l-.35-.92a18,18,0,0,0,2.59-.08.37.37,0,0,0,.23-.4V656.56h.93ZM226.57,669h-.9V657.94h.9Z" style="fill:#fff"/><path d="M239.9,669.71h-3v2.53H236v-2.53h-3.32v-.87H236v-1.6h-2.5v-6.87H236v-1.61h-3.1v-.84H236v-1.41h.88v1.41h2.67v.84h-2.67v1.61h2.5v6.87h-2.5v1.6h3ZM236,663.39v-2.12h-1.6v2.12Zm0,3v-2.11h-1.6v2.11Zm2.48-3v-2.12h-1.6v2.12Zm0,3v-2.11h-1.6v2.11Zm9.8-7h-3.7v1.81h3v10a1,1,0,0,1-.32.68.91.91,0,0,1-.65.34h-1.08l-.26-.88c.37,0,.69,0,1,0s.45-.14.45-.43V668.2h-2.17V672h-.91V668.2h-2.14v4h-.9v-11h3v-1.81h-3.64v-.82h3.64v-2.09h.91v2.09h3.7Zm-4.61,4.76v-2.09h-2.14v2.09Zm0,3.2V665h-2.14v2.34Zm3.08-3.2v-2.09h-2.17v2.09Zm0,3.2V665h-2.17v2.34Zm.73-9.72-.61.65a9.19,9.19,0,0,0-1.48-1.14l.57-.68A8.2,8.2,0,0,1,247.52,657.63Z" style="fill:#fff"/><path d="M266.78,666.28l-.24.8h-6.37a14.82,14.82,0,0,1-4.38-.44,6.46,6.46,0,0,1-2-1,12.35,12.35,0,0,1-2.17,1.72l-.56-.7a8.54,8.54,0,0,0,3.28-3.29h-2.89v-.85a26,26,0,0,0,2.61-2.2h-2.84v-.84h4v.84a22.41,22.41,0,0,1-2.45,2.22h2.45v.83a6.12,6.12,0,0,1-1,1.67,5.26,5.26,0,0,0,1.82.92,17.12,17.12,0,0,0,4.35.35Zm0,2.78h-3.37v1.82a1.25,1.25,0,0,1-.43,1,2.88,2.88,0,0,1-1.68.34H260l-.29-.88c1.19,0,1.94,0,2.26,0s.48-.16.48-.41v-1.89H251.17v-.89h11.28v-.6h.91v.6h3.37Zm-12-10.64-.65.6a16.86,16.86,0,0,0-2.52-1.89l.68-.58A14,14,0,0,1,254.76,658.42Zm3.16,12.48-.57.72a15,15,0,0,0-2.9-1.37l.56-.72A15.2,15.2,0,0,1,257.92,670.9Zm8.77-12.16h-4.91a7.6,7.6,0,0,1-.53.94h4.52v5.53h-9.1v-5.53h3.62a5.22,5.22,0,0,0,.53-.94h-5.18v-.8h11.05Zm-7.18-1.47-.77.47a6.17,6.17,0,0,0-1.21-.79l.77-.49A4.42,4.42,0,0,1,259.51,657.27Zm5.35,4v-.83h-7.25v.83Zm0,1.62V662h-7.25v.92Zm0,1.59v-.93h-7.25v.93Zm0-7.57a9,9,0,0,1-1.32.79l-.76-.54a5.71,5.71,0,0,0,1.34-.73Z" style="fill:#fff"/><path d="M274.27,659.27h-4.68v-.89h2.21a7,7,0,0,0-.7-1.63l.82-.38a13.46,13.46,0,0,1,.81,2h1.54Zm-.18,2.53H270V661h4.14Zm0,2.73H270v-.86h4.14Zm-.25,7.34h-.9v-1h-2.1v1.4H270v-6h3.89Zm-.9-1.84v-2.86h-2.1V670Zm12.22-2.57h-5.9a7.6,7.6,0,0,1-1.82,1.65v2.13a23.38,23.38,0,0,0,2.5-.72v.86a32,32,0,0,1-3.44,1l-.23-.84a.78.78,0,0,0,.31-.64v-1.25a13.59,13.59,0,0,1-2,.91l-.53-.77a9.67,9.67,0,0,0,4.08-2.31h-3.63v-.83h3v-1H275.1v-.81h2.47v-.94h-2.74v-.75h2.74v-.87h.88v.87h3v-.87h.89v.87h2.52v.75h-2.52v.94h2.09v.81h-2.09v1h2.83Zm-.16-8.84H275v-.81h4.5a4.12,4.12,0,0,0-.55-1l.77-.36a12.18,12.18,0,0,1,.69,1.35H285Zm-5.61,3.18h-3.91v-2.37h3.91Zm-.82-.75v-.86h-2.28v.86Zm2.87,3.8v-.94h-3v.94Zm0,1.78v-1h-3v1Zm3.77,5.11-.43.76a8.7,8.7,0,0,1-4.75-4l.74-.36a5.81,5.81,0,0,0,1.11,1.53,9.35,9.35,0,0,0,1.45-1.58l.66.48a11,11,0,0,1-1.54,1.65A9.05,9.05,0,0,0,285.21,671.74Zm-.73-9.94h-4v-2.37h4Zm-.83-.75v-.86h-2.32v.86Z" style="fill:#fff"/><path d="M292.69,656.84c-.19.47-.46,1.07-.8,1.81l-.52,1.07v12.62h-.93V661.56a24,24,0,0,1-2.06,3l-.5-1a27.11,27.11,0,0,0,3.92-7.09Zm10.47,2a23.92,23.92,0,0,1-1.35,4.56L301,663a16.79,16.79,0,0,0,1.08-3.23H295.4a19,19,0,0,1-2.63,4l-.59-.81a18.72,18.72,0,0,0,3.49-6.4l1,.24c-.17.52-.44,1.19-.79,2Zm-7.05,5.31a21.77,21.77,0,0,1-3,6.12l-.77-.54a22.35,22.35,0,0,0,2.83-5.88Zm2.39,6.62a1.63,1.63,0,0,1-.43,1.24,2.76,2.76,0,0,1-1.77.39c-.32,0-.63,0-.95-.05l-.38-1c.62,0,1.18.08,1.67.08s.94-.22.94-.66V661.2h.92Zm5.23-.89-.91.41a44.21,44.21,0,0,0-2.81-6l.83-.41A48.87,48.87,0,0,1,303.73,669.84Z" style="fill:#fff"/><path d="M312.77,670.14c-2.62.93-4.66,1.59-6.12,2l-.23-.9a4.75,4.75,0,0,0,.83-.27v-7h.9v6.78c.13,0,.64-.16,1.51-.41v-7.78h-2.39v-5.38h5v5.38h-1.66V665h2v.88h-2V670c.49-.14,1.2-.39,2.15-.76Zm-1.42-8.51v-3.57h-3.17v3.57Zm9.94-2.34c0,1.47,0,3-.08,4.47s-.09,2.58-.13,3.21a2,2,0,0,1-.56,1.39,1.75,1.75,0,0,1-1.19.45l-1.53,0-.34-.93c.29,0,.91,0,1.85,0a.83.83,0,0,0,.69-.34,9.56,9.56,0,0,0,.33-3.26c0-1.93,0-3.31,0-4.12h-5.76a17.62,17.62,0,0,1-1.48,1.83l-.61-.75a14.6,14.6,0,0,0,3-4.83l.85.36a18.91,18.91,0,0,1-1.23,2.51Zm.77,10.27a5.93,5.93,0,0,1-.3,1.28,2,2,0,0,1-.56.91,1.54,1.54,0,0,1-.87.32c-.36,0-1,0-2,0-1.95,0-3.08,0-3.41-.08a1.33,1.33,0,0,1-.8-.46,1.55,1.55,0,0,1-.32-1v-8.66h4.57v5.06h-3.67v3.51c0,.36.11.57.33.64a14.06,14.06,0,0,0,2.45.11q2.43,0,3-.06c.37,0,.62-.69.75-1.94ZM317.42,666V662.8h-2.74V666Z" style="fill:#fff"/><path d="M164.47,684.68a17.74,17.74,0,0,1-1.75,2.47v9.2h-.93v-8.1a25.51,25.51,0,0,1-2.34,2.16l-.49-.74a20.78,20.78,0,0,0,4.72-5.51Zm-.41-3.58a16.74,16.74,0,0,1-4.52,3.75l-.54-.74a15.58,15.58,0,0,0,4.28-3.59Zm10.6,5.76h-2.84v8a1.32,1.32,0,0,1-.3.92,1.28,1.28,0,0,1-.69.42,10.43,10.43,0,0,1-1.56.07q-1,0-1.62,0l-.38-1c.51,0,1,0,1.61,0a11.08,11.08,0,0,0,1.75-.07.29.29,0,0,0,.18-.31v-8.07h-6.34v-1h10.19Zm-.88-4.55h-8.55v-.95h8.55Z" style="fill:#fff"/><path d="M193.05,691.77h-7.3v4.58h-1v-4.58h-7.4v-.89h7.4V689.4h-6.61v-.84h6.61v-1.41h-7v-.88h4.7a8.16,8.16,0,0,0-1-1.41l.68-.43h-4.79v-.9h5.94v-2.91h.93v2.91h2v-2.91h.89v2.91H193v.9h-4.69l.66.45a6.53,6.53,0,0,1-.9,1.39h4.55v.88h-6.89v1.41h6.46v.84h-6.46v1.48h7.3Zm-9.86,1.37A19.18,19.18,0,0,1,178,695.9l-.59-.8a17.18,17.18,0,0,0,5.06-2.57Zm-1.69-10.47-.79.46a11.87,11.87,0,0,0-1.77-1.81l.82-.56A14.14,14.14,0,0,1,181.5,682.67Zm6.61,1.76H182.4a15.28,15.28,0,0,1,1.19,1.84H187A7.89,7.89,0,0,0,188.11,684.43Zm5,10.89-.53.74a35.46,35.46,0,0,0-5.26-2.85l.54-.72A32.32,32.32,0,0,1,193.07,695.32Zm-1.46-14.11a8.26,8.26,0,0,1-1.82,1.87l-.82-.47a12.58,12.58,0,0,0,1.8-1.81Z" style="fill:#fff"/><path d="M197.79,692a17,17,0,0,1-1.17,4.1l-.83-.41a21.46,21.46,0,0,0,1.15-3.89ZM202,690.7l-.83.32c-.06-.34-.12-.62-.18-.83-1.78.49-3.38.87-4.83,1.13l-.32-.77a19.56,19.56,0,0,0,3.59-4.31c-1,.18-2.07.36-3.21.51l-.21-.82a17.69,17.69,0,0,0,3.13-5.39l.88.24a20.91,20.91,0,0,1-2.69,5c.75-.09,1.63-.23,2.65-.42a17.86,17.86,0,0,0,1.16-2.08l.88.34a31.41,31.41,0,0,1-4.54,6.59c1.05-.21,2.12-.47,3.22-.78a6.32,6.32,0,0,0-.52-1.25l.83-.33A12.59,12.59,0,0,1,202,690.7Zm-2,4.91-.88.18a20.07,20.07,0,0,0-.34-3.78l.81-.16A15.09,15.09,0,0,1,200,695.61Zm2.43-1.45-.79.3a14.36,14.36,0,0,0-.77-2.55l.76-.31A11.56,11.56,0,0,1,202.43,694.16Zm2.6-4.81-.79.38a21.57,21.57,0,0,0-2.25-3.51,26.06,26.06,0,0,0,2-3.31l.84.32a18.13,18.13,0,0,1-1.77,3A18.52,18.52,0,0,1,205,689.35Zm6.44,6.55h-9.29V695h4.16v-3.68h-3.67v-.91H211v.91h-3.73V695h4.18Zm-.22-14H202.2V681h9.05Zm-3,7.31-.8.45a22.94,22.94,0,0,0-2.18-3.4,20.79,20.79,0,0,0,1.9-3.23l.92.29a23.21,23.21,0,0,1-1.79,2.92A27.51,27.51,0,0,1,208.23,689.24Zm3.19,0-.79.43a21.72,21.72,0,0,0-2.22-3.37,22.61,22.61,0,0,0,1.94-3.33l.88.33a28.76,28.76,0,0,1-1.72,2.93A28.3,28.3,0,0,1,211.42,689.28Z" style="fill:#fff"/><path d="M215.52,690.74a26,26,0,0,1-.49,4.36l-.84-.19a23.64,23.64,0,0,0,.56-4.25Zm5.21-8.85h-2v1.74h1.69v.84h-1.69v1.69h1.69V687h-1.69v1.79h1.69c0,1,0,1.81,0,2.43q0,1.9-.12,3.06a3.36,3.36,0,0,1-.38,1.49,1.19,1.19,0,0,1-.68.44,7.15,7.15,0,0,1-1.49.1l-.27-.92,1.08,0a.82.82,0,0,0,.79-.5,14,14,0,0,0,.22-3.5c0-.65,0-1.23,0-1.74h-4.42V681h5.62Zm-4,13-.74.1c0-.56,0-1.11,0-1.64,0-.94,0-1.78-.11-2.52l.69-.1c.1,1.68.15,2.75.15,3.2S216.78,694.57,216.76,694.88Zm1-11.27v-1.72H216v1.72Zm0,2.55v-1.67H216v1.67Zm0,2.67V687H216v1.79Zm.38,5.33-.72.1a20.26,20.26,0,0,0-.38-3.51l.67-.15A26.7,26.7,0,0,1,218.15,694.16Zm1.12-1-.62.15a23.12,23.12,0,0,0-.54-2.82l.58-.14A23.32,23.32,0,0,1,219.27,693.2Zm10.7-8.32-.46.78a12.45,12.45,0,0,1-4.36-3.82,16.56,16.56,0,0,1-4.09,3.75l-.55-.76a13.38,13.38,0,0,0,4.43-4.36l.91.29c0,.09-.09.2-.16.33A12.36,12.36,0,0,0,230,684.88Zm-5,9.74-.65.67a9.58,9.58,0,0,0-1.33-1.53,13.42,13.42,0,0,1-1.69,2.55l-.74-.5a12.44,12.44,0,0,0,2.37-4.41l.85.29c-.17.51-.32.92-.44,1.22A15.74,15.74,0,0,1,225,694.62Zm-.24-3.66H221.3v-4.28h3.43Zm-.86-.84v-2.59h-1.73v2.59Zm3.64-4.7H222.7v-.86h4.81ZM230,695.67l-.66.62A13,13,0,0,0,227.1,694a13.76,13.76,0,0,1-1.65,2.4l-.73-.57a12.18,12.18,0,0,0,2.5-4.52l.88.31c-.17.5-.38,1-.62,1.55A15.89,15.89,0,0,1,230,695.67Zm-.8-4.71h-3.48v-4.28h3.48Zm-.85-.84v-2.59h-1.78v2.59Z" style="fill:#fff"/><path d="M238.56,689.44l-.48.8a16.22,16.22,0,0,0-2-2.23v8.26h-.93v-7.88a18,18,0,0,1-2,3.66l-.69-.65a22.32,22.32,0,0,0,2.65-5.45h-2.47v-.87h2.47v-2.72a15.25,15.25,0,0,1-1.91.4l-.45-.8a24.8,24.8,0,0,0,4.8-1.32l.6.72a16.09,16.09,0,0,1-2.11.74v3h1.61V686h-1.61v.91A19.94,19.94,0,0,1,238.56,689.44Zm8.76,4.42h-5.27l.43.51a18,18,0,0,1-4.21,1.87l-.5-.78a17.79,17.79,0,0,0,3.83-1.6h-2.18v-6.57h7.9Zm1-7.59h-9.91v-.77H243v-1.12h-3.72v-.77H243v-1.05h-4.16v-.77H243v-1.28h.9v1.28h4.07v.77h-4.07v1.05h3.62v.77h-3.62v1.12h4.48Zm-1.92,3v-1.13h-6.12v1.13Zm0,1.91V690h-6.12v1.14Zm0,1.9v-1.15h-6.12v1.15Zm1.89,2.45-.45.79a20.86,20.86,0,0,0-3.73-1.26l.38-.82A25.28,25.28,0,0,1,248.32,695.52Z" style="fill:#fff"/><path d="M257,693.59a19.84,19.84,0,0,1-5.38,2.2l-.53-.79a19.85,19.85,0,0,0,5.12-1.94Zm9.44-1.27-.64.63a14.61,14.61,0,0,0-1-1.18c-2.46.24-4.25.4-5.36.48v2.64a1.31,1.31,0,0,1-.4,1.12,3.09,3.09,0,0,1-1.62.29l-.76,0-.36-1a10.07,10.07,0,0,0,1.2.06,1.76,1.76,0,0,0,.84-.12.41.41,0,0,0,.16-.36v-2.55q-3.47.17-6.27.17l-.32-.86a33.08,33.08,0,0,0,6.78-2.23c-1.94.19-3.63.29-5.07.31l-.25-.76a21.84,21.84,0,0,0,4.22-2.2h-4.88V681h12.54v5.77h-6.08A19,19,0,0,1,255,689l1.5-.12,3.34-.33a7,7,0,0,0,1.36-.25l1.63-.79.73.56a50,50,0,0,1-9.11,3.67c3.25-.13,6.45-.37,9.58-.73a13.44,13.44,0,0,0-1.42-1.18l.65-.63A16.19,16.19,0,0,1,266.47,692.32Zm-8-8.86v-1.58h-4.86v1.58Zm0,2.43V684.3h-4.86v1.59Zm5.86-2.43v-1.58h-4.93v1.58Zm0,2.43V684.3h-4.93v1.59Zm2.44,9.38-.55.74a26.31,26.31,0,0,0-5.29-2.29l.51-.73A27.44,27.44,0,0,1,266.8,695.27Z" style="fill:#fff"/><path d="M285.3,695.93H269.54v-.71h2.72V691h10.26v4.26h2.78Zm-.5-3.95h-.88v-1.84H270.85V692h-.92v-2.53H284.8Zm-8-3.34h-6.4v-3.41h6.4Zm-3.58-2v-.83h-2v.83Zm0,1.4v-.85h-2v.85Zm9.72-3.69H271.82V681h11.11Zm-6-2v-.81h-4.21v.81Zm0,1.37V683h-4.21v.79Zm4.67,8.64v-.79h-8.42v.79Zm0,1.41V693h-8.42v.81Zm0,1.39v-.8h-8.42v.8Zm-5.65-8.55v-.83H274v.83Zm0,1.4v-.85H274v.85Zm6.11-5.66v-.81h-4.24v.81Zm0,1.37V683h-4.24v.79Zm2.32,4.86H278v-3.41h6.41Zm-3.58-2v-.83h-2v.83Zm0,1.4v-.85h-2v.85Zm2.75-1.4v-.83h-1.9v.83Zm0,1.4v-.85h-1.9v.85Z" style="fill:#fff"/><path d="M303.73,695.38l-.34.89a28.66,28.66,0,0,1-8.94-1.74,11.84,11.84,0,0,1-6,1.84l-.47-.92a11.61,11.61,0,0,0,5.45-1.35,17,17,0,0,1-3.31-2.05l.76-.59a12.39,12.39,0,0,0,3.29,2,5.17,5.17,0,0,0,1.19-2.81h-5.58v-6.74h5.67v-2h-7.32v-.88h15.46v.88H296.4v2h5.5v6.74h-5.6a6.48,6.48,0,0,1-1.19,3.17A29,29,0,0,0,303.73,695.38Zm-8.29-8.63v-1.92h-4.68v1.92Zm0,.88h-4.66v2.13h4.62c0-.47.06-.93.06-1.37C295.44,688.13,295.43,687.88,295.42,687.63Zm5.51,2.13v-2.13h-4.52c0,1,0,1.67-.05,2.13Zm0-3v-1.92h-4.52v1.92Z" style="fill:#fff"/><path d="M321.81,683H306.65v-.86h7.13a5.21,5.21,0,0,0-.52-1.44l.92-.29a8.61,8.61,0,0,1,.58,1.73h7.05ZM321,694.88a1.58,1.58,0,0,1-.32,1,2.19,2.19,0,0,1-1.57.38l-1,0-.31-.94,1.46,0c.53,0,.79-.22.79-.66v-5H308.4v6.56h-.92V688.8H321Zm-1.76-7.28H309.19v-3.42h10.08Zm-1-.88v-1.64h-8.12v1.64Zm-.36,7.73h-7.38v-3.52h7.38Zm-1-.88v-1.76h-5.45v1.76Z" style="fill:#fff"/><rect x="144.63" y="398.16" width="191.78" height="175" style="fill:#6c90d8"/><rect x="144.63" y="398.16" width="191.78" height="54.02" style="fill:#3a46ac"/><path d="M229.66,429.65q-.49,4-2.32,4T224.1,430a27,27,0,0,1-4.46,3.78l-1.24-1.31a22.24,22.24,0,0,0,5.07-4.28,38,38,0,0,1-1.15-7.27h-6.81v2.18h5.29c-.07,1.64-.14,2.93-.23,3.85s-.17,1.63-.23,2.11a2.7,2.7,0,0,1-.5,1.26,1.7,1.7,0,0,1-1,.68,7.63,7.63,0,0,1-1.51.13c-.31,0-.64,0-1,0l-.49-1.66,1,0c1,0,1.48-.11,1.6-.32a6.3,6.3,0,0,0,.33-1.79c.09-1,.15-1.82.16-2.5h-3.52q-.15,5.73-2.14,8.9l-1.38-1.3q1.8-3,1.8-9v-4.26h8.45c0-1.06-.05-2.13,0-3.18H224c0,.33,0,.68,0,1,0,.64,0,1.35.09,2.14h5.23v1.7h-5.13a30.19,30.19,0,0,0,.74,5.48A20.55,20.55,0,0,0,227,421.9l1.6.57a22,22,0,0,1-3.14,5.92,10,10,0,0,0,.85,2.12,4.67,4.67,0,0,0,.65,1,.52.52,0,0,0,.29.09.34.34,0,0,0,.28-.11,3.13,3.13,0,0,0,.29-1,11.35,11.35,0,0,0,.23-1.7Zm-1-12-1,1.29a12.8,12.8,0,0,0-2.86-1.49l1-1.33A11.64,11.64,0,0,1,228.7,417.67Z" style="fill:#fff"/><path d="M249.54,426.18H236.3v5a30.81,30.81,0,0,0,4.18-1.26l.12,1.79a54.87,54.87,0,0,1-6.06,1.74L234,432a.83.83,0,0,0,.44-.73v-5.07h-2.34v-1.66h2.78v-8.15h13.44V418H236.75v1.16H247.3v1.55H236.75v1.18H247.3v1.47H236.75v1.19h12.79Zm.15,5.72-.86,1.66a17.8,17.8,0,0,1-5.61-2.19,14.12,14.12,0,0,1-3.78-3.9l1.56-.86a14.31,14.31,0,0,0,2,2.5,17.78,17.78,0,0,0,3.59-2.53l1.36,1.16a20.38,20.38,0,0,1-3.42,2.43A15.19,15.19,0,0,0,249.69,431.9Z" style="fill:#fff"/><path d="M256.6,429.84a18.54,18.54,0,0,1-3.24,3.78L252,432.44a15.74,15.74,0,0,0,3.11-3.44Zm5.14-1.3h-9.66V427h1.66v-7.33H252.4v-1.58h1.34V416h1.72v2.06h3V416h1.75v2.06h1.4v1.58h-1.4V427h1.52Zm-3.27-7.5v-1.41h-3V421Zm0,2.92v-1.39h-3V424Zm0,3v-1.47h-3V427Zm2.25,4.52-1.34,1a15.8,15.8,0,0,0-1.94-2.55l1.32-1A13.55,13.55,0,0,1,260.72,431.48Zm8.24-.32c0,1.54-.72,2.31-2.17,2.31-.36,0-.83,0-1.41,0l-.6-1.72,1.13,0a2.27,2.27,0,0,0,1.12-.17.64.64,0,0,0,.21-.53v-3.55h-3.16A12,12,0,0,1,262,433.7l-1.54-1c1.36-1.75,2-4.37,2-7.88v-8.49H269Zm-1.72-10.27v-2.84h-3v2.84Zm0,4.89v-3.13h-3v3.13Z" style="fill:#fff"/><path d="M176,488.92h-3.8v1.76c0,1-.56,1.51-1.68,1.51-.44,0-1,0-1.67,0l-.43-.89,1.42,0a4.38,4.38,0,0,0,1.23-.09.4.4,0,0,0,.17-.37v-1.9H160.31v-.85H171.2v-.9h1v.9H176Zm-.24-10.51h-7.08v1.24h5.68v4.89h-.94a13.14,13.14,0,0,1,2.2,2.42l-.76.52a6.62,6.62,0,0,0-.86-1.08q-7.26.54-13.05.58l-.24-.84q3.29,0,7-.14v-1.46H162v-4.89h5.73v-1.24h-7.15v-.83h7.15v-1.12h.94v1.12h7.08Zm-8,3.25v-1.21h-4.79v1.21Zm0,2.07v-1.27h-4.79v1.27ZM166.53,491l-.6.72a13,13,0,0,0-2.65-1.79l.6-.69A12.64,12.64,0,0,1,166.53,491Zm6.87-9.31v-1.21h-4.76v1.21Zm0,2.07v-1.27h-4.76v1.27Zm-.21,1.89c-.33-.33-.56-.54-.67-.63l.59-.45h-4.47V486C170.52,485.85,172,485.74,173.19,485.62Z" style="fill:#fff"/><path d="M183.1,476.66c-.18.53-.44,1.15-.77,1.87l-.48,1v12.61h-1V481.5a19.32,19.32,0,0,1-1.94,2.85l-.54-1a25.12,25.12,0,0,0,3.8-7.06Zm11.2,8H189v6.13h4.82v.92H183.12v-.92h4.93v-6.13h-5.36v-.94h5.36v-6h-4.48v-.92h9.94v.92H189v6h5.27Z" style="fill:#fff"/><path d="M212.82,486.16l-.24.8h-6.37a14.74,14.74,0,0,1-4.38-.45,6.34,6.34,0,0,1-2-1,11.91,11.91,0,0,1-2.17,1.72l-.56-.7a8.54,8.54,0,0,0,3.28-3.29H197.5v-.85a26,26,0,0,0,2.61-2.2h-2.84v-.84h4v.84a22.32,22.32,0,0,1-2.45,2.22h2.45v.83a6.12,6.12,0,0,1-.95,1.67,5.45,5.45,0,0,0,1.82.93,17.62,17.62,0,0,0,4.35.35Zm0,2.78H209.4v1.81a1.24,1.24,0,0,1-.43,1,2.9,2.9,0,0,1-1.69.34H206l-.29-.87c1.19,0,1.94,0,2.26,0s.48-.16.48-.42v-1.88H197.21v-.89h11.28v-.61h.91v.61h3.37Zm-12-10.65-.65.6a16.86,16.86,0,0,0-2.52-1.89l.68-.58A14.45,14.45,0,0,1,200.8,478.29ZM204,490.77l-.57.72a15,15,0,0,0-2.9-1.37l.56-.72A15.2,15.2,0,0,1,204,490.77Zm8.77-12.15h-4.91a8.46,8.46,0,0,1-.53.94h4.52v5.53h-9.1v-5.53h3.62a5.58,5.58,0,0,0,.53-.94h-5.18v-.81h11Zm-7.18-1.48-.77.47a6.66,6.66,0,0,0-1.21-.79l.77-.49A4.42,4.42,0,0,1,205.55,477.14Zm5.35,4v-.82h-7.25v.82Zm0,1.62v-.92h-7.25v.92Zm0,1.59v-.92h-7.25v.92Zm0-7.57a8.23,8.23,0,0,1-1.32.79l-.76-.53a5.76,5.76,0,0,0,1.34-.74Z" style="fill:#fff"/><path d="M221.88,491.08h-4.63v1.13h-.94V478.53h1.84a13.81,13.81,0,0,0,1-2.13l.89.27a10.16,10.16,0,0,1-.88,1.86h2.31v4.84h-4.2v2.34h4.63Zm-1.39-8.57v-3.08h-3.24v3.08Zm.44,7.66V486.6h-3.68v3.57Zm10.38-12.34h-3.85v2.54h3.09v9.27c0,1-.69,1.39-2.06,1.27l-.29-.93.69,0c.5,0,.75-.17.75-.5v-8.27h-2.18v11h-.93v-11h-2.22v9.67h-.94V480.37h3.16v-2.54h-4v-.94h8.75Z" style="fill:#fff"/><path d="M249.63,479.07h-3.11v1.44a.46.46,0,0,0,.15.33.48.48,0,0,0,.34.14h2.25v.86H247c-.9,0-1.35-.41-1.35-1.24v-1.53h-1.86V482h-4.31v-2.88h-1.82a4.38,4.38,0,0,1-2.49,3.67l-.74-.69a3.62,3.62,0,0,0,2.25-3H234v-.92h2.78l.05-1.71h.88a14.4,14.4,0,0,1,0,1.71h1.79v-1.69h.93v1.69h2.45v-1.69h.93v1.69h1.86v-1.71h.92v1.71h3.11Zm-.7,7.76H248V484H242.3v2h4.88V490a1.34,1.34,0,0,1-.38,1c-.25.24-1.17.35-2.75.35l-.32-1a21.06,21.06,0,0,0,2.33-.06.33.33,0,0,0,.23-.36v-3h-4v5.2h-.91v-5.2h-4v4.41h-.91V486h4.91v-2h-5.7v2.81h-1v-3.71h14.2Zm-6.12-5.78v-2h-2.45v2Z" style="fill:#fff"/><path d="M261.49,477.55a22.76,22.76,0,0,1-2.51,3.5h1.94v.88h-2.79c-.66.68-1.26,1.26-1.82,1.73h3.48v.81q-1.12,1.13-2.34,2.13v.88c1.07-.18,2.15-.4,3.23-.67l0,.94c-1,.23-2.07.45-3.2.64v2.47a1.29,1.29,0,0,1-.33.93c-.22.24-.74.35-1.56.35-.3,0-.61,0-.94,0l-.29-1c.31,0,.7,0,1.14,0a2.12,2.12,0,0,0,.93-.11.46.46,0,0,0,.16-.4v-2.11c-1.58.26-2.86.44-3.85.56l-.22-.86c1.54-.21,2.9-.42,4.07-.64v-1.41c.63-.53,1.25-1.09,1.86-1.7h-3.28c-.78.58-1.5,1.07-2.17,1.48l-.62-.77a22.85,22.85,0,0,0,4.55-3.3h-4.21v-.88H256V479h-2.76v-.84H256V476.4h.91v1.75H259V479H256.9v2.06h.89a19,19,0,0,0,2.88-3.93Zm6.77,13.83-.57.85a13.4,13.4,0,0,1-3.42-3,16.53,16.53,0,0,1-4,3l-.6-.81a14,14,0,0,0,4-3,16.35,16.35,0,0,1-1.53-4.61l.91-.33a14.16,14.16,0,0,0,1.24,4.14,12.63,12.63,0,0,0,1.73-7.35h-2.74a21.09,21.09,0,0,1-2.29,4.23l-.72-.67a16,16,0,0,0,3-7.42l.92.24c-.2,1-.42,1.9-.66,2.69h4.5v.93H267c0,3.53-.73,6.27-2.14,8.24A11,11,0,0,0,268.26,491.38Z" style="fill:#fff"/><path d="M278.09,489.59h-3v2.53h-.88v-2.53h-3.32v-.87h3.32v-1.6h-2.5v-6.88h2.5v-1.61h-3.1v-.84h3.1v-1.41h.88v1.41h2.67v.84h-2.67v1.61h2.5v6.88h-2.5v1.6h3Zm-3.85-6.32v-2.13h-1.6v2.13Zm0,3v-2.11h-1.6v2.11Zm2.48-3v-2.13h-1.6v2.13Zm0,3v-2.11h-1.6v2.11Zm9.79-7h-3.69v1.8h3v10a1,1,0,0,1-.31.69.9.9,0,0,1-.65.33l-1.08,0-.26-.88,1,0c.3,0,.45-.14.45-.43v-2.77h-2.17v3.84h-.91v-3.84h-2.15v4.05h-.89V481.07h3v-1.8h-3.64v-.83h3.64v-2.09h.91v2.09h3.69Zm-4.6,4.75v-2.09h-2.15V484Zm0,3.2v-2.34h-2.15v2.34ZM285,484v-2.09h-2.17V484Zm0,3.2v-2.34h-2.17v2.34Zm.73-9.72-.61.65a8.61,8.61,0,0,0-1.48-1.13l.56-.69A8,8,0,0,1,285.72,477.5Z" style="fill:#fff"/><path d="M305,486.16l-.23.8h-6.38a14.74,14.74,0,0,1-4.38-.45,6.46,6.46,0,0,1-2-1,11.91,11.91,0,0,1-2.17,1.72l-.56-.7a8.54,8.54,0,0,0,3.28-3.29h-2.89v-.85a26,26,0,0,0,2.61-2.2h-2.84v-.84h4v.84a21.44,21.44,0,0,1-2.45,2.22h2.45v.83a6.12,6.12,0,0,1-1,1.67,5.45,5.45,0,0,0,1.82.93,17.62,17.62,0,0,0,4.35.35Zm-.05,2.78h-3.37v1.81a1.24,1.24,0,0,1-.43,1,2.88,2.88,0,0,1-1.68.34H298.2l-.29-.87c1.19,0,1.94,0,2.26,0s.48-.16.48-.42v-1.88H289.37v-.89h11.28v-.61h.91v.61h3.37Zm-12-10.65-.65.6a16.36,16.36,0,0,0-2.52-1.89l.68-.58A14.45,14.45,0,0,1,293,478.29Zm3.16,12.48-.57.72a15,15,0,0,0-2.9-1.37l.56-.72A15.2,15.2,0,0,1,296.12,490.77Zm8.77-12.15H300a8.46,8.46,0,0,1-.53.94H304v5.53h-9.1v-5.53h3.62a5.58,5.58,0,0,0,.53-.94h-5.18v-.81h11.05Zm-7.18-1.48-.77.47a6.66,6.66,0,0,0-1.21-.79l.77-.49A4.42,4.42,0,0,1,297.71,477.14Zm5.35,4v-.82h-7.25v.82Zm0,1.62v-.92h-7.25v.92Zm0,1.59v-.92h-7.25v.92Zm0-7.57a8.23,8.23,0,0,1-1.32.79L301,477a5.76,5.76,0,0,0,1.34-.74Z" style="fill:#fff"/><path d="M175.91,503.07h-3.12v1.43a.46.46,0,0,0,.15.33.46.46,0,0,0,.34.15h2.25v.86h-2.31c-.9,0-1.35-.42-1.35-1.24v-1.53H170v2.87H165.7v-2.87h-1.82a4.36,4.36,0,0,1-2.49,3.66l-.73-.68a3.63,3.63,0,0,0,2.25-3h-2.67v-.92H163l0-1.72H164a17,17,0,0,1,0,1.72h1.78v-1.69h.93v1.69h2.45v-1.69H170v1.69h1.85v-1.72h.92v1.72h3.12Zm-.71,7.75h-.89V508h-5.73v2h4.87v4a1.35,1.35,0,0,1-.37,1,5.83,5.83,0,0,1-2.76.35l-.32-1a20.92,20.92,0,0,0,2.33-.06.32.32,0,0,0,.23-.35v-3h-4v5.2h-.92v-5.2h-4v4.41h-.91V510h4.91v-2H162v2.8h-1v-3.71h14.2Zm-6.12-5.77v-2h-2.45v2Z" style="fill:#fff"/><path d="M187.17,511.61h-3.69v4.54h-.91v-4.54h-3.86v-.84h3.86V509.1h-3.41v-.86h2a8.66,8.66,0,0,0-.72-1.59l.55-.49h-1.91v-.87h3a5.28,5.28,0,0,0-.47-1l.81-.34a6,6,0,0,1,.6,1.34h3.78v.87H185l.64.41a11,11,0,0,1-.8,1.67h1.93v.86h-3.3v1.67h3.69Zm-5.7,1.21a14.1,14.1,0,0,1-1.93,2.93l-.79-.5a13.06,13.06,0,0,0,2-2.9Zm4.68-10H184V504h-.89v-1.22h-4.33V502h4.33v-1.49H184V502h2.17Zm-1.33,3.38h-3.57a12.25,12.25,0,0,1,.86,2.08h1.73A11.86,11.86,0,0,0,184.82,506.16Zm1.41,8.4-.77.43a11.93,11.93,0,0,0-1.06-2.25l.72-.39A9.28,9.28,0,0,1,186.23,514.56Zm8.14-4.72h-2v6.37h-.9v-6.37h-2.6a14.88,14.88,0,0,1-1.56,6.4l-.77-.47a12.69,12.69,0,0,0,1.46-6.14v-4.1a21.59,21.59,0,0,0,5.66-1.13l.47.82a22.82,22.82,0,0,1-5.22,1.12v2.59h5.49Zm0-7.06h-4.23V504h-.94v-1.25H187V502h2.25v-1.49h.94V502h4.23Z" style="fill:#fff"/><path d="M212.87,515.27l-.46.89a24.08,24.08,0,0,1-7.42-2.44,22.62,22.62,0,0,1-7.42,2.39l-.5-.9a24,24,0,0,0,7-2,15,15,0,0,1-3.47-3.58H200v-.9h9.86v.9a16.23,16.23,0,0,1-3.87,3.58A24.34,24.34,0,0,0,212.87,515.27Zm-.51-5.55h-.93v-3H198.51v2.93h-.95v-3.81h14.8Zm-.81-8.44a70.76,70.76,0,0,1-12.93,1.12l-.43-1c.79,0,1.55,0,2.27,0a51.66,51.66,0,0,0,10.61-1.05Zm-10.08,3.94-.91.33a10.77,10.77,0,0,0-1.36-2.38l.86-.36A10.91,10.91,0,0,1,201.47,505.22Zm7.14,4.38h-6.82a10.58,10.58,0,0,0,3.27,3.06A13.91,13.91,0,0,0,208.61,509.6Zm-2.7-4.48-.87.3a8.33,8.33,0,0,0-1.15-2.41l.91-.36A10.22,10.22,0,0,1,205.91,505.12Zm5.28-2.61a13.89,13.89,0,0,1-1.77,3l-.88-.4a11.8,11.8,0,0,0,1.74-2.86Z" style="fill:#fff"/><path d="M222.18,503.19h-6.59v-.94h2.95a11.75,11.75,0,0,0-.73-1.6l.84-.43a10.53,10.53,0,0,1,.89,2h2.64Zm-.7,5.05h-5.29v-.87h5.29Zm.05-2.42h-5.32v-.92h5.32Zm-.14,10h-.94v-1.12h-3.23v1.36h-.94v-6h5.11Zm-.94-2.06V511h-3.23v2.75Zm4-4.48q0,4.6-1.89,6.84l-.81-.59q1.77-1.95,1.77-6.41v-8.69h.93Zm3.07,5.32h-.91v-13.1h.91Zm3.28,1.5h-.92V500.46h.92Z" style="fill:#fff"/><path d="M249.65,512.64a8.48,8.48,0,0,1-.58,2.59c-.3.69-.66,1-1.09,1s-1-.39-1.63-1.16a7.53,7.53,0,0,1-1.38-2.4,25.7,25.7,0,0,1-4.28,3.52l-.71-.74a21,21,0,0,0,4.59-3.83,35.5,35.5,0,0,1-1.11-7.32H236.8v2.45h4.81c0,1.48-.09,2.81-.22,4a6.92,6.92,0,0,1-.42,2.15,1.67,1.67,0,0,1-.65.64,3.76,3.76,0,0,1-1.59.23l-.89,0-.3-1a8.6,8.6,0,0,0,1.22.1,2.7,2.7,0,0,0,1-.12,1.14,1.14,0,0,0,.4-.3,5.94,5.94,0,0,0,.34-1.7,23.7,23.7,0,0,0,.19-3h-3.88a19.36,19.36,0,0,1-2.11,8.57l-.74-.67a18.19,18.19,0,0,0,1.93-8.86v-3.35h7.48c0-1.31-.07-2.32-.07-3h.94c0,.92,0,1.92.09,3h5v.92h-4.93a31.47,31.47,0,0,0,.89,6.46,17.13,17.13,0,0,0,2.44-5l.95.31a22.77,22.77,0,0,1-3,5.81,7.61,7.61,0,0,0,1.25,2.32c.5.62.83.93,1,.93s.36-.34.55-1a7.83,7.83,0,0,0,.27-2Zm-1-10.05-.81.58a11.42,11.42,0,0,0-2.07-1.89l.76-.61A9.53,9.53,0,0,1,248.68,502.59Z" style="fill:#fff"/><path d="M268.14,509.15H255.82v5.62c1.18-.34,2.54-.8,4.07-1.37l.22.89q-2.76,1-5.18,1.73l-.35-.95a.45.45,0,0,0,.29-.42v-5.5h-2.4v-.87h2.87v-7.41h11.73v.88H256.3v1.58h9.82v.89H256.3v1.58h9.82v.86H256.3v1.62h11.84Zm-.09,6-.53.86a18.24,18.24,0,0,1-5.08-2,8.12,8.12,0,0,1-3.29-3.73l.83-.38a8.2,8.2,0,0,0,2.13,2.75,18.53,18.53,0,0,0,3.76-2.68l.68.62a19.32,19.32,0,0,1-3.6,2.64A16.9,16.9,0,0,0,268.05,515.16Z" style="fill:#fff"/><path d="M274.89,507.42l-.58.74a21.48,21.48,0,0,0-3.53-2.36l.6-.74A19.44,19.44,0,0,1,274.89,507.42Zm.5,2.86a31.45,31.45,0,0,1-3.94,6l-.65-.76a30,30,0,0,0,3.8-5.78Zm.41-7.57-.59.77a17.85,17.85,0,0,0-3.58-2.28l.59-.77A21.11,21.11,0,0,1,275.8,502.71Zm10.84,12.7-.56.87A20.62,20.62,0,0,1,281,514a18.78,18.78,0,0,1-5.64,2.17l-.48-.86a18,18,0,0,0,5.27-1.87,11.12,11.12,0,0,1-3.31-4.1h-.72v-.9h9.2v.79a10,10,0,0,1-3.52,4.23A18.36,18.36,0,0,0,286.64,515.41Zm-.92-13.18a12.52,12.52,0,0,1-.53,4,1.72,1.72,0,0,1-1.72,1l-2.28,0-.38-1c.53,0,1,0,1.44,0a8,8,0,0,0,1.65-.09.78.78,0,0,0,.39-.33,2.63,2.63,0,0,0,.28-.93,16.75,16.75,0,0,0,.18-1.85h-5.64a14.74,14.74,0,0,1-2.62,4.31l-.79-.62a14.13,14.13,0,0,0,3.2-6.49l1,.19a17,17,0,0,1-.45,1.68Zm-1.54,7.1h-6.32a10.17,10.17,0,0,0,3.11,3.56A9.34,9.34,0,0,0,284.18,509.33Z" style="fill:#fff"/><path d="M291.39,508.21l-.82.51a26.72,26.72,0,0,0-1.39-4.47l.77-.49A27,27,0,0,1,291.39,508.21Zm3.78-4.39a19.21,19.21,0,0,1-2.28,3.46,15.71,15.71,0,0,1-.15,2.66,25,25,0,0,1,2.36,3.87l-.75.58a25.2,25.2,0,0,0-1.75-3.06,10.58,10.58,0,0,1-2.56,4.85l-.77-.62a7.61,7.61,0,0,0,2-2.89,12.92,12.92,0,0,0,.71-4.8v-7.46h.93v5.41a18.86,18.86,0,0,0,1.54-2.65Zm9.83-2h-4.26c-.23.7-.44,1.37-.65,2h4v8.79h-5.6l.5.53a18.51,18.51,0,0,1-3.59,3l-.71-.71a15.59,15.59,0,0,0,3.49-2.78h-2.3v-8.79h3.22a16.53,16.53,0,0,0,.65-2h-4.64V501H305ZM303.13,509v-1.76h-6.34V509Zm0,2.74v-1.85h-6.34v1.85Zm0-5.35v-1.62h-6.32v1.62Zm1.87,9.15-.65.72a18.75,18.75,0,0,0-3.65-2.45l.61-.71A22.27,22.27,0,0,1,305,515.56Z" style="fill:#fff"/><path d="M309.28,504.52a16.76,16.76,0,0,1-.72,4.25l-.86-.25a19.87,19.87,0,0,0,.7-4.18Zm4,1.64-.62.78a14.35,14.35,0,0,0-1.54-2v11.22h-.94v-15.7h.94v3.26A11.85,11.85,0,0,1,313.23,506.16Zm2.63-.32-.69.65a22.31,22.31,0,0,0-2.56-3,21.63,21.63,0,0,0,2.37-3.15l.88.34a20.37,20.37,0,0,1-2.1,2.75A28.21,28.21,0,0,1,315.86,505.84Zm6.94,10.29h-.93v-.81h-7.61v.81h-1v-8.69h2.58a8.46,8.46,0,0,0,.91-1.67l.85.24a14.19,14.19,0,0,1-.68,1.43h5.86Zm-.93-1.72v-6.07h-7.61v6.07Zm-.62-1.14-.57.61a26.4,26.4,0,0,0-2.3-1.93,17.13,17.13,0,0,1-3.1,2l-.59-.67a15.92,15.92,0,0,0,2.93-1.8c-1.05-.72-1.92-1.28-2.63-1.68l.52-.63c1.13.67,2.06,1.26,2.77,1.76a13.72,13.72,0,0,0,2-1.91l.66.51A14.88,14.88,0,0,1,319,511.4,25.43,25.43,0,0,1,321.25,513.27Zm-1.62-7.4-.72.58a19.82,19.82,0,0,0-2.5-3,23,23,0,0,0,2.2-3.12l.85.43a29.16,29.16,0,0,1-1.9,2.66A16.35,16.35,0,0,1,319.63,505.87Zm3.82.24-.79.48a18.81,18.81,0,0,0-2.51-3,21.59,21.59,0,0,0,2.18-3.21l.85.41a19.43,19.43,0,0,1-1.81,2.68A17.39,17.39,0,0,1,323.45,506.11Z" style="fill:#fff"/><rect x="144.63" y="223.1" width="191.78" height="175" style="fill:#6c90d8"/><rect x="144.63" y="223.1" width="191.78" height="54.02" style="fill:#3a46ac"/><path d="M230.71,255.34q-.5,4-2.32,4c-1.23,0-2.32-1.22-3.24-3.66a28,28,0,0,1-4.46,3.78l-1.24-1.32a22.27,22.27,0,0,0,5.08-4.28,38,38,0,0,1-1.16-7.26h-6.8v2.18h5.28c-.07,1.64-.14,2.92-.23,3.85s-.16,1.63-.23,2.11a2.6,2.6,0,0,1-.5,1.26,1.69,1.69,0,0,1-1,.67,7,7,0,0,1-1.52.13c-.31,0-.64,0-1,0l-.5-1.66,1,0c.95,0,1.48-.1,1.6-.31a6.41,6.41,0,0,0,.33-1.8c.09-1,.15-1.81.16-2.5h-3.52q-.15,5.73-2.14,8.9l-1.38-1.3q1.8-3,1.8-9v-4.26h8.46c-.05-1.07-.06-2.13,0-3.19H225c0,.34,0,.68,0,1.05,0,.63,0,1.34.09,2.14h5.24v1.7h-5.14a31.23,31.23,0,0,0,.74,5.48,20.65,20.65,0,0,0,2.12-4.46l1.6.58a22.34,22.34,0,0,1-3.14,5.92,10.68,10.68,0,0,0,.85,2.11,5.22,5.22,0,0,0,.65,1,.53.53,0,0,0,.3.09.35.35,0,0,0,.27-.11,3.24,3.24,0,0,0,.29-1,11.58,11.58,0,0,0,.24-1.7Zm-1-12-1,1.29a12.4,12.4,0,0,0-2.86-1.48l1-1.34A11.8,11.8,0,0,1,229.75,243.35Z" style="fill:#fff"/><path d="M236.87,255.94a13.9,13.9,0,0,1-2.2,3.4l-1.6-1a13.37,13.37,0,0,0,2.14-3.06Zm5.1-3.52c-1.15.16-2.23.29-3.24.4v.68a1.67,1.67,0,0,1-.27,1,1.26,1.26,0,0,1-.67.5,5.93,5.93,0,0,1-1.48.12c-.32,0-.61,0-.88,0l-.36-1.38c.35,0,.66,0,.91,0a2,2,0,0,0,.86-.11.39.39,0,0,0,.17-.35V253c-1.31.13-2.58.24-3.82.32l-.06-1.4c.92,0,2.21-.13,3.88-.26V251a4.45,4.45,0,0,0,.92-.48h-4.3v-1.4H241v1.1a19.78,19.78,0,0,1-2.1,1.24c1.11-.09,2.13-.21,3-.36Zm-.08-8.12h-8.72v-1.44h3.44c-.19-.46-.34-.8-.44-1l1.8-.3c.26.62.44,1.06.52,1.32h3.4Zm-.58,4h-7.48v-3.41h7.48ZM239.55,247v-.77h-4V247Zm1.66,11.84-1.82.31a16.41,16.41,0,0,0-1-3.47l1.76-.32A16.16,16.16,0,0,1,241.21,258.86Zm9.64-7.64c-.19,2.45-.79,3.68-1.8,3.68q-2.16,0-2.16-5.88v-2.8h-1a25,25,0,0,1-.56,3.92,15.38,15.38,0,0,1,1.46,2.28l-1.34,1.06a7.46,7.46,0,0,0-.84-1.39,11.3,11.3,0,0,1-2.84,3.31l-1.3-1.18a8.32,8.32,0,0,0,3-3.68,17.87,17.87,0,0,0-1.82-2.14l1.3-1.06a11.49,11.49,0,0,1,1,1.1c.06-.32.15-1.06.26-2.22h-1.82v-1.56h1.86c0-.47,0-1,0-1.46s0-1,0-1.42l1.74,0c0,1.33,0,2.28,0,2.86h2.6v4.64a12.34,12.34,0,0,0,.23,2.51,3.35,3.35,0,0,0,.3,1.07c.06,0,.15-.22.27-.65a10.1,10.1,0,0,0,.28-1.89ZM246,258.75l-1.76.53a16.06,16.06,0,0,0-1.5-3.43l1.72-.53A21.56,21.56,0,0,1,246,258.75Zm4.66-.07-1.76.62a16.1,16.1,0,0,0-2.1-3.4l1.7-.7A16.36,16.36,0,0,1,250.65,258.68Z" style="fill:#fff"/><path d="M257.65,255.52a18,18,0,0,1-3.24,3.78l-1.36-1.18a15.79,15.79,0,0,0,3.12-3.44Zm5.14-1.3h-9.66v-1.58h1.66v-7.32h-1.34v-1.58h1.34v-2.07h1.72v2.07h3v-2.07h1.74v2.07h1.4v1.58h-1.4v7.32h1.52Zm-3.26-7.5v-1.4h-3v1.4Zm0,2.92v-1.38h-3v1.38Zm0,3v-1.46h-3v1.46Zm2.24,4.52-1.34,1a15.76,15.76,0,0,0-1.94-2.56l1.32-1A13.55,13.55,0,0,1,261.77,257.16Zm8.24-.32c0,1.54-.72,2.32-2.16,2.32-.37,0-.84,0-1.42,0l-.6-1.72,1.13,0a2.24,2.24,0,0,0,1.12-.17.67.67,0,0,0,.21-.54v-3.54h-3.16a12,12,0,0,1-2.08,6.2l-1.54-1q2-2.61,2-7.88V242H270Zm-1.72-10.26v-2.84h-3v2.84Zm0,4.88v-3.13h-3v3.13Z" style="fill:#fff"/><path d="M168.32,306.17H167.1v2.06H164v1.06h3.12v2.76h-3.17a14.73,14.73,0,0,1-.92,1.35h2.2a2.75,2.75,0,0,0,.26-.64l.9.22a1.86,1.86,0,0,1-.12.42h1.9v.8h-2.27a6.23,6.23,0,0,1-1.64,2c1,.46,1.89.89,2.6,1.28l-.59.67a26.33,26.33,0,0,0-2.82-1.36,10.79,10.79,0,0,1-4.29,1.36l-.33-.85a11.55,11.55,0,0,0,3.57-.94,24.89,24.89,0,0,0-2.4-.89c.32-.33.7-.76,1.16-1.29h-2.49v-.8h3.18c.37-.47.7-.92,1-1.35h-2.88v-2.76h3.16v-1.06h-3.16v-2.06h-1.28v-.83h1.28v-1.9h3.16v-1H164v1h3.11v1.9h1.22Zm-5.22-.83v-1.12h-2.27v1.12Zm0,2.07v-1.24h-2.27v1.24Zm0,3.83v-1.13h-2.26v1.13Zm1.69,3h-2.43c-.13.17-.4.49-.79,1a16.79,16.79,0,0,1,1.72.62A4.66,4.66,0,0,0,164.79,314.2Zm1.42-8.86v-1.12H164v1.12Zm0,2.07v-1.24H164v1.24Zm0,3.83v-1.13H164v1.13Zm8.12-5h-.82q-.19,5.63-1.9,8.7a10.08,10.08,0,0,0,2.69,2.57l-.53.74a9.48,9.48,0,0,1-2.77-2.55,13.64,13.64,0,0,1-3.08,2.55l-.55-.74a13.73,13.73,0,0,0,3.1-2.59,14.57,14.57,0,0,1-1.51-5.05l.85-.29a15.07,15.07,0,0,0,1.26,4.47,11.33,11.33,0,0,0,1.2-3.7,36.69,36.69,0,0,0,.37-4.11h-2.45a13.8,13.8,0,0,1-2,3.55l-.71-.53a17.72,17.72,0,0,0,2.77-6.86l.87.16a20.69,20.69,0,0,1-.69,2.79h3.86Z" style="fill:#fff"/><path d="M181.88,302.8c-.22.54-.53,1.2-.92,2l-.59,1.13v12.29h-1V307.64a24.7,24.7,0,0,1-2,2.73l-.6-.89a25.16,25.16,0,0,0,4.11-7Zm10.93,15H181.23v-.93h3.64a54.1,54.1,0,0,0-2-9.67l.62-.34h-2v-.94h5.35a17,17,0,0,0-1.09-3.17l.91-.31a25.52,25.52,0,0,1,1.19,3.48h4.69v.94h-1.81l.57.21a63.14,63.14,0,0,1-2.13,9.8h3.66Zm-2.51-10.94h-6.49a79.11,79.11,0,0,1,2.06,10h2.32A53.62,53.62,0,0,0,190.3,306.82Z" style="fill:#fff"/><path d="M204.11,307.16h-3.67a2,2,0,0,1-.18.5,25.5,25.5,0,0,1,3.78,2.25l-.58.72a24.21,24.21,0,0,0-3.57-2.22,7,7,0,0,1-3.71,2.83l-.69-.73a5.85,5.85,0,0,0,3.95-3.35h-3.5v-.86h3.76a9.94,9.94,0,0,0,.24-1.77h-1.89a10.84,10.84,0,0,1-1.41,1.32l-.75-.58a10.53,10.53,0,0,0,2.66-2.9l.87.31a8.65,8.65,0,0,1-.65,1h4.91v.88h-2.81q-.09,1-.21,1.77h3.45Zm5.19,11h-.94v-1.12h-9.9v1.14h-.93v-7.09H209.3Zm-.94-4.52V312h-9.9v1.65Zm0,2.51v-1.62h-9.9v1.62Zm2.45-6.68h-5.94v-5.83h5.94Zm-.94-.9v-4.05h-4.06v4.05Z" style="fill:#fff"/><path d="M222.42,307.14l-.74.6a9.17,9.17,0,0,0-.68-1.08c-2.18.31-4.41.52-6.72.64l-.34-.77a10.38,10.38,0,0,0,2.9-4.07l.93.23a15.06,15.06,0,0,1-2.35,3.68c1.88-.16,3.54-.33,5-.52a14.43,14.43,0,0,0-1.51-1.7l.82-.52A13.92,13.92,0,0,1,222.42,307.14Zm-1.17,10a1,1,0,0,1-.33.76,1.21,1.21,0,0,1-.73.34c-.26,0-.84,0-1.71,0l-.38-.9.84,0a5.11,5.11,0,0,0,1.12-.07.29.29,0,0,0,.25-.32v-2.93c-1.72.78-3.13,1.36-4.24,1.74l-.42-.6a10.06,10.06,0,0,1-.85,3l-.82-.47a11.84,11.84,0,0,0,.82-4.3v-4.85h6.45Zm-.94-4.07v-3.55h-4.55v1.28a24.91,24.91,0,0,1,3.9,1.07l-.43.81a25.68,25.68,0,0,0-3.47-1v1.75a14.19,14.19,0,0,1-.07,1.47A38.11,38.11,0,0,0,220.31,313.08Zm9.36,2.05a6.14,6.14,0,0,1-.37,2,1.55,1.55,0,0,1-.69.81,3.68,3.68,0,0,1-1.46.19l-2.7,0a1.35,1.35,0,0,1-1-.34,1.21,1.21,0,0,1-.37-.93V310H224v2.61h5.17v.86H224v3.21c0,.35.22.52.65.52,1.83,0,2.87,0,3.13,0a.87.87,0,0,0,.62-.36,5.34,5.34,0,0,0,.36-1.94Zm-.19-5.83h-5.24a1,1,0,0,1-.8-.35,1.19,1.19,0,0,1-.31-.83v-5.6H224v2.25h5.15v.86H224V308c0,.29.16.43.49.43h5Z" style="fill:#fff"/><path d="M237.38,317.31h-.94v-1.42h-2.5v1.81H233V303.54h4.37Zm-.94-8.1v-4.73h-2.5v4.73Zm0,5.74v-4.84h-2.5V315Zm11.27-9.61h-4.19V308h3.71v.9H238.8V308h3.78v-2.61h-4.41v-.95h4.41v-2h.94v2h4.19Zm.41,6.64h-2v4.66a1.31,1.31,0,0,1-.49,1.2,4.11,4.11,0,0,1-1.91.3l-1,0-.38-1q.87.06,1.53.06a2.91,2.91,0,0,0,1.13-.13.5.5,0,0,0,.24-.47V312h-7v-.92h7v-1.67h.92v1.67h2Zm-5.41,3.64-.81.49a14.91,14.91,0,0,0-2.33-2.76l.79-.54A18.59,18.59,0,0,1,242.71,315.62Z" style="fill:#fff"/><path d="M255.51,302.71c-.18.48-.43,1.07-.76,1.78l-.49,1.05v12.67h-1V307.4a20,20,0,0,1-2,3l-.54-.89a26,26,0,0,0,3.87-7.09Zm11,5.06-6.44.64a16.27,16.27,0,0,0,.93,5.21,6.8,6.8,0,0,0,1.88,2.89,3.42,3.42,0,0,0,1.49.87.4.4,0,0,0,.31-.14,5.82,5.82,0,0,0,.37-1.3,10.72,10.72,0,0,0,.26-2.29l1,.42a14.26,14.26,0,0,1-.4,2.54,3.26,3.26,0,0,1-.6,1.41,1.09,1.09,0,0,1-.81.31,3.83,3.83,0,0,1-2.2-1.11,7.76,7.76,0,0,1-2.15-3.28,18.55,18.55,0,0,1-1-5.43l-3.85.4-.08-1,3.86-.38c-.09-1.58-.14-2.92-.14-4,0-.38,0-.75,0-1.1h.95c0,1.95,0,3.62.13,5l6.44-.63ZM265,305.66l-.81.49a12.54,12.54,0,0,0-2.45-2.77l.83-.5A9.56,9.56,0,0,1,265,305.66Z" style="fill:#fff"/><path d="M285,315.2h-7.38v3.07h-.93V315.2h-7.35v-.9h7.35v-1.67h-1.77v-5.85a19.23,19.23,0,0,1-1.36,1.44l-.58-.77a13.79,13.79,0,0,0,3.38-5l.9.29c-.21.51-.5,1.12-.88,1.83h3.5a6.62,6.62,0,0,0-.79-1.82l.87-.26a10.78,10.78,0,0,1,.88,2.08h3.71v.86h-4.17v1.5h3.5v.87h-3.5v1.49h3.5v.88h-3.5v1.55h4.41v.9h-7.17v1.67H285Zm-12.31-7.36-.56.74a11.63,11.63,0,0,0-2.77-1.49l.52-.78A12.88,12.88,0,0,1,272.66,307.84Zm1,2.15a13.44,13.44,0,0,1-3.74,3.45l-.54-.74a14.68,14.68,0,0,0,3.65-3.38Zm.13-5.46-.54.77a13.49,13.49,0,0,0-2.92-2l.57-.74A14.59,14.59,0,0,1,273.81,304.53Zm5.61,2.41v-1.5h-3.59v1.5Zm0,2.36v-1.49h-3.59v1.49Zm0,2.43v-1.55h-3.59v1.55Z" style="fill:#fff"/><path d="M291.62,302.53l-1,3.34v12.32h-.93V308.1a20.76,20.76,0,0,1-1.48,2.63l-.65-.74a24.77,24.77,0,0,0,3.17-7.78Zm11.71,5.24h-7.95a12.17,12.17,0,0,1-.93,1.46h7.82v7.6a1.5,1.5,0,0,1-.23.78,1.16,1.16,0,0,1-.61.51,5.06,5.06,0,0,1-1.55.09l-.38-.9,1,0c.58,0,.87-.21.87-.62v-1.84h-2.95V318h-.91v-3.11h-3.32a8.39,8.39,0,0,1-1.89,3.4l-.65-.61a8.07,8.07,0,0,0,2.06-5.6v-1.94a14.88,14.88,0,0,1-2.11,2.23l-.62-.65a17.18,17.18,0,0,0,3.4-3.94h-3v-.88h3.38v-1.78h-3v-.91h3v-1.74h.93v1.74h3.43v-1.74h.94v1.74H303v.91h-2.84v1.78h3.22Zm-5.8,6.23v-1.53H294.6a8.24,8.24,0,0,1-.18,1.53Zm0-2.41v-1.5h-2.89v1.5Zm1.64-4.7v-1.78h-3.43v1.78Zm2.22,4.7v-1.5h-2.95v1.5Zm0,2.41v-1.53h-2.95V314Z" style="fill:#fff"/><path d="M313.23,306.4a9.54,9.54,0,0,1-1.1.24,17.69,17.69,0,0,1-1.51,7.18,31.36,31.36,0,0,1,2.49,2.23l-.74.72a22.74,22.74,0,0,0-2.22-2.11,16.85,16.85,0,0,1-3.31,3.49l-.7-.67a13.6,13.6,0,0,0,3.24-3.37,22.16,22.16,0,0,0-2.66-1.82c.44-1.83.78-3.49,1-5q-1.15.09-1.53.09v-.9a14.55,14.55,0,0,0,1.67-.14c.18-1.11.34-2.4.49-3.87h1c-.07.92-.22,2.17-.45,3.76a21.17,21.17,0,0,0,2.34-.38q0-.84,0-1.68h.95c0,.64,0,1.13,0,1.48a6.6,6.6,0,0,0,1.05-.25Zm-2.05.45a20.16,20.16,0,0,1-2.42.34c-.32,1.87-.64,3.41-1,4.63a20.32,20.32,0,0,1,2,1.42A16.06,16.06,0,0,0,311.18,306.85Zm10.67,3.88H318v5.88c0,.65-.17,1.07-.52,1.27a4.29,4.29,0,0,1-1.95.3c-.42,0-.84,0-1.24,0l-.33-1a15.6,15.6,0,0,0,1.84.1,3.07,3.07,0,0,0,1-.1.37.37,0,0,0,.23-.36v-6.06h-4.3v-.94h4.3v-2.11a24.92,24.92,0,0,0,3.14-3.89H313v-.93h8.22v1a27.32,27.32,0,0,1-3.25,4.17v1.74h3.9Z" style="fill:#fff"/><path d="M166.51,332.39h-6.06q0,1.31-.06,4.47a15.22,15.22,0,0,1-.92,5.18l-.79-.6a21.8,21.8,0,0,0,.91-7v-7a26.82,26.82,0,0,0,6.27-1l.49.74a26.54,26.54,0,0,1-5.89,1v1.12h6Zm-.84-.82v-1.43h-5.21v1.43Zm1.24,3.33H165v1.29h1.48V337H165v1.29h1.52V339H165v1.33h1.59v.81h-4v1h-.83v-5.78a3.08,3.08,0,0,1-.51.74l-.53-.72a12.86,12.86,0,0,0,1.58-3.54l.81.28q-.27.86-.33,1h1.61a6.41,6.41,0,0,0-.54-1l.82-.3a10.6,10.6,0,0,1,.63,1.27h1.59Zm-2.72,1.29V334.9h-1.58v1.29Zm0,2.07V337h-1.58v1.29Zm0,2.09V339h-1.58v1.33Zm10.1-12.58h-3c-.16.74-.34,1.46-.55,2.14h2.74v8.73h-3.82l.6.47a11.18,11.18,0,0,1-2.67,3.13l-.66-.63a10.26,10.26,0,0,0,2.57-3h-1.54v-8.73h1.87a11.75,11.75,0,0,0,.53-2.14h-3.18V327h7.13Zm-1.7,4.64v-1.67h-3.81v1.67Zm0,2.59v-1.77h-3.81V335Zm0,2.85v-2h-3.81v2Zm1.79,3.85-.76.54a15.84,15.84,0,0,0-2.13-2.54l.73-.52A26.15,26.15,0,0,1,174.38,341.7Z" style="fill:#fff"/><path d="M184.12,333.13h-5.33v9h-.94V326.87h6.27Zm-.94-3.61v-1.75h-4.39v1.75Zm0,2.71v-1.85h-4.39v1.85Zm5,7.42h-6.59v-5h6.59Zm-.91-.92v-3.11h-4.74v3.11Zm4.67,2a1.33,1.33,0,0,1-.43,1.1,2.71,2.71,0,0,1-1.65.36H189l-.36-.93c.4,0,.74,0,1,0a3.6,3.6,0,0,0,1.12-.11.5.5,0,0,0,.24-.5v-7.58h-5.26v-6.26h6.18ZM191,329.52v-1.75h-4.34v1.75Zm0,2.71v-1.85h-4.34v1.85Z" style="fill:#fff"/><path d="M200.8,328h-.72v14.24h-.84v-3c-1.43.63-2.6,1.1-3.49,1.39l-.29-.79c.49-.17.84-.3,1-.38V328h-.77v-.87h5.09Zm-1.56,2.8V328h-1.89v2.8Zm0,4v-3.11h-1.89v3.11Zm0,3.59V335.6h-1.89v3.54C197.67,339,198.3,338.77,199.24,338.35Zm12,.62c-.19,2.12-.68,3.18-1.46,3.18s-1.27-.8-1.72-2.39a11,11,0,0,1-2.58,2.16l-.48-.67a13.94,13.94,0,0,0,2.78-2.57,47.2,47.2,0,0,1-.44-6.12h-6.51v-.87h1.72c-.16-.92-.35-1.82-.58-2.7h-.63v-.83h2.27a6.09,6.09,0,0,0-.69-1.35l.8-.43a11.38,11.38,0,0,1,.86,1.78h2.09V329H206a21.11,21.11,0,0,1-.45,2.7h1.8v-5.18h.88c0,2.25,0,4,0,5.2h3v.85h-2.93a30.7,30.7,0,0,0,.31,4.89,17.31,17.31,0,0,0,1.42-3.74l.77.29a17,17,0,0,1-2,4.82,5.36,5.36,0,0,0,.51,1.64c.24.45.42.68.56.68s.22-.25.36-.74a10,10,0,0,0,.3-1.92Zm-5.2.79h-4.35v-6h4.35Zm-.87-3.48v-1.66h-2.62v1.66Zm0,2.65v-1.82h-2.62v1.82Zm-.12-9.94h-2.18c.26,1,.44,1.92.56,2.7h1.19C204.79,331,204.94,330.08,205.07,329Zm5.76,1.35-.81.35a14,14,0,0,0-1-2.63l.79-.34A14.07,14.07,0,0,1,210.83,330.34Z" style="fill:#fff"/><path d="M217.51,333.09l-.62.74a19.79,19.79,0,0,0-2.9-2.16l.6-.76A19,19,0,0,1,217.51,333.09Zm-.2,2.83a27,27,0,0,1-2.6,6.1l-.7-.65a27.66,27.66,0,0,0,2.49-6Zm.46-7.36-.6.74a18.11,18.11,0,0,0-2.85-2.2l.63-.74A19.41,19.41,0,0,1,217.77,328.56Zm11.83-.83h-10v5a23.38,23.38,0,0,1-.57,5.84,13.91,13.91,0,0,1-1.55,3.72l-.79-.6a15.23,15.23,0,0,0,2-7.9v-6.92H229.6Zm.06,14H220v-.9h4.34V338h-3.69v-.89h3.69v-1.93h1v1.93h3.76V338h-3.76v2.76h4.34Zm-.2-7.3h-9.11v-.91h4v-2.32h-3.44v-.86h3.44v-1.72h1v1.72h3.51v.86H225.3v2.32h4.16Z" style="fill:#fff"/><path d="M239.84,341a1.19,1.19,0,0,1-.3.83,1.17,1.17,0,0,1-.86.34c-.36,0-.74,0-1.15,0s-.64,0-.93,0l-.33-1c.46,0,1.21.07,2.25.07a.36.36,0,0,0,.27-.14.48.48,0,0,0,.12-.31v-2.61h-4.08a9.62,9.62,0,0,1-1.74,4.1l-.72-.65q1.73-2.25,1.72-6.49v-4h5.75ZM248,329.62H232.39v-.89H248Zm-9.11,7.7v-2.2H235c0,.46,0,1.19-.11,2.2Zm0-3.14v-2.07H235v2.07Zm0-6.1-.9.37a11,11,0,0,0-1.8-1.66l1-.39A10.93,10.93,0,0,1,238.91,328.08Zm5.5-1.24a8.27,8.27,0,0,1-1.75,1.6l-1-.5a10.14,10.14,0,0,0,1.89-1.54Zm-1.34,12.34h-.91v-7.72h.91Zm3.56,1.69a1.35,1.35,0,0,1-.24.82,1,1,0,0,1-.6.41,7.06,7.06,0,0,1-1.38.08l-1.27,0-.34-1,2.47.09c.3,0,.44-.15.44-.52V331h.92Z" style="fill:#fff"/><path d="M266.48,333.67H250.86v-.87h7.35a5.68,5.68,0,0,0-.74-1.36h-4.79v-4.6h12v4.6h-6.14c.21.4.41.85.62,1.36h7.28Zm-10.6,5.49a14.83,14.83,0,0,1-4.08,2.64l-.67-.77a15.42,15.42,0,0,0,4.07-2.48Zm8.84-1.28h-5.6V341a1,1,0,0,1-.43.86,3.33,3.33,0,0,1-1.62.28h-1.19l-.27-.9,2.16,0a.38.38,0,0,0,.29-.16.43.43,0,0,0,.15-.3v-2.89h-5.55v-3.19h12.06Zm-.93-9.18v-1H253.6v1Zm0,1.92v-1.07H253.6v1.07Zm0,6.4v-1.46H253.62V337Zm2.26,4-.66.69a20.28,20.28,0,0,0-3.91-2.41l.71-.67A22.77,22.77,0,0,1,266.05,341Z" style="fill:#fff"/><path d="M285,341.27l-.34.89a28.66,28.66,0,0,1-8.94-1.74,11.87,11.87,0,0,1-6,1.84l-.48-.92a11.62,11.62,0,0,0,5.46-1.35,16.29,16.29,0,0,1-3.31-2.05l.75-.59a12.62,12.62,0,0,0,3.3,2,5.24,5.24,0,0,0,1.19-2.81h-5.59v-6.73h5.67v-2h-7.32v-.88h15.46v.88H277.7v2h5.5v6.73h-5.6a6.44,6.44,0,0,1-1.18,3.17A29,29,0,0,0,285,341.27Zm-8.3-8.62v-1.93h-4.67v1.93Zm0,.88h-4.66v2.12h4.62c0-.47.05-.93.05-1.37C276.74,334,276.74,333.77,276.73,333.53Zm5.51,2.12v-2.12h-4.52c0,1,0,1.67-.05,2.12Zm0-3v-1.93h-4.52v1.93Z" style="fill:#fff"/><path d="M303.09,332.75h-9.24c-.44.67-.76,1.12-.94,1.36h8.31v8h-1v-.88h-7.56v.89h-.92v-6.6a35.53,35.53,0,0,1-3.33,3l-.69-.74a22.09,22.09,0,0,0,5-5.1H288v-.86h5.33a15.33,15.33,0,0,0,.77-1.42h-5.49v-.81h5.87a7.94,7.94,0,0,0,.52-1.39c-2.27.16-4.17.24-5.71.24l-.26-.9a57.13,57.13,0,0,0,12.47-1.2l.52.84c-1.81.36-3.81.67-6,.91a13.41,13.41,0,0,1-.52,1.5h7.06v.81H295.1a9.9,9.9,0,0,1-.73,1.42h8.72Zm-2.82,3.46V335h-7.56v1.23Zm0,2.09v-1.22h-7.56v1.22Zm0,2.09v-1.23h-7.56v1.23Z" style="fill:#fff"/><path d="M313.23,330.4a9.63,9.63,0,0,1-1.1.23,17.69,17.69,0,0,1-1.51,7.18,31.46,31.46,0,0,1,2.49,2.24l-.74.72a20.58,20.58,0,0,0-2.22-2.11,17.1,17.1,0,0,1-3.31,3.49l-.7-.68a13.26,13.26,0,0,0,3.24-3.37,23.41,23.41,0,0,0-2.66-1.82c.44-1.83.78-3.49,1-5-.77.06-1.28.1-1.53.1v-.91a12.6,12.6,0,0,0,1.67-.14c.18-1.11.34-2.4.49-3.87h1c-.07.92-.22,2.18-.45,3.77.59-.06,1.37-.18,2.34-.38q0-.86,0-1.68h.95c0,.63,0,1.12,0,1.48a6.83,6.83,0,0,0,1.05-.26Zm-2.05.44a20.08,20.08,0,0,1-2.42.35q-.48,2.81-1,4.62a22.11,22.11,0,0,1,2,1.42A16,16,0,0,0,311.18,330.84Zm10.67,3.88H318v5.88c0,.65-.17,1.08-.52,1.27a4.29,4.29,0,0,1-1.95.3c-.42,0-.84,0-1.24,0l-.33-1a18.14,18.14,0,0,0,1.84.09,2.79,2.79,0,0,0,1-.1.37.37,0,0,0,.23-.36v-6.06h-4.3v-.94h4.3v-2.11a25.33,25.33,0,0,0,3.14-3.88H313v-.94h8.22v1a27.82,27.82,0,0,1-3.25,4.18v1.73h3.9Z" style="fill:#fff"/><g style="clip-path:url(#b7b26ff8-e49f-4f87-9e5e-1f21b07d25ec)"><path d="M261.12,47.15a5.45,5.45,0,0,0,.26-1.88c.06-1.65-.53-3.21-.56-4.84a10.34,10.34,0,0,0,.07-1.84,6.62,6.62,0,0,0-.84-1.54,42.34,42.34,0,0,0-1.62-5.89c-.24-.86-.43-1-1-1.12-.49-1.5-.88-3-1.46-4.46-.07-.17-.14-.37-.21-.58s-.1-.36-.14-.53c-.11-.43-.22-.85-.29-1.28a9.56,9.56,0,0,0-.22-1.21l-.07-.25a5.54,5.54,0,0,0-.11-.56,3,3,0,0,0-.34-.79A.91.91,0,0,0,254,20h-.22a1,1,0,0,0-.35,0l-.65-.08c-.56-.09-.79.15-1.22.47-.18.09-.39.14-.56.24a5.65,5.65,0,0,1-.67.29c-.18.07-.63.17-.74.34a.42.42,0,0,0,0,.42,5.51,5.51,0,0,1,.28.61c-.16.3-.6.45-.61.81a1,1,0,0,0,.16.56c.06.08.22.14.31.21l.51.45.79.66c.2.16.25.34.51.36a1.45,1.45,0,0,1,.28,0,1.8,1.8,0,0,0,.2.89,1.24,1.24,0,0,0,.23.32,2.55,2.55,0,0,0,.56.79,4,4,0,0,1,1.5,3.14c-.81.22-1.27.16-1.25,1.21s.24,1.75.18,2.69-.36,1.83-.39,2.74a14.82,14.82,0,0,0,.83,3.51,7,7,0,0,1-.07,3.22,3.71,3.71,0,0,0,0,2.5,9.53,9.53,0,0,0-3.45,3.14,1.11,1.11,0,0,0-.41-.18c-.64-.16-1.21.51-1.9.12s-.6-1.17-1.65-1.08a7.27,7.27,0,0,0-2.11.86c-1.58.7-3.07,1.19-3.54,3a15.34,15.34,0,0,1-2.72-1c0-.43.08-.87.14-1.33s0-.71,0-1.06h0c.17-.64.22-.38.69-.76a2.41,2.41,0,0,0,1-1.69,3.13,3.13,0,0,0,.1-1.29,1.28,1.28,0,0,0-.37-1,7.38,7.38,0,0,0-.08-.87,4.33,4.33,0,0,0,.47-1.94,1.41,1.41,0,0,0-.26.42,1.38,1.38,0,0,0,0-.54c-.28-.09-.06-1-.3-1.3a2.77,2.77,0,0,0-.37-1.72,3.83,3.83,0,0,0-.07.83c-.05-.25-.12-.36-.24-.4a.29.29,0,0,0,0-.1A14.31,14.31,0,0,0,238,35.5c-.1.66-.22,1.33-.31,2l-.09-.13a9.6,9.6,0,0,1-.3-2.2,10,10,0,0,0-.21,1.55l0-.06c-.1-.72-.49-1.41-.21-2.14a2.36,2.36,0,0,0-.52,1.41,3.56,3.56,0,0,0-1.47-1.43,3.36,3.36,0,0,1,.57,1.19,4.91,4.91,0,0,0-.5-.28c-.29-.31-.62-.6-.87-.57a5.29,5.29,0,0,0-.81-.89,8.27,8.27,0,0,1,.21,1.1h-.09c-.16,0-.31,0-.46,0a7.88,7.88,0,0,0-.76-1.47,1.35,1.35,0,0,1-.28,1.43c-.1.11-.41-.15-.59,0a1.3,1.3,0,0,0-.33.48l-.27.13a3.54,3.54,0,0,1-.27-.62c-.36.38-.48,1.08-.9,1.35a4.78,4.78,0,0,1,.51-1.69c-.26.38-.51.71-.75,1a4.15,4.15,0,0,0-.32-.63,5.16,5.16,0,0,0-.29,1.45c-.17.26-.33.52-.48.79a4.85,4.85,0,0,1,.08-1.89,8.65,8.65,0,0,0-.89,2.88c0-.46,0-.91,0-1.42a12.39,12.39,0,0,0-.68,2.68c0,.25,0,.66,0,1.12a4.79,4.79,0,0,0,0,2.1l-.19,0a2.47,2.47,0,0,0,.53,1.09l0,.21a.62.62,0,0,1,0,.19,2.15,2.15,0,0,0-.14,2.28A2.11,2.11,0,0,0,228.11,48a1,1,0,0,0,.24.06,3.38,3.38,0,0,0,.24.41,8,8,0,0,0,.48,1.09,8.19,8.19,0,0,0,0,2.25c-.29.24-.2.27-.64.7.05,0-.23.22-.24.17-.87.29-1.8.25-2.67.54s-1.75,1.07-2.74,1.38c-2.2.68-4.39,1.44-5.69,3.58s-.12,5,.23,7.2a12.63,12.63,0,0,1,.39,3c-.09,1.11-.85,1.58-.11,2.63-1.61,1.65-1.6,4.33-.93,6.34,0,0,0,.07,0,.11a6.21,6.21,0,0,0-2.25,2.44c-.12.31-.06,1-.28,1.25s-.62,0-.83.22c-.67.56-.62,1.2-.9,2.08s-.88,1.79-1.19,2.73c-.19.56-.1,1.2-.3,1.74s-.84,1.09-1.1,1.74a6.23,6.23,0,0,1-.7,1.7c-.35.48-.9.74-.76,1.4a1.41,1.41,0,0,0,.26.52c-.62.58-1.53.25-2.14,1.16a2.67,2.67,0,0,0-.61,2.1c-.33.77-1.06,1.47-.11,2.22a.83.83,0,0,0,.73.14v0a.85.85,0,0,0,1.32.65c.39.86.73.71,1.06.22l.06.21c-.26-.16.07.52.33.61.5.18.77.18,1.13-.29a1.36,1.36,0,0,0,.29-1,4.46,4.46,0,0,0,1.12-1.61,1.55,1.55,0,0,0,.08-.23,3.29,3.29,0,0,0,.44-.68c2.58.47,3.76-4.21,4.73-6.09a64.63,64.63,0,0,1,4-6.58,8.71,8.71,0,0,1,.1,1.27,18.76,18.76,0,0,1-.44,2.7,14,14,0,0,1-1.85,4.43c.22.15.48.35.76.57-1.18,1.74-1.66,4.7-2,6.62-.19,1.27-.31,2.64-.6,3.87-.18.74-.95,1.9-.8,2.67.2.94,1.12,1.22,2.19,1.2,0,2.07-1.8,4.46-1.24,6.33a5.15,5.15,0,0,0,1.11,1.74l-.06.09c-.46,2.23-1.56,3.51-1,5.84.6,2.58,1.87,4.27,3.28,6.41a9.69,9.69,0,0,1,1.06,2c.23.66.08,1.56.39,2a3.15,3.15,0,0,0,1.13.78c-.49.4-.35.73-.28,1.65a13.87,13.87,0,0,0,.28,2.95c-1.27,1.59-4,1.84-5.76,2.49a2.64,2.64,0,0,0-1.68,2.11l-.12,0c-.59,2.82,3.93,2.48,5.43,2.06a7.09,7.09,0,0,0,2-.9,12.92,12.92,0,0,0,1.85-.8c.38-.21.79-.46,1.21-.73a1.75,1.75,0,0,0,1.86.38,19.62,19.62,0,0,0,2.81-.35c1.37-.22,2.71-.38,3.12-.8s.09-.87,0-1.55a1.13,1.13,0,0,0-.26,0,3.43,3.43,0,0,0-.21-1.44c.72-.19,1.28-.56,1.27-1.26a.79.79,0,0,0,.13-.31c.12-.67-1-2.43-1.26-3a4.14,4.14,0,0,0-2.31-2.38l-.1-.09c-.46-2.52-2.42-4.87-2.77-7.49a7,7,0,0,0,1.24-3.3,5.2,5.2,0,0,0-.53-1.72,17.92,17.92,0,0,0-.27-2.48,25.94,25.94,0,0,0,3.27-3.17c-.4,2.66.43,6.41.59,8.57a11.28,11.28,0,0,0,.77,4.35,7.86,7.86,0,0,0,2.47,8.18c.56,3.14,1.59,6.25,2.27,9.37.4,1.9.55,3.77,1.56,5.48.13.21.32.56.52.91a2.25,2.25,0,0,0,1.89,2.69c0,.34,0,.7,0,1.05a4.06,4.06,0,0,0,.16,1.47c.06.14.17.35.25.49l.15.26a2.53,2.53,0,0,1,0,.28c0,.41-.07.82-.13,1.23a6.6,6.6,0,0,0-.08.75c-.27,1.23-.54,2.24,1,3,1.13.71,3.43,1.54,6.34-.55a.66.66,0,0,0,.33-.24.93.93,0,0,0,0-.48.28.28,0,0,0,0-.09,1.9,1.9,0,0,0,.06-.31,3.06,3.06,0,0,0,.05-.32,5.3,5.3,0,0,0-.18-2.89c-.3-1.09-1.21-1.84-1.55-3.41-.09-.42-.33-.79-.45-1.21L248,151a3.92,3.92,0,0,1,.88.26c1.12-1,.06-1.28-.32-2.16-.75-1.71-.36-4.45-.36-6.24a27,27,0,0,0-.29-6.35c-.33-1.5-.43-3.38-.84-5a3.9,3.9,0,0,0,0-.76c-.15-2.06-2.24-3-3.09-4.67a8.39,8.39,0,0,1-.73-3.7c0-.12,0-.24,0-.35.34-2,.66-4.11.93-6.18a9.16,9.16,0,0,0,.82-1.91,11.75,11.75,0,0,0,.36-3c1.3-3.9.91-8.61.81-12.81a8.56,8.56,0,0,1,1.3-.92l1.44-.77a13,13,0,0,0,4,3.28c1.32.65,1.94-.13,3.13-.88s1.71-.73,1.4-2.05c-.65-2.72-1.37-5.4-1.8-8.2-.29-1.83-.69-3.62-1-5.43-.14-.67-.38-1.18.28-1.65-1.13-2.08-2.23-3.4-2.69-5.91-.81-4.44-1.34-8.89-2.52-13.22a9.87,9.87,0,0,1,.85-1.59,7.37,7.37,0,0,1,.38-.79c.33-.24.92-.19,1.32-.43.59-.36,1-1,1.59-1.38,1-.62,1.74-1.3,2.67-2a13.43,13.43,0,0,0,2.05-2.28,9.84,9.84,0,0,0,1.55-2,1.69,1.69,0,0,0,1.28-1.16,7.08,7.08,0,0,0-.32-3.58"/><path d="M242.26,78.94c-1.39-3.92-3.6-7.57-5.21-11.4a14.81,14.81,0,0,1-1.39-6.05,2.26,2.26,0,0,1,.64-1.68,3.24,3.24,0,0,0,.49-1.81c.24-2.31.38-5.07,1.42-7.19l-.24-.08a11.16,11.16,0,0,0-2.59,1.68A9,9,0,0,0,233.43,54c-1.56.34-3.91-1.21-4.42-2.35a7.56,7.56,0,0,0-.42,2.25,12.72,12.72,0,0,1-.77,1.91c-.24.64-.46,1.26-.65,1.91a18.91,18.91,0,0,0-.64,4.55,54.16,54.16,0,0,0-1,7.82,28.8,28.8,0,0,1-.6,4.25c-.25,1-.68,1.84-.93,2.8a32.8,32.8,0,0,1-.88,3.19,16.46,16.46,0,0,0-.58,2.79c-.28,1.56-.64,3.13-1.07,4.66l.14.07c.28,1.38,3.47,1,4.49,1,.57,0,1.08-.17,1.64-.23H228s0,.08,0,.11l.54-.11a2.28,2.28,0,0,0,.72-.1,14.77,14.77,0,0,1,2.49,0,15.52,15.52,0,0,0,4.13.21c3-.61,6.22.17,9.26.16-.87-3.29-1.71-6.71-2.85-9.92" style="fill:#fff"/><path d="M235.66,65.22c0-.93-.06-1.85-.08-2.78,0-1.76-1.36-3.18-1.72-4.9a.93.93,0,0,0,.36-.59c0-.34,0-.37,0-.78,0-.2.08-.56.09-.75a.72.72,0,0,0-.25-.61c-.12-.09-.3-.33-.44-.35s-.43-.07-.64-.1a2.89,2.89,0,0,0-2.3.74,8.25,8.25,0,0,0-.07.88,1.8,1.8,0,0,0,.29.7c.21.37.74.58,1,1s.3.46.53.58a.37.37,0,0,1,.15,0,7.43,7.43,0,0,1-.28,1.74,22.77,22.77,0,0,0-1,2.84,11.37,11.37,0,0,0-.18,2.26s-.4,16,.27,16.63l3.49,3.48S238,81.74,238,81s-2.27-15.27-2.36-15.8"/><path d="M113.08,843.77c.35.16.63.43,1,.62a6.68,6.68,0,0,1,.89.61c.17.14.61.51.84.27s-.21-.63-.37-.77a9.83,9.83,0,0,0-1.68-1.26,9.33,9.33,0,0,1-1.42-1.08l.1,0c.46.13,1.57-.06,1.53-.73,0-.3-.28-.24-.5-.17a1.19,1.19,0,0,1-.81,0c-.58-.22-1.13-.52-1.71-.73s-1-.11-1.44-.28a1.17,1.17,0,0,0,0-.2,2,2,0,0,1-.25-.14c.13-.24.2-.4.18-.42l.21-.31c-.4-.33-1.14-2.06-1.43-2.32a15.58,15.58,0,0,1-1.8-2.24,25.55,25.55,0,0,0-2.36-2.65c-.3-.31-.88-1.08-1.26-1.59,0-1.31,0-3,.1-3.69a15.9,15.9,0,0,0-.33-3.1,1.08,1.08,0,0,0,.12-.45,6.47,6.47,0,0,0-.2-2.32,14.14,14.14,0,0,1-.78-2.82,2.14,2.14,0,0,0-.52-1.28,1.81,1.81,0,0,0-.73-1.25,13.14,13.14,0,0,1-1-1.11,2,2,0,0,0-.23-1c.2-.31.45-.18.6-.38a7.81,7.81,0,0,0,.57-1,.7.7,0,0,1,.5-.42c.19,0,1.33-.15,1.33-.15s.84-.16.91-.42A1.75,1.75,0,0,0,103,810c-.15-.27,0-.42.15-.57a.32.32,0,0,0-.1-.48.77.77,0,0,0,.33-.32c.15-.3-.25-.53-.12-.9a1,1,0,0,0,.77-.21c.27-.3-.3-.76-.61-1.29s-.65-.73-.49-1,.19-.88,0-1a3.08,3.08,0,0,1-.42-1.22,6.54,6.54,0,0,0-.94-2.15,2.19,2.19,0,0,0-.5-2.08,1.2,1.2,0,0,1,0,.5c-.18-.32-.72-.66-1-1a2.11,2.11,0,0,1,.23.74,2.73,2.73,0,0,0-1.28-.61,1.4,1.4,0,0,1,.35.57,4.23,4.23,0,0,0-2.14-.87c.19.12.52.38.56.6-.24,0-.46-.19-.72-.14,0,0,0,.14,0,.18a3.83,3.83,0,0,0-3,.5,4.19,4.19,0,0,0-1.94,2.15,3.93,3.93,0,0,1-.5,1.44,1.11,1.11,0,0,1,.36-.08c0,.37-.17.74-.19,1.14a2.91,2.91,0,0,0,.23,1.17.46.46,0,0,1,.19-.36,5.51,5.51,0,0,0,.47,2.15,4.65,4.65,0,0,1,.48,1,2.56,2.56,0,0,1-.11,1.09,1.42,1.42,0,0,1,.41-.33c0,.15,0,.27,0,.41,0,0,.14-.1.18-.15a1.13,1.13,0,0,1,.19.19,3.15,3.15,0,0,1,.16.8,1.29,1.29,0,0,1-.28.7l-.56-.2-.51.42a.62.62,0,0,0-.79.34,3,3,0,0,1-.84.86c-.67-.16-4.31.37-5.06,2a27.32,27.32,0,0,0-1.51,4.23,17,17,0,0,1-1.84,3.18,37.5,37.5,0,0,0-2.28,3.67c-.44.95-.61,2.23-1.06,2.62a3.07,3.07,0,0,0-1,1.39,20.2,20.2,0,0,1-.72,2.62c-.39.67-1.23,2.9-1.79,4.07a24.16,24.16,0,0,0-1.22,5.06,1.3,1.3,0,0,0,.55.28l-.11.45.27.08c-.09.24-.23.56-.32.75a23.26,23.26,0,0,0-1.23,2.29,1.74,1.74,0,0,1-.39.89,17.1,17.1,0,0,0-1.17,1.67c-.16.33-.66.89-.27,1s.77-.61.94-.89a10.27,10.27,0,0,1,1-1.17c.23-.22.45,0,.17.45a9.66,9.66,0,0,0-.68,1.5,10.79,10.79,0,0,0-.5,1.79c0,.28.51.42.68-.08a5.22,5.22,0,0,1,.67-1.38c.22-.28.72-2,.89-1.83s.22.44.22.44a8.68,8.68,0,0,0-.66,1.45,6.1,6.1,0,0,1-.45,1.22c-.22.51-.5,1.34-.11,1.23s.72-.61.94-1.11.73-1.06.84-1.45.28-1.12.5-1.28.34.27.22.61-.16,1.39-.22,1.67-.27,1.59.11,1.78c.23.11.5-.22.62-.94s.16-1.51.22-1.79.39-1.06.5-1.39.28-.84.39-.84.28.34.22.73a1.42,1.42,0,0,0,.63,1.17c.39.28.77.23.82.11s-.21-.42-.5-1a9.84,9.84,0,0,1,0-1.34,7.86,7.86,0,0,0-.15-1.67,3.43,3.43,0,0,1-.3-.84,2.57,2.57,0,0,1,0-.73,2.87,2.87,0,0,0,.44.07l.22-.73a3.13,3.13,0,0,0,1.06.11c.17-.16.11-2.39.45-3.67a13.93,13.93,0,0,1,1.33-3.4,34.16,34.16,0,0,0,1.67-4.23c.23-.67,3.07-3.45,3.51-4.51a.14.14,0,0,0,0-.06,15.72,15.72,0,0,0,.62,3.87c.54,1.16.77,4.94.77,7s-.54,4.32-.61,5.7a8.67,8.67,0,0,1-1,3.79c-.61,1.08-.07.23-.07.23a10.2,10.2,0,0,0,1.22,1.65,71.76,71.76,0,0,0-2.84,6.68C85.21,857,84.59,859.39,84,860a31.46,31.46,0,0,0-5.55,5.4c-2.24,3-4.09,7-5.4,8.41s-3.17,3.08-3.17,3.08l.32.49c-.73.05-2.13.25-2.63,1a11.57,11.57,0,0,0-1.08.54,7.9,7.9,0,0,0,.85,2.7A25.76,25.76,0,0,1,68.39,884l.72,0a8.82,8.82,0,0,0,.74,2.51c.7,1.47,3.47,4.94,5.25,5.87,0,0,.39.14.31-.39a.64.64,0,0,0,.77-.54c.23-.85-.62-2.16-1.16-3.09s-1-1.31-.92-2.08.15-2.7.15-2.7l-.32-.23a3.65,3.65,0,0,1,.32-1.15,3.44,3.44,0,0,0,1.31.68s1.93-2.7,2.78-3.7a35.59,35.59,0,0,0,3.32-4.7,59,59,0,0,1,5.78-7.33,30.51,30.51,0,0,0,4.48-4.86c.38-.68.81-1.64,1.25-2.56.29,1.36.86,4,1.14,4.95a12.89,12.89,0,0,1,.54,4.86c-.23,1.46.69,8.25,1.31,10s1.31,4.63,1.31,4.63.93,4.94,1.39,6.17l.71-.2a3.6,3.6,0,0,0,.42,2.62,2.83,2.83,0,0,0-.13,1.36,32.45,32.45,0,0,0,4.4-.23s.85-.77,1.39-.69a8.92,8.92,0,0,0,4.71-.16c2.23-.77,5-1.93,5.32-2.39a.94.94,0,0,0-.35-.63.82.82,0,0,0-.42-1c-.77-.31-3.78-.15-4.48-.15a14.64,14.64,0,0,1-3.24-1.16.92.92,0,0,0-.65.1,4.64,4.64,0,0,1-.55-.4,3,3,0,0,0,.74-.78s-.69-2.09-1-3.17-.93-5.7-1.39-6.86a44.46,44.46,0,0,1-1.47-7c-.07-1.24-.15-9.65-.07-10.65a52.57,52.57,0,0,0-1.19-9.61c1-.49.88-1,.88-1a18.56,18.56,0,0,1-.08-5.09c.15-1,.38-2.43.51-3.26a41.87,41.87,0,0,0,3.8,3.44,5.2,5.2,0,0,0,.45-.57s0,0,0,0a2.11,2.11,0,0,0,.19.23,1.24,1.24,0,0,0,.27-.21l.07.21c.37.16.4.63.68.9s.55.57.83.85a5.23,5.23,0,0,0,1,.87,8.83,8.83,0,0,0,.48,1,9.27,9.27,0,0,0,.45,1.18c.32.49.64.11.51-.33a7.59,7.59,0,0,0-.36-1.26c-.11-.25-.22-.5-.34-.74a.82.82,0,0,0,.19-.09l.09-.06a1.5,1.5,0,0,1,.34.48.84.84,0,0,0,.38.43c.11.25.21.71.42.81.07.27.12.78.47.69.13,0,.24-.29.2-.44a2.33,2.33,0,0,0-.18-.88,4.28,4.28,0,0,0-.74-1.44l-.17-.21s0-.06.07-.09c.43.13.49.33.79.58a1.84,1.84,0,0,0,.19.2,1.7,1.7,0,0,0,.5.92c-.09.37,0,1.16.43.72a.72.72,0,0,0,.21-.65,2.2,2.2,0,0,0-.07-.37c-.06-.24-.23-.46-.31-.71a1.11,1.11,0,0,0-.35-.6,2.76,2.76,0,0,1-.38-.58,1.58,1.58,0,0,1-.19-.43l.07-.09.11,0"/><path d="M92.74,810.67a19.89,19.89,0,0,1,3.12,2.4c.76.89,2.61,2.74,3.23,4.33.43,1.09,2.34,5.15,2.44,6s-2.37-7-2.37-7l-.16-.13s-.25-1-.39-1.37-.29-.38-.29-.38A12.42,12.42,0,0,0,96.16,812a12.78,12.78,0,0,0-2.91-1.73Z" style="fill:#fff"/><path d="M99.33,813.64a.78.78,0,0,1-.2.48,1.45,1.45,0,0,1,.57,1,3,3,0,0,1,.11,1.23c.61.48,1.1,2.41,1.45,3.61,0,0-.53-4-1.42-5a8.91,8.91,0,0,0-.33-1.42Z" style="fill:#fff"/><path d="M75.17,841.15l-.11.45s4.11,1.19,4.34,1.28l.32-.9a10.46,10.46,0,0,0-2-.84,4.2,4.2,0,0,0-2.48-.09Z" style="fill:#fff"/><path d="M107.17,842.8l.42.55s2.15-3.3,2.19-3.54c0-.06-.28-.3-.28-.3Z" style="fill:#fff"/><g style="opacity:0.6000059843063354"><g style="clip-path:url(#ac2ce0ee-5fd8-4a72-b76c-068f1ff1ca2f)"><polygon points="83.85 607.07 92.7 594.85 101.55 607.07 83.85 607.07" style="fill:#b50b6f"/></g></g><polygon points="83.85 598.22 92.7 586.01 101.55 598.22 83.85 598.22" style="fill:#b50b6f"/></g><path d="M87.24,672.12c-.22,1-.56,2.16-1,3.62l-.69,2.12v18.5H83.12V683.1a15,15,0,0,1-1.45,2.25l-1.28-2.62a35.41,35.41,0,0,0,4.44-11.14Zm.47,28.19a32.57,32.57,0,0,1-1,3.36l-.71,2v18.65H83.52V711a19.35,19.35,0,0,1-1.6,2.42L80.52,711a36.75,36.75,0,0,0,4.76-11.27Zm5.75-80.21v5.26H84V630a33.61,33.61,0,0,1-1.43,10.69l-2-1.76a33.28,33.28,0,0,0,1.17-9.78V616.87A53.63,53.63,0,0,0,92,615.59c.14.21.34.55.59,1s.42.8.54,1A52.73,52.73,0,0,1,84,618.83v1.27ZM90.71,777.23a65.06,65.06,0,0,1-9.46,3.07L80.61,778c.55-.16,1-.27,1.2-.32V766.92H84v10.14a8,8,0,0,0,1.32-.36V765H81.62v-8.31H90V765H87.74v3.61h2.67v2.3H87.74v4.93a29.61,29.61,0,0,0,2.86-1ZM99,749.82q4.06,0,6.63-.11l-1,2.57-7.14,0a18.83,18.83,0,0,1-6.39-.79,8.17,8.17,0,0,1-3.15-2c-2.12,1.26-4,2.31-5.72,3.15l-1.49-2.11a73.89,73.89,0,0,0,13-7.94A30.25,30.25,0,0,0,101,734.3H82v-2.38H92.14a19.45,19.45,0,0,0-1.7-3.19l2.46-1a22.26,22.26,0,0,1,2,4.14h9v2.38Q99.87,742,90,748.19a5.27,5.27,0,0,0,2.47,1.2,15.17,15.17,0,0,0,3.63.43ZM92,654.39H84v14H81.51V644.6H92Zm-2.5-6v-1.57H84v1.57Zm0,3.79v-1.66H84v1.66Zm-2,110.45V759H84v3.61Zm3.64-140.59H84v1.37h7.14ZM94,629.67H91.61v1.2h1.76v1.85H91.61V634h1.76v2H91.61v1.2h2v2H87.85v1.23H85.76v-7.86a4.38,4.38,0,0,1-.64.7l-.82-2.52a17.78,17.78,0,0,0,2.29-4.93l2,.58a10.35,10.35,0,0,1-.54,1.47h1.54a5.4,5.4,0,0,0-.44-1.47l2.12-.3a5.84,5.84,0,0,1,.45,1.77H94Zm9.47,62.86H93.43L94.55,694a25.59,25.59,0,0,1-6.49,2.64l-1.23-2a37.14,37.14,0,0,0,5.79-2H88.78V681.85h14.73Zm-4.76-28H87.29V656.6H98.75Zm6.44,59.32H87.32v-2.14h1.89V706.05H94q.38-1.26.57-2H88v-2.19h7.22c.28-1.17.44-1.87.47-2.1l2.6.26a14.92,14.92,0,0,1-.42,1.84h7v2.19H97.27c-.1.42-.28,1.08-.53,2h6.44v15.66h2Zm-.11-49.41H99.62v1.18h4.82v5.13H87.8v-5.13h4.91v-1.18H87.5v-2h17.58ZM89.62,630.87v-1.2H87.85v1.2Zm0,3.08v-1.23H87.85V634Zm0,3.17v-1.2H87.85v1.2Zm6.75,25.14v-3.42H89.74v3.42ZM99.9,765a21,21,0,0,0,5.57,2.41l-1.32,2.18a26.07,26.07,0,0,1-6.36-3.05,38.38,38.38,0,0,1-6.26,3.11l-1.35-2.22a24.43,24.43,0,0,0,5.63-2.54,11.12,11.12,0,0,1-2.19-2.78c-.59.52-1.2,1-1.82,1.47l-1.47-1.89a17.39,17.39,0,0,0,5.34-5.91l2.35.7a8.27,8.27,0,0,1-.75,1.44h6.5l0,2.38A19.54,19.54,0,0,1,99.9,765Zm-7.19-86.11v-1.45H90.2v1.45Zm8.33,6v-1.15h-9.8v1.15Zm0,2.94v-1.26h-9.8v1.26Zm0,2.91v-1.27h-9.8v1.27ZM100.73,710v-1.76h-9V710Zm0,3.88v-2H91.69v2Zm0,4v-2H91.69v2Zm0,3.87v-2H91.69v2Zm2.94,58.7h-2.56v-.94H94.61v.94H92.09V770.06h11.62Zm1.48-161.83h-4a22,22,0,0,1-.64,2.54h3.82v14.15H98l1.4,1.34a13.52,13.52,0,0,1-4.12,4l-1.36-1.87a12.91,12.91,0,0,0,3.6-3.48H95V621.12h2.86a13.65,13.65,0,0,0,.64-2.54H94v-2.19h11.23Zm-.7,47.18a2.38,2.38,0,0,1-.76,2,5.25,5.25,0,0,1-3.12.64c-.4,0-.85,0-1.36-.05l-.8-2.43c1.8,0,2.84,0,3.11,0s.41-.23.41-.61V654.39H94V644.6h10.47Zm-3.34,111.36v-4.65H94.61v4.65Zm-3.8-101.5v-1.18H95v1.18Zm0,3.29v-1.45H95v1.45Zm.44,84.69a16.56,16.56,0,0,0,3.2-3.28H95.54l-.13.13a10.4,10.4,0,0,0,2.38,3.15ZM102,648.4v-1.57H96.56v1.57Zm0,3.79v-1.66H96.56v1.66Zm.11-27.06v-1.82H97.33v1.82Zm0,3.92v-1.87H97.33v1.87Zm0,4.09v-2H97.33v2Zm-3.14,59.58a40.25,40.25,0,0,1,6.3,2l-1.2,1.87a41.81,41.81,0,0,0-6.47-2.08l1.37-1.79ZM102,678.91v-1.45H99.62v1.45Zm-.67-43.31a24.72,24.72,0,0,1,4.22,3.2L104,640.56a27,27,0,0,0-4.2-3.22l1.55-1.74Z" style="fill:#b50b6f"/><path d="M370.42,534.54h-3.84v.76h3.2v3.63h-3.2v.15a27.21,27.21,0,0,1,3.18,1.22l-.7,1.34a23.64,23.64,0,0,0-2.48-1.15v2.08H365v-2.23a11.87,11.87,0,0,1-3.21,2.27l-.9-1.3a11.57,11.57,0,0,0,3.46-2.38h-2.62V535.3H365v-.76h-4v-1.4h4v-.87h1.59v.87h3.84Zm8.1-12.9a14.37,14.37,0,0,1-.27,2,2,2,0,0,1-.82,1.46,2.63,2.63,0,0,1-.9.32c-.2,0-.91,0-2.13,0a17.38,17.38,0,0,1-2.32-.09,1.38,1.38,0,0,1-.83-.5,2.07,2.07,0,0,1-.35-1.34V518.8h-2.6q-.27,5.78-6.5,7l-.8-1.71a8.28,8.28,0,0,0,3.79-1.55,4.81,4.81,0,0,0,1.67-3.76H361v-1.64h17.46v1.64h-5.82v4.54a.43.43,0,0,0,.13.26.4.4,0,0,0,.27.14h2.78a.68.68,0,0,0,.5-.29,1.17,1.17,0,0,0,.26-.7l.14-1.73Zm-11,48a46.4,46.4,0,0,1-6,2.54l-.5-1.74c.86-.28,1.65-.58,2.38-.89v-7H361.3v-1.75h2.08v-4.6h1.76v4.6h2v1.75h-2v6.24a14.07,14.07,0,0,0,2.24-1Zm11-20.37H361.08v-1.45h3.09v-2.48h1.73v2.48h3V544.5H361.4v-1.41h16.8v1.41h-7.48v1h6.64v1.36h-6.64v1h7.8ZM368.1,583.64h-7V582h2.74a8.44,8.44,0,0,0-.66-1.2l1.7-.63a12.81,12.81,0,0,1,.94,1.83h2.26Zm10.4,37.82H361.12v-1.54h2.08v-3.1h13.24v3.1h2.06Zm-9.1-14.52H367v.84h-1.72v-.84h-4.14v-1.55h4.14v-1.12H367v1.12h2.36Zm8.51-91.9h-1.75v-3.22H363.38v3.24h-1.8v-4.92h7.06a5.08,5.08,0,0,0-.78-1.6l2-.52a12.57,12.57,0,0,1,.88,2.12h7.17Zm-10.31,71.6h-6V585h6Zm0,2.94h-6V588h6Zm-.06,7.69h-1.71v-.82h-2.49v1.3h-1.72v-6.83h5.92Zm10.32,48.55H376.1v-1.05H363.58v1h-1.72V628.63h16Zm-7.14-29.91H362.1v-7.63h8.62v1.41h-3.18v.76H370v3.28h-2.44v.82h3.2Zm-4.89-21.1v-2.23h-2.49v2.23Zm-.84-57.2v-1h-1.63v1Zm11.11,105.6v-13H363.58v13Zm-10.24-32.76v-.76H363.8v.76Zm2.44,2v-.76h-4.5v.76Zm-2.44,2.08v-.82H363.8v.82Zm9.6,21.1H364.22v-1.22H369v-.67h-4v-2.94h9.64v2.94h-4v.67h4.76Zm-.18-120.44h-11v-1.64h11Zm-.38,127.35H364.8v-6.24h10.1ZM367,619.92v-1.61h-2.08v1.61Zm6.2,21.46v-3.86H366.5v3.86Zm-5-103.77v-1h-1.64v1Zm4.7,95.08v-.8h-6.18v.8Zm5.6-68h-11.6v-1.62h3a17.48,17.48,0,0,0-1.3-2.65l1.36-.82h-2.6V558h4.33a10.14,10.14,0,0,0-.71-1.31l1.84-.52a12.59,12.59,0,0,1,.9,1.83h4.38v1.63h-2.56l1.34.87a19.87,19.87,0,0,1-1.08,2.6h2.74Zm-6.36,76h-4.62v-2.62h4.62Zm-.76-49.39a10.71,10.71,0,0,1-2,6.54L368,596.83a11.16,11.16,0,0,0,1.7-6.6v-9.94h1.72Zm6-17.65h-1.78v-.92h-5.46v.92h-1.84v-7.52h9.08Zm-6.5,46.21v-1.61h-2.13v1.61Zm-.2,19.87v-.7H369v.7Zm4.92-100a7.93,7.93,0,0,0,3.1,1.45l-.8,1.41a9.94,9.94,0,0,1-3.56-1.78,13.7,13.7,0,0,1-3.82,1.7l-.84-1.43a13.91,13.91,0,0,0,3.48-1.39,7.23,7.23,0,0,1-1-1.81l1.36-.69a7.47,7.47,0,0,0,.9,1.49,5.89,5.89,0,0,0,1.34-3.06h-2.4a17.44,17.44,0,0,1-2.22,2.92l-1-1.24a14.57,14.57,0,0,0,3.06-5.24l1.56.43a12.47,12.47,0,0,1-.66,1.66h4.4v1.47h-1.08a7.56,7.56,0,0,1-1.74,4.11Zm0,31.31v-3.27h-5.46v3.27Zm2.9,40.61H373a13.11,13.11,0,0,1-1.58,1.87l-1.2-1.3a10.87,10.87,0,0,0,2.68-4.1l1.6.51a10.25,10.25,0,0,1-.66,1.49h4.66Zm-4.68-48.63a19.54,19.54,0,0,0,1.4-3.47h-5a22.77,22.77,0,0,1,1.52,3.47Zm4.74,43.86h-4.16v.88h-1.74v-.88H370.3v-1.55h2.34v-1.12h1.74v1.12h4.16Zm-.68,8.13h-5.74v-1.51h5.74Zm-3.18,4.85v-1.61H372.6v1.61Zm0-23.83H373V581.56h1.7Zm3.42,1.68h-1.76V580.29h1.76Z" style="fill:#df0011"/></g></svg>