<svg id="fbb80ad4-6da6-45eb-9fb2-361440dcef84" data-name="圖層 1" xmlns="http://www.w3.org/2000/svg" xmlns:xlink="http://www.w3.org/1999/xlink" viewBox="0 0 1132.28 469.71"><defs><clipPath id="f2cc93f6-1246-4189-a176-cca6fbc34056"><rect width="1132.28" height="469.71" style="fill:none"/></clipPath><clipPath id="fd01268c-0dbb-4a16-89cb-bf8fcbc11702"><rect width="1132.28" height="469.71" style="fill:none"/></clipPath><clipPath id="bce30ec2-b5ab-4045-b345-9f8372d1866d"><rect x="320.13" y="79.46" width="12.22" height="17.7" style="fill:none"/></clipPath></defs><title>section2-chart</title><g style="clip-path:url(#f2cc93f6-1246-4189-a176-cca6fbc34056)"><rect y="37.12" width="933.61" height="395.47" style="fill:#c9ccd3"/><rect x="143.24" y="194.74" width="191.78" height="177.49" style="fill:#6c90d8"/><rect x="143.24" y="194.74" width="191.78" height="54.02" style="fill:#3a46ac"/><rect x="338.77" y="159.06" width="191.78" height="213.18" style="fill:#6c90d8"/><rect x="338.77" y="159.06" width="191.78" height="54.02" style="fill:#3a46ac"/><rect x="534.49" y="123.84" width="191.78" height="248.4" style="fill:#6c90d8"/><rect x="534.49" y="123.84" width="191.78" height="54.02" style="fill:#3a46ac"/><rect x="729.73" y="90.51" width="191.78" height="281.73" style="fill:#6c90d8"/><rect x="729.73" y="90.51" width="191.78" height="54.02" style="fill:#3a46ac"/><polygon points="928.61 0 928.61 469.71 1132.28 234.85 928.61 0" style="fill:#c9ccd3"/><rect x="47.76" y="378.85" width="873.84" height="7.41" style="fill:#de0010"/><path d="M443.43,405.54a12.93,12.93,0,0,1-.26,2,2,2,0,0,1-.83,1.46,2.46,2.46,0,0,1-.89.33h-2.14a17.48,17.48,0,0,1-2.32-.09,1.36,1.36,0,0,1-.83-.49,2.09,2.09,0,0,1-.34-1.34V402.7h-2.61q-.27,5.78-6.49,7l-.81-1.71a8.28,8.28,0,0,0,3.79-1.54,4.85,4.85,0,0,0,1.67-3.77h-5.44v-1.64H443.4v1.64h-5.83v4.54a.4.4,0,0,0,.14.27.35.35,0,0,0,.27.13h2.78a.65.65,0,0,0,.49-.28,1.16,1.16,0,0,0,.26-.7l.15-1.74Zm-.61-6.6h-1.75v-3.22H428.3V399h-1.81V394h7.06a5.08,5.08,0,0,0-.78-1.6l2-.52a12.11,12.11,0,0,1,.88,2.12h7.17Zm-2.63.18h-11v-1.64h11Z" style="fill:#df0011"/><path d="M455.34,394.44h-3.85v.76h3.2v3.63h-3.2V399a29.12,29.12,0,0,1,3.18,1.22l-.7,1.34a20.8,20.8,0,0,0-2.48-1.14v2.08H449.9v-2.24a12.26,12.26,0,0,1-3.2,2.28l-.9-1.3a11.74,11.74,0,0,0,3.45-2.39h-2.61V395.2h3.26v-.76h-4V393h4v-.87h1.59V393h3.85Zm8.09,14.78H446v-1.46h3.09v-2.48h1.74v2.48h3V404.4h-7.52V403h16.8v1.4h-7.48v1h6.64v1.35h-6.64v1h7.8Zm-13.53-11.7v-1h-1.62v1Zm3.23,0v-1h-1.64v1Zm10.46,3.62-.8,1.42a10.28,10.28,0,0,1-3.56-1.78,13.93,13.93,0,0,1-3.81,1.7l-.84-1.44a14,14,0,0,0,3.47-1.38,7.2,7.2,0,0,1-1-1.82l1.36-.68a6.9,6.9,0,0,0,.89,1.48,5.81,5.81,0,0,0,1.34-3.06h-2.4A17,17,0,0,1,456,398.5l-1-1.24A14.56,14.56,0,0,0,458,392l1.57.44a14.77,14.77,0,0,1-.67,1.66h4.41v1.46h-1.09a7.35,7.35,0,0,1-1.74,4.11A7.79,7.79,0,0,0,463.59,401.14Z" style="fill:#df0011"/><path d="M472.44,405.58a45.18,45.18,0,0,1-6,2.54l-.5-1.74c.86-.28,1.66-.57,2.39-.88v-7h-2.08v-1.75h2.08v-4.59h1.76v4.59h2v1.75h-2v6.24a13.37,13.37,0,0,0,2.23-1Zm11-5h-11.6V399h3a17,17,0,0,0-1.3-2.65l1.36-.82h-2.6v-1.63h4.33a9.27,9.27,0,0,0-.7-1.3l1.83-.52a11.15,11.15,0,0,1,.9,1.82H483v1.63h-2.55l1.33.87a19.32,19.32,0,0,1-1.08,2.6h2.74Zm-1.16,9h-1.78v-.92H475v.92h-1.85V402.1h9.08ZM480.49,407v-3.26H475V407Zm-.38-11.49h-5a22.77,22.77,0,0,1,1.53,3.47h2.06A19.16,19.16,0,0,0,480.11,395.51Z" style="fill:#df0011"/><path d="M493,395.54h-7v-1.62h2.75a8.46,8.46,0,0,0-.67-1.2l1.7-.62a13.08,13.08,0,0,1,.95,1.82H493Zm-.49,3h-6v-1.6h6Zm0,2.94h-6v-1.6h6Zm-.06,7.7h-1.72v-.82h-2.48v1.3h-1.73v-6.84h5.93Zm-1.72-2.46v-2.24h-2.48v2.24Zm5.57-3.46a10.67,10.67,0,0,1-2,6.54l-1.43-1.06a11.27,11.27,0,0,0,1.7-6.6v-9.95h1.71Zm3.33,4.74h-1.7V393.46h1.7Zm3.41,1.67H501.3V392.19h1.75Z" style="fill:#df0011"/><path d="M523.41,409.36H506v-1.54h2.08v-3.1h13.24v3.1h2.06Zm-9.1-14.52H512v.84h-1.72v-.84h-4.14V393.3h4.14v-1.13H512v1.13h2.36Zm1.32,9H507v-7.64h8.61v1.41h-3.17v.77h2.41v3.28h-2.43v.82h3.19Zm-4.85-5.46v-.77h-2.06v.77Zm2.43,2v-.76h-4.49v.76Zm-2.43,2.08v-.82h-2.06v.82Zm1.15,5.36v-1.6h-2.08v1.6Zm3.85,0v-1.6h-2.14v1.6Zm7.62-8.2h-5.5a13.17,13.17,0,0,1-1.59,1.86l-1.2-1.3a10.72,10.72,0,0,0,2.68-4.1l1.6.52a11.43,11.43,0,0,1-.65,1.48h4.66Zm.05-4.78h-4.16v.88h-1.73v-.88h-2.35V393.3h2.35v-1.13h1.73v1.13h4.16Zm-.68,8.14H517v-1.52h5.73Zm-3.17,4.84v-1.6h-2.08v1.6Z" style="fill:#df0011"/><path d="M542.77,409.72H541v-1H528.49v1h-1.72V392.54h16Zm-1.76-2.6v-13H528.49v13Zm-.63-7.56H529.14v-1.22h4.79v-.68h-4v-2.94h9.64v2.94h-4v.68h4.77Zm-.57,6.9h-10.1v-6.24h10.1Zm-1.68-1.18v-3.86h-6.72v3.86Zm-.29-8.68v-.8h-6.18v.8Zm-.76,8.06h-4.62V402h4.62Zm-1.51-1V403H534v.7Z" style="fill:#df0011"/><path d="M73.51,188.93c-.12.73-.32,1.67-.61,2.83l-.45,1.62v19.71h-2.3V199.54a23.35,23.35,0,0,1-1.34,2.58l-1.34-2.64a33.71,33.71,0,0,0,3.66-11Zm7.43,4.33H73.4v-2.14H76a12.65,12.65,0,0,0-.85-2.19l2.36-.56a27.43,27.43,0,0,1,1,2.75h2.41Zm-.51,4.21H73.8V195.2h6.63Zm0,4.12H73.8v-2.24h6.63Zm-.05,11H78v-1.35H76.21v1.79H73.88v-9.54h6.5ZM78,209v-3.19H76.21V209Zm14.11-11.2H88.5a24.88,24.88,0,0,1-2.16,2.67h5V213H89v-1.26H84.92V213H82.59v-9.32q-.78.61-1.23.9l-.82-2.19a25.25,25.25,0,0,0,5.26-4.62H81.31v-2.12h3.26v-2.35H81.8V191.2h2.77v-2.52H86.9v2.52h1.73v1.73A32,32,0,0,0,90,189.17l2.14.69a34,34,0,0,1-2.33,5.82h2.35ZM89,205v-2.35H84.92V205Zm0,4.53v-2.43H84.92v2.43Zm-.54-16.23H86.9v2.35h.28A12.89,12.89,0,0,0,88.44,193.33Z" style="fill:#b50b6f"/><path d="M102,189.06l-1.68,5.77v18.35H97.85V200.1c-.42.7-.87,1.4-1.34,2.1l-1.23-2.64a34.35,34.35,0,0,0,4.25-11Zm18.15,8.47H108.18a19.18,19.18,0,0,1-.9,1.76h11.84v11.87a1.89,1.89,0,0,1-.52,1.37,1.85,1.85,0,0,1-1.1.62,22.8,22.8,0,0,1-2.63.09l-.56-2.14,2,0c.11,0,.23-.08.37-.25a.7.7,0,0,0,.22-.48V208.7h-3.71v4.41h-2.41V208.7h-4a9.49,9.49,0,0,1-3,4.62l-1.84-1.63q3-2.44,3-7.3v-1.94c-.82.85-1.76,1.72-2.8,2.61L100.73,203a16.31,16.31,0,0,0,4.9-5.48h-4.2v-2.24h4.49v-2.08h-3.87V191h3.87v-2.27h2.43V191h4.89v-2.27h2.51V191h3.74v2.18h-3.74v2.08h4.36Zm-9.36,9.18V205h-3.47l-.11,1.7Zm0-3.75v-1.58h-3.44V203Zm2.49-7.67v-2.08h-4.89v2.08Zm3.63,7.67v-1.58h-3.71V203Zm0,3.75V205h-3.71v1.7Z" style="fill:#b50b6f"/><path d="M66.38,223.77V229H56.94v4.62a33.61,33.61,0,0,1-1.43,10.69l-2-1.76a33.28,33.28,0,0,0,1.17-9.78V220.54a53.68,53.68,0,0,0,10.26-1.29,11.17,11.17,0,0,1,.58,1c.25.47.43.8.55,1a50.85,50.85,0,0,1-9.12,1.23v1.28Zm-2.27,1.95H56.94v1.37h7.14ZM67,233.34H64.53v1.2h1.76v1.84H64.53v1.24h1.76v2H64.53v1.21h2v2H60.77V244H58.68v-7.86a4.89,4.89,0,0,1-.64.7l-.82-2.52a17.71,17.71,0,0,0,2.29-4.94l2,.59a11.76,11.76,0,0,1-.54,1.47h1.53A5,5,0,0,0,62.1,230l2.12-.3a5.77,5.77,0,0,1,.45,1.77H67Zm-4.43,1.2v-1.2H60.77v1.2Zm0,3.08v-1.24H60.77v1.24Zm0,3.17v-1.21H60.77v1.21Zm15.58-18.54h-4a24.23,24.23,0,0,1-.64,2.54h3.82v14.15H70.94l1.4,1.34a13.63,13.63,0,0,1-4.12,4l-1.37-1.88a12.82,12.82,0,0,0,3.61-3.47H67.92V224.79h2.86a13.65,13.65,0,0,0,.64-2.54H66.88v-2.19H78.11ZM75,228.8V227H70.25v1.82Zm0,3.92v-1.87H70.25v1.87Zm0,4.09v-2.05H70.25v2.05Zm3.5,5.66-1.57,1.76a27,27,0,0,0-4.2-3.22l1.55-1.74A24.72,24.72,0,0,1,78.5,242.47Z" style="fill:#b50b6f"/><path d="M92.93,230.05h-8v14H82.43V220.27h10.5Zm-2.51-6v-1.58h-5.5v1.58Zm0,3.78V226.2h-5.5v1.65Zm9.25,12.35H88.21v-7.93H99.67Zm-2.38-2.27v-3.42H90.66v3.42Zm8.12,3.5a2.41,2.41,0,0,1-.76,1.95,5.29,5.29,0,0,1-3.12.63c-.4,0-.86,0-1.36,0l-.8-2.43c1.8,0,2.84,0,3.11,0s.41-.22.41-.6V230.05h-8v-9.78h10.47Zm-2.52-17.36v-1.58H97.48v1.58Zm0,3.78V226.2H97.48v1.65Z" style="fill:#b50b6f"/><path d="M119.52,242.58h-6.74V244h-2.24V222.56h2.59a15.55,15.55,0,0,0,1.29-3.14l2.47.5c-.44,1.19-.8,2.07-1.06,2.64h3.07v8.23h-6.12v2.89h6.74Zm-2.94-14.08v-3.68h-3.8v3.68Zm.61,11.81v-4.4h-4.41v4.4Zm16.89-17.79h-5.69v3.15h4.73v14a2.7,2.7,0,0,1-.63,1.89c-.43.46-1.5.65-3.22.55l-.51-2.41a10.11,10.11,0,0,0,1.45.06.47.47,0,0,0,.53-.54v-11.3h-2.35V244H126V227.94h-2.3v14.27h-2.35V225.67H126v-3.15h-5.8v-2.31h13.89Z" style="fill:#b50b6f"/><path d="M972,112.63h-5.51V115a2.75,2.75,0,0,1-.63,1.83,3.43,3.43,0,0,1-2.64.75c-.56,0-1.43,0-2.58-.06l-.65-2.22c1.87,0,3,0,3.4,0s.6-.25.6-.61v-2H947.56v-2H964v-.86h2.5v.86H972Zm-.27-3.61-2.08,1.2c-.52-.65-.91-1.11-1.18-1.38q-11.81.68-19.6.56l-.65-2c1.35,0,2.91,0,4.68,0,2.34,0,4.23,0,5.66-.07V105.9H950V97.81h8.55V96.5H947.9V94.57h10.64V93.19H961v1.38h10.47V96.5H961v1.31h8.65v8.09h-.72C969.93,107,970.88,108,971.71,109Zm-13.14,6.52-1.88,1.74a29.17,29.17,0,0,0-4.34-2.53l1.86-1.74A26.8,26.8,0,0,1,958.57,115.54Zm0-14.5V99.67h-6.1V101Zm0,2.94v-1.26h-6.1V104Zm8.65-2.94V99.67H961V101Zm0,2.94v-1.26H961V104Zm.06,1.92H961v1.41q3.85-.12,5.68-.34a4.26,4.26,0,0,0-.53-.56Z" style="fill:#b50b6f"/><path d="M1000,111H989v6.71h-2.49V111h-11v-2.11h11v-1.42h-9.62v-2.1h9.62V104H976.18v-2.11h6.38a8.91,8.91,0,0,0-1-1.2l1.87-1h-8V97.51h8.57V93.34h2.43v4.17H989V93.34h2.44v4.17h8.45V99.6H992.2l1.65.88a9.61,9.61,0,0,1-.93,1.36h6.44V104H989v1.37h9.69v2.1H989v1.42h11Zm-15.51,2.35a38.59,38.59,0,0,1-7.26,4.23l-1.62-2a31.23,31.23,0,0,0,6.94-3.9ZM982.05,96l-1.87,1.36a18.19,18.19,0,0,0-2.49-2.48l1.88-1.45A16.48,16.48,0,0,1,982.05,96Zm9.3,3.64H984a20.37,20.37,0,0,1,1.55,2.24h4.24A14.06,14.06,0,0,0,991.35,99.6Zm9.13,15.83-1.36,2a51.75,51.75,0,0,0-8-3.8l1.44-2A57.35,57.35,0,0,1,1000.48,115.43Zm-2.69-20.91a15.44,15.44,0,0,1-2.41,2.59l-2.21-1.31a16.76,16.76,0,0,0,2.45-2.46Z" style="fill:#b50b6f"/><path d="M946.25,128.34v5.27h-9.44v4.62a33.37,33.37,0,0,1-1.43,10.69l-2-1.77a33.21,33.21,0,0,0,1.17-9.77V125.12a54.38,54.38,0,0,0,10.26-1.29,11.72,11.72,0,0,1,.59,1c.24.47.43.8.54,1a52.47,52.47,0,0,1-9.12,1.23v1.27Zm-2.27,2h-7.17v1.36H944Zm2.86,7.61H944.4v1.21h1.77V141H944.4v1.23h1.77v2H944.4v1.2h2v2h-5.77v1.23h-2.09v-7.87a4.38,4.38,0,0,1-.64.7l-.82-2.51a17.85,17.85,0,0,0,2.29-4.94l2,.59a11.17,11.17,0,0,1-.53,1.46h1.53a5.11,5.11,0,0,0-.44-1.46l2.12-.3a5.78,5.78,0,0,1,.45,1.76h2.3Zm-4.43,1.21v-1.21h-1.77v1.21Zm0,3.07V141h-1.77v1.23Zm0,3.17v-1.2h-1.77v1.2ZM958,126.82h-4a24.53,24.53,0,0,1-.65,2.55h3.82v14.15h-6.31l1.4,1.34a13.49,13.49,0,0,1-4.12,4L946.73,147a13.1,13.1,0,0,0,3.61-3.47h-2.55V129.37h2.86a13.93,13.93,0,0,0,.64-2.55h-4.54v-2.18H958Zm-3.1,6.55v-1.82h-4.76v1.82Zm0,3.93v-1.88h-4.76v1.88Zm0,4.08v-2h-4.76v2Zm3.5,5.66-1.58,1.77a27.44,27.44,0,0,0-4.19-3.23l1.54-1.73A25.17,25.17,0,0,1,958.38,147Z" style="fill:#b50b6f"/><path d="M972.8,134.63h-8v14H962.3V124.84h10.5Zm-2.5-6v-1.57h-5.51v1.57Zm0,3.79v-1.65h-5.51v1.65Zm9.24,12.35H968.08v-7.93h11.46Zm-2.38-2.27v-3.42h-6.63v3.42Zm8.12,3.5a2.37,2.37,0,0,1-.76,1.94,5.15,5.15,0,0,1-3.12.64c-.4,0-.85,0-1.36,0l-.8-2.43c1.8,0,2.84,0,3.12,0s.41-.22.41-.61V134.63h-8v-9.79h10.47Zm-2.51-17.37v-1.57h-5.42v1.57Zm0,3.79v-1.65h-5.42v1.65Z" style="fill:#b50b6f"/><path d="M999.39,147.15h-6.74v1.45h-2.24V127.14H993a16.42,16.42,0,0,0,1.28-3.15l2.48.51c-.45,1.19-.81,2.06-1.07,2.64h3.08v8.23h-6.13v2.88h6.74Zm-2.94-14.08v-3.68h-3.8v3.68Zm.62,11.81v-4.4h-4.42v4.4ZM1014,127.1h-5.69v3.14H1013v14a2.73,2.73,0,0,1-.63,1.89c-.43.46-1.5.64-3.22.54l-.51-2.4a13.06,13.06,0,0,0,1.45,0,.47.47,0,0,0,.54-.53V132.51h-2.36V148.6h-2.4V132.51h-2.3v14.28h-2.35V130.24h4.65V127.1h-5.8v-2.31H1014Z" style="fill:#b50b6f"/><path d="M175.51,284.08h-5.92V289a.36.36,0,0,0,.2.34,8.65,8.65,0,0,0,2.06.11,7.81,7.81,0,0,0,2-.13c.21-.08.35-1,.4-2.65l1,.36c0,1.55-.23,2.51-.56,2.85s-1.2.52-2.58.52a16,16,0,0,1-2.65-.11,1.13,1.13,0,0,1-.53-.45,1.54,1.54,0,0,1-.21-.84v-4.89h-2.92c0,3.46-1.76,5.63-5.31,6.53l-.63-.85q5.1-1.12,4.91-5.68h-4.89v-.92h15.69Zm-.65-3.17h-1v-3.2H161.44v3.2h-1v-4.14h6.68c-.47-.93-.77-1.52-.9-1.76l1-.33a16.58,16.58,0,0,1,1,2.09h6.63Zm-2.25-.37H162.7v-.89h9.91Z" style="fill:#fff"/><path d="M186.69,276.79h-3.58v1.15H186v3h-2.93v.38a17.78,17.78,0,0,1,2.64,1.34l-.39.81a18.59,18.59,0,0,0-2.25-1.24v1.84h-.88v-2.2a17.1,17.1,0,0,1-3.38,2.27l-.62-.75a13.65,13.65,0,0,0,3.71-2.45h-2.8v-3h3.09v-1.15h-3.85v-.87h3.85v-1h.88v1h3.58Zm7.24,13.55H178.27v-.85h3.15v-2.84h.9v2.84h3.42V285.7h-7v-.85h14.87v.85h-6.88v1.38h6.21v.81h-6.21v1.6h7.24Zm-11.7-10.28v-1.29h-2.16v1.29Zm2.92,0v-1.29h-2v1.29Zm8.87,3.19-.49.85a9.23,9.23,0,0,1-3.18-1.62,17,17,0,0,1-3.46,1.65l-.64-.77a12.66,12.66,0,0,0,3.47-1.55,7.26,7.26,0,0,1-1.24-2.07l.81-.4a5.73,5.73,0,0,0,1.15,1.89,5.57,5.57,0,0,0,1.58-3.45h-2.9a10.07,10.07,0,0,1-2.05,2.43l-.65-.6a9.94,9.94,0,0,0,3.08-4.73l.81.34a8.9,8.9,0,0,1-.7,1.7h4.25v.86h-1a6.44,6.44,0,0,1-1.84,4.08A7.85,7.85,0,0,0,194,283.25Z" style="fill:#fff"/><path d="M202.37,286.72a16.49,16.49,0,0,1-5.13,2.82l-.6-.8a15.64,15.64,0,0,0,5-2.63Zm9.51-1.39-.81.55a15.51,15.51,0,0,0-1.07-1.41c-2.33.25-3.94.41-4.84.49v4.56a1,1,0,0,1-.26.67,1.23,1.23,0,0,1-.59.34,6.53,6.53,0,0,1-1.21.07c-.32,0-.63,0-.91,0l-.4-.95q.51,0,1.05,0a8.17,8.17,0,0,0,1.13,0c.14,0,.22-.17.22-.42v-4.14c-2.64.17-4.63.27-6,.32l-.29-.79a50.31,50.31,0,0,0,6.48-2.89c-2.08.12-3.93.2-5.56.24l-.24-.66a19.37,19.37,0,0,0,6.52-3.72l.9.52a21.24,21.24,0,0,1-4.48,2.9l1.68-.08c.54,0,1.06-.06,1.58-.1a7.1,7.1,0,0,0,1.64-.22c.77-.49,1.52-1,2.24-1.57l.84.58a44.9,44.9,0,0,1-8.69,4.81q4.36-.17,8.43-.69a14.15,14.15,0,0,0-1.37-1.31l.81-.54A20.25,20.25,0,0,1,211.88,285.33Zm-5.5-10a17.88,17.88,0,0,1-7.56,3.59l-.72-.82a16.25,16.25,0,0,0,7.47-3.3Zm5.94,13.5-.61.77a20.91,20.91,0,0,0-4.54-2.81l.62-.76A22.75,22.75,0,0,1,212.32,288.8Z" style="fill:#fff"/><path d="M217.05,286.33a18,18,0,0,1-1.09,4.23l-.85-.31a16.68,16.68,0,0,0,1.06-4.14Zm4.35-1.12-.83.29a8.67,8.67,0,0,0-.29-1c-1.57.49-3.16.91-4.76,1.24l-.26-.83a28.15,28.15,0,0,0,3.54-4.45c-1,.2-2,.38-3.18.53l-.24-.85a18.76,18.76,0,0,0,3-5.29l.85.3a18.45,18.45,0,0,1-2.63,4.83,23.05,23.05,0,0,0,2.83-.52,11.08,11.08,0,0,0,.72-1.35l.83.36a27.71,27.71,0,0,1-4.12,6.06,22.23,22.23,0,0,0,3.16-.9,11.78,11.78,0,0,0-.45-1.11l.81-.34A17.11,17.11,0,0,1,221.4,285.21Zm-2.13,4.59-.92.18a13,13,0,0,0-.58-3.67l.91-.14A22.27,22.27,0,0,1,219.27,289.8Zm2.06-1.42-.85.27a16.12,16.12,0,0,0-.72-2.56l.83-.25A16.58,16.58,0,0,1,221.33,288.38Zm9.41-10.59h-5.51a22.16,22.16,0,0,1-2.41,4.06,49.37,49.37,0,0,0,5.63-.6,14.13,14.13,0,0,0-1.33-1.67l.79-.5a22.76,22.76,0,0,1,2.64,3.76l-.75.55a9.22,9.22,0,0,0-.83-1.34l-1.67.26V289c0,.26.14.39.41.39H229a.53.53,0,0,0,.41-.16,2.32,2.32,0,0,0,.27-1.09c.07-.63.12-1.34.13-2.13l.9.32a12.22,12.22,0,0,1-.27,2.78,1.54,1.54,0,0,1-.67,1,3.59,3.59,0,0,1-1.5.23,2.94,2.94,0,0,1-1.47-.26,1.07,1.07,0,0,1-.39-1v-6.68c-1,.11-1.62.17-1.86.17,0,3.62-1.11,6.29-3.35,8l-.62-.64a7.93,7.93,0,0,0,2.25-2.84,10.48,10.48,0,0,0,.81-4.44c-.3.05-1,.08-2,.11l-.2-.81a15.19,15.19,0,0,0,2.79-4.2h-3.05v-.87h3.47q.3-.71.84-2.13l.88.27c-.31.83-.56,1.45-.76,1.86h5.12Z" style="fill:#fff"/><path d="M239.16,282.82l-.7.59a22.88,22.88,0,0,0-1.35-2.14v9.38h-.92v-8.87a21.09,21.09,0,0,1-2.1,3.92l-.63-.71a21.2,21.2,0,0,0,2.71-5.52h-2.44v-.89h2.46v-3.72h.92v3.72h1.8v.89h-1.8v.4A22.79,22.79,0,0,1,239.16,282.82Zm9.89,4.09h-5.17q-.76,2.85-4.9,3.74l-.52-.83c2.43-.44,3.93-1.41,4.48-2.91h-4.3V286h4.5a9,9,0,0,0,.18-1.57h-3.27v-5.56H248v5.56h-3.72a15.48,15.48,0,0,1-.17,1.57h5Zm-5.41-9.7h-1.18v1h-1v-1h-2.65v-.86h2.65v-1.49h1v1.49h1.18Zm3.46,4v-1.45h-6.17v1.45Zm0,2.42v-1.58h-6.17v1.58Zm2-6.42h-2.58v1h-.9v-1h-1.33v-.86h1.33v-1.49h.9v1.49h2.58Zm.14,12.66-.58.74a24.81,24.81,0,0,0-4.23-2.41l.6-.72A27.47,27.47,0,0,1,249.28,289.87Z" style="fill:#fff"/><path d="M253.87,286.35a24.2,24.2,0,0,1-.94,4.21l-.92-.35a21,21,0,0,0,1-4.12Zm4.93-8.73a49,49,0,0,1-5,6.71c1-.18,2.2-.47,3.56-.85-.1-.27-.24-.65-.44-1.13l.81-.3a16.7,16.7,0,0,1,1,3l-.87.24c-.1-.45-.18-.78-.25-1q-2.58.72-5.19,1.21l-.26-.79a27.61,27.61,0,0,0,3.69-4.4l-3.44.56-.2-.87a20,20,0,0,0,3.26-5.29l.9.29a25,25,0,0,1-2.85,4.76c.79-.09,1.77-.23,3-.42.27-.37.75-1.1,1.44-2.17Zm-2.5,12.13-.94.16a23.09,23.09,0,0,0-.43-3.72l.88-.15A26.61,26.61,0,0,1,256.3,289.75Zm2.18-1.51-.85.27a16.57,16.57,0,0,0-.56-2.45l.79-.27A13.76,13.76,0,0,1,258.48,288.24Zm9.18,1.85h-9.31v-.88h1.26V275.3h6.66v13.91h1.39Zm-2.33-10.35v-3.53h-4.77v3.53Zm0,4.63v-3.71h-4.77v3.71Zm0,4.84v-3.95h-4.77v3.95Z" style="fill:#fff"/><path d="M277,277.64h-6.6v-.94h3a11.24,11.24,0,0,0-.74-1.6l.84-.43a9.71,9.71,0,0,1,.89,2H277Zm-.71,5.05H271v-.88h5.29Zm.06-2.43H271v-.92h5.33Zm-.14,10h-.94v-1.11h-3.24v1.36h-.94v-6h5.12Zm-.94-2.05v-2.76h-3.24v2.76Zm4-4.49q0,4.62-1.89,6.84l-.81-.59c1.18-1.3,1.78-3.43,1.78-6.41V274.9h.92Zm3.08,5.33h-.92V276h.92Zm3.27,1.49h-.92V274.9h.92Z" style="fill:#fff"/><path d="M290.73,286.42c-.1.59-.2,1.12-.29,1.57s-.22,1-.39,1.6a4,4,0,0,1-.38,1.06l-.87-.32a16.47,16.47,0,0,0,1.05-4.16Zm4.27-1.28-.81.29-.22-1c-1.43.42-3,.8-4.75,1.13l-.27-.83a19.23,19.23,0,0,0,3.37-4.27c-.81.16-1.79.31-2.95.46l-.22-.85a24.19,24.19,0,0,0,3.24-5.28l.83.33a28.11,28.11,0,0,1-2.92,4.79,20.87,20.87,0,0,0,2.59-.43,21,21,0,0,0,1-1.91l.79.4a25.51,25.51,0,0,1-4.36,6.47,30.61,30.61,0,0,0,3.37-.82c-.14-.41-.28-.79-.43-1.14l.79-.29A11.33,11.33,0,0,1,295,285.14Zm-2,4.77-.84.16a19.89,19.89,0,0,0-.45-3.69l.84-.14A26,26,0,0,1,293,289.91Zm2-2-.81.25a13.55,13.55,0,0,0-.6-2.05l.8-.25A11.32,11.32,0,0,1,295,288Zm9.61,1.45-.61.76a15.37,15.37,0,0,1-4-5v5.44h-.88v-5.44a17.63,17.63,0,0,1-4.11,4.93l-.65-.67a14.9,14.9,0,0,0,3.8-4.4h-2.56v-6.3h3.5l0-1.53h-4.29v-.91h4.27l0-1.47H300v1.47h4.32v.91H300v1.53h3.56v6.3h-2.68A13.78,13.78,0,0,0,304.61,289.4Zm-5.47-5.2v-4.55h-2.59v4.55Zm-.62-1.19-.79.28a9.35,9.35,0,0,0-.79-2.34l.79-.29A9.17,9.17,0,0,1,298.52,283Zm4.16,1.19v-4.55H300v4.55Zm-.45-3.18a7.71,7.71,0,0,1-.91,2.32l-.72-.38a10.13,10.13,0,0,0,.91-2.34Z" style="fill:#fff"/><path d="M167.66,301.23h-3.38v1.53H167v6.89h-2.72v1.55h3.19v.87h-3.19v2.53h-.91v-2.53h-3.52v-.87h3.52v-1.55h-2.78v-6.89h2.78v-1.53H160v-.92h3.33v-1.49h.91v1.49h3.38Zm-4.29,4.45v-2h-1.86v2Zm0,3.06v-2.18h-1.86v2.18Zm2.73-3.06v-2h-1.82v2Zm0,3.06v-2.18h-1.82v2.18Zm9.36,5.22-.67.69a10.57,10.57,0,0,1-3.81-5.84,10.8,10.8,0,0,1-3.9,5.87l-.71-.68a11.17,11.17,0,0,0,3.24-4,14.25,14.25,0,0,0,.95-5.75h.95c0,.76,0,1.34,0,1.74a9.8,9.8,0,0,0,1,4.33A10.39,10.39,0,0,0,175.46,314Zm-.4-12.1a13.91,13.91,0,0,1-1.42,5l-.74-.56a12.41,12.41,0,0,0,1.08-3.55h-4.07a13.17,13.17,0,0,1-1.68,3.08l-.72-.62a14.53,14.53,0,0,0,2.46-6.46l.88.28a15.18,15.18,0,0,1-.65,2.82Z" style="fill:#fff"/><path d="M183.81,300.24h-2a23.94,23.94,0,0,1-1.13,4.48h2.8v8.11h-.9v-.74h-1.76v1.19h-.93v-6.77a9.26,9.26,0,0,1-1.09,1.65l-.63-.72a16.15,16.15,0,0,0,2.67-7.2h-2.34v-.9h5.34Zm-1.26,10.94v-5.56h-1.76v5.56ZM194,313.91l-.47.91a14.58,14.58,0,0,1-5.81-2.09,9.17,9.17,0,0,1-3.87,2.06l-.5-.86a7.45,7.45,0,0,0,3.63-1.75,10.75,10.75,0,0,1-2.09-2.22l.74-.55a10.23,10.23,0,0,0,1.93,2,5.67,5.67,0,0,0,.84-2.85H185v-6.35h3.6v-2h-4v-.9h9.31v.9h-4.38v2H193v6.35h-3.69a7.61,7.61,0,0,1-1,3.41A15.48,15.48,0,0,0,194,313.91Zm-5.42-9v-1.76h-2.71v1.76Zm0,.9h-2.68v1.87h2.61C188.52,307.07,188.55,306.44,188.55,305.84Zm3.59,1.87v-1.87h-2.68c0,1,0,1.58-.05,1.87Zm0-2.77v-1.76h-2.66v1.76Z" style="fill:#fff"/><path d="M212.38,304h-2.87l-.16,1.82h-10l.16-1.82h-2.76v-.69h2.85l.2-1.74h10l-.18,1.74h2.79Zm-2.29,8.15h-7.28l.39.57a16.41,16.41,0,0,1-5.82,1.9l-.53-.83a16.63,16.63,0,0,0,5.65-1.64H199v-5.41h11.06Zm1.62-9.84h-.92v-1.7H198.31v1.63h-.93v-2.4H204a4.23,4.23,0,0,0-.46-.77l.86-.31q.23.33.63,1.08h6.64Zm-2.53,6v-.82h-9.29v.82Zm0,1.57v-.84h-9.29v.84Zm0,1.56v-.84h-9.29v.84ZM204,304h-3.6l-.11,1.08h3.62Zm.18-1.71h-3.62l-.11,1h3.64Zm4.39,1.71h-3.64l-.09,1.08h3.64Zm.2-1.71h-3.65l-.09,1h3.65Zm3.36,11.53-.35.79a27.42,27.42,0,0,0-6-1.34l.38-.72A30.2,30.2,0,0,1,212.14,313.86Z" style="fill:#fff"/><path d="M229.75,302.2q0,4.33-.18,7.34a18.31,18.31,0,0,1-.44,3.77,1.86,1.86,0,0,1-.81,1.06,5.79,5.79,0,0,1-2.22.28c-.49,0-1.1,0-1.8,0l-.35-1q1.25.06,2.13.06a4.1,4.1,0,0,0,1.7-.2,1.25,1.25,0,0,0,.43-.66,26.57,26.57,0,0,0,.36-3.52c.14-2,.21-4.07.23-6.1h-5.51q-.33,4.8-2,7.24a13.73,13.73,0,0,1-5.09,4.26l-.69-.87a11.63,11.63,0,0,0,3.32-2,9.42,9.42,0,0,0,2.33-3.11,16,16,0,0,0,1.12-5.5H216v-1h6.35c.07-1.08.11-2.2.11-3.35h1c0,.95,0,2.06-.11,3.35Z" style="fill:#fff"/><path d="M239.23,310.9c-2.06.85-3.88,1.54-5.47,2.09l-.27-.92q1.59-.51,2.58-.9v-6.89H234v-.88h2.11v-4.53H237v4.53h1.91v.88H237v6.56a20.56,20.56,0,0,0,2.27-.88Zm10-4.65H238.83v-.88h3.23a19.64,19.64,0,0,0-1.34-3.33l.64-.48h-2.25v-.91h4.53a12.05,12.05,0,0,0-.93-1.67l.93-.27a10.77,10.77,0,0,1,1,1.94h4.18v.91h-2.22l.72.45a21.26,21.26,0,0,1-1.31,3.36h3.2Zm-1.39,8.32h-.94v-1.06h-5.6v1.06h-.93v-6.72h7.47Zm-.94-2v-3.83h-5.6v3.83Zm-.44-11h-4.87a30.35,30.35,0,0,1,1.46,3.81h2A18.84,18.84,0,0,0,246.45,301.56Z" style="fill:#fff"/><path d="M267.67,308.23l-.52.76c-.44-.19-1.23-.62-2.4-1.3v3.63h-9.34v2.28c.87-.1,2.1-.34,3.69-.7l.14.77c-1.07.25-2.66.55-4.76.91l-.32-.72a.67.67,0,0,0,.37-.58v-5.45c-.42.26-1.08.62-2,1.07l-.59-.7a14.54,14.54,0,0,0,4.48-3.08h-4.25v-.77h7.2v-1.21h-6v-.79h6v-1.17h-6.63v-.75h14.08v.75h-6.59v1.17h6v.79h-6v1.21h7.21v.77H263.1A12.67,12.67,0,0,0,267.67,308.23Zm-3.49-.91a11,11,0,0,1-2.25-2.2h-4.3a13.32,13.32,0,0,1-2.29,2.2Zm-.27,1.65v-.9h-8.5v.9Zm0,1.61v-.89h-8.5v.89Zm-5.85-10.82-.95.39q-.37-.3-1.41-1l.93-.43A9.83,9.83,0,0,1,258.06,299.76Zm3.91,6.8h-4.25v-.76H262Zm5.22,7.35-.47.74a32.76,32.76,0,0,0-7.69-2.2l.49-.77c1.17.21,2.51.53,4,.95a15.2,15.2,0,0,0,2.11-1.55l.72.53a12.34,12.34,0,0,1-1.75,1.32C265.76,313.34,266.62,313.66,267.19,313.91ZM264,299.13a9.61,9.61,0,0,1-1.45,1.13l-.83-.52a8.48,8.48,0,0,0,1.35-1Z" style="fill:#fff"/><path d="M278.65,311.1h-3.74q-.54,2.32-4.12,3.48l-.52-.77c2.19-.65,3.43-1.56,3.71-2.71h-3.41v-.85h3.58a10.75,10.75,0,0,0,.07-1.15h-3.36v-.83h3.41v-1.11h-3.14v-3.07h3.14v-1h-1.82v-2h-1.86v-.84h1.86v-1.39h.88v1.39H276v-1.39h.88v1.39h1.78v.84h-1.78v2h-1.72v1h3v3.07h-3v1.11h3.29v.83h-3.33a11,11,0,0,1-.07,1.15h3.63Zm-4.38-4.78V305H272v1.36Zm1.7-4v-1.2h-2.64v1.2Zm2.59,11.46-.55.7a15.11,15.11,0,0,0-2.94-1.51l.54-.67A14.54,14.54,0,0,1,278.56,313.76Zm-1.27-7.44V305h-2.16v1.36Zm8.78,7h-5.6v1.22h-.9V304.17c-.1.18-.27.43-.49.76l-.55-.74a18.78,18.78,0,0,0,2.16-5.48l.77.38a25,25,0,0,1-.92,3h2.37a13,13,0,0,0-.84-2.71l.79-.37a17.6,17.6,0,0,1,1,3.08h1.84V303h-2.1v2.45h2v.87h-2v2.57h2v.84h-2v2.78h2.51Zm-3.38-7.92V303h-2.22v2.45Zm0,3.44v-2.57h-2.22v2.57Zm0,3.62v-2.78h-2.22v2.78Z" style="fill:#fff"/><path d="M304.77,309.69l-.59.77a44,44,0,0,0-7-4.71v8.95h-1V304.57a31.62,31.62,0,0,1-6.85,5.88l-.63-.83q6.61-4,9-9.36h-8.64v-1h15.3v1h-5.57a27.86,27.86,0,0,1-1.59,2.93v1.45A54.45,54.45,0,0,1,304.77,309.69Z" style="fill:#fff"/><path d="M311,299l-.84,2.9v12.72h-.94V304.31a21.2,21.2,0,0,1-1.55,2.94l-.55-.93a27.21,27.21,0,0,0,3-7.57Zm6.89,13.41A53.84,53.84,0,0,1,311,314.3l-.19-.94a20.08,20.08,0,0,0,3-.66v-3.82h-2.59V308h2.59v-2.56l-2.45.4-.18-.84a22.86,22.86,0,0,0,2.65-4.64h-2.32v-.86h6.13v.86h-2.77a34.88,34.88,0,0,1-2.35,4.38c.53-.06,1.7-.28,3.5-.65a11,11,0,0,0-.9-1.63l.81-.38a16.58,16.58,0,0,1,1.85,3.72l-.81.42a8,8,0,0,0-.55-1.33l-1.68.35V308h2.49v.88h-2.49v3.55c1.08-.29,2.09-.61,3-1Zm4.57.76a1.34,1.34,0,0,1-.45,1.18,4.5,4.5,0,0,1-2.1.31q-.69,0-1.47-.06l-.33-1c.93.07,1.7.1,2.31.1a2.14,2.14,0,0,0,.95-.11.5.5,0,0,0,.16-.44V298.93h.93Zm-2.75-2.2h-.93V300.15h.93Z" style="fill:#fff"/><path d="M211.78,225a23.71,23.71,0,0,1-1,4.72l-1.5-.74a20.92,20.92,0,0,0,.92-4.4Zm4.5-1.4-1.48.6a3.32,3.32,0,0,0-.23-.94c-1.32.34-2.87.66-4.64.94l-.59-1.5a18.14,18.14,0,0,0,3.38-4.12,25.82,25.82,0,0,1-2.82.42l-.37-1.6a18.48,18.48,0,0,0,3.13-5.36l1.64.66a22.53,22.53,0,0,1-2.8,4.45,15.87,15.87,0,0,0,2.3-.42,13.5,13.5,0,0,0,.9-1.67l1.55.72a30.89,30.89,0,0,1-4.49,6.46,23.3,23.3,0,0,0,2.3-.48,4.29,4.29,0,0,0-.37-1l1.47-.66A16,16,0,0,1,216.28,223.62Zm-2.15,5.14-1.59.32a23.33,23.33,0,0,0-.36-4l1.44-.26A19.55,19.55,0,0,1,214.13,228.76Zm2.19-2.1-1.37.44a12.34,12.34,0,0,0-.59-2.26l1.36-.42A9.1,9.1,0,0,1,216.32,226.66ZM227,228l-1,1.42a11.13,11.13,0,0,1-3.9-4.32v4.52h-1.68v-4.52a17.79,17.79,0,0,1-4.32,4.28l-1-1.5a12.93,12.93,0,0,0,4.56-4.46H216.7V216.6h3.78v-1.4H216v-1.62h4.48v-1.36h1.68v1.36h4.47v1.62h-4.47v1.4h3.76v6.86h-2.86Q223.68,225.59,227,228Zm-6.55-6.14v-3.78h-2.1v3.78Zm-.36-.76-1,.34a17.47,17.47,0,0,0-.51-2.6l.93-.34A18.29,18.29,0,0,1,220.12,221.14Zm4.14.76v-3.78h-2.1v3.78Zm-.3-3a15.81,15.81,0,0,1-.58,2.68l-.95-.26a25.24,25.24,0,0,0,.53-2.68Z" style="fill:#fff"/><path d="M236.94,225a43.91,43.91,0,0,1-7.26,3l-.4-1.68c1.08-.35,2.06-.7,3-1.06v-9.4h-2.48v-1.72h6.74v1.72H234v8.58c.8-.31,1.69-.71,2.66-1.2Zm9.5-9.06q-.06,4.83-.32,8.4a18.51,18.51,0,0,1-.54,4.21,1.72,1.72,0,0,1-.89.91,6.12,6.12,0,0,1-2.14.25,11.8,11.8,0,0,1-1.27-.05l-.62-1.8a17.7,17.7,0,0,0,1.84.11,5,5,0,0,0,1.18-.08.52.52,0,0,0,.31-.24,11.42,11.42,0,0,0,.25-1.88q.16-1.71.27-3.87t.15-4.2h-3.14q-.27,5.43-1.78,7.89a20,20,0,0,1-3.44,4.25l-1.33-1.3a14.58,14.58,0,0,0,3.36-4.16,15.24,15.24,0,0,0,1.41-6.68H237v-1.76h2.77l.08-3.7h1.75c0,.66,0,1.89-.07,3.7Z" style="fill:#fff"/><path d="M253.86,226a17.45,17.45,0,0,1-3.24,3.78l-1.36-1.18a15.79,15.79,0,0,0,3.12-3.44Zm5.14-1.3h-9.66v-1.58H251V215.8h-1.34v-1.58H251v-2.06h1.72v2.06h3v-2.06h1.75v2.06h1.39v1.58h-1.39v7.32H259Zm-3.26-7.5v-1.4h-3v1.4Zm0,2.92v-1.38h-3v1.38Zm0,3v-1.46h-3v1.46Zm2.24,4.52-1.33,1a15.8,15.8,0,0,0-1.95-2.56l1.32-1A13.8,13.8,0,0,1,258,227.64Zm8.25-.32c0,1.54-.73,2.32-2.17,2.32-.37,0-.84,0-1.42,0l-.59-1.72,1.12,0a2.24,2.24,0,0,0,1.12-.17.65.65,0,0,0,.22-.54v-3.54h-3.17a11.86,11.86,0,0,1-2.08,6.2l-1.54-1q2-2.61,2-7.88v-8.48h6.47Zm-1.72-10.26v-2.84h-3v2.84Zm0,4.88v-3.12h-3v3.12Z" style="fill:#fff"/><path d="M413.29,179.16l-1.09,1.24a15.7,15.7,0,0,0-2.2-2.32,19,19,0,0,1-1.64,2.34h3.46v1.66H410.6v1.48h2v1.64h-2v5.24a14.73,14.73,0,0,0,2-.48l.08,1.66c-1.61.44-3.63.9-6,1.38l-.37-1.66c.62-.08,1.51-.24,2.68-.48V185.2h-2.22v-1.64H409v-1.48h-1.22v-.92a5.23,5.23,0,0,1-.69.64l-.84-1.48a14.55,14.55,0,0,0,3.15-4.72l1.64.46c-.05.16-.13.36-.23.6A19,19,0,0,1,413.29,179.16Zm-4.75,10.94-1.34.36a21.78,21.78,0,0,0-.59-4.22l1.29-.38A26.47,26.47,0,0,1,408.54,190.1Zm4.26-3.88c-.26,1.72-.47,2.87-.62,3.44l-1.22-.34a33.83,33.83,0,0,0,.58-3.46Zm5.36-9.24a20.18,20.18,0,0,1-3.06,1.16V180h2v1.58h-2v2.12h2.06v1.6H415.1v2.44a13,13,0,0,0,2.42-.78l.18,1.64c-.57.23-1.43.51-2.6.86v3.78h-1.64v-3.32a3,3,0,0,1-.42.1l-.34-1.6.76-.22V176.94a17.36,17.36,0,0,0,3.59-1.3Zm6,14.92-.93,1.44a12.9,12.9,0,0,1-2.83-2.26,15.07,15.07,0,0,1-3.11,2.26L416.17,192a11.49,11.49,0,0,0,3.19-2.2,14.75,14.75,0,0,1-1.26-4h-.27v-1.66h5.44v1.66a11.75,11.75,0,0,1-1.83,4.06A9.46,9.46,0,0,0,424.13,191.9Zm-.29-8.86h-1.32c-1,0-1.46-.52-1.46-1.56v-3.56H420q.06,3.92-1.44,5.62l-1.3-1a5.62,5.62,0,0,0,1.12-3.82v-2.42h4.34V181c0,.27.15.4.46.4h.66Zm-2.25,2.7h-1.81a7.73,7.73,0,0,0,.74,2.55A13.65,13.65,0,0,0,421.59,185.74Z" style="fill:#fff"/><path d="M434.28,179.92l-1.12,1.4a3.64,3.64,0,0,0-.46-.54v1.3h-1.51v1.52h2.29v1.66h-2.29v4.86c.82-.28,1.57-.55,2.23-.8l.18,1.64c-1.81.7-4.05,1.44-6.72,2.2l-.38-1.66c.82-.18,1.8-.45,2.94-.8v-5.44h-2.62V183.6h2.62v-1.52h-1.5v-.78a7.49,7.49,0,0,1-.68.6l-.92-1.54a14.3,14.3,0,0,0,3.5-4.66l1.7.56a3.23,3.23,0,0,1-.22.52A27.33,27.33,0,0,1,434.28,179.92ZM429,190.18l-1.48.46a27.19,27.19,0,0,0-.76-4.26l1.47-.4A23.24,23.24,0,0,1,429,190.18Zm3.45-9.7a22.53,22.53,0,0,0-2-2.24c-.53.74-1.12,1.49-1.75,2.24Zm1.17,5.68a11.75,11.75,0,0,1-.42,2.86l-1.42-.18a17.45,17.45,0,0,0,.44-2.9Zm10.6,5.54-1,1.54a16.34,16.34,0,0,1-3.57-4.14v4.22H438v-4.54a19.89,19.89,0,0,1-4.08,4.48l-.94-1.6a15.26,15.26,0,0,0,4.28-4.52h-2.9V180.3H438v-1.44h-4.29v-1.54H438v-1.4h1.72v1.4H444v1.54H439.7v1.44h3.68v6.84h-3A14,14,0,0,0,444.24,191.7ZM438,185.52v-3.66h-2v3.66Zm-.28-.68-1,.3a16.92,16.92,0,0,0-.51-2.42l.95-.3C437.4,183.25,437.57,184.06,437.7,184.84Zm3.95.68v-3.66H439.7v3.66Zm-.23-2.9a19,19,0,0,1-.42,2.54l-1-.26a20.47,20.47,0,0,0,.4-2.5Z" style="fill:#fff"/><path d="M450.92,189.62a17.45,17.45,0,0,1-3.24,3.78l-1.36-1.18a15.79,15.79,0,0,0,3.12-3.44Zm5.14-1.3H446.4v-1.58h1.66v-7.32h-1.34v-1.58h1.34v-2.06h1.72v2.06h3v-2.06h1.75v2.06h1.39v1.58h-1.39v7.32h1.51Zm-3.26-7.5v-1.4h-3v1.4Zm0,2.92v-1.38h-3v1.38Zm0,3v-1.46h-3v1.46Zm2.24,4.52-1.33,1a15.8,15.8,0,0,0-1.95-2.56l1.32-1A13.8,13.8,0,0,1,455,191.26Zm8.25-.32c0,1.54-.73,2.32-2.17,2.32-.37,0-.84,0-1.42,0l-.59-1.72,1.12,0a2.24,2.24,0,0,0,1.12-.17.65.65,0,0,0,.22-.54v-3.54H458.4a11.86,11.86,0,0,1-2.08,6.2l-1.54-1q2-2.61,2-7.88v-8.48h6.47Zm-1.72-10.26v-2.84h-3v2.84Zm0,4.88v-3.12h-3v3.12Z" style="fill:#fff"/><path d="M619.52,155.34q-.49,4-2.32,4T614,155.64a28,28,0,0,1-4.46,3.78l-1.24-1.32a22.27,22.27,0,0,0,5.08-4.28,38,38,0,0,1-1.16-7.26h-6.8v2.18h5.28c-.06,1.64-.14,2.92-.23,3.85s-.16,1.63-.23,2.11a2.6,2.6,0,0,1-.5,1.26,1.69,1.69,0,0,1-1,.67,7,7,0,0,1-1.52.13c-.31,0-.63,0-1,0l-.5-1.66,1,0c1,0,1.48-.1,1.6-.31a6.41,6.41,0,0,0,.33-1.8c.1-1,.15-1.81.16-2.5h-3.52c-.1,3.83-.81,6.79-2.14,8.9l-1.38-1.3q1.8-3,1.8-9v-4.26h8.46c0-1.07-.06-2.13,0-3.18h1.81c0,.33,0,.68,0,1,0,.63,0,1.34.08,2.14h5.24v1.7H614a31.23,31.23,0,0,0,.74,5.48,20.65,20.65,0,0,0,2.12-4.46l1.6.58a22.19,22.19,0,0,1-3.14,5.92,10.43,10.43,0,0,0,.85,2.11,5.39,5.39,0,0,0,.65,1,.53.53,0,0,0,.3.09.39.39,0,0,0,.28-.11,3.78,3.78,0,0,0,.28-1,10.38,10.38,0,0,0,.24-1.7Zm-1-12-1,1.28a12.9,12.9,0,0,0-2.87-1.48l1-1.34A11.82,11.82,0,0,1,618.56,143.36Z" style="fill:#fff"/><path d="M639.4,151.86H626.16v5a30.39,30.39,0,0,0,4.18-1.26l.13,1.8a60.5,60.5,0,0,1-6.07,1.74l-.5-1.48a.78.78,0,0,0,.44-.72v-5.08H622V150.2h2.78v-8.14h13.44v1.6h-11.6v1.16h10.55v1.54H626.62v1.18h10.55V149H626.62v1.18H639.4Zm.16,5.72-.86,1.66a17.55,17.55,0,0,1-5.62-2.18,14.56,14.56,0,0,1-3.78-3.9l1.57-.86a14.69,14.69,0,0,0,2,2.5,17.71,17.71,0,0,0,3.58-2.54l1.36,1.16a21.09,21.09,0,0,1-3.42,2.44A15.2,15.2,0,0,0,639.56,157.58Z" style="fill:#fff"/><path d="M646.46,155.52a17.73,17.73,0,0,1-3.24,3.78l-1.36-1.18a15.79,15.79,0,0,0,3.12-3.44Zm5.14-1.3h-9.66v-1.58h1.66v-7.32h-1.34v-1.58h1.34v-2.06h1.72v2.06h3v-2.06h1.74v2.06h1.4v1.58h-1.4v7.32h1.52Zm-3.26-7.5v-1.4h-3v1.4Zm0,2.92v-1.38h-3v1.38Zm0,3v-1.46h-3v1.46Zm2.24,4.52-1.33,1a15.8,15.8,0,0,0-2-2.56l1.32-1A13.8,13.8,0,0,1,650.58,157.16Zm8.25-.32c0,1.54-.73,2.32-2.17,2.32-.37,0-.84,0-1.42,0l-.59-1.72,1.12,0a2.24,2.24,0,0,0,1.12-.17.65.65,0,0,0,.22-.54v-3.54h-3.17a11.86,11.86,0,0,1-2.08,6.2l-1.54-1q2-2.61,2-7.88V142h6.47Zm-1.72-10.26v-2.84h-3v2.84Zm0,4.88v-3.12h-3v3.12Z" style="fill:#fff"/><path d="M815.82,122.76q-.5,4-2.32,4t-3.24-3.66a28,28,0,0,1-4.46,3.78l-1.24-1.32a22.27,22.27,0,0,0,5.08-4.28,37.2,37.2,0,0,1-1.15-7.26h-6.81v2.18H807c-.06,1.64-.14,2.92-.23,3.85s-.16,1.63-.23,2.11a2.6,2.6,0,0,1-.5,1.26,1.69,1.69,0,0,1-1,.67,7,7,0,0,1-1.51.13c-.32,0-.64,0-1,0l-.5-1.66,1,0c.94,0,1.47-.1,1.59-.31a6.41,6.41,0,0,0,.33-1.8c.1-1,.15-1.81.17-2.5h-3.53c-.1,3.83-.81,6.79-2.14,8.9l-1.38-1.3q1.8-3,1.8-9v-4.26h8.46c-.05-1.07-.06-2.13,0-3.18h1.81c0,.33,0,.68,0,1,0,.63,0,1.34.08,2.14h5.24V114h-5.14a31.23,31.23,0,0,0,.74,5.48,20.19,20.19,0,0,0,2.12-4.46l1.61.58a22.48,22.48,0,0,1-3.15,5.92,9.89,9.89,0,0,0,.86,2.11,5.08,5.08,0,0,0,.64,1,.55.55,0,0,0,.3.09.39.39,0,0,0,.28-.11,3.78,3.78,0,0,0,.28-1,10.38,10.38,0,0,0,.24-1.7Zm-1-12-1,1.29a12.9,12.9,0,0,0-2.87-1.48l1-1.34A12,12,0,0,1,814.86,110.77Z" style="fill:#fff"/><path d="M822,123.36a13.9,13.9,0,0,1-2.2,3.4l-1.6-1a13.37,13.37,0,0,0,2.14-3.06Zm5.1-3.52c-1.15.16-2.22.29-3.23.4v.68a1.6,1.6,0,0,1-.28,1,1.26,1.26,0,0,1-.67.5,5.93,5.93,0,0,1-1.48.12c-.31,0-.61,0-.87,0l-.37-1.38c.36,0,.66,0,.91,0a2.06,2.06,0,0,0,.87-.11.41.41,0,0,0,.16-.35v-.28c-1.3.13-2.58.24-3.82.32l-.06-1.4c.92,0,2.21-.13,3.88-.26v-.7a4.86,4.86,0,0,0,.93-.48h-4.31v-1.4h7.36v1.1a18,18,0,0,1-2.1,1.24c1.12-.09,2.13-.21,3-.36Zm-.08-8.12h-8.72v-1.44h3.44c-.19-.46-.34-.8-.44-1l1.8-.3c.27.62.44,1.06.52,1.32H827Zm-.58,4h-7.48v-3.41h7.48Zm-1.75-1.33v-.76h-4v.76Zm1.66,11.84-1.83.32a16.34,16.34,0,0,0-1-3.48l1.76-.32A17,17,0,0,1,826.33,126.28Zm9.64-7.64c-.2,2.45-.8,3.68-1.81,3.68q-2.16,0-2.16-5.88v-2.8h-1a26.27,26.27,0,0,1-.57,3.92,14.61,14.61,0,0,1,1.46,2.28l-1.33,1.06a8.21,8.21,0,0,0-.84-1.38,11.43,11.43,0,0,1-2.85,3.3l-1.29-1.18a8.36,8.36,0,0,0,3-3.68,17.65,17.65,0,0,0-1.81-2.14l1.3-1.06a11.65,11.65,0,0,1,1,1.1q.09-.48.27-2.22h-1.83v-1.56h1.87c0-.47,0-1,0-1.46s0-1,0-1.42l1.73,0c0,1.33,0,2.28,0,2.86h2.6v4.64a12.34,12.34,0,0,0,.23,2.51,3.35,3.35,0,0,0,.3,1.07c.06,0,.15-.22.27-.65a10,10,0,0,0,.29-1.89Zm-4.87,7.54-1.76.52a16.06,16.06,0,0,0-1.5-3.43l1.72-.53A20.41,20.41,0,0,1,831.1,126.18Zm4.66-.08-1.76.62a16.36,16.36,0,0,0-2.1-3.4l1.7-.7A16.36,16.36,0,0,1,835.76,126.1Z" style="fill:#fff"/><path d="M842.76,122.94a17.45,17.45,0,0,1-3.24,3.78l-1.36-1.18a15.79,15.79,0,0,0,3.12-3.44Zm5.14-1.3h-9.66v-1.58h1.66v-7.32h-1.34v-1.58h1.34V109.1h1.72v2.06h3V109.1h1.75v2.06h1.39v1.58h-1.39v7.32h1.51Zm-3.26-7.5v-1.4h-3v1.4Zm0,2.92v-1.38h-3v1.38Zm0,3V118.6h-3v1.46Zm2.24,4.52-1.33,1A15.8,15.8,0,0,0,843.6,123l1.32-1A13.8,13.8,0,0,1,846.88,124.58Zm8.25-.32c0,1.54-.73,2.32-2.17,2.32-.37,0-.84,0-1.42,0l-.59-1.72,1.12,0a2.24,2.24,0,0,0,1.12-.17.65.65,0,0,0,.22-.54V120.6h-3.17a11.86,11.86,0,0,1-2.08,6.2l-1.54-1q2-2.61,2-7.88v-8.48h6.47ZM853.41,114v-2.84h-3V114Zm0,4.88v-3.12h-3v3.12Z" style="fill:#fff"/><path d="M368.78,247.46h-2.87l-.16,1.81h-10l.16-1.81h-2.76v-.69H356l.19-1.74h10l-.18,1.74h2.79Zm-2.29,8.15H359.2l.4.56a16.44,16.44,0,0,1-5.82,1.91l-.53-.83a16.63,16.63,0,0,0,5.65-1.64h-3.47V250.2h11.06Zm1.62-9.84h-.92v-1.7H354.7v1.63h-.92v-2.4h6.66a4.34,4.34,0,0,0-.46-.78l.86-.3q.23.33.63,1.08h6.64Zm-2.53,6v-.82h-9.29v.82Zm0,1.57v-.85h-9.29v.85Zm0,1.56v-.84h-9.29v.84Zm-5.17-7.43h-3.6l-.11,1.08h3.62Zm.17-1.71H357l-.11,1h3.64Zm4.4,1.71h-3.64l-.09,1.08h3.64Zm.2-1.71h-3.66l-.08,1h3.64Zm3.36,11.53-.35.78a27.48,27.48,0,0,0-6-1.33l.38-.72A29.5,29.5,0,0,1,368.54,257.28Z" style="fill:#fff"/><path d="M380.39,255.44h-3.78V258h-.91v-2.56h-4.17v-.86h4.17v-1.39h-3.34v-6h7.56v6h-3.31v1.39h3.78Zm-4.79-9.31h-3.66v-3.48h3.66Zm-.86-.83v-1.76h-1.91v1.76Zm1,4.39v-1.62h-2.42v1.62Zm0,2.63v-1.74h-2.42v1.74Zm3.3-2.63v-1.62h-2.39v1.62Zm0,2.63v-1.74h-2.39v1.74Zm1.37-6.19h-3.64v-3.48h3.64Zm-.88-.83v-1.75h-1.9v1.75Zm7.75,9.49a8.71,8.71,0,0,1-.81,2.49,1.29,1.29,0,0,1-1.11.71c-.83,0-1.53-1.05-2.08-3.17a20,20,0,0,1-3,2.72l-.67-.65a18.89,18.89,0,0,0,3.49-3.17,36.7,36.7,0,0,1-.51-5.36c-.34,0-.92.08-1.76.14l-.07-.9a14.37,14.37,0,0,0,1.77-.16l-.05-5.17h.92v5.08q1.13-.06,3.63-.33l.08.91-3.62.32a36.8,36.8,0,0,0,.34,4.44,16.35,16.35,0,0,0,2.09-3.79l.8.43a22.78,22.78,0,0,1-2.69,4.61,13.25,13.25,0,0,0,.46,1.69,3.85,3.85,0,0,0,.52,1.08c.17.21.3.32.41.32a.44.44,0,0,0,.22-.07,3.18,3.18,0,0,0,.4-.87,11.24,11.24,0,0,0,.47-1.92Zm-.62-9.21-.78.5a11.44,11.44,0,0,0-1.64-2.47l.74-.47A12.23,12.23,0,0,1,386.62,245.58Z" style="fill:#fff"/><path d="M405.62,253.31h-7.35V258h-.91v-4.69H390v-.91h7.35v-1.32h.91v1.32h7.35Zm-9.82,1.34a19.42,19.42,0,0,1-5,3l-.65-.74A17.42,17.42,0,0,0,395,254.1Zm9.27-7.35h-4.19a11.07,11.07,0,0,1-1.75,2c1.83.45,3.7,1,5.61,1.69l-.54.79a55.32,55.32,0,0,0-5.93-1.81q-2.37,1.5-7.55,1.58l-.47-.88q4.67,0,6.71-1c-1.5-.37-2.9-.68-4.22-.94a17.9,17.9,0,0,0,1.41-1.47h-3.61v-.86h4.38c.47-.57.92-1.15,1.36-1.75l.83.36a15.37,15.37,0,0,1-1.06,1.39h4.32a7,7,0,0,0,.5-.93l.9.19a4.43,4.43,0,0,1-.32.74h3.62Zm-.17-1.7H404v-1.13H391.71v1.13h-1v-2h6.75q-.21-.45-.57-1.08l.9-.29c.17.27.43.73.79,1.37h6.28Zm-5.17,1.7h-4.4c-.23.28-.5.59-.82.93.75.15,1.93.42,3.55.81A6.82,6.82,0,0,0,399.73,247.3Zm5.75,9.63-.68.69a28.19,28.19,0,0,0-5.05-2.73l.67-.76A28.92,28.92,0,0,1,405.48,256.93Z" style="fill:#fff"/><path d="M412.66,242.67c-.2.6-.46,1.3-.8,2.12l-.5,1.19v12h-.89V247.76a24.38,24.38,0,0,1-1.77,2.56l-.48-1a20.18,20.18,0,0,0,3.57-6.94Zm6.41,1h-3a28,28,0,0,1-.76,3.25h3.37a16.82,16.82,0,0,1-1.19,6.34,12,12,0,0,1-3.92,4.87l-.63-.7a12,12,0,0,0,3.76-4.63,13.31,13.31,0,0,0-2.81-2.61,10.32,10.32,0,0,1-1.48,1.87l-.63-.66c1.69-1.74,2.8-4.31,3.33-7.73h-2.08v-.89h6Zm-1.32,4.18H415c-.19.51-.4,1-.64,1.53a16,16,0,0,1,2.68,2.4A17.92,17.92,0,0,0,417.75,247.8Zm5.8,9.09a1,1,0,0,1-.45.81,3.42,3.42,0,0,1-1.77.32h-1.18l-.34-.91a17.17,17.17,0,0,0,2.59-.09.37.37,0,0,0,.23-.4V242.29h.92Zm-2.84-2.16h-.9V243.66h.9Z" style="fill:#fff"/><path d="M434,255.44h-3V258h-.89v-2.53h-3.31v-.87h3.31V253h-2.49v-6.88h2.49v-1.61h-3.09v-.84h3.09v-1.41h.89v1.41h2.66v.84h-2.66v1.61h2.5V253h-2.5v1.6h3Zm-3.86-6.32V247h-1.6v2.13Zm0,3V250h-1.6v2.11Zm2.49-3V247h-1.6v2.13Zm0,3V250h-1.6v2.11Zm9.79-7h-3.69v1.8h3v10a1,1,0,0,1-.31.69.92.92,0,0,1-.66.33l-1.08,0-.25-.88,1,0c.3,0,.45-.14.45-.43v-2.77h-2.16v3.84h-.91v-3.84H435.7V258h-.9V246.92h3.05v-1.8h-3.64v-.83h3.64V242.2h.91v2.09h3.69Zm-4.6,4.75v-2.09H435.7v2.09Zm0,3.2v-2.34H435.7v2.34Zm3.07-3.2v-2.09h-2.16v2.09Zm0,3.2v-2.34h-2.16v2.34Zm.74-9.72L441,244a8.16,8.16,0,0,0-1.47-1.13l.56-.69A8,8,0,0,1,441.66,243.35Z" style="fill:#fff"/><path d="M460.92,252l-.24.8h-6.37a14.74,14.74,0,0,1-4.38-.45,6.34,6.34,0,0,1-2-1,12.26,12.26,0,0,1-2.17,1.72l-.57-.7a8.48,8.48,0,0,0,3.28-3.29H445.6v-.85a28.44,28.44,0,0,0,2.61-2.2h-2.84v-.84h4V246a21.35,21.35,0,0,1-2.44,2.22h2.44v.83a5.88,5.88,0,0,1-.95,1.67,5.55,5.55,0,0,0,1.82.93,17.62,17.62,0,0,0,4.35.35Zm-.05,2.78H457.5v1.81a1.24,1.24,0,0,1-.44,1,2.88,2.88,0,0,1-1.68.34h-1.25l-.29-.87c1.19,0,2,0,2.27,0s.48-.16.48-.42v-1.88H445.31v-.89h11.28v-.61h.91v.61h3.37Zm-12-10.65-.66.6a16.24,16.24,0,0,0-2.51-1.89l.68-.58A14.45,14.45,0,0,1,448.9,244.14Zm3.16,12.48-.57.72a15,15,0,0,0-2.9-1.37l.56-.72A15.2,15.2,0,0,1,452.06,256.62Zm8.77-12.15h-4.91a10.51,10.51,0,0,1-.53.94h4.52v5.53H450.8v-5.53h3.62a5.08,5.08,0,0,0,.54-.94h-5.19v-.81h11.06ZM453.65,243l-.77.47a6.76,6.76,0,0,0-1.22-.79l.78-.49A4.58,4.58,0,0,1,453.65,243Zm5.34,4v-.82h-7.25V247Zm0,1.62v-.92h-7.25v.92Zm0,1.59v-.92h-7.25v.92Zm0-7.57a7.7,7.7,0,0,1-1.31.79l-.76-.53a5.76,5.76,0,0,0,1.34-.74Z" style="fill:#fff"/><path d="M468.41,245h-4.69v-.88h2.22a6.92,6.92,0,0,0-.71-1.64l.82-.38a13.19,13.19,0,0,1,.81,2h1.55Zm-.19,2.54h-4.14v-.85h4.14Zm0,2.72h-4.14v-.85h4.14Zm-.24,7.34h-.91v-1H465V258h-.89v-6H468Zm-.91-1.84V252.9H465v2.85Zm12.23-2.56h-5.91a7.84,7.84,0,0,1-1.82,1.65V257a23.46,23.46,0,0,0,2.51-.72v.87a32.38,32.38,0,0,1-3.44,1l-.24-.83a.79.79,0,0,0,.31-.65v-1.24a13.09,13.09,0,0,1-2,.9l-.53-.77a9.69,9.69,0,0,0,4.09-2.3h-3.63v-.84h3v-1h-2.47v-.8h2.47v-1H469v-.75h2.74V248h.88v.86h3V248h.9v.86H479v.75h-2.52v1h2.09v.8h-2.09v1h2.83Zm-.17-8.85h-10v-.8h4.5a3.65,3.65,0,0,0-.54-1l.77-.36a11.5,11.5,0,0,1,.68,1.36h4.61Zm-5.61,3.19h-3.91v-2.38h3.91Zm-.81-.76v-.86h-2.29v.86Zm2.86,3.81v-1h-3v1Zm0,1.77v-1h-3v1Zm3.78,5.12-.43.75a8.74,8.74,0,0,1-4.76-4l.74-.36a6.44,6.44,0,0,0,1.12,1.53,9.85,9.85,0,0,0,1.44-1.59l.67.49a11.18,11.18,0,0,1-1.55,1.64A9,9,0,0,0,479.35,257.47Zm-.74-9.94h-4v-2.38h4Zm-.82-.76v-.86h-2.32v.86Z" style="fill:#fff"/><path d="M486.82,242.56c-.19.47-.45,1.07-.8,1.81l-.52,1.07v12.62h-.93V247.28a24.07,24.07,0,0,1-2.05,3l-.51-1a26.66,26.66,0,0,0,3.92-7.09Zm10.48,2a23.51,23.51,0,0,1-1.35,4.56l-.87-.38a17.67,17.67,0,0,0,1.09-3.22h-6.63a18.91,18.91,0,0,1-2.63,4l-.6-.8a18.93,18.93,0,0,0,3.5-6.4l1,.23c-.18.53-.44,1.19-.79,2Zm-7.06,5.32a22.12,22.12,0,0,1-3,6.11l-.77-.54a22.67,22.67,0,0,0,2.83-5.88Zm2.39,6.62a1.61,1.61,0,0,1-.42,1.23,2.82,2.82,0,0,1-1.78.39c-.31,0-.63,0-.94,0l-.38-1c.62.06,1.18.08,1.67.08s.94-.22.94-.66v-9.55h.91Zm5.24-.9L497,256a44.76,44.76,0,0,0-2.82-6l.84-.42A50.38,50.38,0,0,1,497.87,255.56Z" style="fill:#fff"/><path d="M506.91,255.87c-2.62.92-4.66,1.59-6.12,2l-.24-.9a4.6,4.6,0,0,0,.84-.27v-7h.89v6.79l1.52-.42v-7.78h-2.4v-5.38h5v5.38h-1.66v2.47h2v.88h-2v4.09c.48-.14,1.2-.39,2.14-.76Zm-1.43-8.52v-3.57h-3.16v3.57Zm9.94-2.34c0,1.47,0,3-.07,4.47s-.1,2.58-.13,3.21a1.93,1.93,0,0,1-.57,1.4,1.75,1.75,0,0,1-1.19.44l-1.53,0-.34-.93c.3,0,.92,0,1.86,0a.84.84,0,0,0,.69-.35,9.66,9.66,0,0,0,.32-3.25c0-1.94,0-3.31,0-4.13h-5.77a16.75,16.75,0,0,1-1.47,1.84l-.61-.76a14.55,14.55,0,0,0,3-4.82l.84.36a18.75,18.75,0,0,1-1.22,2.5Zm.78,10.28a6,6,0,0,1-.3,1.27,2,2,0,0,1-.56.91,1.53,1.53,0,0,1-.87.32c-.36,0-1,0-2,0-1.94,0-3.08,0-3.4-.08a1.28,1.28,0,0,1-.81-.46,1.53,1.53,0,0,1-.31-1V247.6h4.57v5.06h-3.68v3.51c0,.36.11.58.33.65a14.72,14.72,0,0,0,2.45.1c1.62,0,2.62,0,3-.06s.61-.69.75-1.93Zm-4.64-3.53v-3.24h-2.75v3.24Z" style="fill:#fff"/><path d="M358.61,270.4a19.6,19.6,0,0,1-1.75,2.47v9.21h-.93V274a25.51,25.51,0,0,1-2.34,2.16l-.49-.73a21,21,0,0,0,4.72-5.52Zm-.42-3.57a16.51,16.51,0,0,1-4.51,3.74l-.55-.74a15.66,15.66,0,0,0,4.29-3.58Zm10.6,5.75H366v8a1.37,1.37,0,0,1-.3.93,1.25,1.25,0,0,1-.69.41,9.83,9.83,0,0,1-1.55.08c-.67,0-1.21,0-1.62,0l-.38-1c.51,0,1,0,1.61,0a9.91,9.91,0,0,0,1.75-.07c.12,0,.17-.14.17-.31v-8.07h-6.33v-.95h10.18Zm-.88-4.55h-8.55v-.95h8.55Z" style="fill:#fff"/><path d="M387.19,277.5h-7.3v4.58h-1V277.5h-7.4v-.9h7.4v-1.48h-6.61v-.84h6.61v-1.41h-7V272h4.7a7.26,7.26,0,0,0-1-1.4l.69-.43h-4.79v-.91h5.94v-2.91h.92v2.91h2v-2.91h.9v2.91h5.84v.91h-4.69l.65.45a5.79,5.79,0,0,1-.9,1.38h4.56v.88h-6.89v1.41h6.46v.84h-6.46v1.48h7.3Zm-9.86,1.37a19.33,19.33,0,0,1-5.15,2.75l-.6-.79a17.15,17.15,0,0,0,5.06-2.58Zm-1.7-10.48-.79.47a11.78,11.78,0,0,0-1.76-1.81l.81-.57A12.93,12.93,0,0,1,375.63,268.39Zm6.61,1.77h-5.7a15,15,0,0,1,1.18,1.83h3.39A7.76,7.76,0,0,0,382.24,270.16Zm5,10.89-.54.74a33.63,33.63,0,0,0-5.25-2.85l.53-.72A31.69,31.69,0,0,1,387.21,281.05Zm-1.46-14.12a8.71,8.71,0,0,1-1.82,1.87l-.83-.46a12.21,12.21,0,0,0,1.81-1.82Z" style="fill:#fff"/><path d="M391.93,277.73a17.23,17.23,0,0,1-1.18,4.11l-.83-.42a21.14,21.14,0,0,0,1.16-3.89Zm4.23-1.31-.83.32c-.06-.34-.13-.61-.18-.83-1.78.5-3.39.87-4.83,1.14l-.32-.78a19.52,19.52,0,0,0,3.58-4.31c-1,.19-2.06.36-3.21.52l-.21-.83a17.37,17.37,0,0,0,3.13-5.39l.89.24a20.91,20.91,0,0,1-2.69,4.95c.74-.09,1.63-.23,2.64-.41a16.15,16.15,0,0,0,1.16-2.09l.88.35a31,31,0,0,1-4.53,6.58c1.05-.21,2.12-.46,3.22-.77a6.76,6.76,0,0,0-.52-1.26l.82-.33A12.85,12.85,0,0,1,396.16,276.42Zm-2,4.92-.87.17a20.13,20.13,0,0,0-.35-3.78l.81-.15A15,15,0,0,1,394.13,281.34Zm2.44-1.46-.79.31a14.48,14.48,0,0,0-.78-2.56l.76-.31A12.31,12.31,0,0,1,396.57,279.88Zm2.59-4.81-.79.38a21.57,21.57,0,0,0-2.25-3.51,25.11,25.11,0,0,0,2-3.31l.84.32a18.89,18.89,0,0,1-1.78,3A18.92,18.92,0,0,1,399.16,275.07Zm6.44,6.55h-9.29v-.9h4.16v-3.67h-3.66v-.92h8.35v.92h-3.73v3.67h4.17Zm-.22-14h-9.05v-.89h9.05Zm-3,7.31-.79.45a22.94,22.94,0,0,0-2.18-3.4,21.59,21.59,0,0,0,1.9-3.22l.91.29a23,23,0,0,1-1.78,2.91A27.39,27.39,0,0,1,402.36,275Zm3.19,0-.79.43a22.38,22.38,0,0,0-2.21-3.37,23.54,23.54,0,0,0,1.94-3.33l.88.33a28.74,28.74,0,0,1-1.73,2.93A27.71,27.71,0,0,1,405.55,275Z" style="fill:#fff"/><path d="M409.66,276.46a26.23,26.23,0,0,1-.49,4.37l-.85-.2a21.75,21.75,0,0,0,.56-4.25Zm5.2-8.84h-2v1.73h1.7v.84h-1.7v1.69h1.7v.89h-1.7v1.78h1.7c0,1,0,1.82,0,2.44,0,1.27,0,2.29-.12,3.05a3.19,3.19,0,0,1-.38,1.5,1.16,1.16,0,0,1-.67.43,7,7,0,0,1-1.49.11l-.27-.93,1.08,0a.79.79,0,0,0,.78-.49,14,14,0,0,0,.23-3.51c0-.65,0-1.23,0-1.74h-4.43v-8.69h5.62Zm-4,13-.74.1c0-.56,0-1.11,0-1.64,0-.94,0-1.77-.1-2.51l.68-.11c.1,1.68.15,2.75.15,3.2S410.91,280.29,410.9,280.6Zm1-11.27v-1.71h-1.75v1.71Zm0,2.55v-1.67h-1.75v1.67Zm0,2.67v-1.78h-1.75v1.78Zm.38,5.33-.73.1a20.21,20.21,0,0,0-.37-3.5l.66-.15A26.15,26.15,0,0,1,412.29,279.88Zm1.11-1-.61.15a23,23,0,0,0-.54-2.81l.57-.14A20.73,20.73,0,0,1,413.4,278.92Zm10.71-8.31-.47.77a12.53,12.53,0,0,1-4.36-3.82,16.19,16.19,0,0,1-4.09,3.75l-.55-.76a13.38,13.38,0,0,0,4.43-4.36l.91.29a2.18,2.18,0,0,1-.15.33A12.4,12.4,0,0,0,424.11,270.61Zm-5,9.73-.65.67a11.21,11.21,0,0,0-1.33-1.53,13.42,13.42,0,0,1-1.7,2.55l-.74-.5a12.31,12.31,0,0,0,2.38-4.41l.85.29c-.18.51-.33.92-.45,1.22A15.8,15.8,0,0,1,419.11,280.34Zm-.24-3.65h-3.44v-4.28h3.44Zm-.86-.85v-2.59h-1.73v2.59Zm3.64-4.7h-4.81v-.86h4.81Zm2.44,10.25-.67.62a12.64,12.64,0,0,0-2.19-2.28,14.29,14.29,0,0,1-1.64,2.4l-.74-.56a12.35,12.35,0,0,0,2.51-4.52l.87.31a15.5,15.5,0,0,1-.62,1.54A15.58,15.58,0,0,1,424.09,281.39Zm-.81-4.7h-3.47v-4.28h3.47Zm-.84-.85v-2.59h-1.79v2.59Z" style="fill:#fff"/><path d="M432.7,275.16l-.49.81a17,17,0,0,0-2-2.24V282h-.94v-7.89a17.06,17.06,0,0,1-2,3.66l-.68-.65a21.8,21.8,0,0,0,2.64-5.45h-2.47v-.86h2.47v-2.73a15.13,15.13,0,0,1-1.9.4l-.45-.79a25.86,25.86,0,0,0,4.8-1.33l.59.72a14.18,14.18,0,0,1-2.1.74v3h1.6v.86h-1.6v.91A22.19,22.19,0,0,1,432.7,275.16Zm8.76,4.43h-5.28l.44.5a18.22,18.22,0,0,1-4.21,1.87l-.51-.77a19,19,0,0,0,3.84-1.6h-2.18V273h7.9Zm1-7.6h-9.92v-.77h4.54V270.1h-3.73v-.77h3.73v-1H433v-.78h4.16v-1.28H438v1.28h4.07v.78H438v1h3.63v.77H438v1.12h4.49Zm-1.93,3v-1.13h-6.12V275Zm0,1.91v-1.13h-6.12v1.13Zm0,1.91v-1.15h-6.12v1.15Zm1.89,2.44L442,282a22.76,22.76,0,0,0-3.72-1.26l.37-.82A24.88,24.88,0,0,1,442.45,281.24Z" style="fill:#fff"/><path d="M451.16,279.32a19.29,19.29,0,0,1-5.38,2.19l-.52-.79a19.76,19.76,0,0,0,5.11-1.94Zm9.45-1.28-.64.63c-.46-.56-.79-1-1-1.17-2.46.23-4.25.39-5.36.47v2.65a1.3,1.3,0,0,1-.41,1.11,3.07,3.07,0,0,1-1.61.29l-.76,0-.36-1a9.89,9.89,0,0,0,1.19.06,1.7,1.7,0,0,0,.84-.12.41.41,0,0,0,.17-.35v-2.56c-2.31.12-4.4.17-6.27.17l-.33-.86a32.1,32.1,0,0,0,6.78-2.23c-1.93.19-3.62.3-5.06.31l-.26-.76a21.79,21.79,0,0,0,4.22-2.19h-4.88v-5.78h12.55v5.78h-6.09a18.77,18.77,0,0,1-4.19,2.25l1.51-.13,3.34-.33a6.42,6.42,0,0,0,1.36-.25l1.62-.79.73.56a50,50,0,0,1-9.1,3.67q4.88-.19,9.58-.72a13.65,13.65,0,0,0-1.43-1.19l.65-.62A16.46,16.46,0,0,1,460.61,278Zm-8-8.86V267.6h-4.86v1.58Zm0,2.44V270h-4.86v1.59Zm5.85-2.44V267.6h-4.92v1.58Zm0,2.44V270h-4.92v1.59Zm2.45,9.37-.56.74a25.54,25.54,0,0,0-5.29-2.28l.52-.74A27.71,27.71,0,0,1,460.94,281Z" style="fill:#fff"/><path d="M479.44,281.65H463.67v-.71h2.73v-4.25h10.25v4.25h2.79Zm-.5-3.95h-.88v-1.84H465v1.84h-.92v-2.52h14.87Zm-8-3.33h-6.41V271h6.41Zm-3.59-2v-.83h-2v.83Zm0,1.41v-.86h-2v.86Zm9.72-3.7H466v-3.41h11.1Zm-6-2v-.81h-4.21v.81Zm0,1.37v-.79h-4.21v.79Zm4.68,8.64v-.79h-8.42v.79Zm0,1.4v-.81h-8.42v.81Zm0,1.39v-.8h-8.42v.8Zm-5.65-8.55v-.83h-1.91v.83Zm0,1.41v-.86h-1.91v.86Zm6.11-5.66v-.81H472v.81Zm0,1.37v-.79H472v.79Zm2.32,4.86H472.1V271h6.41Zm-3.59-2v-.83h-2v.83Zm0,1.41v-.86h-2v.86Zm2.76-1.41v-.83h-1.91v.83Zm0,1.41v-.86h-1.91v.86Z" style="fill:#fff"/><path d="M497.87,281.1l-.34.9a29.25,29.25,0,0,1-8.94-1.74,12,12,0,0,1-6,1.83l-.48-.92a11.62,11.62,0,0,0,5.46-1.34,16.77,16.77,0,0,1-3.31-2.06l.75-.59a12.36,12.36,0,0,0,3.3,2,5.24,5.24,0,0,0,1.19-2.81H483.9v-6.73h5.67v-2h-7.32v-.88h15.46v.88h-7.18v2H496v6.73h-5.6a6.44,6.44,0,0,1-1.18,3.17A29,29,0,0,0,497.87,281.1Zm-8.3-8.62v-1.93H484.9v1.93Zm0,.88H484.9v2.12h4.62c0-.47.05-.93.05-1.37C489.57,273.85,489.57,273.6,489.56,273.36Zm5.51,2.12v-2.12h-4.52c0,1,0,1.67-.05,2.12Zm0-3v-1.93h-4.52v1.93Z" style="fill:#fff"/><path d="M515.94,268.75H500.79v-.86h7.13a5.21,5.21,0,0,0-.52-1.44l.91-.29a8.22,8.22,0,0,1,.58,1.73h7.05Zm-.77,11.85a1.53,1.53,0,0,1-.33,1c-.21.26-.74.38-1.56.38-.27,0-.6,0-1,0l-.3-.93c.72,0,1.21,0,1.46,0,.52,0,.79-.22.79-.66v-5h-11.7V282h-.92v-7.47h13.55Zm-1.76-7.28H503.33V269.9h10.08Zm-1-.88v-1.63H504.3v1.63Zm-.36,7.73h-7.39v-3.52h7.39Zm-1-.87v-1.77h-5.45v1.77Z" style="fill:#fff"/><path d="M565.8,214.59H562v1.76c0,1-.56,1.51-1.68,1.51l-1.67,0-.43-.9q.57,0,1.41,0a4.1,4.1,0,0,0,1.23-.1.38.38,0,0,0,.18-.36v-1.91H550.16v-.84h10.89v-.91h1v.91h3.79Zm-.23-10.51h-7.09v1.24h5.69v4.89h-.94a13.85,13.85,0,0,1,2.2,2.42l-.76.52a7.2,7.2,0,0,0-.86-1.08q-7.26.56-13,.58l-.24-.84c2.19,0,4.53,0,7-.14v-1.46h-5.72v-4.89h5.72v-1.24H550.4v-.83h7.14v-1.11h.94v1.11h7.09Zm-8,3.25v-1.2h-4.79v1.2Zm0,2.08v-1.28h-4.79v1.28Zm-1.17,7.23-.59.72a13.23,13.23,0,0,0-2.65-1.78l.6-.7A12.73,12.73,0,0,1,556.37,216.64Zm6.88-9.31v-1.2h-4.77v1.2Zm0,2.08v-1.28h-4.77v1.28ZM563,211.3c-.34-.34-.56-.55-.67-.64l.59-.45h-4.48v1.41C560.37,211.52,561.89,211.41,563,211.3Z" style="fill:#fff"/><path d="M573,202.33c-.19.53-.44,1.16-.77,1.87l-.49,1v12.61h-1V207.17a19.81,19.81,0,0,1-1.94,2.85l-.55-1A25,25,0,0,0,572,202Zm11.2,8h-5.27v6.14h4.82v.91H573v-.91h4.93v-6.14h-5.36v-.94h5.36v-6h-4.48v-.91h9.94v.91h-4.48v6h5.27Z" style="fill:#fff"/><path d="M602.67,211.83l-.24.8h-6.37a15.18,15.18,0,0,1-4.38-.44,6.56,6.56,0,0,1-2-1,12.74,12.74,0,0,1-2.17,1.72l-.57-.71a8.46,8.46,0,0,0,3.28-3.28h-2.88V208a28.44,28.44,0,0,0,2.61-2.2h-2.84V205h4v.85a21.26,21.26,0,0,1-2.44,2.21h2.44v.84a6,6,0,0,1-1,1.67,5.35,5.35,0,0,0,1.82.92,17.62,17.62,0,0,0,4.35.35Zm0,2.78h-3.37v1.82a1.25,1.25,0,0,1-.44,1,3,3,0,0,1-1.68.34h-1.25l-.29-.88c1.19,0,1.95,0,2.27,0s.47-.16.47-.41v-1.89H587.06v-.89h11.27v-.6h.92v.6h3.37Zm-12-10.64-.65.59a16.24,16.24,0,0,0-2.51-1.89l.68-.58A14,14,0,0,1,590.64,204Zm3.17,12.48-.57.72a14.65,14.65,0,0,0-2.9-1.37l.56-.72A14.62,14.62,0,0,1,593.81,216.45Zm8.77-12.16h-4.91a10.51,10.51,0,0,1-.53.94h4.52v5.53h-9.11v-5.53h3.62a5.08,5.08,0,0,0,.54-.94h-5.19v-.81h11.06Zm-7.18-1.48-.77.48a6.26,6.26,0,0,0-1.22-.79l.78-.49A4.8,4.8,0,0,1,595.4,202.81Zm5.34,4V206h-7.25v.83Zm0,1.61v-.91h-7.25v.91Zm0,1.59v-.92h-7.25V210Zm0-7.56a8.08,8.08,0,0,1-1.32.79l-.75-.54A5.19,5.19,0,0,0,600,202Z" style="fill:#fff"/><path d="M611.72,216.75H607.1v1.14h-.94V204.2H608a14,14,0,0,0,1-2.12l.9.27a11.62,11.62,0,0,1-.88,1.85h2.3v4.85H607.1v2.33h4.62Zm-1.39-8.57V205.1H607.1v3.08Zm.44,7.67v-3.58H607.1v3.58Zm10.38-12.35H617.3V206h3.1v9.27c0,1-.69,1.39-2.07,1.28l-.29-.93.7,0c.49,0,.74-.17.74-.5v-8.26H617.3v11h-.92v-11h-2.22v9.67h-.94V206h3.16V203.5h-4v-.93h8.74Z" style="fill:#fff"/><path d="M639.48,204.75h-3.11v1.43a.49.49,0,0,0,.14.33.46.46,0,0,0,.34.15h2.25v.86h-2.3c-.9,0-1.35-.42-1.35-1.24v-1.53h-1.86v2.87h-4.31v-2.87h-1.82a4.4,4.4,0,0,1-2.49,3.66l-.74-.68a3.63,3.63,0,0,0,2.25-3h-2.66v-.92h2.77l.06-1.72h.88c0,.52,0,1.09,0,1.72h1.79v-1.69h.93v1.69h2.45v-1.69h.93v1.69h1.86v-1.72h.92v1.72h3.11Zm-.7,7.75h-.9v-2.8h-5.73v2H637v3.95a1.36,1.36,0,0,1-.38,1,5.77,5.77,0,0,1-2.75.35l-.33-1a21.18,21.18,0,0,0,2.34-.06c.15,0,.22-.16.22-.35v-3h-4v5.2h-.91v-5.2h-4V217h-.92v-5.33h4.92v-2h-5.71v2.8h-1v-3.71h14.21Zm-6.12-5.77v-2h-2.45v2Z" style="fill:#fff"/><path d="M651.34,203.23a24.59,24.59,0,0,1-2.52,3.5h1.95v.87H648c-.66.68-1.26,1.26-1.81,1.74h3.47v.8q-1.12,1.13-2.34,2.13v.88c1.08-.18,2.15-.4,3.24-.67l0,.94c-1,.24-2.06.45-3.2.64v2.47a1.33,1.33,0,0,1-.33.94,2.32,2.32,0,0,1-1.56.35c-.29,0-.61,0-.94,0l-.29-1c.32,0,.7.05,1.15.05a2,2,0,0,0,.92-.12.45.45,0,0,0,.17-.4v-2.1c-1.58.25-2.86.44-3.85.55l-.22-.86c1.54-.2,2.89-.41,4.07-.63v-1.42c.63-.52,1.25-1.09,1.85-1.69H645c-.77.57-1.49,1.06-2.17,1.47l-.61-.77a22.46,22.46,0,0,0,4.55-3.3h-4.21v-.87h3.29v-2.06h-2.75v-.84h2.75v-1.75h.92v1.75h2.11v.84h-2.11v2.06h.89a19.32,19.32,0,0,0,2.87-3.93Zm6.76,13.82-.57.86a14,14,0,0,1-3.42-3,16.55,16.55,0,0,1-4,3l-.61-.82a13.84,13.84,0,0,0,4.05-3,16.23,16.23,0,0,1-1.53-4.61l.9-.32a14.37,14.37,0,0,0,1.24,4.14,12.61,12.61,0,0,0,1.73-7.36h-2.74a20.56,20.56,0,0,1-2.28,4.23l-.72-.67a16.15,16.15,0,0,0,3-7.42l.92.24a25.36,25.36,0,0,1-.67,2.7H658v.92h-1.11q0,5.3-2.15,8.25A11.07,11.07,0,0,0,658.1,217.05Z" style="fill:#fff"/><path d="M667.94,215.26h-3v2.53h-.89v-2.53h-3.31v-.87h3.31v-1.6h-2.49v-6.87h2.49v-1.61H661v-.85h3.09v-1.4H665v1.4h2.66v.85H665v1.61h2.5v6.87H665v1.6h3Zm-3.86-6.32v-2.13h-1.6v2.13Zm0,3V209.8h-1.6v2.11Zm2.49-3v-2.13H665v2.13Zm0,3V209.8H665v2.11Zm9.79-7h-3.69v1.8h3v10a1,1,0,0,1-.31.69.92.92,0,0,1-.66.33l-1.08,0-.25-.88c.36,0,.69,0,1,0a.39.39,0,0,0,.45-.43v-2.77h-2.16v3.83h-.91v-3.83h-2.15v4h-.9v-11h3v-1.8h-3.64v-.82h3.64V202h.91v2.1h3.69Zm-4.6,4.76v-2.1h-2.15v2.1Zm0,3.2v-2.34h-2.15v2.34Zm3.07-3.2v-2.1h-2.16v2.1Zm0,3.2v-2.34h-2.16v2.34Zm.74-9.73-.61.66a9.19,9.19,0,0,0-1.48-1.14L674,202A7.59,7.59,0,0,1,675.57,203.17Z" style="fill:#fff"/><path d="M694.83,211.83l-.24.8h-6.37a15.18,15.18,0,0,1-4.38-.44,6.56,6.56,0,0,1-2-1,12.74,12.74,0,0,1-2.17,1.72l-.57-.71a8.46,8.46,0,0,0,3.28-3.28h-2.88V208a28.44,28.44,0,0,0,2.61-2.2h-2.84V205h4v.85a21.26,21.26,0,0,1-2.44,2.21h2.44v.84a6,6,0,0,1-1,1.67,5.35,5.35,0,0,0,1.82.92,17.62,17.62,0,0,0,4.35.35Zm-.05,2.78h-3.37v1.82a1.25,1.25,0,0,1-.44,1,3,3,0,0,1-1.68.34H688l-.29-.88c1.19,0,2,0,2.27,0s.48-.16.48-.41v-1.89H679.22v-.89H690.5v-.6h.91v.6h3.37ZM682.8,204l-.65.59a16.24,16.24,0,0,0-2.51-1.89l.68-.58A14,14,0,0,1,682.8,204ZM686,216.45l-.57.72a14.39,14.39,0,0,0-2.9-1.37l.56-.72A14.62,14.62,0,0,1,686,216.45Zm8.77-12.16h-4.91a10.51,10.51,0,0,1-.53.94h4.52v5.53h-9.11v-5.53h3.62a5.08,5.08,0,0,0,.54-.94h-5.19v-.81h11.06Zm-7.18-1.48-.77.48a6.26,6.26,0,0,0-1.22-.79l.78-.49A4.8,4.8,0,0,1,687.56,202.81Zm5.34,4V206h-7.25v.83Zm0,1.61v-.91h-7.25v.91Zm0,1.59v-.92h-7.25V210Zm0-7.56a8.08,8.08,0,0,1-1.32.79l-.75-.54a5.41,5.41,0,0,0,1.34-.74Z" style="fill:#fff"/><path d="M565.75,228.74h-3.11v1.43a.52.52,0,0,0,.48.48h2.25v.86h-2.3c-.9,0-1.35-.41-1.35-1.24v-1.53h-1.86v2.88h-4.31v-2.88h-1.82a4.4,4.4,0,0,1-2.49,3.67l-.74-.69a3.62,3.62,0,0,0,2.25-3h-2.66v-.92h2.78l0-1.71h.88a16.9,16.9,0,0,1,0,1.71h1.79v-1.69h.93v1.69h2.45v-1.69h.93v1.69h1.86v-1.71h.92v1.71h3.11Zm-.7,7.75h-.9v-2.8h-5.73v2h4.88v3.94a1.34,1.34,0,0,1-.38,1,5.77,5.77,0,0,1-2.75.35l-.32-1a21.06,21.06,0,0,0,2.33-.06c.15,0,.22-.15.22-.35v-3h-4v5.2h-.91v-5.2h-4V241h-.92v-5.32h4.92v-2H551.8v2.8h-.95v-3.7h14.2Zm-6.12-5.77v-2h-2.45v2Z" style="fill:#fff"/><path d="M577,237.29h-3.69v4.53h-.91v-4.53h-3.86v-.85h3.86v-1.67H569v-.85h2a8.45,8.45,0,0,0-.72-1.6l.56-.48H569V231h3a5.29,5.29,0,0,0-.46-1l.81-.34a6.34,6.34,0,0,1,.59,1.35h3.78v.87h-1.85l.63.41a11.9,11.9,0,0,1-.79,1.67h1.93v.85h-3.3v1.67H577Zm-5.7,1.21a13.71,13.71,0,0,1-1.94,2.92l-.79-.5a12.82,12.82,0,0,0,2-2.9ZM576,228.45h-2.16v1.22h-.9v-1.22h-4.32v-.81h4.32v-1.49h.9v1.49H576Zm-1.32,3.39H571.1a12.75,12.75,0,0,1,.86,2.08h1.73A13,13,0,0,0,574.67,231.84Zm1.41,8.4-.77.43a12.07,12.07,0,0,0-1.07-2.25l.72-.4A9.17,9.17,0,0,1,576.08,240.24Zm8.14-4.73h-2v6.37h-.91v-6.37h-2.59a15.08,15.08,0,0,1-1.56,6.41l-.78-.48a12.57,12.57,0,0,0,1.46-6.13V231.2a21.76,21.76,0,0,0,5.67-1.13l.47.83a22.81,22.81,0,0,1-5.22,1.11v2.59h5.49Zm0-7.06H580v1.24l-.94,0v-1.26h-2.25v-.81h2.25v-1.49H580v1.49h4.23Z" style="fill:#fff"/><path d="M602.72,240.94l-.47.9a24.38,24.38,0,0,1-7.41-2.45,22.85,22.85,0,0,1-7.42,2.4l-.5-.9a24.34,24.34,0,0,0,7-2,14.67,14.67,0,0,1-3.47-3.58h-.63v-.89h9.86v.89a16,16,0,0,1-3.87,3.58A24.24,24.24,0,0,0,602.72,240.94Zm-.52-5.54h-.92v-3H588.36v2.94h-1v-3.82h14.8Zm-.81-8.44a70.66,70.66,0,0,1-12.93,1.11l-.43-.95,2.27,0a52.41,52.41,0,0,0,10.62-1Zm-10.08,3.94-.9.32a10.69,10.69,0,0,0-1.37-2.37l.87-.36A10.26,10.26,0,0,1,591.31,230.9Zm7.15,4.37h-6.82a10.58,10.58,0,0,0,3.27,3.06A14.08,14.08,0,0,0,598.46,235.27Zm-2.7-4.48-.87.31a8.65,8.65,0,0,0-1.15-2.42l.9-.36A10.51,10.51,0,0,1,595.76,230.79Zm5.27-2.61a13.38,13.38,0,0,1-1.76,3l-.88-.4a11.61,11.61,0,0,0,1.74-2.86Z" style="fill:#fff"/><path d="M612,228.87h-6.59v-1h2.95a11.64,11.64,0,0,0-.74-1.59l.85-.44a10.79,10.79,0,0,1,.88,2H612Zm-.7,5H606V233h5.29Zm0-2.43h-5.33v-.92h5.33Zm-.14,10h-.94v-1.11h-3.24v1.36h-.94v-6h5.12Zm-.94-2.06v-2.75h-3.24v2.75Zm4-4.48q0,4.62-1.89,6.84l-.81-.59q1.79-1.95,1.78-6.41v-8.69h.92Zm3.08,5.33h-.92V227.2h.92Zm3.28,1.49h-.93V226.13h.93Z" style="fill:#fff"/><path d="M639.5,238.31a8.41,8.41,0,0,1-.58,2.59c-.3.7-.67,1-1.09,1s-1-.38-1.64-1.16a7.92,7.92,0,0,1-1.38-2.4,25.3,25.3,0,0,1-4.28,3.52l-.7-.74a21,21,0,0,0,4.59-3.82A35.68,35.68,0,0,1,633.3,230h-6.65v2.44h4.81c0,1.49-.09,2.81-.22,4a7.7,7.7,0,0,1-.42,2.15,1.67,1.67,0,0,1-.66.63,3.57,3.57,0,0,1-1.59.24l-.89,0-.29-1a7.26,7.26,0,0,0,1.22.1,2.74,2.74,0,0,0,1-.12,1.19,1.19,0,0,0,.39-.3,5.65,5.65,0,0,0,.35-1.69,23.86,23.86,0,0,0,.19-3h-3.88a19.46,19.46,0,0,1-2.11,8.57l-.74-.67a18.17,18.17,0,0,0,1.92-8.86v-3.35h7.49c-.05-1.31-.07-2.32-.07-3h.94c0,.92,0,1.93.09,3h5V230h-4.93a32.36,32.36,0,0,0,.9,6.46,16.94,16.94,0,0,0,2.43-5l1,.31a22.15,22.15,0,0,1-3,5.81,7.9,7.9,0,0,0,1.25,2.33c.5.61.84.92,1,.92s.37-.34.55-1a7.44,7.44,0,0,0,.28-2Zm-1-10-.81.58a11,11,0,0,0-2.06-1.89l.75-.62A9.14,9.14,0,0,1,638.52,228.27Z" style="fill:#fff"/><path d="M658,234.82H645.67v5.62c1.18-.34,2.53-.8,4.07-1.37l.22.9c-1.84.69-3.57,1.26-5.19,1.73l-.34-.95a.47.47,0,0,0,.29-.42v-5.51h-2.4V234h2.86v-7.41h11.74v.88H646.14V229H656v.88h-9.83v1.59H656v.86h-9.83V234H658Zm-.09,6-.52.86a18.43,18.43,0,0,1-5.08-2A8.09,8.09,0,0,1,649,236l.83-.37a8.29,8.29,0,0,0,2.12,2.75,18.65,18.65,0,0,0,3.76-2.68l.69.61a19.31,19.31,0,0,1-3.6,2.65A16.93,16.93,0,0,0,657.89,240.84Z" style="fill:#fff"/><path d="M664.73,233.09l-.58.74a21.37,21.37,0,0,0-3.52-2.35l.6-.74A19,19,0,0,1,664.73,233.09Zm.5,2.87a31,31,0,0,1-3.93,5.94l-.65-.76a29.22,29.22,0,0,0,3.79-5.78Zm.42-7.58-.59.78a18.11,18.11,0,0,0-3.59-2.29l.6-.76A22.23,22.23,0,0,1,665.65,228.38Zm10.83,12.7-.55.87a20.87,20.87,0,0,1-5.1-2.28,19.1,19.1,0,0,1-5.63,2.17l-.48-.86A18,18,0,0,0,670,239.1a11.12,11.12,0,0,1-3.31-4.1H666v-.9h9.2v.79a10.12,10.12,0,0,1-3.52,4.23A18.3,18.3,0,0,0,676.48,241.08Zm-.91-13.17a12.14,12.14,0,0,1-.54,4,1.7,1.7,0,0,1-1.71,1L671,233l-.38-1c.53,0,1,0,1.44,0a7.76,7.76,0,0,0,1.64-.09.79.79,0,0,0,.4-.32,3.12,3.12,0,0,0,.28-.94c.07-.47.13-1.08.17-1.85H669a14.61,14.61,0,0,1-2.63,4.32l-.79-.63a14.16,14.16,0,0,0,3.21-6.48l1,.18c-.05.26-.2.82-.45,1.69ZM674,235H667.7a10.25,10.25,0,0,0,3.12,3.57A9.31,9.31,0,0,0,674,235Z" style="fill:#fff"/><path d="M681.24,233.88l-.83.51a26.83,26.83,0,0,0-1.38-4.46l.77-.49A26.58,26.58,0,0,1,681.24,233.88ZM685,229.5a19,19,0,0,1-2.29,3.45,15.83,15.83,0,0,1-.15,2.67,24.66,24.66,0,0,1,2.37,3.86l-.76.58a25.2,25.2,0,0,0-1.75-3.06,10.44,10.44,0,0,1-2.55,4.86l-.78-.63a7.66,7.66,0,0,0,2-2.89,13.13,13.13,0,0,0,.71-4.8v-7.45h.92v5.4a18.82,18.82,0,0,0,1.55-2.64Zm9.83-2h-4.27c-.22.7-.44,1.38-.65,2h4v8.8h-5.59l.5.53a19.19,19.19,0,0,1-3.59,3l-.71-.71a16.11,16.11,0,0,0,3.49-2.78h-2.3v-8.8h3.21a14.52,14.52,0,0,0,.65-2h-4.64v-.88h9.92ZM693,234.69v-1.76h-6.33v1.76Zm0,2.74v-1.85h-6.33v1.85Zm0-5.35v-1.62h-6.32v1.62Zm1.88,9.15-.65.72a20,20,0,0,0-3.65-2.45l.6-.7A22,22,0,0,1,694.85,241.23Z" style="fill:#fff"/><path d="M699.13,230.19a17.71,17.71,0,0,1-.72,4.26l-.87-.26a19.73,19.73,0,0,0,.71-4.17Zm3.94,1.65-.61.77a14.25,14.25,0,0,0-1.55-2V241.8H700V226.11h.93v3.26A11.07,11.07,0,0,1,703.07,231.84Zm2.63-.33-.68.65a22.94,22.94,0,0,0-2.56-3,21.07,21.07,0,0,0,2.36-3.16l.88.35a20.87,20.87,0,0,1-2.09,2.75A26.53,26.53,0,0,1,705.7,231.51Zm6.94,10.29h-.93V241H704.1v.81h-1v-8.69h2.57a8.16,8.16,0,0,0,.92-1.67l.85.25a14.19,14.19,0,0,1-.69,1.42h5.86Zm-.93-1.72V234H704.1v6.06ZM711.1,239l-.57.6a23.08,23.08,0,0,0-2.31-1.92,17.33,17.33,0,0,1-3.1,2l-.59-.68a15.17,15.17,0,0,0,2.94-1.8c-1.05-.72-1.93-1.28-2.63-1.68l.52-.62c1.13.66,2,1.25,2.77,1.75a13.66,13.66,0,0,0,2-1.9l.65.51a15.39,15.39,0,0,1-1.88,1.9A25.43,25.43,0,0,1,711.1,239Zm-1.62-7.4-.72.58a19.87,19.87,0,0,0-2.51-3,22.1,22.1,0,0,0,2.2-3.12l.85.43a28.94,28.94,0,0,1-1.89,2.65A17.05,17.05,0,0,1,709.48,231.55Zm3.81.23-.79.49a18.81,18.81,0,0,0-2.5-3,22,22,0,0,0,2.18-3.2l.84.41a17.72,17.72,0,0,1-1.81,2.67A16.78,16.78,0,0,1,713.29,231.78Z" style="fill:#fff"/><path d="M753.41,173.57h-1.22v2.06h-3.11v1.06h3.12v2.76H749a14.73,14.73,0,0,1-.92,1.35h2.2a2.75,2.75,0,0,0,.26-.64l.9.22a1.87,1.87,0,0,1-.13.42h1.91v.8H751a6.23,6.23,0,0,1-1.64,2c1,.46,1.89.89,2.59,1.28l-.59.67a24.6,24.6,0,0,0-2.82-1.36,10.69,10.69,0,0,1-4.28,1.36l-.33-.85a11.55,11.55,0,0,0,3.57-.94,24.89,24.89,0,0,0-2.4-.89c.31-.33.7-.77,1.16-1.29h-2.49v-.8h3.18c.37-.47.7-.92,1-1.35H745v-2.76h3.16v-1.06H745v-2.06h-1.28v-.83H745v-1.9h3.16v-1h.89v1h3.11v1.9h1.22Zm-5.22-.83v-1.12h-2.27v1.12Zm0,2.07v-1.24h-2.27v1.24Zm0,3.83v-1.13h-2.26v1.13Zm1.69,3h-2.43c-.13.17-.4.49-.79,1a15.87,15.87,0,0,1,1.71.62A4.68,4.68,0,0,0,749.88,181.6Zm1.42-8.86v-1.12h-2.22v1.12Zm0,2.07v-1.24h-2.22v1.24Zm0,3.83v-1.13h-2.22v1.13Zm8.12-5h-.82q-.2,5.63-1.9,8.7a10.08,10.08,0,0,0,2.69,2.57l-.53.74a9.48,9.48,0,0,1-2.77-2.55,13.64,13.64,0,0,1-3.08,2.55l-.55-.74a13.43,13.43,0,0,0,3.09-2.59,14.34,14.34,0,0,1-1.5-5.05l.85-.29a15.16,15.16,0,0,0,1.26,4.47,11.33,11.33,0,0,0,1.2-3.7,36.69,36.69,0,0,0,.37-4.11h-2.46a13.67,13.67,0,0,1-1.95,3.55l-.71-.53a17.88,17.88,0,0,0,2.77-6.86l.87.16a20.92,20.92,0,0,1-.7,2.79h3.87Z" style="fill:#fff"/><path d="M767,170.2c-.23.54-.53,1.2-.92,2l-.59,1.13v12.29h-1V175a24.53,24.53,0,0,1-2,2.73l-.6-.89a24.9,24.9,0,0,0,4.1-7Zm10.93,15H766.32v-.93H770a53.92,53.92,0,0,0-2-9.67l.62-.35h-2v-.93h5.34a16.24,16.24,0,0,0-1.08-3.17l.91-.31a24.28,24.28,0,0,1,1.18,3.48h4.7v.93H775.8l.57.22a63.14,63.14,0,0,1-2.13,9.8h3.66Zm-2.51-10.95H768.9a77.71,77.71,0,0,1,2.05,10h2.32A52.8,52.8,0,0,0,775.39,174.21Z" style="fill:#fff"/><path d="M789.2,174.56h-3.67a2.51,2.51,0,0,1-.18.5,25.5,25.5,0,0,1,3.78,2.25l-.58.72a24.31,24.31,0,0,0-3.58-2.22,6.92,6.92,0,0,1-3.7,2.83l-.69-.73a5.88,5.88,0,0,0,3.95-3.35H781v-.86h3.76a9.94,9.94,0,0,0,.24-1.77h-1.89a10.84,10.84,0,0,1-1.41,1.32l-.75-.58a10.53,10.53,0,0,0,2.66-2.9l.87.3a8.18,8.18,0,0,1-.65,1h4.91v.88H786q-.09,1-.21,1.77h3.45Zm5.19,11h-.94v-1.12h-9.9v1.14h-.93v-7.09h11.77Zm-.94-4.52v-1.65h-9.9v1.65Zm0,2.5V182h-9.9v1.61Zm2.45-6.67H790v-5.83h5.94ZM795,176V172H790.9V176Z" style="fill:#fff"/><path d="M807.51,174.54l-.74.6a9.17,9.17,0,0,0-.68-1.08q-3.27.47-6.72.64l-.34-.78a10.34,10.34,0,0,0,2.9-4.06l.93.23a15.06,15.06,0,0,1-2.35,3.68c1.88-.16,3.54-.33,5-.52a14.43,14.43,0,0,0-1.51-1.7l.81-.52A13.77,13.77,0,0,1,807.51,174.54Zm-1.17,10a1,1,0,0,1-.33.76,1.21,1.21,0,0,1-.73.34c-.26,0-.84,0-1.72,0l-.37-.9q.42,0,.84,0a6,6,0,0,0,1.12-.07.3.3,0,0,0,.25-.32v-2.93c-1.72.78-3.14,1.36-4.24,1.74l-.42-.6a10.36,10.36,0,0,1-.85,3l-.83-.48a11.56,11.56,0,0,0,.83-4.29V176h6.45Zm-.94-4.07v-3.55h-4.55v1.28a24.91,24.91,0,0,1,3.9,1.07l-.43.81a26.08,26.08,0,0,0-3.47-1v1.75a14.19,14.19,0,0,1-.07,1.47A38.11,38.11,0,0,0,805.4,180.48Zm9.36,2.05a5.84,5.84,0,0,1-.38,2,1.53,1.53,0,0,1-.68.81,3.72,3.72,0,0,1-1.46.19l-2.7,0a1.32,1.32,0,0,1-1-.35,1.19,1.19,0,0,1-.37-.92v-6.77h.91v2.61h5.17v.86h-5.17v3.21c0,.35.22.52.65.52,1.83,0,2.87,0,3.13,0a.82.82,0,0,0,.61-.35,5.09,5.09,0,0,0,.37-1.94Zm-.19-5.83h-5.24a1,1,0,0,1-.8-.35,1.2,1.2,0,0,1-.32-.83v-5.6h.9v2.25h5.15V173h-5.15v2.35c0,.29.16.43.48.43h5Z" style="fill:#fff"/><path d="M822.47,184.71h-.94v-1.43H819v1.82h-.94V170.94h4.38Zm-.94-8.1v-4.73H819v4.73Zm0,5.74v-4.84H819v4.84Zm11.27-9.61h-4.19v2.61h3.7v.9h-8.42v-.9h3.78v-2.61h-4.41v-1h4.41v-2h.94v2h4.19Zm.41,6.64h-2V184a1.29,1.29,0,0,1-.5,1.2,4.07,4.07,0,0,1-1.9.29h-1l-.38-1q.87.06,1.53.06a2.91,2.91,0,0,0,1.13-.13.52.52,0,0,0,.23-.47v-4.63h-7v-.92h7v-1.67h.93v1.67h2ZM827.8,183l-.81.48a14.86,14.86,0,0,0-2.33-2.75l.79-.54A18.59,18.59,0,0,1,827.8,183Z" style="fill:#fff"/><path d="M840.6,170.11c-.18.47-.43,1.07-.76,1.78l-.49,1.05v12.67h-1V174.79a18.93,18.93,0,0,1-2.06,3l-.53-.89a25.92,25.92,0,0,0,3.87-7.1Zm11,5.06-6.44.64a16.27,16.27,0,0,0,.93,5.21A6.7,6.7,0,0,0,848,183.9a3.37,3.37,0,0,0,1.49.88.36.36,0,0,0,.3-.14,5.75,5.75,0,0,0,.38-1.3,10.72,10.72,0,0,0,.26-2.29l1,.42A14.26,14.26,0,0,1,851,184a3.26,3.26,0,0,1-.6,1.41,1.09,1.09,0,0,1-.81.31,3.83,3.83,0,0,1-2.2-1.11,7.76,7.76,0,0,1-2.15-3.28,18.61,18.61,0,0,1-1-5.43l-3.85.4-.08-1,3.86-.38c-.09-1.59-.14-2.92-.14-4,0-.38,0-.75,0-1.1h.95c0,1.95,0,3.62.13,5l6.44-.64Zm-1.53-2.11-.81.49a12.54,12.54,0,0,0-2.45-2.77l.83-.5A9.43,9.43,0,0,1,850.06,173.06Z" style="fill:#fff"/><path d="M870.06,182.6h-7.39v3.07h-.93V182.6H854.4v-.9h7.34V180H860v-5.85a19.4,19.4,0,0,1-1.37,1.44l-.58-.77a13.69,13.69,0,0,0,3.39-5l.89.29a18.73,18.73,0,0,1-.87,1.83h3.5a6.62,6.62,0,0,0-.79-1.82l.87-.26a10.78,10.78,0,0,1,.88,2.08h3.71v.86h-4.18v1.5h3.51v.87h-3.51v1.49h3.51v.88h-3.51v1.55h4.42v.9h-7.18v1.67h7.39Zm-12.32-7.36-.55.74a11.52,11.52,0,0,0-2.78-1.49l.53-.78A12.61,12.61,0,0,1,857.74,175.24Zm1,2.15a13.58,13.58,0,0,1-3.74,3.45l-.54-.74a14.68,14.68,0,0,0,3.65-3.38Zm.13-5.46-.54.77a13.74,13.74,0,0,0-2.92-2L856,170A14.69,14.69,0,0,1,858.9,171.93Zm5.61,2.41v-1.5h-3.59v1.5Zm0,2.36v-1.49h-3.59v1.49Zm0,2.43v-1.55h-3.59v1.55Z" style="fill:#fff"/><path d="M876.7,169.93l-1,3.34v12.32h-.93V175.5a22.08,22.08,0,0,1-1.48,2.63l-.65-.74a24.87,24.87,0,0,0,3.17-7.78Zm11.72,5.24h-7.95a13.57,13.57,0,0,1-.93,1.46h7.82v7.6a1.53,1.53,0,0,1-.23.78,1.16,1.16,0,0,1-.61.51,5.42,5.42,0,0,1-1.55.09l-.38-.9c.4,0,.74,0,1,0,.58,0,.87-.2.87-.61v-1.84h-3v3.11h-.9v-3.11H879.3a8.39,8.39,0,0,1-1.89,3.4l-.65-.61a8.07,8.07,0,0,0,2.06-5.6v-1.94a14.45,14.45,0,0,1-2.12,2.23l-.61-.65a17.4,17.4,0,0,0,3.4-3.94h-3v-.89h3.38v-1.77h-3v-.91h3v-1.74h.93v1.74h3.43v-1.74h.93v1.74H888v.91h-2.85v1.77h3.23Zm-5.8,6.23v-1.53h-2.93a8.24,8.24,0,0,1-.18,1.53Zm0-2.41v-1.5h-2.89V179Zm1.64-4.71v-1.77h-3.43v1.77Zm2.22,4.71v-1.5h-3V179Zm0,2.41v-1.53h-3v1.53Z" style="fill:#fff"/><path d="M898.32,173.8a9.54,9.54,0,0,1-1.1.24,17.86,17.86,0,0,1-1.51,7.18,29.54,29.54,0,0,1,2.48,2.23l-.73.72a24,24,0,0,0-2.22-2.11,16.85,16.85,0,0,1-3.31,3.49l-.71-.67a13.48,13.48,0,0,0,3.25-3.37,21.62,21.62,0,0,0-2.67-1.82c.45-1.83.79-3.49,1-5-.77.06-1.28.09-1.54.09v-.9a14.55,14.55,0,0,0,1.68-.14c.18-1.11.34-2.4.49-3.87h1c-.07.92-.22,2.17-.45,3.76a20.69,20.69,0,0,0,2.33-.38q0-.85,0-1.68h1c0,.64,0,1.13,0,1.48a6.6,6.6,0,0,0,1.05-.25Zm-2.05.45a20.16,20.16,0,0,1-2.42.34c-.32,1.87-.64,3.41-1,4.63a21.53,21.53,0,0,1,2,1.42A16.09,16.09,0,0,0,896.27,174.25Zm10.67,3.88H903V184c0,.65-.17,1.07-.52,1.27a4.29,4.29,0,0,1-1.95.3c-.42,0-.84,0-1.24-.05l-.33-1a18.08,18.08,0,0,0,1.84.1,3.07,3.07,0,0,0,1-.1.37.37,0,0,0,.23-.36v-6.06h-4.3v-.94H902v-2.11a25.39,25.39,0,0,0,3.14-3.89h-7.1v-.93h8.22v1a28,28,0,0,1-3.25,4.17v1.74h3.9Z" style="fill:#fff"/><path d="M751.6,199.79h-6.06c0,.87,0,2.36-.07,4.47a15.24,15.24,0,0,1-.91,5.18l-.79-.6a21.88,21.88,0,0,0,.9-7v-7a26.92,26.92,0,0,0,6.28-1l.49.73a25.91,25.91,0,0,1-5.89,1.05v1.12h6.05Zm-.84-.83v-1.42h-5.21V199ZM752,202.3h-1.88v1.29h1.48v.78h-1.48v1.29h1.51v.76h-1.51v1.33h1.59v.81h-4v1h-.83v-5.78a3.79,3.79,0,0,1-.51.74l-.53-.72a13,13,0,0,0,1.58-3.54l.81.28q-.27.85-.33,1h1.61a6.53,6.53,0,0,0-.55-1l.83-.3a12.39,12.39,0,0,1,.63,1.27H752Zm-2.72,1.29V202.3H747.7v1.29Zm0,2.07v-1.29H747.7v1.29Zm0,2.09v-1.33H747.7v1.33Zm10.1-12.58h-3c-.15.74-.33,1.46-.54,2.14h2.74V206h-3.82l.6.47a11.49,11.49,0,0,1-2.67,3.13L752,209a10.26,10.26,0,0,0,2.57-3H753v-8.73h1.88a11.75,11.75,0,0,0,.53-2.14h-3.18v-.81h7.13Zm-1.7,4.64v-1.67h-3.81v1.67Zm0,2.59v-1.77h-3.81v1.77Zm0,2.85v-2h-3.81v2Zm1.79,3.85-.76.54a15.84,15.84,0,0,0-2.13-2.54l.72-.52A24.11,24.11,0,0,1,759.47,209.1Z" style="fill:#fff"/><path d="M769.21,200.53h-5.33v9h-.94V194.27h6.27Zm-1-3.61v-1.75h-4.38v1.75Zm0,2.71v-1.85h-4.38v1.85Zm5,7.42h-6.59v-5h6.59Zm-.91-.92V203h-4.74v3.11Zm4.67,2.05a1.33,1.33,0,0,1-.43,1.1,2.71,2.71,0,0,1-1.65.36h-.87l-.36-.93,1,0a3.51,3.51,0,0,0,1.12-.11.5.5,0,0,0,.25-.5v-7.58h-5.26v-6.26H777Zm-.92-11.26v-1.75h-4.34v1.75Zm0,2.71v-1.85h-4.34v1.85Z" style="fill:#fff"/><path d="M785.89,195.39h-.72v14.24h-.85v-3a36.42,36.42,0,0,1-3.49,1.4l-.29-.79c.5-.17.85-.3,1-.38V195.39h-.77v-.87h5.09Zm-1.57,2.8v-2.8h-1.89v2.8Zm0,4v-3.1h-1.89v3.1Zm0,3.6V203h-1.89v3.54C782.76,206.43,783.39,206.17,784.32,205.75Zm12,.61c-.19,2.13-.68,3.19-1.46,3.19s-1.27-.8-1.72-2.39a11,11,0,0,1-2.58,2.16l-.48-.67a13.71,13.71,0,0,0,2.78-2.58,46.89,46.89,0,0,1-.44-6.11h-6.51v-.87h1.72c-.16-.92-.35-1.82-.58-2.7h-.63v-.83h2.27a6.09,6.09,0,0,0-.69-1.35l.79-.43a11.37,11.37,0,0,1,.87,1.78h2.09v.83h-.72a21.11,21.11,0,0,1-.45,2.7h1.8v-5.18h.88c0,2.25,0,4,0,5.2h3V200h-2.93a32.12,32.12,0,0,0,.3,4.89,17.27,17.27,0,0,0,1.43-3.74l.77.29a17,17,0,0,1-2,4.82,5.21,5.21,0,0,0,.51,1.63c.24.46.42.69.56.69s.22-.25.36-.74a10,10,0,0,0,.3-1.92Zm-5.21.8h-4.35v-6h4.35Zm-.86-3.48V202h-2.62v1.66Zm0,2.65v-1.82h-2.62v1.82Zm-.12-9.94H788a25.43,25.43,0,0,1,.55,2.7h1.2C789.88,198.38,790,197.48,790.16,196.39Zm5.76,1.35-.81.35a14.78,14.78,0,0,0-1-2.63l.79-.35A14.4,14.4,0,0,1,795.92,197.74Z" style="fill:#fff"/><path d="M802.6,200.49l-.62.74a20.34,20.34,0,0,0-2.9-2.16l.6-.76A19.51,19.51,0,0,1,802.6,200.49Zm-.2,2.83a27.46,27.46,0,0,1-2.6,6.1l-.7-.65a27.66,27.66,0,0,0,2.49-6Zm.46-7.36-.61.74a17.56,17.56,0,0,0-2.84-2.2l.63-.74A19.41,19.41,0,0,1,802.86,196Zm11.83-.83h-10v5a23.38,23.38,0,0,1-.57,5.84,13.91,13.91,0,0,1-1.55,3.72l-.79-.6a15.23,15.23,0,0,0,2-7.9v-6.92h10.92Zm0,14h-9.65v-.9h4.35v-2.76h-3.7v-.89h3.7v-1.93h1v1.93h3.76v.89h-3.76v2.76h4.33Zm-.19-7.31h-9.11v-.9h4v-2.32H806v-.86h3.44V196h1v1.72h3.52v.86h-3.52v2.32h4.17Z" style="fill:#fff"/><path d="M824.93,208.4a1.16,1.16,0,0,1-.31.83,1.14,1.14,0,0,1-.85.34l-1.15,0q-.5,0-.93,0l-.34-1c.47,0,1.22.07,2.25.07a.4.4,0,0,0,.28-.14.48.48,0,0,0,.12-.31v-2.61h-4.09a9.49,9.49,0,0,1-1.73,4.1l-.72-.65q1.71-2.25,1.71-6.49v-4h5.76ZM833.11,197H817.48v-.89h15.63Zm-9.11,7.7v-2.2h-3.89c0,.46,0,1.19-.11,2.2Zm0-3.15v-2.06h-3.89v2.06Zm0-6.09-.91.37a10.23,10.23,0,0,0-1.8-1.66l1-.39A11.38,11.38,0,0,1,824,195.48Zm5.5-1.24a8.11,8.11,0,0,1-1.76,1.6l-1-.5a10.14,10.14,0,0,0,1.89-1.54Zm-1.34,12.34h-.91v-7.72h.91Zm3.56,1.69a1.35,1.35,0,0,1-.24.82,1,1,0,0,1-.6.41,7.12,7.12,0,0,1-1.39.08l-1.26,0-.35-1,2.47.09c.3,0,.45-.16.45-.52v-9.7h.92Z" style="fill:#fff"/><path d="M851.57,201.07H836v-.87h7.34a5.66,5.66,0,0,0-.73-1.36h-4.79v-4.6h12v4.6h-6.14c.21.4.41.85.62,1.36h7.28ZM841,206.56a14.83,14.83,0,0,1-4.08,2.64l-.67-.77a15.42,15.42,0,0,0,4.07-2.48Zm8.84-1.28h-5.6v3.13a1,1,0,0,1-.43.86,3.33,3.33,0,0,1-1.62.28H841l-.27-.9,2.16,0a.38.38,0,0,0,.29-.16.42.42,0,0,0,.14-.3v-2.89h-5.54v-3.19h12.06Zm-.93-9.18v-1H838.69v1Zm0,1.92V197H838.69V198Zm0,6.4V203H838.71v1.46Zm2.26,4-.67.69a19.86,19.86,0,0,0-3.9-2.41l.71-.67A22.77,22.77,0,0,1,851.14,208.41Z" style="fill:#fff"/><path d="M870.13,208.67l-.34.89a28.66,28.66,0,0,1-8.94-1.74,11.88,11.88,0,0,1-6,1.84l-.47-.92a11.62,11.62,0,0,0,5.46-1.35,16.37,16.37,0,0,1-3.32-2l.76-.59a12.62,12.62,0,0,0,3.3,2,5.16,5.16,0,0,0,1.18-2.81h-5.58v-6.73h5.67v-2h-7.32v-.88H870v.88h-7.18v2h5.5V204h-5.6a6.58,6.58,0,0,1-1.18,3.17A29,29,0,0,0,870.13,208.67Zm-8.3-8.62v-1.93h-4.67v1.93Zm0,.87h-4.65v2.13h4.62c0-.47.05-.93.05-1.37C861.83,201.42,861.83,201.17,861.81,200.92Zm5.51,2.13v-2.13h-4.51c0,1,0,1.67-.06,2.13Zm0-3v-1.93h-4.51v1.93Z" style="fill:#fff"/><path d="M888.18,200.15h-9.24c-.44.67-.76,1.12-.94,1.35h8.31v8.05h-.95v-.88H877.8v.89h-.92V203a35.53,35.53,0,0,1-3.33,3l-.69-.74a22.28,22.28,0,0,0,5-5.1h-4.77v-.86h5.32a14.47,14.47,0,0,0,.78-1.42h-5.49v-.81h5.87a8.84,8.84,0,0,0,.52-1.39c-2.27.16-4.17.24-5.71.24l-.26-.9a57.13,57.13,0,0,0,12.47-1.2l.52.84c-1.81.36-3.81.67-6,.91a14.17,14.17,0,0,1-.52,1.5h7.06v.81h-7.42a11,11,0,0,1-.73,1.42h8.72Zm-2.82,3.46v-1.23H877.8v1.23Zm0,2.09v-1.22H877.8v1.22Zm0,2.09v-1.23H877.8v1.23Z" style="fill:#fff"/><path d="M898.32,197.8a9.63,9.63,0,0,1-1.1.23,17.86,17.86,0,0,1-1.51,7.18,29.64,29.64,0,0,1,2.48,2.24l-.73.72a21.56,21.56,0,0,0-2.22-2.11,17.36,17.36,0,0,1-3.31,3.49l-.71-.68a13.32,13.32,0,0,0,3.25-3.37,22.79,22.79,0,0,0-2.67-1.82q.68-2.75,1-5c-.77.06-1.28.1-1.54.1v-.91a12.61,12.61,0,0,0,1.68-.14c.18-1.11.34-2.4.49-3.87h1c-.07.92-.22,2.18-.45,3.76a20.29,20.29,0,0,0,2.33-.37q0-.85,0-1.68h1c0,.63,0,1.12,0,1.47a6.6,6.6,0,0,0,1.05-.25Zm-2.05.44a20.08,20.08,0,0,1-2.42.35q-.48,2.81-1,4.62a23.55,23.55,0,0,1,2,1.42A16,16,0,0,0,896.27,198.24Zm10.67,3.88H903V208c0,.65-.17,1.07-.52,1.27a4.29,4.29,0,0,1-1.95.3c-.42,0-.84,0-1.24,0l-.33-1a15.6,15.6,0,0,0,1.84.1,2.79,2.79,0,0,0,1-.1.37.37,0,0,0,.23-.36v-6.06h-4.3v-.94H902v-2.11a25.33,25.33,0,0,0,3.14-3.88h-7.1v-.94h8.22v1a28.5,28.5,0,0,1-3.25,4.18v1.73h3.9Z" style="fill:#fff"/><g style="clip-path:url(#fd01268c-0dbb-4a16-89cb-bf8fcbc11702)"><path d="M1010.62,200.11a6.73,6.73,0,0,0,.32-2.28c.07-2-.65-3.92-.69-5.9a12.07,12.07,0,0,0,.09-2.24,7.63,7.63,0,0,0-1-1.87,49.85,49.85,0,0,0-2-7.19c-.29-1-.53-1.22-1.21-1.36-.6-1.82-1.07-3.62-1.79-5.42l-.25-.71c-.05-.22-.12-.44-.17-.66-.13-.51-.26-1-.36-1.55a10.69,10.69,0,0,0-.27-1.48c0-.1-.06-.2-.07-.29a5.29,5.29,0,0,0-.15-.69,3.75,3.75,0,0,0-.4-1,1,1,0,0,0-.71-.45,1.22,1.22,0,0,0-.27,0,1.24,1.24,0,0,0-.43-.06,6.82,6.82,0,0,1-.79-.09c-.68-.11-1,.18-1.48.57-.22.11-.47.18-.69.29a8.33,8.33,0,0,1-.81.36c-.22.09-.77.2-.9.41a.52.52,0,0,0,0,.51,6.87,6.87,0,0,1,.34.74c-.19.38-.73.55-.73,1a1.25,1.25,0,0,0,.18.69c.09.09.28.17.38.25l.63.54,1,.81c.24.2.31.41.62.44a1.86,1.86,0,0,1,.34.05,2.23,2.23,0,0,0,.24,1.08,2.37,2.37,0,0,0,.28.4,3.23,3.23,0,0,0,.69,1,4.82,4.82,0,0,1,1.82,3.82c-1,.27-1.54.19-1.52,1.47,0,1.11.3,2.13.22,3.29s-.44,2.22-.47,3.33c0,1.48.69,2.86,1,4.28a8.51,8.51,0,0,1-.09,3.92,4.48,4.48,0,0,0-.06,3,11.67,11.67,0,0,0-4.2,3.83,1.54,1.54,0,0,0-.5-.22c-.78-.2-1.48.61-2.31.14s-.73-1.42-2-1.32a9.37,9.37,0,0,0-2.57,1.06c-1.92.84-3.74,1.45-4.31,3.6a17.92,17.92,0,0,1-3.3-1.24c0-.52.09-1.06.16-1.63.05-.39,0-.85,0-1.28h0c.2-.78.25-.46.83-.93a3,3,0,0,0,1.19-2.06,4.08,4.08,0,0,0,.12-1.57,1.59,1.59,0,0,0-.45-1.18,10.63,10.63,0,0,0-.1-1.06,5.47,5.47,0,0,0,.57-2.36,1.4,1.4,0,0,0-.31.51,1.8,1.8,0,0,0,0-.66c-.34-.11-.07-1.15-.36-1.58a3.45,3.45,0,0,0-.45-2.1,3.88,3.88,0,0,0-.09,1c-.06-.31-.14-.44-.29-.5l0-.12a17.6,17.6,0,0,0-.69-3.58c-.12.81-.27,1.62-.38,2.43l-.11-.16a11.56,11.56,0,0,1-.36-2.68,11.94,11.94,0,0,0-.26,1.89.13.13,0,0,0-.06-.07c-.13-.88-.59-1.72-.26-2.61a2.81,2.81,0,0,0-.62,1.71,4.46,4.46,0,0,0-1.79-1.73,4.23,4.23,0,0,1,.69,1.45,4.71,4.71,0,0,0-.62-.35c-.35-.37-.74-.72-1.06-.69a6.36,6.36,0,0,0-1-1.09c.09.4.2.87.26,1.35l-.12,0a5.24,5.24,0,0,0-.56,0,8.67,8.67,0,0,0-.92-1.79,1.67,1.67,0,0,1-.34,1.74c-.12.12-.5-.19-.72,0a1.64,1.64,0,0,0-.4.59l-.33.15a4.3,4.3,0,0,1-.33-.75c-.43.46-.58,1.31-1.09,1.64a5.75,5.75,0,0,1,.61-2c-.31.46-.62.86-.91,1.26a7,7,0,0,0-.38-.78,6.07,6.07,0,0,0-.36,1.77c-.21.32-.41.63-.59,1a5.86,5.86,0,0,1,.11-2.31,10.28,10.28,0,0,0-1.09,3.51c0-.57,0-1.11,0-1.74a15.37,15.37,0,0,0-.83,3.27c0,.3,0,.81,0,1.36a5.81,5.81,0,0,0,0,2.56,1.74,1.74,0,0,0-.22-.05,2.89,2.89,0,0,0,.64,1.33c0,.09,0,.17,0,.26a1.81,1.81,0,0,1,0,.23,2.64,2.64,0,0,0-.17,2.77,2.58,2.58,0,0,0,1.51,1.89l.3.07a5.32,5.32,0,0,0,.29.5,10.31,10.31,0,0,0,.58,1.33,10.09,10.09,0,0,0-.05,2.74c-.35.29-.24.32-.77.84.06,0-.29.28-.3.21-1.06.35-2.2.31-3.25.67-1.2.4-2.14,1.29-3.34,1.67-2.68.83-5.35,1.76-6.93,4.36s-.15,6.1.28,8.77a16,16,0,0,1,.48,3.64c-.12,1.35-1,1.92-.15,3.19-1.95,2-1.93,5.28-1.13,7.73a1.12,1.12,0,0,1,.05.13,7.64,7.64,0,0,0-2.73,3c-.15.38-.07,1.24-.35,1.53s-.75,0-1,.27c-.82.68-.76,1.46-1.11,2.53s-1.06,2.18-1.44,3.32c-.23.69-.13,1.46-.37,2.12s-1,1.33-1.34,2.12a7.73,7.73,0,0,1-.85,2.07c-.43.58-1.1.91-.93,1.71a1.71,1.71,0,0,0,.32.63c-.75.71-1.87.31-2.61,1.42a3.24,3.24,0,0,0-.74,2.55c-.4.94-1.28,1.79-.13,2.7a1,1,0,0,0,.89.18v0c.21.92.81,1.14,1.61.79.46,1.06.88.87,1.28.27l.08.26c-.33-.2.08.63.4.74.61.22.94.23,1.38-.35a1.66,1.66,0,0,0,.35-1.2,5.48,5.48,0,0,0,1.37-2,2.76,2.76,0,0,0,.08-.27,4.26,4.26,0,0,0,.55-.83c3.13.57,4.58-5.13,5.75-7.43a80.45,80.45,0,0,1,4.85-8,11.54,11.54,0,0,1,.13,1.55,24.27,24.27,0,0,1-.54,3.29,17.31,17.31,0,0,1-2.25,5.39c.27.19.58.43.93.69-1.44,2.12-2,5.73-2.39,8.07-.24,1.54-.38,3.21-.74,4.72-.22.9-1.16,2.31-1,3.24.23,1.16,1.35,1.5,2.66,1.46,0,2.53-2.19,5.45-1.51,7.72a6.08,6.08,0,0,0,1.35,2.12l-.07.11c-.57,2.72-1.9,4.27-1.24,7.11.74,3.14,2.29,5.2,4,7.81a11.64,11.64,0,0,1,1.3,2.37c.27.81.1,1.9.47,2.45a3.65,3.65,0,0,0,1.37,1c-.59.49-.42.89-.34,2a16.66,16.66,0,0,0,.35,3.59c-1.55,1.94-4.91,2.25-7,3a3.2,3.2,0,0,0-2,2.57l-.15,0c-.72,3.44,4.78,3,6.61,2.51a9,9,0,0,0,2.4-1.09,15.81,15.81,0,0,0,2.25-1c.46-.25,1-.55,1.47-.89a2.16,2.16,0,0,0,2.27.47,25.31,25.31,0,0,0,3.43-.43c1.66-.27,3.29-.47,3.8-1,.34-.46.11-1.07,0-1.89H977a4.21,4.21,0,0,0-.25-1.75c.87-.24,1.56-.69,1.54-1.55a1.17,1.17,0,0,0,.16-.36c.15-.82-1.18-3-1.53-3.67a5.12,5.12,0,0,0-2.81-2.89l-.12-.11c-.56-3.07-3-5.94-3.38-9.12a8.51,8.51,0,0,0,1.51-4,6.37,6.37,0,0,0-.64-2.09,22.31,22.31,0,0,0-.34-3,31.18,31.18,0,0,0,4-3.86c-.49,3.24.52,7.81.71,10.44.12,1.67.13,3.77.94,5.3a9.58,9.58,0,0,0,3,10c.68,3.82,1.94,7.61,2.76,11.41.5,2.31.67,4.6,1.91,6.68.16.26.38.67.63,1.1a3.29,3.29,0,0,0,.78,2.54,3.33,3.33,0,0,0,1.52.74c0,.42,0,.85,0,1.28a5.13,5.13,0,0,0,.19,1.79c.07.17.21.43.3.6,0,0,.11.17.2.31a1.83,1.83,0,0,1,0,.34c0,.51-.09,1-.16,1.5a7.53,7.53,0,0,0-.09.92c-.33,1.5-.66,2.73,1.16,3.69,1.38.86,4.18,1.87,7.73-.67a.85.85,0,0,0,.4-.3,1.19,1.19,0,0,0,0-.58s0-.07,0-.1a2.78,2.78,0,0,0,.07-.39,3.59,3.59,0,0,0,.06-.39,6.46,6.46,0,0,0-.22-3.52c-.37-1.33-1.48-2.24-1.88-4.14-.11-.52-.41-1-.56-1.49a2,2,0,0,0,.12-.21,5.81,5.81,0,0,1,1.07.33c1.36-1.2.07-1.56-.39-2.63-.91-2.08-.44-5.43-.44-7.61,0-2.72.24-5.05-.35-7.73-.4-1.83-.53-4.12-1-6.07a4.77,4.77,0,0,0,0-.92c-.18-2.51-2.73-3.67-3.76-5.69a10.22,10.22,0,0,1-.88-4.51c0-.14,0-.29.06-.43.4-2.49.8-5,1.13-7.52a11.15,11.15,0,0,0,1-2.32,14.2,14.2,0,0,0,.44-3.72c1.59-4.75,1.11-10.49,1-15.61a11.1,11.1,0,0,1,1.58-1.12l1.75-.94a15.72,15.72,0,0,0,4.87,4c1.61.79,2.36-.16,3.81-1.08s2.09-.88,1.7-2.49c-.79-3.31-1.66-6.58-2.19-10-.35-2.23-.84-4.4-1.28-6.61-.16-.82-.45-1.43.35-2-1.38-2.54-2.72-4.14-3.29-7.2-1-5.4-1.63-10.82-3.06-16.1a11.87,11.87,0,0,1,1-1.94,7.26,7.26,0,0,1,.45-1c.41-.29,1.13-.24,1.61-.53.73-.44,1.22-1.21,1.94-1.67,1.18-.76,2.12-1.58,3.25-2.41a16.21,16.21,0,0,0,2.51-2.79,12.17,12.17,0,0,0,1.88-2.38,2.06,2.06,0,0,0,1.56-1.41c.44-1.36-.07-2.88-.39-4.37"/><path d="M987.65,238.84c-1.7-4.77-4.38-9.22-6.35-13.89a18,18,0,0,1-1.7-7.37,2.76,2.76,0,0,1,.78-2.05,3.88,3.88,0,0,0,.61-2.19c.29-2.83.46-6.18,1.72-8.77l-.29-.1a13.53,13.53,0,0,0-3.15,2.05,10.49,10.49,0,0,0-2.37,1.89c-1.9.42-4.77-1.47-5.4-2.87a9.35,9.35,0,0,0-.5,2.75,16.12,16.12,0,0,1-.94,2.32c-.29.78-.57,1.53-.79,2.33a23.3,23.3,0,0,0-.79,5.55c-.83,3.09-.87,6.36-1.23,9.52a37.41,37.41,0,0,1-.73,5.17c-.31,1.16-.83,2.25-1.14,3.41a39.93,39.93,0,0,1-1.07,3.89,19.76,19.76,0,0,0-.71,3.4c-.35,1.9-.78,3.81-1.3,5.67a1.29,1.29,0,0,0,.16.09c.36,1.68,4.23,1.28,5.48,1.24.69,0,1.31-.21,2-.28h.33s0,.09,0,.14a5.88,5.88,0,0,1,.66-.14,2.74,2.74,0,0,0,.88-.12,18,18,0,0,1,3,0c1.55.14,3.47.57,5,.25,3.7-.74,7.57.22,11.28.2-1.06-4-2.09-8.17-3.47-12.08" style="fill:#fff"/><path d="M979.61,222.12c0-1.12-.08-2.25-.1-3.38,0-2.15-1.66-3.87-2.1-6a1.09,1.09,0,0,0,.44-.72c0-.41,0-.45,0-1,0-.25.11-.68.12-.91a.94.94,0,0,0-.31-.75c-.15-.1-.36-.4-.53-.42l-.79-.12a3.52,3.52,0,0,0-2.79.89,7.74,7.74,0,0,0-.09,1.08,2.26,2.26,0,0,0,.35.85c.25.45.9.71,1.26,1.18.23.3.36.56.64.71a.74.74,0,0,1,.18-.06,8.6,8.6,0,0,1-.34,2.12,26.73,26.73,0,0,0-1.22,3.46,14.12,14.12,0,0,0-.23,2.75s-.49,19.43.34,20.26l4.24,4.23s3.8-4.12,3.8-5-2.78-18.6-2.88-19.25"/><path d="M123.19,120c.41.19.74.51,1.13.73a8,8,0,0,1,1,.71c.2.17.71.6,1,.32s-.25-.74-.44-.91a11.35,11.35,0,0,0-2-1.47,11.32,11.32,0,0,1-1.67-1.27l.13,0c.53.15,1.84-.07,1.79-.86,0-.36-.33-.28-.59-.2a1.35,1.35,0,0,1-.95,0c-.68-.25-1.32-.6-2-.85s-1.14-.12-1.69-.32a2,2,0,0,0,.05-.24l-.29-.17c.15-.28.24-.47.21-.49l.25-.36c-.47-.39-1.34-2.42-1.68-2.72a19.71,19.71,0,0,1-2.12-2.64,29.58,29.58,0,0,0-2.76-3.1,22,22,0,0,1-1.47-1.87c0-1.53,0-3.5.11-4.33a17.7,17.7,0,0,0-.39-3.63,1.37,1.37,0,0,0,.15-.53,7.09,7.09,0,0,0-.25-2.72,16.74,16.74,0,0,1-.9-3.32,2.4,2.4,0,0,0-.62-1.49,2.11,2.11,0,0,0-.85-1.47,13.28,13.28,0,0,1-1.19-1.31,2.29,2.29,0,0,0-.27-1.17c.23-.36.53-.21.7-.45a8,8,0,0,0,.68-1.16.77.77,0,0,1,.58-.49c.22,0,1.56-.18,1.56-.18s1-.18,1.07-.49a2.11,2.11,0,0,0-.17-1.25c-.18-.32,0-.49.17-.67a.38.38,0,0,0-.12-.57.85.85,0,0,0,.39-.37c.18-.35-.29-.62-.14-1a1.19,1.19,0,0,0,.9-.25c.32-.36-.36-.89-.71-1.52s-.76-.85-.58-1.21.22-1,0-1.16a3.43,3.43,0,0,1-.49-1.43,7.93,7.93,0,0,0-1.11-2.52,2.57,2.57,0,0,0-.58-2.44,1.65,1.65,0,0,1,0,.59A9,9,0,0,0,108,66.62a2.42,2.42,0,0,1,.27.88,3.19,3.19,0,0,0-1.5-.72,1.81,1.81,0,0,1,.42.67,5,5,0,0,0-2.52-1c.23.14.61.44.65.71-.28,0-.53-.23-.84-.17,0,.06,0,.16,0,.21a4.49,4.49,0,0,0-3.46.58,5,5,0,0,0-2.27,2.53A4.67,4.67,0,0,1,98.14,72a1,1,0,0,1,.42-.09c0,.43-.2.86-.21,1.33a3.12,3.12,0,0,0,.27,1.38.52.52,0,0,1,.21-.43,6.34,6.34,0,0,0,.56,2.53,5.53,5.53,0,0,1,.56,1.18,3.08,3.08,0,0,1-.13,1.27,1.58,1.58,0,0,1,.48-.38c0,.17,0,.31,0,.48,0,0,.17-.12.21-.18a2.85,2.85,0,0,1,.22.24,3.63,3.63,0,0,1,.18.93,1.44,1.44,0,0,1-.32.81c-.37-.14-.66-.23-.66-.23l-.59.49a.74.74,0,0,0-.93.41,3.81,3.81,0,0,1-1,1c-.78-.19-5.06.43-5.94,2.38a31.76,31.76,0,0,0-1.76,5,20.16,20.16,0,0,1-2.16,3.73,41.63,41.63,0,0,0-2.68,4.31c-.52,1.11-.72,2.61-1.24,3.07a3.63,3.63,0,0,0-1.18,1.63,22.58,22.58,0,0,1-.85,3.08c-.45.78-1.43,3.39-2.09,4.77a28.35,28.35,0,0,0-1.43,5.94,1.54,1.54,0,0,0,.64.33l-.12.52.31.1a9.28,9.28,0,0,1-.38.88,26.83,26.83,0,0,0-1.43,2.68,2.25,2.25,0,0,1-.46,1,18.49,18.49,0,0,0-1.37,2c-.2.39-.79,1-.33,1.17s.91-.72,1.11-1a11.06,11.06,0,0,1,1.18-1.37c.26-.27.52.06.19.52a13.69,13.69,0,0,0-.8,1.76,12.43,12.43,0,0,0-.58,2.1c-.07.33.59.5.79-.09a6.27,6.27,0,0,1,.79-1.62c.26-.32.85-2.28,1-2.15a.93.93,0,0,1,.27.52,11.36,11.36,0,0,0-.79,1.7,6.42,6.42,0,0,1-.52,1.44c-.26.58-.59,1.57-.13,1.43a2.26,2.26,0,0,0,1.11-1.3c.26-.59.85-1.24,1-1.7s.32-1.31.59-1.5.39.32.26.71-.2,1.64-.26,2-.32,1.87.13,2.1c.26.13.59-.27.72-1.12s.19-1.76.26-2.09.45-1.24.59-1.63.32-1,.45-1,.33.39.26.85a1.67,1.67,0,0,0,.74,1.37c.46.33.91.27,1,.13,0,0-.24-.49-.59-1.17-.13-.26.07-1.05,0-1.57a9.21,9.21,0,0,0-.16-2,3.71,3.71,0,0,1-.36-1,3.57,3.57,0,0,1,0-.86,2.67,2.67,0,0,0,.51.07s.13-.38.27-.85a4.08,4.08,0,0,0,1.24.14c.19-.2.13-2.81.52-4.32a16.18,16.18,0,0,1,1.57-4,40.69,40.69,0,0,0,2-5c.26-.78,3.59-4,4.12-5.29l0-.07a18,18,0,0,0,.73,4.54c.63,1.36.9,5.8.9,8.15s-.63,5.07-.72,6.7a9.94,9.94,0,0,1-1.18,4.43c-.72,1.27-.09.28-.09.28a12.36,12.36,0,0,0,1.44,1.93c-.65,1.38-2.8,6-3.34,7.84-.63,2.17-1.36,5-2.08,5.7a37.51,37.51,0,0,0-6.52,6.34c-2.62,3.53-4.8,8.24-6.34,9.87s-3.71,3.62-3.71,3.62l.38.57c-.86.06-2.5.29-3.09,1.15a13.45,13.45,0,0,0-1.27.63,9.16,9.16,0,0,0,1,3.17,29.73,29.73,0,0,1,1.26,2.81l.85-.05a10.17,10.17,0,0,0,.87,2.94c.82,1.72,4.08,5.8,6.16,6.88,0,0,.46.17.37-.45a.74.74,0,0,0,.9-.63c.27-1-.73-2.54-1.36-3.62s-1.18-1.54-1.09-2.45.18-3.17.18-3.17-.15-.12-.37-.27a4.05,4.05,0,0,1,.37-1.35,4.11,4.11,0,0,0,1.54.81s2.27-3.17,3.26-4.35A39.86,39.86,0,0,0,86.32,156a71.64,71.64,0,0,1,6.79-8.6c1.27-1.17,4.35-4.07,5.25-5.7.45-.8,1-1.92,1.48-3,.33,1.59,1,4.68,1.33,5.81a15,15,0,0,1,.63,5.7c-.27,1.72.82,9.68,1.54,11.68s1.54,5.43,1.54,5.43,1.09,5.79,1.63,7.24l.83-.23a4.24,4.24,0,0,0,.49,3.07,3.13,3.13,0,0,0-.14,1.59,38,38,0,0,0,5.16-.27s1-.9,1.62-.81a10.41,10.41,0,0,0,5.53-.18c2.62-.91,5.88-2.27,6.24-2.81a1.08,1.08,0,0,0-.41-.74,1,1,0,0,0-.49-1.16c-.91-.36-4.44-.18-5.25-.18a16.72,16.72,0,0,1-3.8-1.36,1.17,1.17,0,0,0-.77.12,4.49,4.49,0,0,1-.64-.47,3.16,3.16,0,0,0,.86-.92s-.81-2.44-1.17-3.71-1.09-6.7-1.63-8a50.48,50.48,0,0,1-1.72-8.24c-.09-1.45-.19-11.32-.09-12.49a62,62,0,0,0-1.39-11.28c1.12-.58,1-1.12,1-1.12a21.84,21.84,0,0,1-.09-6c.18-1.21.44-2.85.6-3.82a48.64,48.64,0,0,0,4.46,4,7.64,7.64,0,0,0,.53-.66h0l.23.27a1.42,1.42,0,0,0,.31-.25l.09.24c.44.19.46.74.8,1.06s.64.66,1,1a6.49,6.49,0,0,0,1.18,1,11.25,11.25,0,0,0,.57,1.22,10.37,10.37,0,0,0,.53,1.38c.37.58.75.14.6-.39a12.34,12.34,0,0,0-.42-1.47c-.14-.3-.26-.59-.4-.87a1,1,0,0,0,.21-.1l.11-.07a1.59,1.59,0,0,1,.4.55,1,1,0,0,0,.45.52c.12.28.24.82.49.94.09.32.14.92.55.82a.5.5,0,0,0,.23-.52,2.54,2.54,0,0,0-.21-1,4.94,4.94,0,0,0-.87-1.69l-.19-.24s0-.08.07-.11c.51.16.58.39.93.68,0,0,.2.24.23.24a2.15,2.15,0,0,0,.58,1.08c-.1.43,0,1.36.52.83a.84.84,0,0,0,.24-.76c0-.13-.05-.3-.08-.43-.08-.28-.28-.54-.37-.83a1.34,1.34,0,0,0-.41-.7,3.34,3.34,0,0,1-.45-.68,2.38,2.38,0,0,1-.22-.51l.09-.11.12,0"/><path d="M99.32,81.16A23.49,23.49,0,0,1,103,84c.89,1,3.06,3.21,3.79,5.08.5,1.28,2.74,6,2.86,7s-2.78-8.22-2.78-8.22l-.19-.15s-.29-1.19-.46-1.61-.34-.44-.34-.44a14.52,14.52,0,0,0-2.53-2.9,15.18,15.18,0,0,0-3.41-2Z" style="fill:#fff"/><path d="M107.06,84.65a.9.9,0,0,1-.24.56,1.67,1.67,0,0,1,.67,1.23c.14.82.23,1.28.13,1.45.71.56,1.29,2.82,1.7,4.23,0,0-.62-4.75-1.66-5.83a10.7,10.7,0,0,0-.39-1.67Z" style="fill:#fff"/><path d="M78.71,116.93l-.12.52s4.82,1.4,5.09,1.51l.37-1.06a12.16,12.16,0,0,0-2.4-1,5,5,0,0,0-2.9-.11Z" style="fill:#fff"/><path d="M116.26,118.87l.49.64s2.52-3.88,2.57-4.16c0-.06-.33-.35-.33-.35Z" style="fill:#fff"/></g><path d="M157.66,78.22v5.26h-9.43V88.1a33.3,33.3,0,0,1-1.44,10.69l-2-1.76A33.24,33.24,0,0,0,146,87.25V75a53.46,53.46,0,0,0,10.25-1.29c.14.21.34.56.59,1s.43.8.54,1a50.63,50.63,0,0,1-9.11,1.23v1.28Zm-2.27,2h-7.16v1.37h7.13Zm2.86,7.62h-2.44V89h1.77v1.84h-1.77v1.24h1.77v2h-1.77v1.21h2v2h-5.77v1.23H150V90.59a4.89,4.89,0,0,1-.64.7l-.82-2.52a18,18,0,0,0,2.3-4.94l2,.59a12,12,0,0,1-.53,1.47h1.53a5.07,5.07,0,0,0-.44-1.47l2.12-.3a5.77,5.77,0,0,1,.45,1.77h2.3ZM153.82,89v-1.2h-1.77V89Zm0,3.08V90.83h-1.77v1.24Zm0,3.17V94h-1.77v1.21ZM169.39,76.7h-4a24.38,24.38,0,0,1-.65,2.54h3.82V93.39h-6.3l1.39,1.34a13.63,13.63,0,0,1-4.12,4l-1.36-1.88a13.1,13.1,0,0,0,3.61-3.47H159.2V79.24h2.86a13.65,13.65,0,0,0,.64-2.54h-4.54V74.51h11.23Zm-3.1,6.55V81.43h-4.76v1.82Zm0,3.92V85.3h-4.76v1.87Zm0,4.09V89.21h-4.76v2.05Zm3.5,5.66-1.58,1.76A27.37,27.37,0,0,0,164,95.46l1.54-1.74A24.8,24.8,0,0,1,169.79,96.92Z" style="fill:#b50b6f"/><path d="M184.21,84.5h-8v14h-2.49V74.72h10.5Zm-2.5-6V76.94H176.2v1.58Zm0,3.78V80.65H176.2V82.3ZM191,94.65H179.49V86.72H191Zm-2.38-2.27V89h-6.63v3.42Zm8.12,3.5a2.41,2.41,0,0,1-.76,2,5.24,5.24,0,0,1-3.12.63c-.4,0-.85,0-1.35,0L190.65,96q2.7,0,3.12,0c.27,0,.41-.23.41-.61V84.5h-8V74.72h10.47Zm-2.51-17.36V76.94h-5.42v1.58Zm0,3.78V80.65h-5.42V82.3Z" style="fill:#b50b6f"/><path d="M207.44,74.24c-.22,1-.56,2.16-1,3.62l-.7,2.12v18.5h-2.41V85.22a15.56,15.56,0,0,1-1.45,2.25l-1.28-2.62A35.37,35.37,0,0,0,205,73.7Zm16.27,20.41H213.63l1.12,1.42a25.59,25.59,0,0,1-6.49,2.64l-1.23-2a37.14,37.14,0,0,0,5.79-2H209V84h14.73Zm1.57-18.09h-5.46v1.18h4.82v5.12H208V77.74h4.91V76.56H207.7v-2h17.58ZM212.91,81V79.58H210.4V81Zm8.34,6V85.83h-9.81V87Zm0,2.94V88.66h-9.81v1.26Zm0,2.91V91.56h-9.81v1.27Zm-3.69-15.09V76.56H215.2v1.18Zm0,3.29V79.58H215.2V81Zm7.88,15.81-1.2,1.87a40.76,40.76,0,0,0-6.47-2.08l1.37-1.79A39.58,39.58,0,0,1,225.44,96.84ZM222.23,81V79.58h-2.41V81Z" style="fill:#b50b6f"/><path d="M235.92,74.43c-.21.89-.56,2-1,3.36l-.71,2V98.4h-2.46V85.12a19.35,19.35,0,0,1-1.6,2.42l-1.39-2.45a37,37,0,0,0,4.75-11.28ZM253.39,98H235.52V95.83h1.89V80.17h4.84c.24-.84.43-1.5.56-2h-6.66V76h7.22c.28-1.17.44-1.88.48-2.1l2.59.26A15.34,15.34,0,0,1,246,76h7v2.19h-7.59c-.1.42-.28,1.08-.53,2h6.44V95.83h2Zm-4.46-13.9V82.3h-9v1.77ZM249,88V86H239.9v2Zm0,4v-2H239.9v2Zm0,3.87v-2H239.9v2Z" style="fill:#b50b6f"/><path d="M281.79,95.83l-1,2.57-7.14,0a18.83,18.83,0,0,1-6.39-.79,8.25,8.25,0,0,1-3.15-2c-2.12,1.26-4,2.31-5.72,3.15l-1.49-2.11a74.5,74.5,0,0,0,13-7.94,30.39,30.39,0,0,0,7.29-8.27h-19V78h10.12a20.33,20.33,0,0,0-1.71-3.19l2.46-.95a22.26,22.26,0,0,1,2,4.14h9v2.38q-4.06,7.65-13.92,13.89a5.17,5.17,0,0,0,2.47,1.19,14.68,14.68,0,0,0,3.63.43h2.84Q279.22,95.93,281.79,95.83Z" style="fill:#b50b6f"/><path d="M294.91,95.35a65.06,65.06,0,0,1-9.46,3.07l-.64-2.27c.55-.16.95-.27,1.2-.32V85h2.22V95.18a7.57,7.57,0,0,0,1.31-.37V83.11h-3.72V74.8h8.39v8.31h-2.27v3.61h2.67V89h-2.67V94a29.61,29.61,0,0,0,2.86-1Zm-3.16-14.59V77.15H288.2v3.61Zm17.93,4.78-1.33,2.19a26.62,26.62,0,0,1-6.36-3,38.38,38.38,0,0,1-6.26,3.11l-1.35-2.22A24.43,24.43,0,0,0,300,83a11.12,11.12,0,0,1-2.19-2.78c-.59.52-1.2,1-1.82,1.47l-1.47-1.89a17.39,17.39,0,0,0,5.34-5.91l2.36.7a9.1,9.1,0,0,1-.76,1.44H308l0,2.37a19.2,19.2,0,0,1-3.89,4.71A21,21,0,0,0,309.68,85.54Zm-1.77,13h-2.55v-.94h-6.55v.94h-2.52V88.18h11.62Zm-2.55-3.29V90.59h-6.55v4.65Zm-.17-16.81h-5.45l-.13.14A10.4,10.4,0,0,0,302,81.72,16.34,16.34,0,0,0,305.19,78.43Z" style="fill:#b50b6f"/><g style="clip-path:url(#fd01268c-0dbb-4a16-89cb-bf8fcbc11702)"><g style="opacity:0.6000059843063354"><g style="clip-path:url(#bce30ec2-b5ab-4045-b345-9f8372d1866d)"><polygon points="320.13 79.45 332.35 88.31 320.13 97.16 320.13 79.45" style="fill:#b50b6f"/></g></g><polygon points="328.97 79.45 341.19 88.31 328.97 97.16 328.97 79.45" style="fill:#b50b6f"/></g></g></svg>