<svg xmlns="http://www.w3.org/2000/svg" xmlns:xlink="http://www.w3.org/1999/xlink" viewBox="0 0 150 119.63"><defs><style>.cls-1,.cls-3{fill:none;}.cls-2{clip-path:url(#clip-path);}.cls-3{stroke:#fff;stroke-width:2px;}.cls-4{fill:#fff;}</style><clipPath id="clip-path" transform="translate(0 0)"><rect class="cls-1" width="150" height="119.63"/></clipPath></defs><title>hoverBox-icon2</title><g id="圖層_2" data-name="圖層 2"><g id="圖層_1-2" data-name="圖層 1"><g class="cls-2"><path class="cls-3" d="M96.13,39.61C95.32,51.55,81.8,58.72,75,58.72c-8.92,0-19.15-8.25-20.88-19.11" transform="translate(0 0)"/><path class="cls-3" d="M54.12,40.69a5.68,5.68,0,0,1-3.74-3.06C49,35,49.19,32.05,50.9,30.94" transform="translate(0 0)"/><path class="cls-3" d="M95.61,40.69c1.36-.22,2.58-1.34,3.52-3.06,1.41-2.59,1.18-5.58-.52-6.69a2.48,2.48,0,0,0-1.25-.41" transform="translate(0 0)"/><line class="cls-3" x1="67" y1="62.09" x2="67.31" y2="57.06"/><line class="cls-3" x1="82.69" y1="57.03" x2="82.98" y2="62.05"/><path class="cls-3" d="M83,62.05c-2.55,7.58-7,7.7-8,7.7s-5.37,0-8-7.66" transform="translate(0 0)"/><path class="cls-3" d="M83,62.05a74.56,74.56,0,0,1,10.25,1.43c9.17,1.78,13.27,4.59,14.65,15.12,1.31,10,4,30,4.61,40H150" transform="translate(0 0)"/><path class="cls-3" d="M0,118.63H37.52c.58-10.07,3.24-30.06,4.63-40,1.34-9.71,5.34-13.54,14.64-15.12A96.57,96.57,0,0,1,67,62.09" transform="translate(0 0)"/><line class="cls-3" x1="32.36" y1="59.97" x2="33.94" y2="59.97"/><line class="cls-3" x1="35.52" y1="59.97" x2="45.98" y2="59.97"/><path class="cls-3" d="M50.48,25.47C50.83-2.9,83.67-4.69,94.32,10.33c3.33,4.68,4.2,13.3,3.84,19.08-.1,1.46-.1,7.9-2.14,11.54.19-.72-1.15-2-1.15-2s1.7-15.27-3.2-20.19c-10.1,5.9-23.63,6.64-34,0-3.15,5.58-4.19,10.85-2,20.42a3.58,3.58,0,0,0-.75,2.13C50.91,37.86,50.44,28.7,50.48,25.47Z" transform="translate(0 0)"/><path class="cls-3" d="M85,62.83s2.26,25.41-10.53,35.56c-13.35-11.18-9.2-35.5-9.2-35.5" transform="translate(0 0)"/><path class="cls-3" d="M74.45,70a15,15,0,0,0-9.14,9.57" transform="translate(0 0)"/><path class="cls-3" d="M74.56,70s7.33,2.08,9.55,9.48" transform="translate(0 0)"/><polyline class="cls-3" points="68.59 90.57 72.33 76.58 70.22 72.57"/><polyline class="cls-3" points="78.69 72.57 76.57 76.58 80.69 90.3"/><path class="cls-3" d="M60.07,62.6c-1.07,1.71-3.5,11-2.84,15.95l4.82,1.13-4.34,2.55s3.82,13.32,16.74,16.15" transform="translate(0 0)"/><path class="cls-3" d="M89,62.6c1.07,1.71,3.49,11,2.83,15.95L87,79.68l4.34,2.55S87.55,95.55,74.62,98.38" transform="translate(0 0)"/><path class="cls-3" d="M36.69,112v2.51a.72.72,0,0,1-.72.72H31.64a.73.73,0,0,1-.72-.72V112a12,12,0,0,1-3.57-1.48l-1.77,1.78a.72.72,0,0,1-1,0l-3.06-3.06a.65.65,0,0,1-.17-.27.75.75,0,0,0,0-.36.7.7,0,0,1,.2-.39l1.77-1.78a12.27,12.27,0,0,1-1.48-3.56H19.3a.72.72,0,0,1-.72-.72V97.87a.74.74,0,0,1,.73-.73h2.5a12.56,12.56,0,0,1,1.48-3.56l-1.77-1.77a.72.72,0,0,1,0-1l3.06-3.07a.73.73,0,0,1,1,0l1.77,1.77A12.22,12.22,0,0,1,30.93,88v-2.5a.72.72,0,0,1,.72-.72H36a.72.72,0,0,1,.72.72V88a12.22,12.22,0,0,1,3.57,1.48m-.65,6.74a7.81,7.81,0,0,0-.9-1.11,6.93,6.93,0,1,0,0,9.79" transform="translate(0 0)"/><path class="cls-3" d="M27.64,68.05l2.3,1.15a.43.43,0,0,1,.19.57l-.67,1.33A7.33,7.33,0,0,1,31,72.84l1.41-.48a.43.43,0,0,1,.54.28l.82,2.44a.44.44,0,0,1-.27.54l-1.42.47a7.11,7.11,0,0,1-.16,2.29l1.33.66a.44.44,0,0,1,.2.58l-1.15,2.3a.43.43,0,0,1-.58.19l-1.33-.66A7.47,7.47,0,0,1,28.63,83l.47,1.41a.44.44,0,0,1-.27.55l-2.44.81a.43.43,0,0,1-.54-.27L25.37,84a7.35,7.35,0,0,1-2.28-.17l-.67,1.34a.43.43,0,0,1-.58.19l-2.3-1.15a.53.53,0,0,1-.14-.12.45.45,0,0,0-.09-.2.49.49,0,0,1,0-.26L20,82.34a7.52,7.52,0,0,1-1.51-1.73l-1.41.47a.42.42,0,0,1-.54-.27l-.82-2.44a.43.43,0,0,1,.27-.54l1.42-.47a7.09,7.09,0,0,1,.16-2.29l-1.33-.67a.43.43,0,0,1-.2-.57l1.16-2.3a.41.41,0,0,1,.57-.19l1.33.66a7.52,7.52,0,0,1,1.73-1.51l-.47-1.41a.44.44,0,0,1,.27-.54l2.44-.81a.41.41,0,0,1,.54.27l.48,1.41a7,7,0,0,1,2.28.16l.67-1.33A.43.43,0,0,1,27.64,68.05Zm-1.06,5a4.12,4.12,0,1,0,1.84,5.52A4.11,4.11,0,0,0,26.58,73Z" transform="translate(0 0)"/><line class="cls-3" x1="100" y1="63.88" x2="101.58" y2="63.88"/><line class="cls-3" x1="103.15" y1="63.88" x2="113.61" y2="63.88"/><line class="cls-3" x1="110.45" y1="58.76" x2="112.03" y2="58.76"/><line class="cls-3" x1="113.61" y1="58.76" x2="124.07" y2="58.76"/><path class="cls-3" d="M124.71,95a3.38,3.38,0,0,1,0-1.7,9.78,9.78,0,0,0,.51-5.67,5.39,5.39,0,0,0-10.29,3.18,9.92,9.92,0,0,0,3.62,4.4,3.28,3.28,0,0,1,.94,1.41" transform="translate(0 0)"/><line class="cls-3" x1="118.77" y1="96.86" x2="125.46" y2="94.79"/><line class="cls-3" x1="120.53" y1="98.82" x2="124.9" y2="97.47"/><line class="cls-3" x1="122.07" y1="100.87" x2="124.7" y2="100.06"/><line class="cls-3" x1="117.62" y1="81.28" x2="118.09" y2="82.81"/><line class="cls-3" x1="113.46" y1="94.06" x2="114.99" y2="93.58"/><line class="cls-3" x1="126.8" y1="89.93" x2="128.49" y2="89.41"/><line class="cls-3" x1="124.75" y1="84.01" x2="125.58" y2="82.45"/><line class="cls-3" x1="113.26" y1="87.56" x2="111.7" y2="86.74"/><path class="cls-4" d="M115.35,105.49l1.41-.45a8.22,8.22,0,0,0-1-2l3.12-1-.45-1.41-3.68,1.18a8.12,8.12,0,0,0-3.54-2.08l.18,1.61a6.64,6.64,0,0,1,3.94,4.17M148,98.14l-.23-.71-6,1.95-1.32-.68-.72-2.24.68-1.32,6.06-1.94-.23-.71c-.39-1.23-4.08-4.14-8.64-2.68a7.49,7.49,0,0,0-5.47,6.42l-3.76,1.21.45,1.41,4.72-1.51,0-.51A6,6,0,0,1,138,91.22a6.66,6.66,0,0,1,6.21,1.13l-4.89,1.56-1.24,2.42,1.09,3.4L141.6,101l4.89-1.57a6.69,6.69,0,0,1-12.79.2l-1.41.46a8.4,8.4,0,0,0,1,2l-17.73,5.68,0,.5a5.84,5.84,0,0,1-2.82,4.85l.18,1.59a7.32,7.32,0,0,0,4.08-5.84l17.33-5.55a8.14,8.14,0,0,0,8.27,2c4.55-1.46,5.87-6,5.47-7.2" transform="translate(0 0)"/></g></g></g></svg>