<svg xmlns="http://www.w3.org/2000/svg" viewBox="0 0 170 132"><defs><style>.cls-1,.cls-2,.cls-3,.cls-4{fill:none;stroke-width:2px;}.cls-1,.cls-2,.cls-4{stroke:#fff;}.cls-1{stroke-miterlimit:8;}.cls-3{stroke:#fff;}.cls-3,.cls-4{stroke-miterlimit:10;}</style></defs><title>hoverBox-icon1</title><g id="圖層_2" data-name="圖層 2"><g id="圖層_1-2" data-name="圖層 1"><path class="cls-1" d="M84.76,1C70.68,1,59.27,10.46,59.27,27.18c0,11.81,3.39,16.73,3.39,16.73s1.08-7.45,6-7.86C86.25,34.6,92.27,26,92.27,26c-.76,2.37-3.7,8.65-3.7,8.65a12.26,12.26,0,0,0,7.86-8.42c2.7,7.6,8.63,12.31,12.52,13.9,0,0,1.3-3.89,1.3-12.93C110.25,10.06,98.83,1,84.76,1Z"/><path class="cls-2" d="M109,38.89C108,52.43,97.66,63.11,85,63.11h0c-11.85,0-21.7-9.36-23.66-21.67"/><path class="cls-2" d="M61.33,42.67a6.45,6.45,0,0,1-4.23-3.46c-1.61-2.94-1.35-6.33.59-7.59a2.92,2.92,0,0,1,1.62-.47"/><path class="cls-2" d="M108.35,42.68c1.55-.26,2.93-1.52,4-3.47,1.61-2.94,1.35-6.33-.58-7.59a3,3,0,0,0-1.42-.46"/><line class="cls-2" x1="75.94" y1="66.92" x2="76.28" y2="61.22"/><line class="cls-2" x1="93.71" y1="61.19" x2="94.04" y2="66.88"/><path class="cls-2" d="M100.65,67.52s-9.46,40-15.65,40c-5.46,0-15.65-40-15.65-40"/><path class="cls-2" d="M94,66.88c-2.89,8.59-8,8.73-9,8.73s-6.09,0-9.06-8.69"/><path class="cls-2" d="M85,75.61A17.88,17.88,0,0,0,74.79,86.76"/><path class="cls-2" d="M85.12,75.61A17.91,17.91,0,0,1,95.34,86.76"/><polyline class="cls-2" points="79.33 98.95 82.6 83.09 80.2 78.56"/><polyline class="cls-2" points="89.8 78.56 87.4 83.09 91.03 98.95"/><path class="cls-2" d="M94,66.88a88,88,0,0,1,11.63,1.61c10.38,2,15,5.21,16.59,17.14,1.48,11.32,4.57,34,5.23,45.37H170"/><path class="cls-2" d="M0,131H42.5c.65-11.41,3.67-34.07,5.24-45.37,1.53-11,6.06-15.34,16.59-17.14a113.73,113.73,0,0,1,11.61-1.57"/><path class="cls-3" d="M40.32,114.82a.57.57,0,0,1-.28.72L35.74,117a.52.52,0,0,1-.6-.43L34.43,114a.58.58,0,0,1,.29-.72l4.3-1.4a.5.5,0,0,1,.6.42Z"/><path class="cls-3" d="M46.87,95.07l-29.18,9.55a1.71,1.71,0,0,0-.86,2.14l2,7.25,8.29,3.76,7.68-2.51"/><line class="cls-3" x1="39.97" y1="113.56" x2="44.65" y2="112.03"/><path class="cls-3" d="M19.4,114.26l3.89,14.15a1.52,1.52,0,0,0,1.81,1.27l18.14-5.93"/><path class="cls-3" d="M39.64,97.85l-.49-1.75A3.33,3.33,0,0,0,35,93.64l-6.06,2a3.71,3.71,0,0,0-2.25,4.56l.48,1.75"/><path class="cls-4" d="M126.94,126.38l12.24,3.49a.32.32,0,0,0,.39-.24l10.11-42.21a.36.36,0,0,0-.22-.42l-8.3-2.36"/><line class="cls-4" x1="127.73" y1="80.82" x2="121" y2="78.9"/><line class="cls-4" x1="121.66" y1="83.09" x2="126.83" y2="84.56"/><polyline class="cls-4" points="140.26 88.39 145.43 89.85 136.95 125.24 126.79 122.35"/><path class="cls-4" d="M126.69,85.3a.59.59,0,0,0,.4.72l12.29,3.51a.55.55,0,0,0,.67-.43l1.37-5.73a.61.61,0,0,0-.39-.73l-2.71-.77.36-1.48a.76.76,0,0,0-.49-.91l-5.56-1.58a.7.7,0,0,0-.84.53l-.35,1.48-2.71-.77a.54.54,0,0,0-.66.43Z"/><line class="cls-4" x1="124.12" y1="90.19" x2="140.1" y2="94.73"/><line class="cls-4" x1="123.7" y1="96.12" x2="138.74" y2="100.4"/><line class="cls-4" x1="124.34" y1="102.36" x2="137.38" y2="106.07"/><line class="cls-4" x1="125.25" y1="108.67" x2="136.02" y2="111.74"/><line class="cls-4" x1="125.92" y1="114.92" x2="134.67" y2="117.41"/><line class="cls-2" x1="32.42" y1="82.41" x2="34.21" y2="82.41"/><line class="cls-2" x1="36" y1="82.41" x2="47.86" y2="82.41"/><line class="cls-2" x1="24.05" y1="88.3" x2="25.84" y2="88.3"/><line class="cls-2" x1="27.63" y1="88.3" x2="39.48" y2="88.3"/><line class="cls-2" x1="106.65" y1="64.61" x2="108.44" y2="64.61"/><line class="cls-2" x1="110.23" y1="64.61" x2="122.08" y2="64.61"/><line class="cls-2" x1="115.09" y1="70.5" x2="116.88" y2="70.5"/><line class="cls-2" x1="118.66" y1="70.5" x2="130.52" y2="70.5"/></g></g></svg>