<svg xmlns="http://www.w3.org/2000/svg" xmlns:xlink="http://www.w3.org/1999/xlink" viewBox="0 0 745.2 184.49"><defs><style>.cls-1{fill:none;}.cls-2{clip-path:url(#clip-path);}.cls-3{fill:url(#未命名漸層);}.cls-4{clip-path:url(#clip-path-2);}.cls-5{fill:url(#未命名漸層_2);}.cls-6{clip-path:url(#clip-path-3);}.cls-7{fill:url(#未命名漸層_3);}.cls-8{clip-path:url(#clip-path-4);}.cls-9{fill:url(#未命名漸層_4);}.cls-10{fill:#fff;}</style><clipPath id="clip-path"><path class="cls-1" d="M1.91,59.8l62.11,60a76.89,76.89,0,0,1,108.72-1.89l60-62.11a163.25,163.25,0,0,0-230.82,4"/></clipPath><linearGradient id="未命名漸層" x1="1.91" y1="163.67" x2="2.91" y2="163.67" gradientTransform="matrix(0, -108.87, -108.87, 0, 17936.36, 326.75)" gradientUnits="userSpaceOnUse"><stop offset="0" stop-color="#8fcf92"/><stop offset="1" stop-color="#5e995e"/></linearGradient><clipPath id="clip-path-2"><path class="cls-1" d="M572.17,49.82l-60,62.11a163.25,163.25,0,0,0,230.82-4l-62.12-60a76.89,76.89,0,0,1-108.71,1.89"/></clipPath><linearGradient id="未命名漸層_2" x1="1.91" y1="163.67" x2="2.91" y2="163.67" gradientTransform="matrix(0, -108.87, -108.87, 0, 18446.66, 365.63)" gradientUnits="userSpaceOnUse"><stop offset="0" stop-color="#fa8243"/><stop offset="1" stop-color="#f85f10"/></linearGradient><clipPath id="clip-path-3"><path class="cls-1" d="M341.36,53.85l62.12,60A76.88,76.88,0,0,1,512.19,112l60-62.11a163.22,163.22,0,0,0-230.82,4"/></clipPath><linearGradient id="未命名漸層_3" x1="1.91" y1="163.67" x2="2.91" y2="163.67" gradientTransform="matrix(0, -108.87, -108.87, 0, 18275.52, 320.8)" gradientUnits="userSpaceOnUse"><stop offset="0" stop-color="#75b7cb"/><stop offset="0.37" stop-color="#75b7cb"/><stop offset="0.7" stop-color="#82c0d2"/><stop offset="1" stop-color="#87c3d5"/></linearGradient><clipPath id="clip-path-4"><path class="cls-1" d="M232.66,55.73l-60,62.11a163.24,163.24,0,0,0,230.82-4l-62.12-60a76.88,76.88,0,0,1-108.71,1.89"/></clipPath><linearGradient id="未命名漸層_4" x1="1.91" y1="163.67" x2="2.91" y2="163.67" gradientTransform="matrix(0, 108.87, 108.87, 0, -17530.82, -153.12)" gradientUnits="userSpaceOnUse"><stop offset="0" stop-color="#c9ae00"/><stop offset="0.3" stop-color="#c9ae00"/><stop offset="1" stop-color="#b29a00"/></linearGradient></defs><title>section3-illust</title><g id="圖層_2" data-name="圖層 2"><g id="圖層_1-2" data-name="圖層 1"><g class="cls-2"><rect class="cls-3" x="0.97" y="7.97" width="232.69" height="113.83" transform="translate(-1.11 2.05) rotate(-1)"/></g><g class="cls-4"><rect class="cls-5" x="511.1" y="45.93" width="232.98" height="130.63" transform="translate(-1.84 10.93) rotate(-1)"/></g><g class="cls-6"><rect class="cls-7" x="340.43" y="2.01" width="232.69" height="113.82" transform="translate(-0.96 7.95) rotate(-1)"/></g><g class="cls-8"><rect class="cls-9" x="171.58" y="51.84" width="232.98" height="130.63" transform="translate(-1.99 5.03) rotate(-1)"/></g><path class="cls-10" d="M91.42,41.78H93.1a16.07,16.07,0,0,0-1.53-2.45l1.94-1.21c.44.53,1,1.36,1.8,2.5l-1.93,1.16h2.4V37.56h2.73v4.22h2.26L99,40.62a20.61,20.61,0,0,0,1.81-2.56l2,1.2A20.26,20.26,0,0,1,101,41.78h1.24V44H98.51v1.5l.73-1c.9.48,1.75,1,2.55,1.42a36.51,36.51,0,0,0,3-8.44l2.94.28c-.28,1.11-.59,2.17-.91,3.18h5.38v2.62h-.87A23.89,23.89,0,0,1,109,52.89a12.83,12.83,0,0,0,3.38,2.76,17,17,0,0,0-1.87,2.86,13.51,13.51,0,0,1-3.26-3,14.42,14.42,0,0,1-4.11,3.37,20.2,20.2,0,0,0-1.92-2.32l-.77,1.27c-.86-.49-1.8-1-2.81-1.5A15.74,15.74,0,0,1,92,58.51a18.45,18.45,0,0,0-1.14-2.64,15.42,15.42,0,0,0,4-.9c-1-.44-2-.88-3.13-1.33.48-.71.92-1.42,1.31-2.13H91.19V49.32H94a16.51,16.51,0,0,0,.61-1.7l1.16.11V45.66a18.69,18.69,0,0,1-4,3.12,18.52,18.52,0,0,0-1-2.58A13.9,13.9,0,0,0,94.63,44H91.42Zm3.65,10.85,2.24.83a7.48,7.48,0,0,0,1.59-2H95.71Zm3.44-4.41H97.43c-.17.35-.35.72-.55,1.1h5v2a12.32,12.32,0,0,1-2.1,3.11l2.14.85-.43.7a13.54,13.54,0,0,0,4-3.2,20.68,20.68,0,0,1-1.61-4.84c-.25.45-.51.89-.77,1.3A21.07,21.07,0,0,0,102,47.46l-.63.95c-.89-.6-1.85-1.21-2.88-1.82Zm7.2-4.07a21.2,21.2,0,0,0,1.5,6,18.73,18.73,0,0,0,1.53-6.59H106C105.87,43.75,105.8,44,105.71,44.15Z"/><path class="cls-10" d="M114.81,41.58h2v-3.8h2.6v3.8h1.85v2.75h-1.85v3c.62-.13,1.27-.28,2-.45q-.1,1.72-.09,2.79l-1.87.47V56c0,1.59-.65,2.41-2,2.45a18.19,18.19,0,0,1-2.19.07c-.15-.85-.35-1.78-.63-2.8l1.44.05c.49,0,.73-.33.73-1v-4c-.68.19-1.37.37-2.06.54l-.23-3,2.29-.47V44.33h-2Zm21.06,7.67H131v1.81h3.61v7.71H132V57.7h-4.79v1.07h-2.53V51.06h3.54V49.25H124.5a18.45,18.45,0,0,1-2.75,9.35,19.37,19.37,0,0,0-1.93-2.19Q122,52.65,122,46.2V38.36h13v6.72h-4V47h4.9Zm-3.55-6.42V40.62h-7.73v2.21ZM128.26,47V45.08h-3.67V47ZM132,53.31h-4.79v2.13H132Z"/><path class="cls-10" d="M435.47,46.5h4.25c0-.19,0-1.36,0-3.5h-.87a21.94,21.94,0,0,1-1.77,3.27c-.65-.85-1.29-1.64-1.93-2.39a19.74,19.74,0,0,0,2.59-6.42l2.86.49c-.21.83-.45,1.61-.71,2.36h5.52V43h-2.81v3.5H446v2.69h-3.6a9.31,9.31,0,0,1-.21,1.1q2.19,2.15,4.26,4.46l-2.32,2.11q-1.44-1.92-2.91-3.64A15.55,15.55,0,0,1,437,58.81a27.84,27.84,0,0,0-1.83-2.73,11.35,11.35,0,0,0,4.29-6.89h-3.94Zm11.06,11.84v-19h9.26V58.21h-2.94v-1.8h-3.38v1.93Zm6.32-16.2h-3.38V53.59h3.38Z"/><path class="cls-10" d="M466.29,50.73a24.36,24.36,0,0,0,.5,3.18,42.4,42.4,0,0,0-4.56,3.81l-1.52-2a3.32,3.32,0,0,0,.47-1.76V47.06h-2.13v-2.9h5.07V52.5ZM462.6,37.67c.91,1.22,1.87,2.54,2.85,4l-2.75,1.72q-1.29-2.23-2.62-4.22ZM469.43,51,472,52.71c-1.64,2.22-3.3,4.28-5,6.19-.72-.66-1.53-1.34-2.45-2A36.07,36.07,0,0,0,469.43,51Zm-2.77-12.31h12.11V50.35H466.66Zm9.15,9V41.35h-6.19v6.38Zm-.09,3.33c1.65,1.84,3.25,3.79,4.82,5.82l-2.67,1.89c-1.44-2.12-3-4.17-4.53-6.17Z"/><path class="cls-10" d="M613.41,98.9l2.94.88a44.83,44.83,0,0,1-1.78,4.66v15.34h-2.94v-10c-.52.8-1.06,1.58-1.64,2.34-.2-.88-.56-2.14-1.07-3.76A34.6,34.6,0,0,0,613.41,98.9Zm10.76,8.91h3a20.42,20.42,0,0,1-4.3-5.52,25.73,25.73,0,0,1-4.53,5.54h2.79c0,1.47,0,2.58,0,3.36q0,6-3.46,8.78a17.89,17.89,0,0,0-2.3-2.17,8.44,8.44,0,0,0,2.66-6.23c0-.71,0-1.86,0-3.43-.51.47-1.05.93-1.61,1.37-.4-.83-.89-1.79-1.48-2.88a26.29,26.29,0,0,0,6.51-7.41h3.52l-.47.69a18.55,18.55,0,0,0,5.89,6.31l-1.44,3.08c-.57-.42-1.11-.86-1.61-1.31v11.68h-3.12Z"/><path class="cls-10" d="M636.11,98.66l2.84.75c-.55,1.72-1.15,3.4-1.83,5V120h-2.73v-9.88c-.38.7-.78,1.39-1.2,2.06-.17-1.13-.41-2.47-.71-4A56.51,56.51,0,0,0,636.11,98.66ZM637.87,117h1.59v-12.8h5V103H639v-2.41h5.52V98.94h2.84v1.61h6.16V103h-6.16v1.27h5.17V117H654v2.41H637.87Zm11.91-10.66h-7.61v1.12h7.61Zm-7.61,4.3h7.61v-1.12h-7.61Zm0,3.18h7.61v-1.12h-7.61Zm0,3.18h7.61v-1.12h-7.61Z"/><path class="cls-10" d="M269.21,98.81l2.84.75q-.81,2.58-1.65,4.83v15.54h-2.73v-9.48c-.51.93-1,1.78-1.55,2.56-.16-1.14-.39-2.49-.69-4A51.14,51.14,0,0,0,269.21,98.81Zm17.58,4.86h-15v-2.45h5.76c-.26-.63-.55-1.28-.88-2l3.2-.58c.35.66.74,1.51,1.18,2.56h5.76Zm-14.18,16.26v-8.25h12.93v8.25H282.6v-1.12h-7.05v1.12Zm12.93-12.78H272.65v-2.3h12.89Zm0,3.39H272.65v-2.3h12.89Zm-2.94,3.68h-7.05v2.06h7.05Z"/><path class="cls-10" d="M291,112.93l2.68.94c-.93,2.34-1.62,4-2.08,5l-2.52-1.16A29.21,29.21,0,0,0,291,112.93Zm.21-12.49h6.27c.18-.56.33-1.16.48-1.8l3.67.39-.65,1.41h7.44v11.84H301l1.87,2.3-2.39,1.68q-.76-1.2-2.28-3.12l1.32-.86h-8.3Zm14.4,2.22H294.05v1.2h11.58ZM294.05,107h11.58v-1.2H294.05Zm11.58,3.12v-1.23H294.05v1.23Zm-2.09,4.25c1.19.71,2.13,1.21,2.82,1.53-.53,1.67-1.1,2.71-1.71,3.11a4.05,4.05,0,0,1-2.31.61H297.5c-2.14,0-3.22-.94-3.22-2.8v-3.59h3v2.88c0,.72.46,1.08,1.39,1.08h2.56a2.22,2.22,0,0,0,1.62-.46A4.81,4.81,0,0,0,303.54,114.32Zm4.41-1.84q1.76,3,2.55,4.49L308,118.32a40.2,40.2,0,0,0-2.43-4.68Z"/></g></g></svg>