<svg id="b6faf773-7c23-4e71-bb9d-a273c680e1cc" data-name="圖層 7" xmlns="http://www.w3.org/2000/svg" xmlns:xlink="http://www.w3.org/1999/xlink" viewBox="0 0 333.42 79.03"><defs><linearGradient id="fb236311-910e-40af-b3a5-c76fd77a7402" x1="373.55" y1="378.23" x2="373.55" y2="439.72" gradientUnits="userSpaceOnUse"><stop offset="0" stop-color="#00b0e6"/><stop offset="0.4" stop-color="#0097d5"/><stop offset="1" stop-color="#00639a"/></linearGradient><linearGradient id="bb938649-735a-414a-97ad-ef19a996b6c4" x1="459.65" y1="378.23" x2="459.65" y2="439.72" xlink:href="#fb236311-910e-40af-b3a5-c76fd77a7402"/><linearGradient id="b6094ed6-fe18-4eba-acb6-718c889e856f" x1="543.92" y1="378.23" x2="543.92" y2="439.72" xlink:href="#fb236311-910e-40af-b3a5-c76fd77a7402"/><linearGradient id="b26d0eeb-5345-4021-bc83-dae94b2d76b7" x1="628.69" y1="378.23" x2="628.69" y2="439.72" xlink:href="#fb236311-910e-40af-b3a5-c76fd77a7402"/></defs><title>header-title</title><path d="M338.6,374h15.71v-3.65h9.89V374h14.63v8.56h3.74v9.31h-3.74v9.06H364.2v2.24h16.37v16.38H362.7a15.64,15.64,0,0,1-1.57,2.24h23.1v8.06h-9.06a31.29,31.29,0,0,1-4.57,5.9c3.21,1.05,5.93,2,8.14,2.91A50.16,50.16,0,0,0,391,426.15l-.08-.08a77,77,0,0,1-4.74-19.36c-.77,1.33-1.55,2.57-2.32,3.74l-3.66-11.31q6.57-12,9.64-29.5l9.56,2.25q-1.17,5.73-2.74,11h16v9.64h-3.41q-.58,18.94-5.9,31.24-.68,1.5-1.5,3a57.55,57.55,0,0,0,11.14,11.63l-6.65,10.31A97,97,0,0,1,396,435.63a78.55,78.55,0,0,1-12.13,12.13l-4.08-6.31-2.9,5.65a134.94,134.94,0,0,0-14-5.24q-8.81,4.74-24.35,6.82l-3-8.23a68.52,68.52,0,0,0,15.63-2.08q-5.91-1.49-12.3-3,3.31-2.91,5.9-5.57H334v-8.06h17.21c.49-.78.94-1.52,1.33-2.24H337.36V403.13h16.95v-2.24H338.6v-9.06h-4v-9.31h4ZM355,412.86v-3.08h-8.4v3.08Zm-7-28.92h6.65v-3.33H348Zm6.65,10.3v-3.32H348v3.32Zm10.64,35.57H355.06c-.39.45-.78.86-1.16,1.25q4.32,1.08,7.89,2.16A40.38,40.38,0,0,0,365.28,429.81Zm-2.08-49.2v3.33h6.4v-3.33Zm6.4,13.63v-3.32h-6.4v3.32Zm1.58,18.62v-3.08h-7.64v3.08Zm21-18a110.39,110.39,0,0,0,4.15,20.78,65.21,65.21,0,0,0,3.08-20.36V392.5h-6.15C392.9,393.38,392.54,394.16,392.21,394.82Z" transform="translate(-334.03 -369.64)" style="fill:url(#fb236311-910e-40af-b3a5-c76fd77a7402)"/><path d="M420.38,385.18h7v-14h9.73v14h5.23v9.39h-5.23v11.72a49.37,49.37,0,0,0,4.57-2.16l.66,9.31c-1.66.89-3.41,1.77-5.23,2.66v22.69q6.32-11.55,6.31-29.26v-27h14.21v-11.3H468v2.08h26.84v7H468v2.24h28.59a94.64,94.64,0,0,1-2.66,15.71l-8.81-1.58.08,1.58-16.37.83a1.73,1.73,0,0,0,1.75,1.42h22v6.31H468.33q-9.63,0-9.64-6.31v-.92l-6.06.33v9.64q0,4.74-.42,9.23a85.24,85.24,0,0,0,15-3.24H454v-7h40.8v7h-15.7c-.89.55-1.72,1.08-2.5,1.58a31.07,31.07,0,0,1,3.16,5.07,25.08,25.08,0,0,0,10.14-6.32l6.65,5.9a36.32,36.32,0,0,1-6.23,4.16,24.53,24.53,0,0,0,2.16,4.4,27.76,27.76,0,0,0,7.06,7.73l-5.65,8a42.74,42.74,0,0,1-7.31-9.39,29.78,29.78,0,0,1-3.24-8.23c-.39.11-.72.19-1,.25a44.18,44.18,0,0,1,1.16,9.72q0,5.65-3.16,7.65-3.31,2.07-10.14,2.07h-3.65L465.51,441a89.84,89.84,0,0,1-12.22,5.32l-3.66-6.23a77.34,77.34,0,0,0,23-10.72c-.17-.67-.34-1.25-.5-1.75a74.67,74.67,0,0,1-17.79,7.73l-3.66-5.48A75.4,75.4,0,0,1,445,447.43l-8-6.81q-.42,6.48-7.56,6.48h-7l-1.75-9.64c2.83.38,4.41.58,4.74.58,1.27,0,1.91-.78,1.91-2.33V420.17c-2.16.78-4.38,1.55-6.65,2.33l-1-10.64c2.6-.55,5.15-1.22,7.64-2v-15.3h-7ZM450.8,429.4a71,71,0,0,0,18.86-7.07,8,8,0,0,0-.74-1.33,74.31,74.31,0,0,1-13.63,4.41l-3.16-5.65A88.82,88.82,0,0,1,450.8,429.4Zm1.83-36.16,6.06-.33v-3.07h-6.06ZM473.82,436a66.55,66.55,0,0,1-7.15,4.41c1.66.27,2.63.41,2.91.41,2.88,0,4.32-.86,4.32-2.41C473.9,437.54,473.87,436.74,473.82,436Zm-5.15-46.12v2.57l16.2-.83.17,3.16a21.78,21.78,0,0,0,1.74-4.9Z" transform="translate(-334.03 -369.64)" style="fill:url(#bb938649-735a-414a-97ad-ef19a996b6c4)"/><path d="M510.55,428.73l8.89,2.08a83.65,83.65,0,0,1-4.9,17.62l-10-4.66A68.41,68.41,0,0,0,510.55,428.73ZM506.89,373h24.19V427.4H506.89Zm9.23,15.87h5.73v-7.31h-5.73Zm0,15h5.73v-7.31h-5.73Zm5.73,15v-7.31h-5.73v7.31Zm7,9.89a75.67,75.67,0,0,1,3.49,6.73c.66-.11,1.24-.19,1.74-.25V403.8h8.39v30c1-.17,2-.36,2.91-.58V398.56h-12V389.5h27.67V370.31h9.64V389.5h12.22v9.06H570.8q.26,19.13,1.5,27.35c1.16,5.65,2,8.47,2.41,8.47q1.57,0,1.58-12.63l7,4.4q-1.24,15.3-4.49,19.12c-1.49,2.1-3,3.16-4.4,3.16q-5.4,0-9.14-11.55-3.59-11.14-4.08-38.32h-6.48V409.2h5.4v8.56h-5.4v13.38q3.33-.75,6.73-1.66V438a293.33,293.33,0,0,1-28.59,8l-.83-3.58-6.48,2a51.7,51.7,0,0,0-4.32-13.63Zm6.64-53.52h22.28v8.73H535.48ZM578.7,373a56.29,56.29,0,0,1,4.24,12.88l-8.23,2.41a67.94,67.94,0,0,0-3.32-13.38Z" transform="translate(-334.03 -369.64)" style="fill:url(#b6094ed6-fe18-4eba-acb6-718c889e856f)"/><path d="M603,369.64,614.6,373a112.93,112.93,0,0,1-8.06,14.46q5.49-.26,11.39-.75-1.75-4-3.66-7.48l7.89-2.58a103.6,103.6,0,0,1,9.39,17.95l-9,4.33q-.75-2.41-1.58-4.66-14.46,2.16-29.34,3.66l-1.66-10c1.66,0,3.27,0,4.82-.09A57.19,57.19,0,0,0,603,369.64Zm-5.14,29.84h30.4v38.89q0,8.73-6.65,8.73h-9.39l-1.58-10.31,4.91.33c1.82,0,2.74-.69,2.74-2.07v-3.33h-15v15.71H592.91V399.48Zm5.47,12.71h15v-4h-15Zm0,11.89h15v-4.24h-15Zm55.1-51.45,6,7.65a72.88,72.88,0,0,1-21.85,9.22v1.42c0,2.38.33,4,1,4.9q1.58,1.41,6,1.41a13,13,0,0,0,5-.66c1.17-.67,1.94-3,2.33-7.07l10.64,5.07c-1.17,4.88-2.74,8-4.74,9.48q-3.57,2.42-12,2.41H645c-5.68,0-9.23-1-10.62-3.08s-2.26-5.45-2.26-10.22V372.22h10.39v8.56A58.4,58.4,0,0,0,658.4,372.63Zm0,36.57,6.65,8.23a70.09,70.09,0,0,1-22.19,9.89v3.16q0,3.74,1,5.15c1.06,1,3,1.49,6,1.49,2.27,0,3.85-.27,4.74-.83q1.65-1.32,2.24-9.14l10.64,4.91q-1.66,9.21-4.66,12.05-3.48,3-11.71,3h-5.74q-8.48,0-10.55-3.33-2.32-3.31-2.33-11V409.53h10.39v8.31A56.68,56.68,0,0,0,658.4,409.2Z" transform="translate(-334.03 -369.64)" style="fill:url(#b26d0eeb-5345-4021-bc83-dae94b2d76b7)"/></svg>