<svg id="b77319e0-580f-44a9-8b77-872cc71897f0"
	xmlns="http://www.w3.org/2000/svg"
	xmlns:xlink="http://www.w3.org/1999/xlink" viewBox="0 0 370 370">
	<defs>
		<radialGradient id="f2da718d-5b9a-4358-95e5-10707c79ef75" cx="5.79" cy="101.81" fy="92.63935270305649" r="18.67" gradientTransform="translate(255.12)" gradientUnits="userSpaceOnUse">
			<stop offset="0" stop-color="#ffb1a4"/>
			<stop offset="0.09" stop-color="#ff6f67"/>
			<stop offset="0.22" stop-color="red"/>
			<stop offset="0.75" stop-color="#a40c21"/>
			<stop offset="0.77" stop-color="#a00d23"/>
		</radialGradient>
	</defs>
	<path d="M132.19,70.73c-25.12,0-45.8,24-48.63,54.88h97.26C178,94.71,157.3,70.73,132.19,70.73Zm14.21,46.19a16.18,16.18,0,0,1-15-10.13,16.18,16.18,0,1,1,0-12.12,16.18,16.18,0,1,1,15,22.25Z" style="fill:#e20e79"/>
	<path d="M121.53,96.39c-3.49,0-6.32,3.27-6.32,7.3S118,111,121.53,111s6.32-3.27,6.32-7.31S125,96.39,121.53,96.39Z" style="fill:#e20e79"/>
	<path d="M141.66,96.39c-3.48,0-6.31,3.27-6.31,7.3s2.83,7.31,6.31,7.31,6.32-3.27,6.32-7.31S145.15,96.39,141.66,96.39Z" style="fill:#e20e79"/>
	<path d="M132,34.56a7.67,7.67,0,1,0,7.67,7.67A7.66,7.66,0,0,0,132,34.56Z" style="fill:#f8b62d"/>
	<rect x="129.94" y="50.2" width="3.44" height="26.29" style="fill:#e20e79"/>
	<path d="M70.27,231.83H196.4V130.77H70.27ZM99.38,149a5.26,5.26,0,1,1,10.51,0v20.62a5.26,5.26,0,0,1-10.51,0Zm-18.6,0a5.26,5.26,0,1,1,10.51,0v20.62a5.26,5.26,0,0,1-10.51,0Z" style="fill:#e20e79"/>
	<path id="a19fd8c7-c1f5-49b5-a725-b886aa7f2c79" data-name="&lt;路徑&gt;" d="M201.35,138v43.81a23.72,23.72,0,0,0,0-43.81Z" style="fill:#e20e79"/>
	<path d="M52,159.87a23.72,23.72,0,0,0,14.63,21.91V138A23.72,23.72,0,0,0,52,159.87Z" style="fill:#e20e79"/>
	<circle cx="9.7" cy="216.47" r="9.7" transform="translate(-206.96 219.81) rotate(-88.32)" style="fill:#e20e79"/>
	<rect x="11.18" y="187.09" width="49.72" height="9.7" transform="translate(-125.15 81.68) rotate(-44.99)" style="fill:#e20e79"/>
	<rect x="29.58" y="217.61" width="9.7" height="49.72" transform="translate(-161.37 95.36) rotate(-45)" style="fill:#e20e79"/>
	<path d="M60.17,251.69a30.32,30.32,0,0,0-6.52,59.93,25.71,25.71,0,0,1-5.8-7.86c-5.61-11.71-1.63-25.29,8.89-30.33s23.59.38,29.2,12.1a26,26,0,0,1,2.34,7.84,30.34,30.34,0,0,0-28.11-41.68Z" style="fill:#e20e79"/>
	<path d="M132.32,254.65a46.45,46.45,0,0,0,36.93-18.22H95.38A46.47,46.47,0,0,0,132.32,254.65Z" style="fill:#e20e79"/>
	<path d="M104.17,284.68a4.68,4.68,0,0,0,9.36,0v-27.3a32.22,32.22,0,0,1-9.36-6.67Z" style="fill:#e20e79"/>
	<path d="M108.85,295.53a4.68,4.68,0,0,0-4.68,4.68v27.31a32.65,32.65,0,0,1,9.36,6.66v-34A4.69,4.69,0,0,0,108.85,295.53Z" style="fill:#e20e79"/>
	<path d="M111.1,291.52h-4.32a1.35,1.35,0,1,0,0,2.7h4.32a1.35,1.35,0,0,0,0-2.7Z" style="fill:#e20e79"/>
	<path d="M96.61,327.61a20,20,0,0,0-15.87,7.83h31.74A20,20,0,0,0,96.61,327.61Z" style="fill:#e20e79"/>
	<path d="M148.79,284.68a4.68,4.68,0,0,0,9.36,0v-34a32.49,32.49,0,0,1-9.36,6.67Z" style="fill:#e20e79"/>
	<path d="M153.47,295.53a4.68,4.68,0,0,0-4.68,4.68v34a32.38,32.38,0,0,1,9.36-6.66V300.21A4.69,4.69,0,0,0,153.47,295.53Z" style="fill:#e20e79"/>
	<path d="M155.54,291.52h-4.32a1.35,1.35,0,1,0,0,2.7h4.32a1.35,1.35,0,0,0,0-2.7Z" style="fill:#e20e79"/>
	<path d="M165.7,327.61a20,20,0,0,0-15.87,7.83h31.74A20,20,0,0,0,165.7,327.61Z" style="fill:#e20e79"/>
	<path d="M147.19,155.12l1.83-1.84,3,2.72-1.19,1.23h-7.37a30.44,30.44,0,0,0,.85,5.29,21.9,21.9,0,0,0,2.3-4.8l4.83,2.07a25.1,25.1,0,0,1-5.2,7.71c.77,1.63,1.37,2.45,1.77,2.45s.72-1.29,1.29-3.88l2.11.76a8.81,8.81,0,0,0-.55,2.88,4.82,4.82,0,0,0,1.07,3.36,5.81,5.81,0,0,1-1.44,2.36,2.43,2.43,0,0,1-2.11.88c-1.92,0-3.88-1.8-5.9-5.41a46.06,46.06,0,0,1-6.82,4.37l-1.78-1.8a48.51,48.51,0,0,0,6.92-6.3,37.43,37.43,0,0,1-2.05-9.94h-5.45v3.48a35,35,0,0,0,4.22-1.53l1.1,2.3a32.36,32.36,0,0,1-5.32,3.27v7.56q0,3.94-3.07,3.94h-2.86q0-2.91-3.74-3l.13-2c1.3.07,2.58.15,3.82.25.49,0,.74-.53.74-1.59v-2.75q-2,.86-4.2,1.71l-1.65-5.17q2.44-.56,5.85-1.5v-5H122.9l-.52-2.11h5.91V152.7c-1.56.16-3.17.29-4.84.4l-.64-2.3a37.27,37.27,0,0,0,11.62-3.55l3.77,3.28a37,37,0,0,1-4.93,1.34v3.25h5.32v-7.93l4.77.58v7.35Zm-1.44-7.71a22.43,22.43,0,0,1,4.56,3.12l-3,3.09A21.05,21.05,0,0,0,144,149Z" style="fill:#ffe000"/>
	<path d="M155.85,151.08l4.74.52v1.34H163V150.8h-8.75l-.58-2.32h24.84l1.77-1.62,2.91,2.57-1.31,1.37h-7.77v2.14h2.11l2.17-2,4.1,3.15-1.17,1.34v6.64l-.55.06,2.88,2.57-1.41,1.41H178a14.92,14.92,0,0,1-2.87,4.16,72.29,72.29,0,0,1,7.12,2.54l-3.51,3.85a70,70,0,0,0-7.44-3.52q-5.92,3.24-16,3.24l-.82-2.29a35.31,35.31,0,0,0,11.68-2.88c-1-.32-2-.64-3.05-.94q-.7.94-1.41,1.83l-4.77-1.5a33.83,33.83,0,0,0,3.27-4.49h-5.78l-.58-2.45h7.77c.4-.77.8-1.57,1.19-2.39h-2.23v1.07l-4.74.65Zm4.74,7.83H163v-3.58h-2.41Zm3.51,2.38,4,.86c-.28.53-.55,1-.79,1.53h11.47l1.62-1.5-3.89.52v-1.41Zm1.84,4.84c-.35.61-.71,1.2-1.1,1.77,1.71.27,3.39.59,5,1a12.3,12.3,0,0,0,2.32-2.75Zm1.38-15.33v2.14h2.44V150.8Zm0,4.53v3.58h2.44v-3.58Zm6.79,0v3.58h2.44v-3.58Z" style="fill:#ffe000"/>
	<path d="M147.31,186.31,149,184.6l3,2.69-1.41,1.28H147V210c0,2.72-1.21,4.07-3.62,4.07h-3.33c0-2-.94-3.1-2.81-3.18l.09-2c1.35.08,2.65.18,3.91.28.51,0,.77-.56.77-1.68V188.57h-5l1.14,1-1.35,1.29H123.18l-.58-2.24h4.61v-3.82l4.72.58v3.24h1.8l1.62-1.53,1,.89-.43-1.65Zm-14.56,6.82,1.59-1.5,2.79,2.51-1.32,1.25H124l-.61-2.26Zm0,4.47,1.59-1.56,2.79,2.5-1.32,1.29H124.06l-.58-2.23Zm-8.84,3.3,4.22.52v1.22h3.61l1.9-1.65,3.67,2.85-1.1,1.2v8l-4.1.52v-1.31h-4v1.1l-4.22.52Zm4.22,9h4v-4.8h-4Z" style="fill:#ffe000"/>
	<path d="M161.23,202.31l-.77.46-1.13-1v12.08l-4.46.55V184.87l4.46.49v.77h3.09l2.05-1.69,3.92,3-1.23,1.29v7.46l-4.43.55v-1.22h-3.4v5.38a9.13,9.13,0,0,0,2.88-4.07l3.79.89a6,6,0,0,1-1.87,2.54l.89.09v.12h6.33l.37-.24-1-1.23h-4l-.49-2H170l.67-.48-1.71.21V184.72l4.46.49v1h3.73l1.78-1.72,4.56,2.88-1.35,1.22v22.18q0,3.24-3.24,3.24h-2.82a2.7,2.7,0,0,0-.58-2,3.06,3.06,0,0,1-.73.1H170c-1.16-.15-1.75-1.1-1.75-2.85v-3.15h-1.07v.8q0,3.63-6.33,5.84l-1.16-1.44c2.3-1.18,3.5-2.67,3.58-4.47l-2.08.28Zm-1.9-12.61h3.4v-1.31h-3.4Zm0,3.52h3.4V192h-3.4ZM171.11,204v-1.41H165V204Zm1,2.54v1.83c0,.49.07.74.21.74h1.38c.34,0,.56-.25.64-.74l.31-1.34,1.62.33c0,.33,0,.61,0,.83a2.52,2.52,0,0,0,.27,1.19.94.94,0,0,0,.89-1v-7.92l-1.56,3.12a5.88,5.88,0,0,1-.8-.43v3.09Zm5.29-7.16v-3.85h-4v.67l-1.07.12,2.48,1.5-1.13.83A12.45,12.45,0,0,0,177.38,199.4Zm0-9.7v-1.19h-4v1.19Zm0,3.52V192h-4v1.19Z" style="fill:#ffe000"/>
	<g id="a14ac660-c36b-46eb-8521-396f50b9b6f3" data-name="arm">
		<path id="f96852df-2355-4f63-9619-0efb3c19fb81" data-name="&lt;路徑&gt;" d="M248.11,203.29a9.7,9.7,0,1,0,12.74,5.08A9.69,9.69,0,0,0,248.11,203.29Z" style="fill:#e20e79"/>
		<circle id="ae411252-6927-4f06-821b-7bc8d8a6a7c8" data-name="arm-joint" cx="201.85" cy="160" r="0.5" style="fill:#e20e79"/>
		<circle id="f3248d34-5561-4c94-bd28-b8cffacf9588" data-name="lower-arm-joint" cx="251.94" cy="212.2" r="0.5" style="fill:#e20e79"/>
		<polygon points="208.13 179.88 238.66 210.48 245.52 203.62 214.99 173.02 208.13 179.88" style="fill:#e20e79"/>
		<g id="fb33fa91-dce6-475e-89cb-440de967cf7f" data-name="lower-arm">
			<rect x="236.32" y="172.82" width="49.72" height="9.7" transform="translate(24.63 387.02) rotate(-75.73)" style="fill:#e20e79"/>
			<path d="M285.49,113.19c2.55,12.73-4.66,24.91-16.09,27.2s-22.77-6.18-25.32-18.91a25.8,25.8,0,0,1-.33-8.19,30.32,30.32,0,1,0,38.05-9.15A25.63,25.63,0,0,1,285.49,113.19Z" style="fill:#e20e79"/>
		</g>
	</g>
	<circle id="fba44698-6826-4819-9653-f1e34afef987" data-name="ball" cx="260.91" cy="101.81" r="18.67" style="fill:url(#f2da718d-5b9a-4358-95e5-10707c79ef75)"/>
</svg>