<svg id="f35777e8-649a-4edc-862a-be0a62d29a85" data-name="圖層 1" xmlns="http://www.w3.org/2000/svg" viewBox="0 0 150 119.91"><title>hover-box7</title><path d="M96.13,820.67l2-.31c1.67,10.43,10,18.28,19.89,18.27h0c10.58,0,19.35-9,20.14-20.43h0l2,.13c-.83,12.41-10.36,22.29-22.13,22.3h0c-11,0-20.07-8.67-21.86-20Z" transform="translate(-42.99 -780.63)" style="fill:#fff"/><path d="M154.54,900.54l-.06-.95c-.57-10-3.29-30-4.6-40h0c-.68-5.17-2-8.23-4.1-10.25h0c-2.11-2-5.22-3.14-9.74-4h0A75.76,75.76,0,0,0,125.9,844h0l-.88-.07-.34-5.9h0l2-.11.24,4.14a80,80,0,0,1,9.5,1.38h0c4.64.91,8.16,2.09,10.74,4.55h0c2.57,2.46,4,6.06,4.7,11.42h0c1.27,9.69,3.87,28.77,4.56,39.17H193v2Z" transform="translate(-42.99 -780.63)" style="fill:#fff"/><path d="M43,900.54Zm37.5,0H43v-2H79.55c.69-10.4,3.23-29.49,4.58-39.17h0c.68-5,2.07-8.59,4.61-11.17h0c2.55-2.58,6.11-4,10.85-4.8h0c2.76-.47,5.53-1,9.46-1.33h0l.26-4.16,2,.12-.36,5.9-.87.07a97.47,97.47,0,0,0-10.14,1.37h0c-4.55.78-7.64,2.08-9.76,4.23h0c-2.12,2.16-3.4,5.29-4.06,10h0c-1.39,10-4,30-4.62,40h0l0,.95Z" transform="translate(-42.99 -780.63)" style="fill:#fff"/><polygon points="33.3 68.23 33.3 66.23 34.88 66.23 34.88 68.23 33.3 68.23 33.3 68.23" style="fill:#fff"/><polygon points="36.46 68.23 36.46 66.23 46.92 66.23 46.92 68.23 36.46 68.23 36.46 68.23" style="fill:#fff"/><polygon points="25.91 73.43 25.91 71.42 27.49 71.42 27.49 73.43 25.91 73.43 25.91 73.43" style="fill:#fff"/><polygon points="29.07 73.43 29.07 71.42 39.53 71.42 39.53 73.43 29.07 73.43 29.07 73.43" style="fill:#fff"/><path d="M135.3,823.37a6.78,6.78,0,0,0,.07-1h0c0-2.35-1.34-4.66-3.13-7.28h0a49.92,49.92,0,0,1-4.09-6.57h0a12.43,12.43,0,0,1-6.64,6.16h0l-.49.19-.44-.3a53.22,53.22,0,0,1-7.6-6.27h0a5.11,5.11,0,0,1-1.63-3h0a1.59,1.59,0,0,1,.08-.53h0l1.91.57-.14,0h.15v0h0a4.66,4.66,0,0,0,1.11,1.66h0a30.24,30.24,0,0,0,2.92,2.71h0c1.57,1.29,3.14,2.42,3.88,3h0a10.38,10.38,0,0,0,5.85-7.14h0l.82-3.46,1.1,3.38c1.05,3.2,3,5.92,4.86,8.58h0a19.13,19.13,0,0,1,3.28,6.53h0l0-.08h0a21.13,21.13,0,0,0,1.72-9.17h0a41.14,41.14,0,0,0-.25-4.36h0l2-.22a42.61,42.61,0,0,1,.26,4.58h0c0,9.54-3.8,12.88-4,13h0l-2,1.65.39-2.57Z" transform="translate(-42.99 -780.63)" style="fill:#fff"/><path d="M116.71,809.17" transform="translate(-42.99 -780.63)" style="fill:#fff"/><path d="M100.76,827c-.09-.1-6-6.15-6-17h0c0-.86,0-1.75.11-2.66h0l2,.17c-.07.86-.1,1.69-.1,2.49h0a24.83,24.83,0,0,0,4,13.82h0c.74-3.74,3.13-11.26,10.87-19.47h0l1.45,1.37c-7.87,8.36-9.92,15.87-10.45,19h0a11.86,11.86,0,0,0-.19,1.58h0l-.06,2.38-1.66-1.7Z" transform="translate(-42.99 -780.63)" style="fill:#fff"/><path d="M91.56,835.68a88.59,88.59,0,0,1-.85-13.31h0c0-3,.1-6,.23-8.73h0l2,.1c-.14,2.71-.23,5.66-.23,8.63h0a85.76,85.76,0,0,0,.83,13h0c.56,3.72,1.68,6.47,2.79,7.17h0l-1.15,1.64c-2-1.52-3-4.6-3.62-8.48Z" transform="translate(-42.99 -780.63)" style="fill:#fff"/><path d="M141.8,813.37c.07-3.68.26-4.8.26-6.73h0c-.06-15.83-10.73-23.93-24.3-24h0c-13.54.07-24.09,8.56-24.29,24h0V807h0c0,1.87.16,3.33.35,6.28h0l-2,.13c-.19-2.91-.35-4.41-.35-6.41h0v-.34h0c.1-16.48,11.89-26.07,26.29-26h0c7.19,0,13.77,2.23,18.56,6.64h0c4.8,4.4,7.74,11,7.74,19.37h0c0,2.09-.19,3.17-.26,6.76h0l-2,0Z" transform="translate(-42.99 -780.63)" style="fill:#fff"/><path d="M141.89,818.45v-1.76h2v1.75h0c0,10.25.55,24.61,3.06,29.58h0l-1.79.88c-2.85-5.9-3.24-20.06-3.27-30.46Z" transform="translate(-42.99 -780.63)" style="fill:#fff"/><polygon points="109.66 72.83 109.66 71.83 111.24 71.83 111.24 72.83 109.66 72.83 109.66 72.83" style="fill:#fff"/><polygon points="112.82 72.83 112.82 71.83 123.28 71.83 123.28 72.83 112.82 72.83 112.82 72.83" style="fill:#fff"/><polygon points="117.11 78.03 117.11 77.03 118.69 77.03 118.69 78.03 117.11 78.03 117.11 78.03" style="fill:#fff"/><polygon points="120.26 78.03 120.26 77.03 130.73 77.03 130.73 78.03 120.26 78.03 120.26 78.03" style="fill:#fff"/><path d="M92.5,819a8.41,8.41,0,0,1-1.06-3.93h0A4.71,4.71,0,0,1,93.35,811h0a3.47,3.47,0,0,1,2-.57h0a.63.63,0,0,1,.21,0h0l-.39,2,.18-.93v.94a1.64,1.64,0,0,0-.87.26h0a2.76,2.76,0,0,0-1,2.4h0a6.26,6.26,0,0,0,.8,3h0a4.72,4.72,0,0,0,3,2.55h0l-.32,2A6.6,6.6,0,0,1,92.5,819Z" transform="translate(-42.99 -780.63)" style="fill:#fff"/><path d="M138.44,820.62c.9-.13,1.94-1,2.8-2.56h0a6.28,6.28,0,0,0,.81-3h0a2.75,2.75,0,0,0-1-2.39h0a1.53,1.53,0,0,0-.77-.25h0l.12-2a3.66,3.66,0,0,1,1.74.57h0a4.72,4.72,0,0,1,1.9,4.07h0A8.28,8.28,0,0,1,143,819h0c-1,1.87-2.42,3.26-4.24,3.57h0l-.32-2Z" transform="translate(-42.99 -780.63)" style="fill:#fff"/><path d="M107.08,852.55l1.7-1a10.19,10.19,0,0,0,9.06,4.84h0a10.32,10.32,0,0,0,9.06-4.87h0l1.72,1a12.33,12.33,0,0,1-10.78,5.84h-.16a12.15,12.15,0,0,1-10.63-5.8Z" transform="translate(-42.99 -780.63)" style="fill:#fff"/><path d="M117,882.77c-8.39-7.08-9.91-20-9.94-29.16h0a74.65,74.65,0,0,1,.76-10.86h0l2,.32a72.44,72.44,0,0,0-.73,10.54h0c0,8.75,1.58,20.67,8.59,27.08h0c7.64-6.67,9.1-21.23,9.06-30h0c0-4.26-.3-7.12-.3-7.13h0l2-.21s.31,3,.31,7.34h0c0,9.22-1.28,24.75-10.45,32.13h0l-.64.5-.62-.52Z" transform="translate(-42.99 -780.63)" style="fill:#fff"/><path d="M99.89,863.43l-.17-.72,2.82-1.66-3.05-.72-.09-.68a14.39,14.39,0,0,1-.13-2h0a41,41,0,0,1,1.15-8.6h0a25.18,25.18,0,0,1,2-6h0l1.69,1.06a25.11,25.11,0,0,0-1.69,5.38h0a39.28,39.28,0,0,0-1.1,8.15h0c0,.38,0,.74,0,1.08h0l6.55,1.54L102,863.67c.12.42.31,1,.57,1.73h0a33.82,33.82,0,0,0,2.65,5.63h0c2.49,4.22,6.49,8.67,12.57,10h0l-.43,2c-13.7-3.11-17.44-19.49-17.5-19.55Z" transform="translate(-42.99 -780.63)" style="fill:#fff"/><path d="M117.56,881c9.1-2,13.59-11.1,15.22-15.63h0c.26-.72.45-1.31.57-1.73h0l-5.83-3.42,6.55-1.54q0-.51,0-1.08h0a38.58,38.58,0,0,0-1.09-8.15h0a24.33,24.33,0,0,0-1.7-5.38h0L133,843a25.18,25.18,0,0,1,2,6h0a41,41,0,0,1,1.14,8.6h0a16.09,16.09,0,0,1-.11,2h0l-.1.68-3,.72,2.83,1.66-.18.72c-.06.06-3.8,16.44-17.5,19.55h0l-.43-2Z" transform="translate(-42.99 -780.63)" style="fill:#fff"/><polygon points="15.29 112.22 1.5 112.22 1.5 80.39 35.45 80.39 35.45 101.61 34.39 101.61 34.39 81.45 2.56 81.45 2.56 111.16 15.29 111.16 15.29 112.22" style="fill:#fff"/><rect x="2.03" y="84.63" width="32.89" height="1.06" style="fill:#fff"/><rect x="12.11" y="82.51" width="21.22" height="1.06" style="fill:#fff"/><polygon points="15.29 110.1 3.62 110.1 3.62 86.75 33.33 86.75 33.33 101.61 32.27 101.61 32.27 87.81 4.68 87.81 4.68 109.03 15.29 109.03 15.29 110.1" style="fill:#fff"/><path d="M63.59,892.85H61.47v-7.43h1.59a35.83,35.83,0,0,0,2.65,5.3A2.12,2.12,0,0,1,63.59,892.85Zm-1.06-1.06h1.06a1.07,1.07,0,0,0,0-2.13H62.53Zm0-3.19h.53a1.06,1.06,0,1,0,0-2.12h-.53Z" transform="translate(-42.99 -780.63)" style="fill:#fff"/><path d="M68.9,892.85a2.13,2.13,0,0,1-2.13-2.12v-5.31h1.07v5.31a1.06,1.06,0,1,0,2.12,0v-5.31H71v5.31A2.12,2.12,0,0,1,68.9,892.85Z" transform="translate(-42.99 -780.63)" style="fill:#fff"/><rect x="30.68" y="109.04" width="1.06" height="3.18" style="fill:#fff"/><polygon points="31.21 109.78 29.09 107.66 29.09 104.79 30.15 104.79 30.15 107.22 31.21 108.28 32.27 107.22 32.27 104.79 33.33 104.79 33.33 107.66 31.21 109.78" style="fill:#fff"/><path d="M77.39,895h-17a1.06,1.06,0,0,1-1.06-1.06v-9.55a1.05,1.05,0,0,1,1.06-1.06h17a1.06,1.06,0,0,1,1.06,1.06v9.55A1.07,1.07,0,0,1,77.39,895Zm-17-10.61v9.55h17v-9.55Z" transform="translate(-42.99 -780.63)" style="fill:#fff"/><rect x="21.66" y="91" width="5.31" height="1.06" style="fill:#fff"/><rect x="24.84" y="93.12" width="5.31" height="1.06" style="fill:#fff"/><rect x="21.66" y="98.42" width="4.24" height="1.06" style="fill:#fff"/><rect x="26.96" y="98.42" width="3.18" height="1.06" style="fill:#fff"/><rect x="21.66" y="96.3" width="1.06" height="1.06" style="fill:#fff"/><rect x="23.78" y="96.3" width="1.06" height="1.06" style="fill:#fff"/><rect x="25.9" y="96.3" width="1.06" height="1.06" style="fill:#fff"/><rect x="21.66" y="93.12" width="2.12" height="1.06" style="fill:#fff"/><rect x="28.03" y="91" width="2.12" height="1.06" style="fill:#fff"/><rect x="125.43" y="112.45" width="10.77" height="1.14" style="fill:#fff"/><rect x="124.3" y="110.18" width="13.04" height="1.13" style="fill:#fff"/><path d="M161.62,894.22a5.68,5.68,0,0,1,0-11.35H186a.57.57,0,0,1,.57.57,2.84,2.84,0,0,1-2.84,2.83H161.62a2.27,2.27,0,0,0,0,4.54h1.13V892h-1.13a3.41,3.41,0,0,1,0-6.81h22.12a1.73,1.73,0,0,0,1.61-1.13H161.62a4.54,4.54,0,1,0,0,9.07v1.14Z" transform="translate(-42.99 -780.63)" style="fill:#fff"/><path d="M182.61,897.62a4,4,0,1,1,4-4A4,4,0,0,1,182.61,897.62Zm0-6.81a2.84,2.84,0,1,0,2.83,2.84A2.84,2.84,0,0,0,182.61,890.81Z" transform="translate(-42.99 -780.63)" style="fill:#fff"/><path d="M165,897.62a4,4,0,1,1,4-4A4,4,0,0,1,165,897.62Zm0-6.81a2.84,2.84,0,1,0,2.84,2.84A2.84,2.84,0,0,0,165,890.81Z" transform="translate(-42.99 -780.63)" style="fill:#fff"/><path d="M186,884H161.62a.57.57,0,0,1-.57-.56V871h1.14v11.91h23.42l4.13-11.35H163.32v-1.13h27.23a.56.56,0,0,1,.46.24.57.57,0,0,1,.07.52l-4.54,12.48A.56.56,0,0,1,186,884Z" transform="translate(-42.99 -780.63)" style="fill:#fff"/><path d="M159.92,884h-1.14V865.85a1.14,1.14,0,0,0-1.13-1.13v-1.14a2.27,2.27,0,0,1,2.27,2.27Z" transform="translate(-42.99 -780.63)" style="fill:#fff"/><path d="M162.19,871h-1.14v-5.11a1.14,1.14,0,0,0-1.13-1.13v-1.14a2.27,2.27,0,0,1,2.27,2.27Z" transform="translate(-42.99 -780.63)" style="fill:#fff"/><rect x="111.82" y="82.95" width="5.1" height="1.13" style="fill:#fff"/><path d="M184.31,876.06a2,2,0,0,1-1.55-.74c-.24-.26-.37-.39-.72-.39s-.48.13-.72.39a2,2,0,0,1-3.1,0c-.24-.26-.37-.39-.72-.39s-.48.13-.72.39a2,2,0,0,1-3.1,0c-.24-.26-.36-.39-.72-.39s-.48.13-.72.39a2,2,0,0,1-3.1,0c-.24-.26-.36-.39-.72-.39s-.47.13-.72.39a2,2,0,0,1-1.55.74,1.93,1.93,0,0,1-1.54-.74c-.25-.26-.37-.39-.73-.39v-1.14a2,2,0,0,1,1.55.75c.25.26.37.39.72.39s.48-.13.73-.39a1.94,1.94,0,0,1,1.54-.75,2,2,0,0,1,1.55.75c.24.26.37.39.72.39s.48-.13.73-.39a1.94,1.94,0,0,1,1.54-.75,2,2,0,0,1,1.55.75c.24.26.37.39.72.39s.48-.13.72-.39a2,2,0,0,1,3.1,0c.24.26.36.39.72.39s.48-.13.72-.39a2,2,0,0,1,3.1,0c.24.26.36.39.72.39s.47-.13.72-.39a2,2,0,0,1,1.55-.75v1.14c-.36,0-.48.13-.73.39A1.93,1.93,0,0,1,184.31,876.06Z" transform="translate(-42.99 -780.63)" style="fill:#fff"/><path d="M184.31,880.6a2,2,0,0,1-1.55-.74c-.24-.26-.37-.39-.72-.39s-.48.13-.72.39a2,2,0,0,1-3.1,0c-.24-.26-.37-.39-.72-.39s-.48.13-.72.39a2,2,0,0,1-3.1,0c-.24-.26-.36-.39-.72-.39s-.48.13-.72.39a2,2,0,0,1-3.1,0c-.24-.26-.36-.39-.72-.39s-.47.13-.72.39a2,2,0,0,1-1.55.74,1.93,1.93,0,0,1-1.54-.74c-.25-.26-.37-.39-.73-.39v-1.14a1.93,1.93,0,0,1,1.55.75c.25.26.37.39.72.39s.48-.13.73-.39a1.91,1.91,0,0,1,1.54-.75,1.93,1.93,0,0,1,1.55.75c.24.26.37.39.72.39s.48-.13.73-.39a1.91,1.91,0,0,1,1.54-.75,2,2,0,0,1,1.55.75c.24.26.37.39.72.39s.48-.13.72-.39a2,2,0,0,1,3.1,0c.24.26.36.39.72.39s.48-.13.72-.39a2,2,0,0,1,3.1,0c.24.26.36.39.72.39Z" transform="translate(-42.99 -780.63)" style="fill:#fff"/><path d="M165,892.51a1.14,1.14,0,1,1-1.13,1.14A1.14,1.14,0,0,1,165,892.51Z" transform="translate(-42.99 -780.63)" style="fill:#fff"/><path d="M182.61,892.51a1.14,1.14,0,1,1-1.14,1.14A1.14,1.14,0,0,1,182.61,892.51Z" transform="translate(-42.99 -780.63)" style="fill:#fff"/><path d="M181.47,869.26h-1.13V867H166.72v2.27h-1.13v-2.84a.57.57,0,0,1,.57-.57H180.9a.57.57,0,0,1,.57.57v2.84Z" transform="translate(-42.99 -780.63)" style="fill:#fff"/><path d="M185.44,869.26h-1.13v-6.81h-9.08v2.27H174.1v-2.84a.56.56,0,0,1,.57-.56h10.2a.56.56,0,0,1,.57.56v7.38Z" transform="translate(-42.99 -780.63)" style="fill:#fff"/><path d="M180.9,864.72h-2.26a.56.56,0,0,1-.57-.57v-2.27a.56.56,0,0,1,.57-.56h2.26a.56.56,0,0,1,.57.56v2.27A.56.56,0,0,1,180.9,864.72Zm-1.7-1.14h1.14v-1.13H179.2Z" transform="translate(-42.99 -780.63)" style="fill:#fff"/></svg>