<svg id="e9c0e525-eabf-451d-a69e-43597fdddd5c" data-name="圖層 1" xmlns="http://www.w3.org/2000/svg" viewBox="0 0 150 119.91"><title>hover-box1</title><path d="M1070.06,71.93c-.81,11.95-10,21.37-21.13,21.37h0c-10.45,0-19.14-8.26-20.88-19.11" transform="translate(-973.93 -34.3)" style="fill:none;stroke:#fff;stroke-width:2px"/><path d="M1056.62,91.6l.29,5a76.5,76.5,0,0,1,10.26,1.42c9.16,1.79,13.26,4.6,14.64,15.12,1.31,10,4,30,4.61,40h37.51" transform="translate(-973.93 -34.3)" style="fill:none;stroke:#fff;stroke-width:2px"/><path d="M973.93,153.21h37.5c.58-10.07,3.24-30.07,4.63-40,1.34-9.7,5.34-13.53,14.64-15.12a99.74,99.74,0,0,1,10.23-1.38l.31-5" transform="translate(-973.93 -34.3)" style="fill:none;stroke:#fff;stroke-width:2px"/><line x1="33.3" y1="67.23" x2="34.88" y2="67.23" style="fill:none;stroke:#fff;stroke-width:2px"/><line x1="36.46" y1="67.23" x2="46.92" y2="67.23" style="fill:none;stroke:#fff;stroke-width:2px"/><line x1="25.91" y1="72.42" x2="27.49" y2="72.42" style="fill:none;stroke:#fff;stroke-width:2px"/><line x1="29.07" y1="72.42" x2="39.53" y2="72.42" style="fill:none;stroke:#fff;stroke-width:2px"/><path d="M1026.84,61c-1,12.11,5.58,18.9,5.58,18.9s.22-9.93,10.91-21.29c-3.41,6.29-3.41,6.84-5.29,10.26,4.31-.51,8.17-5.34,9.61-6.08a23.34,23.34,0,0,0-.89,5c2.66-1,8.58-8.65,8.58-8.65-.66,2.27-3.26,8.27-3.26,8.27a11.38,11.38,0,0,0,6.94-8.05c2.38,7.26,9.13,11.77,8.21,17.81,0,0,4.78-3.92,3.38-16.73" transform="translate(-973.93 -34.3)" style="fill:none;stroke:#fff;stroke-miterlimit:8;stroke-width:2px"/><path d="M1024.41,72.49c.56,11.21.36,26.72-3.81,29.65" transform="translate(-973.93 -34.3)" style="fill:none;stroke:#fff;stroke-miterlimit:8;stroke-width:2px"/><path d="M1073.74,67.05c.07-3.63.26-4.73.26-6.74,0-16.35-11.33-25-25.3-25s-25.14,9-25.29,25c0,2.1.15,3.58.35,6.67" transform="translate(-973.93 -34.3)" style="fill:none;stroke:#fff;stroke-miterlimit:8;stroke-width:2px"/><path d="M1077,102.14c-2.83-5.75-3.21-21.38-3.16-31.78" transform="translate(-973.93 -34.3)" style="fill:none;stroke:#fff;stroke-miterlimit:8;stroke-width:2px"/><line x1="109.66" y1="72.33" x2="111.24" y2="72.33" style="fill:none;stroke:#fff;stroke-width:2px"/><line x1="112.82" y1="72.33" x2="123.28" y2="72.33" style="fill:none;stroke:#fff;stroke-width:2px"/><line x1="117.11" y1="77.53" x2="118.68" y2="77.53" style="fill:none;stroke:#fff;stroke-width:2px"/><line x1="120.26" y1="77.53" x2="130.73" y2="77.53" style="fill:none;stroke:#fff;stroke-width:2px"/><path d="M1028.05,75.26a5.68,5.68,0,0,1-3.74-3.05c-1.42-2.59-1.18-5.58.52-6.69a2.52,2.52,0,0,1,1.43-.42" transform="translate(-973.93 -34.3)" style="fill:none;stroke:#fff;stroke-width:2px"/><path d="M1069.54,75.27c1.36-.22,2.58-1.34,3.52-3.06,1.42-2.59,1.19-5.58-.52-6.69a2.45,2.45,0,0,0-1.25-.41" transform="translate(-973.93 -34.3)" style="fill:none;stroke:#fff;stroke-width:2px"/><path d="M1058.73,105.67a11.34,11.34,0,0,1-9.92,5.35,11.21,11.21,0,0,1-9.94-5.32" transform="translate(-973.93 -34.3)" style="fill:none;stroke:#fff;stroke-width:2px"/><path d="M1058.31,97.1s3,28.43-9.77,38.57c-13.35-11.18-8.83-39.09-8.83-39.09" transform="translate(-973.93 -34.3)" style="fill:none;stroke:#fff;stroke-width:2px"/><path d="M1034.16,97.24c-1.07,1.71-3.49,11-2.83,16l4.81,1.13-4.34,2.55s3.82,16,16.74,18.8" transform="translate(-973.93 -34.3)" style="fill:none;stroke:#fff;stroke-width:2px"/><path d="M1063.1,97.24c1.07,1.71,3.49,11,2.83,16l-4.81,1.13,4.34,2.55s-3.82,16-16.75,18.8" transform="translate(-973.93 -34.3)" style="fill:none;stroke:#fff;stroke-width:2px"/><path d="M1012.21,146l-15.68,4.9a.39.39,0,0,1-.5-.26l-9.9-31.69a.39.39,0,0,1,.26-.5l23.35-7.3a.42.42,0,0,1,.51.27l4.17,13.36" transform="translate(-973.93 -34.3)" style="fill:none;stroke:#fff;stroke-width:2px"/><polyline points="24.44 112.13 18.98 94.67 36.45 89.21" style="fill:none;stroke:#fff;stroke-width:2px"/><rect x="990.77" y="118.22" width="18.34" height="5.09" transform="translate(-964.48 269.2) rotate(-17.34)" style="fill:none;stroke:#fff;stroke-width:2px"/><polyline points="38.37 107.78 24.44 112.13 18.98 94.67 36.45 89.21 39.5 98.99" style="fill:none;stroke:#fff;stroke-width:2px"/><line x1="27.76" y1="91.93" x2="33.18" y2="109.3" style="fill:none;stroke:#fff;stroke-width:2px"/><line x1="39.16" y1="97.9" x2="21.78" y2="103.33" style="fill:none;stroke:#fff;stroke-width:2px"/><line x1="26.88" y1="97.03" x2="22.36" y2="98.44" style="fill:none;stroke:#fff;stroke-width:2px"/><line x1="25.32" y1="99.99" x2="23.91" y2="95.48" style="fill:none;stroke:#fff;stroke-width:2px"/><line x1="35.79" y1="94.25" x2="31.28" y2="95.66" style="fill:none;stroke:#fff;stroke-width:2px"/><line x1="29.46" y1="107.64" x2="25.27" y2="105.44" style="fill:none;stroke:#fff;stroke-width:2px"/><line x1="26.27" y1="108.63" x2="28.46" y2="104.44" style="fill:none;stroke:#fff;stroke-width:2px"/><line x1="38.86" y1="104.06" x2="34.34" y2="105.47" style="fill:none;stroke:#fff;stroke-width:2px"/><line x1="38.22" y1="102.03" x2="33.71" y2="103.44" style="fill:none;stroke:#fff;stroke-width:2px"/><rect x="1086.78" y="133.68" width="14.21" height="3.22" transform="translate(-302.21 1119.16) rotate(-74.53)" style="fill:none;stroke:#fff;stroke-width:2px"/><rect x="1091.69" y="133.36" width="18.61" height="3.22" transform="matrix(0.27, -0.96, 0.96, 0.27, -296.69, 1125.78)" style="fill:none;stroke:#fff;stroke-width:2px"/><rect x="1101.65" y="139.68" width="9.25" height="3.22" transform="translate(-298.8 1135.55) rotate(-74.54)" style="fill:none;stroke:#fff;stroke-width:2px"/><rect x="1106.96" y="139.89" width="12.56" height="3.22" transform="translate(-293.99 1142.37) rotate(-74.53)" style="fill:none;stroke:#fff;stroke-width:2px"/><polyline points="119.25 80.49 112.14 106.2 142.47 114.59" style="fill:none;stroke:#fff;stroke-width:2px"/><path d="M1097.64,124.26a.68.68,0,0,1-.84.48.69.69,0,1,1,.84-.48Z" transform="translate(-973.93 -34.3)" style="fill:none;stroke:#fff;stroke-width:2px"/><path d="M1105.88,119.9a.68.68,0,1,1-.48-.84A.69.69,0,0,1,1105.88,119.9Z" transform="translate(-973.93 -34.3)" style="fill:none;stroke:#fff;stroke-width:2px"/><path d="M1109.54,131.51a.69.69,0,0,1-.85.48.69.69,0,1,1,.85-.48Z" transform="translate(-973.93 -34.3)" style="fill:none;stroke:#fff;stroke-width:2px"/><path d="M1117.64,128.48a.7.7,0,0,1-.85.48.69.69,0,0,1-.47-.85.69.69,0,0,1,1.32.37Z" transform="translate(-973.93 -34.3)" style="fill:none;stroke:#fff;stroke-width:2px"/><polyline points="123.05 89.78 131.6 85.51 134.94 97.03 143.04 94" style="fill:none;stroke:#fff;stroke-width:2px"/></svg>