<svg id="b0694d0b-0cc8-46dd-9f33-9a178b5912d8" data-name="圖層 1" xmlns="http://www.w3.org/2000/svg" viewBox="0 0 150 116.71"><title>hover-box4</title><g id="b1a35da9-9331-40e1-acd9-87ca20c38928" data-name="圖層 3"><path d="M106.6,35.62c-12.42,0-22.49,8.35-22.49,23.09,0,10.43,3,14.76,3,14.76s1-6.56,5.28-6.92c15.53-1.29,20.84-8.89,20.84-8.89-.66,2.09-3.26,7.63-3.26,7.63a10.81,10.81,0,0,0,6.94-7.43,21.36,21.36,0,0,0,11,12.26s1.15-3.43,1.15-11.41C129.09,43.61,119,35.62,106.6,35.62Z" transform="translate(-31.81 -34.62)" style="fill:none;stroke:#fff;stroke-miterlimit:8;stroke-width:2px"/><path d="M127.94,69.05c-.81,12-10,21.37-21.13,21.37h0c-10.45,0-19.14-8.26-20.87-19.12" transform="translate(-31.81 -34.62)" style="fill:none;stroke:#fff;stroke-width:2px"/><path d="M85.93,72.38a5.68,5.68,0,0,1-3.74-3c-1.41-2.59-1.18-5.58.52-6.69a2.54,2.54,0,0,1,1.43-.42" transform="translate(-31.81 -34.62)" style="fill:none;stroke:#fff;stroke-width:2px"/><path d="M127.42,72.39c1.36-.22,2.58-1.34,3.52-3.06,1.42-2.59,1.19-5.59-.52-6.7a2.54,2.54,0,0,0-1.25-.41" transform="translate(-31.81 -34.62)" style="fill:none;stroke:#fff;stroke-width:2px"/><line x1="67" y1="59.17" x2="67.31" y2="54.13" style="fill:none;stroke:#fff;stroke-width:2px"/><line x1="82.69" y1="54.11" x2="82.98" y2="59.13" style="fill:none;stroke:#fff;stroke-width:2px"/><path d="M120.62,94.31s-8.34,35.29-13.81,35.29C102,129.6,93,94.31,93,94.31" transform="translate(-31.81 -34.62)" style="fill:none;stroke:#fff;stroke-width:2px"/><path d="M114.79,93.74c-2.55,7.59-7,7.71-8,7.71s-5.37,0-8-7.67" transform="translate(-31.81 -34.62)" style="fill:none;stroke:#fff;stroke-width:2px"/><path d="M106.81,101.45a15.77,15.77,0,0,0-9,9.84" transform="translate(-31.81 -34.62)" style="fill:none;stroke:#fff;stroke-width:2px"/><path d="M106.92,101.45a15.77,15.77,0,0,1,9,9.84" transform="translate(-31.81 -34.62)" style="fill:none;stroke:#fff;stroke-width:2px"/><polyline points="70 87.43 72.88 73.43 70.76 69.43" style="fill:none;stroke:#fff;stroke-width:2px"/><polyline points="79.24 69.43 77.12 73.43 80.32 87.43" style="fill:none;stroke:#fff;stroke-width:2px"/><path d="M114.79,93.74a76.08,76.08,0,0,1,10.26,1.43c9.16,1.78,13.26,4.59,14.64,15.12,1.31,10,4,30,4.61,40h37.51" transform="translate(-31.81 -34.62)" style="fill:none;stroke:#fff;stroke-width:2px"/><path d="M31.81,150.32h37.5c.58-10.06,3.24-30.06,4.63-40,1.34-9.71,5.34-13.53,14.64-15.12a99.4,99.4,0,0,1,10.23-1.39" transform="translate(-31.81 -34.62)" style="fill:none;stroke:#fff;stroke-width:2px"/><path d="M67.39,136a.5.5,0,0,1-.25.64l-3.79,1.24a.45.45,0,0,1-.53-.38l-.62-2.25a.51.51,0,0,1,.25-.64l3.79-1.23a.43.43,0,0,1,.53.37Z" transform="translate(-31.81 -34.62)" style="fill:none;stroke:#fff;stroke-miterlimit:10;stroke-width:2px"/><path d="M73.17,118.62,47.42,127a1.52,1.52,0,0,0-.76,1.9l1.76,6.39,7.31,3.32,6.78-2.22" transform="translate(-31.81 -34.62)" style="fill:none;stroke:#fff;stroke-miterlimit:10;stroke-width:2px"/><line x1="35.27" y1="100.31" x2="39.4" y2="98.97" style="fill:none;stroke:#fff;stroke-miterlimit:10;stroke-width:2px"/><path d="M48.93,135.55,52.37,148A1.34,1.34,0,0,0,54,149.16l16-5.23" transform="translate(-31.81 -34.62)" style="fill:none;stroke:#fff;stroke-miterlimit:10;stroke-width:2px"/><path d="M66.79,121.08l-.43-1.55a2.93,2.93,0,0,0-3.69-2.17l-5.34,1.75a3.29,3.29,0,0,0-2,4l.42,1.55" transform="translate(-31.81 -34.62)" style="fill:none;stroke:#fff;stroke-miterlimit:10;stroke-width:2px"/><path d="M143.82,146.25l10.8,3.08a.28.28,0,0,0,.34-.22l8.92-37.24a.31.31,0,0,0-.19-.37l-7.33-2.08" transform="translate(-31.81 -34.62)" style="fill:none;stroke:#fff;stroke-miterlimit:10;stroke-width:2px"/><line x1="112.7" y1="71.43" x2="106.77" y2="69.74" style="fill:none;stroke:#fff;stroke-miterlimit:10;stroke-width:2px"/><line x1="107.34" y1="73.43" x2="111.91" y2="74.73" style="fill:none;stroke:#fff;stroke-miterlimit:10;stroke-width:2px"/><polyline points="123.76 78.1 128.32 79.4 120.84 110.62 111.88 108.08" style="fill:none;stroke:#fff;stroke-miterlimit:10;stroke-width:2px"/><path d="M143.6,110a.54.54,0,0,0,.35.64l10.85,3.09a.49.49,0,0,0,.59-.38l1.21-5a.54.54,0,0,0-.35-.65l-2.38-.68.31-1.3a.66.66,0,0,0-.44-.8l-4.9-1.4a.61.61,0,0,0-.74.47l-.31,1.3-2.39-.67a.47.47,0,0,0-.59.37Z" transform="translate(-31.81 -34.62)" style="fill:none;stroke:#fff;stroke-miterlimit:10;stroke-width:2px"/><line x1="109.52" y1="79.7" x2="123.61" y2="83.71" style="fill:none;stroke:#fff;stroke-miterlimit:10;stroke-width:2px"/><line x1="109.15" y1="84.93" x2="122.42" y2="88.71" style="fill:none;stroke:#fff;stroke-miterlimit:10;stroke-width:2px"/><line x1="109.71" y1="90.43" x2="121.22" y2="93.71" style="fill:none;stroke:#fff;stroke-miterlimit:10;stroke-width:2px"/><line x1="110.51" y1="96" x2="120.02" y2="98.71" style="fill:none;stroke:#fff;stroke-miterlimit:10;stroke-width:2px"/><line x1="111.11" y1="101.52" x2="118.82" y2="103.71" style="fill:none;stroke:#fff;stroke-miterlimit:10;stroke-width:2px"/><line x1="28.61" y1="72.83" x2="30.19" y2="72.83" style="fill:none;stroke:#fff;stroke-width:2px"/><line x1="31.76" y1="72.83" x2="42.23" y2="72.83" style="fill:none;stroke:#fff;stroke-width:2px"/><line x1="21.22" y1="78.03" x2="22.8" y2="78.03" style="fill:none;stroke:#fff;stroke-width:2px"/><line x1="24.38" y1="78.03" x2="34.83" y2="78.03" style="fill:none;stroke:#fff;stroke-width:2px"/><line x1="94.1" y1="57.13" x2="95.68" y2="57.13" style="fill:none;stroke:#fff;stroke-width:2px"/><line x1="97.26" y1="57.13" x2="107.72" y2="57.13" style="fill:none;stroke:#fff;stroke-width:2px"/><line x1="101.55" y1="62.32" x2="103.13" y2="62.32" style="fill:none;stroke:#fff;stroke-width:2px"/><line x1="104.7" y1="62.32" x2="115.17" y2="62.32" style="fill:none;stroke:#fff;stroke-width:2px"/></g></svg>