<svg id="ad13934d-9b3f-4d0f-b031-83d47fd7b375" data-name="圖層 1" xmlns="http://www.w3.org/2000/svg" viewBox="0 0 150 117.23"><title>hover-box5</title><path d="M313.62,791.19c6.71,12.53,14,27.35,14,27.35s1.75-1.8,1.75-12.23-4.95-17.53-12.19-20.91" transform="translate(-231.82 -782.22)" style="fill:none;stroke:#fff;stroke-miterlimit:8;stroke-width:2px"/><path d="M328,816.65c-.81,12-10,21.37-21.14,21.37h0c-10.45,0-19.14-8.26-20.87-19.12" transform="translate(-231.82 -782.22)" style="fill:none;stroke:#fff;stroke-width:2px"/><path d="M285.94,820a5.68,5.68,0,0,1-3.74-3.05c-1.41-2.59-1.18-5.58.52-6.69a2.55,2.55,0,0,1,1.44-.42" transform="translate(-231.82 -782.22)" style="fill:none;stroke:#fff;stroke-width:2px"/><path d="M327.43,820c1.36-.22,2.58-1.34,3.52-3.06,1.42-2.59,1.19-5.58-.52-6.69a2.45,2.45,0,0,0-1.25-.41" transform="translate(-231.82 -782.22)" style="fill:none;stroke:#fff;stroke-width:2px"/><line x1="67" y1="59.17" x2="67.31" y2="54.14" style="fill:none;stroke:#fff;stroke-width:2px"/><line x1="82.69" y1="54.11" x2="82.98" y2="59.13" style="fill:none;stroke:#fff;stroke-width:2px"/><path d="M314.94,841.34c-2.55,7.59-7,7.71-8,7.71s-5.37,0-8-7.66" transform="translate(-231.82 -782.22)" style="fill:none;stroke:#fff;stroke-width:2px"/><path d="M314.8,841.34a77.73,77.73,0,0,1,10.26,1.43c9.16,1.79,13.26,4.6,14.64,15.12,1.31,10,4,30,4.61,40h37.51" transform="translate(-231.82 -782.22)" style="fill:none;stroke:#fff;stroke-width:2px"/><path d="M231.82,897.92h37.5c.58-10.06,3.24-30.06,4.63-40,1.35-9.7,5.35-13.53,14.64-15.12a97.25,97.25,0,0,1,10.24-1.38" transform="translate(-231.82 -782.22)" style="fill:none;stroke:#fff;stroke-width:2px"/><line x1="28.61" y1="68.21" x2="30.19" y2="68.21" style="fill:none;stroke:#fff;stroke-width:2px"/><line x1="31.77" y1="68.21" x2="42.23" y2="68.21" style="fill:none;stroke:#fff;stroke-width:2px"/><line x1="21.22" y1="73.4" x2="22.8" y2="73.4" style="fill:none;stroke:#fff;stroke-width:2px"/><line x1="24.38" y1="73.4" x2="34.84" y2="73.4" style="fill:none;stroke:#fff;stroke-width:2px"/><line x1="94.1" y1="57.13" x2="95.68" y2="57.13" style="fill:none;stroke:#fff;stroke-width:2px"/><line x1="97.26" y1="57.13" x2="107.72" y2="57.13" style="fill:none;stroke:#fff;stroke-width:2px"/><line x1="101.55" y1="62.32" x2="103.13" y2="62.32" style="fill:none;stroke:#fff;stroke-width:2px"/><line x1="104.7" y1="62.32" x2="115.17" y2="62.32" style="fill:none;stroke:#fff;stroke-width:2px"/><path d="M286.15,820.19a54.43,54.43,0,0,1-1.73-13.88c0-15.1,10.07-23.09,22.49-23.09a46.63,46.63,0,0,1,5.48.6,24.48,24.48,0,0,1,5,.06s-7.32,19.45-33.24,22.31" transform="translate(-231.82 -782.22)" style="fill:none;stroke:#fff;stroke-miterlimit:8;stroke-width:2px"/><polyline points="77.53 66.88 77.33 85.22 72.51 85.22 72.71 66.66" style="fill:none;stroke:#fff;stroke-miterlimit:10;stroke-width:2px"/><path d="M269.8,889.72" transform="translate(-231.82 -782.22)" style="fill:none;stroke:#fff;stroke-width:2px"/><path d="M269.8,889.72l-15.57,4.78a1.43,1.43,0,0,1-1.87-.76l-7.06-23a1.43,1.43,0,0,1,1.11-1.67l26.68-8.19" transform="translate(-231.82 -782.22)" style="fill:none;stroke:#fff;stroke-width:2px"/><line x1="20.17" y1="81.67" x2="21.94" y2="87.43" style="fill:none;stroke:#fff;stroke-linecap:round;stroke-width:2px"/><line x1="34.12" y1="77.39" x2="35.89" y2="83.15" style="fill:none;stroke:#fff;stroke-linecap:round;stroke-width:2px"/><line x1="15.21" y1="93.16" x2="40.94" y2="85.26" style="fill:none;stroke:#fff;stroke-width:2px"/><line x1="25.03" y1="94.19" x2="23.46" y2="94.67" style="fill:none;stroke:#fff;stroke-width:2px"/><line x1="29.26" y1="92.89" x2="27.7" y2="93.37" style="fill:none;stroke:#fff;stroke-width:2px"/><line x1="33.49" y1="91.59" x2="31.93" y2="92.07" style="fill:none;stroke:#fff;stroke-width:2px"/><line x1="37.73" y1="90.29" x2="36.17" y2="90.77" style="fill:none;stroke:#fff;stroke-width:2px"/><line x1="38.83" y1="93.87" x2="37.27" y2="94.35" style="fill:none;stroke:#fff;stroke-width:2px"/><line x1="39.34" y1="97.64" x2="38.36" y2="97.93" style="fill:none;stroke:#fff;stroke-width:2px"/><line x1="34.59" y1="95.17" x2="33.03" y2="95.65" style="fill:none;stroke:#fff;stroke-width:2px"/><line x1="35.69" y1="98.75" x2="34.13" y2="99.23" style="fill:none;stroke:#fff;stroke-width:2px"/><line x1="36.79" y1="102.33" x2="35.23" y2="102.81" style="fill:none;stroke:#fff;stroke-width:2px"/><line x1="30.36" y1="96.47" x2="28.8" y2="96.95" style="fill:none;stroke:#fff;stroke-width:2px"/><line x1="31.46" y1="100.05" x2="29.9" y2="100.53" style="fill:none;stroke:#fff;stroke-width:2px"/><line x1="32.56" y1="103.63" x2="31" y2="104.11" style="fill:none;stroke:#fff;stroke-width:2px"/><line x1="26.13" y1="97.77" x2="24.56" y2="98.25" style="fill:none;stroke:#fff;stroke-width:2px"/><line x1="27.23" y1="101.35" x2="25.66" y2="101.83" style="fill:none;stroke:#fff;stroke-width:2px"/><line x1="28.33" y1="104.93" x2="26.76" y2="105.41" style="fill:none;stroke:#fff;stroke-width:2px"/><line x1="22.22" y1="98.97" x2="20.65" y2="99.45" style="fill:none;stroke:#fff;stroke-width:2px"/><line x1="23.32" y1="102.55" x2="21.75" y2="103.03" style="fill:none;stroke:#fff;stroke-width:2px"/><line x1="24.42" y1="106.13" x2="22.85" y2="106.61" style="fill:none;stroke:#fff;stroke-width:2px"/><path d="M373,873.75a14.73,14.73,0,1,0-9.23,6.52A14.64,14.64,0,0,0,373,873.75Z" transform="translate(-231.82 -782.22)" style="fill:none;stroke:#fff;stroke-width:2px"/><path d="M369.49,871.52a10.59,10.59,0,1,0-6.62,4.67A10.53,10.53,0,0,0,369.49,871.52Z" transform="translate(-231.82 -782.22)" style="fill:none;stroke:#fff;stroke-width:2px"/><polyline points="111.49 105.52 114.57 100.65 119.4 103.71 112.8 114.15 112.32 113.85" style="fill:none;stroke:#fff;stroke-width:2px"/><polyline points="114.57 100.65 116.64 97.34 121.51 100.42 119.4 103.71" style="fill:none;stroke:#fff;stroke-width:2px"/><line x1="119.65" y1="98.39" x2="121.32" y2="95.75" style="fill:none;stroke:#fff;stroke-width:2px"/><line x1="128.34" y1="104.41" x2="128.34" y2="106.38" style="fill:none;stroke:#fff;stroke-miterlimit:10;stroke-width:2px"/><line x1="124.77" y1="106.64" x2="126.47" y2="107.62" style="fill:none;stroke:#fff;stroke-miterlimit:10;stroke-width:2px"/><line x1="124.91" y1="110.85" x2="126.61" y2="109.87" style="fill:none;stroke:#fff;stroke-miterlimit:10;stroke-width:2px"/><line x1="128.62" y1="112.84" x2="128.62" y2="110.87" style="fill:none;stroke:#fff;stroke-miterlimit:10;stroke-width:2px"/><line x1="132.2" y1="110.61" x2="130.5" y2="109.63" style="fill:none;stroke:#fff;stroke-miterlimit:10;stroke-width:2px"/><line x1="132.06" y1="106.4" x2="130.36" y2="107.38" style="fill:none;stroke:#fff;stroke-miterlimit:10;stroke-width:2px"/><path d="M294.22,842.27S296.15,852.94,297,853a25.36,25.36,0,0,0,7.41-.27" transform="translate(-231.82 -782.22)" style="fill:none;stroke:#fff;stroke-width:2px"/><path d="M309.87,853.05h8s.82-.61,2.47-11" transform="translate(-231.82 -782.22)" style="fill:none;stroke:#fff;stroke-width:2px"/><polyline points="50.33 61.73 50.33 94.97 47.33 96.22 47.33 117.22" style="fill:none;stroke:#fff;stroke-miterlimit:10;stroke-width:2px"/><polyline points="100.08 61.73 100.08 94.97 103.33 96.22 103.33 117.22" style="fill:none;stroke:#fff;stroke-miterlimit:10;stroke-width:2px"/><path d="M315.12,794.94s-7.75,9.5-16.5,14-14.25,1.5-14.25,1.5" transform="translate(-231.82 -782.22)" style="fill:none;stroke:#fff;stroke-miterlimit:8;stroke-width:2px"/></svg>