<svg id="bd41c982-881d-45dc-97fd-c3a66e66c996" data-name="圖層 1" xmlns="http://www.w3.org/2000/svg" viewBox="0 0 150 116.71"><title>hover-box2</title><path d="M807.16,40.68C799.92,44.06,795,51.25,795,61.6s1.75,12.22,1.75,12.22A55.85,55.85,0,0,0,813.08,55" transform="translate(-742.67 -37.5)" style="fill:none;stroke:#fff;stroke-miterlimit:8;stroke-width:2px"/><path d="M838.8,71.93c-.81,11.95-10,21.37-21.13,21.37h0c-10.45,0-19.15-8.26-20.88-19.11" transform="translate(-742.67 -37.5)" style="fill:none;stroke:#fff;stroke-width:2px"/><path d="M796.79,75.26a5.68,5.68,0,0,1-3.74-3.05c-1.42-2.59-1.19-5.58.52-6.69A2.52,2.52,0,0,1,795,65.1" transform="translate(-742.67 -37.5)" style="fill:none;stroke:#fff;stroke-width:2px"/><path d="M838.28,75.27c1.36-.22,2.58-1.34,3.52-3.06,1.42-2.59,1.18-5.58-.52-6.69a2.45,2.45,0,0,0-1.25-.41" transform="translate(-742.67 -37.5)" style="fill:none;stroke:#fff;stroke-width:2px"/><line x1="67" y1="59.17" x2="67.31" y2="54.13" style="fill:none;stroke:#fff;stroke-width:2px"/><line x1="82.69" y1="54.1" x2="82.98" y2="59.13" style="fill:none;stroke:#fff;stroke-width:2px"/><path d="M825.79,96.63c-2.55,7.58-7,7.7-8,7.7s-5.37,0-8-7.66" transform="translate(-742.67 -37.5)" style="fill:none;stroke:#fff;stroke-width:2px"/><path d="M817.8,104.33a15.78,15.78,0,0,0-9,9.84s-7-5.34-1.83-17.1" transform="translate(-742.67 -37.5)" style="fill:none;stroke:#fff;stroke-width:2px"/><path d="M817.8,104.33a15.81,15.81,0,0,1,9,9.84s7.05-5.34,1.82-17.1" transform="translate(-742.67 -37.5)" style="fill:none;stroke:#fff;stroke-width:2px"/><path d="M825.65,96.63a76.74,76.74,0,0,1,10.26,1.42c9.16,1.79,13.26,4.6,14.64,15.12,1.31,10,4,30,4.61,40h37.51" transform="translate(-742.67 -37.5)" style="fill:none;stroke:#fff;stroke-width:2px"/><path d="M742.67,153.21h37.5c.58-10.07,3.24-30.07,4.63-40,1.34-9.7,5.34-13.53,14.64-15.12a99.74,99.74,0,0,1,10.23-1.38" transform="translate(-742.67 -37.5)" style="fill:none;stroke:#fff;stroke-width:2px"/><line x1="28.61" y1="68.21" x2="30.19" y2="68.21" style="fill:none;stroke:#fff;stroke-width:2px"/><line x1="31.76" y1="68.21" x2="42.23" y2="68.21" style="fill:none;stroke:#fff;stroke-width:2px"/><line x1="21.22" y1="73.4" x2="22.8" y2="73.4" style="fill:none;stroke:#fff;stroke-width:2px"/><line x1="24.38" y1="73.4" x2="34.84" y2="73.4" style="fill:none;stroke:#fff;stroke-width:2px"/><line x1="94.11" y1="57.13" x2="95.69" y2="57.13" style="fill:none;stroke:#fff;stroke-width:2px"/><line x1="97.26" y1="57.13" x2="107.72" y2="57.13" style="fill:none;stroke:#fff;stroke-width:2px"/><line x1="101.55" y1="62.32" x2="103.13" y2="62.32" style="fill:none;stroke:#fff;stroke-width:2px"/><line x1="104.7" y1="62.32" x2="115.17" y2="62.32" style="fill:none;stroke:#fff;stroke-width:2px"/><path d="M838.44,72.11C812.53,69.24,807,39.16,807,39.16a24.41,24.41,0,0,1,5-.06,46.9,46.9,0,0,1,5.49-.6c12.42,0,22.49,8,22.49,23.1,0,8-1.15,11.41-1.15,11.41" transform="translate(-742.67 -37.5)" style="fill:none;stroke:#fff;stroke-miterlimit:8;stroke-width:2px"/><polyline points="77.54 67.95 77.54 96.25 72.72 96.25 72.72 67.95" style="fill:none;stroke:#fff;stroke-miterlimit:10;stroke-width:2px"/><path d="M780.65,145" transform="translate(-742.67 -37.5)" style="fill:none;stroke:#fff;stroke-width:2px"/><path d="M780.65,145l-15.57,4.78a1.44,1.44,0,0,1-1.87-.75l-7.07-23a1.46,1.46,0,0,1,1.12-1.68l26.68-8.19" transform="translate(-742.67 -37.5)" style="fill:none;stroke:#fff;stroke-width:2px"/><line x1="20.17" y1="81.67" x2="21.94" y2="87.43" style="fill:none;stroke:#fff;stroke-linecap:round;stroke-width:2px"/><line x1="34.12" y1="77.39" x2="35.89" y2="83.15" style="fill:none;stroke:#fff;stroke-linecap:round;stroke-width:2px"/><line x1="15.21" y1="93.16" x2="40.94" y2="85.26" style="fill:none;stroke:#fff;stroke-width:2px"/><line x1="25.03" y1="94.19" x2="23.46" y2="94.67" style="fill:none;stroke:#fff;stroke-width:2px"/><line x1="29.26" y1="92.89" x2="27.7" y2="93.37" style="fill:none;stroke:#fff;stroke-width:2px"/><line x1="33.49" y1="91.59" x2="31.93" y2="92.07" style="fill:none;stroke:#fff;stroke-width:2px"/><line x1="37.73" y1="90.29" x2="36.17" y2="90.77" style="fill:none;stroke:#fff;stroke-width:2px"/><line x1="38.83" y1="93.87" x2="37.27" y2="94.35" style="fill:none;stroke:#fff;stroke-width:2px"/><line x1="39.33" y1="97.64" x2="38.37" y2="97.93" style="fill:none;stroke:#fff;stroke-width:2px"/><line x1="34.59" y1="95.17" x2="33.03" y2="95.65" style="fill:none;stroke:#fff;stroke-width:2px"/><line x1="35.69" y1="98.75" x2="34.13" y2="99.23" style="fill:none;stroke:#fff;stroke-width:2px"/><line x1="36.79" y1="102.33" x2="35.23" y2="102.81" style="fill:none;stroke:#fff;stroke-width:2px"/><line x1="30.36" y1="96.47" x2="28.8" y2="96.95" style="fill:none;stroke:#fff;stroke-width:2px"/><line x1="31.46" y1="100.05" x2="29.9" y2="100.53" style="fill:none;stroke:#fff;stroke-width:2px"/><line x1="32.56" y1="103.63" x2="31" y2="104.11" style="fill:none;stroke:#fff;stroke-width:2px"/><line x1="26.13" y1="97.77" x2="24.56" y2="98.25" style="fill:none;stroke:#fff;stroke-width:2px"/><line x1="27.23" y1="101.35" x2="25.66" y2="101.83" style="fill:none;stroke:#fff;stroke-width:2px"/><line x1="28.33" y1="104.93" x2="26.76" y2="105.41" style="fill:none;stroke:#fff;stroke-width:2px"/><line x1="22.22" y1="98.97" x2="20.65" y2="99.45" style="fill:none;stroke:#fff;stroke-width:2px"/><line x1="23.32" y1="102.55" x2="21.75" y2="103.03" style="fill:none;stroke:#fff;stroke-width:2px"/><line x1="24.42" y1="106.13" x2="22.85" y2="106.61" style="fill:none;stroke:#fff;stroke-width:2px"/><path d="M883.86,129a14.73,14.73,0,1,0-9.23,6.52A14.64,14.64,0,0,0,883.86,129Z" transform="translate(-742.67 -37.5)" style="fill:none;stroke:#fff;stroke-width:2px"/><path d="M880.33,126.8a10.58,10.58,0,1,0-6.62,4.67A10.53,10.53,0,0,0,880.33,126.8Z" transform="translate(-742.67 -37.5)" style="fill:none;stroke:#fff;stroke-width:2px"/><polyline points="111.49 105.52 114.57 100.65 119.4 103.71 112.8 114.15 112.32 113.85" style="fill:none;stroke:#fff;stroke-width:2px"/><polyline points="114.57 100.65 116.64 97.34 121.51 100.42 119.4 103.71" style="fill:none;stroke:#fff;stroke-width:2px"/><line x1="119.65" y1="98.39" x2="121.32" y2="95.76" style="fill:none;stroke:#fff;stroke-width:2px"/><line x1="128.34" y1="104.41" x2="128.34" y2="106.38" style="fill:none;stroke:#fff;stroke-miterlimit:10;stroke-width:2px"/><line x1="124.77" y1="106.64" x2="126.47" y2="107.62" style="fill:none;stroke:#fff;stroke-miterlimit:10;stroke-width:2px"/><line x1="124.91" y1="110.85" x2="126.61" y2="109.87" style="fill:none;stroke:#fff;stroke-miterlimit:10;stroke-width:2px"/><line x1="128.62" y1="112.84" x2="128.62" y2="110.87" style="fill:none;stroke:#fff;stroke-miterlimit:10;stroke-width:2px"/><line x1="132.2" y1="110.61" x2="130.5" y2="109.63" style="fill:none;stroke:#fff;stroke-miterlimit:10;stroke-width:2px"/><line x1="132.06" y1="106.4" x2="130.36" y2="107.38" style="fill:none;stroke:#fff;stroke-miterlimit:10;stroke-width:2px"/><path d="M794.41,74s-1.58,14.76,1.06,15.29S800,85.61,803.38,88" transform="translate(-742.67 -37.5)" style="fill:none;stroke:#fff;stroke-linecap:round;stroke-linejoin:round;stroke-width:2px"/><path d="M841.37,73.38s1.58,14.77-1.06,15.3-4.48-3.69-7.91-1.32" transform="translate(-742.67 -37.5)" style="fill:none;stroke:#fff;stroke-linecap:round;stroke-linejoin:round;stroke-width:2px"/></svg>