<svg id="a591cd66-8c35-4a96-88e1-224499a3f63d" data-name="圖層 1" xmlns="http://www.w3.org/2000/svg" viewBox="0 0 150 116.71"><title>hover-box3</title><path d="M378.05,38.5c-12.42,0-22.49,8.35-22.49,23.1,0,10.42,3,14.76,3,14.76s1-6.57,5.29-6.93c15.53-1.29,20.84-8.89,20.84-8.89-.67,2.09-3.26,7.63-3.26,7.63a10.82,10.82,0,0,0,6.93-7.43A21.33,21.33,0,0,0,399.4,73s1.14-3.44,1.14-11.41C400.54,46.5,390.47,38.5,378.05,38.5Z" transform="translate(-303.27 -37.5)" style="fill:none;stroke:#fff;stroke-miterlimit:8;stroke-width:2px"/><path d="M399.4,71.93c-.81,11.95-10,21.37-21.13,21.37h0c-10.46,0-19.15-8.26-20.88-19.11" transform="translate(-303.27 -37.5)" style="fill:none;stroke:#fff;stroke-width:2px"/><path d="M357.38,75.26a5.68,5.68,0,0,1-3.74-3.05c-1.41-2.59-1.18-5.58.52-6.69a2.55,2.55,0,0,1,1.44-.42" transform="translate(-303.27 -37.5)" style="fill:none;stroke:#fff;stroke-width:2px"/><path d="M398.87,75.27c1.36-.22,2.58-1.34,3.52-3.06,1.42-2.59,1.19-5.58-.51-6.69a2.51,2.51,0,0,0-1.25-.41" transform="translate(-303.27 -37.5)" style="fill:none;stroke:#fff;stroke-width:2px"/><line x1="67" y1="59.17" x2="67.31" y2="54.13" style="fill:none;stroke:#fff;stroke-width:2px"/><line x1="82.69" y1="54.1" x2="82.98" y2="59.13" style="fill:none;stroke:#fff;stroke-width:2px"/><path d="M392.07,97.19s-8.34,35.29-13.8,35.29c-4.83,0-13.81-35.29-13.81-35.29" transform="translate(-303.27 -37.5)" style="fill:none;stroke:#fff;stroke-width:2px"/><path d="M386.24,96.63c-2.55,7.58-7,7.7-8,7.7s-5.38,0-8-7.66" transform="translate(-303.27 -37.5)" style="fill:none;stroke:#fff;stroke-width:2px"/><path d="M378.27,104.33a15.81,15.81,0,0,0-9,9.84" transform="translate(-303.27 -37.5)" style="fill:none;stroke:#fff;stroke-width:2px"/><path d="M378.37,104.33a15.81,15.81,0,0,1,9,9.84" transform="translate(-303.27 -37.5)" style="fill:none;stroke:#fff;stroke-width:2px"/><polyline points="70 87.43 72.88 73.43 70.76 69.43" style="fill:none;stroke:#fff;stroke-width:2px"/><polyline points="79.24 69.43 77.12 73.43 80.32 87.43" style="fill:none;stroke:#fff;stroke-width:2px"/><path d="M386.24,96.63a76.26,76.26,0,0,1,10.26,1.42c9.16,1.79,13.26,4.6,14.64,15.12,1.31,10,4,30,4.61,40h37.52" transform="translate(-303.27 -37.5)" style="fill:none;stroke:#fff;stroke-width:2px"/><path d="M303.27,153.21h37.49c.58-10.07,3.24-30.07,4.63-40,1.34-9.7,5.34-13.53,14.64-15.12a99.59,99.59,0,0,1,10.24-1.38" transform="translate(-303.27 -37.5)" style="fill:none;stroke:#fff;stroke-width:2px"/><path d="M338.85,138.93a.52.52,0,0,1-.26.64l-3.79,1.24a.46.46,0,0,1-.53-.38l-.62-2.26a.5.5,0,0,1,.25-.63l3.79-1.24a.45.45,0,0,1,.54.37Z" transform="translate(-303.27 -37.5)" style="fill:none;stroke:#fff;stroke-miterlimit:10;stroke-width:2px"/><path d="M344.62,121.5l-25.75,8.43a1.51,1.51,0,0,0-.76,1.89l1.76,6.39,7.31,3.32,6.78-2.21" transform="translate(-303.27 -37.5)" style="fill:none;stroke:#fff;stroke-miterlimit:10;stroke-width:2px"/><line x1="35.27" y1="100.32" x2="39.4" y2="98.97" style="fill:none;stroke:#fff;stroke-miterlimit:10;stroke-width:2px"/><path d="M320.38,138.44l3.44,12.48a1.34,1.34,0,0,0,1.59,1.12l16-5.23" transform="translate(-303.27 -37.5)" style="fill:none;stroke:#fff;stroke-miterlimit:10;stroke-width:2px"/><path d="M338.24,124l-.43-1.55a2.93,2.93,0,0,0-3.69-2.17L328.78,122a3.29,3.29,0,0,0-2,4l.42,1.55" transform="translate(-303.27 -37.5)" style="fill:none;stroke:#fff;stroke-miterlimit:10;stroke-width:2px"/><path d="M415.27,149.13l10.8,3.08a.28.28,0,0,0,.34-.22l8.92-37.24a.3.3,0,0,0-.19-.36l-7.33-2.09" transform="translate(-303.27 -37.5)" style="fill:none;stroke:#fff;stroke-miterlimit:10;stroke-width:2px"/><line x1="112.7" y1="71.43" x2="106.77" y2="69.74" style="fill:none;stroke:#fff;stroke-miterlimit:10;stroke-width:2px"/><line x1="107.34" y1="73.43" x2="111.91" y2="74.73" style="fill:none;stroke:#fff;stroke-miterlimit:10;stroke-width:2px"/><polyline points="123.76 78.1 128.32 79.4 120.84 110.62 111.88 108.07" style="fill:none;stroke:#fff;stroke-miterlimit:10;stroke-width:2px"/><path d="M415.05,112.88a.54.54,0,0,0,.35.64l10.85,3.09a.49.49,0,0,0,.59-.38l1.21-5a.53.53,0,0,0-.35-.64l-2.38-.68.31-1.31a.67.67,0,0,0-.43-.8l-4.91-1.4a.61.61,0,0,0-.74.47l-.31,1.31-2.39-.68a.48.48,0,0,0-.58.37Z" transform="translate(-303.27 -37.5)" style="fill:none;stroke:#fff;stroke-miterlimit:10;stroke-width:2px"/><line x1="109.52" y1="79.69" x2="123.61" y2="83.71" style="fill:none;stroke:#fff;stroke-miterlimit:10;stroke-width:2px"/><line x1="109.15" y1="84.93" x2="122.42" y2="88.71" style="fill:none;stroke:#fff;stroke-miterlimit:10;stroke-width:2px"/><line x1="109.71" y1="90.43" x2="121.22" y2="93.71" style="fill:none;stroke:#fff;stroke-miterlimit:10;stroke-width:2px"/><line x1="110.52" y1="96" x2="120.02" y2="98.71" style="fill:none;stroke:#fff;stroke-miterlimit:10;stroke-width:2px"/><line x1="111.11" y1="101.52" x2="118.83" y2="103.71" style="fill:none;stroke:#fff;stroke-miterlimit:10;stroke-width:2px"/><line x1="28.61" y1="72.83" x2="30.19" y2="72.83" style="fill:none;stroke:#fff;stroke-width:2px"/><line x1="31.76" y1="72.83" x2="42.23" y2="72.83" style="fill:none;stroke:#fff;stroke-width:2px"/><line x1="21.22" y1="78.03" x2="22.8" y2="78.03" style="fill:none;stroke:#fff;stroke-width:2px"/><line x1="24.38" y1="78.03" x2="34.83" y2="78.03" style="fill:none;stroke:#fff;stroke-width:2px"/><line x1="94.1" y1="57.13" x2="95.69" y2="57.13" style="fill:none;stroke:#fff;stroke-width:2px"/><line x1="97.26" y1="57.13" x2="107.72" y2="57.13" style="fill:none;stroke:#fff;stroke-width:2px"/><line x1="101.55" y1="62.32" x2="103.13" y2="62.32" style="fill:none;stroke:#fff;stroke-width:2px"/><line x1="104.7" y1="62.32" x2="115.17" y2="62.32" style="fill:none;stroke:#fff;stroke-width:2px"/></svg>