<svg id="a2334c66-4031-475d-be62-7b959b9f7e91" data-name="圖層 1" xmlns="http://www.w3.org/2000/svg" xmlns:xlink="http://www.w3.org/1999/xlink" viewBox="0 0 477.33 488.15"><defs><clipPath id="a157bd30-02d0-4197-8d7b-58ef5457049f" transform="translate(0 0)"><rect width="477.33" height="488.15" style="fill:none"/></clipPath></defs><title>icon-calendar</title><g style="clip-path:url(#a157bd30-02d0-4197-8d7b-58ef5457049f)"><path d="M172.44,269.31a11.08,11.08,0,0,0-11.08-11.07H122.7a11.08,11.08,0,0,0-11.08,11.07V308a11.08,11.08,0,0,0,11.08,11.08h38.66A11.08,11.08,0,0,0,172.44,308Z" transform="translate(0 0)" style="fill:#fff"/><path d="M269.07,269.31A11.07,11.07,0,0,0,258,258.24H219.33a11.07,11.07,0,0,0-11.07,11.07V308a11.08,11.08,0,0,0,11.07,11.08H258A11.08,11.08,0,0,0,269.07,308Z" transform="translate(0 0)" style="fill:#fff"/><path d="M365.71,269.31a11.08,11.08,0,0,0-11.08-11.07H316a11.08,11.08,0,0,0-11.08,11.07V308A11.08,11.08,0,0,0,316,319.05h38.66A11.08,11.08,0,0,0,365.71,308Z" transform="translate(0 0)" style="fill:#fff"/><path d="M172.44,366a11.06,11.06,0,0,0-11.08-11.07H122.7A11.06,11.06,0,0,0,111.62,366V404.6a11.08,11.08,0,0,0,11.08,11.08h38.66a11.08,11.08,0,0,0,11.08-11.08Z" transform="translate(0 0)" style="fill:#fff"/><path d="M269.07,366A11.06,11.06,0,0,0,258,354.88H219.33A11.06,11.06,0,0,0,208.26,366V404.6a11.08,11.08,0,0,0,11.07,11.08H258a11.08,11.08,0,0,0,11.07-11.08Z" transform="translate(0 0)" style="fill:#fff"/><path d="M365.71,366a11.06,11.06,0,0,0-11.07-11.07H316A11.06,11.06,0,0,0,304.89,366V404.6A11.08,11.08,0,0,0,316,415.68h38.67a11.08,11.08,0,0,0,11.07-11.08Z" transform="translate(0 0)" style="fill:#fff"/><path d="M434.84,54.35V113.4a48.23,48.23,0,0,1-48.34,48.2H356c-26.69,0-48.63-21.51-48.63-48.2V54.14H169.94V113.4c0,26.69-21.93,48.2-48.62,48.2H90.82a48.23,48.23,0,0,1-48.33-48.2v-59A44,44,0,0,0,0,98.08V444.14a44,44,0,0,0,43.75,44H433.58a44,44,0,0,0,43.75-44V98.08a44,44,0,0,0-42.49-43.73M420.68,422.59a18.93,18.93,0,0,1-18.92,18.92h-327a18.92,18.92,0,0,1-18.91-18.92V243.84a18.92,18.92,0,0,1,18.91-18.93h327a18.93,18.93,0,0,1,18.92,18.93Z" transform="translate(0 0)" style="fill:#fff"/><path d="M90.72,130h30.16a16.58,16.58,0,0,0,16.58-16.57V16.57A16.58,16.58,0,0,0,120.88,0H90.72A16.57,16.57,0,0,0,74.14,16.57v96.81A16.57,16.57,0,0,0,90.72,130" transform="translate(0 0)" style="fill:#fff"/><path d="M355.62,130h30.17a16.57,16.57,0,0,0,16.57-16.57V16.57A16.57,16.57,0,0,0,385.79,0H355.62a16.57,16.57,0,0,0-16.57,16.57v96.81A16.57,16.57,0,0,0,355.62,130" transform="translate(0 0)" style="fill:#fff"/></g></svg>