<svg id="b14ffa23-9b8b-4e7a-86a1-2971c1f130a8" data-name="圖層 1" xmlns="http://www.w3.org/2000/svg" xmlns:xlink="http://www.w3.org/1999/xlink" viewBox="0 0 442.27 143.02"><defs><clipPath id="bef9c82c-e9e4-4473-863e-4118094e6f7c"><rect width="442.27" height="143.02" style="fill:none"/></clipPath></defs><title>logo</title><g style="clip-path:url(#bef9c82c-e9e4-4473-863e-4118094e6f7c)"><path d="M435.77,0H354.69a6.5,6.5,0,0,0-6.5,6.5V45.26a6.5,6.5,0,0,0,6.5,6.5h81.08a6.49,6.49,0,0,0,6.49-6.5V6.5A6.49,6.49,0,0,0,435.77,0m-43,10.43H381.61V44.24h-7V10.43h-11.4l.06-2.85H393Zm20.06,33.81h-4.58L396,7.63h7.38l9.11,28.56,9.11-28.56h4.13Z" style="fill:#d12223"/><path d="M87.63,26.07a7.15,7.15,0,0,0,0,14.29,7.15,7.15,0,0,0,0-14.29m-6.55,29.5-.51.45v58.3l.51.51h12.6l.5-.51V56l-.5-.45ZM33.77,25.88H.66L0,26.51v88.23H33.77c20.11,0,38.31-10.2,38.31-38.48V64.18c0-21.87-13-38.3-38.31-38.3M51.58,85.36c0,17.81-14.84,22.51-18.81,22.51H20.52v-75H32.77c11.16,0,18.81,7.5,18.81,22Zm226.34-45a7.15,7.15,0,1,0-7.1-7.14,7.13,7.13,0,0,0,7.1,7.14m-5.25,15.21-.49.45v58.3l.49.51h12.62l.46-.51V56l-.46-.45Zm49.83,0h-28l-.46.46v58.34l.46.51h12.88l.41-.51V60H318a32.76,32.76,0,0,1,6.09.41c6.9,2.19,10.37,6.37,10.37,12.4v41.48l.46.51h12.82l.46-.51V81.18c0-19.37-13.54-25.66-25.69-25.66M169.21,26.07a7.15,7.15,0,1,0,7.15,7.15,7.09,7.09,0,0,0-7.15-7.15m-6.12,29.5-.46.45v58.3l.46.51H175.7l.4-.51V56l-.4-.45Zm-35.25,0c-12.92,0-25.75,5.85-25.75,24.86v7.29c0,27.39,19.42,27.11,34.29,27.11H140v5.51c0,10.35-14.2,24.92-32,8.82l-.41,8.43c9.66,6.89,23,5.57,26.14,4.79,11-2.78,20-10.27,20-24.79V56.05l-.46-.48ZM140,110h-8.52a24.27,24.27,0,0,1-6.32-.67c-2.17-.49-9.32-3.21-9.32-14.83V76.72c0-12.14,6.62-16.35,12.72-16.35H140Z" style="fill:#3f3f41"/><path d="M210.17,119.75h0v0ZM268.4,39.82a.48.48,0,0,0-.63-.19.11.11,0,0,0-.1,0h0C254.22,52,219.8,77.65,181,55.14l-.07,0a.35.35,0,0,0-.39,0,.52.52,0,0,0-.25.57h0c3.93,8.38,25,53.61,29.86,64.06a1.36,1.36,0,0,0,1.82.64,2.64,2.64,0,0,0,.71-.68c1.56-2.24,4.66-6.65,8.63-12.29-5.15-11.08-11.46-24.66-13.08-28.19a5,5,0,0,1-.53-1.76c-.15-1.92,1-3.22,2.88-2.92a5.94,5.94,0,0,1,2.06.75A38.69,38.69,0,0,0,232,80.79a38.2,38.2,0,0,0,8.68-1.06c11.14-15.89,22.4-32,27.65-39.45l0,0a.63.63,0,0,0,0-.43" style="fill:#d12223"/><path d="M268.45,68c-7.2,10.32-31.82,45.39-36.52,52.07a1.25,1.25,0,0,1-.43.4.91.91,0,0,1-1.21-.4c-3.17-6.84-17-36.5-19.52-42a.23.23,0,0,1,.18-.34.17.17,0,0,1,.21,0h.07c25.4,14.75,47.94-2.08,56.76-10.17,0,0,0,0,.07,0a.28.28,0,0,1,.39.18.61.61,0,0,1,0,.28" style="fill:#d12223"/></g></svg>