<?xml version="1.0" encoding="utf-8"?>
<!-- Generator: Adobe Illustrator 22.1.0, SVG Export Plug-In . SVG Version: 6.00 Build 0)  -->
<svg version="1.1" xmlns="http://www.w3.org/2000/svg" xmlns:xlink="http://www.w3.org/1999/xlink" x="0px" y="0px"
	 viewBox="0 0 120 120" style="enable-background:new 0 0 120 120;" xml:space="preserve">
<style type="text/css">
	.st0{display:none;}
	.st1{display:inline;stroke:#FFFFFF;stroke-miterlimit:10;}
	.st2{display:inline;stroke:#FFFFFF;}
	.st3{display:inline;}
	.st4{stroke:#FFFFFF;}
	.st5{fill:none;stroke:#FFFFFF;stroke-width:2;}
	.st6{fill:#FFFFFF;}
	.st7{display:inline;fill:none;stroke:#FFFFFF;stroke-width:2.5;stroke-miterlimit:10;}
	.st8{fill:none;stroke:#FFFFFF;stroke-width:2.5;stroke-linejoin:bevel;}
	.st9{display:inline;fill:none;stroke:#FFFFFF;stroke-width:2.5;}
</style>
<g id="圖層_2" class="st0">
	<rect y="1" class="st1" width="121" height="120"/>
</g>
<g id="圖層_1" class="st0">
	<g id="圖層_2_3_">
	</g>
	<g id="圖層_1_1_">
		<circle class="st2" cx="59.5" cy="59.5" r="60"/>
		<g id="圖層_2_2_" class="st3">
			<rect x="-0.5" y="0.5" class="st4" width="121" height="119"/>
			<circle class="st5" cx="58.5" cy="60.5" r="59"/>
		</g>
	</g>
	<g id="圖層_3_1_" class="st3">
		<g>
			<g>
				<path class="st6" d="M85.5,87.4h-52c-1.1,0-2-0.9-2-2v-29h2v29h52v-29h2v29C87.5,86.5,86.6,87.4,85.5,87.4z"/>
			</g>
			<g>
				<polygon class="st6" points="77.9,61.4 65.5,61.4 65.5,59.4 77.1,59.4 81.1,55.4 91.5,55.4 91.5,57.4 81.9,57.4 				"/>
			</g>
			<g>
				<polygon class="st6" points="52.5,61.4 41.1,61.4 37.1,57.4 27.5,57.4 27.5,55.4 37.9,55.4 41.9,59.4 52.5,59.4 				"/>
			</g>
			<g>
				<rect x="32.5" y="81.4" class="st6" width="54" height="2"/>
			</g>
			<g>
				<path class="st6" d="M59.5,61.4c-0.3,0-0.5-0.1-0.7-0.3l-6-6l1.4-1.4l5.3,5.3l5.3-5.3l1.4,1.4l-6,6C60,61.3,59.8,61.4,59.5,61.4
					z"/>
			</g>
			<g>
				<rect x="58.5" y="35.4" class="st6" width="2" height="25"/>
			</g>
			<g>
				<path class="st6" d="M47.5,53.4c-0.3,0-0.5-0.1-0.7-0.3l-6-6l1.4-1.4l5.3,5.3l5.3-5.3l1.4,1.4l-6,6C48,53.3,47.8,53.4,47.5,53.4
					z"/>
			</g>
			<g>
				<path class="st6" d="M71.5,53.4c-0.3,0-0.5-0.1-0.7-0.3l-6-6l1.4-1.4l5.3,5.3l5.3-5.3l1.4,1.4l-6,6C72,53.3,71.8,53.4,71.5,53.4
					z"/>
			</g>
			<g>
				<path class="st6" d="M48.5,52.4h-2v-11c0-2.2-1.8-4-4-4h-3v-2h3c3.3,0,6,2.7,6,6V52.4z"/>
			</g>
			<g>
				<path class="st6" d="M72.5,52.4h-2v-11c0-3.3,2.7-6,6-6h3v2h-3c-2.2,0-4,1.8-4,4V52.4z"/>
			</g>
			<g>
				<path class="st6" d="M81.5,65.4h-44c-1.1,0-2-0.9-2-2v-2h2v2h44v-2h2v2C83.5,64.5,82.6,65.4,81.5,65.4z"/>
			</g>
			<g>
				<rect x="31.5" y="35.4" class="st6" width="2" height="2"/>
			</g>
			<g>
				<rect x="27.5" y="35.4" class="st6" width="2" height="2"/>
			</g>
			<g>
				<rect x="35.5" y="35.4" class="st6" width="2" height="2"/>
			</g>
			<g>
				<rect x="85.5" y="35.4" class="st6" width="2" height="2"/>
			</g>
			<g>
				<rect x="81.5" y="35.4" class="st6" width="2" height="2"/>
			</g>
			<g>
				<rect x="89.5" y="35.4" class="st6" width="2" height="2"/>
			</g>
			<g>
				<path class="st6" d="M59.5,78.4c-2.2,0-4-1.8-4-4s1.8-4,4-4s4,1.8,4,4S61.7,78.4,59.5,78.4z M59.5,72.4c-1.1,0-2,0.9-2,2
					s0.9,2,2,2s2-0.9,2-2S60.6,72.4,59.5,72.4z"/>
			</g>
			<g>
				<rect x="58.5" y="23.4" class="st6" width="2" height="2"/>
			</g>
			<g>
				<rect x="58.5" y="27.4" class="st6" width="2" height="2"/>
			</g>
			<g>
				<rect x="58.5" y="31.4" class="st6" width="2" height="2"/>
			</g>
		</g>
	</g>
</g>
<g id="圖層_3" class="st0">
	<polygon class="st7" points="84.1,92 84.1,55.2 84.1,36.8 70.9,23.6 34,23.6 34,37.2 34,55.2 34,92 	"/>
	<g class="st3">
		<polygon class="st8" points="70.9,36.8 84.1,36.8 70.9,23.6 		"/>
	</g>
	<rect x="40.8" y="31.4" class="st7" width="20.1" height="4.7"/>
	<rect x="69.6" y="45.4" class="st9" width="7.4" height="5.2"/>
	<rect x="54.1" y="45.4" class="st9" width="15.5" height="5.2"/>
	<rect x="40.8" y="45.4" class="st9" width="13.7" height="5.2"/>
	<rect x="40.8" y="45.4" class="st7" width="36.2" height="27.6"/>
	<line class="st7" x1="40.6" y1="50.7" x2="77.1" y2="50.7"/>
	<line class="st7" x1="69.5" y1="45.3" x2="69.5" y2="73.4"/>
	<line class="st7" x1="54.4" y1="45.3" x2="54.4" y2="73.4"/>
	<line class="st7" x1="77.6" y1="79.8" x2="63.8" y2="79.8"/>
</g>
<g id="圖層_4">
	<g>
		<g>
			<polygon class="st6" points="65.6,30.4 63.4,30.4 63.4,27.2 56.9,27.2 56.9,30.4 54.7,30.4 54.7,25 65.6,25 			"/>
		</g>
		<g>
			<polygon class="st6" points="87.3,57.6 81.9,57.6 81.9,55.4 85.2,55.4 85.2,48.9 81.9,48.9 81.9,46.7 87.3,46.7 			"/>
		</g>
		<g>
			<polygon class="st6" points="38.4,57.6 33,57.6 33,46.7 38.4,46.7 38.4,48.9 35.2,48.9 35.2,55.4 38.4,55.4 			"/>
		</g>
		<g>
			<polygon class="st6" points="40.8,42 37,36.9 43.8,30.1 48.9,33.9 47.6,35.7 44,33 39.9,37.1 42.6,40.7 			"/>
		</g>
		<g>
			<polygon class="st6" points="43.8,74.3 37,67.5 40.8,62.4 42.6,63.7 39.9,67.3 44,71.4 47.6,68.7 48.9,70.4 			"/>
		</g>
		<g>
			<polygon class="st6" points="79.5,42 77.8,40.7 80.5,37.1 76.4,33 72.8,35.7 71.5,33.9 76.6,30.1 83.3,36.9 			"/>
		</g>
		<g>
			<polygon class="st6" points="76.6,74.3 71.5,70.4 72.8,68.7 76.4,71.4 80.5,67.3 77.8,63.7 79.5,62.4 83.3,67.5 			"/>
		</g>
		<g>
			<path class="st6" d="M50.8,73c-8.2-3.7-13.5-11.9-13.5-20.8c0-12.6,10.2-22.8,22.8-22.8S83,39.6,83,52.2c0,9-5.3,17.1-13.4,20.8
				l-0.9-2c7.4-3.3,12.2-10.7,12.2-18.8c0-11.4-9.3-20.7-20.7-20.7s-20.7,9.3-20.7,20.7c0,8.1,4.8,15.5,12.2,18.8L50.8,73z"/>
		</g>
		<g>
			<g>
				<path class="st6" d="M60.2,69.6c-9.6,0-17.4-7.8-17.4-17.4s7.8-17.4,17.4-17.4s17.4,7.8,17.4,17.4S69.8,69.6,60.2,69.6z
					 M60.2,37C51.8,37,45,43.8,45,52.2s6.8,15.2,15.2,15.2s15.2-6.8,15.2-15.2S68.6,37,60.2,37z"/>
			</g>
			<g>
				<path class="st6" d="M60.2,64.1c-6.6,0-12-5.4-12-12s5.4-12,12-12s12,5.4,12,12S66.8,64.1,60.2,64.1z M60.2,42.4
					c-5.4,0-9.8,4.4-9.8,9.8s4.4,9.8,9.8,9.8s9.8-4.4,9.8-9.8S65.6,42.4,60.2,42.4z"/>
			</g>
			<g>
				<path class="st6" d="M60.2,94.6c-3,0-5.4-2.4-5.4-5.4V68.5h2.2v20.7c0,1.8,1.5,3.3,3.3,3.3s3.3-1.5,3.3-3.3V68.5h2.2v20.7
					C65.6,92.1,63.2,94.6,60.2,94.6z"/>
			</g>
			<g>
				<rect x="59.1" y="77.2" class="st6" width="2.2" height="2.2"/>
			</g>
			<g>
				<rect x="59.1" y="81.5" class="st6" width="2.2" height="2.2"/>
			</g>
			<g>
				<rect x="59.1" y="85.9" class="st6" width="2.2" height="2.2"/>
			</g>
		</g>
		<g>
			<polygon class="st6" points="59.1,57 54,51.9 55.5,50.3 59.1,53.9 64.8,48.1 66.4,49.7 			"/>
		</g>
		<g>
			<rect x="33" y="40.2" class="st6" width="2.2" height="2.2"/>
		</g>
		<g>
			<rect x="33" y="62" class="st6" width="2.2" height="2.2"/>
		</g>
		<g>
			<rect x="48.2" y="25" class="st6" width="2.2" height="2.2"/>
		</g>
		<g>
			<rect x="70" y="25" class="st6" width="2.2" height="2.2"/>
		</g>
		<g>
			<rect x="85.2" y="40.2" class="st6" width="2.2" height="2.2"/>
		</g>
		<g>
			<rect x="85.2" y="62" class="st6" width="2.2" height="2.2"/>
		</g>
	</g>
</g>
</svg>
